<?xml version="1.0" encoding="UTF-8" standalone="yes"?>
<COLLADA xmlns="http://www.collada.org/2005/11/COLLADASchema" version="1.4.1">
    <asset>
        <contributor>
            <authoring_tool>3D City Database Importer/Exporter, version 5.5.3; Chair of Geoinformatics, Technical University of Munich</authoring_tool>
        </contributor>
        <created>2026-09-25T14:45:08.661</created>
        <modified>2026-09-25T14:45:08.661</modified>
        <unit meter="1.0" name="meters"/>
        <up_axis>Z_UP</up_axis>
    </asset>
    <library_materials>
        <material id="default_ai_0.2_sh_0.2_tr_0.0_dc_r_0.8_g_0.8_b_0.8_sc_r_1.0_g_1.0_b_1.0_ec_r_0.0_g_0.0_b_0_mat">
            <instance_effect url="#default_ai_0.2_sh_0.2_tr_0.0_dc_r_0.8_g_0.8_b_0.8_sc_r_1.0_g_1.0_b_1.0_ec_r_0.0_g_0.0_b_0_eff"/>
        </material>
    </library_materials>
    <library_effects>
        <effect id="default_ai_0.2_sh_0.2_tr_0.0_dc_r_0.8_g_0.8_b_0.8_sc_r_1.0_g_1.0_b_1.0_ec_r_0.0_g_0.0_b_0_eff">
            <profile_COMMON>
                <technique sid="COMMON">
                    <lambert>
                        <emission>
                            <color>0.0 0.0 0.0 1.0</color>
                        </emission>
                        <diffuse>
                            <color>0.8 0.8 0.8 1.0</color>
                        </diffuse>
                        <reflective>
                            <color>1.0 1.0 1.0 1.0</color>
                        </reflective>
                        <reflectivity>
                            <float>0.2</float>
                        </reflectivity>
                        <transparent opaque="A_ONE">
                            <color>1.0 1.0 1.0 1.0</color>
                        </transparent>
                        <transparency>
                            <float>1.0</float>
                        </transparency>
                    </lambert>
                </technique>
                <extra>
                    <technique profile="GOOGLEEARTH">
                        <double_sided>0</double_sided>
                    </technique>
                </extra>
            </profile_COMMON>
        </effect>
    </library_effects>
    <library_geometries>
        <geometry id="geometry0">
            <mesh>
                <source id="geometry0-position">
                    <float_array id="geometry0-position-array" count="402">0.0 0.0 1.5 0.168108 0.0970575 1.4744445 0.1941143 0.0 1.4744445 0.0970575 0.168108 1.4744445 0.0 0.1941143 1.4744445 -0.0970575 0.168108 1.4744445 -0.168108 0.0970575 1.4744445 -0.1941143 0.0 1.4744445 -0.168108 -0.0970575 1.4744445 -0.0970575 -0.168108 1.4744445 0.0 -0.1941143 1.4744445 0.0970575 -0.168108 1.4744445 0.168108 -0.0970575 1.4744445 0.3247597 0.1875 1.3995188 0.375 0.0 1.3995188 0.1875 0.3247597 1.3995188 0.0 0.375 1.3995188 -0.1875 0.3247597 1.3995188 -0.3247597 0.1875 1.3995188 -0.375 0.0 1.3995188 -0.3247597 -0.1875 1.3995188 -0.1875 -0.3247597 1.3995188 0.0 -0.375 1.3995188 0.1875 -0.3247597 1.3995188 0.3247597 -0.1875 1.3995188 0.459279 0.2651647 1.2803302 0.5303302 0.0 1.2803302 0.2651647 0.459279 1.2803302 0.0 0.5303303 1.2803302 -0.2651647 0.459279 1.2803302 -0.459279 0.2651647 1.2803302 -0.5303302 0.0 1.2803302 -0.459279 -0.2651647 1.2803302 -0.2651647 -0.459279 1.2803302 0.0 -0.5303303 1.2803302 0.2651647 -0.459279 1.2803302 0.459279 -0.2651647 1.2803302 0.5625 0.3247597 1.125 0.6495188 0.0 1.125 0.3247597 0.5625 1.125 0.0 0.6495187 1.125 -0.3247597 0.5625 1.125 -0.5625 0.3247597 1.125 -0.6495188 0.0 1.125 -0.5625 -0.3247597 1.125 -0.3247597 -0.5625 1.125 0.0 -0.6495187 1.125 0.3247597 -0.5625 1.125 0.5625 -0.3247597 1.125 0.627387 0.3622222 0.9441143 0.7244445 0.0 0.9441143 0.3622223 0.627387 0.9441143 0.0 0.7244445 0.9441143 -0.3622223 0.627387 0.9441143 -0.627387 0.3622222 0.9441143 -0.7244445 0.0 0.9441143 -0.627387 -0.3622222 0.9441143 -0.3622223 -0.627387 0.9441143 0.0 -0.7244445 0.9441143 0.3622223 -0.627387 0.9441143 0.627387 -0.3622222 0.9441143 0.6495188 0.375 0.75 0.75 0.0 0.75 0.375 0.6495187 0.75 0.0 0.75 0.75 -0.375 0.6495187 0.75 -0.6495188 0.375 0.75 -0.75 0.0 0.75 -0.6495188 -0.375 0.75 -0.375 -0.6495187 0.75 0.0 -0.75 0.75 0.375 -0.6495187 0.75 0.6495188 -0.375 0.75 0.627387 0.3622222 0.5558857 0.7244445 0.0 0.5558857 0.3622223 0.627387 0.5558857 0.0 0.7244445 0.5558857 -0.3622223 0.627387 0.5558857 -0.627387 0.3622222 0.5558857 -0.7244445 0.0 0.5558857 -0.627387 -0.3622222 0.5558857 -0.3622223 -0.627387 0.5558857 0.0 -0.7244445 0.5558857 0.3622223 -0.627387 0.5558857 0.627387 -0.3622222 0.5558857 0.5625 0.3247597 0.375 0.6495188 0.0 0.375 0.3247597 0.5625 0.375 0.0 0.6495187 0.375 -0.3247597 0.5625 0.375 -0.5625 0.3247597 0.375 -0.6495188 0.0 0.375 -0.5625 -0.3247597 0.375 -0.3247597 -0.5625 0.375 0.0 -0.6495187 0.375 0.3247597 -0.5625 0.375 0.5625 -0.3247597 0.375 0.459279 0.2651647 0.2196697 0.5303302 0.0 0.2196697 0.2651647 0.459279 0.2196697 0.0 0.5303303 0.2196697 -0.2651647 0.459279 0.2196697 -0.459279 0.2651647 0.2196697 -0.5303302 0.0 0.2196697 -0.459279 -0.2651647 0.2196697 -0.2651647 -0.459279 0.2196697 0.0 -0.5303303 0.2196697 0.2651647 -0.459279 0.2196697 0.459279 -0.2651647 0.2196697 0.3247597 0.1875 0.1004812 0.375 0.0 0.1004812 0.1875 0.3247597 0.1004812 0.0 0.375 0.1004812 -0.1875 0.3247597 0.1004812 -0.3247597 0.1875 0.1004812 -0.375 0.0 0.1004812 -0.3247597 -0.1875 0.1004812 -0.1875 -0.3247597 0.1004812 0.0 -0.375 0.1004812 0.1875 -0.3247597 0.1004812 0.3247597 -0.1875 0.1004812 0.168108 0.0970575 0.0255555 0.1941143 0.0 0.0255555 0.0970575 0.168108 0.0255555 0.0 0.1941143 0.0255555 -0.0970575 0.168108 0.0255555 -0.168108 0.0970575 0.0255555 -0.1941143 0.0 0.0255555 -0.168108 -0.0970575 0.0255555 -0.0970575 -0.168108 0.0255555 0.0 -0.1941143 0.0255555 0.0970575 -0.168108 0.0255555 0.168108 -0.0970575 0.0255555 0.0 0.0 0.0</float_array>
                    <technique_common>
                        <accessor count="134" source="#geometry0-position-array" stride="3">
                            <param name="X" type="float"/>
                            <param name="Y" type="float"/>
                            <param name="Z" type="float"/>
                        </accessor>
                    </technique_common>
                </source>
                <source id="geometry0-normal">
                    <float_array id="geometry0-normal-array" count="2520">0.7760128 0.2079311 0.5954568 0.7760128 0.2079311 0.5954568 0.7760128 0.2079311 0.5954568 0.7760143 0.207934 0.5954537 0.7760143 0.207934 0.5954537 0.7760143 0.207934 0.5954537 0.5680803 0.5680803 0.5954574 0.5680803 0.5680803 0.5954574 0.5680803 0.5680803 0.5954574 0.5680803 0.5680803 0.5954574 0.5680803 0.5680803 0.5954574 0.5680803 0.5680803 0.5954574 0.2079316 0.7760147 0.595454 0.2079316 0.7760147 0.595454 0.2079316 0.7760147 0.595454 0.2079334 0.7760119 0.5954571 0.2079334 0.7760119 0.5954571 0.2079334 0.7760119 0.5954571 -0.2079311 0.7760128 0.5954568 -0.2079311 0.7760128 0.5954568 -0.2079311 0.7760128 0.5954568 -0.207934 0.7760143 0.5954537 -0.207934 0.7760143 0.5954537 -0.207934 0.7760143 0.5954537 -0.5680803 0.5680803 0.5954574 -0.5680803 0.5680803 0.5954574 -0.5680803 0.5680803 0.5954574 -0.5680803 0.5680803 0.5954574 -0.5680803 0.5680803 0.5954574 -0.5680803 0.5680803 0.5954574 -0.7760147 0.2079316 0.595454 -0.7760147 0.2079316 0.595454 -0.7760147 0.2079316 0.595454 -0.7760119 0.2079334 0.5954571 -0.7760119 0.2079334 0.5954571 -0.7760119 0.2079334 0.5954571 -0.6008203 -0.1609906 0.7830051 -0.6008203 -0.1609906 0.7830051 -0.6008203 -0.1609906 0.7830051 -0.6008191 -0.1609882 0.7830065 -0.6008191 -0.1609882 0.7830065 -0.6008191 -0.1609882 0.7830065 -0.4398313 -0.4398313 0.7830049 -0.4398313 -0.4398313 0.7830049 -0.4398313 -0.4398313 0.7830049 -0.4398313 -0.4398313 0.783005 -0.4398313 -0.4398313 0.783005 -0.4398313 -0.4398313 0.783005 -0.1609902 -0.6008189 0.7830064 -0.1609902 -0.6008189 0.7830064 -0.1609902 -0.6008189 0.7830064 -0.1609888 -0.6008211 0.7830048 -0.1609888 -0.6008211 0.7830048 -0.1609888 -0.6008211 0.7830048 0.1609906 -0.6008203 0.7830051 0.1609906 -0.6008203 0.7830051 0.1609906 -0.6008203 0.7830051 0.1609882 -0.6008191 0.7830065 0.1609882 -0.6008191 0.7830065 0.1609882 -0.6008191 0.7830065 0.4398313 -0.4398313 0.7830049 0.4398313 -0.4398313 0.7830049 0.4398313 -0.4398313 0.7830049 0.4398313 -0.4398313 0.783005 0.4398313 -0.4398313 0.783005 0.4398313 -0.4398313 0.783005 0.6008189 -0.1609902 0.7830064 0.6008189 -0.1609902 0.7830064 0.6008189 -0.1609902 0.7830064 0.6008211 -0.1609888 0.7830048 0.6008211 -0.1609888 0.7830048 0.6008211 -0.1609888 0.7830048 0.6008203 0.1609906 0.7830051 0.6008203 0.1609906 0.7830051 0.6008203 0.1609906 0.7830051 0.6008191 0.1609882 0.7830065 0.6008191 0.1609882 0.7830065 0.6008191 0.1609882 0.7830065 0.4398313 0.4398313 0.7830049 0.4398313 0.4398313 0.7830049 0.4398313 0.4398313 0.7830049 0.4398313 0.4398313 0.783005 0.4398313 0.4398313 0.783005 0.4398313 0.4398313 0.783005 0.1609902 0.6008189 0.7830064 0.1609902 0.6008189 0.7830064 0.1609902 0.6008189 0.7830064 0.1609888 0.6008211 0.7830048 0.1609888 0.6008211 0.7830048 0.1609888 0.6008211 0.7830048 -0.1609906 0.6008203 0.7830051 -0.1609906 0.6008203 0.7830051 -0.1609906 0.6008203 0.7830051 -0.1609882 0.6008191 0.7830065 -0.1609882 0.6008191 0.7830065 -0.1609882 0.6008191 0.7830065 -0.4398313 0.4398313 0.7830049 -0.4398313 0.4398313 0.7830049 -0.4398313 0.4398313 0.7830049 -0.4398313 0.4398313 0.783005 -0.4398313 0.4398313 0.783005 -0.4398313 0.4398313 0.783005 -0.6008189 0.1609902 0.7830064 -0.6008189 0.1609902 0.7830064 -0.6008189 0.1609902 0.7830064 -0.6008211 0.1609888 0.7830048 -0.6008211 0.1609888 0.7830048 -0.6008211 0.1609888 0.7830048 -0.3806894 -0.102005 0.9190597 -0.3806894 -0.102005 0.9190597 -0.3806894 -0.102005 0.9190597 -0.3806892 -0.1020045 0.9190598 -0.3806892 -0.1020045 0.9190598 -0.3806892 -0.1020045 0.9190598 -0.278684 -0.278684 0.9190595 -0.278684 -0.278684 0.9190595 -0.278684 -0.278684 0.9190595 -0.278684 -0.278684 0.9190595 -0.278684 -0.278684 0.9190595 -0.278684 -0.278684 0.9190595 -0.1020049 -0.3806892 0.9190598 -0.1020049 -0.3806892 0.9190598 -0.1020049 -0.3806892 0.9190598 -0.1020046 -0.3806895 0.9190596 -0.1020046 -0.3806895 0.9190596 -0.1020046 -0.3806895 0.9190596 0.102005 -0.3806894 0.9190597 0.102005 -0.3806894 0.9190597 0.102005 -0.3806894 0.9190597 0.1020045 -0.3806892 0.9190598 0.1020045 -0.3806892 0.9190598 0.1020045 -0.3806892 0.9190598 0.278684 -0.278684 0.9190595 0.278684 -0.278684 0.9190595 0.278684 -0.278684 0.9190595 0.278684 -0.278684 0.9190595 0.278684 -0.278684 0.9190595 0.278684 -0.278684 0.9190595 0.3806892 -0.1020049 0.9190598 0.3806892 -0.1020049 0.9190598 0.3806892 -0.1020049 0.9190598 0.3806895 -0.1020046 0.9190596 0.3806895 -0.1020046 0.9190596 0.3806895 -0.1020046 0.9190596 0.3806894 0.102005 0.9190597 0.3806894 0.102005 0.9190597 0.3806894 0.102005 0.9190597 0.3806892 0.1020045 0.9190598 0.3806892 0.1020045 0.9190598 0.3806892 0.1020045 0.9190598 0.278684 0.278684 0.9190595 0.278684 0.278684 0.9190595 0.278684 0.278684 0.9190595 0.278684 0.278684 0.9190595 0.278684 0.278684 0.9190595 0.278684 0.278684 0.9190595 0.1020049 0.3806892 0.9190598 0.1020049 0.3806892 0.9190598 0.1020049 0.3806892 0.9190598 0.1020046 0.3806895 0.9190596 0.1020046 0.3806895 0.9190596 0.1020046 0.3806895 0.9190596 -0.102005 0.3806894 0.9190597 -0.102005 0.3806894 0.9190597 -0.102005 0.3806894 0.9190597 -0.1020045 0.3806892 0.9190598 -0.1020045 0.3806892 0.9190598 -0.1020045 0.3806892 0.9190598 -0.278684 0.278684 0.9190595 -0.278684 0.278684 0.9190595 -0.278684 0.278684 0.9190595 -0.278684 0.278684 0.9190595 -0.278684 0.278684 0.9190595 -0.278684 0.278684 0.9190595 -0.3806892 0.1020049 0.9190598 -0.3806892 0.1020049 0.9190598 -0.3806892 0.1020049 0.9190598 -0.3806895 0.1020046 0.9190596 -0.3806895 0.1020046 0.9190596 -0.3806895 0.1020046 0.9190596 -0.1304458 -0.0349525 0.9908391 -0.1304458 -0.0349525 0.9908391 -0.1304458 -0.0349525 0.9908391 1.0 0.0 0.0 1.0 0.0 0.0 -0.0954928 -0.0954928 0.9908392 -0.0954928 -0.0954928 0.9908392 -0.0954928 -0.0954928 0.9908392 1.0 0.0 0.0 1.0 0.0 0.0 -0.0349525 -0.1304458 0.9908391 -0.0349525 -0.1304458 0.9908391 -0.0349525 -0.1304458 0.9908391 1.0 0.0 0.0 1.0 0.0 0.0 0.0349525 -0.1304458 0.9908391 0.0349525 -0.1304458 0.9908391 0.0349525 -0.1304458 0.9908391 1.0 0.0 0.0 1.0 0.0 0.0 0.0954928 -0.0954928 0.9908392 0.0954928 -0.0954928 0.9908392 0.0954928 -0.0954928 0.9908392 1.0 0.0 0.0 1.0 0.0 0.0 0.1304458 -0.0349525 0.9908391 0.1304458 -0.0349525 0.9908391 0.1304458 -0.0349525 0.9908391 1.0 0.0 0.0 1.0 0.0 0.0 0.1304458 0.0349525 0.9908391 0.1304458 0.0349525 0.9908391 0.1304458 0.0349525 0.9908391 1.0 0.0 0.0 1.0 0.0 0.0 0.0954928 0.0954928 0.9908392 0.0954928 0.0954928 0.9908392 0.0954928 0.0954928 0.9908392 1.0 0.0 0.0 1.0 0.0 0.0 0.0349525 0.1304458 0.9908391 0.0349525 0.1304458 0.9908391 0.0349525 0.1304458 0.9908391 1.0 0.0 0.0 1.0 0.0 0.0 -0.0349525 0.1304458 0.9908391 -0.0349525 0.1304458 0.9908391 -0.0349525 0.1304458 0.9908391 1.0 0.0 0.0 1.0 0.0 0.0 -0.0954928 0.0954928 0.9908392 -0.0954928 0.0954928 0.9908392 -0.0954928 0.0954928 0.9908392 1.0 0.0 0.0 1.0 0.0 0.0 -0.1304458 0.0349525 0.9908391 -0.1304458 0.0349525 0.9908391 -0.1304458 0.0349525 0.9908391 1.0 0.0 0.0 1.0 0.0 0.0 1.0 0.0 0.0 1.0 0.0 0.0 -0.1304457 -0.0349525 -0.9908391 -0.1304457 -0.0349525 -0.9908391 -0.1304457 -0.0349525 -0.9908391 1.0 0.0 0.0 1.0 0.0 0.0 -0.0954928 -0.0954928 -0.9908392 -0.0954928 -0.0954928 -0.9908392 -0.0954928 -0.0954928 -0.9908392 1.0 0.0 0.0 1.0 0.0 0.0 -0.0349525 -0.1304457 -0.9908391 -0.0349525 -0.1304457 -0.9908391 -0.0349525 -0.1304457 -0.9908391 1.0 0.0 0.0 1.0 0.0 0.0 0.0349525 -0.1304457 -0.9908391 0.0349525 -0.1304457 -0.9908391 0.0349525 -0.1304457 -0.9908391 1.0 0.0 0.0 1.0 0.0 0.0 0.0954928 -0.0954928 -0.9908392 0.0954928 -0.0954928 -0.9908392 0.0954928 -0.0954928 -0.9908392 1.0 0.0 0.0 1.0 0.0 0.0 0.1304457 -0.0349525 -0.9908391 0.1304457 -0.0349525 -0.9908391 0.1304457 -0.0349525 -0.9908391 1.0 0.0 0.0 1.0 0.0 0.0 0.1304457 0.0349525 -0.9908391 0.1304457 0.0349525 -0.9908391 0.1304457 0.0349525 -0.9908391 1.0 0.0 0.0 1.0 0.0 0.0 0.0954928 0.0954928 -0.9908392 0.0954928 0.0954928 -0.9908392 0.0954928 0.0954928 -0.9908392 1.0 0.0 0.0 1.0 0.0 0.0 0.0349525 0.1304457 -0.9908391 0.0349525 0.1304457 -0.9908391 0.0349525 0.1304457 -0.9908391 1.0 0.0 0.0 1.0 0.0 0.0 -0.0349525 0.1304457 -0.9908391 -0.0349525 0.1304457 -0.9908391 -0.0349525 0.1304457 -0.9908391 1.0 0.0 0.0 1.0 0.0 0.0 -0.0954928 0.0954928 -0.9908392 -0.0954928 0.0954928 -0.9908392 -0.0954928 0.0954928 -0.9908392 1.0 0.0 0.0 1.0 0.0 0.0 -0.1304457 0.0349525 -0.9908391 -0.1304457 0.0349525 -0.9908391 -0.1304457 0.0349525 -0.9908391 -0.3806897 -0.1020046 -0.9190595 -0.3806897 -0.1020046 -0.9190595 -0.3806897 -0.1020046 -0.9190595 -0.3806893 -0.1020049 -0.9190597 -0.3806893 -0.1020049 -0.9190597 -0.3806893 -0.1020049 -0.9190597 -0.2786841 -0.2786841 -0.9190595 -0.2786841 -0.2786841 -0.9190595 -0.2786841 -0.2786841 -0.9190595 -0.2786841 -0.2786841 -0.9190595 -0.2786841 -0.2786841 -0.9190595 -0.2786841 -0.2786841 -0.9190595 -0.1020045 -0.3806893 -0.9190597 -0.1020045 -0.3806893 -0.9190597 -0.1020045 -0.3806893 -0.9190597 -0.102005 -0.3806895 -0.9190596 -0.102005 -0.3806895 -0.9190596 -0.102005 -0.3806895 -0.9190596 0.1020046 -0.3806897 -0.9190595 0.1020046 -0.3806897 -0.9190595 0.1020046 -0.3806897 -0.9190595 0.1020049 -0.3806893 -0.9190597 0.1020049 -0.3806893 -0.9190597 0.1020049 -0.3806893 -0.9190597 0.2786841 -0.2786841 -0.9190595 0.2786841 -0.2786841 -0.9190595 0.2786841 -0.2786841 -0.9190595 0.2786841 -0.2786841 -0.9190595 0.2786841 -0.2786841 -0.9190595 0.2786841 -0.2786841 -0.9190595 0.3806893 -0.1020045 -0.9190597 0.3806893 -0.1020045 -0.9190597 0.3806893 -0.1020045 -0.9190597 0.3806895 -0.102005 -0.9190596 0.3806895 -0.102005 -0.9190596 0.3806895 -0.102005 -0.9190596 0.3806897 0.1020046 -0.9190595 0.3806897 0.1020046 -0.9190595 0.3806897 0.1020046 -0.9190595 0.3806893 0.1020049 -0.9190597 0.3806893 0.1020049 -0.9190597 0.3806893 0.1020049 -0.9190597 0.2786841 0.2786841 -0.9190595 0.2786841 0.2786841 -0.9190595 0.2786841 0.2786841 -0.9190595 0.2786841 0.2786841 -0.9190595 0.2786841 0.2786841 -0.9190595 0.2786841 0.2786841 -0.9190595 0.1020045 0.3806893 -0.9190597 0.1020045 0.3806893 -0.9190597 0.1020045 0.3806893 -0.9190597 0.102005 0.3806895 -0.9190596 0.102005 0.3806895 -0.9190596 0.102005 0.3806895 -0.9190596 -0.1020046 0.3806897 -0.9190595 -0.1020046 0.3806897 -0.9190595 -0.1020046 0.3806897 -0.9190595 -0.1020049 0.3806893 -0.9190597 -0.1020049 0.3806893 -0.9190597 -0.1020049 0.3806893 -0.9190597 -0.2786841 0.2786841 -0.9190595 -0.2786841 0.2786841 -0.9190595 -0.2786841 0.2786841 -0.9190595 -0.2786841 0.2786841 -0.9190595 -0.2786841 0.2786841 -0.9190595 -0.2786841 0.2786841 -0.9190595 -0.3806893 0.1020045 -0.9190597 -0.3806893 0.1020045 -0.9190597 -0.3806893 0.1020045 -0.9190597 -0.3806895 0.102005 -0.9190596 -0.3806895 0.102005 -0.9190596 -0.3806895 0.102005 -0.9190596 -0.600821 -0.1609888 -0.783005 -0.600821 -0.1609888 -0.783005 -0.600821 -0.1609888 -0.783005 -0.6008186 -0.1609901 -0.7830064 -0.6008186 -0.1609901 -0.7830064 -0.6008186 -0.1609901 -0.7830064 -0.4398312 -0.4398312 -0.7830051 -0.4398312 -0.4398312 -0.7830051 -0.4398312 -0.4398312 -0.7830051 -0.4398312 -0.4398312 -0.7830051 -0.4398312 -0.4398312 -0.7830051 -0.4398312 -0.4398312 -0.7830051 -0.1609882 -0.6008189 -0.7830067 -0.1609882 -0.6008189 -0.7830067 -0.1609882 -0.6008189 -0.7830067 -0.1609905 -0.6008201 -0.7830052 -0.1609905 -0.6008201 -0.7830052 -0.1609905 -0.6008201 -0.7830052 0.1609888 -0.600821 -0.783005 0.1609888 -0.600821 -0.783005 0.1609888 -0.600821 -0.783005 0.1609901 -0.6008186 -0.7830064 0.1609901 -0.6008186 -0.7830064 0.1609901 -0.6008186 -0.7830064 0.4398312 -0.4398312 -0.7830051 0.4398312 -0.4398312 -0.7830051 0.4398312 -0.4398312 -0.7830051 0.4398312 -0.4398312 -0.7830051 0.4398312 -0.4398312 -0.7830051 0.4398312 -0.4398312 -0.7830051 0.6008189 -0.1609882 -0.7830067 0.6008189 -0.1609882 -0.7830067 0.6008189 -0.1609882 -0.7830067 0.6008201 -0.1609905 -0.7830052 0.6008201 -0.1609905 -0.7830052 0.6008201 -0.1609905 -0.7830052 0.600821 0.1609888 -0.783005 0.600821 0.1609888 -0.783005 0.600821 0.1609888 -0.783005 0.6008186 0.1609901 -0.7830064 0.6008186 0.1609901 -0.7830064 0.6008186 0.1609901 -0.7830064 0.4398312 0.4398312 -0.7830051 0.4398312 0.4398312 -0.7830051 0.4398312 0.4398312 -0.7830051 0.4398312 0.4398312 -0.7830051 0.4398312 0.4398312 -0.7830051 0.4398312 0.4398312 -0.7830051 0.1609882 0.6008189 -0.7830067 0.1609882 0.6008189 -0.7830067 0.1609882 0.6008189 -0.7830067 0.1609905 0.6008201 -0.7830052 0.1609905 0.6008201 -0.7830052 0.1609905 0.6008201 -0.7830052 -0.1609888 0.600821 -0.783005 -0.1609888 0.600821 -0.783005 -0.1609888 0.600821 -0.783005 -0.1609901 0.6008186 -0.7830064 -0.1609901 0.6008186 -0.7830064 -0.1609901 0.6008186 -0.7830064 -0.4398312 0.4398312 -0.7830051 -0.4398312 0.4398312 -0.7830051 -0.4398312 0.4398312 -0.7830051 -0.4398312 0.4398312 -0.7830051 -0.4398312 0.4398312 -0.7830051 -0.4398312 0.4398312 -0.7830051 -0.6008189 0.1609882 -0.7830067 -0.6008189 0.1609882 -0.7830067 -0.6008189 0.1609882 -0.7830067 -0.6008201 0.1609905 -0.7830052 -0.6008201 0.1609905 -0.7830052 -0.6008201 0.1609905 -0.7830052 -0.7760119 -0.2079334 -0.5954571 -0.7760119 -0.2079334 -0.5954571 -0.7760119 -0.2079334 -0.5954571 -0.7760149 -0.2079316 -0.5954539 -0.7760149 -0.2079316 -0.5954539 -0.7760149 -0.2079316 -0.5954539 -0.5680804 -0.5680804 -0.5954573 -0.5680804 -0.5680804 -0.5954573 -0.5680804 -0.5680804 -0.5954573 -0.5680804 -0.5680804 -0.5954573 -0.5680804 -0.5680804 -0.5954573 -0.5680804 -0.5680804 -0.5954573 -0.2079341 -0.7760144 -0.5954537 -0.2079341 -0.7760144 -0.5954537 -0.2079341 -0.7760144 -0.5954537 -0.2079311 -0.7760128 -0.5954567 -0.2079311 -0.7760128 -0.5954567 -0.2079311 -0.7760128 -0.5954567 0.2079334 -0.7760119 -0.5954571 0.2079334 -0.7760119 -0.5954571 0.2079334 -0.7760119 -0.5954571 0.2079316 -0.7760149 -0.5954539 0.2079316 -0.7760149 -0.5954539 0.2079316 -0.7760149 -0.5954539 0.5680804 -0.5680804 -0.5954573 0.5680804 -0.5680804 -0.5954573 0.5680804 -0.5680804 -0.5954573 0.5680804 -0.5680804 -0.5954573 0.5680804 -0.5680804 -0.5954573 0.5680804 -0.5680804 -0.5954573 0.7760144 -0.2079341 -0.5954537 0.7760144 -0.2079341 -0.5954537 0.7760144 -0.2079341 -0.5954537 0.7760128 -0.2079311 -0.5954567 0.7760128 -0.2079311 -0.5954567 0.7760128 -0.2079311 -0.5954567 0.7760119 0.2079334 -0.5954571 0.7760119 0.2079334 -0.5954571 0.7760119 0.2079334 -0.5954571 0.7760149 0.2079316 -0.5954539 0.7760149 0.2079316 -0.5954539 0.7760149 0.2079316 -0.5954539 0.5680804 0.5680804 -0.5954573 0.5680804 0.5680804 -0.5954573 0.5680804 0.5680804 -0.5954573 0.5680804 0.5680804 -0.5954573 0.5680804 0.5680804 -0.5954573 0.5680804 0.5680804 -0.5954573 0.2079341 0.7760144 -0.5954537 0.2079341 0.7760144 -0.5954537 0.2079341 0.7760144 -0.5954537 0.2079311 0.7760128 -0.5954567 0.2079311 0.7760128 -0.5954567 0.2079311 0.7760128 -0.5954567 -0.2079334 0.7760119 -0.5954571 -0.2079334 0.7760119 -0.5954571 -0.2079334 0.7760119 -0.5954571 -0.2079316 0.7760149 -0.5954539 -0.2079316 0.7760149 -0.5954539 -0.2079316 0.7760149 -0.5954539 -0.5680804 0.5680804 -0.5954573 -0.5680804 0.5680804 -0.5954573 -0.5680804 0.5680804 -0.5954573 -0.5680804 0.5680804 -0.5954573 -0.5680804 0.5680804 -0.5954573 -0.5680804 0.5680804 -0.5954573 -0.7760144 0.2079341 -0.5954537 -0.7760144 0.2079341 -0.5954537 -0.7760144 0.2079341 -0.5954537 -0.7760128 0.2079311 -0.5954567 -0.7760128 0.2079311 -0.5954567 -0.7760128 0.2079311 -0.5954567 -0.8968096 -0.2402984 -0.3714691 -0.8968096 -0.2402984 -0.3714691 -0.8968096 -0.2402984 -0.3714691 -0.8968078 -0.2402998 -0.3714723 -0.8968078 -0.2402998 -0.3714723 -0.8968078 -0.2402998 -0.3714723 -0.6565099 -0.6565099 -0.3714691 -0.6565099 -0.6565099 -0.3714691 -0.6565099 -0.6565099 -0.3714691 -0.65651 -0.65651 -0.3714691 -0.65651 -0.65651 -0.3714691 -0.65651 -0.65651 -0.3714691 -0.240298 -0.8968083 -0.3714724 -0.240298 -0.8968083 -0.3714724 -0.240298 -0.8968083 -0.3714724 -0.2403001 -0.896809 -0.3714692 -0.2403001 -0.896809 -0.3714692 -0.2403001 -0.896809 -0.3714692 0.2402984 -0.8968096 -0.3714691 0.2402984 -0.8968096 -0.3714691 0.2402984 -0.8968096 -0.3714691 0.2402998 -0.8968078 -0.3714723 0.2402998 -0.8968078 -0.3714723 0.2402998 -0.8968078 -0.3714723 0.6565099 -0.6565099 -0.3714691 0.6565099 -0.6565099 -0.3714691 0.6565099 -0.6565099 -0.3714691 0.65651 -0.65651 -0.3714691 0.65651 -0.65651 -0.3714691 0.65651 -0.65651 -0.3714691 0.8968083 -0.240298 -0.3714724 0.8968083 -0.240298 -0.3714724 0.8968083 -0.240298 -0.3714724 0.896809 -0.2403001 -0.3714692 0.896809 -0.2403001 -0.3714692 0.896809 -0.2403001 -0.3714692 0.8968096 0.2402984 -0.3714691 0.8968096 0.2402984 -0.3714691 0.8968096 0.2402984 -0.3714691 0.8968078 0.2402998 -0.3714723 0.8968078 0.2402998 -0.3714723 0.8968078 0.2402998 -0.3714723 0.6565099 0.6565099 -0.3714691 0.6565099 0.6565099 -0.3714691 0.6565099 0.6565099 -0.3714691 0.65651 0.65651 -0.3714691 0.65651 0.65651 -0.3714691 0.65651 0.65651 -0.3714691 0.240298 0.8968083 -0.3714724 0.240298 0.8968083 -0.3714724 0.240298 0.8968083 -0.3714724 0.2403001 0.896809 -0.3714692 0.2403001 0.896809 -0.3714692 0.2403001 0.896809 -0.3714692 -0.2402984 0.8968096 -0.3714691 -0.2402984 0.8968096 -0.3714691 -0.2402984 0.8968096 -0.3714691 -0.2402998 0.8968078 -0.3714723 -0.2402998 0.8968078 -0.3714723 -0.2402998 0.8968078 -0.3714723 -0.6565099 0.6565099 -0.3714691 -0.6565099 0.6565099 -0.3714691 -0.6565099 0.6565099 -0.3714691 -0.65651 0.65651 -0.3714691 -0.65651 0.65651 -0.3714691 -0.65651 0.65651 -0.3714691 -0.8968083 0.240298 -0.3714724 -0.8968083 0.240298 -0.3714724 -0.8968083 0.240298 -0.3714724 -0.896809 0.2403001 -0.3714692 -0.896809 0.2403001 -0.3714692 -0.896809 0.2403001 -0.3714692 -0.958209 -0.2567523 -0.1261502 -0.958209 -0.2567523 -0.1261502 -0.958209 -0.2567523 -0.1261502 -0.958209 -0.2567522 -0.1261499 -0.958209 -0.2567522 -0.1261499 -0.958209 -0.2567522 -0.1261499 -0.7014578 -0.7014578 -0.1261501 -0.7014578 -0.7014578 -0.1261501 -0.7014578 -0.7014578 -0.1261501 -0.7014578 -0.7014578 -0.1261501 -0.7014578 -0.7014578 -0.1261501 -0.7014578 -0.7014578 -0.1261501 -0.2567523 -0.958209 -0.1261499 -0.2567523 -0.958209 -0.1261499 -0.2567523 -0.958209 -0.1261499 -0.2567521 -0.958209 -0.1261502 -0.2567521 -0.958209 -0.1261502 -0.2567521 -0.958209 -0.1261502 0.2567523 -0.958209 -0.1261502 0.2567523 -0.958209 -0.1261502 0.2567523 -0.958209 -0.1261502 0.2567522 -0.958209 -0.1261499 0.2567522 -0.958209 -0.1261499 0.2567522 -0.958209 -0.1261499 0.7014578 -0.7014578 -0.1261501 0.7014578 -0.7014578 -0.1261501 0.7014578 -0.7014578 -0.1261501 0.7014578 -0.7014578 -0.1261501 0.7014578 -0.7014578 -0.1261501 0.7014578 -0.7014578 -0.1261501 0.958209 -0.2567523 -0.1261499 0.958209 -0.2567523 -0.1261499 0.958209 -0.2567523 -0.1261499 0.958209 -0.2567521 -0.1261502 0.958209 -0.2567521 -0.1261502 0.958209 -0.2567521 -0.1261502 0.958209 0.2567523 -0.1261502 0.958209 0.2567523 -0.1261502 0.958209 0.2567523 -0.1261502 0.958209 0.2567522 -0.1261499 0.958209 0.2567522 -0.1261499 0.958209 0.2567522 -0.1261499 0.7014578 0.7014578 -0.1261501 0.7014578 0.7014578 -0.1261501 0.7014578 0.7014578 -0.1261501 0.7014578 0.7014578 -0.1261501 0.7014578 0.7014578 -0.1261501 0.7014578 0.7014578 -0.1261501 0.2567523 0.958209 -0.1261499 0.2567523 0.958209 -0.1261499 0.2567523 0.958209 -0.1261499 0.2567521 0.958209 -0.1261502 0.2567521 0.958209 -0.1261502 0.2567521 0.958209 -0.1261502 -0.2567523 0.958209 -0.1261502 -0.2567523 0.958209 -0.1261502 -0.2567523 0.958209 -0.1261502 -0.2567522 0.958209 -0.1261499 -0.2567522 0.958209 -0.1261499 -0.2567522 0.958209 -0.1261499 -0.7014578 0.7014578 -0.1261501 -0.7014578 0.7014578 -0.1261501 -0.7014578 0.7014578 -0.1261501 -0.7014578 0.7014578 -0.1261501 -0.7014578 0.7014578 -0.1261501 -0.7014578 0.7014578 -0.1261501 -0.958209 0.2567523 -0.1261499 -0.958209 0.2567523 -0.1261499 -0.958209 0.2567523 -0.1261499 -0.958209 0.2567521 -0.1261502 -0.958209 0.2567521 -0.1261502 -0.958209 0.2567521 -0.1261502 -0.958209 -0.2567521 0.1261502 -0.958209 -0.2567521 0.1261502 -0.958209 -0.2567521 0.1261502 -0.958209 -0.2567523 0.1261499 -0.958209 -0.2567523 0.1261499 -0.958209 -0.2567523 0.1261499 -0.7014578 -0.7014578 0.1261501 -0.7014578 -0.7014578 0.1261501 -0.7014578 -0.7014578 0.1261501 -0.7014578 -0.7014578 0.1261501 -0.7014578 -0.7014578 0.1261501 -0.7014578 -0.7014578 0.1261501 -0.2567522 -0.958209 0.1261499 -0.2567522 -0.958209 0.1261499 -0.2567522 -0.958209 0.1261499 -0.2567523 -0.958209 0.1261502 -0.2567523 -0.958209 0.1261502 -0.2567523 -0.958209 0.1261502 0.2567521 -0.958209 0.1261502 0.2567521 -0.958209 0.1261502 0.2567521 -0.958209 0.1261502 0.2567523 -0.958209 0.1261499 0.2567523 -0.958209 0.1261499 0.2567523 -0.958209 0.1261499 0.7014578 -0.7014578 0.1261501 0.7014578 -0.7014578 0.1261501 0.7014578 -0.7014578 0.1261501 0.7014578 -0.7014578 0.1261501 0.7014578 -0.7014578 0.1261501 0.7014578 -0.7014578 0.1261501 0.958209 -0.2567522 0.1261499 0.958209 -0.2567522 0.1261499 0.958209 -0.2567522 0.1261499 0.958209 -0.2567523 0.1261502 0.958209 -0.2567523 0.1261502 0.958209 -0.2567523 0.1261502 0.958209 0.2567521 0.1261502 0.958209 0.2567521 0.1261502 0.958209 0.2567521 0.1261502 0.958209 0.2567523 0.1261499 0.958209 0.2567523 0.1261499 0.958209 0.2567523 0.1261499 0.7014578 0.7014578 0.1261501 0.7014578 0.7014578 0.1261501 0.7014578 0.7014578 0.1261501 0.7014578 0.7014578 0.1261501 0.7014578 0.7014578 0.1261501 0.7014578 0.7014578 0.1261501 0.2567522 0.958209 0.1261499 0.2567522 0.958209 0.1261499 0.2567522 0.958209 0.1261499 0.2567523 0.958209 0.1261502 0.2567523 0.958209 0.1261502 0.2567523 0.958209 0.1261502 -0.2567521 0.958209 0.1261502 -0.2567521 0.958209 0.1261502 -0.2567521 0.958209 0.1261502 -0.2567523 0.958209 0.1261499 -0.2567523 0.958209 0.1261499 -0.2567523 0.958209 0.1261499 -0.7014578 0.7014578 0.1261501 -0.7014578 0.7014578 0.1261501 -0.7014578 0.7014578 0.1261501 -0.7014578 0.7014578 0.1261501 -0.7014578 0.7014578 0.1261501 -0.7014578 0.7014578 0.1261501 -0.958209 0.2567522 0.1261499 -0.958209 0.2567522 0.1261499 -0.958209 0.2567522 0.1261499 -0.958209 0.2567523 0.1261502 -0.958209 0.2567523 0.1261502 -0.958209 0.2567523 0.1261502 -0.896809 -0.2403001 0.3714692 -0.896809 -0.2403001 0.3714692 -0.896809 -0.2403001 0.3714692 -0.8968083 -0.240298 0.3714724 -0.8968083 -0.240298 0.3714724 -0.8968083 -0.240298 0.3714724 -0.65651 -0.65651 0.3714691 -0.65651 -0.65651 0.3714691 -0.65651 -0.65651 0.3714691 -0.65651 -0.65651 0.3714691 -0.65651 -0.65651 0.3714691 -0.65651 -0.65651 0.3714691 -0.2402998 -0.8968078 0.3714722 -0.2402998 -0.8968078 0.3714722 -0.2402998 -0.8968078 0.3714722 -0.2402984 -0.8968096 0.3714691 -0.2402984 -0.8968096 0.3714691 -0.2402984 -0.8968096 0.3714691 0.2403001 -0.896809 0.3714692 0.2403001 -0.896809 0.3714692 0.2403001 -0.896809 0.3714692 0.240298 -0.8968083 0.3714724 0.240298 -0.8968083 0.3714724 0.240298 -0.8968083 0.3714724 0.65651 -0.65651 0.3714691 0.65651 -0.65651 0.3714691 0.65651 -0.65651 0.3714691 0.65651 -0.65651 0.3714691 0.65651 -0.65651 0.3714691 0.65651 -0.65651 0.3714691 0.8968078 -0.2402998 0.3714722 0.8968078 -0.2402998 0.3714722 0.8968078 -0.2402998 0.3714722 0.8968096 -0.2402984 0.3714691 0.8968096 -0.2402984 0.3714691 0.8968096 -0.2402984 0.3714691 0.896809 0.2403001 0.3714692 0.896809 0.2403001 0.3714692 0.896809 0.2403001 0.3714692 0.8968083 0.240298 0.3714724 0.8968083 0.240298 0.3714724 0.8968083 0.240298 0.3714724 0.65651 0.65651 0.3714691 0.65651 0.65651 0.3714691 0.65651 0.65651 0.3714691 0.65651 0.65651 0.3714691 0.65651 0.65651 0.3714691 0.65651 0.65651 0.3714691 0.2402998 0.8968078 0.3714722 0.2402998 0.8968078 0.3714722 0.2402998 0.8968078 0.3714722 0.2402984 0.8968096 0.3714691 0.2402984 0.8968096 0.3714691 0.2402984 0.8968096 0.3714691 -0.2403001 0.896809 0.3714692 -0.2403001 0.896809 0.3714692 -0.2403001 0.896809 0.3714692 -0.240298 0.8968083 0.3714724 -0.240298 0.8968083 0.3714724 -0.240298 0.8968083 0.3714724 -0.65651 0.65651 0.3714691 -0.65651 0.65651 0.3714691 -0.65651 0.65651 0.3714691 -0.65651 0.65651 0.3714691 -0.65651 0.65651 0.3714691 -0.65651 0.65651 0.3714691 -0.8968078 0.2402998 0.3714722 -0.8968078 0.2402998 0.3714722 -0.8968078 0.2402998 0.3714722 -0.8968096 0.2402984 0.3714691 -0.8968096 0.2402984 0.3714691 -0.8968096 0.2402984 0.3714691 -0.7760128 -0.2079311 0.5954568 -0.7760128 -0.2079311 0.5954568 -0.7760128 -0.2079311 0.5954568 -0.7760143 -0.207934 0.5954537 -0.7760143 -0.207934 0.5954537 -0.7760143 -0.207934 0.5954537 -0.5680803 -0.5680803 0.5954574 -0.5680803 -0.5680803 0.5954574 -0.5680803 -0.5680803 0.5954574 -0.5680803 -0.5680803 0.5954574 -0.5680803 -0.5680803 0.5954574 -0.5680803 -0.5680803 0.5954574 -0.2079316 -0.7760147 0.595454 -0.2079316 -0.7760147 0.595454 -0.2079316 -0.7760147 0.595454 -0.2079334 -0.7760119 0.5954571 -0.2079334 -0.7760119 0.5954571 -0.2079334 -0.7760119 0.5954571 0.2079311 -0.7760128 0.5954568 0.2079311 -0.7760128 0.5954568 0.2079311 -0.7760128 0.5954568 0.207934 -0.7760143 0.5954537 0.207934 -0.7760143 0.5954537 0.207934 -0.7760143 0.5954537 0.5680803 -0.5680803 0.5954574 0.5680803 -0.5680803 0.5954574 0.5680803 -0.5680803 0.5954574 0.5680803 -0.5680803 0.5954574 0.5680803 -0.5680803 0.5954574 0.5680803 -0.5680803 0.5954574 0.7760147 -0.2079316 0.595454 0.7760147 -0.2079316 0.595454 0.7760147 -0.2079316 0.595454 0.7760119 -0.2079334 0.5954571 0.7760119 -0.2079334 0.5954571 0.7760119 -0.2079334 0.5954571</float_array>
                    <technique_common>
                        <accessor count="840" source="#geometry0-normal-array" stride="3">
                            <param name="X" type="float"/>
                            <param name="Y" type="float"/>
                            <param name="Z" type="float"/>
                        </accessor>
                    </technique_common>
                </source>
                <vertices id="geometry0-vertex">
                    <input semantic="POSITION" source="#geometry0-position"/>
                </vertices>
                <triangles count="288" material="default_ai_0.2_sh_0.2_tr_0.0_dc_r_0.8_g_0.8_b_0.8_sc_r_1.0_g_1.0_b_1.0_ec_r_0.0_g_0.0_b_0_tri">
                    <input offset="0" semantic="VERTEX" source="#geometry0-vertex"/>
                    <input offset="1" semantic="NORMAL" source="#geometry0-normal"/>
                    <p>91 0 92 1 104 2 91 3 104 4 103 5 92 6 93 7 105 8 92 9 105 10 104 11 93 12 94 13 106 14 93 15 106 16 105 17 94 18 95 19 107 20 94 21 107 22 106 23 95 24 96 25 108 26 95 27 108 28 107 29 96 30 86 31 98 32 96 33 98 34 108 35 98 36 97 37 109 38 98 39 109 40 110 41 97 42 99 43 111 44 97 45 111 46 109 47 99 48 100 49 112 50 99 51 112 52 111 53 100 54 101 55 113 56 100 57 113 58 112 59 101 60 102 61 114 62 101 63 114 64 113 65 102 66 103 67 115 68 102 69 115 70 114 71 103 72 104 73 116 74 103 75 116 76 115 77 104 78 105 79 117 80 104 81 117 82 116 83 105 84 106 85 118 86 105 87 118 88 117 89 106 90 107 91 119 92 106 93 119 94 118 95 107 96 108 97 120 98 107 99 120 100 119 101 108 102 98 103 110 104 108 105 110 106 120 107 110 108 109 109 121 110 110 111 121 112 122 113 109 114 111 115 123 116 109 117 123 118 121 119 111 120 112 121 124 122 111 123 124 124 123 125 112 126 113 127 125 128 112 129 125 130 124 131 113 132 114 133 126 134 113 135 126 136 125 137 114 138 115 139 127 140 114 141 127 142 126 143 115 144 116 145 128 146 115 147 128 148 127 149 116 150 117 151 129 152 116 153 129 154 128 155 117 156 118 157 130 158 117 159 130 160 129 161 118 162 119 163 131 164 118 165 131 166 130 167 119 168 120 169 132 170 119 171 132 172 131 173 120 174 110 175 122 176 120 177 122 178 132 179 122 180 121 181 133 182 122 183 133 184 133 184 121 185 123 186 133 187 121 188 133 189 133 189 123 190 124 191 133 192 123 193 133 194 133 194 124 195 125 196 133 197 124 198 133 199 133 199 125 200 126 201 133 202 125 203 133 204 133 204 126 205 127 206 133 207 126 208 133 209 133 209 127 210 128 211 133 212 127 213 133 214 133 214 128 215 129 216 133 217 128 218 133 219 133 219 129 220 130 221 133 222 129 223 133 224 133 224 130 225 131 226 133 227 130 228 133 229 133 229 131 230 132 231 133 232 131 233 133 234 133 234 132 235 122 236 133 237 132 238 133 239 133 239 0 240 0 240 1 241 0 242 1 243 2 244 0 245 0 245 3 246 0 247 3 248 1 249 0 250 0 250 4 251 0 252 4 253 3 254 0 255 0 255 5 256 0 257 5 258 4 259 0 260 0 260 6 261 0 262 6 263 5 264 0 265 0 265 7 266 0 267 7 268 6 269 0 270 0 270 8 271 0 272 8 273 7 274 0 275 0 275 9 276 0 277 9 278 8 279 0 280 0 280 10 281 0 282 10 283 9 284 0 285 0 285 11 286 0 287 11 288 10 289 0 290 0 290 12 291 0 292 12 293 11 294 0 295 0 295 2 296 0 297 2 298 12 299 2 300 1 301 13 302 2 303 13 304 14 305 1 306 3 307 15 308 1 309 15 310 13 311 3 312 4 313 16 314 3 315 16 316 15 317 4 318 5 319 17 320 4 321 17 322 16 323 5 324 6 325 18 326 5 327 18 328 17 329 6 330 7 331 19 332 6 333 19 334 18 335 7 336 8 337 20 338 7 339 20 340 19 341 8 342 9 343 21 344 8 345 21 346 20 347 9 348 10 349 22 350 9 351 22 352 21 353 10 354 11 355 23 356 10 357 23 358 22 359 11 360 12 361 24 362 11 363 24 364 23 365 12 366 2 367 14 368 12 369 14 370 24 371 14 372 13 373 25 374 14 375 25 376 26 377 13 378 15 379 27 380 13 381 27 382 25 383 15 384 16 385 28 386 15 387 28 388 27 389 16 390 17 391 29 392 16 393 29 394 28 395 17 396 18 397 30 398 17 399 30 400 29 401 18 402 19 403 31 404 18 405 31 406 30 407 19 408 20 409 32 410 19 411 32 412 31 413 20 414 21 415 33 416 20 417 33 418 32 419 21 420 22 421 34 422 21 423 34 424 33 425 22 426 23 427 35 428 22 429 35 430 34 431 23 432 24 433 36 434 23 435 36 436 35 437 24 438 14 439 26 440 24 441 26 442 36 443 26 444 25 445 37 446 26 447 37 448 38 449 25 450 27 451 39 452 25 453 39 454 37 455 27 456 28 457 40 458 27 459 40 460 39 461 28 462 29 463 41 464 28 465 41 466 40 467 29 468 30 469 42 470 29 471 42 472 41 473 30 474 31 475 43 476 30 477 43 478 42 479 31 480 32 481 44 482 31 483 44 484 43 485 32 486 33 487 45 488 32 489 45 490 44 491 33 492 34 493 46 494 33 495 46 496 45 497 34 498 35 499 47 500 34 501 47 502 46 503 35 504 36 505 48 506 35 507 48 508 47 509 36 510 26 511 38 512 36 513 38 514 48 515 38 516 37 517 49 518 38 519 49 520 50 521 37 522 39 523 51 524 37 525 51 526 49 527 39 528 40 529 52 530 39 531 52 532 51 533 40 534 41 535 53 536 40 537 53 538 52 539 41 540 42 541 54 542 41 543 54 544 53 545 42 546 43 547 55 548 42 549 55 550 54 551 43 552 44 553 56 554 43 555 56 556 55 557 44 558 45 559 57 560 44 561 57 562 56 563 45 564 46 565 58 566 45 567 58 568 57 569 46 570 47 571 59 572 46 573 59 574 58 575 47 576 48 577 60 578 47 579 60 580 59 581 48 582 38 583 50 584 48 585 50 586 60 587 50 588 49 589 61 590 50 591 61 592 62 593 49 594 51 595 63 596 49 597 63 598 61 599 51 600 52 601 64 602 51 603 64 604 63 605 52 606 53 607 65 608 52 609 65 610 64 611 53 612 54 613 66 614 53 615 66 616 65 617 54 618 55 619 67 620 54 621 67 622 66 623 55 624 56 625 68 626 55 627 68 628 67 629 56 630 57 631 69 632 56 633 69 634 68 635 57 636 58 637 70 638 57 639 70 640 69 641 58 642 59 643 71 644 58 645 71 646 70 647 59 648 60 649 72 650 59 651 72 652 71 653 60 654 50 655 62 656 60 657 62 658 72 659 62 660 61 661 73 662 62 663 73 664 74 665 61 666 63 667 75 668 61 669 75 670 73 671 63 672 64 673 76 674 63 675 76 676 75 677 64 678 65 679 77 680 64 681 77 682 76 683 65 684 66 685 78 686 65 687 78 688 77 689 66 690 67 691 79 692 66 693 79 694 78 695 67 696 68 697 80 698 67 699 80 700 79 701 68 702 69 703 81 704 68 705 81 706 80 707 69 708 70 709 82 710 69 711 82 712 81 713 70 714 71 715 83 716 70 717 83 718 82 719 71 720 72 721 84 722 71 723 84 724 83 725 72 726 62 727 74 728 72 729 74 730 84 731 74 732 73 733 85 734 74 735 85 736 86 737 73 738 75 739 87 740 73 741 87 742 85 743 75 744 76 745 88 746 75 747 88 748 87 749 76 750 77 751 89 752 76 753 89 754 88 755 77 756 78 757 90 758 77 759 90 760 89 761 78 762 79 763 91 764 78 765 91 766 90 767 79 768 80 769 92 770 79 771 92 772 91 773 80 774 81 775 93 776 80 777 93 778 92 779 81 780 82 781 94 782 81 783 94 784 93 785 82 786 83 787 95 788 82 789 95 790 94 791 83 792 84 793 96 794 83 795 96 796 95 797 84 798 74 799 86 800 84 801 86 802 96 803 86 804 85 805 97 806 86 807 97 808 98 809 85 810 87 811 99 812 85 813 99 814 97 815 87 816 88 817 100 818 87 819 100 820 99 821 88 822 89 823 101 824 88 825 101 826 100 827 89 828 90 829 102 830 89 831 102 832 101 833 90 834 91 835 103 836 90 837 103 838 102 839</p>
                </triangles>
            </mesh>
        </geometry>
    </library_geometries>
    <library_visual_scenes>
        <visual_scene id="Building_158_CROWN2">
            <node>
                <instance_geometry url="#geometry0">
                    <bind_material>
                        <technique_common>
                            <instance_material symbol="default_ai_0.2_sh_0.2_tr_0.0_dc_r_0.8_g_0.8_b_0.8_sc_r_1.0_g_1.0_b_1.0_ec_r_0.0_g_0.0_b_0_tri" target="#default_ai_0.2_sh_0.2_tr_0.0_dc_r_0.8_g_0.8_b_0.8_sc_r_1.0_g_1.0_b_1.0_ec_r_0.0_g_0.0_b_0_mat"/>
                        </technique_common>
                    </bind_material>
                </instance_geometry>
            </node>
        </visual_scene>
    </library_visual_scenes>
    <scene>
        <instance_visual_scene url="#Building_158_CROWN2"/>
    </scene>
</COLLADA>
