<?xml version="1.0" encoding="UTF-8" standalone="yes"?>
<COLLADA xmlns="http://www.collada.org/2005/11/COLLADASchema" version="1.4.1">
    <asset>
        <contributor>
            <authoring_tool>3D City Database Importer/Exporter, version 5.5.3; Chair of Geoinformatics, Technical University of Munich</authoring_tool>
        </contributor>
        <created>2026-09-25T14:45:31.773</created>
        <modified>2026-09-25T14:45:31.773</modified>
        <unit meter="1.0" name="meters"/>
        <up_axis>Z_UP</up_axis>
    </asset>
    <library_materials>
        <material id="default_ai_0.2_sh_0.2_tr_0.0_dc_r_0.8_g_0.8_b_0.8_sc_r_1.0_g_1.0_b_1.0_ec_r_0.0_g_0.0_b_0_mat">
            <instance_effect url="#default_ai_0.2_sh_0.2_tr_0.0_dc_r_0.8_g_0.8_b_0.8_sc_r_1.0_g_1.0_b_1.0_ec_r_0.0_g_0.0_b_0_eff"/>
        </material>
    </library_materials>
    <library_effects>
        <effect id="default_ai_0.2_sh_0.2_tr_0.0_dc_r_0.8_g_0.8_b_0.8_sc_r_1.0_g_1.0_b_1.0_ec_r_0.0_g_0.0_b_0_eff">
            <profile_COMMON>
                <technique sid="COMMON">
                    <lambert>
                        <emission>
                            <color>0.0 0.0 0.0 1.0</color>
                        </emission>
                        <diffuse>
                            <color>0.8 0.8 0.8 1.0</color>
                        </diffuse>
                        <reflective>
                            <color>1.0 1.0 1.0 1.0</color>
                        </reflective>
                        <reflectivity>
                            <float>0.2</float>
                        </reflectivity>
                        <transparent opaque="A_ONE">
                            <color>1.0 1.0 1.0 1.0</color>
                        </transparent>
                        <transparency>
                            <float>1.0</float>
                        </transparency>
                    </lambert>
                </technique>
                <extra>
                    <technique profile="GOOGLEEARTH">
                        <double_sided>0</double_sided>
                    </technique>
                </extra>
            </profile_COMMON>
        </effect>
    </library_effects>
    <library_geometries>
        <geometry id="geometry0">
            <mesh>
                <source id="geometry0-position">
                    <float_array id="geometry0-position-array" count="402">0.0 0.0 1.5 0.168108 0.0970575 1.4744445 0.1941143 0.0 1.4744445 0.0970575 0.168108 1.4744445 0.0 0.1941143 1.4744445 -0.0970575 0.168108 1.4744445 -0.168108 0.0970575 1.4744445 -0.1941143 0.0 1.4744445 -0.168108 -0.0970575 1.4744445 -0.0970575 -0.168108 1.4744445 0.0 -0.1941143 1.4744445 0.0970575 -0.168108 1.4744445 0.168108 -0.0970575 1.4744445 0.3247597 0.1875 1.3995188 0.375 0.0 1.3995188 0.1875 0.3247597 1.3995188 0.0 0.375 1.3995188 -0.1875 0.3247597 1.3995188 -0.3247597 0.1875 1.3995188 -0.375 0.0 1.3995188 -0.3247597 -0.1875 1.3995188 -0.1875 -0.3247597 1.3995188 0.0 -0.375 1.3995188 0.1875 -0.3247597 1.3995188 0.3247597 -0.1875 1.3995188 0.459279 0.2651647 1.2803302 0.5303302 0.0 1.2803302 0.2651647 0.459279 1.2803302 0.0 0.5303303 1.2803302 -0.2651647 0.459279 1.2803302 -0.459279 0.2651647 1.2803302 -0.5303302 0.0 1.2803302 -0.459279 -0.2651647 1.2803302 -0.2651647 -0.459279 1.2803302 0.0 -0.5303303 1.2803302 0.2651647 -0.459279 1.2803302 0.459279 -0.2651647 1.2803302 0.5625 0.3247597 1.125 0.6495188 0.0 1.125 0.3247597 0.5625 1.125 0.0 0.6495187 1.125 -0.3247597 0.5625 1.125 -0.5625 0.3247597 1.125 -0.6495188 0.0 1.125 -0.5625 -0.3247597 1.125 -0.3247597 -0.5625 1.125 0.0 -0.6495187 1.125 0.3247597 -0.5625 1.125 0.5625 -0.3247597 1.125 0.627387 0.3622222 0.9441143 0.7244445 0.0 0.9441143 0.3622223 0.627387 0.9441143 0.0 0.7244445 0.9441143 -0.3622223 0.627387 0.9441143 -0.627387 0.3622222 0.9441143 -0.7244445 0.0 0.9441143 -0.627387 -0.3622222 0.9441143 -0.3622223 -0.627387 0.9441143 0.0 -0.7244445 0.9441143 0.3622223 -0.627387 0.9441143 0.627387 -0.3622222 0.9441143 0.6495188 0.375 0.75 0.75 0.0 0.75 0.375 0.6495187 0.75 0.0 0.75 0.75 -0.375 0.6495187 0.75 -0.6495188 0.375 0.75 -0.75 0.0 0.75 -0.6495188 -0.375 0.75 -0.375 -0.6495187 0.75 0.0 -0.75 0.75 0.375 -0.6495187 0.75 0.6495188 -0.375 0.75 0.627387 0.3622222 0.5558857 0.7244445 0.0 0.5558857 0.3622223 0.627387 0.5558857 0.0 0.7244445 0.5558857 -0.3622223 0.627387 0.5558857 -0.627387 0.3622222 0.5558857 -0.7244445 0.0 0.5558857 -0.627387 -0.3622222 0.5558857 -0.3622223 -0.627387 0.5558857 0.0 -0.7244445 0.5558857 0.3622223 -0.627387 0.5558857 0.627387 -0.3622222 0.5558857 0.5625 0.3247597 0.375 0.6495188 0.0 0.375 0.3247597 0.5625 0.375 0.0 0.6495187 0.375 -0.3247597 0.5625 0.375 -0.5625 0.3247597 0.375 -0.6495188 0.0 0.375 -0.5625 -0.3247597 0.375 -0.3247597 -0.5625 0.375 0.0 -0.6495187 0.375 0.3247597 -0.5625 0.375 0.5625 -0.3247597 0.375 0.459279 0.2651647 0.2196697 0.5303302 0.0 0.2196697 0.2651647 0.459279 0.2196697 0.0 0.5303303 0.2196697 -0.2651647 0.459279 0.2196697 -0.459279 0.2651647 0.2196697 -0.5303302 0.0 0.2196697 -0.459279 -0.2651647 0.2196697 -0.2651647 -0.459279 0.2196697 0.0 -0.5303303 0.2196697 0.2651647 -0.459279 0.2196697 0.459279 -0.2651647 0.2196697 0.3247597 0.1875 0.1004812 0.375 0.0 0.1004812 0.1875 0.3247597 0.1004812 0.0 0.375 0.1004812 -0.1875 0.3247597 0.1004812 -0.3247597 0.1875 0.1004812 -0.375 0.0 0.1004812 -0.3247597 -0.1875 0.1004812 -0.1875 -0.3247597 0.1004812 0.0 -0.375 0.1004812 0.1875 -0.3247597 0.1004812 0.3247597 -0.1875 0.1004812 0.168108 0.0970575 0.0255555 0.1941143 0.0 0.0255555 0.0970575 0.168108 0.0255555 0.0 0.1941143 0.0255555 -0.0970575 0.168108 0.0255555 -0.168108 0.0970575 0.0255555 -0.1941143 0.0 0.0255555 -0.168108 -0.0970575 0.0255555 -0.0970575 -0.168108 0.0255555 0.0 -0.1941143 0.0255555 0.0970575 -0.168108 0.0255555 0.168108 -0.0970575 0.0255555 0.0 0.0 0.0</float_array>
                    <technique_common>
                        <accessor count="134" source="#geometry0-position-array" stride="3">
                            <param name="X" type="float"/>
                            <param name="Y" type="float"/>
                            <param name="Z" type="float"/>
                        </accessor>
                    </technique_common>
                </source>
                <source id="geometry0-normal">
                    <float_array id="geometry0-normal-array" count="2520">0.0349525 -0.1304458 0.9908391 0.0349525 -0.1304458 0.9908391 0.0349525 -0.1304458 0.9908391 1.0 0.0 0.0 1.0 0.0 0.0 0.0954928 -0.0954928 0.9908392 0.0954928 -0.0954928 0.9908392 0.0954928 -0.0954928 0.9908392 1.0 0.0 0.0 1.0 0.0 0.0 0.1304458 -0.0349525 0.9908391 0.1304458 -0.0349525 0.9908391 0.1304458 -0.0349525 0.9908391 1.0 0.0 0.0 1.0 0.0 0.0 0.1304458 0.0349525 0.9908391 0.1304458 0.0349525 0.9908391 0.1304458 0.0349525 0.9908391 1.0 0.0 0.0 1.0 0.0 0.0 0.0954928 0.0954928 0.9908392 0.0954928 0.0954928 0.9908392 0.0954928 0.0954928 0.9908392 1.0 0.0 0.0 1.0 0.0 0.0 0.0349525 0.1304458 0.9908391 0.0349525 0.1304458 0.9908391 0.0349525 0.1304458 0.9908391 1.0 0.0 0.0 1.0 0.0 0.0 -0.0349525 0.1304458 0.9908391 -0.0349525 0.1304458 0.9908391 -0.0349525 0.1304458 0.9908391 1.0 0.0 0.0 1.0 0.0 0.0 -0.0954928 0.0954928 0.9908392 -0.0954928 0.0954928 0.9908392 -0.0954928 0.0954928 0.9908392 1.0 0.0 0.0 1.0 0.0 0.0 -0.1304458 0.0349525 0.9908391 -0.1304458 0.0349525 0.9908391 -0.1304458 0.0349525 0.9908391 1.0 0.0 0.0 1.0 0.0 0.0 1.0 0.0 0.0 1.0 0.0 0.0 -0.1304457 -0.0349525 -0.9908391 -0.1304457 -0.0349525 -0.9908391 -0.1304457 -0.0349525 -0.9908391 1.0 0.0 0.0 1.0 0.0 0.0 -0.0954928 -0.0954928 -0.9908392 -0.0954928 -0.0954928 -0.9908392 -0.0954928 -0.0954928 -0.9908392 1.0 0.0 0.0 1.0 0.0 0.0 -0.0349525 -0.1304457 -0.9908391 -0.0349525 -0.1304457 -0.9908391 -0.0349525 -0.1304457 -0.9908391 1.0 0.0 0.0 1.0 0.0 0.0 0.0349525 -0.1304457 -0.9908391 0.0349525 -0.1304457 -0.9908391 0.0349525 -0.1304457 -0.9908391 1.0 0.0 0.0 1.0 0.0 0.0 0.0954928 -0.0954928 -0.9908392 0.0954928 -0.0954928 -0.9908392 0.0954928 -0.0954928 -0.9908392 1.0 0.0 0.0 1.0 0.0 0.0 0.1304457 -0.0349525 -0.9908391 0.1304457 -0.0349525 -0.9908391 0.1304457 -0.0349525 -0.9908391 1.0 0.0 0.0 1.0 0.0 0.0 0.1304457 0.0349525 -0.9908391 0.1304457 0.0349525 -0.9908391 0.1304457 0.0349525 -0.9908391 1.0 0.0 0.0 1.0 0.0 0.0 0.0954928 0.0954928 -0.9908392 0.0954928 0.0954928 -0.9908392 0.0954928 0.0954928 -0.9908392 1.0 0.0 0.0 1.0 0.0 0.0 0.0349525 0.1304457 -0.9908391 0.0349525 0.1304457 -0.9908391 0.0349525 0.1304457 -0.9908391 1.0 0.0 0.0 1.0 0.0 0.0 -0.0349525 0.1304457 -0.9908391 -0.0349525 0.1304457 -0.9908391 -0.0349525 0.1304457 -0.9908391 1.0 0.0 0.0 1.0 0.0 0.0 -0.0954928 0.0954928 -0.9908392 -0.0954928 0.0954928 -0.9908392 -0.0954928 0.0954928 -0.9908392 1.0 0.0 0.0 1.0 0.0 0.0 -0.1304457 0.0349525 -0.9908391 -0.1304457 0.0349525 -0.9908391 -0.1304457 0.0349525 -0.9908391 -0.3806897 -0.1020046 -0.9190595 -0.3806897 -0.1020046 -0.9190595 -0.3806897 -0.1020046 -0.9190595 -0.3806893 -0.1020049 -0.9190597 -0.3806893 -0.1020049 -0.9190597 -0.3806893 -0.1020049 -0.9190597 -0.2786841 -0.2786841 -0.9190595 -0.2786841 -0.2786841 -0.9190595 -0.2786841 -0.2786841 -0.9190595 -0.2786841 -0.2786841 -0.9190595 -0.2786841 -0.2786841 -0.9190595 -0.2786841 -0.2786841 -0.9190595 -0.1020045 -0.3806893 -0.9190597 -0.1020045 -0.3806893 -0.9190597 -0.1020045 -0.3806893 -0.9190597 -0.102005 -0.3806895 -0.9190596 -0.102005 -0.3806895 -0.9190596 -0.102005 -0.3806895 -0.9190596 0.1020046 -0.3806897 -0.9190595 0.1020046 -0.3806897 -0.9190595 0.1020046 -0.3806897 -0.9190595 0.1020049 -0.3806893 -0.9190597 0.1020049 -0.3806893 -0.9190597 0.1020049 -0.3806893 -0.9190597 0.2786841 -0.2786841 -0.9190595 0.2786841 -0.2786841 -0.9190595 0.2786841 -0.2786841 -0.9190595 0.2786841 -0.2786841 -0.9190595 0.2786841 -0.2786841 -0.9190595 0.2786841 -0.2786841 -0.9190595 0.3806893 -0.1020045 -0.9190597 0.3806893 -0.1020045 -0.9190597 0.3806893 -0.1020045 -0.9190597 0.3806895 -0.102005 -0.9190596 0.3806895 -0.102005 -0.9190596 0.3806895 -0.102005 -0.9190596 0.3806897 0.1020046 -0.9190595 0.3806897 0.1020046 -0.9190595 0.3806897 0.1020046 -0.9190595 0.3806893 0.1020049 -0.9190597 0.3806893 0.1020049 -0.9190597 0.3806893 0.1020049 -0.9190597 0.2786841 0.2786841 -0.9190595 0.2786841 0.2786841 -0.9190595 0.2786841 0.2786841 -0.9190595 0.2786841 0.2786841 -0.9190595 0.2786841 0.2786841 -0.9190595 0.2786841 0.2786841 -0.9190595 0.1020045 0.3806893 -0.9190597 0.1020045 0.3806893 -0.9190597 0.1020045 0.3806893 -0.9190597 0.102005 0.3806895 -0.9190596 0.102005 0.3806895 -0.9190596 0.102005 0.3806895 -0.9190596 -0.1020046 0.3806897 -0.9190595 -0.1020046 0.3806897 -0.9190595 -0.1020046 0.3806897 -0.9190595 -0.1020049 0.3806893 -0.9190597 -0.1020049 0.3806893 -0.9190597 -0.1020049 0.3806893 -0.9190597 -0.2786841 0.2786841 -0.9190595 -0.2786841 0.2786841 -0.9190595 -0.2786841 0.2786841 -0.9190595 -0.2786841 0.2786841 -0.9190595 -0.2786841 0.2786841 -0.9190595 -0.2786841 0.2786841 -0.9190595 -0.3806893 0.1020045 -0.9190597 -0.3806893 0.1020045 -0.9190597 -0.3806893 0.1020045 -0.9190597 -0.3806895 0.102005 -0.9190596 -0.3806895 0.102005 -0.9190596 -0.3806895 0.102005 -0.9190596 -0.600821 -0.1609888 -0.783005 -0.600821 -0.1609888 -0.783005 -0.600821 -0.1609888 -0.783005 -0.6008186 -0.1609901 -0.7830064 -0.6008186 -0.1609901 -0.7830064 -0.6008186 -0.1609901 -0.7830064 -0.4398312 -0.4398312 -0.7830051 -0.4398312 -0.4398312 -0.7830051 -0.4398312 -0.4398312 -0.7830051 -0.4398312 -0.4398312 -0.7830051 -0.4398312 -0.4398312 -0.7830051 -0.4398312 -0.4398312 -0.7830051 -0.1609882 -0.6008189 -0.7830067 -0.1609882 -0.6008189 -0.7830067 -0.1609882 -0.6008189 -0.7830067 -0.1609905 -0.6008201 -0.7830052 -0.1609905 -0.6008201 -0.7830052 -0.1609905 -0.6008201 -0.7830052 0.1609888 -0.600821 -0.783005 0.1609888 -0.600821 -0.783005 0.1609888 -0.600821 -0.783005 0.1609901 -0.6008186 -0.7830064 0.1609901 -0.6008186 -0.7830064 0.1609901 -0.6008186 -0.7830064 0.4398312 -0.4398312 -0.7830051 0.4398312 -0.4398312 -0.7830051 0.4398312 -0.4398312 -0.7830051 0.4398312 -0.4398312 -0.7830051 0.4398312 -0.4398312 -0.7830051 0.4398312 -0.4398312 -0.7830051 0.6008189 -0.1609882 -0.7830067 0.6008189 -0.1609882 -0.7830067 0.6008189 -0.1609882 -0.7830067 0.6008201 -0.1609905 -0.7830052 0.6008201 -0.1609905 -0.7830052 0.6008201 -0.1609905 -0.7830052 0.600821 0.1609888 -0.783005 0.600821 0.1609888 -0.783005 0.600821 0.1609888 -0.783005 0.6008186 0.1609901 -0.7830064 0.6008186 0.1609901 -0.7830064 0.6008186 0.1609901 -0.7830064 0.4398312 0.4398312 -0.7830051 0.4398312 0.4398312 -0.7830051 0.4398312 0.4398312 -0.7830051 0.4398312 0.4398312 -0.7830051 0.4398312 0.4398312 -0.7830051 0.4398312 0.4398312 -0.7830051 0.1609882 0.6008189 -0.7830067 0.1609882 0.6008189 -0.7830067 0.1609882 0.6008189 -0.7830067 0.1609905 0.6008201 -0.7830052 0.1609905 0.6008201 -0.7830052 0.1609905 0.6008201 -0.7830052 -0.1609888 0.600821 -0.783005 -0.1609888 0.600821 -0.783005 -0.1609888 0.600821 -0.783005 -0.1609901 0.6008186 -0.7830064 -0.1609901 0.6008186 -0.7830064 -0.1609901 0.6008186 -0.7830064 -0.4398312 0.4398312 -0.7830051 -0.4398312 0.4398312 -0.7830051 -0.4398312 0.4398312 -0.7830051 -0.4398312 0.4398312 -0.7830051 -0.4398312 0.4398312 -0.7830051 -0.4398312 0.4398312 -0.7830051 -0.6008189 0.1609882 -0.7830067 -0.6008189 0.1609882 -0.7830067 -0.6008189 0.1609882 -0.7830067 -0.6008201 0.1609905 -0.7830052 -0.6008201 0.1609905 -0.7830052 -0.6008201 0.1609905 -0.7830052 -0.7760119 -0.2079334 -0.5954571 -0.7760119 -0.2079334 -0.5954571 -0.7760119 -0.2079334 -0.5954571 -0.7760149 -0.2079316 -0.5954539 -0.7760149 -0.2079316 -0.5954539 -0.7760149 -0.2079316 -0.5954539 -0.5680804 -0.5680804 -0.5954573 -0.5680804 -0.5680804 -0.5954573 -0.5680804 -0.5680804 -0.5954573 -0.5680804 -0.5680804 -0.5954573 -0.5680804 -0.5680804 -0.5954573 -0.5680804 -0.5680804 -0.5954573 -0.2079341 -0.7760144 -0.5954537 -0.2079341 -0.7760144 -0.5954537 -0.2079341 -0.7760144 -0.5954537 -0.2079311 -0.7760128 -0.5954567 -0.2079311 -0.7760128 -0.5954567 -0.2079311 -0.7760128 -0.5954567 0.2079334 -0.7760119 -0.5954571 0.2079334 -0.7760119 -0.5954571 0.2079334 -0.7760119 -0.5954571 0.2079316 -0.7760149 -0.5954539 0.2079316 -0.7760149 -0.5954539 0.2079316 -0.7760149 -0.5954539 0.5680804 -0.5680804 -0.5954573 0.5680804 -0.5680804 -0.5954573 0.5680804 -0.5680804 -0.5954573 0.5680804 -0.5680804 -0.5954573 0.5680804 -0.5680804 -0.5954573 0.5680804 -0.5680804 -0.5954573 0.7760144 -0.2079341 -0.5954537 0.7760144 -0.2079341 -0.5954537 0.7760144 -0.2079341 -0.5954537 0.7760128 -0.2079311 -0.5954567 0.7760128 -0.2079311 -0.5954567 0.7760128 -0.2079311 -0.5954567 0.7760119 0.2079334 -0.5954571 0.7760119 0.2079334 -0.5954571 0.7760119 0.2079334 -0.5954571 0.7760149 0.2079316 -0.5954539 0.7760149 0.2079316 -0.5954539 0.7760149 0.2079316 -0.5954539 0.5680804 0.5680804 -0.5954573 0.5680804 0.5680804 -0.5954573 0.5680804 0.5680804 -0.5954573 0.5680804 0.5680804 -0.5954573 0.5680804 0.5680804 -0.5954573 0.5680804 0.5680804 -0.5954573 0.2079341 0.7760144 -0.5954537 0.2079341 0.7760144 -0.5954537 0.2079341 0.7760144 -0.5954537 0.2079311 0.7760128 -0.5954567 0.2079311 0.7760128 -0.5954567 0.2079311 0.7760128 -0.5954567 -0.2079334 0.7760119 -0.5954571 -0.2079334 0.7760119 -0.5954571 -0.2079334 0.7760119 -0.5954571 -0.2079316 0.7760149 -0.5954539 -0.2079316 0.7760149 -0.5954539 -0.2079316 0.7760149 -0.5954539 -0.5680804 0.5680804 -0.5954573 -0.5680804 0.5680804 -0.5954573 -0.5680804 0.5680804 -0.5954573 -0.5680804 0.5680804 -0.5954573 -0.5680804 0.5680804 -0.5954573 -0.5680804 0.5680804 -0.5954573 -0.7760144 0.2079341 -0.5954537 -0.7760144 0.2079341 -0.5954537 -0.7760144 0.2079341 -0.5954537 -0.7760128 0.2079311 -0.5954567 -0.7760128 0.2079311 -0.5954567 -0.7760128 0.2079311 -0.5954567 -0.8968096 -0.2402984 -0.3714691 -0.8968096 -0.2402984 -0.3714691 -0.8968096 -0.2402984 -0.3714691 -0.8968078 -0.2402998 -0.3714723 -0.8968078 -0.2402998 -0.3714723 -0.8968078 -0.2402998 -0.3714723 -0.6565099 -0.6565099 -0.3714691 -0.6565099 -0.6565099 -0.3714691 -0.6565099 -0.6565099 -0.3714691 -0.65651 -0.65651 -0.3714691 -0.65651 -0.65651 -0.3714691 -0.65651 -0.65651 -0.3714691 -0.240298 -0.8968083 -0.3714724 -0.240298 -0.8968083 -0.3714724 -0.240298 -0.8968083 -0.3714724 -0.2403001 -0.896809 -0.3714692 -0.2403001 -0.896809 -0.3714692 -0.2403001 -0.896809 -0.3714692 0.2402984 -0.8968096 -0.3714691 0.2402984 -0.8968096 -0.3714691 0.2402984 -0.8968096 -0.3714691 0.2402998 -0.8968078 -0.3714723 0.2402998 -0.8968078 -0.3714723 0.2402998 -0.8968078 -0.3714723 0.6565099 -0.6565099 -0.3714691 0.6565099 -0.6565099 -0.3714691 0.6565099 -0.6565099 -0.3714691 0.65651 -0.65651 -0.3714691 0.65651 -0.65651 -0.3714691 0.65651 -0.65651 -0.3714691 0.8968083 -0.240298 -0.3714724 0.8968083 -0.240298 -0.3714724 0.8968083 -0.240298 -0.3714724 0.896809 -0.2403001 -0.3714692 0.896809 -0.2403001 -0.3714692 0.896809 -0.2403001 -0.3714692 0.8968096 0.2402984 -0.3714691 0.8968096 0.2402984 -0.3714691 0.8968096 0.2402984 -0.3714691 0.8968078 0.2402998 -0.3714723 0.8968078 0.2402998 -0.3714723 0.8968078 0.2402998 -0.3714723 0.6565099 0.6565099 -0.3714691 0.6565099 0.6565099 -0.3714691 0.6565099 0.6565099 -0.3714691 0.65651 0.65651 -0.3714691 0.65651 0.65651 -0.3714691 0.65651 0.65651 -0.3714691 0.240298 0.8968083 -0.3714724 0.240298 0.8968083 -0.3714724 0.240298 0.8968083 -0.3714724 0.2403001 0.896809 -0.3714692 0.2403001 0.896809 -0.3714692 0.2403001 0.896809 -0.3714692 -0.2402984 0.8968096 -0.3714691 -0.2402984 0.8968096 -0.3714691 -0.2402984 0.8968096 -0.3714691 -0.2402998 0.8968078 -0.3714723 -0.2402998 0.8968078 -0.3714723 -0.2402998 0.8968078 -0.3714723 -0.6565099 0.6565099 -0.3714691 -0.6565099 0.6565099 -0.3714691 -0.6565099 0.6565099 -0.3714691 -0.65651 0.65651 -0.3714691 -0.65651 0.65651 -0.3714691 -0.65651 0.65651 -0.3714691 -0.8968083 0.240298 -0.3714724 -0.8968083 0.240298 -0.3714724 -0.8968083 0.240298 -0.3714724 -0.896809 0.2403001 -0.3714692 -0.896809 0.2403001 -0.3714692 -0.896809 0.2403001 -0.3714692 -0.958209 -0.2567523 -0.1261502 -0.958209 -0.2567523 -0.1261502 -0.958209 -0.2567523 -0.1261502 -0.958209 -0.2567522 -0.1261499 -0.958209 -0.2567522 -0.1261499 -0.958209 -0.2567522 -0.1261499 -0.7014578 -0.7014578 -0.1261501 -0.7014578 -0.7014578 -0.1261501 -0.7014578 -0.7014578 -0.1261501 -0.7014578 -0.7014578 -0.1261501 -0.7014578 -0.7014578 -0.1261501 -0.7014578 -0.7014578 -0.1261501 -0.2567523 -0.958209 -0.1261499 -0.2567523 -0.958209 -0.1261499 -0.2567523 -0.958209 -0.1261499 -0.2567521 -0.958209 -0.1261502 -0.2567521 -0.958209 -0.1261502 -0.2567521 -0.958209 -0.1261502 0.2567523 -0.958209 -0.1261502 0.2567523 -0.958209 -0.1261502 0.2567523 -0.958209 -0.1261502 0.2567522 -0.958209 -0.1261499 0.2567522 -0.958209 -0.1261499 0.2567522 -0.958209 -0.1261499 0.7014578 -0.7014578 -0.1261501 0.7014578 -0.7014578 -0.1261501 0.7014578 -0.7014578 -0.1261501 0.7014578 -0.7014578 -0.1261501 0.7014578 -0.7014578 -0.1261501 0.7014578 -0.7014578 -0.1261501 0.958209 -0.2567523 -0.1261499 0.958209 -0.2567523 -0.1261499 0.958209 -0.2567523 -0.1261499 0.958209 -0.2567521 -0.1261502 0.958209 -0.2567521 -0.1261502 0.958209 -0.2567521 -0.1261502 0.958209 0.2567523 -0.1261502 0.958209 0.2567523 -0.1261502 0.958209 0.2567523 -0.1261502 0.958209 0.2567522 -0.1261499 0.958209 0.2567522 -0.1261499 0.958209 0.2567522 -0.1261499 0.7014578 0.7014578 -0.1261501 0.7014578 0.7014578 -0.1261501 0.7014578 0.7014578 -0.1261501 0.7014578 0.7014578 -0.1261501 0.7014578 0.7014578 -0.1261501 0.7014578 0.7014578 -0.1261501 0.2567523 0.958209 -0.1261499 0.2567523 0.958209 -0.1261499 0.2567523 0.958209 -0.1261499 0.2567521 0.958209 -0.1261502 0.2567521 0.958209 -0.1261502 0.2567521 0.958209 -0.1261502 -0.2567523 0.958209 -0.1261502 -0.2567523 0.958209 -0.1261502 -0.2567523 0.958209 -0.1261502 -0.2567522 0.958209 -0.1261499 -0.2567522 0.958209 -0.1261499 -0.2567522 0.958209 -0.1261499 -0.7014578 0.7014578 -0.1261501 -0.7014578 0.7014578 -0.1261501 -0.7014578 0.7014578 -0.1261501 -0.7014578 0.7014578 -0.1261501 -0.7014578 0.7014578 -0.1261501 -0.7014578 0.7014578 -0.1261501 -0.958209 0.2567523 -0.1261499 -0.958209 0.2567523 -0.1261499 -0.958209 0.2567523 -0.1261499 -0.958209 0.2567521 -0.1261502 -0.958209 0.2567521 -0.1261502 -0.958209 0.2567521 -0.1261502 -0.958209 -0.2567521 0.1261502 -0.958209 -0.2567521 0.1261502 -0.958209 -0.2567521 0.1261502 -0.958209 -0.2567523 0.1261499 -0.958209 -0.2567523 0.1261499 -0.958209 -0.2567523 0.1261499 -0.7014578 -0.7014578 0.1261501 -0.7014578 -0.7014578 0.1261501 -0.7014578 -0.7014578 0.1261501 -0.7014578 -0.7014578 0.1261501 -0.7014578 -0.7014578 0.1261501 -0.7014578 -0.7014578 0.1261501 -0.2567522 -0.958209 0.1261499 -0.2567522 -0.958209 0.1261499 -0.2567522 -0.958209 0.1261499 -0.2567523 -0.958209 0.1261502 -0.2567523 -0.958209 0.1261502 -0.2567523 -0.958209 0.1261502 0.2567521 -0.958209 0.1261502 0.2567521 -0.958209 0.1261502 0.2567521 -0.958209 0.1261502 0.2567523 -0.958209 0.1261499 0.2567523 -0.958209 0.1261499 0.2567523 -0.958209 0.1261499 0.7014578 -0.7014578 0.1261501 0.7014578 -0.7014578 0.1261501 0.7014578 -0.7014578 0.1261501 0.7014578 -0.7014578 0.1261501 0.7014578 -0.7014578 0.1261501 0.7014578 -0.7014578 0.1261501 0.958209 -0.2567522 0.1261499 0.958209 -0.2567522 0.1261499 0.958209 -0.2567522 0.1261499 0.958209 -0.2567523 0.1261502 0.958209 -0.2567523 0.1261502 0.958209 -0.2567523 0.1261502 0.958209 0.2567521 0.1261502 0.958209 0.2567521 0.1261502 0.958209 0.2567521 0.1261502 0.958209 0.2567523 0.1261499 0.958209 0.2567523 0.1261499 0.958209 0.2567523 0.1261499 0.7014578 0.7014578 0.1261501 0.7014578 0.7014578 0.1261501 0.7014578 0.7014578 0.1261501 0.7014578 0.7014578 0.1261501 0.7014578 0.7014578 0.1261501 0.7014578 0.7014578 0.1261501 0.2567522 0.958209 0.1261499 0.2567522 0.958209 0.1261499 0.2567522 0.958209 0.1261499 0.2567523 0.958209 0.1261502 0.2567523 0.958209 0.1261502 0.2567523 0.958209 0.1261502 -0.2567521 0.958209 0.1261502 -0.2567521 0.958209 0.1261502 -0.2567521 0.958209 0.1261502 -0.2567523 0.958209 0.1261499 -0.2567523 0.958209 0.1261499 -0.2567523 0.958209 0.1261499 -0.7014578 0.7014578 0.1261501 -0.7014578 0.7014578 0.1261501 -0.7014578 0.7014578 0.1261501 -0.7014578 0.7014578 0.1261501 -0.7014578 0.7014578 0.1261501 -0.7014578 0.7014578 0.1261501 -0.958209 0.2567522 0.1261499 -0.958209 0.2567522 0.1261499 -0.958209 0.2567522 0.1261499 -0.958209 0.2567523 0.1261502 -0.958209 0.2567523 0.1261502 -0.958209 0.2567523 0.1261502 -0.896809 -0.2403001 0.3714692 -0.896809 -0.2403001 0.3714692 -0.896809 -0.2403001 0.3714692 -0.8968083 -0.240298 0.3714724 -0.8968083 -0.240298 0.3714724 -0.8968083 -0.240298 0.3714724 -0.65651 -0.65651 0.3714691 -0.65651 -0.65651 0.3714691 -0.65651 -0.65651 0.3714691 -0.65651 -0.65651 0.3714691 -0.65651 -0.65651 0.3714691 -0.65651 -0.65651 0.3714691 -0.2402998 -0.8968078 0.3714722 -0.2402998 -0.8968078 0.3714722 -0.2402998 -0.8968078 0.3714722 -0.2402984 -0.8968096 0.3714691 -0.2402984 -0.8968096 0.3714691 -0.2402984 -0.8968096 0.3714691 0.2403001 -0.896809 0.3714692 0.2403001 -0.896809 0.3714692 0.2403001 -0.896809 0.3714692 0.240298 -0.8968083 0.3714724 0.240298 -0.8968083 0.3714724 0.240298 -0.8968083 0.3714724 0.65651 -0.65651 0.3714691 0.65651 -0.65651 0.3714691 0.65651 -0.65651 0.3714691 0.65651 -0.65651 0.3714691 0.65651 -0.65651 0.3714691 0.65651 -0.65651 0.3714691 0.8968078 -0.2402998 0.3714722 0.8968078 -0.2402998 0.3714722 0.8968078 -0.2402998 0.3714722 0.8968096 -0.2402984 0.3714691 0.8968096 -0.2402984 0.3714691 0.8968096 -0.2402984 0.3714691 0.896809 0.2403001 0.3714692 0.896809 0.2403001 0.3714692 0.896809 0.2403001 0.3714692 0.8968083 0.240298 0.3714724 0.8968083 0.240298 0.3714724 0.8968083 0.240298 0.3714724 0.65651 0.65651 0.3714691 0.65651 0.65651 0.3714691 0.65651 0.65651 0.3714691 0.65651 0.65651 0.3714691 0.65651 0.65651 0.3714691 0.65651 0.65651 0.3714691 0.2402998 0.8968078 0.3714722 0.2402998 0.8968078 0.3714722 0.2402998 0.8968078 0.3714722 0.2402984 0.8968096 0.3714691 0.2402984 0.8968096 0.3714691 0.2402984 0.8968096 0.3714691 -0.2403001 0.896809 0.3714692 -0.2403001 0.896809 0.3714692 -0.2403001 0.896809 0.3714692 -0.240298 0.8968083 0.3714724 -0.240298 0.8968083 0.3714724 -0.240298 0.8968083 0.3714724 -0.65651 0.65651 0.3714691 -0.65651 0.65651 0.3714691 -0.65651 0.65651 0.3714691 -0.65651 0.65651 0.3714691 -0.65651 0.65651 0.3714691 -0.65651 0.65651 0.3714691 -0.8968078 0.2402998 0.3714722 -0.8968078 0.2402998 0.3714722 -0.8968078 0.2402998 0.3714722 -0.8968096 0.2402984 0.3714691 -0.8968096 0.2402984 0.3714691 -0.8968096 0.2402984 0.3714691 -0.7760128 -0.2079311 0.5954568 -0.7760128 -0.2079311 0.5954568 -0.7760128 -0.2079311 0.5954568 -0.7760143 -0.207934 0.5954537 -0.7760143 -0.207934 0.5954537 -0.7760143 -0.207934 0.5954537 -0.5680803 -0.5680803 0.5954574 -0.5680803 -0.5680803 0.5954574 -0.5680803 -0.5680803 0.5954574 -0.5680803 -0.5680803 0.5954574 -0.5680803 -0.5680803 0.5954574 -0.5680803 -0.5680803 0.5954574 -0.2079316 -0.7760147 0.595454 -0.2079316 -0.7760147 0.595454 -0.2079316 -0.7760147 0.595454 -0.2079334 -0.7760119 0.5954571 -0.2079334 -0.7760119 0.5954571 -0.2079334 -0.7760119 0.5954571 0.2079311 -0.7760128 0.5954568 0.2079311 -0.7760128 0.5954568 0.2079311 -0.7760128 0.5954568 0.207934 -0.7760143 0.5954537 0.207934 -0.7760143 0.5954537 0.207934 -0.7760143 0.5954537 0.5680803 -0.5680803 0.5954574 0.5680803 -0.5680803 0.5954574 0.5680803 -0.5680803 0.5954574 0.5680803 -0.5680803 0.5954574 0.5680803 -0.5680803 0.5954574 0.5680803 -0.5680803 0.5954574 0.7760147 -0.2079316 0.595454 0.7760147 -0.2079316 0.595454 0.7760147 -0.2079316 0.595454 0.7760119 -0.2079334 0.5954571 0.7760119 -0.2079334 0.5954571 0.7760119 -0.2079334 0.5954571 0.7760128 0.2079311 0.5954568 0.7760128 0.2079311 0.5954568 0.7760128 0.2079311 0.5954568 0.7760143 0.207934 0.5954537 0.7760143 0.207934 0.5954537 0.7760143 0.207934 0.5954537 0.5680803 0.5680803 0.5954574 0.5680803 0.5680803 0.5954574 0.5680803 0.5680803 0.5954574 0.5680803 0.5680803 0.5954574 0.5680803 0.5680803 0.5954574 0.5680803 0.5680803 0.5954574 0.2079316 0.7760147 0.595454 0.2079316 0.7760147 0.595454 0.2079316 0.7760147 0.595454 0.2079334 0.7760119 0.5954571 0.2079334 0.7760119 0.5954571 0.2079334 0.7760119 0.5954571 -0.2079311 0.7760128 0.5954568 -0.2079311 0.7760128 0.5954568 -0.2079311 0.7760128 0.5954568 -0.207934 0.7760143 0.5954537 -0.207934 0.7760143 0.5954537 -0.207934 0.7760143 0.5954537 -0.5680803 0.5680803 0.5954574 -0.5680803 0.5680803 0.5954574 -0.5680803 0.5680803 0.5954574 -0.5680803 0.5680803 0.5954574 -0.5680803 0.5680803 0.5954574 -0.5680803 0.5680803 0.5954574 -0.7760147 0.2079316 0.595454 -0.7760147 0.2079316 0.595454 -0.7760147 0.2079316 0.595454 -0.7760119 0.2079334 0.5954571 -0.7760119 0.2079334 0.5954571 -0.7760119 0.2079334 0.5954571 -0.6008203 -0.1609906 0.7830051 -0.6008203 -0.1609906 0.7830051 -0.6008203 -0.1609906 0.7830051 -0.6008191 -0.1609882 0.7830065 -0.6008191 -0.1609882 0.7830065 -0.6008191 -0.1609882 0.7830065 -0.4398313 -0.4398313 0.7830049 -0.4398313 -0.4398313 0.7830049 -0.4398313 -0.4398313 0.7830049 -0.4398313 -0.4398313 0.783005 -0.4398313 -0.4398313 0.783005 -0.4398313 -0.4398313 0.783005 -0.1609902 -0.6008189 0.7830064 -0.1609902 -0.6008189 0.7830064 -0.1609902 -0.6008189 0.7830064 -0.1609888 -0.6008211 0.7830048 -0.1609888 -0.6008211 0.7830048 -0.1609888 -0.6008211 0.7830048 0.1609906 -0.6008203 0.7830051 0.1609906 -0.6008203 0.7830051 0.1609906 -0.6008203 0.7830051 0.1609882 -0.6008191 0.7830065 0.1609882 -0.6008191 0.7830065 0.1609882 -0.6008191 0.7830065 0.4398313 -0.4398313 0.7830049 0.4398313 -0.4398313 0.7830049 0.4398313 -0.4398313 0.7830049 0.4398313 -0.4398313 0.783005 0.4398313 -0.4398313 0.783005 0.4398313 -0.4398313 0.783005 0.6008189 -0.1609902 0.7830064 0.6008189 -0.1609902 0.7830064 0.6008189 -0.1609902 0.7830064 0.6008211 -0.1609888 0.7830048 0.6008211 -0.1609888 0.7830048 0.6008211 -0.1609888 0.7830048 0.6008203 0.1609906 0.7830051 0.6008203 0.1609906 0.7830051 0.6008203 0.1609906 0.7830051 0.6008191 0.1609882 0.7830065 0.6008191 0.1609882 0.7830065 0.6008191 0.1609882 0.7830065 0.4398313 0.4398313 0.7830049 0.4398313 0.4398313 0.7830049 0.4398313 0.4398313 0.7830049 0.4398313 0.4398313 0.783005 0.4398313 0.4398313 0.783005 0.4398313 0.4398313 0.783005 0.1609902 0.6008189 0.7830064 0.1609902 0.6008189 0.7830064 0.1609902 0.6008189 0.7830064 0.1609888 0.6008211 0.7830048 0.1609888 0.6008211 0.7830048 0.1609888 0.6008211 0.7830048 -0.1609906 0.6008203 0.7830051 -0.1609906 0.6008203 0.7830051 -0.1609906 0.6008203 0.7830051 -0.1609882 0.6008191 0.7830065 -0.1609882 0.6008191 0.7830065 -0.1609882 0.6008191 0.7830065 -0.4398313 0.4398313 0.7830049 -0.4398313 0.4398313 0.7830049 -0.4398313 0.4398313 0.7830049 -0.4398313 0.4398313 0.783005 -0.4398313 0.4398313 0.783005 -0.4398313 0.4398313 0.783005 -0.6008189 0.1609902 0.7830064 -0.6008189 0.1609902 0.7830064 -0.6008189 0.1609902 0.7830064 -0.6008211 0.1609888 0.7830048 -0.6008211 0.1609888 0.7830048 -0.6008211 0.1609888 0.7830048 -0.3806894 -0.102005 0.9190597 -0.3806894 -0.102005 0.9190597 -0.3806894 -0.102005 0.9190597 -0.3806892 -0.1020045 0.9190598 -0.3806892 -0.1020045 0.9190598 -0.3806892 -0.1020045 0.9190598 -0.278684 -0.278684 0.9190595 -0.278684 -0.278684 0.9190595 -0.278684 -0.278684 0.9190595 -0.278684 -0.278684 0.9190595 -0.278684 -0.278684 0.9190595 -0.278684 -0.278684 0.9190595 -0.1020049 -0.3806892 0.9190598 -0.1020049 -0.3806892 0.9190598 -0.1020049 -0.3806892 0.9190598 -0.1020046 -0.3806895 0.9190596 -0.1020046 -0.3806895 0.9190596 -0.1020046 -0.3806895 0.9190596 0.102005 -0.3806894 0.9190597 0.102005 -0.3806894 0.9190597 0.102005 -0.3806894 0.9190597 0.1020045 -0.3806892 0.9190598 0.1020045 -0.3806892 0.9190598 0.1020045 -0.3806892 0.9190598 0.278684 -0.278684 0.9190595 0.278684 -0.278684 0.9190595 0.278684 -0.278684 0.9190595 0.278684 -0.278684 0.9190595 0.278684 -0.278684 0.9190595 0.278684 -0.278684 0.9190595 0.3806892 -0.1020049 0.9190598 0.3806892 -0.1020049 0.9190598 0.3806892 -0.1020049 0.9190598 0.3806895 -0.1020046 0.9190596 0.3806895 -0.1020046 0.9190596 0.3806895 -0.1020046 0.9190596 0.3806894 0.102005 0.9190597 0.3806894 0.102005 0.9190597 0.3806894 0.102005 0.9190597 0.3806892 0.1020045 0.9190598 0.3806892 0.1020045 0.9190598 0.3806892 0.1020045 0.9190598 0.278684 0.278684 0.9190595 0.278684 0.278684 0.9190595 0.278684 0.278684 0.9190595 0.278684 0.278684 0.9190595 0.278684 0.278684 0.9190595 0.278684 0.278684 0.9190595 0.1020049 0.3806892 0.9190598 0.1020049 0.3806892 0.9190598 0.1020049 0.3806892 0.9190598 0.1020046 0.3806895 0.9190596 0.1020046 0.3806895 0.9190596 0.1020046 0.3806895 0.9190596 -0.102005 0.3806894 0.9190597 -0.102005 0.3806894 0.9190597 -0.102005 0.3806894 0.9190597 -0.1020045 0.3806892 0.9190598 -0.1020045 0.3806892 0.9190598 -0.1020045 0.3806892 0.9190598 -0.278684 0.278684 0.9190595 -0.278684 0.278684 0.9190595 -0.278684 0.278684 0.9190595 -0.278684 0.278684 0.9190595 -0.278684 0.278684 0.9190595 -0.278684 0.278684 0.9190595 -0.3806892 0.1020049 0.9190598 -0.3806892 0.1020049 0.9190598 -0.3806892 0.1020049 0.9190598 -0.3806895 0.1020046 0.9190596 -0.3806895 0.1020046 0.9190596 -0.3806895 0.1020046 0.9190596 -0.1304458 -0.0349525 0.9908391 -0.1304458 -0.0349525 0.9908391 -0.1304458 -0.0349525 0.9908391 1.0 0.0 0.0 1.0 0.0 0.0 -0.0954928 -0.0954928 0.9908392 -0.0954928 -0.0954928 0.9908392 -0.0954928 -0.0954928 0.9908392 1.0 0.0 0.0 1.0 0.0 0.0 -0.0349525 -0.1304458 0.9908391 -0.0349525 -0.1304458 0.9908391 -0.0349525 -0.1304458 0.9908391 1.0 0.0 0.0 1.0 0.0 0.0</float_array>
                    <technique_common>
                        <accessor count="840" source="#geometry0-normal-array" stride="3">
                            <param name="X" type="float"/>
                            <param name="Y" type="float"/>
                            <param name="Z" type="float"/>
                        </accessor>
                    </technique_common>
                </source>
                <vertices id="geometry0-vertex">
                    <input semantic="POSITION" source="#geometry0-position"/>
                </vertices>
                <triangles count="288" material="default_ai_0.2_sh_0.2_tr_0.0_dc_r_0.8_g_0.8_b_0.8_sc_r_1.0_g_1.0_b_1.0_ec_r_0.0_g_0.0_b_0_tri">
                    <input offset="0" semantic="VERTEX" source="#geometry0-vertex"/>
                    <input offset="1" semantic="NORMAL" source="#geometry0-normal"/>
                    <p>124 0 125 1 133 2 124 3 133 4 133 4 125 5 126 6 133 7 125 8 133 9 133 9 126 10 127 11 133 12 126 13 133 14 133 14 127 15 128 16 133 17 127 18 133 19 133 19 128 20 129 21 133 22 128 23 133 24 133 24 129 25 130 26 133 27 129 28 133 29 133 29 130 30 131 31 133 32 130 33 133 34 133 34 131 35 132 36 133 37 131 38 133 39 133 39 132 40 122 41 133 42 132 43 133 44 133 44 0 45 0 45 1 46 0 47 1 48 2 49 0 50 0 50 3 51 0 52 3 53 1 54 0 55 0 55 4 56 0 57 4 58 3 59 0 60 0 60 5 61 0 62 5 63 4 64 0 65 0 65 6 66 0 67 6 68 5 69 0 70 0 70 7 71 0 72 7 73 6 74 0 75 0 75 8 76 0 77 8 78 7 79 0 80 0 80 9 81 0 82 9 83 8 84 0 85 0 85 10 86 0 87 10 88 9 89 0 90 0 90 11 91 0 92 11 93 10 94 0 95 0 95 12 96 0 97 12 98 11 99 0 100 0 100 2 101 0 102 2 103 12 104 2 105 1 106 13 107 2 108 13 109 14 110 1 111 3 112 15 113 1 114 15 115 13 116 3 117 4 118 16 119 3 120 16 121 15 122 4 123 5 124 17 125 4 126 17 127 16 128 5 129 6 130 18 131 5 132 18 133 17 134 6 135 7 136 19 137 6 138 19 139 18 140 7 141 8 142 20 143 7 144 20 145 19 146 8 147 9 148 21 149 8 150 21 151 20 152 9 153 10 154 22 155 9 156 22 157 21 158 10 159 11 160 23 161 10 162 23 163 22 164 11 165 12 166 24 167 11 168 24 169 23 170 12 171 2 172 14 173 12 174 14 175 24 176 14 177 13 178 25 179 14 180 25 181 26 182 13 183 15 184 27 185 13 186 27 187 25 188 15 189 16 190 28 191 15 192 28 193 27 194 16 195 17 196 29 197 16 198 29 199 28 200 17 201 18 202 30 203 17 204 30 205 29 206 18 207 19 208 31 209 18 210 31 211 30 212 19 213 20 214 32 215 19 216 32 217 31 218 20 219 21 220 33 221 20 222 33 223 32 224 21 225 22 226 34 227 21 228 34 229 33 230 22 231 23 232 35 233 22 234 35 235 34 236 23 237 24 238 36 239 23 240 36 241 35 242 24 243 14 244 26 245 24 246 26 247 36 248 26 249 25 250 37 251 26 252 37 253 38 254 25 255 27 256 39 257 25 258 39 259 37 260 27 261 28 262 40 263 27 264 40 265 39 266 28 267 29 268 41 269 28 270 41 271 40 272 29 273 30 274 42 275 29 276 42 277 41 278 30 279 31 280 43 281 30 282 43 283 42 284 31 285 32 286 44 287 31 288 44 289 43 290 32 291 33 292 45 293 32 294 45 295 44 296 33 297 34 298 46 299 33 300 46 301 45 302 34 303 35 304 47 305 34 306 47 307 46 308 35 309 36 310 48 311 35 312 48 313 47 314 36 315 26 316 38 317 36 318 38 319 48 320 38 321 37 322 49 323 38 324 49 325 50 326 37 327 39 328 51 329 37 330 51 331 49 332 39 333 40 334 52 335 39 336 52 337 51 338 40 339 41 340 53 341 40 342 53 343 52 344 41 345 42 346 54 347 41 348 54 349 53 350 42 351 43 352 55 353 42 354 55 355 54 356 43 357 44 358 56 359 43 360 56 361 55 362 44 363 45 364 57 365 44 366 57 367 56 368 45 369 46 370 58 371 45 372 58 373 57 374 46 375 47 376 59 377 46 378 59 379 58 380 47 381 48 382 60 383 47 384 60 385 59 386 48 387 38 388 50 389 48 390 50 391 60 392 50 393 49 394 61 395 50 396 61 397 62 398 49 399 51 400 63 401 49 402 63 403 61 404 51 405 52 406 64 407 51 408 64 409 63 410 52 411 53 412 65 413 52 414 65 415 64 416 53 417 54 418 66 419 53 420 66 421 65 422 54 423 55 424 67 425 54 426 67 427 66 428 55 429 56 430 68 431 55 432 68 433 67 434 56 435 57 436 69 437 56 438 69 439 68 440 57 441 58 442 70 443 57 444 70 445 69 446 58 447 59 448 71 449 58 450 71 451 70 452 59 453 60 454 72 455 59 456 72 457 71 458 60 459 50 460 62 461 60 462 62 463 72 464 62 465 61 466 73 467 62 468 73 469 74 470 61 471 63 472 75 473 61 474 75 475 73 476 63 477 64 478 76 479 63 480 76 481 75 482 64 483 65 484 77 485 64 486 77 487 76 488 65 489 66 490 78 491 65 492 78 493 77 494 66 495 67 496 79 497 66 498 79 499 78 500 67 501 68 502 80 503 67 504 80 505 79 506 68 507 69 508 81 509 68 510 81 511 80 512 69 513 70 514 82 515 69 516 82 517 81 518 70 519 71 520 83 521 70 522 83 523 82 524 71 525 72 526 84 527 71 528 84 529 83 530 72 531 62 532 74 533 72 534 74 535 84 536 74 537 73 538 85 539 74 540 85 541 86 542 73 543 75 544 87 545 73 546 87 547 85 548 75 549 76 550 88 551 75 552 88 553 87 554 76 555 77 556 89 557 76 558 89 559 88 560 77 561 78 562 90 563 77 564 90 565 89 566 78 567 79 568 91 569 78 570 91 571 90 572 79 573 80 574 92 575 79 576 92 577 91 578 80 579 81 580 93 581 80 582 93 583 92 584 81 585 82 586 94 587 81 588 94 589 93 590 82 591 83 592 95 593 82 594 95 595 94 596 83 597 84 598 96 599 83 600 96 601 95 602 84 603 74 604 86 605 84 606 86 607 96 608 86 609 85 610 97 611 86 612 97 613 98 614 85 615 87 616 99 617 85 618 99 619 97 620 87 621 88 622 100 623 87 624 100 625 99 626 88 627 89 628 101 629 88 630 101 631 100 632 89 633 90 634 102 635 89 636 102 637 101 638 90 639 91 640 103 641 90 642 103 643 102 644 91 645 92 646 104 647 91 648 104 649 103 650 92 651 93 652 105 653 92 654 105 655 104 656 93 657 94 658 106 659 93 660 106 661 105 662 94 663 95 664 107 665 94 666 107 667 106 668 95 669 96 670 108 671 95 672 108 673 107 674 96 675 86 676 98 677 96 678 98 679 108 680 98 681 97 682 109 683 98 684 109 685 110 686 97 687 99 688 111 689 97 690 111 691 109 692 99 693 100 694 112 695 99 696 112 697 111 698 100 699 101 700 113 701 100 702 113 703 112 704 101 705 102 706 114 707 101 708 114 709 113 710 102 711 103 712 115 713 102 714 115 715 114 716 103 717 104 718 116 719 103 720 116 721 115 722 104 723 105 724 117 725 104 726 117 727 116 728 105 729 106 730 118 731 105 732 118 733 117 734 106 735 107 736 119 737 106 738 119 739 118 740 107 741 108 742 120 743 107 744 120 745 119 746 108 747 98 748 110 749 108 750 110 751 120 752 110 753 109 754 121 755 110 756 121 757 122 758 109 759 111 760 123 761 109 762 123 763 121 764 111 765 112 766 124 767 111 768 124 769 123 770 112 771 113 772 125 773 112 774 125 775 124 776 113 777 114 778 126 779 113 780 126 781 125 782 114 783 115 784 127 785 114 786 127 787 126 788 115 789 116 790 128 791 115 792 128 793 127 794 116 795 117 796 129 797 116 798 129 799 128 800 117 801 118 802 130 803 117 804 130 805 129 806 118 807 119 808 131 809 118 810 131 811 130 812 119 813 120 814 132 815 119 816 132 817 131 818 120 819 110 820 122 821 120 822 122 823 132 824 122 825 121 826 133 827 122 828 133 829 133 829 121 830 123 831 133 832 121 833 133 834 133 834 123 835 124 836 133 837 123 838 133 839 133 839</p>
                </triangles>
            </mesh>
        </geometry>
    </library_geometries>
    <library_visual_scenes>
        <visual_scene id="Building_244_CROWN2">
            <node>
                <instance_geometry url="#geometry0">
                    <bind_material>
                        <technique_common>
                            <instance_material symbol="default_ai_0.2_sh_0.2_tr_0.0_dc_r_0.8_g_0.8_b_0.8_sc_r_1.0_g_1.0_b_1.0_ec_r_0.0_g_0.0_b_0_tri" target="#default_ai_0.2_sh_0.2_tr_0.0_dc_r_0.8_g_0.8_b_0.8_sc_r_1.0_g_1.0_b_1.0_ec_r_0.0_g_0.0_b_0_mat"/>
                        </technique_common>
                    </bind_material>
                </instance_geometry>
            </node>
        </visual_scene>
    </library_visual_scenes>
    <scene>
        <instance_visual_scene url="#Building_244_CROWN2"/>
    </scene>
</COLLADA>
