<?xml version="1.0" encoding="UTF-8" standalone="yes"?>
<COLLADA xmlns="http://www.collada.org/2005/11/COLLADASchema" version="1.4.1">
    <asset>
        <contributor>
            <authoring_tool>3D City Database Importer/Exporter, version 5.5.3; Chair of Geoinformatics, Technical University of Munich</authoring_tool>
        </contributor>
        <created>2026-09-25T14:44:46.021</created>
        <modified>2026-09-25T14:44:46.021</modified>
        <unit meter="1.0" name="meters"/>
        <up_axis>Z_UP</up_axis>
    </asset>
    <library_materials>
        <material id="default_ai_0.2_sh_0.2_tr_0.0_dc_r_0.8_g_0.8_b_0.8_sc_r_1.0_g_1.0_b_1.0_ec_r_0.0_g_0.0_b_0_mat">
            <instance_effect url="#default_ai_0.2_sh_0.2_tr_0.0_dc_r_0.8_g_0.8_b_0.8_sc_r_1.0_g_1.0_b_1.0_ec_r_0.0_g_0.0_b_0_eff"/>
        </material>
    </library_materials>
    <library_effects>
        <effect id="default_ai_0.2_sh_0.2_tr_0.0_dc_r_0.8_g_0.8_b_0.8_sc_r_1.0_g_1.0_b_1.0_ec_r_0.0_g_0.0_b_0_eff">
            <profile_COMMON>
                <technique sid="COMMON">
                    <lambert>
                        <emission>
                            <color>0.0 0.0 0.0 1.0</color>
                        </emission>
                        <diffuse>
                            <color>0.8 0.8 0.8 1.0</color>
                        </diffuse>
                        <reflective>
                            <color>1.0 1.0 1.0 1.0</color>
                        </reflective>
                        <reflectivity>
                            <float>0.2</float>
                        </reflectivity>
                        <transparent opaque="A_ONE">
                            <color>1.0 1.0 1.0 1.0</color>
                        </transparent>
                        <transparency>
                            <float>1.0</float>
                        </transparency>
                    </lambert>
                </technique>
                <extra>
                    <technique profile="GOOGLEEARTH">
                        <double_sided>0</double_sided>
                    </technique>
                </extra>
            </profile_COMMON>
        </effect>
    </library_effects>
    <library_geometries>
        <geometry id="geometry0">
            <mesh>
                <source id="geometry0-position">
                    <float_array id="geometry0-position-array" count="402">0.0 0.0 4.6 0.5155312 0.297643 4.5216298 0.5952837 0.0 4.5216298 0.297643 0.5155312 4.5216298 0.0 0.5952837 4.5216298 -0.297643 0.5155312 4.5216298 -0.5155312 0.297643 4.5216298 -0.5952837 0.0 4.5216298 -0.5155312 -0.297643 4.5216298 -0.297643 -0.5155312 4.5216298 0.0 -0.5952837 4.5216298 0.297643 -0.5155312 4.5216298 0.5155312 -0.297643 4.5216298 0.9959299 0.575 4.2918575 1.15 0.0 4.2918575 0.575 0.9959299 4.2918575 0.0 1.15 4.2918575 -0.575 0.9959299 4.2918575 -0.9959299 0.575 4.2918575 -1.15 0.0 4.2918575 -0.9959299 -0.575 4.2918575 -0.575 -0.9959299 4.2918575 0.0 -1.15 4.2918575 0.575 -0.9959299 4.2918575 0.9959299 -0.575 4.2918575 1.4084556 0.8131719 3.9263438 1.6263461 0.0 3.9263438 0.8131719 1.4084556 3.9263438 0.0 1.6263461 3.9263438 -0.8131719 1.4084556 3.9263438 -1.4084556 0.8131719 3.9263438 -1.6263461 0.0 3.9263438 -1.4084556 -0.8131719 3.9263438 -0.8131719 -1.4084556 3.9263438 0.0 -1.6263461 3.9263438 0.8131719 -1.4084556 3.9263438 1.4084556 -0.8131719 3.9263438 1.725 0.9959299 3.45 1.9918575 0.0 3.45 0.9959299 1.725 3.45 0.0 1.9918575 3.45 -0.9959299 1.725 3.45 -1.725 0.9959299 3.45 -1.9918575 0.0 3.45 -1.725 -0.9959299 3.45 -0.9959299 -1.725 3.45 0.0 -1.9918575 3.45 0.9959299 -1.725 3.45 1.725 -0.9959299 3.45 1.9239868 1.1108149 2.8952837 2.2216298 0.0 2.8952837 1.1108149 1.9239868 2.8952837 0.0 2.2216298 2.8952837 -1.1108149 1.9239868 2.8952837 -1.9239868 1.1108149 2.8952837 -2.2216298 0.0 2.8952837 -1.9239868 -1.1108149 2.8952837 -1.1108149 -1.9239868 2.8952837 0.0 -2.2216298 2.8952837 1.1108149 -1.9239868 2.8952837 1.9239868 -1.1108149 2.8952837 1.9918575 1.15 2.3 2.3 0.0 2.3 1.15 1.9918575 2.3 0.0 2.3 2.3 -1.15 1.9918575 2.3 -1.9918575 1.15 2.3 -2.3 0.0 2.3 -1.9918575 -1.15 2.3 -1.15 -1.9918575 2.3 0.0 -2.3 2.3 1.15 -1.9918575 2.3 1.9918575 -1.15 2.3 1.9239868 1.1108149 1.7047163 2.2216298 0.0 1.7047163 1.1108149 1.9239868 1.7047163 0.0 2.2216298 1.7047163 -1.1108149 1.9239868 1.7047163 -1.9239868 1.1108149 1.7047163 -2.2216298 0.0 1.7047163 -1.9239868 -1.1108149 1.7047163 -1.1108149 -1.9239868 1.7047163 0.0 -2.2216298 1.7047163 1.1108149 -1.9239868 1.7047163 1.9239868 -1.1108149 1.7047163 1.725 0.9959299 1.15 1.9918575 0.0 1.15 0.9959299 1.725 1.15 0.0 1.9918575 1.15 -0.9959299 1.725 1.15 -1.725 0.9959299 1.15 -1.9918575 0.0 1.15 -1.725 -0.9959299 1.15 -0.9959299 -1.725 1.15 0.0 -1.9918575 1.15 0.9959299 -1.725 1.15 1.725 -0.9959299 1.15 1.4084556 0.8131719 0.6736539 1.6263461 0.0 0.6736539 0.8131719 1.4084556 0.6736539 0.0 1.6263461 0.6736539 -0.8131719 1.4084556 0.6736539 -1.4084556 0.8131719 0.6736539 -1.6263461 0.0 0.6736539 -1.4084556 -0.8131719 0.6736539 -0.8131719 -1.4084556 0.6736539 0.0 -1.6263461 0.6736539 0.8131719 -1.4084556 0.6736539 1.4084556 -0.8131719 0.6736539 0.9959299 0.575 0.3081402 1.15 0.0 0.3081402 0.575 0.9959299 0.3081402 0.0 1.15 0.3081402 -0.575 0.9959299 0.3081402 -0.9959299 0.575 0.3081402 -1.15 0.0 0.3081402 -0.9959299 -0.575 0.3081402 -0.575 -0.9959299 0.3081402 0.0 -1.15 0.3081402 0.575 -0.9959299 0.3081402 0.9959299 -0.575 0.3081402 0.5155312 0.297643 0.0783702 0.5952837 0.0 0.0783702 0.297643 0.5155312 0.0783702 0.0 0.5952837 0.0783702 -0.297643 0.5155312 0.0783702 -0.5155312 0.297643 0.0783702 -0.5952837 0.0 0.0783702 -0.5155312 -0.297643 0.0783702 -0.297643 -0.5155312 0.0783702 0.0 -0.5952837 0.0783702 0.297643 -0.5155312 0.0783702 0.5155312 -0.297643 0.0783702 0.0 0.0 0.0</float_array>
                    <technique_common>
                        <accessor count="134" source="#geometry0-position-array" stride="3">
                            <param name="X" type="float"/>
                            <param name="Y" type="float"/>
                            <param name="Z" type="float"/>
                        </accessor>
                    </technique_common>
                </source>
                <source id="geometry0-normal">
                    <float_array id="geometry0-normal-array" count="2520">-0.958209 0.2567523 -0.1261498 -0.958209 0.2567523 -0.1261498 -0.958209 0.2567523 -0.1261498 -0.958209 0.2567521 -0.1261503 -0.958209 0.2567521 -0.1261503 -0.958209 0.2567521 -0.1261503 -0.958209 -0.2567521 0.1261503 -0.958209 -0.2567521 0.1261503 -0.958209 -0.2567521 0.1261503 -0.958209 -0.2567523 0.1261498 -0.958209 -0.2567523 0.1261498 -0.958209 -0.2567523 0.1261498 -0.7014578 -0.7014578 0.1261501 -0.7014578 -0.7014578 0.1261501 -0.7014578 -0.7014578 0.1261501 -0.7014578 -0.7014578 0.1261502 -0.7014578 -0.7014578 0.1261502 -0.7014578 -0.7014578 0.1261502 -0.2567521 -0.958209 0.1261498 -0.2567521 -0.958209 0.1261498 -0.2567521 -0.958209 0.1261498 -0.2567523 -0.9582089 0.1261503 -0.2567523 -0.9582089 0.1261503 -0.2567523 -0.9582089 0.1261503 0.2567521 -0.958209 0.1261503 0.2567521 -0.958209 0.1261503 0.2567521 -0.958209 0.1261503 0.2567523 -0.958209 0.1261498 0.2567523 -0.958209 0.1261498 0.2567523 -0.958209 0.1261498 0.7014578 -0.7014578 0.1261501 0.7014578 -0.7014578 0.1261501 0.7014578 -0.7014578 0.1261501 0.7014578 -0.7014578 0.1261502 0.7014578 -0.7014578 0.1261502 0.7014578 -0.7014578 0.1261502 0.958209 -0.2567521 0.1261498 0.958209 -0.2567521 0.1261498 0.958209 -0.2567521 0.1261498 0.9582089 -0.2567523 0.1261503 0.9582089 -0.2567523 0.1261503 0.9582089 -0.2567523 0.1261503 0.958209 0.2567521 0.1261503 0.958209 0.2567521 0.1261503 0.958209 0.2567521 0.1261503 0.958209 0.2567523 0.1261498 0.958209 0.2567523 0.1261498 0.958209 0.2567523 0.1261498 0.7014578 0.7014578 0.1261501 0.7014578 0.7014578 0.1261501 0.7014578 0.7014578 0.1261501 0.7014578 0.7014578 0.1261502 0.7014578 0.7014578 0.1261502 0.7014578 0.7014578 0.1261502 0.2567521 0.958209 0.1261498 0.2567521 0.958209 0.1261498 0.2567521 0.958209 0.1261498 0.2567523 0.9582089 0.1261503 0.2567523 0.9582089 0.1261503 0.2567523 0.9582089 0.1261503 -0.2567521 0.958209 0.1261503 -0.2567521 0.958209 0.1261503 -0.2567521 0.958209 0.1261503 -0.2567523 0.958209 0.1261498 -0.2567523 0.958209 0.1261498 -0.2567523 0.958209 0.1261498 -0.7014578 0.7014578 0.1261501 -0.7014578 0.7014578 0.1261501 -0.7014578 0.7014578 0.1261501 -0.7014578 0.7014578 0.1261502 -0.7014578 0.7014578 0.1261502 -0.7014578 0.7014578 0.1261502 -0.958209 0.2567521 0.1261498 -0.958209 0.2567521 0.1261498 -0.958209 0.2567521 0.1261498 -0.9582089 0.2567523 0.1261503 -0.9582089 0.2567523 0.1261503 -0.9582089 0.2567523 0.1261503 -0.896809 -0.2403001 0.3714692 -0.896809 -0.2403001 0.3714692 -0.896809 -0.2403001 0.3714692 -0.8968083 -0.2402981 0.3714723 -0.8968083 -0.2402981 0.3714723 -0.8968083 -0.2402981 0.3714723 -0.65651 -0.65651 0.3714691 -0.65651 -0.65651 0.3714691 -0.65651 -0.65651 0.3714691 -0.6565099 -0.6565099 0.3714691 -0.6565099 -0.6565099 0.3714691 -0.6565099 -0.6565099 0.3714691 -0.2402998 -0.8968079 0.3714721 -0.2402998 -0.8968079 0.3714721 -0.2402998 -0.8968079 0.3714721 -0.2402984 -0.8968096 0.371469 -0.2402984 -0.8968096 0.371469 -0.2402984 -0.8968096 0.371469 0.2403001 -0.896809 0.3714692 0.2403001 -0.896809 0.3714692 0.2403001 -0.896809 0.3714692 0.2402981 -0.8968083 0.3714723 0.2402981 -0.8968083 0.3714723 0.2402981 -0.8968083 0.3714723 0.65651 -0.65651 0.3714691 0.65651 -0.65651 0.3714691 0.65651 -0.65651 0.3714691 0.6565099 -0.6565099 0.3714691 0.6565099 -0.6565099 0.3714691 0.6565099 -0.6565099 0.3714691 0.8968079 -0.2402998 0.3714721 0.8968079 -0.2402998 0.3714721 0.8968079 -0.2402998 0.3714721 0.8968096 -0.2402984 0.371469 0.8968096 -0.2402984 0.371469 0.8968096 -0.2402984 0.371469 0.896809 0.2403001 0.3714692 0.896809 0.2403001 0.3714692 0.896809 0.2403001 0.3714692 0.8968083 0.2402981 0.3714723 0.8968083 0.2402981 0.3714723 0.8968083 0.2402981 0.3714723 0.65651 0.65651 0.3714691 0.65651 0.65651 0.3714691 0.65651 0.65651 0.3714691 0.6565099 0.6565099 0.3714691 0.6565099 0.6565099 0.3714691 0.6565099 0.6565099 0.3714691 0.2402998 0.8968079 0.3714721 0.2402998 0.8968079 0.3714721 0.2402998 0.8968079 0.3714721 0.2402984 0.8968096 0.371469 0.2402984 0.8968096 0.371469 0.2402984 0.8968096 0.371469 -0.2403001 0.896809 0.3714692 -0.2403001 0.896809 0.3714692 -0.2403001 0.896809 0.3714692 -0.2402981 0.8968083 0.3714723 -0.2402981 0.8968083 0.3714723 -0.2402981 0.8968083 0.3714723 -0.65651 0.65651 0.3714691 -0.65651 0.65651 0.3714691 -0.65651 0.65651 0.3714691 -0.6565099 0.6565099 0.3714691 -0.6565099 0.6565099 0.3714691 -0.6565099 0.6565099 0.3714691 -0.8968079 0.2402998 0.3714721 -0.8968079 0.2402998 0.3714721 -0.8968079 0.2402998 0.3714721 -0.8968096 0.2402984 0.371469 -0.8968096 0.2402984 0.371469 -0.8968096 0.2402984 0.371469 -0.7760127 -0.2079311 0.5954569 -0.7760127 -0.2079311 0.5954569 -0.7760127 -0.2079311 0.5954569 -0.7760144 -0.2079341 0.5954539 -0.7760144 -0.2079341 0.5954539 -0.7760144 -0.2079341 0.5954539 -0.5680802 -0.5680802 0.5954575 -0.5680802 -0.5680802 0.5954575 -0.5680802 -0.5680802 0.5954575 -0.5680803 -0.5680803 0.5954574 -0.5680803 -0.5680803 0.5954574 -0.5680803 -0.5680803 0.5954574 -0.2079317 -0.7760147 0.5954541 -0.2079317 -0.7760147 0.5954541 -0.2079317 -0.7760147 0.5954541 -0.2079334 -0.7760118 0.5954572 -0.2079334 -0.7760118 0.5954572 -0.2079334 -0.7760118 0.5954572 0.2079311 -0.7760127 0.5954569 0.2079311 -0.7760127 0.5954569 0.2079311 -0.7760127 0.5954569 0.2079341 -0.7760144 0.5954539 0.2079341 -0.7760144 0.5954539 0.2079341 -0.7760144 0.5954539 0.5680802 -0.5680802 0.5954575 0.5680802 -0.5680802 0.5954575 0.5680802 -0.5680802 0.5954575 0.5680803 -0.5680803 0.5954574 0.5680803 -0.5680803 0.5954574 0.5680803 -0.5680803 0.5954574 0.7760147 -0.2079317 0.5954541 0.7760147 -0.2079317 0.5954541 0.7760147 -0.2079317 0.5954541 0.7760118 -0.2079334 0.5954572 0.7760118 -0.2079334 0.5954572 0.7760118 -0.2079334 0.5954572 0.7760127 0.2079311 0.5954569 0.7760127 0.2079311 0.5954569 0.7760127 0.2079311 0.5954569 0.7760144 0.2079341 0.5954539 0.7760144 0.2079341 0.5954539 0.7760144 0.2079341 0.5954539 0.5680802 0.5680802 0.5954575 0.5680802 0.5680802 0.5954575 0.5680802 0.5680802 0.5954575 0.5680803 0.5680803 0.5954574 0.5680803 0.5680803 0.5954574 0.5680803 0.5680803 0.5954574 0.2079317 0.7760147 0.5954541 0.2079317 0.7760147 0.5954541 0.2079317 0.7760147 0.5954541 0.2079334 0.7760118 0.5954572 0.2079334 0.7760118 0.5954572 0.2079334 0.7760118 0.5954572 -0.2079311 0.7760127 0.5954569 -0.2079311 0.7760127 0.5954569 -0.2079311 0.7760127 0.5954569 -0.2079341 0.7760144 0.5954539 -0.2079341 0.7760144 0.5954539 -0.2079341 0.7760144 0.5954539 -0.5680802 0.5680802 0.5954575 -0.5680802 0.5680802 0.5954575 -0.5680802 0.5680802 0.5954575 -0.5680803 0.5680803 0.5954574 -0.5680803 0.5680803 0.5954574 -0.5680803 0.5680803 0.5954574 -0.7760147 0.2079317 0.5954541 -0.7760147 0.2079317 0.5954541 -0.7760147 0.2079317 0.5954541 -0.7760118 0.2079334 0.5954572 -0.7760118 0.2079334 0.5954572 -0.7760118 0.2079334 0.5954572 -0.6008226 -0.1609912 0.7830032 -0.6008226 -0.1609912 0.7830032 -0.6008226 -0.1609912 0.7830032 -0.6008214 -0.1609889 0.7830046 -0.6008214 -0.1609889 0.7830046 -0.6008214 -0.1609889 0.7830046 -0.4398331 -0.4398331 0.7830031 -0.4398331 -0.4398331 0.7830031 -0.4398331 -0.4398331 0.7830031 -0.439833 -0.439833 0.783003 -0.439833 -0.439833 0.783003 -0.439833 -0.439833 0.783003 -0.1609908 -0.6008211 0.7830044 -0.1609908 -0.6008211 0.7830044 -0.1609908 -0.6008211 0.7830044 -0.1609894 -0.6008235 0.783003 -0.1609894 -0.6008235 0.783003 -0.1609894 -0.6008235 0.783003 0.1609912 -0.6008226 0.7830032 0.1609912 -0.6008226 0.7830032 0.1609912 -0.6008226 0.7830032 0.1609889 -0.6008214 0.7830046 0.1609889 -0.6008214 0.7830046 0.1609889 -0.6008214 0.7830046 0.4398331 -0.4398331 0.7830031 0.4398331 -0.4398331 0.7830031 0.4398331 -0.4398331 0.7830031 0.439833 -0.439833 0.783003 0.439833 -0.439833 0.783003 0.439833 -0.439833 0.783003 0.6008211 -0.1609908 0.7830044 0.6008211 -0.1609908 0.7830044 0.6008211 -0.1609908 0.7830044 0.6008235 -0.1609894 0.783003 0.6008235 -0.1609894 0.783003 0.6008235 -0.1609894 0.783003 0.6008226 0.1609912 0.7830032 0.6008226 0.1609912 0.7830032 0.6008226 0.1609912 0.7830032 0.6008214 0.1609889 0.7830046 0.6008214 0.1609889 0.7830046 0.6008214 0.1609889 0.7830046 0.4398331 0.4398331 0.7830031 0.4398331 0.4398331 0.7830031 0.4398331 0.4398331 0.7830031 0.439833 0.439833 0.783003 0.439833 0.439833 0.783003 0.439833 0.439833 0.783003 0.1609908 0.6008211 0.7830044 0.1609908 0.6008211 0.7830044 0.1609908 0.6008211 0.7830044 0.1609894 0.6008235 0.783003 0.1609894 0.6008235 0.783003 0.1609894 0.6008235 0.783003 -0.1609912 0.6008226 0.7830032 -0.1609912 0.6008226 0.7830032 -0.1609912 0.6008226 0.7830032 -0.1609889 0.6008214 0.7830046 -0.1609889 0.6008214 0.7830046 -0.1609889 0.6008214 0.7830046 -0.4398331 0.4398331 0.7830031 -0.4398331 0.4398331 0.7830031 -0.4398331 0.4398331 0.7830031 -0.439833 0.439833 0.783003 -0.439833 0.439833 0.783003 -0.439833 0.439833 0.783003 -0.6008211 0.1609908 0.7830044 -0.6008211 0.1609908 0.7830044 -0.6008211 0.1609908 0.7830044 -0.6008235 0.1609894 0.783003 -0.6008235 0.1609894 0.783003 -0.6008235 0.1609894 0.783003 -0.3806861 -0.1020041 0.9190611 -0.3806861 -0.1020041 0.9190611 -0.3806861 -0.1020041 0.9190611 -0.3806859 -0.1020036 0.9190612 -0.3806859 -0.1020036 0.9190612 -0.3806859 -0.1020036 0.9190612 -0.2786816 -0.2786816 0.9190609 -0.2786816 -0.2786816 0.9190609 -0.2786816 -0.2786816 0.9190609 -0.2786817 -0.2786817 0.9190609 -0.2786817 -0.2786817 0.9190609 -0.2786817 -0.2786817 0.9190609 -0.102004 -0.3806859 0.9190611 -0.102004 -0.3806859 0.9190611 -0.102004 -0.3806859 0.9190611 -0.1020037 -0.3806863 0.919061 -0.1020037 -0.3806863 0.919061 -0.1020037 -0.3806863 0.919061 0.1020041 -0.3806861 0.9190611 0.1020041 -0.3806861 0.9190611 0.1020041 -0.3806861 0.9190611 0.1020036 -0.3806859 0.9190612 0.1020036 -0.3806859 0.9190612 0.1020036 -0.3806859 0.9190612 0.2786816 -0.2786816 0.9190609 0.2786816 -0.2786816 0.9190609 0.2786816 -0.2786816 0.9190609 0.2786817 -0.2786817 0.9190609 0.2786817 -0.2786817 0.9190609 0.2786817 -0.2786817 0.9190609 0.3806859 -0.102004 0.9190611 0.3806859 -0.102004 0.9190611 0.3806859 -0.102004 0.9190611 0.3806863 -0.1020037 0.919061 0.3806863 -0.1020037 0.919061 0.3806863 -0.1020037 0.919061 0.3806861 0.1020041 0.9190611 0.3806861 0.1020041 0.9190611 0.3806861 0.1020041 0.9190611 0.3806859 0.1020036 0.9190612 0.3806859 0.1020036 0.9190612 0.3806859 0.1020036 0.9190612 0.2786816 0.2786816 0.9190609 0.2786816 0.2786816 0.9190609 0.2786816 0.2786816 0.9190609 0.2786817 0.2786817 0.9190609 0.2786817 0.2786817 0.9190609 0.2786817 0.2786817 0.9190609 0.102004 0.3806859 0.9190611 0.102004 0.3806859 0.9190611 0.102004 0.3806859 0.9190611 0.1020037 0.3806863 0.919061 0.1020037 0.3806863 0.919061 0.1020037 0.3806863 0.919061 -0.1020041 0.3806861 0.9190611 -0.1020041 0.3806861 0.9190611 -0.1020041 0.3806861 0.9190611 -0.1020036 0.3806859 0.9190612 -0.1020036 0.3806859 0.9190612 -0.1020036 0.3806859 0.9190612 -0.2786816 0.2786816 0.9190609 -0.2786816 0.2786816 0.9190609 -0.2786816 0.2786816 0.9190609 -0.2786817 0.2786817 0.9190609 -0.2786817 0.2786817 0.9190609 -0.2786817 0.2786817 0.9190609 -0.3806859 0.102004 0.9190611 -0.3806859 0.102004 0.9190611 -0.3806859 0.102004 0.9190611 -0.3806863 0.1020037 0.919061 -0.3806863 0.1020037 0.919061 -0.3806863 0.1020037 0.919061 -0.1304458 -0.0349525 0.9908391 -0.1304458 -0.0349525 0.9908391 -0.1304458 -0.0349525 0.9908391 1.0 0.0 0.0 1.0 0.0 0.0 -0.0954928 -0.0954928 0.9908392 -0.0954928 -0.0954928 0.9908392 -0.0954928 -0.0954928 0.9908392 1.0 0.0 0.0 1.0 0.0 0.0 -0.0349525 -0.1304458 0.9908391 -0.0349525 -0.1304458 0.9908391 -0.0349525 -0.1304458 0.9908391 1.0 0.0 0.0 1.0 0.0 0.0 0.0349525 -0.1304458 0.9908391 0.0349525 -0.1304458 0.9908391 0.0349525 -0.1304458 0.9908391 1.0 0.0 0.0 1.0 0.0 0.0 0.0954928 -0.0954928 0.9908392 0.0954928 -0.0954928 0.9908392 0.0954928 -0.0954928 0.9908392 1.0 0.0 0.0 1.0 0.0 0.0 0.1304458 -0.0349525 0.9908391 0.1304458 -0.0349525 0.9908391 0.1304458 -0.0349525 0.9908391 1.0 0.0 0.0 1.0 0.0 0.0 0.1304458 0.0349525 0.9908391 0.1304458 0.0349525 0.9908391 0.1304458 0.0349525 0.9908391 1.0 0.0 0.0 1.0 0.0 0.0 0.0954928 0.0954928 0.9908392 0.0954928 0.0954928 0.9908392 0.0954928 0.0954928 0.9908392 1.0 0.0 0.0 1.0 0.0 0.0 0.0349525 0.1304458 0.9908391 0.0349525 0.1304458 0.9908391 0.0349525 0.1304458 0.9908391 1.0 0.0 0.0 1.0 0.0 0.0 -0.0349525 0.1304458 0.9908391 -0.0349525 0.1304458 0.9908391 -0.0349525 0.1304458 0.9908391 1.0 0.0 0.0 1.0 0.0 0.0 -0.0954928 0.0954928 0.9908392 -0.0954928 0.0954928 0.9908392 -0.0954928 0.0954928 0.9908392 1.0 0.0 0.0 1.0 0.0 0.0 -0.1304458 0.0349525 0.9908391 -0.1304458 0.0349525 0.9908391 -0.1304458 0.0349525 0.9908391 1.0 0.0 0.0 1.0 0.0 0.0 1.0 0.0 0.0 1.0 0.0 0.0 -0.1304456 -0.0349525 -0.9908391 -0.1304456 -0.0349525 -0.9908391 -0.1304456 -0.0349525 -0.9908391 1.0 0.0 0.0 1.0 0.0 0.0 -0.0954927 -0.0954927 -0.9908392 -0.0954927 -0.0954927 -0.9908392 -0.0954927 -0.0954927 -0.9908392 1.0 0.0 0.0 1.0 0.0 0.0 -0.0349525 -0.1304456 -0.9908391 -0.0349525 -0.1304456 -0.9908391 -0.0349525 -0.1304456 -0.9908391 1.0 0.0 0.0 1.0 0.0 0.0 0.0349525 -0.1304456 -0.9908391 0.0349525 -0.1304456 -0.9908391 0.0349525 -0.1304456 -0.9908391 1.0 0.0 0.0 1.0 0.0 0.0 0.0954927 -0.0954927 -0.9908392 0.0954927 -0.0954927 -0.9908392 0.0954927 -0.0954927 -0.9908392 1.0 0.0 0.0 1.0 0.0 0.0 0.1304456 -0.0349525 -0.9908391 0.1304456 -0.0349525 -0.9908391 0.1304456 -0.0349525 -0.9908391 1.0 0.0 0.0 1.0 0.0 0.0 0.1304456 0.0349525 -0.9908391 0.1304456 0.0349525 -0.9908391 0.1304456 0.0349525 -0.9908391 1.0 0.0 0.0 1.0 0.0 0.0 0.0954927 0.0954927 -0.9908392 0.0954927 0.0954927 -0.9908392 0.0954927 0.0954927 -0.9908392 1.0 0.0 0.0 1.0 0.0 0.0 0.0349525 0.1304456 -0.9908391 0.0349525 0.1304456 -0.9908391 0.0349525 0.1304456 -0.9908391 1.0 0.0 0.0 1.0 0.0 0.0 -0.0349525 0.1304456 -0.9908391 -0.0349525 0.1304456 -0.9908391 -0.0349525 0.1304456 -0.9908391 1.0 0.0 0.0 1.0 0.0 0.0 -0.0954927 0.0954927 -0.9908392 -0.0954927 0.0954927 -0.9908392 -0.0954927 0.0954927 -0.9908392 1.0 0.0 0.0 1.0 0.0 0.0 -0.1304456 0.0349525 -0.9908391 -0.1304456 0.0349525 -0.9908391 -0.1304456 0.0349525 -0.9908391 -0.3806893 -0.1020045 -0.9190597 -0.3806893 -0.1020045 -0.9190597 -0.3806893 -0.1020045 -0.9190597 -0.3806889 -0.1020048 -0.9190599 -0.3806889 -0.1020048 -0.9190599 -0.3806889 -0.1020048 -0.9190599 -0.2786838 -0.2786838 -0.9190596 -0.2786838 -0.2786838 -0.9190596 -0.2786838 -0.2786838 -0.9190596 -0.2786838 -0.2786838 -0.9190596 -0.2786838 -0.2786838 -0.9190596 -0.2786838 -0.2786838 -0.9190596 -0.1020044 -0.3806888 -0.9190599 -0.1020044 -0.3806888 -0.9190599 -0.1020044 -0.3806888 -0.9190599 -0.1020048 -0.380689 -0.9190598 -0.1020048 -0.380689 -0.9190598 -0.1020048 -0.380689 -0.9190598 0.1020045 -0.3806893 -0.9190597 0.1020045 -0.3806893 -0.9190597 0.1020045 -0.3806893 -0.9190597 0.1020048 -0.3806889 -0.9190599 0.1020048 -0.3806889 -0.9190599 0.1020048 -0.3806889 -0.9190599 0.2786838 -0.2786838 -0.9190596 0.2786838 -0.2786838 -0.9190596 0.2786838 -0.2786838 -0.9190596 0.2786838 -0.2786838 -0.9190596 0.2786838 -0.2786838 -0.9190596 0.2786838 -0.2786838 -0.9190596 0.3806888 -0.1020044 -0.9190599 0.3806888 -0.1020044 -0.9190599 0.3806888 -0.1020044 -0.9190599 0.380689 -0.1020048 -0.9190598 0.380689 -0.1020048 -0.9190598 0.380689 -0.1020048 -0.9190598 0.3806893 0.1020045 -0.9190597 0.3806893 0.1020045 -0.9190597 0.3806893 0.1020045 -0.9190597 0.3806889 0.1020048 -0.9190599 0.3806889 0.1020048 -0.9190599 0.3806889 0.1020048 -0.9190599 0.2786838 0.2786838 -0.9190596 0.2786838 0.2786838 -0.9190596 0.2786838 0.2786838 -0.9190596 0.2786838 0.2786838 -0.9190596 0.2786838 0.2786838 -0.9190596 0.2786838 0.2786838 -0.9190596 0.1020044 0.3806888 -0.9190599 0.1020044 0.3806888 -0.9190599 0.1020044 0.3806888 -0.9190599 0.1020048 0.380689 -0.9190598 0.1020048 0.380689 -0.9190598 0.1020048 0.380689 -0.9190598 -0.1020045 0.3806893 -0.9190597 -0.1020045 0.3806893 -0.9190597 -0.1020045 0.3806893 -0.9190597 -0.1020048 0.3806889 -0.9190599 -0.1020048 0.3806889 -0.9190599 -0.1020048 0.3806889 -0.9190599 -0.2786838 0.2786838 -0.9190596 -0.2786838 0.2786838 -0.9190596 -0.2786838 0.2786838 -0.9190596 -0.2786838 0.2786838 -0.9190596 -0.2786838 0.2786838 -0.9190596 -0.2786838 0.2786838 -0.9190596 -0.3806888 0.1020044 -0.9190599 -0.3806888 0.1020044 -0.9190599 -0.3806888 0.1020044 -0.9190599 -0.380689 0.1020048 -0.9190598 -0.380689 0.1020048 -0.9190598 -0.380689 0.1020048 -0.9190598 -0.6008235 -0.1609894 -0.7830029 -0.6008235 -0.1609894 -0.7830029 -0.6008235 -0.1609894 -0.7830029 -0.6008213 -0.1609908 -0.7830043 -0.6008213 -0.1609908 -0.7830043 -0.6008213 -0.1609908 -0.7830043 -0.4398332 -0.4398332 -0.7830029 -0.4398332 -0.4398332 -0.7830029 -0.4398332 -0.4398332 -0.7830029 -0.4398331 -0.4398331 -0.783003 -0.4398331 -0.4398331 -0.783003 -0.4398331 -0.4398331 -0.783003 -0.1609889 -0.6008215 -0.7830046 -0.1609889 -0.6008215 -0.7830046 -0.1609889 -0.6008215 -0.7830046 -0.1609913 -0.6008228 -0.7830032 -0.1609913 -0.6008228 -0.7830032 -0.1609913 -0.6008228 -0.7830032 0.1609894 -0.6008235 -0.7830029 0.1609894 -0.6008235 -0.7830029 0.1609894 -0.6008235 -0.7830029 0.1609908 -0.6008213 -0.7830043 0.1609908 -0.6008213 -0.7830043 0.1609908 -0.6008213 -0.7830043 0.4398332 -0.4398332 -0.7830029 0.4398332 -0.4398332 -0.7830029 0.4398332 -0.4398332 -0.7830029 0.4398331 -0.4398331 -0.783003 0.4398331 -0.4398331 -0.783003 0.4398331 -0.4398331 -0.783003 0.6008215 -0.1609889 -0.7830046 0.6008215 -0.1609889 -0.7830046 0.6008215 -0.1609889 -0.7830046 0.6008228 -0.1609913 -0.7830032 0.6008228 -0.1609913 -0.7830032 0.6008228 -0.1609913 -0.7830032 0.6008235 0.1609894 -0.7830029 0.6008235 0.1609894 -0.7830029 0.6008235 0.1609894 -0.7830029 0.6008213 0.1609908 -0.7830043 0.6008213 0.1609908 -0.7830043 0.6008213 0.1609908 -0.7830043 0.4398332 0.4398332 -0.7830029 0.4398332 0.4398332 -0.7830029 0.4398332 0.4398332 -0.7830029 0.4398331 0.4398331 -0.783003 0.4398331 0.4398331 -0.783003 0.4398331 0.4398331 -0.783003 0.1609889 0.6008215 -0.7830046 0.1609889 0.6008215 -0.7830046 0.1609889 0.6008215 -0.7830046 0.1609913 0.6008228 -0.7830032 0.1609913 0.6008228 -0.7830032 0.1609913 0.6008228 -0.7830032 -0.1609894 0.6008235 -0.7830029 -0.1609894 0.6008235 -0.7830029 -0.1609894 0.6008235 -0.7830029 -0.1609908 0.6008213 -0.7830043 -0.1609908 0.6008213 -0.7830043 -0.1609908 0.6008213 -0.7830043 -0.4398332 0.4398332 -0.7830029 -0.4398332 0.4398332 -0.7830029 -0.4398332 0.4398332 -0.7830029 -0.4398331 0.4398331 -0.783003 -0.4398331 0.4398331 -0.783003 -0.4398331 0.4398331 -0.783003 -0.6008215 0.1609889 -0.7830046 -0.6008215 0.1609889 -0.7830046 -0.6008215 0.1609889 -0.7830046 -0.6008228 0.1609913 -0.7830032 -0.6008228 0.1609913 -0.7830032 -0.6008228 0.1609913 -0.7830032 -0.7760106 -0.2079331 -0.595459 -0.7760106 -0.2079331 -0.595459 -0.7760106 -0.2079331 -0.595459 -0.7760134 -0.2079313 -0.5954559 -0.7760134 -0.2079313 -0.5954559 -0.7760134 -0.2079313 -0.5954559 -0.5680794 -0.5680794 -0.5954592 -0.5680794 -0.5680794 -0.5954592 -0.5680794 -0.5680794 -0.5954592 -0.5680794 -0.5680794 -0.5954593 -0.5680794 -0.5680794 -0.5954593 -0.5680794 -0.5680794 -0.5954593 -0.2079337 -0.776013 -0.5954556 -0.2079337 -0.776013 -0.5954556 -0.2079337 -0.776013 -0.5954556 -0.2079308 -0.7760115 -0.5954587 -0.2079308 -0.7760115 -0.5954587 -0.2079308 -0.7760115 -0.5954587 0.2079331 -0.7760106 -0.595459 0.2079331 -0.7760106 -0.595459 0.2079331 -0.7760106 -0.595459 0.2079313 -0.7760134 -0.5954559 0.2079313 -0.7760134 -0.5954559 0.2079313 -0.7760134 -0.5954559 0.5680794 -0.5680794 -0.5954592 0.5680794 -0.5680794 -0.5954592 0.5680794 -0.5680794 -0.5954592 0.5680794 -0.5680794 -0.5954593 0.5680794 -0.5680794 -0.5954593 0.5680794 -0.5680794 -0.5954593 0.776013 -0.2079337 -0.5954556 0.776013 -0.2079337 -0.5954556 0.776013 -0.2079337 -0.5954556 0.7760115 -0.2079308 -0.5954587 0.7760115 -0.2079308 -0.5954587 0.7760115 -0.2079308 -0.5954587 0.7760106 0.2079331 -0.595459 0.7760106 0.2079331 -0.595459 0.7760106 0.2079331 -0.595459 0.7760134 0.2079313 -0.5954559 0.7760134 0.2079313 -0.5954559 0.7760134 0.2079313 -0.5954559 0.5680794 0.5680794 -0.5954592 0.5680794 0.5680794 -0.5954592 0.5680794 0.5680794 -0.5954592 0.5680794 0.5680794 -0.5954593 0.5680794 0.5680794 -0.5954593 0.5680794 0.5680794 -0.5954593 0.2079337 0.776013 -0.5954556 0.2079337 0.776013 -0.5954556 0.2079337 0.776013 -0.5954556 0.2079308 0.7760115 -0.5954587 0.2079308 0.7760115 -0.5954587 0.2079308 0.7760115 -0.5954587 -0.2079331 0.7760106 -0.595459 -0.2079331 0.7760106 -0.595459 -0.2079331 0.7760106 -0.595459 -0.2079313 0.7760134 -0.5954559 -0.2079313 0.7760134 -0.5954559 -0.2079313 0.7760134 -0.5954559 -0.5680794 0.5680794 -0.5954592 -0.5680794 0.5680794 -0.5954592 -0.5680794 0.5680794 -0.5954592 -0.5680794 0.5680794 -0.5954593 -0.5680794 0.5680794 -0.5954593 -0.5680794 0.5680794 -0.5954593 -0.776013 0.2079337 -0.5954556 -0.776013 0.2079337 -0.5954556 -0.776013 0.2079337 -0.5954556 -0.7760115 0.2079308 -0.5954587 -0.7760115 0.2079308 -0.5954587 -0.7760115 0.2079308 -0.5954587 -0.8968096 -0.2402984 -0.371469 -0.8968096 -0.2402984 -0.371469 -0.8968096 -0.2402984 -0.371469 -0.8968079 -0.2402998 -0.3714721 -0.8968079 -0.2402998 -0.3714721 -0.8968079 -0.2402998 -0.3714721 -0.65651 -0.65651 -0.3714691 -0.65651 -0.65651 -0.3714691 -0.65651 -0.65651 -0.3714691 -0.65651 -0.65651 -0.371469 -0.65651 -0.65651 -0.371469 -0.65651 -0.65651 -0.371469 -0.2402981 -0.8968083 -0.3714723 -0.2402981 -0.8968083 -0.3714723 -0.2402981 -0.8968083 -0.3714723 -0.2403001 -0.8968091 -0.3714691 -0.2403001 -0.8968091 -0.3714691 -0.2403001 -0.8968091 -0.3714691 0.2402984 -0.8968096 -0.371469 0.2402984 -0.8968096 -0.371469 0.2402984 -0.8968096 -0.371469 0.2402998 -0.8968079 -0.3714721 0.2402998 -0.8968079 -0.3714721 0.2402998 -0.8968079 -0.3714721 0.65651 -0.65651 -0.3714691 0.65651 -0.65651 -0.3714691 0.65651 -0.65651 -0.3714691 0.65651 -0.65651 -0.371469 0.65651 -0.65651 -0.371469 0.65651 -0.65651 -0.371469 0.8968083 -0.2402981 -0.3714723 0.8968083 -0.2402981 -0.3714723 0.8968083 -0.2402981 -0.3714723 0.8968091 -0.2403001 -0.3714691 0.8968091 -0.2403001 -0.3714691 0.8968091 -0.2403001 -0.3714691 0.8968096 0.2402984 -0.371469 0.8968096 0.2402984 -0.371469 0.8968096 0.2402984 -0.371469 0.8968079 0.2402998 -0.3714721 0.8968079 0.2402998 -0.3714721 0.8968079 0.2402998 -0.3714721 0.65651 0.65651 -0.3714691 0.65651 0.65651 -0.3714691 0.65651 0.65651 -0.3714691 0.65651 0.65651 -0.371469 0.65651 0.65651 -0.371469 0.65651 0.65651 -0.371469 0.2402981 0.8968083 -0.3714723 0.2402981 0.8968083 -0.3714723 0.2402981 0.8968083 -0.3714723 0.2403001 0.8968091 -0.3714691 0.2403001 0.8968091 -0.3714691 0.2403001 0.8968091 -0.3714691 -0.2402984 0.8968096 -0.371469 -0.2402984 0.8968096 -0.371469 -0.2402984 0.8968096 -0.371469 -0.2402998 0.8968079 -0.3714721 -0.2402998 0.8968079 -0.3714721 -0.2402998 0.8968079 -0.3714721 -0.65651 0.65651 -0.3714691 -0.65651 0.65651 -0.3714691 -0.65651 0.65651 -0.3714691 -0.65651 0.65651 -0.371469 -0.65651 0.65651 -0.371469 -0.65651 0.65651 -0.371469 -0.8968083 0.2402981 -0.3714723 -0.8968083 0.2402981 -0.3714723 -0.8968083 0.2402981 -0.3714723 -0.8968091 0.2403001 -0.3714691 -0.8968091 0.2403001 -0.3714691 -0.8968091 0.2403001 -0.3714691 -0.958209 -0.2567523 -0.1261503 -0.958209 -0.2567523 -0.1261503 -0.958209 -0.2567523 -0.1261503 -0.958209 -0.2567521 -0.1261498 -0.958209 -0.2567521 -0.1261498 -0.958209 -0.2567521 -0.1261498 -0.7014578 -0.7014578 -0.1261501 -0.7014578 -0.7014578 -0.1261501 -0.7014578 -0.7014578 -0.1261501 -0.7014578 -0.7014578 -0.1261501 -0.7014578 -0.7014578 -0.1261501 -0.7014578 -0.7014578 -0.1261501 -0.2567523 -0.958209 -0.1261498 -0.2567523 -0.958209 -0.1261498 -0.2567523 -0.958209 -0.1261498 -0.2567521 -0.958209 -0.1261503 -0.2567521 -0.958209 -0.1261503 -0.2567521 -0.958209 -0.1261503 0.2567523 -0.958209 -0.1261503 0.2567523 -0.958209 -0.1261503 0.2567523 -0.958209 -0.1261503 0.2567521 -0.958209 -0.1261498 0.2567521 -0.958209 -0.1261498 0.2567521 -0.958209 -0.1261498 0.7014578 -0.7014578 -0.1261501 0.7014578 -0.7014578 -0.1261501 0.7014578 -0.7014578 -0.1261501 0.7014578 -0.7014578 -0.1261501 0.7014578 -0.7014578 -0.1261501 0.7014578 -0.7014578 -0.1261501 0.958209 -0.2567523 -0.1261498 0.958209 -0.2567523 -0.1261498 0.958209 -0.2567523 -0.1261498 0.958209 -0.2567521 -0.1261503 0.958209 -0.2567521 -0.1261503 0.958209 -0.2567521 -0.1261503 0.958209 0.2567523 -0.1261503 0.958209 0.2567523 -0.1261503 0.958209 0.2567523 -0.1261503 0.958209 0.2567521 -0.1261498 0.958209 0.2567521 -0.1261498 0.958209 0.2567521 -0.1261498 0.7014578 0.7014578 -0.1261501 0.7014578 0.7014578 -0.1261501 0.7014578 0.7014578 -0.1261501 0.7014578 0.7014578 -0.1261501 0.7014578 0.7014578 -0.1261501 0.7014578 0.7014578 -0.1261501 0.2567523 0.958209 -0.1261498 0.2567523 0.958209 -0.1261498 0.2567523 0.958209 -0.1261498 0.2567521 0.958209 -0.1261503 0.2567521 0.958209 -0.1261503 0.2567521 0.958209 -0.1261503 -0.2567523 0.958209 -0.1261503 -0.2567523 0.958209 -0.1261503 -0.2567523 0.958209 -0.1261503 -0.2567521 0.958209 -0.1261498 -0.2567521 0.958209 -0.1261498 -0.2567521 0.958209 -0.1261498 -0.7014578 0.7014578 -0.1261501 -0.7014578 0.7014578 -0.1261501 -0.7014578 0.7014578 -0.1261501 -0.7014578 0.7014578 -0.1261501 -0.7014578 0.7014578 -0.1261501 -0.7014578 0.7014578 -0.1261501</float_array>
                    <technique_common>
                        <accessor count="840" source="#geometry0-normal-array" stride="3">
                            <param name="X" type="float"/>
                            <param name="Y" type="float"/>
                            <param name="Z" type="float"/>
                        </accessor>
                    </technique_common>
                </source>
                <vertices id="geometry0-vertex">
                    <input semantic="POSITION" source="#geometry0-position"/>
                </vertices>
                <triangles count="288" material="default_ai_0.2_sh_0.2_tr_0.0_dc_r_0.8_g_0.8_b_0.8_sc_r_1.0_g_1.0_b_1.0_ec_r_0.0_g_0.0_b_0_tri">
                    <input offset="0" semantic="VERTEX" source="#geometry0-vertex"/>
                    <input offset="1" semantic="NORMAL" source="#geometry0-normal"/>
                    <p>60 0 50 1 62 2 60 3 62 4 72 5 62 6 61 7 73 8 62 9 73 10 74 11 61 12 63 13 75 14 61 15 75 16 73 17 63 18 64 19 76 20 63 21 76 22 75 23 64 24 65 25 77 26 64 27 77 28 76 29 65 30 66 31 78 32 65 33 78 34 77 35 66 36 67 37 79 38 66 39 79 40 78 41 67 42 68 43 80 44 67 45 80 46 79 47 68 48 69 49 81 50 68 51 81 52 80 53 69 54 70 55 82 56 69 57 82 58 81 59 70 60 71 61 83 62 70 63 83 64 82 65 71 66 72 67 84 68 71 69 84 70 83 71 72 72 62 73 74 74 72 75 74 76 84 77 74 78 73 79 85 80 74 81 85 82 86 83 73 84 75 85 87 86 73 87 87 88 85 89 75 90 76 91 88 92 75 93 88 94 87 95 76 96 77 97 89 98 76 99 89 100 88 101 77 102 78 103 90 104 77 105 90 106 89 107 78 108 79 109 91 110 78 111 91 112 90 113 79 114 80 115 92 116 79 117 92 118 91 119 80 120 81 121 93 122 80 123 93 124 92 125 81 126 82 127 94 128 81 129 94 130 93 131 82 132 83 133 95 134 82 135 95 136 94 137 83 138 84 139 96 140 83 141 96 142 95 143 84 144 74 145 86 146 84 147 86 148 96 149 86 150 85 151 97 152 86 153 97 154 98 155 85 156 87 157 99 158 85 159 99 160 97 161 87 162 88 163 100 164 87 165 100 166 99 167 88 168 89 169 101 170 88 171 101 172 100 173 89 174 90 175 102 176 89 177 102 178 101 179 90 180 91 181 103 182 90 183 103 184 102 185 91 186 92 187 104 188 91 189 104 190 103 191 92 192 93 193 105 194 92 195 105 196 104 197 93 198 94 199 106 200 93 201 106 202 105 203 94 204 95 205 107 206 94 207 107 208 106 209 95 210 96 211 108 212 95 213 108 214 107 215 96 216 86 217 98 218 96 219 98 220 108 221 98 222 97 223 109 224 98 225 109 226 110 227 97 228 99 229 111 230 97 231 111 232 109 233 99 234 100 235 112 236 99 237 112 238 111 239 100 240 101 241 113 242 100 243 113 244 112 245 101 246 102 247 114 248 101 249 114 250 113 251 102 252 103 253 115 254 102 255 115 256 114 257 103 258 104 259 116 260 103 261 116 262 115 263 104 264 105 265 117 266 104 267 117 268 116 269 105 270 106 271 118 272 105 273 118 274 117 275 106 276 107 277 119 278 106 279 119 280 118 281 107 282 108 283 120 284 107 285 120 286 119 287 108 288 98 289 110 290 108 291 110 292 120 293 110 294 109 295 121 296 110 297 121 298 122 299 109 300 111 301 123 302 109 303 123 304 121 305 111 306 112 307 124 308 111 309 124 310 123 311 112 312 113 313 125 314 112 315 125 316 124 317 113 318 114 319 126 320 113 321 126 322 125 323 114 324 115 325 127 326 114 327 127 328 126 329 115 330 116 331 128 332 115 333 128 334 127 335 116 336 117 337 129 338 116 339 129 340 128 341 117 342 118 343 130 344 117 345 130 346 129 347 118 348 119 349 131 350 118 351 131 352 130 353 119 354 120 355 132 356 119 357 132 358 131 359 120 360 110 361 122 362 120 363 122 364 132 365 122 366 121 367 133 368 122 369 133 370 133 370 121 371 123 372 133 373 121 374 133 375 133 375 123 376 124 377 133 378 123 379 133 380 133 380 124 381 125 382 133 383 124 384 133 385 133 385 125 386 126 387 133 388 125 389 133 390 133 390 126 391 127 392 133 393 126 394 133 395 133 395 127 396 128 397 133 398 127 399 133 400 133 400 128 401 129 402 133 403 128 404 133 405 133 405 129 406 130 407 133 408 129 409 133 410 133 410 130 411 131 412 133 413 130 414 133 415 133 415 131 416 132 417 133 418 131 419 133 420 133 420 132 421 122 422 133 423 132 424 133 425 133 425 0 426 0 426 1 427 0 428 1 429 2 430 0 431 0 431 3 432 0 433 3 434 1 435 0 436 0 436 4 437 0 438 4 439 3 440 0 441 0 441 5 442 0 443 5 444 4 445 0 446 0 446 6 447 0 448 6 449 5 450 0 451 0 451 7 452 0 453 7 454 6 455 0 456 0 456 8 457 0 458 8 459 7 460 0 461 0 461 9 462 0 463 9 464 8 465 0 466 0 466 10 467 0 468 10 469 9 470 0 471 0 471 11 472 0 473 11 474 10 475 0 476 0 476 12 477 0 478 12 479 11 480 0 481 0 481 2 482 0 483 2 484 12 485 2 486 1 487 13 488 2 489 13 490 14 491 1 492 3 493 15 494 1 495 15 496 13 497 3 498 4 499 16 500 3 501 16 502 15 503 4 504 5 505 17 506 4 507 17 508 16 509 5 510 6 511 18 512 5 513 18 514 17 515 6 516 7 517 19 518 6 519 19 520 18 521 7 522 8 523 20 524 7 525 20 526 19 527 8 528 9 529 21 530 8 531 21 532 20 533 9 534 10 535 22 536 9 537 22 538 21 539 10 540 11 541 23 542 10 543 23 544 22 545 11 546 12 547 24 548 11 549 24 550 23 551 12 552 2 553 14 554 12 555 14 556 24 557 14 558 13 559 25 560 14 561 25 562 26 563 13 564 15 565 27 566 13 567 27 568 25 569 15 570 16 571 28 572 15 573 28 574 27 575 16 576 17 577 29 578 16 579 29 580 28 581 17 582 18 583 30 584 17 585 30 586 29 587 18 588 19 589 31 590 18 591 31 592 30 593 19 594 20 595 32 596 19 597 32 598 31 599 20 600 21 601 33 602 20 603 33 604 32 605 21 606 22 607 34 608 21 609 34 610 33 611 22 612 23 613 35 614 22 615 35 616 34 617 23 618 24 619 36 620 23 621 36 622 35 623 24 624 14 625 26 626 24 627 26 628 36 629 26 630 25 631 37 632 26 633 37 634 38 635 25 636 27 637 39 638 25 639 39 640 37 641 27 642 28 643 40 644 27 645 40 646 39 647 28 648 29 649 41 650 28 651 41 652 40 653 29 654 30 655 42 656 29 657 42 658 41 659 30 660 31 661 43 662 30 663 43 664 42 665 31 666 32 667 44 668 31 669 44 670 43 671 32 672 33 673 45 674 32 675 45 676 44 677 33 678 34 679 46 680 33 681 46 682 45 683 34 684 35 685 47 686 34 687 47 688 46 689 35 690 36 691 48 692 35 693 48 694 47 695 36 696 26 697 38 698 36 699 38 700 48 701 38 702 37 703 49 704 38 705 49 706 50 707 37 708 39 709 51 710 37 711 51 712 49 713 39 714 40 715 52 716 39 717 52 718 51 719 40 720 41 721 53 722 40 723 53 724 52 725 41 726 42 727 54 728 41 729 54 730 53 731 42 732 43 733 55 734 42 735 55 736 54 737 43 738 44 739 56 740 43 741 56 742 55 743 44 744 45 745 57 746 44 747 57 748 56 749 45 750 46 751 58 752 45 753 58 754 57 755 46 756 47 757 59 758 46 759 59 760 58 761 47 762 48 763 60 764 47 765 60 766 59 767 48 768 38 769 50 770 48 771 50 772 60 773 50 774 49 775 61 776 50 777 61 778 62 779 49 780 51 781 63 782 49 783 63 784 61 785 51 786 52 787 64 788 51 789 64 790 63 791 52 792 53 793 65 794 52 795 65 796 64 797 53 798 54 799 66 800 53 801 66 802 65 803 54 804 55 805 67 806 54 807 67 808 66 809 55 810 56 811 68 812 55 813 68 814 67 815 56 816 57 817 69 818 56 819 69 820 68 821 57 822 58 823 70 824 57 825 70 826 69 827 58 828 59 829 71 830 58 831 71 832 70 833 59 834 60 835 72 836 59 837 72 838 71 839</p>
                </triangles>
            </mesh>
        </geometry>
    </library_geometries>
    <library_visual_scenes>
        <visual_scene id="Building_17_CROWN1">
            <node>
                <instance_geometry url="#geometry0">
                    <bind_material>
                        <technique_common>
                            <instance_material symbol="default_ai_0.2_sh_0.2_tr_0.0_dc_r_0.8_g_0.8_b_0.8_sc_r_1.0_g_1.0_b_1.0_ec_r_0.0_g_0.0_b_0_tri" target="#default_ai_0.2_sh_0.2_tr_0.0_dc_r_0.8_g_0.8_b_0.8_sc_r_1.0_g_1.0_b_1.0_ec_r_0.0_g_0.0_b_0_mat"/>
                        </technique_common>
                    </bind_material>
                </instance_geometry>
            </node>
        </visual_scene>
    </library_visual_scenes>
    <scene>
        <instance_visual_scene url="#Building_17_CROWN1"/>
    </scene>
</COLLADA>
