<?xml version="1.0" encoding="UTF-8" standalone="yes"?>
<COLLADA xmlns="http://www.collada.org/2005/11/COLLADASchema" version="1.4.1">
    <asset>
        <contributor>
            <authoring_tool>3D City Database Importer/Exporter, version 5.5.3; Chair of Geoinformatics, Technical University of Munich</authoring_tool>
        </contributor>
        <created>2026-09-25T14:44:55.486</created>
        <modified>2026-09-25T14:44:55.486</modified>
        <unit meter="1.0" name="meters"/>
        <up_axis>Z_UP</up_axis>
    </asset>
    <library_materials>
        <material id="default_ai_0.2_sh_0.2_tr_0.0_dc_r_0.8_g_0.8_b_0.8_sc_r_1.0_g_1.0_b_1.0_ec_r_0.0_g_0.0_b_0_mat">
            <instance_effect url="#default_ai_0.2_sh_0.2_tr_0.0_dc_r_0.8_g_0.8_b_0.8_sc_r_1.0_g_1.0_b_1.0_ec_r_0.0_g_0.0_b_0_eff"/>
        </material>
    </library_materials>
    <library_effects>
        <effect id="default_ai_0.2_sh_0.2_tr_0.0_dc_r_0.8_g_0.8_b_0.8_sc_r_1.0_g_1.0_b_1.0_ec_r_0.0_g_0.0_b_0_eff">
            <profile_COMMON>
                <technique sid="COMMON">
                    <lambert>
                        <emission>
                            <color>0.0 0.0 0.0 1.0</color>
                        </emission>
                        <diffuse>
                            <color>0.8 0.8 0.8 1.0</color>
                        </diffuse>
                        <reflective>
                            <color>1.0 1.0 1.0 1.0</color>
                        </reflective>
                        <reflectivity>
                            <float>0.2</float>
                        </reflectivity>
                        <transparent opaque="A_ONE">
                            <color>1.0 1.0 1.0 1.0</color>
                        </transparent>
                        <transparency>
                            <float>1.0</float>
                        </transparency>
                    </lambert>
                </technique>
                <extra>
                    <technique profile="GOOGLEEARTH">
                        <double_sided>0</double_sided>
                    </technique>
                </extra>
            </profile_COMMON>
        </effect>
    </library_effects>
    <library_geometries>
        <geometry id="geometry0">
            <mesh>
                <source id="geometry0-position">
                    <float_array id="geometry0-position-array" count="402">0.0 0.0 2.2 0.2465584 0.142351 2.1625186 0.2847009 0.0 2.1625186 0.142351 0.2465584 2.1625186 0.0 0.2847009 2.1625186 -0.142351 0.2465584 2.1625186 -0.2465584 0.142351 2.1625186 -0.2847009 0.0 2.1625186 -0.2465584 -0.142351 2.1625186 -0.142351 -0.2465584 2.1625186 0.0 -0.2847009 2.1625186 0.142351 -0.2465584 2.1625186 0.2465584 -0.142351 2.1625186 0.4763143 0.275 2.0526275 0.55 0.0 2.0526275 0.275 0.4763143 2.0526275 0.0 0.55 2.0526275 -0.275 0.4763143 2.0526275 -0.4763143 0.275 2.0526275 -0.55 0.0 2.0526275 -0.4763143 -0.275 2.0526275 -0.275 -0.4763143 2.0526275 0.0 -0.55 2.0526275 0.275 -0.4763143 2.0526275 0.4763143 -0.275 2.0526275 0.6736092 0.3889083 1.8778177 0.7778177 0.0 1.8778177 0.3889083 0.6736092 1.8778177 0.0 0.7778177 1.8778177 -0.3889083 0.6736092 1.8778177 -0.6736092 0.3889083 1.8778177 -0.7778177 0.0 1.8778177 -0.6736092 -0.3889083 1.8778177 -0.3889083 -0.6736092 1.8778177 0.0 -0.7778177 1.8778177 0.3889083 -0.6736092 1.8778177 0.6736092 -0.3889083 1.8778177 0.825 0.4763143 1.65 0.9526275 0.0 1.65 0.4763143 0.825 1.65 0.0 0.9526275 1.65 -0.4763143 0.825 1.65 -0.825 0.4763143 1.65 -0.9526275 0.0 1.65 -0.825 -0.4763143 1.65 -0.4763143 -0.825 1.65 0.0 -0.9526275 1.65 0.4763143 -0.825 1.65 0.825 -0.4763143 1.65 0.9201676 0.5312593 1.3847009 1.0625186 0.0 1.3847009 0.5312593 0.9201676 1.3847009 0.0 1.0625186 1.3847009 -0.5312593 0.9201676 1.3847009 -0.9201676 0.5312593 1.3847009 -1.0625186 0.0 1.3847009 -0.9201676 -0.5312593 1.3847009 -0.5312593 -0.9201676 1.3847009 0.0 -1.0625186 1.3847009 0.5312593 -0.9201676 1.3847009 0.9201676 -0.5312593 1.3847009 0.9526275 0.55 1.1 1.1 0.0 1.1 0.55 0.9526275 1.1 0.0 1.1 1.1 -0.55 0.9526275 1.1 -0.9526275 0.55 1.1 -1.1 0.0 1.1 -0.9526275 -0.55 1.1 -0.55 -0.9526275 1.1 0.0 -1.1 1.1 0.55 -0.9526275 1.1 0.9526275 -0.55 1.1 0.9201676 0.5312593 0.8152991 1.0625186 0.0 0.8152991 0.5312593 0.9201676 0.8152991 0.0 1.0625186 0.8152991 -0.5312593 0.9201676 0.8152991 -0.9201676 0.5312593 0.8152991 -1.0625186 0.0 0.8152991 -0.9201676 -0.5312593 0.8152991 -0.5312593 -0.9201676 0.8152991 0.0 -1.0625186 0.8152991 0.5312593 -0.9201676 0.8152991 0.9201676 -0.5312593 0.8152991 0.825 0.4763143 0.55 0.9526275 0.0 0.55 0.4763143 0.825 0.55 0.0 0.9526275 0.55 -0.4763143 0.825 0.55 -0.825 0.4763143 0.55 -0.9526275 0.0 0.55 -0.825 -0.4763143 0.55 -0.4763143 -0.825 0.55 0.0 -0.9526275 0.55 0.4763143 -0.825 0.55 0.825 -0.4763143 0.55 0.6736092 0.3889083 0.3221823 0.7778177 0.0 0.3221823 0.3889083 0.6736092 0.3221823 0.0 0.7778177 0.3221823 -0.3889083 0.6736092 0.3221823 -0.6736092 0.3889083 0.3221823 -0.7778177 0.0 0.3221823 -0.6736092 -0.3889083 0.3221823 -0.3889083 -0.6736092 0.3221823 0.0 -0.7778177 0.3221823 0.3889083 -0.6736092 0.3221823 0.6736092 -0.3889083 0.3221823 0.4763143 0.275 0.1473725 0.55 0.0 0.1473725 0.275 0.4763143 0.1473725 0.0 0.55 0.1473725 -0.275 0.4763143 0.1473725 -0.4763143 0.275 0.1473725 -0.55 0.0 0.1473725 -0.4763143 -0.275 0.1473725 -0.275 -0.4763143 0.1473725 0.0 -0.55 0.1473725 0.275 -0.4763143 0.1473725 0.4763143 -0.275 0.1473725 0.2465584 0.142351 0.0374814 0.2847009 0.0 0.0374814 0.142351 0.2465584 0.0374814 0.0 0.2847009 0.0374814 -0.142351 0.2465584 0.0374814 -0.2465584 0.142351 0.0374814 -0.2847009 0.0 0.0374814 -0.2465584 -0.142351 0.0374814 -0.142351 -0.2465584 0.0374814 0.0 -0.2847009 0.0374814 0.142351 -0.2465584 0.0374814 0.2465584 -0.142351 0.0374814 0.0 0.0 0.0</float_array>
                    <technique_common>
                        <accessor count="134" source="#geometry0-position-array" stride="3">
                            <param name="X" type="float"/>
                            <param name="Y" type="float"/>
                            <param name="Z" type="float"/>
                        </accessor>
                    </technique_common>
                </source>
                <source id="geometry0-normal">
                    <float_array id="geometry0-normal-array" count="2520">0.2079335 -0.776012 -0.5954571 0.2079335 -0.776012 -0.5954571 0.2079335 -0.776012 -0.5954571 0.2079317 -0.7760149 -0.5954539 0.2079317 -0.7760149 -0.5954539 0.2079317 -0.7760149 -0.5954539 0.5680803 -0.5680803 -0.5954574 0.5680803 -0.5680803 -0.5954574 0.5680803 -0.5680803 -0.5954574 0.5680803 -0.5680803 -0.5954574 0.5680803 -0.5680803 -0.5954574 0.5680803 -0.5680803 -0.5954574 0.7760146 -0.2079342 -0.5954536 0.7760146 -0.2079342 -0.5954536 0.7760146 -0.2079342 -0.5954536 0.7760128 -0.2079311 -0.5954567 0.7760128 -0.2079311 -0.5954567 0.7760128 -0.2079311 -0.5954567 0.776012 0.2079335 -0.5954571 0.776012 0.2079335 -0.5954571 0.776012 0.2079335 -0.5954571 0.7760149 0.2079317 -0.5954539 0.7760149 0.2079317 -0.5954539 0.7760149 0.2079317 -0.5954539 0.5680803 0.5680803 -0.5954574 0.5680803 0.5680803 -0.5954574 0.5680803 0.5680803 -0.5954574 0.5680803 0.5680803 -0.5954574 0.5680803 0.5680803 -0.5954574 0.5680803 0.5680803 -0.5954574 0.2079342 0.7760146 -0.5954536 0.2079342 0.7760146 -0.5954536 0.2079342 0.7760146 -0.5954536 0.2079311 0.7760128 -0.5954567 0.2079311 0.7760128 -0.5954567 0.2079311 0.7760128 -0.5954567 -0.2079335 0.776012 -0.5954571 -0.2079335 0.776012 -0.5954571 -0.2079335 0.776012 -0.5954571 -0.2079317 0.7760149 -0.5954539 -0.2079317 0.7760149 -0.5954539 -0.2079317 0.7760149 -0.5954539 -0.5680803 0.5680803 -0.5954574 -0.5680803 0.5680803 -0.5954574 -0.5680803 0.5680803 -0.5954574 -0.5680803 0.5680803 -0.5954574 -0.5680803 0.5680803 -0.5954574 -0.5680803 0.5680803 -0.5954574 -0.7760146 0.2079342 -0.5954536 -0.7760146 0.2079342 -0.5954536 -0.7760146 0.2079342 -0.5954536 -0.7760128 0.2079311 -0.5954567 -0.7760128 0.2079311 -0.5954567 -0.7760128 0.2079311 -0.5954567 -0.8968095 -0.2402984 -0.3714692 -0.8968095 -0.2402984 -0.3714692 -0.8968095 -0.2402984 -0.3714692 -0.8968079 -0.2402997 -0.3714722 -0.8968079 -0.2402997 -0.3714722 -0.8968079 -0.2402997 -0.3714722 -0.6565099 -0.6565099 -0.3714692 -0.6565099 -0.6565099 -0.3714692 -0.6565099 -0.6565099 -0.3714692 -0.6565099 -0.6565099 -0.3714692 -0.6565099 -0.6565099 -0.3714692 -0.6565099 -0.6565099 -0.3714692 -0.2402981 -0.8968083 -0.3714723 -0.2402981 -0.8968083 -0.3714723 -0.2402981 -0.8968083 -0.3714723 -0.2403 -0.896809 -0.3714693 -0.2403 -0.896809 -0.3714693 -0.2403 -0.896809 -0.3714693 0.2402984 -0.8968095 -0.3714692 0.2402984 -0.8968095 -0.3714692 0.2402984 -0.8968095 -0.3714692 0.2402997 -0.8968079 -0.3714722 0.2402997 -0.8968079 -0.3714722 0.2402997 -0.8968079 -0.3714722 0.6565099 -0.6565099 -0.3714692 0.6565099 -0.6565099 -0.3714692 0.6565099 -0.6565099 -0.3714692 0.6565099 -0.6565099 -0.3714692 0.6565099 -0.6565099 -0.3714692 0.6565099 -0.6565099 -0.3714692 0.8968083 -0.2402981 -0.3714723 0.8968083 -0.2402981 -0.3714723 0.8968083 -0.2402981 -0.3714723 0.896809 -0.2403 -0.3714693 0.896809 -0.2403 -0.3714693 0.896809 -0.2403 -0.3714693 0.8968095 0.2402984 -0.3714692 0.8968095 0.2402984 -0.3714692 0.8968095 0.2402984 -0.3714692 0.8968079 0.2402997 -0.3714722 0.8968079 0.2402997 -0.3714722 0.8968079 0.2402997 -0.3714722 0.6565099 0.6565099 -0.3714692 0.6565099 0.6565099 -0.3714692 0.6565099 0.6565099 -0.3714692 0.6565099 0.6565099 -0.3714692 0.6565099 0.6565099 -0.3714692 0.6565099 0.6565099 -0.3714692 0.2402981 0.8968083 -0.3714723 0.2402981 0.8968083 -0.3714723 0.2402981 0.8968083 -0.3714723 0.2403 0.896809 -0.3714693 0.2403 0.896809 -0.3714693 0.2403 0.896809 -0.3714693 -0.2402984 0.8968095 -0.3714692 -0.2402984 0.8968095 -0.3714692 -0.2402984 0.8968095 -0.3714692 -0.2402997 0.8968079 -0.3714722 -0.2402997 0.8968079 -0.3714722 -0.2402997 0.8968079 -0.3714722 -0.6565099 0.6565099 -0.3714692 -0.6565099 0.6565099 -0.3714692 -0.6565099 0.6565099 -0.3714692 -0.6565099 0.6565099 -0.3714692 -0.6565099 0.6565099 -0.3714692 -0.6565099 0.6565099 -0.3714692 -0.8968083 0.2402981 -0.3714723 -0.8968083 0.2402981 -0.3714723 -0.8968083 0.2402981 -0.3714723 -0.896809 0.2403 -0.3714693 -0.896809 0.2403 -0.3714693 -0.896809 0.2403 -0.3714693 -0.958209 -0.2567522 -0.1261501 -0.958209 -0.2567522 -0.1261501 -0.958209 -0.2567522 -0.1261501 -0.958209 -0.2567522 -0.1261501 -0.958209 -0.2567522 -0.1261501 -0.958209 -0.2567522 -0.1261501 -0.7014578 -0.7014578 -0.1261501 -0.7014578 -0.7014578 -0.1261501 -0.7014578 -0.7014578 -0.1261501 -0.7014578 -0.7014578 -0.12615 -0.7014578 -0.7014578 -0.12615 -0.7014578 -0.7014578 -0.12615 -0.2567522 -0.958209 -0.1261501 -0.2567522 -0.958209 -0.1261501 -0.2567522 -0.958209 -0.1261501 -0.2567522 -0.958209 -0.1261501 -0.2567522 -0.958209 -0.1261501 -0.2567522 -0.958209 -0.1261501 0.2567522 -0.958209 -0.1261501 0.2567522 -0.958209 -0.1261501 0.2567522 -0.958209 -0.1261501 0.2567522 -0.958209 -0.1261501 0.2567522 -0.958209 -0.1261501 0.2567522 -0.958209 -0.1261501 0.7014578 -0.7014578 -0.1261501 0.7014578 -0.7014578 -0.1261501 0.7014578 -0.7014578 -0.1261501 0.7014578 -0.7014578 -0.12615 0.7014578 -0.7014578 -0.12615 0.7014578 -0.7014578 -0.12615 0.958209 -0.2567522 -0.1261501 0.958209 -0.2567522 -0.1261501 0.958209 -0.2567522 -0.1261501 0.958209 -0.2567522 -0.1261501 0.958209 -0.2567522 -0.1261501 0.958209 -0.2567522 -0.1261501 0.958209 0.2567522 -0.1261501 0.958209 0.2567522 -0.1261501 0.958209 0.2567522 -0.1261501 0.958209 0.2567522 -0.1261501 0.958209 0.2567522 -0.1261501 0.958209 0.2567522 -0.1261501 0.7014578 0.7014578 -0.1261501 0.7014578 0.7014578 -0.1261501 0.7014578 0.7014578 -0.1261501 0.7014578 0.7014578 -0.12615 0.7014578 0.7014578 -0.12615 0.7014578 0.7014578 -0.12615 0.2567522 0.958209 -0.1261501 0.2567522 0.958209 -0.1261501 0.2567522 0.958209 -0.1261501 0.2567522 0.958209 -0.1261501 0.2567522 0.958209 -0.1261501 0.2567522 0.958209 -0.1261501 -0.2567522 0.958209 -0.1261501 -0.2567522 0.958209 -0.1261501 -0.2567522 0.958209 -0.1261501 -0.2567522 0.958209 -0.1261501 -0.2567522 0.958209 -0.1261501 -0.2567522 0.958209 -0.1261501 -0.7014578 0.7014578 -0.1261501 -0.7014578 0.7014578 -0.1261501 -0.7014578 0.7014578 -0.1261501 -0.7014578 0.7014578 -0.12615 -0.7014578 0.7014578 -0.12615 -0.7014578 0.7014578 -0.12615 -0.958209 0.2567522 -0.1261501 -0.958209 0.2567522 -0.1261501 -0.958209 0.2567522 -0.1261501 -0.958209 0.2567522 -0.1261501 -0.958209 0.2567522 -0.1261501 -0.958209 0.2567522 -0.1261501 -0.958209 -0.2567522 0.1261501 -0.958209 -0.2567522 0.1261501 -0.958209 -0.2567522 0.1261501 -0.958209 -0.2567522 0.12615 -0.958209 -0.2567522 0.12615 -0.958209 -0.2567522 0.12615 -0.7014578 -0.7014578 0.1261501 -0.7014578 -0.7014578 0.1261501 -0.7014578 -0.7014578 0.1261501 -0.7014578 -0.7014578 0.1261501 -0.7014578 -0.7014578 0.1261501 -0.7014578 -0.7014578 0.1261501 -0.2567522 -0.958209 0.1261501 -0.2567522 -0.958209 0.1261501 -0.2567522 -0.958209 0.1261501 -0.2567522 -0.958209 0.12615 -0.2567522 -0.958209 0.12615 -0.2567522 -0.958209 0.12615 0.2567522 -0.958209 0.1261501 0.2567522 -0.958209 0.1261501 0.2567522 -0.958209 0.1261501 0.2567522 -0.958209 0.12615 0.2567522 -0.958209 0.12615 0.2567522 -0.958209 0.12615 0.7014578 -0.7014578 0.1261501 0.7014578 -0.7014578 0.1261501 0.7014578 -0.7014578 0.1261501 0.7014578 -0.7014578 0.1261501 0.7014578 -0.7014578 0.1261501 0.7014578 -0.7014578 0.1261501 0.958209 -0.2567522 0.1261501 0.958209 -0.2567522 0.1261501 0.958209 -0.2567522 0.1261501 0.958209 -0.2567522 0.12615 0.958209 -0.2567522 0.12615 0.958209 -0.2567522 0.12615 0.958209 0.2567522 0.1261501 0.958209 0.2567522 0.1261501 0.958209 0.2567522 0.1261501 0.958209 0.2567522 0.12615 0.958209 0.2567522 0.12615 0.958209 0.2567522 0.12615 0.7014578 0.7014578 0.1261501 0.7014578 0.7014578 0.1261501 0.7014578 0.7014578 0.1261501 0.7014578 0.7014578 0.1261501 0.7014578 0.7014578 0.1261501 0.7014578 0.7014578 0.1261501 0.2567522 0.958209 0.1261501 0.2567522 0.958209 0.1261501 0.2567522 0.958209 0.1261501 0.2567522 0.958209 0.12615 0.2567522 0.958209 0.12615 0.2567522 0.958209 0.12615 -0.2567522 0.958209 0.1261501 -0.2567522 0.958209 0.1261501 -0.2567522 0.958209 0.1261501 -0.2567522 0.958209 0.12615 -0.2567522 0.958209 0.12615 -0.2567522 0.958209 0.12615 -0.7014578 0.7014578 0.1261501 -0.7014578 0.7014578 0.1261501 -0.7014578 0.7014578 0.1261501 -0.7014578 0.7014578 0.1261501 -0.7014578 0.7014578 0.1261501 -0.7014578 0.7014578 0.1261501 -0.958209 0.2567522 0.1261501 -0.958209 0.2567522 0.1261501 -0.958209 0.2567522 0.1261501 -0.958209 0.2567522 0.12615 -0.958209 0.2567522 0.12615 -0.958209 0.2567522 0.12615 -0.896809 -0.2403 0.3714694 -0.896809 -0.2403 0.3714694 -0.896809 -0.2403 0.3714694 -0.8968083 -0.2402981 0.3714724 -0.8968083 -0.2402981 0.3714724 -0.8968083 -0.2402981 0.3714724 -0.6565099 -0.6565099 0.3714692 -0.6565099 -0.6565099 0.3714692 -0.6565099 -0.6565099 0.3714692 -0.6565099 -0.6565099 0.3714691 -0.6565099 -0.6565099 0.3714691 -0.6565099 -0.6565099 0.3714691 -0.2402997 -0.8968079 0.3714722 -0.2402997 -0.8968079 0.3714722 -0.2402997 -0.8968079 0.3714722 -0.2402984 -0.8968095 0.3714692 -0.2402984 -0.8968095 0.3714692 -0.2402984 -0.8968095 0.3714692 0.2403 -0.896809 0.3714694 0.2403 -0.896809 0.3714694 0.2403 -0.896809 0.3714694 0.2402981 -0.8968083 0.3714724 0.2402981 -0.8968083 0.3714724 0.2402981 -0.8968083 0.3714724 0.6565099 -0.6565099 0.3714692 0.6565099 -0.6565099 0.3714692 0.6565099 -0.6565099 0.3714692 0.6565099 -0.6565099 0.3714691 0.6565099 -0.6565099 0.3714691 0.6565099 -0.6565099 0.3714691 0.8968079 -0.2402997 0.3714722 0.8968079 -0.2402997 0.3714722 0.8968079 -0.2402997 0.3714722 0.8968095 -0.2402984 0.3714692 0.8968095 -0.2402984 0.3714692 0.8968095 -0.2402984 0.3714692 0.896809 0.2403 0.3714694 0.896809 0.2403 0.3714694 0.896809 0.2403 0.3714694 0.8968083 0.2402981 0.3714724 0.8968083 0.2402981 0.3714724 0.8968083 0.2402981 0.3714724 0.6565099 0.6565099 0.3714692 0.6565099 0.6565099 0.3714692 0.6565099 0.6565099 0.3714692 0.6565099 0.6565099 0.3714691 0.6565099 0.6565099 0.3714691 0.6565099 0.6565099 0.3714691 0.2402997 0.8968079 0.3714722 0.2402997 0.8968079 0.3714722 0.2402997 0.8968079 0.3714722 0.2402984 0.8968095 0.3714692 0.2402984 0.8968095 0.3714692 0.2402984 0.8968095 0.3714692 -0.2403 0.896809 0.3714694 -0.2403 0.896809 0.3714694 -0.2403 0.896809 0.3714694 -0.2402981 0.8968083 0.3714724 -0.2402981 0.8968083 0.3714724 -0.2402981 0.8968083 0.3714724 -0.6565099 0.6565099 0.3714692 -0.6565099 0.6565099 0.3714692 -0.6565099 0.6565099 0.3714692 -0.6565099 0.6565099 0.3714691 -0.6565099 0.6565099 0.3714691 -0.6565099 0.6565099 0.3714691 -0.8968079 0.2402997 0.3714722 -0.8968079 0.2402997 0.3714722 -0.8968079 0.2402997 0.3714722 -0.8968095 0.2402984 0.3714692 -0.8968095 0.2402984 0.3714692 -0.8968095 0.2402984 0.3714692 -0.7760127 -0.2079311 0.5954568 -0.7760127 -0.2079311 0.5954568 -0.7760127 -0.2079311 0.5954568 -0.7760144 -0.2079342 0.5954537 -0.7760144 -0.2079342 0.5954537 -0.7760144 -0.2079342 0.5954537 -0.5680803 -0.5680803 0.5954575 -0.5680803 -0.5680803 0.5954575 -0.5680803 -0.5680803 0.5954575 -0.5680803 -0.5680803 0.5954575 -0.5680803 -0.5680803 0.5954575 -0.5680803 -0.5680803 0.5954575 -0.2079317 -0.7760148 0.595454 -0.2079317 -0.7760148 0.595454 -0.2079317 -0.7760148 0.595454 -0.2079335 -0.7760119 0.5954572 -0.2079335 -0.7760119 0.5954572 -0.2079335 -0.7760119 0.5954572 0.2079311 -0.7760127 0.5954568 0.2079311 -0.7760127 0.5954568 0.2079311 -0.7760127 0.5954568 0.2079342 -0.7760144 0.5954537 0.2079342 -0.7760144 0.5954537 0.2079342 -0.7760144 0.5954537 0.5680803 -0.5680803 0.5954575 0.5680803 -0.5680803 0.5954575 0.5680803 -0.5680803 0.5954575 0.5680803 -0.5680803 0.5954575 0.5680803 -0.5680803 0.5954575 0.5680803 -0.5680803 0.5954575 0.7760148 -0.2079317 0.595454 0.7760148 -0.2079317 0.595454 0.7760148 -0.2079317 0.595454 0.7760119 -0.2079335 0.5954572 0.7760119 -0.2079335 0.5954572 0.7760119 -0.2079335 0.5954572 0.7760127 0.2079311 0.5954568 0.7760127 0.2079311 0.5954568 0.7760127 0.2079311 0.5954568 0.7760144 0.2079342 0.5954537 0.7760144 0.2079342 0.5954537 0.7760144 0.2079342 0.5954537 0.5680803 0.5680803 0.5954575 0.5680803 0.5680803 0.5954575 0.5680803 0.5680803 0.5954575 0.5680803 0.5680803 0.5954575 0.5680803 0.5680803 0.5954575 0.5680803 0.5680803 0.5954575 0.2079317 0.7760148 0.595454 0.2079317 0.7760148 0.595454 0.2079317 0.7760148 0.595454 0.2079335 0.7760119 0.5954572 0.2079335 0.7760119 0.5954572 0.2079335 0.7760119 0.5954572 -0.2079311 0.7760127 0.5954568 -0.2079311 0.7760127 0.5954568 -0.2079311 0.7760127 0.5954568 -0.2079342 0.7760144 0.5954537 -0.2079342 0.7760144 0.5954537 -0.2079342 0.7760144 0.5954537 -0.5680803 0.5680803 0.5954575 -0.5680803 0.5680803 0.5954575 -0.5680803 0.5680803 0.5954575 -0.5680803 0.5680803 0.5954575 -0.5680803 0.5680803 0.5954575 -0.5680803 0.5680803 0.5954575 -0.7760148 0.2079317 0.595454 -0.7760148 0.2079317 0.595454 -0.7760148 0.2079317 0.595454 -0.7760119 0.2079335 0.5954572 -0.7760119 0.2079335 0.5954572 -0.7760119 0.2079335 0.5954572 -0.6008204 -0.1609907 0.783005 -0.6008204 -0.1609907 0.783005 -0.6008204 -0.1609907 0.783005 -0.600819 -0.1609883 0.7830065 -0.600819 -0.1609883 0.7830065 -0.600819 -0.1609883 0.7830065 -0.4398314 -0.4398314 0.7830049 -0.4398314 -0.4398314 0.7830049 -0.4398314 -0.4398314 0.7830049 -0.4398314 -0.4398314 0.7830049 -0.4398314 -0.4398314 0.7830049 -0.4398314 -0.4398314 0.7830049 -0.1609903 -0.6008189 0.7830064 -0.1609903 -0.6008189 0.7830064 -0.1609903 -0.6008189 0.7830064 -0.1609889 -0.6008212 0.7830048 -0.1609889 -0.6008212 0.7830048 -0.1609889 -0.6008212 0.7830048 0.1609907 -0.6008204 0.783005 0.1609907 -0.6008204 0.783005 0.1609907 -0.6008204 0.783005 0.1609883 -0.600819 0.7830065 0.1609883 -0.600819 0.7830065 0.1609883 -0.600819 0.7830065 0.4398314 -0.4398314 0.7830049 0.4398314 -0.4398314 0.7830049 0.4398314 -0.4398314 0.7830049 0.4398314 -0.4398314 0.7830049 0.4398314 -0.4398314 0.7830049 0.4398314 -0.4398314 0.7830049 0.6008189 -0.1609903 0.7830064 0.6008189 -0.1609903 0.7830064 0.6008189 -0.1609903 0.7830064 0.6008212 -0.1609889 0.7830048 0.6008212 -0.1609889 0.7830048 0.6008212 -0.1609889 0.7830048 0.6008204 0.1609907 0.783005 0.6008204 0.1609907 0.783005 0.6008204 0.1609907 0.783005 0.600819 0.1609883 0.7830065 0.600819 0.1609883 0.7830065 0.600819 0.1609883 0.7830065 0.4398314 0.4398314 0.7830049 0.4398314 0.4398314 0.7830049 0.4398314 0.4398314 0.7830049 0.4398314 0.4398314 0.7830049 0.4398314 0.4398314 0.7830049 0.4398314 0.4398314 0.7830049 0.1609903 0.6008189 0.7830064 0.1609903 0.6008189 0.7830064 0.1609903 0.6008189 0.7830064 0.1609889 0.6008212 0.7830048 0.1609889 0.6008212 0.7830048 0.1609889 0.6008212 0.7830048 -0.1609907 0.6008204 0.783005 -0.1609907 0.6008204 0.783005 -0.1609907 0.6008204 0.783005 -0.1609883 0.600819 0.7830065 -0.1609883 0.600819 0.7830065 -0.1609883 0.600819 0.7830065 -0.4398314 0.4398314 0.7830049 -0.4398314 0.4398314 0.7830049 -0.4398314 0.4398314 0.7830049 -0.4398314 0.4398314 0.7830049 -0.4398314 0.4398314 0.7830049 -0.4398314 0.4398314 0.7830049 -0.6008189 0.1609903 0.7830064 -0.6008189 0.1609903 0.7830064 -0.6008189 0.1609903 0.7830064 -0.6008212 0.1609889 0.7830048 -0.6008212 0.1609889 0.7830048 -0.6008212 0.1609889 0.7830048 -0.3806894 -0.102005 0.9190596 -0.3806894 -0.102005 0.9190596 -0.3806894 -0.102005 0.9190596 -0.3806891 -0.1020044 0.9190598 -0.3806891 -0.1020044 0.9190598 -0.3806891 -0.1020044 0.9190598 -0.278684 -0.278684 0.9190595 -0.278684 -0.278684 0.9190595 -0.278684 -0.278684 0.9190595 -0.278684 -0.278684 0.9190595 -0.278684 -0.278684 0.9190595 -0.278684 -0.278684 0.9190595 -0.1020049 -0.3806891 0.9190598 -0.1020049 -0.3806891 0.9190598 -0.1020049 -0.3806891 0.9190598 -0.1020046 -0.3806895 0.9190596 -0.1020046 -0.3806895 0.9190596 -0.1020046 -0.3806895 0.9190596 0.102005 -0.3806894 0.9190596 0.102005 -0.3806894 0.9190596 0.102005 -0.3806894 0.9190596 0.1020044 -0.3806891 0.9190598 0.1020044 -0.3806891 0.9190598 0.1020044 -0.3806891 0.9190598 0.278684 -0.278684 0.9190595 0.278684 -0.278684 0.9190595 0.278684 -0.278684 0.9190595 0.278684 -0.278684 0.9190595 0.278684 -0.278684 0.9190595 0.278684 -0.278684 0.9190595 0.3806891 -0.1020049 0.9190598 0.3806891 -0.1020049 0.9190598 0.3806891 -0.1020049 0.9190598 0.3806895 -0.1020046 0.9190596 0.3806895 -0.1020046 0.9190596 0.3806895 -0.1020046 0.9190596 0.3806894 0.102005 0.9190596 0.3806894 0.102005 0.9190596 0.3806894 0.102005 0.9190596 0.3806891 0.1020044 0.9190598 0.3806891 0.1020044 0.9190598 0.3806891 0.1020044 0.9190598 0.278684 0.278684 0.9190595 0.278684 0.278684 0.9190595 0.278684 0.278684 0.9190595 0.278684 0.278684 0.9190595 0.278684 0.278684 0.9190595 0.278684 0.278684 0.9190595 0.1020049 0.3806891 0.9190598 0.1020049 0.3806891 0.9190598 0.1020049 0.3806891 0.9190598 0.1020046 0.3806895 0.9190596 0.1020046 0.3806895 0.9190596 0.1020046 0.3806895 0.9190596 -0.102005 0.3806894 0.9190596 -0.102005 0.3806894 0.9190596 -0.102005 0.3806894 0.9190596 -0.1020044 0.3806891 0.9190598 -0.1020044 0.3806891 0.9190598 -0.1020044 0.3806891 0.9190598 -0.278684 0.278684 0.9190595 -0.278684 0.278684 0.9190595 -0.278684 0.278684 0.9190595 -0.278684 0.278684 0.9190595 -0.278684 0.278684 0.9190595 -0.278684 0.278684 0.9190595 -0.3806891 0.1020049 0.9190598 -0.3806891 0.1020049 0.9190598 -0.3806891 0.1020049 0.9190598 -0.3806895 0.1020046 0.9190596 -0.3806895 0.1020046 0.9190596 -0.3806895 0.1020046 0.9190596 -0.1304458 -0.0349525 0.9908391 -0.1304458 -0.0349525 0.9908391 -0.1304458 -0.0349525 0.9908391 1.0 0.0 0.0 1.0 0.0 0.0 -0.0954928 -0.0954928 0.9908391 -0.0954928 -0.0954928 0.9908391 -0.0954928 -0.0954928 0.9908391 1.0 0.0 0.0 1.0 0.0 0.0 -0.0349525 -0.1304458 0.9908391 -0.0349525 -0.1304458 0.9908391 -0.0349525 -0.1304458 0.9908391 1.0 0.0 0.0 1.0 0.0 0.0 0.0349525 -0.1304458 0.9908391 0.0349525 -0.1304458 0.9908391 0.0349525 -0.1304458 0.9908391 1.0 0.0 0.0 1.0 0.0 0.0 0.0954928 -0.0954928 0.9908391 0.0954928 -0.0954928 0.9908391 0.0954928 -0.0954928 0.9908391 1.0 0.0 0.0 1.0 0.0 0.0 0.1304458 -0.0349525 0.9908391 0.1304458 -0.0349525 0.9908391 0.1304458 -0.0349525 0.9908391 1.0 0.0 0.0 1.0 0.0 0.0 0.1304458 0.0349525 0.9908391 0.1304458 0.0349525 0.9908391 0.1304458 0.0349525 0.9908391 1.0 0.0 0.0 1.0 0.0 0.0 0.0954928 0.0954928 0.9908391 0.0954928 0.0954928 0.9908391 0.0954928 0.0954928 0.9908391 1.0 0.0 0.0 1.0 0.0 0.0 0.0349525 0.1304458 0.9908391 0.0349525 0.1304458 0.9908391 0.0349525 0.1304458 0.9908391 1.0 0.0 0.0 1.0 0.0 0.0 -0.0349525 0.1304458 0.9908391 -0.0349525 0.1304458 0.9908391 -0.0349525 0.1304458 0.9908391 1.0 0.0 0.0 1.0 0.0 0.0 -0.0954928 0.0954928 0.9908391 -0.0954928 0.0954928 0.9908391 -0.0954928 0.0954928 0.9908391 1.0 0.0 0.0 1.0 0.0 0.0 -0.1304458 0.0349525 0.9908391 -0.1304458 0.0349525 0.9908391 -0.1304458 0.0349525 0.9908391 1.0 0.0 0.0 1.0 0.0 0.0 1.0 0.0 0.0 1.0 0.0 0.0 -0.1304463 -0.0349527 -0.9908391 -0.1304463 -0.0349527 -0.9908391 -0.1304463 -0.0349527 -0.9908391 1.0 0.0 0.0 1.0 0.0 0.0 -0.0954931 -0.0954931 -0.9908391 -0.0954931 -0.0954931 -0.9908391 -0.0954931 -0.0954931 -0.9908391 1.0 0.0 0.0 1.0 0.0 0.0 -0.0349527 -0.1304463 -0.9908391 -0.0349527 -0.1304463 -0.9908391 -0.0349527 -0.1304463 -0.9908391 1.0 0.0 0.0 1.0 0.0 0.0 0.0349527 -0.1304463 -0.9908391 0.0349527 -0.1304463 -0.9908391 0.0349527 -0.1304463 -0.9908391 1.0 0.0 0.0 1.0 0.0 0.0 0.0954931 -0.0954931 -0.9908391 0.0954931 -0.0954931 -0.9908391 0.0954931 -0.0954931 -0.9908391 1.0 0.0 0.0 1.0 0.0 0.0 0.1304463 -0.0349527 -0.9908391 0.1304463 -0.0349527 -0.9908391 0.1304463 -0.0349527 -0.9908391 1.0 0.0 0.0 1.0 0.0 0.0 0.1304463 0.0349527 -0.9908391 0.1304463 0.0349527 -0.9908391 0.1304463 0.0349527 -0.9908391 1.0 0.0 0.0 1.0 0.0 0.0 0.0954931 0.0954931 -0.9908391 0.0954931 0.0954931 -0.9908391 0.0954931 0.0954931 -0.9908391 1.0 0.0 0.0 1.0 0.0 0.0 0.0349527 0.1304463 -0.9908391 0.0349527 0.1304463 -0.9908391 0.0349527 0.1304463 -0.9908391 1.0 0.0 0.0 1.0 0.0 0.0 -0.0349527 0.1304463 -0.9908391 -0.0349527 0.1304463 -0.9908391 -0.0349527 0.1304463 -0.9908391 1.0 0.0 0.0 1.0 0.0 0.0 -0.0954931 0.0954931 -0.9908391 -0.0954931 0.0954931 -0.9908391 -0.0954931 0.0954931 -0.9908391 1.0 0.0 0.0 1.0 0.0 0.0 -0.1304463 0.0349527 -0.9908391 -0.1304463 0.0349527 -0.9908391 -0.1304463 0.0349527 -0.9908391 -0.380689 -0.1020044 -0.9190598 -0.380689 -0.1020044 -0.9190598 -0.380689 -0.1020044 -0.9190598 -0.3806887 -0.1020048 -0.9190599 -0.3806887 -0.1020048 -0.9190599 -0.3806887 -0.1020048 -0.9190599 -0.2786837 -0.2786837 -0.9190598 -0.2786837 -0.2786837 -0.9190598 -0.2786837 -0.2786837 -0.9190598 -0.2786837 -0.2786837 -0.9190598 -0.2786837 -0.2786837 -0.9190598 -0.2786837 -0.2786837 -0.9190598 -0.1020043 -0.3806886 -0.91906 -0.1020043 -0.3806886 -0.91906 -0.1020043 -0.3806886 -0.91906 -0.1020048 -0.3806888 -0.9190598 -0.1020048 -0.3806888 -0.9190598 -0.1020048 -0.3806888 -0.9190598 0.1020044 -0.380689 -0.9190598 0.1020044 -0.380689 -0.9190598 0.1020044 -0.380689 -0.9190598 0.1020048 -0.3806887 -0.9190599 0.1020048 -0.3806887 -0.9190599 0.1020048 -0.3806887 -0.9190599 0.2786837 -0.2786837 -0.9190598 0.2786837 -0.2786837 -0.9190598 0.2786837 -0.2786837 -0.9190598 0.2786837 -0.2786837 -0.9190598 0.2786837 -0.2786837 -0.9190598 0.2786837 -0.2786837 -0.9190598 0.3806886 -0.1020043 -0.91906 0.3806886 -0.1020043 -0.91906 0.3806886 -0.1020043 -0.91906 0.3806888 -0.1020048 -0.9190598 0.3806888 -0.1020048 -0.9190598 0.3806888 -0.1020048 -0.9190598 0.380689 0.1020044 -0.9190598 0.380689 0.1020044 -0.9190598 0.380689 0.1020044 -0.9190598 0.3806887 0.1020048 -0.9190599 0.3806887 0.1020048 -0.9190599 0.3806887 0.1020048 -0.9190599 0.2786837 0.2786837 -0.9190598 0.2786837 0.2786837 -0.9190598 0.2786837 0.2786837 -0.9190598 0.2786837 0.2786837 -0.9190598 0.2786837 0.2786837 -0.9190598 0.2786837 0.2786837 -0.9190598 0.1020043 0.3806886 -0.91906 0.1020043 0.3806886 -0.91906 0.1020043 0.3806886 -0.91906 0.1020048 0.3806888 -0.9190598 0.1020048 0.3806888 -0.9190598 0.1020048 0.3806888 -0.9190598 -0.1020044 0.380689 -0.9190598 -0.1020044 0.380689 -0.9190598 -0.1020044 0.380689 -0.9190598 -0.1020048 0.3806887 -0.9190599 -0.1020048 0.3806887 -0.9190599 -0.1020048 0.3806887 -0.9190599 -0.2786837 0.2786837 -0.9190598 -0.2786837 0.2786837 -0.9190598 -0.2786837 0.2786837 -0.9190598 -0.2786837 0.2786837 -0.9190598 -0.2786837 0.2786837 -0.9190598 -0.2786837 0.2786837 -0.9190598 -0.3806886 0.1020043 -0.91906 -0.3806886 0.1020043 -0.91906 -0.3806886 0.1020043 -0.91906 -0.3806888 0.1020048 -0.9190598 -0.3806888 0.1020048 -0.9190598 -0.3806888 0.1020048 -0.9190598 -0.6008212 -0.1609889 -0.7830048 -0.6008212 -0.1609889 -0.7830048 -0.6008212 -0.1609889 -0.7830048 -0.6008189 -0.1609903 -0.7830064 -0.6008189 -0.1609903 -0.7830064 -0.6008189 -0.1609903 -0.7830064 -0.4398314 -0.4398314 -0.7830049 -0.4398314 -0.4398314 -0.7830049 -0.4398314 -0.4398314 -0.7830049 -0.4398314 -0.4398314 -0.7830049 -0.4398314 -0.4398314 -0.7830049 -0.4398314 -0.4398314 -0.7830049 -0.1609883 -0.6008191 -0.7830065 -0.1609883 -0.6008191 -0.7830065 -0.1609883 -0.6008191 -0.7830065 -0.1609907 -0.6008204 -0.783005 -0.1609907 -0.6008204 -0.783005 -0.1609907 -0.6008204 -0.783005 0.1609889 -0.6008212 -0.7830048 0.1609889 -0.6008212 -0.7830048 0.1609889 -0.6008212 -0.7830048 0.1609903 -0.6008189 -0.7830064 0.1609903 -0.6008189 -0.7830064 0.1609903 -0.6008189 -0.7830064 0.4398314 -0.4398314 -0.7830049 0.4398314 -0.4398314 -0.7830049 0.4398314 -0.4398314 -0.7830049 0.4398314 -0.4398314 -0.7830049 0.4398314 -0.4398314 -0.7830049 0.4398314 -0.4398314 -0.7830049 0.6008191 -0.1609883 -0.7830065 0.6008191 -0.1609883 -0.7830065 0.6008191 -0.1609883 -0.7830065 0.6008204 -0.1609907 -0.783005 0.6008204 -0.1609907 -0.783005 0.6008204 -0.1609907 -0.783005 0.6008212 0.1609889 -0.7830048 0.6008212 0.1609889 -0.7830048 0.6008212 0.1609889 -0.7830048 0.6008189 0.1609903 -0.7830064 0.6008189 0.1609903 -0.7830064 0.6008189 0.1609903 -0.7830064 0.4398314 0.4398314 -0.7830049 0.4398314 0.4398314 -0.7830049 0.4398314 0.4398314 -0.7830049 0.4398314 0.4398314 -0.7830049 0.4398314 0.4398314 -0.7830049 0.4398314 0.4398314 -0.7830049 0.1609883 0.6008191 -0.7830065 0.1609883 0.6008191 -0.7830065 0.1609883 0.6008191 -0.7830065 0.1609907 0.6008204 -0.783005 0.1609907 0.6008204 -0.783005 0.1609907 0.6008204 -0.783005 -0.1609889 0.6008212 -0.7830048 -0.1609889 0.6008212 -0.7830048 -0.1609889 0.6008212 -0.7830048 -0.1609903 0.6008189 -0.7830064 -0.1609903 0.6008189 -0.7830064 -0.1609903 0.6008189 -0.7830064 -0.4398314 0.4398314 -0.7830049 -0.4398314 0.4398314 -0.7830049 -0.4398314 0.4398314 -0.7830049 -0.4398314 0.4398314 -0.7830049 -0.4398314 0.4398314 -0.7830049 -0.4398314 0.4398314 -0.7830049 -0.6008191 0.1609883 -0.7830065 -0.6008191 0.1609883 -0.7830065 -0.6008191 0.1609883 -0.7830065 -0.6008204 0.1609907 -0.783005 -0.6008204 0.1609907 -0.783005 -0.6008204 0.1609907 -0.783005 -0.776012 -0.2079335 -0.5954571 -0.776012 -0.2079335 -0.5954571 -0.776012 -0.2079335 -0.5954571 -0.7760149 -0.2079317 -0.5954539 -0.7760149 -0.2079317 -0.5954539 -0.7760149 -0.2079317 -0.5954539 -0.5680803 -0.5680803 -0.5954574 -0.5680803 -0.5680803 -0.5954574 -0.5680803 -0.5680803 -0.5954574 -0.5680803 -0.5680803 -0.5954574 -0.5680803 -0.5680803 -0.5954574 -0.5680803 -0.5680803 -0.5954574 -0.2079342 -0.7760146 -0.5954536 -0.2079342 -0.7760146 -0.5954536 -0.2079342 -0.7760146 -0.5954536 -0.2079311 -0.7760128 -0.5954567 -0.2079311 -0.7760128 -0.5954567 -0.2079311 -0.7760128 -0.5954567</float_array>
                    <technique_common>
                        <accessor count="840" source="#geometry0-normal-array" stride="3">
                            <param name="X" type="float"/>
                            <param name="Y" type="float"/>
                            <param name="Z" type="float"/>
                        </accessor>
                    </technique_common>
                </source>
                <vertices id="geometry0-vertex">
                    <input semantic="POSITION" source="#geometry0-position"/>
                </vertices>
                <triangles count="288" material="default_ai_0.2_sh_0.2_tr_0.0_dc_r_0.8_g_0.8_b_0.8_sc_r_1.0_g_1.0_b_1.0_ec_r_0.0_g_0.0_b_0_tri">
                    <input offset="0" semantic="VERTEX" source="#geometry0-vertex"/>
                    <input offset="1" semantic="NORMAL" source="#geometry0-normal"/>
                    <p>28 0 29 1 41 2 28 3 41 4 40 5 29 6 30 7 42 8 29 9 42 10 41 11 30 12 31 13 43 14 30 15 43 16 42 17 31 18 32 19 44 20 31 21 44 22 43 23 32 24 33 25 45 26 32 27 45 28 44 29 33 30 34 31 46 32 33 33 46 34 45 35 34 36 35 37 47 38 34 39 47 40 46 41 35 42 36 43 48 44 35 45 48 46 47 47 36 48 26 49 38 50 36 51 38 52 48 53 38 54 37 55 49 56 38 57 49 58 50 59 37 60 39 61 51 62 37 63 51 64 49 65 39 66 40 67 52 68 39 69 52 70 51 71 40 72 41 73 53 74 40 75 53 76 52 77 41 78 42 79 54 80 41 81 54 82 53 83 42 84 43 85 55 86 42 87 55 88 54 89 43 90 44 91 56 92 43 93 56 94 55 95 44 96 45 97 57 98 44 99 57 100 56 101 45 102 46 103 58 104 45 105 58 106 57 107 46 108 47 109 59 110 46 111 59 112 58 113 47 114 48 115 60 116 47 117 60 118 59 119 48 120 38 121 50 122 48 123 50 124 60 125 50 126 49 127 61 128 50 129 61 130 62 131 49 132 51 133 63 134 49 135 63 136 61 137 51 138 52 139 64 140 51 141 64 142 63 143 52 144 53 145 65 146 52 147 65 148 64 149 53 150 54 151 66 152 53 153 66 154 65 155 54 156 55 157 67 158 54 159 67 160 66 161 55 162 56 163 68 164 55 165 68 166 67 167 56 168 57 169 69 170 56 171 69 172 68 173 57 174 58 175 70 176 57 177 70 178 69 179 58 180 59 181 71 182 58 183 71 184 70 185 59 186 60 187 72 188 59 189 72 190 71 191 60 192 50 193 62 194 60 195 62 196 72 197 62 198 61 199 73 200 62 201 73 202 74 203 61 204 63 205 75 206 61 207 75 208 73 209 63 210 64 211 76 212 63 213 76 214 75 215 64 216 65 217 77 218 64 219 77 220 76 221 65 222 66 223 78 224 65 225 78 226 77 227 66 228 67 229 79 230 66 231 79 232 78 233 67 234 68 235 80 236 67 237 80 238 79 239 68 240 69 241 81 242 68 243 81 244 80 245 69 246 70 247 82 248 69 249 82 250 81 251 70 252 71 253 83 254 70 255 83 256 82 257 71 258 72 259 84 260 71 261 84 262 83 263 72 264 62 265 74 266 72 267 74 268 84 269 74 270 73 271 85 272 74 273 85 274 86 275 73 276 75 277 87 278 73 279 87 280 85 281 75 282 76 283 88 284 75 285 88 286 87 287 76 288 77 289 89 290 76 291 89 292 88 293 77 294 78 295 90 296 77 297 90 298 89 299 78 300 79 301 91 302 78 303 91 304 90 305 79 306 80 307 92 308 79 309 92 310 91 311 80 312 81 313 93 314 80 315 93 316 92 317 81 318 82 319 94 320 81 321 94 322 93 323 82 324 83 325 95 326 82 327 95 328 94 329 83 330 84 331 96 332 83 333 96 334 95 335 84 336 74 337 86 338 84 339 86 340 96 341 86 342 85 343 97 344 86 345 97 346 98 347 85 348 87 349 99 350 85 351 99 352 97 353 87 354 88 355 100 356 87 357 100 358 99 359 88 360 89 361 101 362 88 363 101 364 100 365 89 366 90 367 102 368 89 369 102 370 101 371 90 372 91 373 103 374 90 375 103 376 102 377 91 378 92 379 104 380 91 381 104 382 103 383 92 384 93 385 105 386 92 387 105 388 104 389 93 390 94 391 106 392 93 393 106 394 105 395 94 396 95 397 107 398 94 399 107 400 106 401 95 402 96 403 108 404 95 405 108 406 107 407 96 408 86 409 98 410 96 411 98 412 108 413 98 414 97 415 109 416 98 417 109 418 110 419 97 420 99 421 111 422 97 423 111 424 109 425 99 426 100 427 112 428 99 429 112 430 111 431 100 432 101 433 113 434 100 435 113 436 112 437 101 438 102 439 114 440 101 441 114 442 113 443 102 444 103 445 115 446 102 447 115 448 114 449 103 450 104 451 116 452 103 453 116 454 115 455 104 456 105 457 117 458 104 459 117 460 116 461 105 462 106 463 118 464 105 465 118 466 117 467 106 468 107 469 119 470 106 471 119 472 118 473 107 474 108 475 120 476 107 477 120 478 119 479 108 480 98 481 110 482 108 483 110 484 120 485 110 486 109 487 121 488 110 489 121 490 122 491 109 492 111 493 123 494 109 495 123 496 121 497 111 498 112 499 124 500 111 501 124 502 123 503 112 504 113 505 125 506 112 507 125 508 124 509 113 510 114 511 126 512 113 513 126 514 125 515 114 516 115 517 127 518 114 519 127 520 126 521 115 522 116 523 128 524 115 525 128 526 127 527 116 528 117 529 129 530 116 531 129 532 128 533 117 534 118 535 130 536 117 537 130 538 129 539 118 540 119 541 131 542 118 543 131 544 130 545 119 546 120 547 132 548 119 549 132 550 131 551 120 552 110 553 122 554 120 555 122 556 132 557 122 558 121 559 133 560 122 561 133 562 133 562 121 563 123 564 133 565 121 566 133 567 133 567 123 568 124 569 133 570 123 571 133 572 133 572 124 573 125 574 133 575 124 576 133 577 133 577 125 578 126 579 133 580 125 581 133 582 133 582 126 583 127 584 133 585 126 586 133 587 133 587 127 588 128 589 133 590 127 591 133 592 133 592 128 593 129 594 133 595 128 596 133 597 133 597 129 598 130 599 133 600 129 601 133 602 133 602 130 603 131 604 133 605 130 606 133 607 133 607 131 608 132 609 133 610 131 611 133 612 133 612 132 613 122 614 133 615 132 616 133 617 133 617 0 618 0 618 1 619 0 620 1 621 2 622 0 623 0 623 3 624 0 625 3 626 1 627 0 628 0 628 4 629 0 630 4 631 3 632 0 633 0 633 5 634 0 635 5 636 4 637 0 638 0 638 6 639 0 640 6 641 5 642 0 643 0 643 7 644 0 645 7 646 6 647 0 648 0 648 8 649 0 650 8 651 7 652 0 653 0 653 9 654 0 655 9 656 8 657 0 658 0 658 10 659 0 660 10 661 9 662 0 663 0 663 11 664 0 665 11 666 10 667 0 668 0 668 12 669 0 670 12 671 11 672 0 673 0 673 2 674 0 675 2 676 12 677 2 678 1 679 13 680 2 681 13 682 14 683 1 684 3 685 15 686 1 687 15 688 13 689 3 690 4 691 16 692 3 693 16 694 15 695 4 696 5 697 17 698 4 699 17 700 16 701 5 702 6 703 18 704 5 705 18 706 17 707 6 708 7 709 19 710 6 711 19 712 18 713 7 714 8 715 20 716 7 717 20 718 19 719 8 720 9 721 21 722 8 723 21 724 20 725 9 726 10 727 22 728 9 729 22 730 21 731 10 732 11 733 23 734 10 735 23 736 22 737 11 738 12 739 24 740 11 741 24 742 23 743 12 744 2 745 14 746 12 747 14 748 24 749 14 750 13 751 25 752 14 753 25 754 26 755 13 756 15 757 27 758 13 759 27 760 25 761 15 762 16 763 28 764 15 765 28 766 27 767 16 768 17 769 29 770 16 771 29 772 28 773 17 774 18 775 30 776 17 777 30 778 29 779 18 780 19 781 31 782 18 783 31 784 30 785 19 786 20 787 32 788 19 789 32 790 31 791 20 792 21 793 33 794 20 795 33 796 32 797 21 798 22 799 34 800 21 801 34 802 33 803 22 804 23 805 35 806 22 807 35 808 34 809 23 810 24 811 36 812 23 813 36 814 35 815 24 816 14 817 26 818 24 819 26 820 36 821 26 822 25 823 37 824 26 825 37 826 38 827 25 828 27 829 39 830 25 831 39 832 37 833 27 834 28 835 40 836 27 837 40 838 39 839</p>
                </triangles>
            </mesh>
        </geometry>
    </library_geometries>
    <library_visual_scenes>
        <visual_scene id="Building_144_CROWN2">
            <node>
                <instance_geometry url="#geometry0">
                    <bind_material>
                        <technique_common>
                            <instance_material symbol="default_ai_0.2_sh_0.2_tr_0.0_dc_r_0.8_g_0.8_b_0.8_sc_r_1.0_g_1.0_b_1.0_ec_r_0.0_g_0.0_b_0_tri" target="#default_ai_0.2_sh_0.2_tr_0.0_dc_r_0.8_g_0.8_b_0.8_sc_r_1.0_g_1.0_b_1.0_ec_r_0.0_g_0.0_b_0_mat"/>
                        </technique_common>
                    </bind_material>
                </instance_geometry>
            </node>
        </visual_scene>
    </library_visual_scenes>
    <scene>
        <instance_visual_scene url="#Building_144_CROWN2"/>
    </scene>
</COLLADA>
