<?xml version="1.0" encoding="UTF-8" standalone="yes"?>
<COLLADA xmlns="http://www.collada.org/2005/11/COLLADASchema" version="1.4.1">
    <asset>
        <contributor>
            <authoring_tool>3D City Database Importer/Exporter, version 5.5.3; Chair of Geoinformatics, Technical University of Munich</authoring_tool>
        </contributor>
        <created>2026-09-25T14:45:25.389</created>
        <modified>2026-09-25T14:45:25.389</modified>
        <unit meter="1.0" name="meters"/>
        <up_axis>Z_UP</up_axis>
    </asset>
    <library_materials>
        <material id="default_ai_0.2_sh_0.2_tr_0.0_dc_r_0.8_g_0.8_b_0.8_sc_r_1.0_g_1.0_b_1.0_ec_r_0.0_g_0.0_b_0_mat">
            <instance_effect url="#default_ai_0.2_sh_0.2_tr_0.0_dc_r_0.8_g_0.8_b_0.8_sc_r_1.0_g_1.0_b_1.0_ec_r_0.0_g_0.0_b_0_eff"/>
        </material>
    </library_materials>
    <library_effects>
        <effect id="default_ai_0.2_sh_0.2_tr_0.0_dc_r_0.8_g_0.8_b_0.8_sc_r_1.0_g_1.0_b_1.0_ec_r_0.0_g_0.0_b_0_eff">
            <profile_COMMON>
                <technique sid="COMMON">
                    <lambert>
                        <emission>
                            <color>0.0 0.0 0.0 1.0</color>
                        </emission>
                        <diffuse>
                            <color>0.8 0.8 0.8 1.0</color>
                        </diffuse>
                        <reflective>
                            <color>1.0 1.0 1.0 1.0</color>
                        </reflective>
                        <reflectivity>
                            <float>0.2</float>
                        </reflectivity>
                        <transparent opaque="A_ONE">
                            <color>1.0 1.0 1.0 1.0</color>
                        </transparent>
                        <transparency>
                            <float>1.0</float>
                        </transparency>
                    </lambert>
                </technique>
                <extra>
                    <technique profile="GOOGLEEARTH">
                        <double_sided>0</double_sided>
                    </technique>
                </extra>
            </profile_COMMON>
        </effect>
    </library_effects>
    <library_geometries>
        <geometry id="geometry0">
            <mesh>
                <source id="geometry0-position">
                    <float_array id="geometry0-position-array" count="402">0.0 0.0 2.1 0.2353512 0.1358805 2.0642223 0.2717599 0.0 2.0642223 0.1358805 0.2353512 2.0642223 0.0 0.2717599 2.0642223 -0.1358805 0.2353512 2.0642223 -0.2353512 0.1358805 2.0642223 -0.2717599 0.0 2.0642223 -0.2353512 -0.1358805 2.0642223 -0.1358805 -0.2353512 2.0642223 0.0 -0.2717599 2.0642223 0.1358805 -0.2353512 2.0642223 0.2353512 -0.1358805 2.0642223 0.4546637 0.2625 1.9593262 0.525 0.0 1.9593262 0.2625 0.4546637 1.9593262 0.0 0.525 1.9593262 -0.2625 0.4546637 1.9593262 -0.4546637 0.2625 1.9593262 -0.525 0.0 1.9593262 -0.4546637 -0.2625 1.9593262 -0.2625 -0.4546637 1.9593262 0.0 -0.525 1.9593262 0.2625 -0.4546637 1.9593262 0.4546637 -0.2625 1.9593262 0.6429906 0.3712306 1.7924624 0.7424623 0.0 1.7924624 0.3712306 0.6429906 1.7924624 0.0 0.7424624 1.7924624 -0.3712306 0.6429906 1.7924624 -0.6429906 0.3712306 1.7924624 -0.7424623 0.0 1.7924624 -0.6429906 -0.3712306 1.7924624 -0.3712306 -0.6429906 1.7924624 0.0 -0.7424624 1.7924624 0.3712306 -0.6429906 1.7924624 0.6429906 -0.3712306 1.7924624 0.7875 0.4546637 1.575 0.9093263 0.0 1.575 0.4546637 0.7875 1.575 0.0 0.9093262 1.575 -0.4546637 0.7875 1.575 -0.7875 0.4546637 1.575 -0.9093263 0.0 1.575 -0.7875 -0.4546637 1.575 -0.4546637 -0.7875 1.575 0.0 -0.9093262 1.575 0.4546637 -0.7875 1.575 0.7875 -0.4546637 1.575 0.8783418 0.5071111 1.32176 1.0142223 0.0 1.32176 0.5071112 0.8783418 1.32176 0.0 1.0142223 1.32176 -0.5071112 0.8783418 1.32176 -0.8783418 0.5071111 1.32176 -1.0142223 0.0 1.32176 -0.8783418 -0.5071111 1.32176 -0.5071112 -0.8783418 1.32176 0.0 -1.0142223 1.32176 0.5071112 -0.8783418 1.32176 0.8783418 -0.5071111 1.32176 0.9093263 0.525 1.05 1.05 0.0 1.05 0.525 0.9093262 1.05 0.0 1.05 1.05 -0.525 0.9093262 1.05 -0.9093263 0.525 1.05 -1.05 0.0 1.05 -0.9093263 -0.525 1.05 -0.525 -0.9093262 1.05 0.0 -1.05 1.05 0.525 -0.9093262 1.05 0.9093263 -0.525 1.05 0.8783418 0.5071111 0.77824 1.0142223 0.0 0.77824 0.5071112 0.8783418 0.77824 0.0 1.0142223 0.77824 -0.5071112 0.8783418 0.77824 -0.8783418 0.5071111 0.77824 -1.0142223 0.0 0.77824 -0.8783418 -0.5071111 0.77824 -0.5071112 -0.8783418 0.77824 0.0 -1.0142223 0.77824 0.5071112 -0.8783418 0.77824 0.8783418 -0.5071111 0.77824 0.7875 0.4546637 0.525 0.9093263 0.0 0.525 0.4546637 0.7875 0.525 0.0 0.9093262 0.525 -0.4546637 0.7875 0.525 -0.7875 0.4546637 0.525 -0.9093263 0.0 0.525 -0.7875 -0.4546637 0.525 -0.4546637 -0.7875 0.525 0.0 -0.9093262 0.525 0.4546637 -0.7875 0.525 0.7875 -0.4546637 0.525 0.6429906 0.3712306 0.3075376 0.7424623 0.0 0.3075376 0.3712306 0.6429906 0.3075376 0.0 0.7424624 0.3075376 -0.3712306 0.6429906 0.3075376 -0.6429906 0.3712306 0.3075376 -0.7424623 0.0 0.3075376 -0.6429906 -0.3712306 0.3075376 -0.3712306 -0.6429906 0.3075376 0.0 -0.7424624 0.3075376 0.3712306 -0.6429906 0.3075376 0.6429906 -0.3712306 0.3075376 0.4546637 0.2625 0.1406737 0.525 0.0 0.1406737 0.2625 0.4546637 0.1406737 0.0 0.525 0.1406737 -0.2625 0.4546637 0.1406737 -0.4546637 0.2625 0.1406737 -0.525 0.0 0.1406737 -0.4546637 -0.2625 0.1406737 -0.2625 -0.4546637 0.1406737 0.0 -0.525 0.1406737 0.2625 -0.4546637 0.1406737 0.4546637 -0.2625 0.1406737 0.2353512 0.1358805 0.0357777 0.2717599 0.0 0.0357777 0.1358805 0.2353512 0.0357777 0.0 0.2717599 0.0357777 -0.1358805 0.2353512 0.0357777 -0.2353512 0.1358805 0.0357777 -0.2717599 0.0 0.0357777 -0.2353512 -0.1358805 0.0357777 -0.1358805 -0.2353512 0.0357777 0.0 -0.2717599 0.0357777 0.1358805 -0.2353512 0.0357777 0.2353512 -0.1358805 0.0357777 0.0 0.0 0.0</float_array>
                    <technique_common>
                        <accessor count="134" source="#geometry0-position-array" stride="3">
                            <param name="X" type="float"/>
                            <param name="Y" type="float"/>
                            <param name="Z" type="float"/>
                        </accessor>
                    </technique_common>
                </source>
                <source id="geometry0-normal">
                    <float_array id="geometry0-normal-array" count="2520">-0.7760118 -0.2079334 -0.5954574 -0.7760118 -0.2079334 -0.5954574 -0.7760118 -0.2079334 -0.5954574 -0.7760146 -0.2079316 -0.5954542 -0.7760146 -0.2079316 -0.5954542 -0.7760146 -0.2079316 -0.5954542 -0.5680802 -0.5680802 -0.5954576 -0.5680802 -0.5680802 -0.5954576 -0.5680802 -0.5680802 -0.5954576 -0.5680802 -0.5680802 -0.5954577 -0.5680802 -0.5680802 -0.5954577 -0.5680802 -0.5680802 -0.5954577 -0.207934 -0.7760142 -0.5954539 -0.207934 -0.7760142 -0.5954539 -0.207934 -0.7760142 -0.5954539 -0.2079311 -0.7760127 -0.5954571 -0.2079311 -0.7760127 -0.5954571 -0.2079311 -0.7760127 -0.5954571 0.2079334 -0.7760118 -0.5954574 0.2079334 -0.7760118 -0.5954574 0.2079334 -0.7760118 -0.5954574 0.2079316 -0.7760146 -0.5954542 0.2079316 -0.7760146 -0.5954542 0.2079316 -0.7760146 -0.5954542 0.5680802 -0.5680802 -0.5954576 0.5680802 -0.5680802 -0.5954576 0.5680802 -0.5680802 -0.5954576 0.5680802 -0.5680802 -0.5954577 0.5680802 -0.5680802 -0.5954577 0.5680802 -0.5680802 -0.5954577 0.7760142 -0.207934 -0.5954539 0.7760142 -0.207934 -0.5954539 0.7760142 -0.207934 -0.5954539 0.7760127 -0.2079311 -0.5954571 0.7760127 -0.2079311 -0.5954571 0.7760127 -0.2079311 -0.5954571 0.7760118 0.2079334 -0.5954574 0.7760118 0.2079334 -0.5954574 0.7760118 0.2079334 -0.5954574 0.7760146 0.2079316 -0.5954542 0.7760146 0.2079316 -0.5954542 0.7760146 0.2079316 -0.5954542 0.5680802 0.5680802 -0.5954576 0.5680802 0.5680802 -0.5954576 0.5680802 0.5680802 -0.5954576 0.5680802 0.5680802 -0.5954577 0.5680802 0.5680802 -0.5954577 0.5680802 0.5680802 -0.5954577 0.207934 0.7760142 -0.5954539 0.207934 0.7760142 -0.5954539 0.207934 0.7760142 -0.5954539 0.2079311 0.7760127 -0.5954571 0.2079311 0.7760127 -0.5954571 0.2079311 0.7760127 -0.5954571 -0.2079334 0.7760118 -0.5954574 -0.2079334 0.7760118 -0.5954574 -0.2079334 0.7760118 -0.5954574 -0.2079316 0.7760146 -0.5954542 -0.2079316 0.7760146 -0.5954542 -0.2079316 0.7760146 -0.5954542 -0.5680802 0.5680802 -0.5954576 -0.5680802 0.5680802 -0.5954576 -0.5680802 0.5680802 -0.5954576 -0.5680802 0.5680802 -0.5954577 -0.5680802 0.5680802 -0.5954577 -0.5680802 0.5680802 -0.5954577 -0.7760142 0.207934 -0.5954539 -0.7760142 0.207934 -0.5954539 -0.7760142 0.207934 -0.5954539 -0.7760127 0.2079311 -0.5954571 -0.7760127 0.2079311 -0.5954571 -0.7760127 0.2079311 -0.5954571 -0.8968096 -0.2402984 -0.3714689 -0.8968096 -0.2402984 -0.3714689 -0.8968096 -0.2402984 -0.3714689 -0.896808 -0.2402998 -0.3714719 -0.896808 -0.2402998 -0.3714719 -0.896808 -0.2402998 -0.3714719 -0.6565101 -0.6565101 -0.3714689 -0.6565101 -0.6565101 -0.3714689 -0.6565101 -0.6565101 -0.3714689 -0.6565101 -0.6565101 -0.3714689 -0.6565101 -0.6565101 -0.3714689 -0.6565101 -0.6565101 -0.3714689 -0.240298 -0.8968084 -0.3714721 -0.240298 -0.8968084 -0.3714721 -0.240298 -0.8968084 -0.3714721 -0.2403001 -0.8968091 -0.3714691 -0.2403001 -0.8968091 -0.3714691 -0.2403001 -0.8968091 -0.3714691 0.2402984 -0.8968096 -0.3714689 0.2402984 -0.8968096 -0.3714689 0.2402984 -0.8968096 -0.3714689 0.2402998 -0.896808 -0.3714719 0.2402998 -0.896808 -0.3714719 0.2402998 -0.896808 -0.3714719 0.6565101 -0.6565101 -0.3714689 0.6565101 -0.6565101 -0.3714689 0.6565101 -0.6565101 -0.3714689 0.6565101 -0.6565101 -0.3714689 0.6565101 -0.6565101 -0.3714689 0.6565101 -0.6565101 -0.3714689 0.8968084 -0.240298 -0.3714721 0.8968084 -0.240298 -0.3714721 0.8968084 -0.240298 -0.3714721 0.8968091 -0.2403001 -0.3714691 0.8968091 -0.2403001 -0.3714691 0.8968091 -0.2403001 -0.3714691 0.8968096 0.2402984 -0.3714689 0.8968096 0.2402984 -0.3714689 0.8968096 0.2402984 -0.3714689 0.896808 0.2402998 -0.3714719 0.896808 0.2402998 -0.3714719 0.896808 0.2402998 -0.3714719 0.6565101 0.6565101 -0.3714689 0.6565101 0.6565101 -0.3714689 0.6565101 0.6565101 -0.3714689 0.6565101 0.6565101 -0.3714689 0.6565101 0.6565101 -0.3714689 0.6565101 0.6565101 -0.3714689 0.240298 0.8968084 -0.3714721 0.240298 0.8968084 -0.3714721 0.240298 0.8968084 -0.3714721 0.2403001 0.8968091 -0.3714691 0.2403001 0.8968091 -0.3714691 0.2403001 0.8968091 -0.3714691 -0.2402984 0.8968096 -0.3714689 -0.2402984 0.8968096 -0.3714689 -0.2402984 0.8968096 -0.3714689 -0.2402998 0.896808 -0.3714719 -0.2402998 0.896808 -0.3714719 -0.2402998 0.896808 -0.3714719 -0.6565101 0.6565101 -0.3714689 -0.6565101 0.6565101 -0.3714689 -0.6565101 0.6565101 -0.3714689 -0.6565101 0.6565101 -0.3714689 -0.6565101 0.6565101 -0.3714689 -0.6565101 0.6565101 -0.3714689 -0.8968084 0.240298 -0.3714721 -0.8968084 0.240298 -0.3714721 -0.8968084 0.240298 -0.3714721 -0.8968091 0.2403001 -0.3714691 -0.8968091 0.2403001 -0.3714691 -0.8968091 0.2403001 -0.3714691 -0.958209 -0.2567522 -0.1261503 -0.958209 -0.2567522 -0.1261503 -0.958209 -0.2567522 -0.1261503 -0.958209 -0.256752 -0.1261499 -0.958209 -0.256752 -0.1261499 -0.958209 -0.256752 -0.1261499 -0.7014578 -0.7014578 -0.1261501 -0.7014578 -0.7014578 -0.1261501 -0.7014578 -0.7014578 -0.1261501 -0.7014578 -0.7014578 -0.1261502 -0.7014578 -0.7014578 -0.1261502 -0.7014578 -0.7014578 -0.1261502 -0.2567522 -0.958209 -0.1261499 -0.2567522 -0.958209 -0.1261499 -0.2567522 -0.958209 -0.1261499 -0.256752 -0.958209 -0.1261502 -0.256752 -0.958209 -0.1261502 -0.256752 -0.958209 -0.1261502 0.2567522 -0.958209 -0.1261503 0.2567522 -0.958209 -0.1261503 0.2567522 -0.958209 -0.1261503 0.256752 -0.958209 -0.1261499 0.256752 -0.958209 -0.1261499 0.256752 -0.958209 -0.1261499 0.7014578 -0.7014578 -0.1261501 0.7014578 -0.7014578 -0.1261501 0.7014578 -0.7014578 -0.1261501 0.7014578 -0.7014578 -0.1261502 0.7014578 -0.7014578 -0.1261502 0.7014578 -0.7014578 -0.1261502 0.958209 -0.2567522 -0.1261499 0.958209 -0.2567522 -0.1261499 0.958209 -0.2567522 -0.1261499 0.958209 -0.256752 -0.1261502 0.958209 -0.256752 -0.1261502 0.958209 -0.256752 -0.1261502 0.958209 0.2567522 -0.1261503 0.958209 0.2567522 -0.1261503 0.958209 0.2567522 -0.1261503 0.958209 0.256752 -0.1261499 0.958209 0.256752 -0.1261499 0.958209 0.256752 -0.1261499 0.7014578 0.7014578 -0.1261501 0.7014578 0.7014578 -0.1261501 0.7014578 0.7014578 -0.1261501 0.7014578 0.7014578 -0.1261502 0.7014578 0.7014578 -0.1261502 0.7014578 0.7014578 -0.1261502 0.2567522 0.958209 -0.1261499 0.2567522 0.958209 -0.1261499 0.2567522 0.958209 -0.1261499 0.256752 0.958209 -0.1261502 0.256752 0.958209 -0.1261502 0.256752 0.958209 -0.1261502 -0.2567522 0.958209 -0.1261503 -0.2567522 0.958209 -0.1261503 -0.2567522 0.958209 -0.1261503 -0.256752 0.958209 -0.1261499 -0.256752 0.958209 -0.1261499 -0.256752 0.958209 -0.1261499 -0.7014578 0.7014578 -0.1261501 -0.7014578 0.7014578 -0.1261501 -0.7014578 0.7014578 -0.1261501 -0.7014578 0.7014578 -0.1261502 -0.7014578 0.7014578 -0.1261502 -0.7014578 0.7014578 -0.1261502 -0.958209 0.2567522 -0.1261499 -0.958209 0.2567522 -0.1261499 -0.958209 0.2567522 -0.1261499 -0.958209 0.256752 -0.1261502 -0.958209 0.256752 -0.1261502 -0.958209 0.256752 -0.1261502 -0.958209 -0.256752 0.1261503 -0.958209 -0.256752 0.1261503 -0.958209 -0.256752 0.1261503 -0.9582091 -0.2567522 0.1261499 -0.9582091 -0.2567522 0.1261499 -0.9582091 -0.2567522 0.1261499 -0.7014578 -0.7014578 0.1261502 -0.7014578 -0.7014578 0.1261502 -0.7014578 -0.7014578 0.1261502 -0.7014578 -0.7014578 0.1261501 -0.7014578 -0.7014578 0.1261501 -0.7014578 -0.7014578 0.1261501 -0.256752 -0.958209 0.12615 -0.256752 -0.958209 0.12615 -0.256752 -0.958209 0.12615 -0.2567522 -0.958209 0.1261503 -0.2567522 -0.958209 0.1261503 -0.2567522 -0.958209 0.1261503 0.256752 -0.958209 0.1261503 0.256752 -0.958209 0.1261503 0.256752 -0.958209 0.1261503 0.2567522 -0.9582091 0.1261499 0.2567522 -0.9582091 0.1261499 0.2567522 -0.9582091 0.1261499 0.7014578 -0.7014578 0.1261502 0.7014578 -0.7014578 0.1261502 0.7014578 -0.7014578 0.1261502 0.7014578 -0.7014578 0.1261501 0.7014578 -0.7014578 0.1261501 0.7014578 -0.7014578 0.1261501 0.958209 -0.256752 0.12615 0.958209 -0.256752 0.12615 0.958209 -0.256752 0.12615 0.958209 -0.2567522 0.1261503 0.958209 -0.2567522 0.1261503 0.958209 -0.2567522 0.1261503 0.958209 0.256752 0.1261503 0.958209 0.256752 0.1261503 0.958209 0.256752 0.1261503 0.9582091 0.2567522 0.1261499 0.9582091 0.2567522 0.1261499 0.9582091 0.2567522 0.1261499 0.7014578 0.7014578 0.1261502 0.7014578 0.7014578 0.1261502 0.7014578 0.7014578 0.1261502 0.7014578 0.7014578 0.1261501 0.7014578 0.7014578 0.1261501 0.7014578 0.7014578 0.1261501 0.256752 0.958209 0.12615 0.256752 0.958209 0.12615 0.256752 0.958209 0.12615 0.2567522 0.958209 0.1261503 0.2567522 0.958209 0.1261503 0.2567522 0.958209 0.1261503 -0.256752 0.958209 0.1261503 -0.256752 0.958209 0.1261503 -0.256752 0.958209 0.1261503 -0.2567522 0.9582091 0.1261499 -0.2567522 0.9582091 0.1261499 -0.2567522 0.9582091 0.1261499 -0.7014578 0.7014578 0.1261502 -0.7014578 0.7014578 0.1261502 -0.7014578 0.7014578 0.1261502 -0.7014578 0.7014578 0.1261501 -0.7014578 0.7014578 0.1261501 -0.7014578 0.7014578 0.1261501 -0.958209 0.256752 0.12615 -0.958209 0.256752 0.12615 -0.958209 0.256752 0.12615 -0.958209 0.2567522 0.1261503 -0.958209 0.2567522 0.1261503 -0.958209 0.2567522 0.1261503 -0.8968091 -0.2403001 0.3714691 -0.8968091 -0.2403001 0.3714691 -0.8968091 -0.2403001 0.3714691 -0.8968084 -0.240298 0.3714722 -0.8968084 -0.240298 0.3714722 -0.8968084 -0.240298 0.3714722 -0.65651 -0.65651 0.371469 -0.65651 -0.65651 0.371469 -0.65651 -0.65651 0.371469 -0.65651 -0.65651 0.3714689 -0.65651 -0.65651 0.3714689 -0.65651 -0.65651 0.3714689 -0.2402998 -0.896808 0.371472 -0.2402998 -0.896808 0.371472 -0.2402998 -0.896808 0.371472 -0.2402984 -0.8968096 0.371469 -0.2402984 -0.8968096 0.371469 -0.2402984 -0.8968096 0.371469 0.2403001 -0.8968091 0.3714691 0.2403001 -0.8968091 0.3714691 0.2403001 -0.8968091 0.3714691 0.240298 -0.8968084 0.3714722 0.240298 -0.8968084 0.3714722 0.240298 -0.8968084 0.3714722 0.65651 -0.65651 0.371469 0.65651 -0.65651 0.371469 0.65651 -0.65651 0.371469 0.65651 -0.65651 0.3714689 0.65651 -0.65651 0.3714689 0.65651 -0.65651 0.3714689 0.896808 -0.2402998 0.371472 0.896808 -0.2402998 0.371472 0.896808 -0.2402998 0.371472 0.8968096 -0.2402984 0.371469 0.8968096 -0.2402984 0.371469 0.8968096 -0.2402984 0.371469 0.8968091 0.2403001 0.3714691 0.8968091 0.2403001 0.3714691 0.8968091 0.2403001 0.3714691 0.8968084 0.240298 0.3714722 0.8968084 0.240298 0.3714722 0.8968084 0.240298 0.3714722 0.65651 0.65651 0.371469 0.65651 0.65651 0.371469 0.65651 0.65651 0.371469 0.65651 0.65651 0.3714689 0.65651 0.65651 0.3714689 0.65651 0.65651 0.3714689 0.2402998 0.896808 0.371472 0.2402998 0.896808 0.371472 0.2402998 0.896808 0.371472 0.2402984 0.8968096 0.371469 0.2402984 0.8968096 0.371469 0.2402984 0.8968096 0.371469 -0.2403001 0.8968091 0.3714691 -0.2403001 0.8968091 0.3714691 -0.2403001 0.8968091 0.3714691 -0.240298 0.8968084 0.3714722 -0.240298 0.8968084 0.3714722 -0.240298 0.8968084 0.3714722 -0.65651 0.65651 0.371469 -0.65651 0.65651 0.371469 -0.65651 0.65651 0.371469 -0.65651 0.65651 0.3714689 -0.65651 0.65651 0.3714689 -0.65651 0.65651 0.3714689 -0.896808 0.2402998 0.371472 -0.896808 0.2402998 0.371472 -0.896808 0.2402998 0.371472 -0.8968096 0.2402984 0.371469 -0.8968096 0.2402984 0.371469 -0.8968096 0.2402984 0.371469 -0.7760128 -0.2079311 0.595457 -0.7760128 -0.2079311 0.595457 -0.7760128 -0.2079311 0.595457 -0.7760143 -0.2079341 0.5954539 -0.7760143 -0.2079341 0.5954539 -0.7760143 -0.2079341 0.5954539 -0.5680802 -0.5680802 0.5954576 -0.5680802 -0.5680802 0.5954576 -0.5680802 -0.5680802 0.5954576 -0.5680802 -0.5680802 0.5954576 -0.5680802 -0.5680802 0.5954576 -0.5680802 -0.5680802 0.5954576 -0.2079316 -0.7760147 0.5954542 -0.2079316 -0.7760147 0.5954542 -0.2079316 -0.7760147 0.5954542 -0.2079334 -0.7760118 0.5954573 -0.2079334 -0.7760118 0.5954573 -0.2079334 -0.7760118 0.5954573 0.2079311 -0.7760128 0.595457 0.2079311 -0.7760128 0.595457 0.2079311 -0.7760128 0.595457 0.2079341 -0.7760143 0.5954539 0.2079341 -0.7760143 0.5954539 0.2079341 -0.7760143 0.5954539 0.5680802 -0.5680802 0.5954576 0.5680802 -0.5680802 0.5954576 0.5680802 -0.5680802 0.5954576 0.5680802 -0.5680802 0.5954576 0.5680802 -0.5680802 0.5954576 0.5680802 -0.5680802 0.5954576 0.7760147 -0.2079316 0.5954542 0.7760147 -0.2079316 0.5954542 0.7760147 -0.2079316 0.5954542 0.7760118 -0.2079334 0.5954573 0.7760118 -0.2079334 0.5954573 0.7760118 -0.2079334 0.5954573 0.7760128 0.2079311 0.595457 0.7760128 0.2079311 0.595457 0.7760128 0.2079311 0.595457 0.7760143 0.2079341 0.5954539 0.7760143 0.2079341 0.5954539 0.7760143 0.2079341 0.5954539 0.5680802 0.5680802 0.5954576 0.5680802 0.5680802 0.5954576 0.5680802 0.5680802 0.5954576 0.5680802 0.5680802 0.5954576 0.5680802 0.5680802 0.5954576 0.5680802 0.5680802 0.5954576 0.2079316 0.7760147 0.5954542 0.2079316 0.7760147 0.5954542 0.2079316 0.7760147 0.5954542 0.2079334 0.7760118 0.5954573 0.2079334 0.7760118 0.5954573 0.2079334 0.7760118 0.5954573 -0.2079311 0.7760128 0.595457 -0.2079311 0.7760128 0.595457 -0.2079311 0.7760128 0.595457 -0.2079341 0.7760143 0.5954539 -0.2079341 0.7760143 0.5954539 -0.2079341 0.7760143 0.5954539 -0.5680802 0.5680802 0.5954576 -0.5680802 0.5680802 0.5954576 -0.5680802 0.5680802 0.5954576 -0.5680802 0.5680802 0.5954576 -0.5680802 0.5680802 0.5954576 -0.5680802 0.5680802 0.5954576 -0.7760147 0.2079316 0.5954542 -0.7760147 0.2079316 0.5954542 -0.7760147 0.2079316 0.5954542 -0.7760118 0.2079334 0.5954573 -0.7760118 0.2079334 0.5954573 -0.7760118 0.2079334 0.5954573 -0.6008204 -0.1609906 0.7830051 -0.6008204 -0.1609906 0.7830051 -0.6008204 -0.1609906 0.7830051 -0.600819 -0.1609882 0.7830065 -0.600819 -0.1609882 0.7830065 -0.600819 -0.1609882 0.7830065 -0.4398314 -0.4398314 0.7830049 -0.4398314 -0.4398314 0.7830049 -0.4398314 -0.4398314 0.7830049 -0.4398313 -0.4398313 0.7830049 -0.4398313 -0.4398313 0.7830049 -0.4398313 -0.4398313 0.7830049 -0.1609902 -0.6008188 0.7830063 -0.1609902 -0.6008188 0.7830063 -0.1609902 -0.6008188 0.7830063 -0.1609887 -0.6008212 0.7830048 -0.1609887 -0.6008212 0.7830048 -0.1609887 -0.6008212 0.7830048 0.1609906 -0.6008204 0.7830051 0.1609906 -0.6008204 0.7830051 0.1609906 -0.6008204 0.7830051 0.1609882 -0.600819 0.7830065 0.1609882 -0.600819 0.7830065 0.1609882 -0.600819 0.7830065 0.4398314 -0.4398314 0.7830049 0.4398314 -0.4398314 0.7830049 0.4398314 -0.4398314 0.7830049 0.4398313 -0.4398313 0.7830049 0.4398313 -0.4398313 0.7830049 0.4398313 -0.4398313 0.7830049 0.6008188 -0.1609902 0.7830063 0.6008188 -0.1609902 0.7830063 0.6008188 -0.1609902 0.7830063 0.6008212 -0.1609887 0.7830048 0.6008212 -0.1609887 0.7830048 0.6008212 -0.1609887 0.7830048 0.6008204 0.1609906 0.7830051 0.6008204 0.1609906 0.7830051 0.6008204 0.1609906 0.7830051 0.600819 0.1609882 0.7830065 0.600819 0.1609882 0.7830065 0.600819 0.1609882 0.7830065 0.4398314 0.4398314 0.7830049 0.4398314 0.4398314 0.7830049 0.4398314 0.4398314 0.7830049 0.4398313 0.4398313 0.7830049 0.4398313 0.4398313 0.7830049 0.4398313 0.4398313 0.7830049 0.1609902 0.6008188 0.7830063 0.1609902 0.6008188 0.7830063 0.1609902 0.6008188 0.7830063 0.1609887 0.6008212 0.7830048 0.1609887 0.6008212 0.7830048 0.1609887 0.6008212 0.7830048 -0.1609906 0.6008204 0.7830051 -0.1609906 0.6008204 0.7830051 -0.1609906 0.6008204 0.7830051 -0.1609882 0.600819 0.7830065 -0.1609882 0.600819 0.7830065 -0.1609882 0.600819 0.7830065 -0.4398314 0.4398314 0.7830049 -0.4398314 0.4398314 0.7830049 -0.4398314 0.4398314 0.7830049 -0.4398313 0.4398313 0.7830049 -0.4398313 0.4398313 0.7830049 -0.4398313 0.4398313 0.7830049 -0.6008188 0.1609902 0.7830063 -0.6008188 0.1609902 0.7830063 -0.6008188 0.1609902 0.7830063 -0.6008212 0.1609887 0.7830048 -0.6008212 0.1609887 0.7830048 -0.6008212 0.1609887 0.7830048 -0.3806894 -0.1020049 0.9190596 -0.3806894 -0.1020049 0.9190596 -0.3806894 -0.1020049 0.9190596 -0.3806892 -0.1020045 0.9190598 -0.3806892 -0.1020045 0.9190598 -0.3806892 -0.1020045 0.9190598 -0.278684 -0.278684 0.9190595 -0.278684 -0.278684 0.9190595 -0.278684 -0.278684 0.9190595 -0.278684 -0.278684 0.9190595 -0.278684 -0.278684 0.9190595 -0.278684 -0.278684 0.9190595 -0.1020049 -0.3806892 0.9190597 -0.1020049 -0.3806892 0.9190597 -0.1020049 -0.3806892 0.9190597 -0.1020046 -0.3806896 0.9190596 -0.1020046 -0.3806896 0.9190596 -0.1020046 -0.3806896 0.9190596 0.1020049 -0.3806894 0.9190596 0.1020049 -0.3806894 0.9190596 0.1020049 -0.3806894 0.9190596 0.1020045 -0.3806892 0.9190598 0.1020045 -0.3806892 0.9190598 0.1020045 -0.3806892 0.9190598 0.278684 -0.278684 0.9190595 0.278684 -0.278684 0.9190595 0.278684 -0.278684 0.9190595 0.278684 -0.278684 0.9190595 0.278684 -0.278684 0.9190595 0.278684 -0.278684 0.9190595 0.3806892 -0.1020049 0.9190597 0.3806892 -0.1020049 0.9190597 0.3806892 -0.1020049 0.9190597 0.3806896 -0.1020046 0.9190596 0.3806896 -0.1020046 0.9190596 0.3806896 -0.1020046 0.9190596 0.3806894 0.1020049 0.9190596 0.3806894 0.1020049 0.9190596 0.3806894 0.1020049 0.9190596 0.3806892 0.1020045 0.9190598 0.3806892 0.1020045 0.9190598 0.3806892 0.1020045 0.9190598 0.278684 0.278684 0.9190595 0.278684 0.278684 0.9190595 0.278684 0.278684 0.9190595 0.278684 0.278684 0.9190595 0.278684 0.278684 0.9190595 0.278684 0.278684 0.9190595 0.1020049 0.3806892 0.9190597 0.1020049 0.3806892 0.9190597 0.1020049 0.3806892 0.9190597 0.1020046 0.3806896 0.9190596 0.1020046 0.3806896 0.9190596 0.1020046 0.3806896 0.9190596 -0.1020049 0.3806894 0.9190596 -0.1020049 0.3806894 0.9190596 -0.1020049 0.3806894 0.9190596 -0.1020045 0.3806892 0.9190598 -0.1020045 0.3806892 0.9190598 -0.1020045 0.3806892 0.9190598 -0.278684 0.278684 0.9190595 -0.278684 0.278684 0.9190595 -0.278684 0.278684 0.9190595 -0.278684 0.278684 0.9190595 -0.278684 0.278684 0.9190595 -0.278684 0.278684 0.9190595 -0.3806892 0.1020049 0.9190597 -0.3806892 0.1020049 0.9190597 -0.3806892 0.1020049 0.9190597 -0.3806896 0.1020046 0.9190596 -0.3806896 0.1020046 0.9190596 -0.3806896 0.1020046 0.9190596 -0.1304458 -0.0349525 0.9908391 -0.1304458 -0.0349525 0.9908391 -0.1304458 -0.0349525 0.9908391 1.0 0.0 0.0 1.0 0.0 0.0 -0.0954928 -0.0954928 0.9908392 -0.0954928 -0.0954928 0.9908392 -0.0954928 -0.0954928 0.9908392 1.0 0.0 0.0 1.0 0.0 0.0 -0.0349525 -0.1304458 0.9908391 -0.0349525 -0.1304458 0.9908391 -0.0349525 -0.1304458 0.9908391 1.0 0.0 0.0 1.0 0.0 0.0 0.0349525 -0.1304458 0.9908391 0.0349525 -0.1304458 0.9908391 0.0349525 -0.1304458 0.9908391 1.0 0.0 0.0 1.0 0.0 0.0 0.0954928 -0.0954928 0.9908392 0.0954928 -0.0954928 0.9908392 0.0954928 -0.0954928 0.9908392 1.0 0.0 0.0 1.0 0.0 0.0 0.1304458 -0.0349525 0.9908391 0.1304458 -0.0349525 0.9908391 0.1304458 -0.0349525 0.9908391 1.0 0.0 0.0 1.0 0.0 0.0 0.1304458 0.0349525 0.9908391 0.1304458 0.0349525 0.9908391 0.1304458 0.0349525 0.9908391 1.0 0.0 0.0 1.0 0.0 0.0 0.0954928 0.0954928 0.9908392 0.0954928 0.0954928 0.9908392 0.0954928 0.0954928 0.9908392 1.0 0.0 0.0 1.0 0.0 0.0 0.0349525 0.1304458 0.9908391 0.0349525 0.1304458 0.9908391 0.0349525 0.1304458 0.9908391 1.0 0.0 0.0 1.0 0.0 0.0 -0.0349525 0.1304458 0.9908391 -0.0349525 0.1304458 0.9908391 -0.0349525 0.1304458 0.9908391 1.0 0.0 0.0 1.0 0.0 0.0 -0.0954928 0.0954928 0.9908392 -0.0954928 0.0954928 0.9908392 -0.0954928 0.0954928 0.9908392 1.0 0.0 0.0 1.0 0.0 0.0 -0.1304458 0.0349525 0.9908391 -0.1304458 0.0349525 0.9908391 -0.1304458 0.0349525 0.9908391 1.0 0.0 0.0 1.0 0.0 0.0 1.0 0.0 0.0 1.0 0.0 0.0 -0.1304453 -0.0349524 -0.9908392 -0.1304453 -0.0349524 -0.9908392 -0.1304453 -0.0349524 -0.9908392 1.0 0.0 0.0 1.0 0.0 0.0 -0.0954924 -0.0954924 -0.9908392 -0.0954924 -0.0954924 -0.9908392 -0.0954924 -0.0954924 -0.9908392 1.0 0.0 0.0 1.0 0.0 0.0 -0.0349524 -0.1304453 -0.9908392 -0.0349524 -0.1304453 -0.9908392 -0.0349524 -0.1304453 -0.9908392 1.0 0.0 0.0 1.0 0.0 0.0 0.0349524 -0.1304453 -0.9908392 0.0349524 -0.1304453 -0.9908392 0.0349524 -0.1304453 -0.9908392 1.0 0.0 0.0 1.0 0.0 0.0 0.0954924 -0.0954924 -0.9908392 0.0954924 -0.0954924 -0.9908392 0.0954924 -0.0954924 -0.9908392 1.0 0.0 0.0 1.0 0.0 0.0 0.1304453 -0.0349524 -0.9908392 0.1304453 -0.0349524 -0.9908392 0.1304453 -0.0349524 -0.9908392 1.0 0.0 0.0 1.0 0.0 0.0 0.1304453 0.0349524 -0.9908392 0.1304453 0.0349524 -0.9908392 0.1304453 0.0349524 -0.9908392 1.0 0.0 0.0 1.0 0.0 0.0 0.0954924 0.0954924 -0.9908392 0.0954924 0.0954924 -0.9908392 0.0954924 0.0954924 -0.9908392 1.0 0.0 0.0 1.0 0.0 0.0 0.0349524 0.1304453 -0.9908392 0.0349524 0.1304453 -0.9908392 0.0349524 0.1304453 -0.9908392 1.0 0.0 0.0 1.0 0.0 0.0 -0.0349524 0.1304453 -0.9908392 -0.0349524 0.1304453 -0.9908392 -0.0349524 0.1304453 -0.9908392 1.0 0.0 0.0 1.0 0.0 0.0 -0.0954924 0.0954924 -0.9908392 -0.0954924 0.0954924 -0.9908392 -0.0954924 0.0954924 -0.9908392 1.0 0.0 0.0 1.0 0.0 0.0 -0.1304453 0.0349524 -0.9908392 -0.1304453 0.0349524 -0.9908392 -0.1304453 0.0349524 -0.9908392 -0.3806896 -0.1020046 -0.9190596 -0.3806896 -0.1020046 -0.9190596 -0.3806896 -0.1020046 -0.9190596 -0.3806892 -0.1020049 -0.9190597 -0.3806892 -0.1020049 -0.9190597 -0.3806892 -0.1020049 -0.9190597 -0.2786841 -0.2786841 -0.9190595 -0.2786841 -0.2786841 -0.9190595 -0.2786841 -0.2786841 -0.9190595 -0.2786841 -0.2786841 -0.9190595 -0.2786841 -0.2786841 -0.9190595 -0.2786841 -0.2786841 -0.9190595 -0.1020045 -0.3806893 -0.9190598 -0.1020045 -0.3806893 -0.9190598 -0.1020045 -0.3806893 -0.9190598 -0.1020049 -0.3806894 -0.9190597 -0.1020049 -0.3806894 -0.9190597 -0.1020049 -0.3806894 -0.9190597 0.1020046 -0.3806896 -0.9190596 0.1020046 -0.3806896 -0.9190596 0.1020046 -0.3806896 -0.9190596 0.1020049 -0.3806892 -0.9190597 0.1020049 -0.3806892 -0.9190597 0.1020049 -0.3806892 -0.9190597 0.2786841 -0.2786841 -0.9190595 0.2786841 -0.2786841 -0.9190595 0.2786841 -0.2786841 -0.9190595 0.2786841 -0.2786841 -0.9190595 0.2786841 -0.2786841 -0.9190595 0.2786841 -0.2786841 -0.9190595 0.3806893 -0.1020045 -0.9190598 0.3806893 -0.1020045 -0.9190598 0.3806893 -0.1020045 -0.9190598 0.3806894 -0.1020049 -0.9190597 0.3806894 -0.1020049 -0.9190597 0.3806894 -0.1020049 -0.9190597 0.3806896 0.1020046 -0.9190596 0.3806896 0.1020046 -0.9190596 0.3806896 0.1020046 -0.9190596 0.3806892 0.1020049 -0.9190597 0.3806892 0.1020049 -0.9190597 0.3806892 0.1020049 -0.9190597 0.2786841 0.2786841 -0.9190595 0.2786841 0.2786841 -0.9190595 0.2786841 0.2786841 -0.9190595 0.2786841 0.2786841 -0.9190595 0.2786841 0.2786841 -0.9190595 0.2786841 0.2786841 -0.9190595 0.1020045 0.3806893 -0.9190598 0.1020045 0.3806893 -0.9190598 0.1020045 0.3806893 -0.9190598 0.1020049 0.3806894 -0.9190597 0.1020049 0.3806894 -0.9190597 0.1020049 0.3806894 -0.9190597 -0.1020046 0.3806896 -0.9190596 -0.1020046 0.3806896 -0.9190596 -0.1020046 0.3806896 -0.9190596 -0.1020049 0.3806892 -0.9190597 -0.1020049 0.3806892 -0.9190597 -0.1020049 0.3806892 -0.9190597 -0.2786841 0.2786841 -0.9190595 -0.2786841 0.2786841 -0.9190595 -0.2786841 0.2786841 -0.9190595 -0.2786841 0.2786841 -0.9190595 -0.2786841 0.2786841 -0.9190595 -0.2786841 0.2786841 -0.9190595 -0.3806893 0.1020045 -0.9190598 -0.3806893 0.1020045 -0.9190598 -0.3806893 0.1020045 -0.9190598 -0.3806894 0.1020049 -0.9190597 -0.3806894 0.1020049 -0.9190597 -0.3806894 0.1020049 -0.9190597 -0.6008213 -0.1609888 -0.7830047 -0.6008213 -0.1609888 -0.7830047 -0.6008213 -0.1609888 -0.7830047 -0.6008189 -0.1609902 -0.7830063 -0.6008189 -0.1609902 -0.7830063 -0.6008189 -0.1609902 -0.7830063 -0.4398314 -0.4398314 -0.7830049 -0.4398314 -0.4398314 -0.7830049 -0.4398314 -0.4398314 -0.7830049 -0.4398314 -0.4398314 -0.7830049 -0.4398314 -0.4398314 -0.7830049 -0.4398314 -0.4398314 -0.7830049 -0.1609882 -0.6008191 -0.7830066 -0.1609882 -0.6008191 -0.7830066 -0.1609882 -0.6008191 -0.7830066 -0.1609906 -0.6008204 -0.783005 -0.1609906 -0.6008204 -0.783005 -0.1609906 -0.6008204 -0.783005 0.1609888 -0.6008213 -0.7830047 0.1609888 -0.6008213 -0.7830047 0.1609888 -0.6008213 -0.7830047 0.1609902 -0.6008189 -0.7830063 0.1609902 -0.6008189 -0.7830063 0.1609902 -0.6008189 -0.7830063 0.4398314 -0.4398314 -0.7830049 0.4398314 -0.4398314 -0.7830049 0.4398314 -0.4398314 -0.7830049 0.4398314 -0.4398314 -0.7830049 0.4398314 -0.4398314 -0.7830049 0.4398314 -0.4398314 -0.7830049 0.6008191 -0.1609882 -0.7830066 0.6008191 -0.1609882 -0.7830066 0.6008191 -0.1609882 -0.7830066 0.6008204 -0.1609906 -0.783005 0.6008204 -0.1609906 -0.783005 0.6008204 -0.1609906 -0.783005 0.6008213 0.1609888 -0.7830047 0.6008213 0.1609888 -0.7830047 0.6008213 0.1609888 -0.7830047 0.6008189 0.1609902 -0.7830063 0.6008189 0.1609902 -0.7830063 0.6008189 0.1609902 -0.7830063 0.4398314 0.4398314 -0.7830049 0.4398314 0.4398314 -0.7830049 0.4398314 0.4398314 -0.7830049 0.4398314 0.4398314 -0.7830049 0.4398314 0.4398314 -0.7830049 0.4398314 0.4398314 -0.7830049 0.1609882 0.6008191 -0.7830066 0.1609882 0.6008191 -0.7830066 0.1609882 0.6008191 -0.7830066 0.1609906 0.6008204 -0.783005 0.1609906 0.6008204 -0.783005 0.1609906 0.6008204 -0.783005 -0.1609888 0.6008213 -0.7830047 -0.1609888 0.6008213 -0.7830047 -0.1609888 0.6008213 -0.7830047 -0.1609902 0.6008189 -0.7830063 -0.1609902 0.6008189 -0.7830063 -0.1609902 0.6008189 -0.7830063 -0.4398314 0.4398314 -0.7830049 -0.4398314 0.4398314 -0.7830049 -0.4398314 0.4398314 -0.7830049 -0.4398314 0.4398314 -0.7830049 -0.4398314 0.4398314 -0.7830049 -0.4398314 0.4398314 -0.7830049 -0.6008191 0.1609882 -0.7830066 -0.6008191 0.1609882 -0.7830066 -0.6008191 0.1609882 -0.7830066 -0.6008204 0.1609906 -0.783005 -0.6008204 0.1609906 -0.783005 -0.6008204 0.1609906 -0.783005</float_array>
                    <technique_common>
                        <accessor count="840" source="#geometry0-normal-array" stride="3">
                            <param name="X" type="float"/>
                            <param name="Y" type="float"/>
                            <param name="Z" type="float"/>
                        </accessor>
                    </technique_common>
                </source>
                <vertices id="geometry0-vertex">
                    <input semantic="POSITION" source="#geometry0-position"/>
                </vertices>
                <triangles count="288" material="default_ai_0.2_sh_0.2_tr_0.0_dc_r_0.8_g_0.8_b_0.8_sc_r_1.0_g_1.0_b_1.0_ec_r_0.0_g_0.0_b_0_tri">
                    <input offset="0" semantic="VERTEX" source="#geometry0-vertex"/>
                    <input offset="1" semantic="NORMAL" source="#geometry0-normal"/>
                    <p>26 0 25 1 37 2 26 3 37 4 38 5 25 6 27 7 39 8 25 9 39 10 37 11 27 12 28 13 40 14 27 15 40 16 39 17 28 18 29 19 41 20 28 21 41 22 40 23 29 24 30 25 42 26 29 27 42 28 41 29 30 30 31 31 43 32 30 33 43 34 42 35 31 36 32 37 44 38 31 39 44 40 43 41 32 42 33 43 45 44 32 45 45 46 44 47 33 48 34 49 46 50 33 51 46 52 45 53 34 54 35 55 47 56 34 57 47 58 46 59 35 60 36 61 48 62 35 63 48 64 47 65 36 66 26 67 38 68 36 69 38 70 48 71 38 72 37 73 49 74 38 75 49 76 50 77 37 78 39 79 51 80 37 81 51 82 49 83 39 84 40 85 52 86 39 87 52 88 51 89 40 90 41 91 53 92 40 93 53 94 52 95 41 96 42 97 54 98 41 99 54 100 53 101 42 102 43 103 55 104 42 105 55 106 54 107 43 108 44 109 56 110 43 111 56 112 55 113 44 114 45 115 57 116 44 117 57 118 56 119 45 120 46 121 58 122 45 123 58 124 57 125 46 126 47 127 59 128 46 129 59 130 58 131 47 132 48 133 60 134 47 135 60 136 59 137 48 138 38 139 50 140 48 141 50 142 60 143 50 144 49 145 61 146 50 147 61 148 62 149 49 150 51 151 63 152 49 153 63 154 61 155 51 156 52 157 64 158 51 159 64 160 63 161 52 162 53 163 65 164 52 165 65 166 64 167 53 168 54 169 66 170 53 171 66 172 65 173 54 174 55 175 67 176 54 177 67 178 66 179 55 180 56 181 68 182 55 183 68 184 67 185 56 186 57 187 69 188 56 189 69 190 68 191 57 192 58 193 70 194 57 195 70 196 69 197 58 198 59 199 71 200 58 201 71 202 70 203 59 204 60 205 72 206 59 207 72 208 71 209 60 210 50 211 62 212 60 213 62 214 72 215 62 216 61 217 73 218 62 219 73 220 74 221 61 222 63 223 75 224 61 225 75 226 73 227 63 228 64 229 76 230 63 231 76 232 75 233 64 234 65 235 77 236 64 237 77 238 76 239 65 240 66 241 78 242 65 243 78 244 77 245 66 246 67 247 79 248 66 249 79 250 78 251 67 252 68 253 80 254 67 255 80 256 79 257 68 258 69 259 81 260 68 261 81 262 80 263 69 264 70 265 82 266 69 267 82 268 81 269 70 270 71 271 83 272 70 273 83 274 82 275 71 276 72 277 84 278 71 279 84 280 83 281 72 282 62 283 74 284 72 285 74 286 84 287 74 288 73 289 85 290 74 291 85 292 86 293 73 294 75 295 87 296 73 297 87 298 85 299 75 300 76 301 88 302 75 303 88 304 87 305 76 306 77 307 89 308 76 309 89 310 88 311 77 312 78 313 90 314 77 315 90 316 89 317 78 318 79 319 91 320 78 321 91 322 90 323 79 324 80 325 92 326 79 327 92 328 91 329 80 330 81 331 93 332 80 333 93 334 92 335 81 336 82 337 94 338 81 339 94 340 93 341 82 342 83 343 95 344 82 345 95 346 94 347 83 348 84 349 96 350 83 351 96 352 95 353 84 354 74 355 86 356 84 357 86 358 96 359 86 360 85 361 97 362 86 363 97 364 98 365 85 366 87 367 99 368 85 369 99 370 97 371 87 372 88 373 100 374 87 375 100 376 99 377 88 378 89 379 101 380 88 381 101 382 100 383 89 384 90 385 102 386 89 387 102 388 101 389 90 390 91 391 103 392 90 393 103 394 102 395 91 396 92 397 104 398 91 399 104 400 103 401 92 402 93 403 105 404 92 405 105 406 104 407 93 408 94 409 106 410 93 411 106 412 105 413 94 414 95 415 107 416 94 417 107 418 106 419 95 420 96 421 108 422 95 423 108 424 107 425 96 426 86 427 98 428 96 429 98 430 108 431 98 432 97 433 109 434 98 435 109 436 110 437 97 438 99 439 111 440 97 441 111 442 109 443 99 444 100 445 112 446 99 447 112 448 111 449 100 450 101 451 113 452 100 453 113 454 112 455 101 456 102 457 114 458 101 459 114 460 113 461 102 462 103 463 115 464 102 465 115 466 114 467 103 468 104 469 116 470 103 471 116 472 115 473 104 474 105 475 117 476 104 477 117 478 116 479 105 480 106 481 118 482 105 483 118 484 117 485 106 486 107 487 119 488 106 489 119 490 118 491 107 492 108 493 120 494 107 495 120 496 119 497 108 498 98 499 110 500 108 501 110 502 120 503 110 504 109 505 121 506 110 507 121 508 122 509 109 510 111 511 123 512 109 513 123 514 121 515 111 516 112 517 124 518 111 519 124 520 123 521 112 522 113 523 125 524 112 525 125 526 124 527 113 528 114 529 126 530 113 531 126 532 125 533 114 534 115 535 127 536 114 537 127 538 126 539 115 540 116 541 128 542 115 543 128 544 127 545 116 546 117 547 129 548 116 549 129 550 128 551 117 552 118 553 130 554 117 555 130 556 129 557 118 558 119 559 131 560 118 561 131 562 130 563 119 564 120 565 132 566 119 567 132 568 131 569 120 570 110 571 122 572 120 573 122 574 132 575 122 576 121 577 133 578 122 579 133 580 133 580 121 581 123 582 133 583 121 584 133 585 133 585 123 586 124 587 133 588 123 589 133 590 133 590 124 591 125 592 133 593 124 594 133 595 133 595 125 596 126 597 133 598 125 599 133 600 133 600 126 601 127 602 133 603 126 604 133 605 133 605 127 606 128 607 133 608 127 609 133 610 133 610 128 611 129 612 133 613 128 614 133 615 133 615 129 616 130 617 133 618 129 619 133 620 133 620 130 621 131 622 133 623 130 624 133 625 133 625 131 626 132 627 133 628 131 629 133 630 133 630 132 631 122 632 133 633 132 634 133 635 133 635 0 636 0 636 1 637 0 638 1 639 2 640 0 641 0 641 3 642 0 643 3 644 1 645 0 646 0 646 4 647 0 648 4 649 3 650 0 651 0 651 5 652 0 653 5 654 4 655 0 656 0 656 6 657 0 658 6 659 5 660 0 661 0 661 7 662 0 663 7 664 6 665 0 666 0 666 8 667 0 668 8 669 7 670 0 671 0 671 9 672 0 673 9 674 8 675 0 676 0 676 10 677 0 678 10 679 9 680 0 681 0 681 11 682 0 683 11 684 10 685 0 686 0 686 12 687 0 688 12 689 11 690 0 691 0 691 2 692 0 693 2 694 12 695 2 696 1 697 13 698 2 699 13 700 14 701 1 702 3 703 15 704 1 705 15 706 13 707 3 708 4 709 16 710 3 711 16 712 15 713 4 714 5 715 17 716 4 717 17 718 16 719 5 720 6 721 18 722 5 723 18 724 17 725 6 726 7 727 19 728 6 729 19 730 18 731 7 732 8 733 20 734 7 735 20 736 19 737 8 738 9 739 21 740 8 741 21 742 20 743 9 744 10 745 22 746 9 747 22 748 21 749 10 750 11 751 23 752 10 753 23 754 22 755 11 756 12 757 24 758 11 759 24 760 23 761 12 762 2 763 14 764 12 765 14 766 24 767 14 768 13 769 25 770 14 771 25 772 26 773 13 774 15 775 27 776 13 777 27 778 25 779 15 780 16 781 28 782 15 783 28 784 27 785 16 786 17 787 29 788 16 789 29 790 28 791 17 792 18 793 30 794 17 795 30 796 29 797 18 798 19 799 31 800 18 801 31 802 30 803 19 804 20 805 32 806 19 807 32 808 31 809 20 810 21 811 33 812 20 813 33 814 32 815 21 816 22 817 34 818 21 819 34 820 33 821 22 822 23 823 35 824 22 825 35 826 34 827 23 828 24 829 36 830 23 831 36 832 35 833 24 834 14 835 26 836 24 837 26 838 36 839</p>
                </triangles>
            </mesh>
        </geometry>
    </library_geometries>
    <library_visual_scenes>
        <visual_scene id="Building_238_CROWN2">
            <node>
                <instance_geometry url="#geometry0">
                    <bind_material>
                        <technique_common>
                            <instance_material symbol="default_ai_0.2_sh_0.2_tr_0.0_dc_r_0.8_g_0.8_b_0.8_sc_r_1.0_g_1.0_b_1.0_ec_r_0.0_g_0.0_b_0_tri" target="#default_ai_0.2_sh_0.2_tr_0.0_dc_r_0.8_g_0.8_b_0.8_sc_r_1.0_g_1.0_b_1.0_ec_r_0.0_g_0.0_b_0_mat"/>
                        </technique_common>
                    </bind_material>
                </instance_geometry>
            </node>
        </visual_scene>
    </library_visual_scenes>
    <scene>
        <instance_visual_scene url="#Building_238_CROWN2"/>
    </scene>
</COLLADA>
