<?xml version="1.0" encoding="UTF-8" standalone="yes"?>
<COLLADA xmlns="http://www.collada.org/2005/11/COLLADASchema" version="1.4.1">
    <asset>
        <contributor>
            <authoring_tool>3D City Database Importer/Exporter, version 5.5.3; Chair of Geoinformatics, Technical University of Munich</authoring_tool>
        </contributor>
        <created>2026-09-25T14:45:09.049</created>
        <modified>2026-09-25T14:45:09.049</modified>
        <unit meter="1.0" name="meters"/>
        <up_axis>Z_UP</up_axis>
    </asset>
    <library_materials>
        <material id="default_ai_0.2_sh_0.2_tr_0.0_dc_r_0.8_g_0.8_b_0.8_sc_r_1.0_g_1.0_b_1.0_ec_r_0.0_g_0.0_b_0_mat">
            <instance_effect url="#default_ai_0.2_sh_0.2_tr_0.0_dc_r_0.8_g_0.8_b_0.8_sc_r_1.0_g_1.0_b_1.0_ec_r_0.0_g_0.0_b_0_eff"/>
        </material>
    </library_materials>
    <library_effects>
        <effect id="default_ai_0.2_sh_0.2_tr_0.0_dc_r_0.8_g_0.8_b_0.8_sc_r_1.0_g_1.0_b_1.0_ec_r_0.0_g_0.0_b_0_eff">
            <profile_COMMON>
                <technique sid="COMMON">
                    <lambert>
                        <emission>
                            <color>0.0 0.0 0.0 1.0</color>
                        </emission>
                        <diffuse>
                            <color>0.8 0.8 0.8 1.0</color>
                        </diffuse>
                        <reflective>
                            <color>1.0 1.0 1.0 1.0</color>
                        </reflective>
                        <reflectivity>
                            <float>0.2</float>
                        </reflectivity>
                        <transparent opaque="A_ONE">
                            <color>1.0 1.0 1.0 1.0</color>
                        </transparent>
                        <transparency>
                            <float>1.0</float>
                        </transparency>
                    </lambert>
                </technique>
                <extra>
                    <technique profile="GOOGLEEARTH">
                        <double_sided>0</double_sided>
                    </technique>
                </extra>
            </profile_COMMON>
        </effect>
    </library_effects>
    <library_geometries>
        <geometry id="geometry0">
            <mesh>
                <source id="geometry0-position">
                    <float_array id="geometry0-position-array" count="402">0.0 0.0 2.8 0.3138016 0.181174 2.7522964 0.3623466 0.0 2.7522964 0.181174 0.3138016 2.7522964 0.0 0.3623466 2.7522964 -0.181174 0.3138016 2.7522964 -0.3138016 0.181174 2.7522964 -0.3623466 0.0 2.7522964 -0.3138016 -0.181174 2.7522964 -0.181174 -0.3138016 2.7522964 0.0 -0.3623466 2.7522964 0.181174 -0.3138016 2.7522964 0.3138016 -0.181174 2.7522964 0.6062182 0.35 2.612435 0.7 0.0 2.612435 0.35 0.6062182 2.612435 0.0 0.7 2.612435 -0.35 0.6062182 2.612435 -0.6062182 0.35 2.612435 -0.7 0.0 2.612435 -0.6062182 -0.35 2.612435 -0.35 -0.6062182 2.612435 0.0 -0.7 2.612435 0.35 -0.6062182 2.612435 0.6062182 -0.35 2.612435 0.8573208 0.4949742 2.3899484 0.9899498 0.0 2.3899484 0.4949742 0.8573208 2.3899484 0.0 0.9899498 2.3899484 -0.4949742 0.8573208 2.3899484 -0.8573208 0.4949742 2.3899484 -0.9899498 0.0 2.3899484 -0.8573208 -0.4949742 2.3899484 -0.4949742 -0.8573208 2.3899484 0.0 -0.9899498 2.3899484 0.4949742 -0.8573208 2.3899484 0.8573208 -0.4949742 2.3899484 1.05 0.6062182 2.1 1.212435 0.0 2.1 0.6062182 1.05 2.1 0.0 1.212435 2.1 -0.6062182 1.05 2.1 -1.05 0.6062182 2.1 -1.212435 0.0 2.1 -1.05 -0.6062182 2.1 -0.6062182 -1.05 2.1 0.0 -1.212435 2.1 0.6062182 -1.05 2.1 1.05 -0.6062182 2.1 1.1711224 0.6761482 1.7623466 1.3522964 0.0 1.7623466 0.6761482 1.1711224 1.7623466 0.0 1.3522964 1.7623466 -0.6761482 1.1711224 1.7623466 -1.1711224 0.6761482 1.7623466 -1.3522964 0.0 1.7623466 -1.1711224 -0.6761482 1.7623466 -0.6761482 -1.1711224 1.7623466 0.0 -1.3522964 1.7623466 0.6761482 -1.1711224 1.7623466 1.1711224 -0.6761482 1.7623466 1.212435 0.7 1.4 1.4 0.0 1.4 0.7 1.212435 1.4 0.0 1.4 1.4 -0.7 1.212435 1.4 -1.212435 0.7 1.4 -1.4 0.0 1.4 -1.212435 -0.7 1.4 -0.7 -1.212435 1.4 0.0 -1.4 1.4 0.7 -1.212435 1.4 1.212435 -0.7 1.4 1.1711224 0.6761482 1.0376534 1.3522964 0.0 1.0376534 0.6761482 1.1711224 1.0376534 0.0 1.3522964 1.0376534 -0.6761482 1.1711224 1.0376534 -1.1711224 0.6761482 1.0376534 -1.3522964 0.0 1.0376534 -1.1711224 -0.6761482 1.0376534 -0.6761482 -1.1711224 1.0376534 0.0 -1.3522964 1.0376534 0.6761482 -1.1711224 1.0376534 1.1711224 -0.6761482 1.0376534 1.05 0.6062182 0.7 1.212435 0.0 0.7 0.6062182 1.05 0.7 0.0 1.212435 0.7 -0.6062182 1.05 0.7 -1.05 0.6062182 0.7 -1.212435 0.0 0.7 -1.05 -0.6062182 0.7 -0.6062182 -1.05 0.7 0.0 -1.212435 0.7 0.6062182 -1.05 0.7 1.05 -0.6062182 0.7 0.8573208 0.4949742 0.4100502 0.9899498 0.0 0.4100502 0.4949742 0.8573208 0.4100502 0.0 0.9899498 0.4100502 -0.4949742 0.8573208 0.4100502 -0.8573208 0.4949742 0.4100502 -0.9899498 0.0 0.4100502 -0.8573208 -0.4949742 0.4100502 -0.4949742 -0.8573208 0.4100502 0.0 -0.9899498 0.4100502 0.4949742 -0.8573208 0.4100502 0.8573208 -0.4949742 0.4100502 0.6062182 0.35 0.1875636 0.7 0.0 0.1875636 0.35 0.6062182 0.1875636 0.0 0.7 0.1875636 -0.35 0.6062182 0.1875636 -0.6062182 0.35 0.1875636 -0.7 0.0 0.1875636 -0.6062182 -0.35 0.1875636 -0.35 -0.6062182 0.1875636 0.0 -0.7 0.1875636 0.35 -0.6062182 0.1875636 0.6062182 -0.35 0.1875636 0.3138016 0.181174 0.0477036 0.3623466 0.0 0.0477036 0.181174 0.3138016 0.0477036 0.0 0.3623466 0.0477036 -0.181174 0.3138016 0.0477036 -0.3138016 0.181174 0.0477036 -0.3623466 0.0 0.0477036 -0.3138016 -0.181174 0.0477036 -0.181174 -0.3138016 0.0477036 0.0 -0.3623466 0.0477036 0.181174 -0.3138016 0.0477036 0.3138016 -0.181174 0.0477036 0.0 0.0 0.0</float_array>
                    <technique_common>
                        <accessor count="134" source="#geometry0-position-array" stride="3">
                            <param name="X" type="float"/>
                            <param name="Y" type="float"/>
                            <param name="Z" type="float"/>
                        </accessor>
                    </technique_common>
                </source>
                <source id="geometry0-normal">
                    <float_array id="geometry0-normal-array" count="2520">-0.1020044 -0.380689 -0.9190598 -0.1020044 -0.380689 -0.9190598 -0.1020044 -0.380689 -0.9190598 -0.1020049 -0.3806892 -0.9190597 -0.1020049 -0.3806892 -0.9190597 -0.1020049 -0.3806892 -0.9190597 0.1020045 -0.3806894 -0.9190596 0.1020045 -0.3806894 -0.9190596 0.1020045 -0.3806894 -0.9190596 0.1020048 -0.380689 -0.9190598 0.1020048 -0.380689 -0.9190598 0.1020048 -0.380689 -0.9190598 0.2786839 -0.2786839 -0.9190596 0.2786839 -0.2786839 -0.9190596 0.2786839 -0.2786839 -0.9190596 0.2786839 -0.2786839 -0.9190596 0.2786839 -0.2786839 -0.9190596 0.2786839 -0.2786839 -0.9190596 0.380689 -0.1020044 -0.9190598 0.380689 -0.1020044 -0.9190598 0.380689 -0.1020044 -0.9190598 0.3806892 -0.1020049 -0.9190597 0.3806892 -0.1020049 -0.9190597 0.3806892 -0.1020049 -0.9190597 0.3806894 0.1020045 -0.9190596 0.3806894 0.1020045 -0.9190596 0.3806894 0.1020045 -0.9190596 0.380689 0.1020048 -0.9190598 0.380689 0.1020048 -0.9190598 0.380689 0.1020048 -0.9190598 0.2786839 0.2786839 -0.9190596 0.2786839 0.2786839 -0.9190596 0.2786839 0.2786839 -0.9190596 0.2786839 0.2786839 -0.9190596 0.2786839 0.2786839 -0.9190596 0.2786839 0.2786839 -0.9190596 0.1020044 0.380689 -0.9190598 0.1020044 0.380689 -0.9190598 0.1020044 0.380689 -0.9190598 0.1020049 0.3806892 -0.9190597 0.1020049 0.3806892 -0.9190597 0.1020049 0.3806892 -0.9190597 -0.1020045 0.3806894 -0.9190596 -0.1020045 0.3806894 -0.9190596 -0.1020045 0.3806894 -0.9190596 -0.1020048 0.380689 -0.9190598 -0.1020048 0.380689 -0.9190598 -0.1020048 0.380689 -0.9190598 -0.2786839 0.2786839 -0.9190596 -0.2786839 0.2786839 -0.9190596 -0.2786839 0.2786839 -0.9190596 -0.2786839 0.2786839 -0.9190596 -0.2786839 0.2786839 -0.9190596 -0.2786839 0.2786839 -0.9190596 -0.380689 0.1020044 -0.9190598 -0.380689 0.1020044 -0.9190598 -0.380689 0.1020044 -0.9190598 -0.3806892 0.1020049 -0.9190597 -0.3806892 0.1020049 -0.9190597 -0.3806892 0.1020049 -0.9190597 -0.6008238 -0.1609895 -0.7830027 -0.6008238 -0.1609895 -0.7830027 -0.6008238 -0.1609895 -0.7830027 -0.6008213 -0.1609909 -0.7830042 -0.6008213 -0.1609909 -0.7830042 -0.6008213 -0.1609909 -0.7830042 -0.4398333 -0.4398333 -0.7830028 -0.4398333 -0.4398333 -0.7830028 -0.4398333 -0.4398333 -0.7830028 -0.4398333 -0.4398333 -0.7830028 -0.4398333 -0.4398333 -0.7830028 -0.4398333 -0.4398333 -0.7830028 -0.1609889 -0.6008216 -0.7830045 -0.1609889 -0.6008216 -0.7830045 -0.1609889 -0.6008216 -0.7830045 -0.1609913 -0.6008229 -0.783003 -0.1609913 -0.6008229 -0.783003 -0.1609913 -0.6008229 -0.783003 0.1609895 -0.6008238 -0.7830027 0.1609895 -0.6008238 -0.7830027 0.1609895 -0.6008238 -0.7830027 0.1609909 -0.6008213 -0.7830042 0.1609909 -0.6008213 -0.7830042 0.1609909 -0.6008213 -0.7830042 0.4398333 -0.4398333 -0.7830028 0.4398333 -0.4398333 -0.7830028 0.4398333 -0.4398333 -0.7830028 0.4398333 -0.4398333 -0.7830028 0.4398333 -0.4398333 -0.7830028 0.4398333 -0.4398333 -0.7830028 0.6008216 -0.1609889 -0.7830045 0.6008216 -0.1609889 -0.7830045 0.6008216 -0.1609889 -0.7830045 0.6008229 -0.1609913 -0.783003 0.6008229 -0.1609913 -0.783003 0.6008229 -0.1609913 -0.783003 0.6008238 0.1609895 -0.7830027 0.6008238 0.1609895 -0.7830027 0.6008238 0.1609895 -0.7830027 0.6008213 0.1609909 -0.7830042 0.6008213 0.1609909 -0.7830042 0.6008213 0.1609909 -0.7830042 0.4398333 0.4398333 -0.7830028 0.4398333 0.4398333 -0.7830028 0.4398333 0.4398333 -0.7830028 0.4398333 0.4398333 -0.7830028 0.4398333 0.4398333 -0.7830028 0.4398333 0.4398333 -0.7830028 0.1609889 0.6008216 -0.7830045 0.1609889 0.6008216 -0.7830045 0.1609889 0.6008216 -0.7830045 0.1609913 0.6008229 -0.783003 0.1609913 0.6008229 -0.783003 0.1609913 0.6008229 -0.783003 -0.1609895 0.6008238 -0.7830027 -0.1609895 0.6008238 -0.7830027 -0.1609895 0.6008238 -0.7830027 -0.1609909 0.6008213 -0.7830042 -0.1609909 0.6008213 -0.7830042 -0.1609909 0.6008213 -0.7830042 -0.4398333 0.4398333 -0.7830028 -0.4398333 0.4398333 -0.7830028 -0.4398333 0.4398333 -0.7830028 -0.4398333 0.4398333 -0.7830028 -0.4398333 0.4398333 -0.7830028 -0.4398333 0.4398333 -0.7830028 -0.6008216 0.1609889 -0.7830045 -0.6008216 0.1609889 -0.7830045 -0.6008216 0.1609889 -0.7830045 -0.6008229 0.1609913 -0.783003 -0.6008229 0.1609913 -0.783003 -0.6008229 0.1609913 -0.783003 -0.7760106 -0.2079331 -0.5954589 -0.7760106 -0.2079331 -0.5954589 -0.7760106 -0.2079331 -0.5954589 -0.7760134 -0.2079314 -0.5954558 -0.7760134 -0.2079314 -0.5954558 -0.7760134 -0.2079314 -0.5954558 -0.5680794 -0.5680794 -0.5954593 -0.5680794 -0.5680794 -0.5954593 -0.5680794 -0.5680794 -0.5954593 -0.5680794 -0.5680794 -0.5954592 -0.5680794 -0.5680794 -0.5954592 -0.5680794 -0.5680794 -0.5954592 -0.2079338 -0.7760131 -0.5954555 -0.2079338 -0.7760131 -0.5954555 -0.2079338 -0.7760131 -0.5954555 -0.2079308 -0.7760114 -0.5954586 -0.2079308 -0.7760114 -0.5954586 -0.2079308 -0.7760114 -0.5954586 0.2079331 -0.7760106 -0.5954589 0.2079331 -0.7760106 -0.5954589 0.2079331 -0.7760106 -0.5954589 0.2079314 -0.7760134 -0.5954558 0.2079314 -0.7760134 -0.5954558 0.2079314 -0.7760134 -0.5954558 0.5680794 -0.5680794 -0.5954593 0.5680794 -0.5680794 -0.5954593 0.5680794 -0.5680794 -0.5954593 0.5680794 -0.5680794 -0.5954592 0.5680794 -0.5680794 -0.5954592 0.5680794 -0.5680794 -0.5954592 0.7760131 -0.2079338 -0.5954555 0.7760131 -0.2079338 -0.5954555 0.7760131 -0.2079338 -0.5954555 0.7760114 -0.2079308 -0.5954586 0.7760114 -0.2079308 -0.5954586 0.7760114 -0.2079308 -0.5954586 0.7760106 0.2079331 -0.5954589 0.7760106 0.2079331 -0.5954589 0.7760106 0.2079331 -0.5954589 0.7760134 0.2079314 -0.5954558 0.7760134 0.2079314 -0.5954558 0.7760134 0.2079314 -0.5954558 0.5680794 0.5680794 -0.5954593 0.5680794 0.5680794 -0.5954593 0.5680794 0.5680794 -0.5954593 0.5680794 0.5680794 -0.5954592 0.5680794 0.5680794 -0.5954592 0.5680794 0.5680794 -0.5954592 0.2079338 0.7760131 -0.5954555 0.2079338 0.7760131 -0.5954555 0.2079338 0.7760131 -0.5954555 0.2079308 0.7760114 -0.5954586 0.2079308 0.7760114 -0.5954586 0.2079308 0.7760114 -0.5954586 -0.2079331 0.7760106 -0.5954589 -0.2079331 0.7760106 -0.5954589 -0.2079331 0.7760106 -0.5954589 -0.2079314 0.7760134 -0.5954558 -0.2079314 0.7760134 -0.5954558 -0.2079314 0.7760134 -0.5954558 -0.5680794 0.5680794 -0.5954593 -0.5680794 0.5680794 -0.5954593 -0.5680794 0.5680794 -0.5954593 -0.5680794 0.5680794 -0.5954592 -0.5680794 0.5680794 -0.5954592 -0.5680794 0.5680794 -0.5954592 -0.7760131 0.2079338 -0.5954555 -0.7760131 0.2079338 -0.5954555 -0.7760131 0.2079338 -0.5954555 -0.7760114 0.2079308 -0.5954586 -0.7760114 0.2079308 -0.5954586 -0.7760114 0.2079308 -0.5954586 -0.8968095 -0.2402985 -0.3714693 -0.8968095 -0.2402985 -0.3714693 -0.8968095 -0.2402985 -0.3714693 -0.896808 -0.2402997 -0.3714721 -0.896808 -0.2402997 -0.3714721 -0.896808 -0.2402997 -0.3714721 -0.6565099 -0.6565099 -0.3714693 -0.6565099 -0.6565099 -0.3714693 -0.6565099 -0.6565099 -0.3714693 -0.6565099 -0.6565099 -0.3714693 -0.6565099 -0.6565099 -0.3714693 -0.6565099 -0.6565099 -0.3714693 -0.2402982 -0.8968083 -0.3714722 -0.2402982 -0.8968083 -0.3714722 -0.2402982 -0.8968083 -0.3714722 -0.2403 -0.896809 -0.3714695 -0.2403 -0.896809 -0.3714695 -0.2403 -0.896809 -0.3714695 0.2402985 -0.8968095 -0.3714693 0.2402985 -0.8968095 -0.3714693 0.2402985 -0.8968095 -0.3714693 0.2402997 -0.896808 -0.3714721 0.2402997 -0.896808 -0.3714721 0.2402997 -0.896808 -0.3714721 0.6565099 -0.6565099 -0.3714693 0.6565099 -0.6565099 -0.3714693 0.6565099 -0.6565099 -0.3714693 0.6565099 -0.6565099 -0.3714693 0.6565099 -0.6565099 -0.3714693 0.6565099 -0.6565099 -0.3714693 0.8968083 -0.2402982 -0.3714722 0.8968083 -0.2402982 -0.3714722 0.8968083 -0.2402982 -0.3714722 0.896809 -0.2403 -0.3714695 0.896809 -0.2403 -0.3714695 0.896809 -0.2403 -0.3714695 0.8968095 0.2402985 -0.3714693 0.8968095 0.2402985 -0.3714693 0.8968095 0.2402985 -0.3714693 0.896808 0.2402997 -0.3714721 0.896808 0.2402997 -0.3714721 0.896808 0.2402997 -0.3714721 0.6565099 0.6565099 -0.3714693 0.6565099 0.6565099 -0.3714693 0.6565099 0.6565099 -0.3714693 0.6565099 0.6565099 -0.3714693 0.6565099 0.6565099 -0.3714693 0.6565099 0.6565099 -0.3714693 0.2402982 0.8968083 -0.3714722 0.2402982 0.8968083 -0.3714722 0.2402982 0.8968083 -0.3714722 0.2403 0.896809 -0.3714695 0.2403 0.896809 -0.3714695 0.2403 0.896809 -0.3714695 -0.2402985 0.8968095 -0.3714693 -0.2402985 0.8968095 -0.3714693 -0.2402985 0.8968095 -0.3714693 -0.2402997 0.896808 -0.3714721 -0.2402997 0.896808 -0.3714721 -0.2402997 0.896808 -0.3714721 -0.6565099 0.6565099 -0.3714693 -0.6565099 0.6565099 -0.3714693 -0.6565099 0.6565099 -0.3714693 -0.6565099 0.6565099 -0.3714693 -0.6565099 0.6565099 -0.3714693 -0.6565099 0.6565099 -0.3714693 -0.8968083 0.2402982 -0.3714722 -0.8968083 0.2402982 -0.3714722 -0.8968083 0.2402982 -0.3714722 -0.896809 0.2403 -0.3714695 -0.896809 0.2403 -0.3714695 -0.896809 0.2403 -0.3714695 -0.958209 -0.2567521 -0.1261501 -0.958209 -0.2567521 -0.1261501 -0.958209 -0.2567521 -0.1261501 -0.958209 -0.2567521 -0.12615 -0.958209 -0.2567521 -0.12615 -0.958209 -0.2567521 -0.12615 -0.7014578 -0.7014578 -0.1261501 -0.7014578 -0.7014578 -0.1261501 -0.7014578 -0.7014578 -0.1261501 -0.7014578 -0.7014578 -0.1261501 -0.7014578 -0.7014578 -0.1261501 -0.7014578 -0.7014578 -0.1261501 -0.2567521 -0.958209 -0.12615 -0.2567521 -0.958209 -0.12615 -0.2567521 -0.958209 -0.12615 -0.2567521 -0.958209 -0.1261501 -0.2567521 -0.958209 -0.1261501 -0.2567521 -0.958209 -0.1261501 0.2567521 -0.958209 -0.1261501 0.2567521 -0.958209 -0.1261501 0.2567521 -0.958209 -0.1261501 0.2567521 -0.958209 -0.12615 0.2567521 -0.958209 -0.12615 0.2567521 -0.958209 -0.12615 0.7014578 -0.7014578 -0.1261501 0.7014578 -0.7014578 -0.1261501 0.7014578 -0.7014578 -0.1261501 0.7014578 -0.7014578 -0.1261501 0.7014578 -0.7014578 -0.1261501 0.7014578 -0.7014578 -0.1261501 0.958209 -0.2567521 -0.12615 0.958209 -0.2567521 -0.12615 0.958209 -0.2567521 -0.12615 0.958209 -0.2567521 -0.1261501 0.958209 -0.2567521 -0.1261501 0.958209 -0.2567521 -0.1261501 0.958209 0.2567521 -0.1261501 0.958209 0.2567521 -0.1261501 0.958209 0.2567521 -0.1261501 0.958209 0.2567521 -0.12615 0.958209 0.2567521 -0.12615 0.958209 0.2567521 -0.12615 0.7014578 0.7014578 -0.1261501 0.7014578 0.7014578 -0.1261501 0.7014578 0.7014578 -0.1261501 0.7014578 0.7014578 -0.1261501 0.7014578 0.7014578 -0.1261501 0.7014578 0.7014578 -0.1261501 0.2567521 0.958209 -0.12615 0.2567521 0.958209 -0.12615 0.2567521 0.958209 -0.12615 0.2567521 0.958209 -0.1261501 0.2567521 0.958209 -0.1261501 0.2567521 0.958209 -0.1261501 -0.2567521 0.958209 -0.1261501 -0.2567521 0.958209 -0.1261501 -0.2567521 0.958209 -0.1261501 -0.2567521 0.958209 -0.12615 -0.2567521 0.958209 -0.12615 -0.2567521 0.958209 -0.12615 -0.7014578 0.7014578 -0.1261501 -0.7014578 0.7014578 -0.1261501 -0.7014578 0.7014578 -0.1261501 -0.7014578 0.7014578 -0.1261501 -0.7014578 0.7014578 -0.1261501 -0.7014578 0.7014578 -0.1261501 -0.958209 0.2567521 -0.12615 -0.958209 0.2567521 -0.12615 -0.958209 0.2567521 -0.12615 -0.958209 0.2567521 -0.1261501 -0.958209 0.2567521 -0.1261501 -0.958209 0.2567521 -0.1261501 -0.9582091 -0.2567521 0.1261502 -0.9582091 -0.2567521 0.1261502 -0.9582091 -0.2567521 0.1261502 -0.958209 -0.2567521 0.12615 -0.958209 -0.2567521 0.12615 -0.958209 -0.2567521 0.12615 -0.7014578 -0.7014578 0.1261501 -0.7014578 -0.7014578 0.1261501 -0.7014578 -0.7014578 0.1261501 -0.7014578 -0.7014578 0.1261502 -0.7014578 -0.7014578 0.1261502 -0.7014578 -0.7014578 0.1261502 -0.2567521 -0.9582091 0.1261501 -0.2567521 -0.9582091 0.1261501 -0.2567521 -0.9582091 0.1261501 -0.2567521 -0.958209 0.1261502 -0.2567521 -0.958209 0.1261502 -0.2567521 -0.958209 0.1261502 0.2567521 -0.9582091 0.1261502 0.2567521 -0.9582091 0.1261502 0.2567521 -0.9582091 0.1261502 0.2567521 -0.958209 0.12615 0.2567521 -0.958209 0.12615 0.2567521 -0.958209 0.12615 0.7014578 -0.7014578 0.1261501 0.7014578 -0.7014578 0.1261501 0.7014578 -0.7014578 0.1261501 0.7014578 -0.7014578 0.1261502 0.7014578 -0.7014578 0.1261502 0.7014578 -0.7014578 0.1261502 0.9582091 -0.2567521 0.1261501 0.9582091 -0.2567521 0.1261501 0.9582091 -0.2567521 0.1261501 0.958209 -0.2567521 0.1261502 0.958209 -0.2567521 0.1261502 0.958209 -0.2567521 0.1261502 0.9582091 0.2567521 0.1261502 0.9582091 0.2567521 0.1261502 0.9582091 0.2567521 0.1261502 0.958209 0.2567521 0.12615 0.958209 0.2567521 0.12615 0.958209 0.2567521 0.12615 0.7014578 0.7014578 0.1261501 0.7014578 0.7014578 0.1261501 0.7014578 0.7014578 0.1261501 0.7014578 0.7014578 0.1261502 0.7014578 0.7014578 0.1261502 0.7014578 0.7014578 0.1261502 0.2567521 0.9582091 0.1261501 0.2567521 0.9582091 0.1261501 0.2567521 0.9582091 0.1261501 0.2567521 0.958209 0.1261502 0.2567521 0.958209 0.1261502 0.2567521 0.958209 0.1261502 -0.2567521 0.9582091 0.1261502 -0.2567521 0.9582091 0.1261502 -0.2567521 0.9582091 0.1261502 -0.2567521 0.958209 0.12615 -0.2567521 0.958209 0.12615 -0.2567521 0.958209 0.12615 -0.7014578 0.7014578 0.1261501 -0.7014578 0.7014578 0.1261501 -0.7014578 0.7014578 0.1261501 -0.7014578 0.7014578 0.1261502 -0.7014578 0.7014578 0.1261502 -0.7014578 0.7014578 0.1261502 -0.9582091 0.2567521 0.1261501 -0.9582091 0.2567521 0.1261501 -0.9582091 0.2567521 0.1261501 -0.958209 0.2567521 0.1261502 -0.958209 0.2567521 0.1261502 -0.958209 0.2567521 0.1261502 -0.8968091 -0.2403 0.3714693 -0.8968091 -0.2403 0.3714693 -0.8968091 -0.2403 0.3714693 -0.8968084 -0.2402982 0.3714721 -0.8968084 -0.2402982 0.3714721 -0.8968084 -0.2402982 0.3714721 -0.65651 -0.65651 0.3714691 -0.65651 -0.65651 0.3714691 -0.65651 -0.65651 0.3714691 -0.6565099 -0.6565099 0.3714692 -0.6565099 -0.6565099 0.3714692 -0.6565099 -0.6565099 0.3714692 -0.2402997 -0.896808 0.3714719 -0.2402997 -0.896808 0.3714719 -0.2402997 -0.896808 0.3714719 -0.2402984 -0.8968095 0.3714692 -0.2402984 -0.8968095 0.3714692 -0.2402984 -0.8968095 0.3714692 0.2403 -0.8968091 0.3714693 0.2403 -0.8968091 0.3714693 0.2403 -0.8968091 0.3714693 0.2402982 -0.8968084 0.3714721 0.2402982 -0.8968084 0.3714721 0.2402982 -0.8968084 0.3714721 0.65651 -0.65651 0.3714691 0.65651 -0.65651 0.3714691 0.65651 -0.65651 0.3714691 0.6565099 -0.6565099 0.3714692 0.6565099 -0.6565099 0.3714692 0.6565099 -0.6565099 0.3714692 0.896808 -0.2402997 0.3714719 0.896808 -0.2402997 0.3714719 0.896808 -0.2402997 0.3714719 0.8968095 -0.2402984 0.3714692 0.8968095 -0.2402984 0.3714692 0.8968095 -0.2402984 0.3714692 0.8968091 0.2403 0.3714693 0.8968091 0.2403 0.3714693 0.8968091 0.2403 0.3714693 0.8968084 0.2402982 0.3714721 0.8968084 0.2402982 0.3714721 0.8968084 0.2402982 0.3714721 0.65651 0.65651 0.3714691 0.65651 0.65651 0.3714691 0.65651 0.65651 0.3714691 0.6565099 0.6565099 0.3714692 0.6565099 0.6565099 0.3714692 0.6565099 0.6565099 0.3714692 0.2402997 0.896808 0.3714719 0.2402997 0.896808 0.3714719 0.2402997 0.896808 0.3714719 0.2402984 0.8968095 0.3714692 0.2402984 0.8968095 0.3714692 0.2402984 0.8968095 0.3714692 -0.2403 0.8968091 0.3714693 -0.2403 0.8968091 0.3714693 -0.2403 0.8968091 0.3714693 -0.2402982 0.8968084 0.3714721 -0.2402982 0.8968084 0.3714721 -0.2402982 0.8968084 0.3714721 -0.65651 0.65651 0.3714691 -0.65651 0.65651 0.3714691 -0.65651 0.65651 0.3714691 -0.6565099 0.6565099 0.3714692 -0.6565099 0.6565099 0.3714692 -0.6565099 0.6565099 0.3714692 -0.896808 0.2402997 0.3714719 -0.896808 0.2402997 0.3714719 -0.896808 0.2402997 0.3714719 -0.8968095 0.2402984 0.3714692 -0.8968095 0.2402984 0.3714692 -0.8968095 0.2402984 0.3714692 -0.7760127 -0.2079312 0.5954569 -0.7760127 -0.2079312 0.5954569 -0.7760127 -0.2079312 0.5954569 -0.7760144 -0.2079342 0.5954537 -0.7760144 -0.2079342 0.5954537 -0.7760144 -0.2079342 0.5954537 -0.5680802 -0.5680802 0.5954575 -0.5680802 -0.5680802 0.5954575 -0.5680802 -0.5680802 0.5954575 -0.5680802 -0.5680802 0.5954575 -0.5680802 -0.5680802 0.5954575 -0.5680802 -0.5680802 0.5954575 -0.2079317 -0.7760147 0.595454 -0.2079317 -0.7760147 0.595454 -0.2079317 -0.7760147 0.595454 -0.2079335 -0.7760119 0.5954572 -0.2079335 -0.7760119 0.5954572 -0.2079335 -0.7760119 0.5954572 0.2079312 -0.7760127 0.5954569 0.2079312 -0.7760127 0.5954569 0.2079312 -0.7760127 0.5954569 0.2079342 -0.7760144 0.5954537 0.2079342 -0.7760144 0.5954537 0.2079342 -0.7760144 0.5954537 0.5680802 -0.5680802 0.5954575 0.5680802 -0.5680802 0.5954575 0.5680802 -0.5680802 0.5954575 0.5680802 -0.5680802 0.5954575 0.5680802 -0.5680802 0.5954575 0.5680802 -0.5680802 0.5954575 0.7760147 -0.2079317 0.595454 0.7760147 -0.2079317 0.595454 0.7760147 -0.2079317 0.595454 0.7760119 -0.2079335 0.5954572 0.7760119 -0.2079335 0.5954572 0.7760119 -0.2079335 0.5954572 0.7760127 0.2079312 0.5954569 0.7760127 0.2079312 0.5954569 0.7760127 0.2079312 0.5954569 0.7760144 0.2079342 0.5954537 0.7760144 0.2079342 0.5954537 0.7760144 0.2079342 0.5954537 0.5680802 0.5680802 0.5954575 0.5680802 0.5680802 0.5954575 0.5680802 0.5680802 0.5954575 0.5680802 0.5680802 0.5954575 0.5680802 0.5680802 0.5954575 0.5680802 0.5680802 0.5954575 0.2079317 0.7760147 0.595454 0.2079317 0.7760147 0.595454 0.2079317 0.7760147 0.595454 0.2079335 0.7760119 0.5954572 0.2079335 0.7760119 0.5954572 0.2079335 0.7760119 0.5954572 -0.2079312 0.7760127 0.5954569 -0.2079312 0.7760127 0.5954569 -0.2079312 0.7760127 0.5954569 -0.2079342 0.7760144 0.5954537 -0.2079342 0.7760144 0.5954537 -0.2079342 0.7760144 0.5954537 -0.5680802 0.5680802 0.5954575 -0.5680802 0.5680802 0.5954575 -0.5680802 0.5680802 0.5954575 -0.5680802 0.5680802 0.5954575 -0.5680802 0.5680802 0.5954575 -0.5680802 0.5680802 0.5954575 -0.7760147 0.2079317 0.595454 -0.7760147 0.2079317 0.595454 -0.7760147 0.2079317 0.595454 -0.7760119 0.2079335 0.5954572 -0.7760119 0.2079335 0.5954572 -0.7760119 0.2079335 0.5954572 -0.6008227 -0.1609913 0.7830031 -0.6008227 -0.1609913 0.7830031 -0.6008227 -0.1609913 0.7830031 -0.6008214 -0.1609889 0.7830047 -0.6008214 -0.1609889 0.7830047 -0.6008214 -0.1609889 0.7830047 -0.4398332 -0.4398332 0.783003 -0.4398332 -0.4398332 0.783003 -0.4398332 -0.4398332 0.783003 -0.4398331 -0.4398331 0.7830029 -0.4398331 -0.4398331 0.7830029 -0.4398331 -0.4398331 0.7830029 -0.1609909 -0.6008211 0.7830043 -0.1609909 -0.6008211 0.7830043 -0.1609909 -0.6008211 0.7830043 -0.1609894 -0.6008236 0.7830029 -0.1609894 -0.6008236 0.7830029 -0.1609894 -0.6008236 0.7830029 0.1609913 -0.6008227 0.7830031 0.1609913 -0.6008227 0.7830031 0.1609913 -0.6008227 0.7830031 0.1609889 -0.6008214 0.7830047 0.1609889 -0.6008214 0.7830047 0.1609889 -0.6008214 0.7830047 0.4398332 -0.4398332 0.783003 0.4398332 -0.4398332 0.783003 0.4398332 -0.4398332 0.783003 0.4398331 -0.4398331 0.7830029 0.4398331 -0.4398331 0.7830029 0.4398331 -0.4398331 0.7830029 0.6008211 -0.1609909 0.7830043 0.6008211 -0.1609909 0.7830043 0.6008211 -0.1609909 0.7830043 0.6008236 -0.1609894 0.7830029 0.6008236 -0.1609894 0.7830029 0.6008236 -0.1609894 0.7830029 0.6008227 0.1609913 0.7830031 0.6008227 0.1609913 0.7830031 0.6008227 0.1609913 0.7830031 0.6008214 0.1609889 0.7830047 0.6008214 0.1609889 0.7830047 0.6008214 0.1609889 0.7830047 0.4398332 0.4398332 0.783003 0.4398332 0.4398332 0.783003 0.4398332 0.4398332 0.783003 0.4398331 0.4398331 0.7830029 0.4398331 0.4398331 0.7830029 0.4398331 0.4398331 0.7830029 0.1609909 0.6008211 0.7830043 0.1609909 0.6008211 0.7830043 0.1609909 0.6008211 0.7830043 0.1609894 0.6008236 0.7830029 0.1609894 0.6008236 0.7830029 0.1609894 0.6008236 0.7830029 -0.1609913 0.6008227 0.7830031 -0.1609913 0.6008227 0.7830031 -0.1609913 0.6008227 0.7830031 -0.1609889 0.6008214 0.7830047 -0.1609889 0.6008214 0.7830047 -0.1609889 0.6008214 0.7830047 -0.4398332 0.4398332 0.783003 -0.4398332 0.4398332 0.783003 -0.4398332 0.4398332 0.783003 -0.4398331 0.4398331 0.7830029 -0.4398331 0.4398331 0.7830029 -0.4398331 0.4398331 0.7830029 -0.6008211 0.1609909 0.7830043 -0.6008211 0.1609909 0.7830043 -0.6008211 0.1609909 0.7830043 -0.6008236 0.1609894 0.7830029 -0.6008236 0.1609894 0.7830029 -0.6008236 0.1609894 0.7830029 -0.3806861 -0.102004 0.9190611 -0.3806861 -0.102004 0.9190611 -0.3806861 -0.102004 0.9190611 -0.3806859 -0.1020036 0.9190612 -0.3806859 -0.1020036 0.9190612 -0.3806859 -0.1020036 0.9190612 -0.2786817 -0.2786817 0.9190609 -0.2786817 -0.2786817 0.9190609 -0.2786817 -0.2786817 0.9190609 -0.2786817 -0.2786817 0.9190609 -0.2786817 -0.2786817 0.9190609 -0.2786817 -0.2786817 0.9190609 -0.102004 -0.3806859 0.9190612 -0.102004 -0.3806859 0.9190612 -0.102004 -0.3806859 0.9190612 -0.1020037 -0.3806863 0.919061 -0.1020037 -0.3806863 0.919061 -0.1020037 -0.3806863 0.919061 0.102004 -0.3806861 0.9190611 0.102004 -0.3806861 0.9190611 0.102004 -0.3806861 0.9190611 0.1020036 -0.3806859 0.9190612 0.1020036 -0.3806859 0.9190612 0.1020036 -0.3806859 0.9190612 0.2786817 -0.2786817 0.9190609 0.2786817 -0.2786817 0.9190609 0.2786817 -0.2786817 0.9190609 0.2786817 -0.2786817 0.9190609 0.2786817 -0.2786817 0.9190609 0.2786817 -0.2786817 0.9190609 0.3806859 -0.102004 0.9190612 0.3806859 -0.102004 0.9190612 0.3806859 -0.102004 0.9190612 0.3806863 -0.1020037 0.919061 0.3806863 -0.1020037 0.919061 0.3806863 -0.1020037 0.919061 0.3806861 0.102004 0.9190611 0.3806861 0.102004 0.9190611 0.3806861 0.102004 0.9190611 0.3806859 0.1020036 0.9190612 0.3806859 0.1020036 0.9190612 0.3806859 0.1020036 0.9190612 0.2786817 0.2786817 0.9190609 0.2786817 0.2786817 0.9190609 0.2786817 0.2786817 0.9190609 0.2786817 0.2786817 0.9190609 0.2786817 0.2786817 0.9190609 0.2786817 0.2786817 0.9190609 0.102004 0.3806859 0.9190612 0.102004 0.3806859 0.9190612 0.102004 0.3806859 0.9190612 0.1020037 0.3806863 0.919061 0.1020037 0.3806863 0.919061 0.1020037 0.3806863 0.919061 -0.102004 0.3806861 0.9190611 -0.102004 0.3806861 0.9190611 -0.102004 0.3806861 0.9190611 -0.1020036 0.3806859 0.9190612 -0.1020036 0.3806859 0.9190612 -0.1020036 0.3806859 0.9190612 -0.2786817 0.2786817 0.9190609 -0.2786817 0.2786817 0.9190609 -0.2786817 0.2786817 0.9190609 -0.2786817 0.2786817 0.9190609 -0.2786817 0.2786817 0.9190609 -0.2786817 0.2786817 0.9190609 -0.3806859 0.102004 0.9190612 -0.3806859 0.102004 0.9190612 -0.3806859 0.102004 0.9190612 -0.3806863 0.1020037 0.919061 -0.3806863 0.1020037 0.919061 -0.3806863 0.1020037 0.919061 -0.1304458 -0.0349525 0.9908391 -0.1304458 -0.0349525 0.9908391 -0.1304458 -0.0349525 0.9908391 1.0 0.0 0.0 1.0 0.0 0.0 -0.0954928 -0.0954928 0.9908392 -0.0954928 -0.0954928 0.9908392 -0.0954928 -0.0954928 0.9908392 1.0 0.0 0.0 1.0 0.0 0.0 -0.0349525 -0.1304458 0.9908391 -0.0349525 -0.1304458 0.9908391 -0.0349525 -0.1304458 0.9908391 1.0 0.0 0.0 1.0 0.0 0.0 0.0349525 -0.1304458 0.9908391 0.0349525 -0.1304458 0.9908391 0.0349525 -0.1304458 0.9908391 1.0 0.0 0.0 1.0 0.0 0.0 0.0954928 -0.0954928 0.9908392 0.0954928 -0.0954928 0.9908392 0.0954928 -0.0954928 0.9908392 1.0 0.0 0.0 1.0 0.0 0.0 0.1304458 -0.0349525 0.9908391 0.1304458 -0.0349525 0.9908391 0.1304458 -0.0349525 0.9908391 1.0 0.0 0.0 1.0 0.0 0.0 0.1304458 0.0349525 0.9908391 0.1304458 0.0349525 0.9908391 0.1304458 0.0349525 0.9908391 1.0 0.0 0.0 1.0 0.0 0.0 0.0954928 0.0954928 0.9908392 0.0954928 0.0954928 0.9908392 0.0954928 0.0954928 0.9908392 1.0 0.0 0.0 1.0 0.0 0.0 0.0349525 0.1304458 0.9908391 0.0349525 0.1304458 0.9908391 0.0349525 0.1304458 0.9908391 1.0 0.0 0.0 1.0 0.0 0.0 -0.0349525 0.1304458 0.9908391 -0.0349525 0.1304458 0.9908391 -0.0349525 0.1304458 0.9908391 1.0 0.0 0.0 1.0 0.0 0.0 -0.0954928 0.0954928 0.9908392 -0.0954928 0.0954928 0.9908392 -0.0954928 0.0954928 0.9908392 1.0 0.0 0.0 1.0 0.0 0.0 -0.1304458 0.0349525 0.9908391 -0.1304458 0.0349525 0.9908391 -0.1304458 0.0349525 0.9908391 1.0 0.0 0.0 1.0 0.0 0.0 1.0 0.0 0.0 1.0 0.0 0.0 -0.1304456 -0.0349525 -0.9908392 -0.1304456 -0.0349525 -0.9908392 -0.1304456 -0.0349525 -0.9908392 1.0 0.0 0.0 1.0 0.0 0.0 -0.0954926 -0.0954926 -0.9908392 -0.0954926 -0.0954926 -0.9908392 -0.0954926 -0.0954926 -0.9908392 1.0 0.0 0.0 1.0 0.0 0.0 -0.0349525 -0.1304456 -0.9908392 -0.0349525 -0.1304456 -0.9908392 -0.0349525 -0.1304456 -0.9908392 1.0 0.0 0.0 1.0 0.0 0.0 0.0349525 -0.1304456 -0.9908392 0.0349525 -0.1304456 -0.9908392 0.0349525 -0.1304456 -0.9908392 1.0 0.0 0.0 1.0 0.0 0.0 0.0954926 -0.0954926 -0.9908392 0.0954926 -0.0954926 -0.9908392 0.0954926 -0.0954926 -0.9908392 1.0 0.0 0.0 1.0 0.0 0.0 0.1304456 -0.0349525 -0.9908392 0.1304456 -0.0349525 -0.9908392 0.1304456 -0.0349525 -0.9908392 1.0 0.0 0.0 1.0 0.0 0.0 0.1304456 0.0349525 -0.9908392 0.1304456 0.0349525 -0.9908392 0.1304456 0.0349525 -0.9908392 1.0 0.0 0.0 1.0 0.0 0.0 0.0954926 0.0954926 -0.9908392 0.0954926 0.0954926 -0.9908392 0.0954926 0.0954926 -0.9908392 1.0 0.0 0.0 1.0 0.0 0.0 0.0349525 0.1304456 -0.9908392 0.0349525 0.1304456 -0.9908392 0.0349525 0.1304456 -0.9908392 1.0 0.0 0.0 1.0 0.0 0.0 -0.0349525 0.1304456 -0.9908392 -0.0349525 0.1304456 -0.9908392 -0.0349525 0.1304456 -0.9908392 1.0 0.0 0.0 1.0 0.0 0.0 -0.0954926 0.0954926 -0.9908392 -0.0954926 0.0954926 -0.9908392 -0.0954926 0.0954926 -0.9908392 1.0 0.0 0.0 1.0 0.0 0.0 -0.1304456 0.0349525 -0.9908392 -0.1304456 0.0349525 -0.9908392 -0.1304456 0.0349525 -0.9908392 -0.3806894 -0.1020045 -0.9190596 -0.3806894 -0.1020045 -0.9190596 -0.3806894 -0.1020045 -0.9190596 -0.380689 -0.1020048 -0.9190598 -0.380689 -0.1020048 -0.9190598 -0.380689 -0.1020048 -0.9190598 -0.2786839 -0.2786839 -0.9190596 -0.2786839 -0.2786839 -0.9190596 -0.2786839 -0.2786839 -0.9190596 -0.2786839 -0.2786839 -0.9190596 -0.2786839 -0.2786839 -0.9190596 -0.2786839 -0.2786839 -0.9190596</float_array>
                    <technique_common>
                        <accessor count="840" source="#geometry0-normal-array" stride="3">
                            <param name="X" type="float"/>
                            <param name="Y" type="float"/>
                            <param name="Z" type="float"/>
                        </accessor>
                    </technique_common>
                </source>
                <vertices id="geometry0-vertex">
                    <input semantic="POSITION" source="#geometry0-position"/>
                </vertices>
                <triangles count="288" material="default_ai_0.2_sh_0.2_tr_0.0_dc_r_0.8_g_0.8_b_0.8_sc_r_1.0_g_1.0_b_1.0_ec_r_0.0_g_0.0_b_0_tri">
                    <input offset="0" semantic="VERTEX" source="#geometry0-vertex"/>
                    <input offset="1" semantic="NORMAL" source="#geometry0-normal"/>
                    <p>3 0 4 1 16 2 3 3 16 4 15 5 4 6 5 7 17 8 4 9 17 10 16 11 5 12 6 13 18 14 5 15 18 16 17 17 6 18 7 19 19 20 6 21 19 22 18 23 7 24 8 25 20 26 7 27 20 28 19 29 8 30 9 31 21 32 8 33 21 34 20 35 9 36 10 37 22 38 9 39 22 40 21 41 10 42 11 43 23 44 10 45 23 46 22 47 11 48 12 49 24 50 11 51 24 52 23 53 12 54 2 55 14 56 12 57 14 58 24 59 14 60 13 61 25 62 14 63 25 64 26 65 13 66 15 67 27 68 13 69 27 70 25 71 15 72 16 73 28 74 15 75 28 76 27 77 16 78 17 79 29 80 16 81 29 82 28 83 17 84 18 85 30 86 17 87 30 88 29 89 18 90 19 91 31 92 18 93 31 94 30 95 19 96 20 97 32 98 19 99 32 100 31 101 20 102 21 103 33 104 20 105 33 106 32 107 21 108 22 109 34 110 21 111 34 112 33 113 22 114 23 115 35 116 22 117 35 118 34 119 23 120 24 121 36 122 23 123 36 124 35 125 24 126 14 127 26 128 24 129 26 130 36 131 26 132 25 133 37 134 26 135 37 136 38 137 25 138 27 139 39 140 25 141 39 142 37 143 27 144 28 145 40 146 27 147 40 148 39 149 28 150 29 151 41 152 28 153 41 154 40 155 29 156 30 157 42 158 29 159 42 160 41 161 30 162 31 163 43 164 30 165 43 166 42 167 31 168 32 169 44 170 31 171 44 172 43 173 32 174 33 175 45 176 32 177 45 178 44 179 33 180 34 181 46 182 33 183 46 184 45 185 34 186 35 187 47 188 34 189 47 190 46 191 35 192 36 193 48 194 35 195 48 196 47 197 36 198 26 199 38 200 36 201 38 202 48 203 38 204 37 205 49 206 38 207 49 208 50 209 37 210 39 211 51 212 37 213 51 214 49 215 39 216 40 217 52 218 39 219 52 220 51 221 40 222 41 223 53 224 40 225 53 226 52 227 41 228 42 229 54 230 41 231 54 232 53 233 42 234 43 235 55 236 42 237 55 238 54 239 43 240 44 241 56 242 43 243 56 244 55 245 44 246 45 247 57 248 44 249 57 250 56 251 45 252 46 253 58 254 45 255 58 256 57 257 46 258 47 259 59 260 46 261 59 262 58 263 47 264 48 265 60 266 47 267 60 268 59 269 48 270 38 271 50 272 48 273 50 274 60 275 50 276 49 277 61 278 50 279 61 280 62 281 49 282 51 283 63 284 49 285 63 286 61 287 51 288 52 289 64 290 51 291 64 292 63 293 52 294 53 295 65 296 52 297 65 298 64 299 53 300 54 301 66 302 53 303 66 304 65 305 54 306 55 307 67 308 54 309 67 310 66 311 55 312 56 313 68 314 55 315 68 316 67 317 56 318 57 319 69 320 56 321 69 322 68 323 57 324 58 325 70 326 57 327 70 328 69 329 58 330 59 331 71 332 58 333 71 334 70 335 59 336 60 337 72 338 59 339 72 340 71 341 60 342 50 343 62 344 60 345 62 346 72 347 62 348 61 349 73 350 62 351 73 352 74 353 61 354 63 355 75 356 61 357 75 358 73 359 63 360 64 361 76 362 63 363 76 364 75 365 64 366 65 367 77 368 64 369 77 370 76 371 65 372 66 373 78 374 65 375 78 376 77 377 66 378 67 379 79 380 66 381 79 382 78 383 67 384 68 385 80 386 67 387 80 388 79 389 68 390 69 391 81 392 68 393 81 394 80 395 69 396 70 397 82 398 69 399 82 400 81 401 70 402 71 403 83 404 70 405 83 406 82 407 71 408 72 409 84 410 71 411 84 412 83 413 72 414 62 415 74 416 72 417 74 418 84 419 74 420 73 421 85 422 74 423 85 424 86 425 73 426 75 427 87 428 73 429 87 430 85 431 75 432 76 433 88 434 75 435 88 436 87 437 76 438 77 439 89 440 76 441 89 442 88 443 77 444 78 445 90 446 77 447 90 448 89 449 78 450 79 451 91 452 78 453 91 454 90 455 79 456 80 457 92 458 79 459 92 460 91 461 80 462 81 463 93 464 80 465 93 466 92 467 81 468 82 469 94 470 81 471 94 472 93 473 82 474 83 475 95 476 82 477 95 478 94 479 83 480 84 481 96 482 83 483 96 484 95 485 84 486 74 487 86 488 84 489 86 490 96 491 86 492 85 493 97 494 86 495 97 496 98 497 85 498 87 499 99 500 85 501 99 502 97 503 87 504 88 505 100 506 87 507 100 508 99 509 88 510 89 511 101 512 88 513 101 514 100 515 89 516 90 517 102 518 89 519 102 520 101 521 90 522 91 523 103 524 90 525 103 526 102 527 91 528 92 529 104 530 91 531 104 532 103 533 92 534 93 535 105 536 92 537 105 538 104 539 93 540 94 541 106 542 93 543 106 544 105 545 94 546 95 547 107 548 94 549 107 550 106 551 95 552 96 553 108 554 95 555 108 556 107 557 96 558 86 559 98 560 96 561 98 562 108 563 98 564 97 565 109 566 98 567 109 568 110 569 97 570 99 571 111 572 97 573 111 574 109 575 99 576 100 577 112 578 99 579 112 580 111 581 100 582 101 583 113 584 100 585 113 586 112 587 101 588 102 589 114 590 101 591 114 592 113 593 102 594 103 595 115 596 102 597 115 598 114 599 103 600 104 601 116 602 103 603 116 604 115 605 104 606 105 607 117 608 104 609 117 610 116 611 105 612 106 613 118 614 105 615 118 616 117 617 106 618 107 619 119 620 106 621 119 622 118 623 107 624 108 625 120 626 107 627 120 628 119 629 108 630 98 631 110 632 108 633 110 634 120 635 110 636 109 637 121 638 110 639 121 640 122 641 109 642 111 643 123 644 109 645 123 646 121 647 111 648 112 649 124 650 111 651 124 652 123 653 112 654 113 655 125 656 112 657 125 658 124 659 113 660 114 661 126 662 113 663 126 664 125 665 114 666 115 667 127 668 114 669 127 670 126 671 115 672 116 673 128 674 115 675 128 676 127 677 116 678 117 679 129 680 116 681 129 682 128 683 117 684 118 685 130 686 117 687 130 688 129 689 118 690 119 691 131 692 118 693 131 694 130 695 119 696 120 697 132 698 119 699 132 700 131 701 120 702 110 703 122 704 120 705 122 706 132 707 122 708 121 709 133 710 122 711 133 712 133 712 121 713 123 714 133 715 121 716 133 717 133 717 123 718 124 719 133 720 123 721 133 722 133 722 124 723 125 724 133 725 124 726 133 727 133 727 125 728 126 729 133 730 125 731 133 732 133 732 126 733 127 734 133 735 126 736 133 737 133 737 127 738 128 739 133 740 127 741 133 742 133 742 128 743 129 744 133 745 128 746 133 747 133 747 129 748 130 749 133 750 129 751 133 752 133 752 130 753 131 754 133 755 130 756 133 757 133 757 131 758 132 759 133 760 131 761 133 762 133 762 132 763 122 764 133 765 132 766 133 767 133 767 0 768 0 768 1 769 0 770 1 771 2 772 0 773 0 773 3 774 0 775 3 776 1 777 0 778 0 778 4 779 0 780 4 781 3 782 0 783 0 783 5 784 0 785 5 786 4 787 0 788 0 788 6 789 0 790 6 791 5 792 0 793 0 793 7 794 0 795 7 796 6 797 0 798 0 798 8 799 0 800 8 801 7 802 0 803 0 803 9 804 0 805 9 806 8 807 0 808 0 808 10 809 0 810 10 811 9 812 0 813 0 813 11 814 0 815 11 816 10 817 0 818 0 818 12 819 0 820 12 821 11 822 0 823 0 823 2 824 0 825 2 826 12 827 2 828 1 829 13 830 2 831 13 832 14 833 1 834 3 835 15 836 1 837 15 838 13 839</p>
                </triangles>
            </mesh>
        </geometry>
    </library_geometries>
    <library_visual_scenes>
        <visual_scene id="Building_163_CROWN1">
            <node>
                <instance_geometry url="#geometry0">
                    <bind_material>
                        <technique_common>
                            <instance_material symbol="default_ai_0.2_sh_0.2_tr_0.0_dc_r_0.8_g_0.8_b_0.8_sc_r_1.0_g_1.0_b_1.0_ec_r_0.0_g_0.0_b_0_tri" target="#default_ai_0.2_sh_0.2_tr_0.0_dc_r_0.8_g_0.8_b_0.8_sc_r_1.0_g_1.0_b_1.0_ec_r_0.0_g_0.0_b_0_mat"/>
                        </technique_common>
                    </bind_material>
                </instance_geometry>
            </node>
        </visual_scene>
    </library_visual_scenes>
    <scene>
        <instance_visual_scene url="#Building_163_CROWN1"/>
    </scene>
</COLLADA>
