<?xml version="1.0" encoding="UTF-8" standalone="yes"?>
<COLLADA xmlns="http://www.collada.org/2005/11/COLLADASchema" version="1.4.1">
    <asset>
        <contributor>
            <authoring_tool>3D City Database Importer/Exporter, version 5.5.3; Chair of Geoinformatics, Technical University of Munich</authoring_tool>
        </contributor>
        <created>2026-09-25T14:45:05.891</created>
        <modified>2026-09-25T14:45:05.891</modified>
        <unit meter="1.0" name="meters"/>
        <up_axis>Z_UP</up_axis>
    </asset>
    <library_materials>
        <material id="default_ai_0.2_sh_0.2_tr_0.0_dc_r_0.8_g_0.8_b_0.8_sc_r_1.0_g_1.0_b_1.0_ec_r_0.0_g_0.0_b_0_mat">
            <instance_effect url="#default_ai_0.2_sh_0.2_tr_0.0_dc_r_0.8_g_0.8_b_0.8_sc_r_1.0_g_1.0_b_1.0_ec_r_0.0_g_0.0_b_0_eff"/>
        </material>
    </library_materials>
    <library_effects>
        <effect id="default_ai_0.2_sh_0.2_tr_0.0_dc_r_0.8_g_0.8_b_0.8_sc_r_1.0_g_1.0_b_1.0_ec_r_0.0_g_0.0_b_0_eff">
            <profile_COMMON>
                <technique sid="COMMON">
                    <lambert>
                        <emission>
                            <color>0.0 0.0 0.0 1.0</color>
                        </emission>
                        <diffuse>
                            <color>0.8 0.8 0.8 1.0</color>
                        </diffuse>
                        <reflective>
                            <color>1.0 1.0 1.0 1.0</color>
                        </reflective>
                        <reflectivity>
                            <float>0.2</float>
                        </reflectivity>
                        <transparent opaque="A_ONE">
                            <color>1.0 1.0 1.0 1.0</color>
                        </transparent>
                        <transparency>
                            <float>1.0</float>
                        </transparency>
                    </lambert>
                </technique>
                <extra>
                    <technique profile="GOOGLEEARTH">
                        <double_sided>0</double_sided>
                    </technique>
                </extra>
            </profile_COMMON>
        </effect>
    </library_effects>
    <library_geometries>
        <geometry id="geometry0">
            <mesh>
                <source id="geometry0-position">
                    <float_array id="geometry0-position-array" count="402">0.0 0.0 1.3 0.1456936 0.0841165 1.2778519 0.1682324 0.0 1.2778519 0.0841165 0.1456936 1.2778519 0.0 0.1682323 1.2778519 -0.0841165 0.1456936 1.2778519 -0.1456936 0.0841165 1.2778519 -0.1682324 0.0 1.2778519 -0.1456936 -0.0841165 1.2778519 -0.0841165 -0.1456936 1.2778519 0.0 -0.1682323 1.2778519 0.0841165 -0.1456936 1.2778519 0.1456936 -0.0841165 1.2778519 0.2814585 0.1625 1.2129162 0.325 0.0 1.2129162 0.1625 0.2814584 1.2129162 0.0 0.325 1.2129162 -0.1625 0.2814584 1.2129162 -0.2814585 0.1625 1.2129162 -0.325 0.0 1.2129162 -0.2814585 -0.1625 1.2129162 -0.1625 -0.2814584 1.2129162 0.0 -0.325 1.2129162 0.1625 -0.2814584 1.2129162 0.2814585 -0.1625 1.2129162 0.3980418 0.2298094 1.1096196 0.4596195 0.0 1.1096196 0.2298094 0.3980418 1.1096196 0.0 0.4596196 1.1096196 -0.2298094 0.3980418 1.1096196 -0.3980418 0.2298094 1.1096196 -0.4596195 0.0 1.1096196 -0.3980418 -0.2298094 1.1096196 -0.2298094 -0.3980418 1.1096196 0.0 -0.4596196 1.1096196 0.2298094 -0.3980418 1.1096196 0.3980418 -0.2298094 1.1096196 0.4875 0.2814584 0.975 0.5629163 0.0 0.975 0.2814585 0.4875 0.975 0.0 0.5629162 0.975 -0.2814585 0.4875 0.975 -0.4875 0.2814584 0.975 -0.5629163 0.0 0.975 -0.4875 -0.2814584 0.975 -0.2814585 -0.4875 0.975 0.0 -0.5629162 0.975 0.2814585 -0.4875 0.975 0.4875 -0.2814584 0.975 0.5437354 0.3139259 0.8182324 0.6278519 0.0 0.8182324 0.3139259 0.5437354 0.8182324 0.0 0.6278519 0.8182324 -0.3139259 0.5437354 0.8182324 -0.5437354 0.3139259 0.8182324 -0.6278519 0.0 0.8182324 -0.5437354 -0.3139259 0.8182324 -0.3139259 -0.5437354 0.8182324 0.0 -0.6278519 0.8182324 0.3139259 -0.5437354 0.8182324 0.5437354 -0.3139259 0.8182324 0.5629163 0.325 0.65 0.65 0.0 0.65 0.325 0.5629162 0.65 0.0 0.65 0.65 -0.325 0.5629162 0.65 -0.5629163 0.325 0.65 -0.65 0.0 0.65 -0.5629163 -0.325 0.65 -0.325 -0.5629162 0.65 0.0 -0.65 0.65 0.325 -0.5629162 0.65 0.5629163 -0.325 0.65 0.5437354 0.3139259 0.4817676 0.6278519 0.0 0.4817676 0.3139259 0.5437354 0.4817676 0.0 0.6278519 0.4817676 -0.3139259 0.5437354 0.4817676 -0.5437354 0.3139259 0.4817676 -0.6278519 0.0 0.4817676 -0.5437354 -0.3139259 0.4817676 -0.3139259 -0.5437354 0.4817676 0.0 -0.6278519 0.4817676 0.3139259 -0.5437354 0.4817676 0.5437354 -0.3139259 0.4817676 0.4875 0.2814584 0.325 0.5629163 0.0 0.325 0.2814585 0.4875 0.325 0.0 0.5629162 0.325 -0.2814585 0.4875 0.325 -0.4875 0.2814584 0.325 -0.5629163 0.0 0.325 -0.4875 -0.2814584 0.325 -0.2814585 -0.4875 0.325 0.0 -0.5629162 0.325 0.2814585 -0.4875 0.325 0.4875 -0.2814584 0.325 0.3980418 0.2298094 0.1903804 0.4596195 0.0 0.1903804 0.2298094 0.3980418 0.1903804 0.0 0.4596196 0.1903804 -0.2298094 0.3980418 0.1903804 -0.3980418 0.2298094 0.1903804 -0.4596195 0.0 0.1903804 -0.3980418 -0.2298094 0.1903804 -0.2298094 -0.3980418 0.1903804 0.0 -0.4596196 0.1903804 0.2298094 -0.3980418 0.1903804 0.3980418 -0.2298094 0.1903804 0.2814585 0.1625 0.0870838 0.325 0.0 0.0870838 0.1625 0.2814584 0.0870838 0.0 0.325 0.0870838 -0.1625 0.2814584 0.0870838 -0.2814585 0.1625 0.0870838 -0.325 0.0 0.0870838 -0.2814585 -0.1625 0.0870838 -0.1625 -0.2814584 0.0870838 0.0 -0.325 0.0870838 0.1625 -0.2814584 0.0870838 0.2814585 -0.1625 0.0870838 0.1456936 0.0841165 0.0221481 0.1682324 0.0 0.0221481 0.0841165 0.1456936 0.0221481 0.0 0.1682323 0.0221481 -0.0841165 0.1456936 0.0221481 -0.1456936 0.0841165 0.0221481 -0.1682324 0.0 0.0221481 -0.1456936 -0.0841165 0.0221481 -0.0841165 -0.1456936 0.0221481 0.0 -0.1682323 0.0221481 0.0841165 -0.1456936 0.0221481 0.1456936 -0.0841165 0.0221481 0.0 0.0 0.0</float_array>
                    <technique_common>
                        <accessor count="134" source="#geometry0-position-array" stride="3">
                            <param name="X" type="float"/>
                            <param name="Y" type="float"/>
                            <param name="Z" type="float"/>
                        </accessor>
                    </technique_common>
                </source>
                <source id="geometry0-normal">
                    <float_array id="geometry0-normal-array" count="2520">0.2786842 -0.2786842 -0.9190594 0.2786842 -0.2786842 -0.9190594 0.2786842 -0.2786842 -0.9190594 0.2786842 -0.2786842 -0.9190595 0.2786842 -0.2786842 -0.9190595 0.2786842 -0.2786842 -0.9190595 0.3806894 -0.1020045 -0.9190597 0.3806894 -0.1020045 -0.9190597 0.3806894 -0.1020045 -0.9190597 0.3806896 -0.102005 -0.9190596 0.3806896 -0.102005 -0.9190596 0.3806896 -0.102005 -0.9190596 0.3806897 0.1020046 -0.9190595 0.3806897 0.1020046 -0.9190595 0.3806897 0.1020046 -0.9190595 0.3806893 0.1020049 -0.9190596 0.3806893 0.1020049 -0.9190596 0.3806893 0.1020049 -0.9190596 0.2786842 0.2786842 -0.9190594 0.2786842 0.2786842 -0.9190594 0.2786842 0.2786842 -0.9190594 0.2786842 0.2786842 -0.9190595 0.2786842 0.2786842 -0.9190595 0.2786842 0.2786842 -0.9190595 0.1020045 0.3806894 -0.9190597 0.1020045 0.3806894 -0.9190597 0.1020045 0.3806894 -0.9190597 0.102005 0.3806896 -0.9190596 0.102005 0.3806896 -0.9190596 0.102005 0.3806896 -0.9190596 -0.1020046 0.3806897 -0.9190595 -0.1020046 0.3806897 -0.9190595 -0.1020046 0.3806897 -0.9190595 -0.1020049 0.3806893 -0.9190596 -0.1020049 0.3806893 -0.9190596 -0.1020049 0.3806893 -0.9190596 -0.2786842 0.2786842 -0.9190594 -0.2786842 0.2786842 -0.9190594 -0.2786842 0.2786842 -0.9190594 -0.2786842 0.2786842 -0.9190595 -0.2786842 0.2786842 -0.9190595 -0.2786842 0.2786842 -0.9190595 -0.3806894 0.1020045 -0.9190597 -0.3806894 0.1020045 -0.9190597 -0.3806894 0.1020045 -0.9190597 -0.3806896 0.102005 -0.9190596 -0.3806896 0.102005 -0.9190596 -0.3806896 0.102005 -0.9190596 -0.6008213 -0.1609889 -0.7830047 -0.6008213 -0.1609889 -0.7830047 -0.6008213 -0.1609889 -0.7830047 -0.6008191 -0.1609902 -0.7830062 -0.6008191 -0.1609902 -0.7830062 -0.6008191 -0.1609902 -0.7830062 -0.4398316 -0.4398316 -0.7830048 -0.4398316 -0.4398316 -0.7830048 -0.4398316 -0.4398316 -0.7830048 -0.4398315 -0.4398315 -0.7830048 -0.4398315 -0.4398315 -0.7830048 -0.4398315 -0.4398315 -0.7830048 -0.1609883 -0.6008192 -0.7830064 -0.1609883 -0.6008192 -0.7830064 -0.1609883 -0.6008192 -0.7830064 -0.1609907 -0.6008205 -0.7830049 -0.1609907 -0.6008205 -0.7830049 -0.1609907 -0.6008205 -0.7830049 0.1609889 -0.6008214 -0.7830047 0.1609889 -0.6008214 -0.7830047 0.1609889 -0.6008214 -0.7830047 0.1609903 -0.6008191 -0.7830061 0.1609903 -0.6008191 -0.7830061 0.1609903 -0.6008191 -0.7830061 0.4398315 -0.4398315 -0.7830048 0.4398315 -0.4398315 -0.7830048 0.4398315 -0.4398315 -0.7830048 0.4398315 -0.4398316 -0.7830048 0.4398315 -0.4398316 -0.7830048 0.4398315 -0.4398316 -0.7830048 0.6008192 -0.1609883 -0.7830064 0.6008192 -0.1609883 -0.7830064 0.6008192 -0.1609883 -0.7830064 0.6008205 -0.1609906 -0.7830049 0.6008205 -0.1609906 -0.7830049 0.6008205 -0.1609906 -0.7830049 0.6008213 0.1609889 -0.7830047 0.6008213 0.1609889 -0.7830047 0.6008213 0.1609889 -0.7830047 0.6008191 0.1609902 -0.7830062 0.6008191 0.1609902 -0.7830062 0.6008191 0.1609902 -0.7830062 0.4398316 0.4398316 -0.7830048 0.4398316 0.4398316 -0.7830048 0.4398316 0.4398316 -0.7830048 0.4398315 0.4398315 -0.7830048 0.4398315 0.4398315 -0.7830048 0.4398315 0.4398315 -0.7830048 0.1609883 0.6008192 -0.7830064 0.1609883 0.6008192 -0.7830064 0.1609883 0.6008192 -0.7830064 0.1609907 0.6008205 -0.7830049 0.1609907 0.6008205 -0.7830049 0.1609907 0.6008205 -0.7830049 -0.1609889 0.6008214 -0.7830047 -0.1609889 0.6008214 -0.7830047 -0.1609889 0.6008214 -0.7830047 -0.1609903 0.6008191 -0.7830061 -0.1609903 0.6008191 -0.7830061 -0.1609903 0.6008191 -0.7830061 -0.4398315 0.4398315 -0.7830048 -0.4398315 0.4398315 -0.7830048 -0.4398315 0.4398315 -0.7830048 -0.4398315 0.4398316 -0.7830048 -0.4398315 0.4398316 -0.7830048 -0.4398315 0.4398316 -0.7830048 -0.6008192 0.1609883 -0.7830064 -0.6008192 0.1609883 -0.7830064 -0.6008192 0.1609883 -0.7830064 -0.6008205 0.1609906 -0.7830049 -0.6008205 0.1609906 -0.7830049 -0.6008205 0.1609906 -0.7830049 -0.7760118 -0.2079334 -0.5954574 -0.7760118 -0.2079334 -0.5954574 -0.7760118 -0.2079334 -0.5954574 -0.7760144 -0.2079317 -0.5954543 -0.7760144 -0.2079317 -0.5954543 -0.7760144 -0.2079317 -0.5954543 -0.5680801 -0.5680802 -0.5954577 -0.5680801 -0.5680802 -0.5954577 -0.5680801 -0.5680802 -0.5954577 -0.5680802 -0.5680802 -0.5954576 -0.5680802 -0.5680802 -0.5954576 -0.5680802 -0.5680802 -0.5954576 -0.2079341 -0.7760141 -0.595454 -0.2079341 -0.7760141 -0.595454 -0.2079341 -0.7760141 -0.595454 -0.2079311 -0.7760124 -0.5954572 -0.2079311 -0.7760124 -0.5954572 -0.2079311 -0.7760124 -0.5954572 0.2079334 -0.7760116 -0.5954575 0.2079334 -0.7760116 -0.5954575 0.2079334 -0.7760116 -0.5954575 0.2079317 -0.7760144 -0.5954543 0.2079317 -0.7760144 -0.5954543 0.2079317 -0.7760144 -0.5954543 0.5680801 -0.5680802 -0.5954577 0.5680801 -0.5680802 -0.5954577 0.5680801 -0.5680802 -0.5954577 0.5680801 -0.5680801 -0.5954577 0.5680801 -0.5680801 -0.5954577 0.5680801 -0.5680801 -0.5954577 0.7760141 -0.207934 -0.595454 0.7760141 -0.207934 -0.595454 0.7760141 -0.207934 -0.595454 0.7760126 -0.2079311 -0.5954571 0.7760126 -0.2079311 -0.5954571 0.7760126 -0.2079311 -0.5954571 0.7760118 0.2079334 -0.5954574 0.7760118 0.2079334 -0.5954574 0.7760118 0.2079334 -0.5954574 0.7760144 0.2079317 -0.5954543 0.7760144 0.2079317 -0.5954543 0.7760144 0.2079317 -0.5954543 0.5680801 0.5680802 -0.5954577 0.5680801 0.5680802 -0.5954577 0.5680801 0.5680802 -0.5954577 0.5680802 0.5680802 -0.5954576 0.5680802 0.5680802 -0.5954576 0.5680802 0.5680802 -0.5954576 0.2079341 0.7760141 -0.595454 0.2079341 0.7760141 -0.595454 0.2079341 0.7760141 -0.595454 0.2079311 0.7760124 -0.5954572 0.2079311 0.7760124 -0.5954572 0.2079311 0.7760124 -0.5954572 -0.2079334 0.7760116 -0.5954575 -0.2079334 0.7760116 -0.5954575 -0.2079334 0.7760116 -0.5954575 -0.2079317 0.7760144 -0.5954543 -0.2079317 0.7760144 -0.5954543 -0.2079317 0.7760144 -0.5954543 -0.5680801 0.5680802 -0.5954577 -0.5680801 0.5680802 -0.5954577 -0.5680801 0.5680802 -0.5954577 -0.5680801 0.5680801 -0.5954577 -0.5680801 0.5680801 -0.5954577 -0.5680801 0.5680801 -0.5954577 -0.7760141 0.207934 -0.595454 -0.7760141 0.207934 -0.595454 -0.7760141 0.207934 -0.595454 -0.7760126 0.2079311 -0.5954571 -0.7760126 0.2079311 -0.5954571 -0.7760126 0.2079311 -0.5954571 -0.8968096 -0.2402984 -0.3714689 -0.8968096 -0.2402984 -0.3714689 -0.8968096 -0.2402984 -0.3714689 -0.896808 -0.2402999 -0.3714719 -0.896808 -0.2402999 -0.3714719 -0.896808 -0.2402999 -0.3714719 -0.65651 -0.65651 -0.371469 -0.65651 -0.65651 -0.371469 -0.65651 -0.65651 -0.371469 -0.65651 -0.65651 -0.3714691 -0.65651 -0.65651 -0.3714691 -0.65651 -0.65651 -0.3714691 -0.2402981 -0.8968084 -0.3714721 -0.2402981 -0.8968084 -0.3714721 -0.2402981 -0.8968084 -0.3714721 -0.2403002 -0.8968092 -0.3714691 -0.2403002 -0.8968092 -0.3714691 -0.2403002 -0.8968092 -0.3714691 0.2402984 -0.8968096 -0.3714689 0.2402984 -0.8968096 -0.3714689 0.2402984 -0.8968096 -0.3714689 0.2402999 -0.896808 -0.3714719 0.2402999 -0.896808 -0.3714719 0.2402999 -0.896808 -0.3714719 0.65651 -0.65651 -0.371469 0.65651 -0.65651 -0.371469 0.65651 -0.65651 -0.371469 0.65651 -0.65651 -0.3714691 0.65651 -0.65651 -0.3714691 0.65651 -0.65651 -0.3714691 0.8968084 -0.2402981 -0.3714721 0.8968084 -0.2402981 -0.3714721 0.8968084 -0.2402981 -0.3714721 0.8968092 -0.2403002 -0.3714691 0.8968092 -0.2403002 -0.3714691 0.8968092 -0.2403002 -0.3714691 0.8968096 0.2402984 -0.3714689 0.8968096 0.2402984 -0.3714689 0.8968096 0.2402984 -0.3714689 0.896808 0.2402999 -0.3714719 0.896808 0.2402999 -0.3714719 0.896808 0.2402999 -0.3714719 0.65651 0.65651 -0.371469 0.65651 0.65651 -0.371469 0.65651 0.65651 -0.371469 0.65651 0.65651 -0.3714691 0.65651 0.65651 -0.3714691 0.65651 0.65651 -0.3714691 0.2402981 0.8968084 -0.3714721 0.2402981 0.8968084 -0.3714721 0.2402981 0.8968084 -0.3714721 0.2403002 0.8968092 -0.3714691 0.2403002 0.8968092 -0.3714691 0.2403002 0.8968092 -0.3714691 -0.2402984 0.8968096 -0.3714689 -0.2402984 0.8968096 -0.3714689 -0.2402984 0.8968096 -0.3714689 -0.2402999 0.896808 -0.3714719 -0.2402999 0.896808 -0.3714719 -0.2402999 0.896808 -0.3714719 -0.65651 0.65651 -0.371469 -0.65651 0.65651 -0.371469 -0.65651 0.65651 -0.371469 -0.65651 0.65651 -0.3714691 -0.65651 0.65651 -0.3714691 -0.65651 0.65651 -0.3714691 -0.8968084 0.2402981 -0.3714721 -0.8968084 0.2402981 -0.3714721 -0.8968084 0.2402981 -0.3714721 -0.8968092 0.2403002 -0.3714691 -0.8968092 0.2403002 -0.3714691 -0.8968092 0.2403002 -0.3714691 -0.958209 -0.2567523 -0.1261504 -0.958209 -0.2567523 -0.1261504 -0.958209 -0.2567523 -0.1261504 -0.9582092 -0.256752 -0.1261498 -0.9582092 -0.256752 -0.1261498 -0.9582092 -0.256752 -0.1261498 -0.7014578 -0.7014578 -0.1261503 -0.7014578 -0.7014578 -0.1261503 -0.7014578 -0.7014578 -0.1261503 -0.7014578 -0.7014578 -0.1261503 -0.7014578 -0.7014578 -0.1261503 -0.7014578 -0.7014578 -0.1261503 -0.2567523 -0.958209 -0.1261498 -0.2567523 -0.958209 -0.1261498 -0.2567523 -0.958209 -0.1261498 -0.256752 -0.958209 -0.1261504 -0.256752 -0.958209 -0.1261504 -0.256752 -0.958209 -0.1261504 0.2567523 -0.958209 -0.1261504 0.2567523 -0.958209 -0.1261504 0.2567523 -0.958209 -0.1261504 0.256752 -0.9582092 -0.1261498 0.256752 -0.9582092 -0.1261498 0.256752 -0.9582092 -0.1261498 0.7014578 -0.7014578 -0.1261503 0.7014578 -0.7014578 -0.1261503 0.7014578 -0.7014578 -0.1261503 0.7014578 -0.7014578 -0.1261503 0.7014578 -0.7014578 -0.1261503 0.7014578 -0.7014578 -0.1261503 0.958209 -0.2567523 -0.1261498 0.958209 -0.2567523 -0.1261498 0.958209 -0.2567523 -0.1261498 0.958209 -0.256752 -0.1261504 0.958209 -0.256752 -0.1261504 0.958209 -0.256752 -0.1261504 0.958209 0.2567523 -0.1261504 0.958209 0.2567523 -0.1261504 0.958209 0.2567523 -0.1261504 0.9582092 0.256752 -0.1261498 0.9582092 0.256752 -0.1261498 0.9582092 0.256752 -0.1261498 0.7014578 0.7014578 -0.1261503 0.7014578 0.7014578 -0.1261503 0.7014578 0.7014578 -0.1261503 0.7014578 0.7014578 -0.1261503 0.7014578 0.7014578 -0.1261503 0.7014578 0.7014578 -0.1261503 0.2567523 0.958209 -0.1261498 0.2567523 0.958209 -0.1261498 0.2567523 0.958209 -0.1261498 0.256752 0.958209 -0.1261504 0.256752 0.958209 -0.1261504 0.256752 0.958209 -0.1261504 -0.2567523 0.958209 -0.1261504 -0.2567523 0.958209 -0.1261504 -0.2567523 0.958209 -0.1261504 -0.256752 0.9582092 -0.1261498 -0.256752 0.9582092 -0.1261498 -0.256752 0.9582092 -0.1261498 -0.7014578 0.7014578 -0.1261503 -0.7014578 0.7014578 -0.1261503 -0.7014578 0.7014578 -0.1261503 -0.7014578 0.7014578 -0.1261503 -0.7014578 0.7014578 -0.1261503 -0.7014578 0.7014578 -0.1261503 -0.958209 0.2567523 -0.1261498 -0.958209 0.2567523 -0.1261498 -0.958209 0.2567523 -0.1261498 -0.958209 0.256752 -0.1261504 -0.958209 0.256752 -0.1261504 -0.958209 0.256752 -0.1261504 -0.958209 -0.256752 0.1261505 -0.958209 -0.256752 0.1261505 -0.958209 -0.256752 0.1261505 -0.958209 -0.2567523 0.1261499 -0.958209 -0.2567523 0.1261499 -0.958209 -0.2567523 0.1261499 -0.7014578 -0.7014578 0.1261503 -0.7014578 -0.7014578 0.1261503 -0.7014578 -0.7014578 0.1261503 -0.7014578 -0.7014578 0.1261503 -0.7014578 -0.7014578 0.1261503 -0.7014578 -0.7014578 0.1261503 -0.256752 -0.958209 0.1261498 -0.256752 -0.958209 0.1261498 -0.256752 -0.958209 0.1261498 -0.2567523 -0.9582089 0.1261505 -0.2567523 -0.9582089 0.1261505 -0.2567523 -0.9582089 0.1261505 0.256752 -0.958209 0.1261505 0.256752 -0.958209 0.1261505 0.256752 -0.958209 0.1261505 0.2567523 -0.958209 0.1261499 0.2567523 -0.958209 0.1261499 0.2567523 -0.958209 0.1261499 0.7014578 -0.7014578 0.1261503 0.7014578 -0.7014578 0.1261503 0.7014578 -0.7014578 0.1261503 0.7014578 -0.7014578 0.1261503 0.7014578 -0.7014578 0.1261503 0.7014578 -0.7014578 0.1261503 0.958209 -0.256752 0.1261498 0.958209 -0.256752 0.1261498 0.958209 -0.256752 0.1261498 0.9582089 -0.2567523 0.1261505 0.9582089 -0.2567523 0.1261505 0.9582089 -0.2567523 0.1261505 0.958209 0.256752 0.1261505 0.958209 0.256752 0.1261505 0.958209 0.256752 0.1261505 0.958209 0.2567523 0.1261499 0.958209 0.2567523 0.1261499 0.958209 0.2567523 0.1261499 0.7014578 0.7014578 0.1261503 0.7014578 0.7014578 0.1261503 0.7014578 0.7014578 0.1261503 0.7014578 0.7014578 0.1261503 0.7014578 0.7014578 0.1261503 0.7014578 0.7014578 0.1261503 0.256752 0.958209 0.1261498 0.256752 0.958209 0.1261498 0.256752 0.958209 0.1261498 0.2567523 0.9582089 0.1261505 0.2567523 0.9582089 0.1261505 0.2567523 0.9582089 0.1261505 -0.256752 0.958209 0.1261505 -0.256752 0.958209 0.1261505 -0.256752 0.958209 0.1261505 -0.2567523 0.958209 0.1261499 -0.2567523 0.958209 0.1261499 -0.2567523 0.958209 0.1261499 -0.7014578 0.7014578 0.1261503 -0.7014578 0.7014578 0.1261503 -0.7014578 0.7014578 0.1261503 -0.7014578 0.7014578 0.1261503 -0.7014578 0.7014578 0.1261503 -0.7014578 0.7014578 0.1261503 -0.958209 0.256752 0.1261498 -0.958209 0.256752 0.1261498 -0.958209 0.256752 0.1261498 -0.9582089 0.2567523 0.1261505 -0.9582089 0.2567523 0.1261505 -0.9582089 0.2567523 0.1261505 -0.8968092 -0.2403002 0.3714691 -0.8968092 -0.2403002 0.3714691 -0.8968092 -0.2403002 0.3714691 -0.8968084 -0.2402981 0.3714721 -0.8968084 -0.2402981 0.3714721 -0.8968084 -0.2402981 0.3714721 -0.65651 -0.65651 0.371469 -0.65651 -0.65651 0.371469 -0.65651 -0.65651 0.371469 -0.65651 -0.65651 0.371469 -0.65651 -0.65651 0.371469 -0.65651 -0.65651 0.371469 -0.2402999 -0.896808 0.3714719 -0.2402999 -0.896808 0.3714719 -0.2402999 -0.896808 0.3714719 -0.2402985 -0.8968096 0.3714689 -0.2402985 -0.8968096 0.3714689 -0.2402985 -0.8968096 0.3714689 0.2403002 -0.8968092 0.3714691 0.2403002 -0.8968092 0.3714691 0.2403002 -0.8968092 0.3714691 0.2402981 -0.8968084 0.3714721 0.2402981 -0.8968084 0.3714721 0.2402981 -0.8968084 0.3714721 0.65651 -0.65651 0.371469 0.65651 -0.65651 0.371469 0.65651 -0.65651 0.371469 0.65651 -0.65651 0.371469 0.65651 -0.65651 0.371469 0.65651 -0.65651 0.371469 0.896808 -0.2402999 0.3714719 0.896808 -0.2402999 0.3714719 0.896808 -0.2402999 0.3714719 0.8968096 -0.2402985 0.3714689 0.8968096 -0.2402985 0.3714689 0.8968096 -0.2402985 0.3714689 0.8968092 0.2403002 0.3714691 0.8968092 0.2403002 0.3714691 0.8968092 0.2403002 0.3714691 0.8968084 0.2402981 0.3714721 0.8968084 0.2402981 0.3714721 0.8968084 0.2402981 0.3714721 0.65651 0.65651 0.371469 0.65651 0.65651 0.371469 0.65651 0.65651 0.371469 0.65651 0.65651 0.371469 0.65651 0.65651 0.371469 0.65651 0.65651 0.371469 0.2402999 0.896808 0.3714719 0.2402999 0.896808 0.3714719 0.2402999 0.896808 0.3714719 0.2402985 0.8968096 0.3714689 0.2402985 0.8968096 0.3714689 0.2402985 0.8968096 0.3714689 -0.2403002 0.8968092 0.3714691 -0.2403002 0.8968092 0.3714691 -0.2403002 0.8968092 0.3714691 -0.2402981 0.8968084 0.3714721 -0.2402981 0.8968084 0.3714721 -0.2402981 0.8968084 0.3714721 -0.65651 0.65651 0.371469 -0.65651 0.65651 0.371469 -0.65651 0.65651 0.371469 -0.65651 0.65651 0.371469 -0.65651 0.65651 0.371469 -0.65651 0.65651 0.371469 -0.896808 0.2402999 0.3714719 -0.896808 0.2402999 0.3714719 -0.896808 0.2402999 0.3714719 -0.8968096 0.2402985 0.3714689 -0.8968096 0.2402985 0.3714689 -0.8968096 0.2402985 0.3714689 -0.7760128 -0.2079312 0.595457 -0.7760128 -0.2079312 0.595457 -0.7760128 -0.2079312 0.595457 -0.7760143 -0.207934 0.5954539 -0.7760143 -0.207934 0.5954539 -0.7760143 -0.207934 0.5954539 -0.5680802 -0.5680802 0.5954576 -0.5680802 -0.5680802 0.5954576 -0.5680802 -0.5680802 0.5954576 -0.5680802 -0.5680804 0.5954575 -0.5680802 -0.5680804 0.5954575 -0.5680802 -0.5680804 0.5954575 -0.2079317 -0.7760146 0.5954542 -0.2079317 -0.7760146 0.5954542 -0.2079317 -0.7760146 0.5954542 -0.2079334 -0.7760118 0.5954573 -0.2079334 -0.7760118 0.5954573 -0.2079334 -0.7760118 0.5954573 0.2079311 -0.7760126 0.595457 0.2079311 -0.7760126 0.595457 0.2079311 -0.7760126 0.595457 0.2079341 -0.7760142 0.5954539 0.2079341 -0.7760142 0.5954539 0.2079341 -0.7760142 0.5954539 0.5680803 -0.5680803 0.5954575 0.5680803 -0.5680803 0.5954575 0.5680803 -0.5680803 0.5954575 0.5680802 -0.5680803 0.5954576 0.5680802 -0.5680803 0.5954576 0.5680802 -0.5680803 0.5954576 0.7760146 -0.2079317 0.5954542 0.7760146 -0.2079317 0.5954542 0.7760146 -0.2079317 0.5954542 0.7760119 -0.2079334 0.5954572 0.7760119 -0.2079334 0.5954572 0.7760119 -0.2079334 0.5954572 0.7760128 0.2079312 0.595457 0.7760128 0.2079312 0.595457 0.7760128 0.2079312 0.595457 0.7760143 0.207934 0.5954539 0.7760143 0.207934 0.5954539 0.7760143 0.207934 0.5954539 0.5680802 0.5680802 0.5954576 0.5680802 0.5680802 0.5954576 0.5680802 0.5680802 0.5954576 0.5680802 0.5680804 0.5954575 0.5680802 0.5680804 0.5954575 0.5680802 0.5680804 0.5954575 0.2079317 0.7760146 0.5954542 0.2079317 0.7760146 0.5954542 0.2079317 0.7760146 0.5954542 0.2079334 0.7760118 0.5954573 0.2079334 0.7760118 0.5954573 0.2079334 0.7760118 0.5954573 -0.2079311 0.7760126 0.595457 -0.2079311 0.7760126 0.595457 -0.2079311 0.7760126 0.595457 -0.2079341 0.7760142 0.5954539 -0.2079341 0.7760142 0.5954539 -0.2079341 0.7760142 0.5954539 -0.5680803 0.5680803 0.5954575 -0.5680803 0.5680803 0.5954575 -0.5680803 0.5680803 0.5954575 -0.5680802 0.5680803 0.5954576 -0.5680802 0.5680803 0.5954576 -0.5680802 0.5680803 0.5954576 -0.7760146 0.2079317 0.5954542 -0.7760146 0.2079317 0.5954542 -0.7760146 0.2079317 0.5954542 -0.7760119 0.2079334 0.5954572 -0.7760119 0.2079334 0.5954572 -0.7760119 0.2079334 0.5954572 -0.6008203 -0.1609906 0.7830051 -0.6008203 -0.1609906 0.7830051 -0.6008203 -0.1609906 0.7830051 -0.6008191 -0.1609883 0.7830065 -0.6008191 -0.1609883 0.7830065 -0.6008191 -0.1609883 0.7830065 -0.4398313 -0.4398314 0.7830049 -0.4398313 -0.4398314 0.7830049 -0.4398313 -0.4398314 0.7830049 -0.4398313 -0.4398313 0.7830049 -0.4398313 -0.4398313 0.7830049 -0.4398313 -0.4398313 0.7830049 -0.1609903 -0.6008189 0.7830063 -0.1609903 -0.6008189 0.7830063 -0.1609903 -0.6008189 0.7830063 -0.1609888 -0.6008212 0.7830048 -0.1609888 -0.6008212 0.7830048 -0.1609888 -0.6008212 0.7830048 0.1609907 -0.6008204 0.7830051 0.1609907 -0.6008204 0.7830051 0.1609907 -0.6008204 0.7830051 0.1609883 -0.6008191 0.7830065 0.1609883 -0.6008191 0.7830065 0.1609883 -0.6008191 0.7830065 0.4398313 -0.4398314 0.7830049 0.4398313 -0.4398314 0.7830049 0.4398313 -0.4398314 0.7830049 0.4398314 -0.4398314 0.7830049 0.4398314 -0.4398314 0.7830049 0.4398314 -0.4398314 0.7830049 0.6008189 -0.1609902 0.7830063 0.6008189 -0.1609902 0.7830063 0.6008189 -0.1609902 0.7830063 0.6008211 -0.1609888 0.7830048 0.6008211 -0.1609888 0.7830048 0.6008211 -0.1609888 0.7830048 0.6008203 0.1609906 0.7830051 0.6008203 0.1609906 0.7830051 0.6008203 0.1609906 0.7830051 0.6008191 0.1609883 0.7830065 0.6008191 0.1609883 0.7830065 0.6008191 0.1609883 0.7830065 0.4398313 0.4398314 0.7830049 0.4398313 0.4398314 0.7830049 0.4398313 0.4398314 0.7830049 0.4398313 0.4398313 0.7830049 0.4398313 0.4398313 0.7830049 0.4398313 0.4398313 0.7830049 0.1609903 0.6008189 0.7830063 0.1609903 0.6008189 0.7830063 0.1609903 0.6008189 0.7830063 0.1609888 0.6008212 0.7830048 0.1609888 0.6008212 0.7830048 0.1609888 0.6008212 0.7830048 -0.1609907 0.6008204 0.7830051 -0.1609907 0.6008204 0.7830051 -0.1609907 0.6008204 0.7830051 -0.1609883 0.6008191 0.7830065 -0.1609883 0.6008191 0.7830065 -0.1609883 0.6008191 0.7830065 -0.4398313 0.4398314 0.7830049 -0.4398313 0.4398314 0.7830049 -0.4398313 0.4398314 0.7830049 -0.4398314 0.4398314 0.7830049 -0.4398314 0.4398314 0.7830049 -0.4398314 0.4398314 0.7830049 -0.6008189 0.1609902 0.7830063 -0.6008189 0.1609902 0.7830063 -0.6008189 0.1609902 0.7830063 -0.6008211 0.1609888 0.7830048 -0.6008211 0.1609888 0.7830048 -0.6008211 0.1609888 0.7830048 -0.3806894 -0.102005 0.9190596 -0.3806894 -0.102005 0.9190596 -0.3806894 -0.102005 0.9190596 -0.3806891 -0.1020045 0.9190598 -0.3806891 -0.1020045 0.9190598 -0.3806891 -0.1020045 0.9190598 -0.278684 -0.278684 0.9190595 -0.278684 -0.278684 0.9190595 -0.278684 -0.278684 0.9190595 -0.2786841 -0.2786841 0.9190595 -0.2786841 -0.2786841 0.9190595 -0.2786841 -0.2786841 0.9190595 -0.1020049 -0.3806891 0.9190597 -0.1020049 -0.3806891 0.9190597 -0.1020049 -0.3806891 0.9190597 -0.1020046 -0.3806895 0.9190596 -0.1020046 -0.3806895 0.9190596 -0.1020046 -0.3806895 0.9190596 0.102005 -0.3806894 0.9190596 0.102005 -0.3806894 0.9190596 0.102005 -0.3806894 0.9190596 0.1020045 -0.3806891 0.9190598 0.1020045 -0.3806891 0.9190598 0.1020045 -0.3806891 0.9190598 0.278684 -0.278684 0.9190595 0.278684 -0.278684 0.9190595 0.278684 -0.278684 0.9190595 0.2786841 -0.2786841 0.9190595 0.2786841 -0.2786841 0.9190595 0.2786841 -0.2786841 0.9190595 0.3806891 -0.1020049 0.9190597 0.3806891 -0.1020049 0.9190597 0.3806891 -0.1020049 0.9190597 0.3806895 -0.1020046 0.9190596 0.3806895 -0.1020046 0.9190596 0.3806895 -0.1020046 0.9190596 0.3806894 0.102005 0.9190596 0.3806894 0.102005 0.9190596 0.3806894 0.102005 0.9190596 0.3806891 0.1020045 0.9190598 0.3806891 0.1020045 0.9190598 0.3806891 0.1020045 0.9190598 0.278684 0.278684 0.9190595 0.278684 0.278684 0.9190595 0.278684 0.278684 0.9190595 0.2786841 0.2786841 0.9190595 0.2786841 0.2786841 0.9190595 0.2786841 0.2786841 0.9190595 0.1020049 0.3806891 0.9190597 0.1020049 0.3806891 0.9190597 0.1020049 0.3806891 0.9190597 0.1020046 0.3806895 0.9190596 0.1020046 0.3806895 0.9190596 0.1020046 0.3806895 0.9190596 -0.102005 0.3806894 0.9190596 -0.102005 0.3806894 0.9190596 -0.102005 0.3806894 0.9190596 -0.1020045 0.3806891 0.9190598 -0.1020045 0.3806891 0.9190598 -0.1020045 0.3806891 0.9190598 -0.278684 0.278684 0.9190595 -0.278684 0.278684 0.9190595 -0.278684 0.278684 0.9190595 -0.2786841 0.2786841 0.9190595 -0.2786841 0.2786841 0.9190595 -0.2786841 0.2786841 0.9190595 -0.3806891 0.1020049 0.9190597 -0.3806891 0.1020049 0.9190597 -0.3806891 0.1020049 0.9190597 -0.3806895 0.1020046 0.9190596 -0.3806895 0.1020046 0.9190596 -0.3806895 0.1020046 0.9190596 -0.1304458 -0.0349525 0.9908391 -0.1304458 -0.0349525 0.9908391 -0.1304458 -0.0349525 0.9908391 1.0 0.0 0.0 1.0 0.0 0.0 -0.0954928 -0.0954928 0.9908392 -0.0954928 -0.0954928 0.9908392 -0.0954928 -0.0954928 0.9908392 1.0 0.0 0.0 1.0 0.0 0.0 -0.0349525 -0.1304458 0.9908391 -0.0349525 -0.1304458 0.9908391 -0.0349525 -0.1304458 0.9908391 1.0 0.0 0.0 1.0 0.0 0.0 0.0349525 -0.1304458 0.9908391 0.0349525 -0.1304458 0.9908391 0.0349525 -0.1304458 0.9908391 1.0 0.0 0.0 1.0 0.0 0.0 0.0954928 -0.0954928 0.9908392 0.0954928 -0.0954928 0.9908392 0.0954928 -0.0954928 0.9908392 1.0 0.0 0.0 1.0 0.0 0.0 0.1304458 -0.0349525 0.9908391 0.1304458 -0.0349525 0.9908391 0.1304458 -0.0349525 0.9908391 1.0 0.0 0.0 1.0 0.0 0.0 0.1304458 0.0349525 0.9908391 0.1304458 0.0349525 0.9908391 0.1304458 0.0349525 0.9908391 1.0 0.0 0.0 1.0 0.0 0.0 0.0954928 0.0954928 0.9908392 0.0954928 0.0954928 0.9908392 0.0954928 0.0954928 0.9908392 1.0 0.0 0.0 1.0 0.0 0.0 0.0349525 0.1304458 0.9908391 0.0349525 0.1304458 0.9908391 0.0349525 0.1304458 0.9908391 1.0 0.0 0.0 1.0 0.0 0.0 -0.0349525 0.1304458 0.9908391 -0.0349525 0.1304458 0.9908391 -0.0349525 0.1304458 0.9908391 1.0 0.0 0.0 1.0 0.0 0.0 -0.0954928 0.0954928 0.9908392 -0.0954928 0.0954928 0.9908392 -0.0954928 0.0954928 0.9908392 1.0 0.0 0.0 1.0 0.0 0.0 -0.1304458 0.0349525 0.9908391 -0.1304458 0.0349525 0.9908391 -0.1304458 0.0349525 0.9908391 1.0 0.0 0.0 1.0 0.0 0.0 1.0 0.0 0.0 1.0 0.0 0.0 -0.1304453 -0.0349524 -0.9908392 -0.1304453 -0.0349524 -0.9908392 -0.1304453 -0.0349524 -0.9908392 1.0 0.0 0.0 1.0 0.0 0.0 -0.0954924 -0.0954924 -0.9908392 -0.0954924 -0.0954924 -0.9908392 -0.0954924 -0.0954924 -0.9908392 1.0 0.0 0.0 1.0 0.0 0.0 -0.0349524 -0.1304453 -0.9908392 -0.0349524 -0.1304453 -0.9908392 -0.0349524 -0.1304453 -0.9908392 1.0 0.0 0.0 1.0 0.0 0.0 0.0349524 -0.1304453 -0.9908392 0.0349524 -0.1304453 -0.9908392 0.0349524 -0.1304453 -0.9908392 1.0 0.0 0.0 1.0 0.0 0.0 0.0954924 -0.0954924 -0.9908392 0.0954924 -0.0954924 -0.9908392 0.0954924 -0.0954924 -0.9908392 1.0 0.0 0.0 1.0 0.0 0.0 0.1304453 -0.0349524 -0.9908392 0.1304453 -0.0349524 -0.9908392 0.1304453 -0.0349524 -0.9908392 1.0 0.0 0.0 1.0 0.0 0.0 0.1304453 0.0349524 -0.9908392 0.1304453 0.0349524 -0.9908392 0.1304453 0.0349524 -0.9908392 1.0 0.0 0.0 1.0 0.0 0.0 0.0954924 0.0954924 -0.9908392 0.0954924 0.0954924 -0.9908392 0.0954924 0.0954924 -0.9908392 1.0 0.0 0.0 1.0 0.0 0.0 0.0349524 0.1304453 -0.9908392 0.0349524 0.1304453 -0.9908392 0.0349524 0.1304453 -0.9908392 1.0 0.0 0.0 1.0 0.0 0.0 -0.0349524 0.1304453 -0.9908392 -0.0349524 0.1304453 -0.9908392 -0.0349524 0.1304453 -0.9908392 1.0 0.0 0.0 1.0 0.0 0.0 -0.0954924 0.0954924 -0.9908392 -0.0954924 0.0954924 -0.9908392 -0.0954924 0.0954924 -0.9908392 1.0 0.0 0.0 1.0 0.0 0.0 -0.1304453 0.0349524 -0.9908392 -0.1304453 0.0349524 -0.9908392 -0.1304453 0.0349524 -0.9908392 -0.3806897 -0.1020046 -0.9190595 -0.3806897 -0.1020046 -0.9190595 -0.3806897 -0.1020046 -0.9190595 -0.3806893 -0.1020049 -0.9190596 -0.3806893 -0.1020049 -0.9190596 -0.3806893 -0.1020049 -0.9190596 -0.2786842 -0.2786842 -0.9190594 -0.2786842 -0.2786842 -0.9190594 -0.2786842 -0.2786842 -0.9190594 -0.2786842 -0.2786842 -0.9190595 -0.2786842 -0.2786842 -0.9190595 -0.2786842 -0.2786842 -0.9190595 -0.1020045 -0.3806894 -0.9190597 -0.1020045 -0.3806894 -0.9190597 -0.1020045 -0.3806894 -0.9190597 -0.102005 -0.3806896 -0.9190596 -0.102005 -0.3806896 -0.9190596 -0.102005 -0.3806896 -0.9190596 0.1020046 -0.3806897 -0.9190595 0.1020046 -0.3806897 -0.9190595 0.1020046 -0.3806897 -0.9190595 0.1020049 -0.3806893 -0.9190596 0.1020049 -0.3806893 -0.9190596 0.1020049 -0.3806893 -0.9190596</float_array>
                    <technique_common>
                        <accessor count="840" source="#geometry0-normal-array" stride="3">
                            <param name="X" type="float"/>
                            <param name="Y" type="float"/>
                            <param name="Z" type="float"/>
                        </accessor>
                    </technique_common>
                </source>
                <vertices id="geometry0-vertex">
                    <input semantic="POSITION" source="#geometry0-position"/>
                </vertices>
                <triangles count="288" material="default_ai_0.2_sh_0.2_tr_0.0_dc_r_0.8_g_0.8_b_0.8_sc_r_1.0_g_1.0_b_1.0_ec_r_0.0_g_0.0_b_0_tri">
                    <input offset="0" semantic="VERTEX" source="#geometry0-vertex"/>
                    <input offset="1" semantic="NORMAL" source="#geometry0-normal"/>
                    <p>5 0 6 1 18 2 5 3 18 4 17 5 6 6 7 7 19 8 6 9 19 10 18 11 7 12 8 13 20 14 7 15 20 16 19 17 8 18 9 19 21 20 8 21 21 22 20 23 9 24 10 25 22 26 9 27 22 28 21 29 10 30 11 31 23 32 10 33 23 34 22 35 11 36 12 37 24 38 11 39 24 40 23 41 12 42 2 43 14 44 12 45 14 46 24 47 14 48 13 49 25 50 14 51 25 52 26 53 13 54 15 55 27 56 13 57 27 58 25 59 15 60 16 61 28 62 15 63 28 64 27 65 16 66 17 67 29 68 16 69 29 70 28 71 17 72 18 73 30 74 17 75 30 76 29 77 18 78 19 79 31 80 18 81 31 82 30 83 19 84 20 85 32 86 19 87 32 88 31 89 20 90 21 91 33 92 20 93 33 94 32 95 21 96 22 97 34 98 21 99 34 100 33 101 22 102 23 103 35 104 22 105 35 106 34 107 23 108 24 109 36 110 23 111 36 112 35 113 24 114 14 115 26 116 24 117 26 118 36 119 26 120 25 121 37 122 26 123 37 124 38 125 25 126 27 127 39 128 25 129 39 130 37 131 27 132 28 133 40 134 27 135 40 136 39 137 28 138 29 139 41 140 28 141 41 142 40 143 29 144 30 145 42 146 29 147 42 148 41 149 30 150 31 151 43 152 30 153 43 154 42 155 31 156 32 157 44 158 31 159 44 160 43 161 32 162 33 163 45 164 32 165 45 166 44 167 33 168 34 169 46 170 33 171 46 172 45 173 34 174 35 175 47 176 34 177 47 178 46 179 35 180 36 181 48 182 35 183 48 184 47 185 36 186 26 187 38 188 36 189 38 190 48 191 38 192 37 193 49 194 38 195 49 196 50 197 37 198 39 199 51 200 37 201 51 202 49 203 39 204 40 205 52 206 39 207 52 208 51 209 40 210 41 211 53 212 40 213 53 214 52 215 41 216 42 217 54 218 41 219 54 220 53 221 42 222 43 223 55 224 42 225 55 226 54 227 43 228 44 229 56 230 43 231 56 232 55 233 44 234 45 235 57 236 44 237 57 238 56 239 45 240 46 241 58 242 45 243 58 244 57 245 46 246 47 247 59 248 46 249 59 250 58 251 47 252 48 253 60 254 47 255 60 256 59 257 48 258 38 259 50 260 48 261 50 262 60 263 50 264 49 265 61 266 50 267 61 268 62 269 49 270 51 271 63 272 49 273 63 274 61 275 51 276 52 277 64 278 51 279 64 280 63 281 52 282 53 283 65 284 52 285 65 286 64 287 53 288 54 289 66 290 53 291 66 292 65 293 54 294 55 295 67 296 54 297 67 298 66 299 55 300 56 301 68 302 55 303 68 304 67 305 56 306 57 307 69 308 56 309 69 310 68 311 57 312 58 313 70 314 57 315 70 316 69 317 58 318 59 319 71 320 58 321 71 322 70 323 59 324 60 325 72 326 59 327 72 328 71 329 60 330 50 331 62 332 60 333 62 334 72 335 62 336 61 337 73 338 62 339 73 340 74 341 61 342 63 343 75 344 61 345 75 346 73 347 63 348 64 349 76 350 63 351 76 352 75 353 64 354 65 355 77 356 64 357 77 358 76 359 65 360 66 361 78 362 65 363 78 364 77 365 66 366 67 367 79 368 66 369 79 370 78 371 67 372 68 373 80 374 67 375 80 376 79 377 68 378 69 379 81 380 68 381 81 382 80 383 69 384 70 385 82 386 69 387 82 388 81 389 70 390 71 391 83 392 70 393 83 394 82 395 71 396 72 397 84 398 71 399 84 400 83 401 72 402 62 403 74 404 72 405 74 406 84 407 74 408 73 409 85 410 74 411 85 412 86 413 73 414 75 415 87 416 73 417 87 418 85 419 75 420 76 421 88 422 75 423 88 424 87 425 76 426 77 427 89 428 76 429 89 430 88 431 77 432 78 433 90 434 77 435 90 436 89 437 78 438 79 439 91 440 78 441 91 442 90 443 79 444 80 445 92 446 79 447 92 448 91 449 80 450 81 451 93 452 80 453 93 454 92 455 81 456 82 457 94 458 81 459 94 460 93 461 82 462 83 463 95 464 82 465 95 466 94 467 83 468 84 469 96 470 83 471 96 472 95 473 84 474 74 475 86 476 84 477 86 478 96 479 86 480 85 481 97 482 86 483 97 484 98 485 85 486 87 487 99 488 85 489 99 490 97 491 87 492 88 493 100 494 87 495 100 496 99 497 88 498 89 499 101 500 88 501 101 502 100 503 89 504 90 505 102 506 89 507 102 508 101 509 90 510 91 511 103 512 90 513 103 514 102 515 91 516 92 517 104 518 91 519 104 520 103 521 92 522 93 523 105 524 92 525 105 526 104 527 93 528 94 529 106 530 93 531 106 532 105 533 94 534 95 535 107 536 94 537 107 538 106 539 95 540 96 541 108 542 95 543 108 544 107 545 96 546 86 547 98 548 96 549 98 550 108 551 98 552 97 553 109 554 98 555 109 556 110 557 97 558 99 559 111 560 97 561 111 562 109 563 99 564 100 565 112 566 99 567 112 568 111 569 100 570 101 571 113 572 100 573 113 574 112 575 101 576 102 577 114 578 101 579 114 580 113 581 102 582 103 583 115 584 102 585 115 586 114 587 103 588 104 589 116 590 103 591 116 592 115 593 104 594 105 595 117 596 104 597 117 598 116 599 105 600 106 601 118 602 105 603 118 604 117 605 106 606 107 607 119 608 106 609 119 610 118 611 107 612 108 613 120 614 107 615 120 616 119 617 108 618 98 619 110 620 108 621 110 622 120 623 110 624 109 625 121 626 110 627 121 628 122 629 109 630 111 631 123 632 109 633 123 634 121 635 111 636 112 637 124 638 111 639 124 640 123 641 112 642 113 643 125 644 112 645 125 646 124 647 113 648 114 649 126 650 113 651 126 652 125 653 114 654 115 655 127 656 114 657 127 658 126 659 115 660 116 661 128 662 115 663 128 664 127 665 116 666 117 667 129 668 116 669 129 670 128 671 117 672 118 673 130 674 117 675 130 676 129 677 118 678 119 679 131 680 118 681 131 682 130 683 119 684 120 685 132 686 119 687 132 688 131 689 120 690 110 691 122 692 120 693 122 694 132 695 122 696 121 697 133 698 122 699 133 700 133 700 121 701 123 702 133 703 121 704 133 705 133 705 123 706 124 707 133 708 123 709 133 710 133 710 124 711 125 712 133 713 124 714 133 715 133 715 125 716 126 717 133 718 125 719 133 720 133 720 126 721 127 722 133 723 126 724 133 725 133 725 127 726 128 727 133 728 127 729 133 730 133 730 128 731 129 732 133 733 128 734 133 735 133 735 129 736 130 737 133 738 129 739 133 740 133 740 130 741 131 742 133 743 130 744 133 745 133 745 131 746 132 747 133 748 131 749 133 750 133 750 132 751 122 752 133 753 132 754 133 755 133 755 0 756 0 756 1 757 0 758 1 759 2 760 0 761 0 761 3 762 0 763 3 764 1 765 0 766 0 766 4 767 0 768 4 769 3 770 0 771 0 771 5 772 0 773 5 774 4 775 0 776 0 776 6 777 0 778 6 779 5 780 0 781 0 781 7 782 0 783 7 784 6 785 0 786 0 786 8 787 0 788 8 789 7 790 0 791 0 791 9 792 0 793 9 794 8 795 0 796 0 796 10 797 0 798 10 799 9 800 0 801 0 801 11 802 0 803 11 804 10 805 0 806 0 806 12 807 0 808 12 809 11 810 0 811 0 811 2 812 0 813 2 814 12 815 2 816 1 817 13 818 2 819 13 820 14 821 1 822 3 823 15 824 1 825 15 826 13 827 3 828 4 829 16 830 3 831 16 832 15 833 4 834 5 835 17 836 4 837 17 838 16 839</p>
                </triangles>
            </mesh>
        </geometry>
    </library_geometries>
    <library_visual_scenes>
        <visual_scene id="Building_176_CROWN2">
            <node>
                <instance_geometry url="#geometry0">
                    <bind_material>
                        <technique_common>
                            <instance_material symbol="default_ai_0.2_sh_0.2_tr_0.0_dc_r_0.8_g_0.8_b_0.8_sc_r_1.0_g_1.0_b_1.0_ec_r_0.0_g_0.0_b_0_tri" target="#default_ai_0.2_sh_0.2_tr_0.0_dc_r_0.8_g_0.8_b_0.8_sc_r_1.0_g_1.0_b_1.0_ec_r_0.0_g_0.0_b_0_mat"/>
                        </technique_common>
                    </bind_material>
                </instance_geometry>
            </node>
        </visual_scene>
    </library_visual_scenes>
    <scene>
        <instance_visual_scene url="#Building_176_CROWN2"/>
    </scene>
</COLLADA>
