<?xml version="1.0" encoding="UTF-8" standalone="yes"?>
<COLLADA xmlns="http://www.collada.org/2005/11/COLLADASchema" version="1.4.1">
    <asset>
        <contributor>
            <authoring_tool>3D City Database Importer/Exporter, version 5.5.3; Chair of Geoinformatics, Technical University of Munich</authoring_tool>
        </contributor>
        <created>2026-09-25T14:45:11.514</created>
        <modified>2026-09-25T14:45:11.514</modified>
        <unit meter="1.0" name="meters"/>
        <up_axis>Z_UP</up_axis>
    </asset>
    <library_materials>
        <material id="default_ai_0.2_sh_0.2_tr_0.0_dc_r_0.8_g_0.8_b_0.8_sc_r_1.0_g_1.0_b_1.0_ec_r_0.0_g_0.0_b_0_mat">
            <instance_effect url="#default_ai_0.2_sh_0.2_tr_0.0_dc_r_0.8_g_0.8_b_0.8_sc_r_1.0_g_1.0_b_1.0_ec_r_0.0_g_0.0_b_0_eff"/>
        </material>
    </library_materials>
    <library_effects>
        <effect id="default_ai_0.2_sh_0.2_tr_0.0_dc_r_0.8_g_0.8_b_0.8_sc_r_1.0_g_1.0_b_1.0_ec_r_0.0_g_0.0_b_0_eff">
            <profile_COMMON>
                <technique sid="COMMON">
                    <lambert>
                        <emission>
                            <color>0.0 0.0 0.0 1.0</color>
                        </emission>
                        <diffuse>
                            <color>0.8 0.8 0.8 1.0</color>
                        </diffuse>
                        <reflective>
                            <color>1.0 1.0 1.0 1.0</color>
                        </reflective>
                        <reflectivity>
                            <float>0.2</float>
                        </reflectivity>
                        <transparent opaque="A_ONE">
                            <color>1.0 1.0 1.0 1.0</color>
                        </transparent>
                        <transparency>
                            <float>1.0</float>
                        </transparency>
                    </lambert>
                </technique>
                <extra>
                    <technique profile="GOOGLEEARTH">
                        <double_sided>0</double_sided>
                    </technique>
                </extra>
            </profile_COMMON>
        </effect>
    </library_effects>
    <library_geometries>
        <geometry id="geometry0">
            <mesh>
                <source id="geometry0-position">
                    <float_array id="geometry0-position-array" count="402">0.0 0.0 2.4 0.2689728 0.155292 2.3591112 0.3105828 0.0 2.3591112 0.155292 0.2689728 2.3591112 0.0 0.3105828 2.3591112 -0.155292 0.2689728 2.3591112 -0.2689728 0.155292 2.3591112 -0.3105828 0.0 2.3591112 -0.2689728 -0.155292 2.3591112 -0.155292 -0.2689728 2.3591112 0.0 -0.3105828 2.3591112 0.155292 -0.2689728 2.3591112 0.2689728 -0.155292 2.3591112 0.5196156 0.3 2.23923 0.6 0.0 2.23923 0.3 0.5196156 2.23923 0.0 0.6 2.23923 -0.3 0.5196156 2.23923 -0.5196156 0.3 2.23923 -0.6 0.0 2.23923 -0.5196156 -0.3 2.23923 -0.3 -0.5196156 2.23923 0.0 -0.6 2.23923 0.3 -0.5196156 2.23923 0.5196156 -0.3 2.23923 0.7348464 0.4242636 2.0485272 0.8485284 0.0 2.0485272 0.4242636 0.7348464 2.0485272 0.0 0.8485284 2.0485272 -0.4242636 0.7348464 2.0485272 -0.7348464 0.4242636 2.0485272 -0.8485284 0.0 2.0485272 -0.7348464 -0.4242636 2.0485272 -0.4242636 -0.7348464 2.0485272 0.0 -0.8485284 2.0485272 0.4242636 -0.7348464 2.0485272 0.7348464 -0.4242636 2.0485272 0.9 0.5196156 1.8 1.03923 0.0 1.8 0.5196156 0.9 1.8 0.0 1.03923 1.8 -0.5196156 0.9 1.8 -0.9 0.5196156 1.8 -1.03923 0.0 1.8 -0.9 -0.5196156 1.8 -0.5196156 -0.9 1.8 0.0 -1.03923 1.8 0.5196156 -0.9 1.8 0.9 -0.5196156 1.8 1.0038192 0.5795556 1.5105828 1.1591112 0.0 1.5105828 0.5795556 1.0038192 1.5105828 0.0 1.1591112 1.5105828 -0.5795556 1.0038192 1.5105828 -1.0038192 0.5795556 1.5105828 -1.1591112 0.0 1.5105828 -1.0038192 -0.5795556 1.5105828 -0.5795556 -1.0038192 1.5105828 0.0 -1.1591112 1.5105828 0.5795556 -1.0038192 1.5105828 1.0038192 -0.5795556 1.5105828 1.03923 0.6 1.2 1.2 0.0 1.2 0.6 1.03923 1.2 0.0 1.2 1.2 -0.6 1.03923 1.2 -1.03923 0.6 1.2 -1.2 0.0 1.2 -1.03923 -0.6 1.2 -0.6 -1.03923 1.2 0.0 -1.2 1.2 0.6 -1.03923 1.2 1.03923 -0.6 1.2 1.0038192 0.5795556 0.8894172 1.1591112 0.0 0.8894172 0.5795556 1.0038192 0.8894172 0.0 1.1591112 0.8894172 -0.5795556 1.0038192 0.8894172 -1.0038192 0.5795556 0.8894172 -1.1591112 0.0 0.8894172 -1.0038192 -0.5795556 0.8894172 -0.5795556 -1.0038192 0.8894172 0.0 -1.1591112 0.8894172 0.5795556 -1.0038192 0.8894172 1.0038192 -0.5795556 0.8894172 0.9 0.5196156 0.6 1.03923 0.0 0.6 0.5196156 0.9 0.6 0.0 1.03923 0.6 -0.5196156 0.9 0.6 -0.9 0.5196156 0.6 -1.03923 0.0 0.6 -0.9 -0.5196156 0.6 -0.5196156 -0.9 0.6 0.0 -1.03923 0.6 0.5196156 -0.9 0.6 0.9 -0.5196156 0.6 0.7348464 0.4242636 0.3514716 0.8485284 0.0 0.3514716 0.4242636 0.7348464 0.3514716 0.0 0.8485284 0.3514716 -0.4242636 0.7348464 0.3514716 -0.7348464 0.4242636 0.3514716 -0.8485284 0.0 0.3514716 -0.7348464 -0.4242636 0.3514716 -0.4242636 -0.7348464 0.3514716 0.0 -0.8485284 0.3514716 0.4242636 -0.7348464 0.3514716 0.7348464 -0.4242636 0.3514716 0.5196156 0.3 0.1607688 0.6 0.0 0.1607688 0.3 0.5196156 0.1607688 0.0 0.6 0.1607688 -0.3 0.5196156 0.1607688 -0.5196156 0.3 0.1607688 -0.6 0.0 0.1607688 -0.5196156 -0.3 0.1607688 -0.3 -0.5196156 0.1607688 0.0 -0.6 0.1607688 0.3 -0.5196156 0.1607688 0.5196156 -0.3 0.1607688 0.2689728 0.155292 0.0408888 0.3105828 0.0 0.0408888 0.155292 0.2689728 0.0408888 0.0 0.3105828 0.0408888 -0.155292 0.2689728 0.0408888 -0.2689728 0.155292 0.0408888 -0.3105828 0.0 0.0408888 -0.2689728 -0.155292 0.0408888 -0.155292 -0.2689728 0.0408888 0.0 -0.3105828 0.0408888 0.155292 -0.2689728 0.0408888 0.2689728 -0.155292 0.0408888 0.0 0.0 0.0</float_array>
                    <technique_common>
                        <accessor count="134" source="#geometry0-position-array" stride="3">
                            <param name="X" type="float"/>
                            <param name="Y" type="float"/>
                            <param name="Z" type="float"/>
                        </accessor>
                    </technique_common>
                </source>
                <source id="geometry0-normal">
                    <float_array id="geometry0-normal-array" count="2520">0.958209 -0.2567522 0.1261503 0.958209 -0.2567522 0.1261503 0.958209 -0.2567522 0.1261503 0.958209 -0.2567521 0.1261501 0.958209 -0.2567521 0.1261501 0.958209 -0.2567521 0.1261501 0.958209 0.2567522 0.1261501 0.958209 0.2567522 0.1261501 0.958209 0.2567522 0.1261501 0.958209 0.2567521 0.1261503 0.958209 0.2567521 0.1261503 0.958209 0.2567521 0.1261503 0.7014578 0.7014578 0.1261501 0.7014578 0.7014578 0.1261501 0.7014578 0.7014578 0.1261501 0.7014578 0.7014578 0.1261501 0.7014578 0.7014578 0.1261501 0.7014578 0.7014578 0.1261501 0.2567522 0.958209 0.1261503 0.2567522 0.958209 0.1261503 0.2567522 0.958209 0.1261503 0.2567521 0.958209 0.1261501 0.2567521 0.958209 0.1261501 0.2567521 0.958209 0.1261501 -0.2567522 0.958209 0.1261501 -0.2567522 0.958209 0.1261501 -0.2567522 0.958209 0.1261501 -0.2567521 0.958209 0.1261503 -0.2567521 0.958209 0.1261503 -0.2567521 0.958209 0.1261503 -0.7014578 0.7014578 0.1261501 -0.7014578 0.7014578 0.1261501 -0.7014578 0.7014578 0.1261501 -0.7014578 0.7014578 0.1261501 -0.7014578 0.7014578 0.1261501 -0.7014578 0.7014578 0.1261501 -0.958209 0.2567522 0.1261503 -0.958209 0.2567522 0.1261503 -0.958209 0.2567522 0.1261503 -0.958209 0.2567521 0.1261501 -0.958209 0.2567521 0.1261501 -0.958209 0.2567521 0.1261501 -0.896809 -0.2403 0.3714694 -0.896809 -0.2403 0.3714694 -0.896809 -0.2403 0.3714694 -0.8968083 -0.2402981 0.3714722 -0.8968083 -0.2402981 0.3714722 -0.8968083 -0.2402981 0.3714722 -0.6565099 -0.6565099 0.3714692 -0.6565099 -0.6565099 0.3714692 -0.6565099 -0.6565099 0.3714692 -0.6565099 -0.6565099 0.3714692 -0.6565099 -0.6565099 0.3714692 -0.6565099 -0.6565099 0.3714692 -0.2402997 -0.896808 0.371472 -0.2402997 -0.896808 0.371472 -0.2402997 -0.896808 0.371472 -0.2402984 -0.8968095 0.3714693 -0.2402984 -0.8968095 0.3714693 -0.2402984 -0.8968095 0.3714693 0.2403 -0.896809 0.3714694 0.2403 -0.896809 0.3714694 0.2403 -0.896809 0.3714694 0.2402981 -0.8968083 0.3714722 0.2402981 -0.8968083 0.3714722 0.2402981 -0.8968083 0.3714722 0.6565099 -0.6565099 0.3714692 0.6565099 -0.6565099 0.3714692 0.6565099 -0.6565099 0.3714692 0.6565099 -0.6565099 0.3714692 0.6565099 -0.6565099 0.3714692 0.6565099 -0.6565099 0.3714692 0.896808 -0.2402997 0.371472 0.896808 -0.2402997 0.371472 0.896808 -0.2402997 0.371472 0.8968095 -0.2402984 0.3714693 0.8968095 -0.2402984 0.3714693 0.8968095 -0.2402984 0.3714693 0.896809 0.2403 0.3714694 0.896809 0.2403 0.3714694 0.896809 0.2403 0.3714694 0.8968083 0.2402981 0.3714722 0.8968083 0.2402981 0.3714722 0.8968083 0.2402981 0.3714722 0.6565099 0.6565099 0.3714692 0.6565099 0.6565099 0.3714692 0.6565099 0.6565099 0.3714692 0.6565099 0.6565099 0.3714692 0.6565099 0.6565099 0.3714692 0.6565099 0.6565099 0.3714692 0.2402997 0.896808 0.371472 0.2402997 0.896808 0.371472 0.2402997 0.896808 0.371472 0.2402984 0.8968095 0.3714693 0.2402984 0.8968095 0.3714693 0.2402984 0.8968095 0.3714693 -0.2403 0.896809 0.3714694 -0.2403 0.896809 0.3714694 -0.2403 0.896809 0.3714694 -0.2402981 0.8968083 0.3714722 -0.2402981 0.8968083 0.3714722 -0.2402981 0.8968083 0.3714722 -0.6565099 0.6565099 0.3714692 -0.6565099 0.6565099 0.3714692 -0.6565099 0.6565099 0.3714692 -0.6565099 0.6565099 0.3714692 -0.6565099 0.6565099 0.3714692 -0.6565099 0.6565099 0.3714692 -0.896808 0.2402997 0.371472 -0.896808 0.2402997 0.371472 -0.896808 0.2402997 0.371472 -0.8968095 0.2402984 0.3714693 -0.8968095 0.2402984 0.3714693 -0.8968095 0.2402984 0.3714693 -0.7760128 -0.2079312 0.5954568 -0.7760128 -0.2079312 0.5954568 -0.7760128 -0.2079312 0.5954568 -0.7760144 -0.207934 0.5954537 -0.7760144 -0.207934 0.5954537 -0.7760144 -0.207934 0.5954537 -0.5680803 -0.5680803 0.5954573 -0.5680803 -0.5680803 0.5954573 -0.5680803 -0.5680803 0.5954573 -0.5680803 -0.5680803 0.5954574 -0.5680803 -0.5680803 0.5954574 -0.5680803 -0.5680803 0.5954574 -0.2079317 -0.7760147 0.595454 -0.2079317 -0.7760147 0.595454 -0.2079317 -0.7760147 0.595454 -0.2079334 -0.7760119 0.5954571 -0.2079334 -0.7760119 0.5954571 -0.2079334 -0.7760119 0.5954571 0.2079312 -0.7760128 0.5954568 0.2079312 -0.7760128 0.5954568 0.2079312 -0.7760128 0.5954568 0.207934 -0.7760144 0.5954537 0.207934 -0.7760144 0.5954537 0.207934 -0.7760144 0.5954537 0.5680803 -0.5680803 0.5954573 0.5680803 -0.5680803 0.5954573 0.5680803 -0.5680803 0.5954573 0.5680803 -0.5680803 0.5954574 0.5680803 -0.5680803 0.5954574 0.5680803 -0.5680803 0.5954574 0.7760147 -0.2079317 0.595454 0.7760147 -0.2079317 0.595454 0.7760147 -0.2079317 0.595454 0.7760119 -0.2079334 0.5954571 0.7760119 -0.2079334 0.5954571 0.7760119 -0.2079334 0.5954571 0.7760128 0.2079312 0.5954568 0.7760128 0.2079312 0.5954568 0.7760128 0.2079312 0.5954568 0.7760144 0.207934 0.5954537 0.7760144 0.207934 0.5954537 0.7760144 0.207934 0.5954537 0.5680803 0.5680803 0.5954573 0.5680803 0.5680803 0.5954573 0.5680803 0.5680803 0.5954573 0.5680803 0.5680803 0.5954574 0.5680803 0.5680803 0.5954574 0.5680803 0.5680803 0.5954574 0.2079317 0.7760147 0.595454 0.2079317 0.7760147 0.595454 0.2079317 0.7760147 0.595454 0.2079334 0.7760119 0.5954571 0.2079334 0.7760119 0.5954571 0.2079334 0.7760119 0.5954571 -0.2079312 0.7760128 0.5954568 -0.2079312 0.7760128 0.5954568 -0.2079312 0.7760128 0.5954568 -0.207934 0.7760144 0.5954537 -0.207934 0.7760144 0.5954537 -0.207934 0.7760144 0.5954537 -0.5680803 0.5680803 0.5954573 -0.5680803 0.5680803 0.5954573 -0.5680803 0.5680803 0.5954573 -0.5680803 0.5680803 0.5954574 -0.5680803 0.5680803 0.5954574 -0.5680803 0.5680803 0.5954574 -0.7760147 0.2079317 0.595454 -0.7760147 0.2079317 0.595454 -0.7760147 0.2079317 0.595454 -0.7760119 0.2079334 0.5954571 -0.7760119 0.2079334 0.5954571 -0.7760119 0.2079334 0.5954571 -0.6008226 -0.1609912 0.7830032 -0.6008226 -0.1609912 0.7830032 -0.6008226 -0.1609912 0.7830032 -0.6008214 -0.160989 0.7830046 -0.6008214 -0.160989 0.7830046 -0.6008214 -0.160989 0.7830046 -0.4398331 -0.4398331 0.783003 -0.4398331 -0.4398331 0.783003 -0.4398331 -0.4398331 0.783003 -0.439833 -0.439833 0.7830031 -0.439833 -0.439833 0.7830031 -0.439833 -0.439833 0.7830031 -0.1609908 -0.6008213 0.7830043 -0.1609908 -0.6008213 0.7830043 -0.1609908 -0.6008213 0.7830043 -0.1609895 -0.6008234 0.7830029 -0.1609895 -0.6008234 0.7830029 -0.1609895 -0.6008234 0.7830029 0.1609912 -0.6008226 0.7830032 0.1609912 -0.6008226 0.7830032 0.1609912 -0.6008226 0.7830032 0.160989 -0.6008214 0.7830046 0.160989 -0.6008214 0.7830046 0.160989 -0.6008214 0.7830046 0.4398331 -0.4398331 0.783003 0.4398331 -0.4398331 0.783003 0.4398331 -0.4398331 0.783003 0.439833 -0.439833 0.7830031 0.439833 -0.439833 0.7830031 0.439833 -0.439833 0.7830031 0.6008213 -0.1609908 0.7830043 0.6008213 -0.1609908 0.7830043 0.6008213 -0.1609908 0.7830043 0.6008234 -0.1609895 0.7830029 0.6008234 -0.1609895 0.7830029 0.6008234 -0.1609895 0.7830029 0.6008226 0.1609912 0.7830032 0.6008226 0.1609912 0.7830032 0.6008226 0.1609912 0.7830032 0.6008214 0.160989 0.7830046 0.6008214 0.160989 0.7830046 0.6008214 0.160989 0.7830046 0.4398331 0.4398331 0.783003 0.4398331 0.4398331 0.783003 0.4398331 0.4398331 0.783003 0.439833 0.439833 0.7830031 0.439833 0.439833 0.7830031 0.439833 0.439833 0.7830031 0.1609908 0.6008213 0.7830043 0.1609908 0.6008213 0.7830043 0.1609908 0.6008213 0.7830043 0.1609895 0.6008234 0.7830029 0.1609895 0.6008234 0.7830029 0.1609895 0.6008234 0.7830029 -0.1609912 0.6008226 0.7830032 -0.1609912 0.6008226 0.7830032 -0.1609912 0.6008226 0.7830032 -0.160989 0.6008214 0.7830046 -0.160989 0.6008214 0.7830046 -0.160989 0.6008214 0.7830046 -0.4398331 0.4398331 0.783003 -0.4398331 0.4398331 0.783003 -0.4398331 0.4398331 0.783003 -0.439833 0.439833 0.7830031 -0.439833 0.439833 0.7830031 -0.439833 0.439833 0.7830031 -0.6008213 0.1609908 0.7830043 -0.6008213 0.1609908 0.7830043 -0.6008213 0.1609908 0.7830043 -0.6008234 0.1609895 0.7830029 -0.6008234 0.1609895 0.7830029 -0.6008234 0.1609895 0.7830029 -0.3806861 -0.1020041 0.919061 -0.3806861 -0.1020041 0.919061 -0.3806861 -0.1020041 0.919061 -0.3806859 -0.1020035 0.9190612 -0.3806859 -0.1020035 0.9190612 -0.3806859 -0.1020035 0.9190612 -0.2786817 -0.2786817 0.9190609 -0.2786817 -0.2786817 0.9190609 -0.2786817 -0.2786817 0.9190609 -0.2786817 -0.2786817 0.9190609 -0.2786817 -0.2786817 0.9190609 -0.2786817 -0.2786817 0.9190609 -0.1020041 -0.380686 0.9190612 -0.1020041 -0.380686 0.9190612 -0.1020041 -0.380686 0.9190612 -0.1020036 -0.3806864 0.919061 -0.1020036 -0.3806864 0.919061 -0.1020036 -0.3806864 0.919061 0.1020041 -0.3806861 0.919061 0.1020041 -0.3806861 0.919061 0.1020041 -0.3806861 0.919061 0.1020035 -0.3806859 0.9190612 0.1020035 -0.3806859 0.9190612 0.1020035 -0.3806859 0.9190612 0.2786817 -0.2786817 0.9190609 0.2786817 -0.2786817 0.9190609 0.2786817 -0.2786817 0.9190609 0.2786817 -0.2786817 0.9190609 0.2786817 -0.2786817 0.9190609 0.2786817 -0.2786817 0.9190609 0.380686 -0.1020041 0.9190612 0.380686 -0.1020041 0.9190612 0.380686 -0.1020041 0.9190612 0.3806864 -0.1020036 0.919061 0.3806864 -0.1020036 0.919061 0.3806864 -0.1020036 0.919061 0.3806861 0.1020041 0.919061 0.3806861 0.1020041 0.919061 0.3806861 0.1020041 0.919061 0.3806859 0.1020035 0.9190612 0.3806859 0.1020035 0.9190612 0.3806859 0.1020035 0.9190612 0.2786817 0.2786817 0.9190609 0.2786817 0.2786817 0.9190609 0.2786817 0.2786817 0.9190609 0.2786817 0.2786817 0.9190609 0.2786817 0.2786817 0.9190609 0.2786817 0.2786817 0.9190609 0.1020041 0.380686 0.9190612 0.1020041 0.380686 0.9190612 0.1020041 0.380686 0.9190612 0.1020036 0.3806864 0.919061 0.1020036 0.3806864 0.919061 0.1020036 0.3806864 0.919061 -0.1020041 0.3806861 0.919061 -0.1020041 0.3806861 0.919061 -0.1020041 0.3806861 0.919061 -0.1020035 0.3806859 0.9190612 -0.1020035 0.3806859 0.9190612 -0.1020035 0.3806859 0.9190612 -0.2786817 0.2786817 0.9190609 -0.2786817 0.2786817 0.9190609 -0.2786817 0.2786817 0.9190609 -0.2786817 0.2786817 0.9190609 -0.2786817 0.2786817 0.9190609 -0.2786817 0.2786817 0.9190609 -0.380686 0.1020041 0.9190612 -0.380686 0.1020041 0.9190612 -0.380686 0.1020041 0.9190612 -0.3806864 0.1020036 0.919061 -0.3806864 0.1020036 0.919061 -0.3806864 0.1020036 0.919061 -0.1304458 -0.0349525 0.9908391 -0.1304458 -0.0349525 0.9908391 -0.1304458 -0.0349525 0.9908391 1.0 0.0 0.0 1.0 0.0 0.0 -0.0954928 -0.0954928 0.9908392 -0.0954928 -0.0954928 0.9908392 -0.0954928 -0.0954928 0.9908392 1.0 0.0 0.0 1.0 0.0 0.0 -0.0349525 -0.1304458 0.9908391 -0.0349525 -0.1304458 0.9908391 -0.0349525 -0.1304458 0.9908391 1.0 0.0 0.0 1.0 0.0 0.0 0.0349525 -0.1304458 0.9908391 0.0349525 -0.1304458 0.9908391 0.0349525 -0.1304458 0.9908391 1.0 0.0 0.0 1.0 0.0 0.0 0.0954928 -0.0954928 0.9908392 0.0954928 -0.0954928 0.9908392 0.0954928 -0.0954928 0.9908392 1.0 0.0 0.0 1.0 0.0 0.0 0.1304458 -0.0349525 0.9908391 0.1304458 -0.0349525 0.9908391 0.1304458 -0.0349525 0.9908391 1.0 0.0 0.0 1.0 0.0 0.0 0.1304458 0.0349525 0.9908391 0.1304458 0.0349525 0.9908391 0.1304458 0.0349525 0.9908391 1.0 0.0 0.0 1.0 0.0 0.0 0.0954928 0.0954928 0.9908392 0.0954928 0.0954928 0.9908392 0.0954928 0.0954928 0.9908392 1.0 0.0 0.0 1.0 0.0 0.0 0.0349525 0.1304458 0.9908391 0.0349525 0.1304458 0.9908391 0.0349525 0.1304458 0.9908391 1.0 0.0 0.0 1.0 0.0 0.0 -0.0349525 0.1304458 0.9908391 -0.0349525 0.1304458 0.9908391 -0.0349525 0.1304458 0.9908391 1.0 0.0 0.0 1.0 0.0 0.0 -0.0954928 0.0954928 0.9908392 -0.0954928 0.0954928 0.9908392 -0.0954928 0.0954928 0.9908392 1.0 0.0 0.0 1.0 0.0 0.0 -0.1304458 0.0349525 0.9908391 -0.1304458 0.0349525 0.9908391 -0.1304458 0.0349525 0.9908391 1.0 0.0 0.0 1.0 0.0 0.0 1.0 0.0 0.0 1.0 0.0 0.0 -0.1304458 -0.0349525 -0.9908391 -0.1304458 -0.0349525 -0.9908391 -0.1304458 -0.0349525 -0.9908391 1.0 0.0 0.0 1.0 0.0 0.0 -0.0954928 -0.0954928 -0.9908392 -0.0954928 -0.0954928 -0.9908392 -0.0954928 -0.0954928 -0.9908392 1.0 0.0 0.0 1.0 0.0 0.0 -0.0349525 -0.1304458 -0.9908391 -0.0349525 -0.1304458 -0.9908391 -0.0349525 -0.1304458 -0.9908391 1.0 0.0 0.0 1.0 0.0 0.0 0.0349525 -0.1304458 -0.9908391 0.0349525 -0.1304458 -0.9908391 0.0349525 -0.1304458 -0.9908391 1.0 0.0 0.0 1.0 0.0 0.0 0.0954928 -0.0954928 -0.9908392 0.0954928 -0.0954928 -0.9908392 0.0954928 -0.0954928 -0.9908392 1.0 0.0 0.0 1.0 0.0 0.0 0.1304458 -0.0349525 -0.9908391 0.1304458 -0.0349525 -0.9908391 0.1304458 -0.0349525 -0.9908391 1.0 0.0 0.0 1.0 0.0 0.0 0.1304458 0.0349525 -0.9908391 0.1304458 0.0349525 -0.9908391 0.1304458 0.0349525 -0.9908391 1.0 0.0 0.0 1.0 0.0 0.0 0.0954928 0.0954928 -0.9908392 0.0954928 0.0954928 -0.9908392 0.0954928 0.0954928 -0.9908392 1.0 0.0 0.0 1.0 0.0 0.0 0.0349525 0.1304458 -0.9908391 0.0349525 0.1304458 -0.9908391 0.0349525 0.1304458 -0.9908391 1.0 0.0 0.0 1.0 0.0 0.0 -0.0349525 0.1304458 -0.9908391 -0.0349525 0.1304458 -0.9908391 -0.0349525 0.1304458 -0.9908391 1.0 0.0 0.0 1.0 0.0 0.0 -0.0954928 0.0954928 -0.9908392 -0.0954928 0.0954928 -0.9908392 -0.0954928 0.0954928 -0.9908392 1.0 0.0 0.0 1.0 0.0 0.0 -0.1304458 0.0349525 -0.9908391 -0.1304458 0.0349525 -0.9908391 -0.1304458 0.0349525 -0.9908391 -0.3806901 -0.1020046 -0.9190593 -0.3806901 -0.1020046 -0.9190593 -0.3806901 -0.1020046 -0.9190593 -0.3806896 -0.102005 -0.9190595 -0.3806896 -0.102005 -0.9190595 -0.3806896 -0.102005 -0.9190595 -0.2786844 -0.2786844 -0.9190593 -0.2786844 -0.2786844 -0.9190593 -0.2786844 -0.2786844 -0.9190593 -0.2786844 -0.2786844 -0.9190593 -0.2786844 -0.2786844 -0.9190593 -0.2786844 -0.2786844 -0.9190593 -0.1020045 -0.3806896 -0.9190596 -0.1020045 -0.3806896 -0.9190596 -0.1020045 -0.3806896 -0.9190596 -0.1020051 -0.3806899 -0.9190595 -0.1020051 -0.3806899 -0.9190595 -0.1020051 -0.3806899 -0.9190595 0.1020046 -0.3806901 -0.9190593 0.1020046 -0.3806901 -0.9190593 0.1020046 -0.3806901 -0.9190593 0.102005 -0.3806896 -0.9190595 0.102005 -0.3806896 -0.9190595 0.102005 -0.3806896 -0.9190595 0.2786844 -0.2786844 -0.9190593 0.2786844 -0.2786844 -0.9190593 0.2786844 -0.2786844 -0.9190593 0.2786844 -0.2786844 -0.9190593 0.2786844 -0.2786844 -0.9190593 0.2786844 -0.2786844 -0.9190593 0.3806896 -0.1020045 -0.9190596 0.3806896 -0.1020045 -0.9190596 0.3806896 -0.1020045 -0.9190596 0.3806899 -0.1020051 -0.9190595 0.3806899 -0.1020051 -0.9190595 0.3806899 -0.1020051 -0.9190595 0.3806901 0.1020046 -0.9190593 0.3806901 0.1020046 -0.9190593 0.3806901 0.1020046 -0.9190593 0.3806896 0.102005 -0.9190595 0.3806896 0.102005 -0.9190595 0.3806896 0.102005 -0.9190595 0.2786844 0.2786844 -0.9190593 0.2786844 0.2786844 -0.9190593 0.2786844 0.2786844 -0.9190593 0.2786844 0.2786844 -0.9190593 0.2786844 0.2786844 -0.9190593 0.2786844 0.2786844 -0.9190593 0.1020045 0.3806896 -0.9190596 0.1020045 0.3806896 -0.9190596 0.1020045 0.3806896 -0.9190596 0.1020051 0.3806899 -0.9190595 0.1020051 0.3806899 -0.9190595 0.1020051 0.3806899 -0.9190595 -0.1020046 0.3806901 -0.9190593 -0.1020046 0.3806901 -0.9190593 -0.1020046 0.3806901 -0.9190593 -0.102005 0.3806896 -0.9190595 -0.102005 0.3806896 -0.9190595 -0.102005 0.3806896 -0.9190595 -0.2786844 0.2786844 -0.9190593 -0.2786844 0.2786844 -0.9190593 -0.2786844 0.2786844 -0.9190593 -0.2786844 0.2786844 -0.9190593 -0.2786844 0.2786844 -0.9190593 -0.2786844 0.2786844 -0.9190593 -0.3806896 0.1020045 -0.9190596 -0.3806896 0.1020045 -0.9190596 -0.3806896 0.1020045 -0.9190596 -0.3806899 0.1020051 -0.9190595 -0.3806899 0.1020051 -0.9190595 -0.3806899 0.1020051 -0.9190595 -0.6008232 -0.1609894 -0.7830032 -0.6008232 -0.1609894 -0.7830032 -0.6008232 -0.1609894 -0.7830032 -0.600821 -0.1609907 -0.7830045 -0.600821 -0.1609907 -0.7830045 -0.600821 -0.1609907 -0.7830045 -0.4398329 -0.4398329 -0.7830032 -0.4398329 -0.4398329 -0.7830032 -0.4398329 -0.4398329 -0.7830032 -0.4398329 -0.4398329 -0.7830032 -0.4398329 -0.4398329 -0.7830032 -0.4398329 -0.4398329 -0.7830032 -0.1609889 -0.6008213 -0.7830048 -0.1609889 -0.6008213 -0.7830048 -0.1609889 -0.6008213 -0.7830048 -0.1609911 -0.6008224 -0.7830033 -0.1609911 -0.6008224 -0.7830033 -0.1609911 -0.6008224 -0.7830033 0.1609894 -0.6008232 -0.7830032 0.1609894 -0.6008232 -0.7830032 0.1609894 -0.6008232 -0.7830032 0.1609907 -0.600821 -0.7830045 0.1609907 -0.600821 -0.7830045 0.1609907 -0.600821 -0.7830045 0.4398329 -0.4398329 -0.7830032 0.4398329 -0.4398329 -0.7830032 0.4398329 -0.4398329 -0.7830032 0.4398329 -0.4398329 -0.7830032 0.4398329 -0.4398329 -0.7830032 0.4398329 -0.4398329 -0.7830032 0.6008213 -0.1609889 -0.7830048 0.6008213 -0.1609889 -0.7830048 0.6008213 -0.1609889 -0.7830048 0.6008224 -0.1609911 -0.7830033 0.6008224 -0.1609911 -0.7830033 0.6008224 -0.1609911 -0.7830033 0.6008232 0.1609894 -0.7830032 0.6008232 0.1609894 -0.7830032 0.6008232 0.1609894 -0.7830032 0.600821 0.1609907 -0.7830045 0.600821 0.1609907 -0.7830045 0.600821 0.1609907 -0.7830045 0.4398329 0.4398329 -0.7830032 0.4398329 0.4398329 -0.7830032 0.4398329 0.4398329 -0.7830032 0.4398329 0.4398329 -0.7830032 0.4398329 0.4398329 -0.7830032 0.4398329 0.4398329 -0.7830032 0.1609889 0.6008213 -0.7830048 0.1609889 0.6008213 -0.7830048 0.1609889 0.6008213 -0.7830048 0.1609911 0.6008224 -0.7830033 0.1609911 0.6008224 -0.7830033 0.1609911 0.6008224 -0.7830033 -0.1609894 0.6008232 -0.7830032 -0.1609894 0.6008232 -0.7830032 -0.1609894 0.6008232 -0.7830032 -0.1609907 0.600821 -0.7830045 -0.1609907 0.600821 -0.7830045 -0.1609907 0.600821 -0.7830045 -0.4398329 0.4398329 -0.7830032 -0.4398329 0.4398329 -0.7830032 -0.4398329 0.4398329 -0.7830032 -0.4398329 0.4398329 -0.7830032 -0.4398329 0.4398329 -0.7830032 -0.4398329 0.4398329 -0.7830032 -0.6008213 0.1609889 -0.7830048 -0.6008213 0.1609889 -0.7830048 -0.6008213 0.1609889 -0.7830048 -0.6008224 0.1609911 -0.7830033 -0.6008224 0.1609911 -0.7830033 -0.6008224 0.1609911 -0.7830033 -0.7760108 -0.2079331 -0.5954589 -0.7760108 -0.2079331 -0.5954589 -0.7760108 -0.2079331 -0.5954589 -0.7760136 -0.2079314 -0.5954558 -0.7760136 -0.2079314 -0.5954558 -0.7760136 -0.2079314 -0.5954558 -0.5680794 -0.5680794 -0.5954592 -0.5680794 -0.5680794 -0.5954592 -0.5680794 -0.5680794 -0.5954592 -0.5680794 -0.5680794 -0.5954591 -0.5680794 -0.5680794 -0.5954591 -0.5680794 -0.5680794 -0.5954591 -0.2079337 -0.7760131 -0.5954555 -0.2079337 -0.7760131 -0.5954555 -0.2079337 -0.7760131 -0.5954555 -0.2079308 -0.7760116 -0.5954585 -0.2079308 -0.7760116 -0.5954585 -0.2079308 -0.7760116 -0.5954585 0.2079331 -0.7760108 -0.5954589 0.2079331 -0.7760108 -0.5954589 0.2079331 -0.7760108 -0.5954589 0.2079314 -0.7760136 -0.5954558 0.2079314 -0.7760136 -0.5954558 0.2079314 -0.7760136 -0.5954558 0.5680794 -0.5680794 -0.5954592 0.5680794 -0.5680794 -0.5954592 0.5680794 -0.5680794 -0.5954592 0.5680794 -0.5680794 -0.5954591 0.5680794 -0.5680794 -0.5954591 0.5680794 -0.5680794 -0.5954591 0.7760131 -0.2079337 -0.5954555 0.7760131 -0.2079337 -0.5954555 0.7760131 -0.2079337 -0.5954555 0.7760116 -0.2079308 -0.5954585 0.7760116 -0.2079308 -0.5954585 0.7760116 -0.2079308 -0.5954585 0.7760108 0.2079331 -0.5954589 0.7760108 0.2079331 -0.5954589 0.7760108 0.2079331 -0.5954589 0.7760136 0.2079314 -0.5954558 0.7760136 0.2079314 -0.5954558 0.7760136 0.2079314 -0.5954558 0.5680794 0.5680794 -0.5954592 0.5680794 0.5680794 -0.5954592 0.5680794 0.5680794 -0.5954592 0.5680794 0.5680794 -0.5954591 0.5680794 0.5680794 -0.5954591 0.5680794 0.5680794 -0.5954591 0.2079337 0.7760131 -0.5954555 0.2079337 0.7760131 -0.5954555 0.2079337 0.7760131 -0.5954555 0.2079308 0.7760116 -0.5954585 0.2079308 0.7760116 -0.5954585 0.2079308 0.7760116 -0.5954585 -0.2079331 0.7760108 -0.5954589 -0.2079331 0.7760108 -0.5954589 -0.2079331 0.7760108 -0.5954589 -0.2079314 0.7760136 -0.5954558 -0.2079314 0.7760136 -0.5954558 -0.2079314 0.7760136 -0.5954558 -0.5680794 0.5680794 -0.5954592 -0.5680794 0.5680794 -0.5954592 -0.5680794 0.5680794 -0.5954592 -0.5680794 0.5680794 -0.5954591 -0.5680794 0.5680794 -0.5954591 -0.5680794 0.5680794 -0.5954591 -0.7760131 0.2079337 -0.5954555 -0.7760131 0.2079337 -0.5954555 -0.7760131 0.2079337 -0.5954555 -0.7760116 0.2079308 -0.5954585 -0.7760116 0.2079308 -0.5954585 -0.7760116 0.2079308 -0.5954585 -0.8968095 -0.2402984 -0.3714692 -0.8968095 -0.2402984 -0.3714692 -0.8968095 -0.2402984 -0.3714692 -0.896808 -0.2402997 -0.371472 -0.896808 -0.2402997 -0.371472 -0.896808 -0.2402997 -0.371472 -0.6565099 -0.6565099 -0.3714692 -0.6565099 -0.6565099 -0.3714692 -0.6565099 -0.6565099 -0.3714692 -0.6565099 -0.6565099 -0.3714692 -0.6565099 -0.6565099 -0.3714692 -0.6565099 -0.6565099 -0.3714692 -0.2402981 -0.8968083 -0.3714722 -0.2402981 -0.8968083 -0.3714722 -0.2402981 -0.8968083 -0.3714722 -0.2403 -0.896809 -0.3714694 -0.2403 -0.896809 -0.3714694 -0.2403 -0.896809 -0.3714694 0.2402984 -0.8968095 -0.3714692 0.2402984 -0.8968095 -0.3714692 0.2402984 -0.8968095 -0.3714692 0.2402997 -0.896808 -0.371472 0.2402997 -0.896808 -0.371472 0.2402997 -0.896808 -0.371472 0.6565099 -0.6565099 -0.3714692 0.6565099 -0.6565099 -0.3714692 0.6565099 -0.6565099 -0.3714692 0.6565099 -0.6565099 -0.3714692 0.6565099 -0.6565099 -0.3714692 0.6565099 -0.6565099 -0.3714692 0.8968083 -0.2402981 -0.3714722 0.8968083 -0.2402981 -0.3714722 0.8968083 -0.2402981 -0.3714722 0.896809 -0.2403 -0.3714694 0.896809 -0.2403 -0.3714694 0.896809 -0.2403 -0.3714694 0.8968095 0.2402984 -0.3714692 0.8968095 0.2402984 -0.3714692 0.8968095 0.2402984 -0.3714692 0.896808 0.2402997 -0.371472 0.896808 0.2402997 -0.371472 0.896808 0.2402997 -0.371472 0.6565099 0.6565099 -0.3714692 0.6565099 0.6565099 -0.3714692 0.6565099 0.6565099 -0.3714692 0.6565099 0.6565099 -0.3714692 0.6565099 0.6565099 -0.3714692 0.6565099 0.6565099 -0.3714692 0.2402981 0.8968083 -0.3714722 0.2402981 0.8968083 -0.3714722 0.2402981 0.8968083 -0.3714722 0.2403 0.896809 -0.3714694 0.2403 0.896809 -0.3714694 0.2403 0.896809 -0.3714694 -0.2402984 0.8968095 -0.3714692 -0.2402984 0.8968095 -0.3714692 -0.2402984 0.8968095 -0.3714692 -0.2402997 0.896808 -0.371472 -0.2402997 0.896808 -0.371472 -0.2402997 0.896808 -0.371472 -0.6565099 0.6565099 -0.3714692 -0.6565099 0.6565099 -0.3714692 -0.6565099 0.6565099 -0.3714692 -0.6565099 0.6565099 -0.3714692 -0.6565099 0.6565099 -0.3714692 -0.6565099 0.6565099 -0.3714692 -0.8968083 0.2402981 -0.3714722 -0.8968083 0.2402981 -0.3714722 -0.8968083 0.2402981 -0.3714722 -0.896809 0.2403 -0.3714694 -0.896809 0.2403 -0.3714694 -0.896809 0.2403 -0.3714694 -0.958209 -0.2567521 -0.1261502 -0.958209 -0.2567521 -0.1261502 -0.958209 -0.2567521 -0.1261502 -0.958209 -0.2567522 -0.1261503 -0.958209 -0.2567522 -0.1261503 -0.958209 -0.2567522 -0.1261503 -0.7014578 -0.7014578 -0.1261502 -0.7014578 -0.7014578 -0.1261502 -0.7014578 -0.7014578 -0.1261502 -0.7014578 -0.7014578 -0.1261502 -0.7014578 -0.7014578 -0.1261502 -0.7014578 -0.7014578 -0.1261502 -0.2567521 -0.958209 -0.1261503 -0.2567521 -0.958209 -0.1261503 -0.2567521 -0.958209 -0.1261503 -0.2567522 -0.958209 -0.1261502 -0.2567522 -0.958209 -0.1261502 -0.2567522 -0.958209 -0.1261502 0.2567521 -0.958209 -0.1261502 0.2567521 -0.958209 -0.1261502 0.2567521 -0.958209 -0.1261502 0.2567522 -0.958209 -0.1261503 0.2567522 -0.958209 -0.1261503 0.2567522 -0.958209 -0.1261503 0.7014578 -0.7014578 -0.1261502 0.7014578 -0.7014578 -0.1261502 0.7014578 -0.7014578 -0.1261502 0.7014578 -0.7014578 -0.1261502 0.7014578 -0.7014578 -0.1261502 0.7014578 -0.7014578 -0.1261502 0.958209 -0.2567521 -0.1261503 0.958209 -0.2567521 -0.1261503 0.958209 -0.2567521 -0.1261503 0.958209 -0.2567522 -0.1261502 0.958209 -0.2567522 -0.1261502 0.958209 -0.2567522 -0.1261502 0.958209 0.2567521 -0.1261502 0.958209 0.2567521 -0.1261502 0.958209 0.2567521 -0.1261502 0.958209 0.2567522 -0.1261503 0.958209 0.2567522 -0.1261503 0.958209 0.2567522 -0.1261503 0.7014578 0.7014578 -0.1261502 0.7014578 0.7014578 -0.1261502 0.7014578 0.7014578 -0.1261502 0.7014578 0.7014578 -0.1261502 0.7014578 0.7014578 -0.1261502 0.7014578 0.7014578 -0.1261502 0.2567521 0.958209 -0.1261503 0.2567521 0.958209 -0.1261503 0.2567521 0.958209 -0.1261503 0.2567522 0.958209 -0.1261502 0.2567522 0.958209 -0.1261502 0.2567522 0.958209 -0.1261502 -0.2567521 0.958209 -0.1261502 -0.2567521 0.958209 -0.1261502 -0.2567521 0.958209 -0.1261502 -0.2567522 0.958209 -0.1261503 -0.2567522 0.958209 -0.1261503 -0.2567522 0.958209 -0.1261503 -0.7014578 0.7014578 -0.1261502 -0.7014578 0.7014578 -0.1261502 -0.7014578 0.7014578 -0.1261502 -0.7014578 0.7014578 -0.1261502 -0.7014578 0.7014578 -0.1261502 -0.7014578 0.7014578 -0.1261502 -0.958209 0.2567521 -0.1261503 -0.958209 0.2567521 -0.1261503 -0.958209 0.2567521 -0.1261503 -0.958209 0.2567522 -0.1261502 -0.958209 0.2567522 -0.1261502 -0.958209 0.2567522 -0.1261502 -0.958209 -0.2567522 0.1261501 -0.958209 -0.2567522 0.1261501 -0.958209 -0.2567522 0.1261501 -0.958209 -0.2567521 0.1261503 -0.958209 -0.2567521 0.1261503 -0.958209 -0.2567521 0.1261503 -0.7014578 -0.7014578 0.1261501 -0.7014578 -0.7014578 0.1261501 -0.7014578 -0.7014578 0.1261501 -0.7014578 -0.7014578 0.1261501 -0.7014578 -0.7014578 0.1261501 -0.7014578 -0.7014578 0.1261501 -0.2567522 -0.958209 0.1261503 -0.2567522 -0.958209 0.1261503 -0.2567522 -0.958209 0.1261503 -0.2567521 -0.958209 0.1261501 -0.2567521 -0.958209 0.1261501 -0.2567521 -0.958209 0.1261501 0.2567522 -0.958209 0.1261501 0.2567522 -0.958209 0.1261501 0.2567522 -0.958209 0.1261501 0.2567521 -0.958209 0.1261503 0.2567521 -0.958209 0.1261503 0.2567521 -0.958209 0.1261503 0.7014578 -0.7014578 0.1261501 0.7014578 -0.7014578 0.1261501 0.7014578 -0.7014578 0.1261501 0.7014578 -0.7014578 0.1261501 0.7014578 -0.7014578 0.1261501 0.7014578 -0.7014578 0.1261501</float_array>
                    <technique_common>
                        <accessor count="840" source="#geometry0-normal-array" stride="3">
                            <param name="X" type="float"/>
                            <param name="Y" type="float"/>
                            <param name="Z" type="float"/>
                        </accessor>
                    </technique_common>
                </source>
                <vertices id="geometry0-vertex">
                    <input semantic="POSITION" source="#geometry0-position"/>
                </vertices>
                <triangles count="288" material="default_ai_0.2_sh_0.2_tr_0.0_dc_r_0.8_g_0.8_b_0.8_sc_r_1.0_g_1.0_b_1.0_ec_r_0.0_g_0.0_b_0_tri">
                    <input offset="0" semantic="VERTEX" source="#geometry0-vertex"/>
                    <input offset="1" semantic="NORMAL" source="#geometry0-normal"/>
                    <p>66 0 67 1 79 2 66 3 79 4 78 5 67 6 68 7 80 8 67 9 80 10 79 11 68 12 69 13 81 14 68 15 81 16 80 17 69 18 70 19 82 20 69 21 82 22 81 23 70 24 71 25 83 26 70 27 83 28 82 29 71 30 72 31 84 32 71 33 84 34 83 35 72 36 62 37 74 38 72 39 74 40 84 41 74 42 73 43 85 44 74 45 85 46 86 47 73 48 75 49 87 50 73 51 87 52 85 53 75 54 76 55 88 56 75 57 88 58 87 59 76 60 77 61 89 62 76 63 89 64 88 65 77 66 78 67 90 68 77 69 90 70 89 71 78 72 79 73 91 74 78 75 91 76 90 77 79 78 80 79 92 80 79 81 92 82 91 83 80 84 81 85 93 86 80 87 93 88 92 89 81 90 82 91 94 92 81 93 94 94 93 95 82 96 83 97 95 98 82 99 95 100 94 101 83 102 84 103 96 104 83 105 96 106 95 107 84 108 74 109 86 110 84 111 86 112 96 113 86 114 85 115 97 116 86 117 97 118 98 119 85 120 87 121 99 122 85 123 99 124 97 125 87 126 88 127 100 128 87 129 100 130 99 131 88 132 89 133 101 134 88 135 101 136 100 137 89 138 90 139 102 140 89 141 102 142 101 143 90 144 91 145 103 146 90 147 103 148 102 149 91 150 92 151 104 152 91 153 104 154 103 155 92 156 93 157 105 158 92 159 105 160 104 161 93 162 94 163 106 164 93 165 106 166 105 167 94 168 95 169 107 170 94 171 107 172 106 173 95 174 96 175 108 176 95 177 108 178 107 179 96 180 86 181 98 182 96 183 98 184 108 185 98 186 97 187 109 188 98 189 109 190 110 191 97 192 99 193 111 194 97 195 111 196 109 197 99 198 100 199 112 200 99 201 112 202 111 203 100 204 101 205 113 206 100 207 113 208 112 209 101 210 102 211 114 212 101 213 114 214 113 215 102 216 103 217 115 218 102 219 115 220 114 221 103 222 104 223 116 224 103 225 116 226 115 227 104 228 105 229 117 230 104 231 117 232 116 233 105 234 106 235 118 236 105 237 118 238 117 239 106 240 107 241 119 242 106 243 119 244 118 245 107 246 108 247 120 248 107 249 120 250 119 251 108 252 98 253 110 254 108 255 110 256 120 257 110 258 109 259 121 260 110 261 121 262 122 263 109 264 111 265 123 266 109 267 123 268 121 269 111 270 112 271 124 272 111 273 124 274 123 275 112 276 113 277 125 278 112 279 125 280 124 281 113 282 114 283 126 284 113 285 126 286 125 287 114 288 115 289 127 290 114 291 127 292 126 293 115 294 116 295 128 296 115 297 128 298 127 299 116 300 117 301 129 302 116 303 129 304 128 305 117 306 118 307 130 308 117 309 130 310 129 311 118 312 119 313 131 314 118 315 131 316 130 317 119 318 120 319 132 320 119 321 132 322 131 323 120 324 110 325 122 326 120 327 122 328 132 329 122 330 121 331 133 332 122 333 133 334 133 334 121 335 123 336 133 337 121 338 133 339 133 339 123 340 124 341 133 342 123 343 133 344 133 344 124 345 125 346 133 347 124 348 133 349 133 349 125 350 126 351 133 352 125 353 133 354 133 354 126 355 127 356 133 357 126 358 133 359 133 359 127 360 128 361 133 362 127 363 133 364 133 364 128 365 129 366 133 367 128 368 133 369 133 369 129 370 130 371 133 372 129 373 133 374 133 374 130 375 131 376 133 377 130 378 133 379 133 379 131 380 132 381 133 382 131 383 133 384 133 384 132 385 122 386 133 387 132 388 133 389 133 389 0 390 0 390 1 391 0 392 1 393 2 394 0 395 0 395 3 396 0 397 3 398 1 399 0 400 0 400 4 401 0 402 4 403 3 404 0 405 0 405 5 406 0 407 5 408 4 409 0 410 0 410 6 411 0 412 6 413 5 414 0 415 0 415 7 416 0 417 7 418 6 419 0 420 0 420 8 421 0 422 8 423 7 424 0 425 0 425 9 426 0 427 9 428 8 429 0 430 0 430 10 431 0 432 10 433 9 434 0 435 0 435 11 436 0 437 11 438 10 439 0 440 0 440 12 441 0 442 12 443 11 444 0 445 0 445 2 446 0 447 2 448 12 449 2 450 1 451 13 452 2 453 13 454 14 455 1 456 3 457 15 458 1 459 15 460 13 461 3 462 4 463 16 464 3 465 16 466 15 467 4 468 5 469 17 470 4 471 17 472 16 473 5 474 6 475 18 476 5 477 18 478 17 479 6 480 7 481 19 482 6 483 19 484 18 485 7 486 8 487 20 488 7 489 20 490 19 491 8 492 9 493 21 494 8 495 21 496 20 497 9 498 10 499 22 500 9 501 22 502 21 503 10 504 11 505 23 506 10 507 23 508 22 509 11 510 12 511 24 512 11 513 24 514 23 515 12 516 2 517 14 518 12 519 14 520 24 521 14 522 13 523 25 524 14 525 25 526 26 527 13 528 15 529 27 530 13 531 27 532 25 533 15 534 16 535 28 536 15 537 28 538 27 539 16 540 17 541 29 542 16 543 29 544 28 545 17 546 18 547 30 548 17 549 30 550 29 551 18 552 19 553 31 554 18 555 31 556 30 557 19 558 20 559 32 560 19 561 32 562 31 563 20 564 21 565 33 566 20 567 33 568 32 569 21 570 22 571 34 572 21 573 34 574 33 575 22 576 23 577 35 578 22 579 35 580 34 581 23 582 24 583 36 584 23 585 36 586 35 587 24 588 14 589 26 590 24 591 26 592 36 593 26 594 25 595 37 596 26 597 37 598 38 599 25 600 27 601 39 602 25 603 39 604 37 605 27 606 28 607 40 608 27 609 40 610 39 611 28 612 29 613 41 614 28 615 41 616 40 617 29 618 30 619 42 620 29 621 42 622 41 623 30 624 31 625 43 626 30 627 43 628 42 629 31 630 32 631 44 632 31 633 44 634 43 635 32 636 33 637 45 638 32 639 45 640 44 641 33 642 34 643 46 644 33 645 46 646 45 647 34 648 35 649 47 650 34 651 47 652 46 653 35 654 36 655 48 656 35 657 48 658 47 659 36 660 26 661 38 662 36 663 38 664 48 665 38 666 37 667 49 668 38 669 49 670 50 671 37 672 39 673 51 674 37 675 51 676 49 677 39 678 40 679 52 680 39 681 52 682 51 683 40 684 41 685 53 686 40 687 53 688 52 689 41 690 42 691 54 692 41 693 54 694 53 695 42 696 43 697 55 698 42 699 55 700 54 701 43 702 44 703 56 704 43 705 56 706 55 707 44 708 45 709 57 710 44 711 57 712 56 713 45 714 46 715 58 716 45 717 58 718 57 719 46 720 47 721 59 722 46 723 59 724 58 725 47 726 48 727 60 728 47 729 60 730 59 731 48 732 38 733 50 734 48 735 50 736 60 737 50 738 49 739 61 740 50 741 61 742 62 743 49 744 51 745 63 746 49 747 63 748 61 749 51 750 52 751 64 752 51 753 64 754 63 755 52 756 53 757 65 758 52 759 65 760 64 761 53 762 54 763 66 764 53 765 66 766 65 767 54 768 55 769 67 770 54 771 67 772 66 773 55 774 56 775 68 776 55 777 68 778 67 779 56 780 57 781 69 782 56 783 69 784 68 785 57 786 58 787 70 788 57 789 70 790 69 791 58 792 59 793 71 794 58 795 71 796 70 797 59 798 60 799 72 800 59 801 72 802 71 803 60 804 50 805 62 806 60 807 62 808 72 809 62 810 61 811 73 812 62 813 73 814 74 815 61 816 63 817 75 818 61 819 75 820 73 821 63 822 64 823 76 824 63 825 76 826 75 827 64 828 65 829 77 830 64 831 77 832 76 833 65 834 66 835 78 836 65 837 78 838 77 839</p>
                </triangles>
            </mesh>
        </geometry>
    </library_geometries>
    <library_visual_scenes>
        <visual_scene id="Building_221_CROWN1">
            <node>
                <instance_geometry url="#geometry0">
                    <bind_material>
                        <technique_common>
                            <instance_material symbol="default_ai_0.2_sh_0.2_tr_0.0_dc_r_0.8_g_0.8_b_0.8_sc_r_1.0_g_1.0_b_1.0_ec_r_0.0_g_0.0_b_0_tri" target="#default_ai_0.2_sh_0.2_tr_0.0_dc_r_0.8_g_0.8_b_0.8_sc_r_1.0_g_1.0_b_1.0_ec_r_0.0_g_0.0_b_0_mat"/>
                        </technique_common>
                    </bind_material>
                </instance_geometry>
            </node>
        </visual_scene>
    </library_visual_scenes>
    <scene>
        <instance_visual_scene url="#Building_221_CROWN1"/>
    </scene>
</COLLADA>
