<?xml version="1.0" encoding="UTF-8" standalone="yes"?>
<COLLADA xmlns="http://www.collada.org/2005/11/COLLADASchema" version="1.4.1">
    <asset>
        <contributor>
            <authoring_tool>3D City Database Importer/Exporter, version 5.5.3; Chair of Geoinformatics, Technical University of Munich</authoring_tool>
        </contributor>
        <created>2026-09-25T14:44:43.660</created>
        <modified>2026-09-25T14:44:43.660</modified>
        <unit meter="1.0" name="meters"/>
        <up_axis>Z_UP</up_axis>
    </asset>
    <library_materials>
        <material id="default_ai_0.2_sh_0.2_tr_0.0_dc_r_0.8_g_0.8_b_0.8_sc_r_1.0_g_1.0_b_1.0_ec_r_0.0_g_0.0_b_0_mat">
            <instance_effect url="#default_ai_0.2_sh_0.2_tr_0.0_dc_r_0.8_g_0.8_b_0.8_sc_r_1.0_g_1.0_b_1.0_ec_r_0.0_g_0.0_b_0_eff"/>
        </material>
    </library_materials>
    <library_effects>
        <effect id="default_ai_0.2_sh_0.2_tr_0.0_dc_r_0.8_g_0.8_b_0.8_sc_r_1.0_g_1.0_b_1.0_ec_r_0.0_g_0.0_b_0_eff">
            <profile_COMMON>
                <technique sid="COMMON">
                    <lambert>
                        <emission>
                            <color>0.0 0.0 0.0 1.0</color>
                        </emission>
                        <diffuse>
                            <color>0.8 0.8 0.8 1.0</color>
                        </diffuse>
                        <reflective>
                            <color>1.0 1.0 1.0 1.0</color>
                        </reflective>
                        <reflectivity>
                            <float>0.2</float>
                        </reflectivity>
                        <transparent opaque="A_ONE">
                            <color>1.0 1.0 1.0 1.0</color>
                        </transparent>
                        <transparency>
                            <float>1.0</float>
                        </transparency>
                    </lambert>
                </technique>
                <extra>
                    <technique profile="GOOGLEEARTH">
                        <double_sided>0</double_sided>
                    </technique>
                </extra>
            </profile_COMMON>
        </effect>
    </library_effects>
    <library_geometries>
        <geometry id="geometry0">
            <mesh>
                <source id="geometry0-position">
                    <float_array id="geometry0-position-array" count="402">0.0 0.0 3.6 0.4034592 0.232938 3.5386668 0.4658742 0.0 3.5386668 0.232938 0.4034592 3.5386668 0.0 0.4658742 3.5386668 -0.232938 0.4034592 3.5386668 -0.4034592 0.232938 3.5386668 -0.4658742 0.0 3.5386668 -0.4034592 -0.232938 3.5386668 -0.232938 -0.4034592 3.5386668 0.0 -0.4658742 3.5386668 0.232938 -0.4034592 3.5386668 0.4034592 -0.232938 3.5386668 0.7794234 0.45 3.358845 0.9 0.0 3.358845 0.45 0.7794234 3.358845 0.0 0.9 3.358845 -0.45 0.7794234 3.358845 -0.7794234 0.45 3.358845 -0.9 0.0 3.358845 -0.7794234 -0.45 3.358845 -0.45 -0.7794234 3.358845 0.0 -0.9 3.358845 0.45 -0.7794234 3.358845 0.7794234 -0.45 3.358845 1.1022696 0.6363954 3.0727908 1.2727926 0.0 3.0727908 0.6363954 1.1022696 3.0727908 0.0 1.2727926 3.0727908 -0.6363954 1.1022696 3.0727908 -1.1022696 0.6363954 3.0727908 -1.2727926 0.0 3.0727908 -1.1022696 -0.6363954 3.0727908 -0.6363954 -1.1022696 3.0727908 0.0 -1.2727926 3.0727908 0.6363954 -1.1022696 3.0727908 1.1022696 -0.6363954 3.0727908 1.35 0.7794234 2.7 1.558845 0.0 2.7 0.7794234 1.35 2.7 0.0 1.558845 2.7 -0.7794234 1.35 2.7 -1.35 0.7794234 2.7 -1.558845 0.0 2.7 -1.35 -0.7794234 2.7 -0.7794234 -1.35 2.7 0.0 -1.558845 2.7 0.7794234 -1.35 2.7 1.35 -0.7794234 2.7 1.5057288 0.8693334 2.2658742 1.7386668 0.0 2.2658742 0.8693334 1.5057288 2.2658742 0.0 1.7386668 2.2658742 -0.8693334 1.5057288 2.2658742 -1.5057288 0.8693334 2.2658742 -1.7386668 0.0 2.2658742 -1.5057288 -0.8693334 2.2658742 -0.8693334 -1.5057288 2.2658742 0.0 -1.7386668 2.2658742 0.8693334 -1.5057288 2.2658742 1.5057288 -0.8693334 2.2658742 1.558845 0.9 1.8 1.8 0.0 1.8 0.9 1.558845 1.8 0.0 1.8 1.8 -0.9 1.558845 1.8 -1.558845 0.9 1.8 -1.8 0.0 1.8 -1.558845 -0.9 1.8 -0.9 -1.558845 1.8 0.0 -1.8 1.8 0.9 -1.558845 1.8 1.558845 -0.9 1.8 1.5057288 0.8693334 1.3341258 1.7386668 0.0 1.3341258 0.8693334 1.5057288 1.3341258 0.0 1.7386668 1.3341258 -0.8693334 1.5057288 1.3341258 -1.5057288 0.8693334 1.3341258 -1.7386668 0.0 1.3341258 -1.5057288 -0.8693334 1.3341258 -0.8693334 -1.5057288 1.3341258 0.0 -1.7386668 1.3341258 0.8693334 -1.5057288 1.3341258 1.5057288 -0.8693334 1.3341258 1.35 0.7794234 0.9 1.558845 0.0 0.9 0.7794234 1.35 0.9 0.0 1.558845 0.9 -0.7794234 1.35 0.9 -1.35 0.7794234 0.9 -1.558845 0.0 0.9 -1.35 -0.7794234 0.9 -0.7794234 -1.35 0.9 0.0 -1.558845 0.9 0.7794234 -1.35 0.9 1.35 -0.7794234 0.9 1.1022696 0.6363954 0.5272074 1.2727926 0.0 0.5272074 0.6363954 1.1022696 0.5272074 0.0 1.2727926 0.5272074 -0.6363954 1.1022696 0.5272074 -1.1022696 0.6363954 0.5272074 -1.2727926 0.0 0.5272074 -1.1022696 -0.6363954 0.5272074 -0.6363954 -1.1022696 0.5272074 0.0 -1.2727926 0.5272074 0.6363954 -1.1022696 0.5272074 1.1022696 -0.6363954 0.5272074 0.7794234 0.45 0.2411532 0.9 0.0 0.2411532 0.45 0.7794234 0.2411532 0.0 0.9 0.2411532 -0.45 0.7794234 0.2411532 -0.7794234 0.45 0.2411532 -0.9 0.0 0.2411532 -0.7794234 -0.45 0.2411532 -0.45 -0.7794234 0.2411532 0.0 -0.9 0.2411532 0.45 -0.7794234 0.2411532 0.7794234 -0.45 0.2411532 0.4034592 0.232938 0.0613332 0.4658742 0.0 0.0613332 0.232938 0.4034592 0.0613332 0.0 0.4658742 0.0613332 -0.232938 0.4034592 0.0613332 -0.4034592 0.232938 0.0613332 -0.4658742 0.0 0.0613332 -0.4034592 -0.232938 0.0613332 -0.232938 -0.4034592 0.0613332 0.0 -0.4658742 0.0613332 0.232938 -0.4034592 0.0613332 0.4034592 -0.232938 0.0613332 0.0 0.0 0.0</float_array>
                    <technique_common>
                        <accessor count="134" source="#geometry0-position-array" stride="3">
                            <param name="X" type="float"/>
                            <param name="Y" type="float"/>
                            <param name="Z" type="float"/>
                        </accessor>
                    </technique_common>
                </source>
                <source id="geometry0-normal">
                    <float_array id="geometry0-normal-array" count="2520">0.3806891 -0.1020044 -0.9190599 0.3806891 -0.1020044 -0.9190599 0.3806891 -0.1020044 -0.9190599 0.3806892 -0.1020049 -0.9190597 0.3806892 -0.1020049 -0.9190597 0.3806892 -0.1020049 -0.9190597 0.3806894 0.1020045 -0.9190597 0.3806894 0.1020045 -0.9190597 0.3806894 0.1020045 -0.9190597 0.380689 0.1020048 -0.9190598 0.380689 0.1020048 -0.9190598 0.380689 0.1020048 -0.9190598 0.278684 0.278684 -0.9190596 0.278684 0.278684 -0.9190596 0.278684 0.278684 -0.9190596 0.278684 0.278684 -0.9190596 0.278684 0.278684 -0.9190596 0.278684 0.278684 -0.9190596 0.1020044 0.3806891 -0.9190599 0.1020044 0.3806891 -0.9190599 0.1020044 0.3806891 -0.9190599 0.1020049 0.3806892 -0.9190597 0.1020049 0.3806892 -0.9190597 0.1020049 0.3806892 -0.9190597 -0.1020045 0.3806894 -0.9190597 -0.1020045 0.3806894 -0.9190597 -0.1020045 0.3806894 -0.9190597 -0.1020048 0.380689 -0.9190598 -0.1020048 0.380689 -0.9190598 -0.1020048 0.380689 -0.9190598 -0.278684 0.278684 -0.9190596 -0.278684 0.278684 -0.9190596 -0.278684 0.278684 -0.9190596 -0.278684 0.278684 -0.9190596 -0.278684 0.278684 -0.9190596 -0.278684 0.278684 -0.9190596 -0.3806891 0.1020044 -0.9190599 -0.3806891 0.1020044 -0.9190599 -0.3806891 0.1020044 -0.9190599 -0.3806892 0.1020049 -0.9190597 -0.3806892 0.1020049 -0.9190597 -0.3806892 0.1020049 -0.9190597 -0.6008233 -0.1609894 -0.783003 -0.6008233 -0.1609894 -0.783003 -0.6008233 -0.1609894 -0.783003 -0.6008211 -0.1609907 -0.7830045 -0.6008211 -0.1609907 -0.7830045 -0.6008211 -0.1609907 -0.7830045 -0.439833 -0.439833 -0.7830031 -0.439833 -0.439833 -0.7830031 -0.439833 -0.439833 -0.7830031 -0.439833 -0.439833 -0.7830031 -0.439833 -0.439833 -0.7830031 -0.439833 -0.439833 -0.7830031 -0.1609888 -0.6008213 -0.7830047 -0.1609888 -0.6008213 -0.7830047 -0.1609888 -0.6008213 -0.7830047 -0.1609911 -0.6008226 -0.7830032 -0.1609911 -0.6008226 -0.7830032 -0.1609911 -0.6008226 -0.7830032 0.1609894 -0.6008233 -0.783003 0.1609894 -0.6008233 -0.783003 0.1609894 -0.6008233 -0.783003 0.1609907 -0.6008211 -0.7830045 0.1609907 -0.6008211 -0.7830045 0.1609907 -0.6008211 -0.7830045 0.439833 -0.439833 -0.7830031 0.439833 -0.439833 -0.7830031 0.439833 -0.439833 -0.7830031 0.439833 -0.439833 -0.7830031 0.439833 -0.439833 -0.7830031 0.439833 -0.439833 -0.7830031 0.6008213 -0.1609888 -0.7830047 0.6008213 -0.1609888 -0.7830047 0.6008213 -0.1609888 -0.7830047 0.6008226 -0.1609911 -0.7830032 0.6008226 -0.1609911 -0.7830032 0.6008226 -0.1609911 -0.7830032 0.6008233 0.1609894 -0.783003 0.6008233 0.1609894 -0.783003 0.6008233 0.1609894 -0.783003 0.6008211 0.1609907 -0.7830045 0.6008211 0.1609907 -0.7830045 0.6008211 0.1609907 -0.7830045 0.439833 0.439833 -0.7830031 0.439833 0.439833 -0.7830031 0.439833 0.439833 -0.7830031 0.439833 0.439833 -0.7830031 0.439833 0.439833 -0.7830031 0.439833 0.439833 -0.7830031 0.1609888 0.6008213 -0.7830047 0.1609888 0.6008213 -0.7830047 0.1609888 0.6008213 -0.7830047 0.1609911 0.6008226 -0.7830032 0.1609911 0.6008226 -0.7830032 0.1609911 0.6008226 -0.7830032 -0.1609894 0.6008233 -0.783003 -0.1609894 0.6008233 -0.783003 -0.1609894 0.6008233 -0.783003 -0.1609907 0.6008211 -0.7830045 -0.1609907 0.6008211 -0.7830045 -0.1609907 0.6008211 -0.7830045 -0.439833 0.439833 -0.7830031 -0.439833 0.439833 -0.7830031 -0.439833 0.439833 -0.7830031 -0.439833 0.439833 -0.7830031 -0.439833 0.439833 -0.7830031 -0.439833 0.439833 -0.7830031 -0.6008213 0.1609888 -0.7830047 -0.6008213 0.1609888 -0.7830047 -0.6008213 0.1609888 -0.7830047 -0.6008226 0.1609911 -0.7830032 -0.6008226 0.1609911 -0.7830032 -0.6008226 0.1609911 -0.7830032 -0.7760106 -0.207933 -0.595459 -0.7760106 -0.207933 -0.595459 -0.7760106 -0.207933 -0.595459 -0.7760133 -0.2079313 -0.595456 -0.7760133 -0.2079313 -0.595456 -0.7760133 -0.2079313 -0.595456 -0.5680793 -0.5680793 -0.5954593 -0.5680793 -0.5680793 -0.5954593 -0.5680793 -0.5680793 -0.5954593 -0.5680793 -0.5680793 -0.5954593 -0.5680793 -0.5680793 -0.5954593 -0.5680793 -0.5680793 -0.5954593 -0.2079336 -0.776013 -0.5954557 -0.2079336 -0.776013 -0.5954557 -0.2079336 -0.776013 -0.5954557 -0.2079308 -0.7760114 -0.5954587 -0.2079308 -0.7760114 -0.5954587 -0.2079308 -0.7760114 -0.5954587 0.207933 -0.7760106 -0.595459 0.207933 -0.7760106 -0.595459 0.207933 -0.7760106 -0.595459 0.2079313 -0.7760133 -0.595456 0.2079313 -0.7760133 -0.595456 0.2079313 -0.7760133 -0.595456 0.5680793 -0.5680793 -0.5954593 0.5680793 -0.5680793 -0.5954593 0.5680793 -0.5680793 -0.5954593 0.5680793 -0.5680793 -0.5954593 0.5680793 -0.5680793 -0.5954593 0.5680793 -0.5680793 -0.5954593 0.776013 -0.2079336 -0.5954557 0.776013 -0.2079336 -0.5954557 0.776013 -0.2079336 -0.5954557 0.7760114 -0.2079308 -0.5954587 0.7760114 -0.2079308 -0.5954587 0.7760114 -0.2079308 -0.5954587 0.7760106 0.207933 -0.595459 0.7760106 0.207933 -0.595459 0.7760106 0.207933 -0.595459 0.7760133 0.2079313 -0.595456 0.7760133 0.2079313 -0.595456 0.7760133 0.2079313 -0.595456 0.5680793 0.5680793 -0.5954593 0.5680793 0.5680793 -0.5954593 0.5680793 0.5680793 -0.5954593 0.5680793 0.5680793 -0.5954593 0.5680793 0.5680793 -0.5954593 0.5680793 0.5680793 -0.5954593 0.2079336 0.776013 -0.5954557 0.2079336 0.776013 -0.5954557 0.2079336 0.776013 -0.5954557 0.2079308 0.7760114 -0.5954587 0.2079308 0.7760114 -0.5954587 0.2079308 0.7760114 -0.5954587 -0.207933 0.7760106 -0.595459 -0.207933 0.7760106 -0.595459 -0.207933 0.7760106 -0.595459 -0.2079313 0.7760133 -0.595456 -0.2079313 0.7760133 -0.595456 -0.2079313 0.7760133 -0.595456 -0.5680793 0.5680793 -0.5954593 -0.5680793 0.5680793 -0.5954593 -0.5680793 0.5680793 -0.5954593 -0.5680793 0.5680793 -0.5954593 -0.5680793 0.5680793 -0.5954593 -0.5680793 0.5680793 -0.5954593 -0.776013 0.2079336 -0.5954557 -0.776013 0.2079336 -0.5954557 -0.776013 0.2079336 -0.5954557 -0.7760114 0.2079308 -0.5954587 -0.7760114 0.2079308 -0.5954587 -0.7760114 0.2079308 -0.5954587 -0.8968096 -0.2402984 -0.371469 -0.8968096 -0.2402984 -0.371469 -0.8968096 -0.2402984 -0.371469 -0.896808 -0.2402998 -0.3714719 -0.896808 -0.2402998 -0.3714719 -0.896808 -0.2402998 -0.3714719 -0.65651 -0.65651 -0.371469 -0.65651 -0.65651 -0.371469 -0.65651 -0.65651 -0.371469 -0.65651 -0.65651 -0.371469 -0.65651 -0.65651 -0.371469 -0.65651 -0.65651 -0.371469 -0.2402981 -0.8968084 -0.3714721 -0.2402981 -0.8968084 -0.3714721 -0.2402981 -0.8968084 -0.3714721 -0.2403001 -0.8968092 -0.3714691 -0.2403001 -0.8968092 -0.3714691 -0.2403001 -0.8968092 -0.3714691 0.2402984 -0.8968096 -0.371469 0.2402984 -0.8968096 -0.371469 0.2402984 -0.8968096 -0.371469 0.2402998 -0.896808 -0.3714719 0.2402998 -0.896808 -0.3714719 0.2402998 -0.896808 -0.3714719 0.65651 -0.65651 -0.371469 0.65651 -0.65651 -0.371469 0.65651 -0.65651 -0.371469 0.65651 -0.65651 -0.371469 0.65651 -0.65651 -0.371469 0.65651 -0.65651 -0.371469 0.8968084 -0.2402981 -0.3714721 0.8968084 -0.2402981 -0.3714721 0.8968084 -0.2402981 -0.3714721 0.8968092 -0.2403001 -0.3714691 0.8968092 -0.2403001 -0.3714691 0.8968092 -0.2403001 -0.3714691 0.8968096 0.2402984 -0.371469 0.8968096 0.2402984 -0.371469 0.8968096 0.2402984 -0.371469 0.896808 0.2402998 -0.3714719 0.896808 0.2402998 -0.3714719 0.896808 0.2402998 -0.3714719 0.65651 0.65651 -0.371469 0.65651 0.65651 -0.371469 0.65651 0.65651 -0.371469 0.65651 0.65651 -0.371469 0.65651 0.65651 -0.371469 0.65651 0.65651 -0.371469 0.2402981 0.8968084 -0.3714721 0.2402981 0.8968084 -0.3714721 0.2402981 0.8968084 -0.3714721 0.2403001 0.8968092 -0.3714691 0.2403001 0.8968092 -0.3714691 0.2403001 0.8968092 -0.3714691 -0.2402984 0.8968096 -0.371469 -0.2402984 0.8968096 -0.371469 -0.2402984 0.8968096 -0.371469 -0.2402998 0.896808 -0.3714719 -0.2402998 0.896808 -0.3714719 -0.2402998 0.896808 -0.3714719 -0.65651 0.65651 -0.371469 -0.65651 0.65651 -0.371469 -0.65651 0.65651 -0.371469 -0.65651 0.65651 -0.371469 -0.65651 0.65651 -0.371469 -0.65651 0.65651 -0.371469 -0.8968084 0.2402981 -0.3714721 -0.8968084 0.2402981 -0.3714721 -0.8968084 0.2402981 -0.3714721 -0.8968092 0.2403001 -0.3714691 -0.8968092 0.2403001 -0.3714691 -0.8968092 0.2403001 -0.3714691 -0.958209 -0.2567521 -0.1261502 -0.958209 -0.2567521 -0.1261502 -0.958209 -0.2567521 -0.1261502 -0.958209 -0.256752 -0.1261499 -0.958209 -0.256752 -0.1261499 -0.958209 -0.256752 -0.1261499 -0.7014578 -0.7014578 -0.1261501 -0.7014578 -0.7014578 -0.1261501 -0.7014578 -0.7014578 -0.1261501 -0.7014578 -0.7014578 -0.1261501 -0.7014578 -0.7014578 -0.1261501 -0.7014578 -0.7014578 -0.1261501 -0.2567522 -0.958209 -0.12615 -0.2567522 -0.958209 -0.12615 -0.2567522 -0.958209 -0.12615 -0.256752 -0.958209 -0.1261502 -0.256752 -0.958209 -0.1261502 -0.256752 -0.958209 -0.1261502 0.2567521 -0.958209 -0.1261502 0.2567521 -0.958209 -0.1261502 0.2567521 -0.958209 -0.1261502 0.256752 -0.958209 -0.1261499 0.256752 -0.958209 -0.1261499 0.256752 -0.958209 -0.1261499 0.7014578 -0.7014578 -0.1261501 0.7014578 -0.7014578 -0.1261501 0.7014578 -0.7014578 -0.1261501 0.7014578 -0.7014578 -0.1261501 0.7014578 -0.7014578 -0.1261501 0.7014578 -0.7014578 -0.1261501 0.958209 -0.2567522 -0.12615 0.958209 -0.2567522 -0.12615 0.958209 -0.2567522 -0.12615 0.958209 -0.256752 -0.1261502 0.958209 -0.256752 -0.1261502 0.958209 -0.256752 -0.1261502 0.958209 0.2567521 -0.1261502 0.958209 0.2567521 -0.1261502 0.958209 0.2567521 -0.1261502 0.958209 0.256752 -0.1261499 0.958209 0.256752 -0.1261499 0.958209 0.256752 -0.1261499 0.7014578 0.7014578 -0.1261501 0.7014578 0.7014578 -0.1261501 0.7014578 0.7014578 -0.1261501 0.7014578 0.7014578 -0.1261501 0.7014578 0.7014578 -0.1261501 0.7014578 0.7014578 -0.1261501 0.2567522 0.958209 -0.12615 0.2567522 0.958209 -0.12615 0.2567522 0.958209 -0.12615 0.256752 0.958209 -0.1261502 0.256752 0.958209 -0.1261502 0.256752 0.958209 -0.1261502 -0.2567521 0.958209 -0.1261502 -0.2567521 0.958209 -0.1261502 -0.2567521 0.958209 -0.1261502 -0.256752 0.958209 -0.1261499 -0.256752 0.958209 -0.1261499 -0.256752 0.958209 -0.1261499 -0.7014578 0.7014578 -0.1261501 -0.7014578 0.7014578 -0.1261501 -0.7014578 0.7014578 -0.1261501 -0.7014578 0.7014578 -0.1261501 -0.7014578 0.7014578 -0.1261501 -0.7014578 0.7014578 -0.1261501 -0.958209 0.2567522 -0.12615 -0.958209 0.2567522 -0.12615 -0.958209 0.2567522 -0.12615 -0.958209 0.256752 -0.1261502 -0.958209 0.256752 -0.1261502 -0.958209 0.256752 -0.1261502 -0.958209 -0.256752 0.1261502 -0.958209 -0.256752 0.1261502 -0.958209 -0.256752 0.1261502 -0.958209 -0.2567522 0.12615 -0.958209 -0.2567522 0.12615 -0.958209 -0.2567522 0.12615 -0.7014578 -0.7014578 0.1261501 -0.7014578 -0.7014578 0.1261501 -0.7014578 -0.7014578 0.1261501 -0.7014578 -0.7014578 0.1261502 -0.7014578 -0.7014578 0.1261502 -0.7014578 -0.7014578 0.1261502 -0.256752 -0.958209 0.12615 -0.256752 -0.958209 0.12615 -0.256752 -0.958209 0.12615 -0.2567521 -0.958209 0.1261502 -0.2567521 -0.958209 0.1261502 -0.2567521 -0.958209 0.1261502 0.256752 -0.958209 0.1261502 0.256752 -0.958209 0.1261502 0.256752 -0.958209 0.1261502 0.2567522 -0.958209 0.12615 0.2567522 -0.958209 0.12615 0.2567522 -0.958209 0.12615 0.7014578 -0.7014578 0.1261501 0.7014578 -0.7014578 0.1261501 0.7014578 -0.7014578 0.1261501 0.7014578 -0.7014578 0.1261502 0.7014578 -0.7014578 0.1261502 0.7014578 -0.7014578 0.1261502 0.958209 -0.256752 0.12615 0.958209 -0.256752 0.12615 0.958209 -0.256752 0.12615 0.958209 -0.2567521 0.1261502 0.958209 -0.2567521 0.1261502 0.958209 -0.2567521 0.1261502 0.958209 0.256752 0.1261502 0.958209 0.256752 0.1261502 0.958209 0.256752 0.1261502 0.958209 0.2567522 0.12615 0.958209 0.2567522 0.12615 0.958209 0.2567522 0.12615 0.7014578 0.7014578 0.1261501 0.7014578 0.7014578 0.1261501 0.7014578 0.7014578 0.1261501 0.7014578 0.7014578 0.1261502 0.7014578 0.7014578 0.1261502 0.7014578 0.7014578 0.1261502 0.256752 0.958209 0.12615 0.256752 0.958209 0.12615 0.256752 0.958209 0.12615 0.2567521 0.958209 0.1261502 0.2567521 0.958209 0.1261502 0.2567521 0.958209 0.1261502 -0.256752 0.958209 0.1261502 -0.256752 0.958209 0.1261502 -0.256752 0.958209 0.1261502 -0.2567522 0.958209 0.12615 -0.2567522 0.958209 0.12615 -0.2567522 0.958209 0.12615 -0.7014578 0.7014578 0.1261501 -0.7014578 0.7014578 0.1261501 -0.7014578 0.7014578 0.1261501 -0.7014578 0.7014578 0.1261502 -0.7014578 0.7014578 0.1261502 -0.7014578 0.7014578 0.1261502 -0.958209 0.256752 0.12615 -0.958209 0.256752 0.12615 -0.958209 0.256752 0.12615 -0.958209 0.2567521 0.1261502 -0.958209 0.2567521 0.1261502 -0.958209 0.2567521 0.1261502 -0.896809 -0.2403 0.3714692 -0.896809 -0.2403 0.3714692 -0.896809 -0.2403 0.3714692 -0.8968084 -0.2402981 0.3714721 -0.8968084 -0.2402981 0.3714721 -0.8968084 -0.2402981 0.3714721 -0.6565099 -0.6565099 0.3714691 -0.6565099 -0.6565099 0.3714691 -0.6565099 -0.6565099 0.3714691 -0.65651 -0.65651 0.3714691 -0.65651 -0.65651 0.3714691 -0.65651 -0.65651 0.3714691 -0.2402998 -0.896808 0.371472 -0.2402998 -0.896808 0.371472 -0.2402998 -0.896808 0.371472 -0.2402984 -0.8968096 0.3714691 -0.2402984 -0.8968096 0.3714691 -0.2402984 -0.8968096 0.3714691 0.2403 -0.896809 0.3714692 0.2403 -0.896809 0.3714692 0.2403 -0.896809 0.3714692 0.2402981 -0.8968084 0.3714721 0.2402981 -0.8968084 0.3714721 0.2402981 -0.8968084 0.3714721 0.6565099 -0.6565099 0.3714691 0.6565099 -0.6565099 0.3714691 0.6565099 -0.6565099 0.3714691 0.65651 -0.65651 0.3714691 0.65651 -0.65651 0.3714691 0.65651 -0.65651 0.3714691 0.896808 -0.2402998 0.371472 0.896808 -0.2402998 0.371472 0.896808 -0.2402998 0.371472 0.8968096 -0.2402984 0.3714691 0.8968096 -0.2402984 0.3714691 0.8968096 -0.2402984 0.3714691 0.896809 0.2403 0.3714692 0.896809 0.2403 0.3714692 0.896809 0.2403 0.3714692 0.8968084 0.2402981 0.3714721 0.8968084 0.2402981 0.3714721 0.8968084 0.2402981 0.3714721 0.6565099 0.6565099 0.3714691 0.6565099 0.6565099 0.3714691 0.6565099 0.6565099 0.3714691 0.65651 0.65651 0.3714691 0.65651 0.65651 0.3714691 0.65651 0.65651 0.3714691 0.2402998 0.896808 0.371472 0.2402998 0.896808 0.371472 0.2402998 0.896808 0.371472 0.2402984 0.8968096 0.3714691 0.2402984 0.8968096 0.3714691 0.2402984 0.8968096 0.3714691 -0.2403 0.896809 0.3714692 -0.2403 0.896809 0.3714692 -0.2403 0.896809 0.3714692 -0.2402981 0.8968084 0.3714721 -0.2402981 0.8968084 0.3714721 -0.2402981 0.8968084 0.3714721 -0.6565099 0.6565099 0.3714691 -0.6565099 0.6565099 0.3714691 -0.6565099 0.6565099 0.3714691 -0.65651 0.65651 0.3714691 -0.65651 0.65651 0.3714691 -0.65651 0.65651 0.3714691 -0.896808 0.2402998 0.371472 -0.896808 0.2402998 0.371472 -0.896808 0.2402998 0.371472 -0.8968096 0.2402984 0.3714691 -0.8968096 0.2402984 0.3714691 -0.8968096 0.2402984 0.3714691 -0.7760128 -0.2079311 0.5954568 -0.7760128 -0.2079311 0.5954568 -0.7760128 -0.2079311 0.5954568 -0.7760143 -0.207934 0.5954539 -0.7760143 -0.207934 0.5954539 -0.7760143 -0.207934 0.5954539 -0.5680803 -0.5680803 0.5954574 -0.5680803 -0.5680803 0.5954574 -0.5680803 -0.5680803 0.5954574 -0.5680803 -0.5680803 0.5954575 -0.5680803 -0.5680803 0.5954575 -0.5680803 -0.5680803 0.5954575 -0.2079317 -0.7760147 0.5954542 -0.2079317 -0.7760147 0.5954542 -0.2079317 -0.7760147 0.5954542 -0.2079334 -0.776012 0.5954572 -0.2079334 -0.776012 0.5954572 -0.2079334 -0.776012 0.5954572 0.2079311 -0.7760128 0.5954568 0.2079311 -0.7760128 0.5954568 0.2079311 -0.7760128 0.5954568 0.207934 -0.7760143 0.5954539 0.207934 -0.7760143 0.5954539 0.207934 -0.7760143 0.5954539 0.5680803 -0.5680803 0.5954574 0.5680803 -0.5680803 0.5954574 0.5680803 -0.5680803 0.5954574 0.5680803 -0.5680803 0.5954575 0.5680803 -0.5680803 0.5954575 0.5680803 -0.5680803 0.5954575 0.7760147 -0.2079317 0.5954542 0.7760147 -0.2079317 0.5954542 0.7760147 -0.2079317 0.5954542 0.776012 -0.2079334 0.5954572 0.776012 -0.2079334 0.5954572 0.776012 -0.2079334 0.5954572 0.7760128 0.2079311 0.5954568 0.7760128 0.2079311 0.5954568 0.7760128 0.2079311 0.5954568 0.7760143 0.207934 0.5954539 0.7760143 0.207934 0.5954539 0.7760143 0.207934 0.5954539 0.5680803 0.5680803 0.5954574 0.5680803 0.5680803 0.5954574 0.5680803 0.5680803 0.5954574 0.5680803 0.5680803 0.5954575 0.5680803 0.5680803 0.5954575 0.5680803 0.5680803 0.5954575 0.2079317 0.7760147 0.5954542 0.2079317 0.7760147 0.5954542 0.2079317 0.7760147 0.5954542 0.2079334 0.776012 0.5954572 0.2079334 0.776012 0.5954572 0.2079334 0.776012 0.5954572 -0.2079311 0.7760128 0.5954568 -0.2079311 0.7760128 0.5954568 -0.2079311 0.7760128 0.5954568 -0.207934 0.7760143 0.5954539 -0.207934 0.7760143 0.5954539 -0.207934 0.7760143 0.5954539 -0.5680803 0.5680803 0.5954574 -0.5680803 0.5680803 0.5954574 -0.5680803 0.5680803 0.5954574 -0.5680803 0.5680803 0.5954575 -0.5680803 0.5680803 0.5954575 -0.5680803 0.5680803 0.5954575 -0.7760147 0.2079317 0.5954542 -0.7760147 0.2079317 0.5954542 -0.7760147 0.2079317 0.5954542 -0.776012 0.2079334 0.5954572 -0.776012 0.2079334 0.5954572 -0.776012 0.2079334 0.5954572 -0.6008227 -0.1609912 0.7830033 -0.6008227 -0.1609912 0.7830033 -0.6008227 -0.1609912 0.7830033 -0.6008214 -0.1609888 0.7830046 -0.6008214 -0.1609888 0.7830046 -0.6008214 -0.1609888 0.7830046 -0.439833 -0.439833 0.783003 -0.439833 -0.439833 0.783003 -0.439833 -0.439833 0.783003 -0.439833 -0.439833 0.783003 -0.439833 -0.439833 0.783003 -0.439833 -0.439833 0.783003 -0.1609908 -0.6008212 0.7830045 -0.1609908 -0.6008212 0.7830045 -0.1609908 -0.6008212 0.7830045 -0.1609894 -0.6008234 0.7830029 -0.1609894 -0.6008234 0.7830029 -0.1609894 -0.6008234 0.7830029 0.1609912 -0.6008227 0.7830033 0.1609912 -0.6008227 0.7830033 0.1609912 -0.6008227 0.7830033 0.1609888 -0.6008214 0.7830046 0.1609888 -0.6008214 0.7830046 0.1609888 -0.6008214 0.7830046 0.439833 -0.439833 0.783003 0.439833 -0.439833 0.783003 0.439833 -0.439833 0.783003 0.439833 -0.439833 0.783003 0.439833 -0.439833 0.783003 0.439833 -0.439833 0.783003 0.6008212 -0.1609908 0.7830045 0.6008212 -0.1609908 0.7830045 0.6008212 -0.1609908 0.7830045 0.6008234 -0.1609894 0.7830029 0.6008234 -0.1609894 0.7830029 0.6008234 -0.1609894 0.7830029 0.6008227 0.1609912 0.7830033 0.6008227 0.1609912 0.7830033 0.6008227 0.1609912 0.7830033 0.6008214 0.1609888 0.7830046 0.6008214 0.1609888 0.7830046 0.6008214 0.1609888 0.7830046 0.439833 0.439833 0.783003 0.439833 0.439833 0.783003 0.439833 0.439833 0.783003 0.439833 0.439833 0.783003 0.439833 0.439833 0.783003 0.439833 0.439833 0.783003 0.1609908 0.6008212 0.7830045 0.1609908 0.6008212 0.7830045 0.1609908 0.6008212 0.7830045 0.1609894 0.6008234 0.7830029 0.1609894 0.6008234 0.7830029 0.1609894 0.6008234 0.7830029 -0.1609912 0.6008227 0.7830033 -0.1609912 0.6008227 0.7830033 -0.1609912 0.6008227 0.7830033 -0.1609888 0.6008214 0.7830046 -0.1609888 0.6008214 0.7830046 -0.1609888 0.6008214 0.7830046 -0.439833 0.439833 0.783003 -0.439833 0.439833 0.783003 -0.439833 0.439833 0.783003 -0.439833 0.439833 0.783003 -0.439833 0.439833 0.783003 -0.439833 0.439833 0.783003 -0.6008212 0.1609908 0.7830045 -0.6008212 0.1609908 0.7830045 -0.6008212 0.1609908 0.7830045 -0.6008234 0.1609894 0.7830029 -0.6008234 0.1609894 0.7830029 -0.6008234 0.1609894 0.7830029 -0.3806861 -0.1020041 0.9190611 -0.3806861 -0.1020041 0.9190611 -0.3806861 -0.1020041 0.9190611 -0.3806859 -0.1020036 0.9190612 -0.3806859 -0.1020036 0.9190612 -0.3806859 -0.1020036 0.9190612 -0.2786817 -0.2786817 0.9190609 -0.2786817 -0.2786817 0.9190609 -0.2786817 -0.2786817 0.9190609 -0.2786817 -0.2786817 0.9190609 -0.2786817 -0.2786817 0.9190609 -0.2786817 -0.2786817 0.9190609 -0.102004 -0.3806859 0.9190611 -0.102004 -0.3806859 0.9190611 -0.102004 -0.3806859 0.9190611 -0.1020037 -0.3806863 0.9190611 -0.1020037 -0.3806863 0.9190611 -0.1020037 -0.3806863 0.9190611 0.1020041 -0.3806861 0.9190611 0.1020041 -0.3806861 0.9190611 0.1020041 -0.3806861 0.9190611 0.1020036 -0.3806859 0.9190612 0.1020036 -0.3806859 0.9190612 0.1020036 -0.3806859 0.9190612 0.2786817 -0.2786817 0.9190609 0.2786817 -0.2786817 0.9190609 0.2786817 -0.2786817 0.9190609 0.2786817 -0.2786817 0.9190609 0.2786817 -0.2786817 0.9190609 0.2786817 -0.2786817 0.9190609 0.3806859 -0.102004 0.9190611 0.3806859 -0.102004 0.9190611 0.3806859 -0.102004 0.9190611 0.3806863 -0.1020037 0.9190611 0.3806863 -0.1020037 0.9190611 0.3806863 -0.1020037 0.9190611 0.3806861 0.1020041 0.9190611 0.3806861 0.1020041 0.9190611 0.3806861 0.1020041 0.9190611 0.3806859 0.1020036 0.9190612 0.3806859 0.1020036 0.9190612 0.3806859 0.1020036 0.9190612 0.2786817 0.2786817 0.9190609 0.2786817 0.2786817 0.9190609 0.2786817 0.2786817 0.9190609 0.2786817 0.2786817 0.9190609 0.2786817 0.2786817 0.9190609 0.2786817 0.2786817 0.9190609 0.102004 0.3806859 0.9190611 0.102004 0.3806859 0.9190611 0.102004 0.3806859 0.9190611 0.1020037 0.3806863 0.9190611 0.1020037 0.3806863 0.9190611 0.1020037 0.3806863 0.9190611 -0.1020041 0.3806861 0.9190611 -0.1020041 0.3806861 0.9190611 -0.1020041 0.3806861 0.9190611 -0.1020036 0.3806859 0.9190612 -0.1020036 0.3806859 0.9190612 -0.1020036 0.3806859 0.9190612 -0.2786817 0.2786817 0.9190609 -0.2786817 0.2786817 0.9190609 -0.2786817 0.2786817 0.9190609 -0.2786817 0.2786817 0.9190609 -0.2786817 0.2786817 0.9190609 -0.2786817 0.2786817 0.9190609 -0.3806859 0.102004 0.9190611 -0.3806859 0.102004 0.9190611 -0.3806859 0.102004 0.9190611 -0.3806863 0.1020037 0.9190611 -0.3806863 0.1020037 0.9190611 -0.3806863 0.1020037 0.9190611 -0.1304458 -0.0349525 0.9908391 -0.1304458 -0.0349525 0.9908391 -0.1304458 -0.0349525 0.9908391 1.0 0.0 0.0 1.0 0.0 0.0 -0.0954928 -0.0954928 0.9908392 -0.0954928 -0.0954928 0.9908392 -0.0954928 -0.0954928 0.9908392 1.0 0.0 0.0 1.0 0.0 0.0 -0.0349525 -0.1304458 0.9908391 -0.0349525 -0.1304458 0.9908391 -0.0349525 -0.1304458 0.9908391 1.0 0.0 0.0 1.0 0.0 0.0 0.0349525 -0.1304458 0.9908391 0.0349525 -0.1304458 0.9908391 0.0349525 -0.1304458 0.9908391 1.0 0.0 0.0 1.0 0.0 0.0 0.0954928 -0.0954928 0.9908392 0.0954928 -0.0954928 0.9908392 0.0954928 -0.0954928 0.9908392 1.0 0.0 0.0 1.0 0.0 0.0 0.1304458 -0.0349525 0.9908391 0.1304458 -0.0349525 0.9908391 0.1304458 -0.0349525 0.9908391 1.0 0.0 0.0 1.0 0.0 0.0 0.1304458 0.0349525 0.9908391 0.1304458 0.0349525 0.9908391 0.1304458 0.0349525 0.9908391 1.0 0.0 0.0 1.0 0.0 0.0 0.0954928 0.0954928 0.9908392 0.0954928 0.0954928 0.9908392 0.0954928 0.0954928 0.9908392 1.0 0.0 0.0 1.0 0.0 0.0 0.0349525 0.1304458 0.9908391 0.0349525 0.1304458 0.9908391 0.0349525 0.1304458 0.9908391 1.0 0.0 0.0 1.0 0.0 0.0 -0.0349525 0.1304458 0.9908391 -0.0349525 0.1304458 0.9908391 -0.0349525 0.1304458 0.9908391 1.0 0.0 0.0 1.0 0.0 0.0 -0.0954928 0.0954928 0.9908392 -0.0954928 0.0954928 0.9908392 -0.0954928 0.0954928 0.9908392 1.0 0.0 0.0 1.0 0.0 0.0 -0.1304458 0.0349525 0.9908391 -0.1304458 0.0349525 0.9908391 -0.1304458 0.0349525 0.9908391 1.0 0.0 0.0 1.0 0.0 0.0 1.0 0.0 0.0 1.0 0.0 0.0 -0.1304458 -0.0349525 -0.9908391 -0.1304458 -0.0349525 -0.9908391 -0.1304458 -0.0349525 -0.9908391 1.0 0.0 0.0 1.0 0.0 0.0 -0.0954927 -0.0954927 -0.9908392 -0.0954927 -0.0954927 -0.9908392 -0.0954927 -0.0954927 -0.9908392 1.0 0.0 0.0 1.0 0.0 0.0 -0.0349525 -0.1304458 -0.9908391 -0.0349525 -0.1304458 -0.9908391 -0.0349525 -0.1304458 -0.9908391 1.0 0.0 0.0 1.0 0.0 0.0 0.0349525 -0.1304458 -0.9908391 0.0349525 -0.1304458 -0.9908391 0.0349525 -0.1304458 -0.9908391 1.0 0.0 0.0 1.0 0.0 0.0 0.0954927 -0.0954927 -0.9908392 0.0954927 -0.0954927 -0.9908392 0.0954927 -0.0954927 -0.9908392 1.0 0.0 0.0 1.0 0.0 0.0 0.1304458 -0.0349525 -0.9908391 0.1304458 -0.0349525 -0.9908391 0.1304458 -0.0349525 -0.9908391 1.0 0.0 0.0 1.0 0.0 0.0 0.1304458 0.0349525 -0.9908391 0.1304458 0.0349525 -0.9908391 0.1304458 0.0349525 -0.9908391 1.0 0.0 0.0 1.0 0.0 0.0 0.0954927 0.0954927 -0.9908392 0.0954927 0.0954927 -0.9908392 0.0954927 0.0954927 -0.9908392 1.0 0.0 0.0 1.0 0.0 0.0 0.0349525 0.1304458 -0.9908391 0.0349525 0.1304458 -0.9908391 0.0349525 0.1304458 -0.9908391 1.0 0.0 0.0 1.0 0.0 0.0 -0.0349525 0.1304458 -0.9908391 -0.0349525 0.1304458 -0.9908391 -0.0349525 0.1304458 -0.9908391 1.0 0.0 0.0 1.0 0.0 0.0 -0.0954927 0.0954927 -0.9908392 -0.0954927 0.0954927 -0.9908392 -0.0954927 0.0954927 -0.9908392 1.0 0.0 0.0 1.0 0.0 0.0 -0.1304458 0.0349525 -0.9908391 -0.1304458 0.0349525 -0.9908391 -0.1304458 0.0349525 -0.9908391 -0.3806894 -0.1020045 -0.9190597 -0.3806894 -0.1020045 -0.9190597 -0.3806894 -0.1020045 -0.9190597 -0.380689 -0.1020048 -0.9190598 -0.380689 -0.1020048 -0.9190598 -0.380689 -0.1020048 -0.9190598 -0.278684 -0.278684 -0.9190596 -0.278684 -0.278684 -0.9190596 -0.278684 -0.278684 -0.9190596 -0.278684 -0.278684 -0.9190596 -0.278684 -0.278684 -0.9190596 -0.278684 -0.278684 -0.9190596 -0.1020044 -0.3806891 -0.9190599 -0.1020044 -0.3806891 -0.9190599 -0.1020044 -0.3806891 -0.9190599 -0.1020049 -0.3806892 -0.9190597 -0.1020049 -0.3806892 -0.9190597 -0.1020049 -0.3806892 -0.9190597 0.1020045 -0.3806894 -0.9190597 0.1020045 -0.3806894 -0.9190597 0.1020045 -0.3806894 -0.9190597 0.1020048 -0.380689 -0.9190598 0.1020048 -0.380689 -0.9190598 0.1020048 -0.380689 -0.9190598 0.278684 -0.278684 -0.9190596 0.278684 -0.278684 -0.9190596 0.278684 -0.278684 -0.9190596 0.278684 -0.278684 -0.9190596 0.278684 -0.278684 -0.9190596 0.278684 -0.278684 -0.9190596</float_array>
                    <technique_common>
                        <accessor count="840" source="#geometry0-normal-array" stride="3">
                            <param name="X" type="float"/>
                            <param name="Y" type="float"/>
                            <param name="Z" type="float"/>
                        </accessor>
                    </technique_common>
                </source>
                <vertices id="geometry0-vertex">
                    <input semantic="POSITION" source="#geometry0-position"/>
                </vertices>
                <triangles count="288" material="default_ai_0.2_sh_0.2_tr_0.0_dc_r_0.8_g_0.8_b_0.8_sc_r_1.0_g_1.0_b_1.0_ec_r_0.0_g_0.0_b_0_tri">
                    <input offset="0" semantic="VERTEX" source="#geometry0-vertex"/>
                    <input offset="1" semantic="NORMAL" source="#geometry0-normal"/>
                    <p>6 0 7 1 19 2 6 3 19 4 18 5 7 6 8 7 20 8 7 9 20 10 19 11 8 12 9 13 21 14 8 15 21 16 20 17 9 18 10 19 22 20 9 21 22 22 21 23 10 24 11 25 23 26 10 27 23 28 22 29 11 30 12 31 24 32 11 33 24 34 23 35 12 36 2 37 14 38 12 39 14 40 24 41 14 42 13 43 25 44 14 45 25 46 26 47 13 48 15 49 27 50 13 51 27 52 25 53 15 54 16 55 28 56 15 57 28 58 27 59 16 60 17 61 29 62 16 63 29 64 28 65 17 66 18 67 30 68 17 69 30 70 29 71 18 72 19 73 31 74 18 75 31 76 30 77 19 78 20 79 32 80 19 81 32 82 31 83 20 84 21 85 33 86 20 87 33 88 32 89 21 90 22 91 34 92 21 93 34 94 33 95 22 96 23 97 35 98 22 99 35 100 34 101 23 102 24 103 36 104 23 105 36 106 35 107 24 108 14 109 26 110 24 111 26 112 36 113 26 114 25 115 37 116 26 117 37 118 38 119 25 120 27 121 39 122 25 123 39 124 37 125 27 126 28 127 40 128 27 129 40 130 39 131 28 132 29 133 41 134 28 135 41 136 40 137 29 138 30 139 42 140 29 141 42 142 41 143 30 144 31 145 43 146 30 147 43 148 42 149 31 150 32 151 44 152 31 153 44 154 43 155 32 156 33 157 45 158 32 159 45 160 44 161 33 162 34 163 46 164 33 165 46 166 45 167 34 168 35 169 47 170 34 171 47 172 46 173 35 174 36 175 48 176 35 177 48 178 47 179 36 180 26 181 38 182 36 183 38 184 48 185 38 186 37 187 49 188 38 189 49 190 50 191 37 192 39 193 51 194 37 195 51 196 49 197 39 198 40 199 52 200 39 201 52 202 51 203 40 204 41 205 53 206 40 207 53 208 52 209 41 210 42 211 54 212 41 213 54 214 53 215 42 216 43 217 55 218 42 219 55 220 54 221 43 222 44 223 56 224 43 225 56 226 55 227 44 228 45 229 57 230 44 231 57 232 56 233 45 234 46 235 58 236 45 237 58 238 57 239 46 240 47 241 59 242 46 243 59 244 58 245 47 246 48 247 60 248 47 249 60 250 59 251 48 252 38 253 50 254 48 255 50 256 60 257 50 258 49 259 61 260 50 261 61 262 62 263 49 264 51 265 63 266 49 267 63 268 61 269 51 270 52 271 64 272 51 273 64 274 63 275 52 276 53 277 65 278 52 279 65 280 64 281 53 282 54 283 66 284 53 285 66 286 65 287 54 288 55 289 67 290 54 291 67 292 66 293 55 294 56 295 68 296 55 297 68 298 67 299 56 300 57 301 69 302 56 303 69 304 68 305 57 306 58 307 70 308 57 309 70 310 69 311 58 312 59 313 71 314 58 315 71 316 70 317 59 318 60 319 72 320 59 321 72 322 71 323 60 324 50 325 62 326 60 327 62 328 72 329 62 330 61 331 73 332 62 333 73 334 74 335 61 336 63 337 75 338 61 339 75 340 73 341 63 342 64 343 76 344 63 345 76 346 75 347 64 348 65 349 77 350 64 351 77 352 76 353 65 354 66 355 78 356 65 357 78 358 77 359 66 360 67 361 79 362 66 363 79 364 78 365 67 366 68 367 80 368 67 369 80 370 79 371 68 372 69 373 81 374 68 375 81 376 80 377 69 378 70 379 82 380 69 381 82 382 81 383 70 384 71 385 83 386 70 387 83 388 82 389 71 390 72 391 84 392 71 393 84 394 83 395 72 396 62 397 74 398 72 399 74 400 84 401 74 402 73 403 85 404 74 405 85 406 86 407 73 408 75 409 87 410 73 411 87 412 85 413 75 414 76 415 88 416 75 417 88 418 87 419 76 420 77 421 89 422 76 423 89 424 88 425 77 426 78 427 90 428 77 429 90 430 89 431 78 432 79 433 91 434 78 435 91 436 90 437 79 438 80 439 92 440 79 441 92 442 91 443 80 444 81 445 93 446 80 447 93 448 92 449 81 450 82 451 94 452 81 453 94 454 93 455 82 456 83 457 95 458 82 459 95 460 94 461 83 462 84 463 96 464 83 465 96 466 95 467 84 468 74 469 86 470 84 471 86 472 96 473 86 474 85 475 97 476 86 477 97 478 98 479 85 480 87 481 99 482 85 483 99 484 97 485 87 486 88 487 100 488 87 489 100 490 99 491 88 492 89 493 101 494 88 495 101 496 100 497 89 498 90 499 102 500 89 501 102 502 101 503 90 504 91 505 103 506 90 507 103 508 102 509 91 510 92 511 104 512 91 513 104 514 103 515 92 516 93 517 105 518 92 519 105 520 104 521 93 522 94 523 106 524 93 525 106 526 105 527 94 528 95 529 107 530 94 531 107 532 106 533 95 534 96 535 108 536 95 537 108 538 107 539 96 540 86 541 98 542 96 543 98 544 108 545 98 546 97 547 109 548 98 549 109 550 110 551 97 552 99 553 111 554 97 555 111 556 109 557 99 558 100 559 112 560 99 561 112 562 111 563 100 564 101 565 113 566 100 567 113 568 112 569 101 570 102 571 114 572 101 573 114 574 113 575 102 576 103 577 115 578 102 579 115 580 114 581 103 582 104 583 116 584 103 585 116 586 115 587 104 588 105 589 117 590 104 591 117 592 116 593 105 594 106 595 118 596 105 597 118 598 117 599 106 600 107 601 119 602 106 603 119 604 118 605 107 606 108 607 120 608 107 609 120 610 119 611 108 612 98 613 110 614 108 615 110 616 120 617 110 618 109 619 121 620 110 621 121 622 122 623 109 624 111 625 123 626 109 627 123 628 121 629 111 630 112 631 124 632 111 633 124 634 123 635 112 636 113 637 125 638 112 639 125 640 124 641 113 642 114 643 126 644 113 645 126 646 125 647 114 648 115 649 127 650 114 651 127 652 126 653 115 654 116 655 128 656 115 657 128 658 127 659 116 660 117 661 129 662 116 663 129 664 128 665 117 666 118 667 130 668 117 669 130 670 129 671 118 672 119 673 131 674 118 675 131 676 130 677 119 678 120 679 132 680 119 681 132 682 131 683 120 684 110 685 122 686 120 687 122 688 132 689 122 690 121 691 133 692 122 693 133 694 133 694 121 695 123 696 133 697 121 698 133 699 133 699 123 700 124 701 133 702 123 703 133 704 133 704 124 705 125 706 133 707 124 708 133 709 133 709 125 710 126 711 133 712 125 713 133 714 133 714 126 715 127 716 133 717 126 718 133 719 133 719 127 720 128 721 133 722 127 723 133 724 133 724 128 725 129 726 133 727 128 728 133 729 133 729 129 730 130 731 133 732 129 733 133 734 133 734 130 735 131 736 133 737 130 738 133 739 133 739 131 740 132 741 133 742 131 743 133 744 133 744 132 745 122 746 133 747 132 748 133 749 133 749 0 750 0 750 1 751 0 752 1 753 2 754 0 755 0 755 3 756 0 757 3 758 1 759 0 760 0 760 4 761 0 762 4 763 3 764 0 765 0 765 5 766 0 767 5 768 4 769 0 770 0 770 6 771 0 772 6 773 5 774 0 775 0 775 7 776 0 777 7 778 6 779 0 780 0 780 8 781 0 782 8 783 7 784 0 785 0 785 9 786 0 787 9 788 8 789 0 790 0 790 10 791 0 792 10 793 9 794 0 795 0 795 11 796 0 797 11 798 10 799 0 800 0 800 12 801 0 802 12 803 11 804 0 805 0 805 2 806 0 807 2 808 12 809 2 810 1 811 13 812 2 813 13 814 14 815 1 816 3 817 15 818 1 819 15 820 13 821 3 822 4 823 16 824 3 825 16 826 15 827 4 828 5 829 17 830 4 831 17 832 16 833 5 834 6 835 18 836 5 837 18 838 17 839</p>
                </triangles>
            </mesh>
        </geometry>
    </library_geometries>
    <library_visual_scenes>
        <visual_scene id="Building_79_CROWN1">
            <node>
                <instance_geometry url="#geometry0">
                    <bind_material>
                        <technique_common>
                            <instance_material symbol="default_ai_0.2_sh_0.2_tr_0.0_dc_r_0.8_g_0.8_b_0.8_sc_r_1.0_g_1.0_b_1.0_ec_r_0.0_g_0.0_b_0_tri" target="#default_ai_0.2_sh_0.2_tr_0.0_dc_r_0.8_g_0.8_b_0.8_sc_r_1.0_g_1.0_b_1.0_ec_r_0.0_g_0.0_b_0_mat"/>
                        </technique_common>
                    </bind_material>
                </instance_geometry>
            </node>
        </visual_scene>
    </library_visual_scenes>
    <scene>
        <instance_visual_scene url="#Building_79_CROWN1"/>
    </scene>
</COLLADA>
