<?xml version="1.0" encoding="UTF-8" standalone="yes"?>
<COLLADA xmlns="http://www.collada.org/2005/11/COLLADASchema" version="1.4.1">
    <asset>
        <contributor>
            <authoring_tool>3D City Database Importer/Exporter, version 5.5.3; Chair of Geoinformatics, Technical University of Munich</authoring_tool>
        </contributor>
        <created>2026-09-25T14:45:23.423</created>
        <modified>2026-09-25T14:45:23.423</modified>
        <unit meter="1.0" name="meters"/>
        <up_axis>Z_UP</up_axis>
    </asset>
    <library_materials>
        <material id="default_ai_0.2_sh_0.2_tr_0.0_dc_r_0.8_g_0.8_b_0.8_sc_r_1.0_g_1.0_b_1.0_ec_r_0.0_g_0.0_b_0_mat">
            <instance_effect url="#default_ai_0.2_sh_0.2_tr_0.0_dc_r_0.8_g_0.8_b_0.8_sc_r_1.0_g_1.0_b_1.0_ec_r_0.0_g_0.0_b_0_eff"/>
        </material>
    </library_materials>
    <library_effects>
        <effect id="default_ai_0.2_sh_0.2_tr_0.0_dc_r_0.8_g_0.8_b_0.8_sc_r_1.0_g_1.0_b_1.0_ec_r_0.0_g_0.0_b_0_eff">
            <profile_COMMON>
                <technique sid="COMMON">
                    <lambert>
                        <emission>
                            <color>0.0 0.0 0.0 1.0</color>
                        </emission>
                        <diffuse>
                            <color>0.8 0.8 0.8 1.0</color>
                        </diffuse>
                        <reflective>
                            <color>1.0 1.0 1.0 1.0</color>
                        </reflective>
                        <reflectivity>
                            <float>0.2</float>
                        </reflectivity>
                        <transparent opaque="A_ONE">
                            <color>1.0 1.0 1.0 1.0</color>
                        </transparent>
                        <transparency>
                            <float>1.0</float>
                        </transparency>
                    </lambert>
                </technique>
                <extra>
                    <technique profile="GOOGLEEARTH">
                        <double_sided>0</double_sided>
                    </technique>
                </extra>
            </profile_COMMON>
        </effect>
    </library_effects>
    <library_geometries>
        <geometry id="geometry0">
            <mesh>
                <source id="geometry0-position">
                    <float_array id="geometry0-position-array" count="78">0.0 0.0 0.0 -0.0113204 0.04225 0.0 -0.0113204 0.04225 1.04 0.0 0.0 1.04 -0.04225 0.0731796 0.0 -0.04225 0.0731796 1.04 -0.0845 0.0845 0.0 -0.0845 0.0845 1.04 -0.12675 0.0731796 0.0 -0.12675 0.0731796 1.04 -0.1576796 0.04225 0.0 -0.1576796 0.04225 1.04 -0.169 0.0 0.0 -0.169 0.0 1.04 -0.1576796 -0.04225 0.0 -0.1576796 -0.04225 1.04 -0.12675 -0.0731796 0.0 -0.12675 -0.0731796 1.04 -0.0845 -0.0845 0.0 -0.0845 -0.0845 1.04 -0.04225 -0.0731796 0.0 -0.04225 -0.0731796 1.04 -0.0113204 -0.04225 0.0 -0.0113204 -0.04225 1.04 -0.0845 0.0 0.0 -0.0845 0.0 1.04</float_array>
                    <technique_common>
                        <accessor count="26" source="#geometry0-position-array" stride="3">
                            <param name="X" type="float"/>
                            <param name="Y" type="float"/>
                            <param name="Z" type="float"/>
                        </accessor>
                    </technique_common>
                </source>
                <source id="geometry0-normal">
                    <float_array id="geometry0-normal-array" count="432">-0.9659284 0.2588093 0.0 -0.9659284 0.2588093 0.0 -0.9659284 0.2588093 0.0 -0.9659284 0.2588093 0.0 -0.9659284 0.2588093 0.0 -0.9659284 0.2588093 0.0 -0.9659284 -0.2588093 0.0 -0.9659284 -0.2588093 0.0 -0.9659284 -0.2588093 0.0 -0.9659284 -0.2588093 0.0 -0.9659284 -0.2588093 0.0 -0.9659284 -0.2588093 0.0 -0.7071068 -0.7071066 0.0 -0.7071068 -0.7071066 0.0 -0.7071068 -0.7071066 0.0 -0.7071068 -0.7071066 0.0 -0.7071068 -0.7071066 0.0 -0.7071068 -0.7071066 0.0 -0.2588093 -0.9659285 0.0 -0.2588093 -0.9659285 0.0 -0.2588093 -0.9659285 0.0 -0.2588093 -0.9659285 0.0 -0.2588093 -0.9659285 0.0 -0.2588093 -0.9659285 0.0 0.2588093 -0.9659284 0.0 0.2588093 -0.9659284 0.0 0.2588093 -0.9659284 0.0 0.2588093 -0.9659284 0.0 0.2588093 -0.9659284 0.0 0.2588093 -0.9659284 0.0 0.7071068 -0.7071067 0.0 0.7071068 -0.7071067 0.0 0.7071068 -0.7071067 0.0 0.7071068 -0.7071067 0.0 0.7071068 -0.7071067 0.0 0.7071068 -0.7071067 0.0 0.9659284 -0.2588094 0.0 0.9659284 -0.2588094 0.0 0.9659284 -0.2588094 0.0 0.9659284 -0.2588094 0.0 0.9659284 -0.2588094 0.0 0.9659284 -0.2588094 0.0 0.0 0.0 -1.0 0.0 0.0 -1.0 0.0 0.0 -1.0 0.0 0.0 -1.0 0.0 0.0 -1.0 0.0 0.0 -1.0 0.0 0.0 -1.0 0.0 0.0 -1.0 0.0 0.0 -1.0 0.0 0.0 -1.0 0.0 0.0 -1.0 0.0 0.0 -1.0 0.0 0.0 -1.0 0.0 0.0 -1.0 0.0 0.0 -1.0 0.0 0.0 -1.0 0.0 0.0 -1.0 0.0 0.0 -1.0 0.0 0.0 -1.0 0.0 0.0 -1.0 0.0 0.0 -1.0 0.0 0.0 -1.0 0.0 0.0 -1.0 0.0 0.0 -1.0 0.0 0.0 -1.0 0.0 0.0 -1.0 0.0 0.0 -1.0 0.0 0.0 -1.0 0.0 0.0 -1.0 0.0 0.0 -1.0 0.0 0.0 -1.0 0.0 0.0 -1.0 0.0 0.0 -1.0 0.0 0.0 -1.0 0.0 0.0 -1.0 0.0 0.0 -1.0 0.0 0.0 1.0 0.0 0.0 1.0 0.0 0.0 1.0 0.0 0.0 1.0 0.0 0.0 1.0 0.0 0.0 1.0 0.0 0.0 1.0 0.0 0.0 1.0 0.0 0.0 1.0 0.0 0.0 1.0 0.0 0.0 1.0 0.0 0.0 1.0 0.0 0.0 1.0 0.0 0.0 1.0 0.0 0.0 1.0 0.0 0.0 1.0 0.0 0.0 1.0 0.0 0.0 1.0 0.0 0.0 1.0 0.0 0.0 1.0 0.0 0.0 1.0 0.0 0.0 1.0 0.0 0.0 1.0 0.0 0.0 1.0 0.0 0.0 1.0 0.0 0.0 1.0 0.0 0.0 1.0 0.0 0.0 1.0 0.0 0.0 1.0 0.0 0.0 1.0 0.0 0.0 1.0 0.0 0.0 1.0 0.0 0.0 1.0 0.0 0.0 1.0 0.0 0.0 1.0 0.0 0.0 1.0 0.9659284 0.2588094 0.0 0.9659284 0.2588094 0.0 0.9659284 0.2588094 0.0 0.9659284 0.2588094 0.0 0.9659284 0.2588094 0.0 0.9659284 0.2588094 0.0 0.7071068 0.7071067 0.0 0.7071068 0.7071067 0.0 0.7071068 0.7071067 0.0 0.7071068 0.7071067 0.0 0.7071068 0.7071067 0.0 0.7071068 0.7071067 0.0 0.2588093 0.9659284 0.0 0.2588093 0.9659284 0.0 0.2588093 0.9659284 0.0 0.2588093 0.9659284 0.0 0.2588093 0.9659284 0.0 0.2588093 0.9659284 0.0 -0.2588093 0.9659285 0.0 -0.2588093 0.9659285 0.0 -0.2588093 0.9659285 0.0 -0.2588093 0.9659285 0.0 -0.2588093 0.9659285 0.0 -0.2588093 0.9659285 0.0 -0.7071068 0.7071066 0.0 -0.7071068 0.7071066 0.0 -0.7071068 0.7071066 0.0 -0.7071068 0.7071066 0.0 -0.7071068 0.7071066 0.0 -0.7071068 0.7071066 0.0</float_array>
                    <technique_common>
                        <accessor count="144" source="#geometry0-normal-array" stride="3">
                            <param name="X" type="float"/>
                            <param name="Y" type="float"/>
                            <param name="Z" type="float"/>
                        </accessor>
                    </technique_common>
                </source>
                <vertices id="geometry0-vertex">
                    <input semantic="POSITION" source="#geometry0-position"/>
                </vertices>
                <triangles count="48" material="default_ai_0.2_sh_0.2_tr_0.0_dc_r_0.8_g_0.8_b_0.8_sc_r_1.0_g_1.0_b_1.0_ec_r_0.0_g_0.0_b_0_tri">
                    <input offset="0" semantic="VERTEX" source="#geometry0-vertex"/>
                    <input offset="1" semantic="NORMAL" source="#geometry0-normal"/>
                    <p>10 0 12 1 13 2 10 3 13 4 11 5 12 6 14 7 15 8 12 9 15 10 13 11 14 12 16 13 17 14 14 15 17 16 15 17 16 18 18 19 19 20 16 21 19 22 17 23 18 24 20 25 21 26 18 27 21 28 19 29 20 30 22 31 23 32 20 33 23 34 21 35 22 36 0 37 3 38 22 39 3 40 23 41 24 42 1 43 0 44 24 45 4 46 1 47 24 48 6 49 4 50 24 51 8 52 6 53 24 54 10 55 8 56 24 57 12 58 10 59 24 60 14 61 12 62 24 63 16 64 14 65 24 66 18 67 16 68 24 69 20 70 18 71 24 72 22 73 20 74 24 75 0 76 22 77 25 78 3 79 2 80 25 81 2 82 5 83 25 84 5 85 7 86 25 87 7 88 9 89 25 90 9 91 11 92 25 93 11 94 13 95 25 96 13 97 15 98 25 99 15 100 17 101 25 102 17 103 19 104 25 105 19 106 21 107 25 108 21 109 23 110 25 111 23 112 3 113 0 114 1 115 2 116 0 117 2 118 3 119 1 120 4 121 5 122 1 123 5 124 2 125 4 126 6 127 7 128 4 129 7 130 5 131 6 132 8 133 9 134 6 135 9 136 7 137 8 138 10 139 11 140 8 141 11 142 9 143</p>
                </triangles>
            </mesh>
        </geometry>
    </library_geometries>
    <library_visual_scenes>
        <visual_scene id="Building_134_TRUNK2">
            <node>
                <instance_geometry url="#geometry0">
                    <bind_material>
                        <technique_common>
                            <instance_material symbol="default_ai_0.2_sh_0.2_tr_0.0_dc_r_0.8_g_0.8_b_0.8_sc_r_1.0_g_1.0_b_1.0_ec_r_0.0_g_0.0_b_0_tri" target="#default_ai_0.2_sh_0.2_tr_0.0_dc_r_0.8_g_0.8_b_0.8_sc_r_1.0_g_1.0_b_1.0_ec_r_0.0_g_0.0_b_0_mat"/>
                        </technique_common>
                    </bind_material>
                </instance_geometry>
            </node>
        </visual_scene>
    </library_visual_scenes>
    <scene>
        <instance_visual_scene url="#Building_134_TRUNK2"/>
    </scene>
</COLLADA>
