<?xml version="1.0" encoding="UTF-8" standalone="yes"?>
<COLLADA xmlns="http://www.collada.org/2005/11/COLLADASchema" version="1.4.1">
    <asset>
        <contributor>
            <authoring_tool>3D City Database Importer/Exporter, version 5.5.3; Chair of Geoinformatics, Technical University of Munich</authoring_tool>
        </contributor>
        <created>2026-09-25T14:45:16.441</created>
        <modified>2026-09-25T14:45:16.441</modified>
        <unit meter="1.0" name="meters"/>
        <up_axis>Z_UP</up_axis>
    </asset>
    <library_materials>
        <material id="default_ai_0.2_sh_0.2_tr_0.0_dc_r_0.8_g_0.8_b_0.8_sc_r_1.0_g_1.0_b_1.0_ec_r_0.0_g_0.0_b_0_mat">
            <instance_effect url="#default_ai_0.2_sh_0.2_tr_0.0_dc_r_0.8_g_0.8_b_0.8_sc_r_1.0_g_1.0_b_1.0_ec_r_0.0_g_0.0_b_0_eff"/>
        </material>
    </library_materials>
    <library_effects>
        <effect id="default_ai_0.2_sh_0.2_tr_0.0_dc_r_0.8_g_0.8_b_0.8_sc_r_1.0_g_1.0_b_1.0_ec_r_0.0_g_0.0_b_0_eff">
            <profile_COMMON>
                <technique sid="COMMON">
                    <lambert>
                        <emission>
                            <color>0.0 0.0 0.0 1.0</color>
                        </emission>
                        <diffuse>
                            <color>0.8 0.8 0.8 1.0</color>
                        </diffuse>
                        <reflective>
                            <color>1.0 1.0 1.0 1.0</color>
                        </reflective>
                        <reflectivity>
                            <float>0.2</float>
                        </reflectivity>
                        <transparent opaque="A_ONE">
                            <color>1.0 1.0 1.0 1.0</color>
                        </transparent>
                        <transparency>
                            <float>1.0</float>
                        </transparency>
                    </lambert>
                </technique>
                <extra>
                    <technique profile="GOOGLEEARTH">
                        <double_sided>0</double_sided>
                    </technique>
                </extra>
            </profile_COMMON>
        </effect>
    </library_effects>
    <library_geometries>
        <geometry id="geometry0">
            <mesh>
                <source id="geometry0-position">
                    <float_array id="geometry0-position-array" count="78">0.0 0.0 0.0 -0.007034 0.02625 0.0 -0.007034 0.02625 1.7500004 0.0 0.0 1.7500004 -0.02625 0.045466 0.0 -0.02625 0.045466 1.7500004 -0.0525 0.0525 0.0 -0.0525 0.0525 1.7500004 -0.07875 0.045466 0.0 -0.07875 0.045466 1.7500004 -0.097966 0.02625 0.0 -0.097966 0.02625 1.7500004 -0.105 0.0 0.0 -0.105 0.0 1.7500004 -0.097966 -0.02625 0.0 -0.097966 -0.02625 1.7500004 -0.07875 -0.045466 0.0 -0.07875 -0.045466 1.7500004 -0.0525 -0.0525 0.0 -0.0525 -0.0525 1.7500004 -0.02625 -0.045466 0.0 -0.02625 -0.045466 1.7500004 -0.007034 -0.02625 0.0 -0.007034 -0.02625 1.7500004 -0.0525 0.0 0.0 -0.0525 0.0 1.7500004</float_array>
                    <technique_common>
                        <accessor count="26" source="#geometry0-position-array" stride="3">
                            <param name="X" type="float"/>
                            <param name="Y" type="float"/>
                            <param name="Z" type="float"/>
                        </accessor>
                    </technique_common>
                </source>
                <source id="geometry0-normal">
                    <float_array id="geometry0-normal-array" count="432">0.0 0.0 1.0 0.0 0.0 1.0 0.0 0.0 1.0 0.0 0.0 1.0 0.0 0.0 1.0 0.0 0.0 1.0 0.0 0.0 1.0 0.0 0.0 1.0 0.0 0.0 1.0 0.0 0.0 1.0 0.0 0.0 1.0 0.0 0.0 1.0 0.0 0.0 1.0 0.0 0.0 1.0 0.0 0.0 1.0 0.0 0.0 1.0 0.0 0.0 1.0 0.0 0.0 1.0 0.0 0.0 1.0 0.0 0.0 1.0 0.0 0.0 1.0 0.0 0.0 1.0 0.0 0.0 1.0 0.0 0.0 1.0 0.0 0.0 1.0 0.0 0.0 1.0 0.0 0.0 1.0 0.0 0.0 1.0 0.0 0.0 1.0 0.0 0.0 1.0 0.0 0.0 1.0 0.0 0.0 1.0 0.0 0.0 1.0 0.0 0.0 1.0 0.0 0.0 1.0 0.0 0.0 1.0 0.9659232 0.2588288 0.0 0.9659232 0.2588288 0.0 0.9659232 0.2588288 0.0 0.9659232 0.2588288 0.0 0.9659232 0.2588288 0.0 0.9659232 0.2588288 0.0 0.7071068 0.7071068 0.0 0.7071068 0.7071068 0.0 0.7071068 0.7071068 0.0 0.7071068 0.7071068 0.0 0.7071068 0.7071068 0.0 0.7071068 0.7071068 0.0 0.2588288 0.9659232 0.0 0.2588288 0.9659232 0.0 0.2588288 0.9659232 0.0 0.2588288 0.9659232 0.0 0.2588288 0.9659232 0.0 0.2588288 0.9659232 0.0 -0.2588288 0.9659232 0.0 -0.2588288 0.9659232 0.0 -0.2588288 0.9659232 0.0 -0.2588288 0.9659232 0.0 -0.2588288 0.9659232 0.0 -0.2588288 0.9659232 0.0 -0.7071068 0.7071068 0.0 -0.7071068 0.7071068 0.0 -0.7071068 0.7071068 0.0 -0.7071068 0.7071068 0.0 -0.7071068 0.7071068 0.0 -0.7071068 0.7071068 0.0 -0.9659232 0.2588286 0.0 -0.9659232 0.2588286 0.0 -0.9659232 0.2588286 0.0 -0.9659232 0.2588286 0.0 -0.9659232 0.2588286 0.0 -0.9659232 0.2588286 0.0 -0.9659232 -0.2588286 0.0 -0.9659232 -0.2588286 0.0 -0.9659232 -0.2588286 0.0 -0.9659232 -0.2588286 0.0 -0.9659232 -0.2588286 0.0 -0.9659232 -0.2588286 0.0 -0.7071068 -0.7071068 0.0 -0.7071068 -0.7071068 0.0 -0.7071068 -0.7071068 0.0 -0.7071068 -0.7071068 0.0 -0.7071068 -0.7071068 0.0 -0.7071068 -0.7071068 0.0 -0.2588288 -0.9659232 0.0 -0.2588288 -0.9659232 0.0 -0.2588288 -0.9659232 0.0 -0.2588288 -0.9659232 0.0 -0.2588288 -0.9659232 0.0 -0.2588288 -0.9659232 0.0 0.2588288 -0.9659232 0.0 0.2588288 -0.9659232 0.0 0.2588288 -0.9659232 0.0 0.2588288 -0.9659232 0.0 0.2588288 -0.9659232 0.0 0.2588288 -0.9659232 0.0 0.7071068 -0.7071068 0.0 0.7071068 -0.7071068 0.0 0.7071068 -0.7071068 0.0 0.7071068 -0.7071068 0.0 0.7071068 -0.7071068 0.0 0.7071068 -0.7071068 0.0 0.9659232 -0.2588288 0.0 0.9659232 -0.2588288 0.0 0.9659232 -0.2588288 0.0 0.9659232 -0.2588288 0.0 0.9659232 -0.2588288 0.0 0.9659232 -0.2588288 0.0 0.0 0.0 -1.0 0.0 0.0 -1.0 0.0 0.0 -1.0 0.0 0.0 -1.0 0.0 0.0 -1.0 0.0 0.0 -1.0 0.0 0.0 -1.0 0.0 0.0 -1.0 0.0 0.0 -1.0 0.0 0.0 -1.0 0.0 0.0 -1.0 0.0 0.0 -1.0 0.0 0.0 -1.0 0.0 0.0 -1.0 0.0 0.0 -1.0 0.0 0.0 -1.0 0.0 0.0 -1.0 0.0 0.0 -1.0 0.0 0.0 -1.0 0.0 0.0 -1.0 0.0 0.0 -1.0 0.0 0.0 -1.0 0.0 0.0 -1.0 0.0 0.0 -1.0 0.0 0.0 -1.0 0.0 0.0 -1.0 0.0 0.0 -1.0 0.0 0.0 -1.0 0.0 0.0 -1.0 0.0 0.0 -1.0 0.0 0.0 -1.0 0.0 0.0 -1.0 0.0 0.0 -1.0 0.0 0.0 -1.0 0.0 0.0 -1.0 0.0 0.0 -1.0</float_array>
                    <technique_common>
                        <accessor count="144" source="#geometry0-normal-array" stride="3">
                            <param name="X" type="float"/>
                            <param name="Y" type="float"/>
                            <param name="Z" type="float"/>
                        </accessor>
                    </technique_common>
                </source>
                <vertices id="geometry0-vertex">
                    <input semantic="POSITION" source="#geometry0-position"/>
                </vertices>
                <triangles count="48" material="default_ai_0.2_sh_0.2_tr_0.0_dc_r_0.8_g_0.8_b_0.8_sc_r_1.0_g_1.0_b_1.0_ec_r_0.0_g_0.0_b_0_tri">
                    <input offset="0" semantic="VERTEX" source="#geometry0-vertex"/>
                    <input offset="1" semantic="NORMAL" source="#geometry0-normal"/>
                    <p>25 0 3 1 2 2 25 3 2 4 5 5 25 6 5 7 7 8 25 9 7 10 9 11 25 12 9 13 11 14 25 15 11 16 13 17 25 18 13 19 15 20 25 21 15 22 17 23 25 24 17 25 19 26 25 27 19 28 21 29 25 30 21 31 23 32 25 33 23 34 3 35 0 36 1 37 2 38 0 39 2 40 3 41 1 42 4 43 5 44 1 45 5 46 2 47 4 48 6 49 7 50 4 51 7 52 5 53 6 54 8 55 9 56 6 57 9 58 7 59 8 60 10 61 11 62 8 63 11 64 9 65 10 66 12 67 13 68 10 69 13 70 11 71 12 72 14 73 15 74 12 75 15 76 13 77 14 78 16 79 17 80 14 81 17 82 15 83 16 84 18 85 19 86 16 87 19 88 17 89 18 90 20 91 21 92 18 93 21 94 19 95 20 96 22 97 23 98 20 99 23 100 21 101 22 102 0 103 3 104 22 105 3 106 23 107 24 108 1 109 0 110 24 111 4 112 1 113 24 114 6 115 4 116 24 117 8 118 6 119 24 120 10 121 8 122 24 123 12 124 10 125 24 126 14 127 12 128 24 129 16 130 14 131 24 132 18 133 16 134 24 135 20 136 18 137 24 138 22 139 20 140 24 141 0 142 22 143</p>
                </triangles>
            </mesh>
        </geometry>
    </library_geometries>
    <library_visual_scenes>
        <visual_scene id="Building_223_TRUNK1">
            <node>
                <instance_geometry url="#geometry0">
                    <bind_material>
                        <technique_common>
                            <instance_material symbol="default_ai_0.2_sh_0.2_tr_0.0_dc_r_0.8_g_0.8_b_0.8_sc_r_1.0_g_1.0_b_1.0_ec_r_0.0_g_0.0_b_0_tri" target="#default_ai_0.2_sh_0.2_tr_0.0_dc_r_0.8_g_0.8_b_0.8_sc_r_1.0_g_1.0_b_1.0_ec_r_0.0_g_0.0_b_0_mat"/>
                        </technique_common>
                    </bind_material>
                </instance_geometry>
            </node>
        </visual_scene>
    </library_visual_scenes>
    <scene>
        <instance_visual_scene url="#Building_223_TRUNK1"/>
    </scene>
</COLLADA>
