<?xml version="1.0" encoding="UTF-8" standalone="yes"?>
<COLLADA xmlns="http://www.collada.org/2005/11/COLLADASchema" version="1.4.1">
    <asset>
        <contributor>
            <authoring_tool>3D City Database Importer/Exporter, version 5.5.3; Chair of Geoinformatics, Technical University of Munich</authoring_tool>
        </contributor>
        <created>2026-09-25T14:45:22.123</created>
        <modified>2026-09-25T14:45:22.123</modified>
        <unit meter="1.0" name="meters"/>
        <up_axis>Z_UP</up_axis>
    </asset>
    <library_materials>
        <material id="default_ai_0.2_sh_0.2_tr_0.0_dc_r_0.8_g_0.8_b_0.8_sc_r_1.0_g_1.0_b_1.0_ec_r_0.0_g_0.0_b_0_mat">
            <instance_effect url="#default_ai_0.2_sh_0.2_tr_0.0_dc_r_0.8_g_0.8_b_0.8_sc_r_1.0_g_1.0_b_1.0_ec_r_0.0_g_0.0_b_0_eff"/>
        </material>
    </library_materials>
    <library_effects>
        <effect id="default_ai_0.2_sh_0.2_tr_0.0_dc_r_0.8_g_0.8_b_0.8_sc_r_1.0_g_1.0_b_1.0_ec_r_0.0_g_0.0_b_0_eff">
            <profile_COMMON>
                <technique sid="COMMON">
                    <lambert>
                        <emission>
                            <color>0.0 0.0 0.0 1.0</color>
                        </emission>
                        <diffuse>
                            <color>0.8 0.8 0.8 1.0</color>
                        </diffuse>
                        <reflective>
                            <color>1.0 1.0 1.0 1.0</color>
                        </reflective>
                        <reflectivity>
                            <float>0.2</float>
                        </reflectivity>
                        <transparent opaque="A_ONE">
                            <color>1.0 1.0 1.0 1.0</color>
                        </transparent>
                        <transparency>
                            <float>1.0</float>
                        </transparency>
                    </lambert>
                </technique>
                <extra>
                    <technique profile="GOOGLEEARTH">
                        <double_sided>0</double_sided>
                    </technique>
                </extra>
            </profile_COMMON>
        </effect>
    </library_effects>
    <library_geometries>
        <geometry id="geometry0">
            <mesh>
                <source id="geometry0-position">
                    <float_array id="geometry0-position-array" count="402">0.0 0.0 3.5 0.392252 0.2264675 3.4403705 0.4529332 0.0 3.4403705 0.2264675 0.392252 3.4403705 0.0 0.4529332 3.4403705 -0.2264675 0.392252 3.4403705 -0.392252 0.2264675 3.4403705 -0.4529332 0.0 3.4403705 -0.392252 -0.2264675 3.4403705 -0.2264675 -0.392252 3.4403705 0.0 -0.4529332 3.4403705 0.2264675 -0.392252 3.4403705 0.392252 -0.2264675 3.4403705 0.7577727 0.4375 3.2655437 0.875 0.0 3.2655437 0.4375 0.7577728 3.2655437 0.0 0.875 3.2655437 -0.4375 0.7577728 3.2655437 -0.7577727 0.4375 3.2655437 -0.875 0.0 3.2655437 -0.7577727 -0.4375 3.2655437 -0.4375 -0.7577728 3.2655437 0.0 -0.875 3.2655437 0.4375 -0.7577728 3.2655437 0.7577727 -0.4375 3.2655437 1.071651 0.6187177 2.9874372 1.2374372 0.0 2.9874372 0.6187178 1.071651 2.9874372 0.0 1.2374373 2.9874372 -0.6187178 1.071651 2.9874372 -1.071651 0.6187177 2.9874372 -1.2374372 0.0 2.9874372 -1.071651 -0.6187177 2.9874372 -0.6187178 -1.071651 2.9874372 0.0 -1.2374373 2.9874372 0.6187178 -1.071651 2.9874372 1.071651 -0.6187177 2.9874372 1.3125 0.7577728 2.625 1.5155438 0.0 2.625 0.7577727 1.3125 2.625 0.0 1.5155437 2.625 -0.7577727 1.3125 2.625 -1.3125 0.7577728 2.625 -1.5155438 0.0 2.625 -1.3125 -0.7577728 2.625 -0.7577727 -1.3125 2.625 0.0 -1.5155437 2.625 0.7577727 -1.3125 2.625 1.3125 -0.7577728 2.625 1.463903 0.8451853 2.2029332 1.6903705 0.0 2.2029332 0.8451852 1.463903 2.2029332 0.0 1.6903705 2.2029332 -0.8451852 1.463903 2.2029332 -1.463903 0.8451853 2.2029332 -1.6903705 0.0 2.2029332 -1.463903 -0.8451853 2.2029332 -0.8451852 -1.463903 2.2029332 0.0 -1.6903705 2.2029332 0.8451852 -1.463903 2.2029332 1.463903 -0.8451853 2.2029332 1.5155438 0.875 1.75 1.75 0.0 1.75 0.875 1.5155437 1.75 0.0 1.75 1.75 -0.875 1.5155437 1.75 -1.5155438 0.875 1.75 -1.75 0.0 1.75 -1.5155438 -0.875 1.75 -0.875 -1.5155437 1.75 0.0 -1.75 1.75 0.875 -1.5155437 1.75 1.5155438 -0.875 1.75 1.463903 0.8451853 1.2970667 1.6903705 0.0 1.2970667 0.8451852 1.463903 1.2970667 0.0 1.6903705 1.2970667 -0.8451852 1.463903 1.2970667 -1.463903 0.8451853 1.2970667 -1.6903705 0.0 1.2970667 -1.463903 -0.8451853 1.2970667 -0.8451852 -1.463903 1.2970667 0.0 -1.6903705 1.2970667 0.8451852 -1.463903 1.2970667 1.463903 -0.8451853 1.2970667 1.3125 0.7577728 0.875 1.5155438 0.0 0.875 0.7577727 1.3125 0.875 0.0 1.5155437 0.875 -0.7577727 1.3125 0.875 -1.3125 0.7577728 0.875 -1.5155438 0.0 0.875 -1.3125 -0.7577728 0.875 -0.7577727 -1.3125 0.875 0.0 -1.5155437 0.875 0.7577727 -1.3125 0.875 1.3125 -0.7577728 0.875 1.071651 0.6187177 0.5125627 1.2374372 0.0 0.5125627 0.6187178 1.071651 0.5125627 0.0 1.2374373 0.5125627 -0.6187178 1.071651 0.5125627 -1.071651 0.6187177 0.5125627 -1.2374372 0.0 0.5125627 -1.071651 -0.6187177 0.5125627 -0.6187178 -1.071651 0.5125627 0.0 -1.2374373 0.5125627 0.6187178 -1.071651 0.5125627 1.071651 -0.6187177 0.5125627 0.7577727 0.4375 0.2344562 0.875 0.0 0.2344562 0.4375 0.7577728 0.2344562 0.0 0.875 0.2344562 -0.4375 0.7577728 0.2344562 -0.7577727 0.4375 0.2344562 -0.875 0.0 0.2344562 -0.7577727 -0.4375 0.2344562 -0.4375 -0.7577728 0.2344562 0.0 -0.875 0.2344562 0.4375 -0.7577728 0.2344562 0.7577727 -0.4375 0.2344562 0.392252 0.2264675 0.0596295 0.4529332 0.0 0.0596295 0.2264675 0.392252 0.0596295 0.0 0.4529332 0.0596295 -0.2264675 0.392252 0.0596295 -0.392252 0.2264675 0.0596295 -0.4529332 0.0 0.0596295 -0.392252 -0.2264675 0.0596295 -0.2264675 -0.392252 0.0596295 0.0 -0.4529332 0.0596295 0.2264675 -0.392252 0.0596295 0.392252 -0.2264675 0.0596295 0.0 0.0 0.0</float_array>
                    <technique_common>
                        <accessor count="134" source="#geometry0-position-array" stride="3">
                            <param name="X" type="float"/>
                            <param name="Y" type="float"/>
                            <param name="Z" type="float"/>
                        </accessor>
                    </technique_common>
                </source>
                <source id="geometry0-normal">
                    <float_array id="geometry0-normal-array" count="2520">-0.7014578 0.7014579 -0.1261501 -0.7014578 0.7014579 -0.1261501 -0.7014578 0.7014579 -0.1261501 -0.7014578 0.7014578 -0.1261502 -0.7014578 0.7014578 -0.1261502 -0.7014578 0.7014578 -0.1261502 -0.958209 0.2567522 -0.1261501 -0.958209 0.2567522 -0.1261501 -0.958209 0.2567522 -0.1261501 -0.958209 0.2567521 -0.1261502 -0.958209 0.2567521 -0.1261502 -0.958209 0.2567521 -0.1261502 -0.958209 -0.2567522 0.1261502 -0.958209 -0.2567522 0.1261502 -0.958209 -0.2567522 0.1261502 -0.958209 -0.2567522 0.1261501 -0.958209 -0.2567522 0.1261501 -0.958209 -0.2567522 0.1261501 -0.7014578 -0.7014578 0.1261502 -0.7014578 -0.7014578 0.1261502 -0.7014578 -0.7014578 0.1261502 -0.7014578 -0.7014579 0.1261502 -0.7014578 -0.7014579 0.1261502 -0.7014578 -0.7014579 0.1261502 -0.2567522 -0.9582091 0.1261499 -0.2567522 -0.9582091 0.1261499 -0.2567522 -0.9582091 0.1261499 -0.2567523 -0.9582089 0.1261503 -0.2567523 -0.9582089 0.1261503 -0.2567523 -0.9582089 0.1261503 0.2567522 -0.958209 0.1261503 0.2567522 -0.958209 0.1261503 0.2567522 -0.958209 0.1261503 0.2567524 -0.958209 0.1261499 0.2567524 -0.958209 0.1261499 0.2567524 -0.958209 0.1261499 0.7014578 -0.7014578 0.1261501 0.7014578 -0.7014578 0.1261501 0.7014578 -0.7014578 0.1261501 0.7014577 -0.7014578 0.1261502 0.7014577 -0.7014578 0.1261502 0.7014577 -0.7014578 0.1261502 0.958209 -0.2567522 0.1261501 0.958209 -0.2567522 0.1261501 0.958209 -0.2567522 0.1261501 0.958209 -0.2567522 0.1261502 0.958209 -0.2567522 0.1261502 0.958209 -0.2567522 0.1261502 0.958209 0.2567522 0.1261502 0.958209 0.2567522 0.1261502 0.958209 0.2567522 0.1261502 0.958209 0.2567522 0.1261501 0.958209 0.2567522 0.1261501 0.958209 0.2567522 0.1261501 0.7014578 0.7014578 0.1261502 0.7014578 0.7014578 0.1261502 0.7014578 0.7014578 0.1261502 0.7014578 0.7014579 0.1261502 0.7014578 0.7014579 0.1261502 0.7014578 0.7014579 0.1261502 0.2567522 0.9582091 0.1261499 0.2567522 0.9582091 0.1261499 0.2567522 0.9582091 0.1261499 0.2567523 0.9582089 0.1261503 0.2567523 0.9582089 0.1261503 0.2567523 0.9582089 0.1261503 -0.2567522 0.958209 0.1261503 -0.2567522 0.958209 0.1261503 -0.2567522 0.958209 0.1261503 -0.2567524 0.958209 0.1261499 -0.2567524 0.958209 0.1261499 -0.2567524 0.958209 0.1261499 -0.7014578 0.7014578 0.1261501 -0.7014578 0.7014578 0.1261501 -0.7014578 0.7014578 0.1261501 -0.7014577 0.7014578 0.1261502 -0.7014577 0.7014578 0.1261502 -0.7014577 0.7014578 0.1261502 -0.958209 0.2567522 0.1261501 -0.958209 0.2567522 0.1261501 -0.958209 0.2567522 0.1261501 -0.958209 0.2567522 0.1261502 -0.958209 0.2567522 0.1261502 -0.958209 0.2567522 0.1261502 -0.8968092 -0.2403001 0.3714691 -0.8968092 -0.2403001 0.3714691 -0.8968092 -0.2403001 0.3714691 -0.8968084 -0.240298 0.3714722 -0.8968084 -0.240298 0.3714722 -0.8968084 -0.240298 0.3714722 -0.65651 -0.6565101 0.371469 -0.65651 -0.6565101 0.371469 -0.65651 -0.6565101 0.371469 -0.65651 -0.65651 0.3714691 -0.65651 -0.65651 0.3714691 -0.65651 -0.65651 0.3714691 -0.2402999 -0.8968078 0.3714722 -0.2402999 -0.8968078 0.3714722 -0.2402999 -0.8968078 0.3714722 -0.2402984 -0.8968096 0.3714689 -0.2402984 -0.8968096 0.3714689 -0.2402984 -0.8968096 0.3714689 0.2403002 -0.8968091 0.3714691 0.2403002 -0.8968091 0.3714691 0.2403002 -0.8968091 0.3714691 0.240298 -0.8968083 0.3714724 0.240298 -0.8968083 0.3714724 0.240298 -0.8968083 0.3714724 0.6565099 -0.65651 0.371469 0.6565099 -0.65651 0.371469 0.6565099 -0.65651 0.371469 0.65651 -0.65651 0.371469 0.65651 -0.65651 0.371469 0.65651 -0.65651 0.371469 0.896808 -0.2402998 0.371472 0.896808 -0.2402998 0.371472 0.896808 -0.2402998 0.371472 0.8968096 -0.2402984 0.371469 0.8968096 -0.2402984 0.371469 0.8968096 -0.2402984 0.371469 0.8968092 0.2403001 0.3714691 0.8968092 0.2403001 0.3714691 0.8968092 0.2403001 0.3714691 0.8968084 0.240298 0.3714722 0.8968084 0.240298 0.3714722 0.8968084 0.240298 0.3714722 0.65651 0.6565101 0.371469 0.65651 0.6565101 0.371469 0.65651 0.6565101 0.371469 0.65651 0.65651 0.3714691 0.65651 0.65651 0.3714691 0.65651 0.65651 0.3714691 0.2402999 0.8968078 0.3714722 0.2402999 0.8968078 0.3714722 0.2402999 0.8968078 0.3714722 0.2402984 0.8968096 0.3714689 0.2402984 0.8968096 0.3714689 0.2402984 0.8968096 0.3714689 -0.2403002 0.8968091 0.3714691 -0.2403002 0.8968091 0.3714691 -0.2403002 0.8968091 0.3714691 -0.240298 0.8968083 0.3714724 -0.240298 0.8968083 0.3714724 -0.240298 0.8968083 0.3714724 -0.6565099 0.65651 0.371469 -0.6565099 0.65651 0.371469 -0.6565099 0.65651 0.371469 -0.65651 0.65651 0.371469 -0.65651 0.65651 0.371469 -0.65651 0.65651 0.371469 -0.896808 0.2402998 0.371472 -0.896808 0.2402998 0.371472 -0.896808 0.2402998 0.371472 -0.8968096 0.2402984 0.371469 -0.8968096 0.2402984 0.371469 -0.8968096 0.2402984 0.371469 -0.7760127 -0.2079311 0.5954569 -0.7760127 -0.2079311 0.5954569 -0.7760127 -0.2079311 0.5954569 -0.7760143 -0.2079341 0.5954537 -0.7760143 -0.2079341 0.5954537 -0.7760143 -0.2079341 0.5954537 -0.5680802 -0.5680802 0.5954575 -0.5680802 -0.5680802 0.5954575 -0.5680802 -0.5680802 0.5954575 -0.5680802 -0.5680802 0.5954575 -0.5680802 -0.5680802 0.5954575 -0.5680802 -0.5680802 0.5954575 -0.2079316 -0.7760148 0.595454 -0.2079316 -0.7760148 0.595454 -0.2079316 -0.7760148 0.595454 -0.2079334 -0.7760118 0.5954572 -0.2079334 -0.7760118 0.5954572 -0.2079334 -0.7760118 0.5954572 0.2079311 -0.7760127 0.5954569 0.2079311 -0.7760127 0.5954569 0.2079311 -0.7760127 0.5954569 0.2079341 -0.7760143 0.5954537 0.2079341 -0.7760143 0.5954537 0.2079341 -0.7760143 0.5954537 0.5680802 -0.5680802 0.5954575 0.5680802 -0.5680802 0.5954575 0.5680802 -0.5680802 0.5954575 0.5680802 -0.5680802 0.5954575 0.5680802 -0.5680802 0.5954575 0.5680802 -0.5680802 0.5954575 0.7760148 -0.2079316 0.595454 0.7760148 -0.2079316 0.595454 0.7760148 -0.2079316 0.595454 0.7760118 -0.2079334 0.5954572 0.7760118 -0.2079334 0.5954572 0.7760118 -0.2079334 0.5954572 0.7760127 0.2079311 0.5954569 0.7760127 0.2079311 0.5954569 0.7760127 0.2079311 0.5954569 0.7760143 0.2079341 0.5954537 0.7760143 0.2079341 0.5954537 0.7760143 0.2079341 0.5954537 0.5680802 0.5680802 0.5954575 0.5680802 0.5680802 0.5954575 0.5680802 0.5680802 0.5954575 0.5680802 0.5680802 0.5954575 0.5680802 0.5680802 0.5954575 0.5680802 0.5680802 0.5954575 0.2079316 0.7760148 0.595454 0.2079316 0.7760148 0.595454 0.2079316 0.7760148 0.595454 0.2079334 0.7760118 0.5954572 0.2079334 0.7760118 0.5954572 0.2079334 0.7760118 0.5954572 -0.2079311 0.7760127 0.5954569 -0.2079311 0.7760127 0.5954569 -0.2079311 0.7760127 0.5954569 -0.2079341 0.7760143 0.5954537 -0.2079341 0.7760143 0.5954537 -0.2079341 0.7760143 0.5954537 -0.5680802 0.5680802 0.5954575 -0.5680802 0.5680802 0.5954575 -0.5680802 0.5680802 0.5954575 -0.5680802 0.5680802 0.5954575 -0.5680802 0.5680802 0.5954575 -0.5680802 0.5680802 0.5954575 -0.7760148 0.2079316 0.595454 -0.7760148 0.2079316 0.595454 -0.7760148 0.2079316 0.595454 -0.7760118 0.2079334 0.5954572 -0.7760118 0.2079334 0.5954572 -0.7760118 0.2079334 0.5954572 -0.6008204 -0.1609907 0.7830051 -0.6008204 -0.1609907 0.7830051 -0.6008204 -0.1609907 0.7830051 -0.6008191 -0.1609883 0.7830065 -0.6008191 -0.1609883 0.7830065 -0.6008191 -0.1609883 0.7830065 -0.4398314 -0.4398314 0.7830049 -0.4398314 -0.4398314 0.7830049 -0.4398314 -0.4398314 0.7830049 -0.4398314 -0.4398314 0.7830049 -0.4398314 -0.4398314 0.7830049 -0.4398314 -0.4398314 0.7830049 -0.1609903 -0.6008189 0.7830063 -0.1609903 -0.6008189 0.7830063 -0.1609903 -0.6008189 0.7830063 -0.1609888 -0.6008212 0.7830048 -0.1609888 -0.6008212 0.7830048 -0.1609888 -0.6008212 0.7830048 0.1609907 -0.6008204 0.7830051 0.1609907 -0.6008204 0.7830051 0.1609907 -0.6008204 0.7830051 0.1609883 -0.6008191 0.7830065 0.1609883 -0.6008191 0.7830065 0.1609883 -0.6008191 0.7830065 0.4398314 -0.4398314 0.7830049 0.4398314 -0.4398314 0.7830049 0.4398314 -0.4398314 0.7830049 0.4398314 -0.4398314 0.7830049 0.4398314 -0.4398314 0.7830049 0.4398314 -0.4398314 0.7830049 0.6008189 -0.1609903 0.7830063 0.6008189 -0.1609903 0.7830063 0.6008189 -0.1609903 0.7830063 0.6008212 -0.1609888 0.7830048 0.6008212 -0.1609888 0.7830048 0.6008212 -0.1609888 0.7830048 0.6008204 0.1609907 0.7830051 0.6008204 0.1609907 0.7830051 0.6008204 0.1609907 0.7830051 0.6008191 0.1609883 0.7830065 0.6008191 0.1609883 0.7830065 0.6008191 0.1609883 0.7830065 0.4398314 0.4398314 0.7830049 0.4398314 0.4398314 0.7830049 0.4398314 0.4398314 0.7830049 0.4398314 0.4398314 0.7830049 0.4398314 0.4398314 0.7830049 0.4398314 0.4398314 0.7830049 0.1609903 0.6008189 0.7830063 0.1609903 0.6008189 0.7830063 0.1609903 0.6008189 0.7830063 0.1609888 0.6008212 0.7830048 0.1609888 0.6008212 0.7830048 0.1609888 0.6008212 0.7830048 -0.1609907 0.6008204 0.7830051 -0.1609907 0.6008204 0.7830051 -0.1609907 0.6008204 0.7830051 -0.1609883 0.6008191 0.7830065 -0.1609883 0.6008191 0.7830065 -0.1609883 0.6008191 0.7830065 -0.4398314 0.4398314 0.7830049 -0.4398314 0.4398314 0.7830049 -0.4398314 0.4398314 0.7830049 -0.4398314 0.4398314 0.7830049 -0.4398314 0.4398314 0.7830049 -0.4398314 0.4398314 0.7830049 -0.6008189 0.1609903 0.7830063 -0.6008189 0.1609903 0.7830063 -0.6008189 0.1609903 0.7830063 -0.6008212 0.1609888 0.7830048 -0.6008212 0.1609888 0.7830048 -0.6008212 0.1609888 0.7830048 -0.3806894 -0.102005 0.9190596 -0.3806894 -0.102005 0.9190596 -0.3806894 -0.102005 0.9190596 -0.3806892 -0.1020045 0.9190598 -0.3806892 -0.1020045 0.9190598 -0.3806892 -0.1020045 0.9190598 -0.278684 -0.278684 0.9190595 -0.278684 -0.278684 0.9190595 -0.278684 -0.278684 0.9190595 -0.278684 -0.278684 0.9190595 -0.278684 -0.278684 0.9190595 -0.278684 -0.278684 0.9190595 -0.1020049 -0.3806891 0.9190597 -0.1020049 -0.3806891 0.9190597 -0.1020049 -0.3806891 0.9190597 -0.1020046 -0.3806896 0.9190596 -0.1020046 -0.3806896 0.9190596 -0.1020046 -0.3806896 0.9190596 0.102005 -0.3806894 0.9190596 0.102005 -0.3806894 0.9190596 0.102005 -0.3806894 0.9190596 0.1020045 -0.3806892 0.9190598 0.1020045 -0.3806892 0.9190598 0.1020045 -0.3806892 0.9190598 0.278684 -0.278684 0.9190595 0.278684 -0.278684 0.9190595 0.278684 -0.278684 0.9190595 0.278684 -0.278684 0.9190595 0.278684 -0.278684 0.9190595 0.278684 -0.278684 0.9190595 0.3806891 -0.1020049 0.9190597 0.3806891 -0.1020049 0.9190597 0.3806891 -0.1020049 0.9190597 0.3806896 -0.1020046 0.9190596 0.3806896 -0.1020046 0.9190596 0.3806896 -0.1020046 0.9190596 0.3806894 0.102005 0.9190596 0.3806894 0.102005 0.9190596 0.3806894 0.102005 0.9190596 0.3806892 0.1020045 0.9190598 0.3806892 0.1020045 0.9190598 0.3806892 0.1020045 0.9190598 0.278684 0.278684 0.9190595 0.278684 0.278684 0.9190595 0.278684 0.278684 0.9190595 0.278684 0.278684 0.9190595 0.278684 0.278684 0.9190595 0.278684 0.278684 0.9190595 0.1020049 0.3806891 0.9190597 0.1020049 0.3806891 0.9190597 0.1020049 0.3806891 0.9190597 0.1020046 0.3806896 0.9190596 0.1020046 0.3806896 0.9190596 0.1020046 0.3806896 0.9190596 -0.102005 0.3806894 0.9190596 -0.102005 0.3806894 0.9190596 -0.102005 0.3806894 0.9190596 -0.1020045 0.3806892 0.9190598 -0.1020045 0.3806892 0.9190598 -0.1020045 0.3806892 0.9190598 -0.278684 0.278684 0.9190595 -0.278684 0.278684 0.9190595 -0.278684 0.278684 0.9190595 -0.278684 0.278684 0.9190595 -0.278684 0.278684 0.9190595 -0.278684 0.278684 0.9190595 -0.3806891 0.1020049 0.9190597 -0.3806891 0.1020049 0.9190597 -0.3806891 0.1020049 0.9190597 -0.3806896 0.1020046 0.9190596 -0.3806896 0.1020046 0.9190596 -0.3806896 0.1020046 0.9190596 -0.1304458 -0.0349525 0.9908391 -0.1304458 -0.0349525 0.9908391 -0.1304458 -0.0349525 0.9908391 1.0 0.0 0.0 1.0 0.0 0.0 -0.0954928 -0.0954928 0.9908392 -0.0954928 -0.0954928 0.9908392 -0.0954928 -0.0954928 0.9908392 1.0 0.0 0.0 1.0 0.0 0.0 -0.0349525 -0.1304458 0.9908391 -0.0349525 -0.1304458 0.9908391 -0.0349525 -0.1304458 0.9908391 1.0 0.0 0.0 1.0 0.0 0.0 0.0349525 -0.1304458 0.9908391 0.0349525 -0.1304458 0.9908391 0.0349525 -0.1304458 0.9908391 1.0 0.0 0.0 1.0 0.0 0.0 0.0954928 -0.0954928 0.9908392 0.0954928 -0.0954928 0.9908392 0.0954928 -0.0954928 0.9908392 1.0 0.0 0.0 1.0 0.0 0.0 0.1304458 -0.0349525 0.9908391 0.1304458 -0.0349525 0.9908391 0.1304458 -0.0349525 0.9908391 1.0 0.0 0.0 1.0 0.0 0.0 0.1304458 0.0349525 0.9908391 0.1304458 0.0349525 0.9908391 0.1304458 0.0349525 0.9908391 1.0 0.0 0.0 1.0 0.0 0.0 0.0954928 0.0954928 0.9908392 0.0954928 0.0954928 0.9908392 0.0954928 0.0954928 0.9908392 1.0 0.0 0.0 1.0 0.0 0.0 0.0349525 0.1304458 0.9908391 0.0349525 0.1304458 0.9908391 0.0349525 0.1304458 0.9908391 1.0 0.0 0.0 1.0 0.0 0.0 -0.0349525 0.1304458 0.9908391 -0.0349525 0.1304458 0.9908391 -0.0349525 0.1304458 0.9908391 1.0 0.0 0.0 1.0 0.0 0.0 -0.0954928 0.0954928 0.9908392 -0.0954928 0.0954928 0.9908392 -0.0954928 0.0954928 0.9908392 1.0 0.0 0.0 1.0 0.0 0.0 -0.1304458 0.0349525 0.9908391 -0.1304458 0.0349525 0.9908391 -0.1304458 0.0349525 0.9908391 1.0 0.0 0.0 1.0 0.0 0.0 1.0 0.0 0.0 1.0 0.0 0.0 -0.1304457 -0.0349525 -0.9908392 -0.1304457 -0.0349525 -0.9908392 -0.1304457 -0.0349525 -0.9908392 1.0 0.0 0.0 1.0 0.0 0.0 -0.0954927 -0.0954927 -0.9908392 -0.0954927 -0.0954927 -0.9908392 -0.0954927 -0.0954927 -0.9908392 1.0 0.0 0.0 1.0 0.0 0.0 -0.0349525 -0.1304457 -0.9908392 -0.0349525 -0.1304457 -0.9908392 -0.0349525 -0.1304457 -0.9908392 1.0 0.0 0.0 1.0 0.0 0.0 0.0349525 -0.1304457 -0.9908392 0.0349525 -0.1304457 -0.9908392 0.0349525 -0.1304457 -0.9908392 1.0 0.0 0.0 1.0 0.0 0.0 0.0954927 -0.0954927 -0.9908392 0.0954927 -0.0954927 -0.9908392 0.0954927 -0.0954927 -0.9908392 1.0 0.0 0.0 1.0 0.0 0.0 0.1304457 -0.0349525 -0.9908392 0.1304457 -0.0349525 -0.9908392 0.1304457 -0.0349525 -0.9908392 1.0 0.0 0.0 1.0 0.0 0.0 0.1304457 0.0349525 -0.9908392 0.1304457 0.0349525 -0.9908392 0.1304457 0.0349525 -0.9908392 1.0 0.0 0.0 1.0 0.0 0.0 0.0954927 0.0954927 -0.9908392 0.0954927 0.0954927 -0.9908392 0.0954927 0.0954927 -0.9908392 1.0 0.0 0.0 1.0 0.0 0.0 0.0349525 0.1304457 -0.9908392 0.0349525 0.1304457 -0.9908392 0.0349525 0.1304457 -0.9908392 1.0 0.0 0.0 1.0 0.0 0.0 -0.0349525 0.1304457 -0.9908392 -0.0349525 0.1304457 -0.9908392 -0.0349525 0.1304457 -0.9908392 1.0 0.0 0.0 1.0 0.0 0.0 -0.0954927 0.0954927 -0.9908392 -0.0954927 0.0954927 -0.9908392 -0.0954927 0.0954927 -0.9908392 1.0 0.0 0.0 1.0 0.0 0.0 -0.1304457 0.0349525 -0.9908392 -0.1304457 0.0349525 -0.9908392 -0.1304457 0.0349525 -0.9908392 -0.3806897 -0.1020046 -0.9190595 -0.3806897 -0.1020046 -0.9190595 -0.3806897 -0.1020046 -0.9190595 -0.3806894 -0.102005 -0.9190596 -0.3806894 -0.102005 -0.9190596 -0.3806894 -0.102005 -0.9190596 -0.2786842 -0.2786842 -0.9190595 -0.2786842 -0.2786842 -0.9190595 -0.2786842 -0.2786842 -0.9190595 -0.2786842 -0.2786842 -0.9190595 -0.2786842 -0.2786842 -0.9190595 -0.2786842 -0.2786842 -0.9190595 -0.1020045 -0.3806894 -0.9190598 -0.1020045 -0.3806894 -0.9190598 -0.1020045 -0.3806894 -0.9190598 -0.102005 -0.3806895 -0.9190595 -0.102005 -0.3806895 -0.9190595 -0.102005 -0.3806895 -0.9190595 0.1020046 -0.3806897 -0.9190595 0.1020046 -0.3806897 -0.9190595 0.1020046 -0.3806897 -0.9190595 0.102005 -0.3806894 -0.9190596 0.102005 -0.3806894 -0.9190596 0.102005 -0.3806894 -0.9190596 0.2786842 -0.2786842 -0.9190595 0.2786842 -0.2786842 -0.9190595 0.2786842 -0.2786842 -0.9190595 0.2786842 -0.2786842 -0.9190595 0.2786842 -0.2786842 -0.9190595 0.2786842 -0.2786842 -0.9190595 0.3806894 -0.1020045 -0.9190598 0.3806894 -0.1020045 -0.9190598 0.3806894 -0.1020045 -0.9190598 0.3806895 -0.102005 -0.9190595 0.3806895 -0.102005 -0.9190595 0.3806895 -0.102005 -0.9190595 0.3806897 0.1020046 -0.9190595 0.3806897 0.1020046 -0.9190595 0.3806897 0.1020046 -0.9190595 0.3806894 0.102005 -0.9190596 0.3806894 0.102005 -0.9190596 0.3806894 0.102005 -0.9190596 0.2786842 0.2786842 -0.9190595 0.2786842 0.2786842 -0.9190595 0.2786842 0.2786842 -0.9190595 0.2786842 0.2786842 -0.9190595 0.2786842 0.2786842 -0.9190595 0.2786842 0.2786842 -0.9190595 0.1020045 0.3806894 -0.9190598 0.1020045 0.3806894 -0.9190598 0.1020045 0.3806894 -0.9190598 0.102005 0.3806895 -0.9190595 0.102005 0.3806895 -0.9190595 0.102005 0.3806895 -0.9190595 -0.1020046 0.3806897 -0.9190595 -0.1020046 0.3806897 -0.9190595 -0.1020046 0.3806897 -0.9190595 -0.102005 0.3806894 -0.9190596 -0.102005 0.3806894 -0.9190596 -0.102005 0.3806894 -0.9190596 -0.2786842 0.2786842 -0.9190595 -0.2786842 0.2786842 -0.9190595 -0.2786842 0.2786842 -0.9190595 -0.2786842 0.2786842 -0.9190595 -0.2786842 0.2786842 -0.9190595 -0.2786842 0.2786842 -0.9190595 -0.3806894 0.1020045 -0.9190598 -0.3806894 0.1020045 -0.9190598 -0.3806894 0.1020045 -0.9190598 -0.3806895 0.102005 -0.9190595 -0.3806895 0.102005 -0.9190595 -0.3806895 0.102005 -0.9190595 -0.6008211 -0.1609888 -0.7830049 -0.6008211 -0.1609888 -0.7830049 -0.6008211 -0.1609888 -0.7830049 -0.6008188 -0.1609902 -0.7830064 -0.6008188 -0.1609902 -0.7830064 -0.6008188 -0.1609902 -0.7830064 -0.4398313 -0.4398313 -0.7830049 -0.4398313 -0.4398313 -0.7830049 -0.4398313 -0.4398313 -0.7830049 -0.4398313 -0.4398313 -0.7830049 -0.4398313 -0.4398313 -0.7830049 -0.4398313 -0.4398313 -0.7830049 -0.1609883 -0.600819 -0.7830066 -0.1609883 -0.600819 -0.7830066 -0.1609883 -0.600819 -0.7830066 -0.1609906 -0.6008204 -0.7830052 -0.1609906 -0.6008204 -0.7830052 -0.1609906 -0.6008204 -0.7830052 0.1609888 -0.6008211 -0.7830049 0.1609888 -0.6008211 -0.7830049 0.1609888 -0.6008211 -0.7830049 0.1609902 -0.6008188 -0.7830064 0.1609902 -0.6008188 -0.7830064 0.1609902 -0.6008188 -0.7830064 0.4398313 -0.4398313 -0.7830049 0.4398313 -0.4398313 -0.7830049 0.4398313 -0.4398313 -0.7830049 0.4398313 -0.4398313 -0.7830049 0.4398313 -0.4398313 -0.7830049 0.4398313 -0.4398313 -0.7830049 0.600819 -0.1609883 -0.7830066 0.600819 -0.1609883 -0.7830066 0.600819 -0.1609883 -0.7830066 0.6008204 -0.1609906 -0.7830052 0.6008204 -0.1609906 -0.7830052 0.6008204 -0.1609906 -0.7830052 0.6008211 0.1609888 -0.7830049 0.6008211 0.1609888 -0.7830049 0.6008211 0.1609888 -0.7830049 0.6008188 0.1609902 -0.7830064 0.6008188 0.1609902 -0.7830064 0.6008188 0.1609902 -0.7830064 0.4398313 0.4398313 -0.7830049 0.4398313 0.4398313 -0.7830049 0.4398313 0.4398313 -0.7830049 0.4398313 0.4398313 -0.7830049 0.4398313 0.4398313 -0.7830049 0.4398313 0.4398313 -0.7830049 0.1609883 0.600819 -0.7830066 0.1609883 0.600819 -0.7830066 0.1609883 0.600819 -0.7830066 0.1609906 0.6008204 -0.7830052 0.1609906 0.6008204 -0.7830052 0.1609906 0.6008204 -0.7830052 -0.1609888 0.6008211 -0.7830049 -0.1609888 0.6008211 -0.7830049 -0.1609888 0.6008211 -0.7830049 -0.1609902 0.6008188 -0.7830064 -0.1609902 0.6008188 -0.7830064 -0.1609902 0.6008188 -0.7830064 -0.4398313 0.4398313 -0.7830049 -0.4398313 0.4398313 -0.7830049 -0.4398313 0.4398313 -0.7830049 -0.4398313 0.4398313 -0.7830049 -0.4398313 0.4398313 -0.7830049 -0.4398313 0.4398313 -0.7830049 -0.600819 0.1609883 -0.7830066 -0.600819 0.1609883 -0.7830066 -0.600819 0.1609883 -0.7830066 -0.6008204 0.1609906 -0.7830052 -0.6008204 0.1609906 -0.7830052 -0.6008204 0.1609906 -0.7830052 -0.7760118 -0.2079334 -0.5954572 -0.7760118 -0.2079334 -0.5954572 -0.7760118 -0.2079334 -0.5954572 -0.7760148 -0.2079316 -0.595454 -0.7760148 -0.2079316 -0.595454 -0.7760148 -0.2079316 -0.595454 -0.5680802 -0.5680802 -0.5954575 -0.5680802 -0.5680802 -0.5954575 -0.5680802 -0.5680802 -0.5954575 -0.5680802 -0.5680802 -0.5954576 -0.5680802 -0.5680802 -0.5954576 -0.5680802 -0.5680802 -0.5954576 -0.2079341 -0.7760143 -0.5954537 -0.2079341 -0.7760143 -0.5954537 -0.2079341 -0.7760143 -0.5954537 -0.2079311 -0.7760127 -0.5954569 -0.2079311 -0.7760127 -0.5954569 -0.2079311 -0.7760127 -0.5954569 0.2079334 -0.7760118 -0.5954572 0.2079334 -0.7760118 -0.5954572 0.2079334 -0.7760118 -0.5954572 0.2079316 -0.7760148 -0.595454 0.2079316 -0.7760148 -0.595454 0.2079316 -0.7760148 -0.595454 0.5680802 -0.5680802 -0.5954575 0.5680802 -0.5680802 -0.5954575 0.5680802 -0.5680802 -0.5954575 0.5680802 -0.5680802 -0.5954576 0.5680802 -0.5680802 -0.5954576 0.5680802 -0.5680802 -0.5954576 0.7760143 -0.2079341 -0.5954537 0.7760143 -0.2079341 -0.5954537 0.7760143 -0.2079341 -0.5954537 0.7760127 -0.2079311 -0.5954569 0.7760127 -0.2079311 -0.5954569 0.7760127 -0.2079311 -0.5954569 0.7760118 0.2079334 -0.5954572 0.7760118 0.2079334 -0.5954572 0.7760118 0.2079334 -0.5954572 0.7760148 0.2079316 -0.595454 0.7760148 0.2079316 -0.595454 0.7760148 0.2079316 -0.595454 0.5680802 0.5680802 -0.5954575 0.5680802 0.5680802 -0.5954575 0.5680802 0.5680802 -0.5954575 0.5680802 0.5680802 -0.5954576 0.5680802 0.5680802 -0.5954576 0.5680802 0.5680802 -0.5954576 0.2079341 0.7760143 -0.5954537 0.2079341 0.7760143 -0.5954537 0.2079341 0.7760143 -0.5954537 0.2079311 0.7760127 -0.5954569 0.2079311 0.7760127 -0.5954569 0.2079311 0.7760127 -0.5954569 -0.2079334 0.7760118 -0.5954572 -0.2079334 0.7760118 -0.5954572 -0.2079334 0.7760118 -0.5954572 -0.2079316 0.7760148 -0.595454 -0.2079316 0.7760148 -0.595454 -0.2079316 0.7760148 -0.595454 -0.5680802 0.5680802 -0.5954575 -0.5680802 0.5680802 -0.5954575 -0.5680802 0.5680802 -0.5954575 -0.5680802 0.5680802 -0.5954576 -0.5680802 0.5680802 -0.5954576 -0.5680802 0.5680802 -0.5954576 -0.7760143 0.2079341 -0.5954537 -0.7760143 0.2079341 -0.5954537 -0.7760143 0.2079341 -0.5954537 -0.7760127 0.2079311 -0.5954569 -0.7760127 0.2079311 -0.5954569 -0.7760127 0.2079311 -0.5954569 -0.8968096 -0.2402983 -0.371469 -0.8968096 -0.2402983 -0.371469 -0.8968096 -0.2402983 -0.371469 -0.896808 -0.2402998 -0.3714721 -0.896808 -0.2402998 -0.3714721 -0.896808 -0.2402998 -0.3714721 -0.65651 -0.65651 -0.3714691 -0.65651 -0.65651 -0.3714691 -0.65651 -0.65651 -0.3714691 -0.6565099 -0.65651 -0.3714692 -0.6565099 -0.65651 -0.3714692 -0.6565099 -0.65651 -0.3714692 -0.240298 -0.8968083 -0.3714725 -0.240298 -0.8968083 -0.3714725 -0.240298 -0.8968083 -0.3714725 -0.2403002 -0.896809 -0.3714691 -0.2403002 -0.896809 -0.3714691 -0.2403002 -0.896809 -0.3714691 0.2402983 -0.8968096 -0.371469 0.2402983 -0.8968096 -0.371469 0.2402983 -0.8968096 -0.371469 0.2402999 -0.8968078 -0.3714723 0.2402999 -0.8968078 -0.3714723 0.2402999 -0.8968078 -0.3714723 0.6565099 -0.6565099 -0.3714691 0.6565099 -0.6565099 -0.3714691 0.6565099 -0.6565099 -0.3714691 0.6565099 -0.6565101 -0.3714691 0.6565099 -0.6565101 -0.3714691 0.6565099 -0.6565101 -0.3714691 0.8968083 -0.240298 -0.3714723 0.8968083 -0.240298 -0.3714723 0.8968083 -0.240298 -0.3714723 0.8968091 -0.2403001 -0.3714692 0.8968091 -0.2403001 -0.3714692 0.8968091 -0.2403001 -0.3714692 0.8968096 0.2402983 -0.371469 0.8968096 0.2402983 -0.371469 0.8968096 0.2402983 -0.371469 0.896808 0.2402998 -0.3714721 0.896808 0.2402998 -0.3714721 0.896808 0.2402998 -0.3714721 0.65651 0.65651 -0.3714691 0.65651 0.65651 -0.3714691 0.65651 0.65651 -0.3714691 0.6565099 0.65651 -0.3714692 0.6565099 0.65651 -0.3714692 0.6565099 0.65651 -0.3714692 0.240298 0.8968083 -0.3714725 0.240298 0.8968083 -0.3714725 0.240298 0.8968083 -0.3714725 0.2403002 0.896809 -0.3714691 0.2403002 0.896809 -0.3714691 0.2403002 0.896809 -0.3714691 -0.2402983 0.8968096 -0.371469 -0.2402983 0.8968096 -0.371469 -0.2402983 0.8968096 -0.371469 -0.2402999 0.8968078 -0.3714723 -0.2402999 0.8968078 -0.3714723 -0.2402999 0.8968078 -0.3714723 -0.6565099 0.6565099 -0.3714691 -0.6565099 0.6565099 -0.3714691 -0.6565099 0.6565099 -0.3714691 -0.6565099 0.6565101 -0.3714691 -0.6565099 0.6565101 -0.3714691 -0.6565099 0.6565101 -0.3714691 -0.8968083 0.240298 -0.3714723 -0.8968083 0.240298 -0.3714723 -0.8968083 0.240298 -0.3714723 -0.8968091 0.2403001 -0.3714692 -0.8968091 0.2403001 -0.3714692 -0.8968091 0.2403001 -0.3714692 -0.958209 -0.2567522 -0.1261502 -0.958209 -0.2567522 -0.1261502 -0.958209 -0.2567522 -0.1261502 -0.958209 -0.2567521 -0.1261501 -0.958209 -0.2567521 -0.1261501 -0.958209 -0.2567521 -0.1261501 -0.7014578 -0.7014579 -0.1261502 -0.7014578 -0.7014579 -0.1261502 -0.7014578 -0.7014579 -0.1261502 -0.7014578 -0.7014578 -0.1261501 -0.7014578 -0.7014578 -0.1261501 -0.7014578 -0.7014578 -0.1261501 -0.2567523 -0.958209 -0.1261498 -0.2567523 -0.958209 -0.1261498 -0.2567523 -0.958209 -0.1261498 -0.2567521 -0.958209 -0.1261502 -0.2567521 -0.958209 -0.1261502 -0.2567521 -0.958209 -0.1261502 0.2567524 -0.958209 -0.1261502 0.2567524 -0.958209 -0.1261502 0.2567524 -0.958209 -0.1261502 0.2567521 -0.958209 -0.1261498 0.2567521 -0.958209 -0.1261498 0.2567521 -0.958209 -0.1261498 0.7014578 -0.7014579 -0.1261501 0.7014578 -0.7014579 -0.1261501 0.7014578 -0.7014579 -0.1261501 0.7014578 -0.7014578 -0.1261502 0.7014578 -0.7014578 -0.1261502 0.7014578 -0.7014578 -0.1261502 0.958209 -0.2567522 -0.1261501 0.958209 -0.2567522 -0.1261501 0.958209 -0.2567522 -0.1261501 0.958209 -0.2567521 -0.1261502 0.958209 -0.2567521 -0.1261502 0.958209 -0.2567521 -0.1261502 0.958209 0.2567522 -0.1261502 0.958209 0.2567522 -0.1261502 0.958209 0.2567522 -0.1261502 0.958209 0.2567521 -0.1261501 0.958209 0.2567521 -0.1261501 0.958209 0.2567521 -0.1261501 0.7014578 0.7014579 -0.1261502 0.7014578 0.7014579 -0.1261502 0.7014578 0.7014579 -0.1261502 0.7014578 0.7014578 -0.1261501 0.7014578 0.7014578 -0.1261501 0.7014578 0.7014578 -0.1261501 0.2567523 0.958209 -0.1261498 0.2567523 0.958209 -0.1261498 0.2567523 0.958209 -0.1261498 0.2567521 0.958209 -0.1261502 0.2567521 0.958209 -0.1261502 0.2567521 0.958209 -0.1261502 -0.2567524 0.958209 -0.1261502 -0.2567524 0.958209 -0.1261502 -0.2567524 0.958209 -0.1261502 -0.2567521 0.958209 -0.1261498 -0.2567521 0.958209 -0.1261498 -0.2567521 0.958209 -0.1261498</float_array>
                    <technique_common>
                        <accessor count="840" source="#geometry0-normal-array" stride="3">
                            <param name="X" type="float"/>
                            <param name="Y" type="float"/>
                            <param name="Z" type="float"/>
                        </accessor>
                    </technique_common>
                </source>
                <vertices id="geometry0-vertex">
                    <input semantic="POSITION" source="#geometry0-position"/>
                </vertices>
                <triangles count="288" material="default_ai_0.2_sh_0.2_tr_0.0_dc_r_0.8_g_0.8_b_0.8_sc_r_1.0_g_1.0_b_1.0_ec_r_0.0_g_0.0_b_0_tri">
                    <input offset="0" semantic="VERTEX" source="#geometry0-vertex"/>
                    <input offset="1" semantic="NORMAL" source="#geometry0-normal"/>
                    <p>59 0 60 1 72 2 59 3 72 4 71 5 60 6 50 7 62 8 60 9 62 10 72 11 62 12 61 13 73 14 62 15 73 16 74 17 61 18 63 19 75 20 61 21 75 22 73 23 63 24 64 25 76 26 63 27 76 28 75 29 64 30 65 31 77 32 64 33 77 34 76 35 65 36 66 37 78 38 65 39 78 40 77 41 66 42 67 43 79 44 66 45 79 46 78 47 67 48 68 49 80 50 67 51 80 52 79 53 68 54 69 55 81 56 68 57 81 58 80 59 69 60 70 61 82 62 69 63 82 64 81 65 70 66 71 67 83 68 70 69 83 70 82 71 71 72 72 73 84 74 71 75 84 76 83 77 72 78 62 79 74 80 72 81 74 82 84 83 74 84 73 85 85 86 74 87 85 88 86 89 73 90 75 91 87 92 73 93 87 94 85 95 75 96 76 97 88 98 75 99 88 100 87 101 76 102 77 103 89 104 76 105 89 106 88 107 77 108 78 109 90 110 77 111 90 112 89 113 78 114 79 115 91 116 78 117 91 118 90 119 79 120 80 121 92 122 79 123 92 124 91 125 80 126 81 127 93 128 80 129 93 130 92 131 81 132 82 133 94 134 81 135 94 136 93 137 82 138 83 139 95 140 82 141 95 142 94 143 83 144 84 145 96 146 83 147 96 148 95 149 84 150 74 151 86 152 84 153 86 154 96 155 86 156 85 157 97 158 86 159 97 160 98 161 85 162 87 163 99 164 85 165 99 166 97 167 87 168 88 169 100 170 87 171 100 172 99 173 88 174 89 175 101 176 88 177 101 178 100 179 89 180 90 181 102 182 89 183 102 184 101 185 90 186 91 187 103 188 90 189 103 190 102 191 91 192 92 193 104 194 91 195 104 196 103 197 92 198 93 199 105 200 92 201 105 202 104 203 93 204 94 205 106 206 93 207 106 208 105 209 94 210 95 211 107 212 94 213 107 214 106 215 95 216 96 217 108 218 95 219 108 220 107 221 96 222 86 223 98 224 96 225 98 226 108 227 98 228 97 229 109 230 98 231 109 232 110 233 97 234 99 235 111 236 97 237 111 238 109 239 99 240 100 241 112 242 99 243 112 244 111 245 100 246 101 247 113 248 100 249 113 250 112 251 101 252 102 253 114 254 101 255 114 256 113 257 102 258 103 259 115 260 102 261 115 262 114 263 103 264 104 265 116 266 103 267 116 268 115 269 104 270 105 271 117 272 104 273 117 274 116 275 105 276 106 277 118 278 105 279 118 280 117 281 106 282 107 283 119 284 106 285 119 286 118 287 107 288 108 289 120 290 107 291 120 292 119 293 108 294 98 295 110 296 108 297 110 298 120 299 110 300 109 301 121 302 110 303 121 304 122 305 109 306 111 307 123 308 109 309 123 310 121 311 111 312 112 313 124 314 111 315 124 316 123 317 112 318 113 319 125 320 112 321 125 322 124 323 113 324 114 325 126 326 113 327 126 328 125 329 114 330 115 331 127 332 114 333 127 334 126 335 115 336 116 337 128 338 115 339 128 340 127 341 116 342 117 343 129 344 116 345 129 346 128 347 117 348 118 349 130 350 117 351 130 352 129 353 118 354 119 355 131 356 118 357 131 358 130 359 119 360 120 361 132 362 119 363 132 364 131 365 120 366 110 367 122 368 120 369 122 370 132 371 122 372 121 373 133 374 122 375 133 376 133 376 121 377 123 378 133 379 121 380 133 381 133 381 123 382 124 383 133 384 123 385 133 386 133 386 124 387 125 388 133 389 124 390 133 391 133 391 125 392 126 393 133 394 125 395 133 396 133 396 126 397 127 398 133 399 126 400 133 401 133 401 127 402 128 403 133 404 127 405 133 406 133 406 128 407 129 408 133 409 128 410 133 411 133 411 129 412 130 413 133 414 129 415 133 416 133 416 130 417 131 418 133 419 130 420 133 421 133 421 131 422 132 423 133 424 131 425 133 426 133 426 132 427 122 428 133 429 132 430 133 431 133 431 0 432 0 432 1 433 0 434 1 435 2 436 0 437 0 437 3 438 0 439 3 440 1 441 0 442 0 442 4 443 0 444 4 445 3 446 0 447 0 447 5 448 0 449 5 450 4 451 0 452 0 452 6 453 0 454 6 455 5 456 0 457 0 457 7 458 0 459 7 460 6 461 0 462 0 462 8 463 0 464 8 465 7 466 0 467 0 467 9 468 0 469 9 470 8 471 0 472 0 472 10 473 0 474 10 475 9 476 0 477 0 477 11 478 0 479 11 480 10 481 0 482 0 482 12 483 0 484 12 485 11 486 0 487 0 487 2 488 0 489 2 490 12 491 2 492 1 493 13 494 2 495 13 496 14 497 1 498 3 499 15 500 1 501 15 502 13 503 3 504 4 505 16 506 3 507 16 508 15 509 4 510 5 511 17 512 4 513 17 514 16 515 5 516 6 517 18 518 5 519 18 520 17 521 6 522 7 523 19 524 6 525 19 526 18 527 7 528 8 529 20 530 7 531 20 532 19 533 8 534 9 535 21 536 8 537 21 538 20 539 9 540 10 541 22 542 9 543 22 544 21 545 10 546 11 547 23 548 10 549 23 550 22 551 11 552 12 553 24 554 11 555 24 556 23 557 12 558 2 559 14 560 12 561 14 562 24 563 14 564 13 565 25 566 14 567 25 568 26 569 13 570 15 571 27 572 13 573 27 574 25 575 15 576 16 577 28 578 15 579 28 580 27 581 16 582 17 583 29 584 16 585 29 586 28 587 17 588 18 589 30 590 17 591 30 592 29 593 18 594 19 595 31 596 18 597 31 598 30 599 19 600 20 601 32 602 19 603 32 604 31 605 20 606 21 607 33 608 20 609 33 610 32 611 21 612 22 613 34 614 21 615 34 616 33 617 22 618 23 619 35 620 22 621 35 622 34 623 23 624 24 625 36 626 23 627 36 628 35 629 24 630 14 631 26 632 24 633 26 634 36 635 26 636 25 637 37 638 26 639 37 640 38 641 25 642 27 643 39 644 25 645 39 646 37 647 27 648 28 649 40 650 27 651 40 652 39 653 28 654 29 655 41 656 28 657 41 658 40 659 29 660 30 661 42 662 29 663 42 664 41 665 30 666 31 667 43 668 30 669 43 670 42 671 31 672 32 673 44 674 31 675 44 676 43 677 32 678 33 679 45 680 32 681 45 682 44 683 33 684 34 685 46 686 33 687 46 688 45 689 34 690 35 691 47 692 34 693 47 694 46 695 35 696 36 697 48 698 35 699 48 700 47 701 36 702 26 703 38 704 36 705 38 706 48 707 38 708 37 709 49 710 38 711 49 712 50 713 37 714 39 715 51 716 37 717 51 718 49 719 39 720 40 721 52 722 39 723 52 724 51 725 40 726 41 727 53 728 40 729 53 730 52 731 41 732 42 733 54 734 41 735 54 736 53 737 42 738 43 739 55 740 42 741 55 742 54 743 43 744 44 745 56 746 43 747 56 748 55 749 44 750 45 751 57 752 44 753 57 754 56 755 45 756 46 757 58 758 45 759 58 760 57 761 46 762 47 763 59 764 46 765 59 766 58 767 47 768 48 769 60 770 47 771 60 772 59 773 48 774 38 775 50 776 48 777 50 778 60 779 50 780 49 781 61 782 50 783 61 784 62 785 49 786 51 787 63 788 49 789 63 790 61 791 51 792 52 793 64 794 51 795 64 796 63 797 52 798 53 799 65 800 52 801 65 802 64 803 53 804 54 805 66 806 53 807 66 808 65 809 54 810 55 811 67 812 54 813 67 814 66 815 55 816 56 817 68 818 55 819 68 820 67 821 56 822 57 823 69 824 56 825 69 826 68 827 57 828 58 829 70 830 57 831 70 832 69 833 58 834 59 835 71 836 58 837 71 838 70 839</p>
                </triangles>
            </mesh>
        </geometry>
    </library_geometries>
    <library_visual_scenes>
        <visual_scene id="Building_108_CROWN2">
            <node>
                <instance_geometry url="#geometry0">
                    <bind_material>
                        <technique_common>
                            <instance_material symbol="default_ai_0.2_sh_0.2_tr_0.0_dc_r_0.8_g_0.8_b_0.8_sc_r_1.0_g_1.0_b_1.0_ec_r_0.0_g_0.0_b_0_tri" target="#default_ai_0.2_sh_0.2_tr_0.0_dc_r_0.8_g_0.8_b_0.8_sc_r_1.0_g_1.0_b_1.0_ec_r_0.0_g_0.0_b_0_mat"/>
                        </technique_common>
                    </bind_material>
                </instance_geometry>
            </node>
        </visual_scene>
    </library_visual_scenes>
    <scene>
        <instance_visual_scene url="#Building_108_CROWN2"/>
    </scene>
</COLLADA>
