<?xml version="1.0" encoding="UTF-8" standalone="yes"?>
<COLLADA xmlns="http://www.collada.org/2005/11/COLLADASchema" version="1.4.1">
    <asset>
        <contributor>
            <authoring_tool>3D City Database Importer/Exporter, version 5.5.3; Chair of Geoinformatics, Technical University of Munich</authoring_tool>
        </contributor>
        <created>2026-09-25T14:45:05.667</created>
        <modified>2026-09-25T14:45:05.667</modified>
        <unit meter="1.0" name="meters"/>
        <up_axis>Z_UP</up_axis>
    </asset>
    <library_materials>
        <material id="default_ai_0.2_sh_0.2_tr_0.0_dc_r_0.8_g_0.8_b_0.8_sc_r_1.0_g_1.0_b_1.0_ec_r_0.0_g_0.0_b_0_mat">
            <instance_effect url="#default_ai_0.2_sh_0.2_tr_0.0_dc_r_0.8_g_0.8_b_0.8_sc_r_1.0_g_1.0_b_1.0_ec_r_0.0_g_0.0_b_0_eff"/>
        </material>
    </library_materials>
    <library_effects>
        <effect id="default_ai_0.2_sh_0.2_tr_0.0_dc_r_0.8_g_0.8_b_0.8_sc_r_1.0_g_1.0_b_1.0_ec_r_0.0_g_0.0_b_0_eff">
            <profile_COMMON>
                <technique sid="COMMON">
                    <lambert>
                        <emission>
                            <color>0.0 0.0 0.0 1.0</color>
                        </emission>
                        <diffuse>
                            <color>0.8 0.8 0.8 1.0</color>
                        </diffuse>
                        <reflective>
                            <color>1.0 1.0 1.0 1.0</color>
                        </reflective>
                        <reflectivity>
                            <float>0.2</float>
                        </reflectivity>
                        <transparent opaque="A_ONE">
                            <color>1.0 1.0 1.0 1.0</color>
                        </transparent>
                        <transparency>
                            <float>1.0</float>
                        </transparency>
                    </lambert>
                </technique>
                <extra>
                    <technique profile="GOOGLEEARTH">
                        <double_sided>0</double_sided>
                    </technique>
                </extra>
            </profile_COMMON>
        </effect>
    </library_effects>
    <library_geometries>
        <geometry id="geometry0">
            <mesh>
                <source id="geometry0-position">
                    <float_array id="geometry0-position-array" count="78">0.0 0.0 0.0 -0.0156744 0.0585 0.0 -0.0156744 0.0585 1.44 0.0 0.0 1.44 -0.0585 0.1013256 0.0 -0.0585 0.1013256 1.44 -0.117 0.117 0.0 -0.117 0.117 1.44 -0.1755 0.1013256 0.0 -0.1755 0.1013256 1.44 -0.2183256 0.0585 0.0 -0.2183256 0.0585 1.44 -0.234 0.0 0.0 -0.234 0.0 1.44 -0.2183256 -0.0585 0.0 -0.2183256 -0.0585 1.44 -0.1755 -0.1013256 0.0 -0.1755 -0.1013256 1.44 -0.117 -0.117 0.0 -0.117 -0.117 1.44 -0.0585 -0.1013256 0.0 -0.0585 -0.1013256 1.44 -0.0156744 -0.0585 0.0 -0.0156744 -0.0585 1.44 -0.117 0.0 0.0 -0.117 0.0 1.44</float_array>
                    <technique_common>
                        <accessor count="26" source="#geometry0-position-array" stride="3">
                            <param name="X" type="float"/>
                            <param name="Y" type="float"/>
                            <param name="Z" type="float"/>
                        </accessor>
                    </technique_common>
                </source>
                <source id="geometry0-normal">
                    <float_array id="geometry0-normal-array" count="432">0.0 0.0 -1.0 0.0 0.0 -1.0 0.0 0.0 -1.0 0.0 0.0 -1.0 0.0 0.0 -1.0 0.0 0.0 -1.0 0.0 0.0 -1.0 0.0 0.0 -1.0 0.0 0.0 -1.0 0.0 0.0 -1.0 0.0 0.0 -1.0 0.0 0.0 -1.0 0.0 0.0 1.0 0.0 0.0 1.0 0.0 0.0 1.0 0.0 0.0 1.0 0.0 0.0 1.0 0.0 0.0 1.0 0.0 0.0 1.0 0.0 0.0 1.0 0.0 0.0 1.0 0.0 0.0 1.0 0.0 0.0 1.0 0.0 0.0 1.0 0.0 0.0 1.0 0.0 0.0 1.0 0.0 0.0 1.0 0.0 0.0 1.0 0.0 0.0 1.0 0.0 0.0 1.0 0.0 0.0 1.0 0.0 0.0 1.0 0.0 0.0 1.0 0.0 0.0 1.0 0.0 0.0 1.0 0.0 0.0 1.0 0.0 0.0 1.0 0.0 0.0 1.0 0.0 0.0 1.0 0.0 0.0 1.0 0.0 0.0 1.0 0.0 0.0 1.0 0.0 0.0 1.0 0.0 0.0 1.0 0.0 0.0 1.0 0.0 0.0 1.0 0.0 0.0 1.0 0.0 0.0 1.0 0.9659285 0.2588094 0.0 0.9659285 0.2588094 0.0 0.9659285 0.2588094 0.0 0.9659285 0.2588094 0.0 0.9659285 0.2588094 0.0 0.9659285 0.2588094 0.0 0.7071068 0.7071068 0.0 0.7071068 0.7071068 0.0 0.7071068 0.7071068 0.0 0.7071068 0.7071068 0.0 0.7071068 0.7071068 0.0 0.7071068 0.7071068 0.0 0.2588094 0.9659285 0.0 0.2588094 0.9659285 0.0 0.2588094 0.9659285 0.0 0.2588094 0.9659285 0.0 0.2588094 0.9659285 0.0 0.2588094 0.9659285 0.0 -0.2588093 0.9659285 0.0 -0.2588093 0.9659285 0.0 -0.2588093 0.9659285 0.0 -0.2588093 0.9659285 0.0 -0.2588093 0.9659285 0.0 -0.2588093 0.9659285 0.0 -0.7071068 0.7071067 0.0 -0.7071068 0.7071067 0.0 -0.7071068 0.7071067 0.0 -0.7071068 0.7071067 0.0 -0.7071068 0.7071067 0.0 -0.7071068 0.7071067 0.0 -0.9659285 0.2588094 0.0 -0.9659285 0.2588094 0.0 -0.9659285 0.2588094 0.0 -0.9659285 0.2588094 0.0 -0.9659285 0.2588094 0.0 -0.9659285 0.2588094 0.0 -0.9659285 -0.2588094 0.0 -0.9659285 -0.2588094 0.0 -0.9659285 -0.2588094 0.0 -0.9659285 -0.2588094 0.0 -0.9659285 -0.2588094 0.0 -0.9659285 -0.2588094 0.0 -0.7071068 -0.7071067 0.0 -0.7071068 -0.7071067 0.0 -0.7071068 -0.7071067 0.0 -0.7071068 -0.7071067 0.0 -0.7071068 -0.7071067 0.0 -0.7071068 -0.7071067 0.0 -0.2588093 -0.9659285 0.0 -0.2588093 -0.9659285 0.0 -0.2588093 -0.9659285 0.0 -0.2588093 -0.9659285 0.0 -0.2588093 -0.9659285 0.0 -0.2588093 -0.9659285 0.0 0.2588094 -0.9659285 0.0 0.2588094 -0.9659285 0.0 0.2588094 -0.9659285 0.0 0.2588094 -0.9659285 0.0 0.2588094 -0.9659285 0.0 0.2588094 -0.9659285 0.0 0.7071068 -0.7071068 0.0 0.7071068 -0.7071068 0.0 0.7071068 -0.7071068 0.0 0.7071068 -0.7071068 0.0 0.7071068 -0.7071068 0.0 0.7071068 -0.7071068 0.0 0.9659285 -0.2588094 0.0 0.9659285 -0.2588094 0.0 0.9659285 -0.2588094 0.0 0.9659285 -0.2588094 0.0 0.9659285 -0.2588094 0.0 0.9659285 -0.2588094 0.0 0.0 0.0 -1.0 0.0 0.0 -1.0 0.0 0.0 -1.0 0.0 0.0 -1.0 0.0 0.0 -1.0 0.0 0.0 -1.0 0.0 0.0 -1.0 0.0 0.0 -1.0 0.0 0.0 -1.0 0.0 0.0 -1.0 0.0 0.0 -1.0 0.0 0.0 -1.0 0.0 0.0 -1.0 0.0 0.0 -1.0 0.0 0.0 -1.0 0.0 0.0 -1.0 0.0 0.0 -1.0 0.0 0.0 -1.0 0.0 0.0 -1.0 0.0 0.0 -1.0 0.0 0.0 -1.0 0.0 0.0 -1.0 0.0 0.0 -1.0 0.0 0.0 -1.0</float_array>
                    <technique_common>
                        <accessor count="144" source="#geometry0-normal-array" stride="3">
                            <param name="X" type="float"/>
                            <param name="Y" type="float"/>
                            <param name="Z" type="float"/>
                        </accessor>
                    </technique_common>
                </source>
                <vertices id="geometry0-vertex">
                    <input semantic="POSITION" source="#geometry0-position"/>
                </vertices>
                <triangles count="48" material="default_ai_0.2_sh_0.2_tr_0.0_dc_r_0.8_g_0.8_b_0.8_sc_r_1.0_g_1.0_b_1.0_ec_r_0.0_g_0.0_b_0_tri">
                    <input offset="0" semantic="VERTEX" source="#geometry0-vertex"/>
                    <input offset="1" semantic="NORMAL" source="#geometry0-normal"/>
                    <p>24 0 18 1 16 2 24 3 20 4 18 5 24 6 22 7 20 8 24 9 0 10 22 11 25 12 3 13 2 14 25 15 2 16 5 17 25 18 5 19 7 20 25 21 7 22 9 23 25 24 9 25 11 26 25 27 11 28 13 29 25 30 13 31 15 32 25 33 15 34 17 35 25 36 17 37 19 38 25 39 19 40 21 41 25 42 21 43 23 44 25 45 23 46 3 47 0 48 1 49 2 50 0 51 2 52 3 53 1 54 4 55 5 56 1 57 5 58 2 59 4 60 6 61 7 62 4 63 7 64 5 65 6 66 8 67 9 68 6 69 9 70 7 71 8 72 10 73 11 74 8 75 11 76 9 77 10 78 12 79 13 80 10 81 13 82 11 83 12 84 14 85 15 86 12 87 15 88 13 89 14 90 16 91 17 92 14 93 17 94 15 95 16 96 18 97 19 98 16 99 19 100 17 101 18 102 20 103 21 104 18 105 21 106 19 107 20 108 22 109 23 110 20 111 23 112 21 113 22 114 0 115 3 116 22 117 3 118 23 119 24 120 1 121 0 122 24 123 4 124 1 125 24 126 6 127 4 128 24 129 8 130 6 131 24 132 10 133 8 134 24 135 12 136 10 137 24 138 14 139 12 140 24 141 16 142 14 143</p>
                </triangles>
            </mesh>
        </geometry>
    </library_geometries>
    <library_visual_scenes>
        <visual_scene id="Building_172_TRUNK2">
            <node>
                <instance_geometry url="#geometry0">
                    <bind_material>
                        <technique_common>
                            <instance_material symbol="default_ai_0.2_sh_0.2_tr_0.0_dc_r_0.8_g_0.8_b_0.8_sc_r_1.0_g_1.0_b_1.0_ec_r_0.0_g_0.0_b_0_tri" target="#default_ai_0.2_sh_0.2_tr_0.0_dc_r_0.8_g_0.8_b_0.8_sc_r_1.0_g_1.0_b_1.0_ec_r_0.0_g_0.0_b_0_mat"/>
                        </technique_common>
                    </bind_material>
                </instance_geometry>
            </node>
        </visual_scene>
    </library_visual_scenes>
    <scene>
        <instance_visual_scene url="#Building_172_TRUNK2"/>
    </scene>
</COLLADA>
