<?xml version="1.0" encoding="UTF-8" standalone="yes"?>
<COLLADA xmlns="http://www.collada.org/2005/11/COLLADASchema" version="1.4.1">
    <asset>
        <contributor>
            <authoring_tool>3D City Database Importer/Exporter, version 5.5.3; Chair of Geoinformatics, Technical University of Munich</authoring_tool>
        </contributor>
        <created>2026-09-25T14:44:41.287</created>
        <modified>2026-09-25T14:44:41.287</modified>
        <unit meter="1.0" name="meters"/>
        <up_axis>Z_UP</up_axis>
    </asset>
    <library_materials>
        <material id="default_ai_0.2_sh_0.2_tr_0.0_dc_r_0.8_g_0.8_b_0.8_sc_r_1.0_g_1.0_b_1.0_ec_r_0.0_g_0.0_b_0_mat">
            <instance_effect url="#default_ai_0.2_sh_0.2_tr_0.0_dc_r_0.8_g_0.8_b_0.8_sc_r_1.0_g_1.0_b_1.0_ec_r_0.0_g_0.0_b_0_eff"/>
        </material>
    </library_materials>
    <library_effects>
        <effect id="default_ai_0.2_sh_0.2_tr_0.0_dc_r_0.8_g_0.8_b_0.8_sc_r_1.0_g_1.0_b_1.0_ec_r_0.0_g_0.0_b_0_eff">
            <profile_COMMON>
                <technique sid="COMMON">
                    <lambert>
                        <emission>
                            <color>0.0 0.0 0.0 1.0</color>
                        </emission>
                        <diffuse>
                            <color>0.8 0.8 0.8 1.0</color>
                        </diffuse>
                        <reflective>
                            <color>1.0 1.0 1.0 1.0</color>
                        </reflective>
                        <reflectivity>
                            <float>0.2</float>
                        </reflectivity>
                        <transparent opaque="A_ONE">
                            <color>1.0 1.0 1.0 1.0</color>
                        </transparent>
                        <transparency>
                            <float>1.0</float>
                        </transparency>
                    </lambert>
                </technique>
                <extra>
                    <technique profile="GOOGLEEARTH">
                        <double_sided>0</double_sided>
                    </technique>
                </extra>
            </profile_COMMON>
        </effect>
    </library_effects>
    <library_geometries>
        <geometry id="geometry0">
            <mesh>
                <source id="geometry0-position">
                    <float_array id="geometry0-position-array" count="402">0.0 0.0 2.8 0.3138016 0.181174 2.7522964 0.3623466 0.0 2.7522964 0.181174 0.3138016 2.7522964 0.0 0.3623466 2.7522964 -0.181174 0.3138016 2.7522964 -0.3138016 0.181174 2.7522964 -0.3623466 0.0 2.7522964 -0.3138016 -0.181174 2.7522964 -0.181174 -0.3138016 2.7522964 0.0 -0.3623466 2.7522964 0.181174 -0.3138016 2.7522964 0.3138016 -0.181174 2.7522964 0.6062182 0.35 2.612435 0.7 0.0 2.612435 0.35 0.6062182 2.612435 0.0 0.7 2.612435 -0.35 0.6062182 2.612435 -0.6062182 0.35 2.612435 -0.7 0.0 2.612435 -0.6062182 -0.35 2.612435 -0.35 -0.6062182 2.612435 0.0 -0.7 2.612435 0.35 -0.6062182 2.612435 0.6062182 -0.35 2.612435 0.8573208 0.4949742 2.3899484 0.9899498 0.0 2.3899484 0.4949742 0.8573208 2.3899484 0.0 0.9899498 2.3899484 -0.4949742 0.8573208 2.3899484 -0.8573208 0.4949742 2.3899484 -0.9899498 0.0 2.3899484 -0.8573208 -0.4949742 2.3899484 -0.4949742 -0.8573208 2.3899484 0.0 -0.9899498 2.3899484 0.4949742 -0.8573208 2.3899484 0.8573208 -0.4949742 2.3899484 1.05 0.6062182 2.1 1.212435 0.0 2.1 0.6062182 1.05 2.1 0.0 1.212435 2.1 -0.6062182 1.05 2.1 -1.05 0.6062182 2.1 -1.212435 0.0 2.1 -1.05 -0.6062182 2.1 -0.6062182 -1.05 2.1 0.0 -1.212435 2.1 0.6062182 -1.05 2.1 1.05 -0.6062182 2.1 1.1711224 0.6761482 1.7623466 1.3522964 0.0 1.7623466 0.6761482 1.1711224 1.7623466 0.0 1.3522964 1.7623466 -0.6761482 1.1711224 1.7623466 -1.1711224 0.6761482 1.7623466 -1.3522964 0.0 1.7623466 -1.1711224 -0.6761482 1.7623466 -0.6761482 -1.1711224 1.7623466 0.0 -1.3522964 1.7623466 0.6761482 -1.1711224 1.7623466 1.1711224 -0.6761482 1.7623466 1.212435 0.7 1.4 1.4 0.0 1.4 0.7 1.212435 1.4 0.0 1.4 1.4 -0.7 1.212435 1.4 -1.212435 0.7 1.4 -1.4 0.0 1.4 -1.212435 -0.7 1.4 -0.7 -1.212435 1.4 0.0 -1.4 1.4 0.7 -1.212435 1.4 1.212435 -0.7 1.4 1.1711224 0.6761482 1.0376534 1.3522964 0.0 1.0376534 0.6761482 1.1711224 1.0376534 0.0 1.3522964 1.0376534 -0.6761482 1.1711224 1.0376534 -1.1711224 0.6761482 1.0376534 -1.3522964 0.0 1.0376534 -1.1711224 -0.6761482 1.0376534 -0.6761482 -1.1711224 1.0376534 0.0 -1.3522964 1.0376534 0.6761482 -1.1711224 1.0376534 1.1711224 -0.6761482 1.0376534 1.05 0.6062182 0.7 1.212435 0.0 0.7 0.6062182 1.05 0.7 0.0 1.212435 0.7 -0.6062182 1.05 0.7 -1.05 0.6062182 0.7 -1.212435 0.0 0.7 -1.05 -0.6062182 0.7 -0.6062182 -1.05 0.7 0.0 -1.212435 0.7 0.6062182 -1.05 0.7 1.05 -0.6062182 0.7 0.8573208 0.4949742 0.4100502 0.9899498 0.0 0.4100502 0.4949742 0.8573208 0.4100502 0.0 0.9899498 0.4100502 -0.4949742 0.8573208 0.4100502 -0.8573208 0.4949742 0.4100502 -0.9899498 0.0 0.4100502 -0.8573208 -0.4949742 0.4100502 -0.4949742 -0.8573208 0.4100502 0.0 -0.9899498 0.4100502 0.4949742 -0.8573208 0.4100502 0.8573208 -0.4949742 0.4100502 0.6062182 0.35 0.1875636 0.7 0.0 0.1875636 0.35 0.6062182 0.1875636 0.0 0.7 0.1875636 -0.35 0.6062182 0.1875636 -0.6062182 0.35 0.1875636 -0.7 0.0 0.1875636 -0.6062182 -0.35 0.1875636 -0.35 -0.6062182 0.1875636 0.0 -0.7 0.1875636 0.35 -0.6062182 0.1875636 0.6062182 -0.35 0.1875636 0.3138016 0.181174 0.0477036 0.3623466 0.0 0.0477036 0.181174 0.3138016 0.0477036 0.0 0.3623466 0.0477036 -0.181174 0.3138016 0.0477036 -0.3138016 0.181174 0.0477036 -0.3623466 0.0 0.0477036 -0.3138016 -0.181174 0.0477036 -0.181174 -0.3138016 0.0477036 0.0 -0.3623466 0.0477036 0.181174 -0.3138016 0.0477036 0.3138016 -0.181174 0.0477036 0.0 0.0 0.0</float_array>
                    <technique_common>
                        <accessor count="134" source="#geometry0-position-array" stride="3">
                            <param name="X" type="float"/>
                            <param name="Y" type="float"/>
                            <param name="Z" type="float"/>
                        </accessor>
                    </technique_common>
                </source>
                <source id="geometry0-normal">
                    <float_array id="geometry0-normal-array" count="2520">-0.6008216 0.1609889 -0.7830045 -0.6008216 0.1609889 -0.7830045 -0.6008216 0.1609889 -0.7830045 -0.6008229 0.1609913 -0.783003 -0.6008229 0.1609913 -0.783003 -0.6008229 0.1609913 -0.783003 -0.7760106 -0.2079331 -0.5954589 -0.7760106 -0.2079331 -0.5954589 -0.7760106 -0.2079331 -0.5954589 -0.7760134 -0.2079314 -0.5954558 -0.7760134 -0.2079314 -0.5954558 -0.7760134 -0.2079314 -0.5954558 -0.5680794 -0.5680794 -0.5954593 -0.5680794 -0.5680794 -0.5954593 -0.5680794 -0.5680794 -0.5954593 -0.5680794 -0.5680794 -0.5954592 -0.5680794 -0.5680794 -0.5954592 -0.5680794 -0.5680794 -0.5954592 -0.2079338 -0.7760131 -0.5954555 -0.2079338 -0.7760131 -0.5954555 -0.2079338 -0.7760131 -0.5954555 -0.2079308 -0.7760114 -0.5954586 -0.2079308 -0.7760114 -0.5954586 -0.2079308 -0.7760114 -0.5954586 0.2079331 -0.7760106 -0.5954589 0.2079331 -0.7760106 -0.5954589 0.2079331 -0.7760106 -0.5954589 0.2079314 -0.7760134 -0.5954558 0.2079314 -0.7760134 -0.5954558 0.2079314 -0.7760134 -0.5954558 0.5680794 -0.5680794 -0.5954593 0.5680794 -0.5680794 -0.5954593 0.5680794 -0.5680794 -0.5954593 0.5680794 -0.5680794 -0.5954592 0.5680794 -0.5680794 -0.5954592 0.5680794 -0.5680794 -0.5954592 0.7760131 -0.2079338 -0.5954555 0.7760131 -0.2079338 -0.5954555 0.7760131 -0.2079338 -0.5954555 0.7760114 -0.2079308 -0.5954586 0.7760114 -0.2079308 -0.5954586 0.7760114 -0.2079308 -0.5954586 0.7760106 0.2079331 -0.5954589 0.7760106 0.2079331 -0.5954589 0.7760106 0.2079331 -0.5954589 0.7760134 0.2079314 -0.5954558 0.7760134 0.2079314 -0.5954558 0.7760134 0.2079314 -0.5954558 0.5680794 0.5680794 -0.5954593 0.5680794 0.5680794 -0.5954593 0.5680794 0.5680794 -0.5954593 0.5680794 0.5680794 -0.5954592 0.5680794 0.5680794 -0.5954592 0.5680794 0.5680794 -0.5954592 0.2079338 0.7760131 -0.5954555 0.2079338 0.7760131 -0.5954555 0.2079338 0.7760131 -0.5954555 0.2079308 0.7760114 -0.5954586 0.2079308 0.7760114 -0.5954586 0.2079308 0.7760114 -0.5954586 -0.2079331 0.7760106 -0.5954589 -0.2079331 0.7760106 -0.5954589 -0.2079331 0.7760106 -0.5954589 -0.2079314 0.7760134 -0.5954558 -0.2079314 0.7760134 -0.5954558 -0.2079314 0.7760134 -0.5954558 -0.5680794 0.5680794 -0.5954593 -0.5680794 0.5680794 -0.5954593 -0.5680794 0.5680794 -0.5954593 -0.5680794 0.5680794 -0.5954592 -0.5680794 0.5680794 -0.5954592 -0.5680794 0.5680794 -0.5954592 -0.7760131 0.2079338 -0.5954555 -0.7760131 0.2079338 -0.5954555 -0.7760131 0.2079338 -0.5954555 -0.7760114 0.2079308 -0.5954586 -0.7760114 0.2079308 -0.5954586 -0.7760114 0.2079308 -0.5954586 -0.8968095 -0.2402985 -0.3714693 -0.8968095 -0.2402985 -0.3714693 -0.8968095 -0.2402985 -0.3714693 -0.896808 -0.2402997 -0.3714721 -0.896808 -0.2402997 -0.3714721 -0.896808 -0.2402997 -0.3714721 -0.6565099 -0.6565099 -0.3714693 -0.6565099 -0.6565099 -0.3714693 -0.6565099 -0.6565099 -0.3714693 -0.6565099 -0.6565099 -0.3714693 -0.6565099 -0.6565099 -0.3714693 -0.6565099 -0.6565099 -0.3714693 -0.2402982 -0.8968083 -0.3714722 -0.2402982 -0.8968083 -0.3714722 -0.2402982 -0.8968083 -0.3714722 -0.2403 -0.896809 -0.3714695 -0.2403 -0.896809 -0.3714695 -0.2403 -0.896809 -0.3714695 0.2402985 -0.8968095 -0.3714693 0.2402985 -0.8968095 -0.3714693 0.2402985 -0.8968095 -0.3714693 0.2402997 -0.896808 -0.3714721 0.2402997 -0.896808 -0.3714721 0.2402997 -0.896808 -0.3714721 0.6565099 -0.6565099 -0.3714693 0.6565099 -0.6565099 -0.3714693 0.6565099 -0.6565099 -0.3714693 0.6565099 -0.6565099 -0.3714693 0.6565099 -0.6565099 -0.3714693 0.6565099 -0.6565099 -0.3714693 0.8968083 -0.2402982 -0.3714722 0.8968083 -0.2402982 -0.3714722 0.8968083 -0.2402982 -0.3714722 0.896809 -0.2403 -0.3714695 0.896809 -0.2403 -0.3714695 0.896809 -0.2403 -0.3714695 0.8968095 0.2402985 -0.3714693 0.8968095 0.2402985 -0.3714693 0.8968095 0.2402985 -0.3714693 0.896808 0.2402997 -0.3714721 0.896808 0.2402997 -0.3714721 0.896808 0.2402997 -0.3714721 0.6565099 0.6565099 -0.3714693 0.6565099 0.6565099 -0.3714693 0.6565099 0.6565099 -0.3714693 0.6565099 0.6565099 -0.3714693 0.6565099 0.6565099 -0.3714693 0.6565099 0.6565099 -0.3714693 0.2402982 0.8968083 -0.3714722 0.2402982 0.8968083 -0.3714722 0.2402982 0.8968083 -0.3714722 0.2403 0.896809 -0.3714695 0.2403 0.896809 -0.3714695 0.2403 0.896809 -0.3714695 -0.2402985 0.8968095 -0.3714693 -0.2402985 0.8968095 -0.3714693 -0.2402985 0.8968095 -0.3714693 -0.2402997 0.896808 -0.3714721 -0.2402997 0.896808 -0.3714721 -0.2402997 0.896808 -0.3714721 -0.6565099 0.6565099 -0.3714693 -0.6565099 0.6565099 -0.3714693 -0.6565099 0.6565099 -0.3714693 -0.6565099 0.6565099 -0.3714693 -0.6565099 0.6565099 -0.3714693 -0.6565099 0.6565099 -0.3714693 -0.8968083 0.2402982 -0.3714722 -0.8968083 0.2402982 -0.3714722 -0.8968083 0.2402982 -0.3714722 -0.896809 0.2403 -0.3714695 -0.896809 0.2403 -0.3714695 -0.896809 0.2403 -0.3714695 -0.958209 -0.2567521 -0.1261501 -0.958209 -0.2567521 -0.1261501 -0.958209 -0.2567521 -0.1261501 -0.958209 -0.2567521 -0.12615 -0.958209 -0.2567521 -0.12615 -0.958209 -0.2567521 -0.12615 -0.7014578 -0.7014578 -0.1261501 -0.7014578 -0.7014578 -0.1261501 -0.7014578 -0.7014578 -0.1261501 -0.7014578 -0.7014578 -0.1261501 -0.7014578 -0.7014578 -0.1261501 -0.7014578 -0.7014578 -0.1261501 -0.2567521 -0.958209 -0.12615 -0.2567521 -0.958209 -0.12615 -0.2567521 -0.958209 -0.12615 -0.2567521 -0.958209 -0.1261501 -0.2567521 -0.958209 -0.1261501 -0.2567521 -0.958209 -0.1261501 0.2567521 -0.958209 -0.1261501 0.2567521 -0.958209 -0.1261501 0.2567521 -0.958209 -0.1261501 0.2567521 -0.958209 -0.12615 0.2567521 -0.958209 -0.12615 0.2567521 -0.958209 -0.12615 0.7014578 -0.7014578 -0.1261501 0.7014578 -0.7014578 -0.1261501 0.7014578 -0.7014578 -0.1261501 0.7014578 -0.7014578 -0.1261501 0.7014578 -0.7014578 -0.1261501 0.7014578 -0.7014578 -0.1261501 0.958209 -0.2567521 -0.12615 0.958209 -0.2567521 -0.12615 0.958209 -0.2567521 -0.12615 0.958209 -0.2567521 -0.1261501 0.958209 -0.2567521 -0.1261501 0.958209 -0.2567521 -0.1261501 0.958209 0.2567521 -0.1261501 0.958209 0.2567521 -0.1261501 0.958209 0.2567521 -0.1261501 0.958209 0.2567521 -0.12615 0.958209 0.2567521 -0.12615 0.958209 0.2567521 -0.12615 0.7014578 0.7014578 -0.1261501 0.7014578 0.7014578 -0.1261501 0.7014578 0.7014578 -0.1261501 0.7014578 0.7014578 -0.1261501 0.7014578 0.7014578 -0.1261501 0.7014578 0.7014578 -0.1261501 0.2567521 0.958209 -0.12615 0.2567521 0.958209 -0.12615 0.2567521 0.958209 -0.12615 0.2567521 0.958209 -0.1261501 0.2567521 0.958209 -0.1261501 0.2567521 0.958209 -0.1261501 -0.2567521 0.958209 -0.1261501 -0.2567521 0.958209 -0.1261501 -0.2567521 0.958209 -0.1261501 -0.2567521 0.958209 -0.12615 -0.2567521 0.958209 -0.12615 -0.2567521 0.958209 -0.12615 -0.7014578 0.7014578 -0.1261501 -0.7014578 0.7014578 -0.1261501 -0.7014578 0.7014578 -0.1261501 -0.7014578 0.7014578 -0.1261501 -0.7014578 0.7014578 -0.1261501 -0.7014578 0.7014578 -0.1261501 -0.958209 0.2567521 -0.12615 -0.958209 0.2567521 -0.12615 -0.958209 0.2567521 -0.12615 -0.958209 0.2567521 -0.1261501 -0.958209 0.2567521 -0.1261501 -0.958209 0.2567521 -0.1261501 -0.9582091 -0.2567521 0.1261502 -0.9582091 -0.2567521 0.1261502 -0.9582091 -0.2567521 0.1261502 -0.958209 -0.2567521 0.12615 -0.958209 -0.2567521 0.12615 -0.958209 -0.2567521 0.12615 -0.7014578 -0.7014578 0.1261501 -0.7014578 -0.7014578 0.1261501 -0.7014578 -0.7014578 0.1261501 -0.7014578 -0.7014578 0.1261502 -0.7014578 -0.7014578 0.1261502 -0.7014578 -0.7014578 0.1261502 -0.2567521 -0.9582091 0.1261501 -0.2567521 -0.9582091 0.1261501 -0.2567521 -0.9582091 0.1261501 -0.2567521 -0.958209 0.1261502 -0.2567521 -0.958209 0.1261502 -0.2567521 -0.958209 0.1261502 0.2567521 -0.9582091 0.1261502 0.2567521 -0.9582091 0.1261502 0.2567521 -0.9582091 0.1261502 0.2567521 -0.958209 0.12615 0.2567521 -0.958209 0.12615 0.2567521 -0.958209 0.12615 0.7014578 -0.7014578 0.1261501 0.7014578 -0.7014578 0.1261501 0.7014578 -0.7014578 0.1261501 0.7014578 -0.7014578 0.1261502 0.7014578 -0.7014578 0.1261502 0.7014578 -0.7014578 0.1261502 0.9582091 -0.2567521 0.1261501 0.9582091 -0.2567521 0.1261501 0.9582091 -0.2567521 0.1261501 0.958209 -0.2567521 0.1261502 0.958209 -0.2567521 0.1261502 0.958209 -0.2567521 0.1261502 0.9582091 0.2567521 0.1261502 0.9582091 0.2567521 0.1261502 0.9582091 0.2567521 0.1261502 0.958209 0.2567521 0.12615 0.958209 0.2567521 0.12615 0.958209 0.2567521 0.12615 0.7014578 0.7014578 0.1261501 0.7014578 0.7014578 0.1261501 0.7014578 0.7014578 0.1261501 0.7014578 0.7014578 0.1261502 0.7014578 0.7014578 0.1261502 0.7014578 0.7014578 0.1261502 0.2567521 0.9582091 0.1261501 0.2567521 0.9582091 0.1261501 0.2567521 0.9582091 0.1261501 0.2567521 0.958209 0.1261502 0.2567521 0.958209 0.1261502 0.2567521 0.958209 0.1261502 -0.2567521 0.9582091 0.1261502 -0.2567521 0.9582091 0.1261502 -0.2567521 0.9582091 0.1261502 -0.2567521 0.958209 0.12615 -0.2567521 0.958209 0.12615 -0.2567521 0.958209 0.12615 -0.7014578 0.7014578 0.1261501 -0.7014578 0.7014578 0.1261501 -0.7014578 0.7014578 0.1261501 -0.7014578 0.7014578 0.1261502 -0.7014578 0.7014578 0.1261502 -0.7014578 0.7014578 0.1261502 -0.9582091 0.2567521 0.1261501 -0.9582091 0.2567521 0.1261501 -0.9582091 0.2567521 0.1261501 -0.958209 0.2567521 0.1261502 -0.958209 0.2567521 0.1261502 -0.958209 0.2567521 0.1261502 -0.8968091 -0.2403 0.3714693 -0.8968091 -0.2403 0.3714693 -0.8968091 -0.2403 0.3714693 -0.8968084 -0.2402982 0.3714721 -0.8968084 -0.2402982 0.3714721 -0.8968084 -0.2402982 0.3714721 -0.65651 -0.65651 0.3714691 -0.65651 -0.65651 0.3714691 -0.65651 -0.65651 0.3714691 -0.6565099 -0.6565099 0.3714692 -0.6565099 -0.6565099 0.3714692 -0.6565099 -0.6565099 0.3714692 -0.2402997 -0.896808 0.3714719 -0.2402997 -0.896808 0.3714719 -0.2402997 -0.896808 0.3714719 -0.2402984 -0.8968095 0.3714692 -0.2402984 -0.8968095 0.3714692 -0.2402984 -0.8968095 0.3714692 0.2403 -0.8968091 0.3714693 0.2403 -0.8968091 0.3714693 0.2403 -0.8968091 0.3714693 0.2402982 -0.8968084 0.3714721 0.2402982 -0.8968084 0.3714721 0.2402982 -0.8968084 0.3714721 0.65651 -0.65651 0.3714691 0.65651 -0.65651 0.3714691 0.65651 -0.65651 0.3714691 0.6565099 -0.6565099 0.3714692 0.6565099 -0.6565099 0.3714692 0.6565099 -0.6565099 0.3714692 0.896808 -0.2402997 0.3714719 0.896808 -0.2402997 0.3714719 0.896808 -0.2402997 0.3714719 0.8968095 -0.2402984 0.3714692 0.8968095 -0.2402984 0.3714692 0.8968095 -0.2402984 0.3714692 0.8968091 0.2403 0.3714693 0.8968091 0.2403 0.3714693 0.8968091 0.2403 0.3714693 0.8968084 0.2402982 0.3714721 0.8968084 0.2402982 0.3714721 0.8968084 0.2402982 0.3714721 0.65651 0.65651 0.3714691 0.65651 0.65651 0.3714691 0.65651 0.65651 0.3714691 0.6565099 0.6565099 0.3714692 0.6565099 0.6565099 0.3714692 0.6565099 0.6565099 0.3714692 0.2402997 0.896808 0.3714719 0.2402997 0.896808 0.3714719 0.2402997 0.896808 0.3714719 0.2402984 0.8968095 0.3714692 0.2402984 0.8968095 0.3714692 0.2402984 0.8968095 0.3714692 -0.2403 0.8968091 0.3714693 -0.2403 0.8968091 0.3714693 -0.2403 0.8968091 0.3714693 -0.2402982 0.8968084 0.3714721 -0.2402982 0.8968084 0.3714721 -0.2402982 0.8968084 0.3714721 -0.65651 0.65651 0.3714691 -0.65651 0.65651 0.3714691 -0.65651 0.65651 0.3714691 -0.6565099 0.6565099 0.3714692 -0.6565099 0.6565099 0.3714692 -0.6565099 0.6565099 0.3714692 -0.896808 0.2402997 0.3714719 -0.896808 0.2402997 0.3714719 -0.896808 0.2402997 0.3714719 -0.8968095 0.2402984 0.3714692 -0.8968095 0.2402984 0.3714692 -0.8968095 0.2402984 0.3714692 -0.7760127 -0.2079312 0.5954569 -0.7760127 -0.2079312 0.5954569 -0.7760127 -0.2079312 0.5954569 -0.7760144 -0.2079342 0.5954537 -0.7760144 -0.2079342 0.5954537 -0.7760144 -0.2079342 0.5954537 -0.5680802 -0.5680802 0.5954575 -0.5680802 -0.5680802 0.5954575 -0.5680802 -0.5680802 0.5954575 -0.5680802 -0.5680802 0.5954575 -0.5680802 -0.5680802 0.5954575 -0.5680802 -0.5680802 0.5954575 -0.2079317 -0.7760147 0.595454 -0.2079317 -0.7760147 0.595454 -0.2079317 -0.7760147 0.595454 -0.2079335 -0.7760119 0.5954572 -0.2079335 -0.7760119 0.5954572 -0.2079335 -0.7760119 0.5954572 0.2079312 -0.7760127 0.5954569 0.2079312 -0.7760127 0.5954569 0.2079312 -0.7760127 0.5954569 0.2079342 -0.7760144 0.5954537 0.2079342 -0.7760144 0.5954537 0.2079342 -0.7760144 0.5954537 0.5680802 -0.5680802 0.5954575 0.5680802 -0.5680802 0.5954575 0.5680802 -0.5680802 0.5954575 0.5680802 -0.5680802 0.5954575 0.5680802 -0.5680802 0.5954575 0.5680802 -0.5680802 0.5954575 0.7760147 -0.2079317 0.595454 0.7760147 -0.2079317 0.595454 0.7760147 -0.2079317 0.595454 0.7760119 -0.2079335 0.5954572 0.7760119 -0.2079335 0.5954572 0.7760119 -0.2079335 0.5954572 0.7760127 0.2079312 0.5954569 0.7760127 0.2079312 0.5954569 0.7760127 0.2079312 0.5954569 0.7760144 0.2079342 0.5954537 0.7760144 0.2079342 0.5954537 0.7760144 0.2079342 0.5954537 0.5680802 0.5680802 0.5954575 0.5680802 0.5680802 0.5954575 0.5680802 0.5680802 0.5954575 0.5680802 0.5680802 0.5954575 0.5680802 0.5680802 0.5954575 0.5680802 0.5680802 0.5954575 0.2079317 0.7760147 0.595454 0.2079317 0.7760147 0.595454 0.2079317 0.7760147 0.595454 0.2079335 0.7760119 0.5954572 0.2079335 0.7760119 0.5954572 0.2079335 0.7760119 0.5954572 -0.2079312 0.7760127 0.5954569 -0.2079312 0.7760127 0.5954569 -0.2079312 0.7760127 0.5954569 -0.2079342 0.7760144 0.5954537 -0.2079342 0.7760144 0.5954537 -0.2079342 0.7760144 0.5954537 -0.5680802 0.5680802 0.5954575 -0.5680802 0.5680802 0.5954575 -0.5680802 0.5680802 0.5954575 -0.5680802 0.5680802 0.5954575 -0.5680802 0.5680802 0.5954575 -0.5680802 0.5680802 0.5954575 -0.7760147 0.2079317 0.595454 -0.7760147 0.2079317 0.595454 -0.7760147 0.2079317 0.595454 -0.7760119 0.2079335 0.5954572 -0.7760119 0.2079335 0.5954572 -0.7760119 0.2079335 0.5954572 -0.6008227 -0.1609913 0.7830031 -0.6008227 -0.1609913 0.7830031 -0.6008227 -0.1609913 0.7830031 -0.6008214 -0.1609889 0.7830047 -0.6008214 -0.1609889 0.7830047 -0.6008214 -0.1609889 0.7830047 -0.4398332 -0.4398332 0.783003 -0.4398332 -0.4398332 0.783003 -0.4398332 -0.4398332 0.783003 -0.4398331 -0.4398331 0.7830029 -0.4398331 -0.4398331 0.7830029 -0.4398331 -0.4398331 0.7830029 -0.1609909 -0.6008211 0.7830043 -0.1609909 -0.6008211 0.7830043 -0.1609909 -0.6008211 0.7830043 -0.1609894 -0.6008236 0.7830029 -0.1609894 -0.6008236 0.7830029 -0.1609894 -0.6008236 0.7830029 0.1609913 -0.6008227 0.7830031 0.1609913 -0.6008227 0.7830031 0.1609913 -0.6008227 0.7830031 0.1609889 -0.6008214 0.7830047 0.1609889 -0.6008214 0.7830047 0.1609889 -0.6008214 0.7830047 0.4398332 -0.4398332 0.783003 0.4398332 -0.4398332 0.783003 0.4398332 -0.4398332 0.783003 0.4398331 -0.4398331 0.7830029 0.4398331 -0.4398331 0.7830029 0.4398331 -0.4398331 0.7830029 0.6008211 -0.1609909 0.7830043 0.6008211 -0.1609909 0.7830043 0.6008211 -0.1609909 0.7830043 0.6008236 -0.1609894 0.7830029 0.6008236 -0.1609894 0.7830029 0.6008236 -0.1609894 0.7830029 0.6008227 0.1609913 0.7830031 0.6008227 0.1609913 0.7830031 0.6008227 0.1609913 0.7830031 0.6008214 0.1609889 0.7830047 0.6008214 0.1609889 0.7830047 0.6008214 0.1609889 0.7830047 0.4398332 0.4398332 0.783003 0.4398332 0.4398332 0.783003 0.4398332 0.4398332 0.783003 0.4398331 0.4398331 0.7830029 0.4398331 0.4398331 0.7830029 0.4398331 0.4398331 0.7830029 0.1609909 0.6008211 0.7830043 0.1609909 0.6008211 0.7830043 0.1609909 0.6008211 0.7830043 0.1609894 0.6008236 0.7830029 0.1609894 0.6008236 0.7830029 0.1609894 0.6008236 0.7830029 -0.1609913 0.6008227 0.7830031 -0.1609913 0.6008227 0.7830031 -0.1609913 0.6008227 0.7830031 -0.1609889 0.6008214 0.7830047 -0.1609889 0.6008214 0.7830047 -0.1609889 0.6008214 0.7830047 -0.4398332 0.4398332 0.783003 -0.4398332 0.4398332 0.783003 -0.4398332 0.4398332 0.783003 -0.4398331 0.4398331 0.7830029 -0.4398331 0.4398331 0.7830029 -0.4398331 0.4398331 0.7830029 -0.6008211 0.1609909 0.7830043 -0.6008211 0.1609909 0.7830043 -0.6008211 0.1609909 0.7830043 -0.6008236 0.1609894 0.7830029 -0.6008236 0.1609894 0.7830029 -0.6008236 0.1609894 0.7830029 -0.3806861 -0.102004 0.9190611 -0.3806861 -0.102004 0.9190611 -0.3806861 -0.102004 0.9190611 -0.3806859 -0.1020036 0.9190612 -0.3806859 -0.1020036 0.9190612 -0.3806859 -0.1020036 0.9190612 -0.2786817 -0.2786817 0.9190609 -0.2786817 -0.2786817 0.9190609 -0.2786817 -0.2786817 0.9190609 -0.2786817 -0.2786817 0.9190609 -0.2786817 -0.2786817 0.9190609 -0.2786817 -0.2786817 0.9190609 -0.102004 -0.3806859 0.9190612 -0.102004 -0.3806859 0.9190612 -0.102004 -0.3806859 0.9190612 -0.1020037 -0.3806863 0.919061 -0.1020037 -0.3806863 0.919061 -0.1020037 -0.3806863 0.919061 0.102004 -0.3806861 0.9190611 0.102004 -0.3806861 0.9190611 0.102004 -0.3806861 0.9190611 0.1020036 -0.3806859 0.9190612 0.1020036 -0.3806859 0.9190612 0.1020036 -0.3806859 0.9190612 0.2786817 -0.2786817 0.9190609 0.2786817 -0.2786817 0.9190609 0.2786817 -0.2786817 0.9190609 0.2786817 -0.2786817 0.9190609 0.2786817 -0.2786817 0.9190609 0.2786817 -0.2786817 0.9190609 0.3806859 -0.102004 0.9190612 0.3806859 -0.102004 0.9190612 0.3806859 -0.102004 0.9190612 0.3806863 -0.1020037 0.919061 0.3806863 -0.1020037 0.919061 0.3806863 -0.1020037 0.919061 0.3806861 0.102004 0.9190611 0.3806861 0.102004 0.9190611 0.3806861 0.102004 0.9190611 0.3806859 0.1020036 0.9190612 0.3806859 0.1020036 0.9190612 0.3806859 0.1020036 0.9190612 0.2786817 0.2786817 0.9190609 0.2786817 0.2786817 0.9190609 0.2786817 0.2786817 0.9190609 0.2786817 0.2786817 0.9190609 0.2786817 0.2786817 0.9190609 0.2786817 0.2786817 0.9190609 0.102004 0.3806859 0.9190612 0.102004 0.3806859 0.9190612 0.102004 0.3806859 0.9190612 0.1020037 0.3806863 0.919061 0.1020037 0.3806863 0.919061 0.1020037 0.3806863 0.919061 -0.102004 0.3806861 0.9190611 -0.102004 0.3806861 0.9190611 -0.102004 0.3806861 0.9190611 -0.1020036 0.3806859 0.9190612 -0.1020036 0.3806859 0.9190612 -0.1020036 0.3806859 0.9190612 -0.2786817 0.2786817 0.9190609 -0.2786817 0.2786817 0.9190609 -0.2786817 0.2786817 0.9190609 -0.2786817 0.2786817 0.9190609 -0.2786817 0.2786817 0.9190609 -0.2786817 0.2786817 0.9190609 -0.3806859 0.102004 0.9190612 -0.3806859 0.102004 0.9190612 -0.3806859 0.102004 0.9190612 -0.3806863 0.1020037 0.919061 -0.3806863 0.1020037 0.919061 -0.3806863 0.1020037 0.919061 -0.1304458 -0.0349525 0.9908391 -0.1304458 -0.0349525 0.9908391 -0.1304458 -0.0349525 0.9908391 1.0 0.0 0.0 1.0 0.0 0.0 -0.0954928 -0.0954928 0.9908392 -0.0954928 -0.0954928 0.9908392 -0.0954928 -0.0954928 0.9908392 1.0 0.0 0.0 1.0 0.0 0.0 -0.0349525 -0.1304458 0.9908391 -0.0349525 -0.1304458 0.9908391 -0.0349525 -0.1304458 0.9908391 1.0 0.0 0.0 1.0 0.0 0.0 0.0349525 -0.1304458 0.9908391 0.0349525 -0.1304458 0.9908391 0.0349525 -0.1304458 0.9908391 1.0 0.0 0.0 1.0 0.0 0.0 0.0954928 -0.0954928 0.9908392 0.0954928 -0.0954928 0.9908392 0.0954928 -0.0954928 0.9908392 1.0 0.0 0.0 1.0 0.0 0.0 0.1304458 -0.0349525 0.9908391 0.1304458 -0.0349525 0.9908391 0.1304458 -0.0349525 0.9908391 1.0 0.0 0.0 1.0 0.0 0.0 0.1304458 0.0349525 0.9908391 0.1304458 0.0349525 0.9908391 0.1304458 0.0349525 0.9908391 1.0 0.0 0.0 1.0 0.0 0.0 0.0954928 0.0954928 0.9908392 0.0954928 0.0954928 0.9908392 0.0954928 0.0954928 0.9908392 1.0 0.0 0.0 1.0 0.0 0.0 0.0349525 0.1304458 0.9908391 0.0349525 0.1304458 0.9908391 0.0349525 0.1304458 0.9908391 1.0 0.0 0.0 1.0 0.0 0.0 -0.0349525 0.1304458 0.9908391 -0.0349525 0.1304458 0.9908391 -0.0349525 0.1304458 0.9908391 1.0 0.0 0.0 1.0 0.0 0.0 -0.0954928 0.0954928 0.9908392 -0.0954928 0.0954928 0.9908392 -0.0954928 0.0954928 0.9908392 1.0 0.0 0.0 1.0 0.0 0.0 -0.1304458 0.0349525 0.9908391 -0.1304458 0.0349525 0.9908391 -0.1304458 0.0349525 0.9908391 1.0 0.0 0.0 1.0 0.0 0.0 1.0 0.0 0.0 1.0 0.0 0.0 -0.1304456 -0.0349525 -0.9908392 -0.1304456 -0.0349525 -0.9908392 -0.1304456 -0.0349525 -0.9908392 1.0 0.0 0.0 1.0 0.0 0.0 -0.0954926 -0.0954926 -0.9908392 -0.0954926 -0.0954926 -0.9908392 -0.0954926 -0.0954926 -0.9908392 1.0 0.0 0.0 1.0 0.0 0.0 -0.0349525 -0.1304456 -0.9908392 -0.0349525 -0.1304456 -0.9908392 -0.0349525 -0.1304456 -0.9908392 1.0 0.0 0.0 1.0 0.0 0.0 0.0349525 -0.1304456 -0.9908392 0.0349525 -0.1304456 -0.9908392 0.0349525 -0.1304456 -0.9908392 1.0 0.0 0.0 1.0 0.0 0.0 0.0954926 -0.0954926 -0.9908392 0.0954926 -0.0954926 -0.9908392 0.0954926 -0.0954926 -0.9908392 1.0 0.0 0.0 1.0 0.0 0.0 0.1304456 -0.0349525 -0.9908392 0.1304456 -0.0349525 -0.9908392 0.1304456 -0.0349525 -0.9908392 1.0 0.0 0.0 1.0 0.0 0.0 0.1304456 0.0349525 -0.9908392 0.1304456 0.0349525 -0.9908392 0.1304456 0.0349525 -0.9908392 1.0 0.0 0.0 1.0 0.0 0.0 0.0954926 0.0954926 -0.9908392 0.0954926 0.0954926 -0.9908392 0.0954926 0.0954926 -0.9908392 1.0 0.0 0.0 1.0 0.0 0.0 0.0349525 0.1304456 -0.9908392 0.0349525 0.1304456 -0.9908392 0.0349525 0.1304456 -0.9908392 1.0 0.0 0.0 1.0 0.0 0.0 -0.0349525 0.1304456 -0.9908392 -0.0349525 0.1304456 -0.9908392 -0.0349525 0.1304456 -0.9908392 1.0 0.0 0.0 1.0 0.0 0.0 -0.0954926 0.0954926 -0.9908392 -0.0954926 0.0954926 -0.9908392 -0.0954926 0.0954926 -0.9908392 1.0 0.0 0.0 1.0 0.0 0.0 -0.1304456 0.0349525 -0.9908392 -0.1304456 0.0349525 -0.9908392 -0.1304456 0.0349525 -0.9908392 -0.3806894 -0.1020045 -0.9190596 -0.3806894 -0.1020045 -0.9190596 -0.3806894 -0.1020045 -0.9190596 -0.380689 -0.1020048 -0.9190598 -0.380689 -0.1020048 -0.9190598 -0.380689 -0.1020048 -0.9190598 -0.2786839 -0.2786839 -0.9190596 -0.2786839 -0.2786839 -0.9190596 -0.2786839 -0.2786839 -0.9190596 -0.2786839 -0.2786839 -0.9190596 -0.2786839 -0.2786839 -0.9190596 -0.2786839 -0.2786839 -0.9190596 -0.1020044 -0.380689 -0.9190598 -0.1020044 -0.380689 -0.9190598 -0.1020044 -0.380689 -0.9190598 -0.1020049 -0.3806892 -0.9190597 -0.1020049 -0.3806892 -0.9190597 -0.1020049 -0.3806892 -0.9190597 0.1020045 -0.3806894 -0.9190596 0.1020045 -0.3806894 -0.9190596 0.1020045 -0.3806894 -0.9190596 0.1020048 -0.380689 -0.9190598 0.1020048 -0.380689 -0.9190598 0.1020048 -0.380689 -0.9190598 0.2786839 -0.2786839 -0.9190596 0.2786839 -0.2786839 -0.9190596 0.2786839 -0.2786839 -0.9190596 0.2786839 -0.2786839 -0.9190596 0.2786839 -0.2786839 -0.9190596 0.2786839 -0.2786839 -0.9190596 0.380689 -0.1020044 -0.9190598 0.380689 -0.1020044 -0.9190598 0.380689 -0.1020044 -0.9190598 0.3806892 -0.1020049 -0.9190597 0.3806892 -0.1020049 -0.9190597 0.3806892 -0.1020049 -0.9190597 0.3806894 0.1020045 -0.9190596 0.3806894 0.1020045 -0.9190596 0.3806894 0.1020045 -0.9190596 0.380689 0.1020048 -0.9190598 0.380689 0.1020048 -0.9190598 0.380689 0.1020048 -0.9190598 0.2786839 0.2786839 -0.9190596 0.2786839 0.2786839 -0.9190596 0.2786839 0.2786839 -0.9190596 0.2786839 0.2786839 -0.9190596 0.2786839 0.2786839 -0.9190596 0.2786839 0.2786839 -0.9190596 0.1020044 0.380689 -0.9190598 0.1020044 0.380689 -0.9190598 0.1020044 0.380689 -0.9190598 0.1020049 0.3806892 -0.9190597 0.1020049 0.3806892 -0.9190597 0.1020049 0.3806892 -0.9190597 -0.1020045 0.3806894 -0.9190596 -0.1020045 0.3806894 -0.9190596 -0.1020045 0.3806894 -0.9190596 -0.1020048 0.380689 -0.9190598 -0.1020048 0.380689 -0.9190598 -0.1020048 0.380689 -0.9190598 -0.2786839 0.2786839 -0.9190596 -0.2786839 0.2786839 -0.9190596 -0.2786839 0.2786839 -0.9190596 -0.2786839 0.2786839 -0.9190596 -0.2786839 0.2786839 -0.9190596 -0.2786839 0.2786839 -0.9190596 -0.380689 0.1020044 -0.9190598 -0.380689 0.1020044 -0.9190598 -0.380689 0.1020044 -0.9190598 -0.3806892 0.1020049 -0.9190597 -0.3806892 0.1020049 -0.9190597 -0.3806892 0.1020049 -0.9190597 -0.6008238 -0.1609895 -0.7830027 -0.6008238 -0.1609895 -0.7830027 -0.6008238 -0.1609895 -0.7830027 -0.6008213 -0.1609909 -0.7830042 -0.6008213 -0.1609909 -0.7830042 -0.6008213 -0.1609909 -0.7830042 -0.4398333 -0.4398333 -0.7830028 -0.4398333 -0.4398333 -0.7830028 -0.4398333 -0.4398333 -0.7830028 -0.4398333 -0.4398333 -0.7830028 -0.4398333 -0.4398333 -0.7830028 -0.4398333 -0.4398333 -0.7830028 -0.1609889 -0.6008216 -0.7830045 -0.1609889 -0.6008216 -0.7830045 -0.1609889 -0.6008216 -0.7830045 -0.1609913 -0.6008229 -0.783003 -0.1609913 -0.6008229 -0.783003 -0.1609913 -0.6008229 -0.783003 0.1609895 -0.6008238 -0.7830027 0.1609895 -0.6008238 -0.7830027 0.1609895 -0.6008238 -0.7830027 0.1609909 -0.6008213 -0.7830042 0.1609909 -0.6008213 -0.7830042 0.1609909 -0.6008213 -0.7830042 0.4398333 -0.4398333 -0.7830028 0.4398333 -0.4398333 -0.7830028 0.4398333 -0.4398333 -0.7830028 0.4398333 -0.4398333 -0.7830028 0.4398333 -0.4398333 -0.7830028 0.4398333 -0.4398333 -0.7830028 0.6008216 -0.1609889 -0.7830045 0.6008216 -0.1609889 -0.7830045 0.6008216 -0.1609889 -0.7830045 0.6008229 -0.1609913 -0.783003 0.6008229 -0.1609913 -0.783003 0.6008229 -0.1609913 -0.783003 0.6008238 0.1609895 -0.7830027 0.6008238 0.1609895 -0.7830027 0.6008238 0.1609895 -0.7830027 0.6008213 0.1609909 -0.7830042 0.6008213 0.1609909 -0.7830042 0.6008213 0.1609909 -0.7830042 0.4398333 0.4398333 -0.7830028 0.4398333 0.4398333 -0.7830028 0.4398333 0.4398333 -0.7830028 0.4398333 0.4398333 -0.7830028 0.4398333 0.4398333 -0.7830028 0.4398333 0.4398333 -0.7830028 0.1609889 0.6008216 -0.7830045 0.1609889 0.6008216 -0.7830045 0.1609889 0.6008216 -0.7830045 0.1609913 0.6008229 -0.783003 0.1609913 0.6008229 -0.783003 0.1609913 0.6008229 -0.783003 -0.1609895 0.6008238 -0.7830027 -0.1609895 0.6008238 -0.7830027 -0.1609895 0.6008238 -0.7830027 -0.1609909 0.6008213 -0.7830042 -0.1609909 0.6008213 -0.7830042 -0.1609909 0.6008213 -0.7830042 -0.4398333 0.4398333 -0.7830028 -0.4398333 0.4398333 -0.7830028 -0.4398333 0.4398333 -0.7830028 -0.4398333 0.4398333 -0.7830028 -0.4398333 0.4398333 -0.7830028 -0.4398333 0.4398333 -0.7830028</float_array>
                    <technique_common>
                        <accessor count="840" source="#geometry0-normal-array" stride="3">
                            <param name="X" type="float"/>
                            <param name="Y" type="float"/>
                            <param name="Z" type="float"/>
                        </accessor>
                    </technique_common>
                </source>
                <vertices id="geometry0-vertex">
                    <input semantic="POSITION" source="#geometry0-position"/>
                </vertices>
                <triangles count="288" material="default_ai_0.2_sh_0.2_tr_0.0_dc_r_0.8_g_0.8_b_0.8_sc_r_1.0_g_1.0_b_1.0_ec_r_0.0_g_0.0_b_0_tri">
                    <input offset="0" semantic="VERTEX" source="#geometry0-vertex"/>
                    <input offset="1" semantic="NORMAL" source="#geometry0-normal"/>
                    <p>24 0 14 1 26 2 24 3 26 4 36 5 26 6 25 7 37 8 26 9 37 10 38 11 25 12 27 13 39 14 25 15 39 16 37 17 27 18 28 19 40 20 27 21 40 22 39 23 28 24 29 25 41 26 28 27 41 28 40 29 29 30 30 31 42 32 29 33 42 34 41 35 30 36 31 37 43 38 30 39 43 40 42 41 31 42 32 43 44 44 31 45 44 46 43 47 32 48 33 49 45 50 32 51 45 52 44 53 33 54 34 55 46 56 33 57 46 58 45 59 34 60 35 61 47 62 34 63 47 64 46 65 35 66 36 67 48 68 35 69 48 70 47 71 36 72 26 73 38 74 36 75 38 76 48 77 38 78 37 79 49 80 38 81 49 82 50 83 37 84 39 85 51 86 37 87 51 88 49 89 39 90 40 91 52 92 39 93 52 94 51 95 40 96 41 97 53 98 40 99 53 100 52 101 41 102 42 103 54 104 41 105 54 106 53 107 42 108 43 109 55 110 42 111 55 112 54 113 43 114 44 115 56 116 43 117 56 118 55 119 44 120 45 121 57 122 44 123 57 124 56 125 45 126 46 127 58 128 45 129 58 130 57 131 46 132 47 133 59 134 46 135 59 136 58 137 47 138 48 139 60 140 47 141 60 142 59 143 48 144 38 145 50 146 48 147 50 148 60 149 50 150 49 151 61 152 50 153 61 154 62 155 49 156 51 157 63 158 49 159 63 160 61 161 51 162 52 163 64 164 51 165 64 166 63 167 52 168 53 169 65 170 52 171 65 172 64 173 53 174 54 175 66 176 53 177 66 178 65 179 54 180 55 181 67 182 54 183 67 184 66 185 55 186 56 187 68 188 55 189 68 190 67 191 56 192 57 193 69 194 56 195 69 196 68 197 57 198 58 199 70 200 57 201 70 202 69 203 58 204 59 205 71 206 58 207 71 208 70 209 59 210 60 211 72 212 59 213 72 214 71 215 60 216 50 217 62 218 60 219 62 220 72 221 62 222 61 223 73 224 62 225 73 226 74 227 61 228 63 229 75 230 61 231 75 232 73 233 63 234 64 235 76 236 63 237 76 238 75 239 64 240 65 241 77 242 64 243 77 244 76 245 65 246 66 247 78 248 65 249 78 250 77 251 66 252 67 253 79 254 66 255 79 256 78 257 67 258 68 259 80 260 67 261 80 262 79 263 68 264 69 265 81 266 68 267 81 268 80 269 69 270 70 271 82 272 69 273 82 274 81 275 70 276 71 277 83 278 70 279 83 280 82 281 71 282 72 283 84 284 71 285 84 286 83 287 72 288 62 289 74 290 72 291 74 292 84 293 74 294 73 295 85 296 74 297 85 298 86 299 73 300 75 301 87 302 73 303 87 304 85 305 75 306 76 307 88 308 75 309 88 310 87 311 76 312 77 313 89 314 76 315 89 316 88 317 77 318 78 319 90 320 77 321 90 322 89 323 78 324 79 325 91 326 78 327 91 328 90 329 79 330 80 331 92 332 79 333 92 334 91 335 80 336 81 337 93 338 80 339 93 340 92 341 81 342 82 343 94 344 81 345 94 346 93 347 82 348 83 349 95 350 82 351 95 352 94 353 83 354 84 355 96 356 83 357 96 358 95 359 84 360 74 361 86 362 84 363 86 364 96 365 86 366 85 367 97 368 86 369 97 370 98 371 85 372 87 373 99 374 85 375 99 376 97 377 87 378 88 379 100 380 87 381 100 382 99 383 88 384 89 385 101 386 88 387 101 388 100 389 89 390 90 391 102 392 89 393 102 394 101 395 90 396 91 397 103 398 90 399 103 400 102 401 91 402 92 403 104 404 91 405 104 406 103 407 92 408 93 409 105 410 92 411 105 412 104 413 93 414 94 415 106 416 93 417 106 418 105 419 94 420 95 421 107 422 94 423 107 424 106 425 95 426 96 427 108 428 95 429 108 430 107 431 96 432 86 433 98 434 96 435 98 436 108 437 98 438 97 439 109 440 98 441 109 442 110 443 97 444 99 445 111 446 97 447 111 448 109 449 99 450 100 451 112 452 99 453 112 454 111 455 100 456 101 457 113 458 100 459 113 460 112 461 101 462 102 463 114 464 101 465 114 466 113 467 102 468 103 469 115 470 102 471 115 472 114 473 103 474 104 475 116 476 103 477 116 478 115 479 104 480 105 481 117 482 104 483 117 484 116 485 105 486 106 487 118 488 105 489 118 490 117 491 106 492 107 493 119 494 106 495 119 496 118 497 107 498 108 499 120 500 107 501 120 502 119 503 108 504 98 505 110 506 108 507 110 508 120 509 110 510 109 511 121 512 110 513 121 514 122 515 109 516 111 517 123 518 109 519 123 520 121 521 111 522 112 523 124 524 111 525 124 526 123 527 112 528 113 529 125 530 112 531 125 532 124 533 113 534 114 535 126 536 113 537 126 538 125 539 114 540 115 541 127 542 114 543 127 544 126 545 115 546 116 547 128 548 115 549 128 550 127 551 116 552 117 553 129 554 116 555 129 556 128 557 117 558 118 559 130 560 117 561 130 562 129 563 118 564 119 565 131 566 118 567 131 568 130 569 119 570 120 571 132 572 119 573 132 574 131 575 120 576 110 577 122 578 120 579 122 580 132 581 122 582 121 583 133 584 122 585 133 586 133 586 121 587 123 588 133 589 121 590 133 591 133 591 123 592 124 593 133 594 123 595 133 596 133 596 124 597 125 598 133 599 124 600 133 601 133 601 125 602 126 603 133 604 125 605 133 606 133 606 126 607 127 608 133 609 126 610 133 611 133 611 127 612 128 613 133 614 127 615 133 616 133 616 128 617 129 618 133 619 128 620 133 621 133 621 129 622 130 623 133 624 129 625 133 626 133 626 130 627 131 628 133 629 130 630 133 631 133 631 131 632 132 633 133 634 131 635 133 636 133 636 132 637 122 638 133 639 132 640 133 641 133 641 0 642 0 642 1 643 0 644 1 645 2 646 0 647 0 647 3 648 0 649 3 650 1 651 0 652 0 652 4 653 0 654 4 655 3 656 0 657 0 657 5 658 0 659 5 660 4 661 0 662 0 662 6 663 0 664 6 665 5 666 0 667 0 667 7 668 0 669 7 670 6 671 0 672 0 672 8 673 0 674 8 675 7 676 0 677 0 677 9 678 0 679 9 680 8 681 0 682 0 682 10 683 0 684 10 685 9 686 0 687 0 687 11 688 0 689 11 690 10 691 0 692 0 692 12 693 0 694 12 695 11 696 0 697 0 697 2 698 0 699 2 700 12 701 2 702 1 703 13 704 2 705 13 706 14 707 1 708 3 709 15 710 1 711 15 712 13 713 3 714 4 715 16 716 3 717 16 718 15 719 4 720 5 721 17 722 4 723 17 724 16 725 5 726 6 727 18 728 5 729 18 730 17 731 6 732 7 733 19 734 6 735 19 736 18 737 7 738 8 739 20 740 7 741 20 742 19 743 8 744 9 745 21 746 8 747 21 748 20 749 9 750 10 751 22 752 9 753 22 754 21 755 10 756 11 757 23 758 10 759 23 760 22 761 11 762 12 763 24 764 11 765 24 766 23 767 12 768 2 769 14 770 12 771 14 772 24 773 14 774 13 775 25 776 14 777 25 778 26 779 13 780 15 781 27 782 13 783 27 784 25 785 15 786 16 787 28 788 15 789 28 790 27 791 16 792 17 793 29 794 16 795 29 796 28 797 17 798 18 799 30 800 17 801 30 802 29 803 18 804 19 805 31 806 18 807 31 808 30 809 19 810 20 811 32 812 19 813 32 814 31 815 20 816 21 817 33 818 20 819 33 820 32 821 21 822 22 823 34 824 21 825 34 826 33 827 22 828 23 829 35 830 22 831 35 832 34 833 23 834 24 835 36 836 23 837 36 838 35 839</p>
                </triangles>
            </mesh>
        </geometry>
    </library_geometries>
    <library_visual_scenes>
        <visual_scene id="Building_69_CROWN1">
            <node>
                <instance_geometry url="#geometry0">
                    <bind_material>
                        <technique_common>
                            <instance_material symbol="default_ai_0.2_sh_0.2_tr_0.0_dc_r_0.8_g_0.8_b_0.8_sc_r_1.0_g_1.0_b_1.0_ec_r_0.0_g_0.0_b_0_tri" target="#default_ai_0.2_sh_0.2_tr_0.0_dc_r_0.8_g_0.8_b_0.8_sc_r_1.0_g_1.0_b_1.0_ec_r_0.0_g_0.0_b_0_mat"/>
                        </technique_common>
                    </bind_material>
                </instance_geometry>
            </node>
        </visual_scene>
    </library_visual_scenes>
    <scene>
        <instance_visual_scene url="#Building_69_CROWN1"/>
    </scene>
</COLLADA>
