<?xml version="1.0" encoding="UTF-8" standalone="yes"?>
<COLLADA xmlns="http://www.collada.org/2005/11/COLLADASchema" version="1.4.1">
    <asset>
        <contributor>
            <authoring_tool>3D City Database Importer/Exporter, version 5.5.3; Chair of Geoinformatics, Technical University of Munich</authoring_tool>
        </contributor>
        <created>2026-09-25T14:44:40.375</created>
        <modified>2026-09-25T14:44:40.375</modified>
        <unit meter="1.0" name="meters"/>
        <up_axis>Z_UP</up_axis>
    </asset>
    <library_materials>
        <material id="default_ai_0.2_sh_0.2_tr_0.0_dc_r_0.8_g_0.8_b_0.8_sc_r_1.0_g_1.0_b_1.0_ec_r_0.0_g_0.0_b_0_mat">
            <instance_effect url="#default_ai_0.2_sh_0.2_tr_0.0_dc_r_0.8_g_0.8_b_0.8_sc_r_1.0_g_1.0_b_1.0_ec_r_0.0_g_0.0_b_0_eff"/>
        </material>
    </library_materials>
    <library_effects>
        <effect id="default_ai_0.2_sh_0.2_tr_0.0_dc_r_0.8_g_0.8_b_0.8_sc_r_1.0_g_1.0_b_1.0_ec_r_0.0_g_0.0_b_0_eff">
            <profile_COMMON>
                <technique sid="COMMON">
                    <lambert>
                        <emission>
                            <color>0.0 0.0 0.0 1.0</color>
                        </emission>
                        <diffuse>
                            <color>0.8 0.8 0.8 1.0</color>
                        </diffuse>
                        <reflective>
                            <color>1.0 1.0 1.0 1.0</color>
                        </reflective>
                        <reflectivity>
                            <float>0.2</float>
                        </reflectivity>
                        <transparent opaque="A_ONE">
                            <color>1.0 1.0 1.0 1.0</color>
                        </transparent>
                        <transparency>
                            <float>1.0</float>
                        </transparency>
                    </lambert>
                </technique>
                <extra>
                    <technique profile="GOOGLEEARTH">
                        <double_sided>0</double_sided>
                    </technique>
                </extra>
            </profile_COMMON>
        </effect>
    </library_effects>
    <library_geometries>
        <geometry id="geometry0">
            <mesh>
                <source id="geometry0-position">
                    <float_array id="geometry0-position-array" count="402">0.0 0.0 1.2 0.1344864 0.077646 1.1795556 0.1552914 0.0 1.1795556 0.077646 0.1344864 1.1795556 0.0 0.1552914 1.1795556 -0.077646 0.1344864 1.1795556 -0.1344864 0.077646 1.1795556 -0.1552914 0.0 1.1795556 -0.1344864 -0.077646 1.1795556 -0.077646 -0.1344864 1.1795556 0.0 -0.1552914 1.1795556 0.077646 -0.1344864 1.1795556 0.1344864 -0.077646 1.1795556 0.2598078 0.15 1.119615 0.3 0.0 1.119615 0.15 0.2598078 1.119615 0.0 0.3 1.119615 -0.15 0.2598078 1.119615 -0.2598078 0.15 1.119615 -0.3 0.0 1.119615 -0.2598078 -0.15 1.119615 -0.15 -0.2598078 1.119615 0.0 -0.3 1.119615 0.15 -0.2598078 1.119615 0.2598078 -0.15 1.119615 0.3674232 0.2121318 1.0242642 0.4242642 0.0 1.0242642 0.2121318 0.3674232 1.0242642 0.0 0.4242642 1.0242642 -0.2121318 0.3674232 1.0242642 -0.3674232 0.2121318 1.0242642 -0.4242642 0.0 1.0242642 -0.3674232 -0.2121318 1.0242642 -0.2121318 -0.3674232 1.0242642 0.0 -0.4242642 1.0242642 0.2121318 -0.3674232 1.0242642 0.3674232 -0.2121318 1.0242642 0.45 0.2598078 0.9 0.519615 0.0 0.9 0.2598078 0.45 0.9 0.0 0.519615 0.9 -0.2598078 0.45 0.9 -0.45 0.2598078 0.9 -0.519615 0.0 0.9 -0.45 -0.2598078 0.9 -0.2598078 -0.45 0.9 0.0 -0.519615 0.9 0.2598078 -0.45 0.9 0.45 -0.2598078 0.9 0.5019096 0.2897778 0.7552914 0.5795556 0.0 0.7552914 0.2897778 0.5019096 0.7552914 0.0 0.5795556 0.7552914 -0.2897778 0.5019096 0.7552914 -0.5019096 0.2897778 0.7552914 -0.5795556 0.0 0.7552914 -0.5019096 -0.2897778 0.7552914 -0.2897778 -0.5019096 0.7552914 0.0 -0.5795556 0.7552914 0.2897778 -0.5019096 0.7552914 0.5019096 -0.2897778 0.7552914 0.519615 0.3 0.6 0.6 0.0 0.6 0.3 0.519615 0.6 0.0 0.6 0.6 -0.3 0.519615 0.6 -0.519615 0.3 0.6 -0.6 0.0 0.6 -0.519615 -0.3 0.6 -0.3 -0.519615 0.6 0.0 -0.6 0.6 0.3 -0.519615 0.6 0.519615 -0.3 0.6 0.5019096 0.2897778 0.4447086 0.5795556 0.0 0.4447086 0.2897778 0.5019096 0.4447086 0.0 0.5795556 0.4447086 -0.2897778 0.5019096 0.4447086 -0.5019096 0.2897778 0.4447086 -0.5795556 0.0 0.4447086 -0.5019096 -0.2897778 0.4447086 -0.2897778 -0.5019096 0.4447086 0.0 -0.5795556 0.4447086 0.2897778 -0.5019096 0.4447086 0.5019096 -0.2897778 0.4447086 0.45 0.2598078 0.3 0.519615 0.0 0.3 0.2598078 0.45 0.3 0.0 0.519615 0.3 -0.2598078 0.45 0.3 -0.45 0.2598078 0.3 -0.519615 0.0 0.3 -0.45 -0.2598078 0.3 -0.2598078 -0.45 0.3 0.0 -0.519615 0.3 0.2598078 -0.45 0.3 0.45 -0.2598078 0.3 0.3674232 0.2121318 0.1757358 0.4242642 0.0 0.1757358 0.2121318 0.3674232 0.1757358 0.0 0.4242642 0.1757358 -0.2121318 0.3674232 0.1757358 -0.3674232 0.2121318 0.1757358 -0.4242642 0.0 0.1757358 -0.3674232 -0.2121318 0.1757358 -0.2121318 -0.3674232 0.1757358 0.0 -0.4242642 0.1757358 0.2121318 -0.3674232 0.1757358 0.3674232 -0.2121318 0.1757358 0.2598078 0.15 0.080385 0.3 0.0 0.080385 0.15 0.2598078 0.080385 0.0 0.3 0.080385 -0.15 0.2598078 0.080385 -0.2598078 0.15 0.080385 -0.3 0.0 0.080385 -0.2598078 -0.15 0.080385 -0.15 -0.2598078 0.080385 0.0 -0.3 0.080385 0.15 -0.2598078 0.080385 0.2598078 -0.15 0.080385 0.1344864 0.077646 0.0204444 0.1552914 0.0 0.0204444 0.077646 0.1344864 0.0204444 0.0 0.1552914 0.0204444 -0.077646 0.1344864 0.0204444 -0.1344864 0.077646 0.0204444 -0.1552914 0.0 0.0204444 -0.1344864 -0.077646 0.0204444 -0.077646 -0.1344864 0.0204444 0.0 -0.1552914 0.0204444 0.077646 -0.1344864 0.0204444 0.1344864 -0.077646 0.0204444 0.0 0.0 0.0</float_array>
                    <technique_common>
                        <accessor count="134" source="#geometry0-position-array" stride="3">
                            <param name="X" type="float"/>
                            <param name="Y" type="float"/>
                            <param name="Z" type="float"/>
                        </accessor>
                    </technique_common>
                </source>
                <source id="geometry0-normal">
                    <float_array id="geometry0-normal-array" count="2520">-0.958209 -0.2567521 -0.1261501 -0.958209 -0.2567521 -0.1261501 -0.958209 -0.2567521 -0.1261501 -0.958209 -0.2567522 -0.1261503 -0.958209 -0.2567522 -0.1261503 -0.958209 -0.2567522 -0.1261503 -0.7014578 -0.7014579 -0.1261502 -0.7014578 -0.7014579 -0.1261502 -0.7014578 -0.7014579 -0.1261502 -0.7014578 -0.7014578 -0.1261501 -0.7014578 -0.7014578 -0.1261501 -0.7014578 -0.7014578 -0.1261501 -0.2567521 -0.958209 -0.1261503 -0.2567521 -0.958209 -0.1261503 -0.2567521 -0.958209 -0.1261503 -0.2567522 -0.958209 -0.1261502 -0.2567522 -0.958209 -0.1261502 -0.2567522 -0.958209 -0.1261502 0.2567521 -0.958209 -0.1261502 0.2567521 -0.958209 -0.1261502 0.2567521 -0.958209 -0.1261502 0.2567522 -0.958209 -0.1261503 0.2567522 -0.958209 -0.1261503 0.2567522 -0.958209 -0.1261503 0.7014578 -0.7014579 -0.1261501 0.7014578 -0.7014579 -0.1261501 0.7014578 -0.7014579 -0.1261501 0.7014578 -0.7014578 -0.1261502 0.7014578 -0.7014578 -0.1261502 0.7014578 -0.7014578 -0.1261502 0.958209 -0.2567521 -0.1261503 0.958209 -0.2567521 -0.1261503 0.958209 -0.2567521 -0.1261503 0.958209 -0.2567522 -0.1261501 0.958209 -0.2567522 -0.1261501 0.958209 -0.2567522 -0.1261501 0.958209 0.2567521 -0.1261501 0.958209 0.2567521 -0.1261501 0.958209 0.2567521 -0.1261501 0.958209 0.2567522 -0.1261503 0.958209 0.2567522 -0.1261503 0.958209 0.2567522 -0.1261503 0.7014578 0.7014579 -0.1261502 0.7014578 0.7014579 -0.1261502 0.7014578 0.7014579 -0.1261502 0.7014578 0.7014578 -0.1261501 0.7014578 0.7014578 -0.1261501 0.7014578 0.7014578 -0.1261501 0.2567521 0.958209 -0.1261503 0.2567521 0.958209 -0.1261503 0.2567521 0.958209 -0.1261503 0.2567522 0.958209 -0.1261502 0.2567522 0.958209 -0.1261502 0.2567522 0.958209 -0.1261502 -0.2567521 0.958209 -0.1261502 -0.2567521 0.958209 -0.1261502 -0.2567521 0.958209 -0.1261502 -0.2567522 0.958209 -0.1261503 -0.2567522 0.958209 -0.1261503 -0.2567522 0.958209 -0.1261503 -0.7014578 0.7014579 -0.1261501 -0.7014578 0.7014579 -0.1261501 -0.7014578 0.7014579 -0.1261501 -0.7014578 0.7014578 -0.1261502 -0.7014578 0.7014578 -0.1261502 -0.7014578 0.7014578 -0.1261502 -0.958209 0.2567521 -0.1261503 -0.958209 0.2567521 -0.1261503 -0.958209 0.2567521 -0.1261503 -0.958209 0.2567522 -0.1261501 -0.958209 0.2567522 -0.1261501 -0.958209 0.2567522 -0.1261501 -0.958209 -0.2567522 0.1261501 -0.958209 -0.2567522 0.1261501 -0.958209 -0.2567522 0.1261501 -0.958209 -0.2567521 0.1261503 -0.958209 -0.2567521 0.1261503 -0.958209 -0.2567521 0.1261503 -0.7014578 -0.7014578 0.1261501 -0.7014578 -0.7014578 0.1261501 -0.7014578 -0.7014578 0.1261501 -0.7014577 -0.7014579 0.12615 -0.7014577 -0.7014579 0.12615 -0.7014577 -0.7014579 0.12615 -0.2567522 -0.958209 0.1261503 -0.2567522 -0.958209 0.1261503 -0.2567522 -0.958209 0.1261503 -0.2567521 -0.958209 0.1261501 -0.2567521 -0.958209 0.1261501 -0.2567521 -0.958209 0.1261501 0.2567522 -0.958209 0.1261501 0.2567522 -0.958209 0.1261501 0.2567522 -0.958209 0.1261501 0.2567521 -0.958209 0.1261503 0.2567521 -0.958209 0.1261503 0.2567521 -0.958209 0.1261503 0.7014578 -0.7014578 0.12615 0.7014578 -0.7014578 0.12615 0.7014578 -0.7014578 0.12615 0.7014577 -0.7014579 0.1261501 0.7014577 -0.7014579 0.1261501 0.7014577 -0.7014579 0.1261501 0.958209 -0.2567522 0.1261503 0.958209 -0.2567522 0.1261503 0.958209 -0.2567522 0.1261503 0.958209 -0.2567521 0.1261501 0.958209 -0.2567521 0.1261501 0.958209 -0.2567521 0.1261501 0.958209 0.2567522 0.1261501 0.958209 0.2567522 0.1261501 0.958209 0.2567522 0.1261501 0.958209 0.2567521 0.1261503 0.958209 0.2567521 0.1261503 0.958209 0.2567521 0.1261503 0.7014578 0.7014578 0.1261501 0.7014578 0.7014578 0.1261501 0.7014578 0.7014578 0.1261501 0.7014577 0.7014579 0.12615 0.7014577 0.7014579 0.12615 0.7014577 0.7014579 0.12615 0.2567522 0.958209 0.1261503 0.2567522 0.958209 0.1261503 0.2567522 0.958209 0.1261503 0.2567521 0.958209 0.1261501 0.2567521 0.958209 0.1261501 0.2567521 0.958209 0.1261501 -0.2567522 0.958209 0.1261501 -0.2567522 0.958209 0.1261501 -0.2567522 0.958209 0.1261501 -0.2567521 0.958209 0.1261503 -0.2567521 0.958209 0.1261503 -0.2567521 0.958209 0.1261503 -0.7014578 0.7014578 0.12615 -0.7014578 0.7014578 0.12615 -0.7014578 0.7014578 0.12615 -0.7014577 0.7014579 0.1261501 -0.7014577 0.7014579 0.1261501 -0.7014577 0.7014579 0.1261501 -0.958209 0.2567522 0.1261503 -0.958209 0.2567522 0.1261503 -0.958209 0.2567522 0.1261503 -0.958209 0.2567521 0.1261501 -0.958209 0.2567521 0.1261501 -0.958209 0.2567521 0.1261501 -0.896809 -0.2403 0.3714694 -0.896809 -0.2403 0.3714694 -0.896809 -0.2403 0.3714694 -0.8968083 -0.2402981 0.3714722 -0.8968083 -0.2402981 0.3714722 -0.8968083 -0.2402981 0.3714722 -0.6565099 -0.6565099 0.3714692 -0.6565099 -0.6565099 0.3714692 -0.6565099 -0.6565099 0.3714692 -0.6565099 -0.6565099 0.3714693 -0.6565099 -0.6565099 0.3714693 -0.6565099 -0.6565099 0.3714693 -0.2402997 -0.896808 0.371472 -0.2402997 -0.896808 0.371472 -0.2402997 -0.896808 0.371472 -0.2402984 -0.8968095 0.3714693 -0.2402984 -0.8968095 0.3714693 -0.2402984 -0.8968095 0.3714693 0.2403 -0.896809 0.3714694 0.2403 -0.896809 0.3714694 0.2403 -0.896809 0.3714694 0.2402981 -0.8968083 0.3714722 0.2402981 -0.8968083 0.3714722 0.2402981 -0.8968083 0.3714722 0.6565099 -0.6565099 0.3714693 0.6565099 -0.6565099 0.3714693 0.6565099 -0.6565099 0.3714693 0.6565099 -0.6565099 0.3714692 0.6565099 -0.6565099 0.3714692 0.6565099 -0.6565099 0.3714692 0.8968081 -0.2402997 0.371472 0.8968081 -0.2402997 0.371472 0.8968081 -0.2402997 0.371472 0.8968095 -0.2402984 0.3714693 0.8968095 -0.2402984 0.3714693 0.8968095 -0.2402984 0.3714693 0.896809 0.2403 0.3714694 0.896809 0.2403 0.3714694 0.896809 0.2403 0.3714694 0.8968083 0.2402981 0.3714722 0.8968083 0.2402981 0.3714722 0.8968083 0.2402981 0.3714722 0.6565099 0.6565099 0.3714692 0.6565099 0.6565099 0.3714692 0.6565099 0.6565099 0.3714692 0.6565099 0.6565099 0.3714693 0.6565099 0.6565099 0.3714693 0.6565099 0.6565099 0.3714693 0.2402997 0.896808 0.371472 0.2402997 0.896808 0.371472 0.2402997 0.896808 0.371472 0.2402984 0.8968095 0.3714693 0.2402984 0.8968095 0.3714693 0.2402984 0.8968095 0.3714693 -0.2403 0.896809 0.3714694 -0.2403 0.896809 0.3714694 -0.2403 0.896809 0.3714694 -0.2402981 0.8968083 0.3714722 -0.2402981 0.8968083 0.3714722 -0.2402981 0.8968083 0.3714722 -0.6565099 0.6565099 0.3714693 -0.6565099 0.6565099 0.3714693 -0.6565099 0.6565099 0.3714693 -0.6565099 0.6565099 0.3714692 -0.6565099 0.6565099 0.3714692 -0.6565099 0.6565099 0.3714692 -0.8968081 0.2402997 0.371472 -0.8968081 0.2402997 0.371472 -0.8968081 0.2402997 0.371472 -0.8968095 0.2402984 0.3714693 -0.8968095 0.2402984 0.3714693 -0.8968095 0.2402984 0.3714693 -0.7760128 -0.2079312 0.5954568 -0.7760128 -0.2079312 0.5954568 -0.7760128 -0.2079312 0.5954568 -0.7760144 -0.207934 0.5954537 -0.7760144 -0.207934 0.5954537 -0.7760144 -0.207934 0.5954537 -0.5680803 -0.5680803 0.5954573 -0.5680803 -0.5680803 0.5954573 -0.5680803 -0.5680803 0.5954573 -0.5680803 -0.5680803 0.5954574 -0.5680803 -0.5680803 0.5954574 -0.5680803 -0.5680803 0.5954574 -0.2079317 -0.7760147 0.595454 -0.2079317 -0.7760147 0.595454 -0.2079317 -0.7760147 0.595454 -0.2079334 -0.7760119 0.5954571 -0.2079334 -0.7760119 0.5954571 -0.2079334 -0.7760119 0.5954571 0.2079312 -0.7760128 0.5954568 0.2079312 -0.7760128 0.5954568 0.2079312 -0.7760128 0.5954568 0.207934 -0.7760144 0.5954537 0.207934 -0.7760144 0.5954537 0.207934 -0.7760144 0.5954537 0.5680803 -0.5680803 0.5954573 0.5680803 -0.5680803 0.5954573 0.5680803 -0.5680803 0.5954573 0.5680803 -0.5680803 0.5954574 0.5680803 -0.5680803 0.5954574 0.5680803 -0.5680803 0.5954574 0.7760147 -0.2079317 0.595454 0.7760147 -0.2079317 0.595454 0.7760147 -0.2079317 0.595454 0.7760119 -0.2079334 0.5954571 0.7760119 -0.2079334 0.5954571 0.7760119 -0.2079334 0.5954571 0.7760128 0.2079312 0.5954568 0.7760128 0.2079312 0.5954568 0.7760128 0.2079312 0.5954568 0.7760144 0.207934 0.5954537 0.7760144 0.207934 0.5954537 0.7760144 0.207934 0.5954537 0.5680803 0.5680803 0.5954573 0.5680803 0.5680803 0.5954573 0.5680803 0.5680803 0.5954573 0.5680803 0.5680803 0.5954574 0.5680803 0.5680803 0.5954574 0.5680803 0.5680803 0.5954574 0.2079317 0.7760147 0.595454 0.2079317 0.7760147 0.595454 0.2079317 0.7760147 0.595454 0.2079334 0.7760119 0.5954571 0.2079334 0.7760119 0.5954571 0.2079334 0.7760119 0.5954571 -0.2079312 0.7760128 0.5954568 -0.2079312 0.7760128 0.5954568 -0.2079312 0.7760128 0.5954568 -0.207934 0.7760144 0.5954537 -0.207934 0.7760144 0.5954537 -0.207934 0.7760144 0.5954537 -0.5680803 0.5680803 0.5954573 -0.5680803 0.5680803 0.5954573 -0.5680803 0.5680803 0.5954573 -0.5680803 0.5680803 0.5954574 -0.5680803 0.5680803 0.5954574 -0.5680803 0.5680803 0.5954574 -0.7760147 0.2079317 0.595454 -0.7760147 0.2079317 0.595454 -0.7760147 0.2079317 0.595454 -0.7760119 0.2079334 0.5954571 -0.7760119 0.2079334 0.5954571 -0.7760119 0.2079334 0.5954571 -0.6008203 -0.1609906 0.7830051 -0.6008203 -0.1609906 0.7830051 -0.6008203 -0.1609906 0.7830051 -0.6008191 -0.1609883 0.7830065 -0.6008191 -0.1609883 0.7830065 -0.6008191 -0.1609883 0.7830065 -0.4398314 -0.4398314 0.7830049 -0.4398314 -0.4398314 0.7830049 -0.4398314 -0.4398314 0.7830049 -0.4398313 -0.4398313 0.7830049 -0.4398313 -0.4398313 0.7830049 -0.4398313 -0.4398313 0.7830049 -0.1609902 -0.6008189 0.7830063 -0.1609902 -0.6008189 0.7830063 -0.1609902 -0.6008189 0.7830063 -0.1609889 -0.6008211 0.7830049 -0.1609889 -0.6008211 0.7830049 -0.1609889 -0.6008211 0.7830049 0.1609906 -0.6008203 0.7830051 0.1609906 -0.6008203 0.7830051 0.1609906 -0.6008203 0.7830051 0.1609883 -0.6008191 0.7830065 0.1609883 -0.6008191 0.7830065 0.1609883 -0.6008191 0.7830065 0.4398314 -0.4398314 0.7830049 0.4398314 -0.4398314 0.7830049 0.4398314 -0.4398314 0.7830049 0.4398313 -0.4398313 0.7830049 0.4398313 -0.4398313 0.7830049 0.4398313 -0.4398313 0.7830049 0.6008189 -0.1609902 0.7830063 0.6008189 -0.1609902 0.7830063 0.6008189 -0.1609902 0.7830063 0.6008211 -0.1609889 0.7830049 0.6008211 -0.1609889 0.7830049 0.6008211 -0.1609889 0.7830049 0.6008203 0.1609906 0.7830051 0.6008203 0.1609906 0.7830051 0.6008203 0.1609906 0.7830051 0.6008191 0.1609883 0.7830065 0.6008191 0.1609883 0.7830065 0.6008191 0.1609883 0.7830065 0.4398314 0.4398314 0.7830049 0.4398314 0.4398314 0.7830049 0.4398314 0.4398314 0.7830049 0.4398313 0.4398313 0.7830049 0.4398313 0.4398313 0.7830049 0.4398313 0.4398313 0.7830049 0.1609902 0.6008189 0.7830063 0.1609902 0.6008189 0.7830063 0.1609902 0.6008189 0.7830063 0.1609889 0.6008211 0.7830049 0.1609889 0.6008211 0.7830049 0.1609889 0.6008211 0.7830049 -0.1609906 0.6008203 0.7830051 -0.1609906 0.6008203 0.7830051 -0.1609906 0.6008203 0.7830051 -0.1609883 0.6008191 0.7830065 -0.1609883 0.6008191 0.7830065 -0.1609883 0.6008191 0.7830065 -0.4398314 0.4398314 0.7830049 -0.4398314 0.4398314 0.7830049 -0.4398314 0.4398314 0.7830049 -0.4398313 0.4398313 0.7830049 -0.4398313 0.4398313 0.7830049 -0.4398313 0.4398313 0.7830049 -0.6008189 0.1609902 0.7830063 -0.6008189 0.1609902 0.7830063 -0.6008189 0.1609902 0.7830063 -0.6008211 0.1609889 0.7830049 -0.6008211 0.1609889 0.7830049 -0.6008211 0.1609889 0.7830049 -0.3806893 -0.102005 0.9190596 -0.3806893 -0.102005 0.9190596 -0.3806893 -0.102005 0.9190596 -0.3806891 -0.1020044 0.9190598 -0.3806891 -0.1020044 0.9190598 -0.3806891 -0.1020044 0.9190598 -0.2786841 -0.2786841 0.9190596 -0.2786841 -0.2786841 0.9190596 -0.2786841 -0.2786841 0.9190596 -0.278684 -0.278684 0.9190596 -0.278684 -0.278684 0.9190596 -0.278684 -0.278684 0.9190596 -0.1020049 -0.3806891 0.9190598 -0.1020049 -0.3806891 0.9190598 -0.1020049 -0.3806891 0.9190598 -0.1020045 -0.3806896 0.9190596 -0.1020045 -0.3806896 0.9190596 -0.1020045 -0.3806896 0.9190596 0.102005 -0.3806893 0.9190596 0.102005 -0.3806893 0.9190596 0.102005 -0.3806893 0.9190596 0.1020044 -0.3806891 0.9190598 0.1020044 -0.3806891 0.9190598 0.1020044 -0.3806891 0.9190598 0.2786841 -0.2786841 0.9190596 0.2786841 -0.2786841 0.9190596 0.2786841 -0.2786841 0.9190596 0.278684 -0.278684 0.9190596 0.278684 -0.278684 0.9190596 0.278684 -0.278684 0.9190596 0.3806891 -0.1020049 0.9190598 0.3806891 -0.1020049 0.9190598 0.3806891 -0.1020049 0.9190598 0.3806896 -0.1020045 0.9190596 0.3806896 -0.1020045 0.9190596 0.3806896 -0.1020045 0.9190596 0.3806893 0.102005 0.9190596 0.3806893 0.102005 0.9190596 0.3806893 0.102005 0.9190596 0.3806891 0.1020044 0.9190598 0.3806891 0.1020044 0.9190598 0.3806891 0.1020044 0.9190598 0.2786841 0.2786841 0.9190596 0.2786841 0.2786841 0.9190596 0.2786841 0.2786841 0.9190596 0.278684 0.278684 0.9190596 0.278684 0.278684 0.9190596 0.278684 0.278684 0.9190596 0.1020049 0.3806891 0.9190598 0.1020049 0.3806891 0.9190598 0.1020049 0.3806891 0.9190598 0.1020045 0.3806896 0.9190596 0.1020045 0.3806896 0.9190596 0.1020045 0.3806896 0.9190596 -0.102005 0.3806893 0.9190596 -0.102005 0.3806893 0.9190596 -0.102005 0.3806893 0.9190596 -0.1020044 0.3806891 0.9190598 -0.1020044 0.3806891 0.9190598 -0.1020044 0.3806891 0.9190598 -0.2786841 0.2786841 0.9190596 -0.2786841 0.2786841 0.9190596 -0.2786841 0.2786841 0.9190596 -0.278684 0.278684 0.9190596 -0.278684 0.278684 0.9190596 -0.278684 0.278684 0.9190596 -0.3806891 0.1020049 0.9190598 -0.3806891 0.1020049 0.9190598 -0.3806891 0.1020049 0.9190598 -0.3806896 0.1020045 0.9190596 -0.3806896 0.1020045 0.9190596 -0.3806896 0.1020045 0.9190596 -0.1304458 -0.0349525 0.9908391 -0.1304458 -0.0349525 0.9908391 -0.1304458 -0.0349525 0.9908391 1.0 0.0 0.0 1.0 0.0 0.0 -0.0954928 -0.0954928 0.9908392 -0.0954928 -0.0954928 0.9908392 -0.0954928 -0.0954928 0.9908392 1.0 0.0 0.0 1.0 0.0 0.0 -0.0349525 -0.1304458 0.9908391 -0.0349525 -0.1304458 0.9908391 -0.0349525 -0.1304458 0.9908391 1.0 0.0 0.0 1.0 0.0 0.0 0.0349525 -0.1304458 0.9908391 0.0349525 -0.1304458 0.9908391 0.0349525 -0.1304458 0.9908391 1.0 0.0 0.0 1.0 0.0 0.0 0.0954928 -0.0954928 0.9908392 0.0954928 -0.0954928 0.9908392 0.0954928 -0.0954928 0.9908392 1.0 0.0 0.0 1.0 0.0 0.0 0.1304458 -0.0349525 0.9908391 0.1304458 -0.0349525 0.9908391 0.1304458 -0.0349525 0.9908391 1.0 0.0 0.0 1.0 0.0 0.0 0.1304458 0.0349525 0.9908391 0.1304458 0.0349525 0.9908391 0.1304458 0.0349525 0.9908391 1.0 0.0 0.0 1.0 0.0 0.0 0.0954928 0.0954928 0.9908392 0.0954928 0.0954928 0.9908392 0.0954928 0.0954928 0.9908392 1.0 0.0 0.0 1.0 0.0 0.0 0.0349525 0.1304458 0.9908391 0.0349525 0.1304458 0.9908391 0.0349525 0.1304458 0.9908391 1.0 0.0 0.0 1.0 0.0 0.0 -0.0349525 0.1304458 0.9908391 -0.0349525 0.1304458 0.9908391 -0.0349525 0.1304458 0.9908391 1.0 0.0 0.0 1.0 0.0 0.0 -0.0954928 0.0954928 0.9908392 -0.0954928 0.0954928 0.9908392 -0.0954928 0.0954928 0.9908392 1.0 0.0 0.0 1.0 0.0 0.0 -0.1304458 0.0349525 0.9908391 -0.1304458 0.0349525 0.9908391 -0.1304458 0.0349525 0.9908391 1.0 0.0 0.0 1.0 0.0 0.0 1.0 0.0 0.0 1.0 0.0 0.0 -0.1304458 -0.0349525 -0.9908391 -0.1304458 -0.0349525 -0.9908391 -0.1304458 -0.0349525 -0.9908391 1.0 0.0 0.0 1.0 0.0 0.0 -0.0954928 -0.0954928 -0.9908392 -0.0954928 -0.0954928 -0.9908392 -0.0954928 -0.0954928 -0.9908392 1.0 0.0 0.0 1.0 0.0 0.0 -0.0349525 -0.1304458 -0.9908391 -0.0349525 -0.1304458 -0.9908391 -0.0349525 -0.1304458 -0.9908391 1.0 0.0 0.0 1.0 0.0 0.0 0.0349525 -0.1304458 -0.9908391 0.0349525 -0.1304458 -0.9908391 0.0349525 -0.1304458 -0.9908391 1.0 0.0 0.0 1.0 0.0 0.0 0.0954928 -0.0954928 -0.9908392 0.0954928 -0.0954928 -0.9908392 0.0954928 -0.0954928 -0.9908392 1.0 0.0 0.0 1.0 0.0 0.0 0.1304458 -0.0349525 -0.9908391 0.1304458 -0.0349525 -0.9908391 0.1304458 -0.0349525 -0.9908391 1.0 0.0 0.0 1.0 0.0 0.0 0.1304458 0.0349525 -0.9908391 0.1304458 0.0349525 -0.9908391 0.1304458 0.0349525 -0.9908391 1.0 0.0 0.0 1.0 0.0 0.0 0.0954928 0.0954928 -0.9908392 0.0954928 0.0954928 -0.9908392 0.0954928 0.0954928 -0.9908392 1.0 0.0 0.0 1.0 0.0 0.0 0.0349525 0.1304458 -0.9908391 0.0349525 0.1304458 -0.9908391 0.0349525 0.1304458 -0.9908391 1.0 0.0 0.0 1.0 0.0 0.0 -0.0349525 0.1304458 -0.9908391 -0.0349525 0.1304458 -0.9908391 -0.0349525 0.1304458 -0.9908391 1.0 0.0 0.0 1.0 0.0 0.0 -0.0954928 0.0954928 -0.9908392 -0.0954928 0.0954928 -0.9908392 -0.0954928 0.0954928 -0.9908392 1.0 0.0 0.0 1.0 0.0 0.0 -0.1304458 0.0349525 -0.9908391 -0.1304458 0.0349525 -0.9908391 -0.1304458 0.0349525 -0.9908391 -0.3806901 -0.1020046 -0.9190593 -0.3806901 -0.1020046 -0.9190593 -0.3806901 -0.1020046 -0.9190593 -0.3806896 -0.102005 -0.9190595 -0.3806896 -0.102005 -0.9190595 -0.3806896 -0.102005 -0.9190595 -0.2786844 -0.2786844 -0.9190593 -0.2786844 -0.2786844 -0.9190593 -0.2786844 -0.2786844 -0.9190593 -0.2786844 -0.2786844 -0.9190593 -0.2786844 -0.2786844 -0.9190593 -0.2786844 -0.2786844 -0.9190593 -0.1020045 -0.3806896 -0.9190596 -0.1020045 -0.3806896 -0.9190596 -0.1020045 -0.3806896 -0.9190596 -0.1020051 -0.3806899 -0.9190595 -0.1020051 -0.3806899 -0.9190595 -0.1020051 -0.3806899 -0.9190595 0.1020046 -0.3806901 -0.9190593 0.1020046 -0.3806901 -0.9190593 0.1020046 -0.3806901 -0.9190593 0.102005 -0.3806896 -0.9190595 0.102005 -0.3806896 -0.9190595 0.102005 -0.3806896 -0.9190595 0.2786844 -0.2786844 -0.9190593 0.2786844 -0.2786844 -0.9190593 0.2786844 -0.2786844 -0.9190593 0.2786844 -0.2786844 -0.9190593 0.2786844 -0.2786844 -0.9190593 0.2786844 -0.2786844 -0.9190593 0.3806896 -0.1020045 -0.9190596 0.3806896 -0.1020045 -0.9190596 0.3806896 -0.1020045 -0.9190596 0.3806899 -0.1020051 -0.9190595 0.3806899 -0.1020051 -0.9190595 0.3806899 -0.1020051 -0.9190595 0.3806901 0.1020046 -0.9190593 0.3806901 0.1020046 -0.9190593 0.3806901 0.1020046 -0.9190593 0.3806896 0.102005 -0.9190595 0.3806896 0.102005 -0.9190595 0.3806896 0.102005 -0.9190595 0.2786844 0.2786844 -0.9190593 0.2786844 0.2786844 -0.9190593 0.2786844 0.2786844 -0.9190593 0.2786844 0.2786844 -0.9190593 0.2786844 0.2786844 -0.9190593 0.2786844 0.2786844 -0.9190593 0.1020045 0.3806896 -0.9190596 0.1020045 0.3806896 -0.9190596 0.1020045 0.3806896 -0.9190596 0.1020051 0.3806899 -0.9190595 0.1020051 0.3806899 -0.9190595 0.1020051 0.3806899 -0.9190595 -0.1020046 0.3806901 -0.9190593 -0.1020046 0.3806901 -0.9190593 -0.1020046 0.3806901 -0.9190593 -0.102005 0.3806896 -0.9190595 -0.102005 0.3806896 -0.9190595 -0.102005 0.3806896 -0.9190595 -0.2786844 0.2786844 -0.9190593 -0.2786844 0.2786844 -0.9190593 -0.2786844 0.2786844 -0.9190593 -0.2786844 0.2786844 -0.9190593 -0.2786844 0.2786844 -0.9190593 -0.2786844 0.2786844 -0.9190593 -0.3806896 0.1020045 -0.9190596 -0.3806896 0.1020045 -0.9190596 -0.3806896 0.1020045 -0.9190596 -0.3806899 0.1020051 -0.9190595 -0.3806899 0.1020051 -0.9190595 -0.3806899 0.1020051 -0.9190595 -0.6008209 -0.1609888 -0.7830051 -0.6008209 -0.1609888 -0.7830051 -0.6008209 -0.1609888 -0.7830051 -0.6008186 -0.1609901 -0.7830064 -0.6008186 -0.1609901 -0.7830064 -0.6008186 -0.1609901 -0.7830064 -0.4398312 -0.4398312 -0.7830051 -0.4398312 -0.4398312 -0.7830051 -0.4398312 -0.4398312 -0.7830051 -0.4398312 -0.4398312 -0.7830051 -0.4398312 -0.4398312 -0.7830051 -0.4398312 -0.4398312 -0.7830051 -0.1609883 -0.6008189 -0.7830067 -0.1609883 -0.6008189 -0.7830067 -0.1609883 -0.6008189 -0.7830067 -0.1609905 -0.6008201 -0.7830052 -0.1609905 -0.6008201 -0.7830052 -0.1609905 -0.6008201 -0.7830052 0.1609888 -0.6008209 -0.7830051 0.1609888 -0.6008209 -0.7830051 0.1609888 -0.6008209 -0.7830051 0.1609901 -0.6008186 -0.7830064 0.1609901 -0.6008186 -0.7830064 0.1609901 -0.6008186 -0.7830064 0.4398312 -0.4398312 -0.7830051 0.4398312 -0.4398312 -0.7830051 0.4398312 -0.4398312 -0.7830051 0.4398312 -0.4398312 -0.7830051 0.4398312 -0.4398312 -0.7830051 0.4398312 -0.4398312 -0.7830051 0.6008189 -0.1609883 -0.7830067 0.6008189 -0.1609883 -0.7830067 0.6008189 -0.1609883 -0.7830067 0.6008201 -0.1609905 -0.7830052 0.6008201 -0.1609905 -0.7830052 0.6008201 -0.1609905 -0.7830052 0.6008209 0.1609888 -0.7830051 0.6008209 0.1609888 -0.7830051 0.6008209 0.1609888 -0.7830051 0.6008186 0.1609901 -0.7830064 0.6008186 0.1609901 -0.7830064 0.6008186 0.1609901 -0.7830064 0.4398312 0.4398312 -0.7830051 0.4398312 0.4398312 -0.7830051 0.4398312 0.4398312 -0.7830051 0.4398312 0.4398312 -0.7830051 0.4398312 0.4398312 -0.7830051 0.4398312 0.4398312 -0.7830051 0.1609883 0.6008189 -0.7830067 0.1609883 0.6008189 -0.7830067 0.1609883 0.6008189 -0.7830067 0.1609905 0.6008201 -0.7830052 0.1609905 0.6008201 -0.7830052 0.1609905 0.6008201 -0.7830052 -0.1609888 0.6008209 -0.7830051 -0.1609888 0.6008209 -0.7830051 -0.1609888 0.6008209 -0.7830051 -0.1609901 0.6008186 -0.7830064 -0.1609901 0.6008186 -0.7830064 -0.1609901 0.6008186 -0.7830064 -0.4398312 0.4398312 -0.7830051 -0.4398312 0.4398312 -0.7830051 -0.4398312 0.4398312 -0.7830051 -0.4398312 0.4398312 -0.7830051 -0.4398312 0.4398312 -0.7830051 -0.4398312 0.4398312 -0.7830051 -0.6008189 0.1609883 -0.7830067 -0.6008189 0.1609883 -0.7830067 -0.6008189 0.1609883 -0.7830067 -0.6008201 0.1609905 -0.7830052 -0.6008201 0.1609905 -0.7830052 -0.6008201 0.1609905 -0.7830052 -0.7760121 -0.2079334 -0.595457 -0.7760121 -0.2079334 -0.595457 -0.7760121 -0.2079334 -0.595457 -0.7760148 -0.2079317 -0.5954539 -0.7760148 -0.2079317 -0.5954539 -0.7760148 -0.2079317 -0.5954539 -0.5680804 -0.5680804 -0.5954573 -0.5680804 -0.5680804 -0.5954573 -0.5680804 -0.5680804 -0.5954573 -0.5680804 -0.5680804 -0.5954573 -0.5680804 -0.5680804 -0.5954573 -0.5680804 -0.5680804 -0.5954573 -0.2079341 -0.7760144 -0.5954537 -0.2079341 -0.7760144 -0.5954537 -0.2079341 -0.7760144 -0.5954537 -0.2079312 -0.7760129 -0.5954567 -0.2079312 -0.7760129 -0.5954567 -0.2079312 -0.7760129 -0.5954567 0.2079334 -0.7760121 -0.595457 0.2079334 -0.7760121 -0.595457 0.2079334 -0.7760121 -0.595457 0.2079317 -0.7760148 -0.5954539 0.2079317 -0.7760148 -0.5954539 0.2079317 -0.7760148 -0.5954539 0.5680804 -0.5680804 -0.5954573 0.5680804 -0.5680804 -0.5954573 0.5680804 -0.5680804 -0.5954573 0.5680804 -0.5680804 -0.5954573 0.5680804 -0.5680804 -0.5954573 0.5680804 -0.5680804 -0.5954573 0.7760144 -0.2079341 -0.5954537 0.7760144 -0.2079341 -0.5954537 0.7760144 -0.2079341 -0.5954537 0.7760129 -0.2079312 -0.5954567 0.7760129 -0.2079312 -0.5954567 0.7760129 -0.2079312 -0.5954567 0.7760121 0.2079334 -0.595457 0.7760121 0.2079334 -0.595457 0.7760121 0.2079334 -0.595457 0.7760148 0.2079317 -0.5954539 0.7760148 0.2079317 -0.5954539 0.7760148 0.2079317 -0.5954539 0.5680804 0.5680804 -0.5954573 0.5680804 0.5680804 -0.5954573 0.5680804 0.5680804 -0.5954573 0.5680804 0.5680804 -0.5954573 0.5680804 0.5680804 -0.5954573 0.5680804 0.5680804 -0.5954573 0.2079341 0.7760144 -0.5954537 0.2079341 0.7760144 -0.5954537 0.2079341 0.7760144 -0.5954537 0.2079312 0.7760129 -0.5954567 0.2079312 0.7760129 -0.5954567 0.2079312 0.7760129 -0.5954567 -0.2079334 0.7760121 -0.595457 -0.2079334 0.7760121 -0.595457 -0.2079334 0.7760121 -0.595457 -0.2079317 0.7760148 -0.5954539 -0.2079317 0.7760148 -0.5954539 -0.2079317 0.7760148 -0.5954539 -0.5680804 0.5680804 -0.5954573 -0.5680804 0.5680804 -0.5954573 -0.5680804 0.5680804 -0.5954573 -0.5680804 0.5680804 -0.5954573 -0.5680804 0.5680804 -0.5954573 -0.5680804 0.5680804 -0.5954573 -0.7760144 0.2079341 -0.5954537 -0.7760144 0.2079341 -0.5954537 -0.7760144 0.2079341 -0.5954537 -0.7760129 0.2079312 -0.5954567 -0.7760129 0.2079312 -0.5954567 -0.7760129 0.2079312 -0.5954567 -0.8968095 -0.2402984 -0.3714693 -0.8968095 -0.2402984 -0.3714693 -0.8968095 -0.2402984 -0.3714693 -0.8968081 -0.2402997 -0.371472 -0.8968081 -0.2402997 -0.371472 -0.8968081 -0.2402997 -0.371472 -0.6565099 -0.6565099 -0.3714692 -0.6565099 -0.6565099 -0.3714692 -0.6565099 -0.6565099 -0.3714692 -0.6565099 -0.6565099 -0.3714693 -0.6565099 -0.6565099 -0.3714693 -0.6565099 -0.6565099 -0.3714693 -0.2402981 -0.8968083 -0.3714722 -0.2402981 -0.8968083 -0.3714722 -0.2402981 -0.8968083 -0.3714722 -0.2403 -0.896809 -0.3714694 -0.2403 -0.896809 -0.3714694 -0.2403 -0.896809 -0.3714694 0.2402984 -0.8968095 -0.3714692 0.2402984 -0.8968095 -0.3714692 0.2402984 -0.8968095 -0.3714692 0.2402997 -0.896808 -0.371472 0.2402997 -0.896808 -0.371472 0.2402997 -0.896808 -0.371472 0.6565099 -0.6565099 -0.3714693 0.6565099 -0.6565099 -0.3714693 0.6565099 -0.6565099 -0.3714693 0.6565099 -0.6565099 -0.3714692 0.6565099 -0.6565099 -0.3714692 0.6565099 -0.6565099 -0.3714692 0.8968083 -0.2402981 -0.3714722 0.8968083 -0.2402981 -0.3714722 0.8968083 -0.2402981 -0.3714722 0.896809 -0.2403 -0.3714694 0.896809 -0.2403 -0.3714694 0.896809 -0.2403 -0.3714694 0.8968095 0.2402984 -0.3714693 0.8968095 0.2402984 -0.3714693 0.8968095 0.2402984 -0.3714693 0.8968081 0.2402997 -0.371472 0.8968081 0.2402997 -0.371472 0.8968081 0.2402997 -0.371472 0.6565099 0.6565099 -0.3714692 0.6565099 0.6565099 -0.3714692 0.6565099 0.6565099 -0.3714692 0.6565099 0.6565099 -0.3714693 0.6565099 0.6565099 -0.3714693 0.6565099 0.6565099 -0.3714693 0.2402981 0.8968083 -0.3714722 0.2402981 0.8968083 -0.3714722 0.2402981 0.8968083 -0.3714722 0.2403 0.896809 -0.3714694 0.2403 0.896809 -0.3714694 0.2403 0.896809 -0.3714694 -0.2402984 0.8968095 -0.3714692 -0.2402984 0.8968095 -0.3714692 -0.2402984 0.8968095 -0.3714692 -0.2402997 0.896808 -0.371472 -0.2402997 0.896808 -0.371472 -0.2402997 0.896808 -0.371472 -0.6565099 0.6565099 -0.3714693 -0.6565099 0.6565099 -0.3714693 -0.6565099 0.6565099 -0.3714693 -0.6565099 0.6565099 -0.3714692 -0.6565099 0.6565099 -0.3714692 -0.6565099 0.6565099 -0.3714692 -0.8968083 0.2402981 -0.3714722 -0.8968083 0.2402981 -0.3714722 -0.8968083 0.2402981 -0.3714722 -0.896809 0.2403 -0.3714694 -0.896809 0.2403 -0.3714694 -0.896809 0.2403 -0.3714694</float_array>
                    <technique_common>
                        <accessor count="840" source="#geometry0-normal-array" stride="3">
                            <param name="X" type="float"/>
                            <param name="Y" type="float"/>
                            <param name="Z" type="float"/>
                        </accessor>
                    </technique_common>
                </source>
                <vertices id="geometry0-vertex">
                    <input semantic="POSITION" source="#geometry0-position"/>
                </vertices>
                <triangles count="288" material="default_ai_0.2_sh_0.2_tr_0.0_dc_r_0.8_g_0.8_b_0.8_sc_r_1.0_g_1.0_b_1.0_ec_r_0.0_g_0.0_b_0_tri">
                    <input offset="0" semantic="VERTEX" source="#geometry0-vertex"/>
                    <input offset="1" semantic="NORMAL" source="#geometry0-normal"/>
                    <p>50 0 49 1 61 2 50 3 61 4 62 5 49 6 51 7 63 8 49 9 63 10 61 11 51 12 52 13 64 14 51 15 64 16 63 17 52 18 53 19 65 20 52 21 65 22 64 23 53 24 54 25 66 26 53 27 66 28 65 29 54 30 55 31 67 32 54 33 67 34 66 35 55 36 56 37 68 38 55 39 68 40 67 41 56 42 57 43 69 44 56 45 69 46 68 47 57 48 58 49 70 50 57 51 70 52 69 53 58 54 59 55 71 56 58 57 71 58 70 59 59 60 60 61 72 62 59 63 72 64 71 65 60 66 50 67 62 68 60 69 62 70 72 71 62 72 61 73 73 74 62 75 73 76 74 77 61 78 63 79 75 80 61 81 75 82 73 83 63 84 64 85 76 86 63 87 76 88 75 89 64 90 65 91 77 92 64 93 77 94 76 95 65 96 66 97 78 98 65 99 78 100 77 101 66 102 67 103 79 104 66 105 79 106 78 107 67 108 68 109 80 110 67 111 80 112 79 113 68 114 69 115 81 116 68 117 81 118 80 119 69 120 70 121 82 122 69 123 82 124 81 125 70 126 71 127 83 128 70 129 83 130 82 131 71 132 72 133 84 134 71 135 84 136 83 137 72 138 62 139 74 140 72 141 74 142 84 143 74 144 73 145 85 146 74 147 85 148 86 149 73 150 75 151 87 152 73 153 87 154 85 155 75 156 76 157 88 158 75 159 88 160 87 161 76 162 77 163 89 164 76 165 89 166 88 167 77 168 78 169 90 170 77 171 90 172 89 173 78 174 79 175 91 176 78 177 91 178 90 179 79 180 80 181 92 182 79 183 92 184 91 185 80 186 81 187 93 188 80 189 93 190 92 191 81 192 82 193 94 194 81 195 94 196 93 197 82 198 83 199 95 200 82 201 95 202 94 203 83 204 84 205 96 206 83 207 96 208 95 209 84 210 74 211 86 212 84 213 86 214 96 215 86 216 85 217 97 218 86 219 97 220 98 221 85 222 87 223 99 224 85 225 99 226 97 227 87 228 88 229 100 230 87 231 100 232 99 233 88 234 89 235 101 236 88 237 101 238 100 239 89 240 90 241 102 242 89 243 102 244 101 245 90 246 91 247 103 248 90 249 103 250 102 251 91 252 92 253 104 254 91 255 104 256 103 257 92 258 93 259 105 260 92 261 105 262 104 263 93 264 94 265 106 266 93 267 106 268 105 269 94 270 95 271 107 272 94 273 107 274 106 275 95 276 96 277 108 278 95 279 108 280 107 281 96 282 86 283 98 284 96 285 98 286 108 287 98 288 97 289 109 290 98 291 109 292 110 293 97 294 99 295 111 296 97 297 111 298 109 299 99 300 100 301 112 302 99 303 112 304 111 305 100 306 101 307 113 308 100 309 113 310 112 311 101 312 102 313 114 314 101 315 114 316 113 317 102 318 103 319 115 320 102 321 115 322 114 323 103 324 104 325 116 326 103 327 116 328 115 329 104 330 105 331 117 332 104 333 117 334 116 335 105 336 106 337 118 338 105 339 118 340 117 341 106 342 107 343 119 344 106 345 119 346 118 347 107 348 108 349 120 350 107 351 120 352 119 353 108 354 98 355 110 356 108 357 110 358 120 359 110 360 109 361 121 362 110 363 121 364 122 365 109 366 111 367 123 368 109 369 123 370 121 371 111 372 112 373 124 374 111 375 124 376 123 377 112 378 113 379 125 380 112 381 125 382 124 383 113 384 114 385 126 386 113 387 126 388 125 389 114 390 115 391 127 392 114 393 127 394 126 395 115 396 116 397 128 398 115 399 128 400 127 401 116 402 117 403 129 404 116 405 129 406 128 407 117 408 118 409 130 410 117 411 130 412 129 413 118 414 119 415 131 416 118 417 131 418 130 419 119 420 120 421 132 422 119 423 132 424 131 425 120 426 110 427 122 428 120 429 122 430 132 431 122 432 121 433 133 434 122 435 133 436 133 436 121 437 123 438 133 439 121 440 133 441 133 441 123 442 124 443 133 444 123 445 133 446 133 446 124 447 125 448 133 449 124 450 133 451 133 451 125 452 126 453 133 454 125 455 133 456 133 456 126 457 127 458 133 459 126 460 133 461 133 461 127 462 128 463 133 464 127 465 133 466 133 466 128 467 129 468 133 469 128 470 133 471 133 471 129 472 130 473 133 474 129 475 133 476 133 476 130 477 131 478 133 479 130 480 133 481 133 481 131 482 132 483 133 484 131 485 133 486 133 486 132 487 122 488 133 489 132 490 133 491 133 491 0 492 0 492 1 493 0 494 1 495 2 496 0 497 0 497 3 498 0 499 3 500 1 501 0 502 0 502 4 503 0 504 4 505 3 506 0 507 0 507 5 508 0 509 5 510 4 511 0 512 0 512 6 513 0 514 6 515 5 516 0 517 0 517 7 518 0 519 7 520 6 521 0 522 0 522 8 523 0 524 8 525 7 526 0 527 0 527 9 528 0 529 9 530 8 531 0 532 0 532 10 533 0 534 10 535 9 536 0 537 0 537 11 538 0 539 11 540 10 541 0 542 0 542 12 543 0 544 12 545 11 546 0 547 0 547 2 548 0 549 2 550 12 551 2 552 1 553 13 554 2 555 13 556 14 557 1 558 3 559 15 560 1 561 15 562 13 563 3 564 4 565 16 566 3 567 16 568 15 569 4 570 5 571 17 572 4 573 17 574 16 575 5 576 6 577 18 578 5 579 18 580 17 581 6 582 7 583 19 584 6 585 19 586 18 587 7 588 8 589 20 590 7 591 20 592 19 593 8 594 9 595 21 596 8 597 21 598 20 599 9 600 10 601 22 602 9 603 22 604 21 605 10 606 11 607 23 608 10 609 23 610 22 611 11 612 12 613 24 614 11 615 24 616 23 617 12 618 2 619 14 620 12 621 14 622 24 623 14 624 13 625 25 626 14 627 25 628 26 629 13 630 15 631 27 632 13 633 27 634 25 635 15 636 16 637 28 638 15 639 28 640 27 641 16 642 17 643 29 644 16 645 29 646 28 647 17 648 18 649 30 650 17 651 30 652 29 653 18 654 19 655 31 656 18 657 31 658 30 659 19 660 20 661 32 662 19 663 32 664 31 665 20 666 21 667 33 668 20 669 33 670 32 671 21 672 22 673 34 674 21 675 34 676 33 677 22 678 23 679 35 680 22 681 35 682 34 683 23 684 24 685 36 686 23 687 36 688 35 689 24 690 14 691 26 692 24 693 26 694 36 695 26 696 25 697 37 698 26 699 37 700 38 701 25 702 27 703 39 704 25 705 39 706 37 707 27 708 28 709 40 710 27 711 40 712 39 713 28 714 29 715 41 716 28 717 41 718 40 719 29 720 30 721 42 722 29 723 42 724 41 725 30 726 31 727 43 728 30 729 43 730 42 731 31 732 32 733 44 734 31 735 44 736 43 737 32 738 33 739 45 740 32 741 45 742 44 743 33 744 34 745 46 746 33 747 46 748 45 749 34 750 35 751 47 752 34 753 47 754 46 755 35 756 36 757 48 758 35 759 48 760 47 761 36 762 26 763 38 764 36 765 38 766 48 767 38 768 37 769 49 770 38 771 49 772 50 773 37 774 39 775 51 776 37 777 51 778 49 779 39 780 40 781 52 782 39 783 52 784 51 785 40 786 41 787 53 788 40 789 53 790 52 791 41 792 42 793 54 794 41 795 54 796 53 797 42 798 43 799 55 800 42 801 55 802 54 803 43 804 44 805 56 806 43 807 56 808 55 809 44 810 45 811 57 812 44 813 57 814 56 815 45 816 46 817 58 818 45 819 58 820 57 821 46 822 47 823 59 824 46 825 59 826 58 827 47 828 48 829 60 830 47 831 60 832 59 833 48 834 38 835 50 836 48 837 50 838 60 839</p>
                </triangles>
            </mesh>
        </geometry>
    </library_geometries>
    <library_visual_scenes>
        <visual_scene id="Building_34_CROWN2">
            <node>
                <instance_geometry url="#geometry0">
                    <bind_material>
                        <technique_common>
                            <instance_material symbol="default_ai_0.2_sh_0.2_tr_0.0_dc_r_0.8_g_0.8_b_0.8_sc_r_1.0_g_1.0_b_1.0_ec_r_0.0_g_0.0_b_0_tri" target="#default_ai_0.2_sh_0.2_tr_0.0_dc_r_0.8_g_0.8_b_0.8_sc_r_1.0_g_1.0_b_1.0_ec_r_0.0_g_0.0_b_0_mat"/>
                        </technique_common>
                    </bind_material>
                </instance_geometry>
            </node>
        </visual_scene>
    </library_visual_scenes>
    <scene>
        <instance_visual_scene url="#Building_34_CROWN2"/>
    </scene>
</COLLADA>
