<?xml version="1.0" encoding="UTF-8" standalone="yes"?>
<COLLADA xmlns="http://www.collada.org/2005/11/COLLADASchema" version="1.4.1">
    <asset>
        <contributor>
            <authoring_tool>3D City Database Importer/Exporter, version 5.5.3; Chair of Geoinformatics, Technical University of Munich</authoring_tool>
        </contributor>
        <created>2026-09-25T14:45:33.833</created>
        <modified>2026-09-25T14:45:33.833</modified>
        <unit meter="1.0" name="meters"/>
        <up_axis>Z_UP</up_axis>
    </asset>
    <library_materials>
        <material id="default_ai_0.2_sh_0.2_tr_0.0_dc_r_0.8_g_0.8_b_0.8_sc_r_1.0_g_1.0_b_1.0_ec_r_0.0_g_0.0_b_0_mat">
            <instance_effect url="#default_ai_0.2_sh_0.2_tr_0.0_dc_r_0.8_g_0.8_b_0.8_sc_r_1.0_g_1.0_b_1.0_ec_r_0.0_g_0.0_b_0_eff"/>
        </material>
    </library_materials>
    <library_effects>
        <effect id="default_ai_0.2_sh_0.2_tr_0.0_dc_r_0.8_g_0.8_b_0.8_sc_r_1.0_g_1.0_b_1.0_ec_r_0.0_g_0.0_b_0_eff">
            <profile_COMMON>
                <technique sid="COMMON">
                    <lambert>
                        <emission>
                            <color>0.0 0.0 0.0 1.0</color>
                        </emission>
                        <diffuse>
                            <color>0.8 0.8 0.8 1.0</color>
                        </diffuse>
                        <reflective>
                            <color>1.0 1.0 1.0 1.0</color>
                        </reflective>
                        <reflectivity>
                            <float>0.2</float>
                        </reflectivity>
                        <transparent opaque="A_ONE">
                            <color>1.0 1.0 1.0 1.0</color>
                        </transparent>
                        <transparency>
                            <float>1.0</float>
                        </transparency>
                    </lambert>
                </technique>
                <extra>
                    <technique profile="GOOGLEEARTH">
                        <double_sided>0</double_sided>
                    </technique>
                </extra>
            </profile_COMMON>
        </effect>
    </library_effects>
    <library_geometries>
        <geometry id="geometry0">
            <mesh>
                <source id="geometry0-position">
                    <float_array id="geometry0-position-array" count="402">0.0 0.0 1.3 0.1456936 0.0841165 1.2778519 0.1682324 0.0 1.2778519 0.0841165 0.1456936 1.2778519 0.0 0.1682323 1.2778519 -0.0841165 0.1456936 1.2778519 -0.1456936 0.0841165 1.2778519 -0.1682324 0.0 1.2778519 -0.1456936 -0.0841165 1.2778519 -0.0841165 -0.1456936 1.2778519 0.0 -0.1682323 1.2778519 0.0841165 -0.1456936 1.2778519 0.1456936 -0.0841165 1.2778519 0.2814585 0.1625 1.2129163 0.325 0.0 1.2129163 0.1625 0.2814584 1.2129163 0.0 0.325 1.2129163 -0.1625 0.2814584 1.2129163 -0.2814585 0.1625 1.2129163 -0.325 0.0 1.2129163 -0.2814585 -0.1625 1.2129163 -0.1625 -0.2814584 1.2129163 0.0 -0.325 1.2129163 0.1625 -0.2814584 1.2129163 0.2814585 -0.1625 1.2129163 0.3980418 0.2298094 1.1096189 0.4596195 0.0 1.1096189 0.2298094 0.3980418 1.1096189 0.0 0.4596196 1.1096189 -0.2298094 0.3980418 1.1096189 -0.3980418 0.2298094 1.1096189 -0.4596195 0.0 1.1096189 -0.3980418 -0.2298094 1.1096189 -0.2298094 -0.3980418 1.1096189 0.0 -0.4596196 1.1096189 0.2298094 -0.3980418 1.1096189 0.3980418 -0.2298094 1.1096189 0.4875 0.2814584 0.975 0.5629163 0.0 0.975 0.2814585 0.4875 0.975 0.0 0.5629162 0.975 -0.2814585 0.4875 0.975 -0.4875 0.2814584 0.975 -0.5629163 0.0 0.975 -0.4875 -0.2814584 0.975 -0.2814585 -0.4875 0.975 0.0 -0.5629162 0.975 0.2814585 -0.4875 0.975 0.4875 -0.2814584 0.975 0.5437354 0.3139259 0.8182324 0.6278519 0.0 0.8182324 0.3139259 0.5437354 0.8182324 0.0 0.6278519 0.8182324 -0.3139259 0.5437354 0.8182324 -0.5437354 0.3139259 0.8182324 -0.6278519 0.0 0.8182324 -0.5437354 -0.3139259 0.8182324 -0.3139259 -0.5437354 0.8182324 0.0 -0.6278519 0.8182324 0.3139259 -0.5437354 0.8182324 0.5437354 -0.3139259 0.8182324 0.5629163 0.325 0.65 0.65 0.0 0.65 0.325 0.5629162 0.65 0.0 0.65 0.65 -0.325 0.5629162 0.65 -0.5629163 0.325 0.65 -0.65 0.0 0.65 -0.5629163 -0.325 0.65 -0.325 -0.5629162 0.65 0.0 -0.65 0.65 0.325 -0.5629162 0.65 0.5629163 -0.325 0.65 0.5437354 0.3139259 0.4817677 0.6278519 0.0 0.4817677 0.3139259 0.5437354 0.4817677 0.0 0.6278519 0.4817677 -0.3139259 0.5437354 0.4817677 -0.5437354 0.3139259 0.4817677 -0.6278519 0.0 0.4817677 -0.5437354 -0.3139259 0.4817677 -0.3139259 -0.5437354 0.4817677 0.0 -0.6278519 0.4817677 0.3139259 -0.5437354 0.4817677 0.5437354 -0.3139259 0.4817677 0.4875 0.2814584 0.325 0.5629163 0.0 0.325 0.2814585 0.4875 0.325 0.0 0.5629162 0.325 -0.2814585 0.4875 0.325 -0.4875 0.2814584 0.325 -0.5629163 0.0 0.325 -0.4875 -0.2814584 0.325 -0.2814585 -0.4875 0.325 0.0 -0.5629162 0.325 0.2814585 -0.4875 0.325 0.4875 -0.2814584 0.325 0.3980418 0.2298094 0.1903805 0.4596195 0.0 0.1903805 0.2298094 0.3980418 0.1903805 0.0 0.4596196 0.1903805 -0.2298094 0.3980418 0.1903805 -0.3980418 0.2298094 0.1903805 -0.4596195 0.0 0.1903805 -0.3980418 -0.2298094 0.1903805 -0.2298094 -0.3980418 0.1903805 0.0 -0.4596196 0.1903805 0.2298094 -0.3980418 0.1903805 0.3980418 -0.2298094 0.1903805 0.2814585 0.1625 0.0870831 0.325 0.0 0.0870831 0.1625 0.2814584 0.0870831 0.0 0.325 0.0870831 -0.1625 0.2814584 0.0870831 -0.2814585 0.1625 0.0870831 -0.325 0.0 0.0870831 -0.2814585 -0.1625 0.0870831 -0.1625 -0.2814584 0.0870831 0.0 -0.325 0.0870831 0.1625 -0.2814584 0.0870831 0.2814585 -0.1625 0.0870831 0.1456936 0.0841165 0.0221481 0.1682324 0.0 0.0221481 0.0841165 0.1456936 0.0221481 0.0 0.1682323 0.0221481 -0.0841165 0.1456936 0.0221481 -0.1456936 0.0841165 0.0221481 -0.1682324 0.0 0.0221481 -0.1456936 -0.0841165 0.0221481 -0.0841165 -0.1456936 0.0221481 0.0 -0.1682323 0.0221481 0.0841165 -0.1456936 0.0221481 0.1456936 -0.0841165 0.0221481 0.0 0.0 0.0</float_array>
                    <technique_common>
                        <accessor count="134" source="#geometry0-position-array" stride="3">
                            <param name="X" type="float"/>
                            <param name="Y" type="float"/>
                            <param name="Z" type="float"/>
                        </accessor>
                    </technique_common>
                </source>
                <source id="geometry0-normal">
                    <float_array id="geometry0-normal-array" count="2520">-0.2079338 -0.776013 -0.5954558 -0.2079338 -0.776013 -0.5954558 -0.2079338 -0.776013 -0.5954558 -0.2079308 -0.7760112 -0.5954589 -0.2079308 -0.7760112 -0.5954589 -0.2079308 -0.7760112 -0.5954589 0.2079331 -0.7760104 -0.5954592 0.2079331 -0.7760104 -0.5954592 0.2079331 -0.7760104 -0.5954592 0.2079313 -0.7760133 -0.5954561 0.2079313 -0.7760133 -0.5954561 0.2079313 -0.7760133 -0.5954561 0.5680793 -0.5680794 -0.5954594 0.5680793 -0.5680794 -0.5954594 0.5680793 -0.5680794 -0.5954594 0.5680793 -0.5680793 -0.5954595 0.5680793 -0.5680793 -0.5954595 0.5680793 -0.5680793 -0.5954595 0.7760128 -0.2079336 -0.5954558 0.7760128 -0.2079336 -0.5954558 0.7760128 -0.2079336 -0.5954558 0.7760113 -0.2079308 -0.5954587 0.7760113 -0.2079308 -0.5954587 0.7760113 -0.2079308 -0.5954587 0.7760105 0.207933 -0.595459 0.7760105 0.207933 -0.595459 0.7760105 0.207933 -0.595459 0.7760133 0.2079313 -0.5954561 0.7760133 0.2079313 -0.5954561 0.7760133 0.2079313 -0.5954561 0.5680792 0.5680793 -0.5954595 0.5680792 0.5680793 -0.5954595 0.5680792 0.5680793 -0.5954595 0.5680793 0.5680793 -0.5954593 0.5680793 0.5680793 -0.5954593 0.5680793 0.5680793 -0.5954593 0.2079338 0.776013 -0.5954558 0.2079338 0.776013 -0.5954558 0.2079338 0.776013 -0.5954558 0.2079308 0.7760112 -0.5954589 0.2079308 0.7760112 -0.5954589 0.2079308 0.7760112 -0.5954589 -0.2079331 0.7760104 -0.5954592 -0.2079331 0.7760104 -0.5954592 -0.2079331 0.7760104 -0.5954592 -0.2079313 0.7760133 -0.5954561 -0.2079313 0.7760133 -0.5954561 -0.2079313 0.7760133 -0.5954561 -0.5680793 0.5680794 -0.5954594 -0.5680793 0.5680794 -0.5954594 -0.5680793 0.5680794 -0.5954594 -0.5680793 0.5680793 -0.5954595 -0.5680793 0.5680793 -0.5954595 -0.5680793 0.5680793 -0.5954595 -0.7760128 0.2079336 -0.5954558 -0.7760128 0.2079336 -0.5954558 -0.7760128 0.2079336 -0.5954558 -0.7760113 0.2079308 -0.5954587 -0.7760113 0.2079308 -0.5954587 -0.7760113 0.2079308 -0.5954587 -0.8968096 -0.2402984 -0.3714689 -0.8968096 -0.2402984 -0.3714689 -0.8968096 -0.2402984 -0.3714689 -0.896808 -0.2402999 -0.3714719 -0.896808 -0.2402999 -0.3714719 -0.896808 -0.2402999 -0.3714719 -0.65651 -0.65651 -0.371469 -0.65651 -0.65651 -0.371469 -0.65651 -0.65651 -0.371469 -0.65651 -0.65651 -0.3714691 -0.65651 -0.65651 -0.3714691 -0.65651 -0.65651 -0.3714691 -0.2402981 -0.8968084 -0.3714721 -0.2402981 -0.8968084 -0.3714721 -0.2402981 -0.8968084 -0.3714721 -0.2403002 -0.8968092 -0.3714691 -0.2403002 -0.8968092 -0.3714691 -0.2403002 -0.8968092 -0.3714691 0.2402984 -0.8968096 -0.3714689 0.2402984 -0.8968096 -0.3714689 0.2402984 -0.8968096 -0.3714689 0.2402999 -0.896808 -0.3714719 0.2402999 -0.896808 -0.3714719 0.2402999 -0.896808 -0.3714719 0.65651 -0.65651 -0.371469 0.65651 -0.65651 -0.371469 0.65651 -0.65651 -0.371469 0.65651 -0.65651 -0.3714691 0.65651 -0.65651 -0.3714691 0.65651 -0.65651 -0.3714691 0.8968084 -0.2402981 -0.3714721 0.8968084 -0.2402981 -0.3714721 0.8968084 -0.2402981 -0.3714721 0.8968092 -0.2403002 -0.3714691 0.8968092 -0.2403002 -0.3714691 0.8968092 -0.2403002 -0.3714691 0.8968096 0.2402984 -0.3714689 0.8968096 0.2402984 -0.3714689 0.8968096 0.2402984 -0.3714689 0.896808 0.2402999 -0.3714719 0.896808 0.2402999 -0.3714719 0.896808 0.2402999 -0.3714719 0.65651 0.65651 -0.371469 0.65651 0.65651 -0.371469 0.65651 0.65651 -0.371469 0.65651 0.65651 -0.3714691 0.65651 0.65651 -0.3714691 0.65651 0.65651 -0.3714691 0.2402981 0.8968084 -0.3714721 0.2402981 0.8968084 -0.3714721 0.2402981 0.8968084 -0.3714721 0.2403002 0.8968092 -0.3714691 0.2403002 0.8968092 -0.3714691 0.2403002 0.8968092 -0.3714691 -0.2402984 0.8968096 -0.3714689 -0.2402984 0.8968096 -0.3714689 -0.2402984 0.8968096 -0.3714689 -0.2402999 0.896808 -0.3714719 -0.2402999 0.896808 -0.3714719 -0.2402999 0.896808 -0.3714719 -0.65651 0.65651 -0.371469 -0.65651 0.65651 -0.371469 -0.65651 0.65651 -0.371469 -0.65651 0.65651 -0.3714691 -0.65651 0.65651 -0.3714691 -0.65651 0.65651 -0.3714691 -0.8968084 0.2402981 -0.3714721 -0.8968084 0.2402981 -0.3714721 -0.8968084 0.2402981 -0.3714721 -0.8968092 0.2403002 -0.3714691 -0.8968092 0.2403002 -0.3714691 -0.8968092 0.2403002 -0.3714691 -0.958209 -0.2567523 -0.1261504 -0.958209 -0.2567523 -0.1261504 -0.958209 -0.2567523 -0.1261504 -0.9582092 -0.256752 -0.1261498 -0.9582092 -0.256752 -0.1261498 -0.9582092 -0.256752 -0.1261498 -0.7014578 -0.7014578 -0.1261503 -0.7014578 -0.7014578 -0.1261503 -0.7014578 -0.7014578 -0.1261503 -0.7014578 -0.7014578 -0.1261503 -0.7014578 -0.7014578 -0.1261503 -0.7014578 -0.7014578 -0.1261503 -0.2567523 -0.958209 -0.1261498 -0.2567523 -0.958209 -0.1261498 -0.2567523 -0.958209 -0.1261498 -0.256752 -0.958209 -0.1261504 -0.256752 -0.958209 -0.1261504 -0.256752 -0.958209 -0.1261504 0.2567523 -0.958209 -0.1261504 0.2567523 -0.958209 -0.1261504 0.2567523 -0.958209 -0.1261504 0.256752 -0.9582092 -0.1261498 0.256752 -0.9582092 -0.1261498 0.256752 -0.9582092 -0.1261498 0.7014578 -0.7014578 -0.1261503 0.7014578 -0.7014578 -0.1261503 0.7014578 -0.7014578 -0.1261503 0.7014578 -0.7014578 -0.1261503 0.7014578 -0.7014578 -0.1261503 0.7014578 -0.7014578 -0.1261503 0.958209 -0.2567523 -0.1261498 0.958209 -0.2567523 -0.1261498 0.958209 -0.2567523 -0.1261498 0.958209 -0.256752 -0.1261504 0.958209 -0.256752 -0.1261504 0.958209 -0.256752 -0.1261504 0.958209 0.2567523 -0.1261504 0.958209 0.2567523 -0.1261504 0.958209 0.2567523 -0.1261504 0.9582092 0.256752 -0.1261498 0.9582092 0.256752 -0.1261498 0.9582092 0.256752 -0.1261498 0.7014578 0.7014578 -0.1261503 0.7014578 0.7014578 -0.1261503 0.7014578 0.7014578 -0.1261503 0.7014578 0.7014578 -0.1261503 0.7014578 0.7014578 -0.1261503 0.7014578 0.7014578 -0.1261503 0.2567523 0.958209 -0.1261498 0.2567523 0.958209 -0.1261498 0.2567523 0.958209 -0.1261498 0.256752 0.958209 -0.1261504 0.256752 0.958209 -0.1261504 0.256752 0.958209 -0.1261504 -0.2567523 0.958209 -0.1261504 -0.2567523 0.958209 -0.1261504 -0.2567523 0.958209 -0.1261504 -0.256752 0.9582092 -0.1261498 -0.256752 0.9582092 -0.1261498 -0.256752 0.9582092 -0.1261498 -0.7014578 0.7014578 -0.1261503 -0.7014578 0.7014578 -0.1261503 -0.7014578 0.7014578 -0.1261503 -0.7014578 0.7014578 -0.1261503 -0.7014578 0.7014578 -0.1261503 -0.7014578 0.7014578 -0.1261503 -0.958209 0.2567523 -0.1261498 -0.958209 0.2567523 -0.1261498 -0.958209 0.2567523 -0.1261498 -0.958209 0.256752 -0.1261504 -0.958209 0.256752 -0.1261504 -0.958209 0.256752 -0.1261504 -0.958209 -0.256752 0.1261505 -0.958209 -0.256752 0.1261505 -0.958209 -0.256752 0.1261505 -0.958209 -0.2567523 0.1261499 -0.958209 -0.2567523 0.1261499 -0.958209 -0.2567523 0.1261499 -0.7014578 -0.7014578 0.1261503 -0.7014578 -0.7014578 0.1261503 -0.7014578 -0.7014578 0.1261503 -0.7014578 -0.7014578 0.1261503 -0.7014578 -0.7014578 0.1261503 -0.7014578 -0.7014578 0.1261503 -0.256752 -0.958209 0.1261498 -0.256752 -0.958209 0.1261498 -0.256752 -0.958209 0.1261498 -0.2567523 -0.9582089 0.1261505 -0.2567523 -0.9582089 0.1261505 -0.2567523 -0.9582089 0.1261505 0.256752 -0.958209 0.1261505 0.256752 -0.958209 0.1261505 0.256752 -0.958209 0.1261505 0.2567523 -0.958209 0.1261499 0.2567523 -0.958209 0.1261499 0.2567523 -0.958209 0.1261499 0.7014578 -0.7014578 0.1261503 0.7014578 -0.7014578 0.1261503 0.7014578 -0.7014578 0.1261503 0.7014578 -0.7014578 0.1261503 0.7014578 -0.7014578 0.1261503 0.7014578 -0.7014578 0.1261503 0.958209 -0.256752 0.1261498 0.958209 -0.256752 0.1261498 0.958209 -0.256752 0.1261498 0.9582089 -0.2567523 0.1261505 0.9582089 -0.2567523 0.1261505 0.9582089 -0.2567523 0.1261505 0.958209 0.256752 0.1261505 0.958209 0.256752 0.1261505 0.958209 0.256752 0.1261505 0.958209 0.2567523 0.1261499 0.958209 0.2567523 0.1261499 0.958209 0.2567523 0.1261499 0.7014578 0.7014578 0.1261503 0.7014578 0.7014578 0.1261503 0.7014578 0.7014578 0.1261503 0.7014578 0.7014578 0.1261503 0.7014578 0.7014578 0.1261503 0.7014578 0.7014578 0.1261503 0.256752 0.958209 0.1261498 0.256752 0.958209 0.1261498 0.256752 0.958209 0.1261498 0.2567523 0.9582089 0.1261505 0.2567523 0.9582089 0.1261505 0.2567523 0.9582089 0.1261505 -0.256752 0.958209 0.1261505 -0.256752 0.958209 0.1261505 -0.256752 0.958209 0.1261505 -0.2567523 0.958209 0.1261499 -0.2567523 0.958209 0.1261499 -0.2567523 0.958209 0.1261499 -0.7014578 0.7014578 0.1261503 -0.7014578 0.7014578 0.1261503 -0.7014578 0.7014578 0.1261503 -0.7014578 0.7014578 0.1261503 -0.7014578 0.7014578 0.1261503 -0.7014578 0.7014578 0.1261503 -0.958209 0.256752 0.1261498 -0.958209 0.256752 0.1261498 -0.958209 0.256752 0.1261498 -0.9582089 0.2567523 0.1261505 -0.9582089 0.2567523 0.1261505 -0.9582089 0.2567523 0.1261505 -0.8968092 -0.2403002 0.3714691 -0.8968092 -0.2403002 0.3714691 -0.8968092 -0.2403002 0.3714691 -0.8968084 -0.2402981 0.3714721 -0.8968084 -0.2402981 0.3714721 -0.8968084 -0.2402981 0.3714721 -0.65651 -0.65651 0.371469 -0.65651 -0.65651 0.371469 -0.65651 -0.65651 0.371469 -0.65651 -0.65651 0.371469 -0.65651 -0.65651 0.371469 -0.65651 -0.65651 0.371469 -0.2402999 -0.896808 0.3714719 -0.2402999 -0.896808 0.3714719 -0.2402999 -0.896808 0.3714719 -0.2402985 -0.8968096 0.3714689 -0.2402985 -0.8968096 0.3714689 -0.2402985 -0.8968096 0.3714689 0.2403002 -0.8968092 0.3714691 0.2403002 -0.8968092 0.3714691 0.2403002 -0.8968092 0.3714691 0.2402981 -0.8968084 0.3714721 0.2402981 -0.8968084 0.3714721 0.2402981 -0.8968084 0.3714721 0.65651 -0.65651 0.371469 0.65651 -0.65651 0.371469 0.65651 -0.65651 0.371469 0.65651 -0.65651 0.371469 0.65651 -0.65651 0.371469 0.65651 -0.65651 0.371469 0.896808 -0.2402999 0.3714719 0.896808 -0.2402999 0.3714719 0.896808 -0.2402999 0.3714719 0.8968096 -0.2402985 0.3714689 0.8968096 -0.2402985 0.3714689 0.8968096 -0.2402985 0.3714689 0.8968092 0.2403002 0.3714691 0.8968092 0.2403002 0.3714691 0.8968092 0.2403002 0.3714691 0.8968084 0.2402981 0.3714721 0.8968084 0.2402981 0.3714721 0.8968084 0.2402981 0.3714721 0.65651 0.65651 0.371469 0.65651 0.65651 0.371469 0.65651 0.65651 0.371469 0.65651 0.65651 0.371469 0.65651 0.65651 0.371469 0.65651 0.65651 0.371469 0.2402999 0.896808 0.3714719 0.2402999 0.896808 0.3714719 0.2402999 0.896808 0.3714719 0.2402985 0.8968096 0.3714689 0.2402985 0.8968096 0.3714689 0.2402985 0.8968096 0.3714689 -0.2403002 0.8968092 0.3714691 -0.2403002 0.8968092 0.3714691 -0.2403002 0.8968092 0.3714691 -0.2402981 0.8968084 0.3714721 -0.2402981 0.8968084 0.3714721 -0.2402981 0.8968084 0.3714721 -0.65651 0.65651 0.371469 -0.65651 0.65651 0.371469 -0.65651 0.65651 0.371469 -0.65651 0.65651 0.371469 -0.65651 0.65651 0.371469 -0.65651 0.65651 0.371469 -0.896808 0.2402999 0.3714719 -0.896808 0.2402999 0.3714719 -0.896808 0.2402999 0.3714719 -0.8968096 0.2402985 0.3714689 -0.8968096 0.2402985 0.3714689 -0.8968096 0.2402985 0.3714689 -0.7760128 -0.2079312 0.595457 -0.7760128 -0.2079312 0.595457 -0.7760128 -0.2079312 0.595457 -0.7760143 -0.207934 0.5954539 -0.7760143 -0.207934 0.5954539 -0.7760143 -0.207934 0.5954539 -0.5680802 -0.5680802 0.5954576 -0.5680802 -0.5680802 0.5954576 -0.5680802 -0.5680802 0.5954576 -0.5680802 -0.5680804 0.5954575 -0.5680802 -0.5680804 0.5954575 -0.5680802 -0.5680804 0.5954575 -0.2079317 -0.7760146 0.5954542 -0.2079317 -0.7760146 0.5954542 -0.2079317 -0.7760146 0.5954542 -0.2079334 -0.7760118 0.5954573 -0.2079334 -0.7760118 0.5954573 -0.2079334 -0.7760118 0.5954573 0.2079311 -0.7760126 0.595457 0.2079311 -0.7760126 0.595457 0.2079311 -0.7760126 0.595457 0.2079341 -0.7760142 0.5954539 0.2079341 -0.7760142 0.5954539 0.2079341 -0.7760142 0.5954539 0.5680803 -0.5680803 0.5954575 0.5680803 -0.5680803 0.5954575 0.5680803 -0.5680803 0.5954575 0.5680802 -0.5680803 0.5954576 0.5680802 -0.5680803 0.5954576 0.5680802 -0.5680803 0.5954576 0.7760146 -0.2079317 0.5954542 0.7760146 -0.2079317 0.5954542 0.7760146 -0.2079317 0.5954542 0.7760119 -0.2079334 0.5954572 0.7760119 -0.2079334 0.5954572 0.7760119 -0.2079334 0.5954572 0.7760128 0.2079312 0.595457 0.7760128 0.2079312 0.595457 0.7760128 0.2079312 0.595457 0.7760143 0.207934 0.5954539 0.7760143 0.207934 0.5954539 0.7760143 0.207934 0.5954539 0.5680802 0.5680802 0.5954576 0.5680802 0.5680802 0.5954576 0.5680802 0.5680802 0.5954576 0.5680802 0.5680804 0.5954575 0.5680802 0.5680804 0.5954575 0.5680802 0.5680804 0.5954575 0.2079317 0.7760146 0.5954542 0.2079317 0.7760146 0.5954542 0.2079317 0.7760146 0.5954542 0.2079334 0.7760118 0.5954573 0.2079334 0.7760118 0.5954573 0.2079334 0.7760118 0.5954573 -0.2079311 0.7760126 0.595457 -0.2079311 0.7760126 0.595457 -0.2079311 0.7760126 0.595457 -0.2079341 0.7760142 0.5954539 -0.2079341 0.7760142 0.5954539 -0.2079341 0.7760142 0.5954539 -0.5680803 0.5680803 0.5954575 -0.5680803 0.5680803 0.5954575 -0.5680803 0.5680803 0.5954575 -0.5680802 0.5680803 0.5954576 -0.5680802 0.5680803 0.5954576 -0.5680802 0.5680803 0.5954576 -0.7760146 0.2079317 0.5954542 -0.7760146 0.2079317 0.5954542 -0.7760146 0.2079317 0.5954542 -0.7760119 0.2079334 0.5954572 -0.7760119 0.2079334 0.5954572 -0.7760119 0.2079334 0.5954572 -0.6008226 -0.1609912 0.7830032 -0.6008226 -0.1609912 0.7830032 -0.6008226 -0.1609912 0.7830032 -0.6008213 -0.1609889 0.7830046 -0.6008213 -0.1609889 0.7830046 -0.6008213 -0.1609889 0.7830046 -0.4398331 -0.4398331 0.7830031 -0.4398331 -0.4398331 0.7830031 -0.4398331 -0.4398331 0.7830031 -0.439833 -0.439833 0.783003 -0.439833 -0.439833 0.783003 -0.439833 -0.439833 0.783003 -0.1609909 -0.6008211 0.7830043 -0.1609909 -0.6008211 0.7830043 -0.1609909 -0.6008211 0.7830043 -0.1609894 -0.6008235 0.7830029 -0.1609894 -0.6008235 0.7830029 -0.1609894 -0.6008235 0.7830029 0.1609913 -0.6008227 0.7830031 0.1609913 -0.6008227 0.7830031 0.1609913 -0.6008227 0.7830031 0.1609889 -0.6008213 0.7830046 0.1609889 -0.6008213 0.7830046 0.1609889 -0.6008213 0.7830046 0.439833 -0.439833 0.783003 0.439833 -0.439833 0.783003 0.439833 -0.439833 0.783003 0.4398331 -0.4398331 0.783003 0.4398331 -0.4398331 0.783003 0.4398331 -0.4398331 0.783003 0.6008212 -0.1609908 0.7830044 0.6008212 -0.1609908 0.7830044 0.6008212 -0.1609908 0.7830044 0.6008234 -0.1609894 0.783003 0.6008234 -0.1609894 0.783003 0.6008234 -0.1609894 0.783003 0.6008226 0.1609912 0.7830032 0.6008226 0.1609912 0.7830032 0.6008226 0.1609912 0.7830032 0.6008213 0.1609889 0.7830046 0.6008213 0.1609889 0.7830046 0.6008213 0.1609889 0.7830046 0.4398331 0.4398331 0.7830031 0.4398331 0.4398331 0.7830031 0.4398331 0.4398331 0.7830031 0.439833 0.439833 0.783003 0.439833 0.439833 0.783003 0.439833 0.439833 0.783003 0.1609909 0.6008211 0.7830043 0.1609909 0.6008211 0.7830043 0.1609909 0.6008211 0.7830043 0.1609894 0.6008235 0.7830029 0.1609894 0.6008235 0.7830029 0.1609894 0.6008235 0.7830029 -0.1609913 0.6008227 0.7830031 -0.1609913 0.6008227 0.7830031 -0.1609913 0.6008227 0.7830031 -0.1609889 0.6008213 0.7830046 -0.1609889 0.6008213 0.7830046 -0.1609889 0.6008213 0.7830046 -0.439833 0.439833 0.783003 -0.439833 0.439833 0.783003 -0.439833 0.439833 0.783003 -0.4398331 0.4398331 0.783003 -0.4398331 0.4398331 0.783003 -0.4398331 0.4398331 0.783003 -0.6008212 0.1609908 0.7830044 -0.6008212 0.1609908 0.7830044 -0.6008212 0.1609908 0.7830044 -0.6008234 0.1609894 0.783003 -0.6008234 0.1609894 0.783003 -0.6008234 0.1609894 0.783003 -0.3806861 -0.1020041 0.919061 -0.3806861 -0.1020041 0.919061 -0.3806861 -0.1020041 0.919061 -0.380686 -0.1020036 0.9190612 -0.380686 -0.1020036 0.9190612 -0.380686 -0.1020036 0.9190612 -0.2786817 -0.2786817 0.9190609 -0.2786817 -0.2786817 0.9190609 -0.2786817 -0.2786817 0.9190609 -0.2786817 -0.2786817 0.919061 -0.2786817 -0.2786817 0.919061 -0.2786817 -0.2786817 0.919061 -0.102004 -0.3806859 0.9190611 -0.102004 -0.3806859 0.9190611 -0.102004 -0.3806859 0.9190611 -0.1020037 -0.3806863 0.919061 -0.1020037 -0.3806863 0.919061 -0.1020037 -0.3806863 0.919061 0.1020041 -0.3806861 0.919061 0.1020041 -0.3806861 0.919061 0.1020041 -0.3806861 0.919061 0.1020036 -0.380686 0.9190612 0.1020036 -0.380686 0.9190612 0.1020036 -0.380686 0.9190612 0.2786817 -0.2786817 0.9190609 0.2786817 -0.2786817 0.9190609 0.2786817 -0.2786817 0.9190609 0.2786817 -0.2786817 0.919061 0.2786817 -0.2786817 0.919061 0.2786817 -0.2786817 0.919061 0.3806859 -0.102004 0.9190611 0.3806859 -0.102004 0.9190611 0.3806859 -0.102004 0.9190611 0.3806863 -0.1020037 0.919061 0.3806863 -0.1020037 0.919061 0.3806863 -0.1020037 0.919061 0.3806861 0.1020041 0.919061 0.3806861 0.1020041 0.919061 0.3806861 0.1020041 0.919061 0.380686 0.1020036 0.9190612 0.380686 0.1020036 0.9190612 0.380686 0.1020036 0.9190612 0.2786817 0.2786817 0.9190609 0.2786817 0.2786817 0.9190609 0.2786817 0.2786817 0.9190609 0.2786817 0.2786817 0.919061 0.2786817 0.2786817 0.919061 0.2786817 0.2786817 0.919061 0.102004 0.3806859 0.9190611 0.102004 0.3806859 0.9190611 0.102004 0.3806859 0.9190611 0.1020037 0.3806863 0.919061 0.1020037 0.3806863 0.919061 0.1020037 0.3806863 0.919061 -0.1020041 0.3806861 0.919061 -0.1020041 0.3806861 0.919061 -0.1020041 0.3806861 0.919061 -0.1020036 0.380686 0.9190612 -0.1020036 0.380686 0.9190612 -0.1020036 0.380686 0.9190612 -0.2786817 0.2786817 0.9190609 -0.2786817 0.2786817 0.9190609 -0.2786817 0.2786817 0.9190609 -0.2786817 0.2786817 0.919061 -0.2786817 0.2786817 0.919061 -0.2786817 0.2786817 0.919061 -0.3806859 0.102004 0.9190611 -0.3806859 0.102004 0.9190611 -0.3806859 0.102004 0.9190611 -0.3806863 0.1020037 0.919061 -0.3806863 0.1020037 0.919061 -0.3806863 0.1020037 0.919061 -0.1304458 -0.0349525 0.9908391 -0.1304458 -0.0349525 0.9908391 -0.1304458 -0.0349525 0.9908391 1.0 0.0 0.0 1.0 0.0 0.0 -0.0954928 -0.0954928 0.9908392 -0.0954928 -0.0954928 0.9908392 -0.0954928 -0.0954928 0.9908392 1.0 0.0 0.0 1.0 0.0 0.0 -0.0349525 -0.1304458 0.9908391 -0.0349525 -0.1304458 0.9908391 -0.0349525 -0.1304458 0.9908391 1.0 0.0 0.0 1.0 0.0 0.0 0.0349525 -0.1304458 0.9908391 0.0349525 -0.1304458 0.9908391 0.0349525 -0.1304458 0.9908391 1.0 0.0 0.0 1.0 0.0 0.0 0.0954928 -0.0954928 0.9908392 0.0954928 -0.0954928 0.9908392 0.0954928 -0.0954928 0.9908392 1.0 0.0 0.0 1.0 0.0 0.0 0.1304458 -0.0349525 0.9908391 0.1304458 -0.0349525 0.9908391 0.1304458 -0.0349525 0.9908391 1.0 0.0 0.0 1.0 0.0 0.0 0.1304458 0.0349525 0.9908391 0.1304458 0.0349525 0.9908391 0.1304458 0.0349525 0.9908391 1.0 0.0 0.0 1.0 0.0 0.0 0.0954928 0.0954928 0.9908392 0.0954928 0.0954928 0.9908392 0.0954928 0.0954928 0.9908392 1.0 0.0 0.0 1.0 0.0 0.0 0.0349525 0.1304458 0.9908391 0.0349525 0.1304458 0.9908391 0.0349525 0.1304458 0.9908391 1.0 0.0 0.0 1.0 0.0 0.0 -0.0349525 0.1304458 0.9908391 -0.0349525 0.1304458 0.9908391 -0.0349525 0.1304458 0.9908391 1.0 0.0 0.0 1.0 0.0 0.0 -0.0954928 0.0954928 0.9908392 -0.0954928 0.0954928 0.9908392 -0.0954928 0.0954928 0.9908392 1.0 0.0 0.0 1.0 0.0 0.0 -0.1304458 0.0349525 0.9908391 -0.1304458 0.0349525 0.9908391 -0.1304458 0.0349525 0.9908391 1.0 0.0 0.0 1.0 0.0 0.0 1.0 0.0 0.0 1.0 0.0 0.0 -0.1304453 -0.0349524 -0.9908392 -0.1304453 -0.0349524 -0.9908392 -0.1304453 -0.0349524 -0.9908392 1.0 0.0 0.0 1.0 0.0 0.0 -0.0954924 -0.0954924 -0.9908392 -0.0954924 -0.0954924 -0.9908392 -0.0954924 -0.0954924 -0.9908392 1.0 0.0 0.0 1.0 0.0 0.0 -0.0349524 -0.1304453 -0.9908392 -0.0349524 -0.1304453 -0.9908392 -0.0349524 -0.1304453 -0.9908392 1.0 0.0 0.0 1.0 0.0 0.0 0.0349524 -0.1304453 -0.9908392 0.0349524 -0.1304453 -0.9908392 0.0349524 -0.1304453 -0.9908392 1.0 0.0 0.0 1.0 0.0 0.0 0.0954924 -0.0954924 -0.9908392 0.0954924 -0.0954924 -0.9908392 0.0954924 -0.0954924 -0.9908392 1.0 0.0 0.0 1.0 0.0 0.0 0.1304453 -0.0349524 -0.9908392 0.1304453 -0.0349524 -0.9908392 0.1304453 -0.0349524 -0.9908392 1.0 0.0 0.0 1.0 0.0 0.0 0.1304453 0.0349524 -0.9908392 0.1304453 0.0349524 -0.9908392 0.1304453 0.0349524 -0.9908392 1.0 0.0 0.0 1.0 0.0 0.0 0.0954924 0.0954924 -0.9908392 0.0954924 0.0954924 -0.9908392 0.0954924 0.0954924 -0.9908392 1.0 0.0 0.0 1.0 0.0 0.0 0.0349524 0.1304453 -0.9908392 0.0349524 0.1304453 -0.9908392 0.0349524 0.1304453 -0.9908392 1.0 0.0 0.0 1.0 0.0 0.0 -0.0349524 0.1304453 -0.9908392 -0.0349524 0.1304453 -0.9908392 -0.0349524 0.1304453 -0.9908392 1.0 0.0 0.0 1.0 0.0 0.0 -0.0954924 0.0954924 -0.9908392 -0.0954924 0.0954924 -0.9908392 -0.0954924 0.0954924 -0.9908392 1.0 0.0 0.0 1.0 0.0 0.0 -0.1304453 0.0349524 -0.9908392 -0.1304453 0.0349524 -0.9908392 -0.1304453 0.0349524 -0.9908392 -0.3806897 -0.1020046 -0.9190595 -0.3806897 -0.1020046 -0.9190595 -0.3806897 -0.1020046 -0.9190595 -0.3806893 -0.1020049 -0.9190596 -0.3806893 -0.1020049 -0.9190596 -0.3806893 -0.1020049 -0.9190596 -0.2786842 -0.2786842 -0.9190594 -0.2786842 -0.2786842 -0.9190594 -0.2786842 -0.2786842 -0.9190594 -0.2786842 -0.2786842 -0.9190595 -0.2786842 -0.2786842 -0.9190595 -0.2786842 -0.2786842 -0.9190595 -0.1020045 -0.3806894 -0.9190597 -0.1020045 -0.3806894 -0.9190597 -0.1020045 -0.3806894 -0.9190597 -0.102005 -0.3806896 -0.9190596 -0.102005 -0.3806896 -0.9190596 -0.102005 -0.3806896 -0.9190596 0.1020046 -0.3806897 -0.9190595 0.1020046 -0.3806897 -0.9190595 0.1020046 -0.3806897 -0.9190595 0.1020049 -0.3806893 -0.9190596 0.1020049 -0.3806893 -0.9190596 0.1020049 -0.3806893 -0.9190596 0.2786842 -0.2786842 -0.9190594 0.2786842 -0.2786842 -0.9190594 0.2786842 -0.2786842 -0.9190594 0.2786842 -0.2786842 -0.9190595 0.2786842 -0.2786842 -0.9190595 0.2786842 -0.2786842 -0.9190595 0.3806894 -0.1020045 -0.9190597 0.3806894 -0.1020045 -0.9190597 0.3806894 -0.1020045 -0.9190597 0.3806896 -0.102005 -0.9190596 0.3806896 -0.102005 -0.9190596 0.3806896 -0.102005 -0.9190596 0.3806897 0.1020046 -0.9190595 0.3806897 0.1020046 -0.9190595 0.3806897 0.1020046 -0.9190595 0.3806893 0.1020049 -0.9190596 0.3806893 0.1020049 -0.9190596 0.3806893 0.1020049 -0.9190596 0.2786842 0.2786842 -0.9190594 0.2786842 0.2786842 -0.9190594 0.2786842 0.2786842 -0.9190594 0.2786842 0.2786842 -0.9190595 0.2786842 0.2786842 -0.9190595 0.2786842 0.2786842 -0.9190595 0.1020045 0.3806894 -0.9190597 0.1020045 0.3806894 -0.9190597 0.1020045 0.3806894 -0.9190597 0.102005 0.3806896 -0.9190596 0.102005 0.3806896 -0.9190596 0.102005 0.3806896 -0.9190596 -0.1020046 0.3806897 -0.9190595 -0.1020046 0.3806897 -0.9190595 -0.1020046 0.3806897 -0.9190595 -0.1020049 0.3806893 -0.9190596 -0.1020049 0.3806893 -0.9190596 -0.1020049 0.3806893 -0.9190596 -0.2786842 0.2786842 -0.9190594 -0.2786842 0.2786842 -0.9190594 -0.2786842 0.2786842 -0.9190594 -0.2786842 0.2786842 -0.9190595 -0.2786842 0.2786842 -0.9190595 -0.2786842 0.2786842 -0.9190595 -0.3806894 0.1020045 -0.9190597 -0.3806894 0.1020045 -0.9190597 -0.3806894 0.1020045 -0.9190597 -0.3806896 0.102005 -0.9190596 -0.3806896 0.102005 -0.9190596 -0.3806896 0.102005 -0.9190596 -0.6008234 -0.1609894 -0.783003 -0.6008234 -0.1609894 -0.783003 -0.6008234 -0.1609894 -0.783003 -0.6008212 -0.1609908 -0.7830044 -0.6008212 -0.1609908 -0.7830044 -0.6008212 -0.1609908 -0.7830044 -0.4398331 -0.4398331 -0.783003 -0.4398331 -0.4398331 -0.783003 -0.4398331 -0.4398331 -0.783003 -0.439833 -0.4398331 -0.783003 -0.439833 -0.4398331 -0.783003 -0.439833 -0.4398331 -0.783003 -0.1609889 -0.6008213 -0.7830046 -0.1609889 -0.6008213 -0.7830046 -0.1609889 -0.6008213 -0.7830046 -0.1609913 -0.6008227 -0.7830032 -0.1609913 -0.6008227 -0.7830032 -0.1609913 -0.6008227 -0.7830032 0.1609895 -0.6008235 -0.783003 0.1609895 -0.6008235 -0.783003 0.1609895 -0.6008235 -0.783003 0.1609909 -0.6008212 -0.7830043 0.1609909 -0.6008212 -0.7830043 0.1609909 -0.6008212 -0.7830043 0.439833 -0.439833 -0.783003 0.439833 -0.439833 -0.783003 0.439833 -0.439833 -0.783003 0.4398331 -0.4398331 -0.783003 0.4398331 -0.4398331 -0.783003 0.4398331 -0.4398331 -0.783003 0.6008213 -0.1609889 -0.7830046 0.6008213 -0.1609889 -0.7830046 0.6008213 -0.1609889 -0.7830046 0.6008226 -0.1609912 -0.7830032 0.6008226 -0.1609912 -0.7830032 0.6008226 -0.1609912 -0.7830032 0.6008234 0.1609894 -0.783003 0.6008234 0.1609894 -0.783003 0.6008234 0.1609894 -0.783003 0.6008212 0.1609908 -0.7830044 0.6008212 0.1609908 -0.7830044 0.6008212 0.1609908 -0.7830044 0.4398331 0.4398331 -0.783003 0.4398331 0.4398331 -0.783003 0.4398331 0.4398331 -0.783003 0.439833 0.4398331 -0.783003 0.439833 0.4398331 -0.783003 0.439833 0.4398331 -0.783003 0.1609889 0.6008213 -0.7830046 0.1609889 0.6008213 -0.7830046 0.1609889 0.6008213 -0.7830046 0.1609913 0.6008227 -0.7830032 0.1609913 0.6008227 -0.7830032 0.1609913 0.6008227 -0.7830032 -0.1609895 0.6008235 -0.783003 -0.1609895 0.6008235 -0.783003 -0.1609895 0.6008235 -0.783003 -0.1609909 0.6008212 -0.7830043 -0.1609909 0.6008212 -0.7830043 -0.1609909 0.6008212 -0.7830043 -0.439833 0.439833 -0.783003 -0.439833 0.439833 -0.783003 -0.439833 0.439833 -0.783003 -0.4398331 0.4398331 -0.783003 -0.4398331 0.4398331 -0.783003 -0.4398331 0.4398331 -0.783003 -0.6008213 0.1609889 -0.7830046 -0.6008213 0.1609889 -0.7830046 -0.6008213 0.1609889 -0.7830046 -0.6008226 0.1609912 -0.7830032 -0.6008226 0.1609912 -0.7830032 -0.6008226 0.1609912 -0.7830032 -0.7760105 -0.207933 -0.595459 -0.7760105 -0.207933 -0.595459 -0.7760105 -0.207933 -0.595459 -0.7760133 -0.2079313 -0.5954561 -0.7760133 -0.2079313 -0.5954561 -0.7760133 -0.2079313 -0.5954561 -0.5680792 -0.5680793 -0.5954595 -0.5680792 -0.5680793 -0.5954595 -0.5680792 -0.5680793 -0.5954595 -0.5680793 -0.5680793 -0.5954593 -0.5680793 -0.5680793 -0.5954593 -0.5680793 -0.5680793 -0.5954593</float_array>
                    <technique_common>
                        <accessor count="840" source="#geometry0-normal-array" stride="3">
                            <param name="X" type="float"/>
                            <param name="Y" type="float"/>
                            <param name="Z" type="float"/>
                        </accessor>
                    </technique_common>
                </source>
                <vertices id="geometry0-vertex">
                    <input semantic="POSITION" source="#geometry0-position"/>
                </vertices>
                <triangles count="288" material="default_ai_0.2_sh_0.2_tr_0.0_dc_r_0.8_g_0.8_b_0.8_sc_r_1.0_g_1.0_b_1.0_ec_r_0.0_g_0.0_b_0_tri">
                    <input offset="0" semantic="VERTEX" source="#geometry0-vertex"/>
                    <input offset="1" semantic="NORMAL" source="#geometry0-normal"/>
                    <p>27 0 28 1 40 2 27 3 40 4 39 5 28 6 29 7 41 8 28 9 41 10 40 11 29 12 30 13 42 14 29 15 42 16 41 17 30 18 31 19 43 20 30 21 43 22 42 23 31 24 32 25 44 26 31 27 44 28 43 29 32 30 33 31 45 32 32 33 45 34 44 35 33 36 34 37 46 38 33 39 46 40 45 41 34 42 35 43 47 44 34 45 47 46 46 47 35 48 36 49 48 50 35 51 48 52 47 53 36 54 26 55 38 56 36 57 38 58 48 59 38 60 37 61 49 62 38 63 49 64 50 65 37 66 39 67 51 68 37 69 51 70 49 71 39 72 40 73 52 74 39 75 52 76 51 77 40 78 41 79 53 80 40 81 53 82 52 83 41 84 42 85 54 86 41 87 54 88 53 89 42 90 43 91 55 92 42 93 55 94 54 95 43 96 44 97 56 98 43 99 56 100 55 101 44 102 45 103 57 104 44 105 57 106 56 107 45 108 46 109 58 110 45 111 58 112 57 113 46 114 47 115 59 116 46 117 59 118 58 119 47 120 48 121 60 122 47 123 60 124 59 125 48 126 38 127 50 128 48 129 50 130 60 131 50 132 49 133 61 134 50 135 61 136 62 137 49 138 51 139 63 140 49 141 63 142 61 143 51 144 52 145 64 146 51 147 64 148 63 149 52 150 53 151 65 152 52 153 65 154 64 155 53 156 54 157 66 158 53 159 66 160 65 161 54 162 55 163 67 164 54 165 67 166 66 167 55 168 56 169 68 170 55 171 68 172 67 173 56 174 57 175 69 176 56 177 69 178 68 179 57 180 58 181 70 182 57 183 70 184 69 185 58 186 59 187 71 188 58 189 71 190 70 191 59 192 60 193 72 194 59 195 72 196 71 197 60 198 50 199 62 200 60 201 62 202 72 203 62 204 61 205 73 206 62 207 73 208 74 209 61 210 63 211 75 212 61 213 75 214 73 215 63 216 64 217 76 218 63 219 76 220 75 221 64 222 65 223 77 224 64 225 77 226 76 227 65 228 66 229 78 230 65 231 78 232 77 233 66 234 67 235 79 236 66 237 79 238 78 239 67 240 68 241 80 242 67 243 80 244 79 245 68 246 69 247 81 248 68 249 81 250 80 251 69 252 70 253 82 254 69 255 82 256 81 257 70 258 71 259 83 260 70 261 83 262 82 263 71 264 72 265 84 266 71 267 84 268 83 269 72 270 62 271 74 272 72 273 74 274 84 275 74 276 73 277 85 278 74 279 85 280 86 281 73 282 75 283 87 284 73 285 87 286 85 287 75 288 76 289 88 290 75 291 88 292 87 293 76 294 77 295 89 296 76 297 89 298 88 299 77 300 78 301 90 302 77 303 90 304 89 305 78 306 79 307 91 308 78 309 91 310 90 311 79 312 80 313 92 314 79 315 92 316 91 317 80 318 81 319 93 320 80 321 93 322 92 323 81 324 82 325 94 326 81 327 94 328 93 329 82 330 83 331 95 332 82 333 95 334 94 335 83 336 84 337 96 338 83 339 96 340 95 341 84 342 74 343 86 344 84 345 86 346 96 347 86 348 85 349 97 350 86 351 97 352 98 353 85 354 87 355 99 356 85 357 99 358 97 359 87 360 88 361 100 362 87 363 100 364 99 365 88 366 89 367 101 368 88 369 101 370 100 371 89 372 90 373 102 374 89 375 102 376 101 377 90 378 91 379 103 380 90 381 103 382 102 383 91 384 92 385 104 386 91 387 104 388 103 389 92 390 93 391 105 392 92 393 105 394 104 395 93 396 94 397 106 398 93 399 106 400 105 401 94 402 95 403 107 404 94 405 107 406 106 407 95 408 96 409 108 410 95 411 108 412 107 413 96 414 86 415 98 416 96 417 98 418 108 419 98 420 97 421 109 422 98 423 109 424 110 425 97 426 99 427 111 428 97 429 111 430 109 431 99 432 100 433 112 434 99 435 112 436 111 437 100 438 101 439 113 440 100 441 113 442 112 443 101 444 102 445 114 446 101 447 114 448 113 449 102 450 103 451 115 452 102 453 115 454 114 455 103 456 104 457 116 458 103 459 116 460 115 461 104 462 105 463 117 464 104 465 117 466 116 467 105 468 106 469 118 470 105 471 118 472 117 473 106 474 107 475 119 476 106 477 119 478 118 479 107 480 108 481 120 482 107 483 120 484 119 485 108 486 98 487 110 488 108 489 110 490 120 491 110 492 109 493 121 494 110 495 121 496 122 497 109 498 111 499 123 500 109 501 123 502 121 503 111 504 112 505 124 506 111 507 124 508 123 509 112 510 113 511 125 512 112 513 125 514 124 515 113 516 114 517 126 518 113 519 126 520 125 521 114 522 115 523 127 524 114 525 127 526 126 527 115 528 116 529 128 530 115 531 128 532 127 533 116 534 117 535 129 536 116 537 129 538 128 539 117 540 118 541 130 542 117 543 130 544 129 545 118 546 119 547 131 548 118 549 131 550 130 551 119 552 120 553 132 554 119 555 132 556 131 557 120 558 110 559 122 560 120 561 122 562 132 563 122 564 121 565 133 566 122 567 133 568 133 568 121 569 123 570 133 571 121 572 133 573 133 573 123 574 124 575 133 576 123 577 133 578 133 578 124 579 125 580 133 581 124 582 133 583 133 583 125 584 126 585 133 586 125 587 133 588 133 588 126 589 127 590 133 591 126 592 133 593 133 593 127 594 128 595 133 596 127 597 133 598 133 598 128 599 129 600 133 601 128 602 133 603 133 603 129 604 130 605 133 606 129 607 133 608 133 608 130 609 131 610 133 611 130 612 133 613 133 613 131 614 132 615 133 616 131 617 133 618 133 618 132 619 122 620 133 621 132 622 133 623 133 623 0 624 0 624 1 625 0 626 1 627 2 628 0 629 0 629 3 630 0 631 3 632 1 633 0 634 0 634 4 635 0 636 4 637 3 638 0 639 0 639 5 640 0 641 5 642 4 643 0 644 0 644 6 645 0 646 6 647 5 648 0 649 0 649 7 650 0 651 7 652 6 653 0 654 0 654 8 655 0 656 8 657 7 658 0 659 0 659 9 660 0 661 9 662 8 663 0 664 0 664 10 665 0 666 10 667 9 668 0 669 0 669 11 670 0 671 11 672 10 673 0 674 0 674 12 675 0 676 12 677 11 678 0 679 0 679 2 680 0 681 2 682 12 683 2 684 1 685 13 686 2 687 13 688 14 689 1 690 3 691 15 692 1 693 15 694 13 695 3 696 4 697 16 698 3 699 16 700 15 701 4 702 5 703 17 704 4 705 17 706 16 707 5 708 6 709 18 710 5 711 18 712 17 713 6 714 7 715 19 716 6 717 19 718 18 719 7 720 8 721 20 722 7 723 20 724 19 725 8 726 9 727 21 728 8 729 21 730 20 731 9 732 10 733 22 734 9 735 22 736 21 737 10 738 11 739 23 740 10 741 23 742 22 743 11 744 12 745 24 746 11 747 24 748 23 749 12 750 2 751 14 752 12 753 14 754 24 755 14 756 13 757 25 758 14 759 25 760 26 761 13 762 15 763 27 764 13 765 27 766 25 767 15 768 16 769 28 770 15 771 28 772 27 773 16 774 17 775 29 776 16 777 29 778 28 779 17 780 18 781 30 782 17 783 30 784 29 785 18 786 19 787 31 788 18 789 31 790 30 791 19 792 20 793 32 794 19 795 32 796 31 797 20 798 21 799 33 800 20 801 33 802 32 803 21 804 22 805 34 806 21 807 34 808 33 809 22 810 23 811 35 812 22 813 35 814 34 815 23 816 24 817 36 818 23 819 36 820 35 821 24 822 14 823 26 824 24 825 26 826 36 827 26 828 25 829 37 830 26 831 37 832 38 833 25 834 27 835 39 836 25 837 39 838 37 839</p>
                </triangles>
            </mesh>
        </geometry>
    </library_geometries>
    <library_visual_scenes>
        <visual_scene id="Building_281_CROWN1">
            <node>
                <instance_geometry url="#geometry0">
                    <bind_material>
                        <technique_common>
                            <instance_material symbol="default_ai_0.2_sh_0.2_tr_0.0_dc_r_0.8_g_0.8_b_0.8_sc_r_1.0_g_1.0_b_1.0_ec_r_0.0_g_0.0_b_0_tri" target="#default_ai_0.2_sh_0.2_tr_0.0_dc_r_0.8_g_0.8_b_0.8_sc_r_1.0_g_1.0_b_1.0_ec_r_0.0_g_0.0_b_0_mat"/>
                        </technique_common>
                    </bind_material>
                </instance_geometry>
            </node>
        </visual_scene>
    </library_visual_scenes>
    <scene>
        <instance_visual_scene url="#Building_281_CROWN1"/>
    </scene>
</COLLADA>
