<?xml version="1.0" encoding="UTF-8" standalone="yes"?>
<COLLADA xmlns="http://www.collada.org/2005/11/COLLADASchema" version="1.4.1">
    <asset>
        <contributor>
            <authoring_tool>3D City Database Importer/Exporter, version 5.5.3; Chair of Geoinformatics, Technical University of Munich</authoring_tool>
        </contributor>
        <created>2026-09-25T14:44:59.238</created>
        <modified>2026-09-25T14:44:59.238</modified>
        <unit meter="1.0" name="meters"/>
        <up_axis>Z_UP</up_axis>
    </asset>
    <library_materials>
        <material id="default_ai_0.2_sh_0.2_tr_0.0_dc_r_0.8_g_0.8_b_0.8_sc_r_1.0_g_1.0_b_1.0_ec_r_0.0_g_0.0_b_0_mat">
            <instance_effect url="#default_ai_0.2_sh_0.2_tr_0.0_dc_r_0.8_g_0.8_b_0.8_sc_r_1.0_g_1.0_b_1.0_ec_r_0.0_g_0.0_b_0_eff"/>
        </material>
    </library_materials>
    <library_effects>
        <effect id="default_ai_0.2_sh_0.2_tr_0.0_dc_r_0.8_g_0.8_b_0.8_sc_r_1.0_g_1.0_b_1.0_ec_r_0.0_g_0.0_b_0_eff">
            <profile_COMMON>
                <technique sid="COMMON">
                    <lambert>
                        <emission>
                            <color>0.0 0.0 0.0 1.0</color>
                        </emission>
                        <diffuse>
                            <color>0.8 0.8 0.8 1.0</color>
                        </diffuse>
                        <reflective>
                            <color>1.0 1.0 1.0 1.0</color>
                        </reflective>
                        <reflectivity>
                            <float>0.2</float>
                        </reflectivity>
                        <transparent opaque="A_ONE">
                            <color>1.0 1.0 1.0 1.0</color>
                        </transparent>
                        <transparency>
                            <float>1.0</float>
                        </transparency>
                    </lambert>
                </technique>
                <extra>
                    <technique profile="GOOGLEEARTH">
                        <double_sided>0</double_sided>
                    </technique>
                </extra>
            </profile_COMMON>
        </effect>
    </library_effects>
    <library_geometries>
        <geometry id="geometry0">
            <mesh>
                <source id="geometry0-position">
                    <float_array id="geometry0-position-array" count="402">0.0 0.0 1.3 0.1456936 0.0841165 1.2778519 0.1682324 0.0 1.2778519 0.0841165 0.1456936 1.2778519 0.0 0.1682323 1.2778519 -0.0841165 0.1456936 1.2778519 -0.1456936 0.0841165 1.2778519 -0.1682324 0.0 1.2778519 -0.1456936 -0.0841165 1.2778519 -0.0841165 -0.1456936 1.2778519 0.0 -0.1682323 1.2778519 0.0841165 -0.1456936 1.2778519 0.1456936 -0.0841165 1.2778519 0.2814585 0.1625 1.2129162 0.325 0.0 1.2129162 0.1625 0.2814584 1.2129162 0.0 0.325 1.2129162 -0.1625 0.2814584 1.2129162 -0.2814585 0.1625 1.2129162 -0.325 0.0 1.2129162 -0.2814585 -0.1625 1.2129162 -0.1625 -0.2814584 1.2129162 0.0 -0.325 1.2129162 0.1625 -0.2814584 1.2129162 0.2814585 -0.1625 1.2129162 0.3980418 0.2298094 1.1096196 0.4596195 0.0 1.1096196 0.2298094 0.3980418 1.1096196 0.0 0.4596196 1.1096196 -0.2298094 0.3980418 1.1096196 -0.3980418 0.2298094 1.1096196 -0.4596195 0.0 1.1096196 -0.3980418 -0.2298094 1.1096196 -0.2298094 -0.3980418 1.1096196 0.0 -0.4596196 1.1096196 0.2298094 -0.3980418 1.1096196 0.3980418 -0.2298094 1.1096196 0.4875 0.2814584 0.975 0.5629163 0.0 0.975 0.2814585 0.4875 0.975 0.0 0.5629162 0.975 -0.2814585 0.4875 0.975 -0.4875 0.2814584 0.975 -0.5629163 0.0 0.975 -0.4875 -0.2814584 0.975 -0.2814585 -0.4875 0.975 0.0 -0.5629162 0.975 0.2814585 -0.4875 0.975 0.4875 -0.2814584 0.975 0.5437354 0.3139259 0.8182324 0.6278519 0.0 0.8182324 0.3139259 0.5437354 0.8182324 0.0 0.6278519 0.8182324 -0.3139259 0.5437354 0.8182324 -0.5437354 0.3139259 0.8182324 -0.6278519 0.0 0.8182324 -0.5437354 -0.3139259 0.8182324 -0.3139259 -0.5437354 0.8182324 0.0 -0.6278519 0.8182324 0.3139259 -0.5437354 0.8182324 0.5437354 -0.3139259 0.8182324 0.5629163 0.325 0.65 0.65 0.0 0.65 0.325 0.5629162 0.65 0.0 0.65 0.65 -0.325 0.5629162 0.65 -0.5629163 0.325 0.65 -0.65 0.0 0.65 -0.5629163 -0.325 0.65 -0.325 -0.5629162 0.65 0.0 -0.65 0.65 0.325 -0.5629162 0.65 0.5629163 -0.325 0.65 0.5437354 0.3139259 0.4817676 0.6278519 0.0 0.4817676 0.3139259 0.5437354 0.4817676 0.0 0.6278519 0.4817676 -0.3139259 0.5437354 0.4817676 -0.5437354 0.3139259 0.4817676 -0.6278519 0.0 0.4817676 -0.5437354 -0.3139259 0.4817676 -0.3139259 -0.5437354 0.4817676 0.0 -0.6278519 0.4817676 0.3139259 -0.5437354 0.4817676 0.5437354 -0.3139259 0.4817676 0.4875 0.2814584 0.325 0.5629163 0.0 0.325 0.2814585 0.4875 0.325 0.0 0.5629162 0.325 -0.2814585 0.4875 0.325 -0.4875 0.2814584 0.325 -0.5629163 0.0 0.325 -0.4875 -0.2814584 0.325 -0.2814585 -0.4875 0.325 0.0 -0.5629162 0.325 0.2814585 -0.4875 0.325 0.4875 -0.2814584 0.325 0.3980418 0.2298094 0.1903804 0.4596195 0.0 0.1903804 0.2298094 0.3980418 0.1903804 0.0 0.4596196 0.1903804 -0.2298094 0.3980418 0.1903804 -0.3980418 0.2298094 0.1903804 -0.4596195 0.0 0.1903804 -0.3980418 -0.2298094 0.1903804 -0.2298094 -0.3980418 0.1903804 0.0 -0.4596196 0.1903804 0.2298094 -0.3980418 0.1903804 0.3980418 -0.2298094 0.1903804 0.2814585 0.1625 0.0870838 0.325 0.0 0.0870838 0.1625 0.2814584 0.0870838 0.0 0.325 0.0870838 -0.1625 0.2814584 0.0870838 -0.2814585 0.1625 0.0870838 -0.325 0.0 0.0870838 -0.2814585 -0.1625 0.0870838 -0.1625 -0.2814584 0.0870838 0.0 -0.325 0.0870838 0.1625 -0.2814584 0.0870838 0.2814585 -0.1625 0.0870838 0.1456936 0.0841165 0.0221481 0.1682324 0.0 0.0221481 0.0841165 0.1456936 0.0221481 0.0 0.1682323 0.0221481 -0.0841165 0.1456936 0.0221481 -0.1456936 0.0841165 0.0221481 -0.1682324 0.0 0.0221481 -0.1456936 -0.0841165 0.0221481 -0.0841165 -0.1456936 0.0221481 0.0 -0.1682323 0.0221481 0.0841165 -0.1456936 0.0221481 0.1456936 -0.0841165 0.0221481 0.0 0.0 0.0</float_array>
                    <technique_common>
                        <accessor count="134" source="#geometry0-position-array" stride="3">
                            <param name="X" type="float"/>
                            <param name="Y" type="float"/>
                            <param name="Z" type="float"/>
                        </accessor>
                    </technique_common>
                </source>
                <source id="geometry0-normal">
                    <float_array id="geometry0-normal-array" count="2520">0.5680803 -0.5680803 0.5954575 0.5680803 -0.5680803 0.5954575 0.5680803 -0.5680803 0.5954575 0.5680802 -0.5680803 0.5954576 0.5680802 -0.5680803 0.5954576 0.5680802 -0.5680803 0.5954576 0.7760146 -0.2079317 0.5954542 0.7760146 -0.2079317 0.5954542 0.7760146 -0.2079317 0.5954542 0.7760119 -0.2079334 0.5954572 0.7760119 -0.2079334 0.5954572 0.7760119 -0.2079334 0.5954572 0.7760128 0.2079312 0.595457 0.7760128 0.2079312 0.595457 0.7760128 0.2079312 0.595457 0.7760143 0.207934 0.5954539 0.7760143 0.207934 0.5954539 0.7760143 0.207934 0.5954539 0.5680802 0.5680802 0.5954576 0.5680802 0.5680802 0.5954576 0.5680802 0.5680802 0.5954576 0.5680802 0.5680804 0.5954575 0.5680802 0.5680804 0.5954575 0.5680802 0.5680804 0.5954575 0.2079317 0.7760146 0.5954542 0.2079317 0.7760146 0.5954542 0.2079317 0.7760146 0.5954542 0.2079334 0.7760118 0.5954573 0.2079334 0.7760118 0.5954573 0.2079334 0.7760118 0.5954573 -0.2079311 0.7760126 0.595457 -0.2079311 0.7760126 0.595457 -0.2079311 0.7760126 0.595457 -0.2079341 0.7760142 0.5954539 -0.2079341 0.7760142 0.5954539 -0.2079341 0.7760142 0.5954539 -0.5680803 0.5680803 0.5954575 -0.5680803 0.5680803 0.5954575 -0.5680803 0.5680803 0.5954575 -0.5680802 0.5680803 0.5954576 -0.5680802 0.5680803 0.5954576 -0.5680802 0.5680803 0.5954576 -0.7760146 0.2079317 0.5954542 -0.7760146 0.2079317 0.5954542 -0.7760146 0.2079317 0.5954542 -0.7760119 0.2079334 0.5954572 -0.7760119 0.2079334 0.5954572 -0.7760119 0.2079334 0.5954572 -0.6008203 -0.1609906 0.7830051 -0.6008203 -0.1609906 0.7830051 -0.6008203 -0.1609906 0.7830051 -0.6008191 -0.1609883 0.7830065 -0.6008191 -0.1609883 0.7830065 -0.6008191 -0.1609883 0.7830065 -0.4398313 -0.4398314 0.7830049 -0.4398313 -0.4398314 0.7830049 -0.4398313 -0.4398314 0.7830049 -0.4398313 -0.4398313 0.7830049 -0.4398313 -0.4398313 0.7830049 -0.4398313 -0.4398313 0.7830049 -0.1609903 -0.6008189 0.7830063 -0.1609903 -0.6008189 0.7830063 -0.1609903 -0.6008189 0.7830063 -0.1609888 -0.6008212 0.7830048 -0.1609888 -0.6008212 0.7830048 -0.1609888 -0.6008212 0.7830048 0.1609907 -0.6008204 0.7830051 0.1609907 -0.6008204 0.7830051 0.1609907 -0.6008204 0.7830051 0.1609883 -0.6008191 0.7830065 0.1609883 -0.6008191 0.7830065 0.1609883 -0.6008191 0.7830065 0.4398313 -0.4398314 0.7830049 0.4398313 -0.4398314 0.7830049 0.4398313 -0.4398314 0.7830049 0.4398314 -0.4398314 0.7830049 0.4398314 -0.4398314 0.7830049 0.4398314 -0.4398314 0.7830049 0.6008189 -0.1609902 0.7830063 0.6008189 -0.1609902 0.7830063 0.6008189 -0.1609902 0.7830063 0.6008211 -0.1609888 0.7830048 0.6008211 -0.1609888 0.7830048 0.6008211 -0.1609888 0.7830048 0.6008203 0.1609906 0.7830051 0.6008203 0.1609906 0.7830051 0.6008203 0.1609906 0.7830051 0.6008191 0.1609883 0.7830065 0.6008191 0.1609883 0.7830065 0.6008191 0.1609883 0.7830065 0.4398313 0.4398314 0.7830049 0.4398313 0.4398314 0.7830049 0.4398313 0.4398314 0.7830049 0.4398313 0.4398313 0.7830049 0.4398313 0.4398313 0.7830049 0.4398313 0.4398313 0.7830049 0.1609903 0.6008189 0.7830063 0.1609903 0.6008189 0.7830063 0.1609903 0.6008189 0.7830063 0.1609888 0.6008212 0.7830048 0.1609888 0.6008212 0.7830048 0.1609888 0.6008212 0.7830048 -0.1609907 0.6008204 0.7830051 -0.1609907 0.6008204 0.7830051 -0.1609907 0.6008204 0.7830051 -0.1609883 0.6008191 0.7830065 -0.1609883 0.6008191 0.7830065 -0.1609883 0.6008191 0.7830065 -0.4398313 0.4398314 0.7830049 -0.4398313 0.4398314 0.7830049 -0.4398313 0.4398314 0.7830049 -0.4398314 0.4398314 0.7830049 -0.4398314 0.4398314 0.7830049 -0.4398314 0.4398314 0.7830049 -0.6008189 0.1609902 0.7830063 -0.6008189 0.1609902 0.7830063 -0.6008189 0.1609902 0.7830063 -0.6008211 0.1609888 0.7830048 -0.6008211 0.1609888 0.7830048 -0.6008211 0.1609888 0.7830048 -0.3806894 -0.102005 0.9190596 -0.3806894 -0.102005 0.9190596 -0.3806894 -0.102005 0.9190596 -0.3806891 -0.1020045 0.9190598 -0.3806891 -0.1020045 0.9190598 -0.3806891 -0.1020045 0.9190598 -0.278684 -0.278684 0.9190595 -0.278684 -0.278684 0.9190595 -0.278684 -0.278684 0.9190595 -0.2786841 -0.2786841 0.9190595 -0.2786841 -0.2786841 0.9190595 -0.2786841 -0.2786841 0.9190595 -0.1020049 -0.3806891 0.9190597 -0.1020049 -0.3806891 0.9190597 -0.1020049 -0.3806891 0.9190597 -0.1020046 -0.3806895 0.9190596 -0.1020046 -0.3806895 0.9190596 -0.1020046 -0.3806895 0.9190596 0.102005 -0.3806894 0.9190596 0.102005 -0.3806894 0.9190596 0.102005 -0.3806894 0.9190596 0.1020045 -0.3806891 0.9190598 0.1020045 -0.3806891 0.9190598 0.1020045 -0.3806891 0.9190598 0.278684 -0.278684 0.9190595 0.278684 -0.278684 0.9190595 0.278684 -0.278684 0.9190595 0.2786841 -0.2786841 0.9190595 0.2786841 -0.2786841 0.9190595 0.2786841 -0.2786841 0.9190595 0.3806891 -0.1020049 0.9190597 0.3806891 -0.1020049 0.9190597 0.3806891 -0.1020049 0.9190597 0.3806895 -0.1020046 0.9190596 0.3806895 -0.1020046 0.9190596 0.3806895 -0.1020046 0.9190596 0.3806894 0.102005 0.9190596 0.3806894 0.102005 0.9190596 0.3806894 0.102005 0.9190596 0.3806891 0.1020045 0.9190598 0.3806891 0.1020045 0.9190598 0.3806891 0.1020045 0.9190598 0.278684 0.278684 0.9190595 0.278684 0.278684 0.9190595 0.278684 0.278684 0.9190595 0.2786841 0.2786841 0.9190595 0.2786841 0.2786841 0.9190595 0.2786841 0.2786841 0.9190595 0.1020049 0.3806891 0.9190597 0.1020049 0.3806891 0.9190597 0.1020049 0.3806891 0.9190597 0.1020046 0.3806895 0.9190596 0.1020046 0.3806895 0.9190596 0.1020046 0.3806895 0.9190596 -0.102005 0.3806894 0.9190596 -0.102005 0.3806894 0.9190596 -0.102005 0.3806894 0.9190596 -0.1020045 0.3806891 0.9190598 -0.1020045 0.3806891 0.9190598 -0.1020045 0.3806891 0.9190598 -0.278684 0.278684 0.9190595 -0.278684 0.278684 0.9190595 -0.278684 0.278684 0.9190595 -0.2786841 0.2786841 0.9190595 -0.2786841 0.2786841 0.9190595 -0.2786841 0.2786841 0.9190595 -0.3806891 0.1020049 0.9190597 -0.3806891 0.1020049 0.9190597 -0.3806891 0.1020049 0.9190597 -0.3806895 0.1020046 0.9190596 -0.3806895 0.1020046 0.9190596 -0.3806895 0.1020046 0.9190596 -0.1304458 -0.0349525 0.9908391 -0.1304458 -0.0349525 0.9908391 -0.1304458 -0.0349525 0.9908391 1.0 0.0 0.0 1.0 0.0 0.0 -0.0954928 -0.0954928 0.9908392 -0.0954928 -0.0954928 0.9908392 -0.0954928 -0.0954928 0.9908392 1.0 0.0 0.0 1.0 0.0 0.0 -0.0349525 -0.1304458 0.9908391 -0.0349525 -0.1304458 0.9908391 -0.0349525 -0.1304458 0.9908391 1.0 0.0 0.0 1.0 0.0 0.0 0.0349525 -0.1304458 0.9908391 0.0349525 -0.1304458 0.9908391 0.0349525 -0.1304458 0.9908391 1.0 0.0 0.0 1.0 0.0 0.0 0.0954928 -0.0954928 0.9908392 0.0954928 -0.0954928 0.9908392 0.0954928 -0.0954928 0.9908392 1.0 0.0 0.0 1.0 0.0 0.0 0.1304458 -0.0349525 0.9908391 0.1304458 -0.0349525 0.9908391 0.1304458 -0.0349525 0.9908391 1.0 0.0 0.0 1.0 0.0 0.0 0.1304458 0.0349525 0.9908391 0.1304458 0.0349525 0.9908391 0.1304458 0.0349525 0.9908391 1.0 0.0 0.0 1.0 0.0 0.0 0.0954928 0.0954928 0.9908392 0.0954928 0.0954928 0.9908392 0.0954928 0.0954928 0.9908392 1.0 0.0 0.0 1.0 0.0 0.0 0.0349525 0.1304458 0.9908391 0.0349525 0.1304458 0.9908391 0.0349525 0.1304458 0.9908391 1.0 0.0 0.0 1.0 0.0 0.0 -0.0349525 0.1304458 0.9908391 -0.0349525 0.1304458 0.9908391 -0.0349525 0.1304458 0.9908391 1.0 0.0 0.0 1.0 0.0 0.0 -0.0954928 0.0954928 0.9908392 -0.0954928 0.0954928 0.9908392 -0.0954928 0.0954928 0.9908392 1.0 0.0 0.0 1.0 0.0 0.0 -0.1304458 0.0349525 0.9908391 -0.1304458 0.0349525 0.9908391 -0.1304458 0.0349525 0.9908391 1.0 0.0 0.0 1.0 0.0 0.0 1.0 0.0 0.0 1.0 0.0 0.0 -0.1304453 -0.0349524 -0.9908392 -0.1304453 -0.0349524 -0.9908392 -0.1304453 -0.0349524 -0.9908392 1.0 0.0 0.0 1.0 0.0 0.0 -0.0954924 -0.0954924 -0.9908392 -0.0954924 -0.0954924 -0.9908392 -0.0954924 -0.0954924 -0.9908392 1.0 0.0 0.0 1.0 0.0 0.0 -0.0349524 -0.1304453 -0.9908392 -0.0349524 -0.1304453 -0.9908392 -0.0349524 -0.1304453 -0.9908392 1.0 0.0 0.0 1.0 0.0 0.0 0.0349524 -0.1304453 -0.9908392 0.0349524 -0.1304453 -0.9908392 0.0349524 -0.1304453 -0.9908392 1.0 0.0 0.0 1.0 0.0 0.0 0.0954924 -0.0954924 -0.9908392 0.0954924 -0.0954924 -0.9908392 0.0954924 -0.0954924 -0.9908392 1.0 0.0 0.0 1.0 0.0 0.0 0.1304453 -0.0349524 -0.9908392 0.1304453 -0.0349524 -0.9908392 0.1304453 -0.0349524 -0.9908392 1.0 0.0 0.0 1.0 0.0 0.0 0.1304453 0.0349524 -0.9908392 0.1304453 0.0349524 -0.9908392 0.1304453 0.0349524 -0.9908392 1.0 0.0 0.0 1.0 0.0 0.0 0.0954924 0.0954924 -0.9908392 0.0954924 0.0954924 -0.9908392 0.0954924 0.0954924 -0.9908392 1.0 0.0 0.0 1.0 0.0 0.0 0.0349524 0.1304453 -0.9908392 0.0349524 0.1304453 -0.9908392 0.0349524 0.1304453 -0.9908392 1.0 0.0 0.0 1.0 0.0 0.0 -0.0349524 0.1304453 -0.9908392 -0.0349524 0.1304453 -0.9908392 -0.0349524 0.1304453 -0.9908392 1.0 0.0 0.0 1.0 0.0 0.0 -0.0954924 0.0954924 -0.9908392 -0.0954924 0.0954924 -0.9908392 -0.0954924 0.0954924 -0.9908392 1.0 0.0 0.0 1.0 0.0 0.0 -0.1304453 0.0349524 -0.9908392 -0.1304453 0.0349524 -0.9908392 -0.1304453 0.0349524 -0.9908392 -0.3806897 -0.1020046 -0.9190595 -0.3806897 -0.1020046 -0.9190595 -0.3806897 -0.1020046 -0.9190595 -0.3806893 -0.1020049 -0.9190596 -0.3806893 -0.1020049 -0.9190596 -0.3806893 -0.1020049 -0.9190596 -0.2786842 -0.2786842 -0.9190594 -0.2786842 -0.2786842 -0.9190594 -0.2786842 -0.2786842 -0.9190594 -0.2786842 -0.2786842 -0.9190595 -0.2786842 -0.2786842 -0.9190595 -0.2786842 -0.2786842 -0.9190595 -0.1020045 -0.3806894 -0.9190597 -0.1020045 -0.3806894 -0.9190597 -0.1020045 -0.3806894 -0.9190597 -0.102005 -0.3806896 -0.9190596 -0.102005 -0.3806896 -0.9190596 -0.102005 -0.3806896 -0.9190596 0.1020046 -0.3806897 -0.9190595 0.1020046 -0.3806897 -0.9190595 0.1020046 -0.3806897 -0.9190595 0.1020049 -0.3806893 -0.9190596 0.1020049 -0.3806893 -0.9190596 0.1020049 -0.3806893 -0.9190596 0.2786842 -0.2786842 -0.9190594 0.2786842 -0.2786842 -0.9190594 0.2786842 -0.2786842 -0.9190594 0.2786842 -0.2786842 -0.9190595 0.2786842 -0.2786842 -0.9190595 0.2786842 -0.2786842 -0.9190595 0.3806894 -0.1020045 -0.9190597 0.3806894 -0.1020045 -0.9190597 0.3806894 -0.1020045 -0.9190597 0.3806896 -0.102005 -0.9190596 0.3806896 -0.102005 -0.9190596 0.3806896 -0.102005 -0.9190596 0.3806897 0.1020046 -0.9190595 0.3806897 0.1020046 -0.9190595 0.3806897 0.1020046 -0.9190595 0.3806893 0.1020049 -0.9190596 0.3806893 0.1020049 -0.9190596 0.3806893 0.1020049 -0.9190596 0.2786842 0.2786842 -0.9190594 0.2786842 0.2786842 -0.9190594 0.2786842 0.2786842 -0.9190594 0.2786842 0.2786842 -0.9190595 0.2786842 0.2786842 -0.9190595 0.2786842 0.2786842 -0.9190595 0.1020045 0.3806894 -0.9190597 0.1020045 0.3806894 -0.9190597 0.1020045 0.3806894 -0.9190597 0.102005 0.3806896 -0.9190596 0.102005 0.3806896 -0.9190596 0.102005 0.3806896 -0.9190596 -0.1020046 0.3806897 -0.9190595 -0.1020046 0.3806897 -0.9190595 -0.1020046 0.3806897 -0.9190595 -0.1020049 0.3806893 -0.9190596 -0.1020049 0.3806893 -0.9190596 -0.1020049 0.3806893 -0.9190596 -0.2786842 0.2786842 -0.9190594 -0.2786842 0.2786842 -0.9190594 -0.2786842 0.2786842 -0.9190594 -0.2786842 0.2786842 -0.9190595 -0.2786842 0.2786842 -0.9190595 -0.2786842 0.2786842 -0.9190595 -0.3806894 0.1020045 -0.9190597 -0.3806894 0.1020045 -0.9190597 -0.3806894 0.1020045 -0.9190597 -0.3806896 0.102005 -0.9190596 -0.3806896 0.102005 -0.9190596 -0.3806896 0.102005 -0.9190596 -0.6008213 -0.1609889 -0.7830047 -0.6008213 -0.1609889 -0.7830047 -0.6008213 -0.1609889 -0.7830047 -0.6008191 -0.1609902 -0.7830062 -0.6008191 -0.1609902 -0.7830062 -0.6008191 -0.1609902 -0.7830062 -0.4398316 -0.4398316 -0.7830048 -0.4398316 -0.4398316 -0.7830048 -0.4398316 -0.4398316 -0.7830048 -0.4398315 -0.4398315 -0.7830048 -0.4398315 -0.4398315 -0.7830048 -0.4398315 -0.4398315 -0.7830048 -0.1609883 -0.6008192 -0.7830064 -0.1609883 -0.6008192 -0.7830064 -0.1609883 -0.6008192 -0.7830064 -0.1609907 -0.6008205 -0.7830049 -0.1609907 -0.6008205 -0.7830049 -0.1609907 -0.6008205 -0.7830049 0.1609889 -0.6008214 -0.7830047 0.1609889 -0.6008214 -0.7830047 0.1609889 -0.6008214 -0.7830047 0.1609903 -0.6008191 -0.7830061 0.1609903 -0.6008191 -0.7830061 0.1609903 -0.6008191 -0.7830061 0.4398315 -0.4398315 -0.7830048 0.4398315 -0.4398315 -0.7830048 0.4398315 -0.4398315 -0.7830048 0.4398315 -0.4398316 -0.7830048 0.4398315 -0.4398316 -0.7830048 0.4398315 -0.4398316 -0.7830048 0.6008192 -0.1609883 -0.7830064 0.6008192 -0.1609883 -0.7830064 0.6008192 -0.1609883 -0.7830064 0.6008205 -0.1609906 -0.7830049 0.6008205 -0.1609906 -0.7830049 0.6008205 -0.1609906 -0.7830049 0.6008213 0.1609889 -0.7830047 0.6008213 0.1609889 -0.7830047 0.6008213 0.1609889 -0.7830047 0.6008191 0.1609902 -0.7830062 0.6008191 0.1609902 -0.7830062 0.6008191 0.1609902 -0.7830062 0.4398316 0.4398316 -0.7830048 0.4398316 0.4398316 -0.7830048 0.4398316 0.4398316 -0.7830048 0.4398315 0.4398315 -0.7830048 0.4398315 0.4398315 -0.7830048 0.4398315 0.4398315 -0.7830048 0.1609883 0.6008192 -0.7830064 0.1609883 0.6008192 -0.7830064 0.1609883 0.6008192 -0.7830064 0.1609907 0.6008205 -0.7830049 0.1609907 0.6008205 -0.7830049 0.1609907 0.6008205 -0.7830049 -0.1609889 0.6008214 -0.7830047 -0.1609889 0.6008214 -0.7830047 -0.1609889 0.6008214 -0.7830047 -0.1609903 0.6008191 -0.7830061 -0.1609903 0.6008191 -0.7830061 -0.1609903 0.6008191 -0.7830061 -0.4398315 0.4398315 -0.7830048 -0.4398315 0.4398315 -0.7830048 -0.4398315 0.4398315 -0.7830048 -0.4398315 0.4398316 -0.7830048 -0.4398315 0.4398316 -0.7830048 -0.4398315 0.4398316 -0.7830048 -0.6008192 0.1609883 -0.7830064 -0.6008192 0.1609883 -0.7830064 -0.6008192 0.1609883 -0.7830064 -0.6008205 0.1609906 -0.7830049 -0.6008205 0.1609906 -0.7830049 -0.6008205 0.1609906 -0.7830049 -0.7760118 -0.2079334 -0.5954574 -0.7760118 -0.2079334 -0.5954574 -0.7760118 -0.2079334 -0.5954574 -0.7760144 -0.2079317 -0.5954543 -0.7760144 -0.2079317 -0.5954543 -0.7760144 -0.2079317 -0.5954543 -0.5680801 -0.5680802 -0.5954577 -0.5680801 -0.5680802 -0.5954577 -0.5680801 -0.5680802 -0.5954577 -0.5680802 -0.5680802 -0.5954576 -0.5680802 -0.5680802 -0.5954576 -0.5680802 -0.5680802 -0.5954576 -0.2079341 -0.7760141 -0.595454 -0.2079341 -0.7760141 -0.595454 -0.2079341 -0.7760141 -0.595454 -0.2079311 -0.7760124 -0.5954572 -0.2079311 -0.7760124 -0.5954572 -0.2079311 -0.7760124 -0.5954572 0.2079334 -0.7760116 -0.5954575 0.2079334 -0.7760116 -0.5954575 0.2079334 -0.7760116 -0.5954575 0.2079317 -0.7760144 -0.5954543 0.2079317 -0.7760144 -0.5954543 0.2079317 -0.7760144 -0.5954543 0.5680801 -0.5680802 -0.5954577 0.5680801 -0.5680802 -0.5954577 0.5680801 -0.5680802 -0.5954577 0.5680801 -0.5680801 -0.5954577 0.5680801 -0.5680801 -0.5954577 0.5680801 -0.5680801 -0.5954577 0.7760141 -0.207934 -0.595454 0.7760141 -0.207934 -0.595454 0.7760141 -0.207934 -0.595454 0.7760126 -0.2079311 -0.5954571 0.7760126 -0.2079311 -0.5954571 0.7760126 -0.2079311 -0.5954571 0.7760118 0.2079334 -0.5954574 0.7760118 0.2079334 -0.5954574 0.7760118 0.2079334 -0.5954574 0.7760144 0.2079317 -0.5954543 0.7760144 0.2079317 -0.5954543 0.7760144 0.2079317 -0.5954543 0.5680801 0.5680802 -0.5954577 0.5680801 0.5680802 -0.5954577 0.5680801 0.5680802 -0.5954577 0.5680802 0.5680802 -0.5954576 0.5680802 0.5680802 -0.5954576 0.5680802 0.5680802 -0.5954576 0.2079341 0.7760141 -0.595454 0.2079341 0.7760141 -0.595454 0.2079341 0.7760141 -0.595454 0.2079311 0.7760124 -0.5954572 0.2079311 0.7760124 -0.5954572 0.2079311 0.7760124 -0.5954572 -0.2079334 0.7760116 -0.5954575 -0.2079334 0.7760116 -0.5954575 -0.2079334 0.7760116 -0.5954575 -0.2079317 0.7760144 -0.5954543 -0.2079317 0.7760144 -0.5954543 -0.2079317 0.7760144 -0.5954543 -0.5680801 0.5680802 -0.5954577 -0.5680801 0.5680802 -0.5954577 -0.5680801 0.5680802 -0.5954577 -0.5680801 0.5680801 -0.5954577 -0.5680801 0.5680801 -0.5954577 -0.5680801 0.5680801 -0.5954577 -0.7760141 0.207934 -0.595454 -0.7760141 0.207934 -0.595454 -0.7760141 0.207934 -0.595454 -0.7760126 0.2079311 -0.5954571 -0.7760126 0.2079311 -0.5954571 -0.7760126 0.2079311 -0.5954571 -0.8968096 -0.2402984 -0.3714689 -0.8968096 -0.2402984 -0.3714689 -0.8968096 -0.2402984 -0.3714689 -0.896808 -0.2402999 -0.3714719 -0.896808 -0.2402999 -0.3714719 -0.896808 -0.2402999 -0.3714719 -0.65651 -0.65651 -0.371469 -0.65651 -0.65651 -0.371469 -0.65651 -0.65651 -0.371469 -0.65651 -0.65651 -0.3714691 -0.65651 -0.65651 -0.3714691 -0.65651 -0.65651 -0.3714691 -0.2402981 -0.8968084 -0.3714721 -0.2402981 -0.8968084 -0.3714721 -0.2402981 -0.8968084 -0.3714721 -0.2403002 -0.8968092 -0.3714691 -0.2403002 -0.8968092 -0.3714691 -0.2403002 -0.8968092 -0.3714691 0.2402984 -0.8968096 -0.3714689 0.2402984 -0.8968096 -0.3714689 0.2402984 -0.8968096 -0.3714689 0.2402999 -0.896808 -0.3714719 0.2402999 -0.896808 -0.3714719 0.2402999 -0.896808 -0.3714719 0.65651 -0.65651 -0.371469 0.65651 -0.65651 -0.371469 0.65651 -0.65651 -0.371469 0.65651 -0.65651 -0.3714691 0.65651 -0.65651 -0.3714691 0.65651 -0.65651 -0.3714691 0.8968084 -0.2402981 -0.3714721 0.8968084 -0.2402981 -0.3714721 0.8968084 -0.2402981 -0.3714721 0.8968092 -0.2403002 -0.3714691 0.8968092 -0.2403002 -0.3714691 0.8968092 -0.2403002 -0.3714691 0.8968096 0.2402984 -0.3714689 0.8968096 0.2402984 -0.3714689 0.8968096 0.2402984 -0.3714689 0.896808 0.2402999 -0.3714719 0.896808 0.2402999 -0.3714719 0.896808 0.2402999 -0.3714719 0.65651 0.65651 -0.371469 0.65651 0.65651 -0.371469 0.65651 0.65651 -0.371469 0.65651 0.65651 -0.3714691 0.65651 0.65651 -0.3714691 0.65651 0.65651 -0.3714691 0.2402981 0.8968084 -0.3714721 0.2402981 0.8968084 -0.3714721 0.2402981 0.8968084 -0.3714721 0.2403002 0.8968092 -0.3714691 0.2403002 0.8968092 -0.3714691 0.2403002 0.8968092 -0.3714691 -0.2402984 0.8968096 -0.3714689 -0.2402984 0.8968096 -0.3714689 -0.2402984 0.8968096 -0.3714689 -0.2402999 0.896808 -0.3714719 -0.2402999 0.896808 -0.3714719 -0.2402999 0.896808 -0.3714719 -0.65651 0.65651 -0.371469 -0.65651 0.65651 -0.371469 -0.65651 0.65651 -0.371469 -0.65651 0.65651 -0.3714691 -0.65651 0.65651 -0.3714691 -0.65651 0.65651 -0.3714691 -0.8968084 0.2402981 -0.3714721 -0.8968084 0.2402981 -0.3714721 -0.8968084 0.2402981 -0.3714721 -0.8968092 0.2403002 -0.3714691 -0.8968092 0.2403002 -0.3714691 -0.8968092 0.2403002 -0.3714691 -0.958209 -0.2567523 -0.1261504 -0.958209 -0.2567523 -0.1261504 -0.958209 -0.2567523 -0.1261504 -0.9582092 -0.256752 -0.1261498 -0.9582092 -0.256752 -0.1261498 -0.9582092 -0.256752 -0.1261498 -0.7014578 -0.7014578 -0.1261503 -0.7014578 -0.7014578 -0.1261503 -0.7014578 -0.7014578 -0.1261503 -0.7014578 -0.7014578 -0.1261503 -0.7014578 -0.7014578 -0.1261503 -0.7014578 -0.7014578 -0.1261503 -0.2567523 -0.958209 -0.1261498 -0.2567523 -0.958209 -0.1261498 -0.2567523 -0.958209 -0.1261498 -0.256752 -0.958209 -0.1261504 -0.256752 -0.958209 -0.1261504 -0.256752 -0.958209 -0.1261504 0.2567523 -0.958209 -0.1261504 0.2567523 -0.958209 -0.1261504 0.2567523 -0.958209 -0.1261504 0.256752 -0.9582092 -0.1261498 0.256752 -0.9582092 -0.1261498 0.256752 -0.9582092 -0.1261498 0.7014578 -0.7014578 -0.1261503 0.7014578 -0.7014578 -0.1261503 0.7014578 -0.7014578 -0.1261503 0.7014578 -0.7014578 -0.1261503 0.7014578 -0.7014578 -0.1261503 0.7014578 -0.7014578 -0.1261503 0.958209 -0.2567523 -0.1261498 0.958209 -0.2567523 -0.1261498 0.958209 -0.2567523 -0.1261498 0.958209 -0.256752 -0.1261504 0.958209 -0.256752 -0.1261504 0.958209 -0.256752 -0.1261504 0.958209 0.2567523 -0.1261504 0.958209 0.2567523 -0.1261504 0.958209 0.2567523 -0.1261504 0.9582092 0.256752 -0.1261498 0.9582092 0.256752 -0.1261498 0.9582092 0.256752 -0.1261498 0.7014578 0.7014578 -0.1261503 0.7014578 0.7014578 -0.1261503 0.7014578 0.7014578 -0.1261503 0.7014578 0.7014578 -0.1261503 0.7014578 0.7014578 -0.1261503 0.7014578 0.7014578 -0.1261503 0.2567523 0.958209 -0.1261498 0.2567523 0.958209 -0.1261498 0.2567523 0.958209 -0.1261498 0.256752 0.958209 -0.1261504 0.256752 0.958209 -0.1261504 0.256752 0.958209 -0.1261504 -0.2567523 0.958209 -0.1261504 -0.2567523 0.958209 -0.1261504 -0.2567523 0.958209 -0.1261504 -0.256752 0.9582092 -0.1261498 -0.256752 0.9582092 -0.1261498 -0.256752 0.9582092 -0.1261498 -0.7014578 0.7014578 -0.1261503 -0.7014578 0.7014578 -0.1261503 -0.7014578 0.7014578 -0.1261503 -0.7014578 0.7014578 -0.1261503 -0.7014578 0.7014578 -0.1261503 -0.7014578 0.7014578 -0.1261503 -0.958209 0.2567523 -0.1261498 -0.958209 0.2567523 -0.1261498 -0.958209 0.2567523 -0.1261498 -0.958209 0.256752 -0.1261504 -0.958209 0.256752 -0.1261504 -0.958209 0.256752 -0.1261504 -0.958209 -0.256752 0.1261505 -0.958209 -0.256752 0.1261505 -0.958209 -0.256752 0.1261505 -0.958209 -0.2567523 0.1261499 -0.958209 -0.2567523 0.1261499 -0.958209 -0.2567523 0.1261499 -0.7014578 -0.7014578 0.1261503 -0.7014578 -0.7014578 0.1261503 -0.7014578 -0.7014578 0.1261503 -0.7014578 -0.7014578 0.1261503 -0.7014578 -0.7014578 0.1261503 -0.7014578 -0.7014578 0.1261503 -0.256752 -0.958209 0.1261498 -0.256752 -0.958209 0.1261498 -0.256752 -0.958209 0.1261498 -0.2567523 -0.9582089 0.1261505 -0.2567523 -0.9582089 0.1261505 -0.2567523 -0.9582089 0.1261505 0.256752 -0.958209 0.1261505 0.256752 -0.958209 0.1261505 0.256752 -0.958209 0.1261505 0.2567523 -0.958209 0.1261499 0.2567523 -0.958209 0.1261499 0.2567523 -0.958209 0.1261499 0.7014578 -0.7014578 0.1261503 0.7014578 -0.7014578 0.1261503 0.7014578 -0.7014578 0.1261503 0.7014578 -0.7014578 0.1261503 0.7014578 -0.7014578 0.1261503 0.7014578 -0.7014578 0.1261503 0.958209 -0.256752 0.1261498 0.958209 -0.256752 0.1261498 0.958209 -0.256752 0.1261498 0.9582089 -0.2567523 0.1261505 0.9582089 -0.2567523 0.1261505 0.9582089 -0.2567523 0.1261505 0.958209 0.256752 0.1261505 0.958209 0.256752 0.1261505 0.958209 0.256752 0.1261505 0.958209 0.2567523 0.1261499 0.958209 0.2567523 0.1261499 0.958209 0.2567523 0.1261499 0.7014578 0.7014578 0.1261503 0.7014578 0.7014578 0.1261503 0.7014578 0.7014578 0.1261503 0.7014578 0.7014578 0.1261503 0.7014578 0.7014578 0.1261503 0.7014578 0.7014578 0.1261503 0.256752 0.958209 0.1261498 0.256752 0.958209 0.1261498 0.256752 0.958209 0.1261498 0.2567523 0.9582089 0.1261505 0.2567523 0.9582089 0.1261505 0.2567523 0.9582089 0.1261505 -0.256752 0.958209 0.1261505 -0.256752 0.958209 0.1261505 -0.256752 0.958209 0.1261505 -0.2567523 0.958209 0.1261499 -0.2567523 0.958209 0.1261499 -0.2567523 0.958209 0.1261499 -0.7014578 0.7014578 0.1261503 -0.7014578 0.7014578 0.1261503 -0.7014578 0.7014578 0.1261503 -0.7014578 0.7014578 0.1261503 -0.7014578 0.7014578 0.1261503 -0.7014578 0.7014578 0.1261503 -0.958209 0.256752 0.1261498 -0.958209 0.256752 0.1261498 -0.958209 0.256752 0.1261498 -0.9582089 0.2567523 0.1261505 -0.9582089 0.2567523 0.1261505 -0.9582089 0.2567523 0.1261505 -0.8968092 -0.2403002 0.3714691 -0.8968092 -0.2403002 0.3714691 -0.8968092 -0.2403002 0.3714691 -0.8968084 -0.2402981 0.3714721 -0.8968084 -0.2402981 0.3714721 -0.8968084 -0.2402981 0.3714721 -0.65651 -0.65651 0.371469 -0.65651 -0.65651 0.371469 -0.65651 -0.65651 0.371469 -0.65651 -0.65651 0.371469 -0.65651 -0.65651 0.371469 -0.65651 -0.65651 0.371469 -0.2402999 -0.896808 0.3714719 -0.2402999 -0.896808 0.3714719 -0.2402999 -0.896808 0.3714719 -0.2402985 -0.8968096 0.3714689 -0.2402985 -0.8968096 0.3714689 -0.2402985 -0.8968096 0.3714689 0.2403002 -0.8968092 0.3714691 0.2403002 -0.8968092 0.3714691 0.2403002 -0.8968092 0.3714691 0.2402981 -0.8968084 0.3714721 0.2402981 -0.8968084 0.3714721 0.2402981 -0.8968084 0.3714721 0.65651 -0.65651 0.371469 0.65651 -0.65651 0.371469 0.65651 -0.65651 0.371469 0.65651 -0.65651 0.371469 0.65651 -0.65651 0.371469 0.65651 -0.65651 0.371469 0.896808 -0.2402999 0.3714719 0.896808 -0.2402999 0.3714719 0.896808 -0.2402999 0.3714719 0.8968096 -0.2402985 0.3714689 0.8968096 -0.2402985 0.3714689 0.8968096 -0.2402985 0.3714689 0.8968092 0.2403002 0.3714691 0.8968092 0.2403002 0.3714691 0.8968092 0.2403002 0.3714691 0.8968084 0.2402981 0.3714721 0.8968084 0.2402981 0.3714721 0.8968084 0.2402981 0.3714721 0.65651 0.65651 0.371469 0.65651 0.65651 0.371469 0.65651 0.65651 0.371469 0.65651 0.65651 0.371469 0.65651 0.65651 0.371469 0.65651 0.65651 0.371469 0.2402999 0.896808 0.3714719 0.2402999 0.896808 0.3714719 0.2402999 0.896808 0.3714719 0.2402985 0.8968096 0.3714689 0.2402985 0.8968096 0.3714689 0.2402985 0.8968096 0.3714689 -0.2403002 0.8968092 0.3714691 -0.2403002 0.8968092 0.3714691 -0.2403002 0.8968092 0.3714691 -0.2402981 0.8968084 0.3714721 -0.2402981 0.8968084 0.3714721 -0.2402981 0.8968084 0.3714721 -0.65651 0.65651 0.371469 -0.65651 0.65651 0.371469 -0.65651 0.65651 0.371469 -0.65651 0.65651 0.371469 -0.65651 0.65651 0.371469 -0.65651 0.65651 0.371469 -0.896808 0.2402999 0.3714719 -0.896808 0.2402999 0.3714719 -0.896808 0.2402999 0.3714719 -0.8968096 0.2402985 0.3714689 -0.8968096 0.2402985 0.3714689 -0.8968096 0.2402985 0.3714689 -0.7760128 -0.2079312 0.595457 -0.7760128 -0.2079312 0.595457 -0.7760128 -0.2079312 0.595457 -0.7760143 -0.207934 0.5954539 -0.7760143 -0.207934 0.5954539 -0.7760143 -0.207934 0.5954539 -0.5680802 -0.5680802 0.5954576 -0.5680802 -0.5680802 0.5954576 -0.5680802 -0.5680802 0.5954576 -0.5680802 -0.5680804 0.5954575 -0.5680802 -0.5680804 0.5954575 -0.5680802 -0.5680804 0.5954575 -0.2079317 -0.7760146 0.5954542 -0.2079317 -0.7760146 0.5954542 -0.2079317 -0.7760146 0.5954542 -0.2079334 -0.7760118 0.5954573 -0.2079334 -0.7760118 0.5954573 -0.2079334 -0.7760118 0.5954573 0.2079311 -0.7760126 0.595457 0.2079311 -0.7760126 0.595457 0.2079311 -0.7760126 0.595457 0.2079341 -0.7760142 0.5954539 0.2079341 -0.7760142 0.5954539 0.2079341 -0.7760142 0.5954539</float_array>
                    <technique_common>
                        <accessor count="840" source="#geometry0-normal-array" stride="3">
                            <param name="X" type="float"/>
                            <param name="Y" type="float"/>
                            <param name="Z" type="float"/>
                        </accessor>
                    </technique_common>
                </source>
                <vertices id="geometry0-vertex">
                    <input semantic="POSITION" source="#geometry0-position"/>
                </vertices>
                <triangles count="288" material="default_ai_0.2_sh_0.2_tr_0.0_dc_r_0.8_g_0.8_b_0.8_sc_r_1.0_g_1.0_b_1.0_ec_r_0.0_g_0.0_b_0_tri">
                    <input offset="0" semantic="VERTEX" source="#geometry0-vertex"/>
                    <input offset="1" semantic="NORMAL" source="#geometry0-normal"/>
                    <p>89 0 90 1 102 2 89 3 102 4 101 5 90 6 91 7 103 8 90 9 103 10 102 11 91 12 92 13 104 14 91 15 104 16 103 17 92 18 93 19 105 20 92 21 105 22 104 23 93 24 94 25 106 26 93 27 106 28 105 29 94 30 95 31 107 32 94 33 107 34 106 35 95 36 96 37 108 38 95 39 108 40 107 41 96 42 86 43 98 44 96 45 98 46 108 47 98 48 97 49 109 50 98 51 109 52 110 53 97 54 99 55 111 56 97 57 111 58 109 59 99 60 100 61 112 62 99 63 112 64 111 65 100 66 101 67 113 68 100 69 113 70 112 71 101 72 102 73 114 74 101 75 114 76 113 77 102 78 103 79 115 80 102 81 115 82 114 83 103 84 104 85 116 86 103 87 116 88 115 89 104 90 105 91 117 92 104 93 117 94 116 95 105 96 106 97 118 98 105 99 118 100 117 101 106 102 107 103 119 104 106 105 119 106 118 107 107 108 108 109 120 110 107 111 120 112 119 113 108 114 98 115 110 116 108 117 110 118 120 119 110 120 109 121 121 122 110 123 121 124 122 125 109 126 111 127 123 128 109 129 123 130 121 131 111 132 112 133 124 134 111 135 124 136 123 137 112 138 113 139 125 140 112 141 125 142 124 143 113 144 114 145 126 146 113 147 126 148 125 149 114 150 115 151 127 152 114 153 127 154 126 155 115 156 116 157 128 158 115 159 128 160 127 161 116 162 117 163 129 164 116 165 129 166 128 167 117 168 118 169 130 170 117 171 130 172 129 173 118 174 119 175 131 176 118 177 131 178 130 179 119 180 120 181 132 182 119 183 132 184 131 185 120 186 110 187 122 188 120 189 122 190 132 191 122 192 121 193 133 194 122 195 133 196 133 196 121 197 123 198 133 199 121 200 133 201 133 201 123 202 124 203 133 204 123 205 133 206 133 206 124 207 125 208 133 209 124 210 133 211 133 211 125 212 126 213 133 214 125 215 133 216 133 216 126 217 127 218 133 219 126 220 133 221 133 221 127 222 128 223 133 224 127 225 133 226 133 226 128 227 129 228 133 229 128 230 133 231 133 231 129 232 130 233 133 234 129 235 133 236 133 236 130 237 131 238 133 239 130 240 133 241 133 241 131 242 132 243 133 244 131 245 133 246 133 246 132 247 122 248 133 249 132 250 133 251 133 251 0 252 0 252 1 253 0 254 1 255 2 256 0 257 0 257 3 258 0 259 3 260 1 261 0 262 0 262 4 263 0 264 4 265 3 266 0 267 0 267 5 268 0 269 5 270 4 271 0 272 0 272 6 273 0 274 6 275 5 276 0 277 0 277 7 278 0 279 7 280 6 281 0 282 0 282 8 283 0 284 8 285 7 286 0 287 0 287 9 288 0 289 9 290 8 291 0 292 0 292 10 293 0 294 10 295 9 296 0 297 0 297 11 298 0 299 11 300 10 301 0 302 0 302 12 303 0 304 12 305 11 306 0 307 0 307 2 308 0 309 2 310 12 311 2 312 1 313 13 314 2 315 13 316 14 317 1 318 3 319 15 320 1 321 15 322 13 323 3 324 4 325 16 326 3 327 16 328 15 329 4 330 5 331 17 332 4 333 17 334 16 335 5 336 6 337 18 338 5 339 18 340 17 341 6 342 7 343 19 344 6 345 19 346 18 347 7 348 8 349 20 350 7 351 20 352 19 353 8 354 9 355 21 356 8 357 21 358 20 359 9 360 10 361 22 362 9 363 22 364 21 365 10 366 11 367 23 368 10 369 23 370 22 371 11 372 12 373 24 374 11 375 24 376 23 377 12 378 2 379 14 380 12 381 14 382 24 383 14 384 13 385 25 386 14 387 25 388 26 389 13 390 15 391 27 392 13 393 27 394 25 395 15 396 16 397 28 398 15 399 28 400 27 401 16 402 17 403 29 404 16 405 29 406 28 407 17 408 18 409 30 410 17 411 30 412 29 413 18 414 19 415 31 416 18 417 31 418 30 419 19 420 20 421 32 422 19 423 32 424 31 425 20 426 21 427 33 428 20 429 33 430 32 431 21 432 22 433 34 434 21 435 34 436 33 437 22 438 23 439 35 440 22 441 35 442 34 443 23 444 24 445 36 446 23 447 36 448 35 449 24 450 14 451 26 452 24 453 26 454 36 455 26 456 25 457 37 458 26 459 37 460 38 461 25 462 27 463 39 464 25 465 39 466 37 467 27 468 28 469 40 470 27 471 40 472 39 473 28 474 29 475 41 476 28 477 41 478 40 479 29 480 30 481 42 482 29 483 42 484 41 485 30 486 31 487 43 488 30 489 43 490 42 491 31 492 32 493 44 494 31 495 44 496 43 497 32 498 33 499 45 500 32 501 45 502 44 503 33 504 34 505 46 506 33 507 46 508 45 509 34 510 35 511 47 512 34 513 47 514 46 515 35 516 36 517 48 518 35 519 48 520 47 521 36 522 26 523 38 524 36 525 38 526 48 527 38 528 37 529 49 530 38 531 49 532 50 533 37 534 39 535 51 536 37 537 51 538 49 539 39 540 40 541 52 542 39 543 52 544 51 545 40 546 41 547 53 548 40 549 53 550 52 551 41 552 42 553 54 554 41 555 54 556 53 557 42 558 43 559 55 560 42 561 55 562 54 563 43 564 44 565 56 566 43 567 56 568 55 569 44 570 45 571 57 572 44 573 57 574 56 575 45 576 46 577 58 578 45 579 58 580 57 581 46 582 47 583 59 584 46 585 59 586 58 587 47 588 48 589 60 590 47 591 60 592 59 593 48 594 38 595 50 596 48 597 50 598 60 599 50 600 49 601 61 602 50 603 61 604 62 605 49 606 51 607 63 608 49 609 63 610 61 611 51 612 52 613 64 614 51 615 64 616 63 617 52 618 53 619 65 620 52 621 65 622 64 623 53 624 54 625 66 626 53 627 66 628 65 629 54 630 55 631 67 632 54 633 67 634 66 635 55 636 56 637 68 638 55 639 68 640 67 641 56 642 57 643 69 644 56 645 69 646 68 647 57 648 58 649 70 650 57 651 70 652 69 653 58 654 59 655 71 656 58 657 71 658 70 659 59 660 60 661 72 662 59 663 72 664 71 665 60 666 50 667 62 668 60 669 62 670 72 671 62 672 61 673 73 674 62 675 73 676 74 677 61 678 63 679 75 680 61 681 75 682 73 683 63 684 64 685 76 686 63 687 76 688 75 689 64 690 65 691 77 692 64 693 77 694 76 695 65 696 66 697 78 698 65 699 78 700 77 701 66 702 67 703 79 704 66 705 79 706 78 707 67 708 68 709 80 710 67 711 80 712 79 713 68 714 69 715 81 716 68 717 81 718 80 719 69 720 70 721 82 722 69 723 82 724 81 725 70 726 71 727 83 728 70 729 83 730 82 731 71 732 72 733 84 734 71 735 84 736 83 737 72 738 62 739 74 740 72 741 74 742 84 743 74 744 73 745 85 746 74 747 85 748 86 749 73 750 75 751 87 752 73 753 87 754 85 755 75 756 76 757 88 758 75 759 88 760 87 761 76 762 77 763 89 764 76 765 89 766 88 767 77 768 78 769 90 770 77 771 90 772 89 773 78 774 79 775 91 776 78 777 91 778 90 779 79 780 80 781 92 782 79 783 92 784 91 785 80 786 81 787 93 788 80 789 93 790 92 791 81 792 82 793 94 794 81 795 94 796 93 797 82 798 83 799 95 800 82 801 95 802 94 803 83 804 84 805 96 806 83 807 96 808 95 809 84 810 74 811 86 812 84 813 86 814 96 815 86 816 85 817 97 818 86 819 97 820 98 821 85 822 87 823 99 824 85 825 99 826 97 827 87 828 88 829 100 830 87 831 100 832 99 833 88 834 89 835 101 836 88 837 101 838 100 839</p>
                </triangles>
            </mesh>
        </geometry>
    </library_geometries>
    <library_visual_scenes>
        <visual_scene id="Building_160_CROWN2">
            <node>
                <instance_geometry url="#geometry0">
                    <bind_material>
                        <technique_common>
                            <instance_material symbol="default_ai_0.2_sh_0.2_tr_0.0_dc_r_0.8_g_0.8_b_0.8_sc_r_1.0_g_1.0_b_1.0_ec_r_0.0_g_0.0_b_0_tri" target="#default_ai_0.2_sh_0.2_tr_0.0_dc_r_0.8_g_0.8_b_0.8_sc_r_1.0_g_1.0_b_1.0_ec_r_0.0_g_0.0_b_0_mat"/>
                        </technique_common>
                    </bind_material>
                </instance_geometry>
            </node>
        </visual_scene>
    </library_visual_scenes>
    <scene>
        <instance_visual_scene url="#Building_160_CROWN2"/>
    </scene>
</COLLADA>
