<?xml version="1.0" encoding="UTF-8" standalone="yes"?>
<COLLADA xmlns="http://www.collada.org/2005/11/COLLADASchema" version="1.4.1">
    <asset>
        <contributor>
            <authoring_tool>3D City Database Importer/Exporter, version 5.5.3; Chair of Geoinformatics, Technical University of Munich</authoring_tool>
        </contributor>
        <created>2026-09-25T14:45:17.248</created>
        <modified>2026-09-25T14:45:17.248</modified>
        <unit meter="1.0" name="meters"/>
        <up_axis>Z_UP</up_axis>
    </asset>
    <library_materials>
        <material id="default_ai_0.2_sh_0.2_tr_0.0_dc_r_0.8_g_0.8_b_0.8_sc_r_1.0_g_1.0_b_1.0_ec_r_0.0_g_0.0_b_0_mat">
            <instance_effect url="#default_ai_0.2_sh_0.2_tr_0.0_dc_r_0.8_g_0.8_b_0.8_sc_r_1.0_g_1.0_b_1.0_ec_r_0.0_g_0.0_b_0_eff"/>
        </material>
    </library_materials>
    <library_effects>
        <effect id="default_ai_0.2_sh_0.2_tr_0.0_dc_r_0.8_g_0.8_b_0.8_sc_r_1.0_g_1.0_b_1.0_ec_r_0.0_g_0.0_b_0_eff">
            <profile_COMMON>
                <technique sid="COMMON">
                    <lambert>
                        <emission>
                            <color>0.0 0.0 0.0 1.0</color>
                        </emission>
                        <diffuse>
                            <color>0.8 0.8 0.8 1.0</color>
                        </diffuse>
                        <reflective>
                            <color>1.0 1.0 1.0 1.0</color>
                        </reflective>
                        <reflectivity>
                            <float>0.2</float>
                        </reflectivity>
                        <transparent opaque="A_ONE">
                            <color>1.0 1.0 1.0 1.0</color>
                        </transparent>
                        <transparency>
                            <float>1.0</float>
                        </transparency>
                    </lambert>
                </technique>
                <extra>
                    <technique profile="GOOGLEEARTH">
                        <double_sided>0</double_sided>
                    </technique>
                </extra>
            </profile_COMMON>
        </effect>
    </library_effects>
    <library_geometries>
        <geometry id="geometry0">
            <mesh>
                <source id="geometry0-position">
                    <float_array id="geometry0-position-array" count="402">0.0 0.0 1.9 0.2129368 0.1229395 1.8676297 0.245878 0.0 1.8676297 0.1229395 0.2129368 1.8676297 0.0 0.2458781 1.8676297 -0.1229395 0.2129368 1.8676297 -0.2129368 0.1229395 1.8676297 -0.245878 0.0 1.8676297 -0.2129368 -0.1229395 1.8676297 -0.1229395 -0.2129368 1.8676297 0.0 -0.2458781 1.8676297 0.1229395 -0.2129368 1.8676297 0.2129368 -0.1229395 1.8676297 0.4113623 0.2375 1.7727237 0.475 0.0 1.7727237 0.2375 0.4113623 1.7727237 0.0 0.475 1.7727237 -0.2375 0.4113623 1.7727237 -0.4113623 0.2375 1.7727237 -0.475 0.0 1.7727237 -0.4113623 -0.2375 1.7727237 -0.2375 -0.4113623 1.7727237 0.0 -0.475 1.7727237 0.2375 -0.4113623 1.7727237 0.4113623 -0.2375 1.7727237 0.5817534 0.3358754 1.6217516 0.6717516 0.0 1.6217516 0.3358753 0.5817534 1.6217516 0.0 0.6717517 1.6217516 -0.3358753 0.5817534 1.6217516 -0.5817534 0.3358754 1.6217516 -0.6717516 0.0 1.6217516 -0.5817534 -0.3358754 1.6217516 -0.3358753 -0.5817534 1.6217516 0.0 -0.6717517 1.6217516 0.3358753 -0.5817534 1.6217516 0.5817534 -0.3358754 1.6217516 0.7125 0.4113623 1.425 0.8227238 0.0 1.425 0.4113623 0.7125 1.425 0.0 0.8227238 1.425 -0.4113623 0.7125 1.425 -0.7125 0.4113623 1.425 -0.8227238 0.0 1.425 -0.7125 -0.4113623 1.425 -0.4113623 -0.7125 1.425 0.0 -0.8227238 1.425 0.4113623 -0.7125 1.425 0.7125 -0.4113623 1.425 0.7946902 0.4588149 1.1958781 0.9176297 0.0 1.1958781 0.4588149 0.7946902 1.1958781 0.0 0.9176297 1.1958781 -0.4588149 0.7946902 1.1958781 -0.7946902 0.4588149 1.1958781 -0.9176297 0.0 1.1958781 -0.7946902 -0.4588149 1.1958781 -0.4588149 -0.7946902 1.1958781 0.0 -0.9176297 1.1958781 0.4588149 -0.7946902 1.1958781 0.7946902 -0.4588149 1.1958781 0.8227238 0.475 0.95 0.95 0.0 0.95 0.475 0.8227238 0.95 0.0 0.95 0.95 -0.475 0.8227238 0.95 -0.8227238 0.475 0.95 -0.95 0.0 0.95 -0.8227238 -0.475 0.95 -0.475 -0.8227238 0.95 0.0 -0.95 0.95 0.475 -0.8227238 0.95 0.8227238 -0.475 0.95 0.7946902 0.4588149 0.7041219 0.9176297 0.0 0.7041219 0.4588149 0.7946902 0.7041219 0.0 0.9176297 0.7041219 -0.4588149 0.7946902 0.7041219 -0.7946902 0.4588149 0.7041219 -0.9176297 0.0 0.7041219 -0.7946902 -0.4588149 0.7041219 -0.4588149 -0.7946902 0.7041219 0.0 -0.9176297 0.7041219 0.4588149 -0.7946902 0.7041219 0.7946902 -0.4588149 0.7041219 0.7125 0.4113623 0.475 0.8227238 0.0 0.475 0.4113623 0.7125 0.475 0.0 0.8227238 0.475 -0.4113623 0.7125 0.475 -0.7125 0.4113623 0.475 -0.8227238 0.0 0.475 -0.7125 -0.4113623 0.475 -0.4113623 -0.7125 0.475 0.0 -0.8227238 0.475 0.4113623 -0.7125 0.475 0.7125 -0.4113623 0.475 0.5817534 0.3358754 0.2782483 0.6717516 0.0 0.2782483 0.3358753 0.5817534 0.2782483 0.0 0.6717517 0.2782483 -0.3358753 0.5817534 0.2782483 -0.5817534 0.3358754 0.2782483 -0.6717516 0.0 0.2782483 -0.5817534 -0.3358754 0.2782483 -0.3358753 -0.5817534 0.2782483 0.0 -0.6717517 0.2782483 0.3358753 -0.5817534 0.2782483 0.5817534 -0.3358754 0.2782483 0.4113623 0.2375 0.1272762 0.475 0.0 0.1272762 0.2375 0.4113623 0.1272762 0.0 0.475 0.1272762 -0.2375 0.4113623 0.1272762 -0.4113623 0.2375 0.1272762 -0.475 0.0 0.1272762 -0.4113623 -0.2375 0.1272762 -0.2375 -0.4113623 0.1272762 0.0 -0.475 0.1272762 0.2375 -0.4113623 0.1272762 0.4113623 -0.2375 0.1272762 0.2129368 0.1229395 0.0323703 0.245878 0.0 0.0323703 0.1229395 0.2129368 0.0323703 0.0 0.2458781 0.0323703 -0.1229395 0.2129368 0.0323703 -0.2129368 0.1229395 0.0323703 -0.245878 0.0 0.0323703 -0.2129368 -0.1229395 0.0323703 -0.1229395 -0.2129368 0.0323703 0.0 -0.2458781 0.0323703 0.1229395 -0.2129368 0.0323703 0.2129368 -0.1229395 0.0323703 0.0 0.0 0.0</float_array>
                    <technique_common>
                        <accessor count="134" source="#geometry0-position-array" stride="3">
                            <param name="X" type="float"/>
                            <param name="Y" type="float"/>
                            <param name="Z" type="float"/>
                        </accessor>
                    </technique_common>
                </source>
                <source id="geometry0-normal">
                    <float_array id="geometry0-normal-array" count="2520">-0.102005 0.3806894 0.9190596 -0.102005 0.3806894 0.9190596 -0.102005 0.3806894 0.9190596 -0.1020045 0.3806892 0.9190598 -0.1020045 0.3806892 0.9190598 -0.1020045 0.3806892 0.9190598 -0.278684 0.278684 0.9190595 -0.278684 0.278684 0.9190595 -0.278684 0.278684 0.9190595 -0.278684 0.278684 0.9190595 -0.278684 0.278684 0.9190595 -0.278684 0.278684 0.9190595 -0.3806892 0.1020049 0.9190597 -0.3806892 0.1020049 0.9190597 -0.3806892 0.1020049 0.9190597 -0.3806896 0.1020046 0.9190596 -0.3806896 0.1020046 0.9190596 -0.3806896 0.1020046 0.9190596 -0.1304458 -0.0349525 0.9908392 -0.1304458 -0.0349525 0.9908392 -0.1304458 -0.0349525 0.9908392 1.0 0.0 0.0 1.0 0.0 0.0 -0.0954928 -0.0954928 0.9908392 -0.0954928 -0.0954928 0.9908392 -0.0954928 -0.0954928 0.9908392 1.0 0.0 0.0 1.0 0.0 0.0 -0.0349525 -0.1304458 0.9908391 -0.0349525 -0.1304458 0.9908391 -0.0349525 -0.1304458 0.9908391 1.0 0.0 0.0 1.0 0.0 0.0 0.0349525 -0.1304458 0.9908392 0.0349525 -0.1304458 0.9908392 0.0349525 -0.1304458 0.9908392 1.0 0.0 0.0 1.0 0.0 0.0 0.0954928 -0.0954928 0.9908392 0.0954928 -0.0954928 0.9908392 0.0954928 -0.0954928 0.9908392 1.0 0.0 0.0 1.0 0.0 0.0 0.1304458 -0.0349525 0.9908391 0.1304458 -0.0349525 0.9908391 0.1304458 -0.0349525 0.9908391 1.0 0.0 0.0 1.0 0.0 0.0 0.1304458 0.0349525 0.9908392 0.1304458 0.0349525 0.9908392 0.1304458 0.0349525 0.9908392 1.0 0.0 0.0 1.0 0.0 0.0 0.0954928 0.0954928 0.9908392 0.0954928 0.0954928 0.9908392 0.0954928 0.0954928 0.9908392 1.0 0.0 0.0 1.0 0.0 0.0 0.0349525 0.1304458 0.9908391 0.0349525 0.1304458 0.9908391 0.0349525 0.1304458 0.9908391 1.0 0.0 0.0 1.0 0.0 0.0 -0.0349525 0.1304458 0.9908392 -0.0349525 0.1304458 0.9908392 -0.0349525 0.1304458 0.9908392 1.0 0.0 0.0 1.0 0.0 0.0 -0.0954928 0.0954928 0.9908392 -0.0954928 0.0954928 0.9908392 -0.0954928 0.0954928 0.9908392 1.0 0.0 0.0 1.0 0.0 0.0 -0.1304458 0.0349525 0.9908391 -0.1304458 0.0349525 0.9908391 -0.1304458 0.0349525 0.9908391 1.0 0.0 0.0 1.0 0.0 0.0 1.0 0.0 0.0 1.0 0.0 0.0 -0.1304459 -0.0349526 -0.9908392 -0.1304459 -0.0349526 -0.9908392 -0.1304459 -0.0349526 -0.9908392 1.0 0.0 0.0 1.0 0.0 0.0 -0.0954929 -0.0954929 -0.9908391 -0.0954929 -0.0954929 -0.9908391 -0.0954929 -0.0954929 -0.9908391 1.0 0.0 0.0 1.0 0.0 0.0 -0.0349526 -0.1304459 -0.9908391 -0.0349526 -0.1304459 -0.9908391 -0.0349526 -0.1304459 -0.9908391 1.0 0.0 0.0 1.0 0.0 0.0 0.0349526 -0.1304459 -0.9908392 0.0349526 -0.1304459 -0.9908392 0.0349526 -0.1304459 -0.9908392 1.0 0.0 0.0 1.0 0.0 0.0 0.0954929 -0.0954929 -0.9908391 0.0954929 -0.0954929 -0.9908391 0.0954929 -0.0954929 -0.9908391 1.0 0.0 0.0 1.0 0.0 0.0 0.1304459 -0.0349526 -0.9908391 0.1304459 -0.0349526 -0.9908391 0.1304459 -0.0349526 -0.9908391 1.0 0.0 0.0 1.0 0.0 0.0 0.1304459 0.0349526 -0.9908392 0.1304459 0.0349526 -0.9908392 0.1304459 0.0349526 -0.9908392 1.0 0.0 0.0 1.0 0.0 0.0 0.0954929 0.0954929 -0.9908391 0.0954929 0.0954929 -0.9908391 0.0954929 0.0954929 -0.9908391 1.0 0.0 0.0 1.0 0.0 0.0 0.0349526 0.1304459 -0.9908391 0.0349526 0.1304459 -0.9908391 0.0349526 0.1304459 -0.9908391 1.0 0.0 0.0 1.0 0.0 0.0 -0.0349526 0.1304459 -0.9908392 -0.0349526 0.1304459 -0.9908392 -0.0349526 0.1304459 -0.9908392 1.0 0.0 0.0 1.0 0.0 0.0 -0.0954929 0.0954929 -0.9908391 -0.0954929 0.0954929 -0.9908391 -0.0954929 0.0954929 -0.9908391 1.0 0.0 0.0 1.0 0.0 0.0 -0.1304459 0.0349526 -0.9908391 -0.1304459 0.0349526 -0.9908391 -0.1304459 0.0349526 -0.9908391 -0.3806892 -0.1020045 -0.9190598 -0.3806892 -0.1020045 -0.9190598 -0.3806892 -0.1020045 -0.9190598 -0.3806888 -0.1020048 -0.9190599 -0.3806888 -0.1020048 -0.9190599 -0.3806888 -0.1020048 -0.9190599 -0.2786838 -0.2786838 -0.9190596 -0.2786838 -0.2786838 -0.9190596 -0.2786838 -0.2786838 -0.9190596 -0.2786838 -0.2786838 -0.9190597 -0.2786838 -0.2786838 -0.9190597 -0.2786838 -0.2786838 -0.9190597 -0.1020044 -0.3806888 -0.9190599 -0.1020044 -0.3806888 -0.9190599 -0.1020044 -0.3806888 -0.9190599 -0.1020048 -0.380689 -0.9190598 -0.1020048 -0.380689 -0.9190598 -0.1020048 -0.380689 -0.9190598 0.1020045 -0.3806892 -0.9190598 0.1020045 -0.3806892 -0.9190598 0.1020045 -0.3806892 -0.9190598 0.1020048 -0.3806888 -0.9190599 0.1020048 -0.3806888 -0.9190599 0.1020048 -0.3806888 -0.9190599 0.2786838 -0.2786838 -0.9190596 0.2786838 -0.2786838 -0.9190596 0.2786838 -0.2786838 -0.9190596 0.2786838 -0.2786838 -0.9190597 0.2786838 -0.2786838 -0.9190597 0.2786838 -0.2786838 -0.9190597 0.3806888 -0.1020044 -0.9190599 0.3806888 -0.1020044 -0.9190599 0.3806888 -0.1020044 -0.9190599 0.380689 -0.1020048 -0.9190598 0.380689 -0.1020048 -0.9190598 0.380689 -0.1020048 -0.9190598 0.3806892 0.1020045 -0.9190598 0.3806892 0.1020045 -0.9190598 0.3806892 0.1020045 -0.9190598 0.3806888 0.1020048 -0.9190599 0.3806888 0.1020048 -0.9190599 0.3806888 0.1020048 -0.9190599 0.2786838 0.2786838 -0.9190596 0.2786838 0.2786838 -0.9190596 0.2786838 0.2786838 -0.9190596 0.2786838 0.2786838 -0.9190597 0.2786838 0.2786838 -0.9190597 0.2786838 0.2786838 -0.9190597 0.1020044 0.3806888 -0.9190599 0.1020044 0.3806888 -0.9190599 0.1020044 0.3806888 -0.9190599 0.1020048 0.380689 -0.9190598 0.1020048 0.380689 -0.9190598 0.1020048 0.380689 -0.9190598 -0.1020045 0.3806892 -0.9190598 -0.1020045 0.3806892 -0.9190598 -0.1020045 0.3806892 -0.9190598 -0.1020048 0.3806888 -0.9190599 -0.1020048 0.3806888 -0.9190599 -0.1020048 0.3806888 -0.9190599 -0.2786838 0.2786838 -0.9190596 -0.2786838 0.2786838 -0.9190596 -0.2786838 0.2786838 -0.9190596 -0.2786838 0.2786838 -0.9190597 -0.2786838 0.2786838 -0.9190597 -0.2786838 0.2786838 -0.9190597 -0.3806888 0.1020044 -0.9190599 -0.3806888 0.1020044 -0.9190599 -0.3806888 0.1020044 -0.9190599 -0.380689 0.1020048 -0.9190598 -0.380689 0.1020048 -0.9190598 -0.380689 0.1020048 -0.9190598 -0.6008213 -0.1609888 -0.7830047 -0.6008213 -0.1609888 -0.7830047 -0.6008213 -0.1609888 -0.7830047 -0.6008188 -0.1609903 -0.7830063 -0.6008188 -0.1609903 -0.7830063 -0.6008188 -0.1609903 -0.7830063 -0.4398314 -0.4398314 -0.7830048 -0.4398314 -0.4398314 -0.7830048 -0.4398314 -0.4398314 -0.7830048 -0.4398314 -0.4398314 -0.7830049 -0.4398314 -0.4398314 -0.7830049 -0.4398314 -0.4398314 -0.7830049 -0.1609883 -0.6008191 -0.7830065 -0.1609883 -0.6008191 -0.7830065 -0.1609883 -0.6008191 -0.7830065 -0.1609907 -0.6008205 -0.7830051 -0.1609907 -0.6008205 -0.7830051 -0.1609907 -0.6008205 -0.7830051 0.1609888 -0.6008213 -0.7830047 0.1609888 -0.6008213 -0.7830047 0.1609888 -0.6008213 -0.7830047 0.1609903 -0.6008188 -0.7830063 0.1609903 -0.6008188 -0.7830063 0.1609903 -0.6008188 -0.7830063 0.4398314 -0.4398314 -0.7830048 0.4398314 -0.4398314 -0.7830048 0.4398314 -0.4398314 -0.7830048 0.4398314 -0.4398314 -0.7830049 0.4398314 -0.4398314 -0.7830049 0.4398314 -0.4398314 -0.7830049 0.6008191 -0.1609883 -0.7830065 0.6008191 -0.1609883 -0.7830065 0.6008191 -0.1609883 -0.7830065 0.6008205 -0.1609907 -0.7830051 0.6008205 -0.1609907 -0.7830051 0.6008205 -0.1609907 -0.7830051 0.6008213 0.1609888 -0.7830047 0.6008213 0.1609888 -0.7830047 0.6008213 0.1609888 -0.7830047 0.6008188 0.1609903 -0.7830063 0.6008188 0.1609903 -0.7830063 0.6008188 0.1609903 -0.7830063 0.4398314 0.4398314 -0.7830048 0.4398314 0.4398314 -0.7830048 0.4398314 0.4398314 -0.7830048 0.4398314 0.4398314 -0.7830049 0.4398314 0.4398314 -0.7830049 0.4398314 0.4398314 -0.7830049 0.1609883 0.6008191 -0.7830065 0.1609883 0.6008191 -0.7830065 0.1609883 0.6008191 -0.7830065 0.1609907 0.6008205 -0.7830051 0.1609907 0.6008205 -0.7830051 0.1609907 0.6008205 -0.7830051 -0.1609888 0.6008213 -0.7830047 -0.1609888 0.6008213 -0.7830047 -0.1609888 0.6008213 -0.7830047 -0.1609903 0.6008188 -0.7830063 -0.1609903 0.6008188 -0.7830063 -0.1609903 0.6008188 -0.7830063 -0.4398314 0.4398314 -0.7830048 -0.4398314 0.4398314 -0.7830048 -0.4398314 0.4398314 -0.7830048 -0.4398314 0.4398314 -0.7830049 -0.4398314 0.4398314 -0.7830049 -0.4398314 0.4398314 -0.7830049 -0.6008191 0.1609883 -0.7830065 -0.6008191 0.1609883 -0.7830065 -0.6008191 0.1609883 -0.7830065 -0.6008205 0.1609907 -0.7830051 -0.6008205 0.1609907 -0.7830051 -0.6008205 0.1609907 -0.7830051 -0.7760119 -0.2079335 -0.5954571 -0.7760119 -0.2079335 -0.5954571 -0.7760119 -0.2079335 -0.5954571 -0.7760149 -0.2079317 -0.5954539 -0.7760149 -0.2079317 -0.5954539 -0.7760149 -0.2079317 -0.5954539 -0.5680804 -0.5680804 -0.5954573 -0.5680804 -0.5680804 -0.5954573 -0.5680804 -0.5680804 -0.5954573 -0.5680803 -0.5680803 -0.5954573 -0.5680803 -0.5680803 -0.5954573 -0.5680803 -0.5680803 -0.5954573 -0.2079342 -0.7760144 -0.5954536 -0.2079342 -0.7760144 -0.5954536 -0.2079342 -0.7760144 -0.5954536 -0.2079312 -0.7760128 -0.5954568 -0.2079312 -0.7760128 -0.5954568 -0.2079312 -0.7760128 -0.5954568 0.2079335 -0.7760119 -0.5954571 0.2079335 -0.7760119 -0.5954571 0.2079335 -0.7760119 -0.5954571 0.2079317 -0.7760149 -0.5954539 0.2079317 -0.7760149 -0.5954539 0.2079317 -0.7760149 -0.5954539 0.5680804 -0.5680804 -0.5954573 0.5680804 -0.5680804 -0.5954573 0.5680804 -0.5680804 -0.5954573 0.5680803 -0.5680803 -0.5954573 0.5680803 -0.5680803 -0.5954573 0.5680803 -0.5680803 -0.5954573 0.7760144 -0.2079342 -0.5954536 0.7760144 -0.2079342 -0.5954536 0.7760144 -0.2079342 -0.5954536 0.7760128 -0.2079312 -0.5954568 0.7760128 -0.2079312 -0.5954568 0.7760128 -0.2079312 -0.5954568 0.7760119 0.2079335 -0.5954571 0.7760119 0.2079335 -0.5954571 0.7760119 0.2079335 -0.5954571 0.7760149 0.2079317 -0.5954539 0.7760149 0.2079317 -0.5954539 0.7760149 0.2079317 -0.5954539 0.5680804 0.5680804 -0.5954573 0.5680804 0.5680804 -0.5954573 0.5680804 0.5680804 -0.5954573 0.5680803 0.5680803 -0.5954573 0.5680803 0.5680803 -0.5954573 0.5680803 0.5680803 -0.5954573 0.2079342 0.7760144 -0.5954536 0.2079342 0.7760144 -0.5954536 0.2079342 0.7760144 -0.5954536 0.2079312 0.7760128 -0.5954568 0.2079312 0.7760128 -0.5954568 0.2079312 0.7760128 -0.5954568 -0.2079335 0.7760119 -0.5954571 -0.2079335 0.7760119 -0.5954571 -0.2079335 0.7760119 -0.5954571 -0.2079317 0.7760149 -0.5954539 -0.2079317 0.7760149 -0.5954539 -0.2079317 0.7760149 -0.5954539 -0.5680804 0.5680804 -0.5954573 -0.5680804 0.5680804 -0.5954573 -0.5680804 0.5680804 -0.5954573 -0.5680803 0.5680803 -0.5954573 -0.5680803 0.5680803 -0.5954573 -0.5680803 0.5680803 -0.5954573 -0.7760144 0.2079342 -0.5954536 -0.7760144 0.2079342 -0.5954536 -0.7760144 0.2079342 -0.5954536 -0.7760128 0.2079312 -0.5954568 -0.7760128 0.2079312 -0.5954568 -0.7760128 0.2079312 -0.5954568 -0.8968095 -0.2402984 -0.3714692 -0.8968095 -0.2402984 -0.3714692 -0.8968095 -0.2402984 -0.3714692 -0.896808 -0.2402999 -0.3714722 -0.896808 -0.2402999 -0.3714722 -0.896808 -0.2402999 -0.3714722 -0.6565099 -0.6565099 -0.3714692 -0.6565099 -0.6565099 -0.3714692 -0.6565099 -0.6565099 -0.3714692 -0.6565099 -0.6565099 -0.3714692 -0.6565099 -0.6565099 -0.3714692 -0.6565099 -0.6565099 -0.3714692 -0.2402981 -0.8968083 -0.3714724 -0.2402981 -0.8968083 -0.3714724 -0.2402981 -0.8968083 -0.3714724 -0.2403001 -0.896809 -0.3714693 -0.2403001 -0.896809 -0.3714693 -0.2403001 -0.896809 -0.3714693 0.2402984 -0.8968095 -0.3714692 0.2402984 -0.8968095 -0.3714692 0.2402984 -0.8968095 -0.3714692 0.2402999 -0.896808 -0.3714722 0.2402999 -0.896808 -0.3714722 0.2402999 -0.896808 -0.3714722 0.6565099 -0.6565099 -0.3714692 0.6565099 -0.6565099 -0.3714692 0.6565099 -0.6565099 -0.3714692 0.6565099 -0.6565099 -0.3714692 0.6565099 -0.6565099 -0.3714692 0.6565099 -0.6565099 -0.3714692 0.8968083 -0.2402981 -0.3714724 0.8968083 -0.2402981 -0.3714724 0.8968083 -0.2402981 -0.3714724 0.896809 -0.2403001 -0.3714693 0.896809 -0.2403001 -0.3714693 0.896809 -0.2403001 -0.3714693 0.8968095 0.2402984 -0.3714692 0.8968095 0.2402984 -0.3714692 0.8968095 0.2402984 -0.3714692 0.896808 0.2402999 -0.3714722 0.896808 0.2402999 -0.3714722 0.896808 0.2402999 -0.3714722 0.6565099 0.6565099 -0.3714692 0.6565099 0.6565099 -0.3714692 0.6565099 0.6565099 -0.3714692 0.6565099 0.6565099 -0.3714692 0.6565099 0.6565099 -0.3714692 0.6565099 0.6565099 -0.3714692 0.2402981 0.8968083 -0.3714724 0.2402981 0.8968083 -0.3714724 0.2402981 0.8968083 -0.3714724 0.2403001 0.896809 -0.3714693 0.2403001 0.896809 -0.3714693 0.2403001 0.896809 -0.3714693 -0.2402984 0.8968095 -0.3714692 -0.2402984 0.8968095 -0.3714692 -0.2402984 0.8968095 -0.3714692 -0.2402999 0.896808 -0.3714722 -0.2402999 0.896808 -0.3714722 -0.2402999 0.896808 -0.3714722 -0.6565099 0.6565099 -0.3714692 -0.6565099 0.6565099 -0.3714692 -0.6565099 0.6565099 -0.3714692 -0.6565099 0.6565099 -0.3714692 -0.6565099 0.6565099 -0.3714692 -0.6565099 0.6565099 -0.3714692 -0.8968083 0.2402981 -0.3714724 -0.8968083 0.2402981 -0.3714724 -0.8968083 0.2402981 -0.3714724 -0.896809 0.2403001 -0.3714693 -0.896809 0.2403001 -0.3714693 -0.896809 0.2403001 -0.3714693 -0.958209 -0.2567523 -0.1261502 -0.958209 -0.2567523 -0.1261502 -0.958209 -0.2567523 -0.1261502 -0.958209 -0.2567521 -0.1261498 -0.958209 -0.2567521 -0.1261498 -0.958209 -0.2567521 -0.1261498 -0.7014578 -0.7014578 -0.1261501 -0.7014578 -0.7014578 -0.1261501 -0.7014578 -0.7014578 -0.1261501 -0.7014578 -0.7014578 -0.1261501 -0.7014578 -0.7014578 -0.1261501 -0.7014578 -0.7014578 -0.1261501 -0.2567523 -0.958209 -0.1261499 -0.2567523 -0.958209 -0.1261499 -0.2567523 -0.958209 -0.1261499 -0.2567521 -0.958209 -0.1261502 -0.2567521 -0.958209 -0.1261502 -0.2567521 -0.958209 -0.1261502 0.2567523 -0.958209 -0.1261502 0.2567523 -0.958209 -0.1261502 0.2567523 -0.958209 -0.1261502 0.2567521 -0.958209 -0.1261498 0.2567521 -0.958209 -0.1261498 0.2567521 -0.958209 -0.1261498 0.7014578 -0.7014578 -0.1261501 0.7014578 -0.7014578 -0.1261501 0.7014578 -0.7014578 -0.1261501 0.7014578 -0.7014578 -0.1261501 0.7014578 -0.7014578 -0.1261501 0.7014578 -0.7014578 -0.1261501 0.958209 -0.2567523 -0.1261499 0.958209 -0.2567523 -0.1261499 0.958209 -0.2567523 -0.1261499 0.958209 -0.2567521 -0.1261502 0.958209 -0.2567521 -0.1261502 0.958209 -0.2567521 -0.1261502 0.958209 0.2567523 -0.1261502 0.958209 0.2567523 -0.1261502 0.958209 0.2567523 -0.1261502 0.958209 0.2567521 -0.1261498 0.958209 0.2567521 -0.1261498 0.958209 0.2567521 -0.1261498 0.7014578 0.7014578 -0.1261501 0.7014578 0.7014578 -0.1261501 0.7014578 0.7014578 -0.1261501 0.7014578 0.7014578 -0.1261501 0.7014578 0.7014578 -0.1261501 0.7014578 0.7014578 -0.1261501 0.2567523 0.958209 -0.1261499 0.2567523 0.958209 -0.1261499 0.2567523 0.958209 -0.1261499 0.2567521 0.958209 -0.1261502 0.2567521 0.958209 -0.1261502 0.2567521 0.958209 -0.1261502 -0.2567523 0.958209 -0.1261502 -0.2567523 0.958209 -0.1261502 -0.2567523 0.958209 -0.1261502 -0.2567521 0.958209 -0.1261498 -0.2567521 0.958209 -0.1261498 -0.2567521 0.958209 -0.1261498 -0.7014578 0.7014578 -0.1261501 -0.7014578 0.7014578 -0.1261501 -0.7014578 0.7014578 -0.1261501 -0.7014578 0.7014578 -0.1261501 -0.7014578 0.7014578 -0.1261501 -0.7014578 0.7014578 -0.1261501 -0.958209 0.2567523 -0.1261499 -0.958209 0.2567523 -0.1261499 -0.958209 0.2567523 -0.1261499 -0.958209 0.2567521 -0.1261502 -0.958209 0.2567521 -0.1261502 -0.958209 0.2567521 -0.1261502 -0.958209 -0.2567521 0.1261502 -0.958209 -0.2567521 0.1261502 -0.958209 -0.2567521 0.1261502 -0.958209 -0.2567523 0.1261498 -0.958209 -0.2567523 0.1261498 -0.958209 -0.2567523 0.1261498 -0.7014578 -0.7014578 0.1261501 -0.7014578 -0.7014578 0.1261501 -0.7014578 -0.7014578 0.1261501 -0.7014578 -0.7014578 0.1261501 -0.7014578 -0.7014578 0.1261501 -0.7014578 -0.7014578 0.1261501 -0.2567521 -0.958209 0.1261499 -0.2567521 -0.958209 0.1261499 -0.2567521 -0.958209 0.1261499 -0.2567523 -0.958209 0.1261503 -0.2567523 -0.958209 0.1261503 -0.2567523 -0.958209 0.1261503 0.2567521 -0.958209 0.1261502 0.2567521 -0.958209 0.1261502 0.2567521 -0.958209 0.1261502 0.2567523 -0.958209 0.1261498 0.2567523 -0.958209 0.1261498 0.2567523 -0.958209 0.1261498 0.7014578 -0.7014578 0.1261501 0.7014578 -0.7014578 0.1261501 0.7014578 -0.7014578 0.1261501 0.7014578 -0.7014578 0.1261501 0.7014578 -0.7014578 0.1261501 0.7014578 -0.7014578 0.1261501 0.958209 -0.2567521 0.1261499 0.958209 -0.2567521 0.1261499 0.958209 -0.2567521 0.1261499 0.958209 -0.2567523 0.1261503 0.958209 -0.2567523 0.1261503 0.958209 -0.2567523 0.1261503 0.958209 0.2567521 0.1261502 0.958209 0.2567521 0.1261502 0.958209 0.2567521 0.1261502 0.958209 0.2567523 0.1261498 0.958209 0.2567523 0.1261498 0.958209 0.2567523 0.1261498 0.7014578 0.7014578 0.1261501 0.7014578 0.7014578 0.1261501 0.7014578 0.7014578 0.1261501 0.7014578 0.7014578 0.1261501 0.7014578 0.7014578 0.1261501 0.7014578 0.7014578 0.1261501 0.2567521 0.958209 0.1261499 0.2567521 0.958209 0.1261499 0.2567521 0.958209 0.1261499 0.2567523 0.958209 0.1261503 0.2567523 0.958209 0.1261503 0.2567523 0.958209 0.1261503 -0.2567521 0.958209 0.1261502 -0.2567521 0.958209 0.1261502 -0.2567521 0.958209 0.1261502 -0.2567523 0.958209 0.1261498 -0.2567523 0.958209 0.1261498 -0.2567523 0.958209 0.1261498 -0.7014578 0.7014578 0.1261501 -0.7014578 0.7014578 0.1261501 -0.7014578 0.7014578 0.1261501 -0.7014578 0.7014578 0.1261501 -0.7014578 0.7014578 0.1261501 -0.7014578 0.7014578 0.1261501 -0.958209 0.2567521 0.1261499 -0.958209 0.2567521 0.1261499 -0.958209 0.2567521 0.1261499 -0.958209 0.2567523 0.1261503 -0.958209 0.2567523 0.1261503 -0.958209 0.2567523 0.1261503 -0.8968091 -0.2403002 0.3714693 -0.8968091 -0.2403002 0.3714693 -0.8968091 -0.2403002 0.3714693 -0.8968083 -0.2402981 0.3714723 -0.8968083 -0.2402981 0.3714723 -0.8968083 -0.2402981 0.3714723 -0.6565099 -0.6565099 0.3714692 -0.6565099 -0.6565099 0.3714692 -0.6565099 -0.6565099 0.3714692 -0.6565099 -0.6565099 0.3714692 -0.6565099 -0.6565099 0.3714692 -0.6565099 -0.6565099 0.3714692 -0.2402999 -0.896808 0.3714722 -0.2402999 -0.896808 0.3714722 -0.2402999 -0.896808 0.3714722 -0.2402984 -0.8968096 0.3714691 -0.2402984 -0.8968096 0.3714691 -0.2402984 -0.8968096 0.3714691 0.2403002 -0.8968091 0.3714693 0.2403002 -0.8968091 0.3714693 0.2403002 -0.8968091 0.3714693 0.2402981 -0.8968083 0.3714723 0.2402981 -0.8968083 0.3714723 0.2402981 -0.8968083 0.3714723 0.6565099 -0.6565099 0.3714692 0.6565099 -0.6565099 0.3714692 0.6565099 -0.6565099 0.3714692 0.6565099 -0.6565099 0.3714692 0.6565099 -0.6565099 0.3714692 0.6565099 -0.6565099 0.3714692 0.896808 -0.2402999 0.3714722 0.896808 -0.2402999 0.3714722 0.896808 -0.2402999 0.3714722 0.8968096 -0.2402984 0.3714691 0.8968096 -0.2402984 0.3714691 0.8968096 -0.2402984 0.3714691 0.8968091 0.2403002 0.3714693 0.8968091 0.2403002 0.3714693 0.8968091 0.2403002 0.3714693 0.8968083 0.2402981 0.3714723 0.8968083 0.2402981 0.3714723 0.8968083 0.2402981 0.3714723 0.6565099 0.6565099 0.3714692 0.6565099 0.6565099 0.3714692 0.6565099 0.6565099 0.3714692 0.6565099 0.6565099 0.3714692 0.6565099 0.6565099 0.3714692 0.6565099 0.6565099 0.3714692 0.2402999 0.896808 0.3714722 0.2402999 0.896808 0.3714722 0.2402999 0.896808 0.3714722 0.2402984 0.8968096 0.3714691 0.2402984 0.8968096 0.3714691 0.2402984 0.8968096 0.3714691 -0.2403002 0.8968091 0.3714693 -0.2403002 0.8968091 0.3714693 -0.2403002 0.8968091 0.3714693 -0.2402981 0.8968083 0.3714723 -0.2402981 0.8968083 0.3714723 -0.2402981 0.8968083 0.3714723 -0.6565099 0.6565099 0.3714692 -0.6565099 0.6565099 0.3714692 -0.6565099 0.6565099 0.3714692 -0.6565099 0.6565099 0.3714692 -0.6565099 0.6565099 0.3714692 -0.6565099 0.6565099 0.3714692 -0.896808 0.2402999 0.3714722 -0.896808 0.2402999 0.3714722 -0.896808 0.2402999 0.3714722 -0.8968096 0.2402984 0.3714691 -0.8968096 0.2402984 0.3714691 -0.8968096 0.2402984 0.3714691 -0.7760128 -0.2079312 0.5954568 -0.7760128 -0.2079312 0.5954568 -0.7760128 -0.2079312 0.5954568 -0.7760144 -0.2079342 0.5954537 -0.7760144 -0.2079342 0.5954537 -0.7760144 -0.2079342 0.5954537 -0.5680803 -0.5680803 0.5954574 -0.5680803 -0.5680803 0.5954574 -0.5680803 -0.5680803 0.5954574 -0.5680803 -0.5680803 0.5954575 -0.5680803 -0.5680803 0.5954575 -0.5680803 -0.5680803 0.5954575 -0.2079317 -0.7760147 0.595454 -0.2079317 -0.7760147 0.595454 -0.2079317 -0.7760147 0.595454 -0.2079335 -0.7760118 0.5954572 -0.2079335 -0.7760118 0.5954572 -0.2079335 -0.7760118 0.5954572 0.2079312 -0.7760128 0.5954568 0.2079312 -0.7760128 0.5954568 0.2079312 -0.7760128 0.5954568 0.2079342 -0.7760144 0.5954537 0.2079342 -0.7760144 0.5954537 0.2079342 -0.7760144 0.5954537 0.5680803 -0.5680803 0.5954574 0.5680803 -0.5680803 0.5954574 0.5680803 -0.5680803 0.5954574 0.5680803 -0.5680803 0.5954575 0.5680803 -0.5680803 0.5954575 0.5680803 -0.5680803 0.5954575 0.7760147 -0.2079317 0.595454 0.7760147 -0.2079317 0.595454 0.7760147 -0.2079317 0.595454 0.7760118 -0.2079335 0.5954572 0.7760118 -0.2079335 0.5954572 0.7760118 -0.2079335 0.5954572 0.7760128 0.2079312 0.5954568 0.7760128 0.2079312 0.5954568 0.7760128 0.2079312 0.5954568 0.7760144 0.2079342 0.5954537 0.7760144 0.2079342 0.5954537 0.7760144 0.2079342 0.5954537 0.5680803 0.5680803 0.5954574 0.5680803 0.5680803 0.5954574 0.5680803 0.5680803 0.5954574 0.5680803 0.5680803 0.5954575 0.5680803 0.5680803 0.5954575 0.5680803 0.5680803 0.5954575 0.2079317 0.7760147 0.595454 0.2079317 0.7760147 0.595454 0.2079317 0.7760147 0.595454 0.2079335 0.7760118 0.5954572 0.2079335 0.7760118 0.5954572 0.2079335 0.7760118 0.5954572 -0.2079312 0.7760128 0.5954568 -0.2079312 0.7760128 0.5954568 -0.2079312 0.7760128 0.5954568 -0.2079342 0.7760144 0.5954537 -0.2079342 0.7760144 0.5954537 -0.2079342 0.7760144 0.5954537 -0.5680803 0.5680803 0.5954574 -0.5680803 0.5680803 0.5954574 -0.5680803 0.5680803 0.5954574 -0.5680803 0.5680803 0.5954575 -0.5680803 0.5680803 0.5954575 -0.5680803 0.5680803 0.5954575 -0.7760147 0.2079317 0.595454 -0.7760147 0.2079317 0.595454 -0.7760147 0.2079317 0.595454 -0.7760118 0.2079335 0.5954572 -0.7760118 0.2079335 0.5954572 -0.7760118 0.2079335 0.5954572 -0.6008203 -0.1609907 0.7830051 -0.6008203 -0.1609907 0.7830051 -0.6008203 -0.1609907 0.7830051 -0.600819 -0.1609882 0.7830065 -0.600819 -0.1609882 0.7830065 -0.600819 -0.1609882 0.7830065 -0.4398313 -0.4398313 0.7830049 -0.4398313 -0.4398313 0.7830049 -0.4398313 -0.4398313 0.7830049 -0.4398313 -0.4398313 0.7830049 -0.4398313 -0.4398313 0.7830049 -0.4398313 -0.4398313 0.7830049 -0.1609903 -0.6008188 0.7830064 -0.1609903 -0.6008188 0.7830064 -0.1609903 -0.6008188 0.7830064 -0.1609888 -0.6008211 0.7830048 -0.1609888 -0.6008211 0.7830048 -0.1609888 -0.6008211 0.7830048 0.1609907 -0.6008203 0.7830051 0.1609907 -0.6008203 0.7830051 0.1609907 -0.6008203 0.7830051 0.1609882 -0.600819 0.7830065 0.1609882 -0.600819 0.7830065 0.1609882 -0.600819 0.7830065 0.4398313 -0.4398313 0.7830049 0.4398313 -0.4398313 0.7830049 0.4398313 -0.4398313 0.7830049 0.4398313 -0.4398313 0.7830049 0.4398313 -0.4398313 0.7830049 0.4398313 -0.4398313 0.7830049 0.6008188 -0.1609903 0.7830064 0.6008188 -0.1609903 0.7830064 0.6008188 -0.1609903 0.7830064 0.6008211 -0.1609888 0.7830048 0.6008211 -0.1609888 0.7830048 0.6008211 -0.1609888 0.7830048 0.6008203 0.1609907 0.7830051 0.6008203 0.1609907 0.7830051 0.6008203 0.1609907 0.7830051 0.600819 0.1609882 0.7830065 0.600819 0.1609882 0.7830065 0.600819 0.1609882 0.7830065 0.4398313 0.4398313 0.7830049 0.4398313 0.4398313 0.7830049 0.4398313 0.4398313 0.7830049 0.4398313 0.4398313 0.7830049 0.4398313 0.4398313 0.7830049 0.4398313 0.4398313 0.7830049 0.1609903 0.6008188 0.7830064 0.1609903 0.6008188 0.7830064 0.1609903 0.6008188 0.7830064 0.1609888 0.6008211 0.7830048 0.1609888 0.6008211 0.7830048 0.1609888 0.6008211 0.7830048 -0.1609907 0.6008203 0.7830051 -0.1609907 0.6008203 0.7830051 -0.1609907 0.6008203 0.7830051 -0.1609882 0.600819 0.7830065 -0.1609882 0.600819 0.7830065 -0.1609882 0.600819 0.7830065 -0.4398313 0.4398313 0.7830049 -0.4398313 0.4398313 0.7830049 -0.4398313 0.4398313 0.7830049 -0.4398313 0.4398313 0.7830049 -0.4398313 0.4398313 0.7830049 -0.4398313 0.4398313 0.7830049 -0.6008188 0.1609903 0.7830064 -0.6008188 0.1609903 0.7830064 -0.6008188 0.1609903 0.7830064 -0.6008211 0.1609888 0.7830048 -0.6008211 0.1609888 0.7830048 -0.6008211 0.1609888 0.7830048 -0.3806894 -0.102005 0.9190596 -0.3806894 -0.102005 0.9190596 -0.3806894 -0.102005 0.9190596 -0.3806892 -0.1020045 0.9190598 -0.3806892 -0.1020045 0.9190598 -0.3806892 -0.1020045 0.9190598 -0.278684 -0.278684 0.9190595 -0.278684 -0.278684 0.9190595 -0.278684 -0.278684 0.9190595 -0.278684 -0.278684 0.9190595 -0.278684 -0.278684 0.9190595 -0.278684 -0.278684 0.9190595 -0.1020049 -0.3806892 0.9190597 -0.1020049 -0.3806892 0.9190597 -0.1020049 -0.3806892 0.9190597 -0.1020046 -0.3806896 0.9190596 -0.1020046 -0.3806896 0.9190596 -0.1020046 -0.3806896 0.9190596 0.102005 -0.3806894 0.9190596 0.102005 -0.3806894 0.9190596 0.102005 -0.3806894 0.9190596 0.1020045 -0.3806892 0.9190598 0.1020045 -0.3806892 0.9190598 0.1020045 -0.3806892 0.9190598 0.278684 -0.278684 0.9190595 0.278684 -0.278684 0.9190595 0.278684 -0.278684 0.9190595 0.278684 -0.278684 0.9190595 0.278684 -0.278684 0.9190595 0.278684 -0.278684 0.9190595 0.3806892 -0.1020049 0.9190597 0.3806892 -0.1020049 0.9190597 0.3806892 -0.1020049 0.9190597 0.3806896 -0.1020046 0.9190596 0.3806896 -0.1020046 0.9190596 0.3806896 -0.1020046 0.9190596 0.3806894 0.102005 0.9190596 0.3806894 0.102005 0.9190596 0.3806894 0.102005 0.9190596 0.3806892 0.1020045 0.9190598 0.3806892 0.1020045 0.9190598 0.3806892 0.1020045 0.9190598 0.278684 0.278684 0.9190595 0.278684 0.278684 0.9190595 0.278684 0.278684 0.9190595 0.278684 0.278684 0.9190595 0.278684 0.278684 0.9190595 0.278684 0.278684 0.9190595 0.1020049 0.3806892 0.9190597 0.1020049 0.3806892 0.9190597 0.1020049 0.3806892 0.9190597 0.1020046 0.3806896 0.9190596 0.1020046 0.3806896 0.9190596 0.1020046 0.3806896 0.9190596</float_array>
                    <technique_common>
                        <accessor count="840" source="#geometry0-normal-array" stride="3">
                            <param name="X" type="float"/>
                            <param name="Y" type="float"/>
                            <param name="Z" type="float"/>
                        </accessor>
                    </technique_common>
                </source>
                <vertices id="geometry0-vertex">
                    <input semantic="POSITION" source="#geometry0-position"/>
                </vertices>
                <triangles count="288" material="default_ai_0.2_sh_0.2_tr_0.0_dc_r_0.8_g_0.8_b_0.8_sc_r_1.0_g_1.0_b_1.0_ec_r_0.0_g_0.0_b_0_tri">
                    <input offset="0" semantic="VERTEX" source="#geometry0-vertex"/>
                    <input offset="1" semantic="NORMAL" source="#geometry0-normal"/>
                    <p>118 0 119 1 131 2 118 3 131 4 130 5 119 6 120 7 132 8 119 9 132 10 131 11 120 12 110 13 122 14 120 15 122 16 132 17 122 18 121 19 133 20 122 21 133 22 133 22 121 23 123 24 133 25 121 26 133 27 133 27 123 28 124 29 133 30 123 31 133 32 133 32 124 33 125 34 133 35 124 36 133 37 133 37 125 38 126 39 133 40 125 41 133 42 133 42 126 43 127 44 133 45 126 46 133 47 133 47 127 48 128 49 133 50 127 51 133 52 133 52 128 53 129 54 133 55 128 56 133 57 133 57 129 58 130 59 133 60 129 61 133 62 133 62 130 63 131 64 133 65 130 66 133 67 133 67 131 68 132 69 133 70 131 71 133 72 133 72 132 73 122 74 133 75 132 76 133 77 133 77 0 78 0 78 1 79 0 80 1 81 2 82 0 83 0 83 3 84 0 85 3 86 1 87 0 88 0 88 4 89 0 90 4 91 3 92 0 93 0 93 5 94 0 95 5 96 4 97 0 98 0 98 6 99 0 100 6 101 5 102 0 103 0 103 7 104 0 105 7 106 6 107 0 108 0 108 8 109 0 110 8 111 7 112 0 113 0 113 9 114 0 115 9 116 8 117 0 118 0 118 10 119 0 120 10 121 9 122 0 123 0 123 11 124 0 125 11 126 10 127 0 128 0 128 12 129 0 130 12 131 11 132 0 133 0 133 2 134 0 135 2 136 12 137 2 138 1 139 13 140 2 141 13 142 14 143 1 144 3 145 15 146 1 147 15 148 13 149 3 150 4 151 16 152 3 153 16 154 15 155 4 156 5 157 17 158 4 159 17 160 16 161 5 162 6 163 18 164 5 165 18 166 17 167 6 168 7 169 19 170 6 171 19 172 18 173 7 174 8 175 20 176 7 177 20 178 19 179 8 180 9 181 21 182 8 183 21 184 20 185 9 186 10 187 22 188 9 189 22 190 21 191 10 192 11 193 23 194 10 195 23 196 22 197 11 198 12 199 24 200 11 201 24 202 23 203 12 204 2 205 14 206 12 207 14 208 24 209 14 210 13 211 25 212 14 213 25 214 26 215 13 216 15 217 27 218 13 219 27 220 25 221 15 222 16 223 28 224 15 225 28 226 27 227 16 228 17 229 29 230 16 231 29 232 28 233 17 234 18 235 30 236 17 237 30 238 29 239 18 240 19 241 31 242 18 243 31 244 30 245 19 246 20 247 32 248 19 249 32 250 31 251 20 252 21 253 33 254 20 255 33 256 32 257 21 258 22 259 34 260 21 261 34 262 33 263 22 264 23 265 35 266 22 267 35 268 34 269 23 270 24 271 36 272 23 273 36 274 35 275 24 276 14 277 26 278 24 279 26 280 36 281 26 282 25 283 37 284 26 285 37 286 38 287 25 288 27 289 39 290 25 291 39 292 37 293 27 294 28 295 40 296 27 297 40 298 39 299 28 300 29 301 41 302 28 303 41 304 40 305 29 306 30 307 42 308 29 309 42 310 41 311 30 312 31 313 43 314 30 315 43 316 42 317 31 318 32 319 44 320 31 321 44 322 43 323 32 324 33 325 45 326 32 327 45 328 44 329 33 330 34 331 46 332 33 333 46 334 45 335 34 336 35 337 47 338 34 339 47 340 46 341 35 342 36 343 48 344 35 345 48 346 47 347 36 348 26 349 38 350 36 351 38 352 48 353 38 354 37 355 49 356 38 357 49 358 50 359 37 360 39 361 51 362 37 363 51 364 49 365 39 366 40 367 52 368 39 369 52 370 51 371 40 372 41 373 53 374 40 375 53 376 52 377 41 378 42 379 54 380 41 381 54 382 53 383 42 384 43 385 55 386 42 387 55 388 54 389 43 390 44 391 56 392 43 393 56 394 55 395 44 396 45 397 57 398 44 399 57 400 56 401 45 402 46 403 58 404 45 405 58 406 57 407 46 408 47 409 59 410 46 411 59 412 58 413 47 414 48 415 60 416 47 417 60 418 59 419 48 420 38 421 50 422 48 423 50 424 60 425 50 426 49 427 61 428 50 429 61 430 62 431 49 432 51 433 63 434 49 435 63 436 61 437 51 438 52 439 64 440 51 441 64 442 63 443 52 444 53 445 65 446 52 447 65 448 64 449 53 450 54 451 66 452 53 453 66 454 65 455 54 456 55 457 67 458 54 459 67 460 66 461 55 462 56 463 68 464 55 465 68 466 67 467 56 468 57 469 69 470 56 471 69 472 68 473 57 474 58 475 70 476 57 477 70 478 69 479 58 480 59 481 71 482 58 483 71 484 70 485 59 486 60 487 72 488 59 489 72 490 71 491 60 492 50 493 62 494 60 495 62 496 72 497 62 498 61 499 73 500 62 501 73 502 74 503 61 504 63 505 75 506 61 507 75 508 73 509 63 510 64 511 76 512 63 513 76 514 75 515 64 516 65 517 77 518 64 519 77 520 76 521 65 522 66 523 78 524 65 525 78 526 77 527 66 528 67 529 79 530 66 531 79 532 78 533 67 534 68 535 80 536 67 537 80 538 79 539 68 540 69 541 81 542 68 543 81 544 80 545 69 546 70 547 82 548 69 549 82 550 81 551 70 552 71 553 83 554 70 555 83 556 82 557 71 558 72 559 84 560 71 561 84 562 83 563 72 564 62 565 74 566 72 567 74 568 84 569 74 570 73 571 85 572 74 573 85 574 86 575 73 576 75 577 87 578 73 579 87 580 85 581 75 582 76 583 88 584 75 585 88 586 87 587 76 588 77 589 89 590 76 591 89 592 88 593 77 594 78 595 90 596 77 597 90 598 89 599 78 600 79 601 91 602 78 603 91 604 90 605 79 606 80 607 92 608 79 609 92 610 91 611 80 612 81 613 93 614 80 615 93 616 92 617 81 618 82 619 94 620 81 621 94 622 93 623 82 624 83 625 95 626 82 627 95 628 94 629 83 630 84 631 96 632 83 633 96 634 95 635 84 636 74 637 86 638 84 639 86 640 96 641 86 642 85 643 97 644 86 645 97 646 98 647 85 648 87 649 99 650 85 651 99 652 97 653 87 654 88 655 100 656 87 657 100 658 99 659 88 660 89 661 101 662 88 663 101 664 100 665 89 666 90 667 102 668 89 669 102 670 101 671 90 672 91 673 103 674 90 675 103 676 102 677 91 678 92 679 104 680 91 681 104 682 103 683 92 684 93 685 105 686 92 687 105 688 104 689 93 690 94 691 106 692 93 693 106 694 105 695 94 696 95 697 107 698 94 699 107 700 106 701 95 702 96 703 108 704 95 705 108 706 107 707 96 708 86 709 98 710 96 711 98 712 108 713 98 714 97 715 109 716 98 717 109 718 110 719 97 720 99 721 111 722 97 723 111 724 109 725 99 726 100 727 112 728 99 729 112 730 111 731 100 732 101 733 113 734 100 735 113 736 112 737 101 738 102 739 114 740 101 741 114 742 113 743 102 744 103 745 115 746 102 747 115 748 114 749 103 750 104 751 116 752 103 753 116 754 115 755 104 756 105 757 117 758 104 759 117 760 116 761 105 762 106 763 118 764 105 765 118 766 117 767 106 768 107 769 119 770 106 771 119 772 118 773 107 774 108 775 120 776 107 777 120 778 119 779 108 780 98 781 110 782 108 783 110 784 120 785 110 786 109 787 121 788 110 789 121 790 122 791 109 792 111 793 123 794 109 795 123 796 121 797 111 798 112 799 124 800 111 801 124 802 123 803 112 804 113 805 125 806 112 807 125 808 124 809 113 810 114 811 126 812 113 813 126 814 125 815 114 816 115 817 127 818 114 819 127 820 126 821 115 822 116 823 128 824 115 825 128 826 127 827 116 828 117 829 129 830 116 831 129 832 128 833 117 834 118 835 130 836 117 837 130 838 129 839</p>
                </triangles>
            </mesh>
        </geometry>
    </library_geometries>
    <library_visual_scenes>
        <visual_scene id="Building_256_CROWN2">
            <node>
                <instance_geometry url="#geometry0">
                    <bind_material>
                        <technique_common>
                            <instance_material symbol="default_ai_0.2_sh_0.2_tr_0.0_dc_r_0.8_g_0.8_b_0.8_sc_r_1.0_g_1.0_b_1.0_ec_r_0.0_g_0.0_b_0_tri" target="#default_ai_0.2_sh_0.2_tr_0.0_dc_r_0.8_g_0.8_b_0.8_sc_r_1.0_g_1.0_b_1.0_ec_r_0.0_g_0.0_b_0_mat"/>
                        </technique_common>
                    </bind_material>
                </instance_geometry>
            </node>
        </visual_scene>
    </library_visual_scenes>
    <scene>
        <instance_visual_scene url="#Building_256_CROWN2"/>
    </scene>
</COLLADA>
