<?xml version="1.0" encoding="UTF-8" standalone="yes"?>
<COLLADA xmlns="http://www.collada.org/2005/11/COLLADASchema" version="1.4.1">
    <asset>
        <contributor>
            <authoring_tool>3D City Database Importer/Exporter, version 5.5.3; Chair of Geoinformatics, Technical University of Munich</authoring_tool>
        </contributor>
        <created>2026-09-25T14:45:30.103</created>
        <modified>2026-09-25T14:45:30.103</modified>
        <unit meter="1.0" name="meters"/>
        <up_axis>Z_UP</up_axis>
    </asset>
    <library_materials>
        <material id="default_ai_0.2_sh_0.2_tr_0.0_dc_r_0.8_g_0.8_b_0.8_sc_r_1.0_g_1.0_b_1.0_ec_r_0.0_g_0.0_b_0_mat">
            <instance_effect url="#default_ai_0.2_sh_0.2_tr_0.0_dc_r_0.8_g_0.8_b_0.8_sc_r_1.0_g_1.0_b_1.0_ec_r_0.0_g_0.0_b_0_eff"/>
        </material>
    </library_materials>
    <library_effects>
        <effect id="default_ai_0.2_sh_0.2_tr_0.0_dc_r_0.8_g_0.8_b_0.8_sc_r_1.0_g_1.0_b_1.0_ec_r_0.0_g_0.0_b_0_eff">
            <profile_COMMON>
                <technique sid="COMMON">
                    <lambert>
                        <emission>
                            <color>0.0 0.0 0.0 1.0</color>
                        </emission>
                        <diffuse>
                            <color>0.8 0.8 0.8 1.0</color>
                        </diffuse>
                        <reflective>
                            <color>1.0 1.0 1.0 1.0</color>
                        </reflective>
                        <reflectivity>
                            <float>0.2</float>
                        </reflectivity>
                        <transparent opaque="A_ONE">
                            <color>1.0 1.0 1.0 1.0</color>
                        </transparent>
                        <transparency>
                            <float>1.0</float>
                        </transparency>
                    </lambert>
                </technique>
                <extra>
                    <technique profile="GOOGLEEARTH">
                        <double_sided>0</double_sided>
                    </technique>
                </extra>
            </profile_COMMON>
        </effect>
    </library_effects>
    <library_geometries>
        <geometry id="geometry0">
            <mesh>
                <source id="geometry0-position">
                    <float_array id="geometry0-position-array" count="78">0.0 0.0 0.0 -0.0047894 0.017875 0.0 -0.0047894 0.017875 0.44 0.0 0.0 0.44 -0.017875 0.0309606 0.0 -0.017875 0.0309606 0.44 -0.03575 0.03575 0.0 -0.03575 0.03575 0.44 -0.053625 0.0309606 0.0 -0.053625 0.0309606 0.44 -0.0667106 0.017875 0.0 -0.0667106 0.017875 0.44 -0.0715 0.0 0.0 -0.0715 0.0 0.44 -0.0667106 -0.017875 0.0 -0.0667106 -0.017875 0.44 -0.053625 -0.0309606 0.0 -0.053625 -0.0309606 0.44 -0.03575 -0.03575 0.0 -0.03575 -0.03575 0.44 -0.017875 -0.0309606 0.0 -0.017875 -0.0309606 0.44 -0.0047894 -0.017875 0.0 -0.0047894 -0.017875 0.44 -0.03575 0.0 0.0 -0.03575 0.0 0.44</float_array>
                    <technique_common>
                        <accessor count="26" source="#geometry0-position-array" stride="3">
                            <param name="X" type="float"/>
                            <param name="Y" type="float"/>
                            <param name="Z" type="float"/>
                        </accessor>
                    </technique_common>
                </source>
                <source id="geometry0-normal">
                    <float_array id="geometry0-normal-array" count="432">0.9659284 0.2588094 0.0 0.9659284 0.2588094 0.0 0.9659284 0.2588094 0.0 0.9659284 0.2588094 0.0 0.9659284 0.2588094 0.0 0.9659284 0.2588094 0.0 0.7071068 0.7071068 0.0 0.7071068 0.7071068 0.0 0.7071068 0.7071068 0.0 0.7071068 0.7071068 0.0 0.7071068 0.7071068 0.0 0.7071068 0.7071068 0.0 0.2588094 0.9659284 0.0 0.2588094 0.9659284 0.0 0.2588094 0.9659284 0.0 0.2588094 0.9659284 0.0 0.2588094 0.9659284 0.0 0.2588094 0.9659284 0.0 -0.2588094 0.9659284 0.0 -0.2588094 0.9659284 0.0 -0.2588094 0.9659284 0.0 -0.2588094 0.9659284 0.0 -0.2588094 0.9659284 0.0 -0.2588094 0.9659284 0.0 -0.7071068 0.7071068 0.0 -0.7071068 0.7071068 0.0 -0.7071068 0.7071068 0.0 -0.7071068 0.7071068 0.0 -0.7071068 0.7071068 0.0 -0.7071068 0.7071068 0.0 -0.9659284 0.2588096 0.0 -0.9659284 0.2588096 0.0 -0.9659284 0.2588096 0.0 -0.9659284 0.2588096 0.0 -0.9659284 0.2588096 0.0 -0.9659284 0.2588096 0.0 -0.9659284 -0.2588096 0.0 -0.9659284 -0.2588096 0.0 -0.9659284 -0.2588096 0.0 -0.9659284 -0.2588096 0.0 -0.9659284 -0.2588096 0.0 -0.9659284 -0.2588096 0.0 -0.7071068 -0.7071068 0.0 -0.7071068 -0.7071068 0.0 -0.7071068 -0.7071068 0.0 -0.7071068 -0.7071068 0.0 -0.7071068 -0.7071068 0.0 -0.7071068 -0.7071068 0.0 -0.2588094 -0.9659284 0.0 -0.2588094 -0.9659284 0.0 -0.2588094 -0.9659284 0.0 -0.2588094 -0.9659284 0.0 -0.2588094 -0.9659284 0.0 -0.2588094 -0.9659284 0.0 0.2588094 -0.9659284 0.0 0.2588094 -0.9659284 0.0 0.2588094 -0.9659284 0.0 0.2588094 -0.9659284 0.0 0.2588094 -0.9659284 0.0 0.2588094 -0.9659284 0.0 0.7071068 -0.7071068 0.0 0.7071068 -0.7071068 0.0 0.7071068 -0.7071068 0.0 0.7071068 -0.7071068 0.0 0.7071068 -0.7071068 0.0 0.7071068 -0.7071068 0.0 0.9659284 -0.2588094 0.0 0.9659284 -0.2588094 0.0 0.9659284 -0.2588094 0.0 0.9659284 -0.2588094 0.0 0.9659284 -0.2588094 0.0 0.9659284 -0.2588094 0.0 0.0 0.0 -1.0 0.0 0.0 -1.0 0.0 0.0 -1.0 0.0 0.0 -1.0 0.0 0.0 -1.0 0.0 0.0 -1.0 0.0 0.0 -1.0 0.0 0.0 -1.0 0.0 0.0 -1.0 0.0 0.0 -1.0 0.0 0.0 -1.0 0.0 0.0 -1.0 0.0 0.0 -1.0 0.0 0.0 -1.0 0.0 0.0 -1.0 0.0 0.0 -1.0 0.0 0.0 -1.0 0.0 0.0 -1.0 0.0 0.0 -1.0 0.0 0.0 -1.0 0.0 0.0 -1.0 0.0 0.0 -1.0 0.0 0.0 -1.0 0.0 0.0 -1.0 0.0 0.0 -1.0 0.0 0.0 -1.0 0.0 0.0 -1.0 0.0 0.0 -1.0 0.0 0.0 -1.0 0.0 0.0 -1.0 0.0 0.0 -1.0 0.0 0.0 -1.0 0.0 0.0 -1.0 0.0 0.0 -1.0 0.0 0.0 -1.0 0.0 0.0 -1.0 0.0 0.0 1.0 0.0 0.0 1.0 0.0 0.0 1.0 0.0 0.0 1.0 0.0 0.0 1.0 0.0 0.0 1.0 0.0 0.0 1.0 0.0 0.0 1.0 0.0 0.0 1.0 0.0 0.0 1.0 0.0 0.0 1.0 0.0 0.0 1.0 0.0 0.0 1.0 0.0 0.0 1.0 0.0 0.0 1.0 0.0 0.0 1.0 0.0 0.0 1.0 0.0 0.0 1.0 0.0 0.0 1.0 0.0 0.0 1.0 0.0 0.0 1.0 0.0 0.0 1.0 0.0 0.0 1.0 0.0 0.0 1.0 0.0 0.0 1.0 0.0 0.0 1.0 0.0 0.0 1.0 0.0 0.0 1.0 0.0 0.0 1.0 0.0 0.0 1.0 0.0 0.0 1.0 0.0 0.0 1.0 0.0 0.0 1.0 0.0 0.0 1.0 0.0 0.0 1.0 0.0 0.0 1.0</float_array>
                    <technique_common>
                        <accessor count="144" source="#geometry0-normal-array" stride="3">
                            <param name="X" type="float"/>
                            <param name="Y" type="float"/>
                            <param name="Z" type="float"/>
                        </accessor>
                    </technique_common>
                </source>
                <vertices id="geometry0-vertex">
                    <input semantic="POSITION" source="#geometry0-position"/>
                </vertices>
                <triangles count="48" material="default_ai_0.2_sh_0.2_tr_0.0_dc_r_0.8_g_0.8_b_0.8_sc_r_1.0_g_1.0_b_1.0_ec_r_0.0_g_0.0_b_0_tri">
                    <input offset="0" semantic="VERTEX" source="#geometry0-vertex"/>
                    <input offset="1" semantic="NORMAL" source="#geometry0-normal"/>
                    <p>0 0 1 1 2 2 0 3 2 4 3 5 1 6 4 7 5 8 1 9 5 10 2 11 4 12 6 13 7 14 4 15 7 16 5 17 6 18 8 19 9 20 6 21 9 22 7 23 8 24 10 25 11 26 8 27 11 28 9 29 10 30 12 31 13 32 10 33 13 34 11 35 12 36 14 37 15 38 12 39 15 40 13 41 14 42 16 43 17 44 14 45 17 46 15 47 16 48 18 49 19 50 16 51 19 52 17 53 18 54 20 55 21 56 18 57 21 58 19 59 20 60 22 61 23 62 20 63 23 64 21 65 22 66 0 67 3 68 22 69 3 70 23 71 24 72 1 73 0 74 24 75 4 76 1 77 24 78 6 79 4 80 24 81 8 82 6 83 24 84 10 85 8 86 24 87 12 88 10 89 24 90 14 91 12 92 24 93 16 94 14 95 24 96 18 97 16 98 24 99 20 100 18 101 24 102 22 103 20 104 24 105 0 106 22 107 25 108 3 109 2 110 25 111 2 112 5 113 25 114 5 115 7 116 25 117 7 118 9 119 25 120 9 121 11 122 25 123 11 124 13 125 25 126 13 127 15 128 25 129 15 130 17 131 25 132 17 133 19 134 25 135 19 136 21 137 25 138 21 139 23 140 25 141 23 142 3 143</p>
                </triangles>
            </mesh>
        </geometry>
    </library_geometries>
    <library_visual_scenes>
        <visual_scene id="Building_260_TRUNK2">
            <node>
                <instance_geometry url="#geometry0">
                    <bind_material>
                        <technique_common>
                            <instance_material symbol="default_ai_0.2_sh_0.2_tr_0.0_dc_r_0.8_g_0.8_b_0.8_sc_r_1.0_g_1.0_b_1.0_ec_r_0.0_g_0.0_b_0_tri" target="#default_ai_0.2_sh_0.2_tr_0.0_dc_r_0.8_g_0.8_b_0.8_sc_r_1.0_g_1.0_b_1.0_ec_r_0.0_g_0.0_b_0_mat"/>
                        </technique_common>
                    </bind_material>
                </instance_geometry>
            </node>
        </visual_scene>
    </library_visual_scenes>
    <scene>
        <instance_visual_scene url="#Building_260_TRUNK2"/>
    </scene>
</COLLADA>
