<?xml version="1.0" encoding="UTF-8" standalone="yes"?>
<COLLADA xmlns="http://www.collada.org/2005/11/COLLADASchema" version="1.4.1">
    <asset>
        <contributor>
            <authoring_tool>3D City Database Importer/Exporter, version 5.5.3; Chair of Geoinformatics, Technical University of Munich</authoring_tool>
        </contributor>
        <created>2026-09-25T14:44:43.218</created>
        <modified>2026-09-25T14:44:43.218</modified>
        <unit meter="1.0" name="meters"/>
        <up_axis>Z_UP</up_axis>
    </asset>
    <library_materials>
        <material id="default_ai_0.2_sh_0.2_tr_0.0_dc_r_0.8_g_0.8_b_0.8_sc_r_1.0_g_1.0_b_1.0_ec_r_0.0_g_0.0_b_0_mat">
            <instance_effect url="#default_ai_0.2_sh_0.2_tr_0.0_dc_r_0.8_g_0.8_b_0.8_sc_r_1.0_g_1.0_b_1.0_ec_r_0.0_g_0.0_b_0_eff"/>
        </material>
    </library_materials>
    <library_effects>
        <effect id="default_ai_0.2_sh_0.2_tr_0.0_dc_r_0.8_g_0.8_b_0.8_sc_r_1.0_g_1.0_b_1.0_ec_r_0.0_g_0.0_b_0_eff">
            <profile_COMMON>
                <technique sid="COMMON">
                    <lambert>
                        <emission>
                            <color>0.0 0.0 0.0 1.0</color>
                        </emission>
                        <diffuse>
                            <color>0.8 0.8 0.8 1.0</color>
                        </diffuse>
                        <reflective>
                            <color>1.0 1.0 1.0 1.0</color>
                        </reflective>
                        <reflectivity>
                            <float>0.2</float>
                        </reflectivity>
                        <transparent opaque="A_ONE">
                            <color>1.0 1.0 1.0 1.0</color>
                        </transparent>
                        <transparency>
                            <float>1.0</float>
                        </transparency>
                    </lambert>
                </technique>
                <extra>
                    <technique profile="GOOGLEEARTH">
                        <double_sided>0</double_sided>
                    </technique>
                </extra>
            </profile_COMMON>
        </effect>
    </library_effects>
    <library_geometries>
        <geometry id="geometry0">
            <mesh>
                <source id="geometry0-position">
                    <float_array id="geometry0-position-array" count="78">0.0 0.0 0.0 -0.0091434 0.034125 0.0 -0.0091434 0.034125 0.84 0.0 0.0 0.84 -0.034125 0.0591066 0.0 -0.034125 0.0591066 0.84 -0.06825 0.06825 0.0 -0.06825 0.06825 0.84 -0.102375 0.0591066 0.0 -0.102375 0.0591066 0.84 -0.1273566 0.034125 0.0 -0.1273566 0.034125 0.84 -0.1365 0.0 0.0 -0.1365 0.0 0.84 -0.1273566 -0.034125 0.0 -0.1273566 -0.034125 0.84 -0.102375 -0.0591066 0.0 -0.102375 -0.0591066 0.84 -0.06825 -0.06825 0.0 -0.06825 -0.06825 0.84 -0.034125 -0.0591066 0.0 -0.034125 -0.0591066 0.84 -0.0091434 -0.034125 0.0 -0.0091434 -0.034125 0.84 -0.06825 0.0 0.0 -0.06825 0.0 0.84</float_array>
                    <technique_common>
                        <accessor count="26" source="#geometry0-position-array" stride="3">
                            <param name="X" type="float"/>
                            <param name="Y" type="float"/>
                            <param name="Z" type="float"/>
                        </accessor>
                    </technique_common>
                </source>
                <source id="geometry0-normal">
                    <float_array id="geometry0-normal-array" count="432">0.7071068 0.7071068 0.0 0.7071068 0.7071068 0.0 0.7071068 0.7071068 0.0 0.7071068 0.7071068 0.0 0.7071068 0.7071068 0.0 0.7071068 0.7071068 0.0 0.2588094 0.9659284 0.0 0.2588094 0.9659284 0.0 0.2588094 0.9659284 0.0 0.2588094 0.9659284 0.0 0.2588094 0.9659284 0.0 0.2588094 0.9659284 0.0 -0.2588094 0.9659284 0.0 -0.2588094 0.9659284 0.0 -0.2588094 0.9659284 0.0 -0.2588094 0.9659284 0.0 -0.2588094 0.9659284 0.0 -0.2588094 0.9659284 0.0 -0.7071068 0.7071068 0.0 -0.7071068 0.7071068 0.0 -0.7071068 0.7071068 0.0 -0.7071068 0.7071068 0.0 -0.7071068 0.7071068 0.0 -0.7071068 0.7071068 0.0 -0.9659284 0.2588093 0.0 -0.9659284 0.2588093 0.0 -0.9659284 0.2588093 0.0 -0.9659284 0.2588093 0.0 -0.9659284 0.2588093 0.0 -0.9659284 0.2588093 0.0 -0.9659284 -0.2588093 0.0 -0.9659284 -0.2588093 0.0 -0.9659284 -0.2588093 0.0 -0.9659284 -0.2588093 0.0 -0.9659284 -0.2588093 0.0 -0.9659284 -0.2588093 0.0 -0.7071068 -0.7071068 0.0 -0.7071068 -0.7071068 0.0 -0.7071068 -0.7071068 0.0 -0.7071068 -0.7071068 0.0 -0.7071068 -0.7071068 0.0 -0.7071068 -0.7071068 0.0 -0.2588094 -0.9659284 0.0 -0.2588094 -0.9659284 0.0 -0.2588094 -0.9659284 0.0 -0.2588094 -0.9659284 0.0 -0.2588094 -0.9659284 0.0 -0.2588094 -0.9659284 0.0 0.2588094 -0.9659284 0.0 0.2588094 -0.9659284 0.0 0.2588094 -0.9659284 0.0 0.2588094 -0.9659284 0.0 0.2588094 -0.9659284 0.0 0.2588094 -0.9659284 0.0 0.7071068 -0.7071068 0.0 0.7071068 -0.7071068 0.0 0.7071068 -0.7071068 0.0 0.7071068 -0.7071068 0.0 0.7071068 -0.7071068 0.0 0.7071068 -0.7071068 0.0 0.9659284 -0.2588094 0.0 0.9659284 -0.2588094 0.0 0.9659284 -0.2588094 0.0 0.9659284 -0.2588094 0.0 0.9659284 -0.2588094 0.0 0.9659284 -0.2588094 0.0 0.0 0.0 -1.0 0.0 0.0 -1.0 0.0 0.0 -1.0 0.0 0.0 -1.0 0.0 0.0 -1.0 0.0 0.0 -1.0 0.0 0.0 -1.0 0.0 0.0 -1.0 0.0 0.0 -1.0 0.0 0.0 -1.0 0.0 0.0 -1.0 0.0 0.0 -1.0 0.0 0.0 -1.0 0.0 0.0 -1.0 0.0 0.0 -1.0 0.0 0.0 -1.0 0.0 0.0 -1.0 0.0 0.0 -1.0 0.0 0.0 -1.0 0.0 0.0 -1.0 0.0 0.0 -1.0 0.0 0.0 -1.0 0.0 0.0 -1.0 0.0 0.0 -1.0 0.0 0.0 -1.0 0.0 0.0 -1.0 0.0 0.0 -1.0 0.0 0.0 -1.0 0.0 0.0 -1.0 0.0 0.0 -1.0 0.0 0.0 -1.0 0.0 0.0 -1.0 0.0 0.0 -1.0 0.0 0.0 -1.0 0.0 0.0 -1.0 0.0 0.0 -1.0 0.0 0.0 1.0 0.0 0.0 1.0 0.0 0.0 1.0 0.0 0.0 1.0 0.0 0.0 1.0 0.0 0.0 1.0 0.0 0.0 1.0 0.0 0.0 1.0 0.0 0.0 1.0 0.0 0.0 1.0 0.0 0.0 1.0 0.0 0.0 1.0 0.0 0.0 1.0 0.0 0.0 1.0 0.0 0.0 1.0 0.0 0.0 1.0 0.0 0.0 1.0 0.0 0.0 1.0 0.0 0.0 1.0 0.0 0.0 1.0 0.0 0.0 1.0 0.0 0.0 1.0 0.0 0.0 1.0 0.0 0.0 1.0 0.0 0.0 1.0 0.0 0.0 1.0 0.0 0.0 1.0 0.0 0.0 1.0 0.0 0.0 1.0 0.0 0.0 1.0 0.0 0.0 1.0 0.0 0.0 1.0 0.0 0.0 1.0 0.0 0.0 1.0 0.0 0.0 1.0 0.0 0.0 1.0 0.9659284 0.2588094 0.0 0.9659284 0.2588094 0.0 0.9659284 0.2588094 0.0 0.9659284 0.2588094 0.0 0.9659284 0.2588094 0.0 0.9659284 0.2588094 0.0</float_array>
                    <technique_common>
                        <accessor count="144" source="#geometry0-normal-array" stride="3">
                            <param name="X" type="float"/>
                            <param name="Y" type="float"/>
                            <param name="Z" type="float"/>
                        </accessor>
                    </technique_common>
                </source>
                <vertices id="geometry0-vertex">
                    <input semantic="POSITION" source="#geometry0-position"/>
                </vertices>
                <triangles count="48" material="default_ai_0.2_sh_0.2_tr_0.0_dc_r_0.8_g_0.8_b_0.8_sc_r_1.0_g_1.0_b_1.0_ec_r_0.0_g_0.0_b_0_tri">
                    <input offset="0" semantic="VERTEX" source="#geometry0-vertex"/>
                    <input offset="1" semantic="NORMAL" source="#geometry0-normal"/>
                    <p>1 0 4 1 5 2 1 3 5 4 2 5 4 6 6 7 7 8 4 9 7 10 5 11 6 12 8 13 9 14 6 15 9 16 7 17 8 18 10 19 11 20 8 21 11 22 9 23 10 24 12 25 13 26 10 27 13 28 11 29 12 30 14 31 15 32 12 33 15 34 13 35 14 36 16 37 17 38 14 39 17 40 15 41 16 42 18 43 19 44 16 45 19 46 17 47 18 48 20 49 21 50 18 51 21 52 19 53 20 54 22 55 23 56 20 57 23 58 21 59 22 60 0 61 3 62 22 63 3 64 23 65 24 66 1 67 0 68 24 69 4 70 1 71 24 72 6 73 4 74 24 75 8 76 6 77 24 78 10 79 8 80 24 81 12 82 10 83 24 84 14 85 12 86 24 87 16 88 14 89 24 90 18 91 16 92 24 93 20 94 18 95 24 96 22 97 20 98 24 99 0 100 22 101 25 102 3 103 2 104 25 105 2 106 5 107 25 108 5 109 7 110 25 111 7 112 9 113 25 114 9 115 11 116 25 117 11 118 13 119 25 120 13 121 15 122 25 123 15 124 17 125 25 126 17 127 19 128 25 129 19 130 21 131 25 132 21 133 23 134 25 135 23 136 3 137 0 138 1 139 2 140 0 141 2 142 3 143</p>
                </triangles>
            </mesh>
        </geometry>
    </library_geometries>
    <library_visual_scenes>
        <visual_scene id="Building_68_TRUNK2">
            <node>
                <instance_geometry url="#geometry0">
                    <bind_material>
                        <technique_common>
                            <instance_material symbol="default_ai_0.2_sh_0.2_tr_0.0_dc_r_0.8_g_0.8_b_0.8_sc_r_1.0_g_1.0_b_1.0_ec_r_0.0_g_0.0_b_0_tri" target="#default_ai_0.2_sh_0.2_tr_0.0_dc_r_0.8_g_0.8_b_0.8_sc_r_1.0_g_1.0_b_1.0_ec_r_0.0_g_0.0_b_0_mat"/>
                        </technique_common>
                    </bind_material>
                </instance_geometry>
            </node>
        </visual_scene>
    </library_visual_scenes>
    <scene>
        <instance_visual_scene url="#Building_68_TRUNK2"/>
    </scene>
</COLLADA>
