<?xml version="1.0" encoding="UTF-8" standalone="yes"?>
<COLLADA xmlns="http://www.collada.org/2005/11/COLLADASchema" version="1.4.1">
    <asset>
        <contributor>
            <authoring_tool>3D City Database Importer/Exporter, version 5.5.3; Chair of Geoinformatics, Technical University of Munich</authoring_tool>
        </contributor>
        <created>2026-09-25T14:44:56.915</created>
        <modified>2026-09-25T14:44:56.915</modified>
        <unit meter="1.0" name="meters"/>
        <up_axis>Z_UP</up_axis>
    </asset>
    <library_materials>
        <material id="default_ai_0.2_sh_0.2_tr_0.0_dc_r_0.8_g_0.8_b_0.8_sc_r_1.0_g_1.0_b_1.0_ec_r_0.0_g_0.0_b_0_mat">
            <instance_effect url="#default_ai_0.2_sh_0.2_tr_0.0_dc_r_0.8_g_0.8_b_0.8_sc_r_1.0_g_1.0_b_1.0_ec_r_0.0_g_0.0_b_0_eff"/>
        </material>
    </library_materials>
    <library_effects>
        <effect id="default_ai_0.2_sh_0.2_tr_0.0_dc_r_0.8_g_0.8_b_0.8_sc_r_1.0_g_1.0_b_1.0_ec_r_0.0_g_0.0_b_0_eff">
            <profile_COMMON>
                <technique sid="COMMON">
                    <lambert>
                        <emission>
                            <color>0.0 0.0 0.0 1.0</color>
                        </emission>
                        <diffuse>
                            <color>0.8 0.8 0.8 1.0</color>
                        </diffuse>
                        <reflective>
                            <color>1.0 1.0 1.0 1.0</color>
                        </reflective>
                        <reflectivity>
                            <float>0.2</float>
                        </reflectivity>
                        <transparent opaque="A_ONE">
                            <color>1.0 1.0 1.0 1.0</color>
                        </transparent>
                        <transparency>
                            <float>1.0</float>
                        </transparency>
                    </lambert>
                </technique>
                <extra>
                    <technique profile="GOOGLEEARTH">
                        <double_sided>0</double_sided>
                    </technique>
                </extra>
            </profile_COMMON>
        </effect>
    </library_effects>
    <library_geometries>
        <geometry id="geometry0">
            <mesh>
                <source id="geometry0-position">
                    <float_array id="geometry0-position-array" count="78">0.0 0.0 0.0 -0.013398 0.05 0.0 -0.013398 0.05 3.333334 0.0 0.0 3.333334 -0.05 0.086602 0.0 -0.05 0.086602 3.333334 -0.1 0.1 0.0 -0.1 0.1 3.333334 -0.15 0.086602 0.0 -0.15 0.086602 3.333334 -0.186602 0.05 0.0 -0.186602 0.05 3.333334 -0.2 0.0 0.0 -0.2 0.0 3.333334 -0.186602 -0.05 0.0 -0.186602 -0.05 3.333334 -0.15 -0.086602 0.0 -0.15 -0.086602 3.333334 -0.1 -0.1 0.0 -0.1 -0.1 3.333334 -0.05 -0.086602 0.0 -0.05 -0.086602 3.333334 -0.013398 -0.05 0.0 -0.013398 -0.05 3.333334 -0.1 0.0 0.0 -0.1 0.0 3.333334</float_array>
                    <technique_common>
                        <accessor count="26" source="#geometry0-position-array" stride="3">
                            <param name="X" type="float"/>
                            <param name="Y" type="float"/>
                            <param name="Z" type="float"/>
                        </accessor>
                    </technique_common>
                </source>
                <source id="geometry0-normal">
                    <float_array id="geometry0-normal-array" count="432">0.0 0.0 -1.0 0.0 0.0 -1.0 0.0 0.0 -1.0 0.0 0.0 -1.0 0.0 0.0 -1.0 0.0 0.0 -1.0 0.0 0.0 -1.0 0.0 0.0 -1.0 0.0 0.0 -1.0 0.0 0.0 -1.0 0.0 0.0 -1.0 0.0 0.0 -1.0 0.0 0.0 -1.0 0.0 0.0 -1.0 0.0 0.0 -1.0 0.0 0.0 -1.0 0.0 0.0 -1.0 0.0 0.0 -1.0 0.0 0.0 -1.0 0.0 0.0 -1.0 0.0 0.0 -1.0 0.0 0.0 -1.0 0.0 0.0 -1.0 0.0 0.0 -1.0 0.0 0.0 1.0 0.0 0.0 1.0 0.0 0.0 1.0 0.0 0.0 1.0 0.0 0.0 1.0 0.0 0.0 1.0 0.0 0.0 1.0 0.0 0.0 1.0 0.0 0.0 1.0 0.0 0.0 1.0 0.0 0.0 1.0 0.0 0.0 1.0 0.0 0.0 1.0 0.0 0.0 1.0 0.0 0.0 1.0 0.0 0.0 1.0 0.0 0.0 1.0 0.0 0.0 1.0 0.0 0.0 1.0 0.0 0.0 1.0 0.0 0.0 1.0 0.0 0.0 1.0 0.0 0.0 1.0 0.0 0.0 1.0 0.0 0.0 1.0 0.0 0.0 1.0 0.0 0.0 1.0 0.0 0.0 1.0 0.0 0.0 1.0 0.0 0.0 1.0 0.0 0.0 1.0 0.0 0.0 1.0 0.0 0.0 1.0 0.0 0.0 1.0 0.0 0.0 1.0 0.0 0.0 1.0 0.9659232 0.2588288 0.0 0.9659232 0.2588288 0.0 0.9659232 0.2588288 0.0 0.9659232 0.2588288 0.0 0.9659232 0.2588288 0.0 0.9659232 0.2588288 0.0 0.7071068 0.7071068 0.0 0.7071068 0.7071068 0.0 0.7071068 0.7071068 0.0 0.7071068 0.7071068 0.0 0.7071068 0.7071068 0.0 0.7071068 0.7071068 0.0 0.2588288 0.9659232 0.0 0.2588288 0.9659232 0.0 0.2588288 0.9659232 0.0 0.2588288 0.9659232 0.0 0.2588288 0.9659232 0.0 0.2588288 0.9659232 0.0 -0.2588288 0.9659233 0.0 -0.2588288 0.9659233 0.0 -0.2588288 0.9659233 0.0 -0.2588288 0.9659233 0.0 -0.2588288 0.9659233 0.0 -0.2588288 0.9659233 0.0 -0.7071069 0.7071066 0.0 -0.7071069 0.7071066 0.0 -0.7071069 0.7071066 0.0 -0.7071069 0.7071066 0.0 -0.7071069 0.7071066 0.0 -0.7071069 0.7071066 0.0 -0.9659232 0.2588289 0.0 -0.9659232 0.2588289 0.0 -0.9659232 0.2588289 0.0 -0.9659232 0.2588289 0.0 -0.9659232 0.2588289 0.0 -0.9659232 0.2588289 0.0 -0.9659232 -0.2588289 0.0 -0.9659232 -0.2588289 0.0 -0.9659232 -0.2588289 0.0 -0.9659232 -0.2588289 0.0 -0.9659232 -0.2588289 0.0 -0.9659232 -0.2588289 0.0 -0.7071069 -0.7071066 0.0 -0.7071069 -0.7071066 0.0 -0.7071069 -0.7071066 0.0 -0.7071069 -0.7071066 0.0 -0.7071069 -0.7071066 0.0 -0.7071069 -0.7071066 0.0 -0.2588288 -0.9659233 0.0 -0.2588288 -0.9659233 0.0 -0.2588288 -0.9659233 0.0 -0.2588288 -0.9659233 0.0 -0.2588288 -0.9659233 0.0 -0.2588288 -0.9659233 0.0 0.2588288 -0.9659232 0.0 0.2588288 -0.9659232 0.0 0.2588288 -0.9659232 0.0 0.2588288 -0.9659232 0.0 0.2588288 -0.9659232 0.0 0.2588288 -0.9659232 0.0 0.7071068 -0.7071068 0.0 0.7071068 -0.7071068 0.0 0.7071068 -0.7071068 0.0 0.7071068 -0.7071068 0.0 0.7071068 -0.7071068 0.0 0.7071068 -0.7071068 0.0 0.9659232 -0.2588288 0.0 0.9659232 -0.2588288 0.0 0.9659232 -0.2588288 0.0 0.9659232 -0.2588288 0.0 0.9659232 -0.2588288 0.0 0.9659232 -0.2588288 0.0 0.0 0.0 -1.0 0.0 0.0 -1.0 0.0 0.0 -1.0 0.0 0.0 -1.0 0.0 0.0 -1.0 0.0 0.0 -1.0 0.0 0.0 -1.0 0.0 0.0 -1.0 0.0 0.0 -1.0 0.0 0.0 -1.0 0.0 0.0 -1.0 0.0 0.0 -1.0</float_array>
                    <technique_common>
                        <accessor count="144" source="#geometry0-normal-array" stride="3">
                            <param name="X" type="float"/>
                            <param name="Y" type="float"/>
                            <param name="Z" type="float"/>
                        </accessor>
                    </technique_common>
                </source>
                <vertices id="geometry0-vertex">
                    <input semantic="POSITION" source="#geometry0-position"/>
                </vertices>
                <triangles count="48" material="default_ai_0.2_sh_0.2_tr_0.0_dc_r_0.8_g_0.8_b_0.8_sc_r_1.0_g_1.0_b_1.0_ec_r_0.0_g_0.0_b_0_tri">
                    <input offset="0" semantic="VERTEX" source="#geometry0-vertex"/>
                    <input offset="1" semantic="NORMAL" source="#geometry0-normal"/>
                    <p>24 0 10 1 8 2 24 3 12 4 10 5 24 6 14 7 12 8 24 9 16 10 14 11 24 12 18 13 16 14 24 15 20 16 18 17 24 18 22 19 20 20 24 21 0 22 22 23 25 24 3 25 2 26 25 27 2 28 5 29 25 30 5 31 7 32 25 33 7 34 9 35 25 36 9 37 11 38 25 39 11 40 13 41 25 42 13 43 15 44 25 45 15 46 17 47 25 48 17 49 19 50 25 51 19 52 21 53 25 54 21 55 23 56 25 57 23 58 3 59 0 60 1 61 2 62 0 63 2 64 3 65 1 66 4 67 5 68 1 69 5 70 2 71 4 72 6 73 7 74 4 75 7 76 5 77 6 78 8 79 9 80 6 81 9 82 7 83 8 84 10 85 11 86 8 87 11 88 9 89 10 90 12 91 13 92 10 93 13 94 11 95 12 96 14 97 15 98 12 99 15 100 13 101 14 102 16 103 17 104 14 105 17 106 15 107 16 108 18 109 19 110 16 111 19 112 17 113 18 114 20 115 21 116 18 117 21 118 19 119 20 120 22 121 23 122 20 123 23 124 21 125 22 126 0 127 3 128 22 129 3 130 23 131 24 132 1 133 0 134 24 135 4 136 1 137 24 138 6 139 4 140 24 141 8 142 6 143</p>
                </triangles>
            </mesh>
        </geometry>
    </library_geometries>
    <library_visual_scenes>
        <visual_scene id="Building_121_TRUNK1">
            <node>
                <instance_geometry url="#geometry0">
                    <bind_material>
                        <technique_common>
                            <instance_material symbol="default_ai_0.2_sh_0.2_tr_0.0_dc_r_0.8_g_0.8_b_0.8_sc_r_1.0_g_1.0_b_1.0_ec_r_0.0_g_0.0_b_0_tri" target="#default_ai_0.2_sh_0.2_tr_0.0_dc_r_0.8_g_0.8_b_0.8_sc_r_1.0_g_1.0_b_1.0_ec_r_0.0_g_0.0_b_0_mat"/>
                        </technique_common>
                    </bind_material>
                </instance_geometry>
            </node>
        </visual_scene>
    </library_visual_scenes>
    <scene>
        <instance_visual_scene url="#Building_121_TRUNK1"/>
    </scene>
</COLLADA>
