<?xml version="1.0" encoding="UTF-8" standalone="yes"?>
<COLLADA xmlns="http://www.collada.org/2005/11/COLLADASchema" version="1.4.1">
    <asset>
        <contributor>
            <authoring_tool>3D City Database Importer/Exporter, version 5.5.3; Chair of Geoinformatics, Technical University of Munich</authoring_tool>
        </contributor>
        <created>2026-09-25T14:44:36.972</created>
        <modified>2026-09-25T14:44:36.972</modified>
        <unit meter="1.0" name="meters"/>
        <up_axis>Z_UP</up_axis>
    </asset>
    <library_materials>
        <material id="default_ai_0.2_sh_0.2_tr_0.0_dc_r_0.8_g_0.8_b_0.8_sc_r_1.0_g_1.0_b_1.0_ec_r_0.0_g_0.0_b_0_mat">
            <instance_effect url="#default_ai_0.2_sh_0.2_tr_0.0_dc_r_0.8_g_0.8_b_0.8_sc_r_1.0_g_1.0_b_1.0_ec_r_0.0_g_0.0_b_0_eff"/>
        </material>
    </library_materials>
    <library_effects>
        <effect id="default_ai_0.2_sh_0.2_tr_0.0_dc_r_0.8_g_0.8_b_0.8_sc_r_1.0_g_1.0_b_1.0_ec_r_0.0_g_0.0_b_0_eff">
            <profile_COMMON>
                <technique sid="COMMON">
                    <lambert>
                        <emission>
                            <color>0.0 0.0 0.0 1.0</color>
                        </emission>
                        <diffuse>
                            <color>0.8 0.8 0.8 1.0</color>
                        </diffuse>
                        <reflective>
                            <color>1.0 1.0 1.0 1.0</color>
                        </reflective>
                        <reflectivity>
                            <float>0.2</float>
                        </reflectivity>
                        <transparent opaque="A_ONE">
                            <color>1.0 1.0 1.0 1.0</color>
                        </transparent>
                        <transparency>
                            <float>1.0</float>
                        </transparency>
                    </lambert>
                </technique>
                <extra>
                    <technique profile="GOOGLEEARTH">
                        <double_sided>0</double_sided>
                    </technique>
                </extra>
            </profile_COMMON>
        </effect>
    </library_effects>
    <library_geometries>
        <geometry id="geometry0">
            <mesh>
                <source id="geometry0-position">
                    <float_array id="geometry0-position-array" count="402">0.0 0.0 3.5 0.392252 0.2264675 3.4403705 0.4529332 0.0 3.4403705 0.2264675 0.392252 3.4403705 0.0 0.4529332 3.4403705 -0.2264675 0.392252 3.4403705 -0.392252 0.2264675 3.4403705 -0.4529332 0.0 3.4403705 -0.392252 -0.2264675 3.4403705 -0.2264675 -0.392252 3.4403705 0.0 -0.4529332 3.4403705 0.2264675 -0.392252 3.4403705 0.392252 -0.2264675 3.4403705 0.7577727 0.4375 3.2655438 0.875 0.0 3.2655438 0.4375 0.7577728 3.2655438 0.0 0.875 3.2655438 -0.4375 0.7577728 3.2655438 -0.7577727 0.4375 3.2655438 -0.875 0.0 3.2655438 -0.7577727 -0.4375 3.2655438 -0.4375 -0.7577728 3.2655438 0.0 -0.875 3.2655438 0.4375 -0.7577728 3.2655438 0.7577727 -0.4375 3.2655438 1.071651 0.6187177 2.9874355 1.2374372 0.0 2.9874355 0.6187178 1.071651 2.9874355 0.0 1.2374373 2.9874355 -0.6187178 1.071651 2.9874355 -1.071651 0.6187177 2.9874355 -1.2374372 0.0 2.9874355 -1.071651 -0.6187177 2.9874355 -0.6187178 -1.071651 2.9874355 0.0 -1.2374373 2.9874355 0.6187178 -1.071651 2.9874355 1.071651 -0.6187177 2.9874355 1.3125 0.7577728 2.625 1.5155438 0.0 2.625 0.7577727 1.3125 2.625 0.0 1.5155437 2.625 -0.7577727 1.3125 2.625 -1.3125 0.7577728 2.625 -1.5155438 0.0 2.625 -1.3125 -0.7577728 2.625 -0.7577727 -1.3125 2.625 0.0 -1.5155437 2.625 0.7577727 -1.3125 2.625 1.3125 -0.7577728 2.625 1.463903 0.8451853 2.2029332 1.6903705 0.0 2.2029332 0.8451852 1.463903 2.2029332 0.0 1.6903705 2.2029332 -0.8451852 1.463903 2.2029332 -1.463903 0.8451853 2.2029332 -1.6903705 0.0 2.2029332 -1.463903 -0.8451853 2.2029332 -0.8451852 -1.463903 2.2029332 0.0 -1.6903705 2.2029332 0.8451852 -1.463903 2.2029332 1.463903 -0.8451853 2.2029332 1.5155438 0.875 1.75 1.75 0.0 1.75 0.875 1.5155437 1.75 0.0 1.75 1.75 -0.875 1.5155437 1.75 -1.5155438 0.875 1.75 -1.75 0.0 1.75 -1.5155438 -0.875 1.75 -0.875 -1.5155437 1.75 0.0 -1.75 1.75 0.875 -1.5155437 1.75 1.5155438 -0.875 1.75 1.463903 0.8451853 1.2970668 1.6903705 0.0 1.2970668 0.8451852 1.463903 1.2970668 0.0 1.6903705 1.2970668 -0.8451852 1.463903 1.2970668 -1.463903 0.8451853 1.2970668 -1.6903705 0.0 1.2970668 -1.463903 -0.8451853 1.2970668 -0.8451852 -1.463903 1.2970668 0.0 -1.6903705 1.2970668 0.8451852 -1.463903 1.2970668 1.463903 -0.8451853 1.2970668 1.3125 0.7577728 0.875 1.5155438 0.0 0.875 0.7577727 1.3125 0.875 0.0 1.5155437 0.875 -0.7577727 1.3125 0.875 -1.3125 0.7577728 0.875 -1.5155438 0.0 0.875 -1.3125 -0.7577728 0.875 -0.7577727 -1.3125 0.875 0.0 -1.5155437 0.875 0.7577727 -1.3125 0.875 1.3125 -0.7577728 0.875 1.071651 0.6187177 0.5125628 1.2374372 0.0 0.5125628 0.6187178 1.071651 0.5125628 0.0 1.2374373 0.5125628 -0.6187178 1.071651 0.5125628 -1.071651 0.6187177 0.5125628 -1.2374372 0.0 0.5125628 -1.071651 -0.6187177 0.5125628 -0.6187178 -1.071651 0.5125628 0.0 -1.2374373 0.5125628 0.6187178 -1.071651 0.5125628 1.071651 -0.6187177 0.5125628 0.7577727 0.4375 0.2344545 0.875 0.0 0.2344545 0.4375 0.7577728 0.2344545 0.0 0.875 0.2344545 -0.4375 0.7577728 0.2344545 -0.7577727 0.4375 0.2344545 -0.875 0.0 0.2344545 -0.7577727 -0.4375 0.2344545 -0.4375 -0.7577728 0.2344545 0.0 -0.875 0.2344545 0.4375 -0.7577728 0.2344545 0.7577727 -0.4375 0.2344545 0.392252 0.2264675 0.0596295 0.4529332 0.0 0.0596295 0.2264675 0.392252 0.0596295 0.0 0.4529332 0.0596295 -0.2264675 0.392252 0.0596295 -0.392252 0.2264675 0.0596295 -0.4529332 0.0 0.0596295 -0.392252 -0.2264675 0.0596295 -0.2264675 -0.392252 0.0596295 0.0 -0.4529332 0.0596295 0.2264675 -0.392252 0.0596295 0.392252 -0.2264675 0.0596295 0.0 0.0 0.0</float_array>
                    <technique_common>
                        <accessor count="134" source="#geometry0-position-array" stride="3">
                            <param name="X" type="float"/>
                            <param name="Y" type="float"/>
                            <param name="Z" type="float"/>
                        </accessor>
                    </technique_common>
                </source>
                <source id="geometry0-normal">
                    <float_array id="geometry0-normal-array" count="2520">1.0 0.0 0.0 1.0 0.0 0.0 -0.1304457 -0.0349525 -0.9908392 -0.1304457 -0.0349525 -0.9908392 -0.1304457 -0.0349525 -0.9908392 1.0 0.0 0.0 1.0 0.0 0.0 -0.0954927 -0.0954927 -0.9908392 -0.0954927 -0.0954927 -0.9908392 -0.0954927 -0.0954927 -0.9908392 1.0 0.0 0.0 1.0 0.0 0.0 -0.0349525 -0.1304457 -0.9908392 -0.0349525 -0.1304457 -0.9908392 -0.0349525 -0.1304457 -0.9908392 1.0 0.0 0.0 1.0 0.0 0.0 0.0349525 -0.1304457 -0.9908392 0.0349525 -0.1304457 -0.9908392 0.0349525 -0.1304457 -0.9908392 1.0 0.0 0.0 1.0 0.0 0.0 0.0954927 -0.0954927 -0.9908392 0.0954927 -0.0954927 -0.9908392 0.0954927 -0.0954927 -0.9908392 1.0 0.0 0.0 1.0 0.0 0.0 0.1304457 -0.0349525 -0.9908392 0.1304457 -0.0349525 -0.9908392 0.1304457 -0.0349525 -0.9908392 1.0 0.0 0.0 1.0 0.0 0.0 0.1304457 0.0349525 -0.9908392 0.1304457 0.0349525 -0.9908392 0.1304457 0.0349525 -0.9908392 1.0 0.0 0.0 1.0 0.0 0.0 0.0954927 0.0954927 -0.9908392 0.0954927 0.0954927 -0.9908392 0.0954927 0.0954927 -0.9908392 1.0 0.0 0.0 1.0 0.0 0.0 0.0349525 0.1304457 -0.9908392 0.0349525 0.1304457 -0.9908392 0.0349525 0.1304457 -0.9908392 1.0 0.0 0.0 1.0 0.0 0.0 -0.0349525 0.1304457 -0.9908392 -0.0349525 0.1304457 -0.9908392 -0.0349525 0.1304457 -0.9908392 1.0 0.0 0.0 1.0 0.0 0.0 -0.0954927 0.0954927 -0.9908392 -0.0954927 0.0954927 -0.9908392 -0.0954927 0.0954927 -0.9908392 1.0 0.0 0.0 1.0 0.0 0.0 -0.1304457 0.0349525 -0.9908392 -0.1304457 0.0349525 -0.9908392 -0.1304457 0.0349525 -0.9908392 -0.3806897 -0.1020046 -0.9190595 -0.3806897 -0.1020046 -0.9190595 -0.3806897 -0.1020046 -0.9190595 -0.3806894 -0.102005 -0.9190596 -0.3806894 -0.102005 -0.9190596 -0.3806894 -0.102005 -0.9190596 -0.2786842 -0.2786842 -0.9190595 -0.2786842 -0.2786842 -0.9190595 -0.2786842 -0.2786842 -0.9190595 -0.2786842 -0.2786842 -0.9190595 -0.2786842 -0.2786842 -0.9190595 -0.2786842 -0.2786842 -0.9190595 -0.1020045 -0.3806894 -0.9190598 -0.1020045 -0.3806894 -0.9190598 -0.1020045 -0.3806894 -0.9190598 -0.102005 -0.3806895 -0.9190595 -0.102005 -0.3806895 -0.9190595 -0.102005 -0.3806895 -0.9190595 0.1020046 -0.3806897 -0.9190595 0.1020046 -0.3806897 -0.9190595 0.1020046 -0.3806897 -0.9190595 0.102005 -0.3806894 -0.9190596 0.102005 -0.3806894 -0.9190596 0.102005 -0.3806894 -0.9190596 0.2786842 -0.2786842 -0.9190595 0.2786842 -0.2786842 -0.9190595 0.2786842 -0.2786842 -0.9190595 0.2786842 -0.2786842 -0.9190595 0.2786842 -0.2786842 -0.9190595 0.2786842 -0.2786842 -0.9190595 0.3806894 -0.1020045 -0.9190598 0.3806894 -0.1020045 -0.9190598 0.3806894 -0.1020045 -0.9190598 0.3806895 -0.102005 -0.9190595 0.3806895 -0.102005 -0.9190595 0.3806895 -0.102005 -0.9190595 0.3806897 0.1020046 -0.9190595 0.3806897 0.1020046 -0.9190595 0.3806897 0.1020046 -0.9190595 0.3806894 0.102005 -0.9190596 0.3806894 0.102005 -0.9190596 0.3806894 0.102005 -0.9190596 0.2786842 0.2786842 -0.9190595 0.2786842 0.2786842 -0.9190595 0.2786842 0.2786842 -0.9190595 0.2786842 0.2786842 -0.9190595 0.2786842 0.2786842 -0.9190595 0.2786842 0.2786842 -0.9190595 0.1020045 0.3806894 -0.9190598 0.1020045 0.3806894 -0.9190598 0.1020045 0.3806894 -0.9190598 0.102005 0.3806895 -0.9190595 0.102005 0.3806895 -0.9190595 0.102005 0.3806895 -0.9190595 -0.1020046 0.3806897 -0.9190595 -0.1020046 0.3806897 -0.9190595 -0.1020046 0.3806897 -0.9190595 -0.102005 0.3806894 -0.9190596 -0.102005 0.3806894 -0.9190596 -0.102005 0.3806894 -0.9190596 -0.2786842 0.2786842 -0.9190595 -0.2786842 0.2786842 -0.9190595 -0.2786842 0.2786842 -0.9190595 -0.2786842 0.2786842 -0.9190595 -0.2786842 0.2786842 -0.9190595 -0.2786842 0.2786842 -0.9190595 -0.3806894 0.1020045 -0.9190598 -0.3806894 0.1020045 -0.9190598 -0.3806894 0.1020045 -0.9190598 -0.3806895 0.102005 -0.9190595 -0.3806895 0.102005 -0.9190595 -0.3806895 0.102005 -0.9190595 -0.6008233 -0.1609894 -0.783003 -0.6008233 -0.1609894 -0.783003 -0.6008233 -0.1609894 -0.783003 -0.600821 -0.1609908 -0.7830045 -0.600821 -0.1609908 -0.7830045 -0.600821 -0.1609908 -0.7830045 -0.439833 -0.439833 -0.7830032 -0.439833 -0.439833 -0.7830032 -0.439833 -0.439833 -0.7830032 -0.439833 -0.439833 -0.7830032 -0.439833 -0.439833 -0.7830032 -0.439833 -0.439833 -0.7830032 -0.1609889 -0.6008212 -0.7830048 -0.1609889 -0.6008212 -0.7830048 -0.1609889 -0.6008212 -0.7830048 -0.1609912 -0.6008225 -0.7830033 -0.1609912 -0.6008225 -0.7830033 -0.1609912 -0.6008225 -0.7830033 0.1609894 -0.6008233 -0.783003 0.1609894 -0.6008233 -0.783003 0.1609894 -0.6008233 -0.783003 0.1609908 -0.600821 -0.7830045 0.1609908 -0.600821 -0.7830045 0.1609908 -0.600821 -0.7830045 0.439833 -0.439833 -0.7830032 0.439833 -0.439833 -0.7830032 0.439833 -0.439833 -0.7830032 0.439833 -0.439833 -0.7830032 0.439833 -0.439833 -0.7830032 0.439833 -0.439833 -0.7830032 0.6008212 -0.1609889 -0.7830048 0.6008212 -0.1609889 -0.7830048 0.6008212 -0.1609889 -0.7830048 0.6008225 -0.1609912 -0.7830033 0.6008225 -0.1609912 -0.7830033 0.6008225 -0.1609912 -0.7830033 0.6008233 0.1609894 -0.783003 0.6008233 0.1609894 -0.783003 0.6008233 0.1609894 -0.783003 0.600821 0.1609908 -0.7830045 0.600821 0.1609908 -0.7830045 0.600821 0.1609908 -0.7830045 0.439833 0.439833 -0.7830032 0.439833 0.439833 -0.7830032 0.439833 0.439833 -0.7830032 0.439833 0.439833 -0.7830032 0.439833 0.439833 -0.7830032 0.439833 0.439833 -0.7830032 0.1609889 0.6008212 -0.7830048 0.1609889 0.6008212 -0.7830048 0.1609889 0.6008212 -0.7830048 0.1609912 0.6008225 -0.7830033 0.1609912 0.6008225 -0.7830033 0.1609912 0.6008225 -0.7830033 -0.1609894 0.6008233 -0.783003 -0.1609894 0.6008233 -0.783003 -0.1609894 0.6008233 -0.783003 -0.1609908 0.600821 -0.7830045 -0.1609908 0.600821 -0.7830045 -0.1609908 0.600821 -0.7830045 -0.439833 0.439833 -0.7830032 -0.439833 0.439833 -0.7830032 -0.439833 0.439833 -0.7830032 -0.439833 0.439833 -0.7830032 -0.439833 0.439833 -0.7830032 -0.439833 0.439833 -0.7830032 -0.6008212 0.1609889 -0.7830048 -0.6008212 0.1609889 -0.7830048 -0.6008212 0.1609889 -0.7830048 -0.6008225 0.1609912 -0.7830033 -0.6008225 0.1609912 -0.7830033 -0.6008225 0.1609912 -0.7830033 -0.7760106 -0.2079331 -0.595459 -0.7760106 -0.2079331 -0.595459 -0.7760106 -0.2079331 -0.595459 -0.7760136 -0.2079313 -0.5954558 -0.7760136 -0.2079313 -0.5954558 -0.7760136 -0.2079313 -0.5954558 -0.5680793 -0.5680793 -0.5954593 -0.5680793 -0.5680793 -0.5954593 -0.5680793 -0.5680793 -0.5954593 -0.5680793 -0.5680793 -0.5954593 -0.5680793 -0.5680793 -0.5954593 -0.5680793 -0.5680793 -0.5954593 -0.2079338 -0.7760131 -0.5954555 -0.2079338 -0.7760131 -0.5954555 -0.2079338 -0.7760131 -0.5954555 -0.2079307 -0.7760115 -0.5954587 -0.2079307 -0.7760115 -0.5954587 -0.2079307 -0.7760115 -0.5954587 0.2079331 -0.7760106 -0.595459 0.2079331 -0.7760106 -0.595459 0.2079331 -0.7760106 -0.595459 0.2079313 -0.7760136 -0.5954558 0.2079313 -0.7760136 -0.5954558 0.2079313 -0.7760136 -0.5954558 0.5680793 -0.5680793 -0.5954593 0.5680793 -0.5680793 -0.5954593 0.5680793 -0.5680793 -0.5954593 0.5680793 -0.5680793 -0.5954593 0.5680793 -0.5680793 -0.5954593 0.5680793 -0.5680793 -0.5954593 0.7760131 -0.2079338 -0.5954555 0.7760131 -0.2079338 -0.5954555 0.7760131 -0.2079338 -0.5954555 0.7760115 -0.2079307 -0.5954587 0.7760115 -0.2079307 -0.5954587 0.7760115 -0.2079307 -0.5954587 0.7760106 0.2079331 -0.595459 0.7760106 0.2079331 -0.595459 0.7760106 0.2079331 -0.595459 0.7760136 0.2079313 -0.5954558 0.7760136 0.2079313 -0.5954558 0.7760136 0.2079313 -0.5954558 0.5680793 0.5680793 -0.5954593 0.5680793 0.5680793 -0.5954593 0.5680793 0.5680793 -0.5954593 0.5680793 0.5680793 -0.5954593 0.5680793 0.5680793 -0.5954593 0.5680793 0.5680793 -0.5954593 0.2079338 0.7760131 -0.5954555 0.2079338 0.7760131 -0.5954555 0.2079338 0.7760131 -0.5954555 0.2079307 0.7760115 -0.5954587 0.2079307 0.7760115 -0.5954587 0.2079307 0.7760115 -0.5954587 -0.2079331 0.7760106 -0.595459 -0.2079331 0.7760106 -0.595459 -0.2079331 0.7760106 -0.595459 -0.2079313 0.7760136 -0.5954558 -0.2079313 0.7760136 -0.5954558 -0.2079313 0.7760136 -0.5954558 -0.5680793 0.5680793 -0.5954593 -0.5680793 0.5680793 -0.5954593 -0.5680793 0.5680793 -0.5954593 -0.5680793 0.5680793 -0.5954593 -0.5680793 0.5680793 -0.5954593 -0.5680793 0.5680793 -0.5954593 -0.7760131 0.2079338 -0.5954555 -0.7760131 0.2079338 -0.5954555 -0.7760131 0.2079338 -0.5954555 -0.7760115 0.2079307 -0.5954587 -0.7760115 0.2079307 -0.5954587 -0.7760115 0.2079307 -0.5954587 -0.8968096 -0.2402983 -0.371469 -0.8968096 -0.2402983 -0.371469 -0.8968096 -0.2402983 -0.371469 -0.896808 -0.2402998 -0.3714721 -0.896808 -0.2402998 -0.3714721 -0.896808 -0.2402998 -0.3714721 -0.65651 -0.65651 -0.3714691 -0.65651 -0.65651 -0.3714691 -0.65651 -0.65651 -0.3714691 -0.6565099 -0.65651 -0.3714692 -0.6565099 -0.65651 -0.3714692 -0.6565099 -0.65651 -0.3714692 -0.240298 -0.8968083 -0.3714725 -0.240298 -0.8968083 -0.3714725 -0.240298 -0.8968083 -0.3714725 -0.2403002 -0.896809 -0.3714691 -0.2403002 -0.896809 -0.3714691 -0.2403002 -0.896809 -0.3714691 0.2402983 -0.8968096 -0.371469 0.2402983 -0.8968096 -0.371469 0.2402983 -0.8968096 -0.371469 0.2402999 -0.8968078 -0.3714723 0.2402999 -0.8968078 -0.3714723 0.2402999 -0.8968078 -0.3714723 0.6565099 -0.6565099 -0.3714691 0.6565099 -0.6565099 -0.3714691 0.6565099 -0.6565099 -0.3714691 0.6565099 -0.6565101 -0.3714691 0.6565099 -0.6565101 -0.3714691 0.6565099 -0.6565101 -0.3714691 0.8968083 -0.240298 -0.3714723 0.8968083 -0.240298 -0.3714723 0.8968083 -0.240298 -0.3714723 0.8968091 -0.2403001 -0.3714692 0.8968091 -0.2403001 -0.3714692 0.8968091 -0.2403001 -0.3714692 0.8968096 0.2402983 -0.371469 0.8968096 0.2402983 -0.371469 0.8968096 0.2402983 -0.371469 0.896808 0.2402998 -0.3714721 0.896808 0.2402998 -0.3714721 0.896808 0.2402998 -0.3714721 0.65651 0.65651 -0.3714691 0.65651 0.65651 -0.3714691 0.65651 0.65651 -0.3714691 0.6565099 0.65651 -0.3714692 0.6565099 0.65651 -0.3714692 0.6565099 0.65651 -0.3714692 0.240298 0.8968083 -0.3714725 0.240298 0.8968083 -0.3714725 0.240298 0.8968083 -0.3714725 0.2403002 0.896809 -0.3714691 0.2403002 0.896809 -0.3714691 0.2403002 0.896809 -0.3714691 -0.2402983 0.8968096 -0.371469 -0.2402983 0.8968096 -0.371469 -0.2402983 0.8968096 -0.371469 -0.2402999 0.8968078 -0.3714723 -0.2402999 0.8968078 -0.3714723 -0.2402999 0.8968078 -0.3714723 -0.6565099 0.6565099 -0.3714691 -0.6565099 0.6565099 -0.3714691 -0.6565099 0.6565099 -0.3714691 -0.6565099 0.6565101 -0.3714691 -0.6565099 0.6565101 -0.3714691 -0.6565099 0.6565101 -0.3714691 -0.8968083 0.240298 -0.3714723 -0.8968083 0.240298 -0.3714723 -0.8968083 0.240298 -0.3714723 -0.8968091 0.2403001 -0.3714692 -0.8968091 0.2403001 -0.3714692 -0.8968091 0.2403001 -0.3714692 -0.958209 -0.2567522 -0.1261502 -0.958209 -0.2567522 -0.1261502 -0.958209 -0.2567522 -0.1261502 -0.958209 -0.2567521 -0.1261501 -0.958209 -0.2567521 -0.1261501 -0.958209 -0.2567521 -0.1261501 -0.7014578 -0.7014579 -0.1261502 -0.7014578 -0.7014579 -0.1261502 -0.7014578 -0.7014579 -0.1261502 -0.7014578 -0.7014578 -0.1261501 -0.7014578 -0.7014578 -0.1261501 -0.7014578 -0.7014578 -0.1261501 -0.2567523 -0.958209 -0.1261498 -0.2567523 -0.958209 -0.1261498 -0.2567523 -0.958209 -0.1261498 -0.2567521 -0.958209 -0.1261502 -0.2567521 -0.958209 -0.1261502 -0.2567521 -0.958209 -0.1261502 0.2567524 -0.958209 -0.1261502 0.2567524 -0.958209 -0.1261502 0.2567524 -0.958209 -0.1261502 0.2567521 -0.958209 -0.1261498 0.2567521 -0.958209 -0.1261498 0.2567521 -0.958209 -0.1261498 0.7014578 -0.7014579 -0.1261501 0.7014578 -0.7014579 -0.1261501 0.7014578 -0.7014579 -0.1261501 0.7014578 -0.7014578 -0.1261502 0.7014578 -0.7014578 -0.1261502 0.7014578 -0.7014578 -0.1261502 0.958209 -0.2567522 -0.1261501 0.958209 -0.2567522 -0.1261501 0.958209 -0.2567522 -0.1261501 0.958209 -0.2567521 -0.1261502 0.958209 -0.2567521 -0.1261502 0.958209 -0.2567521 -0.1261502 0.958209 0.2567522 -0.1261502 0.958209 0.2567522 -0.1261502 0.958209 0.2567522 -0.1261502 0.958209 0.2567521 -0.1261501 0.958209 0.2567521 -0.1261501 0.958209 0.2567521 -0.1261501 0.7014578 0.7014579 -0.1261502 0.7014578 0.7014579 -0.1261502 0.7014578 0.7014579 -0.1261502 0.7014578 0.7014578 -0.1261501 0.7014578 0.7014578 -0.1261501 0.7014578 0.7014578 -0.1261501 0.2567523 0.958209 -0.1261498 0.2567523 0.958209 -0.1261498 0.2567523 0.958209 -0.1261498 0.2567521 0.958209 -0.1261502 0.2567521 0.958209 -0.1261502 0.2567521 0.958209 -0.1261502 -0.2567524 0.958209 -0.1261502 -0.2567524 0.958209 -0.1261502 -0.2567524 0.958209 -0.1261502 -0.2567521 0.958209 -0.1261498 -0.2567521 0.958209 -0.1261498 -0.2567521 0.958209 -0.1261498 -0.7014578 0.7014579 -0.1261501 -0.7014578 0.7014579 -0.1261501 -0.7014578 0.7014579 -0.1261501 -0.7014578 0.7014578 -0.1261502 -0.7014578 0.7014578 -0.1261502 -0.7014578 0.7014578 -0.1261502 -0.958209 0.2567522 -0.1261501 -0.958209 0.2567522 -0.1261501 -0.958209 0.2567522 -0.1261501 -0.958209 0.2567521 -0.1261502 -0.958209 0.2567521 -0.1261502 -0.958209 0.2567521 -0.1261502 -0.958209 -0.2567522 0.1261502 -0.958209 -0.2567522 0.1261502 -0.958209 -0.2567522 0.1261502 -0.958209 -0.2567522 0.1261501 -0.958209 -0.2567522 0.1261501 -0.958209 -0.2567522 0.1261501 -0.7014578 -0.7014578 0.1261502 -0.7014578 -0.7014578 0.1261502 -0.7014578 -0.7014578 0.1261502 -0.7014578 -0.7014579 0.1261502 -0.7014578 -0.7014579 0.1261502 -0.7014578 -0.7014579 0.1261502 -0.2567522 -0.9582091 0.1261499 -0.2567522 -0.9582091 0.1261499 -0.2567522 -0.9582091 0.1261499 -0.2567523 -0.9582089 0.1261503 -0.2567523 -0.9582089 0.1261503 -0.2567523 -0.9582089 0.1261503 0.2567522 -0.958209 0.1261503 0.2567522 -0.958209 0.1261503 0.2567522 -0.958209 0.1261503 0.2567524 -0.958209 0.1261499 0.2567524 -0.958209 0.1261499 0.2567524 -0.958209 0.1261499 0.7014578 -0.7014578 0.1261501 0.7014578 -0.7014578 0.1261501 0.7014578 -0.7014578 0.1261501 0.7014577 -0.7014578 0.1261502 0.7014577 -0.7014578 0.1261502 0.7014577 -0.7014578 0.1261502 0.958209 -0.2567522 0.1261501 0.958209 -0.2567522 0.1261501 0.958209 -0.2567522 0.1261501 0.958209 -0.2567522 0.1261502 0.958209 -0.2567522 0.1261502 0.958209 -0.2567522 0.1261502 0.958209 0.2567522 0.1261502 0.958209 0.2567522 0.1261502 0.958209 0.2567522 0.1261502 0.958209 0.2567522 0.1261501 0.958209 0.2567522 0.1261501 0.958209 0.2567522 0.1261501 0.7014578 0.7014578 0.1261502 0.7014578 0.7014578 0.1261502 0.7014578 0.7014578 0.1261502 0.7014578 0.7014579 0.1261502 0.7014578 0.7014579 0.1261502 0.7014578 0.7014579 0.1261502 0.2567522 0.9582091 0.1261499 0.2567522 0.9582091 0.1261499 0.2567522 0.9582091 0.1261499 0.2567523 0.9582089 0.1261503 0.2567523 0.9582089 0.1261503 0.2567523 0.9582089 0.1261503 -0.2567522 0.958209 0.1261503 -0.2567522 0.958209 0.1261503 -0.2567522 0.958209 0.1261503 -0.2567524 0.958209 0.1261499 -0.2567524 0.958209 0.1261499 -0.2567524 0.958209 0.1261499 -0.7014578 0.7014578 0.1261501 -0.7014578 0.7014578 0.1261501 -0.7014578 0.7014578 0.1261501 -0.7014577 0.7014578 0.1261502 -0.7014577 0.7014578 0.1261502 -0.7014577 0.7014578 0.1261502 -0.958209 0.2567522 0.1261501 -0.958209 0.2567522 0.1261501 -0.958209 0.2567522 0.1261501 -0.958209 0.2567522 0.1261502 -0.958209 0.2567522 0.1261502 -0.958209 0.2567522 0.1261502 -0.8968092 -0.2403001 0.3714691 -0.8968092 -0.2403001 0.3714691 -0.8968092 -0.2403001 0.3714691 -0.8968084 -0.240298 0.3714722 -0.8968084 -0.240298 0.3714722 -0.8968084 -0.240298 0.3714722 -0.65651 -0.6565101 0.371469 -0.65651 -0.6565101 0.371469 -0.65651 -0.6565101 0.371469 -0.65651 -0.65651 0.3714691 -0.65651 -0.65651 0.3714691 -0.65651 -0.65651 0.3714691 -0.2402999 -0.8968078 0.3714722 -0.2402999 -0.8968078 0.3714722 -0.2402999 -0.8968078 0.3714722 -0.2402984 -0.8968096 0.3714689 -0.2402984 -0.8968096 0.3714689 -0.2402984 -0.8968096 0.3714689 0.2403002 -0.8968091 0.3714691 0.2403002 -0.8968091 0.3714691 0.2403002 -0.8968091 0.3714691 0.240298 -0.8968083 0.3714724 0.240298 -0.8968083 0.3714724 0.240298 -0.8968083 0.3714724 0.6565099 -0.65651 0.371469 0.6565099 -0.65651 0.371469 0.6565099 -0.65651 0.371469 0.65651 -0.65651 0.371469 0.65651 -0.65651 0.371469 0.65651 -0.65651 0.371469 0.896808 -0.2402998 0.371472 0.896808 -0.2402998 0.371472 0.896808 -0.2402998 0.371472 0.8968096 -0.2402984 0.371469 0.8968096 -0.2402984 0.371469 0.8968096 -0.2402984 0.371469 0.8968092 0.2403001 0.3714691 0.8968092 0.2403001 0.3714691 0.8968092 0.2403001 0.3714691 0.8968084 0.240298 0.3714722 0.8968084 0.240298 0.3714722 0.8968084 0.240298 0.3714722 0.65651 0.6565101 0.371469 0.65651 0.6565101 0.371469 0.65651 0.6565101 0.371469 0.65651 0.65651 0.3714691 0.65651 0.65651 0.3714691 0.65651 0.65651 0.3714691 0.2402999 0.8968078 0.3714722 0.2402999 0.8968078 0.3714722 0.2402999 0.8968078 0.3714722 0.2402984 0.8968096 0.3714689 0.2402984 0.8968096 0.3714689 0.2402984 0.8968096 0.3714689 -0.2403002 0.8968091 0.3714691 -0.2403002 0.8968091 0.3714691 -0.2403002 0.8968091 0.3714691 -0.240298 0.8968083 0.3714724 -0.240298 0.8968083 0.3714724 -0.240298 0.8968083 0.3714724 -0.6565099 0.65651 0.371469 -0.6565099 0.65651 0.371469 -0.6565099 0.65651 0.371469 -0.65651 0.65651 0.371469 -0.65651 0.65651 0.371469 -0.65651 0.65651 0.371469 -0.896808 0.2402998 0.371472 -0.896808 0.2402998 0.371472 -0.896808 0.2402998 0.371472 -0.8968096 0.2402984 0.371469 -0.8968096 0.2402984 0.371469 -0.8968096 0.2402984 0.371469 -0.7760127 -0.2079311 0.5954569 -0.7760127 -0.2079311 0.5954569 -0.7760127 -0.2079311 0.5954569 -0.7760143 -0.2079341 0.5954537 -0.7760143 -0.2079341 0.5954537 -0.7760143 -0.2079341 0.5954537 -0.5680802 -0.5680802 0.5954575 -0.5680802 -0.5680802 0.5954575 -0.5680802 -0.5680802 0.5954575 -0.5680802 -0.5680802 0.5954575 -0.5680802 -0.5680802 0.5954575 -0.5680802 -0.5680802 0.5954575 -0.2079316 -0.7760148 0.595454 -0.2079316 -0.7760148 0.595454 -0.2079316 -0.7760148 0.595454 -0.2079334 -0.7760118 0.5954572 -0.2079334 -0.7760118 0.5954572 -0.2079334 -0.7760118 0.5954572 0.2079311 -0.7760127 0.5954569 0.2079311 -0.7760127 0.5954569 0.2079311 -0.7760127 0.5954569 0.2079341 -0.7760143 0.5954537 0.2079341 -0.7760143 0.5954537 0.2079341 -0.7760143 0.5954537 0.5680802 -0.5680802 0.5954575 0.5680802 -0.5680802 0.5954575 0.5680802 -0.5680802 0.5954575 0.5680802 -0.5680802 0.5954575 0.5680802 -0.5680802 0.5954575 0.5680802 -0.5680802 0.5954575 0.7760148 -0.2079316 0.595454 0.7760148 -0.2079316 0.595454 0.7760148 -0.2079316 0.595454 0.7760118 -0.2079334 0.5954572 0.7760118 -0.2079334 0.5954572 0.7760118 -0.2079334 0.5954572 0.7760127 0.2079311 0.5954569 0.7760127 0.2079311 0.5954569 0.7760127 0.2079311 0.5954569 0.7760143 0.2079341 0.5954537 0.7760143 0.2079341 0.5954537 0.7760143 0.2079341 0.5954537 0.5680802 0.5680802 0.5954575 0.5680802 0.5680802 0.5954575 0.5680802 0.5680802 0.5954575 0.5680802 0.5680802 0.5954575 0.5680802 0.5680802 0.5954575 0.5680802 0.5680802 0.5954575 0.2079316 0.7760148 0.595454 0.2079316 0.7760148 0.595454 0.2079316 0.7760148 0.595454 0.2079334 0.7760118 0.5954572 0.2079334 0.7760118 0.5954572 0.2079334 0.7760118 0.5954572 -0.2079311 0.7760127 0.5954569 -0.2079311 0.7760127 0.5954569 -0.2079311 0.7760127 0.5954569 -0.2079341 0.7760143 0.5954537 -0.2079341 0.7760143 0.5954537 -0.2079341 0.7760143 0.5954537 -0.5680802 0.5680802 0.5954575 -0.5680802 0.5680802 0.5954575 -0.5680802 0.5680802 0.5954575 -0.5680802 0.5680802 0.5954575 -0.5680802 0.5680802 0.5954575 -0.5680802 0.5680802 0.5954575 -0.7760148 0.2079316 0.595454 -0.7760148 0.2079316 0.595454 -0.7760148 0.2079316 0.595454 -0.7760118 0.2079334 0.5954572 -0.7760118 0.2079334 0.5954572 -0.7760118 0.2079334 0.5954572 -0.6008227 -0.1609913 0.7830032 -0.6008227 -0.1609913 0.7830032 -0.6008227 -0.1609913 0.7830032 -0.6008214 -0.1609889 0.7830046 -0.6008214 -0.1609889 0.7830046 -0.6008214 -0.1609889 0.7830046 -0.4398331 -0.4398331 0.783003 -0.4398331 -0.4398331 0.783003 -0.4398331 -0.4398331 0.783003 -0.4398331 -0.4398331 0.783003 -0.4398331 -0.4398331 0.783003 -0.4398331 -0.4398331 0.783003 -0.1609908 -0.6008211 0.7830043 -0.1609908 -0.6008211 0.7830043 -0.1609908 -0.6008211 0.7830043 -0.1609895 -0.6008235 0.783003 -0.1609895 -0.6008235 0.783003 -0.1609895 -0.6008235 0.783003 0.1609913 -0.6008227 0.7830032 0.1609913 -0.6008227 0.7830032 0.1609913 -0.6008227 0.7830032 0.1609889 -0.6008214 0.7830046 0.1609889 -0.6008214 0.7830046 0.1609889 -0.6008214 0.7830046 0.4398331 -0.4398331 0.783003 0.4398331 -0.4398331 0.783003 0.4398331 -0.4398331 0.783003 0.4398331 -0.4398331 0.783003 0.4398331 -0.4398331 0.783003 0.4398331 -0.4398331 0.783003 0.6008211 -0.1609908 0.7830043 0.6008211 -0.1609908 0.7830043 0.6008211 -0.1609908 0.7830043 0.6008235 -0.1609895 0.783003 0.6008235 -0.1609895 0.783003 0.6008235 -0.1609895 0.783003 0.6008227 0.1609913 0.7830032 0.6008227 0.1609913 0.7830032 0.6008227 0.1609913 0.7830032 0.6008214 0.1609889 0.7830046 0.6008214 0.1609889 0.7830046 0.6008214 0.1609889 0.7830046 0.4398331 0.4398331 0.783003 0.4398331 0.4398331 0.783003 0.4398331 0.4398331 0.783003 0.4398331 0.4398331 0.783003 0.4398331 0.4398331 0.783003 0.4398331 0.4398331 0.783003 0.1609908 0.6008211 0.7830043 0.1609908 0.6008211 0.7830043 0.1609908 0.6008211 0.7830043 0.1609895 0.6008235 0.783003 0.1609895 0.6008235 0.783003 0.1609895 0.6008235 0.783003 -0.1609913 0.6008227 0.7830032 -0.1609913 0.6008227 0.7830032 -0.1609913 0.6008227 0.7830032 -0.1609889 0.6008214 0.7830046 -0.1609889 0.6008214 0.7830046 -0.1609889 0.6008214 0.7830046 -0.4398331 0.4398331 0.783003 -0.4398331 0.4398331 0.783003 -0.4398331 0.4398331 0.783003 -0.4398331 0.4398331 0.783003 -0.4398331 0.4398331 0.783003 -0.4398331 0.4398331 0.783003 -0.6008211 0.1609908 0.7830043 -0.6008211 0.1609908 0.7830043 -0.6008211 0.1609908 0.7830043 -0.6008235 0.1609895 0.783003 -0.6008235 0.1609895 0.783003 -0.6008235 0.1609895 0.783003 -0.3806862 -0.1020041 0.9190611 -0.3806862 -0.1020041 0.9190611 -0.3806862 -0.1020041 0.9190611 -0.380686 -0.1020036 0.9190612 -0.380686 -0.1020036 0.9190612 -0.380686 -0.1020036 0.9190612 -0.2786817 -0.2786817 0.9190609 -0.2786817 -0.2786817 0.9190609 -0.2786817 -0.2786817 0.9190609 -0.2786817 -0.2786817 0.9190609 -0.2786817 -0.2786817 0.9190609 -0.2786817 -0.2786817 0.9190609 -0.102004 -0.3806859 0.9190612 -0.102004 -0.3806859 0.9190612 -0.102004 -0.3806859 0.9190612 -0.1020037 -0.3806863 0.9190611 -0.1020037 -0.3806863 0.9190611 -0.1020037 -0.3806863 0.9190611 0.1020041 -0.3806862 0.9190611 0.1020041 -0.3806862 0.9190611 0.1020041 -0.3806862 0.9190611 0.1020036 -0.380686 0.9190612 0.1020036 -0.380686 0.9190612 0.1020036 -0.380686 0.9190612 0.2786817 -0.2786817 0.9190609 0.2786817 -0.2786817 0.9190609 0.2786817 -0.2786817 0.9190609 0.2786817 -0.2786817 0.9190609 0.2786817 -0.2786817 0.9190609 0.2786817 -0.2786817 0.9190609 0.3806859 -0.102004 0.9190612 0.3806859 -0.102004 0.9190612 0.3806859 -0.102004 0.9190612 0.3806863 -0.1020037 0.9190611 0.3806863 -0.1020037 0.9190611 0.3806863 -0.1020037 0.9190611 0.3806862 0.1020041 0.9190611 0.3806862 0.1020041 0.9190611 0.3806862 0.1020041 0.9190611 0.380686 0.1020036 0.9190612 0.380686 0.1020036 0.9190612 0.380686 0.1020036 0.9190612 0.2786817 0.2786817 0.9190609 0.2786817 0.2786817 0.9190609 0.2786817 0.2786817 0.9190609 0.2786817 0.2786817 0.9190609 0.2786817 0.2786817 0.9190609 0.2786817 0.2786817 0.9190609 0.102004 0.3806859 0.9190612 0.102004 0.3806859 0.9190612 0.102004 0.3806859 0.9190612 0.1020037 0.3806863 0.9190611 0.1020037 0.3806863 0.9190611 0.1020037 0.3806863 0.9190611 -0.1020041 0.3806862 0.9190611 -0.1020041 0.3806862 0.9190611 -0.1020041 0.3806862 0.9190611 -0.1020036 0.380686 0.9190612 -0.1020036 0.380686 0.9190612 -0.1020036 0.380686 0.9190612 -0.2786817 0.2786817 0.9190609 -0.2786817 0.2786817 0.9190609 -0.2786817 0.2786817 0.9190609 -0.2786817 0.2786817 0.9190609 -0.2786817 0.2786817 0.9190609 -0.2786817 0.2786817 0.9190609 -0.3806859 0.102004 0.9190612 -0.3806859 0.102004 0.9190612 -0.3806859 0.102004 0.9190612 -0.3806863 0.1020037 0.9190611 -0.3806863 0.1020037 0.9190611 -0.3806863 0.1020037 0.9190611 -0.1304458 -0.0349525 0.9908391 -0.1304458 -0.0349525 0.9908391 -0.1304458 -0.0349525 0.9908391 1.0 0.0 0.0 1.0 0.0 0.0 -0.0954928 -0.0954928 0.9908392 -0.0954928 -0.0954928 0.9908392 -0.0954928 -0.0954928 0.9908392 1.0 0.0 0.0 1.0 0.0 0.0 -0.0349525 -0.1304458 0.9908391 -0.0349525 -0.1304458 0.9908391 -0.0349525 -0.1304458 0.9908391 1.0 0.0 0.0 1.0 0.0 0.0 0.0349525 -0.1304458 0.9908391 0.0349525 -0.1304458 0.9908391 0.0349525 -0.1304458 0.9908391 1.0 0.0 0.0 1.0 0.0 0.0 0.0954928 -0.0954928 0.9908392 0.0954928 -0.0954928 0.9908392 0.0954928 -0.0954928 0.9908392 1.0 0.0 0.0 1.0 0.0 0.0 0.1304458 -0.0349525 0.9908391 0.1304458 -0.0349525 0.9908391 0.1304458 -0.0349525 0.9908391 1.0 0.0 0.0 1.0 0.0 0.0 0.1304458 0.0349525 0.9908391 0.1304458 0.0349525 0.9908391 0.1304458 0.0349525 0.9908391 1.0 0.0 0.0 1.0 0.0 0.0 0.0954928 0.0954928 0.9908392 0.0954928 0.0954928 0.9908392 0.0954928 0.0954928 0.9908392 1.0 0.0 0.0 1.0 0.0 0.0 0.0349525 0.1304458 0.9908391 0.0349525 0.1304458 0.9908391 0.0349525 0.1304458 0.9908391 1.0 0.0 0.0 1.0 0.0 0.0 -0.0349525 0.1304458 0.9908391 -0.0349525 0.1304458 0.9908391 -0.0349525 0.1304458 0.9908391 1.0 0.0 0.0 1.0 0.0 0.0 -0.0954928 0.0954928 0.9908392 -0.0954928 0.0954928 0.9908392 -0.0954928 0.0954928 0.9908392 1.0 0.0 0.0 1.0 0.0 0.0 -0.1304458 0.0349525 0.9908391 -0.1304458 0.0349525 0.9908391 -0.1304458 0.0349525 0.9908391 1.0 0.0 0.0 1.0 0.0 0.0</float_array>
                    <technique_common>
                        <accessor count="840" source="#geometry0-normal-array" stride="3">
                            <param name="X" type="float"/>
                            <param name="Y" type="float"/>
                            <param name="Z" type="float"/>
                        </accessor>
                    </technique_common>
                </source>
                <vertices id="geometry0-vertex">
                    <input semantic="POSITION" source="#geometry0-position"/>
                </vertices>
                <triangles count="288" material="default_ai_0.2_sh_0.2_tr_0.0_dc_r_0.8_g_0.8_b_0.8_sc_r_1.0_g_1.0_b_1.0_ec_r_0.0_g_0.0_b_0_tri">
                    <input offset="0" semantic="VERTEX" source="#geometry0-vertex"/>
                    <input offset="1" semantic="NORMAL" source="#geometry0-normal"/>
                    <p>0 0 0 0 1 1 0 2 1 3 2 4 0 5 0 5 3 6 0 7 3 8 1 9 0 10 0 10 4 11 0 12 4 13 3 14 0 15 0 15 5 16 0 17 5 18 4 19 0 20 0 20 6 21 0 22 6 23 5 24 0 25 0 25 7 26 0 27 7 28 6 29 0 30 0 30 8 31 0 32 8 33 7 34 0 35 0 35 9 36 0 37 9 38 8 39 0 40 0 40 10 41 0 42 10 43 9 44 0 45 0 45 11 46 0 47 11 48 10 49 0 50 0 50 12 51 0 52 12 53 11 54 0 55 0 55 2 56 0 57 2 58 12 59 2 60 1 61 13 62 2 63 13 64 14 65 1 66 3 67 15 68 1 69 15 70 13 71 3 72 4 73 16 74 3 75 16 76 15 77 4 78 5 79 17 80 4 81 17 82 16 83 5 84 6 85 18 86 5 87 18 88 17 89 6 90 7 91 19 92 6 93 19 94 18 95 7 96 8 97 20 98 7 99 20 100 19 101 8 102 9 103 21 104 8 105 21 106 20 107 9 108 10 109 22 110 9 111 22 112 21 113 10 114 11 115 23 116 10 117 23 118 22 119 11 120 12 121 24 122 11 123 24 124 23 125 12 126 2 127 14 128 12 129 14 130 24 131 14 132 13 133 25 134 14 135 25 136 26 137 13 138 15 139 27 140 13 141 27 142 25 143 15 144 16 145 28 146 15 147 28 148 27 149 16 150 17 151 29 152 16 153 29 154 28 155 17 156 18 157 30 158 17 159 30 160 29 161 18 162 19 163 31 164 18 165 31 166 30 167 19 168 20 169 32 170 19 171 32 172 31 173 20 174 21 175 33 176 20 177 33 178 32 179 21 180 22 181 34 182 21 183 34 184 33 185 22 186 23 187 35 188 22 189 35 190 34 191 23 192 24 193 36 194 23 195 36 196 35 197 24 198 14 199 26 200 24 201 26 202 36 203 26 204 25 205 37 206 26 207 37 208 38 209 25 210 27 211 39 212 25 213 39 214 37 215 27 216 28 217 40 218 27 219 40 220 39 221 28 222 29 223 41 224 28 225 41 226 40 227 29 228 30 229 42 230 29 231 42 232 41 233 30 234 31 235 43 236 30 237 43 238 42 239 31 240 32 241 44 242 31 243 44 244 43 245 32 246 33 247 45 248 32 249 45 250 44 251 33 252 34 253 46 254 33 255 46 256 45 257 34 258 35 259 47 260 34 261 47 262 46 263 35 264 36 265 48 266 35 267 48 268 47 269 36 270 26 271 38 272 36 273 38 274 48 275 38 276 37 277 49 278 38 279 49 280 50 281 37 282 39 283 51 284 37 285 51 286 49 287 39 288 40 289 52 290 39 291 52 292 51 293 40 294 41 295 53 296 40 297 53 298 52 299 41 300 42 301 54 302 41 303 54 304 53 305 42 306 43 307 55 308 42 309 55 310 54 311 43 312 44 313 56 314 43 315 56 316 55 317 44 318 45 319 57 320 44 321 57 322 56 323 45 324 46 325 58 326 45 327 58 328 57 329 46 330 47 331 59 332 46 333 59 334 58 335 47 336 48 337 60 338 47 339 60 340 59 341 48 342 38 343 50 344 48 345 50 346 60 347 50 348 49 349 61 350 50 351 61 352 62 353 49 354 51 355 63 356 49 357 63 358 61 359 51 360 52 361 64 362 51 363 64 364 63 365 52 366 53 367 65 368 52 369 65 370 64 371 53 372 54 373 66 374 53 375 66 376 65 377 54 378 55 379 67 380 54 381 67 382 66 383 55 384 56 385 68 386 55 387 68 388 67 389 56 390 57 391 69 392 56 393 69 394 68 395 57 396 58 397 70 398 57 399 70 400 69 401 58 402 59 403 71 404 58 405 71 406 70 407 59 408 60 409 72 410 59 411 72 412 71 413 60 414 50 415 62 416 60 417 62 418 72 419 62 420 61 421 73 422 62 423 73 424 74 425 61 426 63 427 75 428 61 429 75 430 73 431 63 432 64 433 76 434 63 435 76 436 75 437 64 438 65 439 77 440 64 441 77 442 76 443 65 444 66 445 78 446 65 447 78 448 77 449 66 450 67 451 79 452 66 453 79 454 78 455 67 456 68 457 80 458 67 459 80 460 79 461 68 462 69 463 81 464 68 465 81 466 80 467 69 468 70 469 82 470 69 471 82 472 81 473 70 474 71 475 83 476 70 477 83 478 82 479 71 480 72 481 84 482 71 483 84 484 83 485 72 486 62 487 74 488 72 489 74 490 84 491 74 492 73 493 85 494 74 495 85 496 86 497 73 498 75 499 87 500 73 501 87 502 85 503 75 504 76 505 88 506 75 507 88 508 87 509 76 510 77 511 89 512 76 513 89 514 88 515 77 516 78 517 90 518 77 519 90 520 89 521 78 522 79 523 91 524 78 525 91 526 90 527 79 528 80 529 92 530 79 531 92 532 91 533 80 534 81 535 93 536 80 537 93 538 92 539 81 540 82 541 94 542 81 543 94 544 93 545 82 546 83 547 95 548 82 549 95 550 94 551 83 552 84 553 96 554 83 555 96 556 95 557 84 558 74 559 86 560 84 561 86 562 96 563 86 564 85 565 97 566 86 567 97 568 98 569 85 570 87 571 99 572 85 573 99 574 97 575 87 576 88 577 100 578 87 579 100 580 99 581 88 582 89 583 101 584 88 585 101 586 100 587 89 588 90 589 102 590 89 591 102 592 101 593 90 594 91 595 103 596 90 597 103 598 102 599 91 600 92 601 104 602 91 603 104 604 103 605 92 606 93 607 105 608 92 609 105 610 104 611 93 612 94 613 106 614 93 615 106 616 105 617 94 618 95 619 107 620 94 621 107 622 106 623 95 624 96 625 108 626 95 627 108 628 107 629 96 630 86 631 98 632 96 633 98 634 108 635 98 636 97 637 109 638 98 639 109 640 110 641 97 642 99 643 111 644 97 645 111 646 109 647 99 648 100 649 112 650 99 651 112 652 111 653 100 654 101 655 113 656 100 657 113 658 112 659 101 660 102 661 114 662 101 663 114 664 113 665 102 666 103 667 115 668 102 669 115 670 114 671 103 672 104 673 116 674 103 675 116 676 115 677 104 678 105 679 117 680 104 681 117 682 116 683 105 684 106 685 118 686 105 687 118 688 117 689 106 690 107 691 119 692 106 693 119 694 118 695 107 696 108 697 120 698 107 699 120 700 119 701 108 702 98 703 110 704 108 705 110 706 120 707 110 708 109 709 121 710 110 711 121 712 122 713 109 714 111 715 123 716 109 717 123 718 121 719 111 720 112 721 124 722 111 723 124 724 123 725 112 726 113 727 125 728 112 729 125 730 124 731 113 732 114 733 126 734 113 735 126 736 125 737 114 738 115 739 127 740 114 741 127 742 126 743 115 744 116 745 128 746 115 747 128 748 127 749 116 750 117 751 129 752 116 753 129 754 128 755 117 756 118 757 130 758 117 759 130 760 129 761 118 762 119 763 131 764 118 765 131 766 130 767 119 768 120 769 132 770 119 771 132 772 131 773 120 774 110 775 122 776 120 777 122 778 132 779 122 780 121 781 133 782 122 783 133 784 133 784 121 785 123 786 133 787 121 788 133 789 133 789 123 790 124 791 133 792 123 793 133 794 133 794 124 795 125 796 133 797 124 798 133 799 133 799 125 800 126 801 133 802 125 803 133 804 133 804 126 805 127 806 133 807 126 808 133 809 133 809 127 810 128 811 133 812 127 813 133 814 133 814 128 815 129 816 133 817 128 818 133 819 133 819 129 820 130 821 133 822 129 823 133 824 133 824 130 825 131 826 133 827 130 828 133 829 133 829 131 830 132 831 133 832 131 833 133 834 133 834 132 835 122 836 133 837 132 838 133 839 133 839</p>
                </triangles>
            </mesh>
        </geometry>
    </library_geometries>
    <library_visual_scenes>
        <visual_scene id="Building_173_CROWN1">
            <node>
                <instance_geometry url="#geometry0">
                    <bind_material>
                        <technique_common>
                            <instance_material symbol="default_ai_0.2_sh_0.2_tr_0.0_dc_r_0.8_g_0.8_b_0.8_sc_r_1.0_g_1.0_b_1.0_ec_r_0.0_g_0.0_b_0_tri" target="#default_ai_0.2_sh_0.2_tr_0.0_dc_r_0.8_g_0.8_b_0.8_sc_r_1.0_g_1.0_b_1.0_ec_r_0.0_g_0.0_b_0_mat"/>
                        </technique_common>
                    </bind_material>
                </instance_geometry>
            </node>
        </visual_scene>
    </library_visual_scenes>
    <scene>
        <instance_visual_scene url="#Building_173_CROWN1"/>
    </scene>
</COLLADA>
