<?xml version="1.0" encoding="UTF-8" standalone="yes"?>
<COLLADA xmlns="http://www.collada.org/2005/11/COLLADASchema" version="1.4.1">
    <asset>
        <contributor>
            <authoring_tool>3D City Database Importer/Exporter, version 5.5.3; Chair of Geoinformatics, Technical University of Munich</authoring_tool>
        </contributor>
        <created>2026-09-25T14:44:51.450</created>
        <modified>2026-09-25T14:44:51.450</modified>
        <unit meter="1.0" name="meters"/>
        <up_axis>Z_UP</up_axis>
    </asset>
    <library_materials>
        <material id="default_ai_0.2_sh_0.2_tr_0.0_dc_r_0.8_g_0.8_b_0.8_sc_r_1.0_g_1.0_b_1.0_ec_r_0.0_g_0.0_b_0_mat">
            <instance_effect url="#default_ai_0.2_sh_0.2_tr_0.0_dc_r_0.8_g_0.8_b_0.8_sc_r_1.0_g_1.0_b_1.0_ec_r_0.0_g_0.0_b_0_eff"/>
        </material>
    </library_materials>
    <library_effects>
        <effect id="default_ai_0.2_sh_0.2_tr_0.0_dc_r_0.8_g_0.8_b_0.8_sc_r_1.0_g_1.0_b_1.0_ec_r_0.0_g_0.0_b_0_eff">
            <profile_COMMON>
                <technique sid="COMMON">
                    <lambert>
                        <emission>
                            <color>0.0 0.0 0.0 1.0</color>
                        </emission>
                        <diffuse>
                            <color>0.8 0.8 0.8 1.0</color>
                        </diffuse>
                        <reflective>
                            <color>1.0 1.0 1.0 1.0</color>
                        </reflective>
                        <reflectivity>
                            <float>0.2</float>
                        </reflectivity>
                        <transparent opaque="A_ONE">
                            <color>1.0 1.0 1.0 1.0</color>
                        </transparent>
                        <transparency>
                            <float>1.0</float>
                        </transparency>
                    </lambert>
                </technique>
                <extra>
                    <technique profile="GOOGLEEARTH">
                        <double_sided>0</double_sided>
                    </technique>
                </extra>
            </profile_COMMON>
        </effect>
    </library_effects>
    <library_geometries>
        <geometry id="geometry0">
            <mesh>
                <source id="geometry0-position">
                    <float_array id="geometry0-position-array" count="402">0.0 0.0 3.3 0.3698376 0.2135265 3.2437779 0.4270514 0.0 3.2437779 0.2135265 0.3698376 3.2437779 0.0 0.4270513 3.2437779 -0.2135265 0.3698376 3.2437779 -0.3698376 0.2135265 3.2437779 -0.4270514 0.0 3.2437779 -0.3698376 -0.2135265 3.2437779 -0.2135265 -0.3698376 3.2437779 0.0 -0.4270513 3.2437779 0.2135265 -0.3698376 3.2437779 0.3698376 -0.2135265 3.2437779 0.7144715 0.4125 3.0789412 0.825 0.0 3.0789412 0.4125 0.7144715 3.0789412 0.0 0.825 3.0789412 -0.4125 0.7144715 3.0789412 -0.7144715 0.4125 3.0789412 -0.825 0.0 3.0789412 -0.7144715 -0.4125 3.0789412 -0.4125 -0.7144715 3.0789412 0.0 -0.825 3.0789412 0.4125 -0.7144715 3.0789412 0.7144715 -0.4125 3.0789412 1.0104138 0.5833624 2.8167265 1.1667265 0.0 2.8167265 0.5833625 1.0104138 2.8167265 0.0 1.1667266 2.8167265 -0.5833625 1.0104138 2.8167265 -1.0104138 0.5833624 2.8167265 -1.1667265 0.0 2.8167265 -1.0104138 -0.5833624 2.8167265 -0.5833625 -1.0104138 2.8167265 0.0 -1.1667266 2.8167265 0.5833625 -1.0104138 2.8167265 1.0104138 -0.5833624 2.8167265 1.2375 0.7144715 2.475 1.4289413 0.0 2.475 0.7144715 1.2375 2.475 0.0 1.4289412 2.475 -0.7144715 1.2375 2.475 -1.2375 0.7144715 2.475 -1.4289413 0.0 2.475 -1.2375 -0.7144715 2.475 -0.7144715 -1.2375 2.475 0.0 -1.4289412 2.475 0.7144715 -1.2375 2.475 1.2375 -0.7144715 2.475 1.3802514 0.796889 2.0770513 1.5937779 0.0 2.0770513 0.7968889 1.3802514 2.0770513 0.0 1.5937779 2.0770513 -0.7968889 1.3802514 2.0770513 -1.3802514 0.796889 2.0770513 -1.5937779 0.0 2.0770513 -1.3802514 -0.796889 2.0770513 -0.7968889 -1.3802514 2.0770513 0.0 -1.5937779 2.0770513 0.7968889 -1.3802514 2.0770513 1.3802514 -0.796889 2.0770513 1.4289413 0.825 1.65 1.65 0.0 1.65 0.825 1.4289412 1.65 0.0 1.65 1.65 -0.825 1.4289412 1.65 -1.4289413 0.825 1.65 -1.65 0.0 1.65 -1.4289413 -0.825 1.65 -0.825 -1.4289412 1.65 0.0 -1.65 1.65 0.825 -1.4289412 1.65 1.4289413 -0.825 1.65 1.3802514 0.796889 1.2229486 1.5937779 0.0 1.2229486 0.7968889 1.3802514 1.2229486 0.0 1.5937779 1.2229486 -0.7968889 1.3802514 1.2229486 -1.3802514 0.796889 1.2229486 -1.5937779 0.0 1.2229486 -1.3802514 -0.796889 1.2229486 -0.7968889 -1.3802514 1.2229486 0.0 -1.5937779 1.2229486 0.7968889 -1.3802514 1.2229486 1.3802514 -0.796889 1.2229486 1.2375 0.7144715 0.825 1.4289413 0.0 0.825 0.7144715 1.2375 0.825 0.0 1.4289412 0.825 -0.7144715 1.2375 0.825 -1.2375 0.7144715 0.825 -1.4289413 0.0 0.825 -1.2375 -0.7144715 0.825 -0.7144715 -1.2375 0.825 0.0 -1.4289412 0.825 0.7144715 -1.2375 0.825 1.2375 -0.7144715 0.825 1.0104138 0.5833624 0.4832734 1.1667265 0.0 0.4832734 0.5833625 1.0104138 0.4832734 0.0 1.1667266 0.4832734 -0.5833625 1.0104138 0.4832734 -1.0104138 0.5833624 0.4832734 -1.1667265 0.0 0.4832734 -1.0104138 -0.5833624 0.4832734 -0.5833625 -1.0104138 0.4832734 0.0 -1.1667266 0.4832734 0.5833625 -1.0104138 0.4832734 1.0104138 -0.5833624 0.4832734 0.7144715 0.4125 0.2210587 0.825 0.0 0.2210587 0.4125 0.7144715 0.2210587 0.0 0.825 0.2210587 -0.4125 0.7144715 0.2210587 -0.7144715 0.4125 0.2210587 -0.825 0.0 0.2210587 -0.7144715 -0.4125 0.2210587 -0.4125 -0.7144715 0.2210587 0.0 -0.825 0.2210587 0.4125 -0.7144715 0.2210587 0.7144715 -0.4125 0.2210587 0.3698376 0.2135265 0.0562221 0.4270514 0.0 0.0562221 0.2135265 0.3698376 0.0562221 0.0 0.4270513 0.0562221 -0.2135265 0.3698376 0.0562221 -0.3698376 0.2135265 0.0562221 -0.4270514 0.0 0.0562221 -0.3698376 -0.2135265 0.0562221 -0.2135265 -0.3698376 0.0562221 0.0 -0.4270513 0.0562221 0.2135265 -0.3698376 0.0562221 0.3698376 -0.2135265 0.0562221 0.0 0.0 0.0</float_array>
                    <technique_common>
                        <accessor count="134" source="#geometry0-position-array" stride="3">
                            <param name="X" type="float"/>
                            <param name="Y" type="float"/>
                            <param name="Z" type="float"/>
                        </accessor>
                    </technique_common>
                </source>
                <source id="geometry0-normal">
                    <float_array id="geometry0-normal-array" count="2520">0.0954928 0.0954928 0.9908392 0.0954928 0.0954928 0.9908392 0.0954928 0.0954928 0.9908392 1.0 0.0 0.0 1.0 0.0 0.0 0.0349525 0.1304458 0.9908391 0.0349525 0.1304458 0.9908391 0.0349525 0.1304458 0.9908391 1.0 0.0 0.0 1.0 0.0 0.0 -0.0349525 0.1304458 0.9908391 -0.0349525 0.1304458 0.9908391 -0.0349525 0.1304458 0.9908391 1.0 0.0 0.0 1.0 0.0 0.0 -0.0954928 0.0954928 0.9908392 -0.0954928 0.0954928 0.9908392 -0.0954928 0.0954928 0.9908392 1.0 0.0 0.0 1.0 0.0 0.0 -0.1304458 0.0349525 0.9908391 -0.1304458 0.0349525 0.9908391 -0.1304458 0.0349525 0.9908391 1.0 0.0 0.0 1.0 0.0 0.0 1.0 0.0 0.0 1.0 0.0 0.0 -0.1304455 -0.0349524 -0.9908392 -0.1304455 -0.0349524 -0.9908392 -0.1304455 -0.0349524 -0.9908392 1.0 0.0 0.0 1.0 0.0 0.0 -0.0954925 -0.0954925 -0.9908392 -0.0954925 -0.0954925 -0.9908392 -0.0954925 -0.0954925 -0.9908392 1.0 0.0 0.0 1.0 0.0 0.0 -0.0349524 -0.1304455 -0.9908392 -0.0349524 -0.1304455 -0.9908392 -0.0349524 -0.1304455 -0.9908392 1.0 0.0 0.0 1.0 0.0 0.0 0.0349524 -0.1304455 -0.9908392 0.0349524 -0.1304455 -0.9908392 0.0349524 -0.1304455 -0.9908392 1.0 0.0 0.0 1.0 0.0 0.0 0.0954925 -0.0954925 -0.9908392 0.0954925 -0.0954925 -0.9908392 0.0954925 -0.0954925 -0.9908392 1.0 0.0 0.0 1.0 0.0 0.0 0.1304455 -0.0349524 -0.9908392 0.1304455 -0.0349524 -0.9908392 0.1304455 -0.0349524 -0.9908392 1.0 0.0 0.0 1.0 0.0 0.0 0.1304455 0.0349524 -0.9908392 0.1304455 0.0349524 -0.9908392 0.1304455 0.0349524 -0.9908392 1.0 0.0 0.0 1.0 0.0 0.0 0.0954925 0.0954925 -0.9908392 0.0954925 0.0954925 -0.9908392 0.0954925 0.0954925 -0.9908392 1.0 0.0 0.0 1.0 0.0 0.0 0.0349524 0.1304455 -0.9908392 0.0349524 0.1304455 -0.9908392 0.0349524 0.1304455 -0.9908392 1.0 0.0 0.0 1.0 0.0 0.0 -0.0349524 0.1304455 -0.9908392 -0.0349524 0.1304455 -0.9908392 -0.0349524 0.1304455 -0.9908392 1.0 0.0 0.0 1.0 0.0 0.0 -0.0954925 0.0954925 -0.9908392 -0.0954925 0.0954925 -0.9908392 -0.0954925 0.0954925 -0.9908392 1.0 0.0 0.0 1.0 0.0 0.0 -0.1304455 0.0349524 -0.9908392 -0.1304455 0.0349524 -0.9908392 -0.1304455 0.0349524 -0.9908392 -0.3806896 -0.1020045 -0.9190596 -0.3806896 -0.1020045 -0.9190596 -0.3806896 -0.1020045 -0.9190596 -0.3806892 -0.1020049 -0.9190598 -0.3806892 -0.1020049 -0.9190598 -0.3806892 -0.1020049 -0.9190598 -0.278684 -0.278684 -0.9190595 -0.278684 -0.278684 -0.9190595 -0.278684 -0.278684 -0.9190595 -0.278684 -0.278684 -0.9190595 -0.278684 -0.278684 -0.9190595 -0.278684 -0.278684 -0.9190595 -0.1020044 -0.3806891 -0.9190598 -0.1020044 -0.3806891 -0.9190598 -0.1020044 -0.3806891 -0.9190598 -0.1020049 -0.3806893 -0.9190596 -0.1020049 -0.3806893 -0.9190596 -0.1020049 -0.3806893 -0.9190596 0.1020045 -0.3806896 -0.9190596 0.1020045 -0.3806896 -0.9190596 0.1020045 -0.3806896 -0.9190596 0.1020049 -0.3806892 -0.9190598 0.1020049 -0.3806892 -0.9190598 0.1020049 -0.3806892 -0.9190598 0.278684 -0.278684 -0.9190595 0.278684 -0.278684 -0.9190595 0.278684 -0.278684 -0.9190595 0.278684 -0.278684 -0.9190595 0.278684 -0.278684 -0.9190595 0.278684 -0.278684 -0.9190595 0.3806891 -0.1020044 -0.9190598 0.3806891 -0.1020044 -0.9190598 0.3806891 -0.1020044 -0.9190598 0.3806893 -0.1020049 -0.9190596 0.3806893 -0.1020049 -0.9190596 0.3806893 -0.1020049 -0.9190596 0.3806896 0.1020045 -0.9190596 0.3806896 0.1020045 -0.9190596 0.3806896 0.1020045 -0.9190596 0.3806892 0.1020049 -0.9190598 0.3806892 0.1020049 -0.9190598 0.3806892 0.1020049 -0.9190598 0.278684 0.278684 -0.9190595 0.278684 0.278684 -0.9190595 0.278684 0.278684 -0.9190595 0.278684 0.278684 -0.9190595 0.278684 0.278684 -0.9190595 0.278684 0.278684 -0.9190595 0.1020044 0.3806891 -0.9190598 0.1020044 0.3806891 -0.9190598 0.1020044 0.3806891 -0.9190598 0.1020049 0.3806893 -0.9190596 0.1020049 0.3806893 -0.9190596 0.1020049 0.3806893 -0.9190596 -0.1020045 0.3806896 -0.9190596 -0.1020045 0.3806896 -0.9190596 -0.1020045 0.3806896 -0.9190596 -0.1020049 0.3806892 -0.9190598 -0.1020049 0.3806892 -0.9190598 -0.1020049 0.3806892 -0.9190598 -0.278684 0.278684 -0.9190595 -0.278684 0.278684 -0.9190595 -0.278684 0.278684 -0.9190595 -0.278684 0.278684 -0.9190595 -0.278684 0.278684 -0.9190595 -0.278684 0.278684 -0.9190595 -0.3806891 0.1020044 -0.9190598 -0.3806891 0.1020044 -0.9190598 -0.3806891 0.1020044 -0.9190598 -0.3806893 0.1020049 -0.9190596 -0.3806893 0.1020049 -0.9190596 -0.3806893 0.1020049 -0.9190596 -0.6008215 -0.1609889 -0.7830045 -0.6008215 -0.1609889 -0.7830045 -0.6008215 -0.1609889 -0.7830045 -0.6008191 -0.1609903 -0.7830061 -0.6008191 -0.1609903 -0.7830061 -0.6008191 -0.1609903 -0.7830061 -0.4398316 -0.4398316 -0.7830047 -0.4398316 -0.4398316 -0.7830047 -0.4398316 -0.4398316 -0.7830047 -0.4398316 -0.4398316 -0.7830046 -0.4398316 -0.4398316 -0.7830046 -0.4398316 -0.4398316 -0.7830046 -0.1609883 -0.6008193 -0.7830064 -0.1609883 -0.6008193 -0.7830064 -0.1609883 -0.6008193 -0.7830064 -0.1609908 -0.6008207 -0.7830048 -0.1609908 -0.6008207 -0.7830048 -0.1609908 -0.6008207 -0.7830048 0.1609889 -0.6008215 -0.7830045 0.1609889 -0.6008215 -0.7830045 0.1609889 -0.6008215 -0.7830045 0.1609903 -0.6008191 -0.7830061 0.1609903 -0.6008191 -0.7830061 0.1609903 -0.6008191 -0.7830061 0.4398316 -0.4398316 -0.7830047 0.4398316 -0.4398316 -0.7830047 0.4398316 -0.4398316 -0.7830047 0.4398316 -0.4398316 -0.7830046 0.4398316 -0.4398316 -0.7830046 0.4398316 -0.4398316 -0.7830046 0.6008193 -0.1609883 -0.7830064 0.6008193 -0.1609883 -0.7830064 0.6008193 -0.1609883 -0.7830064 0.6008207 -0.1609908 -0.7830048 0.6008207 -0.1609908 -0.7830048 0.6008207 -0.1609908 -0.7830048 0.6008215 0.1609889 -0.7830045 0.6008215 0.1609889 -0.7830045 0.6008215 0.1609889 -0.7830045 0.6008191 0.1609903 -0.7830061 0.6008191 0.1609903 -0.7830061 0.6008191 0.1609903 -0.7830061 0.4398316 0.4398316 -0.7830047 0.4398316 0.4398316 -0.7830047 0.4398316 0.4398316 -0.7830047 0.4398316 0.4398316 -0.7830046 0.4398316 0.4398316 -0.7830046 0.4398316 0.4398316 -0.7830046 0.1609883 0.6008193 -0.7830064 0.1609883 0.6008193 -0.7830064 0.1609883 0.6008193 -0.7830064 0.1609908 0.6008207 -0.7830048 0.1609908 0.6008207 -0.7830048 0.1609908 0.6008207 -0.7830048 -0.1609889 0.6008215 -0.7830045 -0.1609889 0.6008215 -0.7830045 -0.1609889 0.6008215 -0.7830045 -0.1609903 0.6008191 -0.7830061 -0.1609903 0.6008191 -0.7830061 -0.1609903 0.6008191 -0.7830061 -0.4398316 0.4398316 -0.7830047 -0.4398316 0.4398316 -0.7830047 -0.4398316 0.4398316 -0.7830047 -0.4398316 0.4398316 -0.7830046 -0.4398316 0.4398316 -0.7830046 -0.4398316 0.4398316 -0.7830046 -0.6008193 0.1609883 -0.7830064 -0.6008193 0.1609883 -0.7830064 -0.6008193 0.1609883 -0.7830064 -0.6008207 0.1609908 -0.7830048 -0.6008207 0.1609908 -0.7830048 -0.6008207 0.1609908 -0.7830048 -0.7760118 -0.2079335 -0.5954572 -0.7760118 -0.2079335 -0.5954572 -0.7760118 -0.2079335 -0.5954572 -0.7760148 -0.2079317 -0.595454 -0.7760148 -0.2079317 -0.595454 -0.7760148 -0.2079317 -0.595454 -0.5680802 -0.5680802 -0.5954575 -0.5680802 -0.5680802 -0.5954575 -0.5680802 -0.5680802 -0.5954575 -0.5680803 -0.5680803 -0.5954574 -0.5680803 -0.5680803 -0.5954574 -0.5680803 -0.5680803 -0.5954574 -0.2079342 -0.7760144 -0.5954537 -0.2079342 -0.7760144 -0.5954537 -0.2079342 -0.7760144 -0.5954537 -0.2079312 -0.7760127 -0.5954568 -0.2079312 -0.7760127 -0.5954568 -0.2079312 -0.7760127 -0.5954568 0.2079335 -0.7760118 -0.5954572 0.2079335 -0.7760118 -0.5954572 0.2079335 -0.7760118 -0.5954572 0.2079317 -0.7760148 -0.595454 0.2079317 -0.7760148 -0.595454 0.2079317 -0.7760148 -0.595454 0.5680802 -0.5680802 -0.5954575 0.5680802 -0.5680802 -0.5954575 0.5680802 -0.5680802 -0.5954575 0.5680803 -0.5680803 -0.5954574 0.5680803 -0.5680803 -0.5954574 0.5680803 -0.5680803 -0.5954574 0.7760144 -0.2079342 -0.5954537 0.7760144 -0.2079342 -0.5954537 0.7760144 -0.2079342 -0.5954537 0.7760127 -0.2079312 -0.5954568 0.7760127 -0.2079312 -0.5954568 0.7760127 -0.2079312 -0.5954568 0.7760118 0.2079335 -0.5954572 0.7760118 0.2079335 -0.5954572 0.7760118 0.2079335 -0.5954572 0.7760148 0.2079317 -0.595454 0.7760148 0.2079317 -0.595454 0.7760148 0.2079317 -0.595454 0.5680802 0.5680802 -0.5954575 0.5680802 0.5680802 -0.5954575 0.5680802 0.5680802 -0.5954575 0.5680803 0.5680803 -0.5954574 0.5680803 0.5680803 -0.5954574 0.5680803 0.5680803 -0.5954574 0.2079342 0.7760144 -0.5954537 0.2079342 0.7760144 -0.5954537 0.2079342 0.7760144 -0.5954537 0.2079312 0.7760127 -0.5954568 0.2079312 0.7760127 -0.5954568 0.2079312 0.7760127 -0.5954568 -0.2079335 0.7760118 -0.5954572 -0.2079335 0.7760118 -0.5954572 -0.2079335 0.7760118 -0.5954572 -0.2079317 0.7760148 -0.595454 -0.2079317 0.7760148 -0.595454 -0.2079317 0.7760148 -0.595454 -0.5680802 0.5680802 -0.5954575 -0.5680802 0.5680802 -0.5954575 -0.5680802 0.5680802 -0.5954575 -0.5680803 0.5680803 -0.5954574 -0.5680803 0.5680803 -0.5954574 -0.5680803 0.5680803 -0.5954574 -0.7760144 0.2079342 -0.5954537 -0.7760144 0.2079342 -0.5954537 -0.7760144 0.2079342 -0.5954537 -0.7760127 0.2079312 -0.5954568 -0.7760127 0.2079312 -0.5954568 -0.7760127 0.2079312 -0.5954568 -0.8968095 -0.2402984 -0.3714693 -0.8968095 -0.2402984 -0.3714693 -0.8968095 -0.2402984 -0.3714693 -0.8968079 -0.2402998 -0.3714722 -0.8968079 -0.2402998 -0.3714722 -0.8968079 -0.2402998 -0.3714722 -0.6565099 -0.6565099 -0.3714693 -0.6565099 -0.6565099 -0.3714693 -0.6565099 -0.6565099 -0.3714693 -0.6565099 -0.6565099 -0.3714693 -0.6565099 -0.6565099 -0.3714693 -0.6565099 -0.6565099 -0.3714693 -0.2402981 -0.8968083 -0.3714724 -0.2402981 -0.8968083 -0.3714724 -0.2402981 -0.8968083 -0.3714724 -0.2403001 -0.896809 -0.3714694 -0.2403001 -0.896809 -0.3714694 -0.2403001 -0.896809 -0.3714694 0.2402984 -0.8968095 -0.3714693 0.2402984 -0.8968095 -0.3714693 0.2402984 -0.8968095 -0.3714693 0.2402998 -0.8968079 -0.3714722 0.2402998 -0.8968079 -0.3714722 0.2402998 -0.8968079 -0.3714722 0.6565099 -0.6565099 -0.3714693 0.6565099 -0.6565099 -0.3714693 0.6565099 -0.6565099 -0.3714693 0.6565099 -0.6565099 -0.3714693 0.6565099 -0.6565099 -0.3714693 0.6565099 -0.6565099 -0.3714693 0.8968083 -0.2402981 -0.3714724 0.8968083 -0.2402981 -0.3714724 0.8968083 -0.2402981 -0.3714724 0.896809 -0.2403001 -0.3714694 0.896809 -0.2403001 -0.3714694 0.896809 -0.2403001 -0.3714694 0.8968095 0.2402984 -0.3714693 0.8968095 0.2402984 -0.3714693 0.8968095 0.2402984 -0.3714693 0.8968079 0.2402998 -0.3714722 0.8968079 0.2402998 -0.3714722 0.8968079 0.2402998 -0.3714722 0.6565099 0.6565099 -0.3714693 0.6565099 0.6565099 -0.3714693 0.6565099 0.6565099 -0.3714693 0.6565099 0.6565099 -0.3714693 0.6565099 0.6565099 -0.3714693 0.6565099 0.6565099 -0.3714693 0.2402981 0.8968083 -0.3714724 0.2402981 0.8968083 -0.3714724 0.2402981 0.8968083 -0.3714724 0.2403001 0.896809 -0.3714694 0.2403001 0.896809 -0.3714694 0.2403001 0.896809 -0.3714694 -0.2402984 0.8968095 -0.3714693 -0.2402984 0.8968095 -0.3714693 -0.2402984 0.8968095 -0.3714693 -0.2402998 0.8968079 -0.3714722 -0.2402998 0.8968079 -0.3714722 -0.2402998 0.8968079 -0.3714722 -0.6565099 0.6565099 -0.3714693 -0.6565099 0.6565099 -0.3714693 -0.6565099 0.6565099 -0.3714693 -0.6565099 0.6565099 -0.3714693 -0.6565099 0.6565099 -0.3714693 -0.6565099 0.6565099 -0.3714693 -0.8968083 0.2402981 -0.3714724 -0.8968083 0.2402981 -0.3714724 -0.8968083 0.2402981 -0.3714724 -0.896809 0.2403001 -0.3714694 -0.896809 0.2403001 -0.3714694 -0.896809 0.2403001 -0.3714694 -0.958209 -0.2567522 -0.1261502 -0.958209 -0.2567522 -0.1261502 -0.958209 -0.2567522 -0.1261502 -0.958209 -0.2567521 -0.1261499 -0.958209 -0.2567521 -0.1261499 -0.958209 -0.2567521 -0.1261499 -0.7014578 -0.7014578 -0.1261501 -0.7014578 -0.7014578 -0.1261501 -0.7014578 -0.7014578 -0.1261501 -0.7014578 -0.7014578 -0.12615 -0.7014578 -0.7014578 -0.12615 -0.7014578 -0.7014578 -0.12615 -0.2567522 -0.958209 -0.1261499 -0.2567522 -0.958209 -0.1261499 -0.2567522 -0.958209 -0.1261499 -0.2567521 -0.9582091 -0.1261502 -0.2567521 -0.9582091 -0.1261502 -0.2567521 -0.9582091 -0.1261502 0.2567522 -0.958209 -0.1261502 0.2567522 -0.958209 -0.1261502 0.2567522 -0.958209 -0.1261502 0.2567521 -0.958209 -0.1261499 0.2567521 -0.958209 -0.1261499 0.2567521 -0.958209 -0.1261499 0.7014578 -0.7014578 -0.1261501 0.7014578 -0.7014578 -0.1261501 0.7014578 -0.7014578 -0.1261501 0.7014578 -0.7014578 -0.12615 0.7014578 -0.7014578 -0.12615 0.7014578 -0.7014578 -0.12615 0.958209 -0.2567522 -0.1261499 0.958209 -0.2567522 -0.1261499 0.958209 -0.2567522 -0.1261499 0.9582091 -0.2567521 -0.1261502 0.9582091 -0.2567521 -0.1261502 0.9582091 -0.2567521 -0.1261502 0.958209 0.2567522 -0.1261502 0.958209 0.2567522 -0.1261502 0.958209 0.2567522 -0.1261502 0.958209 0.2567521 -0.1261499 0.958209 0.2567521 -0.1261499 0.958209 0.2567521 -0.1261499 0.7014578 0.7014578 -0.1261501 0.7014578 0.7014578 -0.1261501 0.7014578 0.7014578 -0.1261501 0.7014578 0.7014578 -0.12615 0.7014578 0.7014578 -0.12615 0.7014578 0.7014578 -0.12615 0.2567522 0.958209 -0.1261499 0.2567522 0.958209 -0.1261499 0.2567522 0.958209 -0.1261499 0.2567521 0.9582091 -0.1261502 0.2567521 0.9582091 -0.1261502 0.2567521 0.9582091 -0.1261502 -0.2567522 0.958209 -0.1261502 -0.2567522 0.958209 -0.1261502 -0.2567522 0.958209 -0.1261502 -0.2567521 0.958209 -0.1261499 -0.2567521 0.958209 -0.1261499 -0.2567521 0.958209 -0.1261499 -0.7014578 0.7014578 -0.1261501 -0.7014578 0.7014578 -0.1261501 -0.7014578 0.7014578 -0.1261501 -0.7014578 0.7014578 -0.12615 -0.7014578 0.7014578 -0.12615 -0.7014578 0.7014578 -0.12615 -0.958209 0.2567522 -0.1261499 -0.958209 0.2567522 -0.1261499 -0.958209 0.2567522 -0.1261499 -0.9582091 0.2567521 -0.1261502 -0.9582091 0.2567521 -0.1261502 -0.9582091 0.2567521 -0.1261502 -0.9582091 -0.2567521 0.1261502 -0.9582091 -0.2567521 0.1261502 -0.9582091 -0.2567521 0.1261502 -0.958209 -0.2567522 0.12615 -0.958209 -0.2567522 0.12615 -0.958209 -0.2567522 0.12615 -0.7014578 -0.7014578 0.1261501 -0.7014578 -0.7014578 0.1261501 -0.7014578 -0.7014578 0.1261501 -0.7014578 -0.7014578 0.1261501 -0.7014578 -0.7014578 0.1261501 -0.7014578 -0.7014578 0.1261501 -0.256752 -0.958209 0.12615 -0.256752 -0.958209 0.12615 -0.256752 -0.958209 0.12615 -0.2567522 -0.958209 0.1261502 -0.2567522 -0.958209 0.1261502 -0.2567522 -0.958209 0.1261502 0.2567521 -0.9582091 0.1261502 0.2567521 -0.9582091 0.1261502 0.2567521 -0.9582091 0.1261502 0.2567522 -0.958209 0.12615 0.2567522 -0.958209 0.12615 0.2567522 -0.958209 0.12615 0.7014578 -0.7014578 0.1261501 0.7014578 -0.7014578 0.1261501 0.7014578 -0.7014578 0.1261501 0.7014578 -0.7014578 0.1261501 0.7014578 -0.7014578 0.1261501 0.7014578 -0.7014578 0.1261501 0.958209 -0.256752 0.12615 0.958209 -0.256752 0.12615 0.958209 -0.256752 0.12615 0.958209 -0.2567522 0.1261502 0.958209 -0.2567522 0.1261502 0.958209 -0.2567522 0.1261502 0.9582091 0.2567521 0.1261502 0.9582091 0.2567521 0.1261502 0.9582091 0.2567521 0.1261502 0.958209 0.2567522 0.12615 0.958209 0.2567522 0.12615 0.958209 0.2567522 0.12615 0.7014578 0.7014578 0.1261501 0.7014578 0.7014578 0.1261501 0.7014578 0.7014578 0.1261501 0.7014578 0.7014578 0.1261501 0.7014578 0.7014578 0.1261501 0.7014578 0.7014578 0.1261501 0.256752 0.958209 0.12615 0.256752 0.958209 0.12615 0.256752 0.958209 0.12615 0.2567522 0.958209 0.1261502 0.2567522 0.958209 0.1261502 0.2567522 0.958209 0.1261502 -0.2567521 0.9582091 0.1261502 -0.2567521 0.9582091 0.1261502 -0.2567521 0.9582091 0.1261502 -0.2567522 0.958209 0.12615 -0.2567522 0.958209 0.12615 -0.2567522 0.958209 0.12615 -0.7014578 0.7014578 0.1261501 -0.7014578 0.7014578 0.1261501 -0.7014578 0.7014578 0.1261501 -0.7014578 0.7014578 0.1261501 -0.7014578 0.7014578 0.1261501 -0.7014578 0.7014578 0.1261501 -0.958209 0.256752 0.12615 -0.958209 0.256752 0.12615 -0.958209 0.256752 0.12615 -0.958209 0.2567522 0.1261502 -0.958209 0.2567522 0.1261502 -0.958209 0.2567522 0.1261502 -0.896809 -0.2403001 0.3714693 -0.896809 -0.2403001 0.3714693 -0.896809 -0.2403001 0.3714693 -0.8968083 -0.2402981 0.3714722 -0.8968083 -0.2402981 0.3714722 -0.8968083 -0.2402981 0.3714722 -0.6565099 -0.6565099 0.3714691 -0.6565099 -0.6565099 0.3714691 -0.6565099 -0.6565099 0.3714691 -0.65651 -0.65651 0.3714691 -0.65651 -0.65651 0.3714691 -0.65651 -0.65651 0.3714691 -0.2402998 -0.896808 0.3714721 -0.2402998 -0.896808 0.3714721 -0.2402998 -0.896808 0.3714721 -0.2402985 -0.8968096 0.3714691 -0.2402985 -0.8968096 0.3714691 -0.2402985 -0.8968096 0.3714691 0.2403001 -0.896809 0.3714693 0.2403001 -0.896809 0.3714693 0.2403001 -0.896809 0.3714693 0.2402981 -0.8968083 0.3714722 0.2402981 -0.8968083 0.3714722 0.2402981 -0.8968083 0.3714722 0.6565099 -0.6565099 0.3714691 0.6565099 -0.6565099 0.3714691 0.6565099 -0.6565099 0.3714691 0.65651 -0.65651 0.3714691 0.65651 -0.65651 0.3714691 0.65651 -0.65651 0.3714691 0.896808 -0.2402998 0.3714721 0.896808 -0.2402998 0.3714721 0.896808 -0.2402998 0.3714721 0.8968096 -0.2402985 0.3714691 0.8968096 -0.2402985 0.3714691 0.8968096 -0.2402985 0.3714691 0.896809 0.2403001 0.3714693 0.896809 0.2403001 0.3714693 0.896809 0.2403001 0.3714693 0.8968083 0.2402981 0.3714722 0.8968083 0.2402981 0.3714722 0.8968083 0.2402981 0.3714722 0.6565099 0.6565099 0.3714691 0.6565099 0.6565099 0.3714691 0.6565099 0.6565099 0.3714691 0.65651 0.65651 0.3714691 0.65651 0.65651 0.3714691 0.65651 0.65651 0.3714691 0.2402998 0.896808 0.3714721 0.2402998 0.896808 0.3714721 0.2402998 0.896808 0.3714721 0.2402985 0.8968096 0.3714691 0.2402985 0.8968096 0.3714691 0.2402985 0.8968096 0.3714691 -0.2403001 0.896809 0.3714693 -0.2403001 0.896809 0.3714693 -0.2403001 0.896809 0.3714693 -0.2402981 0.8968083 0.3714722 -0.2402981 0.8968083 0.3714722 -0.2402981 0.8968083 0.3714722 -0.6565099 0.6565099 0.3714691 -0.6565099 0.6565099 0.3714691 -0.6565099 0.6565099 0.3714691 -0.65651 0.65651 0.3714691 -0.65651 0.65651 0.3714691 -0.65651 0.65651 0.3714691 -0.896808 0.2402998 0.3714721 -0.896808 0.2402998 0.3714721 -0.896808 0.2402998 0.3714721 -0.8968096 0.2402985 0.3714691 -0.8968096 0.2402985 0.3714691 -0.8968096 0.2402985 0.3714691 -0.7760127 -0.2079312 0.5954568 -0.7760127 -0.2079312 0.5954568 -0.7760127 -0.2079312 0.5954568 -0.7760144 -0.2079342 0.5954537 -0.7760144 -0.2079342 0.5954537 -0.7760144 -0.2079342 0.5954537 -0.5680803 -0.5680803 0.5954574 -0.5680803 -0.5680803 0.5954574 -0.5680803 -0.5680803 0.5954574 -0.5680802 -0.5680802 0.5954576 -0.5680802 -0.5680802 0.5954576 -0.5680802 -0.5680802 0.5954576 -0.2079317 -0.7760147 0.595454 -0.2079317 -0.7760147 0.595454 -0.2079317 -0.7760147 0.595454 -0.2079335 -0.7760118 0.5954572 -0.2079335 -0.7760118 0.5954572 -0.2079335 -0.7760118 0.5954572 0.2079312 -0.7760127 0.5954568 0.2079312 -0.7760127 0.5954568 0.2079312 -0.7760127 0.5954568 0.2079342 -0.7760144 0.5954537 0.2079342 -0.7760144 0.5954537 0.2079342 -0.7760144 0.5954537 0.5680803 -0.5680803 0.5954574 0.5680803 -0.5680803 0.5954574 0.5680803 -0.5680803 0.5954574 0.5680802 -0.5680802 0.5954576 0.5680802 -0.5680802 0.5954576 0.5680802 -0.5680802 0.5954576 0.7760147 -0.2079317 0.595454 0.7760147 -0.2079317 0.595454 0.7760147 -0.2079317 0.595454 0.7760118 -0.2079335 0.5954572 0.7760118 -0.2079335 0.5954572 0.7760118 -0.2079335 0.5954572 0.7760127 0.2079312 0.5954568 0.7760127 0.2079312 0.5954568 0.7760127 0.2079312 0.5954568 0.7760144 0.2079342 0.5954537 0.7760144 0.2079342 0.5954537 0.7760144 0.2079342 0.5954537 0.5680803 0.5680803 0.5954574 0.5680803 0.5680803 0.5954574 0.5680803 0.5680803 0.5954574 0.5680802 0.5680802 0.5954576 0.5680802 0.5680802 0.5954576 0.5680802 0.5680802 0.5954576 0.2079317 0.7760147 0.595454 0.2079317 0.7760147 0.595454 0.2079317 0.7760147 0.595454 0.2079335 0.7760118 0.5954572 0.2079335 0.7760118 0.5954572 0.2079335 0.7760118 0.5954572 -0.2079312 0.7760127 0.5954568 -0.2079312 0.7760127 0.5954568 -0.2079312 0.7760127 0.5954568 -0.2079342 0.7760144 0.5954537 -0.2079342 0.7760144 0.5954537 -0.2079342 0.7760144 0.5954537 -0.5680803 0.5680803 0.5954574 -0.5680803 0.5680803 0.5954574 -0.5680803 0.5680803 0.5954574 -0.5680802 0.5680802 0.5954576 -0.5680802 0.5680802 0.5954576 -0.5680802 0.5680802 0.5954576 -0.7760147 0.2079317 0.595454 -0.7760147 0.2079317 0.595454 -0.7760147 0.2079317 0.595454 -0.7760118 0.2079335 0.5954572 -0.7760118 0.2079335 0.5954572 -0.7760118 0.2079335 0.5954572 -0.6008204 -0.1609907 0.7830051 -0.6008204 -0.1609907 0.7830051 -0.6008204 -0.1609907 0.7830051 -0.6008191 -0.1609882 0.7830066 -0.6008191 -0.1609882 0.7830066 -0.6008191 -0.1609882 0.7830066 -0.4398314 -0.4398314 0.7830049 -0.4398314 -0.4398314 0.7830049 -0.4398314 -0.4398314 0.7830049 -0.4398314 -0.4398314 0.7830049 -0.4398314 -0.4398314 0.7830049 -0.4398314 -0.4398314 0.7830049 -0.1609903 -0.6008188 0.7830064 -0.1609903 -0.6008188 0.7830064 -0.1609903 -0.6008188 0.7830064 -0.1609888 -0.6008212 0.7830048 -0.1609888 -0.6008212 0.7830048 -0.1609888 -0.6008212 0.7830048 0.1609907 -0.6008204 0.7830051 0.1609907 -0.6008204 0.7830051 0.1609907 -0.6008204 0.7830051 0.1609882 -0.6008191 0.7830066 0.1609882 -0.6008191 0.7830066 0.1609882 -0.6008191 0.7830066 0.4398314 -0.4398314 0.7830049 0.4398314 -0.4398314 0.7830049 0.4398314 -0.4398314 0.7830049 0.4398314 -0.4398314 0.7830049 0.4398314 -0.4398314 0.7830049 0.4398314 -0.4398314 0.7830049 0.6008188 -0.1609903 0.7830064 0.6008188 -0.1609903 0.7830064 0.6008188 -0.1609903 0.7830064 0.6008212 -0.1609888 0.7830048 0.6008212 -0.1609888 0.7830048 0.6008212 -0.1609888 0.7830048 0.6008204 0.1609907 0.7830051 0.6008204 0.1609907 0.7830051 0.6008204 0.1609907 0.7830051 0.6008191 0.1609882 0.7830066 0.6008191 0.1609882 0.7830066 0.6008191 0.1609882 0.7830066 0.4398314 0.4398314 0.7830049 0.4398314 0.4398314 0.7830049 0.4398314 0.4398314 0.7830049 0.4398314 0.4398314 0.7830049 0.4398314 0.4398314 0.7830049 0.4398314 0.4398314 0.7830049 0.1609903 0.6008188 0.7830064 0.1609903 0.6008188 0.7830064 0.1609903 0.6008188 0.7830064 0.1609888 0.6008212 0.7830048 0.1609888 0.6008212 0.7830048 0.1609888 0.6008212 0.7830048 -0.1609907 0.6008204 0.7830051 -0.1609907 0.6008204 0.7830051 -0.1609907 0.6008204 0.7830051 -0.1609882 0.6008191 0.7830066 -0.1609882 0.6008191 0.7830066 -0.1609882 0.6008191 0.7830066 -0.4398314 0.4398314 0.7830049 -0.4398314 0.4398314 0.7830049 -0.4398314 0.4398314 0.7830049 -0.4398314 0.4398314 0.7830049 -0.4398314 0.4398314 0.7830049 -0.4398314 0.4398314 0.7830049 -0.6008188 0.1609903 0.7830064 -0.6008188 0.1609903 0.7830064 -0.6008188 0.1609903 0.7830064 -0.6008212 0.1609888 0.7830048 -0.6008212 0.1609888 0.7830048 -0.6008212 0.1609888 0.7830048 -0.3806894 -0.1020049 0.9190596 -0.3806894 -0.1020049 0.9190596 -0.3806894 -0.1020049 0.9190596 -0.3806891 -0.1020044 0.9190598 -0.3806891 -0.1020044 0.9190598 -0.3806891 -0.1020044 0.9190598 -0.2786841 -0.2786841 0.9190595 -0.2786841 -0.2786841 0.9190595 -0.2786841 -0.2786841 0.9190595 -0.278684 -0.278684 0.9190595 -0.278684 -0.278684 0.9190595 -0.278684 -0.278684 0.9190595 -0.1020049 -0.3806892 0.9190597 -0.1020049 -0.3806892 0.9190597 -0.1020049 -0.3806892 0.9190597 -0.1020045 -0.3806896 0.9190596 -0.1020045 -0.3806896 0.9190596 -0.1020045 -0.3806896 0.9190596 0.1020049 -0.3806894 0.9190596 0.1020049 -0.3806894 0.9190596 0.1020049 -0.3806894 0.9190596 0.1020044 -0.3806891 0.9190598 0.1020044 -0.3806891 0.9190598 0.1020044 -0.3806891 0.9190598 0.2786841 -0.2786841 0.9190595 0.2786841 -0.2786841 0.9190595 0.2786841 -0.2786841 0.9190595 0.278684 -0.278684 0.9190595 0.278684 -0.278684 0.9190595 0.278684 -0.278684 0.9190595 0.3806892 -0.1020049 0.9190597 0.3806892 -0.1020049 0.9190597 0.3806892 -0.1020049 0.9190597 0.3806896 -0.1020045 0.9190596 0.3806896 -0.1020045 0.9190596 0.3806896 -0.1020045 0.9190596 0.3806894 0.1020049 0.9190596 0.3806894 0.1020049 0.9190596 0.3806894 0.1020049 0.9190596 0.3806891 0.1020044 0.9190598 0.3806891 0.1020044 0.9190598 0.3806891 0.1020044 0.9190598 0.2786841 0.2786841 0.9190595 0.2786841 0.2786841 0.9190595 0.2786841 0.2786841 0.9190595 0.278684 0.278684 0.9190595 0.278684 0.278684 0.9190595 0.278684 0.278684 0.9190595 0.1020049 0.3806892 0.9190597 0.1020049 0.3806892 0.9190597 0.1020049 0.3806892 0.9190597 0.1020045 0.3806896 0.9190596 0.1020045 0.3806896 0.9190596 0.1020045 0.3806896 0.9190596 -0.1020049 0.3806894 0.9190596 -0.1020049 0.3806894 0.9190596 -0.1020049 0.3806894 0.9190596 -0.1020044 0.3806891 0.9190598 -0.1020044 0.3806891 0.9190598 -0.1020044 0.3806891 0.9190598 -0.2786841 0.2786841 0.9190595 -0.2786841 0.2786841 0.9190595 -0.2786841 0.2786841 0.9190595 -0.278684 0.278684 0.9190595 -0.278684 0.278684 0.9190595 -0.278684 0.278684 0.9190595 -0.3806892 0.1020049 0.9190597 -0.3806892 0.1020049 0.9190597 -0.3806892 0.1020049 0.9190597 -0.3806896 0.1020045 0.9190596 -0.3806896 0.1020045 0.9190596 -0.3806896 0.1020045 0.9190596 -0.1304458 -0.0349525 0.9908391 -0.1304458 -0.0349525 0.9908391 -0.1304458 -0.0349525 0.9908391 1.0 0.0 0.0 1.0 0.0 0.0 -0.0954928 -0.0954928 0.9908392 -0.0954928 -0.0954928 0.9908392 -0.0954928 -0.0954928 0.9908392 1.0 0.0 0.0 1.0 0.0 0.0 -0.0349525 -0.1304458 0.9908391 -0.0349525 -0.1304458 0.9908391 -0.0349525 -0.1304458 0.9908391 1.0 0.0 0.0 1.0 0.0 0.0 0.0349525 -0.1304458 0.9908391 0.0349525 -0.1304458 0.9908391 0.0349525 -0.1304458 0.9908391 1.0 0.0 0.0 1.0 0.0 0.0 0.0954928 -0.0954928 0.9908392 0.0954928 -0.0954928 0.9908392 0.0954928 -0.0954928 0.9908392 1.0 0.0 0.0 1.0 0.0 0.0 0.1304458 -0.0349525 0.9908391 0.1304458 -0.0349525 0.9908391 0.1304458 -0.0349525 0.9908391 1.0 0.0 0.0 1.0 0.0 0.0 0.1304458 0.0349525 0.9908391 0.1304458 0.0349525 0.9908391 0.1304458 0.0349525 0.9908391 1.0 0.0 0.0 1.0 0.0 0.0</float_array>
                    <technique_common>
                        <accessor count="840" source="#geometry0-normal-array" stride="3">
                            <param name="X" type="float"/>
                            <param name="Y" type="float"/>
                            <param name="Z" type="float"/>
                        </accessor>
                    </technique_common>
                </source>
                <vertices id="geometry0-vertex">
                    <input semantic="POSITION" source="#geometry0-position"/>
                </vertices>
                <triangles count="288" material="default_ai_0.2_sh_0.2_tr_0.0_dc_r_0.8_g_0.8_b_0.8_sc_r_1.0_g_1.0_b_1.0_ec_r_0.0_g_0.0_b_0_tri">
                    <input offset="0" semantic="VERTEX" source="#geometry0-vertex"/>
                    <input offset="1" semantic="NORMAL" source="#geometry0-normal"/>
                    <p>128 0 129 1 133 2 128 3 133 4 133 4 129 5 130 6 133 7 129 8 133 9 133 9 130 10 131 11 133 12 130 13 133 14 133 14 131 15 132 16 133 17 131 18 133 19 133 19 132 20 122 21 133 22 132 23 133 24 133 24 0 25 0 25 1 26 0 27 1 28 2 29 0 30 0 30 3 31 0 32 3 33 1 34 0 35 0 35 4 36 0 37 4 38 3 39 0 40 0 40 5 41 0 42 5 43 4 44 0 45 0 45 6 46 0 47 6 48 5 49 0 50 0 50 7 51 0 52 7 53 6 54 0 55 0 55 8 56 0 57 8 58 7 59 0 60 0 60 9 61 0 62 9 63 8 64 0 65 0 65 10 66 0 67 10 68 9 69 0 70 0 70 11 71 0 72 11 73 10 74 0 75 0 75 12 76 0 77 12 78 11 79 0 80 0 80 2 81 0 82 2 83 12 84 2 85 1 86 13 87 2 88 13 89 14 90 1 91 3 92 15 93 1 94 15 95 13 96 3 97 4 98 16 99 3 100 16 101 15 102 4 103 5 104 17 105 4 106 17 107 16 108 5 109 6 110 18 111 5 112 18 113 17 114 6 115 7 116 19 117 6 118 19 119 18 120 7 121 8 122 20 123 7 124 20 125 19 126 8 127 9 128 21 129 8 130 21 131 20 132 9 133 10 134 22 135 9 136 22 137 21 138 10 139 11 140 23 141 10 142 23 143 22 144 11 145 12 146 24 147 11 148 24 149 23 150 12 151 2 152 14 153 12 154 14 155 24 156 14 157 13 158 25 159 14 160 25 161 26 162 13 163 15 164 27 165 13 166 27 167 25 168 15 169 16 170 28 171 15 172 28 173 27 174 16 175 17 176 29 177 16 178 29 179 28 180 17 181 18 182 30 183 17 184 30 185 29 186 18 187 19 188 31 189 18 190 31 191 30 192 19 193 20 194 32 195 19 196 32 197 31 198 20 199 21 200 33 201 20 202 33 203 32 204 21 205 22 206 34 207 21 208 34 209 33 210 22 211 23 212 35 213 22 214 35 215 34 216 23 217 24 218 36 219 23 220 36 221 35 222 24 223 14 224 26 225 24 226 26 227 36 228 26 229 25 230 37 231 26 232 37 233 38 234 25 235 27 236 39 237 25 238 39 239 37 240 27 241 28 242 40 243 27 244 40 245 39 246 28 247 29 248 41 249 28 250 41 251 40 252 29 253 30 254 42 255 29 256 42 257 41 258 30 259 31 260 43 261 30 262 43 263 42 264 31 265 32 266 44 267 31 268 44 269 43 270 32 271 33 272 45 273 32 274 45 275 44 276 33 277 34 278 46 279 33 280 46 281 45 282 34 283 35 284 47 285 34 286 47 287 46 288 35 289 36 290 48 291 35 292 48 293 47 294 36 295 26 296 38 297 36 298 38 299 48 300 38 301 37 302 49 303 38 304 49 305 50 306 37 307 39 308 51 309 37 310 51 311 49 312 39 313 40 314 52 315 39 316 52 317 51 318 40 319 41 320 53 321 40 322 53 323 52 324 41 325 42 326 54 327 41 328 54 329 53 330 42 331 43 332 55 333 42 334 55 335 54 336 43 337 44 338 56 339 43 340 56 341 55 342 44 343 45 344 57 345 44 346 57 347 56 348 45 349 46 350 58 351 45 352 58 353 57 354 46 355 47 356 59 357 46 358 59 359 58 360 47 361 48 362 60 363 47 364 60 365 59 366 48 367 38 368 50 369 48 370 50 371 60 372 50 373 49 374 61 375 50 376 61 377 62 378 49 379 51 380 63 381 49 382 63 383 61 384 51 385 52 386 64 387 51 388 64 389 63 390 52 391 53 392 65 393 52 394 65 395 64 396 53 397 54 398 66 399 53 400 66 401 65 402 54 403 55 404 67 405 54 406 67 407 66 408 55 409 56 410 68 411 55 412 68 413 67 414 56 415 57 416 69 417 56 418 69 419 68 420 57 421 58 422 70 423 57 424 70 425 69 426 58 427 59 428 71 429 58 430 71 431 70 432 59 433 60 434 72 435 59 436 72 437 71 438 60 439 50 440 62 441 60 442 62 443 72 444 62 445 61 446 73 447 62 448 73 449 74 450 61 451 63 452 75 453 61 454 75 455 73 456 63 457 64 458 76 459 63 460 76 461 75 462 64 463 65 464 77 465 64 466 77 467 76 468 65 469 66 470 78 471 65 472 78 473 77 474 66 475 67 476 79 477 66 478 79 479 78 480 67 481 68 482 80 483 67 484 80 485 79 486 68 487 69 488 81 489 68 490 81 491 80 492 69 493 70 494 82 495 69 496 82 497 81 498 70 499 71 500 83 501 70 502 83 503 82 504 71 505 72 506 84 507 71 508 84 509 83 510 72 511 62 512 74 513 72 514 74 515 84 516 74 517 73 518 85 519 74 520 85 521 86 522 73 523 75 524 87 525 73 526 87 527 85 528 75 529 76 530 88 531 75 532 88 533 87 534 76 535 77 536 89 537 76 538 89 539 88 540 77 541 78 542 90 543 77 544 90 545 89 546 78 547 79 548 91 549 78 550 91 551 90 552 79 553 80 554 92 555 79 556 92 557 91 558 80 559 81 560 93 561 80 562 93 563 92 564 81 565 82 566 94 567 81 568 94 569 93 570 82 571 83 572 95 573 82 574 95 575 94 576 83 577 84 578 96 579 83 580 96 581 95 582 84 583 74 584 86 585 84 586 86 587 96 588 86 589 85 590 97 591 86 592 97 593 98 594 85 595 87 596 99 597 85 598 99 599 97 600 87 601 88 602 100 603 87 604 100 605 99 606 88 607 89 608 101 609 88 610 101 611 100 612 89 613 90 614 102 615 89 616 102 617 101 618 90 619 91 620 103 621 90 622 103 623 102 624 91 625 92 626 104 627 91 628 104 629 103 630 92 631 93 632 105 633 92 634 105 635 104 636 93 637 94 638 106 639 93 640 106 641 105 642 94 643 95 644 107 645 94 646 107 647 106 648 95 649 96 650 108 651 95 652 108 653 107 654 96 655 86 656 98 657 96 658 98 659 108 660 98 661 97 662 109 663 98 664 109 665 110 666 97 667 99 668 111 669 97 670 111 671 109 672 99 673 100 674 112 675 99 676 112 677 111 678 100 679 101 680 113 681 100 682 113 683 112 684 101 685 102 686 114 687 101 688 114 689 113 690 102 691 103 692 115 693 102 694 115 695 114 696 103 697 104 698 116 699 103 700 116 701 115 702 104 703 105 704 117 705 104 706 117 707 116 708 105 709 106 710 118 711 105 712 118 713 117 714 106 715 107 716 119 717 106 718 119 719 118 720 107 721 108 722 120 723 107 724 120 725 119 726 108 727 98 728 110 729 108 730 110 731 120 732 110 733 109 734 121 735 110 736 121 737 122 738 109 739 111 740 123 741 109 742 123 743 121 744 111 745 112 746 124 747 111 748 124 749 123 750 112 751 113 752 125 753 112 754 125 755 124 756 113 757 114 758 126 759 113 760 126 761 125 762 114 763 115 764 127 765 114 766 127 767 126 768 115 769 116 770 128 771 115 772 128 773 127 774 116 775 117 776 129 777 116 778 129 779 128 780 117 781 118 782 130 783 117 784 130 785 129 786 118 787 119 788 131 789 118 790 131 791 130 792 119 793 120 794 132 795 119 796 132 797 131 798 120 799 110 800 122 801 120 802 122 803 132 804 122 805 121 806 133 807 122 808 133 809 133 809 121 810 123 811 133 812 121 813 133 814 133 814 123 815 124 816 133 817 123 818 133 819 133 819 124 820 125 821 133 822 124 823 133 824 133 824 125 825 126 826 133 827 125 828 133 829 133 829 126 830 127 831 133 832 126 833 133 834 133 834 127 835 128 836 133 837 127 838 133 839 133 839</p>
                </triangles>
            </mesh>
        </geometry>
    </library_geometries>
    <library_visual_scenes>
        <visual_scene id="Building_76_CROWN2">
            <node>
                <instance_geometry url="#geometry0">
                    <bind_material>
                        <technique_common>
                            <instance_material symbol="default_ai_0.2_sh_0.2_tr_0.0_dc_r_0.8_g_0.8_b_0.8_sc_r_1.0_g_1.0_b_1.0_ec_r_0.0_g_0.0_b_0_tri" target="#default_ai_0.2_sh_0.2_tr_0.0_dc_r_0.8_g_0.8_b_0.8_sc_r_1.0_g_1.0_b_1.0_ec_r_0.0_g_0.0_b_0_mat"/>
                        </technique_common>
                    </bind_material>
                </instance_geometry>
            </node>
        </visual_scene>
    </library_visual_scenes>
    <scene>
        <instance_visual_scene url="#Building_76_CROWN2"/>
    </scene>
</COLLADA>
