<?xml version="1.0" encoding="UTF-8" standalone="yes"?>
<COLLADA xmlns="http://www.collada.org/2005/11/COLLADASchema" version="1.4.1">
    <asset>
        <contributor>
            <authoring_tool>3D City Database Importer/Exporter, version 5.5.3; Chair of Geoinformatics, Technical University of Munich</authoring_tool>
        </contributor>
        <created>2026-09-25T14:45:37.153</created>
        <modified>2026-09-25T14:45:37.153</modified>
        <unit meter="1.0" name="meters"/>
        <up_axis>Z_UP</up_axis>
    </asset>
    <library_materials>
        <material id="default_ai_0.2_sh_0.2_tr_0.0_dc_r_0.8_g_0.8_b_0.8_sc_r_1.0_g_1.0_b_1.0_ec_r_0.0_g_0.0_b_0_mat">
            <instance_effect url="#default_ai_0.2_sh_0.2_tr_0.0_dc_r_0.8_g_0.8_b_0.8_sc_r_1.0_g_1.0_b_1.0_ec_r_0.0_g_0.0_b_0_eff"/>
        </material>
    </library_materials>
    <library_effects>
        <effect id="default_ai_0.2_sh_0.2_tr_0.0_dc_r_0.8_g_0.8_b_0.8_sc_r_1.0_g_1.0_b_1.0_ec_r_0.0_g_0.0_b_0_eff">
            <profile_COMMON>
                <technique sid="COMMON">
                    <lambert>
                        <emission>
                            <color>0.0 0.0 0.0 1.0</color>
                        </emission>
                        <diffuse>
                            <color>0.8 0.8 0.8 1.0</color>
                        </diffuse>
                        <reflective>
                            <color>1.0 1.0 1.0 1.0</color>
                        </reflective>
                        <reflectivity>
                            <float>0.2</float>
                        </reflectivity>
                        <transparent opaque="A_ONE">
                            <color>1.0 1.0 1.0 1.0</color>
                        </transparent>
                        <transparency>
                            <float>1.0</float>
                        </transparency>
                    </lambert>
                </technique>
                <extra>
                    <technique profile="GOOGLEEARTH">
                        <double_sided>0</double_sided>
                    </technique>
                </extra>
            </profile_COMMON>
        </effect>
    </library_effects>
    <library_geometries>
        <geometry id="geometry0">
            <mesh>
                <source id="geometry0-position">
                    <float_array id="geometry0-position-array" count="402">0.0 0.0 2.0 0.224144 0.12941 1.965926 0.258819 0.0 1.965926 0.12941 0.224144 1.965926 0.0 0.258819 1.965926 -0.12941 0.224144 1.965926 -0.224144 0.12941 1.965926 -0.258819 0.0 1.965926 -0.224144 -0.12941 1.965926 -0.12941 -0.224144 1.965926 0.0 -0.258819 1.965926 0.12941 -0.224144 1.965926 0.224144 -0.12941 1.965926 0.433013 0.25 1.866025 0.5 0.0 1.866025 0.25 0.433013 1.866025 0.0 0.5 1.866025 -0.25 0.433013 1.866025 -0.433013 0.25 1.866025 -0.5 0.0 1.866025 -0.433013 -0.25 1.866025 -0.25 -0.433013 1.866025 0.0 -0.5 1.866025 0.25 -0.433013 1.866025 0.433013 -0.25 1.866025 0.612372 0.353553 1.707106 0.707107 0.0 1.707106 0.353553 0.612372 1.707106 0.0 0.707107 1.707106 -0.353553 0.612372 1.707106 -0.612372 0.353553 1.707106 -0.707107 0.0 1.707106 -0.612372 -0.353553 1.707106 -0.353553 -0.612372 1.707106 0.0 -0.707107 1.707106 0.353553 -0.612372 1.707106 0.612372 -0.353553 1.707106 0.75 0.433013 1.5 0.866025 0.0 1.5 0.433013 0.75 1.5 0.0 0.866025 1.5 -0.433013 0.75 1.5 -0.75 0.433013 1.5 -0.866025 0.0 1.5 -0.75 -0.433013 1.5 -0.433013 -0.75 1.5 0.0 -0.866025 1.5 0.433013 -0.75 1.5 0.75 -0.433013 1.5 0.836516 0.482963 1.258819 0.965926 0.0 1.258819 0.482963 0.836516 1.258819 0.0 0.965926 1.258819 -0.482963 0.836516 1.258819 -0.836516 0.482963 1.258819 -0.965926 0.0 1.258819 -0.836516 -0.482963 1.258819 -0.482963 -0.836516 1.258819 0.0 -0.965926 1.258819 0.482963 -0.836516 1.258819 0.836516 -0.482963 1.258819 0.866025 0.5 1.0 1.0 0.0 1.0 0.5 0.866025 1.0 0.0 1.0 1.0 -0.5 0.866025 1.0 -0.866025 0.5 1.0 -1.0 0.0 1.0 -0.866025 -0.5 1.0 -0.5 -0.866025 1.0 0.0 -1.0 1.0 0.5 -0.866025 1.0 0.866025 -0.5 1.0 0.836516 0.482963 0.741181 0.965926 0.0 0.741181 0.482963 0.836516 0.741181 0.0 0.965926 0.741181 -0.482963 0.836516 0.741181 -0.836516 0.482963 0.741181 -0.965926 0.0 0.741181 -0.836516 -0.482963 0.741181 -0.482963 -0.836516 0.741181 0.0 -0.965926 0.741181 0.482963 -0.836516 0.741181 0.836516 -0.482963 0.741181 0.75 0.433013 0.5 0.866025 0.0 0.5 0.433013 0.75 0.5 0.0 0.866025 0.5 -0.433013 0.75 0.5 -0.75 0.433013 0.5 -0.866025 0.0 0.5 -0.75 -0.433013 0.5 -0.433013 -0.75 0.5 0.0 -0.866025 0.5 0.433013 -0.75 0.5 0.75 -0.433013 0.5 0.612372 0.353553 0.292893 0.707107 0.0 0.292893 0.353553 0.612372 0.292893 0.0 0.707107 0.292893 -0.353553 0.612372 0.292893 -0.612372 0.353553 0.292893 -0.707107 0.0 0.292893 -0.612372 -0.353553 0.292893 -0.353553 -0.612372 0.292893 0.0 -0.707107 0.292893 0.353553 -0.612372 0.292893 0.612372 -0.353553 0.292893 0.433013 0.25 0.133974 0.5 0.0 0.133974 0.25 0.433013 0.133974 0.0 0.5 0.133974 -0.25 0.433013 0.133974 -0.433013 0.25 0.133974 -0.5 0.0 0.133974 -0.433013 -0.25 0.133974 -0.25 -0.433013 0.133974 0.0 -0.5 0.133974 0.25 -0.433013 0.133974 0.433013 -0.25 0.133974 0.224144 0.12941 0.034074 0.258819 0.0 0.034074 0.12941 0.224144 0.034074 0.0 0.258819 0.034074 -0.12941 0.224144 0.034074 -0.224144 0.12941 0.034074 -0.258819 0.0 0.034074 -0.224144 -0.12941 0.034074 -0.12941 -0.224144 0.034074 0.0 -0.258819 0.034074 0.12941 -0.224144 0.034074 0.224144 -0.12941 0.034074 0.0 0.0 0.0</float_array>
                    <technique_common>
                        <accessor count="134" source="#geometry0-position-array" stride="3">
                            <param name="X" type="float"/>
                            <param name="Y" type="float"/>
                            <param name="Z" type="float"/>
                        </accessor>
                    </technique_common>
                </source>
                <source id="geometry0-normal">
                    <float_array id="geometry0-normal-array" count="2520">-0.2567522 -0.958209 0.12615 -0.2567522 -0.958209 0.12615 -0.2567522 -0.958209 0.12615 -0.2567522 -0.958209 0.12615 -0.2567522 -0.958209 0.12615 -0.2567522 -0.958209 0.12615 0.2567522 -0.958209 0.1261501 0.2567522 -0.958209 0.1261501 0.2567522 -0.958209 0.1261501 0.2567522 -0.958209 0.12615 0.2567522 -0.958209 0.12615 0.2567522 -0.958209 0.12615 0.7014578 -0.7014578 0.12615 0.7014578 -0.7014578 0.12615 0.7014578 -0.7014578 0.12615 0.7014578 -0.7014578 0.12615 0.7014578 -0.7014578 0.12615 0.7014578 -0.7014578 0.12615 0.958209 -0.2567522 0.12615 0.958209 -0.2567522 0.12615 0.958209 -0.2567522 0.12615 0.958209 -0.2567522 0.12615 0.958209 -0.2567522 0.12615 0.958209 -0.2567522 0.12615 0.958209 0.2567522 0.1261501 0.958209 0.2567522 0.1261501 0.958209 0.2567522 0.1261501 0.958209 0.2567522 0.12615 0.958209 0.2567522 0.12615 0.958209 0.2567522 0.12615 0.7014578 0.7014578 0.12615 0.7014578 0.7014578 0.12615 0.7014578 0.7014578 0.12615 0.7014578 0.7014578 0.12615 0.7014578 0.7014578 0.12615 0.7014578 0.7014578 0.12615 0.2567522 0.958209 0.12615 0.2567522 0.958209 0.12615 0.2567522 0.958209 0.12615 0.2567522 0.958209 0.12615 0.2567522 0.958209 0.12615 0.2567522 0.958209 0.12615 -0.2567522 0.958209 0.1261501 -0.2567522 0.958209 0.1261501 -0.2567522 0.958209 0.1261501 -0.2567522 0.958209 0.12615 -0.2567522 0.958209 0.12615 -0.2567522 0.958209 0.12615 -0.7014578 0.7014578 0.12615 -0.7014578 0.7014578 0.12615 -0.7014578 0.7014578 0.12615 -0.7014578 0.7014578 0.12615 -0.7014578 0.7014578 0.12615 -0.7014578 0.7014578 0.12615 -0.958209 0.2567522 0.12615 -0.958209 0.2567522 0.12615 -0.958209 0.2567522 0.12615 -0.958209 0.2567522 0.12615 -0.958209 0.2567522 0.12615 -0.958209 0.2567522 0.12615 -0.896809 -0.2403 0.3714693 -0.896809 -0.2403 0.3714693 -0.896809 -0.2403 0.3714693 -0.8968083 -0.240298 0.3714723 -0.8968083 -0.240298 0.3714723 -0.8968083 -0.240298 0.3714723 -0.6565099 -0.6565099 0.3714691 -0.6565099 -0.6565099 0.3714691 -0.6565099 -0.6565099 0.3714691 -0.6565099 -0.6565099 0.3714691 -0.6565099 -0.6565099 0.3714691 -0.6565099 -0.6565099 0.3714691 -0.2402997 -0.8968079 0.3714722 -0.2402997 -0.8968079 0.3714722 -0.2402997 -0.8968079 0.3714722 -0.2402984 -0.8968096 0.3714691 -0.2402984 -0.8968096 0.3714691 -0.2402984 -0.8968096 0.3714691 0.2403 -0.896809 0.3714693 0.2403 -0.896809 0.3714693 0.2403 -0.896809 0.3714693 0.240298 -0.8968083 0.3714723 0.240298 -0.8968083 0.3714723 0.240298 -0.8968083 0.3714723 0.6565099 -0.6565099 0.3714691 0.6565099 -0.6565099 0.3714691 0.6565099 -0.6565099 0.3714691 0.6565099 -0.6565099 0.3714691 0.6565099 -0.6565099 0.3714691 0.6565099 -0.6565099 0.3714691 0.8968079 -0.2402997 0.3714722 0.8968079 -0.2402997 0.3714722 0.8968079 -0.2402997 0.3714722 0.8968096 -0.2402984 0.3714691 0.8968096 -0.2402984 0.3714691 0.8968096 -0.2402984 0.3714691 0.896809 0.2403 0.3714693 0.896809 0.2403 0.3714693 0.896809 0.2403 0.3714693 0.8968083 0.240298 0.3714723 0.8968083 0.240298 0.3714723 0.8968083 0.240298 0.3714723 0.6565099 0.6565099 0.3714691 0.6565099 0.6565099 0.3714691 0.6565099 0.6565099 0.3714691 0.6565099 0.6565099 0.3714691 0.6565099 0.6565099 0.3714691 0.6565099 0.6565099 0.3714691 0.2402997 0.8968079 0.3714722 0.2402997 0.8968079 0.3714722 0.2402997 0.8968079 0.3714722 0.2402984 0.8968096 0.3714691 0.2402984 0.8968096 0.3714691 0.2402984 0.8968096 0.3714691 -0.2403 0.896809 0.3714693 -0.2403 0.896809 0.3714693 -0.2403 0.896809 0.3714693 -0.240298 0.8968083 0.3714723 -0.240298 0.8968083 0.3714723 -0.240298 0.8968083 0.3714723 -0.6565099 0.6565099 0.3714691 -0.6565099 0.6565099 0.3714691 -0.6565099 0.6565099 0.3714691 -0.6565099 0.6565099 0.3714691 -0.6565099 0.6565099 0.3714691 -0.6565099 0.6565099 0.3714691 -0.8968079 0.2402997 0.3714722 -0.8968079 0.2402997 0.3714722 -0.8968079 0.2402997 0.3714722 -0.8968096 0.2402984 0.3714691 -0.8968096 0.2402984 0.3714691 -0.8968096 0.2402984 0.3714691 -0.7760128 -0.2079311 0.5954569 -0.7760128 -0.2079311 0.5954569 -0.7760128 -0.2079311 0.5954569 -0.7760144 -0.2079342 0.5954537 -0.7760144 -0.2079342 0.5954537 -0.7760144 -0.2079342 0.5954537 -0.5680802 -0.5680802 0.5954575 -0.5680802 -0.5680802 0.5954575 -0.5680802 -0.5680802 0.5954575 -0.5680803 -0.5680803 0.5954575 -0.5680803 -0.5680803 0.5954575 -0.5680803 -0.5680803 0.5954575 -0.2079316 -0.7760148 0.595454 -0.2079316 -0.7760148 0.595454 -0.2079316 -0.7760148 0.595454 -0.2079335 -0.7760118 0.5954573 -0.2079335 -0.7760118 0.5954573 -0.2079335 -0.7760118 0.5954573 0.2079311 -0.7760128 0.5954569 0.2079311 -0.7760128 0.5954569 0.2079311 -0.7760128 0.5954569 0.2079342 -0.7760144 0.5954537 0.2079342 -0.7760144 0.5954537 0.2079342 -0.7760144 0.5954537 0.5680802 -0.5680802 0.5954575 0.5680802 -0.5680802 0.5954575 0.5680802 -0.5680802 0.5954575 0.5680803 -0.5680803 0.5954575 0.5680803 -0.5680803 0.5954575 0.5680803 -0.5680803 0.5954575 0.7760148 -0.2079316 0.595454 0.7760148 -0.2079316 0.595454 0.7760148 -0.2079316 0.595454 0.7760118 -0.2079335 0.5954573 0.7760118 -0.2079335 0.5954573 0.7760118 -0.2079335 0.5954573 0.7760128 0.2079311 0.5954569 0.7760128 0.2079311 0.5954569 0.7760128 0.2079311 0.5954569 0.7760144 0.2079342 0.5954537 0.7760144 0.2079342 0.5954537 0.7760144 0.2079342 0.5954537 0.5680802 0.5680802 0.5954575 0.5680802 0.5680802 0.5954575 0.5680802 0.5680802 0.5954575 0.5680803 0.5680803 0.5954575 0.5680803 0.5680803 0.5954575 0.5680803 0.5680803 0.5954575 0.2079316 0.7760148 0.595454 0.2079316 0.7760148 0.595454 0.2079316 0.7760148 0.595454 0.2079335 0.7760118 0.5954573 0.2079335 0.7760118 0.5954573 0.2079335 0.7760118 0.5954573 -0.2079311 0.7760128 0.5954569 -0.2079311 0.7760128 0.5954569 -0.2079311 0.7760128 0.5954569 -0.2079342 0.7760144 0.5954537 -0.2079342 0.7760144 0.5954537 -0.2079342 0.7760144 0.5954537 -0.5680802 0.5680802 0.5954575 -0.5680802 0.5680802 0.5954575 -0.5680802 0.5680802 0.5954575 -0.5680803 0.5680803 0.5954575 -0.5680803 0.5680803 0.5954575 -0.5680803 0.5680803 0.5954575 -0.7760148 0.2079316 0.595454 -0.7760148 0.2079316 0.595454 -0.7760148 0.2079316 0.595454 -0.7760118 0.2079335 0.5954573 -0.7760118 0.2079335 0.5954573 -0.7760118 0.2079335 0.5954573 -0.6008226 -0.1609913 0.7830032 -0.6008226 -0.1609913 0.7830032 -0.6008226 -0.1609913 0.7830032 -0.6008214 -0.1609889 0.7830046 -0.6008214 -0.1609889 0.7830046 -0.6008214 -0.1609889 0.7830046 -0.439833 -0.439833 0.783003 -0.439833 -0.439833 0.783003 -0.439833 -0.439833 0.783003 -0.4398331 -0.4398331 0.783003 -0.4398331 -0.4398331 0.783003 -0.4398331 -0.4398331 0.783003 -0.1609909 -0.6008211 0.7830043 -0.1609909 -0.6008211 0.7830043 -0.1609909 -0.6008211 0.7830043 -0.1609895 -0.6008235 0.7830029 -0.1609895 -0.6008235 0.7830029 -0.1609895 -0.6008235 0.7830029 0.1609913 -0.6008226 0.7830032 0.1609913 -0.6008226 0.7830032 0.1609913 -0.6008226 0.7830032 0.1609889 -0.6008214 0.7830046 0.1609889 -0.6008214 0.7830046 0.1609889 -0.6008214 0.7830046 0.439833 -0.439833 0.783003 0.439833 -0.439833 0.783003 0.439833 -0.439833 0.783003 0.4398331 -0.4398331 0.783003 0.4398331 -0.4398331 0.783003 0.4398331 -0.4398331 0.783003 0.6008211 -0.1609909 0.7830043 0.6008211 -0.1609909 0.7830043 0.6008211 -0.1609909 0.7830043 0.6008235 -0.1609895 0.7830029 0.6008235 -0.1609895 0.7830029 0.6008235 -0.1609895 0.7830029 0.6008226 0.1609913 0.7830032 0.6008226 0.1609913 0.7830032 0.6008226 0.1609913 0.7830032 0.6008214 0.1609889 0.7830046 0.6008214 0.1609889 0.7830046 0.6008214 0.1609889 0.7830046 0.439833 0.439833 0.783003 0.439833 0.439833 0.783003 0.439833 0.439833 0.783003 0.4398331 0.4398331 0.783003 0.4398331 0.4398331 0.783003 0.4398331 0.4398331 0.783003 0.1609909 0.6008211 0.7830043 0.1609909 0.6008211 0.7830043 0.1609909 0.6008211 0.7830043 0.1609895 0.6008235 0.7830029 0.1609895 0.6008235 0.7830029 0.1609895 0.6008235 0.7830029 -0.1609913 0.6008226 0.7830032 -0.1609913 0.6008226 0.7830032 -0.1609913 0.6008226 0.7830032 -0.1609889 0.6008214 0.7830046 -0.1609889 0.6008214 0.7830046 -0.1609889 0.6008214 0.7830046 -0.439833 0.439833 0.783003 -0.439833 0.439833 0.783003 -0.439833 0.439833 0.783003 -0.4398331 0.4398331 0.783003 -0.4398331 0.4398331 0.783003 -0.4398331 0.4398331 0.783003 -0.6008211 0.1609909 0.7830043 -0.6008211 0.1609909 0.7830043 -0.6008211 0.1609909 0.7830043 -0.6008235 0.1609895 0.7830029 -0.6008235 0.1609895 0.7830029 -0.6008235 0.1609895 0.7830029 -0.3806861 -0.1020041 0.9190611 -0.3806861 -0.1020041 0.9190611 -0.3806861 -0.1020041 0.9190611 -0.3806859 -0.1020036 0.9190612 -0.3806859 -0.1020036 0.9190612 -0.3806859 -0.1020036 0.9190612 -0.2786817 -0.2786817 0.9190609 -0.2786817 -0.2786817 0.9190609 -0.2786817 -0.2786817 0.9190609 -0.2786817 -0.2786817 0.9190609 -0.2786817 -0.2786817 0.9190609 -0.2786817 -0.2786817 0.9190609 -0.102004 -0.3806859 0.9190611 -0.102004 -0.3806859 0.9190611 -0.102004 -0.3806859 0.9190611 -0.1020037 -0.3806863 0.919061 -0.1020037 -0.3806863 0.919061 -0.1020037 -0.3806863 0.919061 0.1020041 -0.3806861 0.9190611 0.1020041 -0.3806861 0.9190611 0.1020041 -0.3806861 0.9190611 0.1020036 -0.3806859 0.9190612 0.1020036 -0.3806859 0.9190612 0.1020036 -0.3806859 0.9190612 0.2786817 -0.2786817 0.9190609 0.2786817 -0.2786817 0.9190609 0.2786817 -0.2786817 0.9190609 0.2786817 -0.2786817 0.9190609 0.2786817 -0.2786817 0.9190609 0.2786817 -0.2786817 0.9190609 0.3806859 -0.102004 0.9190611 0.3806859 -0.102004 0.9190611 0.3806859 -0.102004 0.9190611 0.3806863 -0.1020037 0.919061 0.3806863 -0.1020037 0.919061 0.3806863 -0.1020037 0.919061 0.3806861 0.1020041 0.9190611 0.3806861 0.1020041 0.9190611 0.3806861 0.1020041 0.9190611 0.3806859 0.1020036 0.9190612 0.3806859 0.1020036 0.9190612 0.3806859 0.1020036 0.9190612 0.2786817 0.2786817 0.9190609 0.2786817 0.2786817 0.9190609 0.2786817 0.2786817 0.9190609 0.2786817 0.2786817 0.9190609 0.2786817 0.2786817 0.9190609 0.2786817 0.2786817 0.9190609 0.102004 0.3806859 0.9190611 0.102004 0.3806859 0.9190611 0.102004 0.3806859 0.9190611 0.1020037 0.3806863 0.919061 0.1020037 0.3806863 0.919061 0.1020037 0.3806863 0.919061 -0.1020041 0.3806861 0.9190611 -0.1020041 0.3806861 0.9190611 -0.1020041 0.3806861 0.9190611 -0.1020036 0.3806859 0.9190612 -0.1020036 0.3806859 0.9190612 -0.1020036 0.3806859 0.9190612 -0.2786817 0.2786817 0.9190609 -0.2786817 0.2786817 0.9190609 -0.2786817 0.2786817 0.9190609 -0.2786817 0.2786817 0.9190609 -0.2786817 0.2786817 0.9190609 -0.2786817 0.2786817 0.9190609 -0.3806859 0.102004 0.9190611 -0.3806859 0.102004 0.9190611 -0.3806859 0.102004 0.9190611 -0.3806863 0.1020037 0.919061 -0.3806863 0.1020037 0.919061 -0.3806863 0.1020037 0.919061 -0.1304458 -0.0349526 0.9908391 -0.1304458 -0.0349526 0.9908391 -0.1304458 -0.0349526 0.9908391 1.0 0.0 0.0 1.0 0.0 0.0 -0.0954928 -0.0954928 0.9908392 -0.0954928 -0.0954928 0.9908392 -0.0954928 -0.0954928 0.9908392 1.0 0.0 0.0 1.0 0.0 0.0 -0.0349526 -0.1304458 0.9908391 -0.0349526 -0.1304458 0.9908391 -0.0349526 -0.1304458 0.9908391 1.0 0.0 0.0 1.0 0.0 0.0 0.0349526 -0.1304458 0.9908391 0.0349526 -0.1304458 0.9908391 0.0349526 -0.1304458 0.9908391 1.0 0.0 0.0 1.0 0.0 0.0 0.0954928 -0.0954928 0.9908392 0.0954928 -0.0954928 0.9908392 0.0954928 -0.0954928 0.9908392 1.0 0.0 0.0 1.0 0.0 0.0 0.1304458 -0.0349526 0.9908391 0.1304458 -0.0349526 0.9908391 0.1304458 -0.0349526 0.9908391 1.0 0.0 0.0 1.0 0.0 0.0 0.1304458 0.0349526 0.9908391 0.1304458 0.0349526 0.9908391 0.1304458 0.0349526 0.9908391 1.0 0.0 0.0 1.0 0.0 0.0 0.0954928 0.0954928 0.9908392 0.0954928 0.0954928 0.9908392 0.0954928 0.0954928 0.9908392 1.0 0.0 0.0 1.0 0.0 0.0 0.0349526 0.1304458 0.9908391 0.0349526 0.1304458 0.9908391 0.0349526 0.1304458 0.9908391 1.0 0.0 0.0 1.0 0.0 0.0 -0.0349526 0.1304458 0.9908391 -0.0349526 0.1304458 0.9908391 -0.0349526 0.1304458 0.9908391 1.0 0.0 0.0 1.0 0.0 0.0 -0.0954928 0.0954928 0.9908392 -0.0954928 0.0954928 0.9908392 -0.0954928 0.0954928 0.9908392 1.0 0.0 0.0 1.0 0.0 0.0 -0.1304458 0.0349526 0.9908391 -0.1304458 0.0349526 0.9908391 -0.1304458 0.0349526 0.9908391 1.0 0.0 0.0 1.0 0.0 0.0 1.0 0.0 0.0 1.0 0.0 0.0 -0.1304456 -0.0349525 -0.9908392 -0.1304456 -0.0349525 -0.9908392 -0.1304456 -0.0349525 -0.9908392 1.0 0.0 0.0 1.0 0.0 0.0 -0.0954926 -0.0954926 -0.9908392 -0.0954926 -0.0954926 -0.9908392 -0.0954926 -0.0954926 -0.9908392 1.0 0.0 0.0 1.0 0.0 0.0 -0.0349525 -0.1304456 -0.9908392 -0.0349525 -0.1304456 -0.9908392 -0.0349525 -0.1304456 -0.9908392 1.0 0.0 0.0 1.0 0.0 0.0 0.0349525 -0.1304456 -0.9908392 0.0349525 -0.1304456 -0.9908392 0.0349525 -0.1304456 -0.9908392 1.0 0.0 0.0 1.0 0.0 0.0 0.0954926 -0.0954926 -0.9908392 0.0954926 -0.0954926 -0.9908392 0.0954926 -0.0954926 -0.9908392 1.0 0.0 0.0 1.0 0.0 0.0 0.1304456 -0.0349525 -0.9908392 0.1304456 -0.0349525 -0.9908392 0.1304456 -0.0349525 -0.9908392 1.0 0.0 0.0 1.0 0.0 0.0 0.1304456 0.0349525 -0.9908392 0.1304456 0.0349525 -0.9908392 0.1304456 0.0349525 -0.9908392 1.0 0.0 0.0 1.0 0.0 0.0 0.0954926 0.0954926 -0.9908392 0.0954926 0.0954926 -0.9908392 0.0954926 0.0954926 -0.9908392 1.0 0.0 0.0 1.0 0.0 0.0 0.0349525 0.1304456 -0.9908392 0.0349525 0.1304456 -0.9908392 0.0349525 0.1304456 -0.9908392 1.0 0.0 0.0 1.0 0.0 0.0 -0.0349525 0.1304456 -0.9908392 -0.0349525 0.1304456 -0.9908392 -0.0349525 0.1304456 -0.9908392 1.0 0.0 0.0 1.0 0.0 0.0 -0.0954926 0.0954926 -0.9908392 -0.0954926 0.0954926 -0.9908392 -0.0954926 0.0954926 -0.9908392 1.0 0.0 0.0 1.0 0.0 0.0 -0.1304456 0.0349525 -0.9908392 -0.1304456 0.0349525 -0.9908392 -0.1304456 0.0349525 -0.9908392 -0.3806898 -0.1020047 -0.9190595 -0.3806898 -0.1020047 -0.9190595 -0.3806898 -0.1020047 -0.9190595 -0.3806894 -0.102005 -0.9190597 -0.3806894 -0.102005 -0.9190597 -0.3806894 -0.102005 -0.9190597 -0.2786842 -0.2786842 -0.9190594 -0.2786842 -0.2786842 -0.9190594 -0.2786842 -0.2786842 -0.9190594 -0.2786842 -0.2786842 -0.9190594 -0.2786842 -0.2786842 -0.9190594 -0.2786842 -0.2786842 -0.9190594 -0.1020046 -0.3806894 -0.9190596 -0.1020046 -0.3806894 -0.9190596 -0.1020046 -0.3806894 -0.9190596 -0.102005 -0.3806896 -0.9190595 -0.102005 -0.3806896 -0.9190595 -0.102005 -0.3806896 -0.9190595 0.1020047 -0.3806898 -0.9190595 0.1020047 -0.3806898 -0.9190595 0.1020047 -0.3806898 -0.9190595 0.102005 -0.3806894 -0.9190597 0.102005 -0.3806894 -0.9190597 0.102005 -0.3806894 -0.9190597 0.2786842 -0.2786842 -0.9190594 0.2786842 -0.2786842 -0.9190594 0.2786842 -0.2786842 -0.9190594 0.2786842 -0.2786842 -0.9190594 0.2786842 -0.2786842 -0.9190594 0.2786842 -0.2786842 -0.9190594 0.3806894 -0.1020046 -0.9190596 0.3806894 -0.1020046 -0.9190596 0.3806894 -0.1020046 -0.9190596 0.3806896 -0.102005 -0.9190595 0.3806896 -0.102005 -0.9190595 0.3806896 -0.102005 -0.9190595 0.3806898 0.1020047 -0.9190595 0.3806898 0.1020047 -0.9190595 0.3806898 0.1020047 -0.9190595 0.3806894 0.102005 -0.9190597 0.3806894 0.102005 -0.9190597 0.3806894 0.102005 -0.9190597 0.2786842 0.2786842 -0.9190594 0.2786842 0.2786842 -0.9190594 0.2786842 0.2786842 -0.9190594 0.2786842 0.2786842 -0.9190594 0.2786842 0.2786842 -0.9190594 0.2786842 0.2786842 -0.9190594 0.1020046 0.3806894 -0.9190596 0.1020046 0.3806894 -0.9190596 0.1020046 0.3806894 -0.9190596 0.102005 0.3806896 -0.9190595 0.102005 0.3806896 -0.9190595 0.102005 0.3806896 -0.9190595 -0.1020047 0.3806898 -0.9190595 -0.1020047 0.3806898 -0.9190595 -0.1020047 0.3806898 -0.9190595 -0.102005 0.3806894 -0.9190597 -0.102005 0.3806894 -0.9190597 -0.102005 0.3806894 -0.9190597 -0.2786842 0.2786842 -0.9190594 -0.2786842 0.2786842 -0.9190594 -0.2786842 0.2786842 -0.9190594 -0.2786842 0.2786842 -0.9190594 -0.2786842 0.2786842 -0.9190594 -0.2786842 0.2786842 -0.9190594 -0.3806894 0.1020046 -0.9190596 -0.3806894 0.1020046 -0.9190596 -0.3806894 0.1020046 -0.9190596 -0.3806896 0.102005 -0.9190595 -0.3806896 0.102005 -0.9190595 -0.3806896 0.102005 -0.9190595 -0.6008234 -0.1609894 -0.7830029 -0.6008234 -0.1609894 -0.7830029 -0.6008234 -0.1609894 -0.7830029 -0.6008211 -0.1609909 -0.7830045 -0.6008211 -0.1609909 -0.7830045 -0.6008211 -0.1609909 -0.7830045 -0.439833 -0.439833 -0.7830031 -0.439833 -0.439833 -0.7830031 -0.439833 -0.439833 -0.7830031 -0.439833 -0.439833 -0.7830031 -0.439833 -0.439833 -0.7830031 -0.439833 -0.439833 -0.7830031 -0.1609889 -0.6008213 -0.7830046 -0.1609889 -0.6008213 -0.7830046 -0.1609889 -0.6008213 -0.7830046 -0.1609913 -0.6008226 -0.7830032 -0.1609913 -0.6008226 -0.7830032 -0.1609913 -0.6008226 -0.7830032 0.1609894 -0.6008234 -0.7830029 0.1609894 -0.6008234 -0.7830029 0.1609894 -0.6008234 -0.7830029 0.1609909 -0.6008211 -0.7830045 0.1609909 -0.6008211 -0.7830045 0.1609909 -0.6008211 -0.7830045 0.439833 -0.439833 -0.7830031 0.439833 -0.439833 -0.7830031 0.439833 -0.439833 -0.7830031 0.439833 -0.439833 -0.7830031 0.439833 -0.439833 -0.7830031 0.439833 -0.439833 -0.7830031 0.6008213 -0.1609889 -0.7830046 0.6008213 -0.1609889 -0.7830046 0.6008213 -0.1609889 -0.7830046 0.6008226 -0.1609913 -0.7830032 0.6008226 -0.1609913 -0.7830032 0.6008226 -0.1609913 -0.7830032 0.6008234 0.1609894 -0.7830029 0.6008234 0.1609894 -0.7830029 0.6008234 0.1609894 -0.7830029 0.6008211 0.1609909 -0.7830045 0.6008211 0.1609909 -0.7830045 0.6008211 0.1609909 -0.7830045 0.439833 0.439833 -0.7830031 0.439833 0.439833 -0.7830031 0.439833 0.439833 -0.7830031 0.439833 0.439833 -0.7830031 0.439833 0.439833 -0.7830031 0.439833 0.439833 -0.7830031 0.1609889 0.6008213 -0.7830046 0.1609889 0.6008213 -0.7830046 0.1609889 0.6008213 -0.7830046 0.1609913 0.6008226 -0.7830032 0.1609913 0.6008226 -0.7830032 0.1609913 0.6008226 -0.7830032 -0.1609894 0.6008234 -0.7830029 -0.1609894 0.6008234 -0.7830029 -0.1609894 0.6008234 -0.7830029 -0.1609909 0.6008211 -0.7830045 -0.1609909 0.6008211 -0.7830045 -0.1609909 0.6008211 -0.7830045 -0.439833 0.439833 -0.7830031 -0.439833 0.439833 -0.7830031 -0.439833 0.439833 -0.7830031 -0.439833 0.439833 -0.7830031 -0.439833 0.439833 -0.7830031 -0.439833 0.439833 -0.7830031 -0.6008213 0.1609889 -0.7830046 -0.6008213 0.1609889 -0.7830046 -0.6008213 0.1609889 -0.7830046 -0.6008226 0.1609913 -0.7830032 -0.6008226 0.1609913 -0.7830032 -0.6008226 0.1609913 -0.7830032 -0.7760105 -0.2079331 -0.5954591 -0.7760105 -0.2079331 -0.5954591 -0.7760105 -0.2079331 -0.5954591 -0.7760135 -0.2079313 -0.5954559 -0.7760135 -0.2079313 -0.5954559 -0.7760135 -0.2079313 -0.5954559 -0.5680793 -0.5680793 -0.5954593 -0.5680793 -0.5680793 -0.5954593 -0.5680793 -0.5680793 -0.5954593 -0.5680792 -0.5680792 -0.5954593 -0.5680792 -0.5680792 -0.5954593 -0.5680792 -0.5680792 -0.5954593 -0.2079338 -0.776013 -0.5954555 -0.2079338 -0.776013 -0.5954555 -0.2079338 -0.776013 -0.5954555 -0.2079307 -0.7760113 -0.5954588 -0.2079307 -0.7760113 -0.5954588 -0.2079307 -0.7760113 -0.5954588 0.2079331 -0.7760105 -0.5954591 0.2079331 -0.7760105 -0.5954591 0.2079331 -0.7760105 -0.5954591 0.2079313 -0.7760135 -0.5954559 0.2079313 -0.7760135 -0.5954559 0.2079313 -0.7760135 -0.5954559 0.5680793 -0.5680793 -0.5954593 0.5680793 -0.5680793 -0.5954593 0.5680793 -0.5680793 -0.5954593 0.5680792 -0.5680792 -0.5954593 0.5680792 -0.5680792 -0.5954593 0.5680792 -0.5680792 -0.5954593 0.776013 -0.2079338 -0.5954555 0.776013 -0.2079338 -0.5954555 0.776013 -0.2079338 -0.5954555 0.7760113 -0.2079307 -0.5954588 0.7760113 -0.2079307 -0.5954588 0.7760113 -0.2079307 -0.5954588 0.7760105 0.2079331 -0.5954591 0.7760105 0.2079331 -0.5954591 0.7760105 0.2079331 -0.5954591 0.7760135 0.2079313 -0.5954559 0.7760135 0.2079313 -0.5954559 0.7760135 0.2079313 -0.5954559 0.5680793 0.5680793 -0.5954593 0.5680793 0.5680793 -0.5954593 0.5680793 0.5680793 -0.5954593 0.5680792 0.5680792 -0.5954593 0.5680792 0.5680792 -0.5954593 0.5680792 0.5680792 -0.5954593 0.2079338 0.776013 -0.5954555 0.2079338 0.776013 -0.5954555 0.2079338 0.776013 -0.5954555 0.2079307 0.7760113 -0.5954588 0.2079307 0.7760113 -0.5954588 0.2079307 0.7760113 -0.5954588 -0.2079331 0.7760105 -0.5954591 -0.2079331 0.7760105 -0.5954591 -0.2079331 0.7760105 -0.5954591 -0.2079313 0.7760135 -0.5954559 -0.2079313 0.7760135 -0.5954559 -0.2079313 0.7760135 -0.5954559 -0.5680793 0.5680793 -0.5954593 -0.5680793 0.5680793 -0.5954593 -0.5680793 0.5680793 -0.5954593 -0.5680792 0.5680792 -0.5954593 -0.5680792 0.5680792 -0.5954593 -0.5680792 0.5680792 -0.5954593 -0.776013 0.2079338 -0.5954555 -0.776013 0.2079338 -0.5954555 -0.776013 0.2079338 -0.5954555 -0.7760113 0.2079307 -0.5954588 -0.7760113 0.2079307 -0.5954588 -0.7760113 0.2079307 -0.5954588 -0.8968096 -0.2402984 -0.3714691 -0.8968096 -0.2402984 -0.3714691 -0.8968096 -0.2402984 -0.3714691 -0.8968079 -0.2402997 -0.3714721 -0.8968079 -0.2402997 -0.3714721 -0.8968079 -0.2402997 -0.3714721 -0.6565099 -0.6565099 -0.3714691 -0.6565099 -0.6565099 -0.3714691 -0.6565099 -0.6565099 -0.3714691 -0.6565099 -0.6565099 -0.3714692 -0.6565099 -0.6565099 -0.3714692 -0.6565099 -0.6565099 -0.3714692 -0.240298 -0.8968083 -0.3714723 -0.240298 -0.8968083 -0.3714723 -0.240298 -0.8968083 -0.3714723 -0.2403 -0.896809 -0.3714693 -0.2403 -0.896809 -0.3714693 -0.2403 -0.896809 -0.3714693 0.2402984 -0.8968096 -0.3714691 0.2402984 -0.8968096 -0.3714691 0.2402984 -0.8968096 -0.3714691 0.2402997 -0.8968079 -0.3714721 0.2402997 -0.8968079 -0.3714721 0.2402997 -0.8968079 -0.3714721 0.6565099 -0.6565099 -0.3714691 0.6565099 -0.6565099 -0.3714691 0.6565099 -0.6565099 -0.3714691 0.6565099 -0.6565099 -0.3714692 0.6565099 -0.6565099 -0.3714692 0.6565099 -0.6565099 -0.3714692 0.8968083 -0.240298 -0.3714723 0.8968083 -0.240298 -0.3714723 0.8968083 -0.240298 -0.3714723 0.896809 -0.2403 -0.3714693 0.896809 -0.2403 -0.3714693 0.896809 -0.2403 -0.3714693 0.8968096 0.2402984 -0.3714691 0.8968096 0.2402984 -0.3714691 0.8968096 0.2402984 -0.3714691 0.8968079 0.2402997 -0.3714721 0.8968079 0.2402997 -0.3714721 0.8968079 0.2402997 -0.3714721 0.6565099 0.6565099 -0.3714691 0.6565099 0.6565099 -0.3714691 0.6565099 0.6565099 -0.3714691 0.6565099 0.6565099 -0.3714692 0.6565099 0.6565099 -0.3714692 0.6565099 0.6565099 -0.3714692 0.240298 0.8968083 -0.3714723 0.240298 0.8968083 -0.3714723 0.240298 0.8968083 -0.3714723 0.2403 0.896809 -0.3714693 0.2403 0.896809 -0.3714693 0.2403 0.896809 -0.3714693 -0.2402984 0.8968096 -0.3714691 -0.2402984 0.8968096 -0.3714691 -0.2402984 0.8968096 -0.3714691 -0.2402997 0.8968079 -0.3714721 -0.2402997 0.8968079 -0.3714721 -0.2402997 0.8968079 -0.3714721 -0.6565099 0.6565099 -0.3714691 -0.6565099 0.6565099 -0.3714691 -0.6565099 0.6565099 -0.3714691 -0.6565099 0.6565099 -0.3714692 -0.6565099 0.6565099 -0.3714692 -0.6565099 0.6565099 -0.3714692 -0.8968083 0.240298 -0.3714723 -0.8968083 0.240298 -0.3714723 -0.8968083 0.240298 -0.3714723 -0.896809 0.2403 -0.3714693 -0.896809 0.2403 -0.3714693 -0.896809 0.2403 -0.3714693 -0.958209 -0.2567522 -0.12615 -0.958209 -0.2567522 -0.12615 -0.958209 -0.2567522 -0.12615 -0.958209 -0.2567522 -0.12615 -0.958209 -0.2567522 -0.12615 -0.958209 -0.2567522 -0.12615 -0.7014578 -0.7014578 -0.12615 -0.7014578 -0.7014578 -0.12615 -0.7014578 -0.7014578 -0.12615 -0.7014578 -0.7014578 -0.12615 -0.7014578 -0.7014578 -0.12615 -0.7014578 -0.7014578 -0.12615 -0.2567522 -0.958209 -0.12615 -0.2567522 -0.958209 -0.12615 -0.2567522 -0.958209 -0.12615 -0.2567522 -0.958209 -0.12615 -0.2567522 -0.958209 -0.12615 -0.2567522 -0.958209 -0.12615 0.2567522 -0.958209 -0.12615 0.2567522 -0.958209 -0.12615 0.2567522 -0.958209 -0.12615 0.2567522 -0.958209 -0.12615 0.2567522 -0.958209 -0.12615 0.2567522 -0.958209 -0.12615 0.7014578 -0.7014578 -0.12615 0.7014578 -0.7014578 -0.12615 0.7014578 -0.7014578 -0.12615 0.7014578 -0.7014578 -0.12615 0.7014578 -0.7014578 -0.12615 0.7014578 -0.7014578 -0.12615 0.958209 -0.2567522 -0.12615 0.958209 -0.2567522 -0.12615 0.958209 -0.2567522 -0.12615 0.958209 -0.2567522 -0.12615 0.958209 -0.2567522 -0.12615 0.958209 -0.2567522 -0.12615 0.958209 0.2567522 -0.12615 0.958209 0.2567522 -0.12615 0.958209 0.2567522 -0.12615 0.958209 0.2567522 -0.12615 0.958209 0.2567522 -0.12615 0.958209 0.2567522 -0.12615 0.7014578 0.7014578 -0.12615 0.7014578 0.7014578 -0.12615 0.7014578 0.7014578 -0.12615 0.7014578 0.7014578 -0.12615 0.7014578 0.7014578 -0.12615 0.7014578 0.7014578 -0.12615 0.2567522 0.958209 -0.12615 0.2567522 0.958209 -0.12615 0.2567522 0.958209 -0.12615 0.2567522 0.958209 -0.12615 0.2567522 0.958209 -0.12615 0.2567522 0.958209 -0.12615 -0.2567522 0.958209 -0.12615 -0.2567522 0.958209 -0.12615 -0.2567522 0.958209 -0.12615 -0.2567522 0.958209 -0.12615 -0.2567522 0.958209 -0.12615 -0.2567522 0.958209 -0.12615 -0.7014578 0.7014578 -0.12615 -0.7014578 0.7014578 -0.12615 -0.7014578 0.7014578 -0.12615 -0.7014578 0.7014578 -0.12615 -0.7014578 0.7014578 -0.12615 -0.7014578 0.7014578 -0.12615 -0.958209 0.2567522 -0.12615 -0.958209 0.2567522 -0.12615 -0.958209 0.2567522 -0.12615 -0.958209 0.2567522 -0.12615 -0.958209 0.2567522 -0.12615 -0.958209 0.2567522 -0.12615 -0.958209 -0.2567522 0.1261501 -0.958209 -0.2567522 0.1261501 -0.958209 -0.2567522 0.1261501 -0.958209 -0.2567522 0.12615 -0.958209 -0.2567522 0.12615 -0.958209 -0.2567522 0.12615 -0.7014578 -0.7014578 0.12615 -0.7014578 -0.7014578 0.12615 -0.7014578 -0.7014578 0.12615 -0.7014578 -0.7014578 0.12615 -0.7014578 -0.7014578 0.12615 -0.7014578 -0.7014578 0.12615</float_array>
                    <technique_common>
                        <accessor count="840" source="#geometry0-normal-array" stride="3">
                            <param name="X" type="float"/>
                            <param name="Y" type="float"/>
                            <param name="Z" type="float"/>
                        </accessor>
                    </technique_common>
                </source>
                <vertices id="geometry0-vertex">
                    <input semantic="POSITION" source="#geometry0-position"/>
                </vertices>
                <triangles count="288" material="default_ai_0.2_sh_0.2_tr_0.0_dc_r_0.8_g_0.8_b_0.8_sc_r_1.0_g_1.0_b_1.0_ec_r_0.0_g_0.0_b_0_tri">
                    <input offset="0" semantic="VERTEX" source="#geometry0-vertex"/>
                    <input offset="1" semantic="NORMAL" source="#geometry0-normal"/>
                    <p>63 0 64 1 76 2 63 3 76 4 75 5 64 6 65 7 77 8 64 9 77 10 76 11 65 12 66 13 78 14 65 15 78 16 77 17 66 18 67 19 79 20 66 21 79 22 78 23 67 24 68 25 80 26 67 27 80 28 79 29 68 30 69 31 81 32 68 33 81 34 80 35 69 36 70 37 82 38 69 39 82 40 81 41 70 42 71 43 83 44 70 45 83 46 82 47 71 48 72 49 84 50 71 51 84 52 83 53 72 54 62 55 74 56 72 57 74 58 84 59 74 60 73 61 85 62 74 63 85 64 86 65 73 66 75 67 87 68 73 69 87 70 85 71 75 72 76 73 88 74 75 75 88 76 87 77 76 78 77 79 89 80 76 81 89 82 88 83 77 84 78 85 90 86 77 87 90 88 89 89 78 90 79 91 91 92 78 93 91 94 90 95 79 96 80 97 92 98 79 99 92 100 91 101 80 102 81 103 93 104 80 105 93 106 92 107 81 108 82 109 94 110 81 111 94 112 93 113 82 114 83 115 95 116 82 117 95 118 94 119 83 120 84 121 96 122 83 123 96 124 95 125 84 126 74 127 86 128 84 129 86 130 96 131 86 132 85 133 97 134 86 135 97 136 98 137 85 138 87 139 99 140 85 141 99 142 97 143 87 144 88 145 100 146 87 147 100 148 99 149 88 150 89 151 101 152 88 153 101 154 100 155 89 156 90 157 102 158 89 159 102 160 101 161 90 162 91 163 103 164 90 165 103 166 102 167 91 168 92 169 104 170 91 171 104 172 103 173 92 174 93 175 105 176 92 177 105 178 104 179 93 180 94 181 106 182 93 183 106 184 105 185 94 186 95 187 107 188 94 189 107 190 106 191 95 192 96 193 108 194 95 195 108 196 107 197 96 198 86 199 98 200 96 201 98 202 108 203 98 204 97 205 109 206 98 207 109 208 110 209 97 210 99 211 111 212 97 213 111 214 109 215 99 216 100 217 112 218 99 219 112 220 111 221 100 222 101 223 113 224 100 225 113 226 112 227 101 228 102 229 114 230 101 231 114 232 113 233 102 234 103 235 115 236 102 237 115 238 114 239 103 240 104 241 116 242 103 243 116 244 115 245 104 246 105 247 117 248 104 249 117 250 116 251 105 252 106 253 118 254 105 255 118 256 117 257 106 258 107 259 119 260 106 261 119 262 118 263 107 264 108 265 120 266 107 267 120 268 119 269 108 270 98 271 110 272 108 273 110 274 120 275 110 276 109 277 121 278 110 279 121 280 122 281 109 282 111 283 123 284 109 285 123 286 121 287 111 288 112 289 124 290 111 291 124 292 123 293 112 294 113 295 125 296 112 297 125 298 124 299 113 300 114 301 126 302 113 303 126 304 125 305 114 306 115 307 127 308 114 309 127 310 126 311 115 312 116 313 128 314 115 315 128 316 127 317 116 318 117 319 129 320 116 321 129 322 128 323 117 324 118 325 130 326 117 327 130 328 129 329 118 330 119 331 131 332 118 333 131 334 130 335 119 336 120 337 132 338 119 339 132 340 131 341 120 342 110 343 122 344 120 345 122 346 132 347 122 348 121 349 133 350 122 351 133 352 133 352 121 353 123 354 133 355 121 356 133 357 133 357 123 358 124 359 133 360 123 361 133 362 133 362 124 363 125 364 133 365 124 366 133 367 133 367 125 368 126 369 133 370 125 371 133 372 133 372 126 373 127 374 133 375 126 376 133 377 133 377 127 378 128 379 133 380 127 381 133 382 133 382 128 383 129 384 133 385 128 386 133 387 133 387 129 388 130 389 133 390 129 391 133 392 133 392 130 393 131 394 133 395 130 396 133 397 133 397 131 398 132 399 133 400 131 401 133 402 133 402 132 403 122 404 133 405 132 406 133 407 133 407 0 408 0 408 1 409 0 410 1 411 2 412 0 413 0 413 3 414 0 415 3 416 1 417 0 418 0 418 4 419 0 420 4 421 3 422 0 423 0 423 5 424 0 425 5 426 4 427 0 428 0 428 6 429 0 430 6 431 5 432 0 433 0 433 7 434 0 435 7 436 6 437 0 438 0 438 8 439 0 440 8 441 7 442 0 443 0 443 9 444 0 445 9 446 8 447 0 448 0 448 10 449 0 450 10 451 9 452 0 453 0 453 11 454 0 455 11 456 10 457 0 458 0 458 12 459 0 460 12 461 11 462 0 463 0 463 2 464 0 465 2 466 12 467 2 468 1 469 13 470 2 471 13 472 14 473 1 474 3 475 15 476 1 477 15 478 13 479 3 480 4 481 16 482 3 483 16 484 15 485 4 486 5 487 17 488 4 489 17 490 16 491 5 492 6 493 18 494 5 495 18 496 17 497 6 498 7 499 19 500 6 501 19 502 18 503 7 504 8 505 20 506 7 507 20 508 19 509 8 510 9 511 21 512 8 513 21 514 20 515 9 516 10 517 22 518 9 519 22 520 21 521 10 522 11 523 23 524 10 525 23 526 22 527 11 528 12 529 24 530 11 531 24 532 23 533 12 534 2 535 14 536 12 537 14 538 24 539 14 540 13 541 25 542 14 543 25 544 26 545 13 546 15 547 27 548 13 549 27 550 25 551 15 552 16 553 28 554 15 555 28 556 27 557 16 558 17 559 29 560 16 561 29 562 28 563 17 564 18 565 30 566 17 567 30 568 29 569 18 570 19 571 31 572 18 573 31 574 30 575 19 576 20 577 32 578 19 579 32 580 31 581 20 582 21 583 33 584 20 585 33 586 32 587 21 588 22 589 34 590 21 591 34 592 33 593 22 594 23 595 35 596 22 597 35 598 34 599 23 600 24 601 36 602 23 603 36 604 35 605 24 606 14 607 26 608 24 609 26 610 36 611 26 612 25 613 37 614 26 615 37 616 38 617 25 618 27 619 39 620 25 621 39 622 37 623 27 624 28 625 40 626 27 627 40 628 39 629 28 630 29 631 41 632 28 633 41 634 40 635 29 636 30 637 42 638 29 639 42 640 41 641 30 642 31 643 43 644 30 645 43 646 42 647 31 648 32 649 44 650 31 651 44 652 43 653 32 654 33 655 45 656 32 657 45 658 44 659 33 660 34 661 46 662 33 663 46 664 45 665 34 666 35 667 47 668 34 669 47 670 46 671 35 672 36 673 48 674 35 675 48 676 47 677 36 678 26 679 38 680 36 681 38 682 48 683 38 684 37 685 49 686 38 687 49 688 50 689 37 690 39 691 51 692 37 693 51 694 49 695 39 696 40 697 52 698 39 699 52 700 51 701 40 702 41 703 53 704 40 705 53 706 52 707 41 708 42 709 54 710 41 711 54 712 53 713 42 714 43 715 55 716 42 717 55 718 54 719 43 720 44 721 56 722 43 723 56 724 55 725 44 726 45 727 57 728 44 729 57 730 56 731 45 732 46 733 58 734 45 735 58 736 57 737 46 738 47 739 59 740 46 741 59 742 58 743 47 744 48 745 60 746 47 747 60 748 59 749 48 750 38 751 50 752 48 753 50 754 60 755 50 756 49 757 61 758 50 759 61 760 62 761 49 762 51 763 63 764 49 765 63 766 61 767 51 768 52 769 64 770 51 771 64 772 63 773 52 774 53 775 65 776 52 777 65 778 64 779 53 780 54 781 66 782 53 783 66 784 65 785 54 786 55 787 67 788 54 789 67 790 66 791 55 792 56 793 68 794 55 795 68 796 67 797 56 798 57 799 69 800 56 801 69 802 68 803 57 804 58 805 70 806 57 807 70 808 69 809 58 810 59 811 71 812 58 813 71 814 70 815 59 816 60 817 72 818 59 819 72 820 71 821 60 822 50 823 62 824 60 825 62 826 72 827 62 828 61 829 73 830 62 831 73 832 74 833 61 834 63 835 75 836 61 837 75 838 73 839</p>
                </triangles>
            </mesh>
        </geometry>
    </library_geometries>
    <library_visual_scenes>
        <visual_scene id="Building_325_CROWN1">
            <node>
                <instance_geometry url="#geometry0">
                    <bind_material>
                        <technique_common>
                            <instance_material symbol="default_ai_0.2_sh_0.2_tr_0.0_dc_r_0.8_g_0.8_b_0.8_sc_r_1.0_g_1.0_b_1.0_ec_r_0.0_g_0.0_b_0_tri" target="#default_ai_0.2_sh_0.2_tr_0.0_dc_r_0.8_g_0.8_b_0.8_sc_r_1.0_g_1.0_b_1.0_ec_r_0.0_g_0.0_b_0_mat"/>
                        </technique_common>
                    </bind_material>
                </instance_geometry>
            </node>
        </visual_scene>
    </library_visual_scenes>
    <scene>
        <instance_visual_scene url="#Building_325_CROWN1"/>
    </scene>
</COLLADA>
