<?xml version="1.0" encoding="UTF-8" standalone="yes"?>
<COLLADA xmlns="http://www.collada.org/2005/11/COLLADASchema" version="1.4.1">
    <asset>
        <contributor>
            <authoring_tool>3D City Database Importer/Exporter, version 5.5.3; Chair of Geoinformatics, Technical University of Munich</authoring_tool>
        </contributor>
        <created>2026-09-25T14:45:30.865</created>
        <modified>2026-09-25T14:45:30.865</modified>
        <unit meter="1.0" name="meters"/>
        <up_axis>Z_UP</up_axis>
    </asset>
    <library_materials>
        <material id="default_ai_0.2_sh_0.2_tr_0.0_dc_r_0.8_g_0.8_b_0.8_sc_r_1.0_g_1.0_b_1.0_ec_r_0.0_g_0.0_b_0_mat">
            <instance_effect url="#default_ai_0.2_sh_0.2_tr_0.0_dc_r_0.8_g_0.8_b_0.8_sc_r_1.0_g_1.0_b_1.0_ec_r_0.0_g_0.0_b_0_eff"/>
        </material>
    </library_materials>
    <library_effects>
        <effect id="default_ai_0.2_sh_0.2_tr_0.0_dc_r_0.8_g_0.8_b_0.8_sc_r_1.0_g_1.0_b_1.0_ec_r_0.0_g_0.0_b_0_eff">
            <profile_COMMON>
                <technique sid="COMMON">
                    <lambert>
                        <emission>
                            <color>0.0 0.0 0.0 1.0</color>
                        </emission>
                        <diffuse>
                            <color>0.8 0.8 0.8 1.0</color>
                        </diffuse>
                        <reflective>
                            <color>1.0 1.0 1.0 1.0</color>
                        </reflective>
                        <reflectivity>
                            <float>0.2</float>
                        </reflectivity>
                        <transparent opaque="A_ONE">
                            <color>1.0 1.0 1.0 1.0</color>
                        </transparent>
                        <transparency>
                            <float>1.0</float>
                        </transparency>
                    </lambert>
                </technique>
                <extra>
                    <technique profile="GOOGLEEARTH">
                        <double_sided>0</double_sided>
                    </technique>
                </extra>
            </profile_COMMON>
        </effect>
    </library_effects>
    <library_geometries>
        <geometry id="geometry0">
            <mesh>
                <source id="geometry0-position">
                    <float_array id="geometry0-position-array" count="402">0.0 0.0 2.4 0.2689728 0.155292 2.3591112 0.3105828 0.0 2.3591112 0.155292 0.2689728 2.3591112 0.0 0.3105828 2.3591112 -0.155292 0.2689728 2.3591112 -0.2689728 0.155292 2.3591112 -0.3105828 0.0 2.3591112 -0.2689728 -0.155292 2.3591112 -0.155292 -0.2689728 2.3591112 0.0 -0.3105828 2.3591112 0.155292 -0.2689728 2.3591112 0.2689728 -0.155292 2.3591112 0.5196156 0.3 2.23923 0.6 0.0 2.23923 0.3 0.5196156 2.23923 0.0 0.6 2.23923 -0.3 0.5196156 2.23923 -0.5196156 0.3 2.23923 -0.6 0.0 2.23923 -0.5196156 -0.3 2.23923 -0.3 -0.5196156 2.23923 0.0 -0.6 2.23923 0.3 -0.5196156 2.23923 0.5196156 -0.3 2.23923 0.7348464 0.4242636 2.0485284 0.8485284 0.0 2.0485284 0.4242636 0.7348464 2.0485284 0.0 0.8485284 2.0485284 -0.4242636 0.7348464 2.0485284 -0.7348464 0.4242636 2.0485284 -0.8485284 0.0 2.0485284 -0.7348464 -0.4242636 2.0485284 -0.4242636 -0.7348464 2.0485284 0.0 -0.8485284 2.0485284 0.4242636 -0.7348464 2.0485284 0.7348464 -0.4242636 2.0485284 0.9 0.5196156 1.8 1.03923 0.0 1.8 0.5196156 0.9 1.8 0.0 1.03923 1.8 -0.5196156 0.9 1.8 -0.9 0.5196156 1.8 -1.03923 0.0 1.8 -0.9 -0.5196156 1.8 -0.5196156 -0.9 1.8 0.0 -1.03923 1.8 0.5196156 -0.9 1.8 0.9 -0.5196156 1.8 1.0038192 0.5795556 1.5105828 1.1591112 0.0 1.5105828 0.5795556 1.0038192 1.5105828 0.0 1.1591112 1.5105828 -0.5795556 1.0038192 1.5105828 -1.0038192 0.5795556 1.5105828 -1.1591112 0.0 1.5105828 -1.0038192 -0.5795556 1.5105828 -0.5795556 -1.0038192 1.5105828 0.0 -1.1591112 1.5105828 0.5795556 -1.0038192 1.5105828 1.0038192 -0.5795556 1.5105828 1.03923 0.6 1.2 1.2 0.0 1.2 0.6 1.03923 1.2 0.0 1.2 1.2 -0.6 1.03923 1.2 -1.03923 0.6 1.2 -1.2 0.0 1.2 -1.03923 -0.6 1.2 -0.6 -1.03923 1.2 0.0 -1.2 1.2 0.6 -1.03923 1.2 1.03923 -0.6 1.2 1.0038192 0.5795556 0.8894172 1.1591112 0.0 0.8894172 0.5795556 1.0038192 0.8894172 0.0 1.1591112 0.8894172 -0.5795556 1.0038192 0.8894172 -1.0038192 0.5795556 0.8894172 -1.1591112 0.0 0.8894172 -1.0038192 -0.5795556 0.8894172 -0.5795556 -1.0038192 0.8894172 0.0 -1.1591112 0.8894172 0.5795556 -1.0038192 0.8894172 1.0038192 -0.5795556 0.8894172 0.9 0.5196156 0.6 1.03923 0.0 0.6 0.5196156 0.9 0.6 0.0 1.03923 0.6 -0.5196156 0.9 0.6 -0.9 0.5196156 0.6 -1.03923 0.0 0.6 -0.9 -0.5196156 0.6 -0.5196156 -0.9 0.6 0.0 -1.03923 0.6 0.5196156 -0.9 0.6 0.9 -0.5196156 0.6 0.7348464 0.4242636 0.3514716 0.8485284 0.0 0.3514716 0.4242636 0.7348464 0.3514716 0.0 0.8485284 0.3514716 -0.4242636 0.7348464 0.3514716 -0.7348464 0.4242636 0.3514716 -0.8485284 0.0 0.3514716 -0.7348464 -0.4242636 0.3514716 -0.4242636 -0.7348464 0.3514716 0.0 -0.8485284 0.3514716 0.4242636 -0.7348464 0.3514716 0.7348464 -0.4242636 0.3514716 0.5196156 0.3 0.16077 0.6 0.0 0.16077 0.3 0.5196156 0.16077 0.0 0.6 0.16077 -0.3 0.5196156 0.16077 -0.5196156 0.3 0.16077 -0.6 0.0 0.16077 -0.5196156 -0.3 0.16077 -0.3 -0.5196156 0.16077 0.0 -0.6 0.16077 0.3 -0.5196156 0.16077 0.5196156 -0.3 0.16077 0.2689728 0.155292 0.0408888 0.3105828 0.0 0.0408888 0.155292 0.2689728 0.0408888 0.0 0.3105828 0.0408888 -0.155292 0.2689728 0.0408888 -0.2689728 0.155292 0.0408888 -0.3105828 0.0 0.0408888 -0.2689728 -0.155292 0.0408888 -0.155292 -0.2689728 0.0408888 0.0 -0.3105828 0.0408888 0.155292 -0.2689728 0.0408888 0.2689728 -0.155292 0.0408888 0.0 0.0 0.0</float_array>
                    <technique_common>
                        <accessor count="134" source="#geometry0-position-array" stride="3">
                            <param name="X" type="float"/>
                            <param name="Y" type="float"/>
                            <param name="Z" type="float"/>
                        </accessor>
                    </technique_common>
                </source>
                <source id="geometry0-normal">
                    <float_array id="geometry0-normal-array" count="2520">0.6565099 -0.6565099 0.3714692 0.6565099 -0.6565099 0.3714692 0.6565099 -0.6565099 0.3714692 0.6565099 -0.6565099 0.3714692 0.6565099 -0.6565099 0.3714692 0.6565099 -0.6565099 0.3714692 0.896808 -0.2402997 0.371472 0.896808 -0.2402997 0.371472 0.896808 -0.2402997 0.371472 0.8968095 -0.2402984 0.3714693 0.8968095 -0.2402984 0.3714693 0.8968095 -0.2402984 0.3714693 0.896809 0.2403 0.3714694 0.896809 0.2403 0.3714694 0.896809 0.2403 0.3714694 0.8968083 0.2402981 0.3714722 0.8968083 0.2402981 0.3714722 0.8968083 0.2402981 0.3714722 0.6565099 0.6565099 0.3714692 0.6565099 0.6565099 0.3714692 0.6565099 0.6565099 0.3714692 0.6565099 0.6565099 0.3714692 0.6565099 0.6565099 0.3714692 0.6565099 0.6565099 0.3714692 0.2402997 0.896808 0.371472 0.2402997 0.896808 0.371472 0.2402997 0.896808 0.371472 0.2402984 0.8968095 0.3714693 0.2402984 0.8968095 0.3714693 0.2402984 0.8968095 0.3714693 -0.2403 0.896809 0.3714694 -0.2403 0.896809 0.3714694 -0.2403 0.896809 0.3714694 -0.2402981 0.8968083 0.3714722 -0.2402981 0.8968083 0.3714722 -0.2402981 0.8968083 0.3714722 -0.6565099 0.6565099 0.3714692 -0.6565099 0.6565099 0.3714692 -0.6565099 0.6565099 0.3714692 -0.6565099 0.6565099 0.3714692 -0.6565099 0.6565099 0.3714692 -0.6565099 0.6565099 0.3714692 -0.896808 0.2402997 0.371472 -0.896808 0.2402997 0.371472 -0.896808 0.2402997 0.371472 -0.8968095 0.2402984 0.3714693 -0.8968095 0.2402984 0.3714693 -0.8968095 0.2402984 0.3714693 -0.7760128 -0.2079312 0.5954568 -0.7760128 -0.2079312 0.5954568 -0.7760128 -0.2079312 0.5954568 -0.7760144 -0.207934 0.5954537 -0.7760144 -0.207934 0.5954537 -0.7760144 -0.207934 0.5954537 -0.5680803 -0.5680803 0.5954573 -0.5680803 -0.5680803 0.5954573 -0.5680803 -0.5680803 0.5954573 -0.5680803 -0.5680803 0.5954574 -0.5680803 -0.5680803 0.5954574 -0.5680803 -0.5680803 0.5954574 -0.2079317 -0.7760147 0.595454 -0.2079317 -0.7760147 0.595454 -0.2079317 -0.7760147 0.595454 -0.2079334 -0.7760119 0.5954571 -0.2079334 -0.7760119 0.5954571 -0.2079334 -0.7760119 0.5954571 0.2079312 -0.7760128 0.5954568 0.2079312 -0.7760128 0.5954568 0.2079312 -0.7760128 0.5954568 0.207934 -0.7760144 0.5954537 0.207934 -0.7760144 0.5954537 0.207934 -0.7760144 0.5954537 0.5680803 -0.5680803 0.5954573 0.5680803 -0.5680803 0.5954573 0.5680803 -0.5680803 0.5954573 0.5680803 -0.5680803 0.5954574 0.5680803 -0.5680803 0.5954574 0.5680803 -0.5680803 0.5954574 0.7760147 -0.2079317 0.595454 0.7760147 -0.2079317 0.595454 0.7760147 -0.2079317 0.595454 0.7760119 -0.2079334 0.5954571 0.7760119 -0.2079334 0.5954571 0.7760119 -0.2079334 0.5954571 0.7760128 0.2079312 0.5954568 0.7760128 0.2079312 0.5954568 0.7760128 0.2079312 0.5954568 0.7760144 0.207934 0.5954537 0.7760144 0.207934 0.5954537 0.7760144 0.207934 0.5954537 0.5680803 0.5680803 0.5954573 0.5680803 0.5680803 0.5954573 0.5680803 0.5680803 0.5954573 0.5680803 0.5680803 0.5954574 0.5680803 0.5680803 0.5954574 0.5680803 0.5680803 0.5954574 0.2079317 0.7760147 0.595454 0.2079317 0.7760147 0.595454 0.2079317 0.7760147 0.595454 0.2079334 0.7760119 0.5954571 0.2079334 0.7760119 0.5954571 0.2079334 0.7760119 0.5954571 -0.2079312 0.7760128 0.5954568 -0.2079312 0.7760128 0.5954568 -0.2079312 0.7760128 0.5954568 -0.207934 0.7760144 0.5954537 -0.207934 0.7760144 0.5954537 -0.207934 0.7760144 0.5954537 -0.5680803 0.5680803 0.5954573 -0.5680803 0.5680803 0.5954573 -0.5680803 0.5680803 0.5954573 -0.5680803 0.5680803 0.5954574 -0.5680803 0.5680803 0.5954574 -0.5680803 0.5680803 0.5954574 -0.7760147 0.2079317 0.595454 -0.7760147 0.2079317 0.595454 -0.7760147 0.2079317 0.595454 -0.7760119 0.2079334 0.5954571 -0.7760119 0.2079334 0.5954571 -0.7760119 0.2079334 0.5954571 -0.6008203 -0.1609906 0.7830051 -0.6008203 -0.1609906 0.7830051 -0.6008203 -0.1609906 0.7830051 -0.6008191 -0.1609883 0.7830065 -0.6008191 -0.1609883 0.7830065 -0.6008191 -0.1609883 0.7830065 -0.4398314 -0.4398314 0.7830049 -0.4398314 -0.4398314 0.7830049 -0.4398314 -0.4398314 0.7830049 -0.4398313 -0.4398313 0.7830049 -0.4398313 -0.4398313 0.7830049 -0.4398313 -0.4398313 0.7830049 -0.1609902 -0.6008189 0.7830063 -0.1609902 -0.6008189 0.7830063 -0.1609902 -0.6008189 0.7830063 -0.1609889 -0.6008211 0.7830049 -0.1609889 -0.6008211 0.7830049 -0.1609889 -0.6008211 0.7830049 0.1609906 -0.6008203 0.7830051 0.1609906 -0.6008203 0.7830051 0.1609906 -0.6008203 0.7830051 0.1609883 -0.6008191 0.7830065 0.1609883 -0.6008191 0.7830065 0.1609883 -0.6008191 0.7830065 0.4398314 -0.4398314 0.7830049 0.4398314 -0.4398314 0.7830049 0.4398314 -0.4398314 0.7830049 0.4398313 -0.4398313 0.7830049 0.4398313 -0.4398313 0.7830049 0.4398313 -0.4398313 0.7830049 0.6008189 -0.1609902 0.7830063 0.6008189 -0.1609902 0.7830063 0.6008189 -0.1609902 0.7830063 0.6008211 -0.1609889 0.7830049 0.6008211 -0.1609889 0.7830049 0.6008211 -0.1609889 0.7830049 0.6008203 0.1609906 0.7830051 0.6008203 0.1609906 0.7830051 0.6008203 0.1609906 0.7830051 0.6008191 0.1609883 0.7830065 0.6008191 0.1609883 0.7830065 0.6008191 0.1609883 0.7830065 0.4398314 0.4398314 0.7830049 0.4398314 0.4398314 0.7830049 0.4398314 0.4398314 0.7830049 0.4398313 0.4398313 0.7830049 0.4398313 0.4398313 0.7830049 0.4398313 0.4398313 0.7830049 0.1609902 0.6008189 0.7830063 0.1609902 0.6008189 0.7830063 0.1609902 0.6008189 0.7830063 0.1609889 0.6008211 0.7830049 0.1609889 0.6008211 0.7830049 0.1609889 0.6008211 0.7830049 -0.1609906 0.6008203 0.7830051 -0.1609906 0.6008203 0.7830051 -0.1609906 0.6008203 0.7830051 -0.1609883 0.6008191 0.7830065 -0.1609883 0.6008191 0.7830065 -0.1609883 0.6008191 0.7830065 -0.4398314 0.4398314 0.7830049 -0.4398314 0.4398314 0.7830049 -0.4398314 0.4398314 0.7830049 -0.4398313 0.4398313 0.7830049 -0.4398313 0.4398313 0.7830049 -0.4398313 0.4398313 0.7830049 -0.6008189 0.1609902 0.7830063 -0.6008189 0.1609902 0.7830063 -0.6008189 0.1609902 0.7830063 -0.6008211 0.1609889 0.7830049 -0.6008211 0.1609889 0.7830049 -0.6008211 0.1609889 0.7830049 -0.3806893 -0.102005 0.9190596 -0.3806893 -0.102005 0.9190596 -0.3806893 -0.102005 0.9190596 -0.3806891 -0.1020044 0.9190598 -0.3806891 -0.1020044 0.9190598 -0.3806891 -0.1020044 0.9190598 -0.2786841 -0.2786841 0.9190596 -0.2786841 -0.2786841 0.9190596 -0.2786841 -0.2786841 0.9190596 -0.278684 -0.278684 0.9190596 -0.278684 -0.278684 0.9190596 -0.278684 -0.278684 0.9190596 -0.1020049 -0.3806891 0.9190598 -0.1020049 -0.3806891 0.9190598 -0.1020049 -0.3806891 0.9190598 -0.1020045 -0.3806896 0.9190596 -0.1020045 -0.3806896 0.9190596 -0.1020045 -0.3806896 0.9190596 0.102005 -0.3806893 0.9190596 0.102005 -0.3806893 0.9190596 0.102005 -0.3806893 0.9190596 0.1020044 -0.3806891 0.9190598 0.1020044 -0.3806891 0.9190598 0.1020044 -0.3806891 0.9190598 0.2786841 -0.2786841 0.9190596 0.2786841 -0.2786841 0.9190596 0.2786841 -0.2786841 0.9190596 0.278684 -0.278684 0.9190596 0.278684 -0.278684 0.9190596 0.278684 -0.278684 0.9190596 0.3806891 -0.1020049 0.9190598 0.3806891 -0.1020049 0.9190598 0.3806891 -0.1020049 0.9190598 0.3806896 -0.1020045 0.9190596 0.3806896 -0.1020045 0.9190596 0.3806896 -0.1020045 0.9190596 0.3806893 0.102005 0.9190596 0.3806893 0.102005 0.9190596 0.3806893 0.102005 0.9190596 0.3806891 0.1020044 0.9190598 0.3806891 0.1020044 0.9190598 0.3806891 0.1020044 0.9190598 0.2786841 0.2786841 0.9190596 0.2786841 0.2786841 0.9190596 0.2786841 0.2786841 0.9190596 0.278684 0.278684 0.9190596 0.278684 0.278684 0.9190596 0.278684 0.278684 0.9190596 0.1020049 0.3806891 0.9190598 0.1020049 0.3806891 0.9190598 0.1020049 0.3806891 0.9190598 0.1020045 0.3806896 0.9190596 0.1020045 0.3806896 0.9190596 0.1020045 0.3806896 0.9190596 -0.102005 0.3806893 0.9190596 -0.102005 0.3806893 0.9190596 -0.102005 0.3806893 0.9190596 -0.1020044 0.3806891 0.9190598 -0.1020044 0.3806891 0.9190598 -0.1020044 0.3806891 0.9190598 -0.2786841 0.2786841 0.9190596 -0.2786841 0.2786841 0.9190596 -0.2786841 0.2786841 0.9190596 -0.278684 0.278684 0.9190596 -0.278684 0.278684 0.9190596 -0.278684 0.278684 0.9190596 -0.3806891 0.1020049 0.9190598 -0.3806891 0.1020049 0.9190598 -0.3806891 0.1020049 0.9190598 -0.3806896 0.1020045 0.9190596 -0.3806896 0.1020045 0.9190596 -0.3806896 0.1020045 0.9190596 -0.1304458 -0.0349525 0.9908391 -0.1304458 -0.0349525 0.9908391 -0.1304458 -0.0349525 0.9908391 1.0 0.0 0.0 1.0 0.0 0.0 -0.0954928 -0.0954928 0.9908392 -0.0954928 -0.0954928 0.9908392 -0.0954928 -0.0954928 0.9908392 1.0 0.0 0.0 1.0 0.0 0.0 -0.0349525 -0.1304458 0.9908391 -0.0349525 -0.1304458 0.9908391 -0.0349525 -0.1304458 0.9908391 1.0 0.0 0.0 1.0 0.0 0.0 0.0349525 -0.1304458 0.9908391 0.0349525 -0.1304458 0.9908391 0.0349525 -0.1304458 0.9908391 1.0 0.0 0.0 1.0 0.0 0.0 0.0954928 -0.0954928 0.9908392 0.0954928 -0.0954928 0.9908392 0.0954928 -0.0954928 0.9908392 1.0 0.0 0.0 1.0 0.0 0.0 0.1304458 -0.0349525 0.9908391 0.1304458 -0.0349525 0.9908391 0.1304458 -0.0349525 0.9908391 1.0 0.0 0.0 1.0 0.0 0.0 0.1304458 0.0349525 0.9908391 0.1304458 0.0349525 0.9908391 0.1304458 0.0349525 0.9908391 1.0 0.0 0.0 1.0 0.0 0.0 0.0954928 0.0954928 0.9908392 0.0954928 0.0954928 0.9908392 0.0954928 0.0954928 0.9908392 1.0 0.0 0.0 1.0 0.0 0.0 0.0349525 0.1304458 0.9908391 0.0349525 0.1304458 0.9908391 0.0349525 0.1304458 0.9908391 1.0 0.0 0.0 1.0 0.0 0.0 -0.0349525 0.1304458 0.9908391 -0.0349525 0.1304458 0.9908391 -0.0349525 0.1304458 0.9908391 1.0 0.0 0.0 1.0 0.0 0.0 -0.0954928 0.0954928 0.9908392 -0.0954928 0.0954928 0.9908392 -0.0954928 0.0954928 0.9908392 1.0 0.0 0.0 1.0 0.0 0.0 -0.1304458 0.0349525 0.9908391 -0.1304458 0.0349525 0.9908391 -0.1304458 0.0349525 0.9908391 1.0 0.0 0.0 1.0 0.0 0.0 1.0 0.0 0.0 1.0 0.0 0.0 -0.1304458 -0.0349525 -0.9908391 -0.1304458 -0.0349525 -0.9908391 -0.1304458 -0.0349525 -0.9908391 1.0 0.0 0.0 1.0 0.0 0.0 -0.0954928 -0.0954928 -0.9908392 -0.0954928 -0.0954928 -0.9908392 -0.0954928 -0.0954928 -0.9908392 1.0 0.0 0.0 1.0 0.0 0.0 -0.0349525 -0.1304458 -0.9908391 -0.0349525 -0.1304458 -0.9908391 -0.0349525 -0.1304458 -0.9908391 1.0 0.0 0.0 1.0 0.0 0.0 0.0349525 -0.1304458 -0.9908391 0.0349525 -0.1304458 -0.9908391 0.0349525 -0.1304458 -0.9908391 1.0 0.0 0.0 1.0 0.0 0.0 0.0954928 -0.0954928 -0.9908392 0.0954928 -0.0954928 -0.9908392 0.0954928 -0.0954928 -0.9908392 1.0 0.0 0.0 1.0 0.0 0.0 0.1304458 -0.0349525 -0.9908391 0.1304458 -0.0349525 -0.9908391 0.1304458 -0.0349525 -0.9908391 1.0 0.0 0.0 1.0 0.0 0.0 0.1304458 0.0349525 -0.9908391 0.1304458 0.0349525 -0.9908391 0.1304458 0.0349525 -0.9908391 1.0 0.0 0.0 1.0 0.0 0.0 0.0954928 0.0954928 -0.9908392 0.0954928 0.0954928 -0.9908392 0.0954928 0.0954928 -0.9908392 1.0 0.0 0.0 1.0 0.0 0.0 0.0349525 0.1304458 -0.9908391 0.0349525 0.1304458 -0.9908391 0.0349525 0.1304458 -0.9908391 1.0 0.0 0.0 1.0 0.0 0.0 -0.0349525 0.1304458 -0.9908391 -0.0349525 0.1304458 -0.9908391 -0.0349525 0.1304458 -0.9908391 1.0 0.0 0.0 1.0 0.0 0.0 -0.0954928 0.0954928 -0.9908392 -0.0954928 0.0954928 -0.9908392 -0.0954928 0.0954928 -0.9908392 1.0 0.0 0.0 1.0 0.0 0.0 -0.1304458 0.0349525 -0.9908391 -0.1304458 0.0349525 -0.9908391 -0.1304458 0.0349525 -0.9908391 -0.3806901 -0.1020046 -0.9190593 -0.3806901 -0.1020046 -0.9190593 -0.3806901 -0.1020046 -0.9190593 -0.3806896 -0.102005 -0.9190595 -0.3806896 -0.102005 -0.9190595 -0.3806896 -0.102005 -0.9190595 -0.2786844 -0.2786844 -0.9190593 -0.2786844 -0.2786844 -0.9190593 -0.2786844 -0.2786844 -0.9190593 -0.2786844 -0.2786844 -0.9190593 -0.2786844 -0.2786844 -0.9190593 -0.2786844 -0.2786844 -0.9190593 -0.1020045 -0.3806896 -0.9190596 -0.1020045 -0.3806896 -0.9190596 -0.1020045 -0.3806896 -0.9190596 -0.1020051 -0.3806899 -0.9190595 -0.1020051 -0.3806899 -0.9190595 -0.1020051 -0.3806899 -0.9190595 0.1020046 -0.3806901 -0.9190593 0.1020046 -0.3806901 -0.9190593 0.1020046 -0.3806901 -0.9190593 0.102005 -0.3806896 -0.9190595 0.102005 -0.3806896 -0.9190595 0.102005 -0.3806896 -0.9190595 0.2786844 -0.2786844 -0.9190593 0.2786844 -0.2786844 -0.9190593 0.2786844 -0.2786844 -0.9190593 0.2786844 -0.2786844 -0.9190593 0.2786844 -0.2786844 -0.9190593 0.2786844 -0.2786844 -0.9190593 0.3806896 -0.1020045 -0.9190596 0.3806896 -0.1020045 -0.9190596 0.3806896 -0.1020045 -0.9190596 0.3806899 -0.1020051 -0.9190595 0.3806899 -0.1020051 -0.9190595 0.3806899 -0.1020051 -0.9190595 0.3806901 0.1020046 -0.9190593 0.3806901 0.1020046 -0.9190593 0.3806901 0.1020046 -0.9190593 0.3806896 0.102005 -0.9190595 0.3806896 0.102005 -0.9190595 0.3806896 0.102005 -0.9190595 0.2786844 0.2786844 -0.9190593 0.2786844 0.2786844 -0.9190593 0.2786844 0.2786844 -0.9190593 0.2786844 0.2786844 -0.9190593 0.2786844 0.2786844 -0.9190593 0.2786844 0.2786844 -0.9190593 0.1020045 0.3806896 -0.9190596 0.1020045 0.3806896 -0.9190596 0.1020045 0.3806896 -0.9190596 0.1020051 0.3806899 -0.9190595 0.1020051 0.3806899 -0.9190595 0.1020051 0.3806899 -0.9190595 -0.1020046 0.3806901 -0.9190593 -0.1020046 0.3806901 -0.9190593 -0.1020046 0.3806901 -0.9190593 -0.102005 0.3806896 -0.9190595 -0.102005 0.3806896 -0.9190595 -0.102005 0.3806896 -0.9190595 -0.2786844 0.2786844 -0.9190593 -0.2786844 0.2786844 -0.9190593 -0.2786844 0.2786844 -0.9190593 -0.2786844 0.2786844 -0.9190593 -0.2786844 0.2786844 -0.9190593 -0.2786844 0.2786844 -0.9190593 -0.3806896 0.1020045 -0.9190596 -0.3806896 0.1020045 -0.9190596 -0.3806896 0.1020045 -0.9190596 -0.3806899 0.1020051 -0.9190595 -0.3806899 0.1020051 -0.9190595 -0.3806899 0.1020051 -0.9190595 -0.6008209 -0.1609888 -0.7830051 -0.6008209 -0.1609888 -0.7830051 -0.6008209 -0.1609888 -0.7830051 -0.6008186 -0.1609901 -0.7830064 -0.6008186 -0.1609901 -0.7830064 -0.6008186 -0.1609901 -0.7830064 -0.4398312 -0.4398312 -0.7830051 -0.4398312 -0.4398312 -0.7830051 -0.4398312 -0.4398312 -0.7830051 -0.4398312 -0.4398312 -0.7830051 -0.4398312 -0.4398312 -0.7830051 -0.4398312 -0.4398312 -0.7830051 -0.1609883 -0.6008189 -0.7830067 -0.1609883 -0.6008189 -0.7830067 -0.1609883 -0.6008189 -0.7830067 -0.1609905 -0.6008201 -0.7830052 -0.1609905 -0.6008201 -0.7830052 -0.1609905 -0.6008201 -0.7830052 0.1609888 -0.6008209 -0.7830051 0.1609888 -0.6008209 -0.7830051 0.1609888 -0.6008209 -0.7830051 0.1609901 -0.6008186 -0.7830064 0.1609901 -0.6008186 -0.7830064 0.1609901 -0.6008186 -0.7830064 0.4398312 -0.4398312 -0.7830051 0.4398312 -0.4398312 -0.7830051 0.4398312 -0.4398312 -0.7830051 0.4398312 -0.4398312 -0.7830051 0.4398312 -0.4398312 -0.7830051 0.4398312 -0.4398312 -0.7830051 0.6008189 -0.1609883 -0.7830067 0.6008189 -0.1609883 -0.7830067 0.6008189 -0.1609883 -0.7830067 0.6008201 -0.1609905 -0.7830052 0.6008201 -0.1609905 -0.7830052 0.6008201 -0.1609905 -0.7830052 0.6008209 0.1609888 -0.7830051 0.6008209 0.1609888 -0.7830051 0.6008209 0.1609888 -0.7830051 0.6008186 0.1609901 -0.7830064 0.6008186 0.1609901 -0.7830064 0.6008186 0.1609901 -0.7830064 0.4398312 0.4398312 -0.7830051 0.4398312 0.4398312 -0.7830051 0.4398312 0.4398312 -0.7830051 0.4398312 0.4398312 -0.7830051 0.4398312 0.4398312 -0.7830051 0.4398312 0.4398312 -0.7830051 0.1609883 0.6008189 -0.7830067 0.1609883 0.6008189 -0.7830067 0.1609883 0.6008189 -0.7830067 0.1609905 0.6008201 -0.7830052 0.1609905 0.6008201 -0.7830052 0.1609905 0.6008201 -0.7830052 -0.1609888 0.6008209 -0.7830051 -0.1609888 0.6008209 -0.7830051 -0.1609888 0.6008209 -0.7830051 -0.1609901 0.6008186 -0.7830064 -0.1609901 0.6008186 -0.7830064 -0.1609901 0.6008186 -0.7830064 -0.4398312 0.4398312 -0.7830051 -0.4398312 0.4398312 -0.7830051 -0.4398312 0.4398312 -0.7830051 -0.4398312 0.4398312 -0.7830051 -0.4398312 0.4398312 -0.7830051 -0.4398312 0.4398312 -0.7830051 -0.6008189 0.1609883 -0.7830067 -0.6008189 0.1609883 -0.7830067 -0.6008189 0.1609883 -0.7830067 -0.6008201 0.1609905 -0.7830052 -0.6008201 0.1609905 -0.7830052 -0.6008201 0.1609905 -0.7830052 -0.7760121 -0.2079334 -0.595457 -0.7760121 -0.2079334 -0.595457 -0.7760121 -0.2079334 -0.595457 -0.7760148 -0.2079317 -0.5954539 -0.7760148 -0.2079317 -0.5954539 -0.7760148 -0.2079317 -0.5954539 -0.5680804 -0.5680804 -0.5954573 -0.5680804 -0.5680804 -0.5954573 -0.5680804 -0.5680804 -0.5954573 -0.5680804 -0.5680804 -0.5954573 -0.5680804 -0.5680804 -0.5954573 -0.5680804 -0.5680804 -0.5954573 -0.2079341 -0.7760144 -0.5954537 -0.2079341 -0.7760144 -0.5954537 -0.2079341 -0.7760144 -0.5954537 -0.2079312 -0.7760129 -0.5954567 -0.2079312 -0.7760129 -0.5954567 -0.2079312 -0.7760129 -0.5954567 0.2079334 -0.7760121 -0.595457 0.2079334 -0.7760121 -0.595457 0.2079334 -0.7760121 -0.595457 0.2079317 -0.7760148 -0.5954539 0.2079317 -0.7760148 -0.5954539 0.2079317 -0.7760148 -0.5954539 0.5680804 -0.5680804 -0.5954573 0.5680804 -0.5680804 -0.5954573 0.5680804 -0.5680804 -0.5954573 0.5680804 -0.5680804 -0.5954573 0.5680804 -0.5680804 -0.5954573 0.5680804 -0.5680804 -0.5954573 0.7760144 -0.2079341 -0.5954537 0.7760144 -0.2079341 -0.5954537 0.7760144 -0.2079341 -0.5954537 0.7760129 -0.2079312 -0.5954567 0.7760129 -0.2079312 -0.5954567 0.7760129 -0.2079312 -0.5954567 0.7760121 0.2079334 -0.595457 0.7760121 0.2079334 -0.595457 0.7760121 0.2079334 -0.595457 0.7760148 0.2079317 -0.5954539 0.7760148 0.2079317 -0.5954539 0.7760148 0.2079317 -0.5954539 0.5680804 0.5680804 -0.5954573 0.5680804 0.5680804 -0.5954573 0.5680804 0.5680804 -0.5954573 0.5680804 0.5680804 -0.5954573 0.5680804 0.5680804 -0.5954573 0.5680804 0.5680804 -0.5954573 0.2079341 0.7760144 -0.5954537 0.2079341 0.7760144 -0.5954537 0.2079341 0.7760144 -0.5954537 0.2079312 0.7760129 -0.5954567 0.2079312 0.7760129 -0.5954567 0.2079312 0.7760129 -0.5954567 -0.2079334 0.7760121 -0.595457 -0.2079334 0.7760121 -0.595457 -0.2079334 0.7760121 -0.595457 -0.2079317 0.7760148 -0.5954539 -0.2079317 0.7760148 -0.5954539 -0.2079317 0.7760148 -0.5954539 -0.5680804 0.5680804 -0.5954573 -0.5680804 0.5680804 -0.5954573 -0.5680804 0.5680804 -0.5954573 -0.5680804 0.5680804 -0.5954573 -0.5680804 0.5680804 -0.5954573 -0.5680804 0.5680804 -0.5954573 -0.7760144 0.2079341 -0.5954537 -0.7760144 0.2079341 -0.5954537 -0.7760144 0.2079341 -0.5954537 -0.7760129 0.2079312 -0.5954567 -0.7760129 0.2079312 -0.5954567 -0.7760129 0.2079312 -0.5954567 -0.8968095 -0.2402984 -0.3714692 -0.8968095 -0.2402984 -0.3714692 -0.8968095 -0.2402984 -0.3714692 -0.896808 -0.2402997 -0.371472 -0.896808 -0.2402997 -0.371472 -0.896808 -0.2402997 -0.371472 -0.6565099 -0.6565099 -0.3714692 -0.6565099 -0.6565099 -0.3714692 -0.6565099 -0.6565099 -0.3714692 -0.6565099 -0.6565099 -0.3714692 -0.6565099 -0.6565099 -0.3714692 -0.6565099 -0.6565099 -0.3714692 -0.2402981 -0.8968083 -0.3714722 -0.2402981 -0.8968083 -0.3714722 -0.2402981 -0.8968083 -0.3714722 -0.2403 -0.896809 -0.3714694 -0.2403 -0.896809 -0.3714694 -0.2403 -0.896809 -0.3714694 0.2402984 -0.8968095 -0.3714692 0.2402984 -0.8968095 -0.3714692 0.2402984 -0.8968095 -0.3714692 0.2402997 -0.896808 -0.371472 0.2402997 -0.896808 -0.371472 0.2402997 -0.896808 -0.371472 0.6565099 -0.6565099 -0.3714692 0.6565099 -0.6565099 -0.3714692 0.6565099 -0.6565099 -0.3714692 0.6565099 -0.6565099 -0.3714692 0.6565099 -0.6565099 -0.3714692 0.6565099 -0.6565099 -0.3714692 0.8968083 -0.2402981 -0.3714722 0.8968083 -0.2402981 -0.3714722 0.8968083 -0.2402981 -0.3714722 0.896809 -0.2403 -0.3714694 0.896809 -0.2403 -0.3714694 0.896809 -0.2403 -0.3714694 0.8968095 0.2402984 -0.3714692 0.8968095 0.2402984 -0.3714692 0.8968095 0.2402984 -0.3714692 0.896808 0.2402997 -0.371472 0.896808 0.2402997 -0.371472 0.896808 0.2402997 -0.371472 0.6565099 0.6565099 -0.3714692 0.6565099 0.6565099 -0.3714692 0.6565099 0.6565099 -0.3714692 0.6565099 0.6565099 -0.3714692 0.6565099 0.6565099 -0.3714692 0.6565099 0.6565099 -0.3714692 0.2402981 0.8968083 -0.3714722 0.2402981 0.8968083 -0.3714722 0.2402981 0.8968083 -0.3714722 0.2403 0.896809 -0.3714694 0.2403 0.896809 -0.3714694 0.2403 0.896809 -0.3714694 -0.2402984 0.8968095 -0.3714692 -0.2402984 0.8968095 -0.3714692 -0.2402984 0.8968095 -0.3714692 -0.2402997 0.896808 -0.371472 -0.2402997 0.896808 -0.371472 -0.2402997 0.896808 -0.371472 -0.6565099 0.6565099 -0.3714692 -0.6565099 0.6565099 -0.3714692 -0.6565099 0.6565099 -0.3714692 -0.6565099 0.6565099 -0.3714692 -0.6565099 0.6565099 -0.3714692 -0.6565099 0.6565099 -0.3714692 -0.8968083 0.2402981 -0.3714722 -0.8968083 0.2402981 -0.3714722 -0.8968083 0.2402981 -0.3714722 -0.896809 0.2403 -0.3714694 -0.896809 0.2403 -0.3714694 -0.896809 0.2403 -0.3714694 -0.958209 -0.2567521 -0.1261502 -0.958209 -0.2567521 -0.1261502 -0.958209 -0.2567521 -0.1261502 -0.958209 -0.2567522 -0.1261503 -0.958209 -0.2567522 -0.1261503 -0.958209 -0.2567522 -0.1261503 -0.7014578 -0.7014578 -0.1261502 -0.7014578 -0.7014578 -0.1261502 -0.7014578 -0.7014578 -0.1261502 -0.7014578 -0.7014578 -0.1261502 -0.7014578 -0.7014578 -0.1261502 -0.7014578 -0.7014578 -0.1261502 -0.2567521 -0.958209 -0.1261503 -0.2567521 -0.958209 -0.1261503 -0.2567521 -0.958209 -0.1261503 -0.2567522 -0.958209 -0.1261502 -0.2567522 -0.958209 -0.1261502 -0.2567522 -0.958209 -0.1261502 0.2567521 -0.958209 -0.1261502 0.2567521 -0.958209 -0.1261502 0.2567521 -0.958209 -0.1261502 0.2567522 -0.958209 -0.1261503 0.2567522 -0.958209 -0.1261503 0.2567522 -0.958209 -0.1261503 0.7014578 -0.7014578 -0.1261502 0.7014578 -0.7014578 -0.1261502 0.7014578 -0.7014578 -0.1261502 0.7014578 -0.7014578 -0.1261502 0.7014578 -0.7014578 -0.1261502 0.7014578 -0.7014578 -0.1261502 0.958209 -0.2567521 -0.1261503 0.958209 -0.2567521 -0.1261503 0.958209 -0.2567521 -0.1261503 0.958209 -0.2567522 -0.1261502 0.958209 -0.2567522 -0.1261502 0.958209 -0.2567522 -0.1261502 0.958209 0.2567521 -0.1261502 0.958209 0.2567521 -0.1261502 0.958209 0.2567521 -0.1261502 0.958209 0.2567522 -0.1261503 0.958209 0.2567522 -0.1261503 0.958209 0.2567522 -0.1261503 0.7014578 0.7014578 -0.1261502 0.7014578 0.7014578 -0.1261502 0.7014578 0.7014578 -0.1261502 0.7014578 0.7014578 -0.1261502 0.7014578 0.7014578 -0.1261502 0.7014578 0.7014578 -0.1261502 0.2567521 0.958209 -0.1261503 0.2567521 0.958209 -0.1261503 0.2567521 0.958209 -0.1261503 0.2567522 0.958209 -0.1261502 0.2567522 0.958209 -0.1261502 0.2567522 0.958209 -0.1261502 -0.2567521 0.958209 -0.1261502 -0.2567521 0.958209 -0.1261502 -0.2567521 0.958209 -0.1261502 -0.2567522 0.958209 -0.1261503 -0.2567522 0.958209 -0.1261503 -0.2567522 0.958209 -0.1261503 -0.7014578 0.7014578 -0.1261502 -0.7014578 0.7014578 -0.1261502 -0.7014578 0.7014578 -0.1261502 -0.7014578 0.7014578 -0.1261502 -0.7014578 0.7014578 -0.1261502 -0.7014578 0.7014578 -0.1261502 -0.958209 0.2567521 -0.1261503 -0.958209 0.2567521 -0.1261503 -0.958209 0.2567521 -0.1261503 -0.958209 0.2567522 -0.1261502 -0.958209 0.2567522 -0.1261502 -0.958209 0.2567522 -0.1261502 -0.958209 -0.2567522 0.1261501 -0.958209 -0.2567522 0.1261501 -0.958209 -0.2567522 0.1261501 -0.958209 -0.2567521 0.1261503 -0.958209 -0.2567521 0.1261503 -0.958209 -0.2567521 0.1261503 -0.7014578 -0.7014578 0.1261501 -0.7014578 -0.7014578 0.1261501 -0.7014578 -0.7014578 0.1261501 -0.7014578 -0.7014578 0.1261501 -0.7014578 -0.7014578 0.1261501 -0.7014578 -0.7014578 0.1261501 -0.2567522 -0.958209 0.1261503 -0.2567522 -0.958209 0.1261503 -0.2567522 -0.958209 0.1261503 -0.2567521 -0.958209 0.1261501 -0.2567521 -0.958209 0.1261501 -0.2567521 -0.958209 0.1261501 0.2567522 -0.958209 0.1261501 0.2567522 -0.958209 0.1261501 0.2567522 -0.958209 0.1261501 0.2567521 -0.958209 0.1261503 0.2567521 -0.958209 0.1261503 0.2567521 -0.958209 0.1261503 0.7014578 -0.7014578 0.1261501 0.7014578 -0.7014578 0.1261501 0.7014578 -0.7014578 0.1261501 0.7014578 -0.7014578 0.1261501 0.7014578 -0.7014578 0.1261501 0.7014578 -0.7014578 0.1261501 0.958209 -0.2567522 0.1261503 0.958209 -0.2567522 0.1261503 0.958209 -0.2567522 0.1261503 0.958209 -0.2567521 0.1261501 0.958209 -0.2567521 0.1261501 0.958209 -0.2567521 0.1261501 0.958209 0.2567522 0.1261501 0.958209 0.2567522 0.1261501 0.958209 0.2567522 0.1261501 0.958209 0.2567521 0.1261503 0.958209 0.2567521 0.1261503 0.958209 0.2567521 0.1261503 0.7014578 0.7014578 0.1261501 0.7014578 0.7014578 0.1261501 0.7014578 0.7014578 0.1261501 0.7014578 0.7014578 0.1261501 0.7014578 0.7014578 0.1261501 0.7014578 0.7014578 0.1261501 0.2567522 0.958209 0.1261503 0.2567522 0.958209 0.1261503 0.2567522 0.958209 0.1261503 0.2567521 0.958209 0.1261501 0.2567521 0.958209 0.1261501 0.2567521 0.958209 0.1261501 -0.2567522 0.958209 0.1261501 -0.2567522 0.958209 0.1261501 -0.2567522 0.958209 0.1261501 -0.2567521 0.958209 0.1261503 -0.2567521 0.958209 0.1261503 -0.2567521 0.958209 0.1261503 -0.7014578 0.7014578 0.1261501 -0.7014578 0.7014578 0.1261501 -0.7014578 0.7014578 0.1261501 -0.7014578 0.7014578 0.1261501 -0.7014578 0.7014578 0.1261501 -0.7014578 0.7014578 0.1261501 -0.958209 0.2567522 0.1261503 -0.958209 0.2567522 0.1261503 -0.958209 0.2567522 0.1261503 -0.958209 0.2567521 0.1261501 -0.958209 0.2567521 0.1261501 -0.958209 0.2567521 0.1261501 -0.896809 -0.2403 0.3714694 -0.896809 -0.2403 0.3714694 -0.896809 -0.2403 0.3714694 -0.8968083 -0.2402981 0.3714722 -0.8968083 -0.2402981 0.3714722 -0.8968083 -0.2402981 0.3714722 -0.6565099 -0.6565099 0.3714692 -0.6565099 -0.6565099 0.3714692 -0.6565099 -0.6565099 0.3714692 -0.6565099 -0.6565099 0.3714692 -0.6565099 -0.6565099 0.3714692 -0.6565099 -0.6565099 0.3714692 -0.2402997 -0.896808 0.371472 -0.2402997 -0.896808 0.371472 -0.2402997 -0.896808 0.371472 -0.2402984 -0.8968095 0.3714693 -0.2402984 -0.8968095 0.3714693 -0.2402984 -0.8968095 0.3714693 0.2403 -0.896809 0.3714694 0.2403 -0.896809 0.3714694 0.2403 -0.896809 0.3714694 0.2402981 -0.8968083 0.3714722 0.2402981 -0.8968083 0.3714722 0.2402981 -0.8968083 0.3714722</float_array>
                    <technique_common>
                        <accessor count="840" source="#geometry0-normal-array" stride="3">
                            <param name="X" type="float"/>
                            <param name="Y" type="float"/>
                            <param name="Z" type="float"/>
                        </accessor>
                    </technique_common>
                </source>
                <vertices id="geometry0-vertex">
                    <input semantic="POSITION" source="#geometry0-position"/>
                </vertices>
                <triangles count="288" material="default_ai_0.2_sh_0.2_tr_0.0_dc_r_0.8_g_0.8_b_0.8_sc_r_1.0_g_1.0_b_1.0_ec_r_0.0_g_0.0_b_0_tri">
                    <input offset="0" semantic="VERTEX" source="#geometry0-vertex"/>
                    <input offset="1" semantic="NORMAL" source="#geometry0-normal"/>
                    <p>77 0 78 1 90 2 77 3 90 4 89 5 78 6 79 7 91 8 78 9 91 10 90 11 79 12 80 13 92 14 79 15 92 16 91 17 80 18 81 19 93 20 80 21 93 22 92 23 81 24 82 25 94 26 81 27 94 28 93 29 82 30 83 31 95 32 82 33 95 34 94 35 83 36 84 37 96 38 83 39 96 40 95 41 84 42 74 43 86 44 84 45 86 46 96 47 86 48 85 49 97 50 86 51 97 52 98 53 85 54 87 55 99 56 85 57 99 58 97 59 87 60 88 61 100 62 87 63 100 64 99 65 88 66 89 67 101 68 88 69 101 70 100 71 89 72 90 73 102 74 89 75 102 76 101 77 90 78 91 79 103 80 90 81 103 82 102 83 91 84 92 85 104 86 91 87 104 88 103 89 92 90 93 91 105 92 92 93 105 94 104 95 93 96 94 97 106 98 93 99 106 100 105 101 94 102 95 103 107 104 94 105 107 106 106 107 95 108 96 109 108 110 95 111 108 112 107 113 96 114 86 115 98 116 96 117 98 118 108 119 98 120 97 121 109 122 98 123 109 124 110 125 97 126 99 127 111 128 97 129 111 130 109 131 99 132 100 133 112 134 99 135 112 136 111 137 100 138 101 139 113 140 100 141 113 142 112 143 101 144 102 145 114 146 101 147 114 148 113 149 102 150 103 151 115 152 102 153 115 154 114 155 103 156 104 157 116 158 103 159 116 160 115 161 104 162 105 163 117 164 104 165 117 166 116 167 105 168 106 169 118 170 105 171 118 172 117 173 106 174 107 175 119 176 106 177 119 178 118 179 107 180 108 181 120 182 107 183 120 184 119 185 108 186 98 187 110 188 108 189 110 190 120 191 110 192 109 193 121 194 110 195 121 196 122 197 109 198 111 199 123 200 109 201 123 202 121 203 111 204 112 205 124 206 111 207 124 208 123 209 112 210 113 211 125 212 112 213 125 214 124 215 113 216 114 217 126 218 113 219 126 220 125 221 114 222 115 223 127 224 114 225 127 226 126 227 115 228 116 229 128 230 115 231 128 232 127 233 116 234 117 235 129 236 116 237 129 238 128 239 117 240 118 241 130 242 117 243 130 244 129 245 118 246 119 247 131 248 118 249 131 250 130 251 119 252 120 253 132 254 119 255 132 256 131 257 120 258 110 259 122 260 120 261 122 262 132 263 122 264 121 265 133 266 122 267 133 268 133 268 121 269 123 270 133 271 121 272 133 273 133 273 123 274 124 275 133 276 123 277 133 278 133 278 124 279 125 280 133 281 124 282 133 283 133 283 125 284 126 285 133 286 125 287 133 288 133 288 126 289 127 290 133 291 126 292 133 293 133 293 127 294 128 295 133 296 127 297 133 298 133 298 128 299 129 300 133 301 128 302 133 303 133 303 129 304 130 305 133 306 129 307 133 308 133 308 130 309 131 310 133 311 130 312 133 313 133 313 131 314 132 315 133 316 131 317 133 318 133 318 132 319 122 320 133 321 132 322 133 323 133 323 0 324 0 324 1 325 0 326 1 327 2 328 0 329 0 329 3 330 0 331 3 332 1 333 0 334 0 334 4 335 0 336 4 337 3 338 0 339 0 339 5 340 0 341 5 342 4 343 0 344 0 344 6 345 0 346 6 347 5 348 0 349 0 349 7 350 0 351 7 352 6 353 0 354 0 354 8 355 0 356 8 357 7 358 0 359 0 359 9 360 0 361 9 362 8 363 0 364 0 364 10 365 0 366 10 367 9 368 0 369 0 369 11 370 0 371 11 372 10 373 0 374 0 374 12 375 0 376 12 377 11 378 0 379 0 379 2 380 0 381 2 382 12 383 2 384 1 385 13 386 2 387 13 388 14 389 1 390 3 391 15 392 1 393 15 394 13 395 3 396 4 397 16 398 3 399 16 400 15 401 4 402 5 403 17 404 4 405 17 406 16 407 5 408 6 409 18 410 5 411 18 412 17 413 6 414 7 415 19 416 6 417 19 418 18 419 7 420 8 421 20 422 7 423 20 424 19 425 8 426 9 427 21 428 8 429 21 430 20 431 9 432 10 433 22 434 9 435 22 436 21 437 10 438 11 439 23 440 10 441 23 442 22 443 11 444 12 445 24 446 11 447 24 448 23 449 12 450 2 451 14 452 12 453 14 454 24 455 14 456 13 457 25 458 14 459 25 460 26 461 13 462 15 463 27 464 13 465 27 466 25 467 15 468 16 469 28 470 15 471 28 472 27 473 16 474 17 475 29 476 16 477 29 478 28 479 17 480 18 481 30 482 17 483 30 484 29 485 18 486 19 487 31 488 18 489 31 490 30 491 19 492 20 493 32 494 19 495 32 496 31 497 20 498 21 499 33 500 20 501 33 502 32 503 21 504 22 505 34 506 21 507 34 508 33 509 22 510 23 511 35 512 22 513 35 514 34 515 23 516 24 517 36 518 23 519 36 520 35 521 24 522 14 523 26 524 24 525 26 526 36 527 26 528 25 529 37 530 26 531 37 532 38 533 25 534 27 535 39 536 25 537 39 538 37 539 27 540 28 541 40 542 27 543 40 544 39 545 28 546 29 547 41 548 28 549 41 550 40 551 29 552 30 553 42 554 29 555 42 556 41 557 30 558 31 559 43 560 30 561 43 562 42 563 31 564 32 565 44 566 31 567 44 568 43 569 32 570 33 571 45 572 32 573 45 574 44 575 33 576 34 577 46 578 33 579 46 580 45 581 34 582 35 583 47 584 34 585 47 586 46 587 35 588 36 589 48 590 35 591 48 592 47 593 36 594 26 595 38 596 36 597 38 598 48 599 38 600 37 601 49 602 38 603 49 604 50 605 37 606 39 607 51 608 37 609 51 610 49 611 39 612 40 613 52 614 39 615 52 616 51 617 40 618 41 619 53 620 40 621 53 622 52 623 41 624 42 625 54 626 41 627 54 628 53 629 42 630 43 631 55 632 42 633 55 634 54 635 43 636 44 637 56 638 43 639 56 640 55 641 44 642 45 643 57 644 44 645 57 646 56 647 45 648 46 649 58 650 45 651 58 652 57 653 46 654 47 655 59 656 46 657 59 658 58 659 47 660 48 661 60 662 47 663 60 664 59 665 48 666 38 667 50 668 48 669 50 670 60 671 50 672 49 673 61 674 50 675 61 676 62 677 49 678 51 679 63 680 49 681 63 682 61 683 51 684 52 685 64 686 51 687 64 688 63 689 52 690 53 691 65 692 52 693 65 694 64 695 53 696 54 697 66 698 53 699 66 700 65 701 54 702 55 703 67 704 54 705 67 706 66 707 55 708 56 709 68 710 55 711 68 712 67 713 56 714 57 715 69 716 56 717 69 718 68 719 57 720 58 721 70 722 57 723 70 724 69 725 58 726 59 727 71 728 58 729 71 730 70 731 59 732 60 733 72 734 59 735 72 736 71 737 60 738 50 739 62 740 60 741 62 742 72 743 62 744 61 745 73 746 62 747 73 748 74 749 61 750 63 751 75 752 61 753 75 754 73 755 63 756 64 757 76 758 63 759 76 760 75 761 64 762 65 763 77 764 64 765 77 766 76 767 65 768 66 769 78 770 65 771 78 772 77 773 66 774 67 775 79 776 66 777 79 778 78 779 67 780 68 781 80 782 67 783 80 784 79 785 68 786 69 787 81 788 68 789 81 790 80 791 69 792 70 793 82 794 69 795 82 796 81 797 70 798 71 799 83 800 70 801 83 802 82 803 71 804 72 805 84 806 71 807 84 808 83 809 72 810 62 811 74 812 72 813 74 814 84 815 74 816 73 817 85 818 74 819 85 820 86 821 73 822 75 823 87 824 73 825 87 826 85 827 75 828 76 829 88 830 75 831 88 832 87 833 76 834 77 835 89 836 76 837 89 838 88 839</p>
                </triangles>
            </mesh>
        </geometry>
    </library_geometries>
    <library_visual_scenes>
        <visual_scene id="Building_302_CROWN2">
            <node>
                <instance_geometry url="#geometry0">
                    <bind_material>
                        <technique_common>
                            <instance_material symbol="default_ai_0.2_sh_0.2_tr_0.0_dc_r_0.8_g_0.8_b_0.8_sc_r_1.0_g_1.0_b_1.0_ec_r_0.0_g_0.0_b_0_tri" target="#default_ai_0.2_sh_0.2_tr_0.0_dc_r_0.8_g_0.8_b_0.8_sc_r_1.0_g_1.0_b_1.0_ec_r_0.0_g_0.0_b_0_mat"/>
                        </technique_common>
                    </bind_material>
                </instance_geometry>
            </node>
        </visual_scene>
    </library_visual_scenes>
    <scene>
        <instance_visual_scene url="#Building_302_CROWN2"/>
    </scene>
</COLLADA>
