<?xml version="1.0" encoding="UTF-8" standalone="yes"?>
<COLLADA xmlns="http://www.collada.org/2005/11/COLLADASchema" version="1.4.1">
    <asset>
        <contributor>
            <authoring_tool>3D City Database Importer/Exporter, version 5.5.3; Chair of Geoinformatics, Technical University of Munich</authoring_tool>
        </contributor>
        <created>2026-09-25T14:45:36.819</created>
        <modified>2026-09-25T14:45:36.819</modified>
        <unit meter="1.0" name="meters"/>
        <up_axis>Z_UP</up_axis>
    </asset>
    <library_materials>
        <material id="default_ai_0.2_sh_0.2_tr_0.0_dc_r_0.8_g_0.8_b_0.8_sc_r_1.0_g_1.0_b_1.0_ec_r_0.0_g_0.0_b_0_mat">
            <instance_effect url="#default_ai_0.2_sh_0.2_tr_0.0_dc_r_0.8_g_0.8_b_0.8_sc_r_1.0_g_1.0_b_1.0_ec_r_0.0_g_0.0_b_0_eff"/>
        </material>
    </library_materials>
    <library_effects>
        <effect id="default_ai_0.2_sh_0.2_tr_0.0_dc_r_0.8_g_0.8_b_0.8_sc_r_1.0_g_1.0_b_1.0_ec_r_0.0_g_0.0_b_0_eff">
            <profile_COMMON>
                <technique sid="COMMON">
                    <lambert>
                        <emission>
                            <color>0.0 0.0 0.0 1.0</color>
                        </emission>
                        <diffuse>
                            <color>0.8 0.8 0.8 1.0</color>
                        </diffuse>
                        <reflective>
                            <color>1.0 1.0 1.0 1.0</color>
                        </reflective>
                        <reflectivity>
                            <float>0.2</float>
                        </reflectivity>
                        <transparent opaque="A_ONE">
                            <color>1.0 1.0 1.0 1.0</color>
                        </transparent>
                        <transparency>
                            <float>1.0</float>
                        </transparency>
                    </lambert>
                </technique>
                <extra>
                    <technique profile="GOOGLEEARTH">
                        <double_sided>0</double_sided>
                    </technique>
                </extra>
            </profile_COMMON>
        </effect>
    </library_effects>
    <library_geometries>
        <geometry id="geometry0">
            <mesh>
                <source id="geometry0-position">
                    <float_array id="geometry0-position-array" count="78">0.0 0.0 0.0 -0.0083738 0.03125 0.0 -0.0083738 0.03125 2.0833338 0.0 0.0 2.0833338 -0.03125 0.0541262 0.0 -0.03125 0.0541262 2.0833338 -0.0625 0.0625 0.0 -0.0625 0.0625 2.0833338 -0.09375 0.0541262 0.0 -0.09375 0.0541262 2.0833338 -0.1166262 0.03125 0.0 -0.1166262 0.03125 2.0833338 -0.125 0.0 0.0 -0.125 0.0 2.0833338 -0.1166262 -0.03125 0.0 -0.1166262 -0.03125 2.0833338 -0.09375 -0.0541262 0.0 -0.09375 -0.0541262 2.0833338 -0.0625 -0.0625 0.0 -0.0625 -0.0625 2.0833338 -0.03125 -0.0541262 0.0 -0.03125 -0.0541262 2.0833338 -0.0083738 -0.03125 0.0 -0.0083738 -0.03125 2.0833338 -0.0625 0.0 0.0 -0.0625 0.0 2.0833338</float_array>
                    <technique_common>
                        <accessor count="26" source="#geometry0-position-array" stride="3">
                            <param name="X" type="float"/>
                            <param name="Y" type="float"/>
                            <param name="Z" type="float"/>
                        </accessor>
                    </technique_common>
                </source>
                <source id="geometry0-normal">
                    <float_array id="geometry0-normal-array" count="432">-0.2588288 0.9659232 0.0 -0.2588288 0.9659232 0.0 -0.2588288 0.9659232 0.0 -0.2588288 0.9659232 0.0 -0.2588288 0.9659232 0.0 -0.2588288 0.9659232 0.0 -0.7071068 0.7071068 0.0 -0.7071068 0.7071068 0.0 -0.7071068 0.7071068 0.0 -0.7071068 0.7071068 0.0 -0.7071068 0.7071068 0.0 -0.7071068 0.7071068 0.0 -0.9659232 0.2588288 0.0 -0.9659232 0.2588288 0.0 -0.9659232 0.2588288 0.0 -0.9659232 0.2588288 0.0 -0.9659232 0.2588288 0.0 -0.9659232 0.2588288 0.0 -0.9659232 -0.2588288 0.0 -0.9659232 -0.2588288 0.0 -0.9659232 -0.2588288 0.0 -0.9659232 -0.2588288 0.0 -0.9659232 -0.2588288 0.0 -0.9659232 -0.2588288 0.0 -0.7071068 -0.7071068 0.0 -0.7071068 -0.7071068 0.0 -0.7071068 -0.7071068 0.0 -0.7071068 -0.7071068 0.0 -0.7071068 -0.7071068 0.0 -0.7071068 -0.7071068 0.0 -0.2588288 -0.9659232 0.0 -0.2588288 -0.9659232 0.0 -0.2588288 -0.9659232 0.0 -0.2588288 -0.9659232 0.0 -0.2588288 -0.9659232 0.0 -0.2588288 -0.9659232 0.0 0.2588288 -0.9659232 0.0 0.2588288 -0.9659232 0.0 0.2588288 -0.9659232 0.0 0.2588288 -0.9659232 0.0 0.2588288 -0.9659232 0.0 0.2588288 -0.9659232 0.0 0.7071068 -0.7071068 0.0 0.7071068 -0.7071068 0.0 0.7071068 -0.7071068 0.0 0.7071068 -0.7071068 0.0 0.7071068 -0.7071068 0.0 0.7071068 -0.7071068 0.0 0.9659232 -0.2588288 0.0 0.9659232 -0.2588288 0.0 0.9659232 -0.2588288 0.0 0.9659232 -0.2588288 0.0 0.9659232 -0.2588288 0.0 0.9659232 -0.2588288 0.0 0.0 0.0 -1.0 0.0 0.0 -1.0 0.0 0.0 -1.0 0.0 0.0 -1.0 0.0 0.0 -1.0 0.0 0.0 -1.0 0.0 0.0 -1.0 0.0 0.0 -1.0 0.0 0.0 -1.0 0.0 0.0 -1.0 0.0 0.0 -1.0 0.0 0.0 -1.0 0.0 0.0 -1.0 0.0 0.0 -1.0 0.0 0.0 -1.0 0.0 0.0 -1.0 0.0 0.0 -1.0 0.0 0.0 -1.0 0.0 0.0 -1.0 0.0 0.0 -1.0 0.0 0.0 -1.0 0.0 0.0 -1.0 0.0 0.0 -1.0 0.0 0.0 -1.0 0.0 0.0 -1.0 0.0 0.0 -1.0 0.0 0.0 -1.0 0.0 0.0 -1.0 0.0 0.0 -1.0 0.0 0.0 -1.0 0.0 0.0 -1.0 0.0 0.0 -1.0 0.0 0.0 -1.0 0.0 0.0 -1.0 0.0 0.0 -1.0 0.0 0.0 -1.0 0.0 0.0 1.0 0.0 0.0 1.0 0.0 0.0 1.0 0.0 0.0 1.0 0.0 0.0 1.0 0.0 0.0 1.0 0.0 0.0 1.0 0.0 0.0 1.0 0.0 0.0 1.0 0.0 0.0 1.0 0.0 0.0 1.0 0.0 0.0 1.0 0.0 0.0 1.0 0.0 0.0 1.0 0.0 0.0 1.0 0.0 0.0 1.0 0.0 0.0 1.0 0.0 0.0 1.0 0.0 0.0 1.0 0.0 0.0 1.0 0.0 0.0 1.0 0.0 0.0 1.0 0.0 0.0 1.0 0.0 0.0 1.0 0.0 0.0 1.0 0.0 0.0 1.0 0.0 0.0 1.0 0.0 0.0 1.0 0.0 0.0 1.0 0.0 0.0 1.0 0.0 0.0 1.0 0.0 0.0 1.0 0.0 0.0 1.0 0.0 0.0 1.0 0.0 0.0 1.0 0.0 0.0 1.0 0.9659232 0.2588288 0.0 0.9659232 0.2588288 0.0 0.9659232 0.2588288 0.0 0.9659232 0.2588288 0.0 0.9659232 0.2588288 0.0 0.9659232 0.2588288 0.0 0.7071068 0.7071068 0.0 0.7071068 0.7071068 0.0 0.7071068 0.7071068 0.0 0.7071068 0.7071068 0.0 0.7071068 0.7071068 0.0 0.7071068 0.7071068 0.0 0.2588288 0.9659232 0.0 0.2588288 0.9659232 0.0 0.2588288 0.9659232 0.0 0.2588288 0.9659232 0.0 0.2588288 0.9659232 0.0 0.2588288 0.9659232 0.0</float_array>
                    <technique_common>
                        <accessor count="144" source="#geometry0-normal-array" stride="3">
                            <param name="X" type="float"/>
                            <param name="Y" type="float"/>
                            <param name="Z" type="float"/>
                        </accessor>
                    </technique_common>
                </source>
                <vertices id="geometry0-vertex">
                    <input semantic="POSITION" source="#geometry0-position"/>
                </vertices>
                <triangles count="48" material="default_ai_0.2_sh_0.2_tr_0.0_dc_r_0.8_g_0.8_b_0.8_sc_r_1.0_g_1.0_b_1.0_ec_r_0.0_g_0.0_b_0_tri">
                    <input offset="0" semantic="VERTEX" source="#geometry0-vertex"/>
                    <input offset="1" semantic="NORMAL" source="#geometry0-normal"/>
                    <p>6 0 8 1 9 2 6 3 9 4 7 5 8 6 10 7 11 8 8 9 11 10 9 11 10 12 12 13 13 14 10 15 13 16 11 17 12 18 14 19 15 20 12 21 15 22 13 23 14 24 16 25 17 26 14 27 17 28 15 29 16 30 18 31 19 32 16 33 19 34 17 35 18 36 20 37 21 38 18 39 21 40 19 41 20 42 22 43 23 44 20 45 23 46 21 47 22 48 0 49 3 50 22 51 3 52 23 53 24 54 1 55 0 56 24 57 4 58 1 59 24 60 6 61 4 62 24 63 8 64 6 65 24 66 10 67 8 68 24 69 12 70 10 71 24 72 14 73 12 74 24 75 16 76 14 77 24 78 18 79 16 80 24 81 20 82 18 83 24 84 22 85 20 86 24 87 0 88 22 89 25 90 3 91 2 92 25 93 2 94 5 95 25 96 5 97 7 98 25 99 7 100 9 101 25 102 9 103 11 104 25 105 11 106 13 107 25 108 13 109 15 110 25 111 15 112 17 113 25 114 17 115 19 116 25 117 19 118 21 119 25 120 21 121 23 122 25 123 23 124 3 125 0 126 1 127 2 128 0 129 2 130 3 131 1 132 4 133 5 134 1 135 5 136 2 137 4 138 6 139 7 140 4 141 7 142 5 143</p>
                </triangles>
            </mesh>
        </geometry>
    </library_geometries>
    <library_visual_scenes>
        <visual_scene id="Building_81_TRUNK1">
            <node>
                <instance_geometry url="#geometry0">
                    <bind_material>
                        <technique_common>
                            <instance_material symbol="default_ai_0.2_sh_0.2_tr_0.0_dc_r_0.8_g_0.8_b_0.8_sc_r_1.0_g_1.0_b_1.0_ec_r_0.0_g_0.0_b_0_tri" target="#default_ai_0.2_sh_0.2_tr_0.0_dc_r_0.8_g_0.8_b_0.8_sc_r_1.0_g_1.0_b_1.0_ec_r_0.0_g_0.0_b_0_mat"/>
                        </technique_common>
                    </bind_material>
                </instance_geometry>
            </node>
        </visual_scene>
    </library_visual_scenes>
    <scene>
        <instance_visual_scene url="#Building_81_TRUNK1"/>
    </scene>
</COLLADA>
