<?xml version="1.0" encoding="UTF-8" standalone="yes"?>
<COLLADA xmlns="http://www.collada.org/2005/11/COLLADASchema" version="1.4.1">
    <asset>
        <contributor>
            <authoring_tool>3D City Database Importer/Exporter, version 5.5.3; Chair of Geoinformatics, Technical University of Munich</authoring_tool>
        </contributor>
        <created>2026-09-25T14:44:50.041</created>
        <modified>2026-09-25T14:44:50.041</modified>
        <unit meter="1.0" name="meters"/>
        <up_axis>Z_UP</up_axis>
    </asset>
    <library_materials>
        <material id="default_ai_0.2_sh_0.2_tr_0.0_dc_r_0.8_g_0.8_b_0.8_sc_r_1.0_g_1.0_b_1.0_ec_r_0.0_g_0.0_b_0_mat">
            <instance_effect url="#default_ai_0.2_sh_0.2_tr_0.0_dc_r_0.8_g_0.8_b_0.8_sc_r_1.0_g_1.0_b_1.0_ec_r_0.0_g_0.0_b_0_eff"/>
        </material>
    </library_materials>
    <library_effects>
        <effect id="default_ai_0.2_sh_0.2_tr_0.0_dc_r_0.8_g_0.8_b_0.8_sc_r_1.0_g_1.0_b_1.0_ec_r_0.0_g_0.0_b_0_eff">
            <profile_COMMON>
                <technique sid="COMMON">
                    <lambert>
                        <emission>
                            <color>0.0 0.0 0.0 1.0</color>
                        </emission>
                        <diffuse>
                            <color>0.8 0.8 0.8 1.0</color>
                        </diffuse>
                        <reflective>
                            <color>1.0 1.0 1.0 1.0</color>
                        </reflective>
                        <reflectivity>
                            <float>0.2</float>
                        </reflectivity>
                        <transparent opaque="A_ONE">
                            <color>1.0 1.0 1.0 1.0</color>
                        </transparent>
                        <transparency>
                            <float>1.0</float>
                        </transparency>
                    </lambert>
                </technique>
                <extra>
                    <technique profile="GOOGLEEARTH">
                        <double_sided>0</double_sided>
                    </technique>
                </extra>
            </profile_COMMON>
        </effect>
    </library_effects>
    <library_geometries>
        <geometry id="geometry0">
            <mesh>
                <source id="geometry0-position">
                    <float_array id="geometry0-position-array" count="402">0.0 0.0 4.6 0.5155312 0.297643 4.5216298 0.5952837 0.0 4.5216298 0.297643 0.5155312 4.5216298 0.0 0.5952837 4.5216298 -0.297643 0.5155312 4.5216298 -0.5155312 0.297643 4.5216298 -0.5952837 0.0 4.5216298 -0.5155312 -0.297643 4.5216298 -0.297643 -0.5155312 4.5216298 0.0 -0.5952837 4.5216298 0.297643 -0.5155312 4.5216298 0.5155312 -0.297643 4.5216298 0.9959299 0.575 4.2918575 1.15 0.0 4.2918575 0.575 0.9959299 4.2918575 0.0 1.15 4.2918575 -0.575 0.9959299 4.2918575 -0.9959299 0.575 4.2918575 -1.15 0.0 4.2918575 -0.9959299 -0.575 4.2918575 -0.575 -0.9959299 4.2918575 0.0 -1.15 4.2918575 0.575 -0.9959299 4.2918575 0.9959299 -0.575 4.2918575 1.4084556 0.8131719 3.9263461 1.6263461 0.0 3.9263461 0.8131719 1.4084556 3.9263461 0.0 1.6263461 3.9263461 -0.8131719 1.4084556 3.9263461 -1.4084556 0.8131719 3.9263461 -1.6263461 0.0 3.9263461 -1.4084556 -0.8131719 3.9263461 -0.8131719 -1.4084556 3.9263461 0.0 -1.6263461 3.9263461 0.8131719 -1.4084556 3.9263461 1.4084556 -0.8131719 3.9263461 1.725 0.9959299 3.45 1.9918575 0.0 3.45 0.9959299 1.725 3.45 0.0 1.9918575 3.45 -0.9959299 1.725 3.45 -1.725 0.9959299 3.45 -1.9918575 0.0 3.45 -1.725 -0.9959299 3.45 -0.9959299 -1.725 3.45 0.0 -1.9918575 3.45 0.9959299 -1.725 3.45 1.725 -0.9959299 3.45 1.9239868 1.1108149 2.8952837 2.2216298 0.0 2.8952837 1.1108149 1.9239868 2.8952837 0.0 2.2216298 2.8952837 -1.1108149 1.9239868 2.8952837 -1.9239868 1.1108149 2.8952837 -2.2216298 0.0 2.8952837 -1.9239868 -1.1108149 2.8952837 -1.1108149 -1.9239868 2.8952837 0.0 -2.2216298 2.8952837 1.1108149 -1.9239868 2.8952837 1.9239868 -1.1108149 2.8952837 1.9918575 1.15 2.3 2.3 0.0 2.3 1.15 1.9918575 2.3 0.0 2.3 2.3 -1.15 1.9918575 2.3 -1.9918575 1.15 2.3 -2.3 0.0 2.3 -1.9918575 -1.15 2.3 -1.15 -1.9918575 2.3 0.0 -2.3 2.3 1.15 -1.9918575 2.3 1.9918575 -1.15 2.3 1.9239868 1.1108149 1.7047163 2.2216298 0.0 1.7047163 1.1108149 1.9239868 1.7047163 0.0 2.2216298 1.7047163 -1.1108149 1.9239868 1.7047163 -1.9239868 1.1108149 1.7047163 -2.2216298 0.0 1.7047163 -1.9239868 -1.1108149 1.7047163 -1.1108149 -1.9239868 1.7047163 0.0 -2.2216298 1.7047163 1.1108149 -1.9239868 1.7047163 1.9239868 -1.1108149 1.7047163 1.725 0.9959299 1.15 1.9918575 0.0 1.15 0.9959299 1.725 1.15 0.0 1.9918575 1.15 -0.9959299 1.725 1.15 -1.725 0.9959299 1.15 -1.9918575 0.0 1.15 -1.725 -0.9959299 1.15 -0.9959299 -1.725 1.15 0.0 -1.9918575 1.15 0.9959299 -1.725 1.15 1.725 -0.9959299 1.15 1.4084556 0.8131719 0.6736539 1.6263461 0.0 0.6736539 0.8131719 1.4084556 0.6736539 0.0 1.6263461 0.6736539 -0.8131719 1.4084556 0.6736539 -1.4084556 0.8131719 0.6736539 -1.6263461 0.0 0.6736539 -1.4084556 -0.8131719 0.6736539 -0.8131719 -1.4084556 0.6736539 0.0 -1.6263461 0.6736539 0.8131719 -1.4084556 0.6736539 1.4084556 -0.8131719 0.6736539 0.9959299 0.575 0.3081425 1.15 0.0 0.3081425 0.575 0.9959299 0.3081425 0.0 1.15 0.3081425 -0.575 0.9959299 0.3081425 -0.9959299 0.575 0.3081425 -1.15 0.0 0.3081425 -0.9959299 -0.575 0.3081425 -0.575 -0.9959299 0.3081425 0.0 -1.15 0.3081425 0.575 -0.9959299 0.3081425 0.9959299 -0.575 0.3081425 0.5155312 0.297643 0.0783702 0.5952837 0.0 0.0783702 0.297643 0.5155312 0.0783702 0.0 0.5952837 0.0783702 -0.297643 0.5155312 0.0783702 -0.5155312 0.297643 0.0783702 -0.5952837 0.0 0.0783702 -0.5155312 -0.297643 0.0783702 -0.297643 -0.5155312 0.0783702 0.0 -0.5952837 0.0783702 0.297643 -0.5155312 0.0783702 0.5155312 -0.297643 0.0783702 0.0 0.0 0.0</float_array>
                    <technique_common>
                        <accessor count="134" source="#geometry0-position-array" stride="3">
                            <param name="X" type="float"/>
                            <param name="Y" type="float"/>
                            <param name="Z" type="float"/>
                        </accessor>
                    </technique_common>
                </source>
                <source id="geometry0-normal">
                    <float_array id="geometry0-normal-array" count="2520">0.2079341 0.7760143 -0.5954539 0.2079341 0.7760143 -0.5954539 0.2079341 0.7760143 -0.5954539 0.2079311 0.7760127 -0.595457 0.2079311 0.7760127 -0.595457 0.2079311 0.7760127 -0.595457 -0.2079334 0.7760119 -0.5954573 -0.2079334 0.7760119 -0.5954573 -0.2079334 0.7760119 -0.5954573 -0.2079317 0.7760146 -0.5954542 -0.2079317 0.7760146 -0.5954542 -0.2079317 0.7760146 -0.5954542 -0.5680802 0.5680802 -0.5954575 -0.5680802 0.5680802 -0.5954575 -0.5680802 0.5680802 -0.5954575 -0.5680802 0.5680802 -0.5954575 -0.5680802 0.5680802 -0.5954575 -0.5680802 0.5680802 -0.5954575 -0.7760143 0.2079341 -0.5954539 -0.7760143 0.2079341 -0.5954539 -0.7760143 0.2079341 -0.5954539 -0.7760127 0.2079311 -0.595457 -0.7760127 0.2079311 -0.595457 -0.7760127 0.2079311 -0.595457 -0.8968096 -0.2402984 -0.371469 -0.8968096 -0.2402984 -0.371469 -0.8968096 -0.2402984 -0.371469 -0.8968079 -0.2402998 -0.3714721 -0.8968079 -0.2402998 -0.3714721 -0.8968079 -0.2402998 -0.3714721 -0.65651 -0.65651 -0.3714691 -0.65651 -0.65651 -0.3714691 -0.65651 -0.65651 -0.3714691 -0.65651 -0.65651 -0.371469 -0.65651 -0.65651 -0.371469 -0.65651 -0.65651 -0.371469 -0.2402981 -0.8968083 -0.3714723 -0.2402981 -0.8968083 -0.3714723 -0.2402981 -0.8968083 -0.3714723 -0.2403001 -0.8968091 -0.3714691 -0.2403001 -0.8968091 -0.3714691 -0.2403001 -0.8968091 -0.3714691 0.2402984 -0.8968096 -0.371469 0.2402984 -0.8968096 -0.371469 0.2402984 -0.8968096 -0.371469 0.2402998 -0.8968079 -0.3714721 0.2402998 -0.8968079 -0.3714721 0.2402998 -0.8968079 -0.3714721 0.65651 -0.65651 -0.3714691 0.65651 -0.65651 -0.3714691 0.65651 -0.65651 -0.3714691 0.65651 -0.65651 -0.371469 0.65651 -0.65651 -0.371469 0.65651 -0.65651 -0.371469 0.8968083 -0.2402981 -0.3714723 0.8968083 -0.2402981 -0.3714723 0.8968083 -0.2402981 -0.3714723 0.8968091 -0.2403001 -0.3714691 0.8968091 -0.2403001 -0.3714691 0.8968091 -0.2403001 -0.3714691 0.8968096 0.2402984 -0.371469 0.8968096 0.2402984 -0.371469 0.8968096 0.2402984 -0.371469 0.8968079 0.2402998 -0.3714721 0.8968079 0.2402998 -0.3714721 0.8968079 0.2402998 -0.3714721 0.65651 0.65651 -0.3714691 0.65651 0.65651 -0.3714691 0.65651 0.65651 -0.3714691 0.65651 0.65651 -0.371469 0.65651 0.65651 -0.371469 0.65651 0.65651 -0.371469 0.2402981 0.8968083 -0.3714723 0.2402981 0.8968083 -0.3714723 0.2402981 0.8968083 -0.3714723 0.2403001 0.8968091 -0.3714691 0.2403001 0.8968091 -0.3714691 0.2403001 0.8968091 -0.3714691 -0.2402984 0.8968096 -0.371469 -0.2402984 0.8968096 -0.371469 -0.2402984 0.8968096 -0.371469 -0.2402998 0.8968079 -0.3714721 -0.2402998 0.8968079 -0.3714721 -0.2402998 0.8968079 -0.3714721 -0.65651 0.65651 -0.3714691 -0.65651 0.65651 -0.3714691 -0.65651 0.65651 -0.3714691 -0.65651 0.65651 -0.371469 -0.65651 0.65651 -0.371469 -0.65651 0.65651 -0.371469 -0.8968083 0.2402981 -0.3714723 -0.8968083 0.2402981 -0.3714723 -0.8968083 0.2402981 -0.3714723 -0.8968091 0.2403001 -0.3714691 -0.8968091 0.2403001 -0.3714691 -0.8968091 0.2403001 -0.3714691 -0.958209 -0.2567523 -0.1261503 -0.958209 -0.2567523 -0.1261503 -0.958209 -0.2567523 -0.1261503 -0.958209 -0.2567521 -0.1261498 -0.958209 -0.2567521 -0.1261498 -0.958209 -0.2567521 -0.1261498 -0.7014578 -0.7014578 -0.1261501 -0.7014578 -0.7014578 -0.1261501 -0.7014578 -0.7014578 -0.1261501 -0.7014578 -0.7014578 -0.1261501 -0.7014578 -0.7014578 -0.1261501 -0.7014578 -0.7014578 -0.1261501 -0.2567523 -0.958209 -0.1261498 -0.2567523 -0.958209 -0.1261498 -0.2567523 -0.958209 -0.1261498 -0.2567521 -0.958209 -0.1261503 -0.2567521 -0.958209 -0.1261503 -0.2567521 -0.958209 -0.1261503 0.2567523 -0.958209 -0.1261503 0.2567523 -0.958209 -0.1261503 0.2567523 -0.958209 -0.1261503 0.2567521 -0.958209 -0.1261498 0.2567521 -0.958209 -0.1261498 0.2567521 -0.958209 -0.1261498 0.7014578 -0.7014578 -0.1261501 0.7014578 -0.7014578 -0.1261501 0.7014578 -0.7014578 -0.1261501 0.7014578 -0.7014578 -0.1261501 0.7014578 -0.7014578 -0.1261501 0.7014578 -0.7014578 -0.1261501 0.958209 -0.2567523 -0.1261498 0.958209 -0.2567523 -0.1261498 0.958209 -0.2567523 -0.1261498 0.958209 -0.2567521 -0.1261503 0.958209 -0.2567521 -0.1261503 0.958209 -0.2567521 -0.1261503 0.958209 0.2567523 -0.1261503 0.958209 0.2567523 -0.1261503 0.958209 0.2567523 -0.1261503 0.958209 0.2567521 -0.1261498 0.958209 0.2567521 -0.1261498 0.958209 0.2567521 -0.1261498 0.7014578 0.7014578 -0.1261501 0.7014578 0.7014578 -0.1261501 0.7014578 0.7014578 -0.1261501 0.7014578 0.7014578 -0.1261501 0.7014578 0.7014578 -0.1261501 0.7014578 0.7014578 -0.1261501 0.2567523 0.958209 -0.1261498 0.2567523 0.958209 -0.1261498 0.2567523 0.958209 -0.1261498 0.2567521 0.958209 -0.1261503 0.2567521 0.958209 -0.1261503 0.2567521 0.958209 -0.1261503 -0.2567523 0.958209 -0.1261503 -0.2567523 0.958209 -0.1261503 -0.2567523 0.958209 -0.1261503 -0.2567521 0.958209 -0.1261498 -0.2567521 0.958209 -0.1261498 -0.2567521 0.958209 -0.1261498 -0.7014578 0.7014578 -0.1261501 -0.7014578 0.7014578 -0.1261501 -0.7014578 0.7014578 -0.1261501 -0.7014578 0.7014578 -0.1261501 -0.7014578 0.7014578 -0.1261501 -0.7014578 0.7014578 -0.1261501 -0.958209 0.2567523 -0.1261498 -0.958209 0.2567523 -0.1261498 -0.958209 0.2567523 -0.1261498 -0.958209 0.2567521 -0.1261503 -0.958209 0.2567521 -0.1261503 -0.958209 0.2567521 -0.1261503 -0.958209 -0.2567521 0.1261503 -0.958209 -0.2567521 0.1261503 -0.958209 -0.2567521 0.1261503 -0.958209 -0.2567523 0.1261498 -0.958209 -0.2567523 0.1261498 -0.958209 -0.2567523 0.1261498 -0.7014578 -0.7014578 0.1261501 -0.7014578 -0.7014578 0.1261501 -0.7014578 -0.7014578 0.1261501 -0.7014578 -0.7014578 0.1261502 -0.7014578 -0.7014578 0.1261502 -0.7014578 -0.7014578 0.1261502 -0.2567521 -0.958209 0.1261498 -0.2567521 -0.958209 0.1261498 -0.2567521 -0.958209 0.1261498 -0.2567523 -0.9582089 0.1261503 -0.2567523 -0.9582089 0.1261503 -0.2567523 -0.9582089 0.1261503 0.2567521 -0.958209 0.1261503 0.2567521 -0.958209 0.1261503 0.2567521 -0.958209 0.1261503 0.2567523 -0.958209 0.1261498 0.2567523 -0.958209 0.1261498 0.2567523 -0.958209 0.1261498 0.7014578 -0.7014578 0.1261501 0.7014578 -0.7014578 0.1261501 0.7014578 -0.7014578 0.1261501 0.7014578 -0.7014578 0.1261502 0.7014578 -0.7014578 0.1261502 0.7014578 -0.7014578 0.1261502 0.958209 -0.2567521 0.1261498 0.958209 -0.2567521 0.1261498 0.958209 -0.2567521 0.1261498 0.9582089 -0.2567523 0.1261503 0.9582089 -0.2567523 0.1261503 0.9582089 -0.2567523 0.1261503 0.958209 0.2567521 0.1261503 0.958209 0.2567521 0.1261503 0.958209 0.2567521 0.1261503 0.958209 0.2567523 0.1261498 0.958209 0.2567523 0.1261498 0.958209 0.2567523 0.1261498 0.7014578 0.7014578 0.1261501 0.7014578 0.7014578 0.1261501 0.7014578 0.7014578 0.1261501 0.7014578 0.7014578 0.1261502 0.7014578 0.7014578 0.1261502 0.7014578 0.7014578 0.1261502 0.2567521 0.958209 0.1261498 0.2567521 0.958209 0.1261498 0.2567521 0.958209 0.1261498 0.2567523 0.9582089 0.1261503 0.2567523 0.9582089 0.1261503 0.2567523 0.9582089 0.1261503 -0.2567521 0.958209 0.1261503 -0.2567521 0.958209 0.1261503 -0.2567521 0.958209 0.1261503 -0.2567523 0.958209 0.1261498 -0.2567523 0.958209 0.1261498 -0.2567523 0.958209 0.1261498 -0.7014578 0.7014578 0.1261501 -0.7014578 0.7014578 0.1261501 -0.7014578 0.7014578 0.1261501 -0.7014578 0.7014578 0.1261502 -0.7014578 0.7014578 0.1261502 -0.7014578 0.7014578 0.1261502 -0.958209 0.2567521 0.1261498 -0.958209 0.2567521 0.1261498 -0.958209 0.2567521 0.1261498 -0.9582089 0.2567523 0.1261503 -0.9582089 0.2567523 0.1261503 -0.9582089 0.2567523 0.1261503 -0.896809 -0.2403001 0.3714692 -0.896809 -0.2403001 0.3714692 -0.896809 -0.2403001 0.3714692 -0.8968083 -0.2402981 0.3714723 -0.8968083 -0.2402981 0.3714723 -0.8968083 -0.2402981 0.3714723 -0.65651 -0.65651 0.3714691 -0.65651 -0.65651 0.3714691 -0.65651 -0.65651 0.3714691 -0.6565099 -0.6565099 0.3714691 -0.6565099 -0.6565099 0.3714691 -0.6565099 -0.6565099 0.3714691 -0.2402998 -0.8968079 0.3714721 -0.2402998 -0.8968079 0.3714721 -0.2402998 -0.8968079 0.3714721 -0.2402984 -0.8968096 0.371469 -0.2402984 -0.8968096 0.371469 -0.2402984 -0.8968096 0.371469 0.2403001 -0.896809 0.3714692 0.2403001 -0.896809 0.3714692 0.2403001 -0.896809 0.3714692 0.2402981 -0.8968083 0.3714723 0.2402981 -0.8968083 0.3714723 0.2402981 -0.8968083 0.3714723 0.65651 -0.65651 0.3714691 0.65651 -0.65651 0.3714691 0.65651 -0.65651 0.3714691 0.6565099 -0.6565099 0.3714691 0.6565099 -0.6565099 0.3714691 0.6565099 -0.6565099 0.3714691 0.8968079 -0.2402998 0.3714721 0.8968079 -0.2402998 0.3714721 0.8968079 -0.2402998 0.3714721 0.8968096 -0.2402984 0.371469 0.8968096 -0.2402984 0.371469 0.8968096 -0.2402984 0.371469 0.896809 0.2403001 0.3714692 0.896809 0.2403001 0.3714692 0.896809 0.2403001 0.3714692 0.8968083 0.2402981 0.3714723 0.8968083 0.2402981 0.3714723 0.8968083 0.2402981 0.3714723 0.65651 0.65651 0.3714691 0.65651 0.65651 0.3714691 0.65651 0.65651 0.3714691 0.6565099 0.6565099 0.3714691 0.6565099 0.6565099 0.3714691 0.6565099 0.6565099 0.3714691 0.2402998 0.8968079 0.3714721 0.2402998 0.8968079 0.3714721 0.2402998 0.8968079 0.3714721 0.2402984 0.8968096 0.371469 0.2402984 0.8968096 0.371469 0.2402984 0.8968096 0.371469 -0.2403001 0.896809 0.3714692 -0.2403001 0.896809 0.3714692 -0.2403001 0.896809 0.3714692 -0.2402981 0.8968083 0.3714723 -0.2402981 0.8968083 0.3714723 -0.2402981 0.8968083 0.3714723 -0.65651 0.65651 0.3714691 -0.65651 0.65651 0.3714691 -0.65651 0.65651 0.3714691 -0.6565099 0.6565099 0.3714691 -0.6565099 0.6565099 0.3714691 -0.6565099 0.6565099 0.3714691 -0.8968079 0.2402998 0.3714721 -0.8968079 0.2402998 0.3714721 -0.8968079 0.2402998 0.3714721 -0.8968096 0.2402984 0.371469 -0.8968096 0.2402984 0.371469 -0.8968096 0.2402984 0.371469 -0.7760127 -0.2079311 0.5954569 -0.7760127 -0.2079311 0.5954569 -0.7760127 -0.2079311 0.5954569 -0.7760144 -0.2079341 0.5954539 -0.7760144 -0.2079341 0.5954539 -0.7760144 -0.2079341 0.5954539 -0.5680802 -0.5680802 0.5954575 -0.5680802 -0.5680802 0.5954575 -0.5680802 -0.5680802 0.5954575 -0.5680803 -0.5680803 0.5954574 -0.5680803 -0.5680803 0.5954574 -0.5680803 -0.5680803 0.5954574 -0.2079317 -0.7760147 0.5954541 -0.2079317 -0.7760147 0.5954541 -0.2079317 -0.7760147 0.5954541 -0.2079334 -0.7760118 0.5954572 -0.2079334 -0.7760118 0.5954572 -0.2079334 -0.7760118 0.5954572 0.2079311 -0.7760127 0.5954569 0.2079311 -0.7760127 0.5954569 0.2079311 -0.7760127 0.5954569 0.2079341 -0.7760144 0.5954539 0.2079341 -0.7760144 0.5954539 0.2079341 -0.7760144 0.5954539 0.5680802 -0.5680802 0.5954575 0.5680802 -0.5680802 0.5954575 0.5680802 -0.5680802 0.5954575 0.5680803 -0.5680803 0.5954574 0.5680803 -0.5680803 0.5954574 0.5680803 -0.5680803 0.5954574 0.7760147 -0.2079317 0.5954541 0.7760147 -0.2079317 0.5954541 0.7760147 -0.2079317 0.5954541 0.7760118 -0.2079334 0.5954572 0.7760118 -0.2079334 0.5954572 0.7760118 -0.2079334 0.5954572 0.7760127 0.2079311 0.5954569 0.7760127 0.2079311 0.5954569 0.7760127 0.2079311 0.5954569 0.7760144 0.2079341 0.5954539 0.7760144 0.2079341 0.5954539 0.7760144 0.2079341 0.5954539 0.5680802 0.5680802 0.5954575 0.5680802 0.5680802 0.5954575 0.5680802 0.5680802 0.5954575 0.5680803 0.5680803 0.5954574 0.5680803 0.5680803 0.5954574 0.5680803 0.5680803 0.5954574 0.2079317 0.7760147 0.5954541 0.2079317 0.7760147 0.5954541 0.2079317 0.7760147 0.5954541 0.2079334 0.7760118 0.5954572 0.2079334 0.7760118 0.5954572 0.2079334 0.7760118 0.5954572 -0.2079311 0.7760127 0.5954569 -0.2079311 0.7760127 0.5954569 -0.2079311 0.7760127 0.5954569 -0.2079341 0.7760144 0.5954539 -0.2079341 0.7760144 0.5954539 -0.2079341 0.7760144 0.5954539 -0.5680802 0.5680802 0.5954575 -0.5680802 0.5680802 0.5954575 -0.5680802 0.5680802 0.5954575 -0.5680803 0.5680803 0.5954574 -0.5680803 0.5680803 0.5954574 -0.5680803 0.5680803 0.5954574 -0.7760147 0.2079317 0.5954541 -0.7760147 0.2079317 0.5954541 -0.7760147 0.2079317 0.5954541 -0.7760118 0.2079334 0.5954572 -0.7760118 0.2079334 0.5954572 -0.7760118 0.2079334 0.5954572 -0.6008204 -0.1609906 0.7830052 -0.6008204 -0.1609906 0.7830052 -0.6008204 -0.1609906 0.7830052 -0.6008191 -0.1609882 0.7830065 -0.6008191 -0.1609882 0.7830065 -0.6008191 -0.1609882 0.7830065 -0.4398313 -0.4398313 0.7830049 -0.4398313 -0.4398313 0.7830049 -0.4398313 -0.4398313 0.7830049 -0.4398313 -0.4398313 0.783005 -0.4398313 -0.4398313 0.783005 -0.4398313 -0.4398313 0.783005 -0.1609902 -0.6008188 0.7830063 -0.1609902 -0.6008188 0.7830063 -0.1609902 -0.6008188 0.7830063 -0.1609888 -0.6008211 0.7830048 -0.1609888 -0.6008211 0.7830048 -0.1609888 -0.6008211 0.7830048 0.1609906 -0.6008204 0.7830052 0.1609906 -0.6008204 0.7830052 0.1609906 -0.6008204 0.7830052 0.1609882 -0.6008191 0.7830065 0.1609882 -0.6008191 0.7830065 0.1609882 -0.6008191 0.7830065 0.4398313 -0.4398313 0.7830049 0.4398313 -0.4398313 0.7830049 0.4398313 -0.4398313 0.7830049 0.4398313 -0.4398313 0.783005 0.4398313 -0.4398313 0.783005 0.4398313 -0.4398313 0.783005 0.6008188 -0.1609902 0.7830063 0.6008188 -0.1609902 0.7830063 0.6008188 -0.1609902 0.7830063 0.6008211 -0.1609888 0.7830048 0.6008211 -0.1609888 0.7830048 0.6008211 -0.1609888 0.7830048 0.6008204 0.1609906 0.7830052 0.6008204 0.1609906 0.7830052 0.6008204 0.1609906 0.7830052 0.6008191 0.1609882 0.7830065 0.6008191 0.1609882 0.7830065 0.6008191 0.1609882 0.7830065 0.4398313 0.4398313 0.7830049 0.4398313 0.4398313 0.7830049 0.4398313 0.4398313 0.7830049 0.4398313 0.4398313 0.783005 0.4398313 0.4398313 0.783005 0.4398313 0.4398313 0.783005 0.1609902 0.6008188 0.7830063 0.1609902 0.6008188 0.7830063 0.1609902 0.6008188 0.7830063 0.1609888 0.6008211 0.7830048 0.1609888 0.6008211 0.7830048 0.1609888 0.6008211 0.7830048 -0.1609906 0.6008204 0.7830052 -0.1609906 0.6008204 0.7830052 -0.1609906 0.6008204 0.7830052 -0.1609882 0.6008191 0.7830065 -0.1609882 0.6008191 0.7830065 -0.1609882 0.6008191 0.7830065 -0.4398313 0.4398313 0.7830049 -0.4398313 0.4398313 0.7830049 -0.4398313 0.4398313 0.7830049 -0.4398313 0.4398313 0.783005 -0.4398313 0.4398313 0.783005 -0.4398313 0.4398313 0.783005 -0.6008188 0.1609902 0.7830063 -0.6008188 0.1609902 0.7830063 -0.6008188 0.1609902 0.7830063 -0.6008211 0.1609888 0.7830048 -0.6008211 0.1609888 0.7830048 -0.6008211 0.1609888 0.7830048 -0.3806893 -0.1020049 0.9190596 -0.3806893 -0.1020049 0.9190596 -0.3806893 -0.1020049 0.9190596 -0.3806892 -0.1020045 0.9190598 -0.3806892 -0.1020045 0.9190598 -0.3806892 -0.1020045 0.9190598 -0.278684 -0.278684 0.9190595 -0.278684 -0.278684 0.9190595 -0.278684 -0.278684 0.9190595 -0.2786841 -0.2786841 0.9190595 -0.2786841 -0.2786841 0.9190595 -0.2786841 -0.2786841 0.9190595 -0.1020049 -0.3806891 0.9190597 -0.1020049 -0.3806891 0.9190597 -0.1020049 -0.3806891 0.9190597 -0.1020046 -0.3806896 0.9190596 -0.1020046 -0.3806896 0.9190596 -0.1020046 -0.3806896 0.9190596 0.1020049 -0.3806893 0.9190596 0.1020049 -0.3806893 0.9190596 0.1020049 -0.3806893 0.9190596 0.1020045 -0.3806892 0.9190598 0.1020045 -0.3806892 0.9190598 0.1020045 -0.3806892 0.9190598 0.278684 -0.278684 0.9190595 0.278684 -0.278684 0.9190595 0.278684 -0.278684 0.9190595 0.2786841 -0.2786841 0.9190595 0.2786841 -0.2786841 0.9190595 0.2786841 -0.2786841 0.9190595 0.3806891 -0.1020049 0.9190597 0.3806891 -0.1020049 0.9190597 0.3806891 -0.1020049 0.9190597 0.3806896 -0.1020046 0.9190596 0.3806896 -0.1020046 0.9190596 0.3806896 -0.1020046 0.9190596 0.3806893 0.1020049 0.9190596 0.3806893 0.1020049 0.9190596 0.3806893 0.1020049 0.9190596 0.3806892 0.1020045 0.9190598 0.3806892 0.1020045 0.9190598 0.3806892 0.1020045 0.9190598 0.278684 0.278684 0.9190595 0.278684 0.278684 0.9190595 0.278684 0.278684 0.9190595 0.2786841 0.2786841 0.9190595 0.2786841 0.2786841 0.9190595 0.2786841 0.2786841 0.9190595 0.1020049 0.3806891 0.9190597 0.1020049 0.3806891 0.9190597 0.1020049 0.3806891 0.9190597 0.1020046 0.3806896 0.9190596 0.1020046 0.3806896 0.9190596 0.1020046 0.3806896 0.9190596 -0.1020049 0.3806893 0.9190596 -0.1020049 0.3806893 0.9190596 -0.1020049 0.3806893 0.9190596 -0.1020045 0.3806892 0.9190598 -0.1020045 0.3806892 0.9190598 -0.1020045 0.3806892 0.9190598 -0.278684 0.278684 0.9190595 -0.278684 0.278684 0.9190595 -0.278684 0.278684 0.9190595 -0.2786841 0.2786841 0.9190595 -0.2786841 0.2786841 0.9190595 -0.2786841 0.2786841 0.9190595 -0.3806891 0.1020049 0.9190597 -0.3806891 0.1020049 0.9190597 -0.3806891 0.1020049 0.9190597 -0.3806896 0.1020046 0.9190596 -0.3806896 0.1020046 0.9190596 -0.3806896 0.1020046 0.9190596 -0.1304458 -0.0349525 0.9908391 -0.1304458 -0.0349525 0.9908391 -0.1304458 -0.0349525 0.9908391 1.0 0.0 0.0 1.0 0.0 0.0 -0.0954928 -0.0954928 0.9908392 -0.0954928 -0.0954928 0.9908392 -0.0954928 -0.0954928 0.9908392 1.0 0.0 0.0 1.0 0.0 0.0 -0.0349525 -0.1304458 0.9908391 -0.0349525 -0.1304458 0.9908391 -0.0349525 -0.1304458 0.9908391 1.0 0.0 0.0 1.0 0.0 0.0 0.0349525 -0.1304458 0.9908391 0.0349525 -0.1304458 0.9908391 0.0349525 -0.1304458 0.9908391 1.0 0.0 0.0 1.0 0.0 0.0 0.0954928 -0.0954928 0.9908392 0.0954928 -0.0954928 0.9908392 0.0954928 -0.0954928 0.9908392 1.0 0.0 0.0 1.0 0.0 0.0 0.1304458 -0.0349525 0.9908391 0.1304458 -0.0349525 0.9908391 0.1304458 -0.0349525 0.9908391 1.0 0.0 0.0 1.0 0.0 0.0 0.1304458 0.0349525 0.9908391 0.1304458 0.0349525 0.9908391 0.1304458 0.0349525 0.9908391 1.0 0.0 0.0 1.0 0.0 0.0 0.0954928 0.0954928 0.9908392 0.0954928 0.0954928 0.9908392 0.0954928 0.0954928 0.9908392 1.0 0.0 0.0 1.0 0.0 0.0 0.0349525 0.1304458 0.9908391 0.0349525 0.1304458 0.9908391 0.0349525 0.1304458 0.9908391 1.0 0.0 0.0 1.0 0.0 0.0 -0.0349525 0.1304458 0.9908391 -0.0349525 0.1304458 0.9908391 -0.0349525 0.1304458 0.9908391 1.0 0.0 0.0 1.0 0.0 0.0 -0.0954928 0.0954928 0.9908392 -0.0954928 0.0954928 0.9908392 -0.0954928 0.0954928 0.9908392 1.0 0.0 0.0 1.0 0.0 0.0 -0.1304458 0.0349525 0.9908391 -0.1304458 0.0349525 0.9908391 -0.1304458 0.0349525 0.9908391 1.0 0.0 0.0 1.0 0.0 0.0 1.0 0.0 0.0 1.0 0.0 0.0 -0.1304456 -0.0349525 -0.9908391 -0.1304456 -0.0349525 -0.9908391 -0.1304456 -0.0349525 -0.9908391 1.0 0.0 0.0 1.0 0.0 0.0 -0.0954927 -0.0954927 -0.9908392 -0.0954927 -0.0954927 -0.9908392 -0.0954927 -0.0954927 -0.9908392 1.0 0.0 0.0 1.0 0.0 0.0 -0.0349525 -0.1304456 -0.9908391 -0.0349525 -0.1304456 -0.9908391 -0.0349525 -0.1304456 -0.9908391 1.0 0.0 0.0 1.0 0.0 0.0 0.0349525 -0.1304456 -0.9908391 0.0349525 -0.1304456 -0.9908391 0.0349525 -0.1304456 -0.9908391 1.0 0.0 0.0 1.0 0.0 0.0 0.0954927 -0.0954927 -0.9908392 0.0954927 -0.0954927 -0.9908392 0.0954927 -0.0954927 -0.9908392 1.0 0.0 0.0 1.0 0.0 0.0 0.1304456 -0.0349525 -0.9908391 0.1304456 -0.0349525 -0.9908391 0.1304456 -0.0349525 -0.9908391 1.0 0.0 0.0 1.0 0.0 0.0 0.1304456 0.0349525 -0.9908391 0.1304456 0.0349525 -0.9908391 0.1304456 0.0349525 -0.9908391 1.0 0.0 0.0 1.0 0.0 0.0 0.0954927 0.0954927 -0.9908392 0.0954927 0.0954927 -0.9908392 0.0954927 0.0954927 -0.9908392 1.0 0.0 0.0 1.0 0.0 0.0 0.0349525 0.1304456 -0.9908391 0.0349525 0.1304456 -0.9908391 0.0349525 0.1304456 -0.9908391 1.0 0.0 0.0 1.0 0.0 0.0 -0.0349525 0.1304456 -0.9908391 -0.0349525 0.1304456 -0.9908391 -0.0349525 0.1304456 -0.9908391 1.0 0.0 0.0 1.0 0.0 0.0 -0.0954927 0.0954927 -0.9908392 -0.0954927 0.0954927 -0.9908392 -0.0954927 0.0954927 -0.9908392 1.0 0.0 0.0 1.0 0.0 0.0 -0.1304456 0.0349525 -0.9908391 -0.1304456 0.0349525 -0.9908391 -0.1304456 0.0349525 -0.9908391 -0.3806893 -0.1020045 -0.9190597 -0.3806893 -0.1020045 -0.9190597 -0.3806893 -0.1020045 -0.9190597 -0.3806889 -0.1020048 -0.9190599 -0.3806889 -0.1020048 -0.9190599 -0.3806889 -0.1020048 -0.9190599 -0.2786838 -0.2786838 -0.9190596 -0.2786838 -0.2786838 -0.9190596 -0.2786838 -0.2786838 -0.9190596 -0.2786838 -0.2786838 -0.9190596 -0.2786838 -0.2786838 -0.9190596 -0.2786838 -0.2786838 -0.9190596 -0.1020044 -0.3806888 -0.9190599 -0.1020044 -0.3806888 -0.9190599 -0.1020044 -0.3806888 -0.9190599 -0.1020048 -0.380689 -0.9190598 -0.1020048 -0.380689 -0.9190598 -0.1020048 -0.380689 -0.9190598 0.1020045 -0.3806893 -0.9190597 0.1020045 -0.3806893 -0.9190597 0.1020045 -0.3806893 -0.9190597 0.1020048 -0.3806889 -0.9190599 0.1020048 -0.3806889 -0.9190599 0.1020048 -0.3806889 -0.9190599 0.2786838 -0.2786838 -0.9190596 0.2786838 -0.2786838 -0.9190596 0.2786838 -0.2786838 -0.9190596 0.2786838 -0.2786838 -0.9190596 0.2786838 -0.2786838 -0.9190596 0.2786838 -0.2786838 -0.9190596 0.3806888 -0.1020044 -0.9190599 0.3806888 -0.1020044 -0.9190599 0.3806888 -0.1020044 -0.9190599 0.380689 -0.1020048 -0.9190598 0.380689 -0.1020048 -0.9190598 0.380689 -0.1020048 -0.9190598 0.3806893 0.1020045 -0.9190597 0.3806893 0.1020045 -0.9190597 0.3806893 0.1020045 -0.9190597 0.3806889 0.1020048 -0.9190599 0.3806889 0.1020048 -0.9190599 0.3806889 0.1020048 -0.9190599 0.2786838 0.2786838 -0.9190596 0.2786838 0.2786838 -0.9190596 0.2786838 0.2786838 -0.9190596 0.2786838 0.2786838 -0.9190596 0.2786838 0.2786838 -0.9190596 0.2786838 0.2786838 -0.9190596 0.1020044 0.3806888 -0.9190599 0.1020044 0.3806888 -0.9190599 0.1020044 0.3806888 -0.9190599 0.1020048 0.380689 -0.9190598 0.1020048 0.380689 -0.9190598 0.1020048 0.380689 -0.9190598 -0.1020045 0.3806893 -0.9190597 -0.1020045 0.3806893 -0.9190597 -0.1020045 0.3806893 -0.9190597 -0.1020048 0.3806889 -0.9190599 -0.1020048 0.3806889 -0.9190599 -0.1020048 0.3806889 -0.9190599 -0.2786838 0.2786838 -0.9190596 -0.2786838 0.2786838 -0.9190596 -0.2786838 0.2786838 -0.9190596 -0.2786838 0.2786838 -0.9190596 -0.2786838 0.2786838 -0.9190596 -0.2786838 0.2786838 -0.9190596 -0.3806888 0.1020044 -0.9190599 -0.3806888 0.1020044 -0.9190599 -0.3806888 0.1020044 -0.9190599 -0.380689 0.1020048 -0.9190598 -0.380689 0.1020048 -0.9190598 -0.380689 0.1020048 -0.9190598 -0.6008214 -0.1609889 -0.7830046 -0.6008214 -0.1609889 -0.7830046 -0.6008214 -0.1609889 -0.7830046 -0.6008191 -0.1609903 -0.7830061 -0.6008191 -0.1609903 -0.7830061 -0.6008191 -0.1609903 -0.7830061 -0.4398316 -0.4398316 -0.7830047 -0.4398316 -0.4398316 -0.7830047 -0.4398316 -0.4398316 -0.7830047 -0.4398315 -0.4398315 -0.7830048 -0.4398315 -0.4398315 -0.7830048 -0.4398315 -0.4398315 -0.7830048 -0.1609883 -0.6008193 -0.7830064 -0.1609883 -0.6008193 -0.7830064 -0.1609883 -0.6008193 -0.7830064 -0.1609907 -0.6008206 -0.7830049 -0.1609907 -0.6008206 -0.7830049 -0.1609907 -0.6008206 -0.7830049 0.1609889 -0.6008214 -0.7830046 0.1609889 -0.6008214 -0.7830046 0.1609889 -0.6008214 -0.7830046 0.1609903 -0.6008191 -0.7830061 0.1609903 -0.6008191 -0.7830061 0.1609903 -0.6008191 -0.7830061 0.4398316 -0.4398316 -0.7830047 0.4398316 -0.4398316 -0.7830047 0.4398316 -0.4398316 -0.7830047 0.4398315 -0.4398315 -0.7830048 0.4398315 -0.4398315 -0.7830048 0.4398315 -0.4398315 -0.7830048 0.6008193 -0.1609883 -0.7830064 0.6008193 -0.1609883 -0.7830064 0.6008193 -0.1609883 -0.7830064 0.6008206 -0.1609907 -0.7830049 0.6008206 -0.1609907 -0.7830049 0.6008206 -0.1609907 -0.7830049 0.6008214 0.1609889 -0.7830046 0.6008214 0.1609889 -0.7830046 0.6008214 0.1609889 -0.7830046 0.6008191 0.1609903 -0.7830061 0.6008191 0.1609903 -0.7830061 0.6008191 0.1609903 -0.7830061 0.4398316 0.4398316 -0.7830047 0.4398316 0.4398316 -0.7830047 0.4398316 0.4398316 -0.7830047 0.4398315 0.4398315 -0.7830048 0.4398315 0.4398315 -0.7830048 0.4398315 0.4398315 -0.7830048 0.1609883 0.6008193 -0.7830064 0.1609883 0.6008193 -0.7830064 0.1609883 0.6008193 -0.7830064 0.1609907 0.6008206 -0.7830049 0.1609907 0.6008206 -0.7830049 0.1609907 0.6008206 -0.7830049 -0.1609889 0.6008214 -0.7830046 -0.1609889 0.6008214 -0.7830046 -0.1609889 0.6008214 -0.7830046 -0.1609903 0.6008191 -0.7830061 -0.1609903 0.6008191 -0.7830061 -0.1609903 0.6008191 -0.7830061 -0.4398316 0.4398316 -0.7830047 -0.4398316 0.4398316 -0.7830047 -0.4398316 0.4398316 -0.7830047 -0.4398315 0.4398315 -0.7830048 -0.4398315 0.4398315 -0.7830048 -0.4398315 0.4398315 -0.7830048 -0.6008193 0.1609883 -0.7830064 -0.6008193 0.1609883 -0.7830064 -0.6008193 0.1609883 -0.7830064 -0.6008206 0.1609907 -0.7830049 -0.6008206 0.1609907 -0.7830049 -0.6008206 0.1609907 -0.7830049 -0.7760119 -0.2079334 -0.5954573 -0.7760119 -0.2079334 -0.5954573 -0.7760119 -0.2079334 -0.5954573 -0.7760146 -0.2079317 -0.5954542 -0.7760146 -0.2079317 -0.5954542 -0.7760146 -0.2079317 -0.5954542 -0.5680802 -0.5680802 -0.5954575 -0.5680802 -0.5680802 -0.5954575 -0.5680802 -0.5680802 -0.5954575 -0.5680802 -0.5680802 -0.5954575 -0.5680802 -0.5680802 -0.5954575 -0.5680802 -0.5680802 -0.5954575 -0.2079341 -0.7760143 -0.5954539 -0.2079341 -0.7760143 -0.5954539 -0.2079341 -0.7760143 -0.5954539 -0.2079311 -0.7760127 -0.595457 -0.2079311 -0.7760127 -0.595457 -0.2079311 -0.7760127 -0.595457 0.2079334 -0.7760119 -0.5954573 0.2079334 -0.7760119 -0.5954573 0.2079334 -0.7760119 -0.5954573 0.2079317 -0.7760146 -0.5954542 0.2079317 -0.7760146 -0.5954542 0.2079317 -0.7760146 -0.5954542 0.5680802 -0.5680802 -0.5954575 0.5680802 -0.5680802 -0.5954575 0.5680802 -0.5680802 -0.5954575 0.5680802 -0.5680802 -0.5954575 0.5680802 -0.5680802 -0.5954575 0.5680802 -0.5680802 -0.5954575 0.7760143 -0.2079341 -0.5954539 0.7760143 -0.2079341 -0.5954539 0.7760143 -0.2079341 -0.5954539 0.7760127 -0.2079311 -0.595457 0.7760127 -0.2079311 -0.595457 0.7760127 -0.2079311 -0.595457 0.7760119 0.2079334 -0.5954573 0.7760119 0.2079334 -0.5954573 0.7760119 0.2079334 -0.5954573 0.7760146 0.2079317 -0.5954542 0.7760146 0.2079317 -0.5954542 0.7760146 0.2079317 -0.5954542 0.5680802 0.5680802 -0.5954575 0.5680802 0.5680802 -0.5954575 0.5680802 0.5680802 -0.5954575 0.5680802 0.5680802 -0.5954575 0.5680802 0.5680802 -0.5954575 0.5680802 0.5680802 -0.5954575</float_array>
                    <technique_common>
                        <accessor count="840" source="#geometry0-normal-array" stride="3">
                            <param name="X" type="float"/>
                            <param name="Y" type="float"/>
                            <param name="Z" type="float"/>
                        </accessor>
                    </technique_common>
                </source>
                <vertices id="geometry0-vertex">
                    <input semantic="POSITION" source="#geometry0-position"/>
                </vertices>
                <triangles count="288" material="default_ai_0.2_sh_0.2_tr_0.0_dc_r_0.8_g_0.8_b_0.8_sc_r_1.0_g_1.0_b_1.0_ec_r_0.0_g_0.0_b_0_tri">
                    <input offset="0" semantic="VERTEX" source="#geometry0-vertex"/>
                    <input offset="1" semantic="NORMAL" source="#geometry0-normal"/>
                    <p>33 0 34 1 46 2 33 3 46 4 45 5 34 6 35 7 47 8 34 9 47 10 46 11 35 12 36 13 48 14 35 15 48 16 47 17 36 18 26 19 38 20 36 21 38 22 48 23 38 24 37 25 49 26 38 27 49 28 50 29 37 30 39 31 51 32 37 33 51 34 49 35 39 36 40 37 52 38 39 39 52 40 51 41 40 42 41 43 53 44 40 45 53 46 52 47 41 48 42 49 54 50 41 51 54 52 53 53 42 54 43 55 55 56 42 57 55 58 54 59 43 60 44 61 56 62 43 63 56 64 55 65 44 66 45 67 57 68 44 69 57 70 56 71 45 72 46 73 58 74 45 75 58 76 57 77 46 78 47 79 59 80 46 81 59 82 58 83 47 84 48 85 60 86 47 87 60 88 59 89 48 90 38 91 50 92 48 93 50 94 60 95 50 96 49 97 61 98 50 99 61 100 62 101 49 102 51 103 63 104 49 105 63 106 61 107 51 108 52 109 64 110 51 111 64 112 63 113 52 114 53 115 65 116 52 117 65 118 64 119 53 120 54 121 66 122 53 123 66 124 65 125 54 126 55 127 67 128 54 129 67 130 66 131 55 132 56 133 68 134 55 135 68 136 67 137 56 138 57 139 69 140 56 141 69 142 68 143 57 144 58 145 70 146 57 147 70 148 69 149 58 150 59 151 71 152 58 153 71 154 70 155 59 156 60 157 72 158 59 159 72 160 71 161 60 162 50 163 62 164 60 165 62 166 72 167 62 168 61 169 73 170 62 171 73 172 74 173 61 174 63 175 75 176 61 177 75 178 73 179 63 180 64 181 76 182 63 183 76 184 75 185 64 186 65 187 77 188 64 189 77 190 76 191 65 192 66 193 78 194 65 195 78 196 77 197 66 198 67 199 79 200 66 201 79 202 78 203 67 204 68 205 80 206 67 207 80 208 79 209 68 210 69 211 81 212 68 213 81 214 80 215 69 216 70 217 82 218 69 219 82 220 81 221 70 222 71 223 83 224 70 225 83 226 82 227 71 228 72 229 84 230 71 231 84 232 83 233 72 234 62 235 74 236 72 237 74 238 84 239 74 240 73 241 85 242 74 243 85 244 86 245 73 246 75 247 87 248 73 249 87 250 85 251 75 252 76 253 88 254 75 255 88 256 87 257 76 258 77 259 89 260 76 261 89 262 88 263 77 264 78 265 90 266 77 267 90 268 89 269 78 270 79 271 91 272 78 273 91 274 90 275 79 276 80 277 92 278 79 279 92 280 91 281 80 282 81 283 93 284 80 285 93 286 92 287 81 288 82 289 94 290 81 291 94 292 93 293 82 294 83 295 95 296 82 297 95 298 94 299 83 300 84 301 96 302 83 303 96 304 95 305 84 306 74 307 86 308 84 309 86 310 96 311 86 312 85 313 97 314 86 315 97 316 98 317 85 318 87 319 99 320 85 321 99 322 97 323 87 324 88 325 100 326 87 327 100 328 99 329 88 330 89 331 101 332 88 333 101 334 100 335 89 336 90 337 102 338 89 339 102 340 101 341 90 342 91 343 103 344 90 345 103 346 102 347 91 348 92 349 104 350 91 351 104 352 103 353 92 354 93 355 105 356 92 357 105 358 104 359 93 360 94 361 106 362 93 363 106 364 105 365 94 366 95 367 107 368 94 369 107 370 106 371 95 372 96 373 108 374 95 375 108 376 107 377 96 378 86 379 98 380 96 381 98 382 108 383 98 384 97 385 109 386 98 387 109 388 110 389 97 390 99 391 111 392 97 393 111 394 109 395 99 396 100 397 112 398 99 399 112 400 111 401 100 402 101 403 113 404 100 405 113 406 112 407 101 408 102 409 114 410 101 411 114 412 113 413 102 414 103 415 115 416 102 417 115 418 114 419 103 420 104 421 116 422 103 423 116 424 115 425 104 426 105 427 117 428 104 429 117 430 116 431 105 432 106 433 118 434 105 435 118 436 117 437 106 438 107 439 119 440 106 441 119 442 118 443 107 444 108 445 120 446 107 447 120 448 119 449 108 450 98 451 110 452 108 453 110 454 120 455 110 456 109 457 121 458 110 459 121 460 122 461 109 462 111 463 123 464 109 465 123 466 121 467 111 468 112 469 124 470 111 471 124 472 123 473 112 474 113 475 125 476 112 477 125 478 124 479 113 480 114 481 126 482 113 483 126 484 125 485 114 486 115 487 127 488 114 489 127 490 126 491 115 492 116 493 128 494 115 495 128 496 127 497 116 498 117 499 129 500 116 501 129 502 128 503 117 504 118 505 130 506 117 507 130 508 129 509 118 510 119 511 131 512 118 513 131 514 130 515 119 516 120 517 132 518 119 519 132 520 131 521 120 522 110 523 122 524 120 525 122 526 132 527 122 528 121 529 133 530 122 531 133 532 133 532 121 533 123 534 133 535 121 536 133 537 133 537 123 538 124 539 133 540 123 541 133 542 133 542 124 543 125 544 133 545 124 546 133 547 133 547 125 548 126 549 133 550 125 551 133 552 133 552 126 553 127 554 133 555 126 556 133 557 133 557 127 558 128 559 133 560 127 561 133 562 133 562 128 563 129 564 133 565 128 566 133 567 133 567 129 568 130 569 133 570 129 571 133 572 133 572 130 573 131 574 133 575 130 576 133 577 133 577 131 578 132 579 133 580 131 581 133 582 133 582 132 583 122 584 133 585 132 586 133 587 133 587 0 588 0 588 1 589 0 590 1 591 2 592 0 593 0 593 3 594 0 595 3 596 1 597 0 598 0 598 4 599 0 600 4 601 3 602 0 603 0 603 5 604 0 605 5 606 4 607 0 608 0 608 6 609 0 610 6 611 5 612 0 613 0 613 7 614 0 615 7 616 6 617 0 618 0 618 8 619 0 620 8 621 7 622 0 623 0 623 9 624 0 625 9 626 8 627 0 628 0 628 10 629 0 630 10 631 9 632 0 633 0 633 11 634 0 635 11 636 10 637 0 638 0 638 12 639 0 640 12 641 11 642 0 643 0 643 2 644 0 645 2 646 12 647 2 648 1 649 13 650 2 651 13 652 14 653 1 654 3 655 15 656 1 657 15 658 13 659 3 660 4 661 16 662 3 663 16 664 15 665 4 666 5 667 17 668 4 669 17 670 16 671 5 672 6 673 18 674 5 675 18 676 17 677 6 678 7 679 19 680 6 681 19 682 18 683 7 684 8 685 20 686 7 687 20 688 19 689 8 690 9 691 21 692 8 693 21 694 20 695 9 696 10 697 22 698 9 699 22 700 21 701 10 702 11 703 23 704 10 705 23 706 22 707 11 708 12 709 24 710 11 711 24 712 23 713 12 714 2 715 14 716 12 717 14 718 24 719 14 720 13 721 25 722 14 723 25 724 26 725 13 726 15 727 27 728 13 729 27 730 25 731 15 732 16 733 28 734 15 735 28 736 27 737 16 738 17 739 29 740 16 741 29 742 28 743 17 744 18 745 30 746 17 747 30 748 29 749 18 750 19 751 31 752 18 753 31 754 30 755 19 756 20 757 32 758 19 759 32 760 31 761 20 762 21 763 33 764 20 765 33 766 32 767 21 768 22 769 34 770 21 771 34 772 33 773 22 774 23 775 35 776 22 777 35 778 34 779 23 780 24 781 36 782 23 783 36 784 35 785 24 786 14 787 26 788 24 789 26 790 36 791 26 792 25 793 37 794 26 795 37 796 38 797 25 798 27 799 39 800 25 801 39 802 37 803 27 804 28 805 40 806 27 807 40 808 39 809 28 810 29 811 41 812 28 813 41 814 40 815 29 816 30 817 42 818 29 819 42 820 41 821 30 822 31 823 43 824 30 825 43 826 42 827 31 828 32 829 44 830 31 831 44 832 43 833 32 834 33 835 45 836 32 837 45 838 44 839</p>
                </triangles>
            </mesh>
        </geometry>
    </library_geometries>
    <library_visual_scenes>
        <visual_scene id="Building_26_CROWN2">
            <node>
                <instance_geometry url="#geometry0">
                    <bind_material>
                        <technique_common>
                            <instance_material symbol="default_ai_0.2_sh_0.2_tr_0.0_dc_r_0.8_g_0.8_b_0.8_sc_r_1.0_g_1.0_b_1.0_ec_r_0.0_g_0.0_b_0_tri" target="#default_ai_0.2_sh_0.2_tr_0.0_dc_r_0.8_g_0.8_b_0.8_sc_r_1.0_g_1.0_b_1.0_ec_r_0.0_g_0.0_b_0_mat"/>
                        </technique_common>
                    </bind_material>
                </instance_geometry>
            </node>
        </visual_scene>
    </library_visual_scenes>
    <scene>
        <instance_visual_scene url="#Building_26_CROWN2"/>
    </scene>
</COLLADA>
