<?xml version="1.0" encoding="UTF-8" standalone="yes"?>
<COLLADA xmlns="http://www.collada.org/2005/11/COLLADASchema" version="1.4.1">
    <asset>
        <contributor>
            <authoring_tool>3D City Database Importer/Exporter, version 5.5.3; Chair of Geoinformatics, Technical University of Munich</authoring_tool>
        </contributor>
        <created>2026-09-25T14:45:22.906</created>
        <modified>2026-09-25T14:45:22.906</modified>
        <unit meter="1.0" name="meters"/>
        <up_axis>Z_UP</up_axis>
    </asset>
    <library_materials>
        <material id="default_ai_0.2_sh_0.2_tr_0.0_dc_r_0.8_g_0.8_b_0.8_sc_r_1.0_g_1.0_b_1.0_ec_r_0.0_g_0.0_b_0_mat">
            <instance_effect url="#default_ai_0.2_sh_0.2_tr_0.0_dc_r_0.8_g_0.8_b_0.8_sc_r_1.0_g_1.0_b_1.0_ec_r_0.0_g_0.0_b_0_eff"/>
        </material>
    </library_materials>
    <library_effects>
        <effect id="default_ai_0.2_sh_0.2_tr_0.0_dc_r_0.8_g_0.8_b_0.8_sc_r_1.0_g_1.0_b_1.0_ec_r_0.0_g_0.0_b_0_eff">
            <profile_COMMON>
                <technique sid="COMMON">
                    <lambert>
                        <emission>
                            <color>0.0 0.0 0.0 1.0</color>
                        </emission>
                        <diffuse>
                            <color>0.8 0.8 0.8 1.0</color>
                        </diffuse>
                        <reflective>
                            <color>1.0 1.0 1.0 1.0</color>
                        </reflective>
                        <reflectivity>
                            <float>0.2</float>
                        </reflectivity>
                        <transparent opaque="A_ONE">
                            <color>1.0 1.0 1.0 1.0</color>
                        </transparent>
                        <transparency>
                            <float>1.0</float>
                        </transparency>
                    </lambert>
                </technique>
                <extra>
                    <technique profile="GOOGLEEARTH">
                        <double_sided>0</double_sided>
                    </technique>
                </extra>
            </profile_COMMON>
        </effect>
    </library_effects>
    <library_geometries>
        <geometry id="geometry0">
            <mesh>
                <source id="geometry0-position">
                    <float_array id="geometry0-position-array" count="402">0.0 0.0 3.7 0.4146664 0.2394085 3.6369631 0.4788151 0.0 3.6369631 0.2394085 0.4146664 3.6369631 0.0 0.4788152 3.6369631 -0.2394085 0.4146664 3.6369631 -0.4146664 0.2394085 3.6369631 -0.4788151 0.0 3.6369631 -0.4146664 -0.2394085 3.6369631 -0.2394085 -0.4146664 3.6369631 0.0 -0.4788152 3.6369631 0.2394085 -0.4146664 3.6369631 0.4146664 -0.2394085 3.6369631 0.8010741 0.4625 3.4521462 0.925 0.0 3.4521462 0.4625 0.8010741 3.4521462 0.0 0.925 3.4521462 -0.4625 0.8010741 3.4521462 -0.8010741 0.4625 3.4521462 -0.925 0.0 3.4521462 -0.8010741 -0.4625 3.4521462 -0.4625 -0.8010741 3.4521462 0.0 -0.925 3.4521462 0.4625 -0.8010741 3.4521462 0.8010741 -0.4625 3.4521462 1.1328882 0.6540731 3.1581461 1.3081479 0.0 3.1581461 0.6540731 1.1328882 3.1581461 0.0 1.308148 3.1581461 -0.6540731 1.1328882 3.1581461 -1.1328882 0.6540731 3.1581461 -1.3081479 0.0 3.1581461 -1.1328882 -0.6540731 3.1581461 -0.6540731 -1.1328882 3.1581461 0.0 -1.308148 3.1581461 0.6540731 -1.1328882 3.1581461 1.1328882 -0.6540731 3.1581461 1.3875 0.8010741 2.775 1.6021463 0.0 2.775 0.8010741 1.3875 2.775 0.0 1.6021463 2.775 -0.8010741 1.3875 2.775 -1.3875 0.8010741 2.775 -1.6021463 0.0 2.775 -1.3875 -0.8010741 2.775 -0.8010741 -1.3875 2.775 0.0 -1.6021463 2.775 0.8010741 -1.3875 2.775 1.3875 -0.8010741 2.775 1.5475546 0.8934815 2.3288151 1.7869631 0.0 2.3288151 0.8934815 1.5475546 2.3288151 0.0 1.7869631 2.3288151 -0.8934815 1.5475546 2.3288151 -1.5475546 0.8934815 2.3288151 -1.7869631 0.0 2.3288151 -1.5475546 -0.8934815 2.3288151 -0.8934815 -1.5475546 2.3288151 0.0 -1.7869631 2.3288151 0.8934815 -1.5475546 2.3288151 1.5475546 -0.8934815 2.3288151 1.6021463 0.925 1.85 1.85 0.0 1.85 0.925 1.6021463 1.85 0.0 1.85 1.85 -0.925 1.6021463 1.85 -1.6021463 0.925 1.85 -1.85 0.0 1.85 -1.6021463 -0.925 1.85 -0.925 -1.6021463 1.85 0.0 -1.85 1.85 0.925 -1.6021463 1.85 1.6021463 -0.925 1.85 1.5475546 0.8934815 1.3711848 1.7869631 0.0 1.3711848 0.8934815 1.5475546 1.3711848 0.0 1.7869631 1.3711848 -0.8934815 1.5475546 1.3711848 -1.5475546 0.8934815 1.3711848 -1.7869631 0.0 1.3711848 -1.5475546 -0.8934815 1.3711848 -0.8934815 -1.5475546 1.3711848 0.0 -1.7869631 1.3711848 0.8934815 -1.5475546 1.3711848 1.5475546 -0.8934815 1.3711848 1.3875 0.8010741 0.925 1.6021463 0.0 0.925 0.8010741 1.3875 0.925 0.0 1.6021463 0.925 -0.8010741 1.3875 0.925 -1.3875 0.8010741 0.925 -1.6021463 0.0 0.925 -1.3875 -0.8010741 0.925 -0.8010741 -1.3875 0.925 0.0 -1.6021463 0.925 0.8010741 -1.3875 0.925 1.3875 -0.8010741 0.925 1.1328882 0.6540731 0.5418521 1.3081479 0.0 0.5418521 0.6540731 1.1328882 0.5418521 0.0 1.308148 0.5418521 -0.6540731 1.1328882 0.5418521 -1.1328882 0.6540731 0.5418521 -1.3081479 0.0 0.5418521 -1.1328882 -0.6540731 0.5418521 -0.6540731 -1.1328882 0.5418521 0.0 -1.308148 0.5418521 0.6540731 -1.1328882 0.5418521 1.1328882 -0.6540731 0.5418521 0.8010741 0.4625 0.2478519 0.925 0.0 0.2478519 0.4625 0.8010741 0.2478519 0.0 0.925 0.2478519 -0.4625 0.8010741 0.2478519 -0.8010741 0.4625 0.2478519 -0.925 0.0 0.2478519 -0.8010741 -0.4625 0.2478519 -0.4625 -0.8010741 0.2478519 0.0 -0.925 0.2478519 0.4625 -0.8010741 0.2478519 0.8010741 -0.4625 0.2478519 0.4146664 0.2394085 0.0630369 0.4788151 0.0 0.0630369 0.2394085 0.4146664 0.0630369 0.0 0.4788152 0.0630369 -0.2394085 0.4146664 0.0630369 -0.4146664 0.2394085 0.0630369 -0.4788151 0.0 0.0630369 -0.4146664 -0.2394085 0.0630369 -0.2394085 -0.4146664 0.0630369 0.0 -0.4788152 0.0630369 0.2394085 -0.4146664 0.0630369 0.4146664 -0.2394085 0.0630369 0.0 0.0 0.0</float_array>
                    <technique_common>
                        <accessor count="134" source="#geometry0-position-array" stride="3">
                            <param name="X" type="float"/>
                            <param name="Y" type="float"/>
                            <param name="Z" type="float"/>
                        </accessor>
                    </technique_common>
                </source>
                <source id="geometry0-normal">
                    <float_array id="geometry0-normal-array" count="2520">-0.278684 -0.278684 -0.9190595 -0.278684 -0.278684 -0.9190595 -0.278684 -0.278684 -0.9190595 -0.278684 -0.278684 -0.9190595 -0.278684 -0.278684 -0.9190595 -0.278684 -0.278684 -0.9190595 -0.1020044 -0.3806891 -0.9190598 -0.1020044 -0.3806891 -0.9190598 -0.1020044 -0.3806891 -0.9190598 -0.102005 -0.3806893 -0.9190596 -0.102005 -0.3806893 -0.9190596 -0.102005 -0.3806893 -0.9190596 0.1020045 -0.3806896 -0.9190596 0.1020045 -0.3806896 -0.9190596 0.1020045 -0.3806896 -0.9190596 0.1020049 -0.3806891 -0.9190597 0.1020049 -0.3806891 -0.9190597 0.1020049 -0.3806891 -0.9190597 0.278684 -0.278684 -0.9190595 0.278684 -0.278684 -0.9190595 0.278684 -0.278684 -0.9190595 0.278684 -0.278684 -0.9190595 0.278684 -0.278684 -0.9190595 0.278684 -0.278684 -0.9190595 0.3806891 -0.1020044 -0.9190598 0.3806891 -0.1020044 -0.9190598 0.3806891 -0.1020044 -0.9190598 0.3806893 -0.102005 -0.9190596 0.3806893 -0.102005 -0.9190596 0.3806893 -0.102005 -0.9190596 0.3806896 0.1020045 -0.9190596 0.3806896 0.1020045 -0.9190596 0.3806896 0.1020045 -0.9190596 0.3806891 0.1020049 -0.9190597 0.3806891 0.1020049 -0.9190597 0.3806891 0.1020049 -0.9190597 0.278684 0.278684 -0.9190595 0.278684 0.278684 -0.9190595 0.278684 0.278684 -0.9190595 0.278684 0.278684 -0.9190595 0.278684 0.278684 -0.9190595 0.278684 0.278684 -0.9190595 0.1020044 0.3806891 -0.9190598 0.1020044 0.3806891 -0.9190598 0.1020044 0.3806891 -0.9190598 0.102005 0.3806893 -0.9190596 0.102005 0.3806893 -0.9190596 0.102005 0.3806893 -0.9190596 -0.1020045 0.3806896 -0.9190596 -0.1020045 0.3806896 -0.9190596 -0.1020045 0.3806896 -0.9190596 -0.1020049 0.3806891 -0.9190597 -0.1020049 0.3806891 -0.9190597 -0.1020049 0.3806891 -0.9190597 -0.278684 0.278684 -0.9190595 -0.278684 0.278684 -0.9190595 -0.278684 0.278684 -0.9190595 -0.278684 0.278684 -0.9190595 -0.278684 0.278684 -0.9190595 -0.278684 0.278684 -0.9190595 -0.3806891 0.1020044 -0.9190598 -0.3806891 0.1020044 -0.9190598 -0.3806891 0.1020044 -0.9190598 -0.3806893 0.102005 -0.9190596 -0.3806893 0.102005 -0.9190596 -0.3806893 0.102005 -0.9190596 -0.6008235 -0.1609895 -0.7830029 -0.6008235 -0.1609895 -0.7830029 -0.6008235 -0.1609895 -0.7830029 -0.6008212 -0.1609908 -0.7830043 -0.6008212 -0.1609908 -0.7830043 -0.6008212 -0.1609908 -0.7830043 -0.439833 -0.439833 -0.783003 -0.439833 -0.439833 -0.783003 -0.439833 -0.439833 -0.783003 -0.439833 -0.439833 -0.783003 -0.439833 -0.439833 -0.783003 -0.439833 -0.439833 -0.783003 -0.1609889 -0.6008214 -0.7830046 -0.1609889 -0.6008214 -0.7830046 -0.1609889 -0.6008214 -0.7830046 -0.1609912 -0.6008226 -0.7830032 -0.1609912 -0.6008226 -0.7830032 -0.1609912 -0.6008226 -0.7830032 0.1609895 -0.6008235 -0.7830029 0.1609895 -0.6008235 -0.7830029 0.1609895 -0.6008235 -0.7830029 0.1609908 -0.6008212 -0.7830043 0.1609908 -0.6008212 -0.7830043 0.1609908 -0.6008212 -0.7830043 0.439833 -0.439833 -0.783003 0.439833 -0.439833 -0.783003 0.439833 -0.439833 -0.783003 0.439833 -0.439833 -0.783003 0.439833 -0.439833 -0.783003 0.439833 -0.439833 -0.783003 0.6008214 -0.1609889 -0.7830046 0.6008214 -0.1609889 -0.7830046 0.6008214 -0.1609889 -0.7830046 0.6008226 -0.1609912 -0.7830032 0.6008226 -0.1609912 -0.7830032 0.6008226 -0.1609912 -0.7830032 0.6008235 0.1609895 -0.7830029 0.6008235 0.1609895 -0.7830029 0.6008235 0.1609895 -0.7830029 0.6008212 0.1609908 -0.7830043 0.6008212 0.1609908 -0.7830043 0.6008212 0.1609908 -0.7830043 0.439833 0.439833 -0.783003 0.439833 0.439833 -0.783003 0.439833 0.439833 -0.783003 0.439833 0.439833 -0.783003 0.439833 0.439833 -0.783003 0.439833 0.439833 -0.783003 0.1609889 0.6008214 -0.7830046 0.1609889 0.6008214 -0.7830046 0.1609889 0.6008214 -0.7830046 0.1609912 0.6008226 -0.7830032 0.1609912 0.6008226 -0.7830032 0.1609912 0.6008226 -0.7830032 -0.1609895 0.6008235 -0.7830029 -0.1609895 0.6008235 -0.7830029 -0.1609895 0.6008235 -0.7830029 -0.1609908 0.6008212 -0.7830043 -0.1609908 0.6008212 -0.7830043 -0.1609908 0.6008212 -0.7830043 -0.439833 0.439833 -0.783003 -0.439833 0.439833 -0.783003 -0.439833 0.439833 -0.783003 -0.439833 0.439833 -0.783003 -0.439833 0.439833 -0.783003 -0.439833 0.439833 -0.783003 -0.6008214 0.1609889 -0.7830046 -0.6008214 0.1609889 -0.7830046 -0.6008214 0.1609889 -0.7830046 -0.6008226 0.1609912 -0.7830032 -0.6008226 0.1609912 -0.7830032 -0.6008226 0.1609912 -0.7830032 -0.7760105 -0.207933 -0.5954592 -0.7760105 -0.207933 -0.5954592 -0.7760105 -0.207933 -0.5954592 -0.7760133 -0.2079313 -0.5954561 -0.7760133 -0.2079313 -0.5954561 -0.7760133 -0.2079313 -0.5954561 -0.5680793 -0.5680793 -0.5954595 -0.5680793 -0.5680793 -0.5954595 -0.5680793 -0.5680793 -0.5954595 -0.5680792 -0.5680792 -0.5954594 -0.5680792 -0.5680792 -0.5954594 -0.5680792 -0.5680792 -0.5954594 -0.2079337 -0.7760129 -0.5954558 -0.2079337 -0.7760129 -0.5954558 -0.2079337 -0.7760129 -0.5954558 -0.2079307 -0.7760113 -0.5954589 -0.2079307 -0.7760113 -0.5954589 -0.2079307 -0.7760113 -0.5954589 0.207933 -0.7760105 -0.5954592 0.207933 -0.7760105 -0.5954592 0.207933 -0.7760105 -0.5954592 0.2079313 -0.7760133 -0.5954561 0.2079313 -0.7760133 -0.5954561 0.2079313 -0.7760133 -0.5954561 0.5680793 -0.5680793 -0.5954595 0.5680793 -0.5680793 -0.5954595 0.5680793 -0.5680793 -0.5954595 0.5680792 -0.5680792 -0.5954594 0.5680792 -0.5680792 -0.5954594 0.5680792 -0.5680792 -0.5954594 0.7760129 -0.2079337 -0.5954558 0.7760129 -0.2079337 -0.5954558 0.7760129 -0.2079337 -0.5954558 0.7760113 -0.2079307 -0.5954589 0.7760113 -0.2079307 -0.5954589 0.7760113 -0.2079307 -0.5954589 0.7760105 0.207933 -0.5954592 0.7760105 0.207933 -0.5954592 0.7760105 0.207933 -0.5954592 0.7760133 0.2079313 -0.5954561 0.7760133 0.2079313 -0.5954561 0.7760133 0.2079313 -0.5954561 0.5680793 0.5680793 -0.5954595 0.5680793 0.5680793 -0.5954595 0.5680793 0.5680793 -0.5954595 0.5680792 0.5680792 -0.5954594 0.5680792 0.5680792 -0.5954594 0.5680792 0.5680792 -0.5954594 0.2079337 0.7760129 -0.5954558 0.2079337 0.7760129 -0.5954558 0.2079337 0.7760129 -0.5954558 0.2079307 0.7760113 -0.5954589 0.2079307 0.7760113 -0.5954589 0.2079307 0.7760113 -0.5954589 -0.207933 0.7760105 -0.5954592 -0.207933 0.7760105 -0.5954592 -0.207933 0.7760105 -0.5954592 -0.2079313 0.7760133 -0.5954561 -0.2079313 0.7760133 -0.5954561 -0.2079313 0.7760133 -0.5954561 -0.5680793 0.5680793 -0.5954595 -0.5680793 0.5680793 -0.5954595 -0.5680793 0.5680793 -0.5954595 -0.5680792 0.5680792 -0.5954594 -0.5680792 0.5680792 -0.5954594 -0.5680792 0.5680792 -0.5954594 -0.7760129 0.2079337 -0.5954558 -0.7760129 0.2079337 -0.5954558 -0.7760129 0.2079337 -0.5954558 -0.7760113 0.2079307 -0.5954589 -0.7760113 0.2079307 -0.5954589 -0.7760113 0.2079307 -0.5954589 -0.8968096 -0.2402984 -0.371469 -0.8968096 -0.2402984 -0.371469 -0.8968096 -0.2402984 -0.371469 -0.896808 -0.2402998 -0.3714721 -0.896808 -0.2402998 -0.3714721 -0.896808 -0.2402998 -0.3714721 -0.65651 -0.65651 -0.3714691 -0.65651 -0.65651 -0.3714691 -0.65651 -0.65651 -0.3714691 -0.65651 -0.65651 -0.3714691 -0.65651 -0.65651 -0.3714691 -0.65651 -0.65651 -0.3714691 -0.240298 -0.8968084 -0.3714722 -0.240298 -0.8968084 -0.3714722 -0.240298 -0.8968084 -0.3714722 -0.2403001 -0.896809 -0.3714692 -0.2403001 -0.896809 -0.3714692 -0.2403001 -0.896809 -0.3714692 0.2402984 -0.8968096 -0.371469 0.2402984 -0.8968096 -0.371469 0.2402984 -0.8968096 -0.371469 0.2402998 -0.896808 -0.3714721 0.2402998 -0.896808 -0.3714721 0.2402998 -0.896808 -0.3714721 0.65651 -0.65651 -0.3714691 0.65651 -0.65651 -0.3714691 0.65651 -0.65651 -0.3714691 0.65651 -0.65651 -0.3714691 0.65651 -0.65651 -0.3714691 0.65651 -0.65651 -0.3714691 0.8968084 -0.240298 -0.3714722 0.8968084 -0.240298 -0.3714722 0.8968084 -0.240298 -0.3714722 0.896809 -0.2403001 -0.3714692 0.896809 -0.2403001 -0.3714692 0.896809 -0.2403001 -0.3714692 0.8968096 0.2402984 -0.371469 0.8968096 0.2402984 -0.371469 0.8968096 0.2402984 -0.371469 0.896808 0.2402998 -0.3714721 0.896808 0.2402998 -0.3714721 0.896808 0.2402998 -0.3714721 0.65651 0.65651 -0.3714691 0.65651 0.65651 -0.3714691 0.65651 0.65651 -0.3714691 0.65651 0.65651 -0.3714691 0.65651 0.65651 -0.3714691 0.65651 0.65651 -0.3714691 0.240298 0.8968084 -0.3714722 0.240298 0.8968084 -0.3714722 0.240298 0.8968084 -0.3714722 0.2403001 0.896809 -0.3714692 0.2403001 0.896809 -0.3714692 0.2403001 0.896809 -0.3714692 -0.2402984 0.8968096 -0.371469 -0.2402984 0.8968096 -0.371469 -0.2402984 0.8968096 -0.371469 -0.2402998 0.896808 -0.3714721 -0.2402998 0.896808 -0.3714721 -0.2402998 0.896808 -0.3714721 -0.65651 0.65651 -0.3714691 -0.65651 0.65651 -0.3714691 -0.65651 0.65651 -0.3714691 -0.65651 0.65651 -0.3714691 -0.65651 0.65651 -0.3714691 -0.65651 0.65651 -0.3714691 -0.8968084 0.240298 -0.3714722 -0.8968084 0.240298 -0.3714722 -0.8968084 0.240298 -0.3714722 -0.896809 0.2403001 -0.3714692 -0.896809 0.2403001 -0.3714692 -0.896809 0.2403001 -0.3714692 -0.958209 -0.2567522 -0.1261502 -0.958209 -0.2567522 -0.1261502 -0.958209 -0.2567522 -0.1261502 -0.958209 -0.2567521 -0.12615 -0.958209 -0.2567521 -0.12615 -0.958209 -0.2567521 -0.12615 -0.7014578 -0.7014578 -0.1261501 -0.7014578 -0.7014578 -0.1261501 -0.7014578 -0.7014578 -0.1261501 -0.7014578 -0.7014578 -0.1261501 -0.7014578 -0.7014578 -0.1261501 -0.7014578 -0.7014578 -0.1261501 -0.2567522 -0.958209 -0.12615 -0.2567522 -0.958209 -0.12615 -0.2567522 -0.958209 -0.12615 -0.2567521 -0.958209 -0.1261502 -0.2567521 -0.958209 -0.1261502 -0.2567521 -0.958209 -0.1261502 0.2567522 -0.958209 -0.1261502 0.2567522 -0.958209 -0.1261502 0.2567522 -0.958209 -0.1261502 0.2567521 -0.958209 -0.12615 0.2567521 -0.958209 -0.12615 0.2567521 -0.958209 -0.12615 0.7014578 -0.7014578 -0.1261501 0.7014578 -0.7014578 -0.1261501 0.7014578 -0.7014578 -0.1261501 0.7014578 -0.7014578 -0.1261501 0.7014578 -0.7014578 -0.1261501 0.7014578 -0.7014578 -0.1261501 0.958209 -0.2567522 -0.12615 0.958209 -0.2567522 -0.12615 0.958209 -0.2567522 -0.12615 0.958209 -0.2567521 -0.1261502 0.958209 -0.2567521 -0.1261502 0.958209 -0.2567521 -0.1261502 0.958209 0.2567522 -0.1261502 0.958209 0.2567522 -0.1261502 0.958209 0.2567522 -0.1261502 0.958209 0.2567521 -0.12615 0.958209 0.2567521 -0.12615 0.958209 0.2567521 -0.12615 0.7014578 0.7014578 -0.1261501 0.7014578 0.7014578 -0.1261501 0.7014578 0.7014578 -0.1261501 0.7014578 0.7014578 -0.1261501 0.7014578 0.7014578 -0.1261501 0.7014578 0.7014578 -0.1261501 0.2567522 0.958209 -0.12615 0.2567522 0.958209 -0.12615 0.2567522 0.958209 -0.12615 0.2567521 0.958209 -0.1261502 0.2567521 0.958209 -0.1261502 0.2567521 0.958209 -0.1261502 -0.2567522 0.958209 -0.1261502 -0.2567522 0.958209 -0.1261502 -0.2567522 0.958209 -0.1261502 -0.2567521 0.958209 -0.12615 -0.2567521 0.958209 -0.12615 -0.2567521 0.958209 -0.12615 -0.7014578 0.7014578 -0.1261501 -0.7014578 0.7014578 -0.1261501 -0.7014578 0.7014578 -0.1261501 -0.7014578 0.7014578 -0.1261501 -0.7014578 0.7014578 -0.1261501 -0.7014578 0.7014578 -0.1261501 -0.958209 0.2567522 -0.12615 -0.958209 0.2567522 -0.12615 -0.958209 0.2567522 -0.12615 -0.958209 0.2567521 -0.1261502 -0.958209 0.2567521 -0.1261502 -0.958209 0.2567521 -0.1261502 -0.958209 -0.2567521 0.1261502 -0.958209 -0.2567521 0.1261502 -0.958209 -0.2567521 0.1261502 -0.958209 -0.2567522 0.12615 -0.958209 -0.2567522 0.12615 -0.958209 -0.2567522 0.12615 -0.7014578 -0.7014578 0.1261502 -0.7014578 -0.7014578 0.1261502 -0.7014578 -0.7014578 0.1261502 -0.7014578 -0.7014578 0.1261501 -0.7014578 -0.7014578 0.1261501 -0.7014578 -0.7014578 0.1261501 -0.2567521 -0.958209 0.12615 -0.2567521 -0.958209 0.12615 -0.2567521 -0.958209 0.12615 -0.2567522 -0.958209 0.1261502 -0.2567522 -0.958209 0.1261502 -0.2567522 -0.958209 0.1261502 0.2567521 -0.958209 0.1261502 0.2567521 -0.958209 0.1261502 0.2567521 -0.958209 0.1261502 0.2567522 -0.958209 0.12615 0.2567522 -0.958209 0.12615 0.2567522 -0.958209 0.12615 0.7014578 -0.7014578 0.1261502 0.7014578 -0.7014578 0.1261502 0.7014578 -0.7014578 0.1261502 0.7014578 -0.7014578 0.1261501 0.7014578 -0.7014578 0.1261501 0.7014578 -0.7014578 0.1261501 0.958209 -0.2567521 0.12615 0.958209 -0.2567521 0.12615 0.958209 -0.2567521 0.12615 0.958209 -0.2567522 0.1261502 0.958209 -0.2567522 0.1261502 0.958209 -0.2567522 0.1261502 0.958209 0.2567521 0.1261502 0.958209 0.2567521 0.1261502 0.958209 0.2567521 0.1261502 0.958209 0.2567522 0.12615 0.958209 0.2567522 0.12615 0.958209 0.2567522 0.12615 0.7014578 0.7014578 0.1261502 0.7014578 0.7014578 0.1261502 0.7014578 0.7014578 0.1261502 0.7014578 0.7014578 0.1261501 0.7014578 0.7014578 0.1261501 0.7014578 0.7014578 0.1261501 0.2567521 0.958209 0.12615 0.2567521 0.958209 0.12615 0.2567521 0.958209 0.12615 0.2567522 0.958209 0.1261502 0.2567522 0.958209 0.1261502 0.2567522 0.958209 0.1261502 -0.2567521 0.958209 0.1261502 -0.2567521 0.958209 0.1261502 -0.2567521 0.958209 0.1261502 -0.2567522 0.958209 0.12615 -0.2567522 0.958209 0.12615 -0.2567522 0.958209 0.12615 -0.7014578 0.7014578 0.1261502 -0.7014578 0.7014578 0.1261502 -0.7014578 0.7014578 0.1261502 -0.7014578 0.7014578 0.1261501 -0.7014578 0.7014578 0.1261501 -0.7014578 0.7014578 0.1261501 -0.958209 0.2567521 0.12615 -0.958209 0.2567521 0.12615 -0.958209 0.2567521 0.12615 -0.958209 0.2567522 0.1261502 -0.958209 0.2567522 0.1261502 -0.958209 0.2567522 0.1261502 -0.896809 -0.2403001 0.3714692 -0.896809 -0.2403001 0.3714692 -0.896809 -0.2403001 0.3714692 -0.8968084 -0.2402981 0.3714723 -0.8968084 -0.2402981 0.3714723 -0.8968084 -0.2402981 0.3714723 -0.6565099 -0.6565099 0.3714691 -0.6565099 -0.6565099 0.3714691 -0.6565099 -0.6565099 0.3714691 -0.65651 -0.65651 0.3714691 -0.65651 -0.65651 0.3714691 -0.65651 -0.65651 0.3714691 -0.2402998 -0.8968079 0.3714721 -0.2402998 -0.8968079 0.3714721 -0.2402998 -0.8968079 0.3714721 -0.2402984 -0.8968096 0.3714691 -0.2402984 -0.8968096 0.3714691 -0.2402984 -0.8968096 0.3714691 0.2403001 -0.896809 0.3714692 0.2403001 -0.896809 0.3714692 0.2403001 -0.896809 0.3714692 0.2402981 -0.8968084 0.3714723 0.2402981 -0.8968084 0.3714723 0.2402981 -0.8968084 0.3714723 0.6565099 -0.6565099 0.3714691 0.6565099 -0.6565099 0.3714691 0.6565099 -0.6565099 0.3714691 0.65651 -0.65651 0.3714691 0.65651 -0.65651 0.3714691 0.65651 -0.65651 0.3714691 0.8968079 -0.2402998 0.3714721 0.8968079 -0.2402998 0.3714721 0.8968079 -0.2402998 0.3714721 0.8968096 -0.2402984 0.3714691 0.8968096 -0.2402984 0.3714691 0.8968096 -0.2402984 0.3714691 0.896809 0.2403001 0.3714692 0.896809 0.2403001 0.3714692 0.896809 0.2403001 0.3714692 0.8968084 0.2402981 0.3714723 0.8968084 0.2402981 0.3714723 0.8968084 0.2402981 0.3714723 0.6565099 0.6565099 0.3714691 0.6565099 0.6565099 0.3714691 0.6565099 0.6565099 0.3714691 0.65651 0.65651 0.3714691 0.65651 0.65651 0.3714691 0.65651 0.65651 0.3714691 0.2402998 0.8968079 0.3714721 0.2402998 0.8968079 0.3714721 0.2402998 0.8968079 0.3714721 0.2402984 0.8968096 0.3714691 0.2402984 0.8968096 0.3714691 0.2402984 0.8968096 0.3714691 -0.2403001 0.896809 0.3714692 -0.2403001 0.896809 0.3714692 -0.2403001 0.896809 0.3714692 -0.2402981 0.8968084 0.3714723 -0.2402981 0.8968084 0.3714723 -0.2402981 0.8968084 0.3714723 -0.6565099 0.6565099 0.3714691 -0.6565099 0.6565099 0.3714691 -0.6565099 0.6565099 0.3714691 -0.65651 0.65651 0.3714691 -0.65651 0.65651 0.3714691 -0.65651 0.65651 0.3714691 -0.8968079 0.2402998 0.3714721 -0.8968079 0.2402998 0.3714721 -0.8968079 0.2402998 0.3714721 -0.8968096 0.2402984 0.3714691 -0.8968096 0.2402984 0.3714691 -0.8968096 0.2402984 0.3714691 -0.7760127 -0.2079311 0.5954568 -0.7760127 -0.2079311 0.5954568 -0.7760127 -0.2079311 0.5954568 -0.7760143 -0.207934 0.5954539 -0.7760143 -0.207934 0.5954539 -0.7760143 -0.207934 0.5954539 -0.5680803 -0.5680803 0.5954575 -0.5680803 -0.5680803 0.5954575 -0.5680803 -0.5680803 0.5954575 -0.5680803 -0.5680803 0.5954575 -0.5680803 -0.5680803 0.5954575 -0.5680803 -0.5680803 0.5954575 -0.2079316 -0.7760147 0.5954541 -0.2079316 -0.7760147 0.5954541 -0.2079316 -0.7760147 0.5954541 -0.2079334 -0.7760118 0.5954572 -0.2079334 -0.7760118 0.5954572 -0.2079334 -0.7760118 0.5954572 0.2079311 -0.7760127 0.5954568 0.2079311 -0.7760127 0.5954568 0.2079311 -0.7760127 0.5954568 0.207934 -0.7760143 0.5954539 0.207934 -0.7760143 0.5954539 0.207934 -0.7760143 0.5954539 0.5680803 -0.5680803 0.5954575 0.5680803 -0.5680803 0.5954575 0.5680803 -0.5680803 0.5954575 0.5680803 -0.5680803 0.5954575 0.5680803 -0.5680803 0.5954575 0.5680803 -0.5680803 0.5954575 0.7760147 -0.2079316 0.5954541 0.7760147 -0.2079316 0.5954541 0.7760147 -0.2079316 0.5954541 0.7760118 -0.2079334 0.5954572 0.7760118 -0.2079334 0.5954572 0.7760118 -0.2079334 0.5954572 0.7760127 0.2079311 0.5954568 0.7760127 0.2079311 0.5954568 0.7760127 0.2079311 0.5954568 0.7760143 0.207934 0.5954539 0.7760143 0.207934 0.5954539 0.7760143 0.207934 0.5954539 0.5680803 0.5680803 0.5954575 0.5680803 0.5680803 0.5954575 0.5680803 0.5680803 0.5954575 0.5680803 0.5680803 0.5954575 0.5680803 0.5680803 0.5954575 0.5680803 0.5680803 0.5954575 0.2079316 0.7760147 0.5954541 0.2079316 0.7760147 0.5954541 0.2079316 0.7760147 0.5954541 0.2079334 0.7760118 0.5954572 0.2079334 0.7760118 0.5954572 0.2079334 0.7760118 0.5954572 -0.2079311 0.7760127 0.5954568 -0.2079311 0.7760127 0.5954568 -0.2079311 0.7760127 0.5954568 -0.207934 0.7760143 0.5954539 -0.207934 0.7760143 0.5954539 -0.207934 0.7760143 0.5954539 -0.5680803 0.5680803 0.5954575 -0.5680803 0.5680803 0.5954575 -0.5680803 0.5680803 0.5954575 -0.5680803 0.5680803 0.5954575 -0.5680803 0.5680803 0.5954575 -0.5680803 0.5680803 0.5954575 -0.7760147 0.2079316 0.5954541 -0.7760147 0.2079316 0.5954541 -0.7760147 0.2079316 0.5954541 -0.7760118 0.2079334 0.5954572 -0.7760118 0.2079334 0.5954572 -0.7760118 0.2079334 0.5954572 -0.6008227 -0.1609912 0.7830032 -0.6008227 -0.1609912 0.7830032 -0.6008227 -0.1609912 0.7830032 -0.6008214 -0.1609889 0.7830046 -0.6008214 -0.1609889 0.7830046 -0.6008214 -0.1609889 0.7830046 -0.4398331 -0.4398331 0.783003 -0.4398331 -0.4398331 0.783003 -0.4398331 -0.4398331 0.783003 -0.439833 -0.439833 0.783003 -0.439833 -0.439833 0.783003 -0.439833 -0.439833 0.783003 -0.1609908 -0.6008212 0.7830043 -0.1609908 -0.6008212 0.7830043 -0.1609908 -0.6008212 0.7830043 -0.1609895 -0.6008235 0.7830029 -0.1609895 -0.6008235 0.7830029 -0.1609895 -0.6008235 0.7830029 0.1609912 -0.6008227 0.7830032 0.1609912 -0.6008227 0.7830032 0.1609912 -0.6008227 0.7830032 0.1609889 -0.6008214 0.7830046 0.1609889 -0.6008214 0.7830046 0.1609889 -0.6008214 0.7830046 0.4398331 -0.4398331 0.783003 0.4398331 -0.4398331 0.783003 0.4398331 -0.4398331 0.783003 0.439833 -0.439833 0.783003 0.439833 -0.439833 0.783003 0.439833 -0.439833 0.783003 0.6008212 -0.1609908 0.7830043 0.6008212 -0.1609908 0.7830043 0.6008212 -0.1609908 0.7830043 0.6008235 -0.1609895 0.7830029 0.6008235 -0.1609895 0.7830029 0.6008235 -0.1609895 0.7830029 0.6008227 0.1609912 0.7830032 0.6008227 0.1609912 0.7830032 0.6008227 0.1609912 0.7830032 0.6008214 0.1609889 0.7830046 0.6008214 0.1609889 0.7830046 0.6008214 0.1609889 0.7830046 0.4398331 0.4398331 0.783003 0.4398331 0.4398331 0.783003 0.4398331 0.4398331 0.783003 0.439833 0.439833 0.783003 0.439833 0.439833 0.783003 0.439833 0.439833 0.783003 0.1609908 0.6008212 0.7830043 0.1609908 0.6008212 0.7830043 0.1609908 0.6008212 0.7830043 0.1609895 0.6008235 0.7830029 0.1609895 0.6008235 0.7830029 0.1609895 0.6008235 0.7830029 -0.1609912 0.6008227 0.7830032 -0.1609912 0.6008227 0.7830032 -0.1609912 0.6008227 0.7830032 -0.1609889 0.6008214 0.7830046 -0.1609889 0.6008214 0.7830046 -0.1609889 0.6008214 0.7830046 -0.4398331 0.4398331 0.783003 -0.4398331 0.4398331 0.783003 -0.4398331 0.4398331 0.783003 -0.439833 0.439833 0.783003 -0.439833 0.439833 0.783003 -0.439833 0.439833 0.783003 -0.6008212 0.1609908 0.7830043 -0.6008212 0.1609908 0.7830043 -0.6008212 0.1609908 0.7830043 -0.6008235 0.1609895 0.7830029 -0.6008235 0.1609895 0.7830029 -0.6008235 0.1609895 0.7830029 -0.3806861 -0.1020041 0.9190611 -0.3806861 -0.1020041 0.9190611 -0.3806861 -0.1020041 0.9190611 -0.3806859 -0.1020035 0.9190612 -0.3806859 -0.1020035 0.9190612 -0.3806859 -0.1020035 0.9190612 -0.2786817 -0.2786817 0.9190609 -0.2786817 -0.2786817 0.9190609 -0.2786817 -0.2786817 0.9190609 -0.2786817 -0.2786817 0.9190609 -0.2786817 -0.2786817 0.9190609 -0.2786817 -0.2786817 0.9190609 -0.1020041 -0.3806859 0.9190612 -0.1020041 -0.3806859 0.9190612 -0.1020041 -0.3806859 0.9190612 -0.1020037 -0.3806863 0.919061 -0.1020037 -0.3806863 0.919061 -0.1020037 -0.3806863 0.919061 0.1020041 -0.3806861 0.9190611 0.1020041 -0.3806861 0.9190611 0.1020041 -0.3806861 0.9190611 0.1020035 -0.3806859 0.9190612 0.1020035 -0.3806859 0.9190612 0.1020035 -0.3806859 0.9190612 0.2786817 -0.2786817 0.9190609 0.2786817 -0.2786817 0.9190609 0.2786817 -0.2786817 0.9190609 0.2786817 -0.2786817 0.9190609 0.2786817 -0.2786817 0.9190609 0.2786817 -0.2786817 0.9190609 0.3806859 -0.1020041 0.9190612 0.3806859 -0.1020041 0.9190612 0.3806859 -0.1020041 0.9190612 0.3806863 -0.1020037 0.919061 0.3806863 -0.1020037 0.919061 0.3806863 -0.1020037 0.919061 0.3806861 0.1020041 0.9190611 0.3806861 0.1020041 0.9190611 0.3806861 0.1020041 0.9190611 0.3806859 0.1020035 0.9190612 0.3806859 0.1020035 0.9190612 0.3806859 0.1020035 0.9190612 0.2786817 0.2786817 0.9190609 0.2786817 0.2786817 0.9190609 0.2786817 0.2786817 0.9190609 0.2786817 0.2786817 0.9190609 0.2786817 0.2786817 0.9190609 0.2786817 0.2786817 0.9190609 0.1020041 0.3806859 0.9190612 0.1020041 0.3806859 0.9190612 0.1020041 0.3806859 0.9190612 0.1020037 0.3806863 0.919061 0.1020037 0.3806863 0.919061 0.1020037 0.3806863 0.919061 -0.1020041 0.3806861 0.9190611 -0.1020041 0.3806861 0.9190611 -0.1020041 0.3806861 0.9190611 -0.1020035 0.3806859 0.9190612 -0.1020035 0.3806859 0.9190612 -0.1020035 0.3806859 0.9190612 -0.2786817 0.2786817 0.9190609 -0.2786817 0.2786817 0.9190609 -0.2786817 0.2786817 0.9190609 -0.2786817 0.2786817 0.9190609 -0.2786817 0.2786817 0.9190609 -0.2786817 0.2786817 0.9190609 -0.3806859 0.1020041 0.9190612 -0.3806859 0.1020041 0.9190612 -0.3806859 0.1020041 0.9190612 -0.3806863 0.1020037 0.919061 -0.3806863 0.1020037 0.919061 -0.3806863 0.1020037 0.919061 -0.1304458 -0.0349525 0.9908391 -0.1304458 -0.0349525 0.9908391 -0.1304458 -0.0349525 0.9908391 1.0 0.0 0.0 1.0 0.0 0.0 -0.0954928 -0.0954928 0.9908392 -0.0954928 -0.0954928 0.9908392 -0.0954928 -0.0954928 0.9908392 1.0 0.0 0.0 1.0 0.0 0.0 -0.0349525 -0.1304458 0.9908391 -0.0349525 -0.1304458 0.9908391 -0.0349525 -0.1304458 0.9908391 1.0 0.0 0.0 1.0 0.0 0.0 0.0349525 -0.1304458 0.9908391 0.0349525 -0.1304458 0.9908391 0.0349525 -0.1304458 0.9908391 1.0 0.0 0.0 1.0 0.0 0.0 0.0954928 -0.0954928 0.9908392 0.0954928 -0.0954928 0.9908392 0.0954928 -0.0954928 0.9908392 1.0 0.0 0.0 1.0 0.0 0.0 0.1304458 -0.0349525 0.9908391 0.1304458 -0.0349525 0.9908391 0.1304458 -0.0349525 0.9908391 1.0 0.0 0.0 1.0 0.0 0.0 0.1304458 0.0349525 0.9908391 0.1304458 0.0349525 0.9908391 0.1304458 0.0349525 0.9908391 1.0 0.0 0.0 1.0 0.0 0.0 0.0954928 0.0954928 0.9908392 0.0954928 0.0954928 0.9908392 0.0954928 0.0954928 0.9908392 1.0 0.0 0.0 1.0 0.0 0.0 0.0349525 0.1304458 0.9908391 0.0349525 0.1304458 0.9908391 0.0349525 0.1304458 0.9908391 1.0 0.0 0.0 1.0 0.0 0.0 -0.0349525 0.1304458 0.9908391 -0.0349525 0.1304458 0.9908391 -0.0349525 0.1304458 0.9908391 1.0 0.0 0.0 1.0 0.0 0.0 -0.0954928 0.0954928 0.9908392 -0.0954928 0.0954928 0.9908392 -0.0954928 0.0954928 0.9908392 1.0 0.0 0.0 1.0 0.0 0.0 -0.1304458 0.0349525 0.9908391 -0.1304458 0.0349525 0.9908391 -0.1304458 0.0349525 0.9908391 1.0 0.0 0.0 1.0 0.0 0.0 1.0 0.0 0.0 1.0 0.0 0.0 -0.1304459 -0.0349525 -0.9908391 -0.1304459 -0.0349525 -0.9908391 -0.1304459 -0.0349525 -0.9908391 1.0 0.0 0.0 1.0 0.0 0.0 -0.0954928 -0.0954928 -0.9908391 -0.0954928 -0.0954928 -0.9908391 -0.0954928 -0.0954928 -0.9908391 1.0 0.0 0.0 1.0 0.0 0.0 -0.0349525 -0.1304458 -0.9908391 -0.0349525 -0.1304458 -0.9908391 -0.0349525 -0.1304458 -0.9908391 1.0 0.0 0.0 1.0 0.0 0.0 0.0349525 -0.1304459 -0.9908391 0.0349525 -0.1304459 -0.9908391 0.0349525 -0.1304459 -0.9908391 1.0 0.0 0.0 1.0 0.0 0.0 0.0954928 -0.0954928 -0.9908391 0.0954928 -0.0954928 -0.9908391 0.0954928 -0.0954928 -0.9908391 1.0 0.0 0.0 1.0 0.0 0.0 0.1304458 -0.0349525 -0.9908391 0.1304458 -0.0349525 -0.9908391 0.1304458 -0.0349525 -0.9908391 1.0 0.0 0.0 1.0 0.0 0.0 0.1304459 0.0349525 -0.9908391 0.1304459 0.0349525 -0.9908391 0.1304459 0.0349525 -0.9908391 1.0 0.0 0.0 1.0 0.0 0.0 0.0954928 0.0954928 -0.9908391 0.0954928 0.0954928 -0.9908391 0.0954928 0.0954928 -0.9908391 1.0 0.0 0.0 1.0 0.0 0.0 0.0349525 0.1304458 -0.9908391 0.0349525 0.1304458 -0.9908391 0.0349525 0.1304458 -0.9908391 1.0 0.0 0.0 1.0 0.0 0.0 -0.0349525 0.1304459 -0.9908391 -0.0349525 0.1304459 -0.9908391 -0.0349525 0.1304459 -0.9908391 1.0 0.0 0.0 1.0 0.0 0.0 -0.0954928 0.0954928 -0.9908391 -0.0954928 0.0954928 -0.9908391 -0.0954928 0.0954928 -0.9908391 1.0 0.0 0.0 1.0 0.0 0.0 -0.1304458 0.0349525 -0.9908391 -0.1304458 0.0349525 -0.9908391 -0.1304458 0.0349525 -0.9908391 -0.3806896 -0.1020045 -0.9190596 -0.3806896 -0.1020045 -0.9190596 -0.3806896 -0.1020045 -0.9190596 -0.3806891 -0.1020049 -0.9190597 -0.3806891 -0.1020049 -0.9190597 -0.3806891 -0.1020049 -0.9190597</float_array>
                    <technique_common>
                        <accessor count="840" source="#geometry0-normal-array" stride="3">
                            <param name="X" type="float"/>
                            <param name="Y" type="float"/>
                            <param name="Z" type="float"/>
                        </accessor>
                    </technique_common>
                </source>
                <vertices id="geometry0-vertex">
                    <input semantic="POSITION" source="#geometry0-position"/>
                </vertices>
                <triangles count="288" material="default_ai_0.2_sh_0.2_tr_0.0_dc_r_0.8_g_0.8_b_0.8_sc_r_1.0_g_1.0_b_1.0_ec_r_0.0_g_0.0_b_0_tri">
                    <input offset="0" semantic="VERTEX" source="#geometry0-vertex"/>
                    <input offset="1" semantic="NORMAL" source="#geometry0-normal"/>
                    <p>1 0 3 1 15 2 1 3 15 4 13 5 3 6 4 7 16 8 3 9 16 10 15 11 4 12 5 13 17 14 4 15 17 16 16 17 5 18 6 19 18 20 5 21 18 22 17 23 6 24 7 25 19 26 6 27 19 28 18 29 7 30 8 31 20 32 7 33 20 34 19 35 8 36 9 37 21 38 8 39 21 40 20 41 9 42 10 43 22 44 9 45 22 46 21 47 10 48 11 49 23 50 10 51 23 52 22 53 11 54 12 55 24 56 11 57 24 58 23 59 12 60 2 61 14 62 12 63 14 64 24 65 14 66 13 67 25 68 14 69 25 70 26 71 13 72 15 73 27 74 13 75 27 76 25 77 15 78 16 79 28 80 15 81 28 82 27 83 16 84 17 85 29 86 16 87 29 88 28 89 17 90 18 91 30 92 17 93 30 94 29 95 18 96 19 97 31 98 18 99 31 100 30 101 19 102 20 103 32 104 19 105 32 106 31 107 20 108 21 109 33 110 20 111 33 112 32 113 21 114 22 115 34 116 21 117 34 118 33 119 22 120 23 121 35 122 22 123 35 124 34 125 23 126 24 127 36 128 23 129 36 130 35 131 24 132 14 133 26 134 24 135 26 136 36 137 26 138 25 139 37 140 26 141 37 142 38 143 25 144 27 145 39 146 25 147 39 148 37 149 27 150 28 151 40 152 27 153 40 154 39 155 28 156 29 157 41 158 28 159 41 160 40 161 29 162 30 163 42 164 29 165 42 166 41 167 30 168 31 169 43 170 30 171 43 172 42 173 31 174 32 175 44 176 31 177 44 178 43 179 32 180 33 181 45 182 32 183 45 184 44 185 33 186 34 187 46 188 33 189 46 190 45 191 34 192 35 193 47 194 34 195 47 196 46 197 35 198 36 199 48 200 35 201 48 202 47 203 36 204 26 205 38 206 36 207 38 208 48 209 38 210 37 211 49 212 38 213 49 214 50 215 37 216 39 217 51 218 37 219 51 220 49 221 39 222 40 223 52 224 39 225 52 226 51 227 40 228 41 229 53 230 40 231 53 232 52 233 41 234 42 235 54 236 41 237 54 238 53 239 42 240 43 241 55 242 42 243 55 244 54 245 43 246 44 247 56 248 43 249 56 250 55 251 44 252 45 253 57 254 44 255 57 256 56 257 45 258 46 259 58 260 45 261 58 262 57 263 46 264 47 265 59 266 46 267 59 268 58 269 47 270 48 271 60 272 47 273 60 274 59 275 48 276 38 277 50 278 48 279 50 280 60 281 50 282 49 283 61 284 50 285 61 286 62 287 49 288 51 289 63 290 49 291 63 292 61 293 51 294 52 295 64 296 51 297 64 298 63 299 52 300 53 301 65 302 52 303 65 304 64 305 53 306 54 307 66 308 53 309 66 310 65 311 54 312 55 313 67 314 54 315 67 316 66 317 55 318 56 319 68 320 55 321 68 322 67 323 56 324 57 325 69 326 56 327 69 328 68 329 57 330 58 331 70 332 57 333 70 334 69 335 58 336 59 337 71 338 58 339 71 340 70 341 59 342 60 343 72 344 59 345 72 346 71 347 60 348 50 349 62 350 60 351 62 352 72 353 62 354 61 355 73 356 62 357 73 358 74 359 61 360 63 361 75 362 61 363 75 364 73 365 63 366 64 367 76 368 63 369 76 370 75 371 64 372 65 373 77 374 64 375 77 376 76 377 65 378 66 379 78 380 65 381 78 382 77 383 66 384 67 385 79 386 66 387 79 388 78 389 67 390 68 391 80 392 67 393 80 394 79 395 68 396 69 397 81 398 68 399 81 400 80 401 69 402 70 403 82 404 69 405 82 406 81 407 70 408 71 409 83 410 70 411 83 412 82 413 71 414 72 415 84 416 71 417 84 418 83 419 72 420 62 421 74 422 72 423 74 424 84 425 74 426 73 427 85 428 74 429 85 430 86 431 73 432 75 433 87 434 73 435 87 436 85 437 75 438 76 439 88 440 75 441 88 442 87 443 76 444 77 445 89 446 76 447 89 448 88 449 77 450 78 451 90 452 77 453 90 454 89 455 78 456 79 457 91 458 78 459 91 460 90 461 79 462 80 463 92 464 79 465 92 466 91 467 80 468 81 469 93 470 80 471 93 472 92 473 81 474 82 475 94 476 81 477 94 478 93 479 82 480 83 481 95 482 82 483 95 484 94 485 83 486 84 487 96 488 83 489 96 490 95 491 84 492 74 493 86 494 84 495 86 496 96 497 86 498 85 499 97 500 86 501 97 502 98 503 85 504 87 505 99 506 85 507 99 508 97 509 87 510 88 511 100 512 87 513 100 514 99 515 88 516 89 517 101 518 88 519 101 520 100 521 89 522 90 523 102 524 89 525 102 526 101 527 90 528 91 529 103 530 90 531 103 532 102 533 91 534 92 535 104 536 91 537 104 538 103 539 92 540 93 541 105 542 92 543 105 544 104 545 93 546 94 547 106 548 93 549 106 550 105 551 94 552 95 553 107 554 94 555 107 556 106 557 95 558 96 559 108 560 95 561 108 562 107 563 96 564 86 565 98 566 96 567 98 568 108 569 98 570 97 571 109 572 98 573 109 574 110 575 97 576 99 577 111 578 97 579 111 580 109 581 99 582 100 583 112 584 99 585 112 586 111 587 100 588 101 589 113 590 100 591 113 592 112 593 101 594 102 595 114 596 101 597 114 598 113 599 102 600 103 601 115 602 102 603 115 604 114 605 103 606 104 607 116 608 103 609 116 610 115 611 104 612 105 613 117 614 104 615 117 616 116 617 105 618 106 619 118 620 105 621 118 622 117 623 106 624 107 625 119 626 106 627 119 628 118 629 107 630 108 631 120 632 107 633 120 634 119 635 108 636 98 637 110 638 108 639 110 640 120 641 110 642 109 643 121 644 110 645 121 646 122 647 109 648 111 649 123 650 109 651 123 652 121 653 111 654 112 655 124 656 111 657 124 658 123 659 112 660 113 661 125 662 112 663 125 664 124 665 113 666 114 667 126 668 113 669 126 670 125 671 114 672 115 673 127 674 114 675 127 676 126 677 115 678 116 679 128 680 115 681 128 682 127 683 116 684 117 685 129 686 116 687 129 688 128 689 117 690 118 691 130 692 117 693 130 694 129 695 118 696 119 697 131 698 118 699 131 700 130 701 119 702 120 703 132 704 119 705 132 706 131 707 120 708 110 709 122 710 120 711 122 712 132 713 122 714 121 715 133 716 122 717 133 718 133 718 121 719 123 720 133 721 121 722 133 723 133 723 123 724 124 725 133 726 123 727 133 728 133 728 124 729 125 730 133 731 124 732 133 733 133 733 125 734 126 735 133 736 125 737 133 738 133 738 126 739 127 740 133 741 126 742 133 743 133 743 127 744 128 745 133 746 127 747 133 748 133 748 128 749 129 750 133 751 128 752 133 753 133 753 129 754 130 755 133 756 129 757 133 758 133 758 130 759 131 760 133 761 130 762 133 763 133 763 131 764 132 765 133 766 131 767 133 768 133 768 132 769 122 770 133 771 132 772 133 773 133 773 0 774 0 774 1 775 0 776 1 777 2 778 0 779 0 779 3 780 0 781 3 782 1 783 0 784 0 784 4 785 0 786 4 787 3 788 0 789 0 789 5 790 0 791 5 792 4 793 0 794 0 794 6 795 0 796 6 797 5 798 0 799 0 799 7 800 0 801 7 802 6 803 0 804 0 804 8 805 0 806 8 807 7 808 0 809 0 809 9 810 0 811 9 812 8 813 0 814 0 814 10 815 0 816 10 817 9 818 0 819 0 819 11 820 0 821 11 822 10 823 0 824 0 824 12 825 0 826 12 827 11 828 0 829 0 829 2 830 0 831 2 832 12 833 2 834 1 835 13 836 2 837 13 838 14 839</p>
                </triangles>
            </mesh>
        </geometry>
    </library_geometries>
    <library_visual_scenes>
        <visual_scene id="Building_131_CROWN1">
            <node>
                <instance_geometry url="#geometry0">
                    <bind_material>
                        <technique_common>
                            <instance_material symbol="default_ai_0.2_sh_0.2_tr_0.0_dc_r_0.8_g_0.8_b_0.8_sc_r_1.0_g_1.0_b_1.0_ec_r_0.0_g_0.0_b_0_tri" target="#default_ai_0.2_sh_0.2_tr_0.0_dc_r_0.8_g_0.8_b_0.8_sc_r_1.0_g_1.0_b_1.0_ec_r_0.0_g_0.0_b_0_mat"/>
                        </technique_common>
                    </bind_material>
                </instance_geometry>
            </node>
        </visual_scene>
    </library_visual_scenes>
    <scene>
        <instance_visual_scene url="#Building_131_CROWN1"/>
    </scene>
</COLLADA>
