<?xml version="1.0" encoding="UTF-8" standalone="yes"?>
<COLLADA xmlns="http://www.collada.org/2005/11/COLLADASchema" version="1.4.1">
    <asset>
        <contributor>
            <authoring_tool>3D City Database Importer/Exporter, version 5.5.3; Chair of Geoinformatics, Technical University of Munich</authoring_tool>
        </contributor>
        <created>2026-09-25T14:44:38.187</created>
        <modified>2026-09-25T14:44:38.187</modified>
        <unit meter="1.0" name="meters"/>
        <up_axis>Z_UP</up_axis>
    </asset>
    <library_materials>
        <material id="default_ai_0.2_sh_0.2_tr_0.0_dc_r_0.8_g_0.8_b_0.8_sc_r_1.0_g_1.0_b_1.0_ec_r_0.0_g_0.0_b_0_mat">
            <instance_effect url="#default_ai_0.2_sh_0.2_tr_0.0_dc_r_0.8_g_0.8_b_0.8_sc_r_1.0_g_1.0_b_1.0_ec_r_0.0_g_0.0_b_0_eff"/>
        </material>
    </library_materials>
    <library_effects>
        <effect id="default_ai_0.2_sh_0.2_tr_0.0_dc_r_0.8_g_0.8_b_0.8_sc_r_1.0_g_1.0_b_1.0_ec_r_0.0_g_0.0_b_0_eff">
            <profile_COMMON>
                <technique sid="COMMON">
                    <lambert>
                        <emission>
                            <color>0.0 0.0 0.0 1.0</color>
                        </emission>
                        <diffuse>
                            <color>0.8 0.8 0.8 1.0</color>
                        </diffuse>
                        <reflective>
                            <color>1.0 1.0 1.0 1.0</color>
                        </reflective>
                        <reflectivity>
                            <float>0.2</float>
                        </reflectivity>
                        <transparent opaque="A_ONE">
                            <color>1.0 1.0 1.0 1.0</color>
                        </transparent>
                        <transparency>
                            <float>1.0</float>
                        </transparency>
                    </lambert>
                </technique>
                <extra>
                    <technique profile="GOOGLEEARTH">
                        <double_sided>0</double_sided>
                    </technique>
                </extra>
            </profile_COMMON>
        </effect>
    </library_effects>
    <library_geometries>
        <geometry id="geometry0">
            <mesh>
                <source id="geometry0-position">
                    <float_array id="geometry0-position-array" count="402">0.0 0.0 2.1 0.2353512 0.1358805 2.0642223 0.2717599 0.0 2.0642223 0.1358805 0.2353512 2.0642223 0.0 0.2717599 2.0642223 -0.1358805 0.2353512 2.0642223 -0.2353512 0.1358805 2.0642223 -0.2717599 0.0 2.0642223 -0.2353512 -0.1358805 2.0642223 -0.1358805 -0.2353512 2.0642223 0.0 -0.2717599 2.0642223 0.1358805 -0.2353512 2.0642223 0.2353512 -0.1358805 2.0642223 0.4546637 0.2625 1.9593262 0.525 0.0 1.9593262 0.2625 0.4546637 1.9593262 0.0 0.525 1.9593262 -0.2625 0.4546637 1.9593262 -0.4546637 0.2625 1.9593262 -0.525 0.0 1.9593262 -0.4546637 -0.2625 1.9593262 -0.2625 -0.4546637 1.9593262 0.0 -0.525 1.9593262 0.2625 -0.4546637 1.9593262 0.4546637 -0.2625 1.9593262 0.6429906 0.3712306 1.7924624 0.7424623 0.0 1.7924624 0.3712306 0.6429906 1.7924624 0.0 0.7424624 1.7924624 -0.3712306 0.6429906 1.7924624 -0.6429906 0.3712306 1.7924624 -0.7424623 0.0 1.7924624 -0.6429906 -0.3712306 1.7924624 -0.3712306 -0.6429906 1.7924624 0.0 -0.7424624 1.7924624 0.3712306 -0.6429906 1.7924624 0.6429906 -0.3712306 1.7924624 0.7875 0.4546637 1.575 0.9093263 0.0 1.575 0.4546637 0.7875 1.575 0.0 0.9093262 1.575 -0.4546637 0.7875 1.575 -0.7875 0.4546637 1.575 -0.9093263 0.0 1.575 -0.7875 -0.4546637 1.575 -0.4546637 -0.7875 1.575 0.0 -0.9093262 1.575 0.4546637 -0.7875 1.575 0.7875 -0.4546637 1.575 0.8783418 0.5071111 1.32176 1.0142223 0.0 1.32176 0.5071112 0.8783418 1.32176 0.0 1.0142223 1.32176 -0.5071112 0.8783418 1.32176 -0.8783418 0.5071111 1.32176 -1.0142223 0.0 1.32176 -0.8783418 -0.5071111 1.32176 -0.5071112 -0.8783418 1.32176 0.0 -1.0142223 1.32176 0.5071112 -0.8783418 1.32176 0.8783418 -0.5071111 1.32176 0.9093263 0.525 1.05 1.05 0.0 1.05 0.525 0.9093262 1.05 0.0 1.05 1.05 -0.525 0.9093262 1.05 -0.9093263 0.525 1.05 -1.05 0.0 1.05 -0.9093263 -0.525 1.05 -0.525 -0.9093262 1.05 0.0 -1.05 1.05 0.525 -0.9093262 1.05 0.9093263 -0.525 1.05 0.8783418 0.5071111 0.77824 1.0142223 0.0 0.77824 0.5071112 0.8783418 0.77824 0.0 1.0142223 0.77824 -0.5071112 0.8783418 0.77824 -0.8783418 0.5071111 0.77824 -1.0142223 0.0 0.77824 -0.8783418 -0.5071111 0.77824 -0.5071112 -0.8783418 0.77824 0.0 -1.0142223 0.77824 0.5071112 -0.8783418 0.77824 0.8783418 -0.5071111 0.77824 0.7875 0.4546637 0.525 0.9093263 0.0 0.525 0.4546637 0.7875 0.525 0.0 0.9093262 0.525 -0.4546637 0.7875 0.525 -0.7875 0.4546637 0.525 -0.9093263 0.0 0.525 -0.7875 -0.4546637 0.525 -0.4546637 -0.7875 0.525 0.0 -0.9093262 0.525 0.4546637 -0.7875 0.525 0.7875 -0.4546637 0.525 0.6429906 0.3712306 0.3075376 0.7424623 0.0 0.3075376 0.3712306 0.6429906 0.3075376 0.0 0.7424624 0.3075376 -0.3712306 0.6429906 0.3075376 -0.6429906 0.3712306 0.3075376 -0.7424623 0.0 0.3075376 -0.6429906 -0.3712306 0.3075376 -0.3712306 -0.6429906 0.3075376 0.0 -0.7424624 0.3075376 0.3712306 -0.6429906 0.3075376 0.6429906 -0.3712306 0.3075376 0.4546637 0.2625 0.1406737 0.525 0.0 0.1406737 0.2625 0.4546637 0.1406737 0.0 0.525 0.1406737 -0.2625 0.4546637 0.1406737 -0.4546637 0.2625 0.1406737 -0.525 0.0 0.1406737 -0.4546637 -0.2625 0.1406737 -0.2625 -0.4546637 0.1406737 0.0 -0.525 0.1406737 0.2625 -0.4546637 0.1406737 0.4546637 -0.2625 0.1406737 0.2353512 0.1358805 0.0357777 0.2717599 0.0 0.0357777 0.1358805 0.2353512 0.0357777 0.0 0.2717599 0.0357777 -0.1358805 0.2353512 0.0357777 -0.2353512 0.1358805 0.0357777 -0.2717599 0.0 0.0357777 -0.2353512 -0.1358805 0.0357777 -0.1358805 -0.2353512 0.0357777 0.0 -0.2717599 0.0357777 0.1358805 -0.2353512 0.0357777 0.2353512 -0.1358805 0.0357777 0.0 0.0 0.0</float_array>
                    <technique_common>
                        <accessor count="134" source="#geometry0-position-array" stride="3">
                            <param name="X" type="float"/>
                            <param name="Y" type="float"/>
                            <param name="Z" type="float"/>
                        </accessor>
                    </technique_common>
                </source>
                <source id="geometry0-normal">
                    <float_array id="geometry0-normal-array" count="2520">-0.1609902 -0.6008188 0.7830063 -0.1609902 -0.6008188 0.7830063 -0.1609902 -0.6008188 0.7830063 -0.1609887 -0.6008212 0.7830048 -0.1609887 -0.6008212 0.7830048 -0.1609887 -0.6008212 0.7830048 0.1609906 -0.6008204 0.7830051 0.1609906 -0.6008204 0.7830051 0.1609906 -0.6008204 0.7830051 0.1609882 -0.600819 0.7830065 0.1609882 -0.600819 0.7830065 0.1609882 -0.600819 0.7830065 0.4398314 -0.4398314 0.7830049 0.4398314 -0.4398314 0.7830049 0.4398314 -0.4398314 0.7830049 0.4398313 -0.4398313 0.7830049 0.4398313 -0.4398313 0.7830049 0.4398313 -0.4398313 0.7830049 0.6008188 -0.1609902 0.7830063 0.6008188 -0.1609902 0.7830063 0.6008188 -0.1609902 0.7830063 0.6008212 -0.1609887 0.7830048 0.6008212 -0.1609887 0.7830048 0.6008212 -0.1609887 0.7830048 0.6008204 0.1609906 0.7830051 0.6008204 0.1609906 0.7830051 0.6008204 0.1609906 0.7830051 0.600819 0.1609882 0.7830065 0.600819 0.1609882 0.7830065 0.600819 0.1609882 0.7830065 0.4398314 0.4398314 0.7830049 0.4398314 0.4398314 0.7830049 0.4398314 0.4398314 0.7830049 0.4398313 0.4398313 0.7830049 0.4398313 0.4398313 0.7830049 0.4398313 0.4398313 0.7830049 0.1609902 0.6008188 0.7830063 0.1609902 0.6008188 0.7830063 0.1609902 0.6008188 0.7830063 0.1609887 0.6008212 0.7830048 0.1609887 0.6008212 0.7830048 0.1609887 0.6008212 0.7830048 -0.1609906 0.6008204 0.7830051 -0.1609906 0.6008204 0.7830051 -0.1609906 0.6008204 0.7830051 -0.1609882 0.600819 0.7830065 -0.1609882 0.600819 0.7830065 -0.1609882 0.600819 0.7830065 -0.4398314 0.4398314 0.7830049 -0.4398314 0.4398314 0.7830049 -0.4398314 0.4398314 0.7830049 -0.4398313 0.4398313 0.7830049 -0.4398313 0.4398313 0.7830049 -0.4398313 0.4398313 0.7830049 -0.6008188 0.1609902 0.7830063 -0.6008188 0.1609902 0.7830063 -0.6008188 0.1609902 0.7830063 -0.6008212 0.1609887 0.7830048 -0.6008212 0.1609887 0.7830048 -0.6008212 0.1609887 0.7830048 -0.3806894 -0.1020049 0.9190596 -0.3806894 -0.1020049 0.9190596 -0.3806894 -0.1020049 0.9190596 -0.3806892 -0.1020045 0.9190598 -0.3806892 -0.1020045 0.9190598 -0.3806892 -0.1020045 0.9190598 -0.278684 -0.278684 0.9190595 -0.278684 -0.278684 0.9190595 -0.278684 -0.278684 0.9190595 -0.278684 -0.278684 0.9190595 -0.278684 -0.278684 0.9190595 -0.278684 -0.278684 0.9190595 -0.1020049 -0.3806892 0.9190597 -0.1020049 -0.3806892 0.9190597 -0.1020049 -0.3806892 0.9190597 -0.1020046 -0.3806896 0.9190596 -0.1020046 -0.3806896 0.9190596 -0.1020046 -0.3806896 0.9190596 0.1020049 -0.3806894 0.9190596 0.1020049 -0.3806894 0.9190596 0.1020049 -0.3806894 0.9190596 0.1020045 -0.3806892 0.9190598 0.1020045 -0.3806892 0.9190598 0.1020045 -0.3806892 0.9190598 0.278684 -0.278684 0.9190595 0.278684 -0.278684 0.9190595 0.278684 -0.278684 0.9190595 0.278684 -0.278684 0.9190595 0.278684 -0.278684 0.9190595 0.278684 -0.278684 0.9190595 0.3806892 -0.1020049 0.9190597 0.3806892 -0.1020049 0.9190597 0.3806892 -0.1020049 0.9190597 0.3806896 -0.1020046 0.9190596 0.3806896 -0.1020046 0.9190596 0.3806896 -0.1020046 0.9190596 0.3806894 0.1020049 0.9190596 0.3806894 0.1020049 0.9190596 0.3806894 0.1020049 0.9190596 0.3806892 0.1020045 0.9190598 0.3806892 0.1020045 0.9190598 0.3806892 0.1020045 0.9190598 0.278684 0.278684 0.9190595 0.278684 0.278684 0.9190595 0.278684 0.278684 0.9190595 0.278684 0.278684 0.9190595 0.278684 0.278684 0.9190595 0.278684 0.278684 0.9190595 0.1020049 0.3806892 0.9190597 0.1020049 0.3806892 0.9190597 0.1020049 0.3806892 0.9190597 0.1020046 0.3806896 0.9190596 0.1020046 0.3806896 0.9190596 0.1020046 0.3806896 0.9190596 -0.1020049 0.3806894 0.9190596 -0.1020049 0.3806894 0.9190596 -0.1020049 0.3806894 0.9190596 -0.1020045 0.3806892 0.9190598 -0.1020045 0.3806892 0.9190598 -0.1020045 0.3806892 0.9190598 -0.278684 0.278684 0.9190595 -0.278684 0.278684 0.9190595 -0.278684 0.278684 0.9190595 -0.278684 0.278684 0.9190595 -0.278684 0.278684 0.9190595 -0.278684 0.278684 0.9190595 -0.3806892 0.1020049 0.9190597 -0.3806892 0.1020049 0.9190597 -0.3806892 0.1020049 0.9190597 -0.3806896 0.1020046 0.9190596 -0.3806896 0.1020046 0.9190596 -0.3806896 0.1020046 0.9190596 -0.1304458 -0.0349525 0.9908391 -0.1304458 -0.0349525 0.9908391 -0.1304458 -0.0349525 0.9908391 1.0 0.0 0.0 1.0 0.0 0.0 -0.0954928 -0.0954928 0.9908392 -0.0954928 -0.0954928 0.9908392 -0.0954928 -0.0954928 0.9908392 1.0 0.0 0.0 1.0 0.0 0.0 -0.0349525 -0.1304458 0.9908391 -0.0349525 -0.1304458 0.9908391 -0.0349525 -0.1304458 0.9908391 1.0 0.0 0.0 1.0 0.0 0.0 0.0349525 -0.1304458 0.9908391 0.0349525 -0.1304458 0.9908391 0.0349525 -0.1304458 0.9908391 1.0 0.0 0.0 1.0 0.0 0.0 0.0954928 -0.0954928 0.9908392 0.0954928 -0.0954928 0.9908392 0.0954928 -0.0954928 0.9908392 1.0 0.0 0.0 1.0 0.0 0.0 0.1304458 -0.0349525 0.9908391 0.1304458 -0.0349525 0.9908391 0.1304458 -0.0349525 0.9908391 1.0 0.0 0.0 1.0 0.0 0.0 0.1304458 0.0349525 0.9908391 0.1304458 0.0349525 0.9908391 0.1304458 0.0349525 0.9908391 1.0 0.0 0.0 1.0 0.0 0.0 0.0954928 0.0954928 0.9908392 0.0954928 0.0954928 0.9908392 0.0954928 0.0954928 0.9908392 1.0 0.0 0.0 1.0 0.0 0.0 0.0349525 0.1304458 0.9908391 0.0349525 0.1304458 0.9908391 0.0349525 0.1304458 0.9908391 1.0 0.0 0.0 1.0 0.0 0.0 -0.0349525 0.1304458 0.9908391 -0.0349525 0.1304458 0.9908391 -0.0349525 0.1304458 0.9908391 1.0 0.0 0.0 1.0 0.0 0.0 -0.0954928 0.0954928 0.9908392 -0.0954928 0.0954928 0.9908392 -0.0954928 0.0954928 0.9908392 1.0 0.0 0.0 1.0 0.0 0.0 -0.1304458 0.0349525 0.9908391 -0.1304458 0.0349525 0.9908391 -0.1304458 0.0349525 0.9908391 1.0 0.0 0.0 1.0 0.0 0.0 1.0 0.0 0.0 1.0 0.0 0.0 -0.1304453 -0.0349524 -0.9908392 -0.1304453 -0.0349524 -0.9908392 -0.1304453 -0.0349524 -0.9908392 1.0 0.0 0.0 1.0 0.0 0.0 -0.0954924 -0.0954924 -0.9908392 -0.0954924 -0.0954924 -0.9908392 -0.0954924 -0.0954924 -0.9908392 1.0 0.0 0.0 1.0 0.0 0.0 -0.0349524 -0.1304453 -0.9908392 -0.0349524 -0.1304453 -0.9908392 -0.0349524 -0.1304453 -0.9908392 1.0 0.0 0.0 1.0 0.0 0.0 0.0349524 -0.1304453 -0.9908392 0.0349524 -0.1304453 -0.9908392 0.0349524 -0.1304453 -0.9908392 1.0 0.0 0.0 1.0 0.0 0.0 0.0954924 -0.0954924 -0.9908392 0.0954924 -0.0954924 -0.9908392 0.0954924 -0.0954924 -0.9908392 1.0 0.0 0.0 1.0 0.0 0.0 0.1304453 -0.0349524 -0.9908392 0.1304453 -0.0349524 -0.9908392 0.1304453 -0.0349524 -0.9908392 1.0 0.0 0.0 1.0 0.0 0.0 0.1304453 0.0349524 -0.9908392 0.1304453 0.0349524 -0.9908392 0.1304453 0.0349524 -0.9908392 1.0 0.0 0.0 1.0 0.0 0.0 0.0954924 0.0954924 -0.9908392 0.0954924 0.0954924 -0.9908392 0.0954924 0.0954924 -0.9908392 1.0 0.0 0.0 1.0 0.0 0.0 0.0349524 0.1304453 -0.9908392 0.0349524 0.1304453 -0.9908392 0.0349524 0.1304453 -0.9908392 1.0 0.0 0.0 1.0 0.0 0.0 -0.0349524 0.1304453 -0.9908392 -0.0349524 0.1304453 -0.9908392 -0.0349524 0.1304453 -0.9908392 1.0 0.0 0.0 1.0 0.0 0.0 -0.0954924 0.0954924 -0.9908392 -0.0954924 0.0954924 -0.9908392 -0.0954924 0.0954924 -0.9908392 1.0 0.0 0.0 1.0 0.0 0.0 -0.1304453 0.0349524 -0.9908392 -0.1304453 0.0349524 -0.9908392 -0.1304453 0.0349524 -0.9908392 -0.3806896 -0.1020046 -0.9190596 -0.3806896 -0.1020046 -0.9190596 -0.3806896 -0.1020046 -0.9190596 -0.3806892 -0.1020049 -0.9190597 -0.3806892 -0.1020049 -0.9190597 -0.3806892 -0.1020049 -0.9190597 -0.2786841 -0.2786841 -0.9190595 -0.2786841 -0.2786841 -0.9190595 -0.2786841 -0.2786841 -0.9190595 -0.2786841 -0.2786841 -0.9190595 -0.2786841 -0.2786841 -0.9190595 -0.2786841 -0.2786841 -0.9190595 -0.1020045 -0.3806893 -0.9190598 -0.1020045 -0.3806893 -0.9190598 -0.1020045 -0.3806893 -0.9190598 -0.1020049 -0.3806894 -0.9190597 -0.1020049 -0.3806894 -0.9190597 -0.1020049 -0.3806894 -0.9190597 0.1020046 -0.3806896 -0.9190596 0.1020046 -0.3806896 -0.9190596 0.1020046 -0.3806896 -0.9190596 0.1020049 -0.3806892 -0.9190597 0.1020049 -0.3806892 -0.9190597 0.1020049 -0.3806892 -0.9190597 0.2786841 -0.2786841 -0.9190595 0.2786841 -0.2786841 -0.9190595 0.2786841 -0.2786841 -0.9190595 0.2786841 -0.2786841 -0.9190595 0.2786841 -0.2786841 -0.9190595 0.2786841 -0.2786841 -0.9190595 0.3806893 -0.1020045 -0.9190598 0.3806893 -0.1020045 -0.9190598 0.3806893 -0.1020045 -0.9190598 0.3806894 -0.1020049 -0.9190597 0.3806894 -0.1020049 -0.9190597 0.3806894 -0.1020049 -0.9190597 0.3806896 0.1020046 -0.9190596 0.3806896 0.1020046 -0.9190596 0.3806896 0.1020046 -0.9190596 0.3806892 0.1020049 -0.9190597 0.3806892 0.1020049 -0.9190597 0.3806892 0.1020049 -0.9190597 0.2786841 0.2786841 -0.9190595 0.2786841 0.2786841 -0.9190595 0.2786841 0.2786841 -0.9190595 0.2786841 0.2786841 -0.9190595 0.2786841 0.2786841 -0.9190595 0.2786841 0.2786841 -0.9190595 0.1020045 0.3806893 -0.9190598 0.1020045 0.3806893 -0.9190598 0.1020045 0.3806893 -0.9190598 0.1020049 0.3806894 -0.9190597 0.1020049 0.3806894 -0.9190597 0.1020049 0.3806894 -0.9190597 -0.1020046 0.3806896 -0.9190596 -0.1020046 0.3806896 -0.9190596 -0.1020046 0.3806896 -0.9190596 -0.1020049 0.3806892 -0.9190597 -0.1020049 0.3806892 -0.9190597 -0.1020049 0.3806892 -0.9190597 -0.2786841 0.2786841 -0.9190595 -0.2786841 0.2786841 -0.9190595 -0.2786841 0.2786841 -0.9190595 -0.2786841 0.2786841 -0.9190595 -0.2786841 0.2786841 -0.9190595 -0.2786841 0.2786841 -0.9190595 -0.3806893 0.1020045 -0.9190598 -0.3806893 0.1020045 -0.9190598 -0.3806893 0.1020045 -0.9190598 -0.3806894 0.1020049 -0.9190597 -0.3806894 0.1020049 -0.9190597 -0.3806894 0.1020049 -0.9190597 -0.6008213 -0.1609888 -0.7830047 -0.6008213 -0.1609888 -0.7830047 -0.6008213 -0.1609888 -0.7830047 -0.6008189 -0.1609902 -0.7830063 -0.6008189 -0.1609902 -0.7830063 -0.6008189 -0.1609902 -0.7830063 -0.4398314 -0.4398314 -0.7830049 -0.4398314 -0.4398314 -0.7830049 -0.4398314 -0.4398314 -0.7830049 -0.4398314 -0.4398314 -0.7830049 -0.4398314 -0.4398314 -0.7830049 -0.4398314 -0.4398314 -0.7830049 -0.1609882 -0.6008191 -0.7830066 -0.1609882 -0.6008191 -0.7830066 -0.1609882 -0.6008191 -0.7830066 -0.1609906 -0.6008204 -0.783005 -0.1609906 -0.6008204 -0.783005 -0.1609906 -0.6008204 -0.783005 0.1609888 -0.6008213 -0.7830047 0.1609888 -0.6008213 -0.7830047 0.1609888 -0.6008213 -0.7830047 0.1609902 -0.6008189 -0.7830063 0.1609902 -0.6008189 -0.7830063 0.1609902 -0.6008189 -0.7830063 0.4398314 -0.4398314 -0.7830049 0.4398314 -0.4398314 -0.7830049 0.4398314 -0.4398314 -0.7830049 0.4398314 -0.4398314 -0.7830049 0.4398314 -0.4398314 -0.7830049 0.4398314 -0.4398314 -0.7830049 0.6008191 -0.1609882 -0.7830066 0.6008191 -0.1609882 -0.7830066 0.6008191 -0.1609882 -0.7830066 0.6008204 -0.1609906 -0.783005 0.6008204 -0.1609906 -0.783005 0.6008204 -0.1609906 -0.783005 0.6008213 0.1609888 -0.7830047 0.6008213 0.1609888 -0.7830047 0.6008213 0.1609888 -0.7830047 0.6008189 0.1609902 -0.7830063 0.6008189 0.1609902 -0.7830063 0.6008189 0.1609902 -0.7830063 0.4398314 0.4398314 -0.7830049 0.4398314 0.4398314 -0.7830049 0.4398314 0.4398314 -0.7830049 0.4398314 0.4398314 -0.7830049 0.4398314 0.4398314 -0.7830049 0.4398314 0.4398314 -0.7830049 0.1609882 0.6008191 -0.7830066 0.1609882 0.6008191 -0.7830066 0.1609882 0.6008191 -0.7830066 0.1609906 0.6008204 -0.783005 0.1609906 0.6008204 -0.783005 0.1609906 0.6008204 -0.783005 -0.1609888 0.6008213 -0.7830047 -0.1609888 0.6008213 -0.7830047 -0.1609888 0.6008213 -0.7830047 -0.1609902 0.6008189 -0.7830063 -0.1609902 0.6008189 -0.7830063 -0.1609902 0.6008189 -0.7830063 -0.4398314 0.4398314 -0.7830049 -0.4398314 0.4398314 -0.7830049 -0.4398314 0.4398314 -0.7830049 -0.4398314 0.4398314 -0.7830049 -0.4398314 0.4398314 -0.7830049 -0.4398314 0.4398314 -0.7830049 -0.6008191 0.1609882 -0.7830066 -0.6008191 0.1609882 -0.7830066 -0.6008191 0.1609882 -0.7830066 -0.6008204 0.1609906 -0.783005 -0.6008204 0.1609906 -0.783005 -0.6008204 0.1609906 -0.783005 -0.7760118 -0.2079334 -0.5954574 -0.7760118 -0.2079334 -0.5954574 -0.7760118 -0.2079334 -0.5954574 -0.7760146 -0.2079316 -0.5954542 -0.7760146 -0.2079316 -0.5954542 -0.7760146 -0.2079316 -0.5954542 -0.5680802 -0.5680802 -0.5954576 -0.5680802 -0.5680802 -0.5954576 -0.5680802 -0.5680802 -0.5954576 -0.5680802 -0.5680802 -0.5954577 -0.5680802 -0.5680802 -0.5954577 -0.5680802 -0.5680802 -0.5954577 -0.207934 -0.7760142 -0.5954539 -0.207934 -0.7760142 -0.5954539 -0.207934 -0.7760142 -0.5954539 -0.2079311 -0.7760127 -0.5954571 -0.2079311 -0.7760127 -0.5954571 -0.2079311 -0.7760127 -0.5954571 0.2079334 -0.7760118 -0.5954574 0.2079334 -0.7760118 -0.5954574 0.2079334 -0.7760118 -0.5954574 0.2079316 -0.7760146 -0.5954542 0.2079316 -0.7760146 -0.5954542 0.2079316 -0.7760146 -0.5954542 0.5680802 -0.5680802 -0.5954576 0.5680802 -0.5680802 -0.5954576 0.5680802 -0.5680802 -0.5954576 0.5680802 -0.5680802 -0.5954577 0.5680802 -0.5680802 -0.5954577 0.5680802 -0.5680802 -0.5954577 0.7760142 -0.207934 -0.5954539 0.7760142 -0.207934 -0.5954539 0.7760142 -0.207934 -0.5954539 0.7760127 -0.2079311 -0.5954571 0.7760127 -0.2079311 -0.5954571 0.7760127 -0.2079311 -0.5954571 0.7760118 0.2079334 -0.5954574 0.7760118 0.2079334 -0.5954574 0.7760118 0.2079334 -0.5954574 0.7760146 0.2079316 -0.5954542 0.7760146 0.2079316 -0.5954542 0.7760146 0.2079316 -0.5954542 0.5680802 0.5680802 -0.5954576 0.5680802 0.5680802 -0.5954576 0.5680802 0.5680802 -0.5954576 0.5680802 0.5680802 -0.5954577 0.5680802 0.5680802 -0.5954577 0.5680802 0.5680802 -0.5954577 0.207934 0.7760142 -0.5954539 0.207934 0.7760142 -0.5954539 0.207934 0.7760142 -0.5954539 0.2079311 0.7760127 -0.5954571 0.2079311 0.7760127 -0.5954571 0.2079311 0.7760127 -0.5954571 -0.2079334 0.7760118 -0.5954574 -0.2079334 0.7760118 -0.5954574 -0.2079334 0.7760118 -0.5954574 -0.2079316 0.7760146 -0.5954542 -0.2079316 0.7760146 -0.5954542 -0.2079316 0.7760146 -0.5954542 -0.5680802 0.5680802 -0.5954576 -0.5680802 0.5680802 -0.5954576 -0.5680802 0.5680802 -0.5954576 -0.5680802 0.5680802 -0.5954577 -0.5680802 0.5680802 -0.5954577 -0.5680802 0.5680802 -0.5954577 -0.7760142 0.207934 -0.5954539 -0.7760142 0.207934 -0.5954539 -0.7760142 0.207934 -0.5954539 -0.7760127 0.2079311 -0.5954571 -0.7760127 0.2079311 -0.5954571 -0.7760127 0.2079311 -0.5954571 -0.8968096 -0.2402984 -0.3714689 -0.8968096 -0.2402984 -0.3714689 -0.8968096 -0.2402984 -0.3714689 -0.896808 -0.2402998 -0.3714719 -0.896808 -0.2402998 -0.3714719 -0.896808 -0.2402998 -0.3714719 -0.6565101 -0.6565101 -0.3714689 -0.6565101 -0.6565101 -0.3714689 -0.6565101 -0.6565101 -0.3714689 -0.6565101 -0.6565101 -0.3714689 -0.6565101 -0.6565101 -0.3714689 -0.6565101 -0.6565101 -0.3714689 -0.240298 -0.8968084 -0.3714721 -0.240298 -0.8968084 -0.3714721 -0.240298 -0.8968084 -0.3714721 -0.2403001 -0.8968091 -0.3714691 -0.2403001 -0.8968091 -0.3714691 -0.2403001 -0.8968091 -0.3714691 0.2402984 -0.8968096 -0.3714689 0.2402984 -0.8968096 -0.3714689 0.2402984 -0.8968096 -0.3714689 0.2402998 -0.896808 -0.3714719 0.2402998 -0.896808 -0.3714719 0.2402998 -0.896808 -0.3714719 0.6565101 -0.6565101 -0.3714689 0.6565101 -0.6565101 -0.3714689 0.6565101 -0.6565101 -0.3714689 0.6565101 -0.6565101 -0.3714689 0.6565101 -0.6565101 -0.3714689 0.6565101 -0.6565101 -0.3714689 0.8968084 -0.240298 -0.3714721 0.8968084 -0.240298 -0.3714721 0.8968084 -0.240298 -0.3714721 0.8968091 -0.2403001 -0.3714691 0.8968091 -0.2403001 -0.3714691 0.8968091 -0.2403001 -0.3714691 0.8968096 0.2402984 -0.3714689 0.8968096 0.2402984 -0.3714689 0.8968096 0.2402984 -0.3714689 0.896808 0.2402998 -0.3714719 0.896808 0.2402998 -0.3714719 0.896808 0.2402998 -0.3714719 0.6565101 0.6565101 -0.3714689 0.6565101 0.6565101 -0.3714689 0.6565101 0.6565101 -0.3714689 0.6565101 0.6565101 -0.3714689 0.6565101 0.6565101 -0.3714689 0.6565101 0.6565101 -0.3714689 0.240298 0.8968084 -0.3714721 0.240298 0.8968084 -0.3714721 0.240298 0.8968084 -0.3714721 0.2403001 0.8968091 -0.3714691 0.2403001 0.8968091 -0.3714691 0.2403001 0.8968091 -0.3714691 -0.2402984 0.8968096 -0.3714689 -0.2402984 0.8968096 -0.3714689 -0.2402984 0.8968096 -0.3714689 -0.2402998 0.896808 -0.3714719 -0.2402998 0.896808 -0.3714719 -0.2402998 0.896808 -0.3714719 -0.6565101 0.6565101 -0.3714689 -0.6565101 0.6565101 -0.3714689 -0.6565101 0.6565101 -0.3714689 -0.6565101 0.6565101 -0.3714689 -0.6565101 0.6565101 -0.3714689 -0.6565101 0.6565101 -0.3714689 -0.8968084 0.240298 -0.3714721 -0.8968084 0.240298 -0.3714721 -0.8968084 0.240298 -0.3714721 -0.8968091 0.2403001 -0.3714691 -0.8968091 0.2403001 -0.3714691 -0.8968091 0.2403001 -0.3714691 -0.958209 -0.2567522 -0.1261503 -0.958209 -0.2567522 -0.1261503 -0.958209 -0.2567522 -0.1261503 -0.958209 -0.256752 -0.1261499 -0.958209 -0.256752 -0.1261499 -0.958209 -0.256752 -0.1261499 -0.7014578 -0.7014578 -0.1261501 -0.7014578 -0.7014578 -0.1261501 -0.7014578 -0.7014578 -0.1261501 -0.7014578 -0.7014578 -0.1261502 -0.7014578 -0.7014578 -0.1261502 -0.7014578 -0.7014578 -0.1261502 -0.2567522 -0.958209 -0.1261499 -0.2567522 -0.958209 -0.1261499 -0.2567522 -0.958209 -0.1261499 -0.256752 -0.958209 -0.1261502 -0.256752 -0.958209 -0.1261502 -0.256752 -0.958209 -0.1261502 0.2567522 -0.958209 -0.1261503 0.2567522 -0.958209 -0.1261503 0.2567522 -0.958209 -0.1261503 0.256752 -0.958209 -0.1261499 0.256752 -0.958209 -0.1261499 0.256752 -0.958209 -0.1261499 0.7014578 -0.7014578 -0.1261501 0.7014578 -0.7014578 -0.1261501 0.7014578 -0.7014578 -0.1261501 0.7014578 -0.7014578 -0.1261502 0.7014578 -0.7014578 -0.1261502 0.7014578 -0.7014578 -0.1261502 0.958209 -0.2567522 -0.1261499 0.958209 -0.2567522 -0.1261499 0.958209 -0.2567522 -0.1261499 0.958209 -0.256752 -0.1261502 0.958209 -0.256752 -0.1261502 0.958209 -0.256752 -0.1261502 0.958209 0.2567522 -0.1261503 0.958209 0.2567522 -0.1261503 0.958209 0.2567522 -0.1261503 0.958209 0.256752 -0.1261499 0.958209 0.256752 -0.1261499 0.958209 0.256752 -0.1261499 0.7014578 0.7014578 -0.1261501 0.7014578 0.7014578 -0.1261501 0.7014578 0.7014578 -0.1261501 0.7014578 0.7014578 -0.1261502 0.7014578 0.7014578 -0.1261502 0.7014578 0.7014578 -0.1261502 0.2567522 0.958209 -0.1261499 0.2567522 0.958209 -0.1261499 0.2567522 0.958209 -0.1261499 0.256752 0.958209 -0.1261502 0.256752 0.958209 -0.1261502 0.256752 0.958209 -0.1261502 -0.2567522 0.958209 -0.1261503 -0.2567522 0.958209 -0.1261503 -0.2567522 0.958209 -0.1261503 -0.256752 0.958209 -0.1261499 -0.256752 0.958209 -0.1261499 -0.256752 0.958209 -0.1261499 -0.7014578 0.7014578 -0.1261501 -0.7014578 0.7014578 -0.1261501 -0.7014578 0.7014578 -0.1261501 -0.7014578 0.7014578 -0.1261502 -0.7014578 0.7014578 -0.1261502 -0.7014578 0.7014578 -0.1261502 -0.958209 0.2567522 -0.1261499 -0.958209 0.2567522 -0.1261499 -0.958209 0.2567522 -0.1261499 -0.958209 0.256752 -0.1261502 -0.958209 0.256752 -0.1261502 -0.958209 0.256752 -0.1261502 -0.958209 -0.256752 0.1261503 -0.958209 -0.256752 0.1261503 -0.958209 -0.256752 0.1261503 -0.9582091 -0.2567522 0.1261499 -0.9582091 -0.2567522 0.1261499 -0.9582091 -0.2567522 0.1261499 -0.7014578 -0.7014578 0.1261502 -0.7014578 -0.7014578 0.1261502 -0.7014578 -0.7014578 0.1261502 -0.7014578 -0.7014578 0.1261501 -0.7014578 -0.7014578 0.1261501 -0.7014578 -0.7014578 0.1261501 -0.256752 -0.958209 0.12615 -0.256752 -0.958209 0.12615 -0.256752 -0.958209 0.12615 -0.2567522 -0.958209 0.1261503 -0.2567522 -0.958209 0.1261503 -0.2567522 -0.958209 0.1261503 0.256752 -0.958209 0.1261503 0.256752 -0.958209 0.1261503 0.256752 -0.958209 0.1261503 0.2567522 -0.9582091 0.1261499 0.2567522 -0.9582091 0.1261499 0.2567522 -0.9582091 0.1261499 0.7014578 -0.7014578 0.1261502 0.7014578 -0.7014578 0.1261502 0.7014578 -0.7014578 0.1261502 0.7014578 -0.7014578 0.1261501 0.7014578 -0.7014578 0.1261501 0.7014578 -0.7014578 0.1261501 0.958209 -0.256752 0.12615 0.958209 -0.256752 0.12615 0.958209 -0.256752 0.12615 0.958209 -0.2567522 0.1261503 0.958209 -0.2567522 0.1261503 0.958209 -0.2567522 0.1261503 0.958209 0.256752 0.1261503 0.958209 0.256752 0.1261503 0.958209 0.256752 0.1261503 0.9582091 0.2567522 0.1261499 0.9582091 0.2567522 0.1261499 0.9582091 0.2567522 0.1261499 0.7014578 0.7014578 0.1261502 0.7014578 0.7014578 0.1261502 0.7014578 0.7014578 0.1261502 0.7014578 0.7014578 0.1261501 0.7014578 0.7014578 0.1261501 0.7014578 0.7014578 0.1261501 0.256752 0.958209 0.12615 0.256752 0.958209 0.12615 0.256752 0.958209 0.12615 0.2567522 0.958209 0.1261503 0.2567522 0.958209 0.1261503 0.2567522 0.958209 0.1261503 -0.256752 0.958209 0.1261503 -0.256752 0.958209 0.1261503 -0.256752 0.958209 0.1261503 -0.2567522 0.9582091 0.1261499 -0.2567522 0.9582091 0.1261499 -0.2567522 0.9582091 0.1261499 -0.7014578 0.7014578 0.1261502 -0.7014578 0.7014578 0.1261502 -0.7014578 0.7014578 0.1261502 -0.7014578 0.7014578 0.1261501 -0.7014578 0.7014578 0.1261501 -0.7014578 0.7014578 0.1261501 -0.958209 0.256752 0.12615 -0.958209 0.256752 0.12615 -0.958209 0.256752 0.12615 -0.958209 0.2567522 0.1261503 -0.958209 0.2567522 0.1261503 -0.958209 0.2567522 0.1261503 -0.8968091 -0.2403001 0.3714691 -0.8968091 -0.2403001 0.3714691 -0.8968091 -0.2403001 0.3714691 -0.8968084 -0.240298 0.3714722 -0.8968084 -0.240298 0.3714722 -0.8968084 -0.240298 0.3714722 -0.65651 -0.65651 0.371469 -0.65651 -0.65651 0.371469 -0.65651 -0.65651 0.371469 -0.65651 -0.65651 0.3714689 -0.65651 -0.65651 0.3714689 -0.65651 -0.65651 0.3714689 -0.2402998 -0.896808 0.371472 -0.2402998 -0.896808 0.371472 -0.2402998 -0.896808 0.371472 -0.2402984 -0.8968096 0.371469 -0.2402984 -0.8968096 0.371469 -0.2402984 -0.8968096 0.371469 0.2403001 -0.8968091 0.3714691 0.2403001 -0.8968091 0.3714691 0.2403001 -0.8968091 0.3714691 0.240298 -0.8968084 0.3714722 0.240298 -0.8968084 0.3714722 0.240298 -0.8968084 0.3714722 0.65651 -0.65651 0.371469 0.65651 -0.65651 0.371469 0.65651 -0.65651 0.371469 0.65651 -0.65651 0.3714689 0.65651 -0.65651 0.3714689 0.65651 -0.65651 0.3714689 0.896808 -0.2402998 0.371472 0.896808 -0.2402998 0.371472 0.896808 -0.2402998 0.371472 0.8968096 -0.2402984 0.371469 0.8968096 -0.2402984 0.371469 0.8968096 -0.2402984 0.371469 0.8968091 0.2403001 0.3714691 0.8968091 0.2403001 0.3714691 0.8968091 0.2403001 0.3714691 0.8968084 0.240298 0.3714722 0.8968084 0.240298 0.3714722 0.8968084 0.240298 0.3714722 0.65651 0.65651 0.371469 0.65651 0.65651 0.371469 0.65651 0.65651 0.371469 0.65651 0.65651 0.3714689 0.65651 0.65651 0.3714689 0.65651 0.65651 0.3714689 0.2402998 0.896808 0.371472 0.2402998 0.896808 0.371472 0.2402998 0.896808 0.371472 0.2402984 0.8968096 0.371469 0.2402984 0.8968096 0.371469 0.2402984 0.8968096 0.371469 -0.2403001 0.8968091 0.3714691 -0.2403001 0.8968091 0.3714691 -0.2403001 0.8968091 0.3714691 -0.240298 0.8968084 0.3714722 -0.240298 0.8968084 0.3714722 -0.240298 0.8968084 0.3714722 -0.65651 0.65651 0.371469 -0.65651 0.65651 0.371469 -0.65651 0.65651 0.371469 -0.65651 0.65651 0.3714689 -0.65651 0.65651 0.3714689 -0.65651 0.65651 0.3714689 -0.896808 0.2402998 0.371472 -0.896808 0.2402998 0.371472 -0.896808 0.2402998 0.371472 -0.8968096 0.2402984 0.371469 -0.8968096 0.2402984 0.371469 -0.8968096 0.2402984 0.371469 -0.7760128 -0.2079311 0.595457 -0.7760128 -0.2079311 0.595457 -0.7760128 -0.2079311 0.595457 -0.7760143 -0.2079341 0.5954539 -0.7760143 -0.2079341 0.5954539 -0.7760143 -0.2079341 0.5954539 -0.5680802 -0.5680802 0.5954576 -0.5680802 -0.5680802 0.5954576 -0.5680802 -0.5680802 0.5954576 -0.5680802 -0.5680802 0.5954576 -0.5680802 -0.5680802 0.5954576 -0.5680802 -0.5680802 0.5954576 -0.2079316 -0.7760147 0.5954542 -0.2079316 -0.7760147 0.5954542 -0.2079316 -0.7760147 0.5954542 -0.2079334 -0.7760118 0.5954573 -0.2079334 -0.7760118 0.5954573 -0.2079334 -0.7760118 0.5954573 0.2079311 -0.7760128 0.595457 0.2079311 -0.7760128 0.595457 0.2079311 -0.7760128 0.595457 0.2079341 -0.7760143 0.5954539 0.2079341 -0.7760143 0.5954539 0.2079341 -0.7760143 0.5954539 0.5680802 -0.5680802 0.5954576 0.5680802 -0.5680802 0.5954576 0.5680802 -0.5680802 0.5954576 0.5680802 -0.5680802 0.5954576 0.5680802 -0.5680802 0.5954576 0.5680802 -0.5680802 0.5954576 0.7760147 -0.2079316 0.5954542 0.7760147 -0.2079316 0.5954542 0.7760147 -0.2079316 0.5954542 0.7760118 -0.2079334 0.5954573 0.7760118 -0.2079334 0.5954573 0.7760118 -0.2079334 0.5954573 0.7760128 0.2079311 0.595457 0.7760128 0.2079311 0.595457 0.7760128 0.2079311 0.595457 0.7760143 0.2079341 0.5954539 0.7760143 0.2079341 0.5954539 0.7760143 0.2079341 0.5954539 0.5680802 0.5680802 0.5954576 0.5680802 0.5680802 0.5954576 0.5680802 0.5680802 0.5954576 0.5680802 0.5680802 0.5954576 0.5680802 0.5680802 0.5954576 0.5680802 0.5680802 0.5954576 0.2079316 0.7760147 0.5954542 0.2079316 0.7760147 0.5954542 0.2079316 0.7760147 0.5954542 0.2079334 0.7760118 0.5954573 0.2079334 0.7760118 0.5954573 0.2079334 0.7760118 0.5954573 -0.2079311 0.7760128 0.595457 -0.2079311 0.7760128 0.595457 -0.2079311 0.7760128 0.595457 -0.2079341 0.7760143 0.5954539 -0.2079341 0.7760143 0.5954539 -0.2079341 0.7760143 0.5954539 -0.5680802 0.5680802 0.5954576 -0.5680802 0.5680802 0.5954576 -0.5680802 0.5680802 0.5954576 -0.5680802 0.5680802 0.5954576 -0.5680802 0.5680802 0.5954576 -0.5680802 0.5680802 0.5954576 -0.7760147 0.2079316 0.5954542 -0.7760147 0.2079316 0.5954542 -0.7760147 0.2079316 0.5954542 -0.7760118 0.2079334 0.5954573 -0.7760118 0.2079334 0.5954573 -0.7760118 0.2079334 0.5954573 -0.6008204 -0.1609906 0.7830051 -0.6008204 -0.1609906 0.7830051 -0.6008204 -0.1609906 0.7830051 -0.600819 -0.1609882 0.7830065 -0.600819 -0.1609882 0.7830065 -0.600819 -0.1609882 0.7830065 -0.4398314 -0.4398314 0.7830049 -0.4398314 -0.4398314 0.7830049 -0.4398314 -0.4398314 0.7830049 -0.4398313 -0.4398313 0.7830049 -0.4398313 -0.4398313 0.7830049 -0.4398313 -0.4398313 0.7830049</float_array>
                    <technique_common>
                        <accessor count="840" source="#geometry0-normal-array" stride="3">
                            <param name="X" type="float"/>
                            <param name="Y" type="float"/>
                            <param name="Z" type="float"/>
                        </accessor>
                    </technique_common>
                </source>
                <vertices id="geometry0-vertex">
                    <input semantic="POSITION" source="#geometry0-position"/>
                </vertices>
                <triangles count="288" material="default_ai_0.2_sh_0.2_tr_0.0_dc_r_0.8_g_0.8_b_0.8_sc_r_1.0_g_1.0_b_1.0_ec_r_0.0_g_0.0_b_0_tri">
                    <input offset="0" semantic="VERTEX" source="#geometry0-vertex"/>
                    <input offset="1" semantic="NORMAL" source="#geometry0-normal"/>
                    <p>99 0 100 1 112 2 99 3 112 4 111 5 100 6 101 7 113 8 100 9 113 10 112 11 101 12 102 13 114 14 101 15 114 16 113 17 102 18 103 19 115 20 102 21 115 22 114 23 103 24 104 25 116 26 103 27 116 28 115 29 104 30 105 31 117 32 104 33 117 34 116 35 105 36 106 37 118 38 105 39 118 40 117 41 106 42 107 43 119 44 106 45 119 46 118 47 107 48 108 49 120 50 107 51 120 52 119 53 108 54 98 55 110 56 108 57 110 58 120 59 110 60 109 61 121 62 110 63 121 64 122 65 109 66 111 67 123 68 109 69 123 70 121 71 111 72 112 73 124 74 111 75 124 76 123 77 112 78 113 79 125 80 112 81 125 82 124 83 113 84 114 85 126 86 113 87 126 88 125 89 114 90 115 91 127 92 114 93 127 94 126 95 115 96 116 97 128 98 115 99 128 100 127 101 116 102 117 103 129 104 116 105 129 106 128 107 117 108 118 109 130 110 117 111 130 112 129 113 118 114 119 115 131 116 118 117 131 118 130 119 119 120 120 121 132 122 119 123 132 124 131 125 120 126 110 127 122 128 120 129 122 130 132 131 122 132 121 133 133 134 122 135 133 136 133 136 121 137 123 138 133 139 121 140 133 141 133 141 123 142 124 143 133 144 123 145 133 146 133 146 124 147 125 148 133 149 124 150 133 151 133 151 125 152 126 153 133 154 125 155 133 156 133 156 126 157 127 158 133 159 126 160 133 161 133 161 127 162 128 163 133 164 127 165 133 166 133 166 128 167 129 168 133 169 128 170 133 171 133 171 129 172 130 173 133 174 129 175 133 176 133 176 130 177 131 178 133 179 130 180 133 181 133 181 131 182 132 183 133 184 131 185 133 186 133 186 132 187 122 188 133 189 132 190 133 191 133 191 0 192 0 192 1 193 0 194 1 195 2 196 0 197 0 197 3 198 0 199 3 200 1 201 0 202 0 202 4 203 0 204 4 205 3 206 0 207 0 207 5 208 0 209 5 210 4 211 0 212 0 212 6 213 0 214 6 215 5 216 0 217 0 217 7 218 0 219 7 220 6 221 0 222 0 222 8 223 0 224 8 225 7 226 0 227 0 227 9 228 0 229 9 230 8 231 0 232 0 232 10 233 0 234 10 235 9 236 0 237 0 237 11 238 0 239 11 240 10 241 0 242 0 242 12 243 0 244 12 245 11 246 0 247 0 247 2 248 0 249 2 250 12 251 2 252 1 253 13 254 2 255 13 256 14 257 1 258 3 259 15 260 1 261 15 262 13 263 3 264 4 265 16 266 3 267 16 268 15 269 4 270 5 271 17 272 4 273 17 274 16 275 5 276 6 277 18 278 5 279 18 280 17 281 6 282 7 283 19 284 6 285 19 286 18 287 7 288 8 289 20 290 7 291 20 292 19 293 8 294 9 295 21 296 8 297 21 298 20 299 9 300 10 301 22 302 9 303 22 304 21 305 10 306 11 307 23 308 10 309 23 310 22 311 11 312 12 313 24 314 11 315 24 316 23 317 12 318 2 319 14 320 12 321 14 322 24 323 14 324 13 325 25 326 14 327 25 328 26 329 13 330 15 331 27 332 13 333 27 334 25 335 15 336 16 337 28 338 15 339 28 340 27 341 16 342 17 343 29 344 16 345 29 346 28 347 17 348 18 349 30 350 17 351 30 352 29 353 18 354 19 355 31 356 18 357 31 358 30 359 19 360 20 361 32 362 19 363 32 364 31 365 20 366 21 367 33 368 20 369 33 370 32 371 21 372 22 373 34 374 21 375 34 376 33 377 22 378 23 379 35 380 22 381 35 382 34 383 23 384 24 385 36 386 23 387 36 388 35 389 24 390 14 391 26 392 24 393 26 394 36 395 26 396 25 397 37 398 26 399 37 400 38 401 25 402 27 403 39 404 25 405 39 406 37 407 27 408 28 409 40 410 27 411 40 412 39 413 28 414 29 415 41 416 28 417 41 418 40 419 29 420 30 421 42 422 29 423 42 424 41 425 30 426 31 427 43 428 30 429 43 430 42 431 31 432 32 433 44 434 31 435 44 436 43 437 32 438 33 439 45 440 32 441 45 442 44 443 33 444 34 445 46 446 33 447 46 448 45 449 34 450 35 451 47 452 34 453 47 454 46 455 35 456 36 457 48 458 35 459 48 460 47 461 36 462 26 463 38 464 36 465 38 466 48 467 38 468 37 469 49 470 38 471 49 472 50 473 37 474 39 475 51 476 37 477 51 478 49 479 39 480 40 481 52 482 39 483 52 484 51 485 40 486 41 487 53 488 40 489 53 490 52 491 41 492 42 493 54 494 41 495 54 496 53 497 42 498 43 499 55 500 42 501 55 502 54 503 43 504 44 505 56 506 43 507 56 508 55 509 44 510 45 511 57 512 44 513 57 514 56 515 45 516 46 517 58 518 45 519 58 520 57 521 46 522 47 523 59 524 46 525 59 526 58 527 47 528 48 529 60 530 47 531 60 532 59 533 48 534 38 535 50 536 48 537 50 538 60 539 50 540 49 541 61 542 50 543 61 544 62 545 49 546 51 547 63 548 49 549 63 550 61 551 51 552 52 553 64 554 51 555 64 556 63 557 52 558 53 559 65 560 52 561 65 562 64 563 53 564 54 565 66 566 53 567 66 568 65 569 54 570 55 571 67 572 54 573 67 574 66 575 55 576 56 577 68 578 55 579 68 580 67 581 56 582 57 583 69 584 56 585 69 586 68 587 57 588 58 589 70 590 57 591 70 592 69 593 58 594 59 595 71 596 58 597 71 598 70 599 59 600 60 601 72 602 59 603 72 604 71 605 60 606 50 607 62 608 60 609 62 610 72 611 62 612 61 613 73 614 62 615 73 616 74 617 61 618 63 619 75 620 61 621 75 622 73 623 63 624 64 625 76 626 63 627 76 628 75 629 64 630 65 631 77 632 64 633 77 634 76 635 65 636 66 637 78 638 65 639 78 640 77 641 66 642 67 643 79 644 66 645 79 646 78 647 67 648 68 649 80 650 67 651 80 652 79 653 68 654 69 655 81 656 68 657 81 658 80 659 69 660 70 661 82 662 69 663 82 664 81 665 70 666 71 667 83 668 70 669 83 670 82 671 71 672 72 673 84 674 71 675 84 676 83 677 72 678 62 679 74 680 72 681 74 682 84 683 74 684 73 685 85 686 74 687 85 688 86 689 73 690 75 691 87 692 73 693 87 694 85 695 75 696 76 697 88 698 75 699 88 700 87 701 76 702 77 703 89 704 76 705 89 706 88 707 77 708 78 709 90 710 77 711 90 712 89 713 78 714 79 715 91 716 78 717 91 718 90 719 79 720 80 721 92 722 79 723 92 724 91 725 80 726 81 727 93 728 80 729 93 730 92 731 81 732 82 733 94 734 81 735 94 736 93 737 82 738 83 739 95 740 82 741 95 742 94 743 83 744 84 745 96 746 83 747 96 748 95 749 84 750 74 751 86 752 84 753 86 754 96 755 86 756 85 757 97 758 86 759 97 760 98 761 85 762 87 763 99 764 85 765 99 766 97 767 87 768 88 769 100 770 87 771 100 772 99 773 88 774 89 775 101 776 88 777 101 778 100 779 89 780 90 781 102 782 89 783 102 784 101 785 90 786 91 787 103 788 90 789 103 790 102 791 91 792 92 793 104 794 91 795 104 796 103 797 92 798 93 799 105 800 92 801 105 802 104 803 93 804 94 805 106 806 93 807 106 808 105 809 94 810 95 811 107 812 94 813 107 814 106 815 95 816 96 817 108 818 95 819 108 820 107 821 96 822 86 823 98 824 96 825 98 826 108 827 98 828 97 829 109 830 98 831 109 832 110 833 97 834 99 835 111 836 97 837 111 838 109 839</p>
                </triangles>
            </mesh>
        </geometry>
    </library_geometries>
    <library_visual_scenes>
        <visual_scene id="Building_8_CROWN2">
            <node>
                <instance_geometry url="#geometry0">
                    <bind_material>
                        <technique_common>
                            <instance_material symbol="default_ai_0.2_sh_0.2_tr_0.0_dc_r_0.8_g_0.8_b_0.8_sc_r_1.0_g_1.0_b_1.0_ec_r_0.0_g_0.0_b_0_tri" target="#default_ai_0.2_sh_0.2_tr_0.0_dc_r_0.8_g_0.8_b_0.8_sc_r_1.0_g_1.0_b_1.0_ec_r_0.0_g_0.0_b_0_mat"/>
                        </technique_common>
                    </bind_material>
                </instance_geometry>
            </node>
        </visual_scene>
    </library_visual_scenes>
    <scene>
        <instance_visual_scene url="#Building_8_CROWN2"/>
    </scene>
</COLLADA>
