<?xml version="1.0" encoding="UTF-8" standalone="yes"?>
<COLLADA xmlns="http://www.collada.org/2005/11/COLLADASchema" version="1.4.1">
    <asset>
        <contributor>
            <authoring_tool>3D City Database Importer/Exporter, version 5.5.3; Chair of Geoinformatics, Technical University of Munich</authoring_tool>
        </contributor>
        <created>2026-09-25T14:45:38.960</created>
        <modified>2026-09-25T14:45:38.960</modified>
        <unit meter="1.0" name="meters"/>
        <up_axis>Z_UP</up_axis>
    </asset>
    <library_materials>
        <material id="default_ai_0.2_sh_0.2_tr_0.0_dc_r_0.8_g_0.8_b_0.8_sc_r_1.0_g_1.0_b_1.0_ec_r_0.0_g_0.0_b_0_mat">
            <instance_effect url="#default_ai_0.2_sh_0.2_tr_0.0_dc_r_0.8_g_0.8_b_0.8_sc_r_1.0_g_1.0_b_1.0_ec_r_0.0_g_0.0_b_0_eff"/>
        </material>
    </library_materials>
    <library_effects>
        <effect id="default_ai_0.2_sh_0.2_tr_0.0_dc_r_0.8_g_0.8_b_0.8_sc_r_1.0_g_1.0_b_1.0_ec_r_0.0_g_0.0_b_0_eff">
            <profile_COMMON>
                <technique sid="COMMON">
                    <lambert>
                        <emission>
                            <color>0.0 0.0 0.0 1.0</color>
                        </emission>
                        <diffuse>
                            <color>0.8 0.8 0.8 1.0</color>
                        </diffuse>
                        <reflective>
                            <color>1.0 1.0 1.0 1.0</color>
                        </reflective>
                        <reflectivity>
                            <float>0.2</float>
                        </reflectivity>
                        <transparent opaque="A_ONE">
                            <color>1.0 1.0 1.0 1.0</color>
                        </transparent>
                        <transparency>
                            <float>1.0</float>
                        </transparency>
                    </lambert>
                </technique>
                <extra>
                    <technique profile="GOOGLEEARTH">
                        <double_sided>0</double_sided>
                    </technique>
                </extra>
            </profile_COMMON>
        </effect>
    </library_effects>
    <library_geometries>
        <geometry id="geometry0">
            <mesh>
                <source id="geometry0-position">
                    <float_array id="geometry0-position-array" count="402">0.0 0.0 1.2 0.1344864 0.077646 1.1795556 0.1552914 0.0 1.1795556 0.077646 0.1344864 1.1795556 0.0 0.1552914 1.1795556 -0.077646 0.1344864 1.1795556 -0.1344864 0.077646 1.1795556 -0.1552914 0.0 1.1795556 -0.1344864 -0.077646 1.1795556 -0.077646 -0.1344864 1.1795556 0.0 -0.1552914 1.1795556 0.077646 -0.1344864 1.1795556 0.1344864 -0.077646 1.1795556 0.2598078 0.15 1.119615 0.3 0.0 1.119615 0.15 0.2598078 1.119615 0.0 0.3 1.119615 -0.15 0.2598078 1.119615 -0.2598078 0.15 1.119615 -0.3 0.0 1.119615 -0.2598078 -0.15 1.119615 -0.15 -0.2598078 1.119615 0.0 -0.3 1.119615 0.15 -0.2598078 1.119615 0.2598078 -0.15 1.119615 0.3674232 0.2121318 1.0242636 0.4242642 0.0 1.0242636 0.2121318 0.3674232 1.0242636 0.0 0.4242642 1.0242636 -0.2121318 0.3674232 1.0242636 -0.3674232 0.2121318 1.0242636 -0.4242642 0.0 1.0242636 -0.3674232 -0.2121318 1.0242636 -0.2121318 -0.3674232 1.0242636 0.0 -0.4242642 1.0242636 0.2121318 -0.3674232 1.0242636 0.3674232 -0.2121318 1.0242636 0.45 0.2598078 0.9 0.519615 0.0 0.9 0.2598078 0.45 0.9 0.0 0.519615 0.9 -0.2598078 0.45 0.9 -0.45 0.2598078 0.9 -0.519615 0.0 0.9 -0.45 -0.2598078 0.9 -0.2598078 -0.45 0.9 0.0 -0.519615 0.9 0.2598078 -0.45 0.9 0.45 -0.2598078 0.9 0.5019096 0.2897778 0.7552914 0.5795556 0.0 0.7552914 0.2897778 0.5019096 0.7552914 0.0 0.5795556 0.7552914 -0.2897778 0.5019096 0.7552914 -0.5019096 0.2897778 0.7552914 -0.5795556 0.0 0.7552914 -0.5019096 -0.2897778 0.7552914 -0.2897778 -0.5019096 0.7552914 0.0 -0.5795556 0.7552914 0.2897778 -0.5019096 0.7552914 0.5019096 -0.2897778 0.7552914 0.519615 0.3 0.6 0.6 0.0 0.6 0.3 0.519615 0.6 0.0 0.6 0.6 -0.3 0.519615 0.6 -0.519615 0.3 0.6 -0.6 0.0 0.6 -0.519615 -0.3 0.6 -0.3 -0.519615 0.6 0.0 -0.6 0.6 0.3 -0.519615 0.6 0.519615 -0.3 0.6 0.5019096 0.2897778 0.4447086 0.5795556 0.0 0.4447086 0.2897778 0.5019096 0.4447086 0.0 0.5795556 0.4447086 -0.2897778 0.5019096 0.4447086 -0.5019096 0.2897778 0.4447086 -0.5795556 0.0 0.4447086 -0.5019096 -0.2897778 0.4447086 -0.2897778 -0.5019096 0.4447086 0.0 -0.5795556 0.4447086 0.2897778 -0.5019096 0.4447086 0.5019096 -0.2897778 0.4447086 0.45 0.2598078 0.3 0.519615 0.0 0.3 0.2598078 0.45 0.3 0.0 0.519615 0.3 -0.2598078 0.45 0.3 -0.45 0.2598078 0.3 -0.519615 0.0 0.3 -0.45 -0.2598078 0.3 -0.2598078 -0.45 0.3 0.0 -0.519615 0.3 0.2598078 -0.45 0.3 0.45 -0.2598078 0.3 0.3674232 0.2121318 0.1757358 0.4242642 0.0 0.1757358 0.2121318 0.3674232 0.1757358 0.0 0.4242642 0.1757358 -0.2121318 0.3674232 0.1757358 -0.3674232 0.2121318 0.1757358 -0.4242642 0.0 0.1757358 -0.3674232 -0.2121318 0.1757358 -0.2121318 -0.3674232 0.1757358 0.0 -0.4242642 0.1757358 0.2121318 -0.3674232 0.1757358 0.3674232 -0.2121318 0.1757358 0.2598078 0.15 0.0803844 0.3 0.0 0.0803844 0.15 0.2598078 0.0803844 0.0 0.3 0.0803844 -0.15 0.2598078 0.0803844 -0.2598078 0.15 0.0803844 -0.3 0.0 0.0803844 -0.2598078 -0.15 0.0803844 -0.15 -0.2598078 0.0803844 0.0 -0.3 0.0803844 0.15 -0.2598078 0.0803844 0.2598078 -0.15 0.0803844 0.1344864 0.077646 0.0204444 0.1552914 0.0 0.0204444 0.077646 0.1344864 0.0204444 0.0 0.1552914 0.0204444 -0.077646 0.1344864 0.0204444 -0.1344864 0.077646 0.0204444 -0.1552914 0.0 0.0204444 -0.1344864 -0.077646 0.0204444 -0.077646 -0.1344864 0.0204444 0.0 -0.1552914 0.0204444 0.077646 -0.1344864 0.0204444 0.1344864 -0.077646 0.0204444 0.0 0.0 0.0</float_array>
                    <technique_common>
                        <accessor count="134" source="#geometry0-position-array" stride="3">
                            <param name="X" type="float"/>
                            <param name="Y" type="float"/>
                            <param name="Z" type="float"/>
                        </accessor>
                    </technique_common>
                </source>
                <source id="geometry0-normal">
                    <float_array id="geometry0-normal-array" count="2520">0.5680794 -0.5680794 -0.5954592 0.5680794 -0.5680794 -0.5954592 0.5680794 -0.5680794 -0.5954592 0.5680794 -0.5680794 -0.5954591 0.5680794 -0.5680794 -0.5954591 0.5680794 -0.5680794 -0.5954591 0.7760131 -0.2079337 -0.5954555 0.7760131 -0.2079337 -0.5954555 0.7760131 -0.2079337 -0.5954555 0.7760116 -0.2079308 -0.5954585 0.7760116 -0.2079308 -0.5954585 0.7760116 -0.2079308 -0.5954585 0.7760108 0.2079331 -0.5954589 0.7760108 0.2079331 -0.5954589 0.7760108 0.2079331 -0.5954589 0.7760136 0.2079314 -0.5954558 0.7760136 0.2079314 -0.5954558 0.7760136 0.2079314 -0.5954558 0.5680794 0.5680794 -0.5954592 0.5680794 0.5680794 -0.5954592 0.5680794 0.5680794 -0.5954592 0.5680794 0.5680794 -0.5954591 0.5680794 0.5680794 -0.5954591 0.5680794 0.5680794 -0.5954591 0.2079337 0.7760131 -0.5954555 0.2079337 0.7760131 -0.5954555 0.2079337 0.7760131 -0.5954555 0.2079308 0.7760116 -0.5954585 0.2079308 0.7760116 -0.5954585 0.2079308 0.7760116 -0.5954585 -0.2079331 0.7760108 -0.5954589 -0.2079331 0.7760108 -0.5954589 -0.2079331 0.7760108 -0.5954589 -0.2079314 0.7760136 -0.5954558 -0.2079314 0.7760136 -0.5954558 -0.2079314 0.7760136 -0.5954558 -0.5680794 0.5680794 -0.5954592 -0.5680794 0.5680794 -0.5954592 -0.5680794 0.5680794 -0.5954592 -0.5680794 0.5680794 -0.5954591 -0.5680794 0.5680794 -0.5954591 -0.5680794 0.5680794 -0.5954591 -0.7760131 0.2079337 -0.5954555 -0.7760131 0.2079337 -0.5954555 -0.7760131 0.2079337 -0.5954555 -0.7760116 0.2079308 -0.5954585 -0.7760116 0.2079308 -0.5954585 -0.7760116 0.2079308 -0.5954585 -0.8968095 -0.2402984 -0.3714693 -0.8968095 -0.2402984 -0.3714693 -0.8968095 -0.2402984 -0.3714693 -0.8968081 -0.2402997 -0.371472 -0.8968081 -0.2402997 -0.371472 -0.8968081 -0.2402997 -0.371472 -0.6565099 -0.6565099 -0.3714692 -0.6565099 -0.6565099 -0.3714692 -0.6565099 -0.6565099 -0.3714692 -0.6565099 -0.6565099 -0.3714693 -0.6565099 -0.6565099 -0.3714693 -0.6565099 -0.6565099 -0.3714693 -0.2402981 -0.8968083 -0.3714722 -0.2402981 -0.8968083 -0.3714722 -0.2402981 -0.8968083 -0.3714722 -0.2403 -0.896809 -0.3714694 -0.2403 -0.896809 -0.3714694 -0.2403 -0.896809 -0.3714694 0.2402984 -0.8968095 -0.3714692 0.2402984 -0.8968095 -0.3714692 0.2402984 -0.8968095 -0.3714692 0.2402997 -0.896808 -0.371472 0.2402997 -0.896808 -0.371472 0.2402997 -0.896808 -0.371472 0.6565099 -0.6565099 -0.3714693 0.6565099 -0.6565099 -0.3714693 0.6565099 -0.6565099 -0.3714693 0.6565099 -0.6565099 -0.3714692 0.6565099 -0.6565099 -0.3714692 0.6565099 -0.6565099 -0.3714692 0.8968083 -0.2402981 -0.3714722 0.8968083 -0.2402981 -0.3714722 0.8968083 -0.2402981 -0.3714722 0.896809 -0.2403 -0.3714694 0.896809 -0.2403 -0.3714694 0.896809 -0.2403 -0.3714694 0.8968095 0.2402984 -0.3714693 0.8968095 0.2402984 -0.3714693 0.8968095 0.2402984 -0.3714693 0.8968081 0.2402997 -0.371472 0.8968081 0.2402997 -0.371472 0.8968081 0.2402997 -0.371472 0.6565099 0.6565099 -0.3714692 0.6565099 0.6565099 -0.3714692 0.6565099 0.6565099 -0.3714692 0.6565099 0.6565099 -0.3714693 0.6565099 0.6565099 -0.3714693 0.6565099 0.6565099 -0.3714693 0.2402981 0.8968083 -0.3714722 0.2402981 0.8968083 -0.3714722 0.2402981 0.8968083 -0.3714722 0.2403 0.896809 -0.3714694 0.2403 0.896809 -0.3714694 0.2403 0.896809 -0.3714694 -0.2402984 0.8968095 -0.3714692 -0.2402984 0.8968095 -0.3714692 -0.2402984 0.8968095 -0.3714692 -0.2402997 0.896808 -0.371472 -0.2402997 0.896808 -0.371472 -0.2402997 0.896808 -0.371472 -0.6565099 0.6565099 -0.3714693 -0.6565099 0.6565099 -0.3714693 -0.6565099 0.6565099 -0.3714693 -0.6565099 0.6565099 -0.3714692 -0.6565099 0.6565099 -0.3714692 -0.6565099 0.6565099 -0.3714692 -0.8968083 0.2402981 -0.3714722 -0.8968083 0.2402981 -0.3714722 -0.8968083 0.2402981 -0.3714722 -0.896809 0.2403 -0.3714694 -0.896809 0.2403 -0.3714694 -0.896809 0.2403 -0.3714694 -0.958209 -0.2567521 -0.1261501 -0.958209 -0.2567521 -0.1261501 -0.958209 -0.2567521 -0.1261501 -0.958209 -0.2567522 -0.1261503 -0.958209 -0.2567522 -0.1261503 -0.958209 -0.2567522 -0.1261503 -0.7014578 -0.7014579 -0.1261502 -0.7014578 -0.7014579 -0.1261502 -0.7014578 -0.7014579 -0.1261502 -0.7014578 -0.7014578 -0.1261501 -0.7014578 -0.7014578 -0.1261501 -0.7014578 -0.7014578 -0.1261501 -0.2567521 -0.958209 -0.1261503 -0.2567521 -0.958209 -0.1261503 -0.2567521 -0.958209 -0.1261503 -0.2567522 -0.958209 -0.1261502 -0.2567522 -0.958209 -0.1261502 -0.2567522 -0.958209 -0.1261502 0.2567521 -0.958209 -0.1261502 0.2567521 -0.958209 -0.1261502 0.2567521 -0.958209 -0.1261502 0.2567522 -0.958209 -0.1261503 0.2567522 -0.958209 -0.1261503 0.2567522 -0.958209 -0.1261503 0.7014578 -0.7014579 -0.1261501 0.7014578 -0.7014579 -0.1261501 0.7014578 -0.7014579 -0.1261501 0.7014578 -0.7014578 -0.1261502 0.7014578 -0.7014578 -0.1261502 0.7014578 -0.7014578 -0.1261502 0.958209 -0.2567521 -0.1261503 0.958209 -0.2567521 -0.1261503 0.958209 -0.2567521 -0.1261503 0.958209 -0.2567522 -0.1261501 0.958209 -0.2567522 -0.1261501 0.958209 -0.2567522 -0.1261501 0.958209 0.2567521 -0.1261501 0.958209 0.2567521 -0.1261501 0.958209 0.2567521 -0.1261501 0.958209 0.2567522 -0.1261503 0.958209 0.2567522 -0.1261503 0.958209 0.2567522 -0.1261503 0.7014578 0.7014579 -0.1261502 0.7014578 0.7014579 -0.1261502 0.7014578 0.7014579 -0.1261502 0.7014578 0.7014578 -0.1261501 0.7014578 0.7014578 -0.1261501 0.7014578 0.7014578 -0.1261501 0.2567521 0.958209 -0.1261503 0.2567521 0.958209 -0.1261503 0.2567521 0.958209 -0.1261503 0.2567522 0.958209 -0.1261502 0.2567522 0.958209 -0.1261502 0.2567522 0.958209 -0.1261502 -0.2567521 0.958209 -0.1261502 -0.2567521 0.958209 -0.1261502 -0.2567521 0.958209 -0.1261502 -0.2567522 0.958209 -0.1261503 -0.2567522 0.958209 -0.1261503 -0.2567522 0.958209 -0.1261503 -0.7014578 0.7014579 -0.1261501 -0.7014578 0.7014579 -0.1261501 -0.7014578 0.7014579 -0.1261501 -0.7014578 0.7014578 -0.1261502 -0.7014578 0.7014578 -0.1261502 -0.7014578 0.7014578 -0.1261502 -0.958209 0.2567521 -0.1261503 -0.958209 0.2567521 -0.1261503 -0.958209 0.2567521 -0.1261503 -0.958209 0.2567522 -0.1261501 -0.958209 0.2567522 -0.1261501 -0.958209 0.2567522 -0.1261501 -0.958209 -0.2567522 0.1261501 -0.958209 -0.2567522 0.1261501 -0.958209 -0.2567522 0.1261501 -0.958209 -0.2567521 0.1261503 -0.958209 -0.2567521 0.1261503 -0.958209 -0.2567521 0.1261503 -0.7014578 -0.7014578 0.1261501 -0.7014578 -0.7014578 0.1261501 -0.7014578 -0.7014578 0.1261501 -0.7014577 -0.7014579 0.12615 -0.7014577 -0.7014579 0.12615 -0.7014577 -0.7014579 0.12615 -0.2567522 -0.958209 0.1261503 -0.2567522 -0.958209 0.1261503 -0.2567522 -0.958209 0.1261503 -0.2567521 -0.958209 0.1261501 -0.2567521 -0.958209 0.1261501 -0.2567521 -0.958209 0.1261501 0.2567522 -0.958209 0.1261501 0.2567522 -0.958209 0.1261501 0.2567522 -0.958209 0.1261501 0.2567521 -0.958209 0.1261503 0.2567521 -0.958209 0.1261503 0.2567521 -0.958209 0.1261503 0.7014578 -0.7014578 0.12615 0.7014578 -0.7014578 0.12615 0.7014578 -0.7014578 0.12615 0.7014577 -0.7014579 0.1261501 0.7014577 -0.7014579 0.1261501 0.7014577 -0.7014579 0.1261501 0.958209 -0.2567522 0.1261503 0.958209 -0.2567522 0.1261503 0.958209 -0.2567522 0.1261503 0.958209 -0.2567521 0.1261501 0.958209 -0.2567521 0.1261501 0.958209 -0.2567521 0.1261501 0.958209 0.2567522 0.1261501 0.958209 0.2567522 0.1261501 0.958209 0.2567522 0.1261501 0.958209 0.2567521 0.1261503 0.958209 0.2567521 0.1261503 0.958209 0.2567521 0.1261503 0.7014578 0.7014578 0.1261501 0.7014578 0.7014578 0.1261501 0.7014578 0.7014578 0.1261501 0.7014577 0.7014579 0.12615 0.7014577 0.7014579 0.12615 0.7014577 0.7014579 0.12615 0.2567522 0.958209 0.1261503 0.2567522 0.958209 0.1261503 0.2567522 0.958209 0.1261503 0.2567521 0.958209 0.1261501 0.2567521 0.958209 0.1261501 0.2567521 0.958209 0.1261501 -0.2567522 0.958209 0.1261501 -0.2567522 0.958209 0.1261501 -0.2567522 0.958209 0.1261501 -0.2567521 0.958209 0.1261503 -0.2567521 0.958209 0.1261503 -0.2567521 0.958209 0.1261503 -0.7014578 0.7014578 0.12615 -0.7014578 0.7014578 0.12615 -0.7014578 0.7014578 0.12615 -0.7014577 0.7014579 0.1261501 -0.7014577 0.7014579 0.1261501 -0.7014577 0.7014579 0.1261501 -0.958209 0.2567522 0.1261503 -0.958209 0.2567522 0.1261503 -0.958209 0.2567522 0.1261503 -0.958209 0.2567521 0.1261501 -0.958209 0.2567521 0.1261501 -0.958209 0.2567521 0.1261501 -0.896809 -0.2403 0.3714694 -0.896809 -0.2403 0.3714694 -0.896809 -0.2403 0.3714694 -0.8968083 -0.2402981 0.3714722 -0.8968083 -0.2402981 0.3714722 -0.8968083 -0.2402981 0.3714722 -0.6565099 -0.6565099 0.3714692 -0.6565099 -0.6565099 0.3714692 -0.6565099 -0.6565099 0.3714692 -0.6565099 -0.6565099 0.3714693 -0.6565099 -0.6565099 0.3714693 -0.6565099 -0.6565099 0.3714693 -0.2402997 -0.896808 0.371472 -0.2402997 -0.896808 0.371472 -0.2402997 -0.896808 0.371472 -0.2402984 -0.8968095 0.3714693 -0.2402984 -0.8968095 0.3714693 -0.2402984 -0.8968095 0.3714693 0.2403 -0.896809 0.3714694 0.2403 -0.896809 0.3714694 0.2403 -0.896809 0.3714694 0.2402981 -0.8968083 0.3714722 0.2402981 -0.8968083 0.3714722 0.2402981 -0.8968083 0.3714722 0.6565099 -0.6565099 0.3714693 0.6565099 -0.6565099 0.3714693 0.6565099 -0.6565099 0.3714693 0.6565099 -0.6565099 0.3714692 0.6565099 -0.6565099 0.3714692 0.6565099 -0.6565099 0.3714692 0.8968081 -0.2402997 0.371472 0.8968081 -0.2402997 0.371472 0.8968081 -0.2402997 0.371472 0.8968095 -0.2402984 0.3714693 0.8968095 -0.2402984 0.3714693 0.8968095 -0.2402984 0.3714693 0.896809 0.2403 0.3714694 0.896809 0.2403 0.3714694 0.896809 0.2403 0.3714694 0.8968083 0.2402981 0.3714722 0.8968083 0.2402981 0.3714722 0.8968083 0.2402981 0.3714722 0.6565099 0.6565099 0.3714692 0.6565099 0.6565099 0.3714692 0.6565099 0.6565099 0.3714692 0.6565099 0.6565099 0.3714693 0.6565099 0.6565099 0.3714693 0.6565099 0.6565099 0.3714693 0.2402997 0.896808 0.371472 0.2402997 0.896808 0.371472 0.2402997 0.896808 0.371472 0.2402984 0.8968095 0.3714693 0.2402984 0.8968095 0.3714693 0.2402984 0.8968095 0.3714693 -0.2403 0.896809 0.3714694 -0.2403 0.896809 0.3714694 -0.2403 0.896809 0.3714694 -0.2402981 0.8968083 0.3714722 -0.2402981 0.8968083 0.3714722 -0.2402981 0.8968083 0.3714722 -0.6565099 0.6565099 0.3714693 -0.6565099 0.6565099 0.3714693 -0.6565099 0.6565099 0.3714693 -0.6565099 0.6565099 0.3714692 -0.6565099 0.6565099 0.3714692 -0.6565099 0.6565099 0.3714692 -0.8968081 0.2402997 0.371472 -0.8968081 0.2402997 0.371472 -0.8968081 0.2402997 0.371472 -0.8968095 0.2402984 0.3714693 -0.8968095 0.2402984 0.3714693 -0.8968095 0.2402984 0.3714693 -0.7760128 -0.2079312 0.5954568 -0.7760128 -0.2079312 0.5954568 -0.7760128 -0.2079312 0.5954568 -0.7760144 -0.207934 0.5954537 -0.7760144 -0.207934 0.5954537 -0.7760144 -0.207934 0.5954537 -0.5680803 -0.5680803 0.5954573 -0.5680803 -0.5680803 0.5954573 -0.5680803 -0.5680803 0.5954573 -0.5680803 -0.5680803 0.5954574 -0.5680803 -0.5680803 0.5954574 -0.5680803 -0.5680803 0.5954574 -0.2079317 -0.7760147 0.595454 -0.2079317 -0.7760147 0.595454 -0.2079317 -0.7760147 0.595454 -0.2079334 -0.7760119 0.5954571 -0.2079334 -0.7760119 0.5954571 -0.2079334 -0.7760119 0.5954571 0.2079312 -0.7760128 0.5954568 0.2079312 -0.7760128 0.5954568 0.2079312 -0.7760128 0.5954568 0.207934 -0.7760144 0.5954537 0.207934 -0.7760144 0.5954537 0.207934 -0.7760144 0.5954537 0.5680803 -0.5680803 0.5954573 0.5680803 -0.5680803 0.5954573 0.5680803 -0.5680803 0.5954573 0.5680803 -0.5680803 0.5954574 0.5680803 -0.5680803 0.5954574 0.5680803 -0.5680803 0.5954574 0.7760147 -0.2079317 0.595454 0.7760147 -0.2079317 0.595454 0.7760147 -0.2079317 0.595454 0.7760119 -0.2079334 0.5954571 0.7760119 -0.2079334 0.5954571 0.7760119 -0.2079334 0.5954571 0.7760128 0.2079312 0.5954568 0.7760128 0.2079312 0.5954568 0.7760128 0.2079312 0.5954568 0.7760144 0.207934 0.5954537 0.7760144 0.207934 0.5954537 0.7760144 0.207934 0.5954537 0.5680803 0.5680803 0.5954573 0.5680803 0.5680803 0.5954573 0.5680803 0.5680803 0.5954573 0.5680803 0.5680803 0.5954574 0.5680803 0.5680803 0.5954574 0.5680803 0.5680803 0.5954574 0.2079317 0.7760147 0.595454 0.2079317 0.7760147 0.595454 0.2079317 0.7760147 0.595454 0.2079334 0.7760119 0.5954571 0.2079334 0.7760119 0.5954571 0.2079334 0.7760119 0.5954571 -0.2079312 0.7760128 0.5954568 -0.2079312 0.7760128 0.5954568 -0.2079312 0.7760128 0.5954568 -0.207934 0.7760144 0.5954537 -0.207934 0.7760144 0.5954537 -0.207934 0.7760144 0.5954537 -0.5680803 0.5680803 0.5954573 -0.5680803 0.5680803 0.5954573 -0.5680803 0.5680803 0.5954573 -0.5680803 0.5680803 0.5954574 -0.5680803 0.5680803 0.5954574 -0.5680803 0.5680803 0.5954574 -0.7760147 0.2079317 0.595454 -0.7760147 0.2079317 0.595454 -0.7760147 0.2079317 0.595454 -0.7760119 0.2079334 0.5954571 -0.7760119 0.2079334 0.5954571 -0.7760119 0.2079334 0.5954571 -0.6008226 -0.1609912 0.7830032 -0.6008226 -0.1609912 0.7830032 -0.6008226 -0.1609912 0.7830032 -0.6008214 -0.160989 0.7830046 -0.6008214 -0.160989 0.7830046 -0.6008214 -0.160989 0.7830046 -0.4398331 -0.4398331 0.783003 -0.4398331 -0.4398331 0.783003 -0.4398331 -0.4398331 0.783003 -0.439833 -0.439833 0.7830031 -0.439833 -0.439833 0.7830031 -0.439833 -0.439833 0.7830031 -0.1609908 -0.6008213 0.7830043 -0.1609908 -0.6008213 0.7830043 -0.1609908 -0.6008213 0.7830043 -0.1609895 -0.6008234 0.7830029 -0.1609895 -0.6008234 0.7830029 -0.1609895 -0.6008234 0.7830029 0.1609912 -0.6008226 0.7830032 0.1609912 -0.6008226 0.7830032 0.1609912 -0.6008226 0.7830032 0.160989 -0.6008214 0.7830046 0.160989 -0.6008214 0.7830046 0.160989 -0.6008214 0.7830046 0.4398331 -0.4398331 0.783003 0.4398331 -0.4398331 0.783003 0.4398331 -0.4398331 0.783003 0.439833 -0.439833 0.7830031 0.439833 -0.439833 0.7830031 0.439833 -0.439833 0.7830031 0.6008213 -0.1609908 0.7830043 0.6008213 -0.1609908 0.7830043 0.6008213 -0.1609908 0.7830043 0.6008234 -0.1609895 0.7830029 0.6008234 -0.1609895 0.7830029 0.6008234 -0.1609895 0.7830029 0.6008226 0.1609912 0.7830032 0.6008226 0.1609912 0.7830032 0.6008226 0.1609912 0.7830032 0.6008214 0.160989 0.7830046 0.6008214 0.160989 0.7830046 0.6008214 0.160989 0.7830046 0.4398331 0.4398331 0.783003 0.4398331 0.4398331 0.783003 0.4398331 0.4398331 0.783003 0.439833 0.439833 0.7830031 0.439833 0.439833 0.7830031 0.439833 0.439833 0.7830031 0.1609908 0.6008213 0.7830043 0.1609908 0.6008213 0.7830043 0.1609908 0.6008213 0.7830043 0.1609895 0.6008234 0.7830029 0.1609895 0.6008234 0.7830029 0.1609895 0.6008234 0.7830029 -0.1609912 0.6008226 0.7830032 -0.1609912 0.6008226 0.7830032 -0.1609912 0.6008226 0.7830032 -0.160989 0.6008214 0.7830046 -0.160989 0.6008214 0.7830046 -0.160989 0.6008214 0.7830046 -0.4398331 0.4398331 0.783003 -0.4398331 0.4398331 0.783003 -0.4398331 0.4398331 0.783003 -0.439833 0.439833 0.7830031 -0.439833 0.439833 0.7830031 -0.439833 0.439833 0.7830031 -0.6008213 0.1609908 0.7830043 -0.6008213 0.1609908 0.7830043 -0.6008213 0.1609908 0.7830043 -0.6008234 0.1609895 0.7830029 -0.6008234 0.1609895 0.7830029 -0.6008234 0.1609895 0.7830029 -0.3806861 -0.1020041 0.919061 -0.3806861 -0.1020041 0.919061 -0.3806861 -0.1020041 0.919061 -0.3806859 -0.1020035 0.9190612 -0.3806859 -0.1020035 0.9190612 -0.3806859 -0.1020035 0.9190612 -0.2786817 -0.2786817 0.9190609 -0.2786817 -0.2786817 0.9190609 -0.2786817 -0.2786817 0.9190609 -0.2786817 -0.2786817 0.9190609 -0.2786817 -0.2786817 0.9190609 -0.2786817 -0.2786817 0.9190609 -0.1020041 -0.380686 0.9190612 -0.1020041 -0.380686 0.9190612 -0.1020041 -0.380686 0.9190612 -0.1020036 -0.3806864 0.919061 -0.1020036 -0.3806864 0.919061 -0.1020036 -0.3806864 0.919061 0.1020041 -0.3806861 0.919061 0.1020041 -0.3806861 0.919061 0.1020041 -0.3806861 0.919061 0.1020035 -0.3806859 0.9190612 0.1020035 -0.3806859 0.9190612 0.1020035 -0.3806859 0.9190612 0.2786817 -0.2786817 0.9190609 0.2786817 -0.2786817 0.9190609 0.2786817 -0.2786817 0.9190609 0.2786817 -0.2786817 0.9190609 0.2786817 -0.2786817 0.9190609 0.2786817 -0.2786817 0.9190609 0.380686 -0.1020041 0.9190612 0.380686 -0.1020041 0.9190612 0.380686 -0.1020041 0.9190612 0.3806864 -0.1020036 0.919061 0.3806864 -0.1020036 0.919061 0.3806864 -0.1020036 0.919061 0.3806861 0.1020041 0.919061 0.3806861 0.1020041 0.919061 0.3806861 0.1020041 0.919061 0.3806859 0.1020035 0.9190612 0.3806859 0.1020035 0.9190612 0.3806859 0.1020035 0.9190612 0.2786817 0.2786817 0.9190609 0.2786817 0.2786817 0.9190609 0.2786817 0.2786817 0.9190609 0.2786817 0.2786817 0.9190609 0.2786817 0.2786817 0.9190609 0.2786817 0.2786817 0.9190609 0.1020041 0.380686 0.9190612 0.1020041 0.380686 0.9190612 0.1020041 0.380686 0.9190612 0.1020036 0.3806864 0.919061 0.1020036 0.3806864 0.919061 0.1020036 0.3806864 0.919061 -0.1020041 0.3806861 0.919061 -0.1020041 0.3806861 0.919061 -0.1020041 0.3806861 0.919061 -0.1020035 0.3806859 0.9190612 -0.1020035 0.3806859 0.9190612 -0.1020035 0.3806859 0.9190612 -0.2786817 0.2786817 0.9190609 -0.2786817 0.2786817 0.9190609 -0.2786817 0.2786817 0.9190609 -0.2786817 0.2786817 0.9190609 -0.2786817 0.2786817 0.9190609 -0.2786817 0.2786817 0.9190609 -0.380686 0.1020041 0.9190612 -0.380686 0.1020041 0.9190612 -0.380686 0.1020041 0.9190612 -0.3806864 0.1020036 0.919061 -0.3806864 0.1020036 0.919061 -0.3806864 0.1020036 0.919061 -0.1304458 -0.0349525 0.9908391 -0.1304458 -0.0349525 0.9908391 -0.1304458 -0.0349525 0.9908391 1.0 0.0 0.0 1.0 0.0 0.0 -0.0954928 -0.0954928 0.9908392 -0.0954928 -0.0954928 0.9908392 -0.0954928 -0.0954928 0.9908392 1.0 0.0 0.0 1.0 0.0 0.0 -0.0349525 -0.1304458 0.9908391 -0.0349525 -0.1304458 0.9908391 -0.0349525 -0.1304458 0.9908391 1.0 0.0 0.0 1.0 0.0 0.0 0.0349525 -0.1304458 0.9908391 0.0349525 -0.1304458 0.9908391 0.0349525 -0.1304458 0.9908391 1.0 0.0 0.0 1.0 0.0 0.0 0.0954928 -0.0954928 0.9908392 0.0954928 -0.0954928 0.9908392 0.0954928 -0.0954928 0.9908392 1.0 0.0 0.0 1.0 0.0 0.0 0.1304458 -0.0349525 0.9908391 0.1304458 -0.0349525 0.9908391 0.1304458 -0.0349525 0.9908391 1.0 0.0 0.0 1.0 0.0 0.0 0.1304458 0.0349525 0.9908391 0.1304458 0.0349525 0.9908391 0.1304458 0.0349525 0.9908391 1.0 0.0 0.0 1.0 0.0 0.0 0.0954928 0.0954928 0.9908392 0.0954928 0.0954928 0.9908392 0.0954928 0.0954928 0.9908392 1.0 0.0 0.0 1.0 0.0 0.0 0.0349525 0.1304458 0.9908391 0.0349525 0.1304458 0.9908391 0.0349525 0.1304458 0.9908391 1.0 0.0 0.0 1.0 0.0 0.0 -0.0349525 0.1304458 0.9908391 -0.0349525 0.1304458 0.9908391 -0.0349525 0.1304458 0.9908391 1.0 0.0 0.0 1.0 0.0 0.0 -0.0954928 0.0954928 0.9908392 -0.0954928 0.0954928 0.9908392 -0.0954928 0.0954928 0.9908392 1.0 0.0 0.0 1.0 0.0 0.0 -0.1304458 0.0349525 0.9908391 -0.1304458 0.0349525 0.9908391 -0.1304458 0.0349525 0.9908391 1.0 0.0 0.0 1.0 0.0 0.0 1.0 0.0 0.0 1.0 0.0 0.0 -0.1304458 -0.0349525 -0.9908391 -0.1304458 -0.0349525 -0.9908391 -0.1304458 -0.0349525 -0.9908391 1.0 0.0 0.0 1.0 0.0 0.0 -0.0954928 -0.0954928 -0.9908392 -0.0954928 -0.0954928 -0.9908392 -0.0954928 -0.0954928 -0.9908392 1.0 0.0 0.0 1.0 0.0 0.0 -0.0349525 -0.1304458 -0.9908391 -0.0349525 -0.1304458 -0.9908391 -0.0349525 -0.1304458 -0.9908391 1.0 0.0 0.0 1.0 0.0 0.0 0.0349525 -0.1304458 -0.9908391 0.0349525 -0.1304458 -0.9908391 0.0349525 -0.1304458 -0.9908391 1.0 0.0 0.0 1.0 0.0 0.0 0.0954928 -0.0954928 -0.9908392 0.0954928 -0.0954928 -0.9908392 0.0954928 -0.0954928 -0.9908392 1.0 0.0 0.0 1.0 0.0 0.0 0.1304458 -0.0349525 -0.9908391 0.1304458 -0.0349525 -0.9908391 0.1304458 -0.0349525 -0.9908391 1.0 0.0 0.0 1.0 0.0 0.0 0.1304458 0.0349525 -0.9908391 0.1304458 0.0349525 -0.9908391 0.1304458 0.0349525 -0.9908391 1.0 0.0 0.0 1.0 0.0 0.0 0.0954928 0.0954928 -0.9908392 0.0954928 0.0954928 -0.9908392 0.0954928 0.0954928 -0.9908392 1.0 0.0 0.0 1.0 0.0 0.0 0.0349525 0.1304458 -0.9908391 0.0349525 0.1304458 -0.9908391 0.0349525 0.1304458 -0.9908391 1.0 0.0 0.0 1.0 0.0 0.0 -0.0349525 0.1304458 -0.9908391 -0.0349525 0.1304458 -0.9908391 -0.0349525 0.1304458 -0.9908391 1.0 0.0 0.0 1.0 0.0 0.0 -0.0954928 0.0954928 -0.9908392 -0.0954928 0.0954928 -0.9908392 -0.0954928 0.0954928 -0.9908392 1.0 0.0 0.0 1.0 0.0 0.0 -0.1304458 0.0349525 -0.9908391 -0.1304458 0.0349525 -0.9908391 -0.1304458 0.0349525 -0.9908391 -0.3806901 -0.1020046 -0.9190593 -0.3806901 -0.1020046 -0.9190593 -0.3806901 -0.1020046 -0.9190593 -0.3806896 -0.102005 -0.9190595 -0.3806896 -0.102005 -0.9190595 -0.3806896 -0.102005 -0.9190595 -0.2786844 -0.2786844 -0.9190593 -0.2786844 -0.2786844 -0.9190593 -0.2786844 -0.2786844 -0.9190593 -0.2786844 -0.2786844 -0.9190593 -0.2786844 -0.2786844 -0.9190593 -0.2786844 -0.2786844 -0.9190593 -0.1020045 -0.3806896 -0.9190596 -0.1020045 -0.3806896 -0.9190596 -0.1020045 -0.3806896 -0.9190596 -0.1020051 -0.3806899 -0.9190595 -0.1020051 -0.3806899 -0.9190595 -0.1020051 -0.3806899 -0.9190595 0.1020046 -0.3806901 -0.9190593 0.1020046 -0.3806901 -0.9190593 0.1020046 -0.3806901 -0.9190593 0.102005 -0.3806896 -0.9190595 0.102005 -0.3806896 -0.9190595 0.102005 -0.3806896 -0.9190595 0.2786844 -0.2786844 -0.9190593 0.2786844 -0.2786844 -0.9190593 0.2786844 -0.2786844 -0.9190593 0.2786844 -0.2786844 -0.9190593 0.2786844 -0.2786844 -0.9190593 0.2786844 -0.2786844 -0.9190593 0.3806896 -0.1020045 -0.9190596 0.3806896 -0.1020045 -0.9190596 0.3806896 -0.1020045 -0.9190596 0.3806899 -0.1020051 -0.9190595 0.3806899 -0.1020051 -0.9190595 0.3806899 -0.1020051 -0.9190595 0.3806901 0.1020046 -0.9190593 0.3806901 0.1020046 -0.9190593 0.3806901 0.1020046 -0.9190593 0.3806896 0.102005 -0.9190595 0.3806896 0.102005 -0.9190595 0.3806896 0.102005 -0.9190595 0.2786844 0.2786844 -0.9190593 0.2786844 0.2786844 -0.9190593 0.2786844 0.2786844 -0.9190593 0.2786844 0.2786844 -0.9190593 0.2786844 0.2786844 -0.9190593 0.2786844 0.2786844 -0.9190593 0.1020045 0.3806896 -0.9190596 0.1020045 0.3806896 -0.9190596 0.1020045 0.3806896 -0.9190596 0.1020051 0.3806899 -0.9190595 0.1020051 0.3806899 -0.9190595 0.1020051 0.3806899 -0.9190595 -0.1020046 0.3806901 -0.9190593 -0.1020046 0.3806901 -0.9190593 -0.1020046 0.3806901 -0.9190593 -0.102005 0.3806896 -0.9190595 -0.102005 0.3806896 -0.9190595 -0.102005 0.3806896 -0.9190595 -0.2786844 0.2786844 -0.9190593 -0.2786844 0.2786844 -0.9190593 -0.2786844 0.2786844 -0.9190593 -0.2786844 0.2786844 -0.9190593 -0.2786844 0.2786844 -0.9190593 -0.2786844 0.2786844 -0.9190593 -0.3806896 0.1020045 -0.9190596 -0.3806896 0.1020045 -0.9190596 -0.3806896 0.1020045 -0.9190596 -0.3806899 0.1020051 -0.9190595 -0.3806899 0.1020051 -0.9190595 -0.3806899 0.1020051 -0.9190595 -0.6008232 -0.1609894 -0.7830032 -0.6008232 -0.1609894 -0.7830032 -0.6008232 -0.1609894 -0.7830032 -0.600821 -0.1609907 -0.7830045 -0.600821 -0.1609907 -0.7830045 -0.600821 -0.1609907 -0.7830045 -0.4398329 -0.4398329 -0.7830032 -0.4398329 -0.4398329 -0.7830032 -0.4398329 -0.4398329 -0.7830032 -0.4398329 -0.4398329 -0.7830032 -0.4398329 -0.4398329 -0.7830032 -0.4398329 -0.4398329 -0.7830032 -0.1609889 -0.6008213 -0.7830048 -0.1609889 -0.6008213 -0.7830048 -0.1609889 -0.6008213 -0.7830048 -0.1609911 -0.6008224 -0.7830033 -0.1609911 -0.6008224 -0.7830033 -0.1609911 -0.6008224 -0.7830033 0.1609894 -0.6008232 -0.7830032 0.1609894 -0.6008232 -0.7830032 0.1609894 -0.6008232 -0.7830032 0.1609907 -0.600821 -0.7830045 0.1609907 -0.600821 -0.7830045 0.1609907 -0.600821 -0.7830045 0.4398329 -0.4398329 -0.7830032 0.4398329 -0.4398329 -0.7830032 0.4398329 -0.4398329 -0.7830032 0.4398329 -0.4398329 -0.7830032 0.4398329 -0.4398329 -0.7830032 0.4398329 -0.4398329 -0.7830032 0.6008213 -0.1609889 -0.7830048 0.6008213 -0.1609889 -0.7830048 0.6008213 -0.1609889 -0.7830048 0.6008224 -0.1609911 -0.7830033 0.6008224 -0.1609911 -0.7830033 0.6008224 -0.1609911 -0.7830033 0.6008232 0.1609894 -0.7830032 0.6008232 0.1609894 -0.7830032 0.6008232 0.1609894 -0.7830032 0.600821 0.1609907 -0.7830045 0.600821 0.1609907 -0.7830045 0.600821 0.1609907 -0.7830045 0.4398329 0.4398329 -0.7830032 0.4398329 0.4398329 -0.7830032 0.4398329 0.4398329 -0.7830032 0.4398329 0.4398329 -0.7830032 0.4398329 0.4398329 -0.7830032 0.4398329 0.4398329 -0.7830032 0.1609889 0.6008213 -0.7830048 0.1609889 0.6008213 -0.7830048 0.1609889 0.6008213 -0.7830048 0.1609911 0.6008224 -0.7830033 0.1609911 0.6008224 -0.7830033 0.1609911 0.6008224 -0.7830033 -0.1609894 0.6008232 -0.7830032 -0.1609894 0.6008232 -0.7830032 -0.1609894 0.6008232 -0.7830032 -0.1609907 0.600821 -0.7830045 -0.1609907 0.600821 -0.7830045 -0.1609907 0.600821 -0.7830045 -0.4398329 0.4398329 -0.7830032 -0.4398329 0.4398329 -0.7830032 -0.4398329 0.4398329 -0.7830032 -0.4398329 0.4398329 -0.7830032 -0.4398329 0.4398329 -0.7830032 -0.4398329 0.4398329 -0.7830032 -0.6008213 0.1609889 -0.7830048 -0.6008213 0.1609889 -0.7830048 -0.6008213 0.1609889 -0.7830048 -0.6008224 0.1609911 -0.7830033 -0.6008224 0.1609911 -0.7830033 -0.6008224 0.1609911 -0.7830033 -0.7760108 -0.2079331 -0.5954589 -0.7760108 -0.2079331 -0.5954589 -0.7760108 -0.2079331 -0.5954589 -0.7760136 -0.2079314 -0.5954558 -0.7760136 -0.2079314 -0.5954558 -0.7760136 -0.2079314 -0.5954558 -0.5680794 -0.5680794 -0.5954592 -0.5680794 -0.5680794 -0.5954592 -0.5680794 -0.5680794 -0.5954592 -0.5680794 -0.5680794 -0.5954591 -0.5680794 -0.5680794 -0.5954591 -0.5680794 -0.5680794 -0.5954591 -0.2079337 -0.7760131 -0.5954555 -0.2079337 -0.7760131 -0.5954555 -0.2079337 -0.7760131 -0.5954555 -0.2079308 -0.7760116 -0.5954585 -0.2079308 -0.7760116 -0.5954585 -0.2079308 -0.7760116 -0.5954585 0.2079331 -0.7760108 -0.5954589 0.2079331 -0.7760108 -0.5954589 0.2079331 -0.7760108 -0.5954589 0.2079314 -0.7760136 -0.5954558 0.2079314 -0.7760136 -0.5954558 0.2079314 -0.7760136 -0.5954558</float_array>
                    <technique_common>
                        <accessor count="840" source="#geometry0-normal-array" stride="3">
                            <param name="X" type="float"/>
                            <param name="Y" type="float"/>
                            <param name="Z" type="float"/>
                        </accessor>
                    </technique_common>
                </source>
                <vertices id="geometry0-vertex">
                    <input semantic="POSITION" source="#geometry0-position"/>
                </vertices>
                <triangles count="288" material="default_ai_0.2_sh_0.2_tr_0.0_dc_r_0.8_g_0.8_b_0.8_sc_r_1.0_g_1.0_b_1.0_ec_r_0.0_g_0.0_b_0_tri">
                    <input offset="0" semantic="VERTEX" source="#geometry0-vertex"/>
                    <input offset="1" semantic="NORMAL" source="#geometry0-normal"/>
                    <p>29 0 30 1 42 2 29 3 42 4 41 5 30 6 31 7 43 8 30 9 43 10 42 11 31 12 32 13 44 14 31 15 44 16 43 17 32 18 33 19 45 20 32 21 45 22 44 23 33 24 34 25 46 26 33 27 46 28 45 29 34 30 35 31 47 32 34 33 47 34 46 35 35 36 36 37 48 38 35 39 48 40 47 41 36 42 26 43 38 44 36 45 38 46 48 47 38 48 37 49 49 50 38 51 49 52 50 53 37 54 39 55 51 56 37 57 51 58 49 59 39 60 40 61 52 62 39 63 52 64 51 65 40 66 41 67 53 68 40 69 53 70 52 71 41 72 42 73 54 74 41 75 54 76 53 77 42 78 43 79 55 80 42 81 55 82 54 83 43 84 44 85 56 86 43 87 56 88 55 89 44 90 45 91 57 92 44 93 57 94 56 95 45 96 46 97 58 98 45 99 58 100 57 101 46 102 47 103 59 104 46 105 59 106 58 107 47 108 48 109 60 110 47 111 60 112 59 113 48 114 38 115 50 116 48 117 50 118 60 119 50 120 49 121 61 122 50 123 61 124 62 125 49 126 51 127 63 128 49 129 63 130 61 131 51 132 52 133 64 134 51 135 64 136 63 137 52 138 53 139 65 140 52 141 65 142 64 143 53 144 54 145 66 146 53 147 66 148 65 149 54 150 55 151 67 152 54 153 67 154 66 155 55 156 56 157 68 158 55 159 68 160 67 161 56 162 57 163 69 164 56 165 69 166 68 167 57 168 58 169 70 170 57 171 70 172 69 173 58 174 59 175 71 176 58 177 71 178 70 179 59 180 60 181 72 182 59 183 72 184 71 185 60 186 50 187 62 188 60 189 62 190 72 191 62 192 61 193 73 194 62 195 73 196 74 197 61 198 63 199 75 200 61 201 75 202 73 203 63 204 64 205 76 206 63 207 76 208 75 209 64 210 65 211 77 212 64 213 77 214 76 215 65 216 66 217 78 218 65 219 78 220 77 221 66 222 67 223 79 224 66 225 79 226 78 227 67 228 68 229 80 230 67 231 80 232 79 233 68 234 69 235 81 236 68 237 81 238 80 239 69 240 70 241 82 242 69 243 82 244 81 245 70 246 71 247 83 248 70 249 83 250 82 251 71 252 72 253 84 254 71 255 84 256 83 257 72 258 62 259 74 260 72 261 74 262 84 263 74 264 73 265 85 266 74 267 85 268 86 269 73 270 75 271 87 272 73 273 87 274 85 275 75 276 76 277 88 278 75 279 88 280 87 281 76 282 77 283 89 284 76 285 89 286 88 287 77 288 78 289 90 290 77 291 90 292 89 293 78 294 79 295 91 296 78 297 91 298 90 299 79 300 80 301 92 302 79 303 92 304 91 305 80 306 81 307 93 308 80 309 93 310 92 311 81 312 82 313 94 314 81 315 94 316 93 317 82 318 83 319 95 320 82 321 95 322 94 323 83 324 84 325 96 326 83 327 96 328 95 329 84 330 74 331 86 332 84 333 86 334 96 335 86 336 85 337 97 338 86 339 97 340 98 341 85 342 87 343 99 344 85 345 99 346 97 347 87 348 88 349 100 350 87 351 100 352 99 353 88 354 89 355 101 356 88 357 101 358 100 359 89 360 90 361 102 362 89 363 102 364 101 365 90 366 91 367 103 368 90 369 103 370 102 371 91 372 92 373 104 374 91 375 104 376 103 377 92 378 93 379 105 380 92 381 105 382 104 383 93 384 94 385 106 386 93 387 106 388 105 389 94 390 95 391 107 392 94 393 107 394 106 395 95 396 96 397 108 398 95 399 108 400 107 401 96 402 86 403 98 404 96 405 98 406 108 407 98 408 97 409 109 410 98 411 109 412 110 413 97 414 99 415 111 416 97 417 111 418 109 419 99 420 100 421 112 422 99 423 112 424 111 425 100 426 101 427 113 428 100 429 113 430 112 431 101 432 102 433 114 434 101 435 114 436 113 437 102 438 103 439 115 440 102 441 115 442 114 443 103 444 104 445 116 446 103 447 116 448 115 449 104 450 105 451 117 452 104 453 117 454 116 455 105 456 106 457 118 458 105 459 118 460 117 461 106 462 107 463 119 464 106 465 119 466 118 467 107 468 108 469 120 470 107 471 120 472 119 473 108 474 98 475 110 476 108 477 110 478 120 479 110 480 109 481 121 482 110 483 121 484 122 485 109 486 111 487 123 488 109 489 123 490 121 491 111 492 112 493 124 494 111 495 124 496 123 497 112 498 113 499 125 500 112 501 125 502 124 503 113 504 114 505 126 506 113 507 126 508 125 509 114 510 115 511 127 512 114 513 127 514 126 515 115 516 116 517 128 518 115 519 128 520 127 521 116 522 117 523 129 524 116 525 129 526 128 527 117 528 118 529 130 530 117 531 130 532 129 533 118 534 119 535 131 536 118 537 131 538 130 539 119 540 120 541 132 542 119 543 132 544 131 545 120 546 110 547 122 548 120 549 122 550 132 551 122 552 121 553 133 554 122 555 133 556 133 556 121 557 123 558 133 559 121 560 133 561 133 561 123 562 124 563 133 564 123 565 133 566 133 566 124 567 125 568 133 569 124 570 133 571 133 571 125 572 126 573 133 574 125 575 133 576 133 576 126 577 127 578 133 579 126 580 133 581 133 581 127 582 128 583 133 584 127 585 133 586 133 586 128 587 129 588 133 589 128 590 133 591 133 591 129 592 130 593 133 594 129 595 133 596 133 596 130 597 131 598 133 599 130 600 133 601 133 601 131 602 132 603 133 604 131 605 133 606 133 606 132 607 122 608 133 609 132 610 133 611 133 611 0 612 0 612 1 613 0 614 1 615 2 616 0 617 0 617 3 618 0 619 3 620 1 621 0 622 0 622 4 623 0 624 4 625 3 626 0 627 0 627 5 628 0 629 5 630 4 631 0 632 0 632 6 633 0 634 6 635 5 636 0 637 0 637 7 638 0 639 7 640 6 641 0 642 0 642 8 643 0 644 8 645 7 646 0 647 0 647 9 648 0 649 9 650 8 651 0 652 0 652 10 653 0 654 10 655 9 656 0 657 0 657 11 658 0 659 11 660 10 661 0 662 0 662 12 663 0 664 12 665 11 666 0 667 0 667 2 668 0 669 2 670 12 671 2 672 1 673 13 674 2 675 13 676 14 677 1 678 3 679 15 680 1 681 15 682 13 683 3 684 4 685 16 686 3 687 16 688 15 689 4 690 5 691 17 692 4 693 17 694 16 695 5 696 6 697 18 698 5 699 18 700 17 701 6 702 7 703 19 704 6 705 19 706 18 707 7 708 8 709 20 710 7 711 20 712 19 713 8 714 9 715 21 716 8 717 21 718 20 719 9 720 10 721 22 722 9 723 22 724 21 725 10 726 11 727 23 728 10 729 23 730 22 731 11 732 12 733 24 734 11 735 24 736 23 737 12 738 2 739 14 740 12 741 14 742 24 743 14 744 13 745 25 746 14 747 25 748 26 749 13 750 15 751 27 752 13 753 27 754 25 755 15 756 16 757 28 758 15 759 28 760 27 761 16 762 17 763 29 764 16 765 29 766 28 767 17 768 18 769 30 770 17 771 30 772 29 773 18 774 19 775 31 776 18 777 31 778 30 779 19 780 20 781 32 782 19 783 32 784 31 785 20 786 21 787 33 788 20 789 33 790 32 791 21 792 22 793 34 794 21 795 34 796 33 797 22 798 23 799 35 800 22 801 35 802 34 803 23 804 24 805 36 806 23 807 36 808 35 809 24 810 14 811 26 812 24 813 26 814 36 815 26 816 25 817 37 818 26 819 37 820 38 821 25 822 27 823 39 824 25 825 39 826 37 827 27 828 28 829 40 830 27 831 40 832 39 833 28 834 29 835 41 836 28 837 41 838 40 839</p>
                </triangles>
            </mesh>
        </geometry>
    </library_geometries>
    <library_visual_scenes>
        <visual_scene id="Building_331_CROWN1">
            <node>
                <instance_geometry url="#geometry0">
                    <bind_material>
                        <technique_common>
                            <instance_material symbol="default_ai_0.2_sh_0.2_tr_0.0_dc_r_0.8_g_0.8_b_0.8_sc_r_1.0_g_1.0_b_1.0_ec_r_0.0_g_0.0_b_0_tri" target="#default_ai_0.2_sh_0.2_tr_0.0_dc_r_0.8_g_0.8_b_0.8_sc_r_1.0_g_1.0_b_1.0_ec_r_0.0_g_0.0_b_0_mat"/>
                        </technique_common>
                    </bind_material>
                </instance_geometry>
            </node>
        </visual_scene>
    </library_visual_scenes>
    <scene>
        <instance_visual_scene url="#Building_331_CROWN1"/>
    </scene>
</COLLADA>
