<?xml version="1.0" encoding="UTF-8" standalone="yes"?>
<COLLADA xmlns="http://www.collada.org/2005/11/COLLADASchema" version="1.4.1">
    <asset>
        <contributor>
            <authoring_tool>3D City Database Importer/Exporter, version 5.5.3; Chair of Geoinformatics, Technical University of Munich</authoring_tool>
        </contributor>
        <created>2026-09-25T14:44:39.294</created>
        <modified>2026-09-25T14:44:39.294</modified>
        <unit meter="1.0" name="meters"/>
        <up_axis>Z_UP</up_axis>
    </asset>
    <library_materials>
        <material id="default_ai_0.2_sh_0.2_tr_0.0_dc_r_0.8_g_0.8_b_0.8_sc_r_1.0_g_1.0_b_1.0_ec_r_0.0_g_0.0_b_0_mat">
            <instance_effect url="#default_ai_0.2_sh_0.2_tr_0.0_dc_r_0.8_g_0.8_b_0.8_sc_r_1.0_g_1.0_b_1.0_ec_r_0.0_g_0.0_b_0_eff"/>
        </material>
    </library_materials>
    <library_effects>
        <effect id="default_ai_0.2_sh_0.2_tr_0.0_dc_r_0.8_g_0.8_b_0.8_sc_r_1.0_g_1.0_b_1.0_ec_r_0.0_g_0.0_b_0_eff">
            <profile_COMMON>
                <technique sid="COMMON">
                    <lambert>
                        <emission>
                            <color>0.0 0.0 0.0 1.0</color>
                        </emission>
                        <diffuse>
                            <color>0.8 0.8 0.8 1.0</color>
                        </diffuse>
                        <reflective>
                            <color>1.0 1.0 1.0 1.0</color>
                        </reflective>
                        <reflectivity>
                            <float>0.2</float>
                        </reflectivity>
                        <transparent opaque="A_ONE">
                            <color>1.0 1.0 1.0 1.0</color>
                        </transparent>
                        <transparency>
                            <float>1.0</float>
                        </transparency>
                    </lambert>
                </technique>
                <extra>
                    <technique profile="GOOGLEEARTH">
                        <double_sided>0</double_sided>
                    </technique>
                </extra>
            </profile_COMMON>
        </effect>
    </library_effects>
    <library_geometries>
        <geometry id="geometry0">
            <mesh>
                <source id="geometry0-position">
                    <float_array id="geometry0-position-array" count="402">0.0 0.0 3.5 0.392252 0.2264675 3.4403705 0.4529332 0.0 3.4403705 0.2264675 0.392252 3.4403705 0.0 0.4529332 3.4403705 -0.2264675 0.392252 3.4403705 -0.392252 0.2264675 3.4403705 -0.4529332 0.0 3.4403705 -0.392252 -0.2264675 3.4403705 -0.2264675 -0.392252 3.4403705 0.0 -0.4529332 3.4403705 0.2264675 -0.392252 3.4403705 0.392252 -0.2264675 3.4403705 0.7577727 0.4375 3.2655437 0.875 0.0 3.2655437 0.4375 0.7577728 3.2655437 0.0 0.875 3.2655437 -0.4375 0.7577728 3.2655437 -0.7577727 0.4375 3.2655437 -0.875 0.0 3.2655437 -0.7577727 -0.4375 3.2655437 -0.4375 -0.7577728 3.2655437 0.0 -0.875 3.2655437 0.4375 -0.7577728 3.2655437 0.7577727 -0.4375 3.2655437 1.071651 0.6187177 2.9874372 1.2374372 0.0 2.9874372 0.6187178 1.071651 2.9874372 0.0 1.2374373 2.9874372 -0.6187178 1.071651 2.9874372 -1.071651 0.6187177 2.9874372 -1.2374372 0.0 2.9874372 -1.071651 -0.6187177 2.9874372 -0.6187178 -1.071651 2.9874372 0.0 -1.2374373 2.9874372 0.6187178 -1.071651 2.9874372 1.071651 -0.6187177 2.9874372 1.3125 0.7577728 2.625 1.5155438 0.0 2.625 0.7577727 1.3125 2.625 0.0 1.5155437 2.625 -0.7577727 1.3125 2.625 -1.3125 0.7577728 2.625 -1.5155438 0.0 2.625 -1.3125 -0.7577728 2.625 -0.7577727 -1.3125 2.625 0.0 -1.5155437 2.625 0.7577727 -1.3125 2.625 1.3125 -0.7577728 2.625 1.463903 0.8451853 2.2029332 1.6903705 0.0 2.2029332 0.8451852 1.463903 2.2029332 0.0 1.6903705 2.2029332 -0.8451852 1.463903 2.2029332 -1.463903 0.8451853 2.2029332 -1.6903705 0.0 2.2029332 -1.463903 -0.8451853 2.2029332 -0.8451852 -1.463903 2.2029332 0.0 -1.6903705 2.2029332 0.8451852 -1.463903 2.2029332 1.463903 -0.8451853 2.2029332 1.5155438 0.875 1.75 1.75 0.0 1.75 0.875 1.5155437 1.75 0.0 1.75 1.75 -0.875 1.5155437 1.75 -1.5155438 0.875 1.75 -1.75 0.0 1.75 -1.5155438 -0.875 1.75 -0.875 -1.5155437 1.75 0.0 -1.75 1.75 0.875 -1.5155437 1.75 1.5155438 -0.875 1.75 1.463903 0.8451853 1.2970667 1.6903705 0.0 1.2970667 0.8451852 1.463903 1.2970667 0.0 1.6903705 1.2970667 -0.8451852 1.463903 1.2970667 -1.463903 0.8451853 1.2970667 -1.6903705 0.0 1.2970667 -1.463903 -0.8451853 1.2970667 -0.8451852 -1.463903 1.2970667 0.0 -1.6903705 1.2970667 0.8451852 -1.463903 1.2970667 1.463903 -0.8451853 1.2970667 1.3125 0.7577728 0.875 1.5155438 0.0 0.875 0.7577727 1.3125 0.875 0.0 1.5155437 0.875 -0.7577727 1.3125 0.875 -1.3125 0.7577728 0.875 -1.5155438 0.0 0.875 -1.3125 -0.7577728 0.875 -0.7577727 -1.3125 0.875 0.0 -1.5155437 0.875 0.7577727 -1.3125 0.875 1.3125 -0.7577728 0.875 1.071651 0.6187177 0.5125627 1.2374372 0.0 0.5125627 0.6187178 1.071651 0.5125627 0.0 1.2374373 0.5125627 -0.6187178 1.071651 0.5125627 -1.071651 0.6187177 0.5125627 -1.2374372 0.0 0.5125627 -1.071651 -0.6187177 0.5125627 -0.6187178 -1.071651 0.5125627 0.0 -1.2374373 0.5125627 0.6187178 -1.071651 0.5125627 1.071651 -0.6187177 0.5125627 0.7577727 0.4375 0.2344562 0.875 0.0 0.2344562 0.4375 0.7577728 0.2344562 0.0 0.875 0.2344562 -0.4375 0.7577728 0.2344562 -0.7577727 0.4375 0.2344562 -0.875 0.0 0.2344562 -0.7577727 -0.4375 0.2344562 -0.4375 -0.7577728 0.2344562 0.0 -0.875 0.2344562 0.4375 -0.7577728 0.2344562 0.7577727 -0.4375 0.2344562 0.392252 0.2264675 0.0596295 0.4529332 0.0 0.0596295 0.2264675 0.392252 0.0596295 0.0 0.4529332 0.0596295 -0.2264675 0.392252 0.0596295 -0.392252 0.2264675 0.0596295 -0.4529332 0.0 0.0596295 -0.392252 -0.2264675 0.0596295 -0.2264675 -0.392252 0.0596295 0.0 -0.4529332 0.0596295 0.2264675 -0.392252 0.0596295 0.392252 -0.2264675 0.0596295 0.0 0.0 0.0</float_array>
                    <technique_common>
                        <accessor count="134" source="#geometry0-position-array" stride="3">
                            <param name="X" type="float"/>
                            <param name="Y" type="float"/>
                            <param name="Z" type="float"/>
                        </accessor>
                    </technique_common>
                </source>
                <source id="geometry0-normal">
                    <float_array id="geometry0-normal-array" count="2520">-0.65651 -0.6565101 0.371469 -0.65651 -0.6565101 0.371469 -0.65651 -0.6565101 0.371469 -0.65651 -0.65651 0.3714691 -0.65651 -0.65651 0.3714691 -0.65651 -0.65651 0.3714691 -0.2402999 -0.8968078 0.3714722 -0.2402999 -0.8968078 0.3714722 -0.2402999 -0.8968078 0.3714722 -0.2402984 -0.8968096 0.3714689 -0.2402984 -0.8968096 0.3714689 -0.2402984 -0.8968096 0.3714689 0.2403002 -0.8968091 0.3714691 0.2403002 -0.8968091 0.3714691 0.2403002 -0.8968091 0.3714691 0.240298 -0.8968083 0.3714724 0.240298 -0.8968083 0.3714724 0.240298 -0.8968083 0.3714724 0.6565099 -0.65651 0.371469 0.6565099 -0.65651 0.371469 0.6565099 -0.65651 0.371469 0.65651 -0.65651 0.371469 0.65651 -0.65651 0.371469 0.65651 -0.65651 0.371469 0.896808 -0.2402998 0.371472 0.896808 -0.2402998 0.371472 0.896808 -0.2402998 0.371472 0.8968096 -0.2402984 0.371469 0.8968096 -0.2402984 0.371469 0.8968096 -0.2402984 0.371469 0.8968092 0.2403001 0.3714691 0.8968092 0.2403001 0.3714691 0.8968092 0.2403001 0.3714691 0.8968084 0.240298 0.3714722 0.8968084 0.240298 0.3714722 0.8968084 0.240298 0.3714722 0.65651 0.6565101 0.371469 0.65651 0.6565101 0.371469 0.65651 0.6565101 0.371469 0.65651 0.65651 0.3714691 0.65651 0.65651 0.3714691 0.65651 0.65651 0.3714691 0.2402999 0.8968078 0.3714722 0.2402999 0.8968078 0.3714722 0.2402999 0.8968078 0.3714722 0.2402984 0.8968096 0.3714689 0.2402984 0.8968096 0.3714689 0.2402984 0.8968096 0.3714689 -0.2403002 0.8968091 0.3714691 -0.2403002 0.8968091 0.3714691 -0.2403002 0.8968091 0.3714691 -0.240298 0.8968083 0.3714724 -0.240298 0.8968083 0.3714724 -0.240298 0.8968083 0.3714724 -0.6565099 0.65651 0.371469 -0.6565099 0.65651 0.371469 -0.6565099 0.65651 0.371469 -0.65651 0.65651 0.371469 -0.65651 0.65651 0.371469 -0.65651 0.65651 0.371469 -0.896808 0.2402998 0.371472 -0.896808 0.2402998 0.371472 -0.896808 0.2402998 0.371472 -0.8968096 0.2402984 0.371469 -0.8968096 0.2402984 0.371469 -0.8968096 0.2402984 0.371469 -0.7760127 -0.2079311 0.5954569 -0.7760127 -0.2079311 0.5954569 -0.7760127 -0.2079311 0.5954569 -0.7760143 -0.2079341 0.5954537 -0.7760143 -0.2079341 0.5954537 -0.7760143 -0.2079341 0.5954537 -0.5680802 -0.5680802 0.5954575 -0.5680802 -0.5680802 0.5954575 -0.5680802 -0.5680802 0.5954575 -0.5680802 -0.5680802 0.5954575 -0.5680802 -0.5680802 0.5954575 -0.5680802 -0.5680802 0.5954575 -0.2079316 -0.7760148 0.595454 -0.2079316 -0.7760148 0.595454 -0.2079316 -0.7760148 0.595454 -0.2079334 -0.7760118 0.5954572 -0.2079334 -0.7760118 0.5954572 -0.2079334 -0.7760118 0.5954572 0.2079311 -0.7760127 0.5954569 0.2079311 -0.7760127 0.5954569 0.2079311 -0.7760127 0.5954569 0.2079341 -0.7760143 0.5954537 0.2079341 -0.7760143 0.5954537 0.2079341 -0.7760143 0.5954537 0.5680802 -0.5680802 0.5954575 0.5680802 -0.5680802 0.5954575 0.5680802 -0.5680802 0.5954575 0.5680802 -0.5680802 0.5954575 0.5680802 -0.5680802 0.5954575 0.5680802 -0.5680802 0.5954575 0.7760148 -0.2079316 0.595454 0.7760148 -0.2079316 0.595454 0.7760148 -0.2079316 0.595454 0.7760118 -0.2079334 0.5954572 0.7760118 -0.2079334 0.5954572 0.7760118 -0.2079334 0.5954572 0.7760127 0.2079311 0.5954569 0.7760127 0.2079311 0.5954569 0.7760127 0.2079311 0.5954569 0.7760143 0.2079341 0.5954537 0.7760143 0.2079341 0.5954537 0.7760143 0.2079341 0.5954537 0.5680802 0.5680802 0.5954575 0.5680802 0.5680802 0.5954575 0.5680802 0.5680802 0.5954575 0.5680802 0.5680802 0.5954575 0.5680802 0.5680802 0.5954575 0.5680802 0.5680802 0.5954575 0.2079316 0.7760148 0.595454 0.2079316 0.7760148 0.595454 0.2079316 0.7760148 0.595454 0.2079334 0.7760118 0.5954572 0.2079334 0.7760118 0.5954572 0.2079334 0.7760118 0.5954572 -0.2079311 0.7760127 0.5954569 -0.2079311 0.7760127 0.5954569 -0.2079311 0.7760127 0.5954569 -0.2079341 0.7760143 0.5954537 -0.2079341 0.7760143 0.5954537 -0.2079341 0.7760143 0.5954537 -0.5680802 0.5680802 0.5954575 -0.5680802 0.5680802 0.5954575 -0.5680802 0.5680802 0.5954575 -0.5680802 0.5680802 0.5954575 -0.5680802 0.5680802 0.5954575 -0.5680802 0.5680802 0.5954575 -0.7760148 0.2079316 0.595454 -0.7760148 0.2079316 0.595454 -0.7760148 0.2079316 0.595454 -0.7760118 0.2079334 0.5954572 -0.7760118 0.2079334 0.5954572 -0.7760118 0.2079334 0.5954572 -0.6008204 -0.1609907 0.7830051 -0.6008204 -0.1609907 0.7830051 -0.6008204 -0.1609907 0.7830051 -0.6008191 -0.1609883 0.7830065 -0.6008191 -0.1609883 0.7830065 -0.6008191 -0.1609883 0.7830065 -0.4398314 -0.4398314 0.7830049 -0.4398314 -0.4398314 0.7830049 -0.4398314 -0.4398314 0.7830049 -0.4398314 -0.4398314 0.7830049 -0.4398314 -0.4398314 0.7830049 -0.4398314 -0.4398314 0.7830049 -0.1609903 -0.6008189 0.7830063 -0.1609903 -0.6008189 0.7830063 -0.1609903 -0.6008189 0.7830063 -0.1609888 -0.6008212 0.7830048 -0.1609888 -0.6008212 0.7830048 -0.1609888 -0.6008212 0.7830048 0.1609907 -0.6008204 0.7830051 0.1609907 -0.6008204 0.7830051 0.1609907 -0.6008204 0.7830051 0.1609883 -0.6008191 0.7830065 0.1609883 -0.6008191 0.7830065 0.1609883 -0.6008191 0.7830065 0.4398314 -0.4398314 0.7830049 0.4398314 -0.4398314 0.7830049 0.4398314 -0.4398314 0.7830049 0.4398314 -0.4398314 0.7830049 0.4398314 -0.4398314 0.7830049 0.4398314 -0.4398314 0.7830049 0.6008189 -0.1609903 0.7830063 0.6008189 -0.1609903 0.7830063 0.6008189 -0.1609903 0.7830063 0.6008212 -0.1609888 0.7830048 0.6008212 -0.1609888 0.7830048 0.6008212 -0.1609888 0.7830048 0.6008204 0.1609907 0.7830051 0.6008204 0.1609907 0.7830051 0.6008204 0.1609907 0.7830051 0.6008191 0.1609883 0.7830065 0.6008191 0.1609883 0.7830065 0.6008191 0.1609883 0.7830065 0.4398314 0.4398314 0.7830049 0.4398314 0.4398314 0.7830049 0.4398314 0.4398314 0.7830049 0.4398314 0.4398314 0.7830049 0.4398314 0.4398314 0.7830049 0.4398314 0.4398314 0.7830049 0.1609903 0.6008189 0.7830063 0.1609903 0.6008189 0.7830063 0.1609903 0.6008189 0.7830063 0.1609888 0.6008212 0.7830048 0.1609888 0.6008212 0.7830048 0.1609888 0.6008212 0.7830048 -0.1609907 0.6008204 0.7830051 -0.1609907 0.6008204 0.7830051 -0.1609907 0.6008204 0.7830051 -0.1609883 0.6008191 0.7830065 -0.1609883 0.6008191 0.7830065 -0.1609883 0.6008191 0.7830065 -0.4398314 0.4398314 0.7830049 -0.4398314 0.4398314 0.7830049 -0.4398314 0.4398314 0.7830049 -0.4398314 0.4398314 0.7830049 -0.4398314 0.4398314 0.7830049 -0.4398314 0.4398314 0.7830049 -0.6008189 0.1609903 0.7830063 -0.6008189 0.1609903 0.7830063 -0.6008189 0.1609903 0.7830063 -0.6008212 0.1609888 0.7830048 -0.6008212 0.1609888 0.7830048 -0.6008212 0.1609888 0.7830048 -0.3806894 -0.102005 0.9190596 -0.3806894 -0.102005 0.9190596 -0.3806894 -0.102005 0.9190596 -0.3806892 -0.1020045 0.9190598 -0.3806892 -0.1020045 0.9190598 -0.3806892 -0.1020045 0.9190598 -0.278684 -0.278684 0.9190595 -0.278684 -0.278684 0.9190595 -0.278684 -0.278684 0.9190595 -0.278684 -0.278684 0.9190595 -0.278684 -0.278684 0.9190595 -0.278684 -0.278684 0.9190595 -0.1020049 -0.3806891 0.9190597 -0.1020049 -0.3806891 0.9190597 -0.1020049 -0.3806891 0.9190597 -0.1020046 -0.3806896 0.9190596 -0.1020046 -0.3806896 0.9190596 -0.1020046 -0.3806896 0.9190596 0.102005 -0.3806894 0.9190596 0.102005 -0.3806894 0.9190596 0.102005 -0.3806894 0.9190596 0.1020045 -0.3806892 0.9190598 0.1020045 -0.3806892 0.9190598 0.1020045 -0.3806892 0.9190598 0.278684 -0.278684 0.9190595 0.278684 -0.278684 0.9190595 0.278684 -0.278684 0.9190595 0.278684 -0.278684 0.9190595 0.278684 -0.278684 0.9190595 0.278684 -0.278684 0.9190595 0.3806891 -0.1020049 0.9190597 0.3806891 -0.1020049 0.9190597 0.3806891 -0.1020049 0.9190597 0.3806896 -0.1020046 0.9190596 0.3806896 -0.1020046 0.9190596 0.3806896 -0.1020046 0.9190596 0.3806894 0.102005 0.9190596 0.3806894 0.102005 0.9190596 0.3806894 0.102005 0.9190596 0.3806892 0.1020045 0.9190598 0.3806892 0.1020045 0.9190598 0.3806892 0.1020045 0.9190598 0.278684 0.278684 0.9190595 0.278684 0.278684 0.9190595 0.278684 0.278684 0.9190595 0.278684 0.278684 0.9190595 0.278684 0.278684 0.9190595 0.278684 0.278684 0.9190595 0.1020049 0.3806891 0.9190597 0.1020049 0.3806891 0.9190597 0.1020049 0.3806891 0.9190597 0.1020046 0.3806896 0.9190596 0.1020046 0.3806896 0.9190596 0.1020046 0.3806896 0.9190596 -0.102005 0.3806894 0.9190596 -0.102005 0.3806894 0.9190596 -0.102005 0.3806894 0.9190596 -0.1020045 0.3806892 0.9190598 -0.1020045 0.3806892 0.9190598 -0.1020045 0.3806892 0.9190598 -0.278684 0.278684 0.9190595 -0.278684 0.278684 0.9190595 -0.278684 0.278684 0.9190595 -0.278684 0.278684 0.9190595 -0.278684 0.278684 0.9190595 -0.278684 0.278684 0.9190595 -0.3806891 0.1020049 0.9190597 -0.3806891 0.1020049 0.9190597 -0.3806891 0.1020049 0.9190597 -0.3806896 0.1020046 0.9190596 -0.3806896 0.1020046 0.9190596 -0.3806896 0.1020046 0.9190596 -0.1304458 -0.0349525 0.9908391 -0.1304458 -0.0349525 0.9908391 -0.1304458 -0.0349525 0.9908391 1.0 0.0 0.0 1.0 0.0 0.0 -0.0954928 -0.0954928 0.9908392 -0.0954928 -0.0954928 0.9908392 -0.0954928 -0.0954928 0.9908392 1.0 0.0 0.0 1.0 0.0 0.0 -0.0349525 -0.1304458 0.9908391 -0.0349525 -0.1304458 0.9908391 -0.0349525 -0.1304458 0.9908391 1.0 0.0 0.0 1.0 0.0 0.0 0.0349525 -0.1304458 0.9908391 0.0349525 -0.1304458 0.9908391 0.0349525 -0.1304458 0.9908391 1.0 0.0 0.0 1.0 0.0 0.0 0.0954928 -0.0954928 0.9908392 0.0954928 -0.0954928 0.9908392 0.0954928 -0.0954928 0.9908392 1.0 0.0 0.0 1.0 0.0 0.0 0.1304458 -0.0349525 0.9908391 0.1304458 -0.0349525 0.9908391 0.1304458 -0.0349525 0.9908391 1.0 0.0 0.0 1.0 0.0 0.0 0.1304458 0.0349525 0.9908391 0.1304458 0.0349525 0.9908391 0.1304458 0.0349525 0.9908391 1.0 0.0 0.0 1.0 0.0 0.0 0.0954928 0.0954928 0.9908392 0.0954928 0.0954928 0.9908392 0.0954928 0.0954928 0.9908392 1.0 0.0 0.0 1.0 0.0 0.0 0.0349525 0.1304458 0.9908391 0.0349525 0.1304458 0.9908391 0.0349525 0.1304458 0.9908391 1.0 0.0 0.0 1.0 0.0 0.0 -0.0349525 0.1304458 0.9908391 -0.0349525 0.1304458 0.9908391 -0.0349525 0.1304458 0.9908391 1.0 0.0 0.0 1.0 0.0 0.0 -0.0954928 0.0954928 0.9908392 -0.0954928 0.0954928 0.9908392 -0.0954928 0.0954928 0.9908392 1.0 0.0 0.0 1.0 0.0 0.0 -0.1304458 0.0349525 0.9908391 -0.1304458 0.0349525 0.9908391 -0.1304458 0.0349525 0.9908391 1.0 0.0 0.0 1.0 0.0 0.0 1.0 0.0 0.0 1.0 0.0 0.0 -0.1304457 -0.0349525 -0.9908392 -0.1304457 -0.0349525 -0.9908392 -0.1304457 -0.0349525 -0.9908392 1.0 0.0 0.0 1.0 0.0 0.0 -0.0954927 -0.0954927 -0.9908392 -0.0954927 -0.0954927 -0.9908392 -0.0954927 -0.0954927 -0.9908392 1.0 0.0 0.0 1.0 0.0 0.0 -0.0349525 -0.1304457 -0.9908392 -0.0349525 -0.1304457 -0.9908392 -0.0349525 -0.1304457 -0.9908392 1.0 0.0 0.0 1.0 0.0 0.0 0.0349525 -0.1304457 -0.9908392 0.0349525 -0.1304457 -0.9908392 0.0349525 -0.1304457 -0.9908392 1.0 0.0 0.0 1.0 0.0 0.0 0.0954927 -0.0954927 -0.9908392 0.0954927 -0.0954927 -0.9908392 0.0954927 -0.0954927 -0.9908392 1.0 0.0 0.0 1.0 0.0 0.0 0.1304457 -0.0349525 -0.9908392 0.1304457 -0.0349525 -0.9908392 0.1304457 -0.0349525 -0.9908392 1.0 0.0 0.0 1.0 0.0 0.0 0.1304457 0.0349525 -0.9908392 0.1304457 0.0349525 -0.9908392 0.1304457 0.0349525 -0.9908392 1.0 0.0 0.0 1.0 0.0 0.0 0.0954927 0.0954927 -0.9908392 0.0954927 0.0954927 -0.9908392 0.0954927 0.0954927 -0.9908392 1.0 0.0 0.0 1.0 0.0 0.0 0.0349525 0.1304457 -0.9908392 0.0349525 0.1304457 -0.9908392 0.0349525 0.1304457 -0.9908392 1.0 0.0 0.0 1.0 0.0 0.0 -0.0349525 0.1304457 -0.9908392 -0.0349525 0.1304457 -0.9908392 -0.0349525 0.1304457 -0.9908392 1.0 0.0 0.0 1.0 0.0 0.0 -0.0954927 0.0954927 -0.9908392 -0.0954927 0.0954927 -0.9908392 -0.0954927 0.0954927 -0.9908392 1.0 0.0 0.0 1.0 0.0 0.0 -0.1304457 0.0349525 -0.9908392 -0.1304457 0.0349525 -0.9908392 -0.1304457 0.0349525 -0.9908392 -0.3806897 -0.1020046 -0.9190595 -0.3806897 -0.1020046 -0.9190595 -0.3806897 -0.1020046 -0.9190595 -0.3806894 -0.102005 -0.9190596 -0.3806894 -0.102005 -0.9190596 -0.3806894 -0.102005 -0.9190596 -0.2786842 -0.2786842 -0.9190595 -0.2786842 -0.2786842 -0.9190595 -0.2786842 -0.2786842 -0.9190595 -0.2786842 -0.2786842 -0.9190595 -0.2786842 -0.2786842 -0.9190595 -0.2786842 -0.2786842 -0.9190595 -0.1020045 -0.3806894 -0.9190598 -0.1020045 -0.3806894 -0.9190598 -0.1020045 -0.3806894 -0.9190598 -0.102005 -0.3806895 -0.9190595 -0.102005 -0.3806895 -0.9190595 -0.102005 -0.3806895 -0.9190595 0.1020046 -0.3806897 -0.9190595 0.1020046 -0.3806897 -0.9190595 0.1020046 -0.3806897 -0.9190595 0.102005 -0.3806894 -0.9190596 0.102005 -0.3806894 -0.9190596 0.102005 -0.3806894 -0.9190596 0.2786842 -0.2786842 -0.9190595 0.2786842 -0.2786842 -0.9190595 0.2786842 -0.2786842 -0.9190595 0.2786842 -0.2786842 -0.9190595 0.2786842 -0.2786842 -0.9190595 0.2786842 -0.2786842 -0.9190595 0.3806894 -0.1020045 -0.9190598 0.3806894 -0.1020045 -0.9190598 0.3806894 -0.1020045 -0.9190598 0.3806895 -0.102005 -0.9190595 0.3806895 -0.102005 -0.9190595 0.3806895 -0.102005 -0.9190595 0.3806897 0.1020046 -0.9190595 0.3806897 0.1020046 -0.9190595 0.3806897 0.1020046 -0.9190595 0.3806894 0.102005 -0.9190596 0.3806894 0.102005 -0.9190596 0.3806894 0.102005 -0.9190596 0.2786842 0.2786842 -0.9190595 0.2786842 0.2786842 -0.9190595 0.2786842 0.2786842 -0.9190595 0.2786842 0.2786842 -0.9190595 0.2786842 0.2786842 -0.9190595 0.2786842 0.2786842 -0.9190595 0.1020045 0.3806894 -0.9190598 0.1020045 0.3806894 -0.9190598 0.1020045 0.3806894 -0.9190598 0.102005 0.3806895 -0.9190595 0.102005 0.3806895 -0.9190595 0.102005 0.3806895 -0.9190595 -0.1020046 0.3806897 -0.9190595 -0.1020046 0.3806897 -0.9190595 -0.1020046 0.3806897 -0.9190595 -0.102005 0.3806894 -0.9190596 -0.102005 0.3806894 -0.9190596 -0.102005 0.3806894 -0.9190596 -0.2786842 0.2786842 -0.9190595 -0.2786842 0.2786842 -0.9190595 -0.2786842 0.2786842 -0.9190595 -0.2786842 0.2786842 -0.9190595 -0.2786842 0.2786842 -0.9190595 -0.2786842 0.2786842 -0.9190595 -0.3806894 0.1020045 -0.9190598 -0.3806894 0.1020045 -0.9190598 -0.3806894 0.1020045 -0.9190598 -0.3806895 0.102005 -0.9190595 -0.3806895 0.102005 -0.9190595 -0.3806895 0.102005 -0.9190595 -0.6008211 -0.1609888 -0.7830049 -0.6008211 -0.1609888 -0.7830049 -0.6008211 -0.1609888 -0.7830049 -0.6008188 -0.1609902 -0.7830064 -0.6008188 -0.1609902 -0.7830064 -0.6008188 -0.1609902 -0.7830064 -0.4398313 -0.4398313 -0.7830049 -0.4398313 -0.4398313 -0.7830049 -0.4398313 -0.4398313 -0.7830049 -0.4398313 -0.4398313 -0.7830049 -0.4398313 -0.4398313 -0.7830049 -0.4398313 -0.4398313 -0.7830049 -0.1609883 -0.600819 -0.7830066 -0.1609883 -0.600819 -0.7830066 -0.1609883 -0.600819 -0.7830066 -0.1609906 -0.6008204 -0.7830052 -0.1609906 -0.6008204 -0.7830052 -0.1609906 -0.6008204 -0.7830052 0.1609888 -0.6008211 -0.7830049 0.1609888 -0.6008211 -0.7830049 0.1609888 -0.6008211 -0.7830049 0.1609902 -0.6008188 -0.7830064 0.1609902 -0.6008188 -0.7830064 0.1609902 -0.6008188 -0.7830064 0.4398313 -0.4398313 -0.7830049 0.4398313 -0.4398313 -0.7830049 0.4398313 -0.4398313 -0.7830049 0.4398313 -0.4398313 -0.7830049 0.4398313 -0.4398313 -0.7830049 0.4398313 -0.4398313 -0.7830049 0.600819 -0.1609883 -0.7830066 0.600819 -0.1609883 -0.7830066 0.600819 -0.1609883 -0.7830066 0.6008204 -0.1609906 -0.7830052 0.6008204 -0.1609906 -0.7830052 0.6008204 -0.1609906 -0.7830052 0.6008211 0.1609888 -0.7830049 0.6008211 0.1609888 -0.7830049 0.6008211 0.1609888 -0.7830049 0.6008188 0.1609902 -0.7830064 0.6008188 0.1609902 -0.7830064 0.6008188 0.1609902 -0.7830064 0.4398313 0.4398313 -0.7830049 0.4398313 0.4398313 -0.7830049 0.4398313 0.4398313 -0.7830049 0.4398313 0.4398313 -0.7830049 0.4398313 0.4398313 -0.7830049 0.4398313 0.4398313 -0.7830049 0.1609883 0.600819 -0.7830066 0.1609883 0.600819 -0.7830066 0.1609883 0.600819 -0.7830066 0.1609906 0.6008204 -0.7830052 0.1609906 0.6008204 -0.7830052 0.1609906 0.6008204 -0.7830052 -0.1609888 0.6008211 -0.7830049 -0.1609888 0.6008211 -0.7830049 -0.1609888 0.6008211 -0.7830049 -0.1609902 0.6008188 -0.7830064 -0.1609902 0.6008188 -0.7830064 -0.1609902 0.6008188 -0.7830064 -0.4398313 0.4398313 -0.7830049 -0.4398313 0.4398313 -0.7830049 -0.4398313 0.4398313 -0.7830049 -0.4398313 0.4398313 -0.7830049 -0.4398313 0.4398313 -0.7830049 -0.4398313 0.4398313 -0.7830049 -0.600819 0.1609883 -0.7830066 -0.600819 0.1609883 -0.7830066 -0.600819 0.1609883 -0.7830066 -0.6008204 0.1609906 -0.7830052 -0.6008204 0.1609906 -0.7830052 -0.6008204 0.1609906 -0.7830052 -0.7760118 -0.2079334 -0.5954572 -0.7760118 -0.2079334 -0.5954572 -0.7760118 -0.2079334 -0.5954572 -0.7760148 -0.2079316 -0.595454 -0.7760148 -0.2079316 -0.595454 -0.7760148 -0.2079316 -0.595454 -0.5680802 -0.5680802 -0.5954575 -0.5680802 -0.5680802 -0.5954575 -0.5680802 -0.5680802 -0.5954575 -0.5680802 -0.5680802 -0.5954576 -0.5680802 -0.5680802 -0.5954576 -0.5680802 -0.5680802 -0.5954576 -0.2079341 -0.7760143 -0.5954537 -0.2079341 -0.7760143 -0.5954537 -0.2079341 -0.7760143 -0.5954537 -0.2079311 -0.7760127 -0.5954569 -0.2079311 -0.7760127 -0.5954569 -0.2079311 -0.7760127 -0.5954569 0.2079334 -0.7760118 -0.5954572 0.2079334 -0.7760118 -0.5954572 0.2079334 -0.7760118 -0.5954572 0.2079316 -0.7760148 -0.595454 0.2079316 -0.7760148 -0.595454 0.2079316 -0.7760148 -0.595454 0.5680802 -0.5680802 -0.5954575 0.5680802 -0.5680802 -0.5954575 0.5680802 -0.5680802 -0.5954575 0.5680802 -0.5680802 -0.5954576 0.5680802 -0.5680802 -0.5954576 0.5680802 -0.5680802 -0.5954576 0.7760143 -0.2079341 -0.5954537 0.7760143 -0.2079341 -0.5954537 0.7760143 -0.2079341 -0.5954537 0.7760127 -0.2079311 -0.5954569 0.7760127 -0.2079311 -0.5954569 0.7760127 -0.2079311 -0.5954569 0.7760118 0.2079334 -0.5954572 0.7760118 0.2079334 -0.5954572 0.7760118 0.2079334 -0.5954572 0.7760148 0.2079316 -0.595454 0.7760148 0.2079316 -0.595454 0.7760148 0.2079316 -0.595454 0.5680802 0.5680802 -0.5954575 0.5680802 0.5680802 -0.5954575 0.5680802 0.5680802 -0.5954575 0.5680802 0.5680802 -0.5954576 0.5680802 0.5680802 -0.5954576 0.5680802 0.5680802 -0.5954576 0.2079341 0.7760143 -0.5954537 0.2079341 0.7760143 -0.5954537 0.2079341 0.7760143 -0.5954537 0.2079311 0.7760127 -0.5954569 0.2079311 0.7760127 -0.5954569 0.2079311 0.7760127 -0.5954569 -0.2079334 0.7760118 -0.5954572 -0.2079334 0.7760118 -0.5954572 -0.2079334 0.7760118 -0.5954572 -0.2079316 0.7760148 -0.595454 -0.2079316 0.7760148 -0.595454 -0.2079316 0.7760148 -0.595454 -0.5680802 0.5680802 -0.5954575 -0.5680802 0.5680802 -0.5954575 -0.5680802 0.5680802 -0.5954575 -0.5680802 0.5680802 -0.5954576 -0.5680802 0.5680802 -0.5954576 -0.5680802 0.5680802 -0.5954576 -0.7760143 0.2079341 -0.5954537 -0.7760143 0.2079341 -0.5954537 -0.7760143 0.2079341 -0.5954537 -0.7760127 0.2079311 -0.5954569 -0.7760127 0.2079311 -0.5954569 -0.7760127 0.2079311 -0.5954569 -0.8968096 -0.2402983 -0.371469 -0.8968096 -0.2402983 -0.371469 -0.8968096 -0.2402983 -0.371469 -0.896808 -0.2402998 -0.3714721 -0.896808 -0.2402998 -0.3714721 -0.896808 -0.2402998 -0.3714721 -0.65651 -0.65651 -0.3714691 -0.65651 -0.65651 -0.3714691 -0.65651 -0.65651 -0.3714691 -0.6565099 -0.65651 -0.3714692 -0.6565099 -0.65651 -0.3714692 -0.6565099 -0.65651 -0.3714692 -0.240298 -0.8968083 -0.3714725 -0.240298 -0.8968083 -0.3714725 -0.240298 -0.8968083 -0.3714725 -0.2403002 -0.896809 -0.3714691 -0.2403002 -0.896809 -0.3714691 -0.2403002 -0.896809 -0.3714691 0.2402983 -0.8968096 -0.371469 0.2402983 -0.8968096 -0.371469 0.2402983 -0.8968096 -0.371469 0.2402999 -0.8968078 -0.3714723 0.2402999 -0.8968078 -0.3714723 0.2402999 -0.8968078 -0.3714723 0.6565099 -0.6565099 -0.3714691 0.6565099 -0.6565099 -0.3714691 0.6565099 -0.6565099 -0.3714691 0.6565099 -0.6565101 -0.3714691 0.6565099 -0.6565101 -0.3714691 0.6565099 -0.6565101 -0.3714691 0.8968083 -0.240298 -0.3714723 0.8968083 -0.240298 -0.3714723 0.8968083 -0.240298 -0.3714723 0.8968091 -0.2403001 -0.3714692 0.8968091 -0.2403001 -0.3714692 0.8968091 -0.2403001 -0.3714692 0.8968096 0.2402983 -0.371469 0.8968096 0.2402983 -0.371469 0.8968096 0.2402983 -0.371469 0.896808 0.2402998 -0.3714721 0.896808 0.2402998 -0.3714721 0.896808 0.2402998 -0.3714721 0.65651 0.65651 -0.3714691 0.65651 0.65651 -0.3714691 0.65651 0.65651 -0.3714691 0.6565099 0.65651 -0.3714692 0.6565099 0.65651 -0.3714692 0.6565099 0.65651 -0.3714692 0.240298 0.8968083 -0.3714725 0.240298 0.8968083 -0.3714725 0.240298 0.8968083 -0.3714725 0.2403002 0.896809 -0.3714691 0.2403002 0.896809 -0.3714691 0.2403002 0.896809 -0.3714691 -0.2402983 0.8968096 -0.371469 -0.2402983 0.8968096 -0.371469 -0.2402983 0.8968096 -0.371469 -0.2402999 0.8968078 -0.3714723 -0.2402999 0.8968078 -0.3714723 -0.2402999 0.8968078 -0.3714723 -0.6565099 0.6565099 -0.3714691 -0.6565099 0.6565099 -0.3714691 -0.6565099 0.6565099 -0.3714691 -0.6565099 0.6565101 -0.3714691 -0.6565099 0.6565101 -0.3714691 -0.6565099 0.6565101 -0.3714691 -0.8968083 0.240298 -0.3714723 -0.8968083 0.240298 -0.3714723 -0.8968083 0.240298 -0.3714723 -0.8968091 0.2403001 -0.3714692 -0.8968091 0.2403001 -0.3714692 -0.8968091 0.2403001 -0.3714692 -0.958209 -0.2567522 -0.1261502 -0.958209 -0.2567522 -0.1261502 -0.958209 -0.2567522 -0.1261502 -0.958209 -0.2567521 -0.1261501 -0.958209 -0.2567521 -0.1261501 -0.958209 -0.2567521 -0.1261501 -0.7014578 -0.7014579 -0.1261502 -0.7014578 -0.7014579 -0.1261502 -0.7014578 -0.7014579 -0.1261502 -0.7014578 -0.7014578 -0.1261501 -0.7014578 -0.7014578 -0.1261501 -0.7014578 -0.7014578 -0.1261501 -0.2567523 -0.958209 -0.1261498 -0.2567523 -0.958209 -0.1261498 -0.2567523 -0.958209 -0.1261498 -0.2567521 -0.958209 -0.1261502 -0.2567521 -0.958209 -0.1261502 -0.2567521 -0.958209 -0.1261502 0.2567524 -0.958209 -0.1261502 0.2567524 -0.958209 -0.1261502 0.2567524 -0.958209 -0.1261502 0.2567521 -0.958209 -0.1261498 0.2567521 -0.958209 -0.1261498 0.2567521 -0.958209 -0.1261498 0.7014578 -0.7014579 -0.1261501 0.7014578 -0.7014579 -0.1261501 0.7014578 -0.7014579 -0.1261501 0.7014578 -0.7014578 -0.1261502 0.7014578 -0.7014578 -0.1261502 0.7014578 -0.7014578 -0.1261502 0.958209 -0.2567522 -0.1261501 0.958209 -0.2567522 -0.1261501 0.958209 -0.2567522 -0.1261501 0.958209 -0.2567521 -0.1261502 0.958209 -0.2567521 -0.1261502 0.958209 -0.2567521 -0.1261502 0.958209 0.2567522 -0.1261502 0.958209 0.2567522 -0.1261502 0.958209 0.2567522 -0.1261502 0.958209 0.2567521 -0.1261501 0.958209 0.2567521 -0.1261501 0.958209 0.2567521 -0.1261501 0.7014578 0.7014579 -0.1261502 0.7014578 0.7014579 -0.1261502 0.7014578 0.7014579 -0.1261502 0.7014578 0.7014578 -0.1261501 0.7014578 0.7014578 -0.1261501 0.7014578 0.7014578 -0.1261501 0.2567523 0.958209 -0.1261498 0.2567523 0.958209 -0.1261498 0.2567523 0.958209 -0.1261498 0.2567521 0.958209 -0.1261502 0.2567521 0.958209 -0.1261502 0.2567521 0.958209 -0.1261502 -0.2567524 0.958209 -0.1261502 -0.2567524 0.958209 -0.1261502 -0.2567524 0.958209 -0.1261502 -0.2567521 0.958209 -0.1261498 -0.2567521 0.958209 -0.1261498 -0.2567521 0.958209 -0.1261498 -0.7014578 0.7014579 -0.1261501 -0.7014578 0.7014579 -0.1261501 -0.7014578 0.7014579 -0.1261501 -0.7014578 0.7014578 -0.1261502 -0.7014578 0.7014578 -0.1261502 -0.7014578 0.7014578 -0.1261502 -0.958209 0.2567522 -0.1261501 -0.958209 0.2567522 -0.1261501 -0.958209 0.2567522 -0.1261501 -0.958209 0.2567521 -0.1261502 -0.958209 0.2567521 -0.1261502 -0.958209 0.2567521 -0.1261502 -0.958209 -0.2567522 0.1261502 -0.958209 -0.2567522 0.1261502 -0.958209 -0.2567522 0.1261502 -0.958209 -0.2567522 0.1261501 -0.958209 -0.2567522 0.1261501 -0.958209 -0.2567522 0.1261501 -0.7014578 -0.7014578 0.1261502 -0.7014578 -0.7014578 0.1261502 -0.7014578 -0.7014578 0.1261502 -0.7014578 -0.7014579 0.1261502 -0.7014578 -0.7014579 0.1261502 -0.7014578 -0.7014579 0.1261502 -0.2567522 -0.9582091 0.1261499 -0.2567522 -0.9582091 0.1261499 -0.2567522 -0.9582091 0.1261499 -0.2567523 -0.9582089 0.1261503 -0.2567523 -0.9582089 0.1261503 -0.2567523 -0.9582089 0.1261503 0.2567522 -0.958209 0.1261503 0.2567522 -0.958209 0.1261503 0.2567522 -0.958209 0.1261503 0.2567524 -0.958209 0.1261499 0.2567524 -0.958209 0.1261499 0.2567524 -0.958209 0.1261499 0.7014578 -0.7014578 0.1261501 0.7014578 -0.7014578 0.1261501 0.7014578 -0.7014578 0.1261501 0.7014577 -0.7014578 0.1261502 0.7014577 -0.7014578 0.1261502 0.7014577 -0.7014578 0.1261502 0.958209 -0.2567522 0.1261501 0.958209 -0.2567522 0.1261501 0.958209 -0.2567522 0.1261501 0.958209 -0.2567522 0.1261502 0.958209 -0.2567522 0.1261502 0.958209 -0.2567522 0.1261502 0.958209 0.2567522 0.1261502 0.958209 0.2567522 0.1261502 0.958209 0.2567522 0.1261502 0.958209 0.2567522 0.1261501 0.958209 0.2567522 0.1261501 0.958209 0.2567522 0.1261501 0.7014578 0.7014578 0.1261502 0.7014578 0.7014578 0.1261502 0.7014578 0.7014578 0.1261502 0.7014578 0.7014579 0.1261502 0.7014578 0.7014579 0.1261502 0.7014578 0.7014579 0.1261502 0.2567522 0.9582091 0.1261499 0.2567522 0.9582091 0.1261499 0.2567522 0.9582091 0.1261499 0.2567523 0.9582089 0.1261503 0.2567523 0.9582089 0.1261503 0.2567523 0.9582089 0.1261503 -0.2567522 0.958209 0.1261503 -0.2567522 0.958209 0.1261503 -0.2567522 0.958209 0.1261503 -0.2567524 0.958209 0.1261499 -0.2567524 0.958209 0.1261499 -0.2567524 0.958209 0.1261499 -0.7014578 0.7014578 0.1261501 -0.7014578 0.7014578 0.1261501 -0.7014578 0.7014578 0.1261501 -0.7014577 0.7014578 0.1261502 -0.7014577 0.7014578 0.1261502 -0.7014577 0.7014578 0.1261502 -0.958209 0.2567522 0.1261501 -0.958209 0.2567522 0.1261501 -0.958209 0.2567522 0.1261501 -0.958209 0.2567522 0.1261502 -0.958209 0.2567522 0.1261502 -0.958209 0.2567522 0.1261502 -0.8968092 -0.2403001 0.3714691 -0.8968092 -0.2403001 0.3714691 -0.8968092 -0.2403001 0.3714691 -0.8968084 -0.240298 0.3714722 -0.8968084 -0.240298 0.3714722 -0.8968084 -0.240298 0.3714722</float_array>
                    <technique_common>
                        <accessor count="840" source="#geometry0-normal-array" stride="3">
                            <param name="X" type="float"/>
                            <param name="Y" type="float"/>
                            <param name="Z" type="float"/>
                        </accessor>
                    </technique_common>
                </source>
                <vertices id="geometry0-vertex">
                    <input semantic="POSITION" source="#geometry0-position"/>
                </vertices>
                <triangles count="288" material="default_ai_0.2_sh_0.2_tr_0.0_dc_r_0.8_g_0.8_b_0.8_sc_r_1.0_g_1.0_b_1.0_ec_r_0.0_g_0.0_b_0_tri">
                    <input offset="0" semantic="VERTEX" source="#geometry0-vertex"/>
                    <input offset="1" semantic="NORMAL" source="#geometry0-normal"/>
                    <p>73 0 75 1 87 2 73 3 87 4 85 5 75 6 76 7 88 8 75 9 88 10 87 11 76 12 77 13 89 14 76 15 89 16 88 17 77 18 78 19 90 20 77 21 90 22 89 23 78 24 79 25 91 26 78 27 91 28 90 29 79 30 80 31 92 32 79 33 92 34 91 35 80 36 81 37 93 38 80 39 93 40 92 41 81 42 82 43 94 44 81 45 94 46 93 47 82 48 83 49 95 50 82 51 95 52 94 53 83 54 84 55 96 56 83 57 96 58 95 59 84 60 74 61 86 62 84 63 86 64 96 65 86 66 85 67 97 68 86 69 97 70 98 71 85 72 87 73 99 74 85 75 99 76 97 77 87 78 88 79 100 80 87 81 100 82 99 83 88 84 89 85 101 86 88 87 101 88 100 89 89 90 90 91 102 92 89 93 102 94 101 95 90 96 91 97 103 98 90 99 103 100 102 101 91 102 92 103 104 104 91 105 104 106 103 107 92 108 93 109 105 110 92 111 105 112 104 113 93 114 94 115 106 116 93 117 106 118 105 119 94 120 95 121 107 122 94 123 107 124 106 125 95 126 96 127 108 128 95 129 108 130 107 131 96 132 86 133 98 134 96 135 98 136 108 137 98 138 97 139 109 140 98 141 109 142 110 143 97 144 99 145 111 146 97 147 111 148 109 149 99 150 100 151 112 152 99 153 112 154 111 155 100 156 101 157 113 158 100 159 113 160 112 161 101 162 102 163 114 164 101 165 114 166 113 167 102 168 103 169 115 170 102 171 115 172 114 173 103 174 104 175 116 176 103 177 116 178 115 179 104 180 105 181 117 182 104 183 117 184 116 185 105 186 106 187 118 188 105 189 118 190 117 191 106 192 107 193 119 194 106 195 119 196 118 197 107 198 108 199 120 200 107 201 120 202 119 203 108 204 98 205 110 206 108 207 110 208 120 209 110 210 109 211 121 212 110 213 121 214 122 215 109 216 111 217 123 218 109 219 123 220 121 221 111 222 112 223 124 224 111 225 124 226 123 227 112 228 113 229 125 230 112 231 125 232 124 233 113 234 114 235 126 236 113 237 126 238 125 239 114 240 115 241 127 242 114 243 127 244 126 245 115 246 116 247 128 248 115 249 128 250 127 251 116 252 117 253 129 254 116 255 129 256 128 257 117 258 118 259 130 260 117 261 130 262 129 263 118 264 119 265 131 266 118 267 131 268 130 269 119 270 120 271 132 272 119 273 132 274 131 275 120 276 110 277 122 278 120 279 122 280 132 281 122 282 121 283 133 284 122 285 133 286 133 286 121 287 123 288 133 289 121 290 133 291 133 291 123 292 124 293 133 294 123 295 133 296 133 296 124 297 125 298 133 299 124 300 133 301 133 301 125 302 126 303 133 304 125 305 133 306 133 306 126 307 127 308 133 309 126 310 133 311 133 311 127 312 128 313 133 314 127 315 133 316 133 316 128 317 129 318 133 319 128 320 133 321 133 321 129 322 130 323 133 324 129 325 133 326 133 326 130 327 131 328 133 329 130 330 133 331 133 331 131 332 132 333 133 334 131 335 133 336 133 336 132 337 122 338 133 339 132 340 133 341 133 341 0 342 0 342 1 343 0 344 1 345 2 346 0 347 0 347 3 348 0 349 3 350 1 351 0 352 0 352 4 353 0 354 4 355 3 356 0 357 0 357 5 358 0 359 5 360 4 361 0 362 0 362 6 363 0 364 6 365 5 366 0 367 0 367 7 368 0 369 7 370 6 371 0 372 0 372 8 373 0 374 8 375 7 376 0 377 0 377 9 378 0 379 9 380 8 381 0 382 0 382 10 383 0 384 10 385 9 386 0 387 0 387 11 388 0 389 11 390 10 391 0 392 0 392 12 393 0 394 12 395 11 396 0 397 0 397 2 398 0 399 2 400 12 401 2 402 1 403 13 404 2 405 13 406 14 407 1 408 3 409 15 410 1 411 15 412 13 413 3 414 4 415 16 416 3 417 16 418 15 419 4 420 5 421 17 422 4 423 17 424 16 425 5 426 6 427 18 428 5 429 18 430 17 431 6 432 7 433 19 434 6 435 19 436 18 437 7 438 8 439 20 440 7 441 20 442 19 443 8 444 9 445 21 446 8 447 21 448 20 449 9 450 10 451 22 452 9 453 22 454 21 455 10 456 11 457 23 458 10 459 23 460 22 461 11 462 12 463 24 464 11 465 24 466 23 467 12 468 2 469 14 470 12 471 14 472 24 473 14 474 13 475 25 476 14 477 25 478 26 479 13 480 15 481 27 482 13 483 27 484 25 485 15 486 16 487 28 488 15 489 28 490 27 491 16 492 17 493 29 494 16 495 29 496 28 497 17 498 18 499 30 500 17 501 30 502 29 503 18 504 19 505 31 506 18 507 31 508 30 509 19 510 20 511 32 512 19 513 32 514 31 515 20 516 21 517 33 518 20 519 33 520 32 521 21 522 22 523 34 524 21 525 34 526 33 527 22 528 23 529 35 530 22 531 35 532 34 533 23 534 24 535 36 536 23 537 36 538 35 539 24 540 14 541 26 542 24 543 26 544 36 545 26 546 25 547 37 548 26 549 37 550 38 551 25 552 27 553 39 554 25 555 39 556 37 557 27 558 28 559 40 560 27 561 40 562 39 563 28 564 29 565 41 566 28 567 41 568 40 569 29 570 30 571 42 572 29 573 42 574 41 575 30 576 31 577 43 578 30 579 43 580 42 581 31 582 32 583 44 584 31 585 44 586 43 587 32 588 33 589 45 590 32 591 45 592 44 593 33 594 34 595 46 596 33 597 46 598 45 599 34 600 35 601 47 602 34 603 47 604 46 605 35 606 36 607 48 608 35 609 48 610 47 611 36 612 26 613 38 614 36 615 38 616 48 617 38 618 37 619 49 620 38 621 49 622 50 623 37 624 39 625 51 626 37 627 51 628 49 629 39 630 40 631 52 632 39 633 52 634 51 635 40 636 41 637 53 638 40 639 53 640 52 641 41 642 42 643 54 644 41 645 54 646 53 647 42 648 43 649 55 650 42 651 55 652 54 653 43 654 44 655 56 656 43 657 56 658 55 659 44 660 45 661 57 662 44 663 57 664 56 665 45 666 46 667 58 668 45 669 58 670 57 671 46 672 47 673 59 674 46 675 59 676 58 677 47 678 48 679 60 680 47 681 60 682 59 683 48 684 38 685 50 686 48 687 50 688 60 689 50 690 49 691 61 692 50 693 61 694 62 695 49 696 51 697 63 698 49 699 63 700 61 701 51 702 52 703 64 704 51 705 64 706 63 707 52 708 53 709 65 710 52 711 65 712 64 713 53 714 54 715 66 716 53 717 66 718 65 719 54 720 55 721 67 722 54 723 67 724 66 725 55 726 56 727 68 728 55 729 68 730 67 731 56 732 57 733 69 734 56 735 69 736 68 737 57 738 58 739 70 740 57 741 70 742 69 743 58 744 59 745 71 746 58 747 71 748 70 749 59 750 60 751 72 752 59 753 72 754 71 755 60 756 50 757 62 758 60 759 62 760 72 761 62 762 61 763 73 764 62 765 73 766 74 767 61 768 63 769 75 770 61 771 75 772 73 773 63 774 64 775 76 776 63 777 76 778 75 779 64 780 65 781 77 782 64 783 77 784 76 785 65 786 66 787 78 788 65 789 78 790 77 791 66 792 67 793 79 794 66 795 79 796 78 797 67 798 68 799 80 800 67 801 80 802 79 803 68 804 69 805 81 806 68 807 81 808 80 809 69 810 70 811 82 812 69 813 82 814 81 815 70 816 71 817 83 818 70 819 83 820 82 821 71 822 72 823 84 824 71 825 84 826 83 827 72 828 62 829 74 830 72 831 74 832 84 833 74 834 73 835 85 836 74 837 85 838 86 839</p>
                </triangles>
            </mesh>
        </geometry>
    </library_geometries>
    <library_visual_scenes>
        <visual_scene id="Building_74_CROWN2">
            <node>
                <instance_geometry url="#geometry0">
                    <bind_material>
                        <technique_common>
                            <instance_material symbol="default_ai_0.2_sh_0.2_tr_0.0_dc_r_0.8_g_0.8_b_0.8_sc_r_1.0_g_1.0_b_1.0_ec_r_0.0_g_0.0_b_0_tri" target="#default_ai_0.2_sh_0.2_tr_0.0_dc_r_0.8_g_0.8_b_0.8_sc_r_1.0_g_1.0_b_1.0_ec_r_0.0_g_0.0_b_0_mat"/>
                        </technique_common>
                    </bind_material>
                </instance_geometry>
            </node>
        </visual_scene>
    </library_visual_scenes>
    <scene>
        <instance_visual_scene url="#Building_74_CROWN2"/>
    </scene>
</COLLADA>
