<?xml version="1.0" encoding="UTF-8" standalone="yes"?>
<COLLADA xmlns="http://www.collada.org/2005/11/COLLADASchema" version="1.4.1">
    <asset>
        <contributor>
            <authoring_tool>3D City Database Importer/Exporter, version 5.5.3; Chair of Geoinformatics, Technical University of Munich</authoring_tool>
        </contributor>
        <created>2026-09-25T14:45:28.431</created>
        <modified>2026-09-25T14:45:28.431</modified>
        <unit meter="1.0" name="meters"/>
        <up_axis>Z_UP</up_axis>
    </asset>
    <library_materials>
        <material id="default_ai_0.2_sh_0.2_tr_0.0_dc_r_0.8_g_0.8_b_0.8_sc_r_1.0_g_1.0_b_1.0_ec_r_0.0_g_0.0_b_0_mat">
            <instance_effect url="#default_ai_0.2_sh_0.2_tr_0.0_dc_r_0.8_g_0.8_b_0.8_sc_r_1.0_g_1.0_b_1.0_ec_r_0.0_g_0.0_b_0_eff"/>
        </material>
    </library_materials>
    <library_effects>
        <effect id="default_ai_0.2_sh_0.2_tr_0.0_dc_r_0.8_g_0.8_b_0.8_sc_r_1.0_g_1.0_b_1.0_ec_r_0.0_g_0.0_b_0_eff">
            <profile_COMMON>
                <technique sid="COMMON">
                    <lambert>
                        <emission>
                            <color>0.0 0.0 0.0 1.0</color>
                        </emission>
                        <diffuse>
                            <color>0.8 0.8 0.8 1.0</color>
                        </diffuse>
                        <reflective>
                            <color>1.0 1.0 1.0 1.0</color>
                        </reflective>
                        <reflectivity>
                            <float>0.2</float>
                        </reflectivity>
                        <transparent opaque="A_ONE">
                            <color>1.0 1.0 1.0 1.0</color>
                        </transparent>
                        <transparency>
                            <float>1.0</float>
                        </transparency>
                    </lambert>
                </technique>
                <extra>
                    <technique profile="GOOGLEEARTH">
                        <double_sided>0</double_sided>
                    </technique>
                </extra>
            </profile_COMMON>
        </effect>
    </library_effects>
    <library_geometries>
        <geometry id="geometry0">
            <mesh>
                <source id="geometry0-position">
                    <float_array id="geometry0-position-array" count="402">0.0 0.0 2.9 0.3250088 0.1876445 2.8505927 0.3752875 0.0 2.8505927 0.1876445 0.3250088 2.8505927 0.0 0.3752875 2.8505927 -0.1876445 0.3250088 2.8505927 -0.3250088 0.1876445 2.8505927 -0.3752875 0.0 2.8505927 -0.3250088 -0.1876445 2.8505927 -0.1876445 -0.3250088 2.8505927 0.0 -0.3752875 2.8505927 0.1876445 -0.3250088 2.8505927 0.3250088 -0.1876445 2.8505927 0.6278689 0.3625 2.7057362 0.725 0.0 2.7057362 0.3625 0.6278688 2.7057362 0.0 0.725 2.7057362 -0.3625 0.6278688 2.7057362 -0.6278689 0.3625 2.7057362 -0.725 0.0 2.7057362 -0.6278689 -0.3625 2.7057362 -0.3625 -0.6278688 2.7057362 0.0 -0.725 2.7057362 0.3625 -0.6278688 2.7057362 0.6278689 -0.3625 2.7057362 0.8879394 0.5126518 2.4753037 1.0253052 0.0 2.4753037 0.5126519 0.8879394 2.4753037 0.0 1.0253052 2.4753037 -0.5126519 0.8879394 2.4753037 -0.8879394 0.5126518 2.4753037 -1.0253052 0.0 2.4753037 -0.8879394 -0.5126518 2.4753037 -0.5126519 -0.8879394 2.4753037 0.0 -1.0253052 2.4753037 0.5126519 -0.8879394 2.4753037 0.8879394 -0.5126518 2.4753037 1.0875 0.6278688 2.175 1.2557363 0.0 2.175 0.6278689 1.0875 2.175 0.0 1.2557363 2.175 -0.6278689 1.0875 2.175 -1.0875 0.6278688 2.175 -1.2557363 0.0 2.175 -1.0875 -0.6278688 2.175 -0.6278689 -1.0875 2.175 0.0 -1.2557363 2.175 0.6278689 -1.0875 2.175 1.0875 -0.6278688 2.175 1.2129482 0.7002963 1.8252876 1.4005927 0.0 1.8252876 0.7002963 1.2129482 1.8252876 0.0 1.4005927 1.8252876 -0.7002963 1.2129482 1.8252876 -1.2129482 0.7002963 1.8252876 -1.4005927 0.0 1.8252876 -1.2129482 -0.7002963 1.8252876 -0.7002963 -1.2129482 1.8252876 0.0 -1.4005927 1.8252876 0.7002963 -1.2129482 1.8252876 1.2129482 -0.7002963 1.8252876 1.2557363 0.725 1.45 1.45 0.0 1.45 0.725 1.2557363 1.45 0.0 1.45 1.45 -0.725 1.2557363 1.45 -1.2557363 0.725 1.45 -1.45 0.0 1.45 -1.2557363 -0.725 1.45 -0.725 -1.2557363 1.45 0.0 -1.45 1.45 0.725 -1.2557363 1.45 1.2557363 -0.725 1.45 1.2129482 0.7002963 1.0747124 1.4005927 0.0 1.0747124 0.7002963 1.2129482 1.0747124 0.0 1.4005927 1.0747124 -0.7002963 1.2129482 1.0747124 -1.2129482 0.7002963 1.0747124 -1.4005927 0.0 1.0747124 -1.2129482 -0.7002963 1.0747124 -0.7002963 -1.2129482 1.0747124 0.0 -1.4005927 1.0747124 0.7002963 -1.2129482 1.0747124 1.2129482 -0.7002963 1.0747124 1.0875 0.6278688 0.725 1.2557363 0.0 0.725 0.6278689 1.0875 0.725 0.0 1.2557363 0.725 -0.6278689 1.0875 0.725 -1.0875 0.6278688 0.725 -1.2557363 0.0 0.725 -1.0875 -0.6278688 0.725 -0.6278689 -1.0875 0.725 0.0 -1.2557363 0.725 0.6278689 -1.0875 0.725 1.0875 -0.6278688 0.725 0.8879394 0.5126518 0.4246948 1.0253052 0.0 0.4246948 0.5126519 0.8879394 0.4246948 0.0 1.0253052 0.4246948 -0.5126519 0.8879394 0.4246948 -0.8879394 0.5126518 0.4246948 -1.0253052 0.0 0.4246948 -0.8879394 -0.5126518 0.4246948 -0.5126519 -0.8879394 0.4246948 0.0 -1.0253052 0.4246948 0.5126519 -0.8879394 0.4246948 0.8879394 -0.5126518 0.4246948 0.6278689 0.3625 0.1942623 0.725 0.0 0.1942623 0.3625 0.6278688 0.1942623 0.0 0.725 0.1942623 -0.3625 0.6278688 0.1942623 -0.6278689 0.3625 0.1942623 -0.725 0.0 0.1942623 -0.6278689 -0.3625 0.1942623 -0.3625 -0.6278688 0.1942623 0.0 -0.725 0.1942623 0.3625 -0.6278688 0.1942623 0.6278689 -0.3625 0.1942623 0.3250088 0.1876445 0.0494073 0.3752875 0.0 0.0494073 0.1876445 0.3250088 0.0494073 0.0 0.3752875 0.0494073 -0.1876445 0.3250088 0.0494073 -0.3250088 0.1876445 0.0494073 -0.3752875 0.0 0.0494073 -0.3250088 -0.1876445 0.0494073 -0.1876445 -0.3250088 0.0494073 0.0 -0.3752875 0.0494073 0.1876445 -0.3250088 0.0494073 0.3250088 -0.1876445 0.0494073 0.0 0.0 0.0</float_array>
                    <technique_common>
                        <accessor count="134" source="#geometry0-position-array" stride="3">
                            <param name="X" type="float"/>
                            <param name="Y" type="float"/>
                            <param name="Z" type="float"/>
                        </accessor>
                    </technique_common>
                </source>
                <source id="geometry0-normal">
                    <float_array id="geometry0-normal-array" count="2520">-0.1020041 -0.3806859 0.9190612 -0.1020041 -0.3806859 0.9190612 -0.1020041 -0.3806859 0.9190612 -0.1020037 -0.3806863 0.919061 -0.1020037 -0.3806863 0.919061 -0.1020037 -0.3806863 0.919061 0.1020041 -0.3806861 0.9190611 0.1020041 -0.3806861 0.9190611 0.1020041 -0.3806861 0.9190611 0.1020036 -0.3806859 0.9190612 0.1020036 -0.3806859 0.9190612 0.1020036 -0.3806859 0.9190612 0.2786817 -0.2786817 0.9190609 0.2786817 -0.2786817 0.9190609 0.2786817 -0.2786817 0.9190609 0.2786817 -0.2786817 0.9190609 0.2786817 -0.2786817 0.9190609 0.2786817 -0.2786817 0.9190609 0.3806859 -0.1020041 0.9190612 0.3806859 -0.1020041 0.9190612 0.3806859 -0.1020041 0.9190612 0.3806863 -0.1020037 0.919061 0.3806863 -0.1020037 0.919061 0.3806863 -0.1020037 0.919061 0.3806861 0.1020041 0.9190611 0.3806861 0.1020041 0.9190611 0.3806861 0.1020041 0.9190611 0.3806859 0.1020036 0.9190612 0.3806859 0.1020036 0.9190612 0.3806859 0.1020036 0.9190612 0.2786817 0.2786817 0.9190609 0.2786817 0.2786817 0.9190609 0.2786817 0.2786817 0.9190609 0.2786817 0.2786817 0.9190609 0.2786817 0.2786817 0.9190609 0.2786817 0.2786817 0.9190609 0.1020041 0.3806859 0.9190612 0.1020041 0.3806859 0.9190612 0.1020041 0.3806859 0.9190612 0.1020037 0.3806863 0.919061 0.1020037 0.3806863 0.919061 0.1020037 0.3806863 0.919061 -0.1020041 0.3806861 0.9190611 -0.1020041 0.3806861 0.9190611 -0.1020041 0.3806861 0.9190611 -0.1020036 0.3806859 0.9190612 -0.1020036 0.3806859 0.9190612 -0.1020036 0.3806859 0.9190612 -0.2786817 0.2786817 0.9190609 -0.2786817 0.2786817 0.9190609 -0.2786817 0.2786817 0.9190609 -0.2786817 0.2786817 0.9190609 -0.2786817 0.2786817 0.9190609 -0.2786817 0.2786817 0.9190609 -0.3806859 0.1020041 0.9190612 -0.3806859 0.1020041 0.9190612 -0.3806859 0.1020041 0.9190612 -0.3806863 0.1020037 0.919061 -0.3806863 0.1020037 0.919061 -0.3806863 0.1020037 0.919061 -0.1304458 -0.0349525 0.9908391 -0.1304458 -0.0349525 0.9908391 -0.1304458 -0.0349525 0.9908391 1.0 0.0 0.0 1.0 0.0 0.0 -0.0954928 -0.0954928 0.9908392 -0.0954928 -0.0954928 0.9908392 -0.0954928 -0.0954928 0.9908392 1.0 0.0 0.0 1.0 0.0 0.0 -0.0349525 -0.1304458 0.9908391 -0.0349525 -0.1304458 0.9908391 -0.0349525 -0.1304458 0.9908391 1.0 0.0 0.0 1.0 0.0 0.0 0.0349525 -0.1304458 0.9908391 0.0349525 -0.1304458 0.9908391 0.0349525 -0.1304458 0.9908391 1.0 0.0 0.0 1.0 0.0 0.0 0.0954928 -0.0954928 0.9908392 0.0954928 -0.0954928 0.9908392 0.0954928 -0.0954928 0.9908392 1.0 0.0 0.0 1.0 0.0 0.0 0.1304458 -0.0349525 0.9908391 0.1304458 -0.0349525 0.9908391 0.1304458 -0.0349525 0.9908391 1.0 0.0 0.0 1.0 0.0 0.0 0.1304458 0.0349525 0.9908391 0.1304458 0.0349525 0.9908391 0.1304458 0.0349525 0.9908391 1.0 0.0 0.0 1.0 0.0 0.0 0.0954928 0.0954928 0.9908392 0.0954928 0.0954928 0.9908392 0.0954928 0.0954928 0.9908392 1.0 0.0 0.0 1.0 0.0 0.0 0.0349525 0.1304458 0.9908391 0.0349525 0.1304458 0.9908391 0.0349525 0.1304458 0.9908391 1.0 0.0 0.0 1.0 0.0 0.0 -0.0349525 0.1304458 0.9908391 -0.0349525 0.1304458 0.9908391 -0.0349525 0.1304458 0.9908391 1.0 0.0 0.0 1.0 0.0 0.0 -0.0954928 0.0954928 0.9908392 -0.0954928 0.0954928 0.9908392 -0.0954928 0.0954928 0.9908392 1.0 0.0 0.0 1.0 0.0 0.0 -0.1304458 0.0349525 0.9908391 -0.1304458 0.0349525 0.9908391 -0.1304458 0.0349525 0.9908391 1.0 0.0 0.0 1.0 0.0 0.0 1.0 0.0 0.0 1.0 0.0 0.0 -0.1304463 -0.0349527 -0.9908391 -0.1304463 -0.0349527 -0.9908391 -0.1304463 -0.0349527 -0.9908391 1.0 0.0 0.0 1.0 0.0 0.0 -0.0954931 -0.0954931 -0.9908391 -0.0954931 -0.0954931 -0.9908391 -0.0954931 -0.0954931 -0.9908391 1.0 0.0 0.0 1.0 0.0 0.0 -0.0349527 -0.1304463 -0.9908391 -0.0349527 -0.1304463 -0.9908391 -0.0349527 -0.1304463 -0.9908391 1.0 0.0 0.0 1.0 0.0 0.0 0.0349527 -0.1304463 -0.9908391 0.0349527 -0.1304463 -0.9908391 0.0349527 -0.1304463 -0.9908391 1.0 0.0 0.0 1.0 0.0 0.0 0.0954931 -0.0954931 -0.9908391 0.0954931 -0.0954931 -0.9908391 0.0954931 -0.0954931 -0.9908391 1.0 0.0 0.0 1.0 0.0 0.0 0.1304463 -0.0349527 -0.9908391 0.1304463 -0.0349527 -0.9908391 0.1304463 -0.0349527 -0.9908391 1.0 0.0 0.0 1.0 0.0 0.0 0.1304463 0.0349527 -0.9908391 0.1304463 0.0349527 -0.9908391 0.1304463 0.0349527 -0.9908391 1.0 0.0 0.0 1.0 0.0 0.0 0.0954931 0.0954931 -0.9908391 0.0954931 0.0954931 -0.9908391 0.0954931 0.0954931 -0.9908391 1.0 0.0 0.0 1.0 0.0 0.0 0.0349527 0.1304463 -0.9908391 0.0349527 0.1304463 -0.9908391 0.0349527 0.1304463 -0.9908391 1.0 0.0 0.0 1.0 0.0 0.0 -0.0349527 0.1304463 -0.9908391 -0.0349527 0.1304463 -0.9908391 -0.0349527 0.1304463 -0.9908391 1.0 0.0 0.0 1.0 0.0 0.0 -0.0954931 0.0954931 -0.9908391 -0.0954931 0.0954931 -0.9908391 -0.0954931 0.0954931 -0.9908391 1.0 0.0 0.0 1.0 0.0 0.0 -0.1304463 0.0349527 -0.9908391 -0.1304463 0.0349527 -0.9908391 -0.1304463 0.0349527 -0.9908391 -0.3806896 -0.1020046 -0.9190596 -0.3806896 -0.1020046 -0.9190596 -0.3806896 -0.1020046 -0.9190596 -0.3806891 -0.1020049 -0.9190597 -0.3806891 -0.1020049 -0.9190597 -0.3806891 -0.1020049 -0.9190597 -0.2786841 -0.2786841 -0.9190596 -0.2786841 -0.2786841 -0.9190596 -0.2786841 -0.2786841 -0.9190596 -0.2786841 -0.2786841 -0.9190596 -0.2786841 -0.2786841 -0.9190596 -0.2786841 -0.2786841 -0.9190596 -0.1020045 -0.3806891 -0.9190598 -0.1020045 -0.3806891 -0.9190598 -0.1020045 -0.3806891 -0.9190598 -0.102005 -0.3806894 -0.9190596 -0.102005 -0.3806894 -0.9190596 -0.102005 -0.3806894 -0.9190596 0.1020046 -0.3806896 -0.9190596 0.1020046 -0.3806896 -0.9190596 0.1020046 -0.3806896 -0.9190596 0.1020049 -0.3806891 -0.9190597 0.1020049 -0.3806891 -0.9190597 0.1020049 -0.3806891 -0.9190597 0.2786841 -0.2786841 -0.9190596 0.2786841 -0.2786841 -0.9190596 0.2786841 -0.2786841 -0.9190596 0.2786841 -0.2786841 -0.9190596 0.2786841 -0.2786841 -0.9190596 0.2786841 -0.2786841 -0.9190596 0.3806891 -0.1020045 -0.9190598 0.3806891 -0.1020045 -0.9190598 0.3806891 -0.1020045 -0.9190598 0.3806894 -0.102005 -0.9190596 0.3806894 -0.102005 -0.9190596 0.3806894 -0.102005 -0.9190596 0.3806896 0.1020046 -0.9190596 0.3806896 0.1020046 -0.9190596 0.3806896 0.1020046 -0.9190596 0.3806891 0.1020049 -0.9190597 0.3806891 0.1020049 -0.9190597 0.3806891 0.1020049 -0.9190597 0.2786841 0.2786841 -0.9190596 0.2786841 0.2786841 -0.9190596 0.2786841 0.2786841 -0.9190596 0.2786841 0.2786841 -0.9190596 0.2786841 0.2786841 -0.9190596 0.2786841 0.2786841 -0.9190596 0.1020045 0.3806891 -0.9190598 0.1020045 0.3806891 -0.9190598 0.1020045 0.3806891 -0.9190598 0.102005 0.3806894 -0.9190596 0.102005 0.3806894 -0.9190596 0.102005 0.3806894 -0.9190596 -0.1020046 0.3806896 -0.9190596 -0.1020046 0.3806896 -0.9190596 -0.1020046 0.3806896 -0.9190596 -0.1020049 0.3806891 -0.9190597 -0.1020049 0.3806891 -0.9190597 -0.1020049 0.3806891 -0.9190597 -0.2786841 0.2786841 -0.9190596 -0.2786841 0.2786841 -0.9190596 -0.2786841 0.2786841 -0.9190596 -0.2786841 0.2786841 -0.9190596 -0.2786841 0.2786841 -0.9190596 -0.2786841 0.2786841 -0.9190596 -0.3806891 0.1020045 -0.9190598 -0.3806891 0.1020045 -0.9190598 -0.3806891 0.1020045 -0.9190598 -0.3806894 0.102005 -0.9190596 -0.3806894 0.102005 -0.9190596 -0.3806894 0.102005 -0.9190596 -0.6008234 -0.1609895 -0.783003 -0.6008234 -0.1609895 -0.783003 -0.6008234 -0.1609895 -0.783003 -0.6008212 -0.1609909 -0.7830044 -0.6008212 -0.1609909 -0.7830044 -0.6008212 -0.1609909 -0.7830044 -0.439833 -0.439833 -0.7830031 -0.439833 -0.439833 -0.7830031 -0.439833 -0.439833 -0.7830031 -0.439833 -0.439833 -0.7830031 -0.439833 -0.439833 -0.7830031 -0.439833 -0.439833 -0.7830031 -0.1609889 -0.6008213 -0.7830046 -0.1609889 -0.6008213 -0.7830046 -0.1609889 -0.6008213 -0.7830046 -0.1609912 -0.6008226 -0.7830032 -0.1609912 -0.6008226 -0.7830032 -0.1609912 -0.6008226 -0.7830032 0.1609895 -0.6008234 -0.783003 0.1609895 -0.6008234 -0.783003 0.1609895 -0.6008234 -0.783003 0.1609909 -0.6008212 -0.7830044 0.1609909 -0.6008212 -0.7830044 0.1609909 -0.6008212 -0.7830044 0.439833 -0.439833 -0.7830031 0.439833 -0.439833 -0.7830031 0.439833 -0.439833 -0.7830031 0.439833 -0.439833 -0.7830031 0.439833 -0.439833 -0.7830031 0.439833 -0.439833 -0.7830031 0.6008213 -0.1609889 -0.7830046 0.6008213 -0.1609889 -0.7830046 0.6008213 -0.1609889 -0.7830046 0.6008226 -0.1609912 -0.7830032 0.6008226 -0.1609912 -0.7830032 0.6008226 -0.1609912 -0.7830032 0.6008234 0.1609895 -0.783003 0.6008234 0.1609895 -0.783003 0.6008234 0.1609895 -0.783003 0.6008212 0.1609909 -0.7830044 0.6008212 0.1609909 -0.7830044 0.6008212 0.1609909 -0.7830044 0.439833 0.439833 -0.7830031 0.439833 0.439833 -0.7830031 0.439833 0.439833 -0.7830031 0.439833 0.439833 -0.7830031 0.439833 0.439833 -0.7830031 0.439833 0.439833 -0.7830031 0.1609889 0.6008213 -0.7830046 0.1609889 0.6008213 -0.7830046 0.1609889 0.6008213 -0.7830046 0.1609912 0.6008226 -0.7830032 0.1609912 0.6008226 -0.7830032 0.1609912 0.6008226 -0.7830032 -0.1609895 0.6008234 -0.783003 -0.1609895 0.6008234 -0.783003 -0.1609895 0.6008234 -0.783003 -0.1609909 0.6008212 -0.7830044 -0.1609909 0.6008212 -0.7830044 -0.1609909 0.6008212 -0.7830044 -0.439833 0.439833 -0.7830031 -0.439833 0.439833 -0.7830031 -0.439833 0.439833 -0.7830031 -0.439833 0.439833 -0.7830031 -0.439833 0.439833 -0.7830031 -0.439833 0.439833 -0.7830031 -0.6008213 0.1609889 -0.7830046 -0.6008213 0.1609889 -0.7830046 -0.6008213 0.1609889 -0.7830046 -0.6008226 0.1609912 -0.7830032 -0.6008226 0.1609912 -0.7830032 -0.6008226 0.1609912 -0.7830032 -0.7760106 -0.2079331 -0.595459 -0.7760106 -0.2079331 -0.595459 -0.7760106 -0.2079331 -0.595459 -0.7760134 -0.2079313 -0.5954559 -0.7760134 -0.2079313 -0.5954559 -0.7760134 -0.2079313 -0.5954559 -0.5680794 -0.5680794 -0.5954593 -0.5680794 -0.5680794 -0.5954593 -0.5680794 -0.5680794 -0.5954593 -0.5680794 -0.5680794 -0.5954592 -0.5680794 -0.5680794 -0.5954592 -0.5680794 -0.5680794 -0.5954592 -0.2079337 -0.776013 -0.5954556 -0.2079337 -0.776013 -0.5954556 -0.2079337 -0.776013 -0.5954556 -0.2079308 -0.7760114 -0.5954587 -0.2079308 -0.7760114 -0.5954587 -0.2079308 -0.7760114 -0.5954587 0.2079331 -0.7760106 -0.595459 0.2079331 -0.7760106 -0.595459 0.2079331 -0.7760106 -0.595459 0.2079313 -0.7760134 -0.5954559 0.2079313 -0.7760134 -0.5954559 0.2079313 -0.7760134 -0.5954559 0.5680794 -0.5680794 -0.5954593 0.5680794 -0.5680794 -0.5954593 0.5680794 -0.5680794 -0.5954593 0.5680794 -0.5680794 -0.5954592 0.5680794 -0.5680794 -0.5954592 0.5680794 -0.5680794 -0.5954592 0.776013 -0.2079337 -0.5954556 0.776013 -0.2079337 -0.5954556 0.776013 -0.2079337 -0.5954556 0.7760114 -0.2079308 -0.5954587 0.7760114 -0.2079308 -0.5954587 0.7760114 -0.2079308 -0.5954587 0.7760106 0.2079331 -0.595459 0.7760106 0.2079331 -0.595459 0.7760106 0.2079331 -0.595459 0.7760134 0.2079313 -0.5954559 0.7760134 0.2079313 -0.5954559 0.7760134 0.2079313 -0.5954559 0.5680794 0.5680794 -0.5954593 0.5680794 0.5680794 -0.5954593 0.5680794 0.5680794 -0.5954593 0.5680794 0.5680794 -0.5954592 0.5680794 0.5680794 -0.5954592 0.5680794 0.5680794 -0.5954592 0.2079337 0.776013 -0.5954556 0.2079337 0.776013 -0.5954556 0.2079337 0.776013 -0.5954556 0.2079308 0.7760114 -0.5954587 0.2079308 0.7760114 -0.5954587 0.2079308 0.7760114 -0.5954587 -0.2079331 0.7760106 -0.595459 -0.2079331 0.7760106 -0.595459 -0.2079331 0.7760106 -0.595459 -0.2079313 0.7760134 -0.5954559 -0.2079313 0.7760134 -0.5954559 -0.2079313 0.7760134 -0.5954559 -0.5680794 0.5680794 -0.5954593 -0.5680794 0.5680794 -0.5954593 -0.5680794 0.5680794 -0.5954593 -0.5680794 0.5680794 -0.5954592 -0.5680794 0.5680794 -0.5954592 -0.5680794 0.5680794 -0.5954592 -0.776013 0.2079337 -0.5954556 -0.776013 0.2079337 -0.5954556 -0.776013 0.2079337 -0.5954556 -0.7760114 0.2079308 -0.5954587 -0.7760114 0.2079308 -0.5954587 -0.7760114 0.2079308 -0.5954587 -0.8968095 -0.2402984 -0.3714692 -0.8968095 -0.2402984 -0.3714692 -0.8968095 -0.2402984 -0.3714692 -0.8968079 -0.2402998 -0.3714722 -0.8968079 -0.2402998 -0.3714722 -0.8968079 -0.2402998 -0.3714722 -0.6565099 -0.6565099 -0.3714693 -0.6565099 -0.6565099 -0.3714693 -0.6565099 -0.6565099 -0.3714693 -0.6565099 -0.6565099 -0.3714692 -0.6565099 -0.6565099 -0.3714692 -0.6565099 -0.6565099 -0.3714692 -0.2402981 -0.8968083 -0.3714723 -0.2402981 -0.8968083 -0.3714723 -0.2402981 -0.8968083 -0.3714723 -0.2403001 -0.896809 -0.3714694 -0.2403001 -0.896809 -0.3714694 -0.2403001 -0.896809 -0.3714694 0.2402984 -0.8968095 -0.3714692 0.2402984 -0.8968095 -0.3714692 0.2402984 -0.8968095 -0.3714692 0.2402998 -0.8968079 -0.3714722 0.2402998 -0.8968079 -0.3714722 0.2402998 -0.8968079 -0.3714722 0.6565099 -0.6565099 -0.3714693 0.6565099 -0.6565099 -0.3714693 0.6565099 -0.6565099 -0.3714693 0.6565099 -0.6565099 -0.3714692 0.6565099 -0.6565099 -0.3714692 0.6565099 -0.6565099 -0.3714692 0.8968083 -0.2402981 -0.3714723 0.8968083 -0.2402981 -0.3714723 0.8968083 -0.2402981 -0.3714723 0.896809 -0.2403001 -0.3714694 0.896809 -0.2403001 -0.3714694 0.896809 -0.2403001 -0.3714694 0.8968095 0.2402984 -0.3714692 0.8968095 0.2402984 -0.3714692 0.8968095 0.2402984 -0.3714692 0.8968079 0.2402998 -0.3714722 0.8968079 0.2402998 -0.3714722 0.8968079 0.2402998 -0.3714722 0.6565099 0.6565099 -0.3714693 0.6565099 0.6565099 -0.3714693 0.6565099 0.6565099 -0.3714693 0.6565099 0.6565099 -0.3714692 0.6565099 0.6565099 -0.3714692 0.6565099 0.6565099 -0.3714692 0.2402981 0.8968083 -0.3714723 0.2402981 0.8968083 -0.3714723 0.2402981 0.8968083 -0.3714723 0.2403001 0.896809 -0.3714694 0.2403001 0.896809 -0.3714694 0.2403001 0.896809 -0.3714694 -0.2402984 0.8968095 -0.3714692 -0.2402984 0.8968095 -0.3714692 -0.2402984 0.8968095 -0.3714692 -0.2402998 0.8968079 -0.3714722 -0.2402998 0.8968079 -0.3714722 -0.2402998 0.8968079 -0.3714722 -0.6565099 0.6565099 -0.3714693 -0.6565099 0.6565099 -0.3714693 -0.6565099 0.6565099 -0.3714693 -0.6565099 0.6565099 -0.3714692 -0.6565099 0.6565099 -0.3714692 -0.6565099 0.6565099 -0.3714692 -0.8968083 0.2402981 -0.3714723 -0.8968083 0.2402981 -0.3714723 -0.8968083 0.2402981 -0.3714723 -0.896809 0.2403001 -0.3714694 -0.896809 0.2403001 -0.3714694 -0.896809 0.2403001 -0.3714694 -0.958209 -0.2567522 -0.1261502 -0.958209 -0.2567522 -0.1261502 -0.958209 -0.2567522 -0.1261502 -0.958209 -0.2567522 -0.1261502 -0.958209 -0.2567522 -0.1261502 -0.958209 -0.2567522 -0.1261502 -0.7014578 -0.7014578 -0.1261502 -0.7014578 -0.7014578 -0.1261502 -0.7014578 -0.7014578 -0.1261502 -0.7014578 -0.7014578 -0.1261501 -0.7014578 -0.7014578 -0.1261501 -0.7014578 -0.7014578 -0.1261501 -0.2567522 -0.958209 -0.1261501 -0.2567522 -0.958209 -0.1261501 -0.2567522 -0.958209 -0.1261501 -0.2567522 -0.958209 -0.1261502 -0.2567522 -0.958209 -0.1261502 -0.2567522 -0.958209 -0.1261502 0.2567522 -0.958209 -0.1261502 0.2567522 -0.958209 -0.1261502 0.2567522 -0.958209 -0.1261502 0.2567522 -0.958209 -0.1261502 0.2567522 -0.958209 -0.1261502 0.2567522 -0.958209 -0.1261502 0.7014578 -0.7014578 -0.1261502 0.7014578 -0.7014578 -0.1261502 0.7014578 -0.7014578 -0.1261502 0.7014578 -0.7014578 -0.1261501 0.7014578 -0.7014578 -0.1261501 0.7014578 -0.7014578 -0.1261501 0.958209 -0.2567522 -0.1261501 0.958209 -0.2567522 -0.1261501 0.958209 -0.2567522 -0.1261501 0.958209 -0.2567522 -0.1261502 0.958209 -0.2567522 -0.1261502 0.958209 -0.2567522 -0.1261502 0.958209 0.2567522 -0.1261502 0.958209 0.2567522 -0.1261502 0.958209 0.2567522 -0.1261502 0.958209 0.2567522 -0.1261502 0.958209 0.2567522 -0.1261502 0.958209 0.2567522 -0.1261502 0.7014578 0.7014578 -0.1261502 0.7014578 0.7014578 -0.1261502 0.7014578 0.7014578 -0.1261502 0.7014578 0.7014578 -0.1261501 0.7014578 0.7014578 -0.1261501 0.7014578 0.7014578 -0.1261501 0.2567522 0.958209 -0.1261501 0.2567522 0.958209 -0.1261501 0.2567522 0.958209 -0.1261501 0.2567522 0.958209 -0.1261502 0.2567522 0.958209 -0.1261502 0.2567522 0.958209 -0.1261502 -0.2567522 0.958209 -0.1261502 -0.2567522 0.958209 -0.1261502 -0.2567522 0.958209 -0.1261502 -0.2567522 0.958209 -0.1261502 -0.2567522 0.958209 -0.1261502 -0.2567522 0.958209 -0.1261502 -0.7014578 0.7014578 -0.1261502 -0.7014578 0.7014578 -0.1261502 -0.7014578 0.7014578 -0.1261502 -0.7014578 0.7014578 -0.1261501 -0.7014578 0.7014578 -0.1261501 -0.7014578 0.7014578 -0.1261501 -0.958209 0.2567522 -0.1261501 -0.958209 0.2567522 -0.1261501 -0.958209 0.2567522 -0.1261501 -0.958209 0.2567522 -0.1261502 -0.958209 0.2567522 -0.1261502 -0.958209 0.2567522 -0.1261502 -0.958209 -0.2567522 0.1261502 -0.958209 -0.2567522 0.1261502 -0.958209 -0.2567522 0.1261502 -0.958209 -0.2567522 0.1261501 -0.958209 -0.2567522 0.1261501 -0.958209 -0.2567522 0.1261501 -0.7014578 -0.7014578 0.1261501 -0.7014578 -0.7014578 0.1261501 -0.7014578 -0.7014578 0.1261501 -0.7014578 -0.7014578 0.1261501 -0.7014578 -0.7014578 0.1261501 -0.7014578 -0.7014578 0.1261501 -0.2567522 -0.958209 0.1261501 -0.2567522 -0.958209 0.1261501 -0.2567522 -0.958209 0.1261501 -0.2567522 -0.958209 0.1261501 -0.2567522 -0.958209 0.1261501 -0.2567522 -0.958209 0.1261501 0.2567522 -0.958209 0.1261502 0.2567522 -0.958209 0.1261502 0.2567522 -0.958209 0.1261502 0.2567522 -0.958209 0.1261501 0.2567522 -0.958209 0.1261501 0.2567522 -0.958209 0.1261501 0.7014578 -0.7014578 0.1261501 0.7014578 -0.7014578 0.1261501 0.7014578 -0.7014578 0.1261501 0.7014578 -0.7014578 0.1261501 0.7014578 -0.7014578 0.1261501 0.7014578 -0.7014578 0.1261501 0.958209 -0.2567522 0.1261501 0.958209 -0.2567522 0.1261501 0.958209 -0.2567522 0.1261501 0.958209 -0.2567522 0.1261501 0.958209 -0.2567522 0.1261501 0.958209 -0.2567522 0.1261501 0.958209 0.2567522 0.1261502 0.958209 0.2567522 0.1261502 0.958209 0.2567522 0.1261502 0.958209 0.2567522 0.1261501 0.958209 0.2567522 0.1261501 0.958209 0.2567522 0.1261501 0.7014578 0.7014578 0.1261501 0.7014578 0.7014578 0.1261501 0.7014578 0.7014578 0.1261501 0.7014578 0.7014578 0.1261501 0.7014578 0.7014578 0.1261501 0.7014578 0.7014578 0.1261501 0.2567522 0.958209 0.1261501 0.2567522 0.958209 0.1261501 0.2567522 0.958209 0.1261501 0.2567522 0.958209 0.1261501 0.2567522 0.958209 0.1261501 0.2567522 0.958209 0.1261501 -0.2567522 0.958209 0.1261502 -0.2567522 0.958209 0.1261502 -0.2567522 0.958209 0.1261502 -0.2567522 0.958209 0.1261501 -0.2567522 0.958209 0.1261501 -0.2567522 0.958209 0.1261501 -0.7014578 0.7014578 0.1261501 -0.7014578 0.7014578 0.1261501 -0.7014578 0.7014578 0.1261501 -0.7014578 0.7014578 0.1261501 -0.7014578 0.7014578 0.1261501 -0.7014578 0.7014578 0.1261501 -0.958209 0.2567522 0.1261501 -0.958209 0.2567522 0.1261501 -0.958209 0.2567522 0.1261501 -0.958209 0.2567522 0.1261501 -0.958209 0.2567522 0.1261501 -0.958209 0.2567522 0.1261501 -0.896809 -0.2403001 0.3714694 -0.896809 -0.2403001 0.3714694 -0.896809 -0.2403001 0.3714694 -0.8968083 -0.2402981 0.3714723 -0.8968083 -0.2402981 0.3714723 -0.8968083 -0.2402981 0.3714723 -0.6565099 -0.6565099 0.3714692 -0.6565099 -0.6565099 0.3714692 -0.6565099 -0.6565099 0.3714692 -0.6565099 -0.6565099 0.3714692 -0.6565099 -0.6565099 0.3714692 -0.6565099 -0.6565099 0.3714692 -0.2402998 -0.8968079 0.3714722 -0.2402998 -0.8968079 0.3714722 -0.2402998 -0.8968079 0.3714722 -0.2402984 -0.8968095 0.3714692 -0.2402984 -0.8968095 0.3714692 -0.2402984 -0.8968095 0.3714692 0.2403001 -0.896809 0.3714694 0.2403001 -0.896809 0.3714694 0.2403001 -0.896809 0.3714694 0.2402981 -0.8968083 0.3714723 0.2402981 -0.8968083 0.3714723 0.2402981 -0.8968083 0.3714723 0.6565099 -0.6565099 0.3714692 0.6565099 -0.6565099 0.3714692 0.6565099 -0.6565099 0.3714692 0.6565099 -0.6565099 0.3714692 0.6565099 -0.6565099 0.3714692 0.6565099 -0.6565099 0.3714692 0.8968079 -0.2402998 0.3714722 0.8968079 -0.2402998 0.3714722 0.8968079 -0.2402998 0.3714722 0.8968095 -0.2402984 0.3714692 0.8968095 -0.2402984 0.3714692 0.8968095 -0.2402984 0.3714692 0.896809 0.2403001 0.3714694 0.896809 0.2403001 0.3714694 0.896809 0.2403001 0.3714694 0.8968083 0.2402981 0.3714723 0.8968083 0.2402981 0.3714723 0.8968083 0.2402981 0.3714723 0.6565099 0.6565099 0.3714692 0.6565099 0.6565099 0.3714692 0.6565099 0.6565099 0.3714692 0.6565099 0.6565099 0.3714692 0.6565099 0.6565099 0.3714692 0.6565099 0.6565099 0.3714692 0.2402998 0.8968079 0.3714722 0.2402998 0.8968079 0.3714722 0.2402998 0.8968079 0.3714722 0.2402984 0.8968095 0.3714692 0.2402984 0.8968095 0.3714692 0.2402984 0.8968095 0.3714692 -0.2403001 0.896809 0.3714694 -0.2403001 0.896809 0.3714694 -0.2403001 0.896809 0.3714694 -0.2402981 0.8968083 0.3714723 -0.2402981 0.8968083 0.3714723 -0.2402981 0.8968083 0.3714723 -0.6565099 0.6565099 0.3714692 -0.6565099 0.6565099 0.3714692 -0.6565099 0.6565099 0.3714692 -0.6565099 0.6565099 0.3714692 -0.6565099 0.6565099 0.3714692 -0.6565099 0.6565099 0.3714692 -0.8968079 0.2402998 0.3714722 -0.8968079 0.2402998 0.3714722 -0.8968079 0.2402998 0.3714722 -0.8968095 0.2402984 0.3714692 -0.8968095 0.2402984 0.3714692 -0.8968095 0.2402984 0.3714692 -0.7760128 -0.2079312 0.5954568 -0.7760128 -0.2079312 0.5954568 -0.7760128 -0.2079312 0.5954568 -0.7760144 -0.2079341 0.5954537 -0.7760144 -0.2079341 0.5954537 -0.7760144 -0.2079341 0.5954537 -0.5680803 -0.5680803 0.5954574 -0.5680803 -0.5680803 0.5954574 -0.5680803 -0.5680803 0.5954574 -0.5680803 -0.5680803 0.5954574 -0.5680803 -0.5680803 0.5954574 -0.5680803 -0.5680803 0.5954574 -0.2079317 -0.7760148 0.595454 -0.2079317 -0.7760148 0.595454 -0.2079317 -0.7760148 0.595454 -0.2079334 -0.776012 0.5954571 -0.2079334 -0.776012 0.5954571 -0.2079334 -0.776012 0.5954571 0.2079312 -0.7760128 0.5954568 0.2079312 -0.7760128 0.5954568 0.2079312 -0.7760128 0.5954568 0.2079341 -0.7760144 0.5954537 0.2079341 -0.7760144 0.5954537 0.2079341 -0.7760144 0.5954537 0.5680803 -0.5680803 0.5954574 0.5680803 -0.5680803 0.5954574 0.5680803 -0.5680803 0.5954574 0.5680803 -0.5680803 0.5954574 0.5680803 -0.5680803 0.5954574 0.5680803 -0.5680803 0.5954574 0.7760148 -0.2079317 0.595454 0.7760148 -0.2079317 0.595454 0.7760148 -0.2079317 0.595454 0.776012 -0.2079334 0.5954571 0.776012 -0.2079334 0.5954571 0.776012 -0.2079334 0.5954571 0.7760128 0.2079312 0.5954568 0.7760128 0.2079312 0.5954568 0.7760128 0.2079312 0.5954568 0.7760144 0.2079341 0.5954537 0.7760144 0.2079341 0.5954537 0.7760144 0.2079341 0.5954537 0.5680803 0.5680803 0.5954574 0.5680803 0.5680803 0.5954574 0.5680803 0.5680803 0.5954574 0.5680803 0.5680803 0.5954574 0.5680803 0.5680803 0.5954574 0.5680803 0.5680803 0.5954574 0.2079317 0.7760148 0.595454 0.2079317 0.7760148 0.595454 0.2079317 0.7760148 0.595454 0.2079334 0.776012 0.5954571 0.2079334 0.776012 0.5954571 0.2079334 0.776012 0.5954571 -0.2079312 0.7760128 0.5954568 -0.2079312 0.7760128 0.5954568 -0.2079312 0.7760128 0.5954568 -0.2079341 0.7760144 0.5954537 -0.2079341 0.7760144 0.5954537 -0.2079341 0.7760144 0.5954537 -0.5680803 0.5680803 0.5954574 -0.5680803 0.5680803 0.5954574 -0.5680803 0.5680803 0.5954574 -0.5680803 0.5680803 0.5954574 -0.5680803 0.5680803 0.5954574 -0.5680803 0.5680803 0.5954574 -0.7760148 0.2079317 0.595454 -0.7760148 0.2079317 0.595454 -0.7760148 0.2079317 0.595454 -0.776012 0.2079334 0.5954571 -0.776012 0.2079334 0.5954571 -0.776012 0.2079334 0.5954571 -0.6008226 -0.1609912 0.7830032 -0.6008226 -0.1609912 0.7830032 -0.6008226 -0.1609912 0.7830032 -0.6008214 -0.160989 0.7830046 -0.6008214 -0.160989 0.7830046 -0.6008214 -0.160989 0.7830046 -0.439833 -0.439833 0.7830031 -0.439833 -0.439833 0.7830031 -0.439833 -0.439833 0.7830031 -0.439833 -0.439833 0.783003 -0.439833 -0.439833 0.783003 -0.439833 -0.439833 0.783003 -0.1609908 -0.6008211 0.7830043 -0.1609908 -0.6008211 0.7830043 -0.1609908 -0.6008211 0.7830043 -0.1609895 -0.6008234 0.783003 -0.1609895 -0.6008234 0.783003 -0.1609895 -0.6008234 0.783003 0.1609912 -0.6008226 0.7830032 0.1609912 -0.6008226 0.7830032 0.1609912 -0.6008226 0.7830032 0.160989 -0.6008214 0.7830046 0.160989 -0.6008214 0.7830046 0.160989 -0.6008214 0.7830046 0.439833 -0.439833 0.7830031 0.439833 -0.439833 0.7830031 0.439833 -0.439833 0.7830031 0.439833 -0.439833 0.783003 0.439833 -0.439833 0.783003 0.439833 -0.439833 0.783003 0.6008211 -0.1609908 0.7830043 0.6008211 -0.1609908 0.7830043 0.6008211 -0.1609908 0.7830043 0.6008234 -0.1609895 0.783003 0.6008234 -0.1609895 0.783003 0.6008234 -0.1609895 0.783003 0.6008226 0.1609912 0.7830032 0.6008226 0.1609912 0.7830032 0.6008226 0.1609912 0.7830032 0.6008214 0.160989 0.7830046 0.6008214 0.160989 0.7830046 0.6008214 0.160989 0.7830046 0.439833 0.439833 0.7830031 0.439833 0.439833 0.7830031 0.439833 0.439833 0.7830031 0.439833 0.439833 0.783003 0.439833 0.439833 0.783003 0.439833 0.439833 0.783003 0.1609908 0.6008211 0.7830043 0.1609908 0.6008211 0.7830043 0.1609908 0.6008211 0.7830043 0.1609895 0.6008234 0.783003 0.1609895 0.6008234 0.783003 0.1609895 0.6008234 0.783003 -0.1609912 0.6008226 0.7830032 -0.1609912 0.6008226 0.7830032 -0.1609912 0.6008226 0.7830032 -0.160989 0.6008214 0.7830046 -0.160989 0.6008214 0.7830046 -0.160989 0.6008214 0.7830046 -0.439833 0.439833 0.7830031 -0.439833 0.439833 0.7830031 -0.439833 0.439833 0.7830031 -0.439833 0.439833 0.783003 -0.439833 0.439833 0.783003 -0.439833 0.439833 0.783003 -0.6008211 0.1609908 0.7830043 -0.6008211 0.1609908 0.7830043 -0.6008211 0.1609908 0.7830043 -0.6008234 0.1609895 0.783003 -0.6008234 0.1609895 0.783003 -0.6008234 0.1609895 0.783003 -0.3806861 -0.1020041 0.9190611 -0.3806861 -0.1020041 0.9190611 -0.3806861 -0.1020041 0.9190611 -0.3806859 -0.1020036 0.9190612 -0.3806859 -0.1020036 0.9190612 -0.3806859 -0.1020036 0.9190612 -0.2786817 -0.2786817 0.9190609 -0.2786817 -0.2786817 0.9190609 -0.2786817 -0.2786817 0.9190609 -0.2786817 -0.2786817 0.9190609 -0.2786817 -0.2786817 0.9190609 -0.2786817 -0.2786817 0.9190609</float_array>
                    <technique_common>
                        <accessor count="840" source="#geometry0-normal-array" stride="3">
                            <param name="X" type="float"/>
                            <param name="Y" type="float"/>
                            <param name="Z" type="float"/>
                        </accessor>
                    </technique_common>
                </source>
                <vertices id="geometry0-vertex">
                    <input semantic="POSITION" source="#geometry0-position"/>
                </vertices>
                <triangles count="288" material="default_ai_0.2_sh_0.2_tr_0.0_dc_r_0.8_g_0.8_b_0.8_sc_r_1.0_g_1.0_b_1.0_ec_r_0.0_g_0.0_b_0_tri">
                    <input offset="0" semantic="VERTEX" source="#geometry0-vertex"/>
                    <input offset="1" semantic="NORMAL" source="#geometry0-normal"/>
                    <p>111 0 112 1 124 2 111 3 124 4 123 5 112 6 113 7 125 8 112 9 125 10 124 11 113 12 114 13 126 14 113 15 126 16 125 17 114 18 115 19 127 20 114 21 127 22 126 23 115 24 116 25 128 26 115 27 128 28 127 29 116 30 117 31 129 32 116 33 129 34 128 35 117 36 118 37 130 38 117 39 130 40 129 41 118 42 119 43 131 44 118 45 131 46 130 47 119 48 120 49 132 50 119 51 132 52 131 53 120 54 110 55 122 56 120 57 122 58 132 59 122 60 121 61 133 62 122 63 133 64 133 64 121 65 123 66 133 67 121 68 133 69 133 69 123 70 124 71 133 72 123 73 133 74 133 74 124 75 125 76 133 77 124 78 133 79 133 79 125 80 126 81 133 82 125 83 133 84 133 84 126 85 127 86 133 87 126 88 133 89 133 89 127 90 128 91 133 92 127 93 133 94 133 94 128 95 129 96 133 97 128 98 133 99 133 99 129 100 130 101 133 102 129 103 133 104 133 104 130 105 131 106 133 107 130 108 133 109 133 109 131 110 132 111 133 112 131 113 133 114 133 114 132 115 122 116 133 117 132 118 133 119 133 119 0 120 0 120 1 121 0 122 1 123 2 124 0 125 0 125 3 126 0 127 3 128 1 129 0 130 0 130 4 131 0 132 4 133 3 134 0 135 0 135 5 136 0 137 5 138 4 139 0 140 0 140 6 141 0 142 6 143 5 144 0 145 0 145 7 146 0 147 7 148 6 149 0 150 0 150 8 151 0 152 8 153 7 154 0 155 0 155 9 156 0 157 9 158 8 159 0 160 0 160 10 161 0 162 10 163 9 164 0 165 0 165 11 166 0 167 11 168 10 169 0 170 0 170 12 171 0 172 12 173 11 174 0 175 0 175 2 176 0 177 2 178 12 179 2 180 1 181 13 182 2 183 13 184 14 185 1 186 3 187 15 188 1 189 15 190 13 191 3 192 4 193 16 194 3 195 16 196 15 197 4 198 5 199 17 200 4 201 17 202 16 203 5 204 6 205 18 206 5 207 18 208 17 209 6 210 7 211 19 212 6 213 19 214 18 215 7 216 8 217 20 218 7 219 20 220 19 221 8 222 9 223 21 224 8 225 21 226 20 227 9 228 10 229 22 230 9 231 22 232 21 233 10 234 11 235 23 236 10 237 23 238 22 239 11 240 12 241 24 242 11 243 24 244 23 245 12 246 2 247 14 248 12 249 14 250 24 251 14 252 13 253 25 254 14 255 25 256 26 257 13 258 15 259 27 260 13 261 27 262 25 263 15 264 16 265 28 266 15 267 28 268 27 269 16 270 17 271 29 272 16 273 29 274 28 275 17 276 18 277 30 278 17 279 30 280 29 281 18 282 19 283 31 284 18 285 31 286 30 287 19 288 20 289 32 290 19 291 32 292 31 293 20 294 21 295 33 296 20 297 33 298 32 299 21 300 22 301 34 302 21 303 34 304 33 305 22 306 23 307 35 308 22 309 35 310 34 311 23 312 24 313 36 314 23 315 36 316 35 317 24 318 14 319 26 320 24 321 26 322 36 323 26 324 25 325 37 326 26 327 37 328 38 329 25 330 27 331 39 332 25 333 39 334 37 335 27 336 28 337 40 338 27 339 40 340 39 341 28 342 29 343 41 344 28 345 41 346 40 347 29 348 30 349 42 350 29 351 42 352 41 353 30 354 31 355 43 356 30 357 43 358 42 359 31 360 32 361 44 362 31 363 44 364 43 365 32 366 33 367 45 368 32 369 45 370 44 371 33 372 34 373 46 374 33 375 46 376 45 377 34 378 35 379 47 380 34 381 47 382 46 383 35 384 36 385 48 386 35 387 48 388 47 389 36 390 26 391 38 392 36 393 38 394 48 395 38 396 37 397 49 398 38 399 49 400 50 401 37 402 39 403 51 404 37 405 51 406 49 407 39 408 40 409 52 410 39 411 52 412 51 413 40 414 41 415 53 416 40 417 53 418 52 419 41 420 42 421 54 422 41 423 54 424 53 425 42 426 43 427 55 428 42 429 55 430 54 431 43 432 44 433 56 434 43 435 56 436 55 437 44 438 45 439 57 440 44 441 57 442 56 443 45 444 46 445 58 446 45 447 58 448 57 449 46 450 47 451 59 452 46 453 59 454 58 455 47 456 48 457 60 458 47 459 60 460 59 461 48 462 38 463 50 464 48 465 50 466 60 467 50 468 49 469 61 470 50 471 61 472 62 473 49 474 51 475 63 476 49 477 63 478 61 479 51 480 52 481 64 482 51 483 64 484 63 485 52 486 53 487 65 488 52 489 65 490 64 491 53 492 54 493 66 494 53 495 66 496 65 497 54 498 55 499 67 500 54 501 67 502 66 503 55 504 56 505 68 506 55 507 68 508 67 509 56 510 57 511 69 512 56 513 69 514 68 515 57 516 58 517 70 518 57 519 70 520 69 521 58 522 59 523 71 524 58 525 71 526 70 527 59 528 60 529 72 530 59 531 72 532 71 533 60 534 50 535 62 536 60 537 62 538 72 539 62 540 61 541 73 542 62 543 73 544 74 545 61 546 63 547 75 548 61 549 75 550 73 551 63 552 64 553 76 554 63 555 76 556 75 557 64 558 65 559 77 560 64 561 77 562 76 563 65 564 66 565 78 566 65 567 78 568 77 569 66 570 67 571 79 572 66 573 79 574 78 575 67 576 68 577 80 578 67 579 80 580 79 581 68 582 69 583 81 584 68 585 81 586 80 587 69 588 70 589 82 590 69 591 82 592 81 593 70 594 71 595 83 596 70 597 83 598 82 599 71 600 72 601 84 602 71 603 84 604 83 605 72 606 62 607 74 608 72 609 74 610 84 611 74 612 73 613 85 614 74 615 85 616 86 617 73 618 75 619 87 620 73 621 87 622 85 623 75 624 76 625 88 626 75 627 88 628 87 629 76 630 77 631 89 632 76 633 89 634 88 635 77 636 78 637 90 638 77 639 90 640 89 641 78 642 79 643 91 644 78 645 91 646 90 647 79 648 80 649 92 650 79 651 92 652 91 653 80 654 81 655 93 656 80 657 93 658 92 659 81 660 82 661 94 662 81 663 94 664 93 665 82 666 83 667 95 668 82 669 95 670 94 671 83 672 84 673 96 674 83 675 96 676 95 677 84 678 74 679 86 680 84 681 86 682 96 683 86 684 85 685 97 686 86 687 97 688 98 689 85 690 87 691 99 692 85 693 99 694 97 695 87 696 88 697 100 698 87 699 100 700 99 701 88 702 89 703 101 704 88 705 101 706 100 707 89 708 90 709 102 710 89 711 102 712 101 713 90 714 91 715 103 716 90 717 103 718 102 719 91 720 92 721 104 722 91 723 104 724 103 725 92 726 93 727 105 728 92 729 105 730 104 731 93 732 94 733 106 734 93 735 106 736 105 737 94 738 95 739 107 740 94 741 107 742 106 743 95 744 96 745 108 746 95 747 108 748 107 749 96 750 86 751 98 752 96 753 98 754 108 755 98 756 97 757 109 758 98 759 109 760 110 761 97 762 99 763 111 764 97 765 111 766 109 767 99 768 100 769 112 770 99 771 112 772 111 773 100 774 101 775 113 776 100 777 113 778 112 779 101 780 102 781 114 782 101 783 114 784 113 785 102 786 103 787 115 788 102 789 115 790 114 791 103 792 104 793 116 794 103 795 116 796 115 797 104 798 105 799 117 800 104 801 117 802 116 803 105 804 106 805 118 806 105 807 118 808 117 809 106 810 107 811 119 812 106 813 119 814 118 815 107 816 108 817 120 818 107 819 120 820 119 821 108 822 98 823 110 824 108 825 110 826 120 827 110 828 109 829 121 830 110 831 121 832 122 833 109 834 111 835 123 836 109 837 123 838 121 839</p>
                </triangles>
            </mesh>
        </geometry>
    </library_geometries>
    <library_visual_scenes>
        <visual_scene id="Building_227_CROWN1">
            <node>
                <instance_geometry url="#geometry0">
                    <bind_material>
                        <technique_common>
                            <instance_material symbol="default_ai_0.2_sh_0.2_tr_0.0_dc_r_0.8_g_0.8_b_0.8_sc_r_1.0_g_1.0_b_1.0_ec_r_0.0_g_0.0_b_0_tri" target="#default_ai_0.2_sh_0.2_tr_0.0_dc_r_0.8_g_0.8_b_0.8_sc_r_1.0_g_1.0_b_1.0_ec_r_0.0_g_0.0_b_0_mat"/>
                        </technique_common>
                    </bind_material>
                </instance_geometry>
            </node>
        </visual_scene>
    </library_visual_scenes>
    <scene>
        <instance_visual_scene url="#Building_227_CROWN1"/>
    </scene>
</COLLADA>
