<?xml version="1.0" encoding="UTF-8" standalone="yes"?>
<COLLADA xmlns="http://www.collada.org/2005/11/COLLADASchema" version="1.4.1">
    <asset>
        <contributor>
            <authoring_tool>3D City Database Importer/Exporter, version 5.5.3; Chair of Geoinformatics, Technical University of Munich</authoring_tool>
        </contributor>
        <created>2026-09-25T14:45:26.359</created>
        <modified>2026-09-25T14:45:26.359</modified>
        <unit meter="1.0" name="meters"/>
        <up_axis>Z_UP</up_axis>
    </asset>
    <library_materials>
        <material id="default_ai_0.2_sh_0.2_tr_0.0_dc_r_0.8_g_0.8_b_0.8_sc_r_1.0_g_1.0_b_1.0_ec_r_0.0_g_0.0_b_0_mat">
            <instance_effect url="#default_ai_0.2_sh_0.2_tr_0.0_dc_r_0.8_g_0.8_b_0.8_sc_r_1.0_g_1.0_b_1.0_ec_r_0.0_g_0.0_b_0_eff"/>
        </material>
    </library_materials>
    <library_effects>
        <effect id="default_ai_0.2_sh_0.2_tr_0.0_dc_r_0.8_g_0.8_b_0.8_sc_r_1.0_g_1.0_b_1.0_ec_r_0.0_g_0.0_b_0_eff">
            <profile_COMMON>
                <technique sid="COMMON">
                    <lambert>
                        <emission>
                            <color>0.0 0.0 0.0 1.0</color>
                        </emission>
                        <diffuse>
                            <color>0.8 0.8 0.8 1.0</color>
                        </diffuse>
                        <reflective>
                            <color>1.0 1.0 1.0 1.0</color>
                        </reflective>
                        <reflectivity>
                            <float>0.2</float>
                        </reflectivity>
                        <transparent opaque="A_ONE">
                            <color>1.0 1.0 1.0 1.0</color>
                        </transparent>
                        <transparency>
                            <float>1.0</float>
                        </transparency>
                    </lambert>
                </technique>
                <extra>
                    <technique profile="GOOGLEEARTH">
                        <double_sided>0</double_sided>
                    </technique>
                </extra>
            </profile_COMMON>
        </effect>
    </library_effects>
    <library_geometries>
        <geometry id="geometry0">
            <mesh>
                <source id="geometry0-position">
                    <float_array id="geometry0-position-array" count="402">0.0 0.0 1.0 0.112072 0.064705 0.982963 0.1294095 0.0 0.982963 0.064705 0.112072 0.982963 0.0 0.1294095 0.982963 -0.064705 0.112072 0.982963 -0.112072 0.064705 0.982963 -0.1294095 0.0 0.982963 -0.112072 -0.064705 0.982963 -0.064705 -0.112072 0.982963 0.0 -0.1294095 0.982963 0.064705 -0.112072 0.982963 0.112072 -0.064705 0.982963 0.2165065 0.125 0.9330125 0.25 0.0 0.9330125 0.125 0.2165065 0.9330125 0.0 0.25 0.9330125 -0.125 0.2165065 0.9330125 -0.2165065 0.125 0.9330125 -0.25 0.0 0.9330125 -0.2165065 -0.125 0.9330125 -0.125 -0.2165065 0.9330125 0.0 -0.25 0.9330125 0.125 -0.2165065 0.9330125 0.2165065 -0.125 0.9330125 0.306186 0.1767765 0.853553 0.3535535 0.0 0.853553 0.1767765 0.306186 0.853553 0.0 0.3535535 0.853553 -0.1767765 0.306186 0.853553 -0.306186 0.1767765 0.853553 -0.3535535 0.0 0.853553 -0.306186 -0.1767765 0.853553 -0.1767765 -0.306186 0.853553 0.0 -0.3535535 0.853553 0.1767765 -0.306186 0.853553 0.306186 -0.1767765 0.853553 0.375 0.2165065 0.75 0.4330125 0.0 0.75 0.2165065 0.375 0.75 0.0 0.4330125 0.75 -0.2165065 0.375 0.75 -0.375 0.2165065 0.75 -0.4330125 0.0 0.75 -0.375 -0.2165065 0.75 -0.2165065 -0.375 0.75 0.0 -0.4330125 0.75 0.2165065 -0.375 0.75 0.375 -0.2165065 0.75 0.418258 0.2414815 0.6294095 0.482963 0.0 0.6294095 0.2414815 0.418258 0.6294095 0.0 0.482963 0.6294095 -0.2414815 0.418258 0.6294095 -0.418258 0.2414815 0.6294095 -0.482963 0.0 0.6294095 -0.418258 -0.2414815 0.6294095 -0.2414815 -0.418258 0.6294095 0.0 -0.482963 0.6294095 0.2414815 -0.418258 0.6294095 0.418258 -0.2414815 0.6294095 0.4330125 0.25 0.5 0.5 0.0 0.5 0.25 0.4330125 0.5 0.0 0.5 0.5 -0.25 0.4330125 0.5 -0.4330125 0.25 0.5 -0.5 0.0 0.5 -0.4330125 -0.25 0.5 -0.25 -0.4330125 0.5 0.0 -0.5 0.5 0.25 -0.4330125 0.5 0.4330125 -0.25 0.5 0.418258 0.2414815 0.3705905 0.482963 0.0 0.3705905 0.2414815 0.418258 0.3705905 0.0 0.482963 0.3705905 -0.2414815 0.418258 0.3705905 -0.418258 0.2414815 0.3705905 -0.482963 0.0 0.3705905 -0.418258 -0.2414815 0.3705905 -0.2414815 -0.418258 0.3705905 0.0 -0.482963 0.3705905 0.2414815 -0.418258 0.3705905 0.418258 -0.2414815 0.3705905 0.375 0.2165065 0.25 0.4330125 0.0 0.25 0.2165065 0.375 0.25 0.0 0.4330125 0.25 -0.2165065 0.375 0.25 -0.375 0.2165065 0.25 -0.4330125 0.0 0.25 -0.375 -0.2165065 0.25 -0.2165065 -0.375 0.25 0.0 -0.4330125 0.25 0.2165065 -0.375 0.25 0.375 -0.2165065 0.25 0.306186 0.1767765 0.1464465 0.3535535 0.0 0.1464465 0.1767765 0.306186 0.1464465 0.0 0.3535535 0.1464465 -0.1767765 0.306186 0.1464465 -0.306186 0.1767765 0.1464465 -0.3535535 0.0 0.1464465 -0.306186 -0.1767765 0.1464465 -0.1767765 -0.306186 0.1464465 0.0 -0.3535535 0.1464465 0.1767765 -0.306186 0.1464465 0.306186 -0.1767765 0.1464465 0.2165065 0.125 0.066987 0.25 0.0 0.066987 0.125 0.2165065 0.066987 0.0 0.25 0.066987 -0.125 0.2165065 0.066987 -0.2165065 0.125 0.066987 -0.25 0.0 0.066987 -0.2165065 -0.125 0.066987 -0.125 -0.2165065 0.066987 0.0 -0.25 0.066987 0.125 -0.2165065 0.066987 0.2165065 -0.125 0.066987 0.112072 0.064705 0.017037 0.1294095 0.0 0.017037 0.064705 0.112072 0.017037 0.0 0.1294095 0.017037 -0.064705 0.112072 0.017037 -0.112072 0.064705 0.017037 -0.1294095 0.0 0.017037 -0.112072 -0.064705 0.017037 -0.064705 -0.112072 0.017037 0.0 -0.1294095 0.017037 0.064705 -0.112072 0.017037 0.112072 -0.064705 0.017037 0.0 0.0 0.0</float_array>
                    <technique_common>
                        <accessor count="134" source="#geometry0-position-array" stride="3">
                            <param name="X" type="float"/>
                            <param name="Y" type="float"/>
                            <param name="Z" type="float"/>
                        </accessor>
                    </technique_common>
                </source>
                <source id="geometry0-normal">
                    <float_array id="geometry0-normal-array" count="2520">1.0 0.0 0.0 1.0 0.0 0.0 -0.1304456 0.0349525 -0.9908392 -0.1304456 0.0349525 -0.9908392 -0.1304456 0.0349525 -0.9908392 -0.3806898 -0.1020047 -0.9190595 -0.3806898 -0.1020047 -0.9190595 -0.3806898 -0.1020047 -0.9190595 -0.3806894 -0.102005 -0.9190597 -0.3806894 -0.102005 -0.9190597 -0.3806894 -0.102005 -0.9190597 -0.2786842 -0.2786842 -0.9190594 -0.2786842 -0.2786842 -0.9190594 -0.2786842 -0.2786842 -0.9190594 -0.2786842 -0.2786842 -0.9190594 -0.2786842 -0.2786842 -0.9190594 -0.2786842 -0.2786842 -0.9190594 -0.1020046 -0.3806894 -0.9190596 -0.1020046 -0.3806894 -0.9190596 -0.1020046 -0.3806894 -0.9190596 -0.102005 -0.3806896 -0.9190595 -0.102005 -0.3806896 -0.9190595 -0.102005 -0.3806896 -0.9190595 0.1020047 -0.3806898 -0.9190595 0.1020047 -0.3806898 -0.9190595 0.1020047 -0.3806898 -0.9190595 0.102005 -0.3806894 -0.9190597 0.102005 -0.3806894 -0.9190597 0.102005 -0.3806894 -0.9190597 0.2786842 -0.2786842 -0.9190594 0.2786842 -0.2786842 -0.9190594 0.2786842 -0.2786842 -0.9190594 0.2786842 -0.2786842 -0.9190594 0.2786842 -0.2786842 -0.9190594 0.2786842 -0.2786842 -0.9190594 0.3806894 -0.1020046 -0.9190596 0.3806894 -0.1020046 -0.9190596 0.3806894 -0.1020046 -0.9190596 0.3806896 -0.102005 -0.9190595 0.3806896 -0.102005 -0.9190595 0.3806896 -0.102005 -0.9190595 0.3806898 0.1020047 -0.9190595 0.3806898 0.1020047 -0.9190595 0.3806898 0.1020047 -0.9190595 0.3806894 0.102005 -0.9190597 0.3806894 0.102005 -0.9190597 0.3806894 0.102005 -0.9190597 0.2786842 0.2786842 -0.9190594 0.2786842 0.2786842 -0.9190594 0.2786842 0.2786842 -0.9190594 0.2786842 0.2786842 -0.9190594 0.2786842 0.2786842 -0.9190594 0.2786842 0.2786842 -0.9190594 0.1020046 0.3806894 -0.9190596 0.1020046 0.3806894 -0.9190596 0.1020046 0.3806894 -0.9190596 0.102005 0.3806896 -0.9190595 0.102005 0.3806896 -0.9190595 0.102005 0.3806896 -0.9190595 -0.1020047 0.3806898 -0.9190595 -0.1020047 0.3806898 -0.9190595 -0.1020047 0.3806898 -0.9190595 -0.102005 0.3806894 -0.9190597 -0.102005 0.3806894 -0.9190597 -0.102005 0.3806894 -0.9190597 -0.2786842 0.2786842 -0.9190594 -0.2786842 0.2786842 -0.9190594 -0.2786842 0.2786842 -0.9190594 -0.2786842 0.2786842 -0.9190594 -0.2786842 0.2786842 -0.9190594 -0.2786842 0.2786842 -0.9190594 -0.3806894 0.1020046 -0.9190596 -0.3806894 0.1020046 -0.9190596 -0.3806894 0.1020046 -0.9190596 -0.3806896 0.102005 -0.9190595 -0.3806896 0.102005 -0.9190595 -0.3806896 0.102005 -0.9190595 -0.6008234 -0.1609894 -0.7830029 -0.6008234 -0.1609894 -0.7830029 -0.6008234 -0.1609894 -0.7830029 -0.6008211 -0.1609909 -0.7830045 -0.6008211 -0.1609909 -0.7830045 -0.6008211 -0.1609909 -0.7830045 -0.439833 -0.439833 -0.7830031 -0.439833 -0.439833 -0.7830031 -0.439833 -0.439833 -0.7830031 -0.439833 -0.439833 -0.7830031 -0.439833 -0.439833 -0.7830031 -0.439833 -0.439833 -0.7830031 -0.1609889 -0.6008213 -0.7830046 -0.1609889 -0.6008213 -0.7830046 -0.1609889 -0.6008213 -0.7830046 -0.1609913 -0.6008226 -0.7830032 -0.1609913 -0.6008226 -0.7830032 -0.1609913 -0.6008226 -0.7830032 0.1609894 -0.6008234 -0.7830029 0.1609894 -0.6008234 -0.7830029 0.1609894 -0.6008234 -0.7830029 0.1609909 -0.6008211 -0.7830045 0.1609909 -0.6008211 -0.7830045 0.1609909 -0.6008211 -0.7830045 0.439833 -0.439833 -0.7830031 0.439833 -0.439833 -0.7830031 0.439833 -0.439833 -0.7830031 0.439833 -0.439833 -0.7830031 0.439833 -0.439833 -0.7830031 0.439833 -0.439833 -0.7830031 0.6008213 -0.1609889 -0.7830046 0.6008213 -0.1609889 -0.7830046 0.6008213 -0.1609889 -0.7830046 0.6008226 -0.1609913 -0.7830032 0.6008226 -0.1609913 -0.7830032 0.6008226 -0.1609913 -0.7830032 0.6008234 0.1609894 -0.7830029 0.6008234 0.1609894 -0.7830029 0.6008234 0.1609894 -0.7830029 0.6008211 0.1609909 -0.7830045 0.6008211 0.1609909 -0.7830045 0.6008211 0.1609909 -0.7830045 0.439833 0.439833 -0.7830031 0.439833 0.439833 -0.7830031 0.439833 0.439833 -0.7830031 0.439833 0.439833 -0.7830031 0.439833 0.439833 -0.7830031 0.439833 0.439833 -0.7830031 0.1609889 0.6008213 -0.7830046 0.1609889 0.6008213 -0.7830046 0.1609889 0.6008213 -0.7830046 0.1609913 0.6008226 -0.7830032 0.1609913 0.6008226 -0.7830032 0.1609913 0.6008226 -0.7830032 -0.1609894 0.6008234 -0.7830029 -0.1609894 0.6008234 -0.7830029 -0.1609894 0.6008234 -0.7830029 -0.1609909 0.6008211 -0.7830045 -0.1609909 0.6008211 -0.7830045 -0.1609909 0.6008211 -0.7830045 -0.439833 0.439833 -0.7830031 -0.439833 0.439833 -0.7830031 -0.439833 0.439833 -0.7830031 -0.439833 0.439833 -0.7830031 -0.439833 0.439833 -0.7830031 -0.439833 0.439833 -0.7830031 -0.6008213 0.1609889 -0.7830046 -0.6008213 0.1609889 -0.7830046 -0.6008213 0.1609889 -0.7830046 -0.6008226 0.1609913 -0.7830032 -0.6008226 0.1609913 -0.7830032 -0.6008226 0.1609913 -0.7830032 -0.7760105 -0.2079331 -0.5954591 -0.7760105 -0.2079331 -0.5954591 -0.7760105 -0.2079331 -0.5954591 -0.7760135 -0.2079313 -0.5954559 -0.7760135 -0.2079313 -0.5954559 -0.7760135 -0.2079313 -0.5954559 -0.5680793 -0.5680793 -0.5954593 -0.5680793 -0.5680793 -0.5954593 -0.5680793 -0.5680793 -0.5954593 -0.5680792 -0.5680792 -0.5954593 -0.5680792 -0.5680792 -0.5954593 -0.5680792 -0.5680792 -0.5954593 -0.2079338 -0.776013 -0.5954555 -0.2079338 -0.776013 -0.5954555 -0.2079338 -0.776013 -0.5954555 -0.2079307 -0.7760113 -0.5954588 -0.2079307 -0.7760113 -0.5954588 -0.2079307 -0.7760113 -0.5954588 0.2079331 -0.7760105 -0.5954591 0.2079331 -0.7760105 -0.5954591 0.2079331 -0.7760105 -0.5954591 0.2079313 -0.7760135 -0.5954559 0.2079313 -0.7760135 -0.5954559 0.2079313 -0.7760135 -0.5954559 0.5680793 -0.5680793 -0.5954593 0.5680793 -0.5680793 -0.5954593 0.5680793 -0.5680793 -0.5954593 0.5680792 -0.5680792 -0.5954593 0.5680792 -0.5680792 -0.5954593 0.5680792 -0.5680792 -0.5954593 0.776013 -0.2079338 -0.5954555 0.776013 -0.2079338 -0.5954555 0.776013 -0.2079338 -0.5954555 0.7760113 -0.2079307 -0.5954588 0.7760113 -0.2079307 -0.5954588 0.7760113 -0.2079307 -0.5954588 0.7760105 0.2079331 -0.5954591 0.7760105 0.2079331 -0.5954591 0.7760105 0.2079331 -0.5954591 0.7760135 0.2079313 -0.5954559 0.7760135 0.2079313 -0.5954559 0.7760135 0.2079313 -0.5954559 0.5680793 0.5680793 -0.5954593 0.5680793 0.5680793 -0.5954593 0.5680793 0.5680793 -0.5954593 0.5680792 0.5680792 -0.5954593 0.5680792 0.5680792 -0.5954593 0.5680792 0.5680792 -0.5954593 0.2079338 0.776013 -0.5954555 0.2079338 0.776013 -0.5954555 0.2079338 0.776013 -0.5954555 0.2079307 0.7760113 -0.5954588 0.2079307 0.7760113 -0.5954588 0.2079307 0.7760113 -0.5954588 -0.2079331 0.7760105 -0.5954591 -0.2079331 0.7760105 -0.5954591 -0.2079331 0.7760105 -0.5954591 -0.2079313 0.7760135 -0.5954559 -0.2079313 0.7760135 -0.5954559 -0.2079313 0.7760135 -0.5954559 -0.5680793 0.5680793 -0.5954593 -0.5680793 0.5680793 -0.5954593 -0.5680793 0.5680793 -0.5954593 -0.5680792 0.5680792 -0.5954593 -0.5680792 0.5680792 -0.5954593 -0.5680792 0.5680792 -0.5954593 -0.776013 0.2079338 -0.5954555 -0.776013 0.2079338 -0.5954555 -0.776013 0.2079338 -0.5954555 -0.7760113 0.2079307 -0.5954588 -0.7760113 0.2079307 -0.5954588 -0.7760113 0.2079307 -0.5954588 -0.8968096 -0.2402984 -0.3714691 -0.8968096 -0.2402984 -0.3714691 -0.8968096 -0.2402984 -0.3714691 -0.8968079 -0.2402997 -0.3714721 -0.8968079 -0.2402997 -0.3714721 -0.8968079 -0.2402997 -0.3714721 -0.6565099 -0.6565099 -0.3714691 -0.6565099 -0.6565099 -0.3714691 -0.6565099 -0.6565099 -0.3714691 -0.6565099 -0.6565099 -0.3714692 -0.6565099 -0.6565099 -0.3714692 -0.6565099 -0.6565099 -0.3714692 -0.240298 -0.8968083 -0.3714723 -0.240298 -0.8968083 -0.3714723 -0.240298 -0.8968083 -0.3714723 -0.2403 -0.896809 -0.3714693 -0.2403 -0.896809 -0.3714693 -0.2403 -0.896809 -0.3714693 0.2402984 -0.8968096 -0.3714691 0.2402984 -0.8968096 -0.3714691 0.2402984 -0.8968096 -0.3714691 0.2402997 -0.8968079 -0.3714721 0.2402997 -0.8968079 -0.3714721 0.2402997 -0.8968079 -0.3714721 0.6565099 -0.6565099 -0.3714691 0.6565099 -0.6565099 -0.3714691 0.6565099 -0.6565099 -0.3714691 0.6565099 -0.6565099 -0.3714692 0.6565099 -0.6565099 -0.3714692 0.6565099 -0.6565099 -0.3714692 0.8968083 -0.240298 -0.3714723 0.8968083 -0.240298 -0.3714723 0.8968083 -0.240298 -0.3714723 0.896809 -0.2403 -0.3714693 0.896809 -0.2403 -0.3714693 0.896809 -0.2403 -0.3714693 0.8968096 0.2402984 -0.3714691 0.8968096 0.2402984 -0.3714691 0.8968096 0.2402984 -0.3714691 0.8968079 0.2402997 -0.3714721 0.8968079 0.2402997 -0.3714721 0.8968079 0.2402997 -0.3714721 0.6565099 0.6565099 -0.3714691 0.6565099 0.6565099 -0.3714691 0.6565099 0.6565099 -0.3714691 0.6565099 0.6565099 -0.3714692 0.6565099 0.6565099 -0.3714692 0.6565099 0.6565099 -0.3714692 0.240298 0.8968083 -0.3714723 0.240298 0.8968083 -0.3714723 0.240298 0.8968083 -0.3714723 0.2403 0.896809 -0.3714693 0.2403 0.896809 -0.3714693 0.2403 0.896809 -0.3714693 -0.2402984 0.8968096 -0.3714691 -0.2402984 0.8968096 -0.3714691 -0.2402984 0.8968096 -0.3714691 -0.2402997 0.8968079 -0.3714721 -0.2402997 0.8968079 -0.3714721 -0.2402997 0.8968079 -0.3714721 -0.6565099 0.6565099 -0.3714691 -0.6565099 0.6565099 -0.3714691 -0.6565099 0.6565099 -0.3714691 -0.6565099 0.6565099 -0.3714692 -0.6565099 0.6565099 -0.3714692 -0.6565099 0.6565099 -0.3714692 -0.8968083 0.240298 -0.3714723 -0.8968083 0.240298 -0.3714723 -0.8968083 0.240298 -0.3714723 -0.896809 0.2403 -0.3714693 -0.896809 0.2403 -0.3714693 -0.896809 0.2403 -0.3714693 -0.958209 -0.2567522 -0.12615 -0.958209 -0.2567522 -0.12615 -0.958209 -0.2567522 -0.12615 -0.958209 -0.2567522 -0.12615 -0.958209 -0.2567522 -0.12615 -0.958209 -0.2567522 -0.12615 -0.7014578 -0.7014578 -0.12615 -0.7014578 -0.7014578 -0.12615 -0.7014578 -0.7014578 -0.12615 -0.7014578 -0.7014578 -0.12615 -0.7014578 -0.7014578 -0.12615 -0.7014578 -0.7014578 -0.12615 -0.2567522 -0.958209 -0.12615 -0.2567522 -0.958209 -0.12615 -0.2567522 -0.958209 -0.12615 -0.2567522 -0.958209 -0.12615 -0.2567522 -0.958209 -0.12615 -0.2567522 -0.958209 -0.12615 0.2567522 -0.958209 -0.12615 0.2567522 -0.958209 -0.12615 0.2567522 -0.958209 -0.12615 0.2567522 -0.958209 -0.12615 0.2567522 -0.958209 -0.12615 0.2567522 -0.958209 -0.12615 0.7014578 -0.7014578 -0.12615 0.7014578 -0.7014578 -0.12615 0.7014578 -0.7014578 -0.12615 0.7014578 -0.7014578 -0.12615 0.7014578 -0.7014578 -0.12615 0.7014578 -0.7014578 -0.12615 0.958209 -0.2567522 -0.12615 0.958209 -0.2567522 -0.12615 0.958209 -0.2567522 -0.12615 0.958209 -0.2567522 -0.12615 0.958209 -0.2567522 -0.12615 0.958209 -0.2567522 -0.12615 0.958209 0.2567522 -0.12615 0.958209 0.2567522 -0.12615 0.958209 0.2567522 -0.12615 0.958209 0.2567522 -0.12615 0.958209 0.2567522 -0.12615 0.958209 0.2567522 -0.12615 0.7014578 0.7014578 -0.12615 0.7014578 0.7014578 -0.12615 0.7014578 0.7014578 -0.12615 0.7014578 0.7014578 -0.12615 0.7014578 0.7014578 -0.12615 0.7014578 0.7014578 -0.12615 0.2567522 0.958209 -0.12615 0.2567522 0.958209 -0.12615 0.2567522 0.958209 -0.12615 0.2567522 0.958209 -0.12615 0.2567522 0.958209 -0.12615 0.2567522 0.958209 -0.12615 -0.2567522 0.958209 -0.12615 -0.2567522 0.958209 -0.12615 -0.2567522 0.958209 -0.12615 -0.2567522 0.958209 -0.12615 -0.2567522 0.958209 -0.12615 -0.2567522 0.958209 -0.12615 -0.7014578 0.7014578 -0.12615 -0.7014578 0.7014578 -0.12615 -0.7014578 0.7014578 -0.12615 -0.7014578 0.7014578 -0.12615 -0.7014578 0.7014578 -0.12615 -0.7014578 0.7014578 -0.12615 -0.958209 0.2567522 -0.12615 -0.958209 0.2567522 -0.12615 -0.958209 0.2567522 -0.12615 -0.958209 0.2567522 -0.12615 -0.958209 0.2567522 -0.12615 -0.958209 0.2567522 -0.12615 -0.958209 -0.2567522 0.1261501 -0.958209 -0.2567522 0.1261501 -0.958209 -0.2567522 0.1261501 -0.958209 -0.2567522 0.12615 -0.958209 -0.2567522 0.12615 -0.958209 -0.2567522 0.12615 -0.7014578 -0.7014578 0.12615 -0.7014578 -0.7014578 0.12615 -0.7014578 -0.7014578 0.12615 -0.7014578 -0.7014578 0.12615 -0.7014578 -0.7014578 0.12615 -0.7014578 -0.7014578 0.12615 -0.2567522 -0.958209 0.12615 -0.2567522 -0.958209 0.12615 -0.2567522 -0.958209 0.12615 -0.2567522 -0.958209 0.12615 -0.2567522 -0.958209 0.12615 -0.2567522 -0.958209 0.12615 0.2567522 -0.958209 0.1261501 0.2567522 -0.958209 0.1261501 0.2567522 -0.958209 0.1261501 0.2567522 -0.958209 0.12615 0.2567522 -0.958209 0.12615 0.2567522 -0.958209 0.12615 0.7014578 -0.7014578 0.12615 0.7014578 -0.7014578 0.12615 0.7014578 -0.7014578 0.12615 0.7014578 -0.7014578 0.12615 0.7014578 -0.7014578 0.12615 0.7014578 -0.7014578 0.12615 0.958209 -0.2567522 0.12615 0.958209 -0.2567522 0.12615 0.958209 -0.2567522 0.12615 0.958209 -0.2567522 0.12615 0.958209 -0.2567522 0.12615 0.958209 -0.2567522 0.12615 0.958209 0.2567522 0.1261501 0.958209 0.2567522 0.1261501 0.958209 0.2567522 0.1261501 0.958209 0.2567522 0.12615 0.958209 0.2567522 0.12615 0.958209 0.2567522 0.12615 0.7014578 0.7014578 0.12615 0.7014578 0.7014578 0.12615 0.7014578 0.7014578 0.12615 0.7014578 0.7014578 0.12615 0.7014578 0.7014578 0.12615 0.7014578 0.7014578 0.12615 0.2567522 0.958209 0.12615 0.2567522 0.958209 0.12615 0.2567522 0.958209 0.12615 0.2567522 0.958209 0.12615 0.2567522 0.958209 0.12615 0.2567522 0.958209 0.12615 -0.2567522 0.958209 0.1261501 -0.2567522 0.958209 0.1261501 -0.2567522 0.958209 0.1261501 -0.2567522 0.958209 0.12615 -0.2567522 0.958209 0.12615 -0.2567522 0.958209 0.12615 -0.7014578 0.7014578 0.12615 -0.7014578 0.7014578 0.12615 -0.7014578 0.7014578 0.12615 -0.7014578 0.7014578 0.12615 -0.7014578 0.7014578 0.12615 -0.7014578 0.7014578 0.12615 -0.958209 0.2567522 0.12615 -0.958209 0.2567522 0.12615 -0.958209 0.2567522 0.12615 -0.958209 0.2567522 0.12615 -0.958209 0.2567522 0.12615 -0.958209 0.2567522 0.12615 -0.896809 -0.2403 0.3714693 -0.896809 -0.2403 0.3714693 -0.896809 -0.2403 0.3714693 -0.8968083 -0.240298 0.3714723 -0.8968083 -0.240298 0.3714723 -0.8968083 -0.240298 0.3714723 -0.6565099 -0.6565099 0.3714691 -0.6565099 -0.6565099 0.3714691 -0.6565099 -0.6565099 0.3714691 -0.6565099 -0.6565099 0.3714691 -0.6565099 -0.6565099 0.3714691 -0.6565099 -0.6565099 0.3714691 -0.2402997 -0.8968079 0.3714722 -0.2402997 -0.8968079 0.3714722 -0.2402997 -0.8968079 0.3714722 -0.2402984 -0.8968096 0.3714691 -0.2402984 -0.8968096 0.3714691 -0.2402984 -0.8968096 0.3714691 0.2403 -0.896809 0.3714693 0.2403 -0.896809 0.3714693 0.2403 -0.896809 0.3714693 0.240298 -0.8968083 0.3714723 0.240298 -0.8968083 0.3714723 0.240298 -0.8968083 0.3714723 0.6565099 -0.6565099 0.3714691 0.6565099 -0.6565099 0.3714691 0.6565099 -0.6565099 0.3714691 0.6565099 -0.6565099 0.3714691 0.6565099 -0.6565099 0.3714691 0.6565099 -0.6565099 0.3714691 0.8968079 -0.2402997 0.3714722 0.8968079 -0.2402997 0.3714722 0.8968079 -0.2402997 0.3714722 0.8968096 -0.2402984 0.3714691 0.8968096 -0.2402984 0.3714691 0.8968096 -0.2402984 0.3714691 0.896809 0.2403 0.3714693 0.896809 0.2403 0.3714693 0.896809 0.2403 0.3714693 0.8968083 0.240298 0.3714723 0.8968083 0.240298 0.3714723 0.8968083 0.240298 0.3714723 0.6565099 0.6565099 0.3714691 0.6565099 0.6565099 0.3714691 0.6565099 0.6565099 0.3714691 0.6565099 0.6565099 0.3714691 0.6565099 0.6565099 0.3714691 0.6565099 0.6565099 0.3714691 0.2402997 0.8968079 0.3714722 0.2402997 0.8968079 0.3714722 0.2402997 0.8968079 0.3714722 0.2402984 0.8968096 0.3714691 0.2402984 0.8968096 0.3714691 0.2402984 0.8968096 0.3714691 -0.2403 0.896809 0.3714693 -0.2403 0.896809 0.3714693 -0.2403 0.896809 0.3714693 -0.240298 0.8968083 0.3714723 -0.240298 0.8968083 0.3714723 -0.240298 0.8968083 0.3714723 -0.6565099 0.6565099 0.3714691 -0.6565099 0.6565099 0.3714691 -0.6565099 0.6565099 0.3714691 -0.6565099 0.6565099 0.3714691 -0.6565099 0.6565099 0.3714691 -0.6565099 0.6565099 0.3714691 -0.8968079 0.2402997 0.3714722 -0.8968079 0.2402997 0.3714722 -0.8968079 0.2402997 0.3714722 -0.8968096 0.2402984 0.3714691 -0.8968096 0.2402984 0.3714691 -0.8968096 0.2402984 0.3714691 -0.7760128 -0.2079311 0.5954569 -0.7760128 -0.2079311 0.5954569 -0.7760128 -0.2079311 0.5954569 -0.7760144 -0.2079342 0.5954537 -0.7760144 -0.2079342 0.5954537 -0.7760144 -0.2079342 0.5954537 -0.5680802 -0.5680802 0.5954575 -0.5680802 -0.5680802 0.5954575 -0.5680802 -0.5680802 0.5954575 -0.5680803 -0.5680803 0.5954575 -0.5680803 -0.5680803 0.5954575 -0.5680803 -0.5680803 0.5954575 -0.2079316 -0.7760148 0.595454 -0.2079316 -0.7760148 0.595454 -0.2079316 -0.7760148 0.595454 -0.2079335 -0.7760118 0.5954573 -0.2079335 -0.7760118 0.5954573 -0.2079335 -0.7760118 0.5954573 0.2079311 -0.7760128 0.5954569 0.2079311 -0.7760128 0.5954569 0.2079311 -0.7760128 0.5954569 0.2079342 -0.7760144 0.5954537 0.2079342 -0.7760144 0.5954537 0.2079342 -0.7760144 0.5954537 0.5680802 -0.5680802 0.5954575 0.5680802 -0.5680802 0.5954575 0.5680802 -0.5680802 0.5954575 0.5680803 -0.5680803 0.5954575 0.5680803 -0.5680803 0.5954575 0.5680803 -0.5680803 0.5954575 0.7760148 -0.2079316 0.595454 0.7760148 -0.2079316 0.595454 0.7760148 -0.2079316 0.595454 0.7760118 -0.2079335 0.5954573 0.7760118 -0.2079335 0.5954573 0.7760118 -0.2079335 0.5954573 0.7760128 0.2079311 0.5954569 0.7760128 0.2079311 0.5954569 0.7760128 0.2079311 0.5954569 0.7760144 0.2079342 0.5954537 0.7760144 0.2079342 0.5954537 0.7760144 0.2079342 0.5954537 0.5680802 0.5680802 0.5954575 0.5680802 0.5680802 0.5954575 0.5680802 0.5680802 0.5954575 0.5680803 0.5680803 0.5954575 0.5680803 0.5680803 0.5954575 0.5680803 0.5680803 0.5954575 0.2079316 0.7760148 0.595454 0.2079316 0.7760148 0.595454 0.2079316 0.7760148 0.595454 0.2079335 0.7760118 0.5954573 0.2079335 0.7760118 0.5954573 0.2079335 0.7760118 0.5954573 -0.2079311 0.7760128 0.5954569 -0.2079311 0.7760128 0.5954569 -0.2079311 0.7760128 0.5954569 -0.2079342 0.7760144 0.5954537 -0.2079342 0.7760144 0.5954537 -0.2079342 0.7760144 0.5954537 -0.5680802 0.5680802 0.5954575 -0.5680802 0.5680802 0.5954575 -0.5680802 0.5680802 0.5954575 -0.5680803 0.5680803 0.5954575 -0.5680803 0.5680803 0.5954575 -0.5680803 0.5680803 0.5954575 -0.7760148 0.2079316 0.595454 -0.7760148 0.2079316 0.595454 -0.7760148 0.2079316 0.595454 -0.7760118 0.2079335 0.5954573 -0.7760118 0.2079335 0.5954573 -0.7760118 0.2079335 0.5954573 -0.6008226 -0.1609913 0.7830032 -0.6008226 -0.1609913 0.7830032 -0.6008226 -0.1609913 0.7830032 -0.6008214 -0.1609889 0.7830046 -0.6008214 -0.1609889 0.7830046 -0.6008214 -0.1609889 0.7830046 -0.439833 -0.439833 0.783003 -0.439833 -0.439833 0.783003 -0.439833 -0.439833 0.783003 -0.4398331 -0.4398331 0.783003 -0.4398331 -0.4398331 0.783003 -0.4398331 -0.4398331 0.783003 -0.1609909 -0.6008211 0.7830043 -0.1609909 -0.6008211 0.7830043 -0.1609909 -0.6008211 0.7830043 -0.1609895 -0.6008235 0.7830029 -0.1609895 -0.6008235 0.7830029 -0.1609895 -0.6008235 0.7830029 0.1609913 -0.6008226 0.7830032 0.1609913 -0.6008226 0.7830032 0.1609913 -0.6008226 0.7830032 0.1609889 -0.6008214 0.7830046 0.1609889 -0.6008214 0.7830046 0.1609889 -0.6008214 0.7830046 0.439833 -0.439833 0.783003 0.439833 -0.439833 0.783003 0.439833 -0.439833 0.783003 0.4398331 -0.4398331 0.783003 0.4398331 -0.4398331 0.783003 0.4398331 -0.4398331 0.783003 0.6008211 -0.1609909 0.7830043 0.6008211 -0.1609909 0.7830043 0.6008211 -0.1609909 0.7830043 0.6008235 -0.1609895 0.7830029 0.6008235 -0.1609895 0.7830029 0.6008235 -0.1609895 0.7830029 0.6008226 0.1609913 0.7830032 0.6008226 0.1609913 0.7830032 0.6008226 0.1609913 0.7830032 0.6008214 0.1609889 0.7830046 0.6008214 0.1609889 0.7830046 0.6008214 0.1609889 0.7830046 0.439833 0.439833 0.783003 0.439833 0.439833 0.783003 0.439833 0.439833 0.783003 0.4398331 0.4398331 0.783003 0.4398331 0.4398331 0.783003 0.4398331 0.4398331 0.783003 0.1609909 0.6008211 0.7830043 0.1609909 0.6008211 0.7830043 0.1609909 0.6008211 0.7830043 0.1609895 0.6008235 0.7830029 0.1609895 0.6008235 0.7830029 0.1609895 0.6008235 0.7830029 -0.1609913 0.6008226 0.7830032 -0.1609913 0.6008226 0.7830032 -0.1609913 0.6008226 0.7830032 -0.1609889 0.6008214 0.7830046 -0.1609889 0.6008214 0.7830046 -0.1609889 0.6008214 0.7830046 -0.439833 0.439833 0.783003 -0.439833 0.439833 0.783003 -0.439833 0.439833 0.783003 -0.4398331 0.4398331 0.783003 -0.4398331 0.4398331 0.783003 -0.4398331 0.4398331 0.783003 -0.6008211 0.1609909 0.7830043 -0.6008211 0.1609909 0.7830043 -0.6008211 0.1609909 0.7830043 -0.6008235 0.1609895 0.7830029 -0.6008235 0.1609895 0.7830029 -0.6008235 0.1609895 0.7830029 -0.3806861 -0.1020041 0.9190611 -0.3806861 -0.1020041 0.9190611 -0.3806861 -0.1020041 0.9190611 -0.3806859 -0.1020036 0.9190612 -0.3806859 -0.1020036 0.9190612 -0.3806859 -0.1020036 0.9190612 -0.2786817 -0.2786817 0.9190609 -0.2786817 -0.2786817 0.9190609 -0.2786817 -0.2786817 0.9190609 -0.2786817 -0.2786817 0.9190609 -0.2786817 -0.2786817 0.9190609 -0.2786817 -0.2786817 0.9190609 -0.102004 -0.3806859 0.9190611 -0.102004 -0.3806859 0.9190611 -0.102004 -0.3806859 0.9190611 -0.1020037 -0.3806863 0.919061 -0.1020037 -0.3806863 0.919061 -0.1020037 -0.3806863 0.919061 0.1020041 -0.3806861 0.9190611 0.1020041 -0.3806861 0.9190611 0.1020041 -0.3806861 0.9190611 0.1020036 -0.3806859 0.9190612 0.1020036 -0.3806859 0.9190612 0.1020036 -0.3806859 0.9190612 0.2786817 -0.2786817 0.9190609 0.2786817 -0.2786817 0.9190609 0.2786817 -0.2786817 0.9190609 0.2786817 -0.2786817 0.9190609 0.2786817 -0.2786817 0.9190609 0.2786817 -0.2786817 0.9190609 0.3806859 -0.102004 0.9190611 0.3806859 -0.102004 0.9190611 0.3806859 -0.102004 0.9190611 0.3806863 -0.1020037 0.919061 0.3806863 -0.1020037 0.919061 0.3806863 -0.1020037 0.919061 0.3806861 0.1020041 0.9190611 0.3806861 0.1020041 0.9190611 0.3806861 0.1020041 0.9190611 0.3806859 0.1020036 0.9190612 0.3806859 0.1020036 0.9190612 0.3806859 0.1020036 0.9190612 0.2786817 0.2786817 0.9190609 0.2786817 0.2786817 0.9190609 0.2786817 0.2786817 0.9190609 0.2786817 0.2786817 0.9190609 0.2786817 0.2786817 0.9190609 0.2786817 0.2786817 0.9190609 0.102004 0.3806859 0.9190611 0.102004 0.3806859 0.9190611 0.102004 0.3806859 0.9190611 0.1020037 0.3806863 0.919061 0.1020037 0.3806863 0.919061 0.1020037 0.3806863 0.919061 -0.1020041 0.3806861 0.9190611 -0.1020041 0.3806861 0.9190611 -0.1020041 0.3806861 0.9190611 -0.1020036 0.3806859 0.9190612 -0.1020036 0.3806859 0.9190612 -0.1020036 0.3806859 0.9190612 -0.2786817 0.2786817 0.9190609 -0.2786817 0.2786817 0.9190609 -0.2786817 0.2786817 0.9190609 -0.2786817 0.2786817 0.9190609 -0.2786817 0.2786817 0.9190609 -0.2786817 0.2786817 0.9190609 -0.3806859 0.102004 0.9190611 -0.3806859 0.102004 0.9190611 -0.3806859 0.102004 0.9190611 -0.3806863 0.1020037 0.919061 -0.3806863 0.1020037 0.919061 -0.3806863 0.1020037 0.919061 -0.1304458 -0.0349526 0.9908391 -0.1304458 -0.0349526 0.9908391 -0.1304458 -0.0349526 0.9908391 1.0 0.0 0.0 1.0 0.0 0.0 -0.0954928 -0.0954928 0.9908392 -0.0954928 -0.0954928 0.9908392 -0.0954928 -0.0954928 0.9908392 1.0 0.0 0.0 1.0 0.0 0.0 -0.0349526 -0.1304458 0.9908391 -0.0349526 -0.1304458 0.9908391 -0.0349526 -0.1304458 0.9908391 1.0 0.0 0.0 1.0 0.0 0.0 0.0349526 -0.1304458 0.9908391 0.0349526 -0.1304458 0.9908391 0.0349526 -0.1304458 0.9908391 1.0 0.0 0.0 1.0 0.0 0.0 0.0954928 -0.0954928 0.9908392 0.0954928 -0.0954928 0.9908392 0.0954928 -0.0954928 0.9908392 1.0 0.0 0.0 1.0 0.0 0.0 0.1304458 -0.0349526 0.9908391 0.1304458 -0.0349526 0.9908391 0.1304458 -0.0349526 0.9908391 1.0 0.0 0.0 1.0 0.0 0.0 0.1304458 0.0349526 0.9908391 0.1304458 0.0349526 0.9908391 0.1304458 0.0349526 0.9908391 1.0 0.0 0.0 1.0 0.0 0.0 0.0954928 0.0954928 0.9908392 0.0954928 0.0954928 0.9908392 0.0954928 0.0954928 0.9908392 1.0 0.0 0.0 1.0 0.0 0.0 0.0349526 0.1304458 0.9908391 0.0349526 0.1304458 0.9908391 0.0349526 0.1304458 0.9908391 1.0 0.0 0.0 1.0 0.0 0.0 -0.0349526 0.1304458 0.9908391 -0.0349526 0.1304458 0.9908391 -0.0349526 0.1304458 0.9908391 1.0 0.0 0.0 1.0 0.0 0.0 -0.0954928 0.0954928 0.9908392 -0.0954928 0.0954928 0.9908392 -0.0954928 0.0954928 0.9908392 1.0 0.0 0.0 1.0 0.0 0.0 -0.1304458 0.0349526 0.9908391 -0.1304458 0.0349526 0.9908391 -0.1304458 0.0349526 0.9908391 1.0 0.0 0.0 1.0 0.0 0.0 1.0 0.0 0.0 1.0 0.0 0.0 -0.1304456 -0.0349525 -0.9908392 -0.1304456 -0.0349525 -0.9908392 -0.1304456 -0.0349525 -0.9908392 1.0 0.0 0.0 1.0 0.0 0.0 -0.0954926 -0.0954926 -0.9908392 -0.0954926 -0.0954926 -0.9908392 -0.0954926 -0.0954926 -0.9908392 1.0 0.0 0.0 1.0 0.0 0.0 -0.0349525 -0.1304456 -0.9908392 -0.0349525 -0.1304456 -0.9908392 -0.0349525 -0.1304456 -0.9908392 1.0 0.0 0.0 1.0 0.0 0.0 0.0349525 -0.1304456 -0.9908392 0.0349525 -0.1304456 -0.9908392 0.0349525 -0.1304456 -0.9908392 1.0 0.0 0.0 1.0 0.0 0.0 0.0954926 -0.0954926 -0.9908392 0.0954926 -0.0954926 -0.9908392 0.0954926 -0.0954926 -0.9908392 1.0 0.0 0.0 1.0 0.0 0.0 0.1304456 -0.0349525 -0.9908392 0.1304456 -0.0349525 -0.9908392 0.1304456 -0.0349525 -0.9908392 1.0 0.0 0.0 1.0 0.0 0.0 0.1304456 0.0349525 -0.9908392 0.1304456 0.0349525 -0.9908392 0.1304456 0.0349525 -0.9908392 1.0 0.0 0.0 1.0 0.0 0.0 0.0954926 0.0954926 -0.9908392 0.0954926 0.0954926 -0.9908392 0.0954926 0.0954926 -0.9908392 1.0 0.0 0.0 1.0 0.0 0.0 0.0349525 0.1304456 -0.9908392 0.0349525 0.1304456 -0.9908392 0.0349525 0.1304456 -0.9908392 1.0 0.0 0.0 1.0 0.0 0.0 -0.0349525 0.1304456 -0.9908392 -0.0349525 0.1304456 -0.9908392 -0.0349525 0.1304456 -0.9908392 1.0 0.0 0.0 1.0 0.0 0.0 -0.0954926 0.0954926 -0.9908392 -0.0954926 0.0954926 -0.9908392 -0.0954926 0.0954926 -0.9908392</float_array>
                    <technique_common>
                        <accessor count="840" source="#geometry0-normal-array" stride="3">
                            <param name="X" type="float"/>
                            <param name="Y" type="float"/>
                            <param name="Z" type="float"/>
                        </accessor>
                    </technique_common>
                </source>
                <vertices id="geometry0-vertex">
                    <input semantic="POSITION" source="#geometry0-position"/>
                </vertices>
                <triangles count="288" material="default_ai_0.2_sh_0.2_tr_0.0_dc_r_0.8_g_0.8_b_0.8_sc_r_1.0_g_1.0_b_1.0_ec_r_0.0_g_0.0_b_0_tri">
                    <input offset="0" semantic="VERTEX" source="#geometry0-vertex"/>
                    <input offset="1" semantic="NORMAL" source="#geometry0-normal"/>
                    <p>0 0 0 0 2 1 0 2 2 3 12 4 2 5 1 6 13 7 2 8 13 9 14 10 1 11 3 12 15 13 1 14 15 15 13 16 3 17 4 18 16 19 3 20 16 21 15 22 4 23 5 24 17 25 4 26 17 27 16 28 5 29 6 30 18 31 5 32 18 33 17 34 6 35 7 36 19 37 6 38 19 39 18 40 7 41 8 42 20 43 7 44 20 45 19 46 8 47 9 48 21 49 8 50 21 51 20 52 9 53 10 54 22 55 9 56 22 57 21 58 10 59 11 60 23 61 10 62 23 63 22 64 11 65 12 66 24 67 11 68 24 69 23 70 12 71 2 72 14 73 12 74 14 75 24 76 14 77 13 78 25 79 14 80 25 81 26 82 13 83 15 84 27 85 13 86 27 87 25 88 15 89 16 90 28 91 15 92 28 93 27 94 16 95 17 96 29 97 16 98 29 99 28 100 17 101 18 102 30 103 17 104 30 105 29 106 18 107 19 108 31 109 18 110 31 111 30 112 19 113 20 114 32 115 19 116 32 117 31 118 20 119 21 120 33 121 20 122 33 123 32 124 21 125 22 126 34 127 21 128 34 129 33 130 22 131 23 132 35 133 22 134 35 135 34 136 23 137 24 138 36 139 23 140 36 141 35 142 24 143 14 144 26 145 24 146 26 147 36 148 26 149 25 150 37 151 26 152 37 153 38 154 25 155 27 156 39 157 25 158 39 159 37 160 27 161 28 162 40 163 27 164 40 165 39 166 28 167 29 168 41 169 28 170 41 171 40 172 29 173 30 174 42 175 29 176 42 177 41 178 30 179 31 180 43 181 30 182 43 183 42 184 31 185 32 186 44 187 31 188 44 189 43 190 32 191 33 192 45 193 32 194 45 195 44 196 33 197 34 198 46 199 33 200 46 201 45 202 34 203 35 204 47 205 34 206 47 207 46 208 35 209 36 210 48 211 35 212 48 213 47 214 36 215 26 216 38 217 36 218 38 219 48 220 38 221 37 222 49 223 38 224 49 225 50 226 37 227 39 228 51 229 37 230 51 231 49 232 39 233 40 234 52 235 39 236 52 237 51 238 40 239 41 240 53 241 40 242 53 243 52 244 41 245 42 246 54 247 41 248 54 249 53 250 42 251 43 252 55 253 42 254 55 255 54 256 43 257 44 258 56 259 43 260 56 261 55 262 44 263 45 264 57 265 44 266 57 267 56 268 45 269 46 270 58 271 45 272 58 273 57 274 46 275 47 276 59 277 46 278 59 279 58 280 47 281 48 282 60 283 47 284 60 285 59 286 48 287 38 288 50 289 48 290 50 291 60 292 50 293 49 294 61 295 50 296 61 297 62 298 49 299 51 300 63 301 49 302 63 303 61 304 51 305 52 306 64 307 51 308 64 309 63 310 52 311 53 312 65 313 52 314 65 315 64 316 53 317 54 318 66 319 53 320 66 321 65 322 54 323 55 324 67 325 54 326 67 327 66 328 55 329 56 330 68 331 55 332 68 333 67 334 56 335 57 336 69 337 56 338 69 339 68 340 57 341 58 342 70 343 57 344 70 345 69 346 58 347 59 348 71 349 58 350 71 351 70 352 59 353 60 354 72 355 59 356 72 357 71 358 60 359 50 360 62 361 60 362 62 363 72 364 62 365 61 366 73 367 62 368 73 369 74 370 61 371 63 372 75 373 61 374 75 375 73 376 63 377 64 378 76 379 63 380 76 381 75 382 64 383 65 384 77 385 64 386 77 387 76 388 65 389 66 390 78 391 65 392 78 393 77 394 66 395 67 396 79 397 66 398 79 399 78 400 67 401 68 402 80 403 67 404 80 405 79 406 68 407 69 408 81 409 68 410 81 411 80 412 69 413 70 414 82 415 69 416 82 417 81 418 70 419 71 420 83 421 70 422 83 423 82 424 71 425 72 426 84 427 71 428 84 429 83 430 72 431 62 432 74 433 72 434 74 435 84 436 74 437 73 438 85 439 74 440 85 441 86 442 73 443 75 444 87 445 73 446 87 447 85 448 75 449 76 450 88 451 75 452 88 453 87 454 76 455 77 456 89 457 76 458 89 459 88 460 77 461 78 462 90 463 77 464 90 465 89 466 78 467 79 468 91 469 78 470 91 471 90 472 79 473 80 474 92 475 79 476 92 477 91 478 80 479 81 480 93 481 80 482 93 483 92 484 81 485 82 486 94 487 81 488 94 489 93 490 82 491 83 492 95 493 82 494 95 495 94 496 83 497 84 498 96 499 83 500 96 501 95 502 84 503 74 504 86 505 84 506 86 507 96 508 86 509 85 510 97 511 86 512 97 513 98 514 85 515 87 516 99 517 85 518 99 519 97 520 87 521 88 522 100 523 87 524 100 525 99 526 88 527 89 528 101 529 88 530 101 531 100 532 89 533 90 534 102 535 89 536 102 537 101 538 90 539 91 540 103 541 90 542 103 543 102 544 91 545 92 546 104 547 91 548 104 549 103 550 92 551 93 552 105 553 92 554 105 555 104 556 93 557 94 558 106 559 93 560 106 561 105 562 94 563 95 564 107 565 94 566 107 567 106 568 95 569 96 570 108 571 95 572 108 573 107 574 96 575 86 576 98 577 96 578 98 579 108 580 98 581 97 582 109 583 98 584 109 585 110 586 97 587 99 588 111 589 97 590 111 591 109 592 99 593 100 594 112 595 99 596 112 597 111 598 100 599 101 600 113 601 100 602 113 603 112 604 101 605 102 606 114 607 101 608 114 609 113 610 102 611 103 612 115 613 102 614 115 615 114 616 103 617 104 618 116 619 103 620 116 621 115 622 104 623 105 624 117 625 104 626 117 627 116 628 105 629 106 630 118 631 105 632 118 633 117 634 106 635 107 636 119 637 106 638 119 639 118 640 107 641 108 642 120 643 107 644 120 645 119 646 108 647 98 648 110 649 108 650 110 651 120 652 110 653 109 654 121 655 110 656 121 657 122 658 109 659 111 660 123 661 109 662 123 663 121 664 111 665 112 666 124 667 111 668 124 669 123 670 112 671 113 672 125 673 112 674 125 675 124 676 113 677 114 678 126 679 113 680 126 681 125 682 114 683 115 684 127 685 114 686 127 687 126 688 115 689 116 690 128 691 115 692 128 693 127 694 116 695 117 696 129 697 116 698 129 699 128 700 117 701 118 702 130 703 117 704 130 705 129 706 118 707 119 708 131 709 118 710 131 711 130 712 119 713 120 714 132 715 119 716 132 717 131 718 120 719 110 720 122 721 120 722 122 723 132 724 122 725 121 726 133 727 122 728 133 729 133 729 121 730 123 731 133 732 121 733 133 734 133 734 123 735 124 736 133 737 123 738 133 739 133 739 124 740 125 741 133 742 124 743 133 744 133 744 125 745 126 746 133 747 125 748 133 749 133 749 126 750 127 751 133 752 126 753 133 754 133 754 127 755 128 756 133 757 127 758 133 759 133 759 128 760 129 761 133 762 128 763 133 764 133 764 129 765 130 766 133 767 129 768 133 769 133 769 130 770 131 771 133 772 130 773 133 774 133 774 131 775 132 776 133 777 131 778 133 779 133 779 132 780 122 781 133 782 132 783 133 784 133 784 0 785 0 785 1 786 0 787 1 788 2 789 0 790 0 790 3 791 0 792 3 793 1 794 0 795 0 795 4 796 0 797 4 798 3 799 0 800 0 800 5 801 0 802 5 803 4 804 0 805 0 805 6 806 0 807 6 808 5 809 0 810 0 810 7 811 0 812 7 813 6 814 0 815 0 815 8 816 0 817 8 818 7 819 0 820 0 820 9 821 0 822 9 823 8 824 0 825 0 825 10 826 0 827 10 828 9 829 0 830 0 830 11 831 0 832 11 833 10 834 0 835 0 835 12 836 0 837 12 838 11 839</p>
                </triangles>
            </mesh>
        </geometry>
    </library_geometries>
    <library_visual_scenes>
        <visual_scene id="Building_293_CROWN1">
            <node>
                <instance_geometry url="#geometry0">
                    <bind_material>
                        <technique_common>
                            <instance_material symbol="default_ai_0.2_sh_0.2_tr_0.0_dc_r_0.8_g_0.8_b_0.8_sc_r_1.0_g_1.0_b_1.0_ec_r_0.0_g_0.0_b_0_tri" target="#default_ai_0.2_sh_0.2_tr_0.0_dc_r_0.8_g_0.8_b_0.8_sc_r_1.0_g_1.0_b_1.0_ec_r_0.0_g_0.0_b_0_mat"/>
                        </technique_common>
                    </bind_material>
                </instance_geometry>
            </node>
        </visual_scene>
    </library_visual_scenes>
    <scene>
        <instance_visual_scene url="#Building_293_CROWN1"/>
    </scene>
</COLLADA>
