<?xml version="1.0" encoding="UTF-8" standalone="yes"?>
<COLLADA xmlns="http://www.collada.org/2005/11/COLLADASchema" version="1.4.1">
    <asset>
        <contributor>
            <authoring_tool>3D City Database Importer/Exporter, version 5.5.3; Chair of Geoinformatics, Technical University of Munich</authoring_tool>
        </contributor>
        <created>2026-09-25T14:45:00.773</created>
        <modified>2026-09-25T14:45:00.773</modified>
        <unit meter="1.0" name="meters"/>
        <up_axis>Z_UP</up_axis>
    </asset>
    <library_materials>
        <material id="default_ai_0.2_sh_0.2_tr_0.0_dc_r_0.8_g_0.8_b_0.8_sc_r_1.0_g_1.0_b_1.0_ec_r_0.0_g_0.0_b_0_mat">
            <instance_effect url="#default_ai_0.2_sh_0.2_tr_0.0_dc_r_0.8_g_0.8_b_0.8_sc_r_1.0_g_1.0_b_1.0_ec_r_0.0_g_0.0_b_0_eff"/>
        </material>
    </library_materials>
    <library_effects>
        <effect id="default_ai_0.2_sh_0.2_tr_0.0_dc_r_0.8_g_0.8_b_0.8_sc_r_1.0_g_1.0_b_1.0_ec_r_0.0_g_0.0_b_0_eff">
            <profile_COMMON>
                <technique sid="COMMON">
                    <lambert>
                        <emission>
                            <color>0.0 0.0 0.0 1.0</color>
                        </emission>
                        <diffuse>
                            <color>0.8 0.8 0.8 1.0</color>
                        </diffuse>
                        <reflective>
                            <color>1.0 1.0 1.0 1.0</color>
                        </reflective>
                        <reflectivity>
                            <float>0.2</float>
                        </reflectivity>
                        <transparent opaque="A_ONE">
                            <color>1.0 1.0 1.0 1.0</color>
                        </transparent>
                        <transparency>
                            <float>1.0</float>
                        </transparency>
                    </lambert>
                </technique>
                <extra>
                    <technique profile="GOOGLEEARTH">
                        <double_sided>0</double_sided>
                    </technique>
                </extra>
            </profile_COMMON>
        </effect>
    </library_effects>
    <library_geometries>
        <geometry id="geometry0">
            <mesh>
                <source id="geometry0-position">
                    <float_array id="geometry0-position-array" count="402">0.0 0.0 1.5 0.168108 0.0970575 1.4744445 0.1941143 0.0 1.4744445 0.0970575 0.168108 1.4744445 0.0 0.1941143 1.4744445 -0.0970575 0.168108 1.4744445 -0.168108 0.0970575 1.4744445 -0.1941143 0.0 1.4744445 -0.168108 -0.0970575 1.4744445 -0.0970575 -0.168108 1.4744445 0.0 -0.1941143 1.4744445 0.0970575 -0.168108 1.4744445 0.168108 -0.0970575 1.4744445 0.3247597 0.1875 1.3995188 0.375 0.0 1.3995188 0.1875 0.3247597 1.3995188 0.0 0.375 1.3995188 -0.1875 0.3247597 1.3995188 -0.3247597 0.1875 1.3995188 -0.375 0.0 1.3995188 -0.3247597 -0.1875 1.3995188 -0.1875 -0.3247597 1.3995188 0.0 -0.375 1.3995188 0.1875 -0.3247597 1.3995188 0.3247597 -0.1875 1.3995188 0.459279 0.2651647 1.2803295 0.5303302 0.0 1.2803295 0.2651647 0.459279 1.2803295 0.0 0.5303303 1.2803295 -0.2651647 0.459279 1.2803295 -0.459279 0.2651647 1.2803295 -0.5303302 0.0 1.2803295 -0.459279 -0.2651647 1.2803295 -0.2651647 -0.459279 1.2803295 0.0 -0.5303303 1.2803295 0.2651647 -0.459279 1.2803295 0.459279 -0.2651647 1.2803295 0.5625 0.3247597 1.125 0.6495188 0.0 1.125 0.3247597 0.5625 1.125 0.0 0.6495187 1.125 -0.3247597 0.5625 1.125 -0.5625 0.3247597 1.125 -0.6495188 0.0 1.125 -0.5625 -0.3247597 1.125 -0.3247597 -0.5625 1.125 0.0 -0.6495187 1.125 0.3247597 -0.5625 1.125 0.5625 -0.3247597 1.125 0.627387 0.3622222 0.9441143 0.7244445 0.0 0.9441143 0.3622223 0.627387 0.9441143 0.0 0.7244445 0.9441143 -0.3622223 0.627387 0.9441143 -0.627387 0.3622222 0.9441143 -0.7244445 0.0 0.9441143 -0.627387 -0.3622222 0.9441143 -0.3622223 -0.627387 0.9441143 0.0 -0.7244445 0.9441143 0.3622223 -0.627387 0.9441143 0.627387 -0.3622222 0.9441143 0.6495188 0.375 0.75 0.75 0.0 0.75 0.375 0.6495187 0.75 0.0 0.75 0.75 -0.375 0.6495187 0.75 -0.6495188 0.375 0.75 -0.75 0.0 0.75 -0.6495188 -0.375 0.75 -0.375 -0.6495187 0.75 0.0 -0.75 0.75 0.375 -0.6495187 0.75 0.6495188 -0.375 0.75 0.627387 0.3622222 0.5558858 0.7244445 0.0 0.5558858 0.3622223 0.627387 0.5558858 0.0 0.7244445 0.5558858 -0.3622223 0.627387 0.5558858 -0.627387 0.3622222 0.5558858 -0.7244445 0.0 0.5558858 -0.627387 -0.3622222 0.5558858 -0.3622223 -0.627387 0.5558858 0.0 -0.7244445 0.5558858 0.3622223 -0.627387 0.5558858 0.627387 -0.3622222 0.5558858 0.5625 0.3247597 0.375 0.6495188 0.0 0.375 0.3247597 0.5625 0.375 0.0 0.6495187 0.375 -0.3247597 0.5625 0.375 -0.5625 0.3247597 0.375 -0.6495188 0.0 0.375 -0.5625 -0.3247597 0.375 -0.3247597 -0.5625 0.375 0.0 -0.6495187 0.375 0.3247597 -0.5625 0.375 0.5625 -0.3247597 0.375 0.459279 0.2651647 0.2196698 0.5303302 0.0 0.2196698 0.2651647 0.459279 0.2196698 0.0 0.5303303 0.2196698 -0.2651647 0.459279 0.2196698 -0.459279 0.2651647 0.2196698 -0.5303302 0.0 0.2196698 -0.459279 -0.2651647 0.2196698 -0.2651647 -0.459279 0.2196698 0.0 -0.5303303 0.2196698 0.2651647 -0.459279 0.2196698 0.459279 -0.2651647 0.2196698 0.3247597 0.1875 0.1004805 0.375 0.0 0.1004805 0.1875 0.3247597 0.1004805 0.0 0.375 0.1004805 -0.1875 0.3247597 0.1004805 -0.3247597 0.1875 0.1004805 -0.375 0.0 0.1004805 -0.3247597 -0.1875 0.1004805 -0.1875 -0.3247597 0.1004805 0.0 -0.375 0.1004805 0.1875 -0.3247597 0.1004805 0.3247597 -0.1875 0.1004805 0.168108 0.0970575 0.0255555 0.1941143 0.0 0.0255555 0.0970575 0.168108 0.0255555 0.0 0.1941143 0.0255555 -0.0970575 0.168108 0.0255555 -0.168108 0.0970575 0.0255555 -0.1941143 0.0 0.0255555 -0.168108 -0.0970575 0.0255555 -0.0970575 -0.168108 0.0255555 0.0 -0.1941143 0.0255555 0.0970575 -0.168108 0.0255555 0.168108 -0.0970575 0.0255555 0.0 0.0 0.0</float_array>
                    <technique_common>
                        <accessor count="134" source="#geometry0-position-array" stride="3">
                            <param name="X" type="float"/>
                            <param name="Y" type="float"/>
                            <param name="Z" type="float"/>
                        </accessor>
                    </technique_common>
                </source>
                <source id="geometry0-normal">
                    <float_array id="geometry0-normal-array" count="2520">-0.7760147 0.2079316 0.595454 -0.7760147 0.2079316 0.595454 -0.7760147 0.2079316 0.595454 -0.7760119 0.2079334 0.5954571 -0.7760119 0.2079334 0.5954571 -0.7760119 0.2079334 0.5954571 -0.6008227 -0.1609912 0.7830032 -0.6008227 -0.1609912 0.7830032 -0.6008227 -0.1609912 0.7830032 -0.6008214 -0.1609889 0.7830046 -0.6008214 -0.1609889 0.7830046 -0.6008214 -0.1609889 0.7830046 -0.4398331 -0.4398331 0.7830031 -0.4398331 -0.4398331 0.7830031 -0.4398331 -0.4398331 0.7830031 -0.439833 -0.439833 0.7830031 -0.439833 -0.439833 0.7830031 -0.439833 -0.439833 0.7830031 -0.1609908 -0.6008212 0.7830043 -0.1609908 -0.6008212 0.7830043 -0.1609908 -0.6008212 0.7830043 -0.1609894 -0.6008235 0.7830029 -0.1609894 -0.6008235 0.7830029 -0.1609894 -0.6008235 0.7830029 0.1609912 -0.6008227 0.7830032 0.1609912 -0.6008227 0.7830032 0.1609912 -0.6008227 0.7830032 0.1609889 -0.6008214 0.7830046 0.1609889 -0.6008214 0.7830046 0.1609889 -0.6008214 0.7830046 0.4398331 -0.4398331 0.7830031 0.4398331 -0.4398331 0.7830031 0.4398331 -0.4398331 0.7830031 0.439833 -0.439833 0.7830031 0.439833 -0.439833 0.7830031 0.439833 -0.439833 0.7830031 0.6008212 -0.1609908 0.7830043 0.6008212 -0.1609908 0.7830043 0.6008212 -0.1609908 0.7830043 0.6008235 -0.1609894 0.7830029 0.6008235 -0.1609894 0.7830029 0.6008235 -0.1609894 0.7830029 0.6008227 0.1609912 0.7830032 0.6008227 0.1609912 0.7830032 0.6008227 0.1609912 0.7830032 0.6008214 0.1609889 0.7830046 0.6008214 0.1609889 0.7830046 0.6008214 0.1609889 0.7830046 0.4398331 0.4398331 0.7830031 0.4398331 0.4398331 0.7830031 0.4398331 0.4398331 0.7830031 0.439833 0.439833 0.7830031 0.439833 0.439833 0.7830031 0.439833 0.439833 0.7830031 0.1609908 0.6008212 0.7830043 0.1609908 0.6008212 0.7830043 0.1609908 0.6008212 0.7830043 0.1609894 0.6008235 0.7830029 0.1609894 0.6008235 0.7830029 0.1609894 0.6008235 0.7830029 -0.1609912 0.6008227 0.7830032 -0.1609912 0.6008227 0.7830032 -0.1609912 0.6008227 0.7830032 -0.1609889 0.6008214 0.7830046 -0.1609889 0.6008214 0.7830046 -0.1609889 0.6008214 0.7830046 -0.4398331 0.4398331 0.7830031 -0.4398331 0.4398331 0.7830031 -0.4398331 0.4398331 0.7830031 -0.439833 0.439833 0.7830031 -0.439833 0.439833 0.7830031 -0.439833 0.439833 0.7830031 -0.6008212 0.1609908 0.7830043 -0.6008212 0.1609908 0.7830043 -0.6008212 0.1609908 0.7830043 -0.6008235 0.1609894 0.7830029 -0.6008235 0.1609894 0.7830029 -0.6008235 0.1609894 0.7830029 -0.3806861 -0.1020041 0.9190611 -0.3806861 -0.1020041 0.9190611 -0.3806861 -0.1020041 0.9190611 -0.380686 -0.1020036 0.9190612 -0.380686 -0.1020036 0.9190612 -0.380686 -0.1020036 0.9190612 -0.2786817 -0.2786817 0.9190609 -0.2786817 -0.2786817 0.9190609 -0.2786817 -0.2786817 0.9190609 -0.2786817 -0.2786817 0.9190609 -0.2786817 -0.2786817 0.9190609 -0.2786817 -0.2786817 0.9190609 -0.102004 -0.3806859 0.9190612 -0.102004 -0.3806859 0.9190612 -0.102004 -0.3806859 0.9190612 -0.1020037 -0.3806863 0.919061 -0.1020037 -0.3806863 0.919061 -0.1020037 -0.3806863 0.919061 0.1020041 -0.3806861 0.9190611 0.1020041 -0.3806861 0.9190611 0.1020041 -0.3806861 0.9190611 0.1020036 -0.380686 0.9190612 0.1020036 -0.380686 0.9190612 0.1020036 -0.380686 0.9190612 0.2786817 -0.2786817 0.9190609 0.2786817 -0.2786817 0.9190609 0.2786817 -0.2786817 0.9190609 0.2786817 -0.2786817 0.9190609 0.2786817 -0.2786817 0.9190609 0.2786817 -0.2786817 0.9190609 0.3806859 -0.102004 0.9190612 0.3806859 -0.102004 0.9190612 0.3806859 -0.102004 0.9190612 0.3806863 -0.1020037 0.919061 0.3806863 -0.1020037 0.919061 0.3806863 -0.1020037 0.919061 0.3806861 0.1020041 0.9190611 0.3806861 0.1020041 0.9190611 0.3806861 0.1020041 0.9190611 0.380686 0.1020036 0.9190612 0.380686 0.1020036 0.9190612 0.380686 0.1020036 0.9190612 0.2786817 0.2786817 0.9190609 0.2786817 0.2786817 0.9190609 0.2786817 0.2786817 0.9190609 0.2786817 0.2786817 0.9190609 0.2786817 0.2786817 0.9190609 0.2786817 0.2786817 0.9190609 0.102004 0.3806859 0.9190612 0.102004 0.3806859 0.9190612 0.102004 0.3806859 0.9190612 0.1020037 0.3806863 0.919061 0.1020037 0.3806863 0.919061 0.1020037 0.3806863 0.919061 -0.1020041 0.3806861 0.9190611 -0.1020041 0.3806861 0.9190611 -0.1020041 0.3806861 0.9190611 -0.1020036 0.380686 0.9190612 -0.1020036 0.380686 0.9190612 -0.1020036 0.380686 0.9190612 -0.2786817 0.2786817 0.9190609 -0.2786817 0.2786817 0.9190609 -0.2786817 0.2786817 0.9190609 -0.2786817 0.2786817 0.9190609 -0.2786817 0.2786817 0.9190609 -0.2786817 0.2786817 0.9190609 -0.3806859 0.102004 0.9190612 -0.3806859 0.102004 0.9190612 -0.3806859 0.102004 0.9190612 -0.3806863 0.1020037 0.919061 -0.3806863 0.1020037 0.919061 -0.3806863 0.1020037 0.919061 -0.1304458 -0.0349525 0.9908391 -0.1304458 -0.0349525 0.9908391 -0.1304458 -0.0349525 0.9908391 1.0 0.0 0.0 1.0 0.0 0.0 -0.0954928 -0.0954928 0.9908392 -0.0954928 -0.0954928 0.9908392 -0.0954928 -0.0954928 0.9908392 1.0 0.0 0.0 1.0 0.0 0.0 -0.0349525 -0.1304458 0.9908391 -0.0349525 -0.1304458 0.9908391 -0.0349525 -0.1304458 0.9908391 1.0 0.0 0.0 1.0 0.0 0.0 0.0349525 -0.1304458 0.9908391 0.0349525 -0.1304458 0.9908391 0.0349525 -0.1304458 0.9908391 1.0 0.0 0.0 1.0 0.0 0.0 0.0954928 -0.0954928 0.9908392 0.0954928 -0.0954928 0.9908392 0.0954928 -0.0954928 0.9908392 1.0 0.0 0.0 1.0 0.0 0.0 0.1304458 -0.0349525 0.9908391 0.1304458 -0.0349525 0.9908391 0.1304458 -0.0349525 0.9908391 1.0 0.0 0.0 1.0 0.0 0.0 0.1304458 0.0349525 0.9908391 0.1304458 0.0349525 0.9908391 0.1304458 0.0349525 0.9908391 1.0 0.0 0.0 1.0 0.0 0.0 0.0954928 0.0954928 0.9908392 0.0954928 0.0954928 0.9908392 0.0954928 0.0954928 0.9908392 1.0 0.0 0.0 1.0 0.0 0.0 0.0349525 0.1304458 0.9908391 0.0349525 0.1304458 0.9908391 0.0349525 0.1304458 0.9908391 1.0 0.0 0.0 1.0 0.0 0.0 -0.0349525 0.1304458 0.9908391 -0.0349525 0.1304458 0.9908391 -0.0349525 0.1304458 0.9908391 1.0 0.0 0.0 1.0 0.0 0.0 -0.0954928 0.0954928 0.9908392 -0.0954928 0.0954928 0.9908392 -0.0954928 0.0954928 0.9908392 1.0 0.0 0.0 1.0 0.0 0.0 -0.1304458 0.0349525 0.9908391 -0.1304458 0.0349525 0.9908391 -0.1304458 0.0349525 0.9908391 1.0 0.0 0.0 1.0 0.0 0.0 1.0 0.0 0.0 1.0 0.0 0.0 -0.1304457 -0.0349525 -0.9908391 -0.1304457 -0.0349525 -0.9908391 -0.1304457 -0.0349525 -0.9908391 1.0 0.0 0.0 1.0 0.0 0.0 -0.0954928 -0.0954928 -0.9908392 -0.0954928 -0.0954928 -0.9908392 -0.0954928 -0.0954928 -0.9908392 1.0 0.0 0.0 1.0 0.0 0.0 -0.0349525 -0.1304457 -0.9908391 -0.0349525 -0.1304457 -0.9908391 -0.0349525 -0.1304457 -0.9908391 1.0 0.0 0.0 1.0 0.0 0.0 0.0349525 -0.1304457 -0.9908391 0.0349525 -0.1304457 -0.9908391 0.0349525 -0.1304457 -0.9908391 1.0 0.0 0.0 1.0 0.0 0.0 0.0954928 -0.0954928 -0.9908392 0.0954928 -0.0954928 -0.9908392 0.0954928 -0.0954928 -0.9908392 1.0 0.0 0.0 1.0 0.0 0.0 0.1304457 -0.0349525 -0.9908391 0.1304457 -0.0349525 -0.9908391 0.1304457 -0.0349525 -0.9908391 1.0 0.0 0.0 1.0 0.0 0.0 0.1304457 0.0349525 -0.9908391 0.1304457 0.0349525 -0.9908391 0.1304457 0.0349525 -0.9908391 1.0 0.0 0.0 1.0 0.0 0.0 0.0954928 0.0954928 -0.9908392 0.0954928 0.0954928 -0.9908392 0.0954928 0.0954928 -0.9908392 1.0 0.0 0.0 1.0 0.0 0.0 0.0349525 0.1304457 -0.9908391 0.0349525 0.1304457 -0.9908391 0.0349525 0.1304457 -0.9908391 1.0 0.0 0.0 1.0 0.0 0.0 -0.0349525 0.1304457 -0.9908391 -0.0349525 0.1304457 -0.9908391 -0.0349525 0.1304457 -0.9908391 1.0 0.0 0.0 1.0 0.0 0.0 -0.0954928 0.0954928 -0.9908392 -0.0954928 0.0954928 -0.9908392 -0.0954928 0.0954928 -0.9908392 1.0 0.0 0.0 1.0 0.0 0.0 -0.1304457 0.0349525 -0.9908391 -0.1304457 0.0349525 -0.9908391 -0.1304457 0.0349525 -0.9908391 -0.3806897 -0.1020046 -0.9190595 -0.3806897 -0.1020046 -0.9190595 -0.3806897 -0.1020046 -0.9190595 -0.3806893 -0.1020049 -0.9190597 -0.3806893 -0.1020049 -0.9190597 -0.3806893 -0.1020049 -0.9190597 -0.2786841 -0.2786841 -0.9190595 -0.2786841 -0.2786841 -0.9190595 -0.2786841 -0.2786841 -0.9190595 -0.2786841 -0.2786841 -0.9190595 -0.2786841 -0.2786841 -0.9190595 -0.2786841 -0.2786841 -0.9190595 -0.1020045 -0.3806893 -0.9190597 -0.1020045 -0.3806893 -0.9190597 -0.1020045 -0.3806893 -0.9190597 -0.102005 -0.3806895 -0.9190596 -0.102005 -0.3806895 -0.9190596 -0.102005 -0.3806895 -0.9190596 0.1020046 -0.3806897 -0.9190595 0.1020046 -0.3806897 -0.9190595 0.1020046 -0.3806897 -0.9190595 0.1020049 -0.3806893 -0.9190597 0.1020049 -0.3806893 -0.9190597 0.1020049 -0.3806893 -0.9190597 0.2786841 -0.2786841 -0.9190595 0.2786841 -0.2786841 -0.9190595 0.2786841 -0.2786841 -0.9190595 0.2786841 -0.2786841 -0.9190595 0.2786841 -0.2786841 -0.9190595 0.2786841 -0.2786841 -0.9190595 0.3806893 -0.1020045 -0.9190597 0.3806893 -0.1020045 -0.9190597 0.3806893 -0.1020045 -0.9190597 0.3806895 -0.102005 -0.9190596 0.3806895 -0.102005 -0.9190596 0.3806895 -0.102005 -0.9190596 0.3806897 0.1020046 -0.9190595 0.3806897 0.1020046 -0.9190595 0.3806897 0.1020046 -0.9190595 0.3806893 0.1020049 -0.9190597 0.3806893 0.1020049 -0.9190597 0.3806893 0.1020049 -0.9190597 0.2786841 0.2786841 -0.9190595 0.2786841 0.2786841 -0.9190595 0.2786841 0.2786841 -0.9190595 0.2786841 0.2786841 -0.9190595 0.2786841 0.2786841 -0.9190595 0.2786841 0.2786841 -0.9190595 0.1020045 0.3806893 -0.9190597 0.1020045 0.3806893 -0.9190597 0.1020045 0.3806893 -0.9190597 0.102005 0.3806895 -0.9190596 0.102005 0.3806895 -0.9190596 0.102005 0.3806895 -0.9190596 -0.1020046 0.3806897 -0.9190595 -0.1020046 0.3806897 -0.9190595 -0.1020046 0.3806897 -0.9190595 -0.1020049 0.3806893 -0.9190597 -0.1020049 0.3806893 -0.9190597 -0.1020049 0.3806893 -0.9190597 -0.2786841 0.2786841 -0.9190595 -0.2786841 0.2786841 -0.9190595 -0.2786841 0.2786841 -0.9190595 -0.2786841 0.2786841 -0.9190595 -0.2786841 0.2786841 -0.9190595 -0.2786841 0.2786841 -0.9190595 -0.3806893 0.1020045 -0.9190597 -0.3806893 0.1020045 -0.9190597 -0.3806893 0.1020045 -0.9190597 -0.3806895 0.102005 -0.9190596 -0.3806895 0.102005 -0.9190596 -0.3806895 0.102005 -0.9190596 -0.6008235 -0.1609894 -0.7830029 -0.6008235 -0.1609894 -0.7830029 -0.6008235 -0.1609894 -0.7830029 -0.6008213 -0.1609908 -0.7830043 -0.6008213 -0.1609908 -0.7830043 -0.6008213 -0.1609908 -0.7830043 -0.4398331 -0.4398331 -0.783003 -0.4398331 -0.4398331 -0.783003 -0.4398331 -0.4398331 -0.783003 -0.4398331 -0.4398331 -0.783003 -0.4398331 -0.4398331 -0.783003 -0.4398331 -0.4398331 -0.783003 -0.1609889 -0.6008214 -0.7830046 -0.1609889 -0.6008214 -0.7830046 -0.1609889 -0.6008214 -0.7830046 -0.1609912 -0.6008227 -0.7830032 -0.1609912 -0.6008227 -0.7830032 -0.1609912 -0.6008227 -0.7830032 0.1609894 -0.6008235 -0.7830029 0.1609894 -0.6008235 -0.7830029 0.1609894 -0.6008235 -0.7830029 0.1609908 -0.6008213 -0.7830043 0.1609908 -0.6008213 -0.7830043 0.1609908 -0.6008213 -0.7830043 0.4398331 -0.4398331 -0.783003 0.4398331 -0.4398331 -0.783003 0.4398331 -0.4398331 -0.783003 0.4398331 -0.4398331 -0.783003 0.4398331 -0.4398331 -0.783003 0.4398331 -0.4398331 -0.783003 0.6008214 -0.1609889 -0.7830046 0.6008214 -0.1609889 -0.7830046 0.6008214 -0.1609889 -0.7830046 0.6008227 -0.1609912 -0.7830032 0.6008227 -0.1609912 -0.7830032 0.6008227 -0.1609912 -0.7830032 0.6008235 0.1609894 -0.7830029 0.6008235 0.1609894 -0.7830029 0.6008235 0.1609894 -0.7830029 0.6008213 0.1609908 -0.7830043 0.6008213 0.1609908 -0.7830043 0.6008213 0.1609908 -0.7830043 0.4398331 0.4398331 -0.783003 0.4398331 0.4398331 -0.783003 0.4398331 0.4398331 -0.783003 0.4398331 0.4398331 -0.783003 0.4398331 0.4398331 -0.783003 0.4398331 0.4398331 -0.783003 0.1609889 0.6008214 -0.7830046 0.1609889 0.6008214 -0.7830046 0.1609889 0.6008214 -0.7830046 0.1609912 0.6008227 -0.7830032 0.1609912 0.6008227 -0.7830032 0.1609912 0.6008227 -0.7830032 -0.1609894 0.6008235 -0.7830029 -0.1609894 0.6008235 -0.7830029 -0.1609894 0.6008235 -0.7830029 -0.1609908 0.6008213 -0.7830043 -0.1609908 0.6008213 -0.7830043 -0.1609908 0.6008213 -0.7830043 -0.4398331 0.4398331 -0.783003 -0.4398331 0.4398331 -0.783003 -0.4398331 0.4398331 -0.783003 -0.4398331 0.4398331 -0.783003 -0.4398331 0.4398331 -0.783003 -0.4398331 0.4398331 -0.783003 -0.6008214 0.1609889 -0.7830046 -0.6008214 0.1609889 -0.7830046 -0.6008214 0.1609889 -0.7830046 -0.6008227 0.1609912 -0.7830032 -0.6008227 0.1609912 -0.7830032 -0.6008227 0.1609912 -0.7830032 -0.7760105 -0.207933 -0.5954591 -0.7760105 -0.207933 -0.5954591 -0.7760105 -0.207933 -0.5954591 -0.7760134 -0.2079312 -0.595456 -0.7760134 -0.2079312 -0.595456 -0.7760134 -0.2079312 -0.595456 -0.5680793 -0.5680793 -0.5954593 -0.5680793 -0.5680793 -0.5954593 -0.5680793 -0.5680793 -0.5954593 -0.5680793 -0.5680793 -0.5954593 -0.5680793 -0.5680793 -0.5954593 -0.5680793 -0.5680793 -0.5954593 -0.2079337 -0.776013 -0.5954557 -0.2079337 -0.776013 -0.5954557 -0.2079337 -0.776013 -0.5954557 -0.2079307 -0.7760114 -0.5954587 -0.2079307 -0.7760114 -0.5954587 -0.2079307 -0.7760114 -0.5954587 0.207933 -0.7760105 -0.5954591 0.207933 -0.7760105 -0.5954591 0.207933 -0.7760105 -0.5954591 0.2079312 -0.7760134 -0.595456 0.2079312 -0.7760134 -0.595456 0.2079312 -0.7760134 -0.595456 0.5680793 -0.5680793 -0.5954593 0.5680793 -0.5680793 -0.5954593 0.5680793 -0.5680793 -0.5954593 0.5680793 -0.5680793 -0.5954593 0.5680793 -0.5680793 -0.5954593 0.5680793 -0.5680793 -0.5954593 0.776013 -0.2079337 -0.5954557 0.776013 -0.2079337 -0.5954557 0.776013 -0.2079337 -0.5954557 0.7760114 -0.2079307 -0.5954587 0.7760114 -0.2079307 -0.5954587 0.7760114 -0.2079307 -0.5954587 0.7760105 0.207933 -0.5954591 0.7760105 0.207933 -0.5954591 0.7760105 0.207933 -0.5954591 0.7760134 0.2079312 -0.595456 0.7760134 0.2079312 -0.595456 0.7760134 0.2079312 -0.595456 0.5680793 0.5680793 -0.5954593 0.5680793 0.5680793 -0.5954593 0.5680793 0.5680793 -0.5954593 0.5680793 0.5680793 -0.5954593 0.5680793 0.5680793 -0.5954593 0.5680793 0.5680793 -0.5954593 0.2079337 0.776013 -0.5954557 0.2079337 0.776013 -0.5954557 0.2079337 0.776013 -0.5954557 0.2079307 0.7760114 -0.5954587 0.2079307 0.7760114 -0.5954587 0.2079307 0.7760114 -0.5954587 -0.207933 0.7760105 -0.5954591 -0.207933 0.7760105 -0.5954591 -0.207933 0.7760105 -0.5954591 -0.2079312 0.7760134 -0.595456 -0.2079312 0.7760134 -0.595456 -0.2079312 0.7760134 -0.595456 -0.5680793 0.5680793 -0.5954593 -0.5680793 0.5680793 -0.5954593 -0.5680793 0.5680793 -0.5954593 -0.5680793 0.5680793 -0.5954593 -0.5680793 0.5680793 -0.5954593 -0.5680793 0.5680793 -0.5954593 -0.776013 0.2079337 -0.5954557 -0.776013 0.2079337 -0.5954557 -0.776013 0.2079337 -0.5954557 -0.7760114 0.2079307 -0.5954587 -0.7760114 0.2079307 -0.5954587 -0.7760114 0.2079307 -0.5954587 -0.8968096 -0.2402984 -0.3714691 -0.8968096 -0.2402984 -0.3714691 -0.8968096 -0.2402984 -0.3714691 -0.8968078 -0.2402998 -0.3714723 -0.8968078 -0.2402998 -0.3714723 -0.8968078 -0.2402998 -0.3714723 -0.6565099 -0.6565099 -0.3714691 -0.6565099 -0.6565099 -0.3714691 -0.6565099 -0.6565099 -0.3714691 -0.65651 -0.65651 -0.3714691 -0.65651 -0.65651 -0.3714691 -0.65651 -0.65651 -0.3714691 -0.240298 -0.8968083 -0.3714724 -0.240298 -0.8968083 -0.3714724 -0.240298 -0.8968083 -0.3714724 -0.2403001 -0.896809 -0.3714692 -0.2403001 -0.896809 -0.3714692 -0.2403001 -0.896809 -0.3714692 0.2402984 -0.8968096 -0.3714691 0.2402984 -0.8968096 -0.3714691 0.2402984 -0.8968096 -0.3714691 0.2402998 -0.8968078 -0.3714723 0.2402998 -0.8968078 -0.3714723 0.2402998 -0.8968078 -0.3714723 0.6565099 -0.6565099 -0.3714691 0.6565099 -0.6565099 -0.3714691 0.6565099 -0.6565099 -0.3714691 0.65651 -0.65651 -0.3714691 0.65651 -0.65651 -0.3714691 0.65651 -0.65651 -0.3714691 0.8968083 -0.240298 -0.3714724 0.8968083 -0.240298 -0.3714724 0.8968083 -0.240298 -0.3714724 0.896809 -0.2403001 -0.3714692 0.896809 -0.2403001 -0.3714692 0.896809 -0.2403001 -0.3714692 0.8968096 0.2402984 -0.3714691 0.8968096 0.2402984 -0.3714691 0.8968096 0.2402984 -0.3714691 0.8968078 0.2402998 -0.3714723 0.8968078 0.2402998 -0.3714723 0.8968078 0.2402998 -0.3714723 0.6565099 0.6565099 -0.3714691 0.6565099 0.6565099 -0.3714691 0.6565099 0.6565099 -0.3714691 0.65651 0.65651 -0.3714691 0.65651 0.65651 -0.3714691 0.65651 0.65651 -0.3714691 0.240298 0.8968083 -0.3714724 0.240298 0.8968083 -0.3714724 0.240298 0.8968083 -0.3714724 0.2403001 0.896809 -0.3714692 0.2403001 0.896809 -0.3714692 0.2403001 0.896809 -0.3714692 -0.2402984 0.8968096 -0.3714691 -0.2402984 0.8968096 -0.3714691 -0.2402984 0.8968096 -0.3714691 -0.2402998 0.8968078 -0.3714723 -0.2402998 0.8968078 -0.3714723 -0.2402998 0.8968078 -0.3714723 -0.6565099 0.6565099 -0.3714691 -0.6565099 0.6565099 -0.3714691 -0.6565099 0.6565099 -0.3714691 -0.65651 0.65651 -0.3714691 -0.65651 0.65651 -0.3714691 -0.65651 0.65651 -0.3714691 -0.8968083 0.240298 -0.3714724 -0.8968083 0.240298 -0.3714724 -0.8968083 0.240298 -0.3714724 -0.896809 0.2403001 -0.3714692 -0.896809 0.2403001 -0.3714692 -0.896809 0.2403001 -0.3714692 -0.958209 -0.2567523 -0.1261502 -0.958209 -0.2567523 -0.1261502 -0.958209 -0.2567523 -0.1261502 -0.958209 -0.2567522 -0.1261499 -0.958209 -0.2567522 -0.1261499 -0.958209 -0.2567522 -0.1261499 -0.7014578 -0.7014578 -0.1261501 -0.7014578 -0.7014578 -0.1261501 -0.7014578 -0.7014578 -0.1261501 -0.7014578 -0.7014578 -0.1261501 -0.7014578 -0.7014578 -0.1261501 -0.7014578 -0.7014578 -0.1261501 -0.2567523 -0.958209 -0.1261499 -0.2567523 -0.958209 -0.1261499 -0.2567523 -0.958209 -0.1261499 -0.2567521 -0.958209 -0.1261502 -0.2567521 -0.958209 -0.1261502 -0.2567521 -0.958209 -0.1261502 0.2567523 -0.958209 -0.1261502 0.2567523 -0.958209 -0.1261502 0.2567523 -0.958209 -0.1261502 0.2567522 -0.958209 -0.1261499 0.2567522 -0.958209 -0.1261499 0.2567522 -0.958209 -0.1261499 0.7014578 -0.7014578 -0.1261501 0.7014578 -0.7014578 -0.1261501 0.7014578 -0.7014578 -0.1261501 0.7014578 -0.7014578 -0.1261501 0.7014578 -0.7014578 -0.1261501 0.7014578 -0.7014578 -0.1261501 0.958209 -0.2567523 -0.1261499 0.958209 -0.2567523 -0.1261499 0.958209 -0.2567523 -0.1261499 0.958209 -0.2567521 -0.1261502 0.958209 -0.2567521 -0.1261502 0.958209 -0.2567521 -0.1261502 0.958209 0.2567523 -0.1261502 0.958209 0.2567523 -0.1261502 0.958209 0.2567523 -0.1261502 0.958209 0.2567522 -0.1261499 0.958209 0.2567522 -0.1261499 0.958209 0.2567522 -0.1261499 0.7014578 0.7014578 -0.1261501 0.7014578 0.7014578 -0.1261501 0.7014578 0.7014578 -0.1261501 0.7014578 0.7014578 -0.1261501 0.7014578 0.7014578 -0.1261501 0.7014578 0.7014578 -0.1261501 0.2567523 0.958209 -0.1261499 0.2567523 0.958209 -0.1261499 0.2567523 0.958209 -0.1261499 0.2567521 0.958209 -0.1261502 0.2567521 0.958209 -0.1261502 0.2567521 0.958209 -0.1261502 -0.2567523 0.958209 -0.1261502 -0.2567523 0.958209 -0.1261502 -0.2567523 0.958209 -0.1261502 -0.2567522 0.958209 -0.1261499 -0.2567522 0.958209 -0.1261499 -0.2567522 0.958209 -0.1261499 -0.7014578 0.7014578 -0.1261501 -0.7014578 0.7014578 -0.1261501 -0.7014578 0.7014578 -0.1261501 -0.7014578 0.7014578 -0.1261501 -0.7014578 0.7014578 -0.1261501 -0.7014578 0.7014578 -0.1261501 -0.958209 0.2567523 -0.1261499 -0.958209 0.2567523 -0.1261499 -0.958209 0.2567523 -0.1261499 -0.958209 0.2567521 -0.1261502 -0.958209 0.2567521 -0.1261502 -0.958209 0.2567521 -0.1261502 -0.958209 -0.2567521 0.1261502 -0.958209 -0.2567521 0.1261502 -0.958209 -0.2567521 0.1261502 -0.958209 -0.2567523 0.1261499 -0.958209 -0.2567523 0.1261499 -0.958209 -0.2567523 0.1261499 -0.7014578 -0.7014578 0.1261501 -0.7014578 -0.7014578 0.1261501 -0.7014578 -0.7014578 0.1261501 -0.7014578 -0.7014578 0.1261501 -0.7014578 -0.7014578 0.1261501 -0.7014578 -0.7014578 0.1261501 -0.2567522 -0.958209 0.1261499 -0.2567522 -0.958209 0.1261499 -0.2567522 -0.958209 0.1261499 -0.2567523 -0.958209 0.1261502 -0.2567523 -0.958209 0.1261502 -0.2567523 -0.958209 0.1261502 0.2567521 -0.958209 0.1261502 0.2567521 -0.958209 0.1261502 0.2567521 -0.958209 0.1261502 0.2567523 -0.958209 0.1261499 0.2567523 -0.958209 0.1261499 0.2567523 -0.958209 0.1261499 0.7014578 -0.7014578 0.1261501 0.7014578 -0.7014578 0.1261501 0.7014578 -0.7014578 0.1261501 0.7014578 -0.7014578 0.1261501 0.7014578 -0.7014578 0.1261501 0.7014578 -0.7014578 0.1261501 0.958209 -0.2567522 0.1261499 0.958209 -0.2567522 0.1261499 0.958209 -0.2567522 0.1261499 0.958209 -0.2567523 0.1261502 0.958209 -0.2567523 0.1261502 0.958209 -0.2567523 0.1261502 0.958209 0.2567521 0.1261502 0.958209 0.2567521 0.1261502 0.958209 0.2567521 0.1261502 0.958209 0.2567523 0.1261499 0.958209 0.2567523 0.1261499 0.958209 0.2567523 0.1261499 0.7014578 0.7014578 0.1261501 0.7014578 0.7014578 0.1261501 0.7014578 0.7014578 0.1261501 0.7014578 0.7014578 0.1261501 0.7014578 0.7014578 0.1261501 0.7014578 0.7014578 0.1261501 0.2567522 0.958209 0.1261499 0.2567522 0.958209 0.1261499 0.2567522 0.958209 0.1261499 0.2567523 0.958209 0.1261502 0.2567523 0.958209 0.1261502 0.2567523 0.958209 0.1261502 -0.2567521 0.958209 0.1261502 -0.2567521 0.958209 0.1261502 -0.2567521 0.958209 0.1261502 -0.2567523 0.958209 0.1261499 -0.2567523 0.958209 0.1261499 -0.2567523 0.958209 0.1261499 -0.7014578 0.7014578 0.1261501 -0.7014578 0.7014578 0.1261501 -0.7014578 0.7014578 0.1261501 -0.7014578 0.7014578 0.1261501 -0.7014578 0.7014578 0.1261501 -0.7014578 0.7014578 0.1261501 -0.958209 0.2567522 0.1261499 -0.958209 0.2567522 0.1261499 -0.958209 0.2567522 0.1261499 -0.958209 0.2567523 0.1261502 -0.958209 0.2567523 0.1261502 -0.958209 0.2567523 0.1261502 -0.896809 -0.2403001 0.3714692 -0.896809 -0.2403001 0.3714692 -0.896809 -0.2403001 0.3714692 -0.8968083 -0.240298 0.3714724 -0.8968083 -0.240298 0.3714724 -0.8968083 -0.240298 0.3714724 -0.65651 -0.65651 0.3714691 -0.65651 -0.65651 0.3714691 -0.65651 -0.65651 0.3714691 -0.65651 -0.65651 0.3714691 -0.65651 -0.65651 0.3714691 -0.65651 -0.65651 0.3714691 -0.2402998 -0.8968078 0.3714722 -0.2402998 -0.8968078 0.3714722 -0.2402998 -0.8968078 0.3714722 -0.2402984 -0.8968096 0.3714691 -0.2402984 -0.8968096 0.3714691 -0.2402984 -0.8968096 0.3714691 0.2403001 -0.896809 0.3714692 0.2403001 -0.896809 0.3714692 0.2403001 -0.896809 0.3714692 0.240298 -0.8968083 0.3714724 0.240298 -0.8968083 0.3714724 0.240298 -0.8968083 0.3714724 0.65651 -0.65651 0.3714691 0.65651 -0.65651 0.3714691 0.65651 -0.65651 0.3714691 0.65651 -0.65651 0.3714691 0.65651 -0.65651 0.3714691 0.65651 -0.65651 0.3714691 0.8968078 -0.2402998 0.3714722 0.8968078 -0.2402998 0.3714722 0.8968078 -0.2402998 0.3714722 0.8968096 -0.2402984 0.3714691 0.8968096 -0.2402984 0.3714691 0.8968096 -0.2402984 0.3714691 0.896809 0.2403001 0.3714692 0.896809 0.2403001 0.3714692 0.896809 0.2403001 0.3714692 0.8968083 0.240298 0.3714724 0.8968083 0.240298 0.3714724 0.8968083 0.240298 0.3714724 0.65651 0.65651 0.3714691 0.65651 0.65651 0.3714691 0.65651 0.65651 0.3714691 0.65651 0.65651 0.3714691 0.65651 0.65651 0.3714691 0.65651 0.65651 0.3714691 0.2402998 0.8968078 0.3714722 0.2402998 0.8968078 0.3714722 0.2402998 0.8968078 0.3714722 0.2402984 0.8968096 0.3714691 0.2402984 0.8968096 0.3714691 0.2402984 0.8968096 0.3714691 -0.2403001 0.896809 0.3714692 -0.2403001 0.896809 0.3714692 -0.2403001 0.896809 0.3714692 -0.240298 0.8968083 0.3714724 -0.240298 0.8968083 0.3714724 -0.240298 0.8968083 0.3714724 -0.65651 0.65651 0.3714691 -0.65651 0.65651 0.3714691 -0.65651 0.65651 0.3714691 -0.65651 0.65651 0.3714691 -0.65651 0.65651 0.3714691 -0.65651 0.65651 0.3714691 -0.8968078 0.2402998 0.3714722 -0.8968078 0.2402998 0.3714722 -0.8968078 0.2402998 0.3714722 -0.8968096 0.2402984 0.3714691 -0.8968096 0.2402984 0.3714691 -0.8968096 0.2402984 0.3714691 -0.7760128 -0.2079311 0.5954568 -0.7760128 -0.2079311 0.5954568 -0.7760128 -0.2079311 0.5954568 -0.7760143 -0.207934 0.5954537 -0.7760143 -0.207934 0.5954537 -0.7760143 -0.207934 0.5954537 -0.5680803 -0.5680803 0.5954574 -0.5680803 -0.5680803 0.5954574 -0.5680803 -0.5680803 0.5954574 -0.5680803 -0.5680803 0.5954574 -0.5680803 -0.5680803 0.5954574 -0.5680803 -0.5680803 0.5954574 -0.2079316 -0.7760147 0.595454 -0.2079316 -0.7760147 0.595454 -0.2079316 -0.7760147 0.595454 -0.2079334 -0.7760119 0.5954571 -0.2079334 -0.7760119 0.5954571 -0.2079334 -0.7760119 0.5954571 0.2079311 -0.7760128 0.5954568 0.2079311 -0.7760128 0.5954568 0.2079311 -0.7760128 0.5954568 0.207934 -0.7760143 0.5954537 0.207934 -0.7760143 0.5954537 0.207934 -0.7760143 0.5954537 0.5680803 -0.5680803 0.5954574 0.5680803 -0.5680803 0.5954574 0.5680803 -0.5680803 0.5954574 0.5680803 -0.5680803 0.5954574 0.5680803 -0.5680803 0.5954574 0.5680803 -0.5680803 0.5954574 0.7760147 -0.2079316 0.595454 0.7760147 -0.2079316 0.595454 0.7760147 -0.2079316 0.595454 0.7760119 -0.2079334 0.5954571 0.7760119 -0.2079334 0.5954571 0.7760119 -0.2079334 0.5954571 0.7760128 0.2079311 0.5954568 0.7760128 0.2079311 0.5954568 0.7760128 0.2079311 0.5954568 0.7760143 0.207934 0.5954537 0.7760143 0.207934 0.5954537 0.7760143 0.207934 0.5954537 0.5680803 0.5680803 0.5954574 0.5680803 0.5680803 0.5954574 0.5680803 0.5680803 0.5954574 0.5680803 0.5680803 0.5954574 0.5680803 0.5680803 0.5954574 0.5680803 0.5680803 0.5954574 0.2079316 0.7760147 0.595454 0.2079316 0.7760147 0.595454 0.2079316 0.7760147 0.595454 0.2079334 0.7760119 0.5954571 0.2079334 0.7760119 0.5954571 0.2079334 0.7760119 0.5954571 -0.2079311 0.7760128 0.5954568 -0.2079311 0.7760128 0.5954568 -0.2079311 0.7760128 0.5954568 -0.207934 0.7760143 0.5954537 -0.207934 0.7760143 0.5954537 -0.207934 0.7760143 0.5954537 -0.5680803 0.5680803 0.5954574 -0.5680803 0.5680803 0.5954574 -0.5680803 0.5680803 0.5954574 -0.5680803 0.5680803 0.5954574 -0.5680803 0.5680803 0.5954574 -0.5680803 0.5680803 0.5954574</float_array>
                    <technique_common>
                        <accessor count="840" source="#geometry0-normal-array" stride="3">
                            <param name="X" type="float"/>
                            <param name="Y" type="float"/>
                            <param name="Z" type="float"/>
                        </accessor>
                    </technique_common>
                </source>
                <vertices id="geometry0-vertex">
                    <input semantic="POSITION" source="#geometry0-position"/>
                </vertices>
                <triangles count="288" material="default_ai_0.2_sh_0.2_tr_0.0_dc_r_0.8_g_0.8_b_0.8_sc_r_1.0_g_1.0_b_1.0_ec_r_0.0_g_0.0_b_0_tri">
                    <input offset="0" semantic="VERTEX" source="#geometry0-vertex"/>
                    <input offset="1" semantic="NORMAL" source="#geometry0-normal"/>
                    <p>96 0 86 1 98 2 96 3 98 4 108 5 98 6 97 7 109 8 98 9 109 10 110 11 97 12 99 13 111 14 97 15 111 16 109 17 99 18 100 19 112 20 99 21 112 22 111 23 100 24 101 25 113 26 100 27 113 28 112 29 101 30 102 31 114 32 101 33 114 34 113 35 102 36 103 37 115 38 102 39 115 40 114 41 103 42 104 43 116 44 103 45 116 46 115 47 104 48 105 49 117 50 104 51 117 52 116 53 105 54 106 55 118 56 105 57 118 58 117 59 106 60 107 61 119 62 106 63 119 64 118 65 107 66 108 67 120 68 107 69 120 70 119 71 108 72 98 73 110 74 108 75 110 76 120 77 110 78 109 79 121 80 110 81 121 82 122 83 109 84 111 85 123 86 109 87 123 88 121 89 111 90 112 91 124 92 111 93 124 94 123 95 112 96 113 97 125 98 112 99 125 100 124 101 113 102 114 103 126 104 113 105 126 106 125 107 114 108 115 109 127 110 114 111 127 112 126 113 115 114 116 115 128 116 115 117 128 118 127 119 116 120 117 121 129 122 116 123 129 124 128 125 117 126 118 127 130 128 117 129 130 130 129 131 118 132 119 133 131 134 118 135 131 136 130 137 119 138 120 139 132 140 119 141 132 142 131 143 120 144 110 145 122 146 120 147 122 148 132 149 122 150 121 151 133 152 122 153 133 154 133 154 121 155 123 156 133 157 121 158 133 159 133 159 123 160 124 161 133 162 123 163 133 164 133 164 124 165 125 166 133 167 124 168 133 169 133 169 125 170 126 171 133 172 125 173 133 174 133 174 126 175 127 176 133 177 126 178 133 179 133 179 127 180 128 181 133 182 127 183 133 184 133 184 128 185 129 186 133 187 128 188 133 189 133 189 129 190 130 191 133 192 129 193 133 194 133 194 130 195 131 196 133 197 130 198 133 199 133 199 131 200 132 201 133 202 131 203 133 204 133 204 132 205 122 206 133 207 132 208 133 209 133 209 0 210 0 210 1 211 0 212 1 213 2 214 0 215 0 215 3 216 0 217 3 218 1 219 0 220 0 220 4 221 0 222 4 223 3 224 0 225 0 225 5 226 0 227 5 228 4 229 0 230 0 230 6 231 0 232 6 233 5 234 0 235 0 235 7 236 0 237 7 238 6 239 0 240 0 240 8 241 0 242 8 243 7 244 0 245 0 245 9 246 0 247 9 248 8 249 0 250 0 250 10 251 0 252 10 253 9 254 0 255 0 255 11 256 0 257 11 258 10 259 0 260 0 260 12 261 0 262 12 263 11 264 0 265 0 265 2 266 0 267 2 268 12 269 2 270 1 271 13 272 2 273 13 274 14 275 1 276 3 277 15 278 1 279 15 280 13 281 3 282 4 283 16 284 3 285 16 286 15 287 4 288 5 289 17 290 4 291 17 292 16 293 5 294 6 295 18 296 5 297 18 298 17 299 6 300 7 301 19 302 6 303 19 304 18 305 7 306 8 307 20 308 7 309 20 310 19 311 8 312 9 313 21 314 8 315 21 316 20 317 9 318 10 319 22 320 9 321 22 322 21 323 10 324 11 325 23 326 10 327 23 328 22 329 11 330 12 331 24 332 11 333 24 334 23 335 12 336 2 337 14 338 12 339 14 340 24 341 14 342 13 343 25 344 14 345 25 346 26 347 13 348 15 349 27 350 13 351 27 352 25 353 15 354 16 355 28 356 15 357 28 358 27 359 16 360 17 361 29 362 16 363 29 364 28 365 17 366 18 367 30 368 17 369 30 370 29 371 18 372 19 373 31 374 18 375 31 376 30 377 19 378 20 379 32 380 19 381 32 382 31 383 20 384 21 385 33 386 20 387 33 388 32 389 21 390 22 391 34 392 21 393 34 394 33 395 22 396 23 397 35 398 22 399 35 400 34 401 23 402 24 403 36 404 23 405 36 406 35 407 24 408 14 409 26 410 24 411 26 412 36 413 26 414 25 415 37 416 26 417 37 418 38 419 25 420 27 421 39 422 25 423 39 424 37 425 27 426 28 427 40 428 27 429 40 430 39 431 28 432 29 433 41 434 28 435 41 436 40 437 29 438 30 439 42 440 29 441 42 442 41 443 30 444 31 445 43 446 30 447 43 448 42 449 31 450 32 451 44 452 31 453 44 454 43 455 32 456 33 457 45 458 32 459 45 460 44 461 33 462 34 463 46 464 33 465 46 466 45 467 34 468 35 469 47 470 34 471 47 472 46 473 35 474 36 475 48 476 35 477 48 478 47 479 36 480 26 481 38 482 36 483 38 484 48 485 38 486 37 487 49 488 38 489 49 490 50 491 37 492 39 493 51 494 37 495 51 496 49 497 39 498 40 499 52 500 39 501 52 502 51 503 40 504 41 505 53 506 40 507 53 508 52 509 41 510 42 511 54 512 41 513 54 514 53 515 42 516 43 517 55 518 42 519 55 520 54 521 43 522 44 523 56 524 43 525 56 526 55 527 44 528 45 529 57 530 44 531 57 532 56 533 45 534 46 535 58 536 45 537 58 538 57 539 46 540 47 541 59 542 46 543 59 544 58 545 47 546 48 547 60 548 47 549 60 550 59 551 48 552 38 553 50 554 48 555 50 556 60 557 50 558 49 559 61 560 50 561 61 562 62 563 49 564 51 565 63 566 49 567 63 568 61 569 51 570 52 571 64 572 51 573 64 574 63 575 52 576 53 577 65 578 52 579 65 580 64 581 53 582 54 583 66 584 53 585 66 586 65 587 54 588 55 589 67 590 54 591 67 592 66 593 55 594 56 595 68 596 55 597 68 598 67 599 56 600 57 601 69 602 56 603 69 604 68 605 57 606 58 607 70 608 57 609 70 610 69 611 58 612 59 613 71 614 58 615 71 616 70 617 59 618 60 619 72 620 59 621 72 622 71 623 60 624 50 625 62 626 60 627 62 628 72 629 62 630 61 631 73 632 62 633 73 634 74 635 61 636 63 637 75 638 61 639 75 640 73 641 63 642 64 643 76 644 63 645 76 646 75 647 64 648 65 649 77 650 64 651 77 652 76 653 65 654 66 655 78 656 65 657 78 658 77 659 66 660 67 661 79 662 66 663 79 664 78 665 67 666 68 667 80 668 67 669 80 670 79 671 68 672 69 673 81 674 68 675 81 676 80 677 69 678 70 679 82 680 69 681 82 682 81 683 70 684 71 685 83 686 70 687 83 688 82 689 71 690 72 691 84 692 71 693 84 694 83 695 72 696 62 697 74 698 72 699 74 700 84 701 74 702 73 703 85 704 74 705 85 706 86 707 73 708 75 709 87 710 73 711 87 712 85 713 75 714 76 715 88 716 75 717 88 718 87 719 76 720 77 721 89 722 76 723 89 724 88 725 77 726 78 727 90 728 77 729 90 730 89 731 78 732 79 733 91 734 78 735 91 736 90 737 79 738 80 739 92 740 79 741 92 742 91 743 80 744 81 745 93 746 80 747 93 748 92 749 81 750 82 751 94 752 81 753 94 754 93 755 82 756 83 757 95 758 82 759 95 760 94 761 83 762 84 763 96 764 83 765 96 766 95 767 84 768 74 769 86 770 84 771 86 772 96 773 86 774 85 775 97 776 86 777 97 778 98 779 85 780 87 781 99 782 85 783 99 784 97 785 87 786 88 787 100 788 87 789 100 790 99 791 88 792 89 793 101 794 88 795 101 796 100 797 89 798 90 799 102 800 89 801 102 802 101 803 90 804 91 805 103 806 90 807 103 808 102 809 91 810 92 811 104 812 91 813 104 814 103 815 92 816 93 817 105 818 92 819 105 820 104 821 93 822 94 823 106 824 93 825 106 826 105 827 94 828 95 829 107 830 94 831 107 832 106 833 95 834 96 835 108 836 95 837 108 838 107 839</p>
                </triangles>
            </mesh>
        </geometry>
    </library_geometries>
    <library_visual_scenes>
        <visual_scene id="Building_207_CROWN1">
            <node>
                <instance_geometry url="#geometry0">
                    <bind_material>
                        <technique_common>
                            <instance_material symbol="default_ai_0.2_sh_0.2_tr_0.0_dc_r_0.8_g_0.8_b_0.8_sc_r_1.0_g_1.0_b_1.0_ec_r_0.0_g_0.0_b_0_tri" target="#default_ai_0.2_sh_0.2_tr_0.0_dc_r_0.8_g_0.8_b_0.8_sc_r_1.0_g_1.0_b_1.0_ec_r_0.0_g_0.0_b_0_mat"/>
                        </technique_common>
                    </bind_material>
                </instance_geometry>
            </node>
        </visual_scene>
    </library_visual_scenes>
    <scene>
        <instance_visual_scene url="#Building_207_CROWN1"/>
    </scene>
</COLLADA>
