<?xml version="1.0" encoding="UTF-8" standalone="yes"?>
<COLLADA xmlns="http://www.collada.org/2005/11/COLLADASchema" version="1.4.1">
    <asset>
        <contributor>
            <authoring_tool>3D City Database Importer/Exporter, version 5.5.3; Chair of Geoinformatics, Technical University of Munich</authoring_tool>
        </contributor>
        <created>2026-09-25T14:45:34.269</created>
        <modified>2026-09-25T14:45:34.269</modified>
        <unit meter="1.0" name="meters"/>
        <up_axis>Z_UP</up_axis>
    </asset>
    <library_materials>
        <material id="default_ai_0.2_sh_0.2_tr_0.0_dc_r_0.8_g_0.8_b_0.8_sc_r_1.0_g_1.0_b_1.0_ec_r_0.0_g_0.0_b_0_mat">
            <instance_effect url="#default_ai_0.2_sh_0.2_tr_0.0_dc_r_0.8_g_0.8_b_0.8_sc_r_1.0_g_1.0_b_1.0_ec_r_0.0_g_0.0_b_0_eff"/>
        </material>
    </library_materials>
    <library_effects>
        <effect id="default_ai_0.2_sh_0.2_tr_0.0_dc_r_0.8_g_0.8_b_0.8_sc_r_1.0_g_1.0_b_1.0_ec_r_0.0_g_0.0_b_0_eff">
            <profile_COMMON>
                <technique sid="COMMON">
                    <lambert>
                        <emission>
                            <color>0.0 0.0 0.0 1.0</color>
                        </emission>
                        <diffuse>
                            <color>0.8 0.8 0.8 1.0</color>
                        </diffuse>
                        <reflective>
                            <color>1.0 1.0 1.0 1.0</color>
                        </reflective>
                        <reflectivity>
                            <float>0.2</float>
                        </reflectivity>
                        <transparent opaque="A_ONE">
                            <color>1.0 1.0 1.0 1.0</color>
                        </transparent>
                        <transparency>
                            <float>1.0</float>
                        </transparency>
                    </lambert>
                </technique>
                <extra>
                    <technique profile="GOOGLEEARTH">
                        <double_sided>0</double_sided>
                    </technique>
                </extra>
            </profile_COMMON>
        </effect>
    </library_effects>
    <library_geometries>
        <geometry id="geometry0">
            <mesh>
                <source id="geometry0-position">
                    <float_array id="geometry0-position-array" count="402">0.0 0.0 3.0 0.336216 0.194115 2.948889 0.3882285 0.0 2.948889 0.194115 0.336216 2.948889 0.0 0.3882285 2.948889 -0.194115 0.336216 2.948889 -0.336216 0.194115 2.948889 -0.3882285 0.0 2.948889 -0.336216 -0.194115 2.948889 -0.194115 -0.336216 2.948889 0.0 -0.3882285 2.948889 0.194115 -0.336216 2.948889 0.336216 -0.194115 2.948889 0.6495195 0.375 2.7990375 0.75 0.0 2.7990375 0.375 0.6495195 2.7990375 0.0 0.75 2.7990375 -0.375 0.6495195 2.7990375 -0.6495195 0.375 2.7990375 -0.75 0.0 2.7990375 -0.6495195 -0.375 2.7990375 -0.375 -0.6495195 2.7990375 0.0 -0.75 2.7990375 0.375 -0.6495195 2.7990375 0.6495195 -0.375 2.7990375 0.918558 0.5303295 2.560659 1.0606605 0.0 2.560659 0.5303295 0.918558 2.560659 0.0 1.0606605 2.560659 -0.5303295 0.918558 2.560659 -0.918558 0.5303295 2.560659 -1.0606605 0.0 2.560659 -0.918558 -0.5303295 2.560659 -0.5303295 -0.918558 2.560659 0.0 -1.0606605 2.560659 0.5303295 -0.918558 2.560659 0.918558 -0.5303295 2.560659 1.125 0.6495195 2.25 1.2990375 0.0 2.25 0.6495195 1.125 2.25 0.0 1.2990375 2.25 -0.6495195 1.125 2.25 -1.125 0.6495195 2.25 -1.2990375 0.0 2.25 -1.125 -0.6495195 2.25 -0.6495195 -1.125 2.25 0.0 -1.2990375 2.25 0.6495195 -1.125 2.25 1.125 -0.6495195 2.25 1.254774 0.7244445 1.8882285 1.448889 0.0 1.8882285 0.7244445 1.254774 1.8882285 0.0 1.448889 1.8882285 -0.7244445 1.254774 1.8882285 -1.254774 0.7244445 1.8882285 -1.448889 0.0 1.8882285 -1.254774 -0.7244445 1.8882285 -0.7244445 -1.254774 1.8882285 0.0 -1.448889 1.8882285 0.7244445 -1.254774 1.8882285 1.254774 -0.7244445 1.8882285 1.2990375 0.75 1.5 1.5 0.0 1.5 0.75 1.2990375 1.5 0.0 1.5 1.5 -0.75 1.2990375 1.5 -1.2990375 0.75 1.5 -1.5 0.0 1.5 -1.2990375 -0.75 1.5 -0.75 -1.2990375 1.5 0.0 -1.5 1.5 0.75 -1.2990375 1.5 1.2990375 -0.75 1.5 1.254774 0.7244445 1.1117715 1.448889 0.0 1.1117715 0.7244445 1.254774 1.1117715 0.0 1.448889 1.1117715 -0.7244445 1.254774 1.1117715 -1.254774 0.7244445 1.1117715 -1.448889 0.0 1.1117715 -1.254774 -0.7244445 1.1117715 -0.7244445 -1.254774 1.1117715 0.0 -1.448889 1.1117715 0.7244445 -1.254774 1.1117715 1.254774 -0.7244445 1.1117715 1.125 0.6495195 0.75 1.2990375 0.0 0.75 0.6495195 1.125 0.75 0.0 1.2990375 0.75 -0.6495195 1.125 0.75 -1.125 0.6495195 0.75 -1.2990375 0.0 0.75 -1.125 -0.6495195 0.75 -0.6495195 -1.125 0.75 0.0 -1.2990375 0.75 0.6495195 -1.125 0.75 1.125 -0.6495195 0.75 0.918558 0.5303295 0.4393395 1.0606605 0.0 0.4393395 0.5303295 0.918558 0.4393395 0.0 1.0606605 0.4393395 -0.5303295 0.918558 0.4393395 -0.918558 0.5303295 0.4393395 -1.0606605 0.0 0.4393395 -0.918558 -0.5303295 0.4393395 -0.5303295 -0.918558 0.4393395 0.0 -1.0606605 0.4393395 0.5303295 -0.918558 0.4393395 0.918558 -0.5303295 0.4393395 0.6495195 0.375 0.200961 0.75 0.0 0.200961 0.375 0.6495195 0.200961 0.0 0.75 0.200961 -0.375 0.6495195 0.200961 -0.6495195 0.375 0.200961 -0.75 0.0 0.200961 -0.6495195 -0.375 0.200961 -0.375 -0.6495195 0.200961 0.0 -0.75 0.200961 0.375 -0.6495195 0.200961 0.6495195 -0.375 0.200961 0.336216 0.194115 0.051111 0.3882285 0.0 0.051111 0.194115 0.336216 0.051111 0.0 0.3882285 0.051111 -0.194115 0.336216 0.051111 -0.336216 0.194115 0.051111 -0.3882285 0.0 0.051111 -0.336216 -0.194115 0.051111 -0.194115 -0.336216 0.051111 0.0 -0.3882285 0.051111 0.194115 -0.336216 0.051111 0.336216 -0.194115 0.051111 0.0 0.0 0.0</float_array>
                    <technique_common>
                        <accessor count="134" source="#geometry0-position-array" stride="3">
                            <param name="X" type="float"/>
                            <param name="Y" type="float"/>
                            <param name="Z" type="float"/>
                        </accessor>
                    </technique_common>
                </source>
                <source id="geometry0-normal">
                    <float_array id="geometry0-normal-array" count="2520">-0.0954928 -0.0954928 0.9908392 -0.0954928 -0.0954928 0.9908392 -0.0954928 -0.0954928 0.9908392 1.0 0.0 0.0 1.0 0.0 0.0 -0.0349525 -0.1304458 0.9908391 -0.0349525 -0.1304458 0.9908391 -0.0349525 -0.1304458 0.9908391 1.0 0.0 0.0 1.0 0.0 0.0 0.0349525 -0.1304458 0.9908391 0.0349525 -0.1304458 0.9908391 0.0349525 -0.1304458 0.9908391 1.0 0.0 0.0 1.0 0.0 0.0 0.0954928 -0.0954928 0.9908392 0.0954928 -0.0954928 0.9908392 0.0954928 -0.0954928 0.9908392 1.0 0.0 0.0 1.0 0.0 0.0 0.1304458 -0.0349525 0.9908391 0.1304458 -0.0349525 0.9908391 0.1304458 -0.0349525 0.9908391 1.0 0.0 0.0 1.0 0.0 0.0 0.1304458 0.0349525 0.9908391 0.1304458 0.0349525 0.9908391 0.1304458 0.0349525 0.9908391 1.0 0.0 0.0 1.0 0.0 0.0 0.0954928 0.0954928 0.9908392 0.0954928 0.0954928 0.9908392 0.0954928 0.0954928 0.9908392 1.0 0.0 0.0 1.0 0.0 0.0 0.0349525 0.1304458 0.9908391 0.0349525 0.1304458 0.9908391 0.0349525 0.1304458 0.9908391 1.0 0.0 0.0 1.0 0.0 0.0 -0.0349525 0.1304458 0.9908391 -0.0349525 0.1304458 0.9908391 -0.0349525 0.1304458 0.9908391 1.0 0.0 0.0 1.0 0.0 0.0 -0.0954928 0.0954928 0.9908392 -0.0954928 0.0954928 0.9908392 -0.0954928 0.0954928 0.9908392 1.0 0.0 0.0 1.0 0.0 0.0 -0.1304458 0.0349525 0.9908391 -0.1304458 0.0349525 0.9908391 -0.1304458 0.0349525 0.9908391 1.0 0.0 0.0 1.0 0.0 0.0 1.0 0.0 0.0 1.0 0.0 0.0 -0.1304457 -0.0349525 -0.9908391 -0.1304457 -0.0349525 -0.9908391 -0.1304457 -0.0349525 -0.9908391 1.0 0.0 0.0 1.0 0.0 0.0 -0.0954928 -0.0954928 -0.9908392 -0.0954928 -0.0954928 -0.9908392 -0.0954928 -0.0954928 -0.9908392 1.0 0.0 0.0 1.0 0.0 0.0 -0.0349525 -0.1304457 -0.9908391 -0.0349525 -0.1304457 -0.9908391 -0.0349525 -0.1304457 -0.9908391 1.0 0.0 0.0 1.0 0.0 0.0 0.0349525 -0.1304457 -0.9908391 0.0349525 -0.1304457 -0.9908391 0.0349525 -0.1304457 -0.9908391 1.0 0.0 0.0 1.0 0.0 0.0 0.0954928 -0.0954928 -0.9908392 0.0954928 -0.0954928 -0.9908392 0.0954928 -0.0954928 -0.9908392 1.0 0.0 0.0 1.0 0.0 0.0 0.1304457 -0.0349525 -0.9908391 0.1304457 -0.0349525 -0.9908391 0.1304457 -0.0349525 -0.9908391 1.0 0.0 0.0 1.0 0.0 0.0 0.1304457 0.0349525 -0.9908391 0.1304457 0.0349525 -0.9908391 0.1304457 0.0349525 -0.9908391 1.0 0.0 0.0 1.0 0.0 0.0 0.0954928 0.0954928 -0.9908392 0.0954928 0.0954928 -0.9908392 0.0954928 0.0954928 -0.9908392 1.0 0.0 0.0 1.0 0.0 0.0 0.0349525 0.1304457 -0.9908391 0.0349525 0.1304457 -0.9908391 0.0349525 0.1304457 -0.9908391 1.0 0.0 0.0 1.0 0.0 0.0 -0.0349525 0.1304457 -0.9908391 -0.0349525 0.1304457 -0.9908391 -0.0349525 0.1304457 -0.9908391 1.0 0.0 0.0 1.0 0.0 0.0 -0.0954928 0.0954928 -0.9908392 -0.0954928 0.0954928 -0.9908392 -0.0954928 0.0954928 -0.9908392 1.0 0.0 0.0 1.0 0.0 0.0 -0.1304457 0.0349525 -0.9908391 -0.1304457 0.0349525 -0.9908391 -0.1304457 0.0349525 -0.9908391 -0.3806897 -0.1020046 -0.9190595 -0.3806897 -0.1020046 -0.9190595 -0.3806897 -0.1020046 -0.9190595 -0.3806893 -0.1020049 -0.9190597 -0.3806893 -0.1020049 -0.9190597 -0.3806893 -0.1020049 -0.9190597 -0.2786841 -0.2786841 -0.9190595 -0.2786841 -0.2786841 -0.9190595 -0.2786841 -0.2786841 -0.9190595 -0.2786841 -0.2786841 -0.9190595 -0.2786841 -0.2786841 -0.9190595 -0.2786841 -0.2786841 -0.9190595 -0.1020045 -0.3806893 -0.9190597 -0.1020045 -0.3806893 -0.9190597 -0.1020045 -0.3806893 -0.9190597 -0.102005 -0.3806895 -0.9190596 -0.102005 -0.3806895 -0.9190596 -0.102005 -0.3806895 -0.9190596 0.1020046 -0.3806897 -0.9190595 0.1020046 -0.3806897 -0.9190595 0.1020046 -0.3806897 -0.9190595 0.1020049 -0.3806893 -0.9190597 0.1020049 -0.3806893 -0.9190597 0.1020049 -0.3806893 -0.9190597 0.2786841 -0.2786841 -0.9190595 0.2786841 -0.2786841 -0.9190595 0.2786841 -0.2786841 -0.9190595 0.2786841 -0.2786841 -0.9190595 0.2786841 -0.2786841 -0.9190595 0.2786841 -0.2786841 -0.9190595 0.3806893 -0.1020045 -0.9190597 0.3806893 -0.1020045 -0.9190597 0.3806893 -0.1020045 -0.9190597 0.3806895 -0.102005 -0.9190596 0.3806895 -0.102005 -0.9190596 0.3806895 -0.102005 -0.9190596 0.3806897 0.1020046 -0.9190595 0.3806897 0.1020046 -0.9190595 0.3806897 0.1020046 -0.9190595 0.3806893 0.1020049 -0.9190597 0.3806893 0.1020049 -0.9190597 0.3806893 0.1020049 -0.9190597 0.2786841 0.2786841 -0.9190595 0.2786841 0.2786841 -0.9190595 0.2786841 0.2786841 -0.9190595 0.2786841 0.2786841 -0.9190595 0.2786841 0.2786841 -0.9190595 0.2786841 0.2786841 -0.9190595 0.1020045 0.3806893 -0.9190597 0.1020045 0.3806893 -0.9190597 0.1020045 0.3806893 -0.9190597 0.102005 0.3806895 -0.9190596 0.102005 0.3806895 -0.9190596 0.102005 0.3806895 -0.9190596 -0.1020046 0.3806897 -0.9190595 -0.1020046 0.3806897 -0.9190595 -0.1020046 0.3806897 -0.9190595 -0.1020049 0.3806893 -0.9190597 -0.1020049 0.3806893 -0.9190597 -0.1020049 0.3806893 -0.9190597 -0.2786841 0.2786841 -0.9190595 -0.2786841 0.2786841 -0.9190595 -0.2786841 0.2786841 -0.9190595 -0.2786841 0.2786841 -0.9190595 -0.2786841 0.2786841 -0.9190595 -0.2786841 0.2786841 -0.9190595 -0.3806893 0.1020045 -0.9190597 -0.3806893 0.1020045 -0.9190597 -0.3806893 0.1020045 -0.9190597 -0.3806895 0.102005 -0.9190596 -0.3806895 0.102005 -0.9190596 -0.3806895 0.102005 -0.9190596 -0.6008235 -0.1609894 -0.7830029 -0.6008235 -0.1609894 -0.7830029 -0.6008235 -0.1609894 -0.7830029 -0.6008213 -0.1609908 -0.7830043 -0.6008213 -0.1609908 -0.7830043 -0.6008213 -0.1609908 -0.7830043 -0.4398331 -0.4398331 -0.783003 -0.4398331 -0.4398331 -0.783003 -0.4398331 -0.4398331 -0.783003 -0.4398331 -0.4398331 -0.783003 -0.4398331 -0.4398331 -0.783003 -0.4398331 -0.4398331 -0.783003 -0.1609889 -0.6008214 -0.7830046 -0.1609889 -0.6008214 -0.7830046 -0.1609889 -0.6008214 -0.7830046 -0.1609912 -0.6008227 -0.7830032 -0.1609912 -0.6008227 -0.7830032 -0.1609912 -0.6008227 -0.7830032 0.1609894 -0.6008235 -0.7830029 0.1609894 -0.6008235 -0.7830029 0.1609894 -0.6008235 -0.7830029 0.1609908 -0.6008213 -0.7830043 0.1609908 -0.6008213 -0.7830043 0.1609908 -0.6008213 -0.7830043 0.4398331 -0.4398331 -0.783003 0.4398331 -0.4398331 -0.783003 0.4398331 -0.4398331 -0.783003 0.4398331 -0.4398331 -0.783003 0.4398331 -0.4398331 -0.783003 0.4398331 -0.4398331 -0.783003 0.6008214 -0.1609889 -0.7830046 0.6008214 -0.1609889 -0.7830046 0.6008214 -0.1609889 -0.7830046 0.6008227 -0.1609912 -0.7830032 0.6008227 -0.1609912 -0.7830032 0.6008227 -0.1609912 -0.7830032 0.6008235 0.1609894 -0.7830029 0.6008235 0.1609894 -0.7830029 0.6008235 0.1609894 -0.7830029 0.6008213 0.1609908 -0.7830043 0.6008213 0.1609908 -0.7830043 0.6008213 0.1609908 -0.7830043 0.4398331 0.4398331 -0.783003 0.4398331 0.4398331 -0.783003 0.4398331 0.4398331 -0.783003 0.4398331 0.4398331 -0.783003 0.4398331 0.4398331 -0.783003 0.4398331 0.4398331 -0.783003 0.1609889 0.6008214 -0.7830046 0.1609889 0.6008214 -0.7830046 0.1609889 0.6008214 -0.7830046 0.1609912 0.6008227 -0.7830032 0.1609912 0.6008227 -0.7830032 0.1609912 0.6008227 -0.7830032 -0.1609894 0.6008235 -0.7830029 -0.1609894 0.6008235 -0.7830029 -0.1609894 0.6008235 -0.7830029 -0.1609908 0.6008213 -0.7830043 -0.1609908 0.6008213 -0.7830043 -0.1609908 0.6008213 -0.7830043 -0.4398331 0.4398331 -0.783003 -0.4398331 0.4398331 -0.783003 -0.4398331 0.4398331 -0.783003 -0.4398331 0.4398331 -0.783003 -0.4398331 0.4398331 -0.783003 -0.4398331 0.4398331 -0.783003 -0.6008214 0.1609889 -0.7830046 -0.6008214 0.1609889 -0.7830046 -0.6008214 0.1609889 -0.7830046 -0.6008227 0.1609912 -0.7830032 -0.6008227 0.1609912 -0.7830032 -0.6008227 0.1609912 -0.7830032 -0.7760105 -0.207933 -0.5954591 -0.7760105 -0.207933 -0.5954591 -0.7760105 -0.207933 -0.5954591 -0.7760134 -0.2079312 -0.595456 -0.7760134 -0.2079312 -0.595456 -0.7760134 -0.2079312 -0.595456 -0.5680793 -0.5680793 -0.5954593 -0.5680793 -0.5680793 -0.5954593 -0.5680793 -0.5680793 -0.5954593 -0.5680793 -0.5680793 -0.5954593 -0.5680793 -0.5680793 -0.5954593 -0.5680793 -0.5680793 -0.5954593 -0.2079337 -0.776013 -0.5954557 -0.2079337 -0.776013 -0.5954557 -0.2079337 -0.776013 -0.5954557 -0.2079307 -0.7760114 -0.5954587 -0.2079307 -0.7760114 -0.5954587 -0.2079307 -0.7760114 -0.5954587 0.207933 -0.7760105 -0.5954591 0.207933 -0.7760105 -0.5954591 0.207933 -0.7760105 -0.5954591 0.2079312 -0.7760134 -0.595456 0.2079312 -0.7760134 -0.595456 0.2079312 -0.7760134 -0.595456 0.5680793 -0.5680793 -0.5954593 0.5680793 -0.5680793 -0.5954593 0.5680793 -0.5680793 -0.5954593 0.5680793 -0.5680793 -0.5954593 0.5680793 -0.5680793 -0.5954593 0.5680793 -0.5680793 -0.5954593 0.776013 -0.2079337 -0.5954557 0.776013 -0.2079337 -0.5954557 0.776013 -0.2079337 -0.5954557 0.7760114 -0.2079307 -0.5954587 0.7760114 -0.2079307 -0.5954587 0.7760114 -0.2079307 -0.5954587 0.7760105 0.207933 -0.5954591 0.7760105 0.207933 -0.5954591 0.7760105 0.207933 -0.5954591 0.7760134 0.2079312 -0.595456 0.7760134 0.2079312 -0.595456 0.7760134 0.2079312 -0.595456 0.5680793 0.5680793 -0.5954593 0.5680793 0.5680793 -0.5954593 0.5680793 0.5680793 -0.5954593 0.5680793 0.5680793 -0.5954593 0.5680793 0.5680793 -0.5954593 0.5680793 0.5680793 -0.5954593 0.2079337 0.776013 -0.5954557 0.2079337 0.776013 -0.5954557 0.2079337 0.776013 -0.5954557 0.2079307 0.7760114 -0.5954587 0.2079307 0.7760114 -0.5954587 0.2079307 0.7760114 -0.5954587 -0.207933 0.7760105 -0.5954591 -0.207933 0.7760105 -0.5954591 -0.207933 0.7760105 -0.5954591 -0.2079312 0.7760134 -0.595456 -0.2079312 0.7760134 -0.595456 -0.2079312 0.7760134 -0.595456 -0.5680793 0.5680793 -0.5954593 -0.5680793 0.5680793 -0.5954593 -0.5680793 0.5680793 -0.5954593 -0.5680793 0.5680793 -0.5954593 -0.5680793 0.5680793 -0.5954593 -0.5680793 0.5680793 -0.5954593 -0.776013 0.2079337 -0.5954557 -0.776013 0.2079337 -0.5954557 -0.776013 0.2079337 -0.5954557 -0.7760114 0.2079307 -0.5954587 -0.7760114 0.2079307 -0.5954587 -0.7760114 0.2079307 -0.5954587 -0.8968096 -0.2402984 -0.3714691 -0.8968096 -0.2402984 -0.3714691 -0.8968096 -0.2402984 -0.3714691 -0.8968078 -0.2402998 -0.3714723 -0.8968078 -0.2402998 -0.3714723 -0.8968078 -0.2402998 -0.3714723 -0.6565099 -0.6565099 -0.3714691 -0.6565099 -0.6565099 -0.3714691 -0.6565099 -0.6565099 -0.3714691 -0.65651 -0.65651 -0.3714691 -0.65651 -0.65651 -0.3714691 -0.65651 -0.65651 -0.3714691 -0.240298 -0.8968083 -0.3714724 -0.240298 -0.8968083 -0.3714724 -0.240298 -0.8968083 -0.3714724 -0.2403001 -0.896809 -0.3714692 -0.2403001 -0.896809 -0.3714692 -0.2403001 -0.896809 -0.3714692 0.2402984 -0.8968096 -0.3714691 0.2402984 -0.8968096 -0.3714691 0.2402984 -0.8968096 -0.3714691 0.2402998 -0.8968078 -0.3714723 0.2402998 -0.8968078 -0.3714723 0.2402998 -0.8968078 -0.3714723 0.6565099 -0.6565099 -0.3714691 0.6565099 -0.6565099 -0.3714691 0.6565099 -0.6565099 -0.3714691 0.65651 -0.65651 -0.3714691 0.65651 -0.65651 -0.3714691 0.65651 -0.65651 -0.3714691 0.8968083 -0.240298 -0.3714724 0.8968083 -0.240298 -0.3714724 0.8968083 -0.240298 -0.3714724 0.896809 -0.2403001 -0.3714692 0.896809 -0.2403001 -0.3714692 0.896809 -0.2403001 -0.3714692 0.8968096 0.2402984 -0.3714691 0.8968096 0.2402984 -0.3714691 0.8968096 0.2402984 -0.3714691 0.8968078 0.2402998 -0.3714723 0.8968078 0.2402998 -0.3714723 0.8968078 0.2402998 -0.3714723 0.6565099 0.6565099 -0.3714691 0.6565099 0.6565099 -0.3714691 0.6565099 0.6565099 -0.3714691 0.65651 0.65651 -0.3714691 0.65651 0.65651 -0.3714691 0.65651 0.65651 -0.3714691 0.240298 0.8968083 -0.3714724 0.240298 0.8968083 -0.3714724 0.240298 0.8968083 -0.3714724 0.2403001 0.896809 -0.3714692 0.2403001 0.896809 -0.3714692 0.2403001 0.896809 -0.3714692 -0.2402984 0.8968096 -0.3714691 -0.2402984 0.8968096 -0.3714691 -0.2402984 0.8968096 -0.3714691 -0.2402998 0.8968078 -0.3714723 -0.2402998 0.8968078 -0.3714723 -0.2402998 0.8968078 -0.3714723 -0.6565099 0.6565099 -0.3714691 -0.6565099 0.6565099 -0.3714691 -0.6565099 0.6565099 -0.3714691 -0.65651 0.65651 -0.3714691 -0.65651 0.65651 -0.3714691 -0.65651 0.65651 -0.3714691 -0.8968083 0.240298 -0.3714724 -0.8968083 0.240298 -0.3714724 -0.8968083 0.240298 -0.3714724 -0.896809 0.2403001 -0.3714692 -0.896809 0.2403001 -0.3714692 -0.896809 0.2403001 -0.3714692 -0.958209 -0.2567523 -0.1261502 -0.958209 -0.2567523 -0.1261502 -0.958209 -0.2567523 -0.1261502 -0.958209 -0.2567522 -0.1261499 -0.958209 -0.2567522 -0.1261499 -0.958209 -0.2567522 -0.1261499 -0.7014578 -0.7014578 -0.1261501 -0.7014578 -0.7014578 -0.1261501 -0.7014578 -0.7014578 -0.1261501 -0.7014578 -0.7014578 -0.1261501 -0.7014578 -0.7014578 -0.1261501 -0.7014578 -0.7014578 -0.1261501 -0.2567523 -0.958209 -0.1261499 -0.2567523 -0.958209 -0.1261499 -0.2567523 -0.958209 -0.1261499 -0.2567521 -0.958209 -0.1261502 -0.2567521 -0.958209 -0.1261502 -0.2567521 -0.958209 -0.1261502 0.2567523 -0.958209 -0.1261502 0.2567523 -0.958209 -0.1261502 0.2567523 -0.958209 -0.1261502 0.2567522 -0.958209 -0.1261499 0.2567522 -0.958209 -0.1261499 0.2567522 -0.958209 -0.1261499 0.7014578 -0.7014578 -0.1261501 0.7014578 -0.7014578 -0.1261501 0.7014578 -0.7014578 -0.1261501 0.7014578 -0.7014578 -0.1261501 0.7014578 -0.7014578 -0.1261501 0.7014578 -0.7014578 -0.1261501 0.958209 -0.2567523 -0.1261499 0.958209 -0.2567523 -0.1261499 0.958209 -0.2567523 -0.1261499 0.958209 -0.2567521 -0.1261502 0.958209 -0.2567521 -0.1261502 0.958209 -0.2567521 -0.1261502 0.958209 0.2567523 -0.1261502 0.958209 0.2567523 -0.1261502 0.958209 0.2567523 -0.1261502 0.958209 0.2567522 -0.1261499 0.958209 0.2567522 -0.1261499 0.958209 0.2567522 -0.1261499 0.7014578 0.7014578 -0.1261501 0.7014578 0.7014578 -0.1261501 0.7014578 0.7014578 -0.1261501 0.7014578 0.7014578 -0.1261501 0.7014578 0.7014578 -0.1261501 0.7014578 0.7014578 -0.1261501 0.2567523 0.958209 -0.1261499 0.2567523 0.958209 -0.1261499 0.2567523 0.958209 -0.1261499 0.2567521 0.958209 -0.1261502 0.2567521 0.958209 -0.1261502 0.2567521 0.958209 -0.1261502 -0.2567523 0.958209 -0.1261502 -0.2567523 0.958209 -0.1261502 -0.2567523 0.958209 -0.1261502 -0.2567522 0.958209 -0.1261499 -0.2567522 0.958209 -0.1261499 -0.2567522 0.958209 -0.1261499 -0.7014578 0.7014578 -0.1261501 -0.7014578 0.7014578 -0.1261501 -0.7014578 0.7014578 -0.1261501 -0.7014578 0.7014578 -0.1261501 -0.7014578 0.7014578 -0.1261501 -0.7014578 0.7014578 -0.1261501 -0.958209 0.2567523 -0.1261499 -0.958209 0.2567523 -0.1261499 -0.958209 0.2567523 -0.1261499 -0.958209 0.2567521 -0.1261502 -0.958209 0.2567521 -0.1261502 -0.958209 0.2567521 -0.1261502 -0.958209 -0.2567521 0.1261502 -0.958209 -0.2567521 0.1261502 -0.958209 -0.2567521 0.1261502 -0.958209 -0.2567523 0.1261499 -0.958209 -0.2567523 0.1261499 -0.958209 -0.2567523 0.1261499 -0.7014578 -0.7014578 0.1261501 -0.7014578 -0.7014578 0.1261501 -0.7014578 -0.7014578 0.1261501 -0.7014578 -0.7014578 0.1261501 -0.7014578 -0.7014578 0.1261501 -0.7014578 -0.7014578 0.1261501 -0.2567522 -0.958209 0.1261499 -0.2567522 -0.958209 0.1261499 -0.2567522 -0.958209 0.1261499 -0.2567523 -0.958209 0.1261502 -0.2567523 -0.958209 0.1261502 -0.2567523 -0.958209 0.1261502 0.2567521 -0.958209 0.1261502 0.2567521 -0.958209 0.1261502 0.2567521 -0.958209 0.1261502 0.2567523 -0.958209 0.1261499 0.2567523 -0.958209 0.1261499 0.2567523 -0.958209 0.1261499 0.7014578 -0.7014578 0.1261501 0.7014578 -0.7014578 0.1261501 0.7014578 -0.7014578 0.1261501 0.7014578 -0.7014578 0.1261501 0.7014578 -0.7014578 0.1261501 0.7014578 -0.7014578 0.1261501 0.958209 -0.2567522 0.1261499 0.958209 -0.2567522 0.1261499 0.958209 -0.2567522 0.1261499 0.958209 -0.2567523 0.1261502 0.958209 -0.2567523 0.1261502 0.958209 -0.2567523 0.1261502 0.958209 0.2567521 0.1261502 0.958209 0.2567521 0.1261502 0.958209 0.2567521 0.1261502 0.958209 0.2567523 0.1261499 0.958209 0.2567523 0.1261499 0.958209 0.2567523 0.1261499 0.7014578 0.7014578 0.1261501 0.7014578 0.7014578 0.1261501 0.7014578 0.7014578 0.1261501 0.7014578 0.7014578 0.1261501 0.7014578 0.7014578 0.1261501 0.7014578 0.7014578 0.1261501 0.2567522 0.958209 0.1261499 0.2567522 0.958209 0.1261499 0.2567522 0.958209 0.1261499 0.2567523 0.958209 0.1261502 0.2567523 0.958209 0.1261502 0.2567523 0.958209 0.1261502 -0.2567521 0.958209 0.1261502 -0.2567521 0.958209 0.1261502 -0.2567521 0.958209 0.1261502 -0.2567523 0.958209 0.1261499 -0.2567523 0.958209 0.1261499 -0.2567523 0.958209 0.1261499 -0.7014578 0.7014578 0.1261501 -0.7014578 0.7014578 0.1261501 -0.7014578 0.7014578 0.1261501 -0.7014578 0.7014578 0.1261501 -0.7014578 0.7014578 0.1261501 -0.7014578 0.7014578 0.1261501 -0.958209 0.2567522 0.1261499 -0.958209 0.2567522 0.1261499 -0.958209 0.2567522 0.1261499 -0.958209 0.2567523 0.1261502 -0.958209 0.2567523 0.1261502 -0.958209 0.2567523 0.1261502 -0.896809 -0.2403001 0.3714692 -0.896809 -0.2403001 0.3714692 -0.896809 -0.2403001 0.3714692 -0.8968083 -0.240298 0.3714724 -0.8968083 -0.240298 0.3714724 -0.8968083 -0.240298 0.3714724 -0.65651 -0.65651 0.3714691 -0.65651 -0.65651 0.3714691 -0.65651 -0.65651 0.3714691 -0.65651 -0.65651 0.3714691 -0.65651 -0.65651 0.3714691 -0.65651 -0.65651 0.3714691 -0.2402998 -0.8968078 0.3714722 -0.2402998 -0.8968078 0.3714722 -0.2402998 -0.8968078 0.3714722 -0.2402984 -0.8968096 0.3714691 -0.2402984 -0.8968096 0.3714691 -0.2402984 -0.8968096 0.3714691 0.2403001 -0.896809 0.3714692 0.2403001 -0.896809 0.3714692 0.2403001 -0.896809 0.3714692 0.240298 -0.8968083 0.3714724 0.240298 -0.8968083 0.3714724 0.240298 -0.8968083 0.3714724 0.65651 -0.65651 0.3714691 0.65651 -0.65651 0.3714691 0.65651 -0.65651 0.3714691 0.65651 -0.65651 0.3714691 0.65651 -0.65651 0.3714691 0.65651 -0.65651 0.3714691 0.8968078 -0.2402998 0.3714722 0.8968078 -0.2402998 0.3714722 0.8968078 -0.2402998 0.3714722 0.8968096 -0.2402984 0.3714691 0.8968096 -0.2402984 0.3714691 0.8968096 -0.2402984 0.3714691 0.896809 0.2403001 0.3714692 0.896809 0.2403001 0.3714692 0.896809 0.2403001 0.3714692 0.8968083 0.240298 0.3714724 0.8968083 0.240298 0.3714724 0.8968083 0.240298 0.3714724 0.65651 0.65651 0.3714691 0.65651 0.65651 0.3714691 0.65651 0.65651 0.3714691 0.65651 0.65651 0.3714691 0.65651 0.65651 0.3714691 0.65651 0.65651 0.3714691 0.2402998 0.8968078 0.3714722 0.2402998 0.8968078 0.3714722 0.2402998 0.8968078 0.3714722 0.2402984 0.8968096 0.3714691 0.2402984 0.8968096 0.3714691 0.2402984 0.8968096 0.3714691 -0.2403001 0.896809 0.3714692 -0.2403001 0.896809 0.3714692 -0.2403001 0.896809 0.3714692 -0.240298 0.8968083 0.3714724 -0.240298 0.8968083 0.3714724 -0.240298 0.8968083 0.3714724 -0.65651 0.65651 0.3714691 -0.65651 0.65651 0.3714691 -0.65651 0.65651 0.3714691 -0.65651 0.65651 0.3714691 -0.65651 0.65651 0.3714691 -0.65651 0.65651 0.3714691 -0.8968078 0.2402998 0.3714722 -0.8968078 0.2402998 0.3714722 -0.8968078 0.2402998 0.3714722 -0.8968096 0.2402984 0.3714691 -0.8968096 0.2402984 0.3714691 -0.8968096 0.2402984 0.3714691 -0.7760128 -0.2079311 0.5954568 -0.7760128 -0.2079311 0.5954568 -0.7760128 -0.2079311 0.5954568 -0.7760143 -0.207934 0.5954537 -0.7760143 -0.207934 0.5954537 -0.7760143 -0.207934 0.5954537 -0.5680803 -0.5680803 0.5954574 -0.5680803 -0.5680803 0.5954574 -0.5680803 -0.5680803 0.5954574 -0.5680803 -0.5680803 0.5954574 -0.5680803 -0.5680803 0.5954574 -0.5680803 -0.5680803 0.5954574 -0.2079316 -0.7760147 0.595454 -0.2079316 -0.7760147 0.595454 -0.2079316 -0.7760147 0.595454 -0.2079334 -0.7760119 0.5954571 -0.2079334 -0.7760119 0.5954571 -0.2079334 -0.7760119 0.5954571 0.2079311 -0.7760128 0.5954568 0.2079311 -0.7760128 0.5954568 0.2079311 -0.7760128 0.5954568 0.207934 -0.7760143 0.5954537 0.207934 -0.7760143 0.5954537 0.207934 -0.7760143 0.5954537 0.5680803 -0.5680803 0.5954574 0.5680803 -0.5680803 0.5954574 0.5680803 -0.5680803 0.5954574 0.5680803 -0.5680803 0.5954574 0.5680803 -0.5680803 0.5954574 0.5680803 -0.5680803 0.5954574 0.7760147 -0.2079316 0.595454 0.7760147 -0.2079316 0.595454 0.7760147 -0.2079316 0.595454 0.7760119 -0.2079334 0.5954571 0.7760119 -0.2079334 0.5954571 0.7760119 -0.2079334 0.5954571 0.7760128 0.2079311 0.5954568 0.7760128 0.2079311 0.5954568 0.7760128 0.2079311 0.5954568 0.7760143 0.207934 0.5954537 0.7760143 0.207934 0.5954537 0.7760143 0.207934 0.5954537 0.5680803 0.5680803 0.5954574 0.5680803 0.5680803 0.5954574 0.5680803 0.5680803 0.5954574 0.5680803 0.5680803 0.5954574 0.5680803 0.5680803 0.5954574 0.5680803 0.5680803 0.5954574 0.2079316 0.7760147 0.595454 0.2079316 0.7760147 0.595454 0.2079316 0.7760147 0.595454 0.2079334 0.7760119 0.5954571 0.2079334 0.7760119 0.5954571 0.2079334 0.7760119 0.5954571 -0.2079311 0.7760128 0.5954568 -0.2079311 0.7760128 0.5954568 -0.2079311 0.7760128 0.5954568 -0.207934 0.7760143 0.5954537 -0.207934 0.7760143 0.5954537 -0.207934 0.7760143 0.5954537 -0.5680803 0.5680803 0.5954574 -0.5680803 0.5680803 0.5954574 -0.5680803 0.5680803 0.5954574 -0.5680803 0.5680803 0.5954574 -0.5680803 0.5680803 0.5954574 -0.5680803 0.5680803 0.5954574 -0.7760147 0.2079316 0.595454 -0.7760147 0.2079316 0.595454 -0.7760147 0.2079316 0.595454 -0.7760119 0.2079334 0.5954571 -0.7760119 0.2079334 0.5954571 -0.7760119 0.2079334 0.5954571 -0.6008227 -0.1609912 0.7830032 -0.6008227 -0.1609912 0.7830032 -0.6008227 -0.1609912 0.7830032 -0.6008214 -0.1609889 0.7830046 -0.6008214 -0.1609889 0.7830046 -0.6008214 -0.1609889 0.7830046 -0.4398331 -0.4398331 0.7830031 -0.4398331 -0.4398331 0.7830031 -0.4398331 -0.4398331 0.7830031 -0.439833 -0.439833 0.7830031 -0.439833 -0.439833 0.7830031 -0.439833 -0.439833 0.7830031 -0.1609908 -0.6008212 0.7830043 -0.1609908 -0.6008212 0.7830043 -0.1609908 -0.6008212 0.7830043 -0.1609894 -0.6008235 0.7830029 -0.1609894 -0.6008235 0.7830029 -0.1609894 -0.6008235 0.7830029 0.1609912 -0.6008227 0.7830032 0.1609912 -0.6008227 0.7830032 0.1609912 -0.6008227 0.7830032 0.1609889 -0.6008214 0.7830046 0.1609889 -0.6008214 0.7830046 0.1609889 -0.6008214 0.7830046 0.4398331 -0.4398331 0.7830031 0.4398331 -0.4398331 0.7830031 0.4398331 -0.4398331 0.7830031 0.439833 -0.439833 0.7830031 0.439833 -0.439833 0.7830031 0.439833 -0.439833 0.7830031 0.6008212 -0.1609908 0.7830043 0.6008212 -0.1609908 0.7830043 0.6008212 -0.1609908 0.7830043 0.6008235 -0.1609894 0.7830029 0.6008235 -0.1609894 0.7830029 0.6008235 -0.1609894 0.7830029 0.6008227 0.1609912 0.7830032 0.6008227 0.1609912 0.7830032 0.6008227 0.1609912 0.7830032 0.6008214 0.1609889 0.7830046 0.6008214 0.1609889 0.7830046 0.6008214 0.1609889 0.7830046 0.4398331 0.4398331 0.7830031 0.4398331 0.4398331 0.7830031 0.4398331 0.4398331 0.7830031 0.439833 0.439833 0.7830031 0.439833 0.439833 0.7830031 0.439833 0.439833 0.7830031 0.1609908 0.6008212 0.7830043 0.1609908 0.6008212 0.7830043 0.1609908 0.6008212 0.7830043 0.1609894 0.6008235 0.7830029 0.1609894 0.6008235 0.7830029 0.1609894 0.6008235 0.7830029 -0.1609912 0.6008227 0.7830032 -0.1609912 0.6008227 0.7830032 -0.1609912 0.6008227 0.7830032 -0.1609889 0.6008214 0.7830046 -0.1609889 0.6008214 0.7830046 -0.1609889 0.6008214 0.7830046 -0.4398331 0.4398331 0.7830031 -0.4398331 0.4398331 0.7830031 -0.4398331 0.4398331 0.7830031 -0.439833 0.439833 0.7830031 -0.439833 0.439833 0.7830031 -0.439833 0.439833 0.7830031 -0.6008212 0.1609908 0.7830043 -0.6008212 0.1609908 0.7830043 -0.6008212 0.1609908 0.7830043 -0.6008235 0.1609894 0.7830029 -0.6008235 0.1609894 0.7830029 -0.6008235 0.1609894 0.7830029 -0.3806861 -0.1020041 0.9190611 -0.3806861 -0.1020041 0.9190611 -0.3806861 -0.1020041 0.9190611 -0.380686 -0.1020036 0.9190612 -0.380686 -0.1020036 0.9190612 -0.380686 -0.1020036 0.9190612 -0.2786817 -0.2786817 0.9190609 -0.2786817 -0.2786817 0.9190609 -0.2786817 -0.2786817 0.9190609 -0.2786817 -0.2786817 0.9190609 -0.2786817 -0.2786817 0.9190609 -0.2786817 -0.2786817 0.9190609 -0.102004 -0.3806859 0.9190612 -0.102004 -0.3806859 0.9190612 -0.102004 -0.3806859 0.9190612 -0.1020037 -0.3806863 0.919061 -0.1020037 -0.3806863 0.919061 -0.1020037 -0.3806863 0.919061 0.1020041 -0.3806861 0.9190611 0.1020041 -0.3806861 0.9190611 0.1020041 -0.3806861 0.9190611 0.1020036 -0.380686 0.9190612 0.1020036 -0.380686 0.9190612 0.1020036 -0.380686 0.9190612 0.2786817 -0.2786817 0.9190609 0.2786817 -0.2786817 0.9190609 0.2786817 -0.2786817 0.9190609 0.2786817 -0.2786817 0.9190609 0.2786817 -0.2786817 0.9190609 0.2786817 -0.2786817 0.9190609 0.3806859 -0.102004 0.9190612 0.3806859 -0.102004 0.9190612 0.3806859 -0.102004 0.9190612 0.3806863 -0.1020037 0.919061 0.3806863 -0.1020037 0.919061 0.3806863 -0.1020037 0.919061 0.3806861 0.1020041 0.9190611 0.3806861 0.1020041 0.9190611 0.3806861 0.1020041 0.9190611 0.380686 0.1020036 0.9190612 0.380686 0.1020036 0.9190612 0.380686 0.1020036 0.9190612 0.2786817 0.2786817 0.9190609 0.2786817 0.2786817 0.9190609 0.2786817 0.2786817 0.9190609 0.2786817 0.2786817 0.9190609 0.2786817 0.2786817 0.9190609 0.2786817 0.2786817 0.9190609 0.102004 0.3806859 0.9190612 0.102004 0.3806859 0.9190612 0.102004 0.3806859 0.9190612 0.1020037 0.3806863 0.919061 0.1020037 0.3806863 0.919061 0.1020037 0.3806863 0.919061 -0.1020041 0.3806861 0.9190611 -0.1020041 0.3806861 0.9190611 -0.1020041 0.3806861 0.9190611 -0.1020036 0.380686 0.9190612 -0.1020036 0.380686 0.9190612 -0.1020036 0.380686 0.9190612 -0.2786817 0.2786817 0.9190609 -0.2786817 0.2786817 0.9190609 -0.2786817 0.2786817 0.9190609 -0.2786817 0.2786817 0.9190609 -0.2786817 0.2786817 0.9190609 -0.2786817 0.2786817 0.9190609 -0.3806859 0.102004 0.9190612 -0.3806859 0.102004 0.9190612 -0.3806859 0.102004 0.9190612 -0.3806863 0.1020037 0.919061 -0.3806863 0.1020037 0.919061 -0.3806863 0.1020037 0.919061 -0.1304458 -0.0349525 0.9908391 -0.1304458 -0.0349525 0.9908391 -0.1304458 -0.0349525 0.9908391 1.0 0.0 0.0 1.0 0.0 0.0</float_array>
                    <technique_common>
                        <accessor count="840" source="#geometry0-normal-array" stride="3">
                            <param name="X" type="float"/>
                            <param name="Y" type="float"/>
                            <param name="Z" type="float"/>
                        </accessor>
                    </technique_common>
                </source>
                <vertices id="geometry0-vertex">
                    <input semantic="POSITION" source="#geometry0-position"/>
                </vertices>
                <triangles count="288" material="default_ai_0.2_sh_0.2_tr_0.0_dc_r_0.8_g_0.8_b_0.8_sc_r_1.0_g_1.0_b_1.0_ec_r_0.0_g_0.0_b_0_tri">
                    <input offset="0" semantic="VERTEX" source="#geometry0-vertex"/>
                    <input offset="1" semantic="NORMAL" source="#geometry0-normal"/>
                    <p>121 0 123 1 133 2 121 3 133 4 133 4 123 5 124 6 133 7 123 8 133 9 133 9 124 10 125 11 133 12 124 13 133 14 133 14 125 15 126 16 133 17 125 18 133 19 133 19 126 20 127 21 133 22 126 23 133 24 133 24 127 25 128 26 133 27 127 28 133 29 133 29 128 30 129 31 133 32 128 33 133 34 133 34 129 35 130 36 133 37 129 38 133 39 133 39 130 40 131 41 133 42 130 43 133 44 133 44 131 45 132 46 133 47 131 48 133 49 133 49 132 50 122 51 133 52 132 53 133 54 133 54 0 55 0 55 1 56 0 57 1 58 2 59 0 60 0 60 3 61 0 62 3 63 1 64 0 65 0 65 4 66 0 67 4 68 3 69 0 70 0 70 5 71 0 72 5 73 4 74 0 75 0 75 6 76 0 77 6 78 5 79 0 80 0 80 7 81 0 82 7 83 6 84 0 85 0 85 8 86 0 87 8 88 7 89 0 90 0 90 9 91 0 92 9 93 8 94 0 95 0 95 10 96 0 97 10 98 9 99 0 100 0 100 11 101 0 102 11 103 10 104 0 105 0 105 12 106 0 107 12 108 11 109 0 110 0 110 2 111 0 112 2 113 12 114 2 115 1 116 13 117 2 118 13 119 14 120 1 121 3 122 15 123 1 124 15 125 13 126 3 127 4 128 16 129 3 130 16 131 15 132 4 133 5 134 17 135 4 136 17 137 16 138 5 139 6 140 18 141 5 142 18 143 17 144 6 145 7 146 19 147 6 148 19 149 18 150 7 151 8 152 20 153 7 154 20 155 19 156 8 157 9 158 21 159 8 160 21 161 20 162 9 163 10 164 22 165 9 166 22 167 21 168 10 169 11 170 23 171 10 172 23 173 22 174 11 175 12 176 24 177 11 178 24 179 23 180 12 181 2 182 14 183 12 184 14 185 24 186 14 187 13 188 25 189 14 190 25 191 26 192 13 193 15 194 27 195 13 196 27 197 25 198 15 199 16 200 28 201 15 202 28 203 27 204 16 205 17 206 29 207 16 208 29 209 28 210 17 211 18 212 30 213 17 214 30 215 29 216 18 217 19 218 31 219 18 220 31 221 30 222 19 223 20 224 32 225 19 226 32 227 31 228 20 229 21 230 33 231 20 232 33 233 32 234 21 235 22 236 34 237 21 238 34 239 33 240 22 241 23 242 35 243 22 244 35 245 34 246 23 247 24 248 36 249 23 250 36 251 35 252 24 253 14 254 26 255 24 256 26 257 36 258 26 259 25 260 37 261 26 262 37 263 38 264 25 265 27 266 39 267 25 268 39 269 37 270 27 271 28 272 40 273 27 274 40 275 39 276 28 277 29 278 41 279 28 280 41 281 40 282 29 283 30 284 42 285 29 286 42 287 41 288 30 289 31 290 43 291 30 292 43 293 42 294 31 295 32 296 44 297 31 298 44 299 43 300 32 301 33 302 45 303 32 304 45 305 44 306 33 307 34 308 46 309 33 310 46 311 45 312 34 313 35 314 47 315 34 316 47 317 46 318 35 319 36 320 48 321 35 322 48 323 47 324 36 325 26 326 38 327 36 328 38 329 48 330 38 331 37 332 49 333 38 334 49 335 50 336 37 337 39 338 51 339 37 340 51 341 49 342 39 343 40 344 52 345 39 346 52 347 51 348 40 349 41 350 53 351 40 352 53 353 52 354 41 355 42 356 54 357 41 358 54 359 53 360 42 361 43 362 55 363 42 364 55 365 54 366 43 367 44 368 56 369 43 370 56 371 55 372 44 373 45 374 57 375 44 376 57 377 56 378 45 379 46 380 58 381 45 382 58 383 57 384 46 385 47 386 59 387 46 388 59 389 58 390 47 391 48 392 60 393 47 394 60 395 59 396 48 397 38 398 50 399 48 400 50 401 60 402 50 403 49 404 61 405 50 406 61 407 62 408 49 409 51 410 63 411 49 412 63 413 61 414 51 415 52 416 64 417 51 418 64 419 63 420 52 421 53 422 65 423 52 424 65 425 64 426 53 427 54 428 66 429 53 430 66 431 65 432 54 433 55 434 67 435 54 436 67 437 66 438 55 439 56 440 68 441 55 442 68 443 67 444 56 445 57 446 69 447 56 448 69 449 68 450 57 451 58 452 70 453 57 454 70 455 69 456 58 457 59 458 71 459 58 460 71 461 70 462 59 463 60 464 72 465 59 466 72 467 71 468 60 469 50 470 62 471 60 472 62 473 72 474 62 475 61 476 73 477 62 478 73 479 74 480 61 481 63 482 75 483 61 484 75 485 73 486 63 487 64 488 76 489 63 490 76 491 75 492 64 493 65 494 77 495 64 496 77 497 76 498 65 499 66 500 78 501 65 502 78 503 77 504 66 505 67 506 79 507 66 508 79 509 78 510 67 511 68 512 80 513 67 514 80 515 79 516 68 517 69 518 81 519 68 520 81 521 80 522 69 523 70 524 82 525 69 526 82 527 81 528 70 529 71 530 83 531 70 532 83 533 82 534 71 535 72 536 84 537 71 538 84 539 83 540 72 541 62 542 74 543 72 544 74 545 84 546 74 547 73 548 85 549 74 550 85 551 86 552 73 553 75 554 87 555 73 556 87 557 85 558 75 559 76 560 88 561 75 562 88 563 87 564 76 565 77 566 89 567 76 568 89 569 88 570 77 571 78 572 90 573 77 574 90 575 89 576 78 577 79 578 91 579 78 580 91 581 90 582 79 583 80 584 92 585 79 586 92 587 91 588 80 589 81 590 93 591 80 592 93 593 92 594 81 595 82 596 94 597 81 598 94 599 93 600 82 601 83 602 95 603 82 604 95 605 94 606 83 607 84 608 96 609 83 610 96 611 95 612 84 613 74 614 86 615 84 616 86 617 96 618 86 619 85 620 97 621 86 622 97 623 98 624 85 625 87 626 99 627 85 628 99 629 97 630 87 631 88 632 100 633 87 634 100 635 99 636 88 637 89 638 101 639 88 640 101 641 100 642 89 643 90 644 102 645 89 646 102 647 101 648 90 649 91 650 103 651 90 652 103 653 102 654 91 655 92 656 104 657 91 658 104 659 103 660 92 661 93 662 105 663 92 664 105 665 104 666 93 667 94 668 106 669 93 670 106 671 105 672 94 673 95 674 107 675 94 676 107 677 106 678 95 679 96 680 108 681 95 682 108 683 107 684 96 685 86 686 98 687 96 688 98 689 108 690 98 691 97 692 109 693 98 694 109 695 110 696 97 697 99 698 111 699 97 700 111 701 109 702 99 703 100 704 112 705 99 706 112 707 111 708 100 709 101 710 113 711 100 712 113 713 112 714 101 715 102 716 114 717 101 718 114 719 113 720 102 721 103 722 115 723 102 724 115 725 114 726 103 727 104 728 116 729 103 730 116 731 115 732 104 733 105 734 117 735 104 736 117 737 116 738 105 739 106 740 118 741 105 742 118 743 117 744 106 745 107 746 119 747 106 748 119 749 118 750 107 751 108 752 120 753 107 754 120 755 119 756 108 757 98 758 110 759 108 760 110 761 120 762 110 763 109 764 121 765 110 766 121 767 122 768 109 769 111 770 123 771 109 772 123 773 121 774 111 775 112 776 124 777 111 778 124 779 123 780 112 781 113 782 125 783 112 784 125 785 124 786 113 787 114 788 126 789 113 790 126 791 125 792 114 793 115 794 127 795 114 796 127 797 126 798 115 799 116 800 128 801 115 802 128 803 127 804 116 805 117 806 129 807 116 808 129 809 128 810 117 811 118 812 130 813 117 814 130 815 129 816 118 817 119 818 131 819 118 820 131 821 130 822 119 823 120 824 132 825 119 826 132 827 131 828 120 829 110 830 122 831 120 832 122 833 132 834 122 835 121 836 133 837 122 838 133 839 133 839</p>
                </triangles>
            </mesh>
        </geometry>
    </library_geometries>
    <library_visual_scenes>
        <visual_scene id="Building_273_CROWN1">
            <node>
                <instance_geometry url="#geometry0">
                    <bind_material>
                        <technique_common>
                            <instance_material symbol="default_ai_0.2_sh_0.2_tr_0.0_dc_r_0.8_g_0.8_b_0.8_sc_r_1.0_g_1.0_b_1.0_ec_r_0.0_g_0.0_b_0_tri" target="#default_ai_0.2_sh_0.2_tr_0.0_dc_r_0.8_g_0.8_b_0.8_sc_r_1.0_g_1.0_b_1.0_ec_r_0.0_g_0.0_b_0_mat"/>
                        </technique_common>
                    </bind_material>
                </instance_geometry>
            </node>
        </visual_scene>
    </library_visual_scenes>
    <scene>
        <instance_visual_scene url="#Building_273_CROWN1"/>
    </scene>
</COLLADA>
