<?xml version="1.0" encoding="UTF-8" standalone="yes"?>
<COLLADA xmlns="http://www.collada.org/2005/11/COLLADASchema" version="1.4.1">
    <asset>
        <contributor>
            <authoring_tool>3D City Database Importer/Exporter, version 5.5.3; Chair of Geoinformatics, Technical University of Munich</authoring_tool>
        </contributor>
        <created>2026-09-25T14:45:22.813</created>
        <modified>2026-09-25T14:45:22.813</modified>
        <unit meter="1.0" name="meters"/>
        <up_axis>Z_UP</up_axis>
    </asset>
    <library_materials>
        <material id="default_ai_0.2_sh_0.2_tr_0.0_dc_r_0.8_g_0.8_b_0.8_sc_r_1.0_g_1.0_b_1.0_ec_r_0.0_g_0.0_b_0_mat">
            <instance_effect url="#default_ai_0.2_sh_0.2_tr_0.0_dc_r_0.8_g_0.8_b_0.8_sc_r_1.0_g_1.0_b_1.0_ec_r_0.0_g_0.0_b_0_eff"/>
        </material>
    </library_materials>
    <library_effects>
        <effect id="default_ai_0.2_sh_0.2_tr_0.0_dc_r_0.8_g_0.8_b_0.8_sc_r_1.0_g_1.0_b_1.0_ec_r_0.0_g_0.0_b_0_eff">
            <profile_COMMON>
                <technique sid="COMMON">
                    <lambert>
                        <emission>
                            <color>0.0 0.0 0.0 1.0</color>
                        </emission>
                        <diffuse>
                            <color>0.8 0.8 0.8 1.0</color>
                        </diffuse>
                        <reflective>
                            <color>1.0 1.0 1.0 1.0</color>
                        </reflective>
                        <reflectivity>
                            <float>0.2</float>
                        </reflectivity>
                        <transparent opaque="A_ONE">
                            <color>1.0 1.0 1.0 1.0</color>
                        </transparent>
                        <transparency>
                            <float>1.0</float>
                        </transparency>
                    </lambert>
                </technique>
                <extra>
                    <technique profile="GOOGLEEARTH">
                        <double_sided>0</double_sided>
                    </technique>
                </extra>
            </profile_COMMON>
        </effect>
    </library_effects>
    <library_geometries>
        <geometry id="geometry0">
            <mesh>
                <source id="geometry0-position">
                    <float_array id="geometry0-position-array" count="402">0.0 0.0 1.1 0.1232792 0.0711755 1.0812593 0.1423504 0.0 1.0812593 0.0711755 0.1232792 1.0812593 0.0 0.1423505 1.0812593 -0.0711755 0.1232792 1.0812593 -0.1232792 0.0711755 1.0812593 -0.1423504 0.0 1.0812593 -0.1232792 -0.0711755 1.0812593 -0.0711755 -0.1232792 1.0812593 0.0 -0.1423505 1.0812593 0.0711755 -0.1232792 1.0812593 0.1232792 -0.0711755 1.0812593 0.2381571 0.1375 1.0263138 0.275 0.0 1.0263138 0.1375 0.2381572 1.0263138 0.0 0.275 1.0263138 -0.1375 0.2381572 1.0263138 -0.2381571 0.1375 1.0263138 -0.275 0.0 1.0263138 -0.2381571 -0.1375 1.0263138 -0.1375 -0.2381572 1.0263138 0.0 -0.275 1.0263138 0.1375 -0.2381572 1.0263138 0.2381571 -0.1375 1.0263138 0.3368046 0.1944542 0.9389083 0.3889088 0.0 0.9389083 0.1944541 0.3368046 0.9389083 0.0 0.3889089 0.9389083 -0.1944541 0.3368046 0.9389083 -0.3368046 0.1944542 0.9389083 -0.3889088 0.0 0.9389083 -0.3368046 -0.1944542 0.9389083 -0.1944541 -0.3368046 0.9389083 0.0 -0.3889089 0.9389083 0.1944541 -0.3368046 0.9389083 0.3368046 -0.1944542 0.9389083 0.4125 0.2381572 0.825 0.4763138 0.0 0.825 0.2381571 0.4125 0.825 0.0 0.4763138 0.825 -0.2381571 0.4125 0.825 -0.4125 0.2381572 0.825 -0.4763138 0.0 0.825 -0.4125 -0.2381572 0.825 -0.2381571 -0.4125 0.825 0.0 -0.4763138 0.825 0.2381571 -0.4125 0.825 0.4125 -0.2381572 0.825 0.4600838 0.2656297 0.6923505 0.5312593 0.0 0.6923505 0.2656296 0.4600838 0.6923505 0.0 0.5312593 0.6923505 -0.2656296 0.4600838 0.6923505 -0.4600838 0.2656297 0.6923505 -0.5312593 0.0 0.6923505 -0.4600838 -0.2656297 0.6923505 -0.2656296 -0.4600838 0.6923505 0.0 -0.5312593 0.6923505 0.2656296 -0.4600838 0.6923505 0.4600838 -0.2656297 0.6923505 0.4763138 0.275 0.55 0.55 0.0 0.55 0.275 0.4763138 0.55 0.0 0.55 0.55 -0.275 0.4763138 0.55 -0.4763138 0.275 0.55 -0.55 0.0 0.55 -0.4763138 -0.275 0.55 -0.275 -0.4763138 0.55 0.0 -0.55 0.55 0.275 -0.4763138 0.55 0.4763138 -0.275 0.55 0.4600838 0.2656297 0.4076496 0.5312593 0.0 0.4076496 0.2656296 0.4600838 0.4076496 0.0 0.5312593 0.4076496 -0.2656296 0.4600838 0.4076496 -0.4600838 0.2656297 0.4076496 -0.5312593 0.0 0.4076496 -0.4600838 -0.2656297 0.4076496 -0.2656296 -0.4600838 0.4076496 0.0 -0.5312593 0.4076496 0.2656296 -0.4600838 0.4076496 0.4600838 -0.2656297 0.4076496 0.4125 0.2381572 0.275 0.4763138 0.0 0.275 0.2381571 0.4125 0.275 0.0 0.4763138 0.275 -0.2381571 0.4125 0.275 -0.4125 0.2381572 0.275 -0.4763138 0.0 0.275 -0.4125 -0.2381572 0.275 -0.2381571 -0.4125 0.275 0.0 -0.4763138 0.275 0.2381571 -0.4125 0.275 0.4125 -0.2381572 0.275 0.3368046 0.1944542 0.1610911 0.3889088 0.0 0.1610911 0.1944541 0.3368046 0.1610911 0.0 0.3889089 0.1610911 -0.1944541 0.3368046 0.1610911 -0.3368046 0.1944542 0.1610911 -0.3889088 0.0 0.1610911 -0.3368046 -0.1944542 0.1610911 -0.1944541 -0.3368046 0.1610911 0.0 -0.3889089 0.1610911 0.1944541 -0.3368046 0.1610911 0.3368046 -0.1944542 0.1610911 0.2381571 0.1375 0.0736857 0.275 0.0 0.0736857 0.1375 0.2381572 0.0736857 0.0 0.275 0.0736857 -0.1375 0.2381572 0.0736857 -0.2381571 0.1375 0.0736857 -0.275 0.0 0.0736857 -0.2381571 -0.1375 0.0736857 -0.1375 -0.2381572 0.0736857 0.0 -0.275 0.0736857 0.1375 -0.2381572 0.0736857 0.2381571 -0.1375 0.0736857 0.1232792 0.0711755 0.0187407 0.1423504 0.0 0.0187407 0.0711755 0.1232792 0.0187407 0.0 0.1423505 0.0187407 -0.0711755 0.1232792 0.0187407 -0.1232792 0.0711755 0.0187407 -0.1423504 0.0 0.0187407 -0.1232792 -0.0711755 0.0187407 -0.0711755 -0.1232792 0.0187407 0.0 -0.1423505 0.0187407 0.0711755 -0.1232792 0.0187407 0.1232792 -0.0711755 0.0187407 0.0 0.0 0.0</float_array>
                    <technique_common>
                        <accessor count="134" source="#geometry0-position-array" stride="3">
                            <param name="X" type="float"/>
                            <param name="Y" type="float"/>
                            <param name="Z" type="float"/>
                        </accessor>
                    </technique_common>
                </source>
                <source id="geometry0-normal">
                    <float_array id="geometry0-normal-array" count="2520">-0.7014578 -0.7014578 -0.1261501 -0.7014578 -0.7014578 -0.1261501 -0.7014578 -0.7014578 -0.1261501 -0.7014578 -0.7014578 -0.12615 -0.7014578 -0.7014578 -0.12615 -0.7014578 -0.7014578 -0.12615 -0.2567522 -0.958209 -0.1261501 -0.2567522 -0.958209 -0.1261501 -0.2567522 -0.958209 -0.1261501 -0.2567522 -0.958209 -0.1261501 -0.2567522 -0.958209 -0.1261501 -0.2567522 -0.958209 -0.1261501 0.2567522 -0.958209 -0.1261501 0.2567522 -0.958209 -0.1261501 0.2567522 -0.958209 -0.1261501 0.2567522 -0.958209 -0.1261501 0.2567522 -0.958209 -0.1261501 0.2567522 -0.958209 -0.1261501 0.7014578 -0.7014578 -0.1261501 0.7014578 -0.7014578 -0.1261501 0.7014578 -0.7014578 -0.1261501 0.7014578 -0.7014578 -0.12615 0.7014578 -0.7014578 -0.12615 0.7014578 -0.7014578 -0.12615 0.958209 -0.2567522 -0.1261501 0.958209 -0.2567522 -0.1261501 0.958209 -0.2567522 -0.1261501 0.958209 -0.2567522 -0.1261501 0.958209 -0.2567522 -0.1261501 0.958209 -0.2567522 -0.1261501 0.958209 0.2567522 -0.1261501 0.958209 0.2567522 -0.1261501 0.958209 0.2567522 -0.1261501 0.958209 0.2567522 -0.1261501 0.958209 0.2567522 -0.1261501 0.958209 0.2567522 -0.1261501 0.7014578 0.7014578 -0.1261501 0.7014578 0.7014578 -0.1261501 0.7014578 0.7014578 -0.1261501 0.7014578 0.7014578 -0.12615 0.7014578 0.7014578 -0.12615 0.7014578 0.7014578 -0.12615 0.2567522 0.958209 -0.1261501 0.2567522 0.958209 -0.1261501 0.2567522 0.958209 -0.1261501 0.2567522 0.958209 -0.1261501 0.2567522 0.958209 -0.1261501 0.2567522 0.958209 -0.1261501 -0.2567522 0.958209 -0.1261501 -0.2567522 0.958209 -0.1261501 -0.2567522 0.958209 -0.1261501 -0.2567522 0.958209 -0.1261501 -0.2567522 0.958209 -0.1261501 -0.2567522 0.958209 -0.1261501 -0.7014578 0.7014578 -0.1261501 -0.7014578 0.7014578 -0.1261501 -0.7014578 0.7014578 -0.1261501 -0.7014578 0.7014578 -0.12615 -0.7014578 0.7014578 -0.12615 -0.7014578 0.7014578 -0.12615 -0.958209 0.2567522 -0.1261501 -0.958209 0.2567522 -0.1261501 -0.958209 0.2567522 -0.1261501 -0.958209 0.2567522 -0.1261501 -0.958209 0.2567522 -0.1261501 -0.958209 0.2567522 -0.1261501 -0.958209 -0.2567522 0.1261501 -0.958209 -0.2567522 0.1261501 -0.958209 -0.2567522 0.1261501 -0.958209 -0.2567522 0.12615 -0.958209 -0.2567522 0.12615 -0.958209 -0.2567522 0.12615 -0.7014578 -0.7014578 0.1261501 -0.7014578 -0.7014578 0.1261501 -0.7014578 -0.7014578 0.1261501 -0.7014578 -0.7014578 0.1261501 -0.7014578 -0.7014578 0.1261501 -0.7014578 -0.7014578 0.1261501 -0.2567522 -0.958209 0.1261501 -0.2567522 -0.958209 0.1261501 -0.2567522 -0.958209 0.1261501 -0.2567522 -0.958209 0.12615 -0.2567522 -0.958209 0.12615 -0.2567522 -0.958209 0.12615 0.2567522 -0.958209 0.1261501 0.2567522 -0.958209 0.1261501 0.2567522 -0.958209 0.1261501 0.2567522 -0.958209 0.12615 0.2567522 -0.958209 0.12615 0.2567522 -0.958209 0.12615 0.7014578 -0.7014578 0.1261501 0.7014578 -0.7014578 0.1261501 0.7014578 -0.7014578 0.1261501 0.7014578 -0.7014578 0.1261501 0.7014578 -0.7014578 0.1261501 0.7014578 -0.7014578 0.1261501 0.958209 -0.2567522 0.1261501 0.958209 -0.2567522 0.1261501 0.958209 -0.2567522 0.1261501 0.958209 -0.2567522 0.12615 0.958209 -0.2567522 0.12615 0.958209 -0.2567522 0.12615 0.958209 0.2567522 0.1261501 0.958209 0.2567522 0.1261501 0.958209 0.2567522 0.1261501 0.958209 0.2567522 0.12615 0.958209 0.2567522 0.12615 0.958209 0.2567522 0.12615 0.7014578 0.7014578 0.1261501 0.7014578 0.7014578 0.1261501 0.7014578 0.7014578 0.1261501 0.7014578 0.7014578 0.1261501 0.7014578 0.7014578 0.1261501 0.7014578 0.7014578 0.1261501 0.2567522 0.958209 0.1261501 0.2567522 0.958209 0.1261501 0.2567522 0.958209 0.1261501 0.2567522 0.958209 0.12615 0.2567522 0.958209 0.12615 0.2567522 0.958209 0.12615 -0.2567522 0.958209 0.1261501 -0.2567522 0.958209 0.1261501 -0.2567522 0.958209 0.1261501 -0.2567522 0.958209 0.12615 -0.2567522 0.958209 0.12615 -0.2567522 0.958209 0.12615 -0.7014578 0.7014578 0.1261501 -0.7014578 0.7014578 0.1261501 -0.7014578 0.7014578 0.1261501 -0.7014578 0.7014578 0.1261501 -0.7014578 0.7014578 0.1261501 -0.7014578 0.7014578 0.1261501 -0.958209 0.2567522 0.1261501 -0.958209 0.2567522 0.1261501 -0.958209 0.2567522 0.1261501 -0.958209 0.2567522 0.12615 -0.958209 0.2567522 0.12615 -0.958209 0.2567522 0.12615 -0.896809 -0.2403 0.3714694 -0.896809 -0.2403 0.3714694 -0.896809 -0.2403 0.3714694 -0.8968083 -0.2402981 0.3714724 -0.8968083 -0.2402981 0.3714724 -0.8968083 -0.2402981 0.3714724 -0.6565099 -0.6565099 0.3714692 -0.6565099 -0.6565099 0.3714692 -0.6565099 -0.6565099 0.3714692 -0.6565099 -0.6565099 0.3714691 -0.6565099 -0.6565099 0.3714691 -0.6565099 -0.6565099 0.3714691 -0.2402997 -0.8968079 0.3714722 -0.2402997 -0.8968079 0.3714722 -0.2402997 -0.8968079 0.3714722 -0.2402984 -0.8968095 0.3714692 -0.2402984 -0.8968095 0.3714692 -0.2402984 -0.8968095 0.3714692 0.2403 -0.896809 0.3714694 0.2403 -0.896809 0.3714694 0.2403 -0.896809 0.3714694 0.2402981 -0.8968083 0.3714724 0.2402981 -0.8968083 0.3714724 0.2402981 -0.8968083 0.3714724 0.6565099 -0.6565099 0.3714692 0.6565099 -0.6565099 0.3714692 0.6565099 -0.6565099 0.3714692 0.6565099 -0.6565099 0.3714691 0.6565099 -0.6565099 0.3714691 0.6565099 -0.6565099 0.3714691 0.8968079 -0.2402997 0.3714722 0.8968079 -0.2402997 0.3714722 0.8968079 -0.2402997 0.3714722 0.8968095 -0.2402984 0.3714692 0.8968095 -0.2402984 0.3714692 0.8968095 -0.2402984 0.3714692 0.896809 0.2403 0.3714694 0.896809 0.2403 0.3714694 0.896809 0.2403 0.3714694 0.8968083 0.2402981 0.3714724 0.8968083 0.2402981 0.3714724 0.8968083 0.2402981 0.3714724 0.6565099 0.6565099 0.3714692 0.6565099 0.6565099 0.3714692 0.6565099 0.6565099 0.3714692 0.6565099 0.6565099 0.3714691 0.6565099 0.6565099 0.3714691 0.6565099 0.6565099 0.3714691 0.2402997 0.8968079 0.3714722 0.2402997 0.8968079 0.3714722 0.2402997 0.8968079 0.3714722 0.2402984 0.8968095 0.3714692 0.2402984 0.8968095 0.3714692 0.2402984 0.8968095 0.3714692 -0.2403 0.896809 0.3714694 -0.2403 0.896809 0.3714694 -0.2403 0.896809 0.3714694 -0.2402981 0.8968083 0.3714724 -0.2402981 0.8968083 0.3714724 -0.2402981 0.8968083 0.3714724 -0.6565099 0.6565099 0.3714692 -0.6565099 0.6565099 0.3714692 -0.6565099 0.6565099 0.3714692 -0.6565099 0.6565099 0.3714691 -0.6565099 0.6565099 0.3714691 -0.6565099 0.6565099 0.3714691 -0.8968079 0.2402997 0.3714722 -0.8968079 0.2402997 0.3714722 -0.8968079 0.2402997 0.3714722 -0.8968095 0.2402984 0.3714692 -0.8968095 0.2402984 0.3714692 -0.8968095 0.2402984 0.3714692 -0.7760127 -0.2079311 0.5954568 -0.7760127 -0.2079311 0.5954568 -0.7760127 -0.2079311 0.5954568 -0.7760144 -0.2079342 0.5954537 -0.7760144 -0.2079342 0.5954537 -0.7760144 -0.2079342 0.5954537 -0.5680803 -0.5680803 0.5954575 -0.5680803 -0.5680803 0.5954575 -0.5680803 -0.5680803 0.5954575 -0.5680803 -0.5680803 0.5954575 -0.5680803 -0.5680803 0.5954575 -0.5680803 -0.5680803 0.5954575 -0.2079317 -0.7760148 0.595454 -0.2079317 -0.7760148 0.595454 -0.2079317 -0.7760148 0.595454 -0.2079335 -0.7760119 0.5954572 -0.2079335 -0.7760119 0.5954572 -0.2079335 -0.7760119 0.5954572 0.2079311 -0.7760127 0.5954568 0.2079311 -0.7760127 0.5954568 0.2079311 -0.7760127 0.5954568 0.2079342 -0.7760144 0.5954537 0.2079342 -0.7760144 0.5954537 0.2079342 -0.7760144 0.5954537 0.5680803 -0.5680803 0.5954575 0.5680803 -0.5680803 0.5954575 0.5680803 -0.5680803 0.5954575 0.5680803 -0.5680803 0.5954575 0.5680803 -0.5680803 0.5954575 0.5680803 -0.5680803 0.5954575 0.7760148 -0.2079317 0.595454 0.7760148 -0.2079317 0.595454 0.7760148 -0.2079317 0.595454 0.7760119 -0.2079335 0.5954572 0.7760119 -0.2079335 0.5954572 0.7760119 -0.2079335 0.5954572 0.7760127 0.2079311 0.5954568 0.7760127 0.2079311 0.5954568 0.7760127 0.2079311 0.5954568 0.7760144 0.2079342 0.5954537 0.7760144 0.2079342 0.5954537 0.7760144 0.2079342 0.5954537 0.5680803 0.5680803 0.5954575 0.5680803 0.5680803 0.5954575 0.5680803 0.5680803 0.5954575 0.5680803 0.5680803 0.5954575 0.5680803 0.5680803 0.5954575 0.5680803 0.5680803 0.5954575 0.2079317 0.7760148 0.595454 0.2079317 0.7760148 0.595454 0.2079317 0.7760148 0.595454 0.2079335 0.7760119 0.5954572 0.2079335 0.7760119 0.5954572 0.2079335 0.7760119 0.5954572 -0.2079311 0.7760127 0.5954568 -0.2079311 0.7760127 0.5954568 -0.2079311 0.7760127 0.5954568 -0.2079342 0.7760144 0.5954537 -0.2079342 0.7760144 0.5954537 -0.2079342 0.7760144 0.5954537 -0.5680803 0.5680803 0.5954575 -0.5680803 0.5680803 0.5954575 -0.5680803 0.5680803 0.5954575 -0.5680803 0.5680803 0.5954575 -0.5680803 0.5680803 0.5954575 -0.5680803 0.5680803 0.5954575 -0.7760148 0.2079317 0.595454 -0.7760148 0.2079317 0.595454 -0.7760148 0.2079317 0.595454 -0.7760119 0.2079335 0.5954572 -0.7760119 0.2079335 0.5954572 -0.7760119 0.2079335 0.5954572 -0.6008227 -0.1609913 0.7830032 -0.6008227 -0.1609913 0.7830032 -0.6008227 -0.1609913 0.7830032 -0.6008213 -0.1609889 0.7830046 -0.6008213 -0.1609889 0.7830046 -0.6008213 -0.1609889 0.7830046 -0.4398331 -0.4398331 0.783003 -0.4398331 -0.4398331 0.783003 -0.4398331 -0.4398331 0.783003 -0.4398331 -0.4398331 0.783003 -0.4398331 -0.4398331 0.783003 -0.4398331 -0.4398331 0.783003 -0.1609909 -0.6008211 0.7830043 -0.1609909 -0.6008211 0.7830043 -0.1609909 -0.6008211 0.7830043 -0.1609895 -0.6008235 0.7830029 -0.1609895 -0.6008235 0.7830029 -0.1609895 -0.6008235 0.7830029 0.1609913 -0.6008227 0.7830032 0.1609913 -0.6008227 0.7830032 0.1609913 -0.6008227 0.7830032 0.1609889 -0.6008213 0.7830046 0.1609889 -0.6008213 0.7830046 0.1609889 -0.6008213 0.7830046 0.4398331 -0.4398331 0.783003 0.4398331 -0.4398331 0.783003 0.4398331 -0.4398331 0.783003 0.4398331 -0.4398331 0.783003 0.4398331 -0.4398331 0.783003 0.4398331 -0.4398331 0.783003 0.6008211 -0.1609909 0.7830043 0.6008211 -0.1609909 0.7830043 0.6008211 -0.1609909 0.7830043 0.6008235 -0.1609895 0.7830029 0.6008235 -0.1609895 0.7830029 0.6008235 -0.1609895 0.7830029 0.6008227 0.1609913 0.7830032 0.6008227 0.1609913 0.7830032 0.6008227 0.1609913 0.7830032 0.6008213 0.1609889 0.7830046 0.6008213 0.1609889 0.7830046 0.6008213 0.1609889 0.7830046 0.4398331 0.4398331 0.783003 0.4398331 0.4398331 0.783003 0.4398331 0.4398331 0.783003 0.4398331 0.4398331 0.783003 0.4398331 0.4398331 0.783003 0.4398331 0.4398331 0.783003 0.1609909 0.6008211 0.7830043 0.1609909 0.6008211 0.7830043 0.1609909 0.6008211 0.7830043 0.1609895 0.6008235 0.7830029 0.1609895 0.6008235 0.7830029 0.1609895 0.6008235 0.7830029 -0.1609913 0.6008227 0.7830032 -0.1609913 0.6008227 0.7830032 -0.1609913 0.6008227 0.7830032 -0.1609889 0.6008213 0.7830046 -0.1609889 0.6008213 0.7830046 -0.1609889 0.6008213 0.7830046 -0.4398331 0.4398331 0.783003 -0.4398331 0.4398331 0.783003 -0.4398331 0.4398331 0.783003 -0.4398331 0.4398331 0.783003 -0.4398331 0.4398331 0.783003 -0.4398331 0.4398331 0.783003 -0.6008211 0.1609909 0.7830043 -0.6008211 0.1609909 0.7830043 -0.6008211 0.1609909 0.7830043 -0.6008235 0.1609895 0.7830029 -0.6008235 0.1609895 0.7830029 -0.6008235 0.1609895 0.7830029 -0.3806861 -0.1020041 0.9190611 -0.3806861 -0.1020041 0.9190611 -0.3806861 -0.1020041 0.9190611 -0.3806859 -0.1020036 0.9190612 -0.3806859 -0.1020036 0.9190612 -0.3806859 -0.1020036 0.9190612 -0.2786817 -0.2786817 0.9190609 -0.2786817 -0.2786817 0.9190609 -0.2786817 -0.2786817 0.9190609 -0.2786817 -0.2786817 0.9190609 -0.2786817 -0.2786817 0.9190609 -0.2786817 -0.2786817 0.9190609 -0.102004 -0.3806859 0.9190612 -0.102004 -0.3806859 0.9190612 -0.102004 -0.3806859 0.9190612 -0.1020037 -0.3806863 0.919061 -0.1020037 -0.3806863 0.919061 -0.1020037 -0.3806863 0.919061 0.1020041 -0.3806861 0.9190611 0.1020041 -0.3806861 0.9190611 0.1020041 -0.3806861 0.9190611 0.1020036 -0.3806859 0.9190612 0.1020036 -0.3806859 0.9190612 0.1020036 -0.3806859 0.9190612 0.2786817 -0.2786817 0.9190609 0.2786817 -0.2786817 0.9190609 0.2786817 -0.2786817 0.9190609 0.2786817 -0.2786817 0.9190609 0.2786817 -0.2786817 0.9190609 0.2786817 -0.2786817 0.9190609 0.3806859 -0.102004 0.9190612 0.3806859 -0.102004 0.9190612 0.3806859 -0.102004 0.9190612 0.3806863 -0.1020037 0.919061 0.3806863 -0.1020037 0.919061 0.3806863 -0.1020037 0.919061 0.3806861 0.1020041 0.9190611 0.3806861 0.1020041 0.9190611 0.3806861 0.1020041 0.9190611 0.3806859 0.1020036 0.9190612 0.3806859 0.1020036 0.9190612 0.3806859 0.1020036 0.9190612 0.2786817 0.2786817 0.9190609 0.2786817 0.2786817 0.9190609 0.2786817 0.2786817 0.9190609 0.2786817 0.2786817 0.9190609 0.2786817 0.2786817 0.9190609 0.2786817 0.2786817 0.9190609 0.102004 0.3806859 0.9190612 0.102004 0.3806859 0.9190612 0.102004 0.3806859 0.9190612 0.1020037 0.3806863 0.919061 0.1020037 0.3806863 0.919061 0.1020037 0.3806863 0.919061 -0.1020041 0.3806861 0.9190611 -0.1020041 0.3806861 0.9190611 -0.1020041 0.3806861 0.9190611 -0.1020036 0.3806859 0.9190612 -0.1020036 0.3806859 0.9190612 -0.1020036 0.3806859 0.9190612 -0.2786817 0.2786817 0.9190609 -0.2786817 0.2786817 0.9190609 -0.2786817 0.2786817 0.9190609 -0.2786817 0.2786817 0.9190609 -0.2786817 0.2786817 0.9190609 -0.2786817 0.2786817 0.9190609 -0.3806859 0.102004 0.9190612 -0.3806859 0.102004 0.9190612 -0.3806859 0.102004 0.9190612 -0.3806863 0.1020037 0.919061 -0.3806863 0.1020037 0.919061 -0.3806863 0.1020037 0.919061 -0.1304458 -0.0349525 0.9908391 -0.1304458 -0.0349525 0.9908391 -0.1304458 -0.0349525 0.9908391 1.0 0.0 0.0 1.0 0.0 0.0 -0.0954928 -0.0954928 0.9908391 -0.0954928 -0.0954928 0.9908391 -0.0954928 -0.0954928 0.9908391 1.0 0.0 0.0 1.0 0.0 0.0 -0.0349525 -0.1304458 0.9908391 -0.0349525 -0.1304458 0.9908391 -0.0349525 -0.1304458 0.9908391 1.0 0.0 0.0 1.0 0.0 0.0 0.0349525 -0.1304458 0.9908391 0.0349525 -0.1304458 0.9908391 0.0349525 -0.1304458 0.9908391 1.0 0.0 0.0 1.0 0.0 0.0 0.0954928 -0.0954928 0.9908391 0.0954928 -0.0954928 0.9908391 0.0954928 -0.0954928 0.9908391 1.0 0.0 0.0 1.0 0.0 0.0 0.1304458 -0.0349525 0.9908391 0.1304458 -0.0349525 0.9908391 0.1304458 -0.0349525 0.9908391 1.0 0.0 0.0 1.0 0.0 0.0 0.1304458 0.0349525 0.9908391 0.1304458 0.0349525 0.9908391 0.1304458 0.0349525 0.9908391 1.0 0.0 0.0 1.0 0.0 0.0 0.0954928 0.0954928 0.9908391 0.0954928 0.0954928 0.9908391 0.0954928 0.0954928 0.9908391 1.0 0.0 0.0 1.0 0.0 0.0 0.0349525 0.1304458 0.9908391 0.0349525 0.1304458 0.9908391 0.0349525 0.1304458 0.9908391 1.0 0.0 0.0 1.0 0.0 0.0 -0.0349525 0.1304458 0.9908391 -0.0349525 0.1304458 0.9908391 -0.0349525 0.1304458 0.9908391 1.0 0.0 0.0 1.0 0.0 0.0 -0.0954928 0.0954928 0.9908391 -0.0954928 0.0954928 0.9908391 -0.0954928 0.0954928 0.9908391 1.0 0.0 0.0 1.0 0.0 0.0 -0.1304458 0.0349525 0.9908391 -0.1304458 0.0349525 0.9908391 -0.1304458 0.0349525 0.9908391 1.0 0.0 0.0 1.0 0.0 0.0 1.0 0.0 0.0 1.0 0.0 0.0 -0.1304463 -0.0349527 -0.9908391 -0.1304463 -0.0349527 -0.9908391 -0.1304463 -0.0349527 -0.9908391 1.0 0.0 0.0 1.0 0.0 0.0 -0.0954931 -0.0954931 -0.9908391 -0.0954931 -0.0954931 -0.9908391 -0.0954931 -0.0954931 -0.9908391 1.0 0.0 0.0 1.0 0.0 0.0 -0.0349527 -0.1304463 -0.9908391 -0.0349527 -0.1304463 -0.9908391 -0.0349527 -0.1304463 -0.9908391 1.0 0.0 0.0 1.0 0.0 0.0 0.0349527 -0.1304463 -0.9908391 0.0349527 -0.1304463 -0.9908391 0.0349527 -0.1304463 -0.9908391 1.0 0.0 0.0 1.0 0.0 0.0 0.0954931 -0.0954931 -0.9908391 0.0954931 -0.0954931 -0.9908391 0.0954931 -0.0954931 -0.9908391 1.0 0.0 0.0 1.0 0.0 0.0 0.1304463 -0.0349527 -0.9908391 0.1304463 -0.0349527 -0.9908391 0.1304463 -0.0349527 -0.9908391 1.0 0.0 0.0 1.0 0.0 0.0 0.1304463 0.0349527 -0.9908391 0.1304463 0.0349527 -0.9908391 0.1304463 0.0349527 -0.9908391 1.0 0.0 0.0 1.0 0.0 0.0 0.0954931 0.0954931 -0.9908391 0.0954931 0.0954931 -0.9908391 0.0954931 0.0954931 -0.9908391 1.0 0.0 0.0 1.0 0.0 0.0 0.0349527 0.1304463 -0.9908391 0.0349527 0.1304463 -0.9908391 0.0349527 0.1304463 -0.9908391 1.0 0.0 0.0 1.0 0.0 0.0 -0.0349527 0.1304463 -0.9908391 -0.0349527 0.1304463 -0.9908391 -0.0349527 0.1304463 -0.9908391 1.0 0.0 0.0 1.0 0.0 0.0 -0.0954931 0.0954931 -0.9908391 -0.0954931 0.0954931 -0.9908391 -0.0954931 0.0954931 -0.9908391 1.0 0.0 0.0 1.0 0.0 0.0 -0.1304463 0.0349527 -0.9908391 -0.1304463 0.0349527 -0.9908391 -0.1304463 0.0349527 -0.9908391 -0.380689 -0.1020044 -0.9190598 -0.380689 -0.1020044 -0.9190598 -0.380689 -0.1020044 -0.9190598 -0.3806887 -0.1020048 -0.9190599 -0.3806887 -0.1020048 -0.9190599 -0.3806887 -0.1020048 -0.9190599 -0.2786837 -0.2786837 -0.9190598 -0.2786837 -0.2786837 -0.9190598 -0.2786837 -0.2786837 -0.9190598 -0.2786837 -0.2786837 -0.9190598 -0.2786837 -0.2786837 -0.9190598 -0.2786837 -0.2786837 -0.9190598 -0.1020043 -0.3806886 -0.91906 -0.1020043 -0.3806886 -0.91906 -0.1020043 -0.3806886 -0.91906 -0.1020048 -0.3806888 -0.9190598 -0.1020048 -0.3806888 -0.9190598 -0.1020048 -0.3806888 -0.9190598 0.1020044 -0.380689 -0.9190598 0.1020044 -0.380689 -0.9190598 0.1020044 -0.380689 -0.9190598 0.1020048 -0.3806887 -0.9190599 0.1020048 -0.3806887 -0.9190599 0.1020048 -0.3806887 -0.9190599 0.2786837 -0.2786837 -0.9190598 0.2786837 -0.2786837 -0.9190598 0.2786837 -0.2786837 -0.9190598 0.2786837 -0.2786837 -0.9190598 0.2786837 -0.2786837 -0.9190598 0.2786837 -0.2786837 -0.9190598 0.3806886 -0.1020043 -0.91906 0.3806886 -0.1020043 -0.91906 0.3806886 -0.1020043 -0.91906 0.3806888 -0.1020048 -0.9190598 0.3806888 -0.1020048 -0.9190598 0.3806888 -0.1020048 -0.9190598 0.380689 0.1020044 -0.9190598 0.380689 0.1020044 -0.9190598 0.380689 0.1020044 -0.9190598 0.3806887 0.1020048 -0.9190599 0.3806887 0.1020048 -0.9190599 0.3806887 0.1020048 -0.9190599 0.2786837 0.2786837 -0.9190598 0.2786837 0.2786837 -0.9190598 0.2786837 0.2786837 -0.9190598 0.2786837 0.2786837 -0.9190598 0.2786837 0.2786837 -0.9190598 0.2786837 0.2786837 -0.9190598 0.1020043 0.3806886 -0.91906 0.1020043 0.3806886 -0.91906 0.1020043 0.3806886 -0.91906 0.1020048 0.3806888 -0.9190598 0.1020048 0.3806888 -0.9190598 0.1020048 0.3806888 -0.9190598 -0.1020044 0.380689 -0.9190598 -0.1020044 0.380689 -0.9190598 -0.1020044 0.380689 -0.9190598 -0.1020048 0.3806887 -0.9190599 -0.1020048 0.3806887 -0.9190599 -0.1020048 0.3806887 -0.9190599 -0.2786837 0.2786837 -0.9190598 -0.2786837 0.2786837 -0.9190598 -0.2786837 0.2786837 -0.9190598 -0.2786837 0.2786837 -0.9190598 -0.2786837 0.2786837 -0.9190598 -0.2786837 0.2786837 -0.9190598 -0.3806886 0.1020043 -0.91906 -0.3806886 0.1020043 -0.91906 -0.3806886 0.1020043 -0.91906 -0.3806888 0.1020048 -0.9190598 -0.3806888 0.1020048 -0.9190598 -0.3806888 0.1020048 -0.9190598 -0.6008237 -0.1609895 -0.7830027 -0.6008237 -0.1609895 -0.7830027 -0.6008237 -0.1609895 -0.7830027 -0.6008214 -0.1609909 -0.7830042 -0.6008214 -0.1609909 -0.7830042 -0.6008214 -0.1609909 -0.7830042 -0.4398333 -0.4398333 -0.7830028 -0.4398333 -0.4398333 -0.7830028 -0.4398333 -0.4398333 -0.7830028 -0.4398332 -0.4398332 -0.7830028 -0.4398332 -0.4398332 -0.7830028 -0.4398332 -0.4398332 -0.7830028 -0.1609889 -0.6008216 -0.7830045 -0.1609889 -0.6008216 -0.7830045 -0.1609889 -0.6008216 -0.7830045 -0.1609913 -0.6008229 -0.7830029 -0.1609913 -0.6008229 -0.7830029 -0.1609913 -0.6008229 -0.7830029 0.1609895 -0.6008237 -0.7830027 0.1609895 -0.6008237 -0.7830027 0.1609895 -0.6008237 -0.7830027 0.1609909 -0.6008214 -0.7830042 0.1609909 -0.6008214 -0.7830042 0.1609909 -0.6008214 -0.7830042 0.4398333 -0.4398333 -0.7830028 0.4398333 -0.4398333 -0.7830028 0.4398333 -0.4398333 -0.7830028 0.4398332 -0.4398332 -0.7830028 0.4398332 -0.4398332 -0.7830028 0.4398332 -0.4398332 -0.7830028 0.6008216 -0.1609889 -0.7830045 0.6008216 -0.1609889 -0.7830045 0.6008216 -0.1609889 -0.7830045 0.6008229 -0.1609913 -0.7830029 0.6008229 -0.1609913 -0.7830029 0.6008229 -0.1609913 -0.7830029 0.6008237 0.1609895 -0.7830027 0.6008237 0.1609895 -0.7830027 0.6008237 0.1609895 -0.7830027 0.6008214 0.1609909 -0.7830042 0.6008214 0.1609909 -0.7830042 0.6008214 0.1609909 -0.7830042 0.4398333 0.4398333 -0.7830028 0.4398333 0.4398333 -0.7830028 0.4398333 0.4398333 -0.7830028 0.4398332 0.4398332 -0.7830028 0.4398332 0.4398332 -0.7830028 0.4398332 0.4398332 -0.7830028 0.1609889 0.6008216 -0.7830045 0.1609889 0.6008216 -0.7830045 0.1609889 0.6008216 -0.7830045 0.1609913 0.6008229 -0.7830029 0.1609913 0.6008229 -0.7830029 0.1609913 0.6008229 -0.7830029 -0.1609895 0.6008237 -0.7830027 -0.1609895 0.6008237 -0.7830027 -0.1609895 0.6008237 -0.7830027 -0.1609909 0.6008214 -0.7830042 -0.1609909 0.6008214 -0.7830042 -0.1609909 0.6008214 -0.7830042 -0.4398333 0.4398333 -0.7830028 -0.4398333 0.4398333 -0.7830028 -0.4398333 0.4398333 -0.7830028 -0.4398332 0.4398332 -0.7830028 -0.4398332 0.4398332 -0.7830028 -0.4398332 0.4398332 -0.7830028 -0.6008216 0.1609889 -0.7830045 -0.6008216 0.1609889 -0.7830045 -0.6008216 0.1609889 -0.7830045 -0.6008229 0.1609913 -0.7830029 -0.6008229 0.1609913 -0.7830029 -0.6008229 0.1609913 -0.7830029 -0.7760105 -0.2079331 -0.595459 -0.7760105 -0.2079331 -0.595459 -0.7760105 -0.2079331 -0.595459 -0.7760135 -0.2079313 -0.5954559 -0.7760135 -0.2079313 -0.5954559 -0.7760135 -0.2079313 -0.5954559 -0.5680792 -0.5680792 -0.5954593 -0.5680792 -0.5680792 -0.5954593 -0.5680792 -0.5680792 -0.5954593 -0.5680792 -0.5680792 -0.5954593 -0.5680792 -0.5680792 -0.5954593 -0.5680792 -0.5680792 -0.5954593 -0.2079338 -0.776013 -0.5954555 -0.2079338 -0.776013 -0.5954555 -0.2079338 -0.776013 -0.5954555 -0.2079307 -0.7760114 -0.5954587 -0.2079307 -0.7760114 -0.5954587 -0.2079307 -0.7760114 -0.5954587 0.2079331 -0.7760105 -0.595459 0.2079331 -0.7760105 -0.595459 0.2079331 -0.7760105 -0.595459 0.2079313 -0.7760135 -0.5954559 0.2079313 -0.7760135 -0.5954559 0.2079313 -0.7760135 -0.5954559 0.5680792 -0.5680792 -0.5954593 0.5680792 -0.5680792 -0.5954593 0.5680792 -0.5680792 -0.5954593 0.5680792 -0.5680792 -0.5954593 0.5680792 -0.5680792 -0.5954593 0.5680792 -0.5680792 -0.5954593 0.776013 -0.2079338 -0.5954555 0.776013 -0.2079338 -0.5954555 0.776013 -0.2079338 -0.5954555 0.7760114 -0.2079307 -0.5954587 0.7760114 -0.2079307 -0.5954587 0.7760114 -0.2079307 -0.5954587 0.7760105 0.2079331 -0.595459 0.7760105 0.2079331 -0.595459 0.7760105 0.2079331 -0.595459 0.7760135 0.2079313 -0.5954559 0.7760135 0.2079313 -0.5954559 0.7760135 0.2079313 -0.5954559 0.5680792 0.5680792 -0.5954593 0.5680792 0.5680792 -0.5954593 0.5680792 0.5680792 -0.5954593 0.5680792 0.5680792 -0.5954593 0.5680792 0.5680792 -0.5954593 0.5680792 0.5680792 -0.5954593 0.2079338 0.776013 -0.5954555 0.2079338 0.776013 -0.5954555 0.2079338 0.776013 -0.5954555 0.2079307 0.7760114 -0.5954587 0.2079307 0.7760114 -0.5954587 0.2079307 0.7760114 -0.5954587 -0.2079331 0.7760105 -0.595459 -0.2079331 0.7760105 -0.595459 -0.2079331 0.7760105 -0.595459 -0.2079313 0.7760135 -0.5954559 -0.2079313 0.7760135 -0.5954559 -0.2079313 0.7760135 -0.5954559 -0.5680792 0.5680792 -0.5954593 -0.5680792 0.5680792 -0.5954593 -0.5680792 0.5680792 -0.5954593 -0.5680792 0.5680792 -0.5954593 -0.5680792 0.5680792 -0.5954593 -0.5680792 0.5680792 -0.5954593 -0.776013 0.2079338 -0.5954555 -0.776013 0.2079338 -0.5954555 -0.776013 0.2079338 -0.5954555 -0.7760114 0.2079307 -0.5954587 -0.7760114 0.2079307 -0.5954587 -0.7760114 0.2079307 -0.5954587 -0.8968095 -0.2402984 -0.3714692 -0.8968095 -0.2402984 -0.3714692 -0.8968095 -0.2402984 -0.3714692 -0.8968079 -0.2402997 -0.3714722 -0.8968079 -0.2402997 -0.3714722 -0.8968079 -0.2402997 -0.3714722 -0.6565099 -0.6565099 -0.3714692 -0.6565099 -0.6565099 -0.3714692 -0.6565099 -0.6565099 -0.3714692 -0.6565099 -0.6565099 -0.3714692 -0.6565099 -0.6565099 -0.3714692 -0.6565099 -0.6565099 -0.3714692 -0.2402981 -0.8968083 -0.3714723 -0.2402981 -0.8968083 -0.3714723 -0.2402981 -0.8968083 -0.3714723 -0.2403 -0.896809 -0.3714693 -0.2403 -0.896809 -0.3714693 -0.2403 -0.896809 -0.3714693 0.2402984 -0.8968095 -0.3714692 0.2402984 -0.8968095 -0.3714692 0.2402984 -0.8968095 -0.3714692 0.2402997 -0.8968079 -0.3714722 0.2402997 -0.8968079 -0.3714722 0.2402997 -0.8968079 -0.3714722 0.6565099 -0.6565099 -0.3714692 0.6565099 -0.6565099 -0.3714692 0.6565099 -0.6565099 -0.3714692 0.6565099 -0.6565099 -0.3714692 0.6565099 -0.6565099 -0.3714692 0.6565099 -0.6565099 -0.3714692 0.8968083 -0.2402981 -0.3714723 0.8968083 -0.2402981 -0.3714723 0.8968083 -0.2402981 -0.3714723 0.896809 -0.2403 -0.3714693 0.896809 -0.2403 -0.3714693 0.896809 -0.2403 -0.3714693 0.8968095 0.2402984 -0.3714692 0.8968095 0.2402984 -0.3714692 0.8968095 0.2402984 -0.3714692 0.8968079 0.2402997 -0.3714722 0.8968079 0.2402997 -0.3714722 0.8968079 0.2402997 -0.3714722 0.6565099 0.6565099 -0.3714692 0.6565099 0.6565099 -0.3714692 0.6565099 0.6565099 -0.3714692 0.6565099 0.6565099 -0.3714692 0.6565099 0.6565099 -0.3714692 0.6565099 0.6565099 -0.3714692 0.2402981 0.8968083 -0.3714723 0.2402981 0.8968083 -0.3714723 0.2402981 0.8968083 -0.3714723 0.2403 0.896809 -0.3714693 0.2403 0.896809 -0.3714693 0.2403 0.896809 -0.3714693 -0.2402984 0.8968095 -0.3714692 -0.2402984 0.8968095 -0.3714692 -0.2402984 0.8968095 -0.3714692 -0.2402997 0.8968079 -0.3714722 -0.2402997 0.8968079 -0.3714722 -0.2402997 0.8968079 -0.3714722 -0.6565099 0.6565099 -0.3714692 -0.6565099 0.6565099 -0.3714692 -0.6565099 0.6565099 -0.3714692 -0.6565099 0.6565099 -0.3714692 -0.6565099 0.6565099 -0.3714692 -0.6565099 0.6565099 -0.3714692 -0.8968083 0.2402981 -0.3714723 -0.8968083 0.2402981 -0.3714723 -0.8968083 0.2402981 -0.3714723 -0.896809 0.2403 -0.3714693 -0.896809 0.2403 -0.3714693 -0.896809 0.2403 -0.3714693 -0.958209 -0.2567522 -0.1261501 -0.958209 -0.2567522 -0.1261501 -0.958209 -0.2567522 -0.1261501 -0.958209 -0.2567522 -0.1261501 -0.958209 -0.2567522 -0.1261501 -0.958209 -0.2567522 -0.1261501</float_array>
                    <technique_common>
                        <accessor count="840" source="#geometry0-normal-array" stride="3">
                            <param name="X" type="float"/>
                            <param name="Y" type="float"/>
                            <param name="Z" type="float"/>
                        </accessor>
                    </technique_common>
                </source>
                <vertices id="geometry0-vertex">
                    <input semantic="POSITION" source="#geometry0-position"/>
                </vertices>
                <triangles count="288" material="default_ai_0.2_sh_0.2_tr_0.0_dc_r_0.8_g_0.8_b_0.8_sc_r_1.0_g_1.0_b_1.0_ec_r_0.0_g_0.0_b_0_tri">
                    <input offset="0" semantic="VERTEX" source="#geometry0-vertex"/>
                    <input offset="1" semantic="NORMAL" source="#geometry0-normal"/>
                    <p>49 0 51 1 63 2 49 3 63 4 61 5 51 6 52 7 64 8 51 9 64 10 63 11 52 12 53 13 65 14 52 15 65 16 64 17 53 18 54 19 66 20 53 21 66 22 65 23 54 24 55 25 67 26 54 27 67 28 66 29 55 30 56 31 68 32 55 33 68 34 67 35 56 36 57 37 69 38 56 39 69 40 68 41 57 42 58 43 70 44 57 45 70 46 69 47 58 48 59 49 71 50 58 51 71 52 70 53 59 54 60 55 72 56 59 57 72 58 71 59 60 60 50 61 62 62 60 63 62 64 72 65 62 66 61 67 73 68 62 69 73 70 74 71 61 72 63 73 75 74 61 75 75 76 73 77 63 78 64 79 76 80 63 81 76 82 75 83 64 84 65 85 77 86 64 87 77 88 76 89 65 90 66 91 78 92 65 93 78 94 77 95 66 96 67 97 79 98 66 99 79 100 78 101 67 102 68 103 80 104 67 105 80 106 79 107 68 108 69 109 81 110 68 111 81 112 80 113 69 114 70 115 82 116 69 117 82 118 81 119 70 120 71 121 83 122 70 123 83 124 82 125 71 126 72 127 84 128 71 129 84 130 83 131 72 132 62 133 74 134 72 135 74 136 84 137 74 138 73 139 85 140 74 141 85 142 86 143 73 144 75 145 87 146 73 147 87 148 85 149 75 150 76 151 88 152 75 153 88 154 87 155 76 156 77 157 89 158 76 159 89 160 88 161 77 162 78 163 90 164 77 165 90 166 89 167 78 168 79 169 91 170 78 171 91 172 90 173 79 174 80 175 92 176 79 177 92 178 91 179 80 180 81 181 93 182 80 183 93 184 92 185 81 186 82 187 94 188 81 189 94 190 93 191 82 192 83 193 95 194 82 195 95 196 94 197 83 198 84 199 96 200 83 201 96 202 95 203 84 204 74 205 86 206 84 207 86 208 96 209 86 210 85 211 97 212 86 213 97 214 98 215 85 216 87 217 99 218 85 219 99 220 97 221 87 222 88 223 100 224 87 225 100 226 99 227 88 228 89 229 101 230 88 231 101 232 100 233 89 234 90 235 102 236 89 237 102 238 101 239 90 240 91 241 103 242 90 243 103 244 102 245 91 246 92 247 104 248 91 249 104 250 103 251 92 252 93 253 105 254 92 255 105 256 104 257 93 258 94 259 106 260 93 261 106 262 105 263 94 264 95 265 107 266 94 267 107 268 106 269 95 270 96 271 108 272 95 273 108 274 107 275 96 276 86 277 98 278 96 279 98 280 108 281 98 282 97 283 109 284 98 285 109 286 110 287 97 288 99 289 111 290 97 291 111 292 109 293 99 294 100 295 112 296 99 297 112 298 111 299 100 300 101 301 113 302 100 303 113 304 112 305 101 306 102 307 114 308 101 309 114 310 113 311 102 312 103 313 115 314 102 315 115 316 114 317 103 318 104 319 116 320 103 321 116 322 115 323 104 324 105 325 117 326 104 327 117 328 116 329 105 330 106 331 118 332 105 333 118 334 117 335 106 336 107 337 119 338 106 339 119 340 118 341 107 342 108 343 120 344 107 345 120 346 119 347 108 348 98 349 110 350 108 351 110 352 120 353 110 354 109 355 121 356 110 357 121 358 122 359 109 360 111 361 123 362 109 363 123 364 121 365 111 366 112 367 124 368 111 369 124 370 123 371 112 372 113 373 125 374 112 375 125 376 124 377 113 378 114 379 126 380 113 381 126 382 125 383 114 384 115 385 127 386 114 387 127 388 126 389 115 390 116 391 128 392 115 393 128 394 127 395 116 396 117 397 129 398 116 399 129 400 128 401 117 402 118 403 130 404 117 405 130 406 129 407 118 408 119 409 131 410 118 411 131 412 130 413 119 414 120 415 132 416 119 417 132 418 131 419 120 420 110 421 122 422 120 423 122 424 132 425 122 426 121 427 133 428 122 429 133 430 133 430 121 431 123 432 133 433 121 434 133 435 133 435 123 436 124 437 133 438 123 439 133 440 133 440 124 441 125 442 133 443 124 444 133 445 133 445 125 446 126 447 133 448 125 449 133 450 133 450 126 451 127 452 133 453 126 454 133 455 133 455 127 456 128 457 133 458 127 459 133 460 133 460 128 461 129 462 133 463 128 464 133 465 133 465 129 466 130 467 133 468 129 469 133 470 133 470 130 471 131 472 133 473 130 474 133 475 133 475 131 476 132 477 133 478 131 479 133 480 133 480 132 481 122 482 133 483 132 484 133 485 133 485 0 486 0 486 1 487 0 488 1 489 2 490 0 491 0 491 3 492 0 493 3 494 1 495 0 496 0 496 4 497 0 498 4 499 3 500 0 501 0 501 5 502 0 503 5 504 4 505 0 506 0 506 6 507 0 508 6 509 5 510 0 511 0 511 7 512 0 513 7 514 6 515 0 516 0 516 8 517 0 518 8 519 7 520 0 521 0 521 9 522 0 523 9 524 8 525 0 526 0 526 10 527 0 528 10 529 9 530 0 531 0 531 11 532 0 533 11 534 10 535 0 536 0 536 12 537 0 538 12 539 11 540 0 541 0 541 2 542 0 543 2 544 12 545 2 546 1 547 13 548 2 549 13 550 14 551 1 552 3 553 15 554 1 555 15 556 13 557 3 558 4 559 16 560 3 561 16 562 15 563 4 564 5 565 17 566 4 567 17 568 16 569 5 570 6 571 18 572 5 573 18 574 17 575 6 576 7 577 19 578 6 579 19 580 18 581 7 582 8 583 20 584 7 585 20 586 19 587 8 588 9 589 21 590 8 591 21 592 20 593 9 594 10 595 22 596 9 597 22 598 21 599 10 600 11 601 23 602 10 603 23 604 22 605 11 606 12 607 24 608 11 609 24 610 23 611 12 612 2 613 14 614 12 615 14 616 24 617 14 618 13 619 25 620 14 621 25 622 26 623 13 624 15 625 27 626 13 627 27 628 25 629 15 630 16 631 28 632 15 633 28 634 27 635 16 636 17 637 29 638 16 639 29 640 28 641 17 642 18 643 30 644 17 645 30 646 29 647 18 648 19 649 31 650 18 651 31 652 30 653 19 654 20 655 32 656 19 657 32 658 31 659 20 660 21 661 33 662 20 663 33 664 32 665 21 666 22 667 34 668 21 669 34 670 33 671 22 672 23 673 35 674 22 675 35 676 34 677 23 678 24 679 36 680 23 681 36 682 35 683 24 684 14 685 26 686 24 687 26 688 36 689 26 690 25 691 37 692 26 693 37 694 38 695 25 696 27 697 39 698 25 699 39 700 37 701 27 702 28 703 40 704 27 705 40 706 39 707 28 708 29 709 41 710 28 711 41 712 40 713 29 714 30 715 42 716 29 717 42 718 41 719 30 720 31 721 43 722 30 723 43 724 42 725 31 726 32 727 44 728 31 729 44 730 43 731 32 732 33 733 45 734 32 735 45 736 44 737 33 738 34 739 46 740 33 741 46 742 45 743 34 744 35 745 47 746 34 747 47 748 46 749 35 750 36 751 48 752 35 753 48 754 47 755 36 756 26 757 38 758 36 759 38 760 48 761 38 762 37 763 49 764 38 765 49 766 50 767 37 768 39 769 51 770 37 771 51 772 49 773 39 774 40 775 52 776 39 777 52 778 51 779 40 780 41 781 53 782 40 783 53 784 52 785 41 786 42 787 54 788 41 789 54 790 53 791 42 792 43 793 55 794 42 795 55 796 54 797 43 798 44 799 56 800 43 801 56 802 55 803 44 804 45 805 57 806 44 807 57 808 56 809 45 810 46 811 58 812 45 813 58 814 57 815 46 816 47 817 59 818 46 819 59 820 58 821 47 822 48 823 60 824 47 825 60 826 59 827 48 828 38 829 50 830 48 831 50 832 60 833 50 834 49 835 61 836 50 837 61 838 62 839</p>
                </triangles>
            </mesh>
        </geometry>
    </library_geometries>
    <library_visual_scenes>
        <visual_scene id="Building_129_CROWN1">
            <node>
                <instance_geometry url="#geometry0">
                    <bind_material>
                        <technique_common>
                            <instance_material symbol="default_ai_0.2_sh_0.2_tr_0.0_dc_r_0.8_g_0.8_b_0.8_sc_r_1.0_g_1.0_b_1.0_ec_r_0.0_g_0.0_b_0_tri" target="#default_ai_0.2_sh_0.2_tr_0.0_dc_r_0.8_g_0.8_b_0.8_sc_r_1.0_g_1.0_b_1.0_ec_r_0.0_g_0.0_b_0_mat"/>
                        </technique_common>
                    </bind_material>
                </instance_geometry>
            </node>
        </visual_scene>
    </library_visual_scenes>
    <scene>
        <instance_visual_scene url="#Building_129_CROWN1"/>
    </scene>
</COLLADA>
