<?xml version="1.0" encoding="UTF-8" standalone="yes"?>
<COLLADA xmlns="http://www.collada.org/2005/11/COLLADASchema" version="1.4.1">
    <asset>
        <contributor>
            <authoring_tool>3D City Database Importer/Exporter, version 5.5.3; Chair of Geoinformatics, Technical University of Munich</authoring_tool>
        </contributor>
        <created>2026-09-25T14:45:07.588</created>
        <modified>2026-09-25T14:45:07.588</modified>
        <unit meter="1.0" name="meters"/>
        <up_axis>Z_UP</up_axis>
    </asset>
    <library_materials>
        <material id="default_ai_0.2_sh_0.2_tr_0.0_dc_r_0.8_g_0.8_b_0.8_sc_r_1.0_g_1.0_b_1.0_ec_r_0.0_g_0.0_b_0_mat">
            <instance_effect url="#default_ai_0.2_sh_0.2_tr_0.0_dc_r_0.8_g_0.8_b_0.8_sc_r_1.0_g_1.0_b_1.0_ec_r_0.0_g_0.0_b_0_eff"/>
        </material>
    </library_materials>
    <library_effects>
        <effect id="default_ai_0.2_sh_0.2_tr_0.0_dc_r_0.8_g_0.8_b_0.8_sc_r_1.0_g_1.0_b_1.0_ec_r_0.0_g_0.0_b_0_eff">
            <profile_COMMON>
                <technique sid="COMMON">
                    <lambert>
                        <emission>
                            <color>0.0 0.0 0.0 1.0</color>
                        </emission>
                        <diffuse>
                            <color>0.8 0.8 0.8 1.0</color>
                        </diffuse>
                        <reflective>
                            <color>1.0 1.0 1.0 1.0</color>
                        </reflective>
                        <reflectivity>
                            <float>0.2</float>
                        </reflectivity>
                        <transparent opaque="A_ONE">
                            <color>1.0 1.0 1.0 1.0</color>
                        </transparent>
                        <transparency>
                            <float>1.0</float>
                        </transparency>
                    </lambert>
                </technique>
                <extra>
                    <technique profile="GOOGLEEARTH">
                        <double_sided>0</double_sided>
                    </technique>
                </extra>
            </profile_COMMON>
        </effect>
    </library_effects>
    <library_geometries>
        <geometry id="geometry0">
            <mesh>
                <source id="geometry0-position">
                    <float_array id="geometry0-position-array" count="402">0.0 0.0 2.0 0.224144 0.12941 1.965926 0.258819 0.0 1.965926 0.12941 0.224144 1.965926 0.0 0.258819 1.965926 -0.12941 0.224144 1.965926 -0.224144 0.12941 1.965926 -0.258819 0.0 1.965926 -0.224144 -0.12941 1.965926 -0.12941 -0.224144 1.965926 0.0 -0.258819 1.965926 0.12941 -0.224144 1.965926 0.224144 -0.12941 1.965926 0.433013 0.25 1.866025 0.5 0.0 1.866025 0.25 0.433013 1.866025 0.0 0.5 1.866025 -0.25 0.433013 1.866025 -0.433013 0.25 1.866025 -0.5 0.0 1.866025 -0.433013 -0.25 1.866025 -0.25 -0.433013 1.866025 0.0 -0.5 1.866025 0.25 -0.433013 1.866025 0.433013 -0.25 1.866025 0.612372 0.353553 1.707107 0.707107 0.0 1.707107 0.353553 0.612372 1.707107 0.0 0.707107 1.707107 -0.353553 0.612372 1.707107 -0.612372 0.353553 1.707107 -0.707107 0.0 1.707107 -0.612372 -0.353553 1.707107 -0.353553 -0.612372 1.707107 0.0 -0.707107 1.707107 0.353553 -0.612372 1.707107 0.612372 -0.353553 1.707107 0.75 0.433013 1.5 0.866025 0.0 1.5 0.433013 0.75 1.5 0.0 0.866025 1.5 -0.433013 0.75 1.5 -0.75 0.433013 1.5 -0.866025 0.0 1.5 -0.75 -0.433013 1.5 -0.433013 -0.75 1.5 0.0 -0.866025 1.5 0.433013 -0.75 1.5 0.75 -0.433013 1.5 0.836516 0.482963 1.258819 0.965926 0.0 1.258819 0.482963 0.836516 1.258819 0.0 0.965926 1.258819 -0.482963 0.836516 1.258819 -0.836516 0.482963 1.258819 -0.965926 0.0 1.258819 -0.836516 -0.482963 1.258819 -0.482963 -0.836516 1.258819 0.0 -0.965926 1.258819 0.482963 -0.836516 1.258819 0.836516 -0.482963 1.258819 0.866025 0.5 1.0 1.0 0.0 1.0 0.5 0.866025 1.0 0.0 1.0 1.0 -0.5 0.866025 1.0 -0.866025 0.5 1.0 -1.0 0.0 1.0 -0.866025 -0.5 1.0 -0.5 -0.866025 1.0 0.0 -1.0 1.0 0.5 -0.866025 1.0 0.866025 -0.5 1.0 0.836516 0.482963 0.741181 0.965926 0.0 0.741181 0.482963 0.836516 0.741181 0.0 0.965926 0.741181 -0.482963 0.836516 0.741181 -0.836516 0.482963 0.741181 -0.965926 0.0 0.741181 -0.836516 -0.482963 0.741181 -0.482963 -0.836516 0.741181 0.0 -0.965926 0.741181 0.482963 -0.836516 0.741181 0.836516 -0.482963 0.741181 0.75 0.433013 0.5 0.866025 0.0 0.5 0.433013 0.75 0.5 0.0 0.866025 0.5 -0.433013 0.75 0.5 -0.75 0.433013 0.5 -0.866025 0.0 0.5 -0.75 -0.433013 0.5 -0.433013 -0.75 0.5 0.0 -0.866025 0.5 0.433013 -0.75 0.5 0.75 -0.433013 0.5 0.612372 0.353553 0.292893 0.707107 0.0 0.292893 0.353553 0.612372 0.292893 0.0 0.707107 0.292893 -0.353553 0.612372 0.292893 -0.612372 0.353553 0.292893 -0.707107 0.0 0.292893 -0.612372 -0.353553 0.292893 -0.353553 -0.612372 0.292893 0.0 -0.707107 0.292893 0.353553 -0.612372 0.292893 0.612372 -0.353553 0.292893 0.433013 0.25 0.133975 0.5 0.0 0.133975 0.25 0.433013 0.133975 0.0 0.5 0.133975 -0.25 0.433013 0.133975 -0.433013 0.25 0.133975 -0.5 0.0 0.133975 -0.433013 -0.25 0.133975 -0.25 -0.433013 0.133975 0.0 -0.5 0.133975 0.25 -0.433013 0.133975 0.433013 -0.25 0.133975 0.224144 0.12941 0.034074 0.258819 0.0 0.034074 0.12941 0.224144 0.034074 0.0 0.258819 0.034074 -0.12941 0.224144 0.034074 -0.224144 0.12941 0.034074 -0.258819 0.0 0.034074 -0.224144 -0.12941 0.034074 -0.12941 -0.224144 0.034074 0.0 -0.258819 0.034074 0.12941 -0.224144 0.034074 0.224144 -0.12941 0.034074 0.0 0.0 0.0</float_array>
                    <technique_common>
                        <accessor count="134" source="#geometry0-position-array" stride="3">
                            <param name="X" type="float"/>
                            <param name="Y" type="float"/>
                            <param name="Z" type="float"/>
                        </accessor>
                    </technique_common>
                </source>
                <source id="geometry0-normal">
                    <float_array id="geometry0-normal-array" count="2520">0.278684 0.278684 0.9190595 0.278684 0.278684 0.9190595 0.278684 0.278684 0.9190595 0.278684 0.278684 0.9190595 0.278684 0.278684 0.9190595 0.278684 0.278684 0.9190595 0.1020049 0.3806891 0.9190598 0.1020049 0.3806891 0.9190598 0.1020049 0.3806891 0.9190598 0.1020046 0.3806896 0.9190597 0.1020046 0.3806896 0.9190597 0.1020046 0.3806896 0.9190597 -0.102005 0.3806893 0.9190596 -0.102005 0.3806893 0.9190596 -0.102005 0.3806893 0.9190596 -0.1020045 0.3806891 0.9190598 -0.1020045 0.3806891 0.9190598 -0.1020045 0.3806891 0.9190598 -0.278684 0.278684 0.9190595 -0.278684 0.278684 0.9190595 -0.278684 0.278684 0.9190595 -0.278684 0.278684 0.9190595 -0.278684 0.278684 0.9190595 -0.278684 0.278684 0.9190595 -0.3806891 0.1020049 0.9190598 -0.3806891 0.1020049 0.9190598 -0.3806891 0.1020049 0.9190598 -0.3806896 0.1020046 0.9190597 -0.3806896 0.1020046 0.9190597 -0.3806896 0.1020046 0.9190597 -0.1304458 -0.0349526 0.9908391 -0.1304458 -0.0349526 0.9908391 -0.1304458 -0.0349526 0.9908391 1.0 0.0 0.0 1.0 0.0 0.0 -0.0954928 -0.0954928 0.9908392 -0.0954928 -0.0954928 0.9908392 -0.0954928 -0.0954928 0.9908392 1.0 0.0 0.0 1.0 0.0 0.0 -0.0349526 -0.1304458 0.9908391 -0.0349526 -0.1304458 0.9908391 -0.0349526 -0.1304458 0.9908391 1.0 0.0 0.0 1.0 0.0 0.0 0.0349526 -0.1304458 0.9908391 0.0349526 -0.1304458 0.9908391 0.0349526 -0.1304458 0.9908391 1.0 0.0 0.0 1.0 0.0 0.0 0.0954928 -0.0954928 0.9908392 0.0954928 -0.0954928 0.9908392 0.0954928 -0.0954928 0.9908392 1.0 0.0 0.0 1.0 0.0 0.0 0.1304458 -0.0349526 0.9908391 0.1304458 -0.0349526 0.9908391 0.1304458 -0.0349526 0.9908391 1.0 0.0 0.0 1.0 0.0 0.0 0.1304458 0.0349526 0.9908391 0.1304458 0.0349526 0.9908391 0.1304458 0.0349526 0.9908391 1.0 0.0 0.0 1.0 0.0 0.0 0.0954928 0.0954928 0.9908392 0.0954928 0.0954928 0.9908392 0.0954928 0.0954928 0.9908392 1.0 0.0 0.0 1.0 0.0 0.0 0.0349526 0.1304458 0.9908391 0.0349526 0.1304458 0.9908391 0.0349526 0.1304458 0.9908391 1.0 0.0 0.0 1.0 0.0 0.0 -0.0349526 0.1304458 0.9908391 -0.0349526 0.1304458 0.9908391 -0.0349526 0.1304458 0.9908391 1.0 0.0 0.0 1.0 0.0 0.0 -0.0954928 0.0954928 0.9908392 -0.0954928 0.0954928 0.9908392 -0.0954928 0.0954928 0.9908392 1.0 0.0 0.0 1.0 0.0 0.0 -0.1304458 0.0349526 0.9908391 -0.1304458 0.0349526 0.9908391 -0.1304458 0.0349526 0.9908391 1.0 0.0 0.0 1.0 0.0 0.0 1.0 0.0 0.0 1.0 0.0 0.0 -0.1304456 -0.0349525 -0.9908392 -0.1304456 -0.0349525 -0.9908392 -0.1304456 -0.0349525 -0.9908392 1.0 0.0 0.0 1.0 0.0 0.0 -0.0954926 -0.0954926 -0.9908392 -0.0954926 -0.0954926 -0.9908392 -0.0954926 -0.0954926 -0.9908392 1.0 0.0 0.0 1.0 0.0 0.0 -0.0349525 -0.1304456 -0.9908392 -0.0349525 -0.1304456 -0.9908392 -0.0349525 -0.1304456 -0.9908392 1.0 0.0 0.0 1.0 0.0 0.0 0.0349525 -0.1304456 -0.9908392 0.0349525 -0.1304456 -0.9908392 0.0349525 -0.1304456 -0.9908392 1.0 0.0 0.0 1.0 0.0 0.0 0.0954926 -0.0954926 -0.9908392 0.0954926 -0.0954926 -0.9908392 0.0954926 -0.0954926 -0.9908392 1.0 0.0 0.0 1.0 0.0 0.0 0.1304456 -0.0349525 -0.9908392 0.1304456 -0.0349525 -0.9908392 0.1304456 -0.0349525 -0.9908392 1.0 0.0 0.0 1.0 0.0 0.0 0.1304456 0.0349525 -0.9908392 0.1304456 0.0349525 -0.9908392 0.1304456 0.0349525 -0.9908392 1.0 0.0 0.0 1.0 0.0 0.0 0.0954926 0.0954926 -0.9908392 0.0954926 0.0954926 -0.9908392 0.0954926 0.0954926 -0.9908392 1.0 0.0 0.0 1.0 0.0 0.0 0.0349525 0.1304456 -0.9908392 0.0349525 0.1304456 -0.9908392 0.0349525 0.1304456 -0.9908392 1.0 0.0 0.0 1.0 0.0 0.0 -0.0349525 0.1304456 -0.9908392 -0.0349525 0.1304456 -0.9908392 -0.0349525 0.1304456 -0.9908392 1.0 0.0 0.0 1.0 0.0 0.0 -0.0954926 0.0954926 -0.9908392 -0.0954926 0.0954926 -0.9908392 -0.0954926 0.0954926 -0.9908392 1.0 0.0 0.0 1.0 0.0 0.0 -0.1304456 0.0349525 -0.9908392 -0.1304456 0.0349525 -0.9908392 -0.1304456 0.0349525 -0.9908392 -0.3806898 -0.1020047 -0.9190595 -0.3806898 -0.1020047 -0.9190595 -0.3806898 -0.1020047 -0.9190595 -0.3806894 -0.102005 -0.9190597 -0.3806894 -0.102005 -0.9190597 -0.3806894 -0.102005 -0.9190597 -0.2786842 -0.2786842 -0.9190594 -0.2786842 -0.2786842 -0.9190594 -0.2786842 -0.2786842 -0.9190594 -0.2786842 -0.2786842 -0.9190594 -0.2786842 -0.2786842 -0.9190594 -0.2786842 -0.2786842 -0.9190594 -0.1020046 -0.3806894 -0.9190596 -0.1020046 -0.3806894 -0.9190596 -0.1020046 -0.3806894 -0.9190596 -0.102005 -0.3806896 -0.9190595 -0.102005 -0.3806896 -0.9190595 -0.102005 -0.3806896 -0.9190595 0.1020047 -0.3806898 -0.9190595 0.1020047 -0.3806898 -0.9190595 0.1020047 -0.3806898 -0.9190595 0.102005 -0.3806894 -0.9190597 0.102005 -0.3806894 -0.9190597 0.102005 -0.3806894 -0.9190597 0.2786842 -0.2786842 -0.9190594 0.2786842 -0.2786842 -0.9190594 0.2786842 -0.2786842 -0.9190594 0.2786842 -0.2786842 -0.9190594 0.2786842 -0.2786842 -0.9190594 0.2786842 -0.2786842 -0.9190594 0.3806894 -0.1020046 -0.9190596 0.3806894 -0.1020046 -0.9190596 0.3806894 -0.1020046 -0.9190596 0.3806896 -0.102005 -0.9190595 0.3806896 -0.102005 -0.9190595 0.3806896 -0.102005 -0.9190595 0.3806898 0.1020047 -0.9190595 0.3806898 0.1020047 -0.9190595 0.3806898 0.1020047 -0.9190595 0.3806894 0.102005 -0.9190597 0.3806894 0.102005 -0.9190597 0.3806894 0.102005 -0.9190597 0.2786842 0.2786842 -0.9190594 0.2786842 0.2786842 -0.9190594 0.2786842 0.2786842 -0.9190594 0.2786842 0.2786842 -0.9190594 0.2786842 0.2786842 -0.9190594 0.2786842 0.2786842 -0.9190594 0.1020046 0.3806894 -0.9190596 0.1020046 0.3806894 -0.9190596 0.1020046 0.3806894 -0.9190596 0.102005 0.3806896 -0.9190595 0.102005 0.3806896 -0.9190595 0.102005 0.3806896 -0.9190595 -0.1020047 0.3806898 -0.9190595 -0.1020047 0.3806898 -0.9190595 -0.1020047 0.3806898 -0.9190595 -0.102005 0.3806894 -0.9190597 -0.102005 0.3806894 -0.9190597 -0.102005 0.3806894 -0.9190597 -0.2786842 0.2786842 -0.9190594 -0.2786842 0.2786842 -0.9190594 -0.2786842 0.2786842 -0.9190594 -0.2786842 0.2786842 -0.9190594 -0.2786842 0.2786842 -0.9190594 -0.2786842 0.2786842 -0.9190594 -0.3806894 0.1020046 -0.9190596 -0.3806894 0.1020046 -0.9190596 -0.3806894 0.1020046 -0.9190596 -0.3806896 0.102005 -0.9190595 -0.3806896 0.102005 -0.9190595 -0.3806896 0.102005 -0.9190595 -0.6008212 -0.1609889 -0.7830048 -0.6008212 -0.1609889 -0.7830048 -0.6008212 -0.1609889 -0.7830048 -0.6008189 -0.1609903 -0.7830063 -0.6008189 -0.1609903 -0.7830063 -0.6008189 -0.1609903 -0.7830063 -0.4398314 -0.4398314 -0.7830049 -0.4398314 -0.4398314 -0.7830049 -0.4398314 -0.4398314 -0.7830049 -0.4398314 -0.4398314 -0.7830049 -0.4398314 -0.4398314 -0.7830049 -0.4398314 -0.4398314 -0.7830049 -0.1609883 -0.6008191 -0.7830065 -0.1609883 -0.6008191 -0.7830065 -0.1609883 -0.6008191 -0.7830065 -0.1609907 -0.6008204 -0.783005 -0.1609907 -0.6008204 -0.783005 -0.1609907 -0.6008204 -0.783005 0.1609889 -0.6008212 -0.7830048 0.1609889 -0.6008212 -0.7830048 0.1609889 -0.6008212 -0.7830048 0.1609903 -0.6008189 -0.7830063 0.1609903 -0.6008189 -0.7830063 0.1609903 -0.6008189 -0.7830063 0.4398314 -0.4398314 -0.7830049 0.4398314 -0.4398314 -0.7830049 0.4398314 -0.4398314 -0.7830049 0.4398314 -0.4398314 -0.7830049 0.4398314 -0.4398314 -0.7830049 0.4398314 -0.4398314 -0.7830049 0.6008191 -0.1609883 -0.7830065 0.6008191 -0.1609883 -0.7830065 0.6008191 -0.1609883 -0.7830065 0.6008204 -0.1609907 -0.783005 0.6008204 -0.1609907 -0.783005 0.6008204 -0.1609907 -0.783005 0.6008212 0.1609889 -0.7830048 0.6008212 0.1609889 -0.7830048 0.6008212 0.1609889 -0.7830048 0.6008189 0.1609903 -0.7830063 0.6008189 0.1609903 -0.7830063 0.6008189 0.1609903 -0.7830063 0.4398314 0.4398314 -0.7830049 0.4398314 0.4398314 -0.7830049 0.4398314 0.4398314 -0.7830049 0.4398314 0.4398314 -0.7830049 0.4398314 0.4398314 -0.7830049 0.4398314 0.4398314 -0.7830049 0.1609883 0.6008191 -0.7830065 0.1609883 0.6008191 -0.7830065 0.1609883 0.6008191 -0.7830065 0.1609907 0.6008204 -0.783005 0.1609907 0.6008204 -0.783005 0.1609907 0.6008204 -0.783005 -0.1609889 0.6008212 -0.7830048 -0.1609889 0.6008212 -0.7830048 -0.1609889 0.6008212 -0.7830048 -0.1609903 0.6008189 -0.7830063 -0.1609903 0.6008189 -0.7830063 -0.1609903 0.6008189 -0.7830063 -0.4398314 0.4398314 -0.7830049 -0.4398314 0.4398314 -0.7830049 -0.4398314 0.4398314 -0.7830049 -0.4398314 0.4398314 -0.7830049 -0.4398314 0.4398314 -0.7830049 -0.4398314 0.4398314 -0.7830049 -0.6008191 0.1609883 -0.7830065 -0.6008191 0.1609883 -0.7830065 -0.6008191 0.1609883 -0.7830065 -0.6008204 0.1609907 -0.783005 -0.6008204 0.1609907 -0.783005 -0.6008204 0.1609907 -0.783005 -0.7760118 -0.2079334 -0.5954573 -0.7760118 -0.2079334 -0.5954573 -0.7760118 -0.2079334 -0.5954573 -0.7760147 -0.2079316 -0.595454 -0.7760147 -0.2079316 -0.595454 -0.7760147 -0.2079316 -0.595454 -0.5680802 -0.5680802 -0.5954576 -0.5680802 -0.5680802 -0.5954576 -0.5680802 -0.5680802 -0.5954576 -0.5680802 -0.5680802 -0.5954577 -0.5680802 -0.5680802 -0.5954577 -0.5680802 -0.5680802 -0.5954577 -0.2079341 -0.7760144 -0.5954538 -0.2079341 -0.7760144 -0.5954538 -0.2079341 -0.7760144 -0.5954538 -0.2079311 -0.7760127 -0.5954571 -0.2079311 -0.7760127 -0.5954571 -0.2079311 -0.7760127 -0.5954571 0.2079334 -0.7760118 -0.5954573 0.2079334 -0.7760118 -0.5954573 0.2079334 -0.7760118 -0.5954573 0.2079316 -0.7760147 -0.595454 0.2079316 -0.7760147 -0.595454 0.2079316 -0.7760147 -0.595454 0.5680802 -0.5680802 -0.5954576 0.5680802 -0.5680802 -0.5954576 0.5680802 -0.5680802 -0.5954576 0.5680802 -0.5680802 -0.5954577 0.5680802 -0.5680802 -0.5954577 0.5680802 -0.5680802 -0.5954577 0.7760144 -0.2079341 -0.5954538 0.7760144 -0.2079341 -0.5954538 0.7760144 -0.2079341 -0.5954538 0.7760127 -0.2079311 -0.5954571 0.7760127 -0.2079311 -0.5954571 0.7760127 -0.2079311 -0.5954571 0.7760118 0.2079334 -0.5954573 0.7760118 0.2079334 -0.5954573 0.7760118 0.2079334 -0.5954573 0.7760147 0.2079316 -0.595454 0.7760147 0.2079316 -0.595454 0.7760147 0.2079316 -0.595454 0.5680802 0.5680802 -0.5954576 0.5680802 0.5680802 -0.5954576 0.5680802 0.5680802 -0.5954576 0.5680802 0.5680802 -0.5954577 0.5680802 0.5680802 -0.5954577 0.5680802 0.5680802 -0.5954577 0.2079341 0.7760144 -0.5954538 0.2079341 0.7760144 -0.5954538 0.2079341 0.7760144 -0.5954538 0.2079311 0.7760127 -0.5954571 0.2079311 0.7760127 -0.5954571 0.2079311 0.7760127 -0.5954571 -0.2079334 0.7760118 -0.5954573 -0.2079334 0.7760118 -0.5954573 -0.2079334 0.7760118 -0.5954573 -0.2079316 0.7760147 -0.595454 -0.2079316 0.7760147 -0.595454 -0.2079316 0.7760147 -0.595454 -0.5680802 0.5680802 -0.5954576 -0.5680802 0.5680802 -0.5954576 -0.5680802 0.5680802 -0.5954576 -0.5680802 0.5680802 -0.5954577 -0.5680802 0.5680802 -0.5954577 -0.5680802 0.5680802 -0.5954577 -0.7760144 0.2079341 -0.5954538 -0.7760144 0.2079341 -0.5954538 -0.7760144 0.2079341 -0.5954538 -0.7760127 0.2079311 -0.5954571 -0.7760127 0.2079311 -0.5954571 -0.7760127 0.2079311 -0.5954571 -0.8968096 -0.2402984 -0.3714691 -0.8968096 -0.2402984 -0.3714691 -0.8968096 -0.2402984 -0.3714691 -0.8968079 -0.2402997 -0.3714721 -0.8968079 -0.2402997 -0.3714721 -0.8968079 -0.2402997 -0.3714721 -0.6565099 -0.6565099 -0.3714691 -0.6565099 -0.6565099 -0.3714691 -0.6565099 -0.6565099 -0.3714691 -0.6565099 -0.6565099 -0.3714692 -0.6565099 -0.6565099 -0.3714692 -0.6565099 -0.6565099 -0.3714692 -0.240298 -0.8968083 -0.3714723 -0.240298 -0.8968083 -0.3714723 -0.240298 -0.8968083 -0.3714723 -0.2403 -0.896809 -0.3714693 -0.2403 -0.896809 -0.3714693 -0.2403 -0.896809 -0.3714693 0.2402984 -0.8968096 -0.3714691 0.2402984 -0.8968096 -0.3714691 0.2402984 -0.8968096 -0.3714691 0.2402997 -0.8968079 -0.3714721 0.2402997 -0.8968079 -0.3714721 0.2402997 -0.8968079 -0.3714721 0.6565099 -0.6565099 -0.3714691 0.6565099 -0.6565099 -0.3714691 0.6565099 -0.6565099 -0.3714691 0.6565099 -0.6565099 -0.3714692 0.6565099 -0.6565099 -0.3714692 0.6565099 -0.6565099 -0.3714692 0.8968083 -0.240298 -0.3714723 0.8968083 -0.240298 -0.3714723 0.8968083 -0.240298 -0.3714723 0.896809 -0.2403 -0.3714693 0.896809 -0.2403 -0.3714693 0.896809 -0.2403 -0.3714693 0.8968096 0.2402984 -0.3714691 0.8968096 0.2402984 -0.3714691 0.8968096 0.2402984 -0.3714691 0.8968079 0.2402997 -0.3714721 0.8968079 0.2402997 -0.3714721 0.8968079 0.2402997 -0.3714721 0.6565099 0.6565099 -0.3714691 0.6565099 0.6565099 -0.3714691 0.6565099 0.6565099 -0.3714691 0.6565099 0.6565099 -0.3714692 0.6565099 0.6565099 -0.3714692 0.6565099 0.6565099 -0.3714692 0.240298 0.8968083 -0.3714723 0.240298 0.8968083 -0.3714723 0.240298 0.8968083 -0.3714723 0.2403 0.896809 -0.3714693 0.2403 0.896809 -0.3714693 0.2403 0.896809 -0.3714693 -0.2402984 0.8968096 -0.3714691 -0.2402984 0.8968096 -0.3714691 -0.2402984 0.8968096 -0.3714691 -0.2402997 0.8968079 -0.3714721 -0.2402997 0.8968079 -0.3714721 -0.2402997 0.8968079 -0.3714721 -0.6565099 0.6565099 -0.3714691 -0.6565099 0.6565099 -0.3714691 -0.6565099 0.6565099 -0.3714691 -0.6565099 0.6565099 -0.3714692 -0.6565099 0.6565099 -0.3714692 -0.6565099 0.6565099 -0.3714692 -0.8968083 0.240298 -0.3714723 -0.8968083 0.240298 -0.3714723 -0.8968083 0.240298 -0.3714723 -0.896809 0.2403 -0.3714693 -0.896809 0.2403 -0.3714693 -0.896809 0.2403 -0.3714693 -0.958209 -0.2567522 -0.12615 -0.958209 -0.2567522 -0.12615 -0.958209 -0.2567522 -0.12615 -0.958209 -0.2567522 -0.12615 -0.958209 -0.2567522 -0.12615 -0.958209 -0.2567522 -0.12615 -0.7014578 -0.7014578 -0.12615 -0.7014578 -0.7014578 -0.12615 -0.7014578 -0.7014578 -0.12615 -0.7014578 -0.7014578 -0.12615 -0.7014578 -0.7014578 -0.12615 -0.7014578 -0.7014578 -0.12615 -0.2567522 -0.958209 -0.12615 -0.2567522 -0.958209 -0.12615 -0.2567522 -0.958209 -0.12615 -0.2567522 -0.958209 -0.12615 -0.2567522 -0.958209 -0.12615 -0.2567522 -0.958209 -0.12615 0.2567522 -0.958209 -0.12615 0.2567522 -0.958209 -0.12615 0.2567522 -0.958209 -0.12615 0.2567522 -0.958209 -0.12615 0.2567522 -0.958209 -0.12615 0.2567522 -0.958209 -0.12615 0.7014578 -0.7014578 -0.12615 0.7014578 -0.7014578 -0.12615 0.7014578 -0.7014578 -0.12615 0.7014578 -0.7014578 -0.12615 0.7014578 -0.7014578 -0.12615 0.7014578 -0.7014578 -0.12615 0.958209 -0.2567522 -0.12615 0.958209 -0.2567522 -0.12615 0.958209 -0.2567522 -0.12615 0.958209 -0.2567522 -0.12615 0.958209 -0.2567522 -0.12615 0.958209 -0.2567522 -0.12615 0.958209 0.2567522 -0.12615 0.958209 0.2567522 -0.12615 0.958209 0.2567522 -0.12615 0.958209 0.2567522 -0.12615 0.958209 0.2567522 -0.12615 0.958209 0.2567522 -0.12615 0.7014578 0.7014578 -0.12615 0.7014578 0.7014578 -0.12615 0.7014578 0.7014578 -0.12615 0.7014578 0.7014578 -0.12615 0.7014578 0.7014578 -0.12615 0.7014578 0.7014578 -0.12615 0.2567522 0.958209 -0.12615 0.2567522 0.958209 -0.12615 0.2567522 0.958209 -0.12615 0.2567522 0.958209 -0.12615 0.2567522 0.958209 -0.12615 0.2567522 0.958209 -0.12615 -0.2567522 0.958209 -0.12615 -0.2567522 0.958209 -0.12615 -0.2567522 0.958209 -0.12615 -0.2567522 0.958209 -0.12615 -0.2567522 0.958209 -0.12615 -0.2567522 0.958209 -0.12615 -0.7014578 0.7014578 -0.12615 -0.7014578 0.7014578 -0.12615 -0.7014578 0.7014578 -0.12615 -0.7014578 0.7014578 -0.12615 -0.7014578 0.7014578 -0.12615 -0.7014578 0.7014578 -0.12615 -0.958209 0.2567522 -0.12615 -0.958209 0.2567522 -0.12615 -0.958209 0.2567522 -0.12615 -0.958209 0.2567522 -0.12615 -0.958209 0.2567522 -0.12615 -0.958209 0.2567522 -0.12615 -0.958209 -0.2567522 0.1261501 -0.958209 -0.2567522 0.1261501 -0.958209 -0.2567522 0.1261501 -0.958209 -0.2567522 0.12615 -0.958209 -0.2567522 0.12615 -0.958209 -0.2567522 0.12615 -0.7014578 -0.7014578 0.12615 -0.7014578 -0.7014578 0.12615 -0.7014578 -0.7014578 0.12615 -0.7014578 -0.7014578 0.12615 -0.7014578 -0.7014578 0.12615 -0.7014578 -0.7014578 0.12615 -0.2567522 -0.958209 0.12615 -0.2567522 -0.958209 0.12615 -0.2567522 -0.958209 0.12615 -0.2567522 -0.958209 0.12615 -0.2567522 -0.958209 0.12615 -0.2567522 -0.958209 0.12615 0.2567522 -0.958209 0.1261501 0.2567522 -0.958209 0.1261501 0.2567522 -0.958209 0.1261501 0.2567522 -0.958209 0.12615 0.2567522 -0.958209 0.12615 0.2567522 -0.958209 0.12615 0.7014578 -0.7014578 0.12615 0.7014578 -0.7014578 0.12615 0.7014578 -0.7014578 0.12615 0.7014578 -0.7014578 0.12615 0.7014578 -0.7014578 0.12615 0.7014578 -0.7014578 0.12615 0.958209 -0.2567522 0.12615 0.958209 -0.2567522 0.12615 0.958209 -0.2567522 0.12615 0.958209 -0.2567522 0.12615 0.958209 -0.2567522 0.12615 0.958209 -0.2567522 0.12615 0.958209 0.2567522 0.1261501 0.958209 0.2567522 0.1261501 0.958209 0.2567522 0.1261501 0.958209 0.2567522 0.12615 0.958209 0.2567522 0.12615 0.958209 0.2567522 0.12615 0.7014578 0.7014578 0.12615 0.7014578 0.7014578 0.12615 0.7014578 0.7014578 0.12615 0.7014578 0.7014578 0.12615 0.7014578 0.7014578 0.12615 0.7014578 0.7014578 0.12615 0.2567522 0.958209 0.12615 0.2567522 0.958209 0.12615 0.2567522 0.958209 0.12615 0.2567522 0.958209 0.12615 0.2567522 0.958209 0.12615 0.2567522 0.958209 0.12615 -0.2567522 0.958209 0.1261501 -0.2567522 0.958209 0.1261501 -0.2567522 0.958209 0.1261501 -0.2567522 0.958209 0.12615 -0.2567522 0.958209 0.12615 -0.2567522 0.958209 0.12615 -0.7014578 0.7014578 0.12615 -0.7014578 0.7014578 0.12615 -0.7014578 0.7014578 0.12615 -0.7014578 0.7014578 0.12615 -0.7014578 0.7014578 0.12615 -0.7014578 0.7014578 0.12615 -0.958209 0.2567522 0.12615 -0.958209 0.2567522 0.12615 -0.958209 0.2567522 0.12615 -0.958209 0.2567522 0.12615 -0.958209 0.2567522 0.12615 -0.958209 0.2567522 0.12615 -0.896809 -0.2403 0.3714693 -0.896809 -0.2403 0.3714693 -0.896809 -0.2403 0.3714693 -0.8968083 -0.240298 0.3714723 -0.8968083 -0.240298 0.3714723 -0.8968083 -0.240298 0.3714723 -0.6565099 -0.6565099 0.3714691 -0.6565099 -0.6565099 0.3714691 -0.6565099 -0.6565099 0.3714691 -0.6565099 -0.6565099 0.3714691 -0.6565099 -0.6565099 0.3714691 -0.6565099 -0.6565099 0.3714691 -0.2402997 -0.8968079 0.3714722 -0.2402997 -0.8968079 0.3714722 -0.2402997 -0.8968079 0.3714722 -0.2402984 -0.8968096 0.3714691 -0.2402984 -0.8968096 0.3714691 -0.2402984 -0.8968096 0.3714691 0.2403 -0.896809 0.3714693 0.2403 -0.896809 0.3714693 0.2403 -0.896809 0.3714693 0.240298 -0.8968083 0.3714723 0.240298 -0.8968083 0.3714723 0.240298 -0.8968083 0.3714723 0.6565099 -0.6565099 0.3714691 0.6565099 -0.6565099 0.3714691 0.6565099 -0.6565099 0.3714691 0.6565099 -0.6565099 0.3714691 0.6565099 -0.6565099 0.3714691 0.6565099 -0.6565099 0.3714691 0.8968079 -0.2402997 0.3714722 0.8968079 -0.2402997 0.3714722 0.8968079 -0.2402997 0.3714722 0.8968096 -0.2402984 0.3714691 0.8968096 -0.2402984 0.3714691 0.8968096 -0.2402984 0.3714691 0.896809 0.2403 0.3714693 0.896809 0.2403 0.3714693 0.896809 0.2403 0.3714693 0.8968083 0.240298 0.3714723 0.8968083 0.240298 0.3714723 0.8968083 0.240298 0.3714723 0.6565099 0.6565099 0.3714691 0.6565099 0.6565099 0.3714691 0.6565099 0.6565099 0.3714691 0.6565099 0.6565099 0.3714691 0.6565099 0.6565099 0.3714691 0.6565099 0.6565099 0.3714691 0.2402997 0.8968079 0.3714722 0.2402997 0.8968079 0.3714722 0.2402997 0.8968079 0.3714722 0.2402984 0.8968096 0.3714691 0.2402984 0.8968096 0.3714691 0.2402984 0.8968096 0.3714691 -0.2403 0.896809 0.3714693 -0.2403 0.896809 0.3714693 -0.2403 0.896809 0.3714693 -0.240298 0.8968083 0.3714723 -0.240298 0.8968083 0.3714723 -0.240298 0.8968083 0.3714723 -0.6565099 0.6565099 0.3714691 -0.6565099 0.6565099 0.3714691 -0.6565099 0.6565099 0.3714691 -0.6565099 0.6565099 0.3714691 -0.6565099 0.6565099 0.3714691 -0.6565099 0.6565099 0.3714691 -0.8968079 0.2402997 0.3714722 -0.8968079 0.2402997 0.3714722 -0.8968079 0.2402997 0.3714722 -0.8968096 0.2402984 0.3714691 -0.8968096 0.2402984 0.3714691 -0.8968096 0.2402984 0.3714691 -0.7760128 -0.2079311 0.5954569 -0.7760128 -0.2079311 0.5954569 -0.7760128 -0.2079311 0.5954569 -0.7760144 -0.2079342 0.5954537 -0.7760144 -0.2079342 0.5954537 -0.7760144 -0.2079342 0.5954537 -0.5680802 -0.5680802 0.5954575 -0.5680802 -0.5680802 0.5954575 -0.5680802 -0.5680802 0.5954575 -0.5680803 -0.5680803 0.5954575 -0.5680803 -0.5680803 0.5954575 -0.5680803 -0.5680803 0.5954575 -0.2079316 -0.7760148 0.595454 -0.2079316 -0.7760148 0.595454 -0.2079316 -0.7760148 0.595454 -0.2079335 -0.7760118 0.5954573 -0.2079335 -0.7760118 0.5954573 -0.2079335 -0.7760118 0.5954573 0.2079311 -0.7760128 0.5954569 0.2079311 -0.7760128 0.5954569 0.2079311 -0.7760128 0.5954569 0.2079342 -0.7760144 0.5954537 0.2079342 -0.7760144 0.5954537 0.2079342 -0.7760144 0.5954537 0.5680802 -0.5680802 0.5954575 0.5680802 -0.5680802 0.5954575 0.5680802 -0.5680802 0.5954575 0.5680803 -0.5680803 0.5954575 0.5680803 -0.5680803 0.5954575 0.5680803 -0.5680803 0.5954575 0.7760148 -0.2079316 0.595454 0.7760148 -0.2079316 0.595454 0.7760148 -0.2079316 0.595454 0.7760118 -0.2079335 0.5954573 0.7760118 -0.2079335 0.5954573 0.7760118 -0.2079335 0.5954573 0.7760128 0.2079311 0.5954569 0.7760128 0.2079311 0.5954569 0.7760128 0.2079311 0.5954569 0.7760144 0.2079342 0.5954537 0.7760144 0.2079342 0.5954537 0.7760144 0.2079342 0.5954537 0.5680802 0.5680802 0.5954575 0.5680802 0.5680802 0.5954575 0.5680802 0.5680802 0.5954575 0.5680803 0.5680803 0.5954575 0.5680803 0.5680803 0.5954575 0.5680803 0.5680803 0.5954575 0.2079316 0.7760148 0.595454 0.2079316 0.7760148 0.595454 0.2079316 0.7760148 0.595454 0.2079335 0.7760118 0.5954573 0.2079335 0.7760118 0.5954573 0.2079335 0.7760118 0.5954573 -0.2079311 0.7760128 0.5954569 -0.2079311 0.7760128 0.5954569 -0.2079311 0.7760128 0.5954569 -0.2079342 0.7760144 0.5954537 -0.2079342 0.7760144 0.5954537 -0.2079342 0.7760144 0.5954537 -0.5680802 0.5680802 0.5954575 -0.5680802 0.5680802 0.5954575 -0.5680802 0.5680802 0.5954575 -0.5680803 0.5680803 0.5954575 -0.5680803 0.5680803 0.5954575 -0.5680803 0.5680803 0.5954575 -0.7760148 0.2079316 0.595454 -0.7760148 0.2079316 0.595454 -0.7760148 0.2079316 0.595454 -0.7760118 0.2079335 0.5954573 -0.7760118 0.2079335 0.5954573 -0.7760118 0.2079335 0.5954573 -0.6008203 -0.1609907 0.7830051 -0.6008203 -0.1609907 0.7830051 -0.6008203 -0.1609907 0.7830051 -0.600819 -0.1609883 0.7830065 -0.600819 -0.1609883 0.7830065 -0.600819 -0.1609883 0.7830065 -0.4398314 -0.4398314 0.783005 -0.4398314 -0.4398314 0.783005 -0.4398314 -0.4398314 0.783005 -0.4398314 -0.4398314 0.7830049 -0.4398314 -0.4398314 0.7830049 -0.4398314 -0.4398314 0.7830049 -0.1609903 -0.6008189 0.7830064 -0.1609903 -0.6008189 0.7830064 -0.1609903 -0.6008189 0.7830064 -0.1609888 -0.6008211 0.7830048 -0.1609888 -0.6008211 0.7830048 -0.1609888 -0.6008211 0.7830048 0.1609907 -0.6008203 0.7830051 0.1609907 -0.6008203 0.7830051 0.1609907 -0.6008203 0.7830051 0.1609883 -0.600819 0.7830065 0.1609883 -0.600819 0.7830065 0.1609883 -0.600819 0.7830065 0.4398314 -0.4398314 0.783005 0.4398314 -0.4398314 0.783005 0.4398314 -0.4398314 0.783005 0.4398314 -0.4398314 0.7830049 0.4398314 -0.4398314 0.7830049 0.4398314 -0.4398314 0.7830049 0.6008189 -0.1609903 0.7830064 0.6008189 -0.1609903 0.7830064 0.6008189 -0.1609903 0.7830064 0.6008211 -0.1609888 0.7830048 0.6008211 -0.1609888 0.7830048 0.6008211 -0.1609888 0.7830048 0.6008203 0.1609907 0.7830051 0.6008203 0.1609907 0.7830051 0.6008203 0.1609907 0.7830051 0.600819 0.1609883 0.7830065 0.600819 0.1609883 0.7830065 0.600819 0.1609883 0.7830065 0.4398314 0.4398314 0.783005 0.4398314 0.4398314 0.783005 0.4398314 0.4398314 0.783005 0.4398314 0.4398314 0.7830049 0.4398314 0.4398314 0.7830049 0.4398314 0.4398314 0.7830049 0.1609903 0.6008189 0.7830064 0.1609903 0.6008189 0.7830064 0.1609903 0.6008189 0.7830064 0.1609888 0.6008211 0.7830048 0.1609888 0.6008211 0.7830048 0.1609888 0.6008211 0.7830048 -0.1609907 0.6008203 0.7830051 -0.1609907 0.6008203 0.7830051 -0.1609907 0.6008203 0.7830051 -0.1609883 0.600819 0.7830065 -0.1609883 0.600819 0.7830065 -0.1609883 0.600819 0.7830065 -0.4398314 0.4398314 0.783005 -0.4398314 0.4398314 0.783005 -0.4398314 0.4398314 0.783005 -0.4398314 0.4398314 0.7830049 -0.4398314 0.4398314 0.7830049 -0.4398314 0.4398314 0.7830049 -0.6008189 0.1609903 0.7830064 -0.6008189 0.1609903 0.7830064 -0.6008189 0.1609903 0.7830064 -0.6008211 0.1609888 0.7830048 -0.6008211 0.1609888 0.7830048 -0.6008211 0.1609888 0.7830048 -0.3806893 -0.102005 0.9190596 -0.3806893 -0.102005 0.9190596 -0.3806893 -0.102005 0.9190596 -0.3806891 -0.1020045 0.9190598 -0.3806891 -0.1020045 0.9190598 -0.3806891 -0.1020045 0.9190598 -0.278684 -0.278684 0.9190595 -0.278684 -0.278684 0.9190595 -0.278684 -0.278684 0.9190595 -0.278684 -0.278684 0.9190595 -0.278684 -0.278684 0.9190595 -0.278684 -0.278684 0.9190595 -0.1020049 -0.3806891 0.9190598 -0.1020049 -0.3806891 0.9190598 -0.1020049 -0.3806891 0.9190598 -0.1020046 -0.3806896 0.9190597 -0.1020046 -0.3806896 0.9190597 -0.1020046 -0.3806896 0.9190597 0.102005 -0.3806893 0.9190596 0.102005 -0.3806893 0.9190596 0.102005 -0.3806893 0.9190596 0.1020045 -0.3806891 0.9190598 0.1020045 -0.3806891 0.9190598 0.1020045 -0.3806891 0.9190598 0.278684 -0.278684 0.9190595 0.278684 -0.278684 0.9190595 0.278684 -0.278684 0.9190595 0.278684 -0.278684 0.9190595 0.278684 -0.278684 0.9190595 0.278684 -0.278684 0.9190595 0.3806891 -0.1020049 0.9190598 0.3806891 -0.1020049 0.9190598 0.3806891 -0.1020049 0.9190598 0.3806896 -0.1020046 0.9190597 0.3806896 -0.1020046 0.9190597 0.3806896 -0.1020046 0.9190597 0.3806893 0.102005 0.9190596 0.3806893 0.102005 0.9190596 0.3806893 0.102005 0.9190596 0.3806891 0.1020045 0.9190598 0.3806891 0.1020045 0.9190598 0.3806891 0.1020045 0.9190598</float_array>
                    <technique_common>
                        <accessor count="840" source="#geometry0-normal-array" stride="3">
                            <param name="X" type="float"/>
                            <param name="Y" type="float"/>
                            <param name="Z" type="float"/>
                        </accessor>
                    </technique_common>
                </source>
                <vertices id="geometry0-vertex">
                    <input semantic="POSITION" source="#geometry0-position"/>
                </vertices>
                <triangles count="288" material="default_ai_0.2_sh_0.2_tr_0.0_dc_r_0.8_g_0.8_b_0.8_sc_r_1.0_g_1.0_b_1.0_ec_r_0.0_g_0.0_b_0_tri">
                    <input offset="0" semantic="VERTEX" source="#geometry0-vertex"/>
                    <input offset="1" semantic="NORMAL" source="#geometry0-normal"/>
                    <p>116 0 117 1 129 2 116 3 129 4 128 5 117 6 118 7 130 8 117 9 130 10 129 11 118 12 119 13 131 14 118 15 131 16 130 17 119 18 120 19 132 20 119 21 132 22 131 23 120 24 110 25 122 26 120 27 122 28 132 29 122 30 121 31 133 32 122 33 133 34 133 34 121 35 123 36 133 37 121 38 133 39 133 39 123 40 124 41 133 42 123 43 133 44 133 44 124 45 125 46 133 47 124 48 133 49 133 49 125 50 126 51 133 52 125 53 133 54 133 54 126 55 127 56 133 57 126 58 133 59 133 59 127 60 128 61 133 62 127 63 133 64 133 64 128 65 129 66 133 67 128 68 133 69 133 69 129 70 130 71 133 72 129 73 133 74 133 74 130 75 131 76 133 77 130 78 133 79 133 79 131 80 132 81 133 82 131 83 133 84 133 84 132 85 122 86 133 87 132 88 133 89 133 89 0 90 0 90 1 91 0 92 1 93 2 94 0 95 0 95 3 96 0 97 3 98 1 99 0 100 0 100 4 101 0 102 4 103 3 104 0 105 0 105 5 106 0 107 5 108 4 109 0 110 0 110 6 111 0 112 6 113 5 114 0 115 0 115 7 116 0 117 7 118 6 119 0 120 0 120 8 121 0 122 8 123 7 124 0 125 0 125 9 126 0 127 9 128 8 129 0 130 0 130 10 131 0 132 10 133 9 134 0 135 0 135 11 136 0 137 11 138 10 139 0 140 0 140 12 141 0 142 12 143 11 144 0 145 0 145 2 146 0 147 2 148 12 149 2 150 1 151 13 152 2 153 13 154 14 155 1 156 3 157 15 158 1 159 15 160 13 161 3 162 4 163 16 164 3 165 16 166 15 167 4 168 5 169 17 170 4 171 17 172 16 173 5 174 6 175 18 176 5 177 18 178 17 179 6 180 7 181 19 182 6 183 19 184 18 185 7 186 8 187 20 188 7 189 20 190 19 191 8 192 9 193 21 194 8 195 21 196 20 197 9 198 10 199 22 200 9 201 22 202 21 203 10 204 11 205 23 206 10 207 23 208 22 209 11 210 12 211 24 212 11 213 24 214 23 215 12 216 2 217 14 218 12 219 14 220 24 221 14 222 13 223 25 224 14 225 25 226 26 227 13 228 15 229 27 230 13 231 27 232 25 233 15 234 16 235 28 236 15 237 28 238 27 239 16 240 17 241 29 242 16 243 29 244 28 245 17 246 18 247 30 248 17 249 30 250 29 251 18 252 19 253 31 254 18 255 31 256 30 257 19 258 20 259 32 260 19 261 32 262 31 263 20 264 21 265 33 266 20 267 33 268 32 269 21 270 22 271 34 272 21 273 34 274 33 275 22 276 23 277 35 278 22 279 35 280 34 281 23 282 24 283 36 284 23 285 36 286 35 287 24 288 14 289 26 290 24 291 26 292 36 293 26 294 25 295 37 296 26 297 37 298 38 299 25 300 27 301 39 302 25 303 39 304 37 305 27 306 28 307 40 308 27 309 40 310 39 311 28 312 29 313 41 314 28 315 41 316 40 317 29 318 30 319 42 320 29 321 42 322 41 323 30 324 31 325 43 326 30 327 43 328 42 329 31 330 32 331 44 332 31 333 44 334 43 335 32 336 33 337 45 338 32 339 45 340 44 341 33 342 34 343 46 344 33 345 46 346 45 347 34 348 35 349 47 350 34 351 47 352 46 353 35 354 36 355 48 356 35 357 48 358 47 359 36 360 26 361 38 362 36 363 38 364 48 365 38 366 37 367 49 368 38 369 49 370 50 371 37 372 39 373 51 374 37 375 51 376 49 377 39 378 40 379 52 380 39 381 52 382 51 383 40 384 41 385 53 386 40 387 53 388 52 389 41 390 42 391 54 392 41 393 54 394 53 395 42 396 43 397 55 398 42 399 55 400 54 401 43 402 44 403 56 404 43 405 56 406 55 407 44 408 45 409 57 410 44 411 57 412 56 413 45 414 46 415 58 416 45 417 58 418 57 419 46 420 47 421 59 422 46 423 59 424 58 425 47 426 48 427 60 428 47 429 60 430 59 431 48 432 38 433 50 434 48 435 50 436 60 437 50 438 49 439 61 440 50 441 61 442 62 443 49 444 51 445 63 446 49 447 63 448 61 449 51 450 52 451 64 452 51 453 64 454 63 455 52 456 53 457 65 458 52 459 65 460 64 461 53 462 54 463 66 464 53 465 66 466 65 467 54 468 55 469 67 470 54 471 67 472 66 473 55 474 56 475 68 476 55 477 68 478 67 479 56 480 57 481 69 482 56 483 69 484 68 485 57 486 58 487 70 488 57 489 70 490 69 491 58 492 59 493 71 494 58 495 71 496 70 497 59 498 60 499 72 500 59 501 72 502 71 503 60 504 50 505 62 506 60 507 62 508 72 509 62 510 61 511 73 512 62 513 73 514 74 515 61 516 63 517 75 518 61 519 75 520 73 521 63 522 64 523 76 524 63 525 76 526 75 527 64 528 65 529 77 530 64 531 77 532 76 533 65 534 66 535 78 536 65 537 78 538 77 539 66 540 67 541 79 542 66 543 79 544 78 545 67 546 68 547 80 548 67 549 80 550 79 551 68 552 69 553 81 554 68 555 81 556 80 557 69 558 70 559 82 560 69 561 82 562 81 563 70 564 71 565 83 566 70 567 83 568 82 569 71 570 72 571 84 572 71 573 84 574 83 575 72 576 62 577 74 578 72 579 74 580 84 581 74 582 73 583 85 584 74 585 85 586 86 587 73 588 75 589 87 590 73 591 87 592 85 593 75 594 76 595 88 596 75 597 88 598 87 599 76 600 77 601 89 602 76 603 89 604 88 605 77 606 78 607 90 608 77 609 90 610 89 611 78 612 79 613 91 614 78 615 91 616 90 617 79 618 80 619 92 620 79 621 92 622 91 623 80 624 81 625 93 626 80 627 93 628 92 629 81 630 82 631 94 632 81 633 94 634 93 635 82 636 83 637 95 638 82 639 95 640 94 641 83 642 84 643 96 644 83 645 96 646 95 647 84 648 74 649 86 650 84 651 86 652 96 653 86 654 85 655 97 656 86 657 97 658 98 659 85 660 87 661 99 662 85 663 99 664 97 665 87 666 88 667 100 668 87 669 100 670 99 671 88 672 89 673 101 674 88 675 101 676 100 677 89 678 90 679 102 680 89 681 102 682 101 683 90 684 91 685 103 686 90 687 103 688 102 689 91 690 92 691 104 692 91 693 104 694 103 695 92 696 93 697 105 698 92 699 105 700 104 701 93 702 94 703 106 704 93 705 106 706 105 707 94 708 95 709 107 710 94 711 107 712 106 713 95 714 96 715 108 716 95 717 108 718 107 719 96 720 86 721 98 722 96 723 98 724 108 725 98 726 97 727 109 728 98 729 109 730 110 731 97 732 99 733 111 734 97 735 111 736 109 737 99 738 100 739 112 740 99 741 112 742 111 743 100 744 101 745 113 746 100 747 113 748 112 749 101 750 102 751 114 752 101 753 114 754 113 755 102 756 103 757 115 758 102 759 115 760 114 761 103 762 104 763 116 764 103 765 116 766 115 767 104 768 105 769 117 770 104 771 117 772 116 773 105 774 106 775 118 776 105 777 118 778 117 779 106 780 107 781 119 782 106 783 119 784 118 785 107 786 108 787 120 788 107 789 120 790 119 791 108 792 98 793 110 794 108 795 110 796 120 797 110 798 109 799 121 800 110 801 121 802 122 803 109 804 111 805 123 806 109 807 123 808 121 809 111 810 112 811 124 812 111 813 124 814 123 815 112 816 113 817 125 818 112 819 125 820 124 821 113 822 114 823 126 824 113 825 126 826 125 827 114 828 115 829 127 830 114 831 127 832 126 833 115 834 116 835 128 836 115 837 128 838 127 839</p>
                </triangles>
            </mesh>
        </geometry>
    </library_geometries>
    <library_visual_scenes>
        <visual_scene id="Building_226_CROWN2">
            <node>
                <instance_geometry url="#geometry0">
                    <bind_material>
                        <technique_common>
                            <instance_material symbol="default_ai_0.2_sh_0.2_tr_0.0_dc_r_0.8_g_0.8_b_0.8_sc_r_1.0_g_1.0_b_1.0_ec_r_0.0_g_0.0_b_0_tri" target="#default_ai_0.2_sh_0.2_tr_0.0_dc_r_0.8_g_0.8_b_0.8_sc_r_1.0_g_1.0_b_1.0_ec_r_0.0_g_0.0_b_0_mat"/>
                        </technique_common>
                    </bind_material>
                </instance_geometry>
            </node>
        </visual_scene>
    </library_visual_scenes>
    <scene>
        <instance_visual_scene url="#Building_226_CROWN2"/>
    </scene>
</COLLADA>
