<?xml version="1.0" encoding="UTF-8" standalone="yes"?>
<COLLADA xmlns="http://www.collada.org/2005/11/COLLADASchema" version="1.4.1">
    <asset>
        <contributor>
            <authoring_tool>3D City Database Importer/Exporter, version 5.5.3; Chair of Geoinformatics, Technical University of Munich</authoring_tool>
        </contributor>
        <created>2026-09-25T14:44:57.644</created>
        <modified>2026-09-25T14:44:57.644</modified>
        <unit meter="1.0" name="meters"/>
        <up_axis>Z_UP</up_axis>
    </asset>
    <library_materials>
        <material id="default_ai_0.2_sh_0.2_tr_0.0_dc_r_0.8_g_0.8_b_0.8_sc_r_1.0_g_1.0_b_1.0_ec_r_0.0_g_0.0_b_0_mat">
            <instance_effect url="#default_ai_0.2_sh_0.2_tr_0.0_dc_r_0.8_g_0.8_b_0.8_sc_r_1.0_g_1.0_b_1.0_ec_r_0.0_g_0.0_b_0_eff"/>
        </material>
    </library_materials>
    <library_effects>
        <effect id="default_ai_0.2_sh_0.2_tr_0.0_dc_r_0.8_g_0.8_b_0.8_sc_r_1.0_g_1.0_b_1.0_ec_r_0.0_g_0.0_b_0_eff">
            <profile_COMMON>
                <technique sid="COMMON">
                    <lambert>
                        <emission>
                            <color>0.0 0.0 0.0 1.0</color>
                        </emission>
                        <diffuse>
                            <color>0.8 0.8 0.8 1.0</color>
                        </diffuse>
                        <reflective>
                            <color>1.0 1.0 1.0 1.0</color>
                        </reflective>
                        <reflectivity>
                            <float>0.2</float>
                        </reflectivity>
                        <transparent opaque="A_ONE">
                            <color>1.0 1.0 1.0 1.0</color>
                        </transparent>
                        <transparency>
                            <float>1.0</float>
                        </transparency>
                    </lambert>
                </technique>
                <extra>
                    <technique profile="GOOGLEEARTH">
                        <double_sided>0</double_sided>
                    </technique>
                </extra>
            </profile_COMMON>
        </effect>
    </library_effects>
    <library_geometries>
        <geometry id="geometry0">
            <mesh>
                <source id="geometry0-position">
                    <float_array id="geometry0-position-array" count="402">0.0 0.0 2.5 0.28018 0.1617625 2.4574075 0.3235238 0.0 2.4574075 0.1617625 0.28018 2.4574075 0.0 0.3235237 2.4574075 -0.1617625 0.28018 2.4574075 -0.28018 0.1617625 2.4574075 -0.3235238 0.0 2.4574075 -0.28018 -0.1617625 2.4574075 -0.1617625 -0.28018 2.4574075 0.0 -0.3235237 2.4574075 0.1617625 -0.28018 2.4574075 0.28018 -0.1617625 2.4574075 0.5412663 0.3125 2.3325312 0.625 0.0 2.3325312 0.3125 0.5412663 2.3325312 0.0 0.625 2.3325312 -0.3125 0.5412663 2.3325312 -0.5412663 0.3125 2.3325312 -0.625 0.0 2.3325312 -0.5412663 -0.3125 2.3325312 -0.3125 -0.5412663 2.3325312 0.0 -0.625 2.3325312 0.3125 -0.5412663 2.3325312 0.5412663 -0.3125 2.3325312 0.765465 0.4419413 2.1338825 0.8838838 0.0 2.1338825 0.4419412 0.765465 2.1338825 0.0 0.8838838 2.1338825 -0.4419412 0.765465 2.1338825 -0.765465 0.4419413 2.1338825 -0.8838838 0.0 2.1338825 -0.765465 -0.4419413 2.1338825 -0.4419412 -0.765465 2.1338825 0.0 -0.8838838 2.1338825 0.4419412 -0.765465 2.1338825 0.765465 -0.4419413 2.1338825 0.9375 0.5412663 1.875 1.0825313 0.0 1.875 0.5412663 0.9375 1.875 0.0 1.0825313 1.875 -0.5412663 0.9375 1.875 -0.9375 0.5412663 1.875 -1.0825313 0.0 1.875 -0.9375 -0.5412663 1.875 -0.5412663 -0.9375 1.875 0.0 -1.0825313 1.875 0.5412663 -0.9375 1.875 0.9375 -0.5412663 1.875 1.045645 0.6037038 1.5735237 1.2074075 0.0 1.5735237 0.6037038 1.045645 1.5735237 0.0 1.2074075 1.5735237 -0.6037038 1.045645 1.5735237 -1.045645 0.6037038 1.5735237 -1.2074075 0.0 1.5735237 -1.045645 -0.6037038 1.5735237 -0.6037038 -1.045645 1.5735237 0.0 -1.2074075 1.5735237 0.6037038 -1.045645 1.5735237 1.045645 -0.6037038 1.5735237 1.0825313 0.625 1.25 1.25 0.0 1.25 0.625 1.0825313 1.25 0.0 1.25 1.25 -0.625 1.0825313 1.25 -1.0825313 0.625 1.25 -1.25 0.0 1.25 -1.0825313 -0.625 1.25 -0.625 -1.0825313 1.25 0.0 -1.25 1.25 0.625 -1.0825313 1.25 1.0825313 -0.625 1.25 1.045645 0.6037038 0.9264762 1.2074075 0.0 0.9264762 0.6037038 1.045645 0.9264762 0.0 1.2074075 0.9264762 -0.6037038 1.045645 0.9264762 -1.045645 0.6037038 0.9264762 -1.2074075 0.0 0.9264762 -1.045645 -0.6037038 0.9264762 -0.6037038 -1.045645 0.9264762 0.0 -1.2074075 0.9264762 0.6037038 -1.045645 0.9264762 1.045645 -0.6037038 0.9264762 0.9375 0.5412663 0.625 1.0825313 0.0 0.625 0.5412663 0.9375 0.625 0.0 1.0825313 0.625 -0.5412663 0.9375 0.625 -0.9375 0.5412663 0.625 -1.0825313 0.0 0.625 -0.9375 -0.5412663 0.625 -0.5412663 -0.9375 0.625 0.0 -1.0825313 0.625 0.5412663 -0.9375 0.625 0.9375 -0.5412663 0.625 0.765465 0.4419413 0.3661163 0.8838838 0.0 0.3661163 0.4419412 0.765465 0.3661163 0.0 0.8838838 0.3661163 -0.4419412 0.765465 0.3661163 -0.765465 0.4419413 0.3661163 -0.8838838 0.0 0.3661163 -0.765465 -0.4419413 0.3661163 -0.4419412 -0.765465 0.3661163 0.0 -0.8838838 0.3661163 0.4419412 -0.765465 0.3661163 0.765465 -0.4419413 0.3661163 0.5412663 0.3125 0.1674675 0.625 0.0 0.1674675 0.3125 0.5412663 0.1674675 0.0 0.625 0.1674675 -0.3125 0.5412663 0.1674675 -0.5412663 0.3125 0.1674675 -0.625 0.0 0.1674675 -0.5412663 -0.3125 0.1674675 -0.3125 -0.5412663 0.1674675 0.0 -0.625 0.1674675 0.3125 -0.5412663 0.1674675 0.5412663 -0.3125 0.1674675 0.28018 0.1617625 0.0425925 0.3235238 0.0 0.0425925 0.1617625 0.28018 0.0425925 0.0 0.3235237 0.0425925 -0.1617625 0.28018 0.0425925 -0.28018 0.1617625 0.0425925 -0.3235238 0.0 0.0425925 -0.28018 -0.1617625 0.0425925 -0.1617625 -0.28018 0.0425925 0.0 -0.3235237 0.0425925 0.1617625 -0.28018 0.0425925 0.28018 -0.1617625 0.0425925 0.0 0.0 0.0</float_array>
                    <technique_common>
                        <accessor count="134" source="#geometry0-position-array" stride="3">
                            <param name="X" type="float"/>
                            <param name="Y" type="float"/>
                            <param name="Z" type="float"/>
                        </accessor>
                    </technique_common>
                </source>
                <source id="geometry0-normal">
                    <float_array id="geometry0-normal-array" count="2520">0.6008233 0.1609894 -0.783003 0.6008233 0.1609894 -0.783003 0.6008233 0.1609894 -0.783003 0.600821 0.1609908 -0.7830045 0.600821 0.1609908 -0.7830045 0.600821 0.1609908 -0.7830045 0.439833 0.439833 -0.7830031 0.439833 0.439833 -0.7830031 0.439833 0.439833 -0.7830031 0.439833 0.439833 -0.7830032 0.439833 0.439833 -0.7830032 0.439833 0.439833 -0.7830032 0.1609888 0.6008213 -0.7830048 0.1609888 0.6008213 -0.7830048 0.1609888 0.6008213 -0.7830048 0.1609912 0.6008226 -0.7830032 0.1609912 0.6008226 -0.7830032 0.1609912 0.6008226 -0.7830032 -0.1609894 0.6008233 -0.783003 -0.1609894 0.6008233 -0.783003 -0.1609894 0.6008233 -0.783003 -0.1609908 0.600821 -0.7830045 -0.1609908 0.600821 -0.7830045 -0.1609908 0.600821 -0.7830045 -0.439833 0.439833 -0.7830031 -0.439833 0.439833 -0.7830031 -0.439833 0.439833 -0.7830031 -0.439833 0.439833 -0.7830032 -0.439833 0.439833 -0.7830032 -0.439833 0.439833 -0.7830032 -0.6008213 0.1609888 -0.7830048 -0.6008213 0.1609888 -0.7830048 -0.6008213 0.1609888 -0.7830048 -0.6008226 0.1609912 -0.7830032 -0.6008226 0.1609912 -0.7830032 -0.6008226 0.1609912 -0.7830032 -0.7760106 -0.2079331 -0.5954589 -0.7760106 -0.2079331 -0.5954589 -0.7760106 -0.2079331 -0.5954589 -0.7760136 -0.2079313 -0.5954558 -0.7760136 -0.2079313 -0.5954558 -0.7760136 -0.2079313 -0.5954558 -0.5680794 -0.5680794 -0.5954593 -0.5680794 -0.5680794 -0.5954593 -0.5680794 -0.5680794 -0.5954593 -0.5680794 -0.5680794 -0.5954593 -0.5680794 -0.5680794 -0.5954593 -0.5680794 -0.5680794 -0.5954593 -0.2079338 -0.7760131 -0.5954555 -0.2079338 -0.7760131 -0.5954555 -0.2079338 -0.7760131 -0.5954555 -0.2079307 -0.7760115 -0.5954586 -0.2079307 -0.7760115 -0.5954586 -0.2079307 -0.7760115 -0.5954586 0.2079331 -0.7760106 -0.5954589 0.2079331 -0.7760106 -0.5954589 0.2079331 -0.7760106 -0.5954589 0.2079313 -0.7760136 -0.5954558 0.2079313 -0.7760136 -0.5954558 0.2079313 -0.7760136 -0.5954558 0.5680794 -0.5680794 -0.5954593 0.5680794 -0.5680794 -0.5954593 0.5680794 -0.5680794 -0.5954593 0.5680794 -0.5680794 -0.5954593 0.5680794 -0.5680794 -0.5954593 0.5680794 -0.5680794 -0.5954593 0.7760131 -0.2079338 -0.5954555 0.7760131 -0.2079338 -0.5954555 0.7760131 -0.2079338 -0.5954555 0.7760115 -0.2079307 -0.5954586 0.7760115 -0.2079307 -0.5954586 0.7760115 -0.2079307 -0.5954586 0.7760106 0.2079331 -0.5954589 0.7760106 0.2079331 -0.5954589 0.7760106 0.2079331 -0.5954589 0.7760136 0.2079313 -0.5954558 0.7760136 0.2079313 -0.5954558 0.7760136 0.2079313 -0.5954558 0.5680794 0.5680794 -0.5954593 0.5680794 0.5680794 -0.5954593 0.5680794 0.5680794 -0.5954593 0.5680794 0.5680794 -0.5954593 0.5680794 0.5680794 -0.5954593 0.5680794 0.5680794 -0.5954593 0.2079338 0.7760131 -0.5954555 0.2079338 0.7760131 -0.5954555 0.2079338 0.7760131 -0.5954555 0.2079307 0.7760115 -0.5954586 0.2079307 0.7760115 -0.5954586 0.2079307 0.7760115 -0.5954586 -0.2079331 0.7760106 -0.5954589 -0.2079331 0.7760106 -0.5954589 -0.2079331 0.7760106 -0.5954589 -0.2079313 0.7760136 -0.5954558 -0.2079313 0.7760136 -0.5954558 -0.2079313 0.7760136 -0.5954558 -0.5680794 0.5680794 -0.5954593 -0.5680794 0.5680794 -0.5954593 -0.5680794 0.5680794 -0.5954593 -0.5680794 0.5680794 -0.5954593 -0.5680794 0.5680794 -0.5954593 -0.5680794 0.5680794 -0.5954593 -0.7760131 0.2079338 -0.5954555 -0.7760131 0.2079338 -0.5954555 -0.7760131 0.2079338 -0.5954555 -0.7760115 0.2079307 -0.5954586 -0.7760115 0.2079307 -0.5954586 -0.7760115 0.2079307 -0.5954586 -0.8968096 -0.2402983 -0.371469 -0.8968096 -0.2402983 -0.371469 -0.8968096 -0.2402983 -0.371469 -0.896808 -0.2402998 -0.3714721 -0.896808 -0.2402998 -0.3714721 -0.896808 -0.2402998 -0.3714721 -0.65651 -0.65651 -0.3714691 -0.65651 -0.65651 -0.3714691 -0.65651 -0.65651 -0.3714691 -0.65651 -0.65651 -0.3714691 -0.65651 -0.65651 -0.3714691 -0.65651 -0.65651 -0.3714691 -0.240298 -0.8968083 -0.3714723 -0.240298 -0.8968083 -0.3714723 -0.240298 -0.8968083 -0.3714723 -0.2403001 -0.896809 -0.3714692 -0.2403001 -0.896809 -0.3714692 -0.2403001 -0.896809 -0.3714692 0.2402983 -0.8968096 -0.371469 0.2402983 -0.8968096 -0.371469 0.2402983 -0.8968096 -0.371469 0.2402998 -0.896808 -0.3714721 0.2402998 -0.896808 -0.3714721 0.2402998 -0.896808 -0.3714721 0.65651 -0.65651 -0.3714691 0.65651 -0.65651 -0.3714691 0.65651 -0.65651 -0.3714691 0.65651 -0.65651 -0.3714691 0.65651 -0.65651 -0.3714691 0.65651 -0.65651 -0.3714691 0.8968083 -0.240298 -0.3714723 0.8968083 -0.240298 -0.3714723 0.8968083 -0.240298 -0.3714723 0.896809 -0.2403001 -0.3714692 0.896809 -0.2403001 -0.3714692 0.896809 -0.2403001 -0.3714692 0.8968096 0.2402983 -0.371469 0.8968096 0.2402983 -0.371469 0.8968096 0.2402983 -0.371469 0.896808 0.2402998 -0.3714721 0.896808 0.2402998 -0.3714721 0.896808 0.2402998 -0.3714721 0.65651 0.65651 -0.3714691 0.65651 0.65651 -0.3714691 0.65651 0.65651 -0.3714691 0.65651 0.65651 -0.3714691 0.65651 0.65651 -0.3714691 0.65651 0.65651 -0.3714691 0.240298 0.8968083 -0.3714723 0.240298 0.8968083 -0.3714723 0.240298 0.8968083 -0.3714723 0.2403001 0.896809 -0.3714692 0.2403001 0.896809 -0.3714692 0.2403001 0.896809 -0.3714692 -0.2402983 0.8968096 -0.371469 -0.2402983 0.8968096 -0.371469 -0.2402983 0.8968096 -0.371469 -0.2402998 0.896808 -0.3714721 -0.2402998 0.896808 -0.3714721 -0.2402998 0.896808 -0.3714721 -0.65651 0.65651 -0.3714691 -0.65651 0.65651 -0.3714691 -0.65651 0.65651 -0.3714691 -0.65651 0.65651 -0.3714691 -0.65651 0.65651 -0.3714691 -0.65651 0.65651 -0.3714691 -0.8968083 0.240298 -0.3714723 -0.8968083 0.240298 -0.3714723 -0.8968083 0.240298 -0.3714723 -0.896809 0.2403001 -0.3714692 -0.896809 0.2403001 -0.3714692 -0.896809 0.2403001 -0.3714692 -0.958209 -0.2567522 -0.1261501 -0.958209 -0.2567522 -0.1261501 -0.958209 -0.2567522 -0.1261501 -0.958209 -0.2567522 -0.1261501 -0.958209 -0.2567522 -0.1261501 -0.958209 -0.2567522 -0.1261501 -0.7014578 -0.7014578 -0.1261501 -0.7014578 -0.7014578 -0.1261501 -0.7014578 -0.7014578 -0.1261501 -0.7014578 -0.7014578 -0.1261501 -0.7014578 -0.7014578 -0.1261501 -0.7014578 -0.7014578 -0.1261501 -0.2567522 -0.958209 -0.1261501 -0.2567522 -0.958209 -0.1261501 -0.2567522 -0.958209 -0.1261501 -0.2567522 -0.958209 -0.1261501 -0.2567522 -0.958209 -0.1261501 -0.2567522 -0.958209 -0.1261501 0.2567522 -0.958209 -0.1261501 0.2567522 -0.958209 -0.1261501 0.2567522 -0.958209 -0.1261501 0.2567522 -0.958209 -0.1261501 0.2567522 -0.958209 -0.1261501 0.2567522 -0.958209 -0.1261501 0.7014578 -0.7014578 -0.1261501 0.7014578 -0.7014578 -0.1261501 0.7014578 -0.7014578 -0.1261501 0.7014578 -0.7014578 -0.1261501 0.7014578 -0.7014578 -0.1261501 0.7014578 -0.7014578 -0.1261501 0.958209 -0.2567522 -0.1261501 0.958209 -0.2567522 -0.1261501 0.958209 -0.2567522 -0.1261501 0.958209 -0.2567522 -0.1261501 0.958209 -0.2567522 -0.1261501 0.958209 -0.2567522 -0.1261501 0.958209 0.2567522 -0.1261501 0.958209 0.2567522 -0.1261501 0.958209 0.2567522 -0.1261501 0.958209 0.2567522 -0.1261501 0.958209 0.2567522 -0.1261501 0.958209 0.2567522 -0.1261501 0.7014578 0.7014578 -0.1261501 0.7014578 0.7014578 -0.1261501 0.7014578 0.7014578 -0.1261501 0.7014578 0.7014578 -0.1261501 0.7014578 0.7014578 -0.1261501 0.7014578 0.7014578 -0.1261501 0.2567522 0.958209 -0.1261501 0.2567522 0.958209 -0.1261501 0.2567522 0.958209 -0.1261501 0.2567522 0.958209 -0.1261501 0.2567522 0.958209 -0.1261501 0.2567522 0.958209 -0.1261501 -0.2567522 0.958209 -0.1261501 -0.2567522 0.958209 -0.1261501 -0.2567522 0.958209 -0.1261501 -0.2567522 0.958209 -0.1261501 -0.2567522 0.958209 -0.1261501 -0.2567522 0.958209 -0.1261501 -0.7014578 0.7014578 -0.1261501 -0.7014578 0.7014578 -0.1261501 -0.7014578 0.7014578 -0.1261501 -0.7014578 0.7014578 -0.1261501 -0.7014578 0.7014578 -0.1261501 -0.7014578 0.7014578 -0.1261501 -0.958209 0.2567522 -0.1261501 -0.958209 0.2567522 -0.1261501 -0.958209 0.2567522 -0.1261501 -0.958209 0.2567522 -0.1261501 -0.958209 0.2567522 -0.1261501 -0.958209 0.2567522 -0.1261501 -0.958209 -0.2567522 0.1261501 -0.958209 -0.2567522 0.1261501 -0.958209 -0.2567522 0.1261501 -0.958209 -0.2567522 0.1261501 -0.958209 -0.2567522 0.1261501 -0.958209 -0.2567522 0.1261501 -0.7014578 -0.7014578 0.1261501 -0.7014578 -0.7014578 0.1261501 -0.7014578 -0.7014578 0.1261501 -0.7014578 -0.7014578 0.1261501 -0.7014578 -0.7014578 0.1261501 -0.7014578 -0.7014578 0.1261501 -0.2567522 -0.958209 0.1261501 -0.2567522 -0.958209 0.1261501 -0.2567522 -0.958209 0.1261501 -0.2567522 -0.958209 0.1261501 -0.2567522 -0.958209 0.1261501 -0.2567522 -0.958209 0.1261501 0.2567522 -0.958209 0.1261501 0.2567522 -0.958209 0.1261501 0.2567522 -0.958209 0.1261501 0.2567522 -0.958209 0.1261501 0.2567522 -0.958209 0.1261501 0.2567522 -0.958209 0.1261501 0.7014578 -0.7014578 0.1261501 0.7014578 -0.7014578 0.1261501 0.7014578 -0.7014578 0.1261501 0.7014578 -0.7014578 0.1261501 0.7014578 -0.7014578 0.1261501 0.7014578 -0.7014578 0.1261501 0.958209 -0.2567522 0.1261501 0.958209 -0.2567522 0.1261501 0.958209 -0.2567522 0.1261501 0.958209 -0.2567522 0.1261501 0.958209 -0.2567522 0.1261501 0.958209 -0.2567522 0.1261501 0.958209 0.2567522 0.1261501 0.958209 0.2567522 0.1261501 0.958209 0.2567522 0.1261501 0.958209 0.2567522 0.1261501 0.958209 0.2567522 0.1261501 0.958209 0.2567522 0.1261501 0.7014578 0.7014578 0.1261501 0.7014578 0.7014578 0.1261501 0.7014578 0.7014578 0.1261501 0.7014578 0.7014578 0.1261501 0.7014578 0.7014578 0.1261501 0.7014578 0.7014578 0.1261501 0.2567522 0.958209 0.1261501 0.2567522 0.958209 0.1261501 0.2567522 0.958209 0.1261501 0.2567522 0.958209 0.1261501 0.2567522 0.958209 0.1261501 0.2567522 0.958209 0.1261501 -0.2567522 0.958209 0.1261501 -0.2567522 0.958209 0.1261501 -0.2567522 0.958209 0.1261501 -0.2567522 0.958209 0.1261501 -0.2567522 0.958209 0.1261501 -0.2567522 0.958209 0.1261501 -0.7014578 0.7014578 0.1261501 -0.7014578 0.7014578 0.1261501 -0.7014578 0.7014578 0.1261501 -0.7014578 0.7014578 0.1261501 -0.7014578 0.7014578 0.1261501 -0.7014578 0.7014578 0.1261501 -0.958209 0.2567522 0.1261501 -0.958209 0.2567522 0.1261501 -0.958209 0.2567522 0.1261501 -0.958209 0.2567522 0.1261501 -0.958209 0.2567522 0.1261501 -0.958209 0.2567522 0.1261501 -0.896809 -0.2403001 0.3714692 -0.896809 -0.2403001 0.3714692 -0.896809 -0.2403001 0.3714692 -0.8968084 -0.240298 0.3714723 -0.8968084 -0.240298 0.3714723 -0.8968084 -0.240298 0.3714723 -0.65651 -0.65651 0.3714691 -0.65651 -0.65651 0.3714691 -0.65651 -0.65651 0.3714691 -0.65651 -0.65651 0.3714691 -0.65651 -0.65651 0.3714691 -0.65651 -0.65651 0.3714691 -0.2402998 -0.8968079 0.3714721 -0.2402998 -0.8968079 0.3714721 -0.2402998 -0.8968079 0.3714721 -0.2402983 -0.8968096 0.371469 -0.2402983 -0.8968096 0.371469 -0.2402983 -0.8968096 0.371469 0.2403001 -0.896809 0.3714692 0.2403001 -0.896809 0.3714692 0.2403001 -0.896809 0.3714692 0.240298 -0.8968084 0.3714723 0.240298 -0.8968084 0.3714723 0.240298 -0.8968084 0.3714723 0.65651 -0.65651 0.3714691 0.65651 -0.65651 0.3714691 0.65651 -0.65651 0.3714691 0.65651 -0.65651 0.3714691 0.65651 -0.65651 0.3714691 0.65651 -0.65651 0.3714691 0.8968079 -0.2402998 0.3714721 0.8968079 -0.2402998 0.3714721 0.8968079 -0.2402998 0.3714721 0.8968096 -0.2402983 0.371469 0.8968096 -0.2402983 0.371469 0.8968096 -0.2402983 0.371469 0.896809 0.2403001 0.3714692 0.896809 0.2403001 0.3714692 0.896809 0.2403001 0.3714692 0.8968084 0.240298 0.3714723 0.8968084 0.240298 0.3714723 0.8968084 0.240298 0.3714723 0.65651 0.65651 0.3714691 0.65651 0.65651 0.3714691 0.65651 0.65651 0.3714691 0.65651 0.65651 0.3714691 0.65651 0.65651 0.3714691 0.65651 0.65651 0.3714691 0.2402998 0.8968079 0.3714721 0.2402998 0.8968079 0.3714721 0.2402998 0.8968079 0.3714721 0.2402983 0.8968096 0.371469 0.2402983 0.8968096 0.371469 0.2402983 0.8968096 0.371469 -0.2403001 0.896809 0.3714692 -0.2403001 0.896809 0.3714692 -0.2403001 0.896809 0.3714692 -0.240298 0.8968084 0.3714723 -0.240298 0.8968084 0.3714723 -0.240298 0.8968084 0.3714723 -0.65651 0.65651 0.3714691 -0.65651 0.65651 0.3714691 -0.65651 0.65651 0.3714691 -0.65651 0.65651 0.3714691 -0.65651 0.65651 0.3714691 -0.65651 0.65651 0.3714691 -0.8968079 0.2402998 0.3714721 -0.8968079 0.2402998 0.3714721 -0.8968079 0.2402998 0.3714721 -0.8968096 0.2402983 0.371469 -0.8968096 0.2402983 0.371469 -0.8968096 0.2402983 0.371469 -0.7760127 -0.2079311 0.5954568 -0.7760127 -0.2079311 0.5954568 -0.7760127 -0.2079311 0.5954568 -0.7760144 -0.2079341 0.5954537 -0.7760144 -0.2079341 0.5954537 -0.7760144 -0.2079341 0.5954537 -0.5680803 -0.5680803 0.5954574 -0.5680803 -0.5680803 0.5954574 -0.5680803 -0.5680803 0.5954574 -0.5680803 -0.5680803 0.5954575 -0.5680803 -0.5680803 0.5954575 -0.5680803 -0.5680803 0.5954575 -0.2079316 -0.7760148 0.595454 -0.2079316 -0.7760148 0.595454 -0.2079316 -0.7760148 0.595454 -0.2079334 -0.7760119 0.5954572 -0.2079334 -0.7760119 0.5954572 -0.2079334 -0.7760119 0.5954572 0.2079311 -0.7760127 0.5954568 0.2079311 -0.7760127 0.5954568 0.2079311 -0.7760127 0.5954568 0.2079341 -0.7760144 0.5954537 0.2079341 -0.7760144 0.5954537 0.2079341 -0.7760144 0.5954537 0.5680803 -0.5680803 0.5954574 0.5680803 -0.5680803 0.5954574 0.5680803 -0.5680803 0.5954574 0.5680803 -0.5680803 0.5954575 0.5680803 -0.5680803 0.5954575 0.5680803 -0.5680803 0.5954575 0.7760148 -0.2079316 0.595454 0.7760148 -0.2079316 0.595454 0.7760148 -0.2079316 0.595454 0.7760119 -0.2079334 0.5954572 0.7760119 -0.2079334 0.5954572 0.7760119 -0.2079334 0.5954572 0.7760127 0.2079311 0.5954568 0.7760127 0.2079311 0.5954568 0.7760127 0.2079311 0.5954568 0.7760144 0.2079341 0.5954537 0.7760144 0.2079341 0.5954537 0.7760144 0.2079341 0.5954537 0.5680803 0.5680803 0.5954574 0.5680803 0.5680803 0.5954574 0.5680803 0.5680803 0.5954574 0.5680803 0.5680803 0.5954575 0.5680803 0.5680803 0.5954575 0.5680803 0.5680803 0.5954575 0.2079316 0.7760148 0.595454 0.2079316 0.7760148 0.595454 0.2079316 0.7760148 0.595454 0.2079334 0.7760119 0.5954572 0.2079334 0.7760119 0.5954572 0.2079334 0.7760119 0.5954572 -0.2079311 0.7760127 0.5954568 -0.2079311 0.7760127 0.5954568 -0.2079311 0.7760127 0.5954568 -0.2079341 0.7760144 0.5954537 -0.2079341 0.7760144 0.5954537 -0.2079341 0.7760144 0.5954537 -0.5680803 0.5680803 0.5954574 -0.5680803 0.5680803 0.5954574 -0.5680803 0.5680803 0.5954574 -0.5680803 0.5680803 0.5954575 -0.5680803 0.5680803 0.5954575 -0.5680803 0.5680803 0.5954575 -0.7760148 0.2079316 0.595454 -0.7760148 0.2079316 0.595454 -0.7760148 0.2079316 0.595454 -0.7760119 0.2079334 0.5954572 -0.7760119 0.2079334 0.5954572 -0.7760119 0.2079334 0.5954572 -0.6008227 -0.1609912 0.7830032 -0.6008227 -0.1609912 0.7830032 -0.6008227 -0.1609912 0.7830032 -0.6008214 -0.1609889 0.7830046 -0.6008214 -0.1609889 0.7830046 -0.6008214 -0.1609889 0.7830046 -0.4398331 -0.4398331 0.783003 -0.4398331 -0.4398331 0.783003 -0.4398331 -0.4398331 0.783003 -0.439833 -0.439833 0.783003 -0.439833 -0.439833 0.783003 -0.439833 -0.439833 0.783003 -0.1609908 -0.6008211 0.7830044 -0.1609908 -0.6008211 0.7830044 -0.1609908 -0.6008211 0.7830044 -0.1609894 -0.6008235 0.7830029 -0.1609894 -0.6008235 0.7830029 -0.1609894 -0.6008235 0.7830029 0.1609912 -0.6008227 0.7830032 0.1609912 -0.6008227 0.7830032 0.1609912 -0.6008227 0.7830032 0.1609889 -0.6008214 0.7830046 0.1609889 -0.6008214 0.7830046 0.1609889 -0.6008214 0.7830046 0.4398331 -0.4398331 0.783003 0.4398331 -0.4398331 0.783003 0.4398331 -0.4398331 0.783003 0.439833 -0.439833 0.783003 0.439833 -0.439833 0.783003 0.439833 -0.439833 0.783003 0.6008211 -0.1609908 0.7830044 0.6008211 -0.1609908 0.7830044 0.6008211 -0.1609908 0.7830044 0.6008235 -0.1609894 0.7830029 0.6008235 -0.1609894 0.7830029 0.6008235 -0.1609894 0.7830029 0.6008227 0.1609912 0.7830032 0.6008227 0.1609912 0.7830032 0.6008227 0.1609912 0.7830032 0.6008214 0.1609889 0.7830046 0.6008214 0.1609889 0.7830046 0.6008214 0.1609889 0.7830046 0.4398331 0.4398331 0.783003 0.4398331 0.4398331 0.783003 0.4398331 0.4398331 0.783003 0.439833 0.439833 0.783003 0.439833 0.439833 0.783003 0.439833 0.439833 0.783003 0.1609908 0.6008211 0.7830044 0.1609908 0.6008211 0.7830044 0.1609908 0.6008211 0.7830044 0.1609894 0.6008235 0.7830029 0.1609894 0.6008235 0.7830029 0.1609894 0.6008235 0.7830029 -0.1609912 0.6008227 0.7830032 -0.1609912 0.6008227 0.7830032 -0.1609912 0.6008227 0.7830032 -0.1609889 0.6008214 0.7830046 -0.1609889 0.6008214 0.7830046 -0.1609889 0.6008214 0.7830046 -0.4398331 0.4398331 0.783003 -0.4398331 0.4398331 0.783003 -0.4398331 0.4398331 0.783003 -0.439833 0.439833 0.783003 -0.439833 0.439833 0.783003 -0.439833 0.439833 0.783003 -0.6008211 0.1609908 0.7830044 -0.6008211 0.1609908 0.7830044 -0.6008211 0.1609908 0.7830044 -0.6008235 0.1609894 0.7830029 -0.6008235 0.1609894 0.7830029 -0.6008235 0.1609894 0.7830029 -0.3806862 -0.1020041 0.9190611 -0.3806862 -0.1020041 0.9190611 -0.3806862 -0.1020041 0.9190611 -0.380686 -0.1020036 0.9190612 -0.380686 -0.1020036 0.9190612 -0.380686 -0.1020036 0.9190612 -0.2786817 -0.2786817 0.919061 -0.2786817 -0.2786817 0.919061 -0.2786817 -0.2786817 0.919061 -0.2786817 -0.2786817 0.9190609 -0.2786817 -0.2786817 0.9190609 -0.2786817 -0.2786817 0.9190609 -0.102004 -0.380686 0.9190611 -0.102004 -0.380686 0.9190611 -0.102004 -0.380686 0.9190611 -0.1020037 -0.3806864 0.919061 -0.1020037 -0.3806864 0.919061 -0.1020037 -0.3806864 0.919061 0.1020041 -0.3806862 0.9190611 0.1020041 -0.3806862 0.9190611 0.1020041 -0.3806862 0.9190611 0.1020036 -0.380686 0.9190612 0.1020036 -0.380686 0.9190612 0.1020036 -0.380686 0.9190612 0.2786817 -0.2786817 0.919061 0.2786817 -0.2786817 0.919061 0.2786817 -0.2786817 0.919061 0.2786817 -0.2786817 0.9190609 0.2786817 -0.2786817 0.9190609 0.2786817 -0.2786817 0.9190609 0.380686 -0.102004 0.9190611 0.380686 -0.102004 0.9190611 0.380686 -0.102004 0.9190611 0.3806864 -0.1020037 0.919061 0.3806864 -0.1020037 0.919061 0.3806864 -0.1020037 0.919061 0.3806862 0.1020041 0.9190611 0.3806862 0.1020041 0.9190611 0.3806862 0.1020041 0.9190611 0.380686 0.1020036 0.9190612 0.380686 0.1020036 0.9190612 0.380686 0.1020036 0.9190612 0.2786817 0.2786817 0.919061 0.2786817 0.2786817 0.919061 0.2786817 0.2786817 0.919061 0.2786817 0.2786817 0.9190609 0.2786817 0.2786817 0.9190609 0.2786817 0.2786817 0.9190609 0.102004 0.380686 0.9190611 0.102004 0.380686 0.9190611 0.102004 0.380686 0.9190611 0.1020037 0.3806864 0.919061 0.1020037 0.3806864 0.919061 0.1020037 0.3806864 0.919061 -0.1020041 0.3806862 0.9190611 -0.1020041 0.3806862 0.9190611 -0.1020041 0.3806862 0.9190611 -0.1020036 0.380686 0.9190612 -0.1020036 0.380686 0.9190612 -0.1020036 0.380686 0.9190612 -0.2786817 0.2786817 0.919061 -0.2786817 0.2786817 0.919061 -0.2786817 0.2786817 0.919061 -0.2786817 0.2786817 0.9190609 -0.2786817 0.2786817 0.9190609 -0.2786817 0.2786817 0.9190609 -0.380686 0.102004 0.9190611 -0.380686 0.102004 0.9190611 -0.380686 0.102004 0.9190611 -0.3806864 0.1020037 0.919061 -0.3806864 0.1020037 0.919061 -0.3806864 0.1020037 0.919061 -0.1304458 -0.0349525 0.9908391 -0.1304458 -0.0349525 0.9908391 -0.1304458 -0.0349525 0.9908391 1.0 0.0 0.0 1.0 0.0 0.0 -0.0954928 -0.0954928 0.9908392 -0.0954928 -0.0954928 0.9908392 -0.0954928 -0.0954928 0.9908392 1.0 0.0 0.0 1.0 0.0 0.0 -0.0349525 -0.1304458 0.9908391 -0.0349525 -0.1304458 0.9908391 -0.0349525 -0.1304458 0.9908391 1.0 0.0 0.0 1.0 0.0 0.0 0.0349525 -0.1304458 0.9908391 0.0349525 -0.1304458 0.9908391 0.0349525 -0.1304458 0.9908391 1.0 0.0 0.0 1.0 0.0 0.0 0.0954928 -0.0954928 0.9908392 0.0954928 -0.0954928 0.9908392 0.0954928 -0.0954928 0.9908392 1.0 0.0 0.0 1.0 0.0 0.0 0.1304458 -0.0349525 0.9908391 0.1304458 -0.0349525 0.9908391 0.1304458 -0.0349525 0.9908391 1.0 0.0 0.0 1.0 0.0 0.0 0.1304458 0.0349525 0.9908391 0.1304458 0.0349525 0.9908391 0.1304458 0.0349525 0.9908391 1.0 0.0 0.0 1.0 0.0 0.0 0.0954928 0.0954928 0.9908392 0.0954928 0.0954928 0.9908392 0.0954928 0.0954928 0.9908392 1.0 0.0 0.0 1.0 0.0 0.0 0.0349525 0.1304458 0.9908391 0.0349525 0.1304458 0.9908391 0.0349525 0.1304458 0.9908391 1.0 0.0 0.0 1.0 0.0 0.0 -0.0349525 0.1304458 0.9908391 -0.0349525 0.1304458 0.9908391 -0.0349525 0.1304458 0.9908391 1.0 0.0 0.0 1.0 0.0 0.0 -0.0954928 0.0954928 0.9908392 -0.0954928 0.0954928 0.9908392 -0.0954928 0.0954928 0.9908392 1.0 0.0 0.0 1.0 0.0 0.0 -0.1304458 0.0349525 0.9908391 -0.1304458 0.0349525 0.9908391 -0.1304458 0.0349525 0.9908391 1.0 0.0 0.0 1.0 0.0 0.0 1.0 0.0 0.0 1.0 0.0 0.0 -0.1304459 -0.0349526 -0.9908391 -0.1304459 -0.0349526 -0.9908391 -0.1304459 -0.0349526 -0.9908391 1.0 0.0 0.0 1.0 0.0 0.0 -0.0954928 -0.0954928 -0.9908392 -0.0954928 -0.0954928 -0.9908392 -0.0954928 -0.0954928 -0.9908392 1.0 0.0 0.0 1.0 0.0 0.0 -0.0349526 -0.1304459 -0.9908391 -0.0349526 -0.1304459 -0.9908391 -0.0349526 -0.1304459 -0.9908391 1.0 0.0 0.0 1.0 0.0 0.0 0.0349526 -0.1304459 -0.9908391 0.0349526 -0.1304459 -0.9908391 0.0349526 -0.1304459 -0.9908391 1.0 0.0 0.0 1.0 0.0 0.0 0.0954928 -0.0954928 -0.9908392 0.0954928 -0.0954928 -0.9908392 0.0954928 -0.0954928 -0.9908392 1.0 0.0 0.0 1.0 0.0 0.0 0.1304459 -0.0349526 -0.9908391 0.1304459 -0.0349526 -0.9908391 0.1304459 -0.0349526 -0.9908391 1.0 0.0 0.0 1.0 0.0 0.0 0.1304459 0.0349526 -0.9908391 0.1304459 0.0349526 -0.9908391 0.1304459 0.0349526 -0.9908391 1.0 0.0 0.0 1.0 0.0 0.0 0.0954928 0.0954928 -0.9908392 0.0954928 0.0954928 -0.9908392 0.0954928 0.0954928 -0.9908392 1.0 0.0 0.0 1.0 0.0 0.0 0.0349526 0.1304459 -0.9908391 0.0349526 0.1304459 -0.9908391 0.0349526 0.1304459 -0.9908391 1.0 0.0 0.0 1.0 0.0 0.0 -0.0349526 0.1304459 -0.9908391 -0.0349526 0.1304459 -0.9908391 -0.0349526 0.1304459 -0.9908391 1.0 0.0 0.0 1.0 0.0 0.0 -0.0954928 0.0954928 -0.9908392 -0.0954928 0.0954928 -0.9908392 -0.0954928 0.0954928 -0.9908392 1.0 0.0 0.0 1.0 0.0 0.0 -0.1304459 0.0349526 -0.9908391 -0.1304459 0.0349526 -0.9908391 -0.1304459 0.0349526 -0.9908391 -0.3806896 -0.1020046 -0.9190596 -0.3806896 -0.1020046 -0.9190596 -0.3806896 -0.1020046 -0.9190596 -0.3806892 -0.1020049 -0.9190597 -0.3806892 -0.1020049 -0.9190597 -0.3806892 -0.1020049 -0.9190597 -0.278684 -0.278684 -0.9190595 -0.278684 -0.278684 -0.9190595 -0.278684 -0.278684 -0.9190595 -0.2786841 -0.2786841 -0.9190596 -0.2786841 -0.2786841 -0.9190596 -0.2786841 -0.2786841 -0.9190596 -0.1020045 -0.3806892 -0.9190598 -0.1020045 -0.3806892 -0.9190598 -0.1020045 -0.3806892 -0.9190598 -0.1020049 -0.3806894 -0.9190596 -0.1020049 -0.3806894 -0.9190596 -0.1020049 -0.3806894 -0.9190596 0.1020046 -0.3806896 -0.9190596 0.1020046 -0.3806896 -0.9190596 0.1020046 -0.3806896 -0.9190596 0.1020049 -0.3806892 -0.9190597 0.1020049 -0.3806892 -0.9190597 0.1020049 -0.3806892 -0.9190597 0.278684 -0.278684 -0.9190595 0.278684 -0.278684 -0.9190595 0.278684 -0.278684 -0.9190595 0.2786841 -0.2786841 -0.9190596 0.2786841 -0.2786841 -0.9190596 0.2786841 -0.2786841 -0.9190596 0.3806892 -0.1020045 -0.9190598 0.3806892 -0.1020045 -0.9190598 0.3806892 -0.1020045 -0.9190598 0.3806894 -0.1020049 -0.9190596 0.3806894 -0.1020049 -0.9190596 0.3806894 -0.1020049 -0.9190596 0.3806896 0.1020046 -0.9190596 0.3806896 0.1020046 -0.9190596 0.3806896 0.1020046 -0.9190596 0.3806892 0.1020049 -0.9190597 0.3806892 0.1020049 -0.9190597 0.3806892 0.1020049 -0.9190597 0.278684 0.278684 -0.9190595 0.278684 0.278684 -0.9190595 0.278684 0.278684 -0.9190595 0.2786841 0.2786841 -0.9190596 0.2786841 0.2786841 -0.9190596 0.2786841 0.2786841 -0.9190596 0.1020045 0.3806892 -0.9190598 0.1020045 0.3806892 -0.9190598 0.1020045 0.3806892 -0.9190598 0.1020049 0.3806894 -0.9190596 0.1020049 0.3806894 -0.9190596 0.1020049 0.3806894 -0.9190596 -0.1020046 0.3806896 -0.9190596 -0.1020046 0.3806896 -0.9190596 -0.1020046 0.3806896 -0.9190596 -0.1020049 0.3806892 -0.9190597 -0.1020049 0.3806892 -0.9190597 -0.1020049 0.3806892 -0.9190597 -0.278684 0.278684 -0.9190595 -0.278684 0.278684 -0.9190595 -0.278684 0.278684 -0.9190595 -0.2786841 0.2786841 -0.9190596 -0.2786841 0.2786841 -0.9190596 -0.2786841 0.2786841 -0.9190596 -0.3806892 0.1020045 -0.9190598 -0.3806892 0.1020045 -0.9190598 -0.3806892 0.1020045 -0.9190598 -0.3806894 0.1020049 -0.9190596 -0.3806894 0.1020049 -0.9190596 -0.3806894 0.1020049 -0.9190596 -0.6008233 -0.1609894 -0.783003 -0.6008233 -0.1609894 -0.783003 -0.6008233 -0.1609894 -0.783003 -0.600821 -0.1609908 -0.7830045 -0.600821 -0.1609908 -0.7830045 -0.600821 -0.1609908 -0.7830045 -0.439833 -0.439833 -0.7830031 -0.439833 -0.439833 -0.7830031 -0.439833 -0.439833 -0.7830031 -0.439833 -0.439833 -0.7830032 -0.439833 -0.439833 -0.7830032 -0.439833 -0.439833 -0.7830032 -0.1609888 -0.6008213 -0.7830048 -0.1609888 -0.6008213 -0.7830048 -0.1609888 -0.6008213 -0.7830048 -0.1609912 -0.6008226 -0.7830032 -0.1609912 -0.6008226 -0.7830032 -0.1609912 -0.6008226 -0.7830032 0.1609894 -0.6008233 -0.783003 0.1609894 -0.6008233 -0.783003 0.1609894 -0.6008233 -0.783003 0.1609908 -0.600821 -0.7830045 0.1609908 -0.600821 -0.7830045 0.1609908 -0.600821 -0.7830045 0.439833 -0.439833 -0.7830031 0.439833 -0.439833 -0.7830031 0.439833 -0.439833 -0.7830031 0.439833 -0.439833 -0.7830032 0.439833 -0.439833 -0.7830032 0.439833 -0.439833 -0.7830032 0.6008213 -0.1609888 -0.7830048 0.6008213 -0.1609888 -0.7830048 0.6008213 -0.1609888 -0.7830048 0.6008226 -0.1609912 -0.7830032 0.6008226 -0.1609912 -0.7830032 0.6008226 -0.1609912 -0.7830032</float_array>
                    <technique_common>
                        <accessor count="840" source="#geometry0-normal-array" stride="3">
                            <param name="X" type="float"/>
                            <param name="Y" type="float"/>
                            <param name="Z" type="float"/>
                        </accessor>
                    </technique_common>
                </source>
                <vertices id="geometry0-vertex">
                    <input semantic="POSITION" source="#geometry0-position"/>
                </vertices>
                <triangles count="288" material="default_ai_0.2_sh_0.2_tr_0.0_dc_r_0.8_g_0.8_b_0.8_sc_r_1.0_g_1.0_b_1.0_ec_r_0.0_g_0.0_b_0_tri">
                    <input offset="0" semantic="VERTEX" source="#geometry0-vertex"/>
                    <input offset="1" semantic="NORMAL" source="#geometry0-normal"/>
                    <p>19 0 20 1 32 2 19 3 32 4 31 5 20 6 21 7 33 8 20 9 33 10 32 11 21 12 22 13 34 14 21 15 34 16 33 17 22 18 23 19 35 20 22 21 35 22 34 23 23 24 24 25 36 26 23 27 36 28 35 29 24 30 14 31 26 32 24 33 26 34 36 35 26 36 25 37 37 38 26 39 37 40 38 41 25 42 27 43 39 44 25 45 39 46 37 47 27 48 28 49 40 50 27 51 40 52 39 53 28 54 29 55 41 56 28 57 41 58 40 59 29 60 30 61 42 62 29 63 42 64 41 65 30 66 31 67 43 68 30 69 43 70 42 71 31 72 32 73 44 74 31 75 44 76 43 77 32 78 33 79 45 80 32 81 45 82 44 83 33 84 34 85 46 86 33 87 46 88 45 89 34 90 35 91 47 92 34 93 47 94 46 95 35 96 36 97 48 98 35 99 48 100 47 101 36 102 26 103 38 104 36 105 38 106 48 107 38 108 37 109 49 110 38 111 49 112 50 113 37 114 39 115 51 116 37 117 51 118 49 119 39 120 40 121 52 122 39 123 52 124 51 125 40 126 41 127 53 128 40 129 53 130 52 131 41 132 42 133 54 134 41 135 54 136 53 137 42 138 43 139 55 140 42 141 55 142 54 143 43 144 44 145 56 146 43 147 56 148 55 149 44 150 45 151 57 152 44 153 57 154 56 155 45 156 46 157 58 158 45 159 58 160 57 161 46 162 47 163 59 164 46 165 59 166 58 167 47 168 48 169 60 170 47 171 60 172 59 173 48 174 38 175 50 176 48 177 50 178 60 179 50 180 49 181 61 182 50 183 61 184 62 185 49 186 51 187 63 188 49 189 63 190 61 191 51 192 52 193 64 194 51 195 64 196 63 197 52 198 53 199 65 200 52 201 65 202 64 203 53 204 54 205 66 206 53 207 66 208 65 209 54 210 55 211 67 212 54 213 67 214 66 215 55 216 56 217 68 218 55 219 68 220 67 221 56 222 57 223 69 224 56 225 69 226 68 227 57 228 58 229 70 230 57 231 70 232 69 233 58 234 59 235 71 236 58 237 71 238 70 239 59 240 60 241 72 242 59 243 72 244 71 245 60 246 50 247 62 248 60 249 62 250 72 251 62 252 61 253 73 254 62 255 73 256 74 257 61 258 63 259 75 260 61 261 75 262 73 263 63 264 64 265 76 266 63 267 76 268 75 269 64 270 65 271 77 272 64 273 77 274 76 275 65 276 66 277 78 278 65 279 78 280 77 281 66 282 67 283 79 284 66 285 79 286 78 287 67 288 68 289 80 290 67 291 80 292 79 293 68 294 69 295 81 296 68 297 81 298 80 299 69 300 70 301 82 302 69 303 82 304 81 305 70 306 71 307 83 308 70 309 83 310 82 311 71 312 72 313 84 314 71 315 84 316 83 317 72 318 62 319 74 320 72 321 74 322 84 323 74 324 73 325 85 326 74 327 85 328 86 329 73 330 75 331 87 332 73 333 87 334 85 335 75 336 76 337 88 338 75 339 88 340 87 341 76 342 77 343 89 344 76 345 89 346 88 347 77 348 78 349 90 350 77 351 90 352 89 353 78 354 79 355 91 356 78 357 91 358 90 359 79 360 80 361 92 362 79 363 92 364 91 365 80 366 81 367 93 368 80 369 93 370 92 371 81 372 82 373 94 374 81 375 94 376 93 377 82 378 83 379 95 380 82 381 95 382 94 383 83 384 84 385 96 386 83 387 96 388 95 389 84 390 74 391 86 392 84 393 86 394 96 395 86 396 85 397 97 398 86 399 97 400 98 401 85 402 87 403 99 404 85 405 99 406 97 407 87 408 88 409 100 410 87 411 100 412 99 413 88 414 89 415 101 416 88 417 101 418 100 419 89 420 90 421 102 422 89 423 102 424 101 425 90 426 91 427 103 428 90 429 103 430 102 431 91 432 92 433 104 434 91 435 104 436 103 437 92 438 93 439 105 440 92 441 105 442 104 443 93 444 94 445 106 446 93 447 106 448 105 449 94 450 95 451 107 452 94 453 107 454 106 455 95 456 96 457 108 458 95 459 108 460 107 461 96 462 86 463 98 464 96 465 98 466 108 467 98 468 97 469 109 470 98 471 109 472 110 473 97 474 99 475 111 476 97 477 111 478 109 479 99 480 100 481 112 482 99 483 112 484 111 485 100 486 101 487 113 488 100 489 113 490 112 491 101 492 102 493 114 494 101 495 114 496 113 497 102 498 103 499 115 500 102 501 115 502 114 503 103 504 104 505 116 506 103 507 116 508 115 509 104 510 105 511 117 512 104 513 117 514 116 515 105 516 106 517 118 518 105 519 118 520 117 521 106 522 107 523 119 524 106 525 119 526 118 527 107 528 108 529 120 530 107 531 120 532 119 533 108 534 98 535 110 536 108 537 110 538 120 539 110 540 109 541 121 542 110 543 121 544 122 545 109 546 111 547 123 548 109 549 123 550 121 551 111 552 112 553 124 554 111 555 124 556 123 557 112 558 113 559 125 560 112 561 125 562 124 563 113 564 114 565 126 566 113 567 126 568 125 569 114 570 115 571 127 572 114 573 127 574 126 575 115 576 116 577 128 578 115 579 128 580 127 581 116 582 117 583 129 584 116 585 129 586 128 587 117 588 118 589 130 590 117 591 130 592 129 593 118 594 119 595 131 596 118 597 131 598 130 599 119 600 120 601 132 602 119 603 132 604 131 605 120 606 110 607 122 608 120 609 122 610 132 611 122 612 121 613 133 614 122 615 133 616 133 616 121 617 123 618 133 619 121 620 133 621 133 621 123 622 124 623 133 624 123 625 133 626 133 626 124 627 125 628 133 629 124 630 133 631 133 631 125 632 126 633 133 634 125 635 133 636 133 636 126 637 127 638 133 639 126 640 133 641 133 641 127 642 128 643 133 644 127 645 133 646 133 646 128 647 129 648 133 649 128 650 133 651 133 651 129 652 130 653 133 654 129 655 133 656 133 656 130 657 131 658 133 659 130 660 133 661 133 661 131 662 132 663 133 664 131 665 133 666 133 666 132 667 122 668 133 669 132 670 133 671 133 671 0 672 0 672 1 673 0 674 1 675 2 676 0 677 0 677 3 678 0 679 3 680 1 681 0 682 0 682 4 683 0 684 4 685 3 686 0 687 0 687 5 688 0 689 5 690 4 691 0 692 0 692 6 693 0 694 6 695 5 696 0 697 0 697 7 698 0 699 7 700 6 701 0 702 0 702 8 703 0 704 8 705 7 706 0 707 0 707 9 708 0 709 9 710 8 711 0 712 0 712 10 713 0 714 10 715 9 716 0 717 0 717 11 718 0 719 11 720 10 721 0 722 0 722 12 723 0 724 12 725 11 726 0 727 0 727 2 728 0 729 2 730 12 731 2 732 1 733 13 734 2 735 13 736 14 737 1 738 3 739 15 740 1 741 15 742 13 743 3 744 4 745 16 746 3 747 16 748 15 749 4 750 5 751 17 752 4 753 17 754 16 755 5 756 6 757 18 758 5 759 18 760 17 761 6 762 7 763 19 764 6 765 19 766 18 767 7 768 8 769 20 770 7 771 20 772 19 773 8 774 9 775 21 776 8 777 21 778 20 779 9 780 10 781 22 782 9 783 22 784 21 785 10 786 11 787 23 788 10 789 23 790 22 791 11 792 12 793 24 794 11 795 24 796 23 797 12 798 2 799 14 800 12 801 14 802 24 803 14 804 13 805 25 806 14 807 25 808 26 809 13 810 15 811 27 812 13 813 27 814 25 815 15 816 16 817 28 818 15 819 28 820 27 821 16 822 17 823 29 824 16 825 29 826 28 827 17 828 18 829 30 830 17 831 30 832 29 833 18 834 19 835 31 836 18 837 31 838 30 839</p>
                </triangles>
            </mesh>
        </geometry>
    </library_geometries>
    <library_visual_scenes>
        <visual_scene id="Building_137_CROWN1">
            <node>
                <instance_geometry url="#geometry0">
                    <bind_material>
                        <technique_common>
                            <instance_material symbol="default_ai_0.2_sh_0.2_tr_0.0_dc_r_0.8_g_0.8_b_0.8_sc_r_1.0_g_1.0_b_1.0_ec_r_0.0_g_0.0_b_0_tri" target="#default_ai_0.2_sh_0.2_tr_0.0_dc_r_0.8_g_0.8_b_0.8_sc_r_1.0_g_1.0_b_1.0_ec_r_0.0_g_0.0_b_0_mat"/>
                        </technique_common>
                    </bind_material>
                </instance_geometry>
            </node>
        </visual_scene>
    </library_visual_scenes>
    <scene>
        <instance_visual_scene url="#Building_137_CROWN1"/>
    </scene>
</COLLADA>
