<?xml version="1.0" encoding="UTF-8" standalone="yes"?>
<COLLADA xmlns="http://www.collada.org/2005/11/COLLADASchema" version="1.4.1">
    <asset>
        <contributor>
            <authoring_tool>3D City Database Importer/Exporter, version 5.5.3; Chair of Geoinformatics, Technical University of Munich</authoring_tool>
        </contributor>
        <created>2026-09-25T14:45:35.641</created>
        <modified>2026-09-25T14:45:35.641</modified>
        <unit meter="1.0" name="meters"/>
        <up_axis>Z_UP</up_axis>
    </asset>
    <library_materials>
        <material id="default_ai_0.2_sh_0.2_tr_0.0_dc_r_0.8_g_0.8_b_0.8_sc_r_1.0_g_1.0_b_1.0_ec_r_0.0_g_0.0_b_0_mat">
            <instance_effect url="#default_ai_0.2_sh_0.2_tr_0.0_dc_r_0.8_g_0.8_b_0.8_sc_r_1.0_g_1.0_b_1.0_ec_r_0.0_g_0.0_b_0_eff"/>
        </material>
    </library_materials>
    <library_effects>
        <effect id="default_ai_0.2_sh_0.2_tr_0.0_dc_r_0.8_g_0.8_b_0.8_sc_r_1.0_g_1.0_b_1.0_ec_r_0.0_g_0.0_b_0_eff">
            <profile_COMMON>
                <technique sid="COMMON">
                    <lambert>
                        <emission>
                            <color>0.0 0.0 0.0 1.0</color>
                        </emission>
                        <diffuse>
                            <color>0.8 0.8 0.8 1.0</color>
                        </diffuse>
                        <reflective>
                            <color>1.0 1.0 1.0 1.0</color>
                        </reflective>
                        <reflectivity>
                            <float>0.2</float>
                        </reflectivity>
                        <transparent opaque="A_ONE">
                            <color>1.0 1.0 1.0 1.0</color>
                        </transparent>
                        <transparency>
                            <float>1.0</float>
                        </transparency>
                    </lambert>
                </technique>
                <extra>
                    <technique profile="GOOGLEEARTH">
                        <double_sided>0</double_sided>
                    </technique>
                </extra>
            </profile_COMMON>
        </effect>
    </library_effects>
    <library_geometries>
        <geometry id="geometry0">
            <mesh>
                <source id="geometry0-position">
                    <float_array id="geometry0-position-array" count="402">0.0 0.0 2.3 0.2577656 0.1488215 2.2608149 0.2976419 0.0 2.2608149 0.1488215 0.2577656 2.2608149 0.0 0.2976419 2.2608149 -0.1488215 0.2577656 2.2608149 -0.2577656 0.1488215 2.2608149 -0.2976419 0.0 2.2608149 -0.2577656 -0.1488215 2.2608149 -0.1488215 -0.2577656 2.2608149 0.0 -0.2976419 2.2608149 0.1488215 -0.2577656 2.2608149 0.2577656 -0.1488215 2.2608149 0.4979649 0.2875 2.1459287 0.575 0.0 2.1459287 0.2875 0.497965 2.1459287 0.0 0.575 2.1459287 -0.2875 0.497965 2.1459287 -0.4979649 0.2875 2.1459287 -0.575 0.0 2.1459287 -0.4979649 -0.2875 2.1459287 -0.2875 -0.497965 2.1459287 0.0 -0.575 2.1459287 0.2875 -0.497965 2.1459287 0.4979649 -0.2875 2.1459287 0.7042278 0.406586 1.963173 0.8131731 0.0 1.963173 0.4065859 0.7042278 1.963173 0.0 0.8131731 1.963173 -0.4065859 0.7042278 1.963173 -0.7042278 0.406586 1.963173 -0.8131731 0.0 1.963173 -0.7042278 -0.406586 1.963173 -0.4065859 -0.7042278 1.963173 0.0 -0.8131731 1.963173 0.4065859 -0.7042278 1.963173 0.7042278 -0.406586 1.963173 0.8625 0.497965 1.725 0.9959288 0.0 1.725 0.4979649 0.8625 1.725 0.0 0.9959288 1.725 -0.4979649 0.8625 1.725 -0.8625 0.497965 1.725 -0.9959288 0.0 1.725 -0.8625 -0.497965 1.725 -0.4979649 -0.8625 1.725 0.0 -0.9959288 1.725 0.4979649 -0.8625 1.725 0.8625 -0.497965 1.725 0.9619934 0.5554074 1.4476419 1.1108149 0.0 1.4476419 0.5554075 0.9619934 1.4476419 0.0 1.1108149 1.4476419 -0.5554075 0.9619934 1.4476419 -0.9619934 0.5554074 1.4476419 -1.1108149 0.0 1.4476419 -0.9619934 -0.5554074 1.4476419 -0.5554075 -0.9619934 1.4476419 0.0 -1.1108149 1.4476419 0.5554075 -0.9619934 1.4476419 0.9619934 -0.5554074 1.4476419 0.9959288 0.575 1.15 1.15 0.0 1.15 0.575 0.9959288 1.15 0.0 1.15 1.15 -0.575 0.9959288 1.15 -0.9959288 0.575 1.15 -1.15 0.0 1.15 -0.9959288 -0.575 1.15 -0.575 -0.9959288 1.15 0.0 -1.15 1.15 0.575 -0.9959288 1.15 0.9959288 -0.575 1.15 0.9619934 0.5554074 0.8523582 1.1108149 0.0 0.8523582 0.5554075 0.9619934 0.8523582 0.0 1.1108149 0.8523582 -0.5554075 0.9619934 0.8523582 -0.9619934 0.5554074 0.8523582 -1.1108149 0.0 0.8523582 -0.9619934 -0.5554074 0.8523582 -0.5554075 -0.9619934 0.8523582 0.0 -1.1108149 0.8523582 0.5554075 -0.9619934 0.8523582 0.9619934 -0.5554074 0.8523582 0.8625 0.497965 0.575 0.9959288 0.0 0.575 0.4979649 0.8625 0.575 0.0 0.9959288 0.575 -0.4979649 0.8625 0.575 -0.8625 0.497965 0.575 -0.9959288 0.0 0.575 -0.8625 -0.497965 0.575 -0.4979649 -0.8625 0.575 0.0 -0.9959288 0.575 0.4979649 -0.8625 0.575 0.8625 -0.497965 0.575 0.7042278 0.406586 0.3368269 0.8131731 0.0 0.3368269 0.4065859 0.7042278 0.3368269 0.0 0.8131731 0.3368269 -0.4065859 0.7042278 0.3368269 -0.7042278 0.406586 0.3368269 -0.8131731 0.0 0.3368269 -0.7042278 -0.406586 0.3368269 -0.4065859 -0.7042278 0.3368269 0.0 -0.8131731 0.3368269 0.4065859 -0.7042278 0.3368269 0.7042278 -0.406586 0.3368269 0.4979649 0.2875 0.1540712 0.575 0.0 0.1540712 0.2875 0.497965 0.1540712 0.0 0.575 0.1540712 -0.2875 0.497965 0.1540712 -0.4979649 0.2875 0.1540712 -0.575 0.0 0.1540712 -0.4979649 -0.2875 0.1540712 -0.2875 -0.497965 0.1540712 0.0 -0.575 0.1540712 0.2875 -0.497965 0.1540712 0.4979649 -0.2875 0.1540712 0.2577656 0.1488215 0.0391851 0.2976419 0.0 0.0391851 0.1488215 0.2577656 0.0391851 0.0 0.2976419 0.0391851 -0.1488215 0.2577656 0.0391851 -0.2577656 0.1488215 0.0391851 -0.2976419 0.0 0.0391851 -0.2577656 -0.1488215 0.0391851 -0.1488215 -0.2577656 0.0391851 0.0 -0.2976419 0.0391851 0.1488215 -0.2577656 0.0391851 0.2577656 -0.1488215 0.0391851 0.0 0.0 0.0</float_array>
                    <technique_common>
                        <accessor count="134" source="#geometry0-position-array" stride="3">
                            <param name="X" type="float"/>
                            <param name="Y" type="float"/>
                            <param name="Z" type="float"/>
                        </accessor>
                    </technique_common>
                </source>
                <source id="geometry0-normal">
                    <float_array id="geometry0-normal-array" count="2520">0.0349525 0.1304458 0.9908391 0.0349525 0.1304458 0.9908391 0.0349525 0.1304458 0.9908391 1.0 0.0 0.0 1.0 0.0 0.0 -0.0349525 0.1304458 0.9908391 -0.0349525 0.1304458 0.9908391 -0.0349525 0.1304458 0.9908391 1.0 0.0 0.0 1.0 0.0 0.0 -0.0954928 0.0954928 0.9908392 -0.0954928 0.0954928 0.9908392 -0.0954928 0.0954928 0.9908392 1.0 0.0 0.0 1.0 0.0 0.0 -0.1304458 0.0349525 0.9908391 -0.1304458 0.0349525 0.9908391 -0.1304458 0.0349525 0.9908391 1.0 0.0 0.0 1.0 0.0 0.0 1.0 0.0 0.0 1.0 0.0 0.0 -0.1304456 -0.0349525 -0.9908391 -0.1304456 -0.0349525 -0.9908391 -0.1304456 -0.0349525 -0.9908391 1.0 0.0 0.0 1.0 0.0 0.0 -0.0954927 -0.0954927 -0.9908392 -0.0954927 -0.0954927 -0.9908392 -0.0954927 -0.0954927 -0.9908392 1.0 0.0 0.0 1.0 0.0 0.0 -0.0349525 -0.1304456 -0.9908391 -0.0349525 -0.1304456 -0.9908391 -0.0349525 -0.1304456 -0.9908391 1.0 0.0 0.0 1.0 0.0 0.0 0.0349525 -0.1304456 -0.9908391 0.0349525 -0.1304456 -0.9908391 0.0349525 -0.1304456 -0.9908391 1.0 0.0 0.0 1.0 0.0 0.0 0.0954927 -0.0954927 -0.9908392 0.0954927 -0.0954927 -0.9908392 0.0954927 -0.0954927 -0.9908392 1.0 0.0 0.0 1.0 0.0 0.0 0.1304456 -0.0349525 -0.9908391 0.1304456 -0.0349525 -0.9908391 0.1304456 -0.0349525 -0.9908391 1.0 0.0 0.0 1.0 0.0 0.0 0.1304456 0.0349525 -0.9908391 0.1304456 0.0349525 -0.9908391 0.1304456 0.0349525 -0.9908391 1.0 0.0 0.0 1.0 0.0 0.0 0.0954927 0.0954927 -0.9908392 0.0954927 0.0954927 -0.9908392 0.0954927 0.0954927 -0.9908392 1.0 0.0 0.0 1.0 0.0 0.0 0.0349525 0.1304456 -0.9908391 0.0349525 0.1304456 -0.9908391 0.0349525 0.1304456 -0.9908391 1.0 0.0 0.0 1.0 0.0 0.0 -0.0349525 0.1304456 -0.9908391 -0.0349525 0.1304456 -0.9908391 -0.0349525 0.1304456 -0.9908391 1.0 0.0 0.0 1.0 0.0 0.0 -0.0954927 0.0954927 -0.9908392 -0.0954927 0.0954927 -0.9908392 -0.0954927 0.0954927 -0.9908392 1.0 0.0 0.0 1.0 0.0 0.0 -0.1304456 0.0349525 -0.9908391 -0.1304456 0.0349525 -0.9908391 -0.1304456 0.0349525 -0.9908391 -0.3806893 -0.1020045 -0.9190597 -0.3806893 -0.1020045 -0.9190597 -0.3806893 -0.1020045 -0.9190597 -0.3806889 -0.1020048 -0.9190599 -0.3806889 -0.1020048 -0.9190599 -0.3806889 -0.1020048 -0.9190599 -0.2786838 -0.2786838 -0.9190596 -0.2786838 -0.2786838 -0.9190596 -0.2786838 -0.2786838 -0.9190596 -0.2786838 -0.2786838 -0.9190596 -0.2786838 -0.2786838 -0.9190596 -0.2786838 -0.2786838 -0.9190596 -0.1020044 -0.3806888 -0.9190599 -0.1020044 -0.3806888 -0.9190599 -0.1020044 -0.3806888 -0.9190599 -0.1020048 -0.380689 -0.9190598 -0.1020048 -0.380689 -0.9190598 -0.1020048 -0.380689 -0.9190598 0.1020045 -0.3806893 -0.9190597 0.1020045 -0.3806893 -0.9190597 0.1020045 -0.3806893 -0.9190597 0.1020048 -0.3806889 -0.9190599 0.1020048 -0.3806889 -0.9190599 0.1020048 -0.3806889 -0.9190599 0.2786838 -0.2786838 -0.9190596 0.2786838 -0.2786838 -0.9190596 0.2786838 -0.2786838 -0.9190596 0.2786838 -0.2786838 -0.9190596 0.2786838 -0.2786838 -0.9190596 0.2786838 -0.2786838 -0.9190596 0.3806888 -0.1020044 -0.9190599 0.3806888 -0.1020044 -0.9190599 0.3806888 -0.1020044 -0.9190599 0.380689 -0.1020048 -0.9190598 0.380689 -0.1020048 -0.9190598 0.380689 -0.1020048 -0.9190598 0.3806893 0.1020045 -0.9190597 0.3806893 0.1020045 -0.9190597 0.3806893 0.1020045 -0.9190597 0.3806889 0.1020048 -0.9190599 0.3806889 0.1020048 -0.9190599 0.3806889 0.1020048 -0.9190599 0.2786838 0.2786838 -0.9190596 0.2786838 0.2786838 -0.9190596 0.2786838 0.2786838 -0.9190596 0.2786838 0.2786838 -0.9190596 0.2786838 0.2786838 -0.9190596 0.2786838 0.2786838 -0.9190596 0.1020044 0.3806888 -0.9190599 0.1020044 0.3806888 -0.9190599 0.1020044 0.3806888 -0.9190599 0.1020048 0.380689 -0.9190598 0.1020048 0.380689 -0.9190598 0.1020048 0.380689 -0.9190598 -0.1020045 0.3806893 -0.9190597 -0.1020045 0.3806893 -0.9190597 -0.1020045 0.3806893 -0.9190597 -0.1020048 0.3806889 -0.9190599 -0.1020048 0.3806889 -0.9190599 -0.1020048 0.3806889 -0.9190599 -0.2786838 0.2786838 -0.9190596 -0.2786838 0.2786838 -0.9190596 -0.2786838 0.2786838 -0.9190596 -0.2786838 0.2786838 -0.9190596 -0.2786838 0.2786838 -0.9190596 -0.2786838 0.2786838 -0.9190596 -0.3806888 0.1020044 -0.9190599 -0.3806888 0.1020044 -0.9190599 -0.3806888 0.1020044 -0.9190599 -0.380689 0.1020048 -0.9190598 -0.380689 0.1020048 -0.9190598 -0.380689 0.1020048 -0.9190598 -0.6008214 -0.1609889 -0.7830046 -0.6008214 -0.1609889 -0.7830046 -0.6008214 -0.1609889 -0.7830046 -0.6008191 -0.1609903 -0.7830061 -0.6008191 -0.1609903 -0.7830061 -0.6008191 -0.1609903 -0.7830061 -0.4398316 -0.4398316 -0.7830047 -0.4398316 -0.4398316 -0.7830047 -0.4398316 -0.4398316 -0.7830047 -0.4398315 -0.4398315 -0.7830048 -0.4398315 -0.4398315 -0.7830048 -0.4398315 -0.4398315 -0.7830048 -0.1609883 -0.6008193 -0.7830064 -0.1609883 -0.6008193 -0.7830064 -0.1609883 -0.6008193 -0.7830064 -0.1609907 -0.6008206 -0.7830049 -0.1609907 -0.6008206 -0.7830049 -0.1609907 -0.6008206 -0.7830049 0.1609889 -0.6008214 -0.7830046 0.1609889 -0.6008214 -0.7830046 0.1609889 -0.6008214 -0.7830046 0.1609903 -0.6008191 -0.7830061 0.1609903 -0.6008191 -0.7830061 0.1609903 -0.6008191 -0.7830061 0.4398316 -0.4398316 -0.7830047 0.4398316 -0.4398316 -0.7830047 0.4398316 -0.4398316 -0.7830047 0.4398315 -0.4398315 -0.7830048 0.4398315 -0.4398315 -0.7830048 0.4398315 -0.4398315 -0.7830048 0.6008193 -0.1609883 -0.7830064 0.6008193 -0.1609883 -0.7830064 0.6008193 -0.1609883 -0.7830064 0.6008206 -0.1609907 -0.7830049 0.6008206 -0.1609907 -0.7830049 0.6008206 -0.1609907 -0.7830049 0.6008214 0.1609889 -0.7830046 0.6008214 0.1609889 -0.7830046 0.6008214 0.1609889 -0.7830046 0.6008191 0.1609903 -0.7830061 0.6008191 0.1609903 -0.7830061 0.6008191 0.1609903 -0.7830061 0.4398316 0.4398316 -0.7830047 0.4398316 0.4398316 -0.7830047 0.4398316 0.4398316 -0.7830047 0.4398315 0.4398315 -0.7830048 0.4398315 0.4398315 -0.7830048 0.4398315 0.4398315 -0.7830048 0.1609883 0.6008193 -0.7830064 0.1609883 0.6008193 -0.7830064 0.1609883 0.6008193 -0.7830064 0.1609907 0.6008206 -0.7830049 0.1609907 0.6008206 -0.7830049 0.1609907 0.6008206 -0.7830049 -0.1609889 0.6008214 -0.7830046 -0.1609889 0.6008214 -0.7830046 -0.1609889 0.6008214 -0.7830046 -0.1609903 0.6008191 -0.7830061 -0.1609903 0.6008191 -0.7830061 -0.1609903 0.6008191 -0.7830061 -0.4398316 0.4398316 -0.7830047 -0.4398316 0.4398316 -0.7830047 -0.4398316 0.4398316 -0.7830047 -0.4398315 0.4398315 -0.7830048 -0.4398315 0.4398315 -0.7830048 -0.4398315 0.4398315 -0.7830048 -0.6008193 0.1609883 -0.7830064 -0.6008193 0.1609883 -0.7830064 -0.6008193 0.1609883 -0.7830064 -0.6008206 0.1609907 -0.7830049 -0.6008206 0.1609907 -0.7830049 -0.6008206 0.1609907 -0.7830049 -0.7760119 -0.2079334 -0.5954573 -0.7760119 -0.2079334 -0.5954573 -0.7760119 -0.2079334 -0.5954573 -0.7760146 -0.2079317 -0.5954542 -0.7760146 -0.2079317 -0.5954542 -0.7760146 -0.2079317 -0.5954542 -0.5680802 -0.5680802 -0.5954575 -0.5680802 -0.5680802 -0.5954575 -0.5680802 -0.5680802 -0.5954575 -0.5680802 -0.5680802 -0.5954575 -0.5680802 -0.5680802 -0.5954575 -0.5680802 -0.5680802 -0.5954575 -0.2079341 -0.7760143 -0.5954539 -0.2079341 -0.7760143 -0.5954539 -0.2079341 -0.7760143 -0.5954539 -0.2079311 -0.7760127 -0.595457 -0.2079311 -0.7760127 -0.595457 -0.2079311 -0.7760127 -0.595457 0.2079334 -0.7760119 -0.5954573 0.2079334 -0.7760119 -0.5954573 0.2079334 -0.7760119 -0.5954573 0.2079317 -0.7760146 -0.5954542 0.2079317 -0.7760146 -0.5954542 0.2079317 -0.7760146 -0.5954542 0.5680802 -0.5680802 -0.5954575 0.5680802 -0.5680802 -0.5954575 0.5680802 -0.5680802 -0.5954575 0.5680802 -0.5680802 -0.5954575 0.5680802 -0.5680802 -0.5954575 0.5680802 -0.5680802 -0.5954575 0.7760143 -0.2079341 -0.5954539 0.7760143 -0.2079341 -0.5954539 0.7760143 -0.2079341 -0.5954539 0.7760127 -0.2079311 -0.595457 0.7760127 -0.2079311 -0.595457 0.7760127 -0.2079311 -0.595457 0.7760119 0.2079334 -0.5954573 0.7760119 0.2079334 -0.5954573 0.7760119 0.2079334 -0.5954573 0.7760146 0.2079317 -0.5954542 0.7760146 0.2079317 -0.5954542 0.7760146 0.2079317 -0.5954542 0.5680802 0.5680802 -0.5954575 0.5680802 0.5680802 -0.5954575 0.5680802 0.5680802 -0.5954575 0.5680802 0.5680802 -0.5954575 0.5680802 0.5680802 -0.5954575 0.5680802 0.5680802 -0.5954575 0.2079341 0.7760143 -0.5954539 0.2079341 0.7760143 -0.5954539 0.2079341 0.7760143 -0.5954539 0.2079311 0.7760127 -0.595457 0.2079311 0.7760127 -0.595457 0.2079311 0.7760127 -0.595457 -0.2079334 0.7760119 -0.5954573 -0.2079334 0.7760119 -0.5954573 -0.2079334 0.7760119 -0.5954573 -0.2079317 0.7760146 -0.5954542 -0.2079317 0.7760146 -0.5954542 -0.2079317 0.7760146 -0.5954542 -0.5680802 0.5680802 -0.5954575 -0.5680802 0.5680802 -0.5954575 -0.5680802 0.5680802 -0.5954575 -0.5680802 0.5680802 -0.5954575 -0.5680802 0.5680802 -0.5954575 -0.5680802 0.5680802 -0.5954575 -0.7760143 0.2079341 -0.5954539 -0.7760143 0.2079341 -0.5954539 -0.7760143 0.2079341 -0.5954539 -0.7760127 0.2079311 -0.595457 -0.7760127 0.2079311 -0.595457 -0.7760127 0.2079311 -0.595457 -0.8968096 -0.2402984 -0.371469 -0.8968096 -0.2402984 -0.371469 -0.8968096 -0.2402984 -0.371469 -0.8968079 -0.2402998 -0.3714721 -0.8968079 -0.2402998 -0.3714721 -0.8968079 -0.2402998 -0.3714721 -0.65651 -0.65651 -0.3714691 -0.65651 -0.65651 -0.3714691 -0.65651 -0.65651 -0.3714691 -0.65651 -0.65651 -0.371469 -0.65651 -0.65651 -0.371469 -0.65651 -0.65651 -0.371469 -0.2402981 -0.8968083 -0.3714723 -0.2402981 -0.8968083 -0.3714723 -0.2402981 -0.8968083 -0.3714723 -0.2403001 -0.8968091 -0.3714691 -0.2403001 -0.8968091 -0.3714691 -0.2403001 -0.8968091 -0.3714691 0.2402984 -0.8968096 -0.371469 0.2402984 -0.8968096 -0.371469 0.2402984 -0.8968096 -0.371469 0.2402998 -0.8968079 -0.3714721 0.2402998 -0.8968079 -0.3714721 0.2402998 -0.8968079 -0.3714721 0.65651 -0.65651 -0.3714691 0.65651 -0.65651 -0.3714691 0.65651 -0.65651 -0.3714691 0.65651 -0.65651 -0.371469 0.65651 -0.65651 -0.371469 0.65651 -0.65651 -0.371469 0.8968083 -0.2402981 -0.3714723 0.8968083 -0.2402981 -0.3714723 0.8968083 -0.2402981 -0.3714723 0.8968091 -0.2403001 -0.3714691 0.8968091 -0.2403001 -0.3714691 0.8968091 -0.2403001 -0.3714691 0.8968096 0.2402984 -0.371469 0.8968096 0.2402984 -0.371469 0.8968096 0.2402984 -0.371469 0.8968079 0.2402998 -0.3714721 0.8968079 0.2402998 -0.3714721 0.8968079 0.2402998 -0.3714721 0.65651 0.65651 -0.3714691 0.65651 0.65651 -0.3714691 0.65651 0.65651 -0.3714691 0.65651 0.65651 -0.371469 0.65651 0.65651 -0.371469 0.65651 0.65651 -0.371469 0.2402981 0.8968083 -0.3714723 0.2402981 0.8968083 -0.3714723 0.2402981 0.8968083 -0.3714723 0.2403001 0.8968091 -0.3714691 0.2403001 0.8968091 -0.3714691 0.2403001 0.8968091 -0.3714691 -0.2402984 0.8968096 -0.371469 -0.2402984 0.8968096 -0.371469 -0.2402984 0.8968096 -0.371469 -0.2402998 0.8968079 -0.3714721 -0.2402998 0.8968079 -0.3714721 -0.2402998 0.8968079 -0.3714721 -0.65651 0.65651 -0.3714691 -0.65651 0.65651 -0.3714691 -0.65651 0.65651 -0.3714691 -0.65651 0.65651 -0.371469 -0.65651 0.65651 -0.371469 -0.65651 0.65651 -0.371469 -0.8968083 0.2402981 -0.3714723 -0.8968083 0.2402981 -0.3714723 -0.8968083 0.2402981 -0.3714723 -0.8968091 0.2403001 -0.3714691 -0.8968091 0.2403001 -0.3714691 -0.8968091 0.2403001 -0.3714691 -0.958209 -0.2567523 -0.1261503 -0.958209 -0.2567523 -0.1261503 -0.958209 -0.2567523 -0.1261503 -0.958209 -0.2567521 -0.1261498 -0.958209 -0.2567521 -0.1261498 -0.958209 -0.2567521 -0.1261498 -0.7014578 -0.7014578 -0.1261501 -0.7014578 -0.7014578 -0.1261501 -0.7014578 -0.7014578 -0.1261501 -0.7014578 -0.7014578 -0.1261501 -0.7014578 -0.7014578 -0.1261501 -0.7014578 -0.7014578 -0.1261501 -0.2567523 -0.958209 -0.1261498 -0.2567523 -0.958209 -0.1261498 -0.2567523 -0.958209 -0.1261498 -0.2567521 -0.958209 -0.1261503 -0.2567521 -0.958209 -0.1261503 -0.2567521 -0.958209 -0.1261503 0.2567523 -0.958209 -0.1261503 0.2567523 -0.958209 -0.1261503 0.2567523 -0.958209 -0.1261503 0.2567521 -0.958209 -0.1261498 0.2567521 -0.958209 -0.1261498 0.2567521 -0.958209 -0.1261498 0.7014578 -0.7014578 -0.1261501 0.7014578 -0.7014578 -0.1261501 0.7014578 -0.7014578 -0.1261501 0.7014578 -0.7014578 -0.1261501 0.7014578 -0.7014578 -0.1261501 0.7014578 -0.7014578 -0.1261501 0.958209 -0.2567523 -0.1261498 0.958209 -0.2567523 -0.1261498 0.958209 -0.2567523 -0.1261498 0.958209 -0.2567521 -0.1261503 0.958209 -0.2567521 -0.1261503 0.958209 -0.2567521 -0.1261503 0.958209 0.2567523 -0.1261503 0.958209 0.2567523 -0.1261503 0.958209 0.2567523 -0.1261503 0.958209 0.2567521 -0.1261498 0.958209 0.2567521 -0.1261498 0.958209 0.2567521 -0.1261498 0.7014578 0.7014578 -0.1261501 0.7014578 0.7014578 -0.1261501 0.7014578 0.7014578 -0.1261501 0.7014578 0.7014578 -0.1261501 0.7014578 0.7014578 -0.1261501 0.7014578 0.7014578 -0.1261501 0.2567523 0.958209 -0.1261498 0.2567523 0.958209 -0.1261498 0.2567523 0.958209 -0.1261498 0.2567521 0.958209 -0.1261503 0.2567521 0.958209 -0.1261503 0.2567521 0.958209 -0.1261503 -0.2567523 0.958209 -0.1261503 -0.2567523 0.958209 -0.1261503 -0.2567523 0.958209 -0.1261503 -0.2567521 0.958209 -0.1261498 -0.2567521 0.958209 -0.1261498 -0.2567521 0.958209 -0.1261498 -0.7014578 0.7014578 -0.1261501 -0.7014578 0.7014578 -0.1261501 -0.7014578 0.7014578 -0.1261501 -0.7014578 0.7014578 -0.1261501 -0.7014578 0.7014578 -0.1261501 -0.7014578 0.7014578 -0.1261501 -0.958209 0.2567523 -0.1261498 -0.958209 0.2567523 -0.1261498 -0.958209 0.2567523 -0.1261498 -0.958209 0.2567521 -0.1261503 -0.958209 0.2567521 -0.1261503 -0.958209 0.2567521 -0.1261503 -0.958209 -0.2567521 0.1261503 -0.958209 -0.2567521 0.1261503 -0.958209 -0.2567521 0.1261503 -0.958209 -0.2567523 0.1261498 -0.958209 -0.2567523 0.1261498 -0.958209 -0.2567523 0.1261498 -0.7014578 -0.7014578 0.1261501 -0.7014578 -0.7014578 0.1261501 -0.7014578 -0.7014578 0.1261501 -0.7014578 -0.7014578 0.1261502 -0.7014578 -0.7014578 0.1261502 -0.7014578 -0.7014578 0.1261502 -0.2567521 -0.958209 0.1261498 -0.2567521 -0.958209 0.1261498 -0.2567521 -0.958209 0.1261498 -0.2567523 -0.9582089 0.1261503 -0.2567523 -0.9582089 0.1261503 -0.2567523 -0.9582089 0.1261503 0.2567521 -0.958209 0.1261503 0.2567521 -0.958209 0.1261503 0.2567521 -0.958209 0.1261503 0.2567523 -0.958209 0.1261498 0.2567523 -0.958209 0.1261498 0.2567523 -0.958209 0.1261498 0.7014578 -0.7014578 0.1261501 0.7014578 -0.7014578 0.1261501 0.7014578 -0.7014578 0.1261501 0.7014578 -0.7014578 0.1261502 0.7014578 -0.7014578 0.1261502 0.7014578 -0.7014578 0.1261502 0.958209 -0.2567521 0.1261498 0.958209 -0.2567521 0.1261498 0.958209 -0.2567521 0.1261498 0.9582089 -0.2567523 0.1261503 0.9582089 -0.2567523 0.1261503 0.9582089 -0.2567523 0.1261503 0.958209 0.2567521 0.1261503 0.958209 0.2567521 0.1261503 0.958209 0.2567521 0.1261503 0.958209 0.2567523 0.1261498 0.958209 0.2567523 0.1261498 0.958209 0.2567523 0.1261498 0.7014578 0.7014578 0.1261501 0.7014578 0.7014578 0.1261501 0.7014578 0.7014578 0.1261501 0.7014578 0.7014578 0.1261502 0.7014578 0.7014578 0.1261502 0.7014578 0.7014578 0.1261502 0.2567521 0.958209 0.1261498 0.2567521 0.958209 0.1261498 0.2567521 0.958209 0.1261498 0.2567523 0.9582089 0.1261503 0.2567523 0.9582089 0.1261503 0.2567523 0.9582089 0.1261503 -0.2567521 0.958209 0.1261503 -0.2567521 0.958209 0.1261503 -0.2567521 0.958209 0.1261503 -0.2567523 0.958209 0.1261498 -0.2567523 0.958209 0.1261498 -0.2567523 0.958209 0.1261498 -0.7014578 0.7014578 0.1261501 -0.7014578 0.7014578 0.1261501 -0.7014578 0.7014578 0.1261501 -0.7014578 0.7014578 0.1261502 -0.7014578 0.7014578 0.1261502 -0.7014578 0.7014578 0.1261502 -0.958209 0.2567521 0.1261498 -0.958209 0.2567521 0.1261498 -0.958209 0.2567521 0.1261498 -0.9582089 0.2567523 0.1261503 -0.9582089 0.2567523 0.1261503 -0.9582089 0.2567523 0.1261503 -0.896809 -0.2403001 0.3714692 -0.896809 -0.2403001 0.3714692 -0.896809 -0.2403001 0.3714692 -0.8968083 -0.2402981 0.3714723 -0.8968083 -0.2402981 0.3714723 -0.8968083 -0.2402981 0.3714723 -0.65651 -0.65651 0.3714691 -0.65651 -0.65651 0.3714691 -0.65651 -0.65651 0.3714691 -0.6565099 -0.6565099 0.3714691 -0.6565099 -0.6565099 0.3714691 -0.6565099 -0.6565099 0.3714691 -0.2402998 -0.8968079 0.3714721 -0.2402998 -0.8968079 0.3714721 -0.2402998 -0.8968079 0.3714721 -0.2402984 -0.8968096 0.371469 -0.2402984 -0.8968096 0.371469 -0.2402984 -0.8968096 0.371469 0.2403001 -0.896809 0.3714692 0.2403001 -0.896809 0.3714692 0.2403001 -0.896809 0.3714692 0.2402981 -0.8968083 0.3714723 0.2402981 -0.8968083 0.3714723 0.2402981 -0.8968083 0.3714723 0.65651 -0.65651 0.3714691 0.65651 -0.65651 0.3714691 0.65651 -0.65651 0.3714691 0.6565099 -0.6565099 0.3714691 0.6565099 -0.6565099 0.3714691 0.6565099 -0.6565099 0.3714691 0.8968079 -0.2402998 0.3714721 0.8968079 -0.2402998 0.3714721 0.8968079 -0.2402998 0.3714721 0.8968096 -0.2402984 0.371469 0.8968096 -0.2402984 0.371469 0.8968096 -0.2402984 0.371469 0.896809 0.2403001 0.3714692 0.896809 0.2403001 0.3714692 0.896809 0.2403001 0.3714692 0.8968083 0.2402981 0.3714723 0.8968083 0.2402981 0.3714723 0.8968083 0.2402981 0.3714723 0.65651 0.65651 0.3714691 0.65651 0.65651 0.3714691 0.65651 0.65651 0.3714691 0.6565099 0.6565099 0.3714691 0.6565099 0.6565099 0.3714691 0.6565099 0.6565099 0.3714691 0.2402998 0.8968079 0.3714721 0.2402998 0.8968079 0.3714721 0.2402998 0.8968079 0.3714721 0.2402984 0.8968096 0.371469 0.2402984 0.8968096 0.371469 0.2402984 0.8968096 0.371469 -0.2403001 0.896809 0.3714692 -0.2403001 0.896809 0.3714692 -0.2403001 0.896809 0.3714692 -0.2402981 0.8968083 0.3714723 -0.2402981 0.8968083 0.3714723 -0.2402981 0.8968083 0.3714723 -0.65651 0.65651 0.3714691 -0.65651 0.65651 0.3714691 -0.65651 0.65651 0.3714691 -0.6565099 0.6565099 0.3714691 -0.6565099 0.6565099 0.3714691 -0.6565099 0.6565099 0.3714691 -0.8968079 0.2402998 0.3714721 -0.8968079 0.2402998 0.3714721 -0.8968079 0.2402998 0.3714721 -0.8968096 0.2402984 0.371469 -0.8968096 0.2402984 0.371469 -0.8968096 0.2402984 0.371469 -0.7760127 -0.2079311 0.5954569 -0.7760127 -0.2079311 0.5954569 -0.7760127 -0.2079311 0.5954569 -0.7760144 -0.2079341 0.5954539 -0.7760144 -0.2079341 0.5954539 -0.7760144 -0.2079341 0.5954539 -0.5680802 -0.5680802 0.5954575 -0.5680802 -0.5680802 0.5954575 -0.5680802 -0.5680802 0.5954575 -0.5680803 -0.5680803 0.5954574 -0.5680803 -0.5680803 0.5954574 -0.5680803 -0.5680803 0.5954574 -0.2079317 -0.7760147 0.5954541 -0.2079317 -0.7760147 0.5954541 -0.2079317 -0.7760147 0.5954541 -0.2079334 -0.7760118 0.5954572 -0.2079334 -0.7760118 0.5954572 -0.2079334 -0.7760118 0.5954572 0.2079311 -0.7760127 0.5954569 0.2079311 -0.7760127 0.5954569 0.2079311 -0.7760127 0.5954569 0.2079341 -0.7760144 0.5954539 0.2079341 -0.7760144 0.5954539 0.2079341 -0.7760144 0.5954539 0.5680802 -0.5680802 0.5954575 0.5680802 -0.5680802 0.5954575 0.5680802 -0.5680802 0.5954575 0.5680803 -0.5680803 0.5954574 0.5680803 -0.5680803 0.5954574 0.5680803 -0.5680803 0.5954574 0.7760147 -0.2079317 0.5954541 0.7760147 -0.2079317 0.5954541 0.7760147 -0.2079317 0.5954541 0.7760118 -0.2079334 0.5954572 0.7760118 -0.2079334 0.5954572 0.7760118 -0.2079334 0.5954572 0.7760127 0.2079311 0.5954569 0.7760127 0.2079311 0.5954569 0.7760127 0.2079311 0.5954569 0.7760144 0.2079341 0.5954539 0.7760144 0.2079341 0.5954539 0.7760144 0.2079341 0.5954539 0.5680802 0.5680802 0.5954575 0.5680802 0.5680802 0.5954575 0.5680802 0.5680802 0.5954575 0.5680803 0.5680803 0.5954574 0.5680803 0.5680803 0.5954574 0.5680803 0.5680803 0.5954574 0.2079317 0.7760147 0.5954541 0.2079317 0.7760147 0.5954541 0.2079317 0.7760147 0.5954541 0.2079334 0.7760118 0.5954572 0.2079334 0.7760118 0.5954572 0.2079334 0.7760118 0.5954572 -0.2079311 0.7760127 0.5954569 -0.2079311 0.7760127 0.5954569 -0.2079311 0.7760127 0.5954569 -0.2079341 0.7760144 0.5954539 -0.2079341 0.7760144 0.5954539 -0.2079341 0.7760144 0.5954539 -0.5680802 0.5680802 0.5954575 -0.5680802 0.5680802 0.5954575 -0.5680802 0.5680802 0.5954575 -0.5680803 0.5680803 0.5954574 -0.5680803 0.5680803 0.5954574 -0.5680803 0.5680803 0.5954574 -0.7760147 0.2079317 0.5954541 -0.7760147 0.2079317 0.5954541 -0.7760147 0.2079317 0.5954541 -0.7760118 0.2079334 0.5954572 -0.7760118 0.2079334 0.5954572 -0.7760118 0.2079334 0.5954572 -0.6008204 -0.1609906 0.7830052 -0.6008204 -0.1609906 0.7830052 -0.6008204 -0.1609906 0.7830052 -0.6008191 -0.1609882 0.7830065 -0.6008191 -0.1609882 0.7830065 -0.6008191 -0.1609882 0.7830065 -0.4398313 -0.4398313 0.7830049 -0.4398313 -0.4398313 0.7830049 -0.4398313 -0.4398313 0.7830049 -0.4398313 -0.4398313 0.783005 -0.4398313 -0.4398313 0.783005 -0.4398313 -0.4398313 0.783005 -0.1609902 -0.6008188 0.7830063 -0.1609902 -0.6008188 0.7830063 -0.1609902 -0.6008188 0.7830063 -0.1609888 -0.6008211 0.7830048 -0.1609888 -0.6008211 0.7830048 -0.1609888 -0.6008211 0.7830048 0.1609906 -0.6008204 0.7830052 0.1609906 -0.6008204 0.7830052 0.1609906 -0.6008204 0.7830052 0.1609882 -0.6008191 0.7830065 0.1609882 -0.6008191 0.7830065 0.1609882 -0.6008191 0.7830065 0.4398313 -0.4398313 0.7830049 0.4398313 -0.4398313 0.7830049 0.4398313 -0.4398313 0.7830049 0.4398313 -0.4398313 0.783005 0.4398313 -0.4398313 0.783005 0.4398313 -0.4398313 0.783005 0.6008188 -0.1609902 0.7830063 0.6008188 -0.1609902 0.7830063 0.6008188 -0.1609902 0.7830063 0.6008211 -0.1609888 0.7830048 0.6008211 -0.1609888 0.7830048 0.6008211 -0.1609888 0.7830048 0.6008204 0.1609906 0.7830052 0.6008204 0.1609906 0.7830052 0.6008204 0.1609906 0.7830052 0.6008191 0.1609882 0.7830065 0.6008191 0.1609882 0.7830065 0.6008191 0.1609882 0.7830065 0.4398313 0.4398313 0.7830049 0.4398313 0.4398313 0.7830049 0.4398313 0.4398313 0.7830049 0.4398313 0.4398313 0.783005 0.4398313 0.4398313 0.783005 0.4398313 0.4398313 0.783005 0.1609902 0.6008188 0.7830063 0.1609902 0.6008188 0.7830063 0.1609902 0.6008188 0.7830063 0.1609888 0.6008211 0.7830048 0.1609888 0.6008211 0.7830048 0.1609888 0.6008211 0.7830048 -0.1609906 0.6008204 0.7830052 -0.1609906 0.6008204 0.7830052 -0.1609906 0.6008204 0.7830052 -0.1609882 0.6008191 0.7830065 -0.1609882 0.6008191 0.7830065 -0.1609882 0.6008191 0.7830065 -0.4398313 0.4398313 0.7830049 -0.4398313 0.4398313 0.7830049 -0.4398313 0.4398313 0.7830049 -0.4398313 0.4398313 0.783005 -0.4398313 0.4398313 0.783005 -0.4398313 0.4398313 0.783005 -0.6008188 0.1609902 0.7830063 -0.6008188 0.1609902 0.7830063 -0.6008188 0.1609902 0.7830063 -0.6008211 0.1609888 0.7830048 -0.6008211 0.1609888 0.7830048 -0.6008211 0.1609888 0.7830048 -0.3806893 -0.1020049 0.9190596 -0.3806893 -0.1020049 0.9190596 -0.3806893 -0.1020049 0.9190596 -0.3806892 -0.1020045 0.9190598 -0.3806892 -0.1020045 0.9190598 -0.3806892 -0.1020045 0.9190598 -0.278684 -0.278684 0.9190595 -0.278684 -0.278684 0.9190595 -0.278684 -0.278684 0.9190595 -0.2786841 -0.2786841 0.9190595 -0.2786841 -0.2786841 0.9190595 -0.2786841 -0.2786841 0.9190595 -0.1020049 -0.3806891 0.9190597 -0.1020049 -0.3806891 0.9190597 -0.1020049 -0.3806891 0.9190597 -0.1020046 -0.3806896 0.9190596 -0.1020046 -0.3806896 0.9190596 -0.1020046 -0.3806896 0.9190596 0.1020049 -0.3806893 0.9190596 0.1020049 -0.3806893 0.9190596 0.1020049 -0.3806893 0.9190596 0.1020045 -0.3806892 0.9190598 0.1020045 -0.3806892 0.9190598 0.1020045 -0.3806892 0.9190598 0.278684 -0.278684 0.9190595 0.278684 -0.278684 0.9190595 0.278684 -0.278684 0.9190595 0.2786841 -0.2786841 0.9190595 0.2786841 -0.2786841 0.9190595 0.2786841 -0.2786841 0.9190595 0.3806891 -0.1020049 0.9190597 0.3806891 -0.1020049 0.9190597 0.3806891 -0.1020049 0.9190597 0.3806896 -0.1020046 0.9190596 0.3806896 -0.1020046 0.9190596 0.3806896 -0.1020046 0.9190596 0.3806893 0.1020049 0.9190596 0.3806893 0.1020049 0.9190596 0.3806893 0.1020049 0.9190596 0.3806892 0.1020045 0.9190598 0.3806892 0.1020045 0.9190598 0.3806892 0.1020045 0.9190598 0.278684 0.278684 0.9190595 0.278684 0.278684 0.9190595 0.278684 0.278684 0.9190595 0.2786841 0.2786841 0.9190595 0.2786841 0.2786841 0.9190595 0.2786841 0.2786841 0.9190595 0.1020049 0.3806891 0.9190597 0.1020049 0.3806891 0.9190597 0.1020049 0.3806891 0.9190597 0.1020046 0.3806896 0.9190596 0.1020046 0.3806896 0.9190596 0.1020046 0.3806896 0.9190596 -0.1020049 0.3806893 0.9190596 -0.1020049 0.3806893 0.9190596 -0.1020049 0.3806893 0.9190596 -0.1020045 0.3806892 0.9190598 -0.1020045 0.3806892 0.9190598 -0.1020045 0.3806892 0.9190598 -0.278684 0.278684 0.9190595 -0.278684 0.278684 0.9190595 -0.278684 0.278684 0.9190595 -0.2786841 0.2786841 0.9190595 -0.2786841 0.2786841 0.9190595 -0.2786841 0.2786841 0.9190595 -0.3806891 0.1020049 0.9190597 -0.3806891 0.1020049 0.9190597 -0.3806891 0.1020049 0.9190597 -0.3806896 0.1020046 0.9190596 -0.3806896 0.1020046 0.9190596 -0.3806896 0.1020046 0.9190596 -0.1304458 -0.0349525 0.9908391 -0.1304458 -0.0349525 0.9908391 -0.1304458 -0.0349525 0.9908391 1.0 0.0 0.0 1.0 0.0 0.0 -0.0954928 -0.0954928 0.9908392 -0.0954928 -0.0954928 0.9908392 -0.0954928 -0.0954928 0.9908392 1.0 0.0 0.0 1.0 0.0 0.0 -0.0349525 -0.1304458 0.9908391 -0.0349525 -0.1304458 0.9908391 -0.0349525 -0.1304458 0.9908391 1.0 0.0 0.0 1.0 0.0 0.0 0.0349525 -0.1304458 0.9908391 0.0349525 -0.1304458 0.9908391 0.0349525 -0.1304458 0.9908391 1.0 0.0 0.0 1.0 0.0 0.0 0.0954928 -0.0954928 0.9908392 0.0954928 -0.0954928 0.9908392 0.0954928 -0.0954928 0.9908392 1.0 0.0 0.0 1.0 0.0 0.0 0.1304458 -0.0349525 0.9908391 0.1304458 -0.0349525 0.9908391 0.1304458 -0.0349525 0.9908391 1.0 0.0 0.0 1.0 0.0 0.0 0.1304458 0.0349525 0.9908391 0.1304458 0.0349525 0.9908391 0.1304458 0.0349525 0.9908391 1.0 0.0 0.0 1.0 0.0 0.0 0.0954928 0.0954928 0.9908392 0.0954928 0.0954928 0.9908392 0.0954928 0.0954928 0.9908392 1.0 0.0 0.0 1.0 0.0 0.0</float_array>
                    <technique_common>
                        <accessor count="840" source="#geometry0-normal-array" stride="3">
                            <param name="X" type="float"/>
                            <param name="Y" type="float"/>
                            <param name="Z" type="float"/>
                        </accessor>
                    </technique_common>
                </source>
                <vertices id="geometry0-vertex">
                    <input semantic="POSITION" source="#geometry0-position"/>
                </vertices>
                <triangles count="288" material="default_ai_0.2_sh_0.2_tr_0.0_dc_r_0.8_g_0.8_b_0.8_sc_r_1.0_g_1.0_b_1.0_ec_r_0.0_g_0.0_b_0_tri">
                    <input offset="0" semantic="VERTEX" source="#geometry0-vertex"/>
                    <input offset="1" semantic="NORMAL" source="#geometry0-normal"/>
                    <p>129 0 130 1 133 2 129 3 133 4 133 4 130 5 131 6 133 7 130 8 133 9 133 9 131 10 132 11 133 12 131 13 133 14 133 14 132 15 122 16 133 17 132 18 133 19 133 19 0 20 0 20 1 21 0 22 1 23 2 24 0 25 0 25 3 26 0 27 3 28 1 29 0 30 0 30 4 31 0 32 4 33 3 34 0 35 0 35 5 36 0 37 5 38 4 39 0 40 0 40 6 41 0 42 6 43 5 44 0 45 0 45 7 46 0 47 7 48 6 49 0 50 0 50 8 51 0 52 8 53 7 54 0 55 0 55 9 56 0 57 9 58 8 59 0 60 0 60 10 61 0 62 10 63 9 64 0 65 0 65 11 66 0 67 11 68 10 69 0 70 0 70 12 71 0 72 12 73 11 74 0 75 0 75 2 76 0 77 2 78 12 79 2 80 1 81 13 82 2 83 13 84 14 85 1 86 3 87 15 88 1 89 15 90 13 91 3 92 4 93 16 94 3 95 16 96 15 97 4 98 5 99 17 100 4 101 17 102 16 103 5 104 6 105 18 106 5 107 18 108 17 109 6 110 7 111 19 112 6 113 19 114 18 115 7 116 8 117 20 118 7 119 20 120 19 121 8 122 9 123 21 124 8 125 21 126 20 127 9 128 10 129 22 130 9 131 22 132 21 133 10 134 11 135 23 136 10 137 23 138 22 139 11 140 12 141 24 142 11 143 24 144 23 145 12 146 2 147 14 148 12 149 14 150 24 151 14 152 13 153 25 154 14 155 25 156 26 157 13 158 15 159 27 160 13 161 27 162 25 163 15 164 16 165 28 166 15 167 28 168 27 169 16 170 17 171 29 172 16 173 29 174 28 175 17 176 18 177 30 178 17 179 30 180 29 181 18 182 19 183 31 184 18 185 31 186 30 187 19 188 20 189 32 190 19 191 32 192 31 193 20 194 21 195 33 196 20 197 33 198 32 199 21 200 22 201 34 202 21 203 34 204 33 205 22 206 23 207 35 208 22 209 35 210 34 211 23 212 24 213 36 214 23 215 36 216 35 217 24 218 14 219 26 220 24 221 26 222 36 223 26 224 25 225 37 226 26 227 37 228 38 229 25 230 27 231 39 232 25 233 39 234 37 235 27 236 28 237 40 238 27 239 40 240 39 241 28 242 29 243 41 244 28 245 41 246 40 247 29 248 30 249 42 250 29 251 42 252 41 253 30 254 31 255 43 256 30 257 43 258 42 259 31 260 32 261 44 262 31 263 44 264 43 265 32 266 33 267 45 268 32 269 45 270 44 271 33 272 34 273 46 274 33 275 46 276 45 277 34 278 35 279 47 280 34 281 47 282 46 283 35 284 36 285 48 286 35 287 48 288 47 289 36 290 26 291 38 292 36 293 38 294 48 295 38 296 37 297 49 298 38 299 49 300 50 301 37 302 39 303 51 304 37 305 51 306 49 307 39 308 40 309 52 310 39 311 52 312 51 313 40 314 41 315 53 316 40 317 53 318 52 319 41 320 42 321 54 322 41 323 54 324 53 325 42 326 43 327 55 328 42 329 55 330 54 331 43 332 44 333 56 334 43 335 56 336 55 337 44 338 45 339 57 340 44 341 57 342 56 343 45 344 46 345 58 346 45 347 58 348 57 349 46 350 47 351 59 352 46 353 59 354 58 355 47 356 48 357 60 358 47 359 60 360 59 361 48 362 38 363 50 364 48 365 50 366 60 367 50 368 49 369 61 370 50 371 61 372 62 373 49 374 51 375 63 376 49 377 63 378 61 379 51 380 52 381 64 382 51 383 64 384 63 385 52 386 53 387 65 388 52 389 65 390 64 391 53 392 54 393 66 394 53 395 66 396 65 397 54 398 55 399 67 400 54 401 67 402 66 403 55 404 56 405 68 406 55 407 68 408 67 409 56 410 57 411 69 412 56 413 69 414 68 415 57 416 58 417 70 418 57 419 70 420 69 421 58 422 59 423 71 424 58 425 71 426 70 427 59 428 60 429 72 430 59 431 72 432 71 433 60 434 50 435 62 436 60 437 62 438 72 439 62 440 61 441 73 442 62 443 73 444 74 445 61 446 63 447 75 448 61 449 75 450 73 451 63 452 64 453 76 454 63 455 76 456 75 457 64 458 65 459 77 460 64 461 77 462 76 463 65 464 66 465 78 466 65 467 78 468 77 469 66 470 67 471 79 472 66 473 79 474 78 475 67 476 68 477 80 478 67 479 80 480 79 481 68 482 69 483 81 484 68 485 81 486 80 487 69 488 70 489 82 490 69 491 82 492 81 493 70 494 71 495 83 496 70 497 83 498 82 499 71 500 72 501 84 502 71 503 84 504 83 505 72 506 62 507 74 508 72 509 74 510 84 511 74 512 73 513 85 514 74 515 85 516 86 517 73 518 75 519 87 520 73 521 87 522 85 523 75 524 76 525 88 526 75 527 88 528 87 529 76 530 77 531 89 532 76 533 89 534 88 535 77 536 78 537 90 538 77 539 90 540 89 541 78 542 79 543 91 544 78 545 91 546 90 547 79 548 80 549 92 550 79 551 92 552 91 553 80 554 81 555 93 556 80 557 93 558 92 559 81 560 82 561 94 562 81 563 94 564 93 565 82 566 83 567 95 568 82 569 95 570 94 571 83 572 84 573 96 574 83 575 96 576 95 577 84 578 74 579 86 580 84 581 86 582 96 583 86 584 85 585 97 586 86 587 97 588 98 589 85 590 87 591 99 592 85 593 99 594 97 595 87 596 88 597 100 598 87 599 100 600 99 601 88 602 89 603 101 604 88 605 101 606 100 607 89 608 90 609 102 610 89 611 102 612 101 613 90 614 91 615 103 616 90 617 103 618 102 619 91 620 92 621 104 622 91 623 104 624 103 625 92 626 93 627 105 628 92 629 105 630 104 631 93 632 94 633 106 634 93 635 106 636 105 637 94 638 95 639 107 640 94 641 107 642 106 643 95 644 96 645 108 646 95 647 108 648 107 649 96 650 86 651 98 652 96 653 98 654 108 655 98 656 97 657 109 658 98 659 109 660 110 661 97 662 99 663 111 664 97 665 111 666 109 667 99 668 100 669 112 670 99 671 112 672 111 673 100 674 101 675 113 676 100 677 113 678 112 679 101 680 102 681 114 682 101 683 114 684 113 685 102 686 103 687 115 688 102 689 115 690 114 691 103 692 104 693 116 694 103 695 116 696 115 697 104 698 105 699 117 700 104 701 117 702 116 703 105 704 106 705 118 706 105 707 118 708 117 709 106 710 107 711 119 712 106 713 119 714 118 715 107 716 108 717 120 718 107 719 120 720 119 721 108 722 98 723 110 724 108 725 110 726 120 727 110 728 109 729 121 730 110 731 121 732 122 733 109 734 111 735 123 736 109 737 123 738 121 739 111 740 112 741 124 742 111 743 124 744 123 745 112 746 113 747 125 748 112 749 125 750 124 751 113 752 114 753 126 754 113 755 126 756 125 757 114 758 115 759 127 760 114 761 127 762 126 763 115 764 116 765 128 766 115 767 128 768 127 769 116 770 117 771 129 772 116 773 129 774 128 775 117 776 118 777 130 778 117 779 130 780 129 781 118 782 119 783 131 784 118 785 131 786 130 787 119 788 120 789 132 790 119 791 132 792 131 793 120 794 110 795 122 796 120 797 122 798 132 799 122 800 121 801 133 802 122 803 133 804 133 804 121 805 123 806 133 807 121 808 133 809 133 809 123 810 124 811 133 812 123 813 133 814 133 814 124 815 125 816 133 817 124 818 133 819 133 819 125 820 126 821 133 822 125 823 133 824 133 824 126 825 127 826 133 827 126 828 133 829 133 829 127 830 128 831 133 832 127 833 133 834 133 834 128 835 129 836 133 837 128 838 133 839 133 839</p>
                </triangles>
            </mesh>
        </geometry>
    </library_geometries>
    <library_visual_scenes>
        <visual_scene id="Building_268_CROWN2">
            <node>
                <instance_geometry url="#geometry0">
                    <bind_material>
                        <technique_common>
                            <instance_material symbol="default_ai_0.2_sh_0.2_tr_0.0_dc_r_0.8_g_0.8_b_0.8_sc_r_1.0_g_1.0_b_1.0_ec_r_0.0_g_0.0_b_0_tri" target="#default_ai_0.2_sh_0.2_tr_0.0_dc_r_0.8_g_0.8_b_0.8_sc_r_1.0_g_1.0_b_1.0_ec_r_0.0_g_0.0_b_0_mat"/>
                        </technique_common>
                    </bind_material>
                </instance_geometry>
            </node>
        </visual_scene>
    </library_visual_scenes>
    <scene>
        <instance_visual_scene url="#Building_268_CROWN2"/>
    </scene>
</COLLADA>
