<?xml version="1.0" encoding="UTF-8" standalone="yes"?>
<COLLADA xmlns="http://www.collada.org/2005/11/COLLADASchema" version="1.4.1">
    <asset>
        <contributor>
            <authoring_tool>3D City Database Importer/Exporter, version 5.5.3; Chair of Geoinformatics, Technical University of Munich</authoring_tool>
        </contributor>
        <created>2026-09-25T14:45:34.141</created>
        <modified>2026-09-25T14:45:34.141</modified>
        <unit meter="1.0" name="meters"/>
        <up_axis>Z_UP</up_axis>
    </asset>
    <library_materials>
        <material id="default_ai_0.2_sh_0.2_tr_0.0_dc_r_0.8_g_0.8_b_0.8_sc_r_1.0_g_1.0_b_1.0_ec_r_0.0_g_0.0_b_0_mat">
            <instance_effect url="#default_ai_0.2_sh_0.2_tr_0.0_dc_r_0.8_g_0.8_b_0.8_sc_r_1.0_g_1.0_b_1.0_ec_r_0.0_g_0.0_b_0_eff"/>
        </material>
    </library_materials>
    <library_effects>
        <effect id="default_ai_0.2_sh_0.2_tr_0.0_dc_r_0.8_g_0.8_b_0.8_sc_r_1.0_g_1.0_b_1.0_ec_r_0.0_g_0.0_b_0_eff">
            <profile_COMMON>
                <technique sid="COMMON">
                    <lambert>
                        <emission>
                            <color>0.0 0.0 0.0 1.0</color>
                        </emission>
                        <diffuse>
                            <color>0.8 0.8 0.8 1.0</color>
                        </diffuse>
                        <reflective>
                            <color>1.0 1.0 1.0 1.0</color>
                        </reflective>
                        <reflectivity>
                            <float>0.2</float>
                        </reflectivity>
                        <transparent opaque="A_ONE">
                            <color>1.0 1.0 1.0 1.0</color>
                        </transparent>
                        <transparency>
                            <float>1.0</float>
                        </transparency>
                    </lambert>
                </technique>
                <extra>
                    <technique profile="GOOGLEEARTH">
                        <double_sided>0</double_sided>
                    </technique>
                </extra>
            </profile_COMMON>
        </effect>
    </library_effects>
    <library_geometries>
        <geometry id="geometry0">
            <mesh>
                <source id="geometry0-position">
                    <float_array id="geometry0-position-array" count="402">0.0 0.0 3.1 0.3474232 0.2005855 3.0471853 0.4011695 0.0 3.0471853 0.2005855 0.3474232 3.0471853 0.0 0.4011695 3.0471853 -0.2005855 0.3474232 3.0471853 -0.3474232 0.2005855 3.0471853 -0.4011695 0.0 3.0471853 -0.3474232 -0.2005855 3.0471853 -0.2005855 -0.3474232 3.0471853 0.0 -0.4011695 3.0471853 0.2005855 -0.3474232 3.0471853 0.3474232 -0.2005855 3.0471853 0.6711701 0.3875 2.8923388 0.775 0.0 2.8923388 0.3875 0.6711701 2.8923388 0.0 0.775 2.8923388 -0.3875 0.6711701 2.8923388 -0.6711701 0.3875 2.8923388 -0.775 0.0 2.8923388 -0.6711701 -0.3875 2.8923388 -0.3875 -0.6711701 2.8923388 0.0 -0.775 2.8923388 0.3875 -0.6711701 2.8923388 0.6711701 -0.3875 2.8923388 0.9491766 0.5480072 2.6460143 1.0960159 0.0 2.6460143 0.5480072 0.9491766 2.6460143 0.0 1.0960159 2.6460143 -0.5480072 0.9491766 2.6460143 -0.9491766 0.5480072 2.6460143 -1.0960159 0.0 2.6460143 -0.9491766 -0.5480072 2.6460143 -0.5480072 -0.9491766 2.6460143 0.0 -1.0960159 2.6460143 0.5480072 -0.9491766 2.6460143 0.9491766 -0.5480072 2.6460143 1.1625 0.6711701 2.325 1.3423388 0.0 2.325 0.6711701 1.1625 2.325 0.0 1.3423388 2.325 -0.6711701 1.1625 2.325 -1.1625 0.6711701 2.325 -1.3423388 0.0 2.325 -1.1625 -0.6711701 2.325 -0.6711701 -1.1625 2.325 0.0 -1.3423388 2.325 0.6711701 -1.1625 2.325 1.1625 -0.6711701 2.325 1.2965998 0.7485926 1.9511694 1.4971853 0.0 1.9511694 0.7485926 1.2965998 1.9511694 0.0 1.4971853 1.9511694 -0.7485926 1.2965998 1.9511694 -1.2965998 0.7485926 1.9511694 -1.4971853 0.0 1.9511694 -1.2965998 -0.7485926 1.9511694 -0.7485926 -1.2965998 1.9511694 0.0 -1.4971853 1.9511694 0.7485926 -1.2965998 1.9511694 1.2965998 -0.7485926 1.9511694 1.3423388 0.775 1.55 1.55 0.0 1.55 0.775 1.3423388 1.55 0.0 1.55 1.55 -0.775 1.3423388 1.55 -1.3423388 0.775 1.55 -1.55 0.0 1.55 -1.3423388 -0.775 1.55 -0.775 -1.3423388 1.55 0.0 -1.55 1.55 0.775 -1.3423388 1.55 1.3423388 -0.775 1.55 1.2965998 0.7485926 1.1488306 1.4971853 0.0 1.1488306 0.7485926 1.2965998 1.1488306 0.0 1.4971853 1.1488306 -0.7485926 1.2965998 1.1488306 -1.2965998 0.7485926 1.1488306 -1.4971853 0.0 1.1488306 -1.2965998 -0.7485926 1.1488306 -0.7485926 -1.2965998 1.1488306 0.0 -1.4971853 1.1488306 0.7485926 -1.2965998 1.1488306 1.2965998 -0.7485926 1.1488306 1.1625 0.6711701 0.775 1.3423388 0.0 0.775 0.6711701 1.1625 0.775 0.0 1.3423388 0.775 -0.6711701 1.1625 0.775 -1.1625 0.6711701 0.775 -1.3423388 0.0 0.775 -1.1625 -0.6711701 0.775 -0.6711701 -1.1625 0.775 0.0 -1.3423388 0.775 0.6711701 -1.1625 0.775 1.1625 -0.6711701 0.775 0.9491766 0.5480072 0.4539842 1.0960159 0.0 0.4539842 0.5480072 0.9491766 0.4539842 0.0 1.0960159 0.4539842 -0.5480072 0.9491766 0.4539842 -0.9491766 0.5480072 0.4539842 -1.0960159 0.0 0.4539842 -0.9491766 -0.5480072 0.4539842 -0.5480072 -0.9491766 0.4539842 0.0 -1.0960159 0.4539842 0.5480072 -0.9491766 0.4539842 0.9491766 -0.5480072 0.4539842 0.6711701 0.3875 0.2076597 0.775 0.0 0.2076597 0.3875 0.6711701 0.2076597 0.0 0.775 0.2076597 -0.3875 0.6711701 0.2076597 -0.6711701 0.3875 0.2076597 -0.775 0.0 0.2076597 -0.6711701 -0.3875 0.2076597 -0.3875 -0.6711701 0.2076597 0.0 -0.775 0.2076597 0.3875 -0.6711701 0.2076597 0.6711701 -0.3875 0.2076597 0.3474232 0.2005855 0.0528147 0.4011695 0.0 0.0528147 0.2005855 0.3474232 0.0528147 0.0 0.4011695 0.0528147 -0.2005855 0.3474232 0.0528147 -0.3474232 0.2005855 0.0528147 -0.4011695 0.0 0.0528147 -0.3474232 -0.2005855 0.0528147 -0.2005855 -0.3474232 0.0528147 0.0 -0.4011695 0.0528147 0.2005855 -0.3474232 0.0528147 0.3474232 -0.2005855 0.0528147 0.0 0.0 0.0</float_array>
                    <technique_common>
                        <accessor count="134" source="#geometry0-position-array" stride="3">
                            <param name="X" type="float"/>
                            <param name="Y" type="float"/>
                            <param name="Z" type="float"/>
                        </accessor>
                    </technique_common>
                </source>
                <source id="geometry0-normal">
                    <float_array id="geometry0-normal-array" count="2520">0.7760146 -0.2079317 0.5954542 0.7760146 -0.2079317 0.5954542 0.7760146 -0.2079317 0.5954542 0.7760118 -0.2079333 0.5954573 0.7760118 -0.2079333 0.5954573 0.7760118 -0.2079333 0.5954573 0.7760127 0.2079311 0.595457 0.7760127 0.2079311 0.595457 0.7760127 0.2079311 0.595457 0.7760143 0.207934 0.595454 0.7760143 0.207934 0.595454 0.7760143 0.207934 0.595454 0.5680802 0.5680802 0.5954576 0.5680802 0.5680802 0.5954576 0.5680802 0.5680802 0.5954576 0.5680802 0.5680802 0.5954576 0.5680802 0.5680802 0.5954576 0.5680802 0.5680802 0.5954576 0.2079317 0.7760146 0.5954542 0.2079317 0.7760146 0.5954542 0.2079317 0.7760146 0.5954542 0.2079333 0.7760118 0.5954573 0.2079333 0.7760118 0.5954573 0.2079333 0.7760118 0.5954573 -0.2079311 0.7760127 0.595457 -0.2079311 0.7760127 0.595457 -0.2079311 0.7760127 0.595457 -0.207934 0.7760143 0.595454 -0.207934 0.7760143 0.595454 -0.207934 0.7760143 0.595454 -0.5680802 0.5680802 0.5954576 -0.5680802 0.5680802 0.5954576 -0.5680802 0.5680802 0.5954576 -0.5680802 0.5680802 0.5954576 -0.5680802 0.5680802 0.5954576 -0.5680802 0.5680802 0.5954576 -0.7760146 0.2079317 0.5954542 -0.7760146 0.2079317 0.5954542 -0.7760146 0.2079317 0.5954542 -0.7760118 0.2079333 0.5954573 -0.7760118 0.2079333 0.5954573 -0.7760118 0.2079333 0.5954573 -0.6008227 -0.1609912 0.7830032 -0.6008227 -0.1609912 0.7830032 -0.6008227 -0.1609912 0.7830032 -0.6008213 -0.1609888 0.7830046 -0.6008213 -0.1609888 0.7830046 -0.6008213 -0.1609888 0.7830046 -0.4398331 -0.4398331 0.783003 -0.4398331 -0.4398331 0.783003 -0.4398331 -0.4398331 0.783003 -0.439833 -0.439833 0.783003 -0.439833 -0.439833 0.783003 -0.439833 -0.439833 0.783003 -0.1609908 -0.6008212 0.7830043 -0.1609908 -0.6008212 0.7830043 -0.1609908 -0.6008212 0.7830043 -0.1609894 -0.6008235 0.7830029 -0.1609894 -0.6008235 0.7830029 -0.1609894 -0.6008235 0.7830029 0.1609912 -0.6008227 0.7830032 0.1609912 -0.6008227 0.7830032 0.1609912 -0.6008227 0.7830032 0.1609888 -0.6008213 0.7830046 0.1609888 -0.6008213 0.7830046 0.1609888 -0.6008213 0.7830046 0.4398331 -0.4398331 0.783003 0.4398331 -0.4398331 0.783003 0.4398331 -0.4398331 0.783003 0.439833 -0.439833 0.783003 0.439833 -0.439833 0.783003 0.439833 -0.439833 0.783003 0.6008212 -0.1609908 0.7830043 0.6008212 -0.1609908 0.7830043 0.6008212 -0.1609908 0.7830043 0.6008235 -0.1609894 0.7830029 0.6008235 -0.1609894 0.7830029 0.6008235 -0.1609894 0.7830029 0.6008227 0.1609912 0.7830032 0.6008227 0.1609912 0.7830032 0.6008227 0.1609912 0.7830032 0.6008213 0.1609888 0.7830046 0.6008213 0.1609888 0.7830046 0.6008213 0.1609888 0.7830046 0.4398331 0.4398331 0.783003 0.4398331 0.4398331 0.783003 0.4398331 0.4398331 0.783003 0.439833 0.439833 0.783003 0.439833 0.439833 0.783003 0.439833 0.439833 0.783003 0.1609908 0.6008212 0.7830043 0.1609908 0.6008212 0.7830043 0.1609908 0.6008212 0.7830043 0.1609894 0.6008235 0.7830029 0.1609894 0.6008235 0.7830029 0.1609894 0.6008235 0.7830029 -0.1609912 0.6008227 0.7830032 -0.1609912 0.6008227 0.7830032 -0.1609912 0.6008227 0.7830032 -0.1609888 0.6008213 0.7830046 -0.1609888 0.6008213 0.7830046 -0.1609888 0.6008213 0.7830046 -0.4398331 0.4398331 0.783003 -0.4398331 0.4398331 0.783003 -0.4398331 0.4398331 0.783003 -0.439833 0.439833 0.783003 -0.439833 0.439833 0.783003 -0.439833 0.439833 0.783003 -0.6008212 0.1609908 0.7830043 -0.6008212 0.1609908 0.7830043 -0.6008212 0.1609908 0.7830043 -0.6008235 0.1609894 0.7830029 -0.6008235 0.1609894 0.7830029 -0.6008235 0.1609894 0.7830029 -0.3806861 -0.102004 0.9190611 -0.3806861 -0.102004 0.9190611 -0.3806861 -0.102004 0.9190611 -0.380686 -0.1020036 0.9190612 -0.380686 -0.1020036 0.9190612 -0.380686 -0.1020036 0.9190612 -0.2786817 -0.2786817 0.9190609 -0.2786817 -0.2786817 0.9190609 -0.2786817 -0.2786817 0.9190609 -0.2786816 -0.2786816 0.9190609 -0.2786816 -0.2786816 0.9190609 -0.2786816 -0.2786816 0.9190609 -0.102004 -0.3806859 0.9190612 -0.102004 -0.3806859 0.9190612 -0.102004 -0.3806859 0.9190612 -0.1020037 -0.3806863 0.919061 -0.1020037 -0.3806863 0.919061 -0.1020037 -0.3806863 0.919061 0.102004 -0.3806861 0.9190611 0.102004 -0.3806861 0.9190611 0.102004 -0.3806861 0.9190611 0.1020036 -0.380686 0.9190612 0.1020036 -0.380686 0.9190612 0.1020036 -0.380686 0.9190612 0.2786817 -0.2786817 0.9190609 0.2786817 -0.2786817 0.9190609 0.2786817 -0.2786817 0.9190609 0.2786816 -0.2786816 0.9190609 0.2786816 -0.2786816 0.9190609 0.2786816 -0.2786816 0.9190609 0.3806859 -0.102004 0.9190612 0.3806859 -0.102004 0.9190612 0.3806859 -0.102004 0.9190612 0.3806863 -0.1020037 0.919061 0.3806863 -0.1020037 0.919061 0.3806863 -0.1020037 0.919061 0.3806861 0.102004 0.9190611 0.3806861 0.102004 0.9190611 0.3806861 0.102004 0.9190611 0.380686 0.1020036 0.9190612 0.380686 0.1020036 0.9190612 0.380686 0.1020036 0.9190612 0.2786817 0.2786817 0.9190609 0.2786817 0.2786817 0.9190609 0.2786817 0.2786817 0.9190609 0.2786816 0.2786816 0.9190609 0.2786816 0.2786816 0.9190609 0.2786816 0.2786816 0.9190609 0.102004 0.3806859 0.9190612 0.102004 0.3806859 0.9190612 0.102004 0.3806859 0.9190612 0.1020037 0.3806863 0.919061 0.1020037 0.3806863 0.919061 0.1020037 0.3806863 0.919061 -0.102004 0.3806861 0.9190611 -0.102004 0.3806861 0.9190611 -0.102004 0.3806861 0.9190611 -0.1020036 0.380686 0.9190612 -0.1020036 0.380686 0.9190612 -0.1020036 0.380686 0.9190612 -0.2786817 0.2786817 0.9190609 -0.2786817 0.2786817 0.9190609 -0.2786817 0.2786817 0.9190609 -0.2786816 0.2786816 0.9190609 -0.2786816 0.2786816 0.9190609 -0.2786816 0.2786816 0.9190609 -0.3806859 0.102004 0.9190612 -0.3806859 0.102004 0.9190612 -0.3806859 0.102004 0.9190612 -0.3806863 0.1020037 0.919061 -0.3806863 0.1020037 0.919061 -0.3806863 0.1020037 0.919061 -0.1304458 -0.0349525 0.9908391 -0.1304458 -0.0349525 0.9908391 -0.1304458 -0.0349525 0.9908391 1.0 0.0 0.0 1.0 0.0 0.0 -0.0954928 -0.0954928 0.9908392 -0.0954928 -0.0954928 0.9908392 -0.0954928 -0.0954928 0.9908392 1.0 0.0 0.0 1.0 0.0 0.0 -0.0349525 -0.1304458 0.9908391 -0.0349525 -0.1304458 0.9908391 -0.0349525 -0.1304458 0.9908391 1.0 0.0 0.0 1.0 0.0 0.0 0.0349525 -0.1304458 0.9908391 0.0349525 -0.1304458 0.9908391 0.0349525 -0.1304458 0.9908391 1.0 0.0 0.0 1.0 0.0 0.0 0.0954928 -0.0954928 0.9908392 0.0954928 -0.0954928 0.9908392 0.0954928 -0.0954928 0.9908392 1.0 0.0 0.0 1.0 0.0 0.0 0.1304458 -0.0349525 0.9908391 0.1304458 -0.0349525 0.9908391 0.1304458 -0.0349525 0.9908391 1.0 0.0 0.0 1.0 0.0 0.0 0.1304458 0.0349525 0.9908391 0.1304458 0.0349525 0.9908391 0.1304458 0.0349525 0.9908391 1.0 0.0 0.0 1.0 0.0 0.0 0.0954928 0.0954928 0.9908392 0.0954928 0.0954928 0.9908392 0.0954928 0.0954928 0.9908392 1.0 0.0 0.0 1.0 0.0 0.0 0.0349525 0.1304458 0.9908391 0.0349525 0.1304458 0.9908391 0.0349525 0.1304458 0.9908391 1.0 0.0 0.0 1.0 0.0 0.0 -0.0349525 0.1304458 0.9908391 -0.0349525 0.1304458 0.9908391 -0.0349525 0.1304458 0.9908391 1.0 0.0 0.0 1.0 0.0 0.0 -0.0954928 0.0954928 0.9908392 -0.0954928 0.0954928 0.9908392 -0.0954928 0.0954928 0.9908392 1.0 0.0 0.0 1.0 0.0 0.0 -0.1304458 0.0349525 0.9908391 -0.1304458 0.0349525 0.9908391 -0.1304458 0.0349525 0.9908391 1.0 0.0 0.0 1.0 0.0 0.0 1.0 0.0 0.0 1.0 0.0 0.0 -0.1304459 -0.0349526 -0.9908391 -0.1304459 -0.0349526 -0.9908391 -0.1304459 -0.0349526 -0.9908391 1.0 0.0 0.0 1.0 0.0 0.0 -0.0954928 -0.0954928 -0.9908392 -0.0954928 -0.0954928 -0.9908392 -0.0954928 -0.0954928 -0.9908392 1.0 0.0 0.0 1.0 0.0 0.0 -0.0349526 -0.1304459 -0.9908391 -0.0349526 -0.1304459 -0.9908391 -0.0349526 -0.1304459 -0.9908391 1.0 0.0 0.0 1.0 0.0 0.0 0.0349526 -0.1304459 -0.9908391 0.0349526 -0.1304459 -0.9908391 0.0349526 -0.1304459 -0.9908391 1.0 0.0 0.0 1.0 0.0 0.0 0.0954928 -0.0954928 -0.9908392 0.0954928 -0.0954928 -0.9908392 0.0954928 -0.0954928 -0.9908392 1.0 0.0 0.0 1.0 0.0 0.0 0.1304459 -0.0349526 -0.9908391 0.1304459 -0.0349526 -0.9908391 0.1304459 -0.0349526 -0.9908391 1.0 0.0 0.0 1.0 0.0 0.0 0.1304459 0.0349526 -0.9908391 0.1304459 0.0349526 -0.9908391 0.1304459 0.0349526 -0.9908391 1.0 0.0 0.0 1.0 0.0 0.0 0.0954928 0.0954928 -0.9908392 0.0954928 0.0954928 -0.9908392 0.0954928 0.0954928 -0.9908392 1.0 0.0 0.0 1.0 0.0 0.0 0.0349526 0.1304459 -0.9908391 0.0349526 0.1304459 -0.9908391 0.0349526 0.1304459 -0.9908391 1.0 0.0 0.0 1.0 0.0 0.0 -0.0349526 0.1304459 -0.9908391 -0.0349526 0.1304459 -0.9908391 -0.0349526 0.1304459 -0.9908391 1.0 0.0 0.0 1.0 0.0 0.0 -0.0954928 0.0954928 -0.9908392 -0.0954928 0.0954928 -0.9908392 -0.0954928 0.0954928 -0.9908392 1.0 0.0 0.0 1.0 0.0 0.0 -0.1304459 0.0349526 -0.9908391 -0.1304459 0.0349526 -0.9908391 -0.1304459 0.0349526 -0.9908391 -0.3806893 -0.1020045 -0.9190597 -0.3806893 -0.1020045 -0.9190597 -0.3806893 -0.1020045 -0.9190597 -0.3806889 -0.1020048 -0.9190598 -0.3806889 -0.1020048 -0.9190598 -0.3806889 -0.1020048 -0.9190598 -0.2786838 -0.2786838 -0.9190596 -0.2786838 -0.2786838 -0.9190596 -0.2786838 -0.2786838 -0.9190596 -0.2786838 -0.2786838 -0.9190596 -0.2786838 -0.2786838 -0.9190596 -0.2786838 -0.2786838 -0.9190596 -0.1020044 -0.380689 -0.9190599 -0.1020044 -0.380689 -0.9190599 -0.1020044 -0.380689 -0.9190599 -0.1020048 -0.3806891 -0.9190598 -0.1020048 -0.3806891 -0.9190598 -0.1020048 -0.3806891 -0.9190598 0.1020045 -0.3806893 -0.9190597 0.1020045 -0.3806893 -0.9190597 0.1020045 -0.3806893 -0.9190597 0.1020048 -0.3806889 -0.9190598 0.1020048 -0.3806889 -0.9190598 0.1020048 -0.3806889 -0.9190598 0.2786838 -0.2786838 -0.9190596 0.2786838 -0.2786838 -0.9190596 0.2786838 -0.2786838 -0.9190596 0.2786838 -0.2786838 -0.9190596 0.2786838 -0.2786838 -0.9190596 0.2786838 -0.2786838 -0.9190596 0.380689 -0.1020044 -0.9190599 0.380689 -0.1020044 -0.9190599 0.380689 -0.1020044 -0.9190599 0.3806891 -0.1020048 -0.9190598 0.3806891 -0.1020048 -0.9190598 0.3806891 -0.1020048 -0.9190598 0.3806893 0.1020045 -0.9190597 0.3806893 0.1020045 -0.9190597 0.3806893 0.1020045 -0.9190597 0.3806889 0.1020048 -0.9190598 0.3806889 0.1020048 -0.9190598 0.3806889 0.1020048 -0.9190598 0.2786838 0.2786838 -0.9190596 0.2786838 0.2786838 -0.9190596 0.2786838 0.2786838 -0.9190596 0.2786838 0.2786838 -0.9190596 0.2786838 0.2786838 -0.9190596 0.2786838 0.2786838 -0.9190596 0.1020044 0.380689 -0.9190599 0.1020044 0.380689 -0.9190599 0.1020044 0.380689 -0.9190599 0.1020048 0.3806891 -0.9190598 0.1020048 0.3806891 -0.9190598 0.1020048 0.3806891 -0.9190598 -0.1020045 0.3806893 -0.9190597 -0.1020045 0.3806893 -0.9190597 -0.1020045 0.3806893 -0.9190597 -0.1020048 0.3806889 -0.9190598 -0.1020048 0.3806889 -0.9190598 -0.1020048 0.3806889 -0.9190598 -0.2786838 0.2786838 -0.9190596 -0.2786838 0.2786838 -0.9190596 -0.2786838 0.2786838 -0.9190596 -0.2786838 0.2786838 -0.9190596 -0.2786838 0.2786838 -0.9190596 -0.2786838 0.2786838 -0.9190596 -0.380689 0.1020044 -0.9190599 -0.380689 0.1020044 -0.9190599 -0.380689 0.1020044 -0.9190599 -0.3806891 0.1020048 -0.9190598 -0.3806891 0.1020048 -0.9190598 -0.3806891 0.1020048 -0.9190598 -0.6008236 -0.1609894 -0.7830027 -0.6008236 -0.1609894 -0.7830027 -0.6008236 -0.1609894 -0.7830027 -0.6008214 -0.1609908 -0.7830043 -0.6008214 -0.1609908 -0.7830043 -0.6008214 -0.1609908 -0.7830043 -0.4398332 -0.4398332 -0.7830029 -0.4398332 -0.4398332 -0.7830029 -0.4398332 -0.4398332 -0.7830029 -0.4398332 -0.4398332 -0.7830029 -0.4398332 -0.4398332 -0.7830029 -0.4398332 -0.4398332 -0.7830029 -0.1609889 -0.6008216 -0.7830045 -0.1609889 -0.6008216 -0.7830045 -0.1609889 -0.6008216 -0.7830045 -0.1609912 -0.6008229 -0.783003 -0.1609912 -0.6008229 -0.783003 -0.1609912 -0.6008229 -0.783003 0.1609894 -0.6008236 -0.7830027 0.1609894 -0.6008236 -0.7830027 0.1609894 -0.6008236 -0.7830027 0.1609908 -0.6008214 -0.7830043 0.1609908 -0.6008214 -0.7830043 0.1609908 -0.6008214 -0.7830043 0.4398332 -0.4398332 -0.7830029 0.4398332 -0.4398332 -0.7830029 0.4398332 -0.4398332 -0.7830029 0.4398332 -0.4398332 -0.7830029 0.4398332 -0.4398332 -0.7830029 0.4398332 -0.4398332 -0.7830029 0.6008216 -0.1609889 -0.7830045 0.6008216 -0.1609889 -0.7830045 0.6008216 -0.1609889 -0.7830045 0.6008229 -0.1609912 -0.783003 0.6008229 -0.1609912 -0.783003 0.6008229 -0.1609912 -0.783003 0.6008236 0.1609894 -0.7830027 0.6008236 0.1609894 -0.7830027 0.6008236 0.1609894 -0.7830027 0.6008214 0.1609908 -0.7830043 0.6008214 0.1609908 -0.7830043 0.6008214 0.1609908 -0.7830043 0.4398332 0.4398332 -0.7830029 0.4398332 0.4398332 -0.7830029 0.4398332 0.4398332 -0.7830029 0.4398332 0.4398332 -0.7830029 0.4398332 0.4398332 -0.7830029 0.4398332 0.4398332 -0.7830029 0.1609889 0.6008216 -0.7830045 0.1609889 0.6008216 -0.7830045 0.1609889 0.6008216 -0.7830045 0.1609912 0.6008229 -0.783003 0.1609912 0.6008229 -0.783003 0.1609912 0.6008229 -0.783003 -0.1609894 0.6008236 -0.7830027 -0.1609894 0.6008236 -0.7830027 -0.1609894 0.6008236 -0.7830027 -0.1609908 0.6008214 -0.7830043 -0.1609908 0.6008214 -0.7830043 -0.1609908 0.6008214 -0.7830043 -0.4398332 0.4398332 -0.7830029 -0.4398332 0.4398332 -0.7830029 -0.4398332 0.4398332 -0.7830029 -0.4398332 0.4398332 -0.7830029 -0.4398332 0.4398332 -0.7830029 -0.4398332 0.4398332 -0.7830029 -0.6008216 0.1609889 -0.7830045 -0.6008216 0.1609889 -0.7830045 -0.6008216 0.1609889 -0.7830045 -0.6008229 0.1609912 -0.783003 -0.6008229 0.1609912 -0.783003 -0.6008229 0.1609912 -0.783003 -0.7760104 -0.207933 -0.5954592 -0.7760104 -0.207933 -0.5954592 -0.7760104 -0.207933 -0.5954592 -0.7760132 -0.2079313 -0.5954562 -0.7760132 -0.2079313 -0.5954562 -0.7760132 -0.2079313 -0.5954562 -0.5680792 -0.5680792 -0.5954596 -0.5680792 -0.5680792 -0.5954596 -0.5680792 -0.5680792 -0.5954596 -0.5680792 -0.5680792 -0.5954595 -0.5680792 -0.5680792 -0.5954595 -0.5680792 -0.5680792 -0.5954595 -0.2079336 -0.7760128 -0.5954559 -0.2079336 -0.7760128 -0.5954559 -0.2079336 -0.7760128 -0.5954559 -0.2079308 -0.7760113 -0.5954589 -0.2079308 -0.7760113 -0.5954589 -0.2079308 -0.7760113 -0.5954589 0.207933 -0.7760104 -0.5954592 0.207933 -0.7760104 -0.5954592 0.207933 -0.7760104 -0.5954592 0.2079313 -0.7760132 -0.5954562 0.2079313 -0.7760132 -0.5954562 0.2079313 -0.7760132 -0.5954562 0.5680792 -0.5680792 -0.5954596 0.5680792 -0.5680792 -0.5954596 0.5680792 -0.5680792 -0.5954596 0.5680792 -0.5680792 -0.5954595 0.5680792 -0.5680792 -0.5954595 0.5680792 -0.5680792 -0.5954595 0.7760128 -0.2079336 -0.5954559 0.7760128 -0.2079336 -0.5954559 0.7760128 -0.2079336 -0.5954559 0.7760113 -0.2079308 -0.5954589 0.7760113 -0.2079308 -0.5954589 0.7760113 -0.2079308 -0.5954589 0.7760104 0.207933 -0.5954592 0.7760104 0.207933 -0.5954592 0.7760104 0.207933 -0.5954592 0.7760132 0.2079313 -0.5954562 0.7760132 0.2079313 -0.5954562 0.7760132 0.2079313 -0.5954562 0.5680792 0.5680792 -0.5954596 0.5680792 0.5680792 -0.5954596 0.5680792 0.5680792 -0.5954596 0.5680792 0.5680792 -0.5954595 0.5680792 0.5680792 -0.5954595 0.5680792 0.5680792 -0.5954595 0.2079336 0.7760128 -0.5954559 0.2079336 0.7760128 -0.5954559 0.2079336 0.7760128 -0.5954559 0.2079308 0.7760113 -0.5954589 0.2079308 0.7760113 -0.5954589 0.2079308 0.7760113 -0.5954589 -0.207933 0.7760104 -0.5954592 -0.207933 0.7760104 -0.5954592 -0.207933 0.7760104 -0.5954592 -0.2079313 0.7760132 -0.5954562 -0.2079313 0.7760132 -0.5954562 -0.2079313 0.7760132 -0.5954562 -0.5680792 0.5680792 -0.5954596 -0.5680792 0.5680792 -0.5954596 -0.5680792 0.5680792 -0.5954596 -0.5680792 0.5680792 -0.5954595 -0.5680792 0.5680792 -0.5954595 -0.5680792 0.5680792 -0.5954595 -0.7760128 0.2079336 -0.5954559 -0.7760128 0.2079336 -0.5954559 -0.7760128 0.2079336 -0.5954559 -0.7760113 0.2079308 -0.5954589 -0.7760113 0.2079308 -0.5954589 -0.7760113 0.2079308 -0.5954589 -0.8968096 -0.2402984 -0.3714689 -0.8968096 -0.2402984 -0.3714689 -0.8968096 -0.2402984 -0.3714689 -0.8968079 -0.2402999 -0.3714721 -0.8968079 -0.2402999 -0.3714721 -0.8968079 -0.2402999 -0.3714721 -0.65651 -0.65651 -0.371469 -0.65651 -0.65651 -0.371469 -0.65651 -0.65651 -0.371469 -0.65651 -0.65651 -0.371469 -0.65651 -0.65651 -0.371469 -0.65651 -0.65651 -0.371469 -0.2402981 -0.8968083 -0.3714722 -0.2402981 -0.8968083 -0.3714722 -0.2402981 -0.8968083 -0.3714722 -0.2403002 -0.8968091 -0.371469 -0.2403002 -0.8968091 -0.371469 -0.2403002 -0.8968091 -0.371469 0.2402984 -0.8968096 -0.3714689 0.2402984 -0.8968096 -0.3714689 0.2402984 -0.8968096 -0.3714689 0.2402999 -0.8968079 -0.3714721 0.2402999 -0.8968079 -0.3714721 0.2402999 -0.8968079 -0.3714721 0.65651 -0.65651 -0.371469 0.65651 -0.65651 -0.371469 0.65651 -0.65651 -0.371469 0.65651 -0.65651 -0.371469 0.65651 -0.65651 -0.371469 0.65651 -0.65651 -0.371469 0.8968083 -0.2402981 -0.3714722 0.8968083 -0.2402981 -0.3714722 0.8968083 -0.2402981 -0.3714722 0.8968091 -0.2403002 -0.371469 0.8968091 -0.2403002 -0.371469 0.8968091 -0.2403002 -0.371469 0.8968096 0.2402984 -0.3714689 0.8968096 0.2402984 -0.3714689 0.8968096 0.2402984 -0.3714689 0.8968079 0.2402999 -0.3714721 0.8968079 0.2402999 -0.3714721 0.8968079 0.2402999 -0.3714721 0.65651 0.65651 -0.371469 0.65651 0.65651 -0.371469 0.65651 0.65651 -0.371469 0.65651 0.65651 -0.371469 0.65651 0.65651 -0.371469 0.65651 0.65651 -0.371469 0.2402981 0.8968083 -0.3714722 0.2402981 0.8968083 -0.3714722 0.2402981 0.8968083 -0.3714722 0.2403002 0.8968091 -0.371469 0.2403002 0.8968091 -0.371469 0.2403002 0.8968091 -0.371469 -0.2402984 0.8968096 -0.3714689 -0.2402984 0.8968096 -0.3714689 -0.2402984 0.8968096 -0.3714689 -0.2402999 0.8968079 -0.3714721 -0.2402999 0.8968079 -0.3714721 -0.2402999 0.8968079 -0.3714721 -0.65651 0.65651 -0.371469 -0.65651 0.65651 -0.371469 -0.65651 0.65651 -0.371469 -0.65651 0.65651 -0.371469 -0.65651 0.65651 -0.371469 -0.65651 0.65651 -0.371469 -0.8968083 0.2402981 -0.3714722 -0.8968083 0.2402981 -0.3714722 -0.8968083 0.2402981 -0.3714722 -0.8968091 0.2403002 -0.371469 -0.8968091 0.2403002 -0.371469 -0.8968091 0.2403002 -0.371469 -0.9582089 -0.2567523 -0.1261504 -0.9582089 -0.2567523 -0.1261504 -0.9582089 -0.2567523 -0.1261504 -0.9582091 -0.256752 -0.1261497 -0.9582091 -0.256752 -0.1261497 -0.9582091 -0.256752 -0.1261497 -0.7014578 -0.7014578 -0.1261502 -0.7014578 -0.7014578 -0.1261502 -0.7014578 -0.7014578 -0.1261502 -0.7014578 -0.7014578 -0.1261502 -0.7014578 -0.7014578 -0.1261502 -0.7014578 -0.7014578 -0.1261502 -0.2567523 -0.958209 -0.1261497 -0.2567523 -0.958209 -0.1261497 -0.2567523 -0.958209 -0.1261497 -0.256752 -0.958209 -0.1261504 -0.256752 -0.958209 -0.1261504 -0.256752 -0.958209 -0.1261504 0.2567523 -0.9582089 -0.1261504 0.2567523 -0.9582089 -0.1261504 0.2567523 -0.9582089 -0.1261504 0.256752 -0.9582091 -0.1261497 0.256752 -0.9582091 -0.1261497 0.256752 -0.9582091 -0.1261497 0.7014578 -0.7014578 -0.1261502 0.7014578 -0.7014578 -0.1261502 0.7014578 -0.7014578 -0.1261502 0.7014578 -0.7014578 -0.1261502 0.7014578 -0.7014578 -0.1261502 0.7014578 -0.7014578 -0.1261502 0.958209 -0.2567523 -0.1261497 0.958209 -0.2567523 -0.1261497 0.958209 -0.2567523 -0.1261497 0.958209 -0.256752 -0.1261504 0.958209 -0.256752 -0.1261504 0.958209 -0.256752 -0.1261504 0.9582089 0.2567523 -0.1261504 0.9582089 0.2567523 -0.1261504 0.9582089 0.2567523 -0.1261504 0.9582091 0.256752 -0.1261497 0.9582091 0.256752 -0.1261497 0.9582091 0.256752 -0.1261497 0.7014578 0.7014578 -0.1261502 0.7014578 0.7014578 -0.1261502 0.7014578 0.7014578 -0.1261502 0.7014578 0.7014578 -0.1261502 0.7014578 0.7014578 -0.1261502 0.7014578 0.7014578 -0.1261502 0.2567523 0.958209 -0.1261497 0.2567523 0.958209 -0.1261497 0.2567523 0.958209 -0.1261497 0.256752 0.958209 -0.1261504 0.256752 0.958209 -0.1261504 0.256752 0.958209 -0.1261504 -0.2567523 0.9582089 -0.1261504 -0.2567523 0.9582089 -0.1261504 -0.2567523 0.9582089 -0.1261504 -0.256752 0.9582091 -0.1261497 -0.256752 0.9582091 -0.1261497 -0.256752 0.9582091 -0.1261497 -0.7014578 0.7014578 -0.1261502 -0.7014578 0.7014578 -0.1261502 -0.7014578 0.7014578 -0.1261502 -0.7014578 0.7014578 -0.1261502 -0.7014578 0.7014578 -0.1261502 -0.7014578 0.7014578 -0.1261502 -0.958209 0.2567523 -0.1261497 -0.958209 0.2567523 -0.1261497 -0.958209 0.2567523 -0.1261497 -0.958209 0.256752 -0.1261504 -0.958209 0.256752 -0.1261504 -0.958209 0.256752 -0.1261504 -0.958209 -0.256752 0.1261504 -0.958209 -0.256752 0.1261504 -0.958209 -0.256752 0.1261504 -0.958209 -0.2567524 0.1261498 -0.958209 -0.2567524 0.1261498 -0.958209 -0.2567524 0.1261498 -0.7014578 -0.7014578 0.1261503 -0.7014578 -0.7014578 0.1261503 -0.7014578 -0.7014578 0.1261503 -0.7014578 -0.7014578 0.1261503 -0.7014578 -0.7014578 0.1261503 -0.7014578 -0.7014578 0.1261503 -0.256752 -0.958209 0.1261498 -0.256752 -0.958209 0.1261498 -0.256752 -0.958209 0.1261498 -0.2567523 -0.958209 0.1261505 -0.2567523 -0.958209 0.1261505 -0.2567523 -0.958209 0.1261505 0.256752 -0.958209 0.1261504 0.256752 -0.958209 0.1261504 0.256752 -0.958209 0.1261504 0.2567524 -0.958209 0.1261498 0.2567524 -0.958209 0.1261498 0.2567524 -0.958209 0.1261498 0.7014578 -0.7014578 0.1261503 0.7014578 -0.7014578 0.1261503 0.7014578 -0.7014578 0.1261503 0.7014578 -0.7014578 0.1261503 0.7014578 -0.7014578 0.1261503 0.7014578 -0.7014578 0.1261503 0.958209 -0.256752 0.1261498 0.958209 -0.256752 0.1261498 0.958209 -0.256752 0.1261498 0.958209 -0.2567523 0.1261505 0.958209 -0.2567523 0.1261505 0.958209 -0.2567523 0.1261505 0.958209 0.256752 0.1261504 0.958209 0.256752 0.1261504 0.958209 0.256752 0.1261504 0.958209 0.2567524 0.1261498 0.958209 0.2567524 0.1261498 0.958209 0.2567524 0.1261498 0.7014578 0.7014578 0.1261503 0.7014578 0.7014578 0.1261503 0.7014578 0.7014578 0.1261503 0.7014578 0.7014578 0.1261503 0.7014578 0.7014578 0.1261503 0.7014578 0.7014578 0.1261503 0.256752 0.958209 0.1261498 0.256752 0.958209 0.1261498 0.256752 0.958209 0.1261498 0.2567523 0.958209 0.1261505 0.2567523 0.958209 0.1261505 0.2567523 0.958209 0.1261505 -0.256752 0.958209 0.1261504 -0.256752 0.958209 0.1261504 -0.256752 0.958209 0.1261504 -0.2567524 0.958209 0.1261498 -0.2567524 0.958209 0.1261498 -0.2567524 0.958209 0.1261498 -0.7014578 0.7014578 0.1261503 -0.7014578 0.7014578 0.1261503 -0.7014578 0.7014578 0.1261503 -0.7014578 0.7014578 0.1261503 -0.7014578 0.7014578 0.1261503 -0.7014578 0.7014578 0.1261503 -0.958209 0.256752 0.1261498 -0.958209 0.256752 0.1261498 -0.958209 0.256752 0.1261498 -0.958209 0.2567523 0.1261505 -0.958209 0.2567523 0.1261505 -0.958209 0.2567523 0.1261505 -0.8968091 -0.2403002 0.3714691 -0.8968091 -0.2403002 0.3714691 -0.8968091 -0.2403002 0.3714691 -0.8968083 -0.2402981 0.3714722 -0.8968083 -0.2402981 0.3714722 -0.8968083 -0.2402981 0.3714722 -0.65651 -0.65651 0.371469 -0.65651 -0.65651 0.371469 -0.65651 -0.65651 0.371469 -0.65651 -0.65651 0.371469 -0.65651 -0.65651 0.371469 -0.65651 -0.65651 0.371469 -0.2402999 -0.896808 0.3714721 -0.2402999 -0.896808 0.3714721 -0.2402999 -0.896808 0.3714721 -0.2402984 -0.8968096 0.3714689 -0.2402984 -0.8968096 0.3714689 -0.2402984 -0.8968096 0.3714689 0.2403002 -0.8968091 0.3714691 0.2403002 -0.8968091 0.3714691 0.2403002 -0.8968091 0.3714691 0.2402981 -0.8968083 0.3714722 0.2402981 -0.8968083 0.3714722 0.2402981 -0.8968083 0.3714722 0.65651 -0.65651 0.371469 0.65651 -0.65651 0.371469 0.65651 -0.65651 0.371469 0.65651 -0.65651 0.371469 0.65651 -0.65651 0.371469 0.65651 -0.65651 0.371469 0.896808 -0.2402999 0.3714721 0.896808 -0.2402999 0.3714721 0.896808 -0.2402999 0.3714721 0.8968096 -0.2402984 0.3714689 0.8968096 -0.2402984 0.3714689 0.8968096 -0.2402984 0.3714689 0.8968091 0.2403002 0.3714691 0.8968091 0.2403002 0.3714691 0.8968091 0.2403002 0.3714691 0.8968083 0.2402981 0.3714722 0.8968083 0.2402981 0.3714722 0.8968083 0.2402981 0.3714722 0.65651 0.65651 0.371469 0.65651 0.65651 0.371469 0.65651 0.65651 0.371469 0.65651 0.65651 0.371469 0.65651 0.65651 0.371469 0.65651 0.65651 0.371469 0.2402999 0.896808 0.3714721 0.2402999 0.896808 0.3714721 0.2402999 0.896808 0.3714721 0.2402984 0.8968096 0.3714689 0.2402984 0.8968096 0.3714689 0.2402984 0.8968096 0.3714689 -0.2403002 0.8968091 0.3714691 -0.2403002 0.8968091 0.3714691 -0.2403002 0.8968091 0.3714691 -0.2402981 0.8968083 0.3714722 -0.2402981 0.8968083 0.3714722 -0.2402981 0.8968083 0.3714722 -0.65651 0.65651 0.371469 -0.65651 0.65651 0.371469 -0.65651 0.65651 0.371469 -0.65651 0.65651 0.371469 -0.65651 0.65651 0.371469 -0.65651 0.65651 0.371469 -0.896808 0.2402999 0.3714721 -0.896808 0.2402999 0.3714721 -0.896808 0.2402999 0.3714721 -0.8968096 0.2402984 0.3714689 -0.8968096 0.2402984 0.3714689 -0.8968096 0.2402984 0.3714689 -0.7760127 -0.2079311 0.595457 -0.7760127 -0.2079311 0.595457 -0.7760127 -0.2079311 0.595457 -0.7760143 -0.207934 0.595454 -0.7760143 -0.207934 0.595454 -0.7760143 -0.207934 0.595454 -0.5680802 -0.5680802 0.5954576 -0.5680802 -0.5680802 0.5954576 -0.5680802 -0.5680802 0.5954576 -0.5680802 -0.5680802 0.5954576 -0.5680802 -0.5680802 0.5954576 -0.5680802 -0.5680802 0.5954576 -0.2079317 -0.7760146 0.5954542 -0.2079317 -0.7760146 0.5954542 -0.2079317 -0.7760146 0.5954542 -0.2079333 -0.7760118 0.5954573 -0.2079333 -0.7760118 0.5954573 -0.2079333 -0.7760118 0.5954573 0.2079311 -0.7760127 0.595457 0.2079311 -0.7760127 0.595457 0.2079311 -0.7760127 0.595457 0.207934 -0.7760143 0.595454 0.207934 -0.7760143 0.595454 0.207934 -0.7760143 0.595454 0.5680802 -0.5680802 0.5954576 0.5680802 -0.5680802 0.5954576 0.5680802 -0.5680802 0.5954576 0.5680802 -0.5680802 0.5954576 0.5680802 -0.5680802 0.5954576 0.5680802 -0.5680802 0.5954576</float_array>
                    <technique_common>
                        <accessor count="840" source="#geometry0-normal-array" stride="3">
                            <param name="X" type="float"/>
                            <param name="Y" type="float"/>
                            <param name="Z" type="float"/>
                        </accessor>
                    </technique_common>
                </source>
                <vertices id="geometry0-vertex">
                    <input semantic="POSITION" source="#geometry0-position"/>
                </vertices>
                <triangles count="288" material="default_ai_0.2_sh_0.2_tr_0.0_dc_r_0.8_g_0.8_b_0.8_sc_r_1.0_g_1.0_b_1.0_ec_r_0.0_g_0.0_b_0_tri">
                    <input offset="0" semantic="VERTEX" source="#geometry0-vertex"/>
                    <input offset="1" semantic="NORMAL" source="#geometry0-normal"/>
                    <p>90 0 91 1 103 2 90 3 103 4 102 5 91 6 92 7 104 8 91 9 104 10 103 11 92 12 93 13 105 14 92 15 105 16 104 17 93 18 94 19 106 20 93 21 106 22 105 23 94 24 95 25 107 26 94 27 107 28 106 29 95 30 96 31 108 32 95 33 108 34 107 35 96 36 86 37 98 38 96 39 98 40 108 41 98 42 97 43 109 44 98 45 109 46 110 47 97 48 99 49 111 50 97 51 111 52 109 53 99 54 100 55 112 56 99 57 112 58 111 59 100 60 101 61 113 62 100 63 113 64 112 65 101 66 102 67 114 68 101 69 114 70 113 71 102 72 103 73 115 74 102 75 115 76 114 77 103 78 104 79 116 80 103 81 116 82 115 83 104 84 105 85 117 86 104 87 117 88 116 89 105 90 106 91 118 92 105 93 118 94 117 95 106 96 107 97 119 98 106 99 119 100 118 101 107 102 108 103 120 104 107 105 120 106 119 107 108 108 98 109 110 110 108 111 110 112 120 113 110 114 109 115 121 116 110 117 121 118 122 119 109 120 111 121 123 122 109 123 123 124 121 125 111 126 112 127 124 128 111 129 124 130 123 131 112 132 113 133 125 134 112 135 125 136 124 137 113 138 114 139 126 140 113 141 126 142 125 143 114 144 115 145 127 146 114 147 127 148 126 149 115 150 116 151 128 152 115 153 128 154 127 155 116 156 117 157 129 158 116 159 129 160 128 161 117 162 118 163 130 164 117 165 130 166 129 167 118 168 119 169 131 170 118 171 131 172 130 173 119 174 120 175 132 176 119 177 132 178 131 179 120 180 110 181 122 182 120 183 122 184 132 185 122 186 121 187 133 188 122 189 133 190 133 190 121 191 123 192 133 193 121 194 133 195 133 195 123 196 124 197 133 198 123 199 133 200 133 200 124 201 125 202 133 203 124 204 133 205 133 205 125 206 126 207 133 208 125 209 133 210 133 210 126 211 127 212 133 213 126 214 133 215 133 215 127 216 128 217 133 218 127 219 133 220 133 220 128 221 129 222 133 223 128 224 133 225 133 225 129 226 130 227 133 228 129 229 133 230 133 230 130 231 131 232 133 233 130 234 133 235 133 235 131 236 132 237 133 238 131 239 133 240 133 240 132 241 122 242 133 243 132 244 133 245 133 245 0 246 0 246 1 247 0 248 1 249 2 250 0 251 0 251 3 252 0 253 3 254 1 255 0 256 0 256 4 257 0 258 4 259 3 260 0 261 0 261 5 262 0 263 5 264 4 265 0 266 0 266 6 267 0 268 6 269 5 270 0 271 0 271 7 272 0 273 7 274 6 275 0 276 0 276 8 277 0 278 8 279 7 280 0 281 0 281 9 282 0 283 9 284 8 285 0 286 0 286 10 287 0 288 10 289 9 290 0 291 0 291 11 292 0 293 11 294 10 295 0 296 0 296 12 297 0 298 12 299 11 300 0 301 0 301 2 302 0 303 2 304 12 305 2 306 1 307 13 308 2 309 13 310 14 311 1 312 3 313 15 314 1 315 15 316 13 317 3 318 4 319 16 320 3 321 16 322 15 323 4 324 5 325 17 326 4 327 17 328 16 329 5 330 6 331 18 332 5 333 18 334 17 335 6 336 7 337 19 338 6 339 19 340 18 341 7 342 8 343 20 344 7 345 20 346 19 347 8 348 9 349 21 350 8 351 21 352 20 353 9 354 10 355 22 356 9 357 22 358 21 359 10 360 11 361 23 362 10 363 23 364 22 365 11 366 12 367 24 368 11 369 24 370 23 371 12 372 2 373 14 374 12 375 14 376 24 377 14 378 13 379 25 380 14 381 25 382 26 383 13 384 15 385 27 386 13 387 27 388 25 389 15 390 16 391 28 392 15 393 28 394 27 395 16 396 17 397 29 398 16 399 29 400 28 401 17 402 18 403 30 404 17 405 30 406 29 407 18 408 19 409 31 410 18 411 31 412 30 413 19 414 20 415 32 416 19 417 32 418 31 419 20 420 21 421 33 422 20 423 33 424 32 425 21 426 22 427 34 428 21 429 34 430 33 431 22 432 23 433 35 434 22 435 35 436 34 437 23 438 24 439 36 440 23 441 36 442 35 443 24 444 14 445 26 446 24 447 26 448 36 449 26 450 25 451 37 452 26 453 37 454 38 455 25 456 27 457 39 458 25 459 39 460 37 461 27 462 28 463 40 464 27 465 40 466 39 467 28 468 29 469 41 470 28 471 41 472 40 473 29 474 30 475 42 476 29 477 42 478 41 479 30 480 31 481 43 482 30 483 43 484 42 485 31 486 32 487 44 488 31 489 44 490 43 491 32 492 33 493 45 494 32 495 45 496 44 497 33 498 34 499 46 500 33 501 46 502 45 503 34 504 35 505 47 506 34 507 47 508 46 509 35 510 36 511 48 512 35 513 48 514 47 515 36 516 26 517 38 518 36 519 38 520 48 521 38 522 37 523 49 524 38 525 49 526 50 527 37 528 39 529 51 530 37 531 51 532 49 533 39 534 40 535 52 536 39 537 52 538 51 539 40 540 41 541 53 542 40 543 53 544 52 545 41 546 42 547 54 548 41 549 54 550 53 551 42 552 43 553 55 554 42 555 55 556 54 557 43 558 44 559 56 560 43 561 56 562 55 563 44 564 45 565 57 566 44 567 57 568 56 569 45 570 46 571 58 572 45 573 58 574 57 575 46 576 47 577 59 578 46 579 59 580 58 581 47 582 48 583 60 584 47 585 60 586 59 587 48 588 38 589 50 590 48 591 50 592 60 593 50 594 49 595 61 596 50 597 61 598 62 599 49 600 51 601 63 602 49 603 63 604 61 605 51 606 52 607 64 608 51 609 64 610 63 611 52 612 53 613 65 614 52 615 65 616 64 617 53 618 54 619 66 620 53 621 66 622 65 623 54 624 55 625 67 626 54 627 67 628 66 629 55 630 56 631 68 632 55 633 68 634 67 635 56 636 57 637 69 638 56 639 69 640 68 641 57 642 58 643 70 644 57 645 70 646 69 647 58 648 59 649 71 650 58 651 71 652 70 653 59 654 60 655 72 656 59 657 72 658 71 659 60 660 50 661 62 662 60 663 62 664 72 665 62 666 61 667 73 668 62 669 73 670 74 671 61 672 63 673 75 674 61 675 75 676 73 677 63 678 64 679 76 680 63 681 76 682 75 683 64 684 65 685 77 686 64 687 77 688 76 689 65 690 66 691 78 692 65 693 78 694 77 695 66 696 67 697 79 698 66 699 79 700 78 701 67 702 68 703 80 704 67 705 80 706 79 707 68 708 69 709 81 710 68 711 81 712 80 713 69 714 70 715 82 716 69 717 82 718 81 719 70 720 71 721 83 722 70 723 83 724 82 725 71 726 72 727 84 728 71 729 84 730 83 731 72 732 62 733 74 734 72 735 74 736 84 737 74 738 73 739 85 740 74 741 85 742 86 743 73 744 75 745 87 746 73 747 87 748 85 749 75 750 76 751 88 752 75 753 88 754 87 755 76 756 77 757 89 758 76 759 89 760 88 761 77 762 78 763 90 764 77 765 90 766 89 767 78 768 79 769 91 770 78 771 91 772 90 773 79 774 80 775 92 776 79 777 92 778 91 779 80 780 81 781 93 782 80 783 93 784 92 785 81 786 82 787 94 788 81 789 94 790 93 791 82 792 83 793 95 794 82 795 95 796 94 797 83 798 84 799 96 800 83 801 96 802 95 803 84 804 74 805 86 806 84 807 86 808 96 809 86 810 85 811 97 812 86 813 97 814 98 815 85 816 87 817 99 818 85 819 99 820 97 821 87 822 88 823 100 824 87 825 100 826 99 827 88 828 89 829 101 830 88 831 101 832 100 833 89 834 90 835 102 836 89 837 102 838 101 839</p>
                </triangles>
            </mesh>
        </geometry>
    </library_geometries>
    <library_visual_scenes>
        <visual_scene id="Building_271_CROWN1">
            <node>
                <instance_geometry url="#geometry0">
                    <bind_material>
                        <technique_common>
                            <instance_material symbol="default_ai_0.2_sh_0.2_tr_0.0_dc_r_0.8_g_0.8_b_0.8_sc_r_1.0_g_1.0_b_1.0_ec_r_0.0_g_0.0_b_0_tri" target="#default_ai_0.2_sh_0.2_tr_0.0_dc_r_0.8_g_0.8_b_0.8_sc_r_1.0_g_1.0_b_1.0_ec_r_0.0_g_0.0_b_0_mat"/>
                        </technique_common>
                    </bind_material>
                </instance_geometry>
            </node>
        </visual_scene>
    </library_visual_scenes>
    <scene>
        <instance_visual_scene url="#Building_271_CROWN1"/>
    </scene>
</COLLADA>
