<?xml version="1.0" encoding="UTF-8" standalone="yes"?>
<COLLADA xmlns="http://www.collada.org/2005/11/COLLADASchema" version="1.4.1">
    <asset>
        <contributor>
            <authoring_tool>3D City Database Importer/Exporter, version 5.5.3; Chair of Geoinformatics, Technical University of Munich</authoring_tool>
        </contributor>
        <created>2026-09-25T14:45:40.193</created>
        <modified>2026-09-25T14:45:40.193</modified>
        <unit meter="1.0" name="meters"/>
        <up_axis>Z_UP</up_axis>
    </asset>
    <library_materials>
        <material id="default_ai_0.2_sh_0.2_tr_0.0_dc_r_0.8_g_0.8_b_0.8_sc_r_1.0_g_1.0_b_1.0_ec_r_0.0_g_0.0_b_0_mat">
            <instance_effect url="#default_ai_0.2_sh_0.2_tr_0.0_dc_r_0.8_g_0.8_b_0.8_sc_r_1.0_g_1.0_b_1.0_ec_r_0.0_g_0.0_b_0_eff"/>
        </material>
    </library_materials>
    <library_effects>
        <effect id="default_ai_0.2_sh_0.2_tr_0.0_dc_r_0.8_g_0.8_b_0.8_sc_r_1.0_g_1.0_b_1.0_ec_r_0.0_g_0.0_b_0_eff">
            <profile_COMMON>
                <technique sid="COMMON">
                    <lambert>
                        <emission>
                            <color>0.0 0.0 0.0 1.0</color>
                        </emission>
                        <diffuse>
                            <color>0.8 0.8 0.8 1.0</color>
                        </diffuse>
                        <reflective>
                            <color>1.0 1.0 1.0 1.0</color>
                        </reflective>
                        <reflectivity>
                            <float>0.2</float>
                        </reflectivity>
                        <transparent opaque="A_ONE">
                            <color>1.0 1.0 1.0 1.0</color>
                        </transparent>
                        <transparency>
                            <float>1.0</float>
                        </transparency>
                    </lambert>
                </technique>
                <extra>
                    <technique profile="GOOGLEEARTH">
                        <double_sided>0</double_sided>
                    </technique>
                </extra>
            </profile_COMMON>
        </effect>
    </library_effects>
    <library_geometries>
        <geometry id="geometry0">
            <mesh>
                <source id="geometry0-position">
                    <float_array id="geometry0-position-array" count="402">0.0 0.0 1.9 0.2129368 0.1229395 1.8676297 0.245878 0.0 1.8676297 0.1229395 0.2129368 1.8676297 0.0 0.2458781 1.8676297 -0.1229395 0.2129368 1.8676297 -0.2129368 0.1229395 1.8676297 -0.245878 0.0 1.8676297 -0.2129368 -0.1229395 1.8676297 -0.1229395 -0.2129368 1.8676297 0.0 -0.2458781 1.8676297 0.1229395 -0.2129368 1.8676297 0.2129368 -0.1229395 1.8676297 0.4113623 0.2375 1.7727237 0.475 0.0 1.7727237 0.2375 0.4113623 1.7727237 0.0 0.475 1.7727237 -0.2375 0.4113623 1.7727237 -0.4113623 0.2375 1.7727237 -0.475 0.0 1.7727237 -0.4113623 -0.2375 1.7727237 -0.2375 -0.4113623 1.7727237 0.0 -0.475 1.7727237 0.2375 -0.4113623 1.7727237 0.4113623 -0.2375 1.7727237 0.5817534 0.3358754 1.6217507 0.6717516 0.0 1.6217507 0.3358753 0.5817534 1.6217507 0.0 0.6717517 1.6217507 -0.3358753 0.5817534 1.6217507 -0.5817534 0.3358754 1.6217507 -0.6717516 0.0 1.6217507 -0.5817534 -0.3358754 1.6217507 -0.3358753 -0.5817534 1.6217507 0.0 -0.6717517 1.6217507 0.3358753 -0.5817534 1.6217507 0.5817534 -0.3358754 1.6217507 0.7125 0.4113623 1.425 0.8227238 0.0 1.425 0.4113623 0.7125 1.425 0.0 0.8227238 1.425 -0.4113623 0.7125 1.425 -0.7125 0.4113623 1.425 -0.8227238 0.0 1.425 -0.7125 -0.4113623 1.425 -0.4113623 -0.7125 1.425 0.0 -0.8227238 1.425 0.4113623 -0.7125 1.425 0.7125 -0.4113623 1.425 0.7946902 0.4588149 1.195878 0.9176297 0.0 1.195878 0.4588149 0.7946902 1.195878 0.0 0.9176297 1.195878 -0.4588149 0.7946902 1.195878 -0.7946902 0.4588149 1.195878 -0.9176297 0.0 1.195878 -0.7946902 -0.4588149 1.195878 -0.4588149 -0.7946902 1.195878 0.0 -0.9176297 1.195878 0.4588149 -0.7946902 1.195878 0.7946902 -0.4588149 1.195878 0.8227238 0.475 0.95 0.95 0.0 0.95 0.475 0.8227238 0.95 0.0 0.95 0.95 -0.475 0.8227238 0.95 -0.8227238 0.475 0.95 -0.95 0.0 0.95 -0.8227238 -0.475 0.95 -0.475 -0.8227238 0.95 0.0 -0.95 0.95 0.475 -0.8227238 0.95 0.8227238 -0.475 0.95 0.7946902 0.4588149 0.704122 0.9176297 0.0 0.704122 0.4588149 0.7946902 0.704122 0.0 0.9176297 0.704122 -0.4588149 0.7946902 0.704122 -0.7946902 0.4588149 0.704122 -0.9176297 0.0 0.704122 -0.7946902 -0.4588149 0.704122 -0.4588149 -0.7946902 0.704122 0.0 -0.9176297 0.704122 0.4588149 -0.7946902 0.704122 0.7946902 -0.4588149 0.704122 0.7125 0.4113623 0.475 0.8227238 0.0 0.475 0.4113623 0.7125 0.475 0.0 0.8227238 0.475 -0.4113623 0.7125 0.475 -0.7125 0.4113623 0.475 -0.8227238 0.0 0.475 -0.7125 -0.4113623 0.475 -0.4113623 -0.7125 0.475 0.0 -0.8227238 0.475 0.4113623 -0.7125 0.475 0.7125 -0.4113623 0.475 0.5817534 0.3358754 0.2782483 0.6717516 0.0 0.2782483 0.3358753 0.5817534 0.2782483 0.0 0.6717517 0.2782483 -0.3358753 0.5817534 0.2782483 -0.5817534 0.3358754 0.2782483 -0.6717516 0.0 0.2782483 -0.5817534 -0.3358754 0.2782483 -0.3358753 -0.5817534 0.2782483 0.0 -0.6717517 0.2782483 0.3358753 -0.5817534 0.2782483 0.5817534 -0.3358754 0.2782483 0.4113623 0.2375 0.1272753 0.475 0.0 0.1272753 0.2375 0.4113623 0.1272753 0.0 0.475 0.1272753 -0.2375 0.4113623 0.1272753 -0.4113623 0.2375 0.1272753 -0.475 0.0 0.1272753 -0.4113623 -0.2375 0.1272753 -0.2375 -0.4113623 0.1272753 0.0 -0.475 0.1272753 0.2375 -0.4113623 0.1272753 0.4113623 -0.2375 0.1272753 0.2129368 0.1229395 0.0323703 0.245878 0.0 0.0323703 0.1229395 0.2129368 0.0323703 0.0 0.2458781 0.0323703 -0.1229395 0.2129368 0.0323703 -0.2129368 0.1229395 0.0323703 -0.245878 0.0 0.0323703 -0.2129368 -0.1229395 0.0323703 -0.1229395 -0.2129368 0.0323703 0.0 -0.2458781 0.0323703 0.1229395 -0.2129368 0.0323703 0.2129368 -0.1229395 0.0323703 0.0 0.0 0.0</float_array>
                    <technique_common>
                        <accessor count="134" source="#geometry0-position-array" stride="3">
                            <param name="X" type="float"/>
                            <param name="Y" type="float"/>
                            <param name="Z" type="float"/>
                        </accessor>
                    </technique_common>
                </source>
                <source id="geometry0-normal">
                    <float_array id="geometry0-normal-array" count="2520">0.4398331 0.4398331 -0.7830029 0.4398331 0.4398331 -0.7830029 0.4398331 0.4398331 -0.7830029 0.4398331 0.4398331 -0.7830029 0.4398331 0.4398331 -0.7830029 0.4398331 0.4398331 -0.7830029 0.1609889 0.6008214 -0.7830047 0.1609889 0.6008214 -0.7830047 0.1609889 0.6008214 -0.7830047 0.1609914 0.6008228 -0.7830032 0.1609914 0.6008228 -0.7830032 0.1609914 0.6008228 -0.7830032 -0.1609895 0.6008236 -0.7830028 -0.1609895 0.6008236 -0.7830028 -0.1609895 0.6008236 -0.7830028 -0.1609909 0.6008212 -0.7830043 -0.1609909 0.6008212 -0.7830043 -0.1609909 0.6008212 -0.7830043 -0.4398331 0.4398331 -0.7830029 -0.4398331 0.4398331 -0.7830029 -0.4398331 0.4398331 -0.7830029 -0.4398331 0.4398331 -0.7830029 -0.4398331 0.4398331 -0.7830029 -0.4398331 0.4398331 -0.7830029 -0.6008214 0.1609889 -0.7830047 -0.6008214 0.1609889 -0.7830047 -0.6008214 0.1609889 -0.7830047 -0.6008228 0.1609914 -0.7830032 -0.6008228 0.1609914 -0.7830032 -0.6008228 0.1609914 -0.7830032 -0.7760106 -0.2079332 -0.595459 -0.7760106 -0.2079332 -0.595459 -0.7760106 -0.2079332 -0.595459 -0.7760135 -0.2079314 -0.5954557 -0.7760135 -0.2079314 -0.5954557 -0.7760135 -0.2079314 -0.5954557 -0.5680794 -0.5680794 -0.5954592 -0.5680794 -0.5680794 -0.5954592 -0.5680794 -0.5680794 -0.5954592 -0.5680794 -0.5680794 -0.5954592 -0.5680794 -0.5680794 -0.5954592 -0.5680794 -0.5680794 -0.5954592 -0.2079339 -0.7760131 -0.5954555 -0.2079339 -0.7760131 -0.5954555 -0.2079339 -0.7760131 -0.5954555 -0.2079308 -0.7760115 -0.5954586 -0.2079308 -0.7760115 -0.5954586 -0.2079308 -0.7760115 -0.5954586 0.2079332 -0.7760106 -0.595459 0.2079332 -0.7760106 -0.595459 0.2079332 -0.7760106 -0.595459 0.2079314 -0.7760135 -0.5954557 0.2079314 -0.7760135 -0.5954557 0.2079314 -0.7760135 -0.5954557 0.5680794 -0.5680794 -0.5954592 0.5680794 -0.5680794 -0.5954592 0.5680794 -0.5680794 -0.5954592 0.5680794 -0.5680794 -0.5954592 0.5680794 -0.5680794 -0.5954592 0.5680794 -0.5680794 -0.5954592 0.7760131 -0.2079339 -0.5954555 0.7760131 -0.2079339 -0.5954555 0.7760131 -0.2079339 -0.5954555 0.7760115 -0.2079308 -0.5954586 0.7760115 -0.2079308 -0.5954586 0.7760115 -0.2079308 -0.5954586 0.7760106 0.2079332 -0.595459 0.7760106 0.2079332 -0.595459 0.7760106 0.2079332 -0.595459 0.7760135 0.2079314 -0.5954557 0.7760135 0.2079314 -0.5954557 0.7760135 0.2079314 -0.5954557 0.5680794 0.5680794 -0.5954592 0.5680794 0.5680794 -0.5954592 0.5680794 0.5680794 -0.5954592 0.5680794 0.5680794 -0.5954592 0.5680794 0.5680794 -0.5954592 0.5680794 0.5680794 -0.5954592 0.2079339 0.7760131 -0.5954555 0.2079339 0.7760131 -0.5954555 0.2079339 0.7760131 -0.5954555 0.2079308 0.7760115 -0.5954586 0.2079308 0.7760115 -0.5954586 0.2079308 0.7760115 -0.5954586 -0.2079332 0.7760106 -0.595459 -0.2079332 0.7760106 -0.595459 -0.2079332 0.7760106 -0.595459 -0.2079314 0.7760135 -0.5954557 -0.2079314 0.7760135 -0.5954557 -0.2079314 0.7760135 -0.5954557 -0.5680794 0.5680794 -0.5954592 -0.5680794 0.5680794 -0.5954592 -0.5680794 0.5680794 -0.5954592 -0.5680794 0.5680794 -0.5954592 -0.5680794 0.5680794 -0.5954592 -0.5680794 0.5680794 -0.5954592 -0.7760131 0.2079339 -0.5954555 -0.7760131 0.2079339 -0.5954555 -0.7760131 0.2079339 -0.5954555 -0.7760115 0.2079308 -0.5954586 -0.7760115 0.2079308 -0.5954586 -0.7760115 0.2079308 -0.5954586 -0.8968095 -0.2402984 -0.3714692 -0.8968095 -0.2402984 -0.3714692 -0.8968095 -0.2402984 -0.3714692 -0.896808 -0.2402999 -0.3714722 -0.896808 -0.2402999 -0.3714722 -0.896808 -0.2402999 -0.3714722 -0.6565099 -0.6565099 -0.3714692 -0.6565099 -0.6565099 -0.3714692 -0.6565099 -0.6565099 -0.3714692 -0.6565099 -0.6565099 -0.3714692 -0.6565099 -0.6565099 -0.3714692 -0.6565099 -0.6565099 -0.3714692 -0.2402981 -0.8968083 -0.3714724 -0.2402981 -0.8968083 -0.3714724 -0.2402981 -0.8968083 -0.3714724 -0.2403001 -0.896809 -0.3714693 -0.2403001 -0.896809 -0.3714693 -0.2403001 -0.896809 -0.3714693 0.2402984 -0.8968095 -0.3714692 0.2402984 -0.8968095 -0.3714692 0.2402984 -0.8968095 -0.3714692 0.2402999 -0.896808 -0.3714722 0.2402999 -0.896808 -0.3714722 0.2402999 -0.896808 -0.3714722 0.6565099 -0.6565099 -0.3714692 0.6565099 -0.6565099 -0.3714692 0.6565099 -0.6565099 -0.3714692 0.6565099 -0.6565099 -0.3714692 0.6565099 -0.6565099 -0.3714692 0.6565099 -0.6565099 -0.3714692 0.8968083 -0.2402981 -0.3714724 0.8968083 -0.2402981 -0.3714724 0.8968083 -0.2402981 -0.3714724 0.896809 -0.2403001 -0.3714693 0.896809 -0.2403001 -0.3714693 0.896809 -0.2403001 -0.3714693 0.8968095 0.2402984 -0.3714692 0.8968095 0.2402984 -0.3714692 0.8968095 0.2402984 -0.3714692 0.896808 0.2402999 -0.3714722 0.896808 0.2402999 -0.3714722 0.896808 0.2402999 -0.3714722 0.6565099 0.6565099 -0.3714692 0.6565099 0.6565099 -0.3714692 0.6565099 0.6565099 -0.3714692 0.6565099 0.6565099 -0.3714692 0.6565099 0.6565099 -0.3714692 0.6565099 0.6565099 -0.3714692 0.2402981 0.8968083 -0.3714724 0.2402981 0.8968083 -0.3714724 0.2402981 0.8968083 -0.3714724 0.2403001 0.896809 -0.3714693 0.2403001 0.896809 -0.3714693 0.2403001 0.896809 -0.3714693 -0.2402984 0.8968095 -0.3714692 -0.2402984 0.8968095 -0.3714692 -0.2402984 0.8968095 -0.3714692 -0.2402999 0.896808 -0.3714722 -0.2402999 0.896808 -0.3714722 -0.2402999 0.896808 -0.3714722 -0.6565099 0.6565099 -0.3714692 -0.6565099 0.6565099 -0.3714692 -0.6565099 0.6565099 -0.3714692 -0.6565099 0.6565099 -0.3714692 -0.6565099 0.6565099 -0.3714692 -0.6565099 0.6565099 -0.3714692 -0.8968083 0.2402981 -0.3714724 -0.8968083 0.2402981 -0.3714724 -0.8968083 0.2402981 -0.3714724 -0.896809 0.2403001 -0.3714693 -0.896809 0.2403001 -0.3714693 -0.896809 0.2403001 -0.3714693 -0.958209 -0.2567523 -0.1261502 -0.958209 -0.2567523 -0.1261502 -0.958209 -0.2567523 -0.1261502 -0.958209 -0.2567521 -0.1261498 -0.958209 -0.2567521 -0.1261498 -0.958209 -0.2567521 -0.1261498 -0.7014578 -0.7014578 -0.1261501 -0.7014578 -0.7014578 -0.1261501 -0.7014578 -0.7014578 -0.1261501 -0.7014578 -0.7014578 -0.1261501 -0.7014578 -0.7014578 -0.1261501 -0.7014578 -0.7014578 -0.1261501 -0.2567523 -0.958209 -0.1261499 -0.2567523 -0.958209 -0.1261499 -0.2567523 -0.958209 -0.1261499 -0.2567521 -0.958209 -0.1261502 -0.2567521 -0.958209 -0.1261502 -0.2567521 -0.958209 -0.1261502 0.2567523 -0.958209 -0.1261502 0.2567523 -0.958209 -0.1261502 0.2567523 -0.958209 -0.1261502 0.2567521 -0.958209 -0.1261498 0.2567521 -0.958209 -0.1261498 0.2567521 -0.958209 -0.1261498 0.7014578 -0.7014578 -0.1261501 0.7014578 -0.7014578 -0.1261501 0.7014578 -0.7014578 -0.1261501 0.7014578 -0.7014578 -0.1261501 0.7014578 -0.7014578 -0.1261501 0.7014578 -0.7014578 -0.1261501 0.958209 -0.2567523 -0.1261499 0.958209 -0.2567523 -0.1261499 0.958209 -0.2567523 -0.1261499 0.958209 -0.2567521 -0.1261502 0.958209 -0.2567521 -0.1261502 0.958209 -0.2567521 -0.1261502 0.958209 0.2567523 -0.1261502 0.958209 0.2567523 -0.1261502 0.958209 0.2567523 -0.1261502 0.958209 0.2567521 -0.1261498 0.958209 0.2567521 -0.1261498 0.958209 0.2567521 -0.1261498 0.7014578 0.7014578 -0.1261501 0.7014578 0.7014578 -0.1261501 0.7014578 0.7014578 -0.1261501 0.7014578 0.7014578 -0.1261501 0.7014578 0.7014578 -0.1261501 0.7014578 0.7014578 -0.1261501 0.2567523 0.958209 -0.1261499 0.2567523 0.958209 -0.1261499 0.2567523 0.958209 -0.1261499 0.2567521 0.958209 -0.1261502 0.2567521 0.958209 -0.1261502 0.2567521 0.958209 -0.1261502 -0.2567523 0.958209 -0.1261502 -0.2567523 0.958209 -0.1261502 -0.2567523 0.958209 -0.1261502 -0.2567521 0.958209 -0.1261498 -0.2567521 0.958209 -0.1261498 -0.2567521 0.958209 -0.1261498 -0.7014578 0.7014578 -0.1261501 -0.7014578 0.7014578 -0.1261501 -0.7014578 0.7014578 -0.1261501 -0.7014578 0.7014578 -0.1261501 -0.7014578 0.7014578 -0.1261501 -0.7014578 0.7014578 -0.1261501 -0.958209 0.2567523 -0.1261499 -0.958209 0.2567523 -0.1261499 -0.958209 0.2567523 -0.1261499 -0.958209 0.2567521 -0.1261502 -0.958209 0.2567521 -0.1261502 -0.958209 0.2567521 -0.1261502 -0.958209 -0.2567521 0.1261502 -0.958209 -0.2567521 0.1261502 -0.958209 -0.2567521 0.1261502 -0.958209 -0.2567523 0.1261498 -0.958209 -0.2567523 0.1261498 -0.958209 -0.2567523 0.1261498 -0.7014578 -0.7014578 0.1261501 -0.7014578 -0.7014578 0.1261501 -0.7014578 -0.7014578 0.1261501 -0.7014578 -0.7014578 0.1261501 -0.7014578 -0.7014578 0.1261501 -0.7014578 -0.7014578 0.1261501 -0.2567521 -0.958209 0.1261499 -0.2567521 -0.958209 0.1261499 -0.2567521 -0.958209 0.1261499 -0.2567523 -0.958209 0.1261503 -0.2567523 -0.958209 0.1261503 -0.2567523 -0.958209 0.1261503 0.2567521 -0.958209 0.1261502 0.2567521 -0.958209 0.1261502 0.2567521 -0.958209 0.1261502 0.2567523 -0.958209 0.1261498 0.2567523 -0.958209 0.1261498 0.2567523 -0.958209 0.1261498 0.7014578 -0.7014578 0.1261501 0.7014578 -0.7014578 0.1261501 0.7014578 -0.7014578 0.1261501 0.7014578 -0.7014578 0.1261501 0.7014578 -0.7014578 0.1261501 0.7014578 -0.7014578 0.1261501 0.958209 -0.2567521 0.1261499 0.958209 -0.2567521 0.1261499 0.958209 -0.2567521 0.1261499 0.958209 -0.2567523 0.1261503 0.958209 -0.2567523 0.1261503 0.958209 -0.2567523 0.1261503 0.958209 0.2567521 0.1261502 0.958209 0.2567521 0.1261502 0.958209 0.2567521 0.1261502 0.958209 0.2567523 0.1261498 0.958209 0.2567523 0.1261498 0.958209 0.2567523 0.1261498 0.7014578 0.7014578 0.1261501 0.7014578 0.7014578 0.1261501 0.7014578 0.7014578 0.1261501 0.7014578 0.7014578 0.1261501 0.7014578 0.7014578 0.1261501 0.7014578 0.7014578 0.1261501 0.2567521 0.958209 0.1261499 0.2567521 0.958209 0.1261499 0.2567521 0.958209 0.1261499 0.2567523 0.958209 0.1261503 0.2567523 0.958209 0.1261503 0.2567523 0.958209 0.1261503 -0.2567521 0.958209 0.1261502 -0.2567521 0.958209 0.1261502 -0.2567521 0.958209 0.1261502 -0.2567523 0.958209 0.1261498 -0.2567523 0.958209 0.1261498 -0.2567523 0.958209 0.1261498 -0.7014578 0.7014578 0.1261501 -0.7014578 0.7014578 0.1261501 -0.7014578 0.7014578 0.1261501 -0.7014578 0.7014578 0.1261501 -0.7014578 0.7014578 0.1261501 -0.7014578 0.7014578 0.1261501 -0.958209 0.2567521 0.1261499 -0.958209 0.2567521 0.1261499 -0.958209 0.2567521 0.1261499 -0.958209 0.2567523 0.1261503 -0.958209 0.2567523 0.1261503 -0.958209 0.2567523 0.1261503 -0.8968091 -0.2403002 0.3714693 -0.8968091 -0.2403002 0.3714693 -0.8968091 -0.2403002 0.3714693 -0.8968083 -0.2402981 0.3714723 -0.8968083 -0.2402981 0.3714723 -0.8968083 -0.2402981 0.3714723 -0.6565099 -0.6565099 0.3714692 -0.6565099 -0.6565099 0.3714692 -0.6565099 -0.6565099 0.3714692 -0.6565099 -0.6565099 0.3714692 -0.6565099 -0.6565099 0.3714692 -0.6565099 -0.6565099 0.3714692 -0.2402999 -0.896808 0.3714722 -0.2402999 -0.896808 0.3714722 -0.2402999 -0.896808 0.3714722 -0.2402984 -0.8968096 0.3714691 -0.2402984 -0.8968096 0.3714691 -0.2402984 -0.8968096 0.3714691 0.2403002 -0.8968091 0.3714693 0.2403002 -0.8968091 0.3714693 0.2403002 -0.8968091 0.3714693 0.2402981 -0.8968083 0.3714723 0.2402981 -0.8968083 0.3714723 0.2402981 -0.8968083 0.3714723 0.6565099 -0.6565099 0.3714692 0.6565099 -0.6565099 0.3714692 0.6565099 -0.6565099 0.3714692 0.6565099 -0.6565099 0.3714692 0.6565099 -0.6565099 0.3714692 0.6565099 -0.6565099 0.3714692 0.896808 -0.2402999 0.3714722 0.896808 -0.2402999 0.3714722 0.896808 -0.2402999 0.3714722 0.8968096 -0.2402984 0.3714691 0.8968096 -0.2402984 0.3714691 0.8968096 -0.2402984 0.3714691 0.8968091 0.2403002 0.3714693 0.8968091 0.2403002 0.3714693 0.8968091 0.2403002 0.3714693 0.8968083 0.2402981 0.3714723 0.8968083 0.2402981 0.3714723 0.8968083 0.2402981 0.3714723 0.6565099 0.6565099 0.3714692 0.6565099 0.6565099 0.3714692 0.6565099 0.6565099 0.3714692 0.6565099 0.6565099 0.3714692 0.6565099 0.6565099 0.3714692 0.6565099 0.6565099 0.3714692 0.2402999 0.896808 0.3714722 0.2402999 0.896808 0.3714722 0.2402999 0.896808 0.3714722 0.2402984 0.8968096 0.3714691 0.2402984 0.8968096 0.3714691 0.2402984 0.8968096 0.3714691 -0.2403002 0.8968091 0.3714693 -0.2403002 0.8968091 0.3714693 -0.2403002 0.8968091 0.3714693 -0.2402981 0.8968083 0.3714723 -0.2402981 0.8968083 0.3714723 -0.2402981 0.8968083 0.3714723 -0.6565099 0.6565099 0.3714692 -0.6565099 0.6565099 0.3714692 -0.6565099 0.6565099 0.3714692 -0.6565099 0.6565099 0.3714692 -0.6565099 0.6565099 0.3714692 -0.6565099 0.6565099 0.3714692 -0.896808 0.2402999 0.3714722 -0.896808 0.2402999 0.3714722 -0.896808 0.2402999 0.3714722 -0.8968096 0.2402984 0.3714691 -0.8968096 0.2402984 0.3714691 -0.8968096 0.2402984 0.3714691 -0.7760128 -0.2079312 0.5954568 -0.7760128 -0.2079312 0.5954568 -0.7760128 -0.2079312 0.5954568 -0.7760144 -0.2079342 0.5954537 -0.7760144 -0.2079342 0.5954537 -0.7760144 -0.2079342 0.5954537 -0.5680803 -0.5680803 0.5954574 -0.5680803 -0.5680803 0.5954574 -0.5680803 -0.5680803 0.5954574 -0.5680803 -0.5680803 0.5954575 -0.5680803 -0.5680803 0.5954575 -0.5680803 -0.5680803 0.5954575 -0.2079317 -0.7760147 0.595454 -0.2079317 -0.7760147 0.595454 -0.2079317 -0.7760147 0.595454 -0.2079335 -0.7760118 0.5954572 -0.2079335 -0.7760118 0.5954572 -0.2079335 -0.7760118 0.5954572 0.2079312 -0.7760128 0.5954568 0.2079312 -0.7760128 0.5954568 0.2079312 -0.7760128 0.5954568 0.2079342 -0.7760144 0.5954537 0.2079342 -0.7760144 0.5954537 0.2079342 -0.7760144 0.5954537 0.5680803 -0.5680803 0.5954574 0.5680803 -0.5680803 0.5954574 0.5680803 -0.5680803 0.5954574 0.5680803 -0.5680803 0.5954575 0.5680803 -0.5680803 0.5954575 0.5680803 -0.5680803 0.5954575 0.7760147 -0.2079317 0.595454 0.7760147 -0.2079317 0.595454 0.7760147 -0.2079317 0.595454 0.7760118 -0.2079335 0.5954572 0.7760118 -0.2079335 0.5954572 0.7760118 -0.2079335 0.5954572 0.7760128 0.2079312 0.5954568 0.7760128 0.2079312 0.5954568 0.7760128 0.2079312 0.5954568 0.7760144 0.2079342 0.5954537 0.7760144 0.2079342 0.5954537 0.7760144 0.2079342 0.5954537 0.5680803 0.5680803 0.5954574 0.5680803 0.5680803 0.5954574 0.5680803 0.5680803 0.5954574 0.5680803 0.5680803 0.5954575 0.5680803 0.5680803 0.5954575 0.5680803 0.5680803 0.5954575 0.2079317 0.7760147 0.595454 0.2079317 0.7760147 0.595454 0.2079317 0.7760147 0.595454 0.2079335 0.7760118 0.5954572 0.2079335 0.7760118 0.5954572 0.2079335 0.7760118 0.5954572 -0.2079312 0.7760128 0.5954568 -0.2079312 0.7760128 0.5954568 -0.2079312 0.7760128 0.5954568 -0.2079342 0.7760144 0.5954537 -0.2079342 0.7760144 0.5954537 -0.2079342 0.7760144 0.5954537 -0.5680803 0.5680803 0.5954574 -0.5680803 0.5680803 0.5954574 -0.5680803 0.5680803 0.5954574 -0.5680803 0.5680803 0.5954575 -0.5680803 0.5680803 0.5954575 -0.5680803 0.5680803 0.5954575 -0.7760147 0.2079317 0.595454 -0.7760147 0.2079317 0.595454 -0.7760147 0.2079317 0.595454 -0.7760118 0.2079335 0.5954572 -0.7760118 0.2079335 0.5954572 -0.7760118 0.2079335 0.5954572 -0.6008226 -0.1609913 0.7830032 -0.6008226 -0.1609913 0.7830032 -0.6008226 -0.1609913 0.7830032 -0.6008213 -0.1609889 0.7830047 -0.6008213 -0.1609889 0.7830047 -0.6008213 -0.1609889 0.7830047 -0.4398331 -0.4398331 0.783003 -0.4398331 -0.4398331 0.783003 -0.4398331 -0.4398331 0.783003 -0.4398331 -0.4398331 0.783003 -0.4398331 -0.4398331 0.783003 -0.4398331 -0.4398331 0.783003 -0.1609909 -0.6008211 0.7830045 -0.1609909 -0.6008211 0.7830045 -0.1609909 -0.6008211 0.7830045 -0.1609894 -0.6008235 0.7830029 -0.1609894 -0.6008235 0.7830029 -0.1609894 -0.6008235 0.7830029 0.1609913 -0.6008226 0.7830032 0.1609913 -0.6008226 0.7830032 0.1609913 -0.6008226 0.7830032 0.1609889 -0.6008213 0.7830047 0.1609889 -0.6008213 0.7830047 0.1609889 -0.6008213 0.7830047 0.4398331 -0.4398331 0.783003 0.4398331 -0.4398331 0.783003 0.4398331 -0.4398331 0.783003 0.4398331 -0.4398331 0.783003 0.4398331 -0.4398331 0.783003 0.4398331 -0.4398331 0.783003 0.6008211 -0.1609909 0.7830045 0.6008211 -0.1609909 0.7830045 0.6008211 -0.1609909 0.7830045 0.6008235 -0.1609894 0.7830029 0.6008235 -0.1609894 0.7830029 0.6008235 -0.1609894 0.7830029 0.6008226 0.1609913 0.7830032 0.6008226 0.1609913 0.7830032 0.6008226 0.1609913 0.7830032 0.6008213 0.1609889 0.7830047 0.6008213 0.1609889 0.7830047 0.6008213 0.1609889 0.7830047 0.4398331 0.4398331 0.783003 0.4398331 0.4398331 0.783003 0.4398331 0.4398331 0.783003 0.4398331 0.4398331 0.783003 0.4398331 0.4398331 0.783003 0.4398331 0.4398331 0.783003 0.1609909 0.6008211 0.7830045 0.1609909 0.6008211 0.7830045 0.1609909 0.6008211 0.7830045 0.1609894 0.6008235 0.7830029 0.1609894 0.6008235 0.7830029 0.1609894 0.6008235 0.7830029 -0.1609913 0.6008226 0.7830032 -0.1609913 0.6008226 0.7830032 -0.1609913 0.6008226 0.7830032 -0.1609889 0.6008213 0.7830047 -0.1609889 0.6008213 0.7830047 -0.1609889 0.6008213 0.7830047 -0.4398331 0.4398331 0.783003 -0.4398331 0.4398331 0.783003 -0.4398331 0.4398331 0.783003 -0.4398331 0.4398331 0.783003 -0.4398331 0.4398331 0.783003 -0.4398331 0.4398331 0.783003 -0.6008211 0.1609909 0.7830045 -0.6008211 0.1609909 0.7830045 -0.6008211 0.1609909 0.7830045 -0.6008235 0.1609894 0.7830029 -0.6008235 0.1609894 0.7830029 -0.6008235 0.1609894 0.7830029 -0.3806862 -0.1020041 0.9190611 -0.3806862 -0.1020041 0.9190611 -0.3806862 -0.1020041 0.9190611 -0.380686 -0.1020036 0.9190612 -0.380686 -0.1020036 0.9190612 -0.380686 -0.1020036 0.9190612 -0.2786817 -0.2786817 0.9190609 -0.2786817 -0.2786817 0.9190609 -0.2786817 -0.2786817 0.9190609 -0.2786817 -0.2786817 0.9190609 -0.2786817 -0.2786817 0.9190609 -0.2786817 -0.2786817 0.9190609 -0.102004 -0.3806859 0.9190611 -0.102004 -0.3806859 0.9190611 -0.102004 -0.3806859 0.9190611 -0.1020037 -0.3806864 0.9190611 -0.1020037 -0.3806864 0.9190611 -0.1020037 -0.3806864 0.9190611 0.1020041 -0.3806862 0.9190611 0.1020041 -0.3806862 0.9190611 0.1020041 -0.3806862 0.9190611 0.1020036 -0.380686 0.9190612 0.1020036 -0.380686 0.9190612 0.1020036 -0.380686 0.9190612 0.2786817 -0.2786817 0.9190609 0.2786817 -0.2786817 0.9190609 0.2786817 -0.2786817 0.9190609 0.2786817 -0.2786817 0.9190609 0.2786817 -0.2786817 0.9190609 0.2786817 -0.2786817 0.9190609 0.3806859 -0.102004 0.9190611 0.3806859 -0.102004 0.9190611 0.3806859 -0.102004 0.9190611 0.3806864 -0.1020037 0.9190611 0.3806864 -0.1020037 0.9190611 0.3806864 -0.1020037 0.9190611 0.3806862 0.1020041 0.9190611 0.3806862 0.1020041 0.9190611 0.3806862 0.1020041 0.9190611 0.380686 0.1020036 0.9190612 0.380686 0.1020036 0.9190612 0.380686 0.1020036 0.9190612 0.2786817 0.2786817 0.9190609 0.2786817 0.2786817 0.9190609 0.2786817 0.2786817 0.9190609 0.2786817 0.2786817 0.9190609 0.2786817 0.2786817 0.9190609 0.2786817 0.2786817 0.9190609 0.102004 0.3806859 0.9190611 0.102004 0.3806859 0.9190611 0.102004 0.3806859 0.9190611 0.1020037 0.3806864 0.9190611 0.1020037 0.3806864 0.9190611 0.1020037 0.3806864 0.9190611 -0.1020041 0.3806862 0.9190611 -0.1020041 0.3806862 0.9190611 -0.1020041 0.3806862 0.9190611 -0.1020036 0.380686 0.9190612 -0.1020036 0.380686 0.9190612 -0.1020036 0.380686 0.9190612 -0.2786817 0.2786817 0.9190609 -0.2786817 0.2786817 0.9190609 -0.2786817 0.2786817 0.9190609 -0.2786817 0.2786817 0.9190609 -0.2786817 0.2786817 0.9190609 -0.2786817 0.2786817 0.9190609 -0.3806859 0.102004 0.9190611 -0.3806859 0.102004 0.9190611 -0.3806859 0.102004 0.9190611 -0.3806864 0.1020037 0.9190611 -0.3806864 0.1020037 0.9190611 -0.3806864 0.1020037 0.9190611 -0.1304458 -0.0349525 0.9908392 -0.1304458 -0.0349525 0.9908392 -0.1304458 -0.0349525 0.9908392 1.0 0.0 0.0 1.0 0.0 0.0 -0.0954928 -0.0954928 0.9908392 -0.0954928 -0.0954928 0.9908392 -0.0954928 -0.0954928 0.9908392 1.0 0.0 0.0 1.0 0.0 0.0 -0.0349525 -0.1304458 0.9908391 -0.0349525 -0.1304458 0.9908391 -0.0349525 -0.1304458 0.9908391 1.0 0.0 0.0 1.0 0.0 0.0 0.0349525 -0.1304458 0.9908392 0.0349525 -0.1304458 0.9908392 0.0349525 -0.1304458 0.9908392 1.0 0.0 0.0 1.0 0.0 0.0 0.0954928 -0.0954928 0.9908392 0.0954928 -0.0954928 0.9908392 0.0954928 -0.0954928 0.9908392 1.0 0.0 0.0 1.0 0.0 0.0 0.1304458 -0.0349525 0.9908391 0.1304458 -0.0349525 0.9908391 0.1304458 -0.0349525 0.9908391 1.0 0.0 0.0 1.0 0.0 0.0 0.1304458 0.0349525 0.9908392 0.1304458 0.0349525 0.9908392 0.1304458 0.0349525 0.9908392 1.0 0.0 0.0 1.0 0.0 0.0 0.0954928 0.0954928 0.9908392 0.0954928 0.0954928 0.9908392 0.0954928 0.0954928 0.9908392 1.0 0.0 0.0 1.0 0.0 0.0 0.0349525 0.1304458 0.9908391 0.0349525 0.1304458 0.9908391 0.0349525 0.1304458 0.9908391 1.0 0.0 0.0 1.0 0.0 0.0 -0.0349525 0.1304458 0.9908392 -0.0349525 0.1304458 0.9908392 -0.0349525 0.1304458 0.9908392 1.0 0.0 0.0 1.0 0.0 0.0 -0.0954928 0.0954928 0.9908392 -0.0954928 0.0954928 0.9908392 -0.0954928 0.0954928 0.9908392 1.0 0.0 0.0 1.0 0.0 0.0 -0.1304458 0.0349525 0.9908391 -0.1304458 0.0349525 0.9908391 -0.1304458 0.0349525 0.9908391 1.0 0.0 0.0 1.0 0.0 0.0 1.0 0.0 0.0 1.0 0.0 0.0 -0.1304459 -0.0349526 -0.9908392 -0.1304459 -0.0349526 -0.9908392 -0.1304459 -0.0349526 -0.9908392 1.0 0.0 0.0 1.0 0.0 0.0 -0.0954929 -0.0954929 -0.9908391 -0.0954929 -0.0954929 -0.9908391 -0.0954929 -0.0954929 -0.9908391 1.0 0.0 0.0 1.0 0.0 0.0 -0.0349526 -0.1304459 -0.9908391 -0.0349526 -0.1304459 -0.9908391 -0.0349526 -0.1304459 -0.9908391 1.0 0.0 0.0 1.0 0.0 0.0 0.0349526 -0.1304459 -0.9908392 0.0349526 -0.1304459 -0.9908392 0.0349526 -0.1304459 -0.9908392 1.0 0.0 0.0 1.0 0.0 0.0 0.0954929 -0.0954929 -0.9908391 0.0954929 -0.0954929 -0.9908391 0.0954929 -0.0954929 -0.9908391 1.0 0.0 0.0 1.0 0.0 0.0 0.1304459 -0.0349526 -0.9908391 0.1304459 -0.0349526 -0.9908391 0.1304459 -0.0349526 -0.9908391 1.0 0.0 0.0 1.0 0.0 0.0 0.1304459 0.0349526 -0.9908392 0.1304459 0.0349526 -0.9908392 0.1304459 0.0349526 -0.9908392 1.0 0.0 0.0 1.0 0.0 0.0 0.0954929 0.0954929 -0.9908391 0.0954929 0.0954929 -0.9908391 0.0954929 0.0954929 -0.9908391 1.0 0.0 0.0 1.0 0.0 0.0 0.0349526 0.1304459 -0.9908391 0.0349526 0.1304459 -0.9908391 0.0349526 0.1304459 -0.9908391 1.0 0.0 0.0 1.0 0.0 0.0 -0.0349526 0.1304459 -0.9908392 -0.0349526 0.1304459 -0.9908392 -0.0349526 0.1304459 -0.9908392 1.0 0.0 0.0 1.0 0.0 0.0 -0.0954929 0.0954929 -0.9908391 -0.0954929 0.0954929 -0.9908391 -0.0954929 0.0954929 -0.9908391 1.0 0.0 0.0 1.0 0.0 0.0 -0.1304459 0.0349526 -0.9908391 -0.1304459 0.0349526 -0.9908391 -0.1304459 0.0349526 -0.9908391 -0.3806892 -0.1020045 -0.9190598 -0.3806892 -0.1020045 -0.9190598 -0.3806892 -0.1020045 -0.9190598 -0.3806888 -0.1020048 -0.9190599 -0.3806888 -0.1020048 -0.9190599 -0.3806888 -0.1020048 -0.9190599 -0.2786838 -0.2786838 -0.9190596 -0.2786838 -0.2786838 -0.9190596 -0.2786838 -0.2786838 -0.9190596 -0.2786838 -0.2786838 -0.9190597 -0.2786838 -0.2786838 -0.9190597 -0.2786838 -0.2786838 -0.9190597 -0.1020044 -0.3806888 -0.9190599 -0.1020044 -0.3806888 -0.9190599 -0.1020044 -0.3806888 -0.9190599 -0.1020048 -0.380689 -0.9190598 -0.1020048 -0.380689 -0.9190598 -0.1020048 -0.380689 -0.9190598 0.1020045 -0.3806892 -0.9190598 0.1020045 -0.3806892 -0.9190598 0.1020045 -0.3806892 -0.9190598 0.1020048 -0.3806888 -0.9190599 0.1020048 -0.3806888 -0.9190599 0.1020048 -0.3806888 -0.9190599 0.2786838 -0.2786838 -0.9190596 0.2786838 -0.2786838 -0.9190596 0.2786838 -0.2786838 -0.9190596 0.2786838 -0.2786838 -0.9190597 0.2786838 -0.2786838 -0.9190597 0.2786838 -0.2786838 -0.9190597 0.3806888 -0.1020044 -0.9190599 0.3806888 -0.1020044 -0.9190599 0.3806888 -0.1020044 -0.9190599 0.380689 -0.1020048 -0.9190598 0.380689 -0.1020048 -0.9190598 0.380689 -0.1020048 -0.9190598 0.3806892 0.1020045 -0.9190598 0.3806892 0.1020045 -0.9190598 0.3806892 0.1020045 -0.9190598 0.3806888 0.1020048 -0.9190599 0.3806888 0.1020048 -0.9190599 0.3806888 0.1020048 -0.9190599 0.2786838 0.2786838 -0.9190596 0.2786838 0.2786838 -0.9190596 0.2786838 0.2786838 -0.9190596 0.2786838 0.2786838 -0.9190597 0.2786838 0.2786838 -0.9190597 0.2786838 0.2786838 -0.9190597 0.1020044 0.3806888 -0.9190599 0.1020044 0.3806888 -0.9190599 0.1020044 0.3806888 -0.9190599 0.1020048 0.380689 -0.9190598 0.1020048 0.380689 -0.9190598 0.1020048 0.380689 -0.9190598 -0.1020045 0.3806892 -0.9190598 -0.1020045 0.3806892 -0.9190598 -0.1020045 0.3806892 -0.9190598 -0.1020048 0.3806888 -0.9190599 -0.1020048 0.3806888 -0.9190599 -0.1020048 0.3806888 -0.9190599 -0.2786838 0.2786838 -0.9190596 -0.2786838 0.2786838 -0.9190596 -0.2786838 0.2786838 -0.9190596 -0.2786838 0.2786838 -0.9190597 -0.2786838 0.2786838 -0.9190597 -0.2786838 0.2786838 -0.9190597 -0.3806888 0.1020044 -0.9190599 -0.3806888 0.1020044 -0.9190599 -0.3806888 0.1020044 -0.9190599 -0.380689 0.1020048 -0.9190598 -0.380689 0.1020048 -0.9190598 -0.380689 0.1020048 -0.9190598 -0.6008236 -0.1609895 -0.7830028 -0.6008236 -0.1609895 -0.7830028 -0.6008236 -0.1609895 -0.7830028 -0.6008212 -0.1609909 -0.7830043 -0.6008212 -0.1609909 -0.7830043 -0.6008212 -0.1609909 -0.7830043 -0.4398331 -0.4398331 -0.7830029 -0.4398331 -0.4398331 -0.7830029 -0.4398331 -0.4398331 -0.7830029 -0.4398331 -0.4398331 -0.7830029 -0.4398331 -0.4398331 -0.7830029 -0.4398331 -0.4398331 -0.7830029 -0.1609889 -0.6008214 -0.7830047 -0.1609889 -0.6008214 -0.7830047 -0.1609889 -0.6008214 -0.7830047 -0.1609914 -0.6008228 -0.7830032 -0.1609914 -0.6008228 -0.7830032 -0.1609914 -0.6008228 -0.7830032 0.1609895 -0.6008236 -0.7830028 0.1609895 -0.6008236 -0.7830028 0.1609895 -0.6008236 -0.7830028 0.1609909 -0.6008212 -0.7830043 0.1609909 -0.6008212 -0.7830043 0.1609909 -0.6008212 -0.7830043 0.4398331 -0.4398331 -0.7830029 0.4398331 -0.4398331 -0.7830029 0.4398331 -0.4398331 -0.7830029 0.4398331 -0.4398331 -0.7830029 0.4398331 -0.4398331 -0.7830029 0.4398331 -0.4398331 -0.7830029 0.6008214 -0.1609889 -0.7830047 0.6008214 -0.1609889 -0.7830047 0.6008214 -0.1609889 -0.7830047 0.6008228 -0.1609914 -0.7830032 0.6008228 -0.1609914 -0.7830032 0.6008228 -0.1609914 -0.7830032 0.6008236 0.1609895 -0.7830028 0.6008236 0.1609895 -0.7830028 0.6008236 0.1609895 -0.7830028 0.6008212 0.1609909 -0.7830043 0.6008212 0.1609909 -0.7830043 0.6008212 0.1609909 -0.7830043</float_array>
                    <technique_common>
                        <accessor count="840" source="#geometry0-normal-array" stride="3">
                            <param name="X" type="float"/>
                            <param name="Y" type="float"/>
                            <param name="Z" type="float"/>
                        </accessor>
                    </technique_common>
                </source>
                <vertices id="geometry0-vertex">
                    <input semantic="POSITION" source="#geometry0-position"/>
                </vertices>
                <triangles count="288" material="default_ai_0.2_sh_0.2_tr_0.0_dc_r_0.8_g_0.8_b_0.8_sc_r_1.0_g_1.0_b_1.0_ec_r_0.0_g_0.0_b_0_tri">
                    <input offset="0" semantic="VERTEX" source="#geometry0-vertex"/>
                    <input offset="1" semantic="NORMAL" source="#geometry0-normal"/>
                    <p>20 0 21 1 33 2 20 3 33 4 32 5 21 6 22 7 34 8 21 9 34 10 33 11 22 12 23 13 35 14 22 15 35 16 34 17 23 18 24 19 36 20 23 21 36 22 35 23 24 24 14 25 26 26 24 27 26 28 36 29 26 30 25 31 37 32 26 33 37 34 38 35 25 36 27 37 39 38 25 39 39 40 37 41 27 42 28 43 40 44 27 45 40 46 39 47 28 48 29 49 41 50 28 51 41 52 40 53 29 54 30 55 42 56 29 57 42 58 41 59 30 60 31 61 43 62 30 63 43 64 42 65 31 66 32 67 44 68 31 69 44 70 43 71 32 72 33 73 45 74 32 75 45 76 44 77 33 78 34 79 46 80 33 81 46 82 45 83 34 84 35 85 47 86 34 87 47 88 46 89 35 90 36 91 48 92 35 93 48 94 47 95 36 96 26 97 38 98 36 99 38 100 48 101 38 102 37 103 49 104 38 105 49 106 50 107 37 108 39 109 51 110 37 111 51 112 49 113 39 114 40 115 52 116 39 117 52 118 51 119 40 120 41 121 53 122 40 123 53 124 52 125 41 126 42 127 54 128 41 129 54 130 53 131 42 132 43 133 55 134 42 135 55 136 54 137 43 138 44 139 56 140 43 141 56 142 55 143 44 144 45 145 57 146 44 147 57 148 56 149 45 150 46 151 58 152 45 153 58 154 57 155 46 156 47 157 59 158 46 159 59 160 58 161 47 162 48 163 60 164 47 165 60 166 59 167 48 168 38 169 50 170 48 171 50 172 60 173 50 174 49 175 61 176 50 177 61 178 62 179 49 180 51 181 63 182 49 183 63 184 61 185 51 186 52 187 64 188 51 189 64 190 63 191 52 192 53 193 65 194 52 195 65 196 64 197 53 198 54 199 66 200 53 201 66 202 65 203 54 204 55 205 67 206 54 207 67 208 66 209 55 210 56 211 68 212 55 213 68 214 67 215 56 216 57 217 69 218 56 219 69 220 68 221 57 222 58 223 70 224 57 225 70 226 69 227 58 228 59 229 71 230 58 231 71 232 70 233 59 234 60 235 72 236 59 237 72 238 71 239 60 240 50 241 62 242 60 243 62 244 72 245 62 246 61 247 73 248 62 249 73 250 74 251 61 252 63 253 75 254 61 255 75 256 73 257 63 258 64 259 76 260 63 261 76 262 75 263 64 264 65 265 77 266 64 267 77 268 76 269 65 270 66 271 78 272 65 273 78 274 77 275 66 276 67 277 79 278 66 279 79 280 78 281 67 282 68 283 80 284 67 285 80 286 79 287 68 288 69 289 81 290 68 291 81 292 80 293 69 294 70 295 82 296 69 297 82 298 81 299 70 300 71 301 83 302 70 303 83 304 82 305 71 306 72 307 84 308 71 309 84 310 83 311 72 312 62 313 74 314 72 315 74 316 84 317 74 318 73 319 85 320 74 321 85 322 86 323 73 324 75 325 87 326 73 327 87 328 85 329 75 330 76 331 88 332 75 333 88 334 87 335 76 336 77 337 89 338 76 339 89 340 88 341 77 342 78 343 90 344 77 345 90 346 89 347 78 348 79 349 91 350 78 351 91 352 90 353 79 354 80 355 92 356 79 357 92 358 91 359 80 360 81 361 93 362 80 363 93 364 92 365 81 366 82 367 94 368 81 369 94 370 93 371 82 372 83 373 95 374 82 375 95 376 94 377 83 378 84 379 96 380 83 381 96 382 95 383 84 384 74 385 86 386 84 387 86 388 96 389 86 390 85 391 97 392 86 393 97 394 98 395 85 396 87 397 99 398 85 399 99 400 97 401 87 402 88 403 100 404 87 405 100 406 99 407 88 408 89 409 101 410 88 411 101 412 100 413 89 414 90 415 102 416 89 417 102 418 101 419 90 420 91 421 103 422 90 423 103 424 102 425 91 426 92 427 104 428 91 429 104 430 103 431 92 432 93 433 105 434 92 435 105 436 104 437 93 438 94 439 106 440 93 441 106 442 105 443 94 444 95 445 107 446 94 447 107 448 106 449 95 450 96 451 108 452 95 453 108 454 107 455 96 456 86 457 98 458 96 459 98 460 108 461 98 462 97 463 109 464 98 465 109 466 110 467 97 468 99 469 111 470 97 471 111 472 109 473 99 474 100 475 112 476 99 477 112 478 111 479 100 480 101 481 113 482 100 483 113 484 112 485 101 486 102 487 114 488 101 489 114 490 113 491 102 492 103 493 115 494 102 495 115 496 114 497 103 498 104 499 116 500 103 501 116 502 115 503 104 504 105 505 117 506 104 507 117 508 116 509 105 510 106 511 118 512 105 513 118 514 117 515 106 516 107 517 119 518 106 519 119 520 118 521 107 522 108 523 120 524 107 525 120 526 119 527 108 528 98 529 110 530 108 531 110 532 120 533 110 534 109 535 121 536 110 537 121 538 122 539 109 540 111 541 123 542 109 543 123 544 121 545 111 546 112 547 124 548 111 549 124 550 123 551 112 552 113 553 125 554 112 555 125 556 124 557 113 558 114 559 126 560 113 561 126 562 125 563 114 564 115 565 127 566 114 567 127 568 126 569 115 570 116 571 128 572 115 573 128 574 127 575 116 576 117 577 129 578 116 579 129 580 128 581 117 582 118 583 130 584 117 585 130 586 129 587 118 588 119 589 131 590 118 591 131 592 130 593 119 594 120 595 132 596 119 597 132 598 131 599 120 600 110 601 122 602 120 603 122 604 132 605 122 606 121 607 133 608 122 609 133 610 133 610 121 611 123 612 133 613 121 614 133 615 133 615 123 616 124 617 133 618 123 619 133 620 133 620 124 621 125 622 133 623 124 624 133 625 133 625 125 626 126 627 133 628 125 629 133 630 133 630 126 631 127 632 133 633 126 634 133 635 133 635 127 636 128 637 133 638 127 639 133 640 133 640 128 641 129 642 133 643 128 644 133 645 133 645 129 646 130 647 133 648 129 649 133 650 133 650 130 651 131 652 133 653 130 654 133 655 133 655 131 656 132 657 133 658 131 659 133 660 133 660 132 661 122 662 133 663 132 664 133 665 133 665 0 666 0 666 1 667 0 668 1 669 2 670 0 671 0 671 3 672 0 673 3 674 1 675 0 676 0 676 4 677 0 678 4 679 3 680 0 681 0 681 5 682 0 683 5 684 4 685 0 686 0 686 6 687 0 688 6 689 5 690 0 691 0 691 7 692 0 693 7 694 6 695 0 696 0 696 8 697 0 698 8 699 7 700 0 701 0 701 9 702 0 703 9 704 8 705 0 706 0 706 10 707 0 708 10 709 9 710 0 711 0 711 11 712 0 713 11 714 10 715 0 716 0 716 12 717 0 718 12 719 11 720 0 721 0 721 2 722 0 723 2 724 12 725 2 726 1 727 13 728 2 729 13 730 14 731 1 732 3 733 15 734 1 735 15 736 13 737 3 738 4 739 16 740 3 741 16 742 15 743 4 744 5 745 17 746 4 747 17 748 16 749 5 750 6 751 18 752 5 753 18 754 17 755 6 756 7 757 19 758 6 759 19 760 18 761 7 762 8 763 20 764 7 765 20 766 19 767 8 768 9 769 21 770 8 771 21 772 20 773 9 774 10 775 22 776 9 777 22 778 21 779 10 780 11 781 23 782 10 783 23 784 22 785 11 786 12 787 24 788 11 789 24 790 23 791 12 792 2 793 14 794 12 795 14 796 24 797 14 798 13 799 25 800 14 801 25 802 26 803 13 804 15 805 27 806 13 807 27 808 25 809 15 810 16 811 28 812 15 813 28 814 27 815 16 816 17 817 29 818 16 819 29 820 28 821 17 822 18 823 30 824 17 825 30 826 29 827 18 828 19 829 31 830 18 831 31 832 30 833 19 834 20 835 32 836 19 837 32 838 31 839</p>
                </triangles>
            </mesh>
        </geometry>
    </library_geometries>
    <library_visual_scenes>
        <visual_scene id="Building_23_CROWN1">
            <node>
                <instance_geometry url="#geometry0">
                    <bind_material>
                        <technique_common>
                            <instance_material symbol="default_ai_0.2_sh_0.2_tr_0.0_dc_r_0.8_g_0.8_b_0.8_sc_r_1.0_g_1.0_b_1.0_ec_r_0.0_g_0.0_b_0_tri" target="#default_ai_0.2_sh_0.2_tr_0.0_dc_r_0.8_g_0.8_b_0.8_sc_r_1.0_g_1.0_b_1.0_ec_r_0.0_g_0.0_b_0_mat"/>
                        </technique_common>
                    </bind_material>
                </instance_geometry>
            </node>
        </visual_scene>
    </library_visual_scenes>
    <scene>
        <instance_visual_scene url="#Building_23_CROWN1"/>
    </scene>
</COLLADA>
