<?xml version="1.0" encoding="UTF-8" standalone="yes"?>
<COLLADA xmlns="http://www.collada.org/2005/11/COLLADASchema" version="1.4.1">
    <asset>
        <contributor>
            <authoring_tool>3D City Database Importer/Exporter, version 5.5.3; Chair of Geoinformatics, Technical University of Munich</authoring_tool>
        </contributor>
        <created>2026-09-25T14:45:39.797</created>
        <modified>2026-09-25T14:45:39.797</modified>
        <unit meter="1.0" name="meters"/>
        <up_axis>Z_UP</up_axis>
    </asset>
    <library_materials>
        <material id="default_ai_0.2_sh_0.2_tr_0.0_dc_r_0.8_g_0.8_b_0.8_sc_r_1.0_g_1.0_b_1.0_ec_r_0.0_g_0.0_b_0_mat">
            <instance_effect url="#default_ai_0.2_sh_0.2_tr_0.0_dc_r_0.8_g_0.8_b_0.8_sc_r_1.0_g_1.0_b_1.0_ec_r_0.0_g_0.0_b_0_eff"/>
        </material>
    </library_materials>
    <library_effects>
        <effect id="default_ai_0.2_sh_0.2_tr_0.0_dc_r_0.8_g_0.8_b_0.8_sc_r_1.0_g_1.0_b_1.0_ec_r_0.0_g_0.0_b_0_eff">
            <profile_COMMON>
                <technique sid="COMMON">
                    <lambert>
                        <emission>
                            <color>0.0 0.0 0.0 1.0</color>
                        </emission>
                        <diffuse>
                            <color>0.8 0.8 0.8 1.0</color>
                        </diffuse>
                        <reflective>
                            <color>1.0 1.0 1.0 1.0</color>
                        </reflective>
                        <reflectivity>
                            <float>0.2</float>
                        </reflectivity>
                        <transparent opaque="A_ONE">
                            <color>1.0 1.0 1.0 1.0</color>
                        </transparent>
                        <transparency>
                            <float>1.0</float>
                        </transparency>
                    </lambert>
                </technique>
                <extra>
                    <technique profile="GOOGLEEARTH">
                        <double_sided>0</double_sided>
                    </technique>
                </extra>
            </profile_COMMON>
        </effect>
    </library_effects>
    <library_geometries>
        <geometry id="geometry0">
            <mesh>
                <source id="geometry0-position">
                    <float_array id="geometry0-position-array" count="78">0.0 0.0 0.0 -0.0026796 0.01 0.0 -0.0026796 0.01 0.6666668 0.0 0.0 0.6666668 -0.01 0.0173204 0.0 -0.01 0.0173204 0.6666668 -0.02 0.02 0.0 -0.02 0.02 0.6666668 -0.03 0.0173204 0.0 -0.03 0.0173204 0.6666668 -0.0373204 0.01 0.0 -0.0373204 0.01 0.6666668 -0.04 0.0 0.0 -0.04 0.0 0.6666668 -0.0373204 -0.01 0.0 -0.0373204 -0.01 0.6666668 -0.03 -0.0173204 0.0 -0.03 -0.0173204 0.6666668 -0.02 -0.02 0.0 -0.02 -0.02 0.6666668 -0.01 -0.0173204 0.0 -0.01 -0.0173204 0.6666668 -0.0026796 -0.01 0.0 -0.0026796 -0.01 0.6666668 -0.02 0.0 0.0 -0.02 0.0 0.6666668</float_array>
                    <technique_common>
                        <accessor count="26" source="#geometry0-position-array" stride="3">
                            <param name="X" type="float"/>
                            <param name="Y" type="float"/>
                            <param name="Z" type="float"/>
                        </accessor>
                    </technique_common>
                </source>
                <source id="geometry0-normal">
                    <float_array id="geometry0-normal-array" count="432">0.0 0.0 -1.0 0.0 0.0 -1.0 0.0 0.0 -1.0 0.0 0.0 -1.0 0.0 0.0 -1.0 0.0 0.0 -1.0 0.0 0.0 -1.0 0.0 0.0 -1.0 0.0 0.0 -1.0 0.0 0.0 -1.0 0.0 0.0 -1.0 0.0 0.0 -1.0 0.0 0.0 -1.0 0.0 0.0 -1.0 0.0 0.0 -1.0 0.0 0.0 -1.0 0.0 0.0 -1.0 0.0 0.0 -1.0 0.0 0.0 1.0 0.0 0.0 1.0 0.0 0.0 1.0 0.0 0.0 1.0 0.0 0.0 1.0 0.0 0.0 1.0 0.0 0.0 1.0 0.0 0.0 1.0 0.0 0.0 1.0 0.0 0.0 1.0 0.0 0.0 1.0 0.0 0.0 1.0 0.0 0.0 1.0 0.0 0.0 1.0 0.0 0.0 1.0 0.0 0.0 1.0 0.0 0.0 1.0 0.0 0.0 1.0 0.0 0.0 1.0 0.0 0.0 1.0 0.0 0.0 1.0 0.0 0.0 1.0 0.0 0.0 1.0 0.0 0.0 1.0 0.0 0.0 1.0 0.0 0.0 1.0 0.0 0.0 1.0 0.0 0.0 1.0 0.0 0.0 1.0 0.0 0.0 1.0 0.0 0.0 1.0 0.0 0.0 1.0 0.0 0.0 1.0 0.0 0.0 1.0 0.0 0.0 1.0 0.0 0.0 1.0 0.9659232 0.2588288 0.0 0.9659232 0.2588288 0.0 0.9659232 0.2588288 0.0 0.9659232 0.2588288 0.0 0.9659232 0.2588288 0.0 0.9659232 0.2588288 0.0 0.7071068 0.7071068 0.0 0.7071068 0.7071068 0.0 0.7071068 0.7071068 0.0 0.7071068 0.7071068 0.0 0.7071068 0.7071068 0.0 0.7071068 0.7071068 0.0 0.2588288 0.9659233 0.0 0.2588288 0.9659233 0.0 0.2588288 0.9659233 0.0 0.2588288 0.9659233 0.0 0.2588288 0.9659233 0.0 0.2588288 0.9659233 0.0 -0.2588288 0.9659233 0.0 -0.2588288 0.9659233 0.0 -0.2588288 0.9659233 0.0 -0.2588288 0.9659233 0.0 -0.2588288 0.9659233 0.0 -0.2588288 0.9659233 0.0 -0.7071066 0.7071068 0.0 -0.7071066 0.7071068 0.0 -0.7071066 0.7071068 0.0 -0.7071066 0.7071068 0.0 -0.7071066 0.7071068 0.0 -0.7071066 0.7071068 0.0 -0.9659232 0.2588286 0.0 -0.9659232 0.2588286 0.0 -0.9659232 0.2588286 0.0 -0.9659232 0.2588286 0.0 -0.9659232 0.2588286 0.0 -0.9659232 0.2588286 0.0 -0.9659232 -0.2588286 0.0 -0.9659232 -0.2588286 0.0 -0.9659232 -0.2588286 0.0 -0.9659232 -0.2588286 0.0 -0.9659232 -0.2588286 0.0 -0.9659232 -0.2588286 0.0 -0.7071066 -0.7071068 0.0 -0.7071066 -0.7071068 0.0 -0.7071066 -0.7071068 0.0 -0.7071066 -0.7071068 0.0 -0.7071066 -0.7071068 0.0 -0.7071066 -0.7071068 0.0 -0.2588288 -0.9659233 0.0 -0.2588288 -0.9659233 0.0 -0.2588288 -0.9659233 0.0 -0.2588288 -0.9659233 0.0 -0.2588288 -0.9659233 0.0 -0.2588288 -0.9659233 0.0 0.2588288 -0.9659233 0.0 0.2588288 -0.9659233 0.0 0.2588288 -0.9659233 0.0 0.2588288 -0.9659233 0.0 0.2588288 -0.9659233 0.0 0.2588288 -0.9659233 0.0 0.7071068 -0.7071068 0.0 0.7071068 -0.7071068 0.0 0.7071068 -0.7071068 0.0 0.7071068 -0.7071068 0.0 0.7071068 -0.7071068 0.0 0.7071068 -0.7071068 0.0 0.9659232 -0.2588288 0.0 0.9659232 -0.2588288 0.0 0.9659232 -0.2588288 0.0 0.9659232 -0.2588288 0.0 0.9659232 -0.2588288 0.0 0.9659232 -0.2588288 0.0 0.0 0.0 -1.0 0.0 0.0 -1.0 0.0 0.0 -1.0 0.0 0.0 -1.0 0.0 0.0 -1.0 0.0 0.0 -1.0 0.0 0.0 -1.0 0.0 0.0 -1.0 0.0 0.0 -1.0 0.0 0.0 -1.0 0.0 0.0 -1.0 0.0 0.0 -1.0 0.0 0.0 -1.0 0.0 0.0 -1.0 0.0 0.0 -1.0 0.0 0.0 -1.0 0.0 0.0 -1.0 0.0 0.0 -1.0</float_array>
                    <technique_common>
                        <accessor count="144" source="#geometry0-normal-array" stride="3">
                            <param name="X" type="float"/>
                            <param name="Y" type="float"/>
                            <param name="Z" type="float"/>
                        </accessor>
                    </technique_common>
                </source>
                <vertices id="geometry0-vertex">
                    <input semantic="POSITION" source="#geometry0-position"/>
                </vertices>
                <triangles count="48" material="default_ai_0.2_sh_0.2_tr_0.0_dc_r_0.8_g_0.8_b_0.8_sc_r_1.0_g_1.0_b_1.0_ec_r_0.0_g_0.0_b_0_tri">
                    <input offset="0" semantic="VERTEX" source="#geometry0-vertex"/>
                    <input offset="1" semantic="NORMAL" source="#geometry0-normal"/>
                    <p>24 0 14 1 12 2 24 3 16 4 14 5 24 6 18 7 16 8 24 9 20 10 18 11 24 12 22 13 20 14 24 15 0 16 22 17 25 18 3 19 2 20 25 21 2 22 5 23 25 24 5 25 7 26 25 27 7 28 9 29 25 30 9 31 11 32 25 33 11 34 13 35 25 36 13 37 15 38 25 39 15 40 17 41 25 42 17 43 19 44 25 45 19 46 21 47 25 48 21 49 23 50 25 51 23 52 3 53 0 54 1 55 2 56 0 57 2 58 3 59 1 60 4 61 5 62 1 63 5 64 2 65 4 66 6 67 7 68 4 69 7 70 5 71 6 72 8 73 9 74 6 75 9 76 7 77 8 78 10 79 11 80 8 81 11 82 9 83 10 84 12 85 13 86 10 87 13 88 11 89 12 90 14 91 15 92 12 93 15 94 13 95 14 96 16 97 17 98 14 99 17 100 15 101 16 102 18 103 19 104 16 105 19 106 17 107 18 108 20 109 21 110 18 111 21 112 19 113 20 114 22 115 23 116 20 117 23 118 21 119 22 120 0 121 3 122 22 123 3 124 23 125 24 126 1 127 0 128 24 129 4 130 1 131 24 132 6 133 4 134 24 135 8 136 6 137 24 138 10 139 8 140 24 141 12 142 10 143</p>
                </triangles>
            </mesh>
        </geometry>
    </library_geometries>
    <library_visual_scenes>
        <visual_scene id="Building_317_TRUNK1">
            <node>
                <instance_geometry url="#geometry0">
                    <bind_material>
                        <technique_common>
                            <instance_material symbol="default_ai_0.2_sh_0.2_tr_0.0_dc_r_0.8_g_0.8_b_0.8_sc_r_1.0_g_1.0_b_1.0_ec_r_0.0_g_0.0_b_0_tri" target="#default_ai_0.2_sh_0.2_tr_0.0_dc_r_0.8_g_0.8_b_0.8_sc_r_1.0_g_1.0_b_1.0_ec_r_0.0_g_0.0_b_0_mat"/>
                        </technique_common>
                    </bind_material>
                </instance_geometry>
            </node>
        </visual_scene>
    </library_visual_scenes>
    <scene>
        <instance_visual_scene url="#Building_317_TRUNK1"/>
    </scene>
</COLLADA>
