<?xml version="1.0" encoding="UTF-8" standalone="yes"?>
<COLLADA xmlns="http://www.collada.org/2005/11/COLLADASchema" version="1.4.1">
    <asset>
        <contributor>
            <authoring_tool>3D City Database Importer/Exporter, version 5.5.3; Chair of Geoinformatics, Technical University of Munich</authoring_tool>
        </contributor>
        <created>2026-09-25T14:45:03.898</created>
        <modified>2026-09-25T14:45:03.898</modified>
        <unit meter="1.0" name="meters"/>
        <up_axis>Z_UP</up_axis>
    </asset>
    <library_materials>
        <material id="default_ai_0.2_sh_0.2_tr_0.0_dc_r_0.8_g_0.8_b_0.8_sc_r_1.0_g_1.0_b_1.0_ec_r_0.0_g_0.0_b_0_mat">
            <instance_effect url="#default_ai_0.2_sh_0.2_tr_0.0_dc_r_0.8_g_0.8_b_0.8_sc_r_1.0_g_1.0_b_1.0_ec_r_0.0_g_0.0_b_0_eff"/>
        </material>
    </library_materials>
    <library_effects>
        <effect id="default_ai_0.2_sh_0.2_tr_0.0_dc_r_0.8_g_0.8_b_0.8_sc_r_1.0_g_1.0_b_1.0_ec_r_0.0_g_0.0_b_0_eff">
            <profile_COMMON>
                <technique sid="COMMON">
                    <lambert>
                        <emission>
                            <color>0.0 0.0 0.0 1.0</color>
                        </emission>
                        <diffuse>
                            <color>0.8 0.8 0.8 1.0</color>
                        </diffuse>
                        <reflective>
                            <color>1.0 1.0 1.0 1.0</color>
                        </reflective>
                        <reflectivity>
                            <float>0.2</float>
                        </reflectivity>
                        <transparent opaque="A_ONE">
                            <color>1.0 1.0 1.0 1.0</color>
                        </transparent>
                        <transparency>
                            <float>1.0</float>
                        </transparency>
                    </lambert>
                </technique>
                <extra>
                    <technique profile="GOOGLEEARTH">
                        <double_sided>0</double_sided>
                    </technique>
                </extra>
            </profile_COMMON>
        </effect>
    </library_effects>
    <library_geometries>
        <geometry id="geometry0">
            <mesh>
                <source id="geometry0-position">
                    <float_array id="geometry0-position-array" count="78">0.0 0.0 0.0 -0.0087087 0.0325 0.0 -0.0087087 0.0325 2.1666671 0.0 0.0 2.1666671 -0.0325 0.0562913 0.0 -0.0325 0.0562913 2.1666671 -0.065 0.065 0.0 -0.065 0.065 2.1666671 -0.0975 0.0562913 0.0 -0.0975 0.0562913 2.1666671 -0.1212913 0.0325 0.0 -0.1212913 0.0325 2.1666671 -0.13 0.0 0.0 -0.13 0.0 2.1666671 -0.1212913 -0.0325 0.0 -0.1212913 -0.0325 2.1666671 -0.0975 -0.0562913 0.0 -0.0975 -0.0562913 2.1666671 -0.065 -0.065 0.0 -0.065 -0.065 2.1666671 -0.0325 -0.0562913 0.0 -0.0325 -0.0562913 2.1666671 -0.0087087 -0.0325 0.0 -0.0087087 -0.0325 2.1666671 -0.065 0.0 0.0 -0.065 0.0 2.1666671</float_array>
                    <technique_common>
                        <accessor count="26" source="#geometry0-position-array" stride="3">
                            <param name="X" type="float"/>
                            <param name="Y" type="float"/>
                            <param name="Z" type="float"/>
                        </accessor>
                    </technique_common>
                </source>
                <source id="geometry0-normal">
                    <float_array id="geometry0-normal-array" count="432">0.2588287 -0.9659232 0.0 0.2588287 -0.9659232 0.0 0.2588287 -0.9659232 0.0 0.2588287 -0.9659232 0.0 0.2588287 -0.9659232 0.0 0.2588287 -0.9659232 0.0 0.7071068 -0.7071067 0.0 0.7071068 -0.7071067 0.0 0.7071068 -0.7071067 0.0 0.7071068 -0.7071067 0.0 0.7071068 -0.7071067 0.0 0.7071068 -0.7071067 0.0 0.9659232 -0.2588288 0.0 0.9659232 -0.2588288 0.0 0.9659232 -0.2588288 0.0 0.9659232 -0.2588288 0.0 0.9659232 -0.2588288 0.0 0.9659232 -0.2588288 0.0 0.0 0.0 -1.0 0.0 0.0 -1.0 0.0 0.0 -1.0 0.0 0.0 -1.0 0.0 0.0 -1.0 0.0 0.0 -1.0 0.0 0.0 -1.0 0.0 0.0 -1.0 0.0 0.0 -1.0 0.0 0.0 -1.0 0.0 0.0 -1.0 0.0 0.0 -1.0 0.0 0.0 -1.0 0.0 0.0 -1.0 0.0 0.0 -1.0 0.0 0.0 -1.0 0.0 0.0 -1.0 0.0 0.0 -1.0 0.0 0.0 -1.0 0.0 0.0 -1.0 0.0 0.0 -1.0 0.0 0.0 -1.0 0.0 0.0 -1.0 0.0 0.0 -1.0 0.0 0.0 -1.0 0.0 0.0 -1.0 0.0 0.0 -1.0 0.0 0.0 -1.0 0.0 0.0 -1.0 0.0 0.0 -1.0 0.0 0.0 -1.0 0.0 0.0 -1.0 0.0 0.0 -1.0 0.0 0.0 -1.0 0.0 0.0 -1.0 0.0 0.0 -1.0 0.0 0.0 1.0 0.0 0.0 1.0 0.0 0.0 1.0 0.0 0.0 1.0 0.0 0.0 1.0 0.0 0.0 1.0 0.0 0.0 1.0 0.0 0.0 1.0 0.0 0.0 1.0 0.0 0.0 1.0 0.0 0.0 1.0 0.0 0.0 1.0 0.0 0.0 1.0 0.0 0.0 1.0 0.0 0.0 1.0 0.0 0.0 1.0 0.0 0.0 1.0 0.0 0.0 1.0 0.0 0.0 1.0 0.0 0.0 1.0 0.0 0.0 1.0 0.0 0.0 1.0 0.0 0.0 1.0 0.0 0.0 1.0 0.0 0.0 1.0 0.0 0.0 1.0 0.0 0.0 1.0 0.0 0.0 1.0 0.0 0.0 1.0 0.0 0.0 1.0 0.0 0.0 1.0 0.0 0.0 1.0 0.0 0.0 1.0 0.0 0.0 1.0 0.0 0.0 1.0 0.0 0.0 1.0 0.9659232 0.2588288 0.0 0.9659232 0.2588288 0.0 0.9659232 0.2588288 0.0 0.9659232 0.2588288 0.0 0.9659232 0.2588288 0.0 0.9659232 0.2588288 0.0 0.7071068 0.7071067 0.0 0.7071068 0.7071067 0.0 0.7071068 0.7071067 0.0 0.7071068 0.7071067 0.0 0.7071068 0.7071067 0.0 0.7071068 0.7071067 0.0 0.2588287 0.9659232 0.0 0.2588287 0.9659232 0.0 0.2588287 0.9659232 0.0 0.2588287 0.9659232 0.0 0.2588287 0.9659232 0.0 0.2588287 0.9659232 0.0 -0.2588287 0.9659232 0.0 -0.2588287 0.9659232 0.0 -0.2588287 0.9659232 0.0 -0.2588287 0.9659232 0.0 -0.2588287 0.9659232 0.0 -0.2588287 0.9659232 0.0 -0.7071068 0.7071068 0.0 -0.7071068 0.7071068 0.0 -0.7071068 0.7071068 0.0 -0.7071068 0.7071068 0.0 -0.7071068 0.7071068 0.0 -0.7071068 0.7071068 0.0 -0.9659232 0.2588286 0.0 -0.9659232 0.2588286 0.0 -0.9659232 0.2588286 0.0 -0.9659232 0.2588286 0.0 -0.9659232 0.2588286 0.0 -0.9659232 0.2588286 0.0 -0.9659232 -0.2588286 0.0 -0.9659232 -0.2588286 0.0 -0.9659232 -0.2588286 0.0 -0.9659232 -0.2588286 0.0 -0.9659232 -0.2588286 0.0 -0.9659232 -0.2588286 0.0 -0.7071068 -0.7071068 0.0 -0.7071068 -0.7071068 0.0 -0.7071068 -0.7071068 0.0 -0.7071068 -0.7071068 0.0 -0.7071068 -0.7071068 0.0 -0.7071068 -0.7071068 0.0 -0.2588287 -0.9659232 0.0 -0.2588287 -0.9659232 0.0 -0.2588287 -0.9659232 0.0 -0.2588287 -0.9659232 0.0 -0.2588287 -0.9659232 0.0 -0.2588287 -0.9659232 0.0</float_array>
                    <technique_common>
                        <accessor count="144" source="#geometry0-normal-array" stride="3">
                            <param name="X" type="float"/>
                            <param name="Y" type="float"/>
                            <param name="Z" type="float"/>
                        </accessor>
                    </technique_common>
                </source>
                <vertices id="geometry0-vertex">
                    <input semantic="POSITION" source="#geometry0-position"/>
                </vertices>
                <triangles count="48" material="default_ai_0.2_sh_0.2_tr_0.0_dc_r_0.8_g_0.8_b_0.8_sc_r_1.0_g_1.0_b_1.0_ec_r_0.0_g_0.0_b_0_tri">
                    <input offset="0" semantic="VERTEX" source="#geometry0-vertex"/>
                    <input offset="1" semantic="NORMAL" source="#geometry0-normal"/>
                    <p>18 0 20 1 21 2 18 3 21 4 19 5 20 6 22 7 23 8 20 9 23 10 21 11 22 12 0 13 3 14 22 15 3 16 23 17 24 18 1 19 0 20 24 21 4 22 1 23 24 24 6 25 4 26 24 27 8 28 6 29 24 30 10 31 8 32 24 33 12 34 10 35 24 36 14 37 12 38 24 39 16 40 14 41 24 42 18 43 16 44 24 45 20 46 18 47 24 48 22 49 20 50 24 51 0 52 22 53 25 54 3 55 2 56 25 57 2 58 5 59 25 60 5 61 7 62 25 63 7 64 9 65 25 66 9 67 11 68 25 69 11 70 13 71 25 72 13 73 15 74 25 75 15 76 17 77 25 78 17 79 19 80 25 81 19 82 21 83 25 84 21 85 23 86 25 87 23 88 3 89 0 90 1 91 2 92 0 93 2 94 3 95 1 96 4 97 5 98 1 99 5 100 2 101 4 102 6 103 7 104 4 105 7 106 5 107 6 108 8 109 9 110 6 111 9 112 7 113 8 114 10 115 11 116 8 117 11 118 9 119 10 120 12 121 13 122 10 123 13 124 11 125 12 126 14 127 15 128 12 129 15 130 13 131 14 132 16 133 17 134 14 135 17 136 15 137 16 138 18 139 19 140 16 141 19 142 17 143</p>
                </triangles>
            </mesh>
        </geometry>
    </library_geometries>
    <library_visual_scenes>
        <visual_scene id="Building_203_TRUNK1">
            <node>
                <instance_geometry url="#geometry0">
                    <bind_material>
                        <technique_common>
                            <instance_material symbol="default_ai_0.2_sh_0.2_tr_0.0_dc_r_0.8_g_0.8_b_0.8_sc_r_1.0_g_1.0_b_1.0_ec_r_0.0_g_0.0_b_0_tri" target="#default_ai_0.2_sh_0.2_tr_0.0_dc_r_0.8_g_0.8_b_0.8_sc_r_1.0_g_1.0_b_1.0_ec_r_0.0_g_0.0_b_0_mat"/>
                        </technique_common>
                    </bind_material>
                </instance_geometry>
            </node>
        </visual_scene>
    </library_visual_scenes>
    <scene>
        <instance_visual_scene url="#Building_203_TRUNK1"/>
    </scene>
</COLLADA>
