<?xml version="1.0" encoding="UTF-8" standalone="yes"?>
<COLLADA xmlns="http://www.collada.org/2005/11/COLLADASchema" version="1.4.1">
    <asset>
        <contributor>
            <authoring_tool>3D City Database Importer/Exporter, version 5.5.3; Chair of Geoinformatics, Technical University of Munich</authoring_tool>
        </contributor>
        <created>2026-09-25T14:45:11.415</created>
        <modified>2026-09-25T14:45:11.415</modified>
        <unit meter="1.0" name="meters"/>
        <up_axis>Z_UP</up_axis>
    </asset>
    <library_materials>
        <material id="default_ai_0.2_sh_0.2_tr_0.0_dc_r_0.8_g_0.8_b_0.8_sc_r_1.0_g_1.0_b_1.0_ec_r_0.0_g_0.0_b_0_mat">
            <instance_effect url="#default_ai_0.2_sh_0.2_tr_0.0_dc_r_0.8_g_0.8_b_0.8_sc_r_1.0_g_1.0_b_1.0_ec_r_0.0_g_0.0_b_0_eff"/>
        </material>
    </library_materials>
    <library_effects>
        <effect id="default_ai_0.2_sh_0.2_tr_0.0_dc_r_0.8_g_0.8_b_0.8_sc_r_1.0_g_1.0_b_1.0_ec_r_0.0_g_0.0_b_0_eff">
            <profile_COMMON>
                <technique sid="COMMON">
                    <lambert>
                        <emission>
                            <color>0.0 0.0 0.0 1.0</color>
                        </emission>
                        <diffuse>
                            <color>0.8 0.8 0.8 1.0</color>
                        </diffuse>
                        <reflective>
                            <color>1.0 1.0 1.0 1.0</color>
                        </reflective>
                        <reflectivity>
                            <float>0.2</float>
                        </reflectivity>
                        <transparent opaque="A_ONE">
                            <color>1.0 1.0 1.0 1.0</color>
                        </transparent>
                        <transparency>
                            <float>1.0</float>
                        </transparency>
                    </lambert>
                </technique>
                <extra>
                    <technique profile="GOOGLEEARTH">
                        <double_sided>0</double_sided>
                    </technique>
                </extra>
            </profile_COMMON>
        </effect>
    </library_effects>
    <library_geometries>
        <geometry id="geometry0">
            <mesh>
                <source id="geometry0-position">
                    <float_array id="geometry0-position-array" count="402">0.0 0.0 3.1 0.3474232 0.2005855 3.0471853 0.4011695 0.0 3.0471853 0.2005855 0.3474232 3.0471853 0.0 0.4011695 3.0471853 -0.2005855 0.3474232 3.0471853 -0.3474232 0.2005855 3.0471853 -0.4011695 0.0 3.0471853 -0.3474232 -0.2005855 3.0471853 -0.2005855 -0.3474232 3.0471853 0.0 -0.4011695 3.0471853 0.2005855 -0.3474232 3.0471853 0.3474232 -0.2005855 3.0471853 0.6711701 0.3875 2.8923387 0.775 0.0 2.8923387 0.3875 0.6711701 2.8923387 0.0 0.775 2.8923387 -0.3875 0.6711701 2.8923387 -0.6711701 0.3875 2.8923387 -0.775 0.0 2.8923387 -0.6711701 -0.3875 2.8923387 -0.3875 -0.6711701 2.8923387 0.0 -0.775 2.8923387 0.3875 -0.6711701 2.8923387 0.6711701 -0.3875 2.8923387 0.9491766 0.5480072 2.6460158 1.0960159 0.0 2.6460158 0.5480072 0.9491766 2.6460158 0.0 1.0960159 2.6460158 -0.5480072 0.9491766 2.6460158 -0.9491766 0.5480072 2.6460158 -1.0960159 0.0 2.6460158 -0.9491766 -0.5480072 2.6460158 -0.5480072 -0.9491766 2.6460158 0.0 -1.0960159 2.6460158 0.5480072 -0.9491766 2.6460158 0.9491766 -0.5480072 2.6460158 1.1625 0.6711701 2.325 1.3423388 0.0 2.325 0.6711701 1.1625 2.325 0.0 1.3423388 2.325 -0.6711701 1.1625 2.325 -1.1625 0.6711701 2.325 -1.3423388 0.0 2.325 -1.1625 -0.6711701 2.325 -0.6711701 -1.1625 2.325 0.0 -1.3423388 2.325 0.6711701 -1.1625 2.325 1.1625 -0.6711701 2.325 1.2965998 0.7485926 1.9511694 1.4971853 0.0 1.9511694 0.7485926 1.2965998 1.9511694 0.0 1.4971853 1.9511694 -0.7485926 1.2965998 1.9511694 -1.2965998 0.7485926 1.9511694 -1.4971853 0.0 1.9511694 -1.2965998 -0.7485926 1.9511694 -0.7485926 -1.2965998 1.9511694 0.0 -1.4971853 1.9511694 0.7485926 -1.2965998 1.9511694 1.2965998 -0.7485926 1.9511694 1.3423388 0.775 1.55 1.55 0.0 1.55 0.775 1.3423388 1.55 0.0 1.55 1.55 -0.775 1.3423388 1.55 -1.3423388 0.775 1.55 -1.55 0.0 1.55 -1.3423388 -0.775 1.55 -0.775 -1.3423388 1.55 0.0 -1.55 1.55 0.775 -1.3423388 1.55 1.3423388 -0.775 1.55 1.2965998 0.7485926 1.1488305 1.4971853 0.0 1.1488305 0.7485926 1.2965998 1.1488305 0.0 1.4971853 1.1488305 -0.7485926 1.2965998 1.1488305 -1.2965998 0.7485926 1.1488305 -1.4971853 0.0 1.1488305 -1.2965998 -0.7485926 1.1488305 -0.7485926 -1.2965998 1.1488305 0.0 -1.4971853 1.1488305 0.7485926 -1.2965998 1.1488305 1.2965998 -0.7485926 1.1488305 1.1625 0.6711701 0.775 1.3423388 0.0 0.775 0.6711701 1.1625 0.775 0.0 1.3423388 0.775 -0.6711701 1.1625 0.775 -1.1625 0.6711701 0.775 -1.3423388 0.0 0.775 -1.1625 -0.6711701 0.775 -0.6711701 -1.1625 0.775 0.0 -1.3423388 0.775 0.6711701 -1.1625 0.775 1.1625 -0.6711701 0.775 0.9491766 0.5480072 0.4539841 1.0960159 0.0 0.4539841 0.5480072 0.9491766 0.4539841 0.0 1.0960159 0.4539841 -0.5480072 0.9491766 0.4539841 -0.9491766 0.5480072 0.4539841 -1.0960159 0.0 0.4539841 -0.9491766 -0.5480072 0.4539841 -0.5480072 -0.9491766 0.4539841 0.0 -1.0960159 0.4539841 0.5480072 -0.9491766 0.4539841 0.9491766 -0.5480072 0.4539841 0.6711701 0.3875 0.2076612 0.775 0.0 0.2076612 0.3875 0.6711701 0.2076612 0.0 0.775 0.2076612 -0.3875 0.6711701 0.2076612 -0.6711701 0.3875 0.2076612 -0.775 0.0 0.2076612 -0.6711701 -0.3875 0.2076612 -0.3875 -0.6711701 0.2076612 0.0 -0.775 0.2076612 0.3875 -0.6711701 0.2076612 0.6711701 -0.3875 0.2076612 0.3474232 0.2005855 0.0528147 0.4011695 0.0 0.0528147 0.2005855 0.3474232 0.0528147 0.0 0.4011695 0.0528147 -0.2005855 0.3474232 0.0528147 -0.3474232 0.2005855 0.0528147 -0.4011695 0.0 0.0528147 -0.3474232 -0.2005855 0.0528147 -0.2005855 -0.3474232 0.0528147 0.0 -0.4011695 0.0528147 0.2005855 -0.3474232 0.0528147 0.3474232 -0.2005855 0.0528147 0.0 0.0 0.0</float_array>
                    <technique_common>
                        <accessor count="134" source="#geometry0-position-array" stride="3">
                            <param name="X" type="float"/>
                            <param name="Y" type="float"/>
                            <param name="Z" type="float"/>
                        </accessor>
                    </technique_common>
                </source>
                <source id="geometry0-normal">
                    <float_array id="geometry0-normal-array" count="2520">-0.2403002 0.8968091 0.3714691 -0.2403002 0.8968091 0.3714691 -0.2403002 0.8968091 0.3714691 -0.2402981 0.8968083 0.3714722 -0.2402981 0.8968083 0.3714722 -0.2402981 0.8968083 0.3714722 -0.65651 0.65651 0.371469 -0.65651 0.65651 0.371469 -0.65651 0.65651 0.371469 -0.65651 0.65651 0.371469 -0.65651 0.65651 0.371469 -0.65651 0.65651 0.371469 -0.896808 0.2402999 0.3714721 -0.896808 0.2402999 0.3714721 -0.896808 0.2402999 0.3714721 -0.8968096 0.2402984 0.3714689 -0.8968096 0.2402984 0.3714689 -0.8968096 0.2402984 0.3714689 -0.7760127 -0.2079311 0.595457 -0.7760127 -0.2079311 0.595457 -0.7760127 -0.2079311 0.595457 -0.7760143 -0.207934 0.595454 -0.7760143 -0.207934 0.595454 -0.7760143 -0.207934 0.595454 -0.5680802 -0.5680802 0.5954576 -0.5680802 -0.5680802 0.5954576 -0.5680802 -0.5680802 0.5954576 -0.5680802 -0.5680802 0.5954576 -0.5680802 -0.5680802 0.5954576 -0.5680802 -0.5680802 0.5954576 -0.2079317 -0.7760146 0.5954542 -0.2079317 -0.7760146 0.5954542 -0.2079317 -0.7760146 0.5954542 -0.2079333 -0.7760118 0.5954573 -0.2079333 -0.7760118 0.5954573 -0.2079333 -0.7760118 0.5954573 0.2079311 -0.7760127 0.595457 0.2079311 -0.7760127 0.595457 0.2079311 -0.7760127 0.595457 0.207934 -0.7760143 0.595454 0.207934 -0.7760143 0.595454 0.207934 -0.7760143 0.595454 0.5680802 -0.5680802 0.5954576 0.5680802 -0.5680802 0.5954576 0.5680802 -0.5680802 0.5954576 0.5680802 -0.5680802 0.5954576 0.5680802 -0.5680802 0.5954576 0.5680802 -0.5680802 0.5954576 0.7760146 -0.2079317 0.5954542 0.7760146 -0.2079317 0.5954542 0.7760146 -0.2079317 0.5954542 0.7760118 -0.2079333 0.5954573 0.7760118 -0.2079333 0.5954573 0.7760118 -0.2079333 0.5954573 0.7760127 0.2079311 0.595457 0.7760127 0.2079311 0.595457 0.7760127 0.2079311 0.595457 0.7760143 0.207934 0.595454 0.7760143 0.207934 0.595454 0.7760143 0.207934 0.595454 0.5680802 0.5680802 0.5954576 0.5680802 0.5680802 0.5954576 0.5680802 0.5680802 0.5954576 0.5680802 0.5680802 0.5954576 0.5680802 0.5680802 0.5954576 0.5680802 0.5680802 0.5954576 0.2079317 0.7760146 0.5954542 0.2079317 0.7760146 0.5954542 0.2079317 0.7760146 0.5954542 0.2079333 0.7760118 0.5954573 0.2079333 0.7760118 0.5954573 0.2079333 0.7760118 0.5954573 -0.2079311 0.7760127 0.595457 -0.2079311 0.7760127 0.595457 -0.2079311 0.7760127 0.595457 -0.207934 0.7760143 0.595454 -0.207934 0.7760143 0.595454 -0.207934 0.7760143 0.595454 -0.5680802 0.5680802 0.5954576 -0.5680802 0.5680802 0.5954576 -0.5680802 0.5680802 0.5954576 -0.5680802 0.5680802 0.5954576 -0.5680802 0.5680802 0.5954576 -0.5680802 0.5680802 0.5954576 -0.7760146 0.2079317 0.5954542 -0.7760146 0.2079317 0.5954542 -0.7760146 0.2079317 0.5954542 -0.7760118 0.2079333 0.5954573 -0.7760118 0.2079333 0.5954573 -0.7760118 0.2079333 0.5954573 -0.6008204 -0.1609906 0.7830051 -0.6008204 -0.1609906 0.7830051 -0.6008204 -0.1609906 0.7830051 -0.6008191 -0.1609882 0.7830065 -0.6008191 -0.1609882 0.7830065 -0.6008191 -0.1609882 0.7830065 -0.4398314 -0.4398314 0.7830049 -0.4398314 -0.4398314 0.7830049 -0.4398314 -0.4398314 0.7830049 -0.4398314 -0.4398314 0.7830051 -0.4398314 -0.4398314 0.7830051 -0.4398314 -0.4398314 0.7830051 -0.1609902 -0.6008189 0.7830063 -0.1609902 -0.6008189 0.7830063 -0.1609902 -0.6008189 0.7830063 -0.1609888 -0.6008212 0.7830048 -0.1609888 -0.6008212 0.7830048 -0.1609888 -0.6008212 0.7830048 0.1609906 -0.6008204 0.7830051 0.1609906 -0.6008204 0.7830051 0.1609906 -0.6008204 0.7830051 0.1609882 -0.6008191 0.7830065 0.1609882 -0.6008191 0.7830065 0.1609882 -0.6008191 0.7830065 0.4398314 -0.4398314 0.7830049 0.4398314 -0.4398314 0.7830049 0.4398314 -0.4398314 0.7830049 0.4398314 -0.4398314 0.7830051 0.4398314 -0.4398314 0.7830051 0.4398314 -0.4398314 0.7830051 0.6008189 -0.1609902 0.7830063 0.6008189 -0.1609902 0.7830063 0.6008189 -0.1609902 0.7830063 0.6008212 -0.1609888 0.7830048 0.6008212 -0.1609888 0.7830048 0.6008212 -0.1609888 0.7830048 0.6008204 0.1609906 0.7830051 0.6008204 0.1609906 0.7830051 0.6008204 0.1609906 0.7830051 0.6008191 0.1609882 0.7830065 0.6008191 0.1609882 0.7830065 0.6008191 0.1609882 0.7830065 0.4398314 0.4398314 0.7830049 0.4398314 0.4398314 0.7830049 0.4398314 0.4398314 0.7830049 0.4398314 0.4398314 0.7830051 0.4398314 0.4398314 0.7830051 0.4398314 0.4398314 0.7830051 0.1609902 0.6008189 0.7830063 0.1609902 0.6008189 0.7830063 0.1609902 0.6008189 0.7830063 0.1609888 0.6008212 0.7830048 0.1609888 0.6008212 0.7830048 0.1609888 0.6008212 0.7830048 -0.1609906 0.6008204 0.7830051 -0.1609906 0.6008204 0.7830051 -0.1609906 0.6008204 0.7830051 -0.1609882 0.6008191 0.7830065 -0.1609882 0.6008191 0.7830065 -0.1609882 0.6008191 0.7830065 -0.4398314 0.4398314 0.7830049 -0.4398314 0.4398314 0.7830049 -0.4398314 0.4398314 0.7830049 -0.4398314 0.4398314 0.7830051 -0.4398314 0.4398314 0.7830051 -0.4398314 0.4398314 0.7830051 -0.6008189 0.1609902 0.7830063 -0.6008189 0.1609902 0.7830063 -0.6008189 0.1609902 0.7830063 -0.6008212 0.1609888 0.7830048 -0.6008212 0.1609888 0.7830048 -0.6008212 0.1609888 0.7830048 -0.3806893 -0.1020049 0.9190596 -0.3806893 -0.1020049 0.9190596 -0.3806893 -0.1020049 0.9190596 -0.3806892 -0.1020045 0.9190598 -0.3806892 -0.1020045 0.9190598 -0.3806892 -0.1020045 0.9190598 -0.278684 -0.278684 0.9190595 -0.278684 -0.278684 0.9190595 -0.278684 -0.278684 0.9190595 -0.278684 -0.278684 0.9190595 -0.278684 -0.278684 0.9190595 -0.278684 -0.278684 0.9190595 -0.1020048 -0.3806891 0.9190598 -0.1020048 -0.3806891 0.9190598 -0.1020048 -0.3806891 0.9190598 -0.1020046 -0.3806895 0.9190596 -0.1020046 -0.3806895 0.9190596 -0.1020046 -0.3806895 0.9190596 0.1020049 -0.3806893 0.9190596 0.1020049 -0.3806893 0.9190596 0.1020049 -0.3806893 0.9190596 0.1020045 -0.3806892 0.9190598 0.1020045 -0.3806892 0.9190598 0.1020045 -0.3806892 0.9190598 0.278684 -0.278684 0.9190595 0.278684 -0.278684 0.9190595 0.278684 -0.278684 0.9190595 0.278684 -0.278684 0.9190595 0.278684 -0.278684 0.9190595 0.278684 -0.278684 0.9190595 0.3806891 -0.1020048 0.9190598 0.3806891 -0.1020048 0.9190598 0.3806891 -0.1020048 0.9190598 0.3806895 -0.1020046 0.9190596 0.3806895 -0.1020046 0.9190596 0.3806895 -0.1020046 0.9190596 0.3806893 0.1020049 0.9190596 0.3806893 0.1020049 0.9190596 0.3806893 0.1020049 0.9190596 0.3806892 0.1020045 0.9190598 0.3806892 0.1020045 0.9190598 0.3806892 0.1020045 0.9190598 0.278684 0.278684 0.9190595 0.278684 0.278684 0.9190595 0.278684 0.278684 0.9190595 0.278684 0.278684 0.9190595 0.278684 0.278684 0.9190595 0.278684 0.278684 0.9190595 0.1020048 0.3806891 0.9190598 0.1020048 0.3806891 0.9190598 0.1020048 0.3806891 0.9190598 0.1020046 0.3806895 0.9190596 0.1020046 0.3806895 0.9190596 0.1020046 0.3806895 0.9190596 -0.1020049 0.3806893 0.9190596 -0.1020049 0.3806893 0.9190596 -0.1020049 0.3806893 0.9190596 -0.1020045 0.3806892 0.9190598 -0.1020045 0.3806892 0.9190598 -0.1020045 0.3806892 0.9190598 -0.278684 0.278684 0.9190595 -0.278684 0.278684 0.9190595 -0.278684 0.278684 0.9190595 -0.278684 0.278684 0.9190595 -0.278684 0.278684 0.9190595 -0.278684 0.278684 0.9190595 -0.3806891 0.1020048 0.9190598 -0.3806891 0.1020048 0.9190598 -0.3806891 0.1020048 0.9190598 -0.3806895 0.1020046 0.9190596 -0.3806895 0.1020046 0.9190596 -0.3806895 0.1020046 0.9190596 -0.1304458 -0.0349525 0.9908391 -0.1304458 -0.0349525 0.9908391 -0.1304458 -0.0349525 0.9908391 1.0 0.0 0.0 1.0 0.0 0.0 -0.0954928 -0.0954928 0.9908392 -0.0954928 -0.0954928 0.9908392 -0.0954928 -0.0954928 0.9908392 1.0 0.0 0.0 1.0 0.0 0.0 -0.0349525 -0.1304458 0.9908391 -0.0349525 -0.1304458 0.9908391 -0.0349525 -0.1304458 0.9908391 1.0 0.0 0.0 1.0 0.0 0.0 0.0349525 -0.1304458 0.9908391 0.0349525 -0.1304458 0.9908391 0.0349525 -0.1304458 0.9908391 1.0 0.0 0.0 1.0 0.0 0.0 0.0954928 -0.0954928 0.9908392 0.0954928 -0.0954928 0.9908392 0.0954928 -0.0954928 0.9908392 1.0 0.0 0.0 1.0 0.0 0.0 0.1304458 -0.0349525 0.9908391 0.1304458 -0.0349525 0.9908391 0.1304458 -0.0349525 0.9908391 1.0 0.0 0.0 1.0 0.0 0.0 0.1304458 0.0349525 0.9908391 0.1304458 0.0349525 0.9908391 0.1304458 0.0349525 0.9908391 1.0 0.0 0.0 1.0 0.0 0.0 0.0954928 0.0954928 0.9908392 0.0954928 0.0954928 0.9908392 0.0954928 0.0954928 0.9908392 1.0 0.0 0.0 1.0 0.0 0.0 0.0349525 0.1304458 0.9908391 0.0349525 0.1304458 0.9908391 0.0349525 0.1304458 0.9908391 1.0 0.0 0.0 1.0 0.0 0.0 -0.0349525 0.1304458 0.9908391 -0.0349525 0.1304458 0.9908391 -0.0349525 0.1304458 0.9908391 1.0 0.0 0.0 1.0 0.0 0.0 -0.0954928 0.0954928 0.9908392 -0.0954928 0.0954928 0.9908392 -0.0954928 0.0954928 0.9908392 1.0 0.0 0.0 1.0 0.0 0.0 -0.1304458 0.0349525 0.9908391 -0.1304458 0.0349525 0.9908391 -0.1304458 0.0349525 0.9908391 1.0 0.0 0.0 1.0 0.0 0.0 1.0 0.0 0.0 1.0 0.0 0.0 -0.1304459 -0.0349526 -0.9908391 -0.1304459 -0.0349526 -0.9908391 -0.1304459 -0.0349526 -0.9908391 1.0 0.0 0.0 1.0 0.0 0.0 -0.0954928 -0.0954928 -0.9908392 -0.0954928 -0.0954928 -0.9908392 -0.0954928 -0.0954928 -0.9908392 1.0 0.0 0.0 1.0 0.0 0.0 -0.0349526 -0.1304459 -0.9908391 -0.0349526 -0.1304459 -0.9908391 -0.0349526 -0.1304459 -0.9908391 1.0 0.0 0.0 1.0 0.0 0.0 0.0349526 -0.1304459 -0.9908391 0.0349526 -0.1304459 -0.9908391 0.0349526 -0.1304459 -0.9908391 1.0 0.0 0.0 1.0 0.0 0.0 0.0954928 -0.0954928 -0.9908392 0.0954928 -0.0954928 -0.9908392 0.0954928 -0.0954928 -0.9908392 1.0 0.0 0.0 1.0 0.0 0.0 0.1304459 -0.0349526 -0.9908391 0.1304459 -0.0349526 -0.9908391 0.1304459 -0.0349526 -0.9908391 1.0 0.0 0.0 1.0 0.0 0.0 0.1304459 0.0349526 -0.9908391 0.1304459 0.0349526 -0.9908391 0.1304459 0.0349526 -0.9908391 1.0 0.0 0.0 1.0 0.0 0.0 0.0954928 0.0954928 -0.9908392 0.0954928 0.0954928 -0.9908392 0.0954928 0.0954928 -0.9908392 1.0 0.0 0.0 1.0 0.0 0.0 0.0349526 0.1304459 -0.9908391 0.0349526 0.1304459 -0.9908391 0.0349526 0.1304459 -0.9908391 1.0 0.0 0.0 1.0 0.0 0.0 -0.0349526 0.1304459 -0.9908391 -0.0349526 0.1304459 -0.9908391 -0.0349526 0.1304459 -0.9908391 1.0 0.0 0.0 1.0 0.0 0.0 -0.0954928 0.0954928 -0.9908392 -0.0954928 0.0954928 -0.9908392 -0.0954928 0.0954928 -0.9908392 1.0 0.0 0.0 1.0 0.0 0.0 -0.1304459 0.0349526 -0.9908391 -0.1304459 0.0349526 -0.9908391 -0.1304459 0.0349526 -0.9908391 -0.3806893 -0.1020045 -0.9190597 -0.3806893 -0.1020045 -0.9190597 -0.3806893 -0.1020045 -0.9190597 -0.3806889 -0.1020048 -0.9190598 -0.3806889 -0.1020048 -0.9190598 -0.3806889 -0.1020048 -0.9190598 -0.2786838 -0.2786838 -0.9190596 -0.2786838 -0.2786838 -0.9190596 -0.2786838 -0.2786838 -0.9190596 -0.2786838 -0.2786838 -0.9190596 -0.2786838 -0.2786838 -0.9190596 -0.2786838 -0.2786838 -0.9190596 -0.1020044 -0.380689 -0.9190599 -0.1020044 -0.380689 -0.9190599 -0.1020044 -0.380689 -0.9190599 -0.1020048 -0.3806891 -0.9190598 -0.1020048 -0.3806891 -0.9190598 -0.1020048 -0.3806891 -0.9190598 0.1020045 -0.3806893 -0.9190597 0.1020045 -0.3806893 -0.9190597 0.1020045 -0.3806893 -0.9190597 0.1020048 -0.3806889 -0.9190598 0.1020048 -0.3806889 -0.9190598 0.1020048 -0.3806889 -0.9190598 0.2786838 -0.2786838 -0.9190596 0.2786838 -0.2786838 -0.9190596 0.2786838 -0.2786838 -0.9190596 0.2786838 -0.2786838 -0.9190596 0.2786838 -0.2786838 -0.9190596 0.2786838 -0.2786838 -0.9190596 0.380689 -0.1020044 -0.9190599 0.380689 -0.1020044 -0.9190599 0.380689 -0.1020044 -0.9190599 0.3806891 -0.1020048 -0.9190598 0.3806891 -0.1020048 -0.9190598 0.3806891 -0.1020048 -0.9190598 0.3806893 0.1020045 -0.9190597 0.3806893 0.1020045 -0.9190597 0.3806893 0.1020045 -0.9190597 0.3806889 0.1020048 -0.9190598 0.3806889 0.1020048 -0.9190598 0.3806889 0.1020048 -0.9190598 0.2786838 0.2786838 -0.9190596 0.2786838 0.2786838 -0.9190596 0.2786838 0.2786838 -0.9190596 0.2786838 0.2786838 -0.9190596 0.2786838 0.2786838 -0.9190596 0.2786838 0.2786838 -0.9190596 0.1020044 0.380689 -0.9190599 0.1020044 0.380689 -0.9190599 0.1020044 0.380689 -0.9190599 0.1020048 0.3806891 -0.9190598 0.1020048 0.3806891 -0.9190598 0.1020048 0.3806891 -0.9190598 -0.1020045 0.3806893 -0.9190597 -0.1020045 0.3806893 -0.9190597 -0.1020045 0.3806893 -0.9190597 -0.1020048 0.3806889 -0.9190598 -0.1020048 0.3806889 -0.9190598 -0.1020048 0.3806889 -0.9190598 -0.2786838 0.2786838 -0.9190596 -0.2786838 0.2786838 -0.9190596 -0.2786838 0.2786838 -0.9190596 -0.2786838 0.2786838 -0.9190596 -0.2786838 0.2786838 -0.9190596 -0.2786838 0.2786838 -0.9190596 -0.380689 0.1020044 -0.9190599 -0.380689 0.1020044 -0.9190599 -0.380689 0.1020044 -0.9190599 -0.3806891 0.1020048 -0.9190598 -0.3806891 0.1020048 -0.9190598 -0.3806891 0.1020048 -0.9190598 -0.6008212 -0.1609888 -0.7830048 -0.6008212 -0.1609888 -0.7830048 -0.6008212 -0.1609888 -0.7830048 -0.6008188 -0.1609902 -0.7830063 -0.6008188 -0.1609902 -0.7830063 -0.6008188 -0.1609902 -0.7830063 -0.4398314 -0.4398314 -0.7830049 -0.4398314 -0.4398314 -0.7830049 -0.4398314 -0.4398314 -0.7830049 -0.4398313 -0.4398313 -0.7830049 -0.4398313 -0.4398313 -0.7830049 -0.4398313 -0.4398313 -0.7830049 -0.1609882 -0.6008191 -0.7830065 -0.1609882 -0.6008191 -0.7830065 -0.1609882 -0.6008191 -0.7830065 -0.1609906 -0.6008203 -0.7830051 -0.1609906 -0.6008203 -0.7830051 -0.1609906 -0.6008203 -0.7830051 0.1609888 -0.6008212 -0.7830048 0.1609888 -0.6008212 -0.7830048 0.1609888 -0.6008212 -0.7830048 0.1609902 -0.6008188 -0.7830063 0.1609902 -0.6008188 -0.7830063 0.1609902 -0.6008188 -0.7830063 0.4398314 -0.4398314 -0.7830049 0.4398314 -0.4398314 -0.7830049 0.4398314 -0.4398314 -0.7830049 0.4398313 -0.4398313 -0.7830049 0.4398313 -0.4398313 -0.7830049 0.4398313 -0.4398313 -0.7830049 0.6008191 -0.1609882 -0.7830065 0.6008191 -0.1609882 -0.7830065 0.6008191 -0.1609882 -0.7830065 0.6008203 -0.1609906 -0.7830051 0.6008203 -0.1609906 -0.7830051 0.6008203 -0.1609906 -0.7830051 0.6008212 0.1609888 -0.7830048 0.6008212 0.1609888 -0.7830048 0.6008212 0.1609888 -0.7830048 0.6008188 0.1609902 -0.7830063 0.6008188 0.1609902 -0.7830063 0.6008188 0.1609902 -0.7830063 0.4398314 0.4398314 -0.7830049 0.4398314 0.4398314 -0.7830049 0.4398314 0.4398314 -0.7830049 0.4398313 0.4398313 -0.7830049 0.4398313 0.4398313 -0.7830049 0.4398313 0.4398313 -0.7830049 0.1609882 0.6008191 -0.7830065 0.1609882 0.6008191 -0.7830065 0.1609882 0.6008191 -0.7830065 0.1609906 0.6008203 -0.7830051 0.1609906 0.6008203 -0.7830051 0.1609906 0.6008203 -0.7830051 -0.1609888 0.6008212 -0.7830048 -0.1609888 0.6008212 -0.7830048 -0.1609888 0.6008212 -0.7830048 -0.1609902 0.6008188 -0.7830063 -0.1609902 0.6008188 -0.7830063 -0.1609902 0.6008188 -0.7830063 -0.4398314 0.4398314 -0.7830049 -0.4398314 0.4398314 -0.7830049 -0.4398314 0.4398314 -0.7830049 -0.4398313 0.4398313 -0.7830049 -0.4398313 0.4398313 -0.7830049 -0.4398313 0.4398313 -0.7830049 -0.6008191 0.1609882 -0.7830065 -0.6008191 0.1609882 -0.7830065 -0.6008191 0.1609882 -0.7830065 -0.6008203 0.1609906 -0.7830051 -0.6008203 0.1609906 -0.7830051 -0.6008203 0.1609906 -0.7830051 -0.7760118 -0.2079333 -0.5954573 -0.7760118 -0.2079333 -0.5954573 -0.7760118 -0.2079333 -0.5954573 -0.7760146 -0.2079317 -0.5954542 -0.7760146 -0.2079317 -0.5954542 -0.7760146 -0.2079317 -0.5954542 -0.5680802 -0.5680802 -0.5954576 -0.5680802 -0.5680802 -0.5954576 -0.5680802 -0.5680802 -0.5954576 -0.5680802 -0.5680802 -0.5954575 -0.5680802 -0.5680802 -0.5954575 -0.5680802 -0.5680802 -0.5954575 -0.207934 -0.7760143 -0.595454 -0.207934 -0.7760143 -0.595454 -0.207934 -0.7760143 -0.595454 -0.2079312 -0.7760128 -0.595457 -0.2079312 -0.7760128 -0.595457 -0.2079312 -0.7760128 -0.595457 0.2079333 -0.7760118 -0.5954573 0.2079333 -0.7760118 -0.5954573 0.2079333 -0.7760118 -0.5954573 0.2079317 -0.7760146 -0.5954542 0.2079317 -0.7760146 -0.5954542 0.2079317 -0.7760146 -0.5954542 0.5680802 -0.5680802 -0.5954576 0.5680802 -0.5680802 -0.5954576 0.5680802 -0.5680802 -0.5954576 0.5680802 -0.5680802 -0.5954575 0.5680802 -0.5680802 -0.5954575 0.5680802 -0.5680802 -0.5954575 0.7760143 -0.207934 -0.595454 0.7760143 -0.207934 -0.595454 0.7760143 -0.207934 -0.595454 0.7760128 -0.2079312 -0.595457 0.7760128 -0.2079312 -0.595457 0.7760128 -0.2079312 -0.595457 0.7760118 0.2079333 -0.5954573 0.7760118 0.2079333 -0.5954573 0.7760118 0.2079333 -0.5954573 0.7760146 0.2079317 -0.5954542 0.7760146 0.2079317 -0.5954542 0.7760146 0.2079317 -0.5954542 0.5680802 0.5680802 -0.5954576 0.5680802 0.5680802 -0.5954576 0.5680802 0.5680802 -0.5954576 0.5680802 0.5680802 -0.5954575 0.5680802 0.5680802 -0.5954575 0.5680802 0.5680802 -0.5954575 0.207934 0.7760143 -0.595454 0.207934 0.7760143 -0.595454 0.207934 0.7760143 -0.595454 0.2079312 0.7760128 -0.595457 0.2079312 0.7760128 -0.595457 0.2079312 0.7760128 -0.595457 -0.2079333 0.7760118 -0.5954573 -0.2079333 0.7760118 -0.5954573 -0.2079333 0.7760118 -0.5954573 -0.2079317 0.7760146 -0.5954542 -0.2079317 0.7760146 -0.5954542 -0.2079317 0.7760146 -0.5954542 -0.5680802 0.5680802 -0.5954576 -0.5680802 0.5680802 -0.5954576 -0.5680802 0.5680802 -0.5954576 -0.5680802 0.5680802 -0.5954575 -0.5680802 0.5680802 -0.5954575 -0.5680802 0.5680802 -0.5954575 -0.7760143 0.207934 -0.595454 -0.7760143 0.207934 -0.595454 -0.7760143 0.207934 -0.595454 -0.7760128 0.2079312 -0.595457 -0.7760128 0.2079312 -0.595457 -0.7760128 0.2079312 -0.595457 -0.8968096 -0.2402984 -0.3714689 -0.8968096 -0.2402984 -0.3714689 -0.8968096 -0.2402984 -0.3714689 -0.8968079 -0.2402999 -0.3714721 -0.8968079 -0.2402999 -0.3714721 -0.8968079 -0.2402999 -0.3714721 -0.65651 -0.65651 -0.371469 -0.65651 -0.65651 -0.371469 -0.65651 -0.65651 -0.371469 -0.65651 -0.65651 -0.371469 -0.65651 -0.65651 -0.371469 -0.65651 -0.65651 -0.371469 -0.2402981 -0.8968083 -0.3714722 -0.2402981 -0.8968083 -0.3714722 -0.2402981 -0.8968083 -0.3714722 -0.2403002 -0.8968091 -0.371469 -0.2403002 -0.8968091 -0.371469 -0.2403002 -0.8968091 -0.371469 0.2402984 -0.8968096 -0.3714689 0.2402984 -0.8968096 -0.3714689 0.2402984 -0.8968096 -0.3714689 0.2402999 -0.8968079 -0.3714721 0.2402999 -0.8968079 -0.3714721 0.2402999 -0.8968079 -0.3714721 0.65651 -0.65651 -0.371469 0.65651 -0.65651 -0.371469 0.65651 -0.65651 -0.371469 0.65651 -0.65651 -0.371469 0.65651 -0.65651 -0.371469 0.65651 -0.65651 -0.371469 0.8968083 -0.2402981 -0.3714722 0.8968083 -0.2402981 -0.3714722 0.8968083 -0.2402981 -0.3714722 0.8968091 -0.2403002 -0.371469 0.8968091 -0.2403002 -0.371469 0.8968091 -0.2403002 -0.371469 0.8968096 0.2402984 -0.3714689 0.8968096 0.2402984 -0.3714689 0.8968096 0.2402984 -0.3714689 0.8968079 0.2402999 -0.3714721 0.8968079 0.2402999 -0.3714721 0.8968079 0.2402999 -0.3714721 0.65651 0.65651 -0.371469 0.65651 0.65651 -0.371469 0.65651 0.65651 -0.371469 0.65651 0.65651 -0.371469 0.65651 0.65651 -0.371469 0.65651 0.65651 -0.371469 0.2402981 0.8968083 -0.3714722 0.2402981 0.8968083 -0.3714722 0.2402981 0.8968083 -0.3714722 0.2403002 0.8968091 -0.371469 0.2403002 0.8968091 -0.371469 0.2403002 0.8968091 -0.371469 -0.2402984 0.8968096 -0.3714689 -0.2402984 0.8968096 -0.3714689 -0.2402984 0.8968096 -0.3714689 -0.2402999 0.8968079 -0.3714721 -0.2402999 0.8968079 -0.3714721 -0.2402999 0.8968079 -0.3714721 -0.65651 0.65651 -0.371469 -0.65651 0.65651 -0.371469 -0.65651 0.65651 -0.371469 -0.65651 0.65651 -0.371469 -0.65651 0.65651 -0.371469 -0.65651 0.65651 -0.371469 -0.8968083 0.2402981 -0.3714722 -0.8968083 0.2402981 -0.3714722 -0.8968083 0.2402981 -0.3714722 -0.8968091 0.2403002 -0.371469 -0.8968091 0.2403002 -0.371469 -0.8968091 0.2403002 -0.371469 -0.9582089 -0.2567523 -0.1261504 -0.9582089 -0.2567523 -0.1261504 -0.9582089 -0.2567523 -0.1261504 -0.9582091 -0.256752 -0.1261497 -0.9582091 -0.256752 -0.1261497 -0.9582091 -0.256752 -0.1261497 -0.7014578 -0.7014578 -0.1261502 -0.7014578 -0.7014578 -0.1261502 -0.7014578 -0.7014578 -0.1261502 -0.7014578 -0.7014578 -0.1261502 -0.7014578 -0.7014578 -0.1261502 -0.7014578 -0.7014578 -0.1261502 -0.2567523 -0.958209 -0.1261497 -0.2567523 -0.958209 -0.1261497 -0.2567523 -0.958209 -0.1261497 -0.256752 -0.958209 -0.1261504 -0.256752 -0.958209 -0.1261504 -0.256752 -0.958209 -0.1261504 0.2567523 -0.9582089 -0.1261504 0.2567523 -0.9582089 -0.1261504 0.2567523 -0.9582089 -0.1261504 0.256752 -0.9582091 -0.1261497 0.256752 -0.9582091 -0.1261497 0.256752 -0.9582091 -0.1261497 0.7014578 -0.7014578 -0.1261502 0.7014578 -0.7014578 -0.1261502 0.7014578 -0.7014578 -0.1261502 0.7014578 -0.7014578 -0.1261502 0.7014578 -0.7014578 -0.1261502 0.7014578 -0.7014578 -0.1261502 0.958209 -0.2567523 -0.1261497 0.958209 -0.2567523 -0.1261497 0.958209 -0.2567523 -0.1261497 0.958209 -0.256752 -0.1261504 0.958209 -0.256752 -0.1261504 0.958209 -0.256752 -0.1261504 0.9582089 0.2567523 -0.1261504 0.9582089 0.2567523 -0.1261504 0.9582089 0.2567523 -0.1261504 0.9582091 0.256752 -0.1261497 0.9582091 0.256752 -0.1261497 0.9582091 0.256752 -0.1261497 0.7014578 0.7014578 -0.1261502 0.7014578 0.7014578 -0.1261502 0.7014578 0.7014578 -0.1261502 0.7014578 0.7014578 -0.1261502 0.7014578 0.7014578 -0.1261502 0.7014578 0.7014578 -0.1261502 0.2567523 0.958209 -0.1261497 0.2567523 0.958209 -0.1261497 0.2567523 0.958209 -0.1261497 0.256752 0.958209 -0.1261504 0.256752 0.958209 -0.1261504 0.256752 0.958209 -0.1261504 -0.2567523 0.9582089 -0.1261504 -0.2567523 0.9582089 -0.1261504 -0.2567523 0.9582089 -0.1261504 -0.256752 0.9582091 -0.1261497 -0.256752 0.9582091 -0.1261497 -0.256752 0.9582091 -0.1261497 -0.7014578 0.7014578 -0.1261502 -0.7014578 0.7014578 -0.1261502 -0.7014578 0.7014578 -0.1261502 -0.7014578 0.7014578 -0.1261502 -0.7014578 0.7014578 -0.1261502 -0.7014578 0.7014578 -0.1261502 -0.958209 0.2567523 -0.1261497 -0.958209 0.2567523 -0.1261497 -0.958209 0.2567523 -0.1261497 -0.958209 0.256752 -0.1261504 -0.958209 0.256752 -0.1261504 -0.958209 0.256752 -0.1261504 -0.958209 -0.256752 0.1261504 -0.958209 -0.256752 0.1261504 -0.958209 -0.256752 0.1261504 -0.958209 -0.2567524 0.1261498 -0.958209 -0.2567524 0.1261498 -0.958209 -0.2567524 0.1261498 -0.7014578 -0.7014578 0.1261503 -0.7014578 -0.7014578 0.1261503 -0.7014578 -0.7014578 0.1261503 -0.7014578 -0.7014578 0.1261503 -0.7014578 -0.7014578 0.1261503 -0.7014578 -0.7014578 0.1261503 -0.256752 -0.958209 0.1261498 -0.256752 -0.958209 0.1261498 -0.256752 -0.958209 0.1261498 -0.2567523 -0.958209 0.1261505 -0.2567523 -0.958209 0.1261505 -0.2567523 -0.958209 0.1261505 0.256752 -0.958209 0.1261504 0.256752 -0.958209 0.1261504 0.256752 -0.958209 0.1261504 0.2567524 -0.958209 0.1261498 0.2567524 -0.958209 0.1261498 0.2567524 -0.958209 0.1261498 0.7014578 -0.7014578 0.1261503 0.7014578 -0.7014578 0.1261503 0.7014578 -0.7014578 0.1261503 0.7014578 -0.7014578 0.1261503 0.7014578 -0.7014578 0.1261503 0.7014578 -0.7014578 0.1261503 0.958209 -0.256752 0.1261498 0.958209 -0.256752 0.1261498 0.958209 -0.256752 0.1261498 0.958209 -0.2567523 0.1261505 0.958209 -0.2567523 0.1261505 0.958209 -0.2567523 0.1261505 0.958209 0.256752 0.1261504 0.958209 0.256752 0.1261504 0.958209 0.256752 0.1261504 0.958209 0.2567524 0.1261498 0.958209 0.2567524 0.1261498 0.958209 0.2567524 0.1261498 0.7014578 0.7014578 0.1261503 0.7014578 0.7014578 0.1261503 0.7014578 0.7014578 0.1261503 0.7014578 0.7014578 0.1261503 0.7014578 0.7014578 0.1261503 0.7014578 0.7014578 0.1261503 0.256752 0.958209 0.1261498 0.256752 0.958209 0.1261498 0.256752 0.958209 0.1261498 0.2567523 0.958209 0.1261505 0.2567523 0.958209 0.1261505 0.2567523 0.958209 0.1261505 -0.256752 0.958209 0.1261504 -0.256752 0.958209 0.1261504 -0.256752 0.958209 0.1261504 -0.2567524 0.958209 0.1261498 -0.2567524 0.958209 0.1261498 -0.2567524 0.958209 0.1261498 -0.7014578 0.7014578 0.1261503 -0.7014578 0.7014578 0.1261503 -0.7014578 0.7014578 0.1261503 -0.7014578 0.7014578 0.1261503 -0.7014578 0.7014578 0.1261503 -0.7014578 0.7014578 0.1261503 -0.958209 0.256752 0.1261498 -0.958209 0.256752 0.1261498 -0.958209 0.256752 0.1261498 -0.958209 0.2567523 0.1261505 -0.958209 0.2567523 0.1261505 -0.958209 0.2567523 0.1261505 -0.8968091 -0.2403002 0.3714691 -0.8968091 -0.2403002 0.3714691 -0.8968091 -0.2403002 0.3714691 -0.8968083 -0.2402981 0.3714722 -0.8968083 -0.2402981 0.3714722 -0.8968083 -0.2402981 0.3714722 -0.65651 -0.65651 0.371469 -0.65651 -0.65651 0.371469 -0.65651 -0.65651 0.371469 -0.65651 -0.65651 0.371469 -0.65651 -0.65651 0.371469 -0.65651 -0.65651 0.371469 -0.2402999 -0.896808 0.3714721 -0.2402999 -0.896808 0.3714721 -0.2402999 -0.896808 0.3714721 -0.2402984 -0.8968096 0.3714689 -0.2402984 -0.8968096 0.3714689 -0.2402984 -0.8968096 0.3714689 0.2403002 -0.8968091 0.3714691 0.2403002 -0.8968091 0.3714691 0.2403002 -0.8968091 0.3714691 0.2402981 -0.8968083 0.3714722 0.2402981 -0.8968083 0.3714722 0.2402981 -0.8968083 0.3714722 0.65651 -0.65651 0.371469 0.65651 -0.65651 0.371469 0.65651 -0.65651 0.371469 0.65651 -0.65651 0.371469 0.65651 -0.65651 0.371469 0.65651 -0.65651 0.371469 0.896808 -0.2402999 0.3714721 0.896808 -0.2402999 0.3714721 0.896808 -0.2402999 0.3714721 0.8968096 -0.2402984 0.3714689 0.8968096 -0.2402984 0.3714689 0.8968096 -0.2402984 0.3714689 0.8968091 0.2403002 0.3714691 0.8968091 0.2403002 0.3714691 0.8968091 0.2403002 0.3714691 0.8968083 0.2402981 0.3714722 0.8968083 0.2402981 0.3714722 0.8968083 0.2402981 0.3714722 0.65651 0.65651 0.371469 0.65651 0.65651 0.371469 0.65651 0.65651 0.371469 0.65651 0.65651 0.371469 0.65651 0.65651 0.371469 0.65651 0.65651 0.371469 0.2402999 0.896808 0.3714721 0.2402999 0.896808 0.3714721 0.2402999 0.896808 0.3714721 0.2402984 0.8968096 0.3714689 0.2402984 0.8968096 0.3714689 0.2402984 0.8968096 0.3714689</float_array>
                    <technique_common>
                        <accessor count="840" source="#geometry0-normal-array" stride="3">
                            <param name="X" type="float"/>
                            <param name="Y" type="float"/>
                            <param name="Z" type="float"/>
                        </accessor>
                    </technique_common>
                </source>
                <vertices id="geometry0-vertex">
                    <input semantic="POSITION" source="#geometry0-position"/>
                </vertices>
                <triangles count="288" material="default_ai_0.2_sh_0.2_tr_0.0_dc_r_0.8_g_0.8_b_0.8_sc_r_1.0_g_1.0_b_1.0_ec_r_0.0_g_0.0_b_0_tri">
                    <input offset="0" semantic="VERTEX" source="#geometry0-vertex"/>
                    <input offset="1" semantic="NORMAL" source="#geometry0-normal"/>
                    <p>82 0 83 1 95 2 82 3 95 4 94 5 83 6 84 7 96 8 83 9 96 10 95 11 84 12 74 13 86 14 84 15 86 16 96 17 86 18 85 19 97 20 86 21 97 22 98 23 85 24 87 25 99 26 85 27 99 28 97 29 87 30 88 31 100 32 87 33 100 34 99 35 88 36 89 37 101 38 88 39 101 40 100 41 89 42 90 43 102 44 89 45 102 46 101 47 90 48 91 49 103 50 90 51 103 52 102 53 91 54 92 55 104 56 91 57 104 58 103 59 92 60 93 61 105 62 92 63 105 64 104 65 93 66 94 67 106 68 93 69 106 70 105 71 94 72 95 73 107 74 94 75 107 76 106 77 95 78 96 79 108 80 95 81 108 82 107 83 96 84 86 85 98 86 96 87 98 88 108 89 98 90 97 91 109 92 98 93 109 94 110 95 97 96 99 97 111 98 97 99 111 100 109 101 99 102 100 103 112 104 99 105 112 106 111 107 100 108 101 109 113 110 100 111 113 112 112 113 101 114 102 115 114 116 101 117 114 118 113 119 102 120 103 121 115 122 102 123 115 124 114 125 103 126 104 127 116 128 103 129 116 130 115 131 104 132 105 133 117 134 104 135 117 136 116 137 105 138 106 139 118 140 105 141 118 142 117 143 106 144 107 145 119 146 106 147 119 148 118 149 107 150 108 151 120 152 107 153 120 154 119 155 108 156 98 157 110 158 108 159 110 160 120 161 110 162 109 163 121 164 110 165 121 166 122 167 109 168 111 169 123 170 109 171 123 172 121 173 111 174 112 175 124 176 111 177 124 178 123 179 112 180 113 181 125 182 112 183 125 184 124 185 113 186 114 187 126 188 113 189 126 190 125 191 114 192 115 193 127 194 114 195 127 196 126 197 115 198 116 199 128 200 115 201 128 202 127 203 116 204 117 205 129 206 116 207 129 208 128 209 117 210 118 211 130 212 117 213 130 214 129 215 118 216 119 217 131 218 118 219 131 220 130 221 119 222 120 223 132 224 119 225 132 226 131 227 120 228 110 229 122 230 120 231 122 232 132 233 122 234 121 235 133 236 122 237 133 238 133 238 121 239 123 240 133 241 121 242 133 243 133 243 123 244 124 245 133 246 123 247 133 248 133 248 124 249 125 250 133 251 124 252 133 253 133 253 125 254 126 255 133 256 125 257 133 258 133 258 126 259 127 260 133 261 126 262 133 263 133 263 127 264 128 265 133 266 127 267 133 268 133 268 128 269 129 270 133 271 128 272 133 273 133 273 129 274 130 275 133 276 129 277 133 278 133 278 130 279 131 280 133 281 130 282 133 283 133 283 131 284 132 285 133 286 131 287 133 288 133 288 132 289 122 290 133 291 132 292 133 293 133 293 0 294 0 294 1 295 0 296 1 297 2 298 0 299 0 299 3 300 0 301 3 302 1 303 0 304 0 304 4 305 0 306 4 307 3 308 0 309 0 309 5 310 0 311 5 312 4 313 0 314 0 314 6 315 0 316 6 317 5 318 0 319 0 319 7 320 0 321 7 322 6 323 0 324 0 324 8 325 0 326 8 327 7 328 0 329 0 329 9 330 0 331 9 332 8 333 0 334 0 334 10 335 0 336 10 337 9 338 0 339 0 339 11 340 0 341 11 342 10 343 0 344 0 344 12 345 0 346 12 347 11 348 0 349 0 349 2 350 0 351 2 352 12 353 2 354 1 355 13 356 2 357 13 358 14 359 1 360 3 361 15 362 1 363 15 364 13 365 3 366 4 367 16 368 3 369 16 370 15 371 4 372 5 373 17 374 4 375 17 376 16 377 5 378 6 379 18 380 5 381 18 382 17 383 6 384 7 385 19 386 6 387 19 388 18 389 7 390 8 391 20 392 7 393 20 394 19 395 8 396 9 397 21 398 8 399 21 400 20 401 9 402 10 403 22 404 9 405 22 406 21 407 10 408 11 409 23 410 10 411 23 412 22 413 11 414 12 415 24 416 11 417 24 418 23 419 12 420 2 421 14 422 12 423 14 424 24 425 14 426 13 427 25 428 14 429 25 430 26 431 13 432 15 433 27 434 13 435 27 436 25 437 15 438 16 439 28 440 15 441 28 442 27 443 16 444 17 445 29 446 16 447 29 448 28 449 17 450 18 451 30 452 17 453 30 454 29 455 18 456 19 457 31 458 18 459 31 460 30 461 19 462 20 463 32 464 19 465 32 466 31 467 20 468 21 469 33 470 20 471 33 472 32 473 21 474 22 475 34 476 21 477 34 478 33 479 22 480 23 481 35 482 22 483 35 484 34 485 23 486 24 487 36 488 23 489 36 490 35 491 24 492 14 493 26 494 24 495 26 496 36 497 26 498 25 499 37 500 26 501 37 502 38 503 25 504 27 505 39 506 25 507 39 508 37 509 27 510 28 511 40 512 27 513 40 514 39 515 28 516 29 517 41 518 28 519 41 520 40 521 29 522 30 523 42 524 29 525 42 526 41 527 30 528 31 529 43 530 30 531 43 532 42 533 31 534 32 535 44 536 31 537 44 538 43 539 32 540 33 541 45 542 32 543 45 544 44 545 33 546 34 547 46 548 33 549 46 550 45 551 34 552 35 553 47 554 34 555 47 556 46 557 35 558 36 559 48 560 35 561 48 562 47 563 36 564 26 565 38 566 36 567 38 568 48 569 38 570 37 571 49 572 38 573 49 574 50 575 37 576 39 577 51 578 37 579 51 580 49 581 39 582 40 583 52 584 39 585 52 586 51 587 40 588 41 589 53 590 40 591 53 592 52 593 41 594 42 595 54 596 41 597 54 598 53 599 42 600 43 601 55 602 42 603 55 604 54 605 43 606 44 607 56 608 43 609 56 610 55 611 44 612 45 613 57 614 44 615 57 616 56 617 45 618 46 619 58 620 45 621 58 622 57 623 46 624 47 625 59 626 46 627 59 628 58 629 47 630 48 631 60 632 47 633 60 634 59 635 48 636 38 637 50 638 48 639 50 640 60 641 50 642 49 643 61 644 50 645 61 646 62 647 49 648 51 649 63 650 49 651 63 652 61 653 51 654 52 655 64 656 51 657 64 658 63 659 52 660 53 661 65 662 52 663 65 664 64 665 53 666 54 667 66 668 53 669 66 670 65 671 54 672 55 673 67 674 54 675 67 676 66 677 55 678 56 679 68 680 55 681 68 682 67 683 56 684 57 685 69 686 56 687 69 688 68 689 57 690 58 691 70 692 57 693 70 694 69 695 58 696 59 697 71 698 58 699 71 700 70 701 59 702 60 703 72 704 59 705 72 706 71 707 60 708 50 709 62 710 60 711 62 712 72 713 62 714 61 715 73 716 62 717 73 718 74 719 61 720 63 721 75 722 61 723 75 724 73 725 63 726 64 727 76 728 63 729 76 730 75 731 64 732 65 733 77 734 64 735 77 736 76 737 65 738 66 739 78 740 65 741 78 742 77 743 66 744 67 745 79 746 66 747 79 748 78 749 67 750 68 751 80 752 67 753 80 754 79 755 68 756 69 757 81 758 68 759 81 760 80 761 69 762 70 763 82 764 69 765 82 766 81 767 70 768 71 769 83 770 70 771 83 772 82 773 71 774 72 775 84 776 71 777 84 778 83 779 72 780 62 781 74 782 72 783 74 784 84 785 74 786 73 787 85 788 74 789 85 790 86 791 73 792 75 793 87 794 73 795 87 796 85 797 75 798 76 799 88 800 75 801 88 802 87 803 76 804 77 805 89 806 76 807 89 808 88 809 77 810 78 811 90 812 77 813 90 814 89 815 78 816 79 817 91 818 78 819 91 820 90 821 79 822 80 823 92 824 79 825 92 826 91 827 80 828 81 829 93 830 80 831 93 832 92 833 81 834 82 835 94 836 81 837 94 838 93 839</p>
                </triangles>
            </mesh>
        </geometry>
    </library_geometries>
    <library_visual_scenes>
        <visual_scene id="Building_220_CROWN2">
            <node>
                <instance_geometry url="#geometry0">
                    <bind_material>
                        <technique_common>
                            <instance_material symbol="default_ai_0.2_sh_0.2_tr_0.0_dc_r_0.8_g_0.8_b_0.8_sc_r_1.0_g_1.0_b_1.0_ec_r_0.0_g_0.0_b_0_tri" target="#default_ai_0.2_sh_0.2_tr_0.0_dc_r_0.8_g_0.8_b_0.8_sc_r_1.0_g_1.0_b_1.0_ec_r_0.0_g_0.0_b_0_mat"/>
                        </technique_common>
                    </bind_material>
                </instance_geometry>
            </node>
        </visual_scene>
    </library_visual_scenes>
    <scene>
        <instance_visual_scene url="#Building_220_CROWN2"/>
    </scene>
</COLLADA>
