<?xml version="1.0" encoding="UTF-8" standalone="yes"?>
<COLLADA xmlns="http://www.collada.org/2005/11/COLLADASchema" version="1.4.1">
    <asset>
        <contributor>
            <authoring_tool>3D City Database Importer/Exporter, version 5.5.3; Chair of Geoinformatics, Technical University of Munich</authoring_tool>
        </contributor>
        <created>2026-09-25T14:45:26.552</created>
        <modified>2026-09-25T14:45:26.552</modified>
        <unit meter="1.0" name="meters"/>
        <up_axis>Z_UP</up_axis>
    </asset>
    <library_materials>
        <material id="default_ai_0.2_sh_0.2_tr_0.0_dc_r_0.8_g_0.8_b_0.8_sc_r_1.0_g_1.0_b_1.0_ec_r_0.0_g_0.0_b_0_mat">
            <instance_effect url="#default_ai_0.2_sh_0.2_tr_0.0_dc_r_0.8_g_0.8_b_0.8_sc_r_1.0_g_1.0_b_1.0_ec_r_0.0_g_0.0_b_0_eff"/>
        </material>
    </library_materials>
    <library_effects>
        <effect id="default_ai_0.2_sh_0.2_tr_0.0_dc_r_0.8_g_0.8_b_0.8_sc_r_1.0_g_1.0_b_1.0_ec_r_0.0_g_0.0_b_0_eff">
            <profile_COMMON>
                <technique sid="COMMON">
                    <lambert>
                        <emission>
                            <color>0.0 0.0 0.0 1.0</color>
                        </emission>
                        <diffuse>
                            <color>0.8 0.8 0.8 1.0</color>
                        </diffuse>
                        <reflective>
                            <color>1.0 1.0 1.0 1.0</color>
                        </reflective>
                        <reflectivity>
                            <float>0.2</float>
                        </reflectivity>
                        <transparent opaque="A_ONE">
                            <color>1.0 1.0 1.0 1.0</color>
                        </transparent>
                        <transparency>
                            <float>1.0</float>
                        </transparency>
                    </lambert>
                </technique>
                <extra>
                    <technique profile="GOOGLEEARTH">
                        <double_sided>0</double_sided>
                    </technique>
                </extra>
            </profile_COMMON>
        </effect>
    </library_effects>
    <library_geometries>
        <geometry id="geometry0">
            <mesh>
                <source id="geometry0-position">
                    <float_array id="geometry0-position-array" count="78">0.0 0.0 0.0 -0.0095788 0.03575 0.0 -0.0095788 0.03575 0.88 0.0 0.0 0.88 -0.03575 0.0619212 0.0 -0.03575 0.0619212 0.88 -0.0715 0.0715 0.0 -0.0715 0.0715 0.88 -0.10725 0.0619212 0.0 -0.10725 0.0619212 0.88 -0.1334212 0.03575 0.0 -0.1334212 0.03575 0.88 -0.143 0.0 0.0 -0.143 0.0 0.88 -0.1334212 -0.03575 0.0 -0.1334212 -0.03575 0.88 -0.10725 -0.0619212 0.0 -0.10725 -0.0619212 0.88 -0.0715 -0.0715 0.0 -0.0715 -0.0715 0.88 -0.03575 -0.0619212 0.0 -0.03575 -0.0619212 0.88 -0.0095788 -0.03575 0.0 -0.0095788 -0.03575 0.88 -0.0715 0.0 0.0 -0.0715 0.0 0.88</float_array>
                    <technique_common>
                        <accessor count="26" source="#geometry0-position-array" stride="3">
                            <param name="X" type="float"/>
                            <param name="Y" type="float"/>
                            <param name="Z" type="float"/>
                        </accessor>
                    </technique_common>
                </source>
                <source id="geometry0-normal">
                    <float_array id="geometry0-normal-array" count="432">0.0 0.0 1.0 0.0 0.0 1.0 0.0 0.0 1.0 0.0 0.0 1.0 0.0 0.0 1.0 0.0 0.0 1.0 0.0 0.0 1.0 0.0 0.0 1.0 0.0 0.0 1.0 0.0 0.0 1.0 0.0 0.0 1.0 0.0 0.0 1.0 0.0 0.0 1.0 0.0 0.0 1.0 0.0 0.0 1.0 0.0 0.0 1.0 0.0 0.0 1.0 0.0 0.0 1.0 0.0 0.0 1.0 0.0 0.0 1.0 0.0 0.0 1.0 0.0 0.0 1.0 0.0 0.0 1.0 0.0 0.0 1.0 0.0 0.0 1.0 0.0 0.0 1.0 0.0 0.0 1.0 0.0 0.0 1.0 0.0 0.0 1.0 0.0 0.0 1.0 0.9659284 0.2588094 0.0 0.9659284 0.2588094 0.0 0.9659284 0.2588094 0.0 0.9659284 0.2588094 0.0 0.9659284 0.2588094 0.0 0.9659284 0.2588094 0.0 0.7071068 0.7071068 0.0 0.7071068 0.7071068 0.0 0.7071068 0.7071068 0.0 0.7071068 0.7071068 0.0 0.7071068 0.7071068 0.0 0.7071068 0.7071068 0.0 0.2588094 0.9659284 0.0 0.2588094 0.9659284 0.0 0.2588094 0.9659284 0.0 0.2588094 0.9659284 0.0 0.2588094 0.9659284 0.0 0.2588094 0.9659284 0.0 -0.2588094 0.9659284 0.0 -0.2588094 0.9659284 0.0 -0.2588094 0.9659284 0.0 -0.2588094 0.9659284 0.0 -0.2588094 0.9659284 0.0 -0.2588094 0.9659284 0.0 -0.7071068 0.7071068 0.0 -0.7071068 0.7071068 0.0 -0.7071068 0.7071068 0.0 -0.7071068 0.7071068 0.0 -0.7071068 0.7071068 0.0 -0.7071068 0.7071068 0.0 -0.9659284 0.2588096 0.0 -0.9659284 0.2588096 0.0 -0.9659284 0.2588096 0.0 -0.9659284 0.2588096 0.0 -0.9659284 0.2588096 0.0 -0.9659284 0.2588096 0.0 -0.9659284 -0.2588096 0.0 -0.9659284 -0.2588096 0.0 -0.9659284 -0.2588096 0.0 -0.9659284 -0.2588096 0.0 -0.9659284 -0.2588096 0.0 -0.9659284 -0.2588096 0.0 -0.7071068 -0.7071068 0.0 -0.7071068 -0.7071068 0.0 -0.7071068 -0.7071068 0.0 -0.7071068 -0.7071068 0.0 -0.7071068 -0.7071068 0.0 -0.7071068 -0.7071068 0.0 -0.2588094 -0.9659284 0.0 -0.2588094 -0.9659284 0.0 -0.2588094 -0.9659284 0.0 -0.2588094 -0.9659284 0.0 -0.2588094 -0.9659284 0.0 -0.2588094 -0.9659284 0.0 0.2588094 -0.9659284 0.0 0.2588094 -0.9659284 0.0 0.2588094 -0.9659284 0.0 0.2588094 -0.9659284 0.0 0.2588094 -0.9659284 0.0 0.2588094 -0.9659284 0.0 0.7071068 -0.7071068 0.0 0.7071068 -0.7071068 0.0 0.7071068 -0.7071068 0.0 0.7071068 -0.7071068 0.0 0.7071068 -0.7071068 0.0 0.7071068 -0.7071068 0.0 0.9659284 -0.2588094 0.0 0.9659284 -0.2588094 0.0 0.9659284 -0.2588094 0.0 0.9659284 -0.2588094 0.0 0.9659284 -0.2588094 0.0 0.9659284 -0.2588094 0.0 0.0 0.0 -1.0 0.0 0.0 -1.0 0.0 0.0 -1.0 0.0 0.0 -1.0 0.0 0.0 -1.0 0.0 0.0 -1.0 0.0 0.0 -1.0 0.0 0.0 -1.0 0.0 0.0 -1.0 0.0 0.0 -1.0 0.0 0.0 -1.0 0.0 0.0 -1.0 0.0 0.0 -1.0 0.0 0.0 -1.0 0.0 0.0 -1.0 0.0 0.0 -1.0 0.0 0.0 -1.0 0.0 0.0 -1.0 0.0 0.0 -1.0 0.0 0.0 -1.0 0.0 0.0 -1.0 0.0 0.0 -1.0 0.0 0.0 -1.0 0.0 0.0 -1.0 0.0 0.0 -1.0 0.0 0.0 -1.0 0.0 0.0 -1.0 0.0 0.0 -1.0 0.0 0.0 -1.0 0.0 0.0 -1.0 0.0 0.0 -1.0 0.0 0.0 -1.0 0.0 0.0 -1.0 0.0 0.0 -1.0 0.0 0.0 -1.0 0.0 0.0 -1.0 0.0 0.0 1.0 0.0 0.0 1.0 0.0 0.0 1.0 0.0 0.0 1.0 0.0 0.0 1.0 0.0 0.0 1.0</float_array>
                    <technique_common>
                        <accessor count="144" source="#geometry0-normal-array" stride="3">
                            <param name="X" type="float"/>
                            <param name="Y" type="float"/>
                            <param name="Z" type="float"/>
                        </accessor>
                    </technique_common>
                </source>
                <vertices id="geometry0-vertex">
                    <input semantic="POSITION" source="#geometry0-position"/>
                </vertices>
                <triangles count="48" material="default_ai_0.2_sh_0.2_tr_0.0_dc_r_0.8_g_0.8_b_0.8_sc_r_1.0_g_1.0_b_1.0_ec_r_0.0_g_0.0_b_0_tri">
                    <input offset="0" semantic="VERTEX" source="#geometry0-vertex"/>
                    <input offset="1" semantic="NORMAL" source="#geometry0-normal"/>
                    <p>25 0 5 1 7 2 25 3 7 4 9 5 25 6 9 7 11 8 25 9 11 10 13 11 25 12 13 13 15 14 25 15 15 16 17 17 25 18 17 19 19 20 25 21 19 22 21 23 25 24 21 25 23 26 25 27 23 28 3 29 0 30 1 31 2 32 0 33 2 34 3 35 1 36 4 37 5 38 1 39 5 40 2 41 4 42 6 43 7 44 4 45 7 46 5 47 6 48 8 49 9 50 6 51 9 52 7 53 8 54 10 55 11 56 8 57 11 58 9 59 10 60 12 61 13 62 10 63 13 64 11 65 12 66 14 67 15 68 12 69 15 70 13 71 14 72 16 73 17 74 14 75 17 76 15 77 16 78 18 79 19 80 16 81 19 82 17 83 18 84 20 85 21 86 18 87 21 88 19 89 20 90 22 91 23 92 20 93 23 94 21 95 22 96 0 97 3 98 22 99 3 100 23 101 24 102 1 103 0 104 24 105 4 106 1 107 24 108 6 109 4 110 24 111 8 112 6 113 24 114 10 115 8 116 24 117 12 118 10 119 24 120 14 121 12 122 24 123 16 124 14 125 24 126 18 127 16 128 24 129 20 130 18 131 24 132 22 133 20 134 24 135 0 136 22 137 25 138 3 139 2 140 25 141 2 142 5 143</p>
                </triangles>
            </mesh>
        </geometry>
    </library_geometries>
    <library_visual_scenes>
        <visual_scene id="Building_296_TRUNK2">
            <node>
                <instance_geometry url="#geometry0">
                    <bind_material>
                        <technique_common>
                            <instance_material symbol="default_ai_0.2_sh_0.2_tr_0.0_dc_r_0.8_g_0.8_b_0.8_sc_r_1.0_g_1.0_b_1.0_ec_r_0.0_g_0.0_b_0_tri" target="#default_ai_0.2_sh_0.2_tr_0.0_dc_r_0.8_g_0.8_b_0.8_sc_r_1.0_g_1.0_b_1.0_ec_r_0.0_g_0.0_b_0_mat"/>
                        </technique_common>
                    </bind_material>
                </instance_geometry>
            </node>
        </visual_scene>
    </library_visual_scenes>
    <scene>
        <instance_visual_scene url="#Building_296_TRUNK2"/>
    </scene>
</COLLADA>
