<?xml version="1.0" encoding="UTF-8" standalone="yes"?>
<COLLADA xmlns="http://www.collada.org/2005/11/COLLADASchema" version="1.4.1">
    <asset>
        <contributor>
            <authoring_tool>3D City Database Importer/Exporter, version 5.5.3; Chair of Geoinformatics, Technical University of Munich</authoring_tool>
        </contributor>
        <created>2026-09-25T14:45:22.418</created>
        <modified>2026-09-25T14:45:22.418</modified>
        <unit meter="1.0" name="meters"/>
        <up_axis>Z_UP</up_axis>
    </asset>
    <library_materials>
        <material id="default_ai_0.2_sh_0.2_tr_0.0_dc_r_0.8_g_0.8_b_0.8_sc_r_1.0_g_1.0_b_1.0_ec_r_0.0_g_0.0_b_0_mat">
            <instance_effect url="#default_ai_0.2_sh_0.2_tr_0.0_dc_r_0.8_g_0.8_b_0.8_sc_r_1.0_g_1.0_b_1.0_ec_r_0.0_g_0.0_b_0_eff"/>
        </material>
    </library_materials>
    <library_effects>
        <effect id="default_ai_0.2_sh_0.2_tr_0.0_dc_r_0.8_g_0.8_b_0.8_sc_r_1.0_g_1.0_b_1.0_ec_r_0.0_g_0.0_b_0_eff">
            <profile_COMMON>
                <technique sid="COMMON">
                    <lambert>
                        <emission>
                            <color>0.0 0.0 0.0 1.0</color>
                        </emission>
                        <diffuse>
                            <color>0.8 0.8 0.8 1.0</color>
                        </diffuse>
                        <reflective>
                            <color>1.0 1.0 1.0 1.0</color>
                        </reflective>
                        <reflectivity>
                            <float>0.2</float>
                        </reflectivity>
                        <transparent opaque="A_ONE">
                            <color>1.0 1.0 1.0 1.0</color>
                        </transparent>
                        <transparency>
                            <float>1.0</float>
                        </transparency>
                    </lambert>
                </technique>
                <extra>
                    <technique profile="GOOGLEEARTH">
                        <double_sided>0</double_sided>
                    </technique>
                </extra>
            </profile_COMMON>
        </effect>
    </library_effects>
    <library_geometries>
        <geometry id="geometry0">
            <mesh>
                <source id="geometry0-position">
                    <float_array id="geometry0-position-array" count="78">0.0 0.0 0.0 -0.026124 0.0975 0.0 -0.026124 0.0975 2.4 0.0 0.0 2.4 -0.0975 0.168876 0.0 -0.0975 0.168876 2.4 -0.195 0.195 0.0 -0.195 0.195 2.4 -0.2925 0.168876 0.0 -0.2925 0.168876 2.4 -0.363876 0.0975 0.0 -0.363876 0.0975 2.4 -0.39 0.0 0.0 -0.39 0.0 2.4 -0.363876 -0.0975 0.0 -0.363876 -0.0975 2.4 -0.2925 -0.168876 0.0 -0.2925 -0.168876 2.4 -0.195 -0.195 0.0 -0.195 -0.195 2.4 -0.0975 -0.168876 0.0 -0.0975 -0.168876 2.4 -0.026124 -0.0975 0.0 -0.026124 -0.0975 2.4 -0.195 0.0 0.0 -0.195 0.0 2.4</float_array>
                    <technique_common>
                        <accessor count="26" source="#geometry0-position-array" stride="3">
                            <param name="X" type="float"/>
                            <param name="Y" type="float"/>
                            <param name="Z" type="float"/>
                        </accessor>
                    </technique_common>
                </source>
                <source id="geometry0-normal">
                    <float_array id="geometry0-normal-array" count="432">0.0 0.0 1.0 0.0 0.0 1.0 0.0 0.0 1.0 0.0 0.0 1.0 0.0 0.0 1.0 0.0 0.0 1.0 0.0 0.0 1.0 0.0 0.0 1.0 0.0 0.0 1.0 0.0 0.0 1.0 0.0 0.0 1.0 0.0 0.0 1.0 0.0 0.0 1.0 0.0 0.0 1.0 0.0 0.0 1.0 0.0 0.0 1.0 0.0 0.0 1.0 0.0 0.0 1.0 0.9659285 0.2588094 0.0 0.9659285 0.2588094 0.0 0.9659285 0.2588094 0.0 0.9659285 0.2588094 0.0 0.9659285 0.2588094 0.0 0.9659285 0.2588094 0.0 0.7071068 0.7071068 0.0 0.7071068 0.7071068 0.0 0.7071068 0.7071068 0.0 0.7071068 0.7071068 0.0 0.7071068 0.7071068 0.0 0.7071068 0.7071068 0.0 0.2588094 0.9659285 0.0 0.2588094 0.9659285 0.0 0.2588094 0.9659285 0.0 0.2588094 0.9659285 0.0 0.2588094 0.9659285 0.0 0.2588094 0.9659285 0.0 -0.2588094 0.9659285 0.0 -0.2588094 0.9659285 0.0 -0.2588094 0.9659285 0.0 -0.2588094 0.9659285 0.0 -0.2588094 0.9659285 0.0 -0.2588094 0.9659285 0.0 -0.7071068 0.7071068 0.0 -0.7071068 0.7071068 0.0 -0.7071068 0.7071068 0.0 -0.7071068 0.7071068 0.0 -0.7071068 0.7071068 0.0 -0.7071068 0.7071068 0.0 -0.9659285 0.2588094 0.0 -0.9659285 0.2588094 0.0 -0.9659285 0.2588094 0.0 -0.9659285 0.2588094 0.0 -0.9659285 0.2588094 0.0 -0.9659285 0.2588094 0.0 -0.9659285 -0.2588094 0.0 -0.9659285 -0.2588094 0.0 -0.9659285 -0.2588094 0.0 -0.9659285 -0.2588094 0.0 -0.9659285 -0.2588094 0.0 -0.9659285 -0.2588094 0.0 -0.7071068 -0.7071068 0.0 -0.7071068 -0.7071068 0.0 -0.7071068 -0.7071068 0.0 -0.7071068 -0.7071068 0.0 -0.7071068 -0.7071068 0.0 -0.7071068 -0.7071068 0.0 -0.2588094 -0.9659285 0.0 -0.2588094 -0.9659285 0.0 -0.2588094 -0.9659285 0.0 -0.2588094 -0.9659285 0.0 -0.2588094 -0.9659285 0.0 -0.2588094 -0.9659285 0.0 0.2588094 -0.9659285 0.0 0.2588094 -0.9659285 0.0 0.2588094 -0.9659285 0.0 0.2588094 -0.9659285 0.0 0.2588094 -0.9659285 0.0 0.2588094 -0.9659285 0.0 0.7071068 -0.7071068 0.0 0.7071068 -0.7071068 0.0 0.7071068 -0.7071068 0.0 0.7071068 -0.7071068 0.0 0.7071068 -0.7071068 0.0 0.7071068 -0.7071068 0.0 0.9659285 -0.2588094 0.0 0.9659285 -0.2588094 0.0 0.9659285 -0.2588094 0.0 0.9659285 -0.2588094 0.0 0.9659285 -0.2588094 0.0 0.9659285 -0.2588094 0.0 0.0 0.0 -1.0 0.0 0.0 -1.0 0.0 0.0 -1.0 0.0 0.0 -1.0 0.0 0.0 -1.0 0.0 0.0 -1.0 0.0 0.0 -1.0 0.0 0.0 -1.0 0.0 0.0 -1.0 0.0 0.0 -1.0 0.0 0.0 -1.0 0.0 0.0 -1.0 0.0 0.0 -1.0 0.0 0.0 -1.0 0.0 0.0 -1.0 0.0 0.0 -1.0 0.0 0.0 -1.0 0.0 0.0 -1.0 0.0 0.0 -1.0 0.0 0.0 -1.0 0.0 0.0 -1.0 0.0 0.0 -1.0 0.0 0.0 -1.0 0.0 0.0 -1.0 0.0 0.0 -1.0 0.0 0.0 -1.0 0.0 0.0 -1.0 0.0 0.0 -1.0 0.0 0.0 -1.0 0.0 0.0 -1.0 0.0 0.0 -1.0 0.0 0.0 -1.0 0.0 0.0 -1.0 0.0 0.0 -1.0 0.0 0.0 -1.0 0.0 0.0 -1.0 0.0 0.0 1.0 0.0 0.0 1.0 0.0 0.0 1.0 0.0 0.0 1.0 0.0 0.0 1.0 0.0 0.0 1.0 0.0 0.0 1.0 0.0 0.0 1.0 0.0 0.0 1.0 0.0 0.0 1.0 0.0 0.0 1.0 0.0 0.0 1.0 0.0 0.0 1.0 0.0 0.0 1.0 0.0 0.0 1.0 0.0 0.0 1.0 0.0 0.0 1.0 0.0 0.0 1.0</float_array>
                    <technique_common>
                        <accessor count="144" source="#geometry0-normal-array" stride="3">
                            <param name="X" type="float"/>
                            <param name="Y" type="float"/>
                            <param name="Z" type="float"/>
                        </accessor>
                    </technique_common>
                </source>
                <vertices id="geometry0-vertex">
                    <input semantic="POSITION" source="#geometry0-position"/>
                </vertices>
                <triangles count="48" material="default_ai_0.2_sh_0.2_tr_0.0_dc_r_0.8_g_0.8_b_0.8_sc_r_1.0_g_1.0_b_1.0_ec_r_0.0_g_0.0_b_0_tri">
                    <input offset="0" semantic="VERTEX" source="#geometry0-vertex"/>
                    <input offset="1" semantic="NORMAL" source="#geometry0-normal"/>
                    <p>25 0 13 1 15 2 25 3 15 4 17 5 25 6 17 7 19 8 25 9 19 10 21 11 25 12 21 13 23 14 25 15 23 16 3 17 0 18 1 19 2 20 0 21 2 22 3 23 1 24 4 25 5 26 1 27 5 28 2 29 4 30 6 31 7 32 4 33 7 34 5 35 6 36 8 37 9 38 6 39 9 40 7 41 8 42 10 43 11 44 8 45 11 46 9 47 10 48 12 49 13 50 10 51 13 52 11 53 12 54 14 55 15 56 12 57 15 58 13 59 14 60 16 61 17 62 14 63 17 64 15 65 16 66 18 67 19 68 16 69 19 70 17 71 18 72 20 73 21 74 18 75 21 76 19 77 20 78 22 79 23 80 20 81 23 82 21 83 22 84 0 85 3 86 22 87 3 88 23 89 24 90 1 91 0 92 24 93 4 94 1 95 24 96 6 97 4 98 24 99 8 100 6 101 24 102 10 103 8 104 24 105 12 106 10 107 24 108 14 109 12 110 24 111 16 112 14 113 24 114 18 115 16 116 24 117 20 118 18 119 24 120 22 121 20 122 24 123 0 124 22 125 25 126 3 127 2 128 25 129 2 130 5 131 25 132 5 133 7 134 25 135 7 136 9 137 25 138 9 139 11 140 25 141 11 142 13 143</p>
                </triangles>
            </mesh>
        </geometry>
    </library_geometries>
    <library_visual_scenes>
        <visual_scene id="Building_120_TRUNK2">
            <node>
                <instance_geometry url="#geometry0">
                    <bind_material>
                        <technique_common>
                            <instance_material symbol="default_ai_0.2_sh_0.2_tr_0.0_dc_r_0.8_g_0.8_b_0.8_sc_r_1.0_g_1.0_b_1.0_ec_r_0.0_g_0.0_b_0_tri" target="#default_ai_0.2_sh_0.2_tr_0.0_dc_r_0.8_g_0.8_b_0.8_sc_r_1.0_g_1.0_b_1.0_ec_r_0.0_g_0.0_b_0_mat"/>
                        </technique_common>
                    </bind_material>
                </instance_geometry>
            </node>
        </visual_scene>
    </library_visual_scenes>
    <scene>
        <instance_visual_scene url="#Building_120_TRUNK2"/>
    </scene>
</COLLADA>
