<?xml version="1.0" encoding="UTF-8" standalone="yes"?>
<COLLADA xmlns="http://www.collada.org/2005/11/COLLADASchema" version="1.4.1">
    <asset>
        <contributor>
            <authoring_tool>3D City Database Importer/Exporter, version 5.5.3; Chair of Geoinformatics, Technical University of Munich</authoring_tool>
        </contributor>
        <created>2026-09-25T14:45:31.615</created>
        <modified>2026-09-25T14:45:31.615</modified>
        <unit meter="1.0" name="meters"/>
        <up_axis>Z_UP</up_axis>
    </asset>
    <library_materials>
        <material id="default_ai_0.2_sh_0.2_tr_0.0_dc_r_0.8_g_0.8_b_0.8_sc_r_1.0_g_1.0_b_1.0_ec_r_0.0_g_0.0_b_0_mat">
            <instance_effect url="#default_ai_0.2_sh_0.2_tr_0.0_dc_r_0.8_g_0.8_b_0.8_sc_r_1.0_g_1.0_b_1.0_ec_r_0.0_g_0.0_b_0_eff"/>
        </material>
    </library_materials>
    <library_effects>
        <effect id="default_ai_0.2_sh_0.2_tr_0.0_dc_r_0.8_g_0.8_b_0.8_sc_r_1.0_g_1.0_b_1.0_ec_r_0.0_g_0.0_b_0_eff">
            <profile_COMMON>
                <technique sid="COMMON">
                    <lambert>
                        <emission>
                            <color>0.0 0.0 0.0 1.0</color>
                        </emission>
                        <diffuse>
                            <color>0.8 0.8 0.8 1.0</color>
                        </diffuse>
                        <reflective>
                            <color>1.0 1.0 1.0 1.0</color>
                        </reflective>
                        <reflectivity>
                            <float>0.2</float>
                        </reflectivity>
                        <transparent opaque="A_ONE">
                            <color>1.0 1.0 1.0 1.0</color>
                        </transparent>
                        <transparency>
                            <float>1.0</float>
                        </transparency>
                    </lambert>
                </technique>
                <extra>
                    <technique profile="GOOGLEEARTH">
                        <double_sided>0</double_sided>
                    </technique>
                </extra>
            </profile_COMMON>
        </effect>
    </library_effects>
    <library_geometries>
        <geometry id="geometry0">
            <mesh>
                <source id="geometry0-position">
                    <float_array id="geometry0-position-array" count="402">0.0 0.0 2.4 0.2689728 0.155292 2.3591112 0.3105828 0.0 2.3591112 0.155292 0.2689728 2.3591112 0.0 0.3105828 2.3591112 -0.155292 0.2689728 2.3591112 -0.2689728 0.155292 2.3591112 -0.3105828 0.0 2.3591112 -0.2689728 -0.155292 2.3591112 -0.155292 -0.2689728 2.3591112 0.0 -0.3105828 2.3591112 0.155292 -0.2689728 2.3591112 0.2689728 -0.155292 2.3591112 0.5196156 0.3 2.23923 0.6 0.0 2.23923 0.3 0.5196156 2.23923 0.0 0.6 2.23923 -0.3 0.5196156 2.23923 -0.5196156 0.3 2.23923 -0.6 0.0 2.23923 -0.5196156 -0.3 2.23923 -0.3 -0.5196156 2.23923 0.0 -0.6 2.23923 0.3 -0.5196156 2.23923 0.5196156 -0.3 2.23923 0.7348464 0.4242636 2.0485272 0.8485284 0.0 2.0485272 0.4242636 0.7348464 2.0485272 0.0 0.8485284 2.0485272 -0.4242636 0.7348464 2.0485272 -0.7348464 0.4242636 2.0485272 -0.8485284 0.0 2.0485272 -0.7348464 -0.4242636 2.0485272 -0.4242636 -0.7348464 2.0485272 0.0 -0.8485284 2.0485272 0.4242636 -0.7348464 2.0485272 0.7348464 -0.4242636 2.0485272 0.9 0.5196156 1.8 1.03923 0.0 1.8 0.5196156 0.9 1.8 0.0 1.03923 1.8 -0.5196156 0.9 1.8 -0.9 0.5196156 1.8 -1.03923 0.0 1.8 -0.9 -0.5196156 1.8 -0.5196156 -0.9 1.8 0.0 -1.03923 1.8 0.5196156 -0.9 1.8 0.9 -0.5196156 1.8 1.0038192 0.5795556 1.5105828 1.1591112 0.0 1.5105828 0.5795556 1.0038192 1.5105828 0.0 1.1591112 1.5105828 -0.5795556 1.0038192 1.5105828 -1.0038192 0.5795556 1.5105828 -1.1591112 0.0 1.5105828 -1.0038192 -0.5795556 1.5105828 -0.5795556 -1.0038192 1.5105828 0.0 -1.1591112 1.5105828 0.5795556 -1.0038192 1.5105828 1.0038192 -0.5795556 1.5105828 1.03923 0.6 1.2 1.2 0.0 1.2 0.6 1.03923 1.2 0.0 1.2 1.2 -0.6 1.03923 1.2 -1.03923 0.6 1.2 -1.2 0.0 1.2 -1.03923 -0.6 1.2 -0.6 -1.03923 1.2 0.0 -1.2 1.2 0.6 -1.03923 1.2 1.03923 -0.6 1.2 1.0038192 0.5795556 0.8894172 1.1591112 0.0 0.8894172 0.5795556 1.0038192 0.8894172 0.0 1.1591112 0.8894172 -0.5795556 1.0038192 0.8894172 -1.0038192 0.5795556 0.8894172 -1.1591112 0.0 0.8894172 -1.0038192 -0.5795556 0.8894172 -0.5795556 -1.0038192 0.8894172 0.0 -1.1591112 0.8894172 0.5795556 -1.0038192 0.8894172 1.0038192 -0.5795556 0.8894172 0.9 0.5196156 0.6 1.03923 0.0 0.6 0.5196156 0.9 0.6 0.0 1.03923 0.6 -0.5196156 0.9 0.6 -0.9 0.5196156 0.6 -1.03923 0.0 0.6 -0.9 -0.5196156 0.6 -0.5196156 -0.9 0.6 0.0 -1.03923 0.6 0.5196156 -0.9 0.6 0.9 -0.5196156 0.6 0.7348464 0.4242636 0.3514716 0.8485284 0.0 0.3514716 0.4242636 0.7348464 0.3514716 0.0 0.8485284 0.3514716 -0.4242636 0.7348464 0.3514716 -0.7348464 0.4242636 0.3514716 -0.8485284 0.0 0.3514716 -0.7348464 -0.4242636 0.3514716 -0.4242636 -0.7348464 0.3514716 0.0 -0.8485284 0.3514716 0.4242636 -0.7348464 0.3514716 0.7348464 -0.4242636 0.3514716 0.5196156 0.3 0.1607688 0.6 0.0 0.1607688 0.3 0.5196156 0.1607688 0.0 0.6 0.1607688 -0.3 0.5196156 0.1607688 -0.5196156 0.3 0.1607688 -0.6 0.0 0.1607688 -0.5196156 -0.3 0.1607688 -0.3 -0.5196156 0.1607688 0.0 -0.6 0.1607688 0.3 -0.5196156 0.1607688 0.5196156 -0.3 0.1607688 0.2689728 0.155292 0.0408888 0.3105828 0.0 0.0408888 0.155292 0.2689728 0.0408888 0.0 0.3105828 0.0408888 -0.155292 0.2689728 0.0408888 -0.2689728 0.155292 0.0408888 -0.3105828 0.0 0.0408888 -0.2689728 -0.155292 0.0408888 -0.155292 -0.2689728 0.0408888 0.0 -0.3105828 0.0408888 0.155292 -0.2689728 0.0408888 0.2689728 -0.155292 0.0408888 0.0 0.0 0.0</float_array>
                    <technique_common>
                        <accessor count="134" source="#geometry0-position-array" stride="3">
                            <param name="X" type="float"/>
                            <param name="Y" type="float"/>
                            <param name="Z" type="float"/>
                        </accessor>
                    </technique_common>
                </source>
                <source id="geometry0-normal">
                    <float_array id="geometry0-normal-array" count="2520">0.2567521 -0.958209 -0.1261502 0.2567521 -0.958209 -0.1261502 0.2567521 -0.958209 -0.1261502 0.2567522 -0.958209 -0.1261503 0.2567522 -0.958209 -0.1261503 0.2567522 -0.958209 -0.1261503 0.7014578 -0.7014578 -0.1261502 0.7014578 -0.7014578 -0.1261502 0.7014578 -0.7014578 -0.1261502 0.7014578 -0.7014578 -0.1261502 0.7014578 -0.7014578 -0.1261502 0.7014578 -0.7014578 -0.1261502 0.958209 -0.2567521 -0.1261503 0.958209 -0.2567521 -0.1261503 0.958209 -0.2567521 -0.1261503 0.958209 -0.2567522 -0.1261502 0.958209 -0.2567522 -0.1261502 0.958209 -0.2567522 -0.1261502 0.958209 0.2567521 -0.1261502 0.958209 0.2567521 -0.1261502 0.958209 0.2567521 -0.1261502 0.958209 0.2567522 -0.1261503 0.958209 0.2567522 -0.1261503 0.958209 0.2567522 -0.1261503 0.7014578 0.7014578 -0.1261502 0.7014578 0.7014578 -0.1261502 0.7014578 0.7014578 -0.1261502 0.7014578 0.7014578 -0.1261502 0.7014578 0.7014578 -0.1261502 0.7014578 0.7014578 -0.1261502 0.2567521 0.958209 -0.1261503 0.2567521 0.958209 -0.1261503 0.2567521 0.958209 -0.1261503 0.2567522 0.958209 -0.1261502 0.2567522 0.958209 -0.1261502 0.2567522 0.958209 -0.1261502 -0.2567521 0.958209 -0.1261502 -0.2567521 0.958209 -0.1261502 -0.2567521 0.958209 -0.1261502 -0.2567522 0.958209 -0.1261503 -0.2567522 0.958209 -0.1261503 -0.2567522 0.958209 -0.1261503 -0.7014578 0.7014578 -0.1261502 -0.7014578 0.7014578 -0.1261502 -0.7014578 0.7014578 -0.1261502 -0.7014578 0.7014578 -0.1261502 -0.7014578 0.7014578 -0.1261502 -0.7014578 0.7014578 -0.1261502 -0.958209 0.2567521 -0.1261503 -0.958209 0.2567521 -0.1261503 -0.958209 0.2567521 -0.1261503 -0.958209 0.2567522 -0.1261502 -0.958209 0.2567522 -0.1261502 -0.958209 0.2567522 -0.1261502 -0.958209 -0.2567522 0.1261501 -0.958209 -0.2567522 0.1261501 -0.958209 -0.2567522 0.1261501 -0.958209 -0.2567521 0.1261503 -0.958209 -0.2567521 0.1261503 -0.958209 -0.2567521 0.1261503 -0.7014578 -0.7014578 0.1261501 -0.7014578 -0.7014578 0.1261501 -0.7014578 -0.7014578 0.1261501 -0.7014578 -0.7014578 0.1261501 -0.7014578 -0.7014578 0.1261501 -0.7014578 -0.7014578 0.1261501 -0.2567522 -0.958209 0.1261503 -0.2567522 -0.958209 0.1261503 -0.2567522 -0.958209 0.1261503 -0.2567521 -0.958209 0.1261501 -0.2567521 -0.958209 0.1261501 -0.2567521 -0.958209 0.1261501 0.2567522 -0.958209 0.1261501 0.2567522 -0.958209 0.1261501 0.2567522 -0.958209 0.1261501 0.2567521 -0.958209 0.1261503 0.2567521 -0.958209 0.1261503 0.2567521 -0.958209 0.1261503 0.7014578 -0.7014578 0.1261501 0.7014578 -0.7014578 0.1261501 0.7014578 -0.7014578 0.1261501 0.7014578 -0.7014578 0.1261501 0.7014578 -0.7014578 0.1261501 0.7014578 -0.7014578 0.1261501 0.958209 -0.2567522 0.1261503 0.958209 -0.2567522 0.1261503 0.958209 -0.2567522 0.1261503 0.958209 -0.2567521 0.1261501 0.958209 -0.2567521 0.1261501 0.958209 -0.2567521 0.1261501 0.958209 0.2567522 0.1261501 0.958209 0.2567522 0.1261501 0.958209 0.2567522 0.1261501 0.958209 0.2567521 0.1261503 0.958209 0.2567521 0.1261503 0.958209 0.2567521 0.1261503 0.7014578 0.7014578 0.1261501 0.7014578 0.7014578 0.1261501 0.7014578 0.7014578 0.1261501 0.7014578 0.7014578 0.1261501 0.7014578 0.7014578 0.1261501 0.7014578 0.7014578 0.1261501 0.2567522 0.958209 0.1261503 0.2567522 0.958209 0.1261503 0.2567522 0.958209 0.1261503 0.2567521 0.958209 0.1261501 0.2567521 0.958209 0.1261501 0.2567521 0.958209 0.1261501 -0.2567522 0.958209 0.1261501 -0.2567522 0.958209 0.1261501 -0.2567522 0.958209 0.1261501 -0.2567521 0.958209 0.1261503 -0.2567521 0.958209 0.1261503 -0.2567521 0.958209 0.1261503 -0.7014578 0.7014578 0.1261501 -0.7014578 0.7014578 0.1261501 -0.7014578 0.7014578 0.1261501 -0.7014578 0.7014578 0.1261501 -0.7014578 0.7014578 0.1261501 -0.7014578 0.7014578 0.1261501 -0.958209 0.2567522 0.1261503 -0.958209 0.2567522 0.1261503 -0.958209 0.2567522 0.1261503 -0.958209 0.2567521 0.1261501 -0.958209 0.2567521 0.1261501 -0.958209 0.2567521 0.1261501 -0.896809 -0.2403 0.3714694 -0.896809 -0.2403 0.3714694 -0.896809 -0.2403 0.3714694 -0.8968083 -0.2402981 0.3714722 -0.8968083 -0.2402981 0.3714722 -0.8968083 -0.2402981 0.3714722 -0.6565099 -0.6565099 0.3714692 -0.6565099 -0.6565099 0.3714692 -0.6565099 -0.6565099 0.3714692 -0.6565099 -0.6565099 0.3714692 -0.6565099 -0.6565099 0.3714692 -0.6565099 -0.6565099 0.3714692 -0.2402997 -0.896808 0.371472 -0.2402997 -0.896808 0.371472 -0.2402997 -0.896808 0.371472 -0.2402984 -0.8968095 0.3714693 -0.2402984 -0.8968095 0.3714693 -0.2402984 -0.8968095 0.3714693 0.2403 -0.896809 0.3714694 0.2403 -0.896809 0.3714694 0.2403 -0.896809 0.3714694 0.2402981 -0.8968083 0.3714722 0.2402981 -0.8968083 0.3714722 0.2402981 -0.8968083 0.3714722 0.6565099 -0.6565099 0.3714692 0.6565099 -0.6565099 0.3714692 0.6565099 -0.6565099 0.3714692 0.6565099 -0.6565099 0.3714692 0.6565099 -0.6565099 0.3714692 0.6565099 -0.6565099 0.3714692 0.896808 -0.2402997 0.371472 0.896808 -0.2402997 0.371472 0.896808 -0.2402997 0.371472 0.8968095 -0.2402984 0.3714693 0.8968095 -0.2402984 0.3714693 0.8968095 -0.2402984 0.3714693 0.896809 0.2403 0.3714694 0.896809 0.2403 0.3714694 0.896809 0.2403 0.3714694 0.8968083 0.2402981 0.3714722 0.8968083 0.2402981 0.3714722 0.8968083 0.2402981 0.3714722 0.6565099 0.6565099 0.3714692 0.6565099 0.6565099 0.3714692 0.6565099 0.6565099 0.3714692 0.6565099 0.6565099 0.3714692 0.6565099 0.6565099 0.3714692 0.6565099 0.6565099 0.3714692 0.2402997 0.896808 0.371472 0.2402997 0.896808 0.371472 0.2402997 0.896808 0.371472 0.2402984 0.8968095 0.3714693 0.2402984 0.8968095 0.3714693 0.2402984 0.8968095 0.3714693 -0.2403 0.896809 0.3714694 -0.2403 0.896809 0.3714694 -0.2403 0.896809 0.3714694 -0.2402981 0.8968083 0.3714722 -0.2402981 0.8968083 0.3714722 -0.2402981 0.8968083 0.3714722 -0.6565099 0.6565099 0.3714692 -0.6565099 0.6565099 0.3714692 -0.6565099 0.6565099 0.3714692 -0.6565099 0.6565099 0.3714692 -0.6565099 0.6565099 0.3714692 -0.6565099 0.6565099 0.3714692 -0.896808 0.2402997 0.371472 -0.896808 0.2402997 0.371472 -0.896808 0.2402997 0.371472 -0.8968095 0.2402984 0.3714693 -0.8968095 0.2402984 0.3714693 -0.8968095 0.2402984 0.3714693 -0.7760128 -0.2079312 0.5954568 -0.7760128 -0.2079312 0.5954568 -0.7760128 -0.2079312 0.5954568 -0.7760144 -0.207934 0.5954537 -0.7760144 -0.207934 0.5954537 -0.7760144 -0.207934 0.5954537 -0.5680803 -0.5680803 0.5954573 -0.5680803 -0.5680803 0.5954573 -0.5680803 -0.5680803 0.5954573 -0.5680803 -0.5680803 0.5954574 -0.5680803 -0.5680803 0.5954574 -0.5680803 -0.5680803 0.5954574 -0.2079317 -0.7760147 0.595454 -0.2079317 -0.7760147 0.595454 -0.2079317 -0.7760147 0.595454 -0.2079334 -0.7760119 0.5954571 -0.2079334 -0.7760119 0.5954571 -0.2079334 -0.7760119 0.5954571 0.2079312 -0.7760128 0.5954568 0.2079312 -0.7760128 0.5954568 0.2079312 -0.7760128 0.5954568 0.207934 -0.7760144 0.5954537 0.207934 -0.7760144 0.5954537 0.207934 -0.7760144 0.5954537 0.5680803 -0.5680803 0.5954573 0.5680803 -0.5680803 0.5954573 0.5680803 -0.5680803 0.5954573 0.5680803 -0.5680803 0.5954574 0.5680803 -0.5680803 0.5954574 0.5680803 -0.5680803 0.5954574 0.7760147 -0.2079317 0.595454 0.7760147 -0.2079317 0.595454 0.7760147 -0.2079317 0.595454 0.7760119 -0.2079334 0.5954571 0.7760119 -0.2079334 0.5954571 0.7760119 -0.2079334 0.5954571 0.7760128 0.2079312 0.5954568 0.7760128 0.2079312 0.5954568 0.7760128 0.2079312 0.5954568 0.7760144 0.207934 0.5954537 0.7760144 0.207934 0.5954537 0.7760144 0.207934 0.5954537 0.5680803 0.5680803 0.5954573 0.5680803 0.5680803 0.5954573 0.5680803 0.5680803 0.5954573 0.5680803 0.5680803 0.5954574 0.5680803 0.5680803 0.5954574 0.5680803 0.5680803 0.5954574 0.2079317 0.7760147 0.595454 0.2079317 0.7760147 0.595454 0.2079317 0.7760147 0.595454 0.2079334 0.7760119 0.5954571 0.2079334 0.7760119 0.5954571 0.2079334 0.7760119 0.5954571 -0.2079312 0.7760128 0.5954568 -0.2079312 0.7760128 0.5954568 -0.2079312 0.7760128 0.5954568 -0.207934 0.7760144 0.5954537 -0.207934 0.7760144 0.5954537 -0.207934 0.7760144 0.5954537 -0.5680803 0.5680803 0.5954573 -0.5680803 0.5680803 0.5954573 -0.5680803 0.5680803 0.5954573 -0.5680803 0.5680803 0.5954574 -0.5680803 0.5680803 0.5954574 -0.5680803 0.5680803 0.5954574 -0.7760147 0.2079317 0.595454 -0.7760147 0.2079317 0.595454 -0.7760147 0.2079317 0.595454 -0.7760119 0.2079334 0.5954571 -0.7760119 0.2079334 0.5954571 -0.7760119 0.2079334 0.5954571 -0.6008226 -0.1609912 0.7830032 -0.6008226 -0.1609912 0.7830032 -0.6008226 -0.1609912 0.7830032 -0.6008214 -0.160989 0.7830046 -0.6008214 -0.160989 0.7830046 -0.6008214 -0.160989 0.7830046 -0.4398331 -0.4398331 0.783003 -0.4398331 -0.4398331 0.783003 -0.4398331 -0.4398331 0.783003 -0.439833 -0.439833 0.7830031 -0.439833 -0.439833 0.7830031 -0.439833 -0.439833 0.7830031 -0.1609908 -0.6008213 0.7830043 -0.1609908 -0.6008213 0.7830043 -0.1609908 -0.6008213 0.7830043 -0.1609895 -0.6008234 0.7830029 -0.1609895 -0.6008234 0.7830029 -0.1609895 -0.6008234 0.7830029 0.1609912 -0.6008226 0.7830032 0.1609912 -0.6008226 0.7830032 0.1609912 -0.6008226 0.7830032 0.160989 -0.6008214 0.7830046 0.160989 -0.6008214 0.7830046 0.160989 -0.6008214 0.7830046 0.4398331 -0.4398331 0.783003 0.4398331 -0.4398331 0.783003 0.4398331 -0.4398331 0.783003 0.439833 -0.439833 0.7830031 0.439833 -0.439833 0.7830031 0.439833 -0.439833 0.7830031 0.6008213 -0.1609908 0.7830043 0.6008213 -0.1609908 0.7830043 0.6008213 -0.1609908 0.7830043 0.6008234 -0.1609895 0.7830029 0.6008234 -0.1609895 0.7830029 0.6008234 -0.1609895 0.7830029 0.6008226 0.1609912 0.7830032 0.6008226 0.1609912 0.7830032 0.6008226 0.1609912 0.7830032 0.6008214 0.160989 0.7830046 0.6008214 0.160989 0.7830046 0.6008214 0.160989 0.7830046 0.4398331 0.4398331 0.783003 0.4398331 0.4398331 0.783003 0.4398331 0.4398331 0.783003 0.439833 0.439833 0.7830031 0.439833 0.439833 0.7830031 0.439833 0.439833 0.7830031 0.1609908 0.6008213 0.7830043 0.1609908 0.6008213 0.7830043 0.1609908 0.6008213 0.7830043 0.1609895 0.6008234 0.7830029 0.1609895 0.6008234 0.7830029 0.1609895 0.6008234 0.7830029 -0.1609912 0.6008226 0.7830032 -0.1609912 0.6008226 0.7830032 -0.1609912 0.6008226 0.7830032 -0.160989 0.6008214 0.7830046 -0.160989 0.6008214 0.7830046 -0.160989 0.6008214 0.7830046 -0.4398331 0.4398331 0.783003 -0.4398331 0.4398331 0.783003 -0.4398331 0.4398331 0.783003 -0.439833 0.439833 0.7830031 -0.439833 0.439833 0.7830031 -0.439833 0.439833 0.7830031 -0.6008213 0.1609908 0.7830043 -0.6008213 0.1609908 0.7830043 -0.6008213 0.1609908 0.7830043 -0.6008234 0.1609895 0.7830029 -0.6008234 0.1609895 0.7830029 -0.6008234 0.1609895 0.7830029 -0.3806861 -0.1020041 0.919061 -0.3806861 -0.1020041 0.919061 -0.3806861 -0.1020041 0.919061 -0.3806859 -0.1020035 0.9190612 -0.3806859 -0.1020035 0.9190612 -0.3806859 -0.1020035 0.9190612 -0.2786817 -0.2786817 0.9190609 -0.2786817 -0.2786817 0.9190609 -0.2786817 -0.2786817 0.9190609 -0.2786817 -0.2786817 0.9190609 -0.2786817 -0.2786817 0.9190609 -0.2786817 -0.2786817 0.9190609 -0.1020041 -0.380686 0.9190612 -0.1020041 -0.380686 0.9190612 -0.1020041 -0.380686 0.9190612 -0.1020036 -0.3806864 0.919061 -0.1020036 -0.3806864 0.919061 -0.1020036 -0.3806864 0.919061 0.1020041 -0.3806861 0.919061 0.1020041 -0.3806861 0.919061 0.1020041 -0.3806861 0.919061 0.1020035 -0.3806859 0.9190612 0.1020035 -0.3806859 0.9190612 0.1020035 -0.3806859 0.9190612 0.2786817 -0.2786817 0.9190609 0.2786817 -0.2786817 0.9190609 0.2786817 -0.2786817 0.9190609 0.2786817 -0.2786817 0.9190609 0.2786817 -0.2786817 0.9190609 0.2786817 -0.2786817 0.9190609 0.380686 -0.1020041 0.9190612 0.380686 -0.1020041 0.9190612 0.380686 -0.1020041 0.9190612 0.3806864 -0.1020036 0.919061 0.3806864 -0.1020036 0.919061 0.3806864 -0.1020036 0.919061 0.3806861 0.1020041 0.919061 0.3806861 0.1020041 0.919061 0.3806861 0.1020041 0.919061 0.3806859 0.1020035 0.9190612 0.3806859 0.1020035 0.9190612 0.3806859 0.1020035 0.9190612 0.2786817 0.2786817 0.9190609 0.2786817 0.2786817 0.9190609 0.2786817 0.2786817 0.9190609 0.2786817 0.2786817 0.9190609 0.2786817 0.2786817 0.9190609 0.2786817 0.2786817 0.9190609 0.1020041 0.380686 0.9190612 0.1020041 0.380686 0.9190612 0.1020041 0.380686 0.9190612 0.1020036 0.3806864 0.919061 0.1020036 0.3806864 0.919061 0.1020036 0.3806864 0.919061 -0.1020041 0.3806861 0.919061 -0.1020041 0.3806861 0.919061 -0.1020041 0.3806861 0.919061 -0.1020035 0.3806859 0.9190612 -0.1020035 0.3806859 0.9190612 -0.1020035 0.3806859 0.9190612 -0.2786817 0.2786817 0.9190609 -0.2786817 0.2786817 0.9190609 -0.2786817 0.2786817 0.9190609 -0.2786817 0.2786817 0.9190609 -0.2786817 0.2786817 0.9190609 -0.2786817 0.2786817 0.9190609 -0.380686 0.1020041 0.9190612 -0.380686 0.1020041 0.9190612 -0.380686 0.1020041 0.9190612 -0.3806864 0.1020036 0.919061 -0.3806864 0.1020036 0.919061 -0.3806864 0.1020036 0.919061 -0.1304458 -0.0349525 0.9908391 -0.1304458 -0.0349525 0.9908391 -0.1304458 -0.0349525 0.9908391 1.0 0.0 0.0 1.0 0.0 0.0 -0.0954928 -0.0954928 0.9908392 -0.0954928 -0.0954928 0.9908392 -0.0954928 -0.0954928 0.9908392 1.0 0.0 0.0 1.0 0.0 0.0 -0.0349525 -0.1304458 0.9908391 -0.0349525 -0.1304458 0.9908391 -0.0349525 -0.1304458 0.9908391 1.0 0.0 0.0 1.0 0.0 0.0 0.0349525 -0.1304458 0.9908391 0.0349525 -0.1304458 0.9908391 0.0349525 -0.1304458 0.9908391 1.0 0.0 0.0 1.0 0.0 0.0 0.0954928 -0.0954928 0.9908392 0.0954928 -0.0954928 0.9908392 0.0954928 -0.0954928 0.9908392 1.0 0.0 0.0 1.0 0.0 0.0 0.1304458 -0.0349525 0.9908391 0.1304458 -0.0349525 0.9908391 0.1304458 -0.0349525 0.9908391 1.0 0.0 0.0 1.0 0.0 0.0 0.1304458 0.0349525 0.9908391 0.1304458 0.0349525 0.9908391 0.1304458 0.0349525 0.9908391 1.0 0.0 0.0 1.0 0.0 0.0 0.0954928 0.0954928 0.9908392 0.0954928 0.0954928 0.9908392 0.0954928 0.0954928 0.9908392 1.0 0.0 0.0 1.0 0.0 0.0 0.0349525 0.1304458 0.9908391 0.0349525 0.1304458 0.9908391 0.0349525 0.1304458 0.9908391 1.0 0.0 0.0 1.0 0.0 0.0 -0.0349525 0.1304458 0.9908391 -0.0349525 0.1304458 0.9908391 -0.0349525 0.1304458 0.9908391 1.0 0.0 0.0 1.0 0.0 0.0 -0.0954928 0.0954928 0.9908392 -0.0954928 0.0954928 0.9908392 -0.0954928 0.0954928 0.9908392 1.0 0.0 0.0 1.0 0.0 0.0 -0.1304458 0.0349525 0.9908391 -0.1304458 0.0349525 0.9908391 -0.1304458 0.0349525 0.9908391 1.0 0.0 0.0 1.0 0.0 0.0 1.0 0.0 0.0 1.0 0.0 0.0 -0.1304458 -0.0349525 -0.9908391 -0.1304458 -0.0349525 -0.9908391 -0.1304458 -0.0349525 -0.9908391 1.0 0.0 0.0 1.0 0.0 0.0 -0.0954928 -0.0954928 -0.9908392 -0.0954928 -0.0954928 -0.9908392 -0.0954928 -0.0954928 -0.9908392 1.0 0.0 0.0 1.0 0.0 0.0 -0.0349525 -0.1304458 -0.9908391 -0.0349525 -0.1304458 -0.9908391 -0.0349525 -0.1304458 -0.9908391 1.0 0.0 0.0 1.0 0.0 0.0 0.0349525 -0.1304458 -0.9908391 0.0349525 -0.1304458 -0.9908391 0.0349525 -0.1304458 -0.9908391 1.0 0.0 0.0 1.0 0.0 0.0 0.0954928 -0.0954928 -0.9908392 0.0954928 -0.0954928 -0.9908392 0.0954928 -0.0954928 -0.9908392 1.0 0.0 0.0 1.0 0.0 0.0 0.1304458 -0.0349525 -0.9908391 0.1304458 -0.0349525 -0.9908391 0.1304458 -0.0349525 -0.9908391 1.0 0.0 0.0 1.0 0.0 0.0 0.1304458 0.0349525 -0.9908391 0.1304458 0.0349525 -0.9908391 0.1304458 0.0349525 -0.9908391 1.0 0.0 0.0 1.0 0.0 0.0 0.0954928 0.0954928 -0.9908392 0.0954928 0.0954928 -0.9908392 0.0954928 0.0954928 -0.9908392 1.0 0.0 0.0 1.0 0.0 0.0 0.0349525 0.1304458 -0.9908391 0.0349525 0.1304458 -0.9908391 0.0349525 0.1304458 -0.9908391 1.0 0.0 0.0 1.0 0.0 0.0 -0.0349525 0.1304458 -0.9908391 -0.0349525 0.1304458 -0.9908391 -0.0349525 0.1304458 -0.9908391 1.0 0.0 0.0 1.0 0.0 0.0 -0.0954928 0.0954928 -0.9908392 -0.0954928 0.0954928 -0.9908392 -0.0954928 0.0954928 -0.9908392 1.0 0.0 0.0 1.0 0.0 0.0 -0.1304458 0.0349525 -0.9908391 -0.1304458 0.0349525 -0.9908391 -0.1304458 0.0349525 -0.9908391 -0.3806901 -0.1020046 -0.9190593 -0.3806901 -0.1020046 -0.9190593 -0.3806901 -0.1020046 -0.9190593 -0.3806896 -0.102005 -0.9190595 -0.3806896 -0.102005 -0.9190595 -0.3806896 -0.102005 -0.9190595 -0.2786844 -0.2786844 -0.9190593 -0.2786844 -0.2786844 -0.9190593 -0.2786844 -0.2786844 -0.9190593 -0.2786844 -0.2786844 -0.9190593 -0.2786844 -0.2786844 -0.9190593 -0.2786844 -0.2786844 -0.9190593 -0.1020045 -0.3806896 -0.9190596 -0.1020045 -0.3806896 -0.9190596 -0.1020045 -0.3806896 -0.9190596 -0.1020051 -0.3806899 -0.9190595 -0.1020051 -0.3806899 -0.9190595 -0.1020051 -0.3806899 -0.9190595 0.1020046 -0.3806901 -0.9190593 0.1020046 -0.3806901 -0.9190593 0.1020046 -0.3806901 -0.9190593 0.102005 -0.3806896 -0.9190595 0.102005 -0.3806896 -0.9190595 0.102005 -0.3806896 -0.9190595 0.2786844 -0.2786844 -0.9190593 0.2786844 -0.2786844 -0.9190593 0.2786844 -0.2786844 -0.9190593 0.2786844 -0.2786844 -0.9190593 0.2786844 -0.2786844 -0.9190593 0.2786844 -0.2786844 -0.9190593 0.3806896 -0.1020045 -0.9190596 0.3806896 -0.1020045 -0.9190596 0.3806896 -0.1020045 -0.9190596 0.3806899 -0.1020051 -0.9190595 0.3806899 -0.1020051 -0.9190595 0.3806899 -0.1020051 -0.9190595 0.3806901 0.1020046 -0.9190593 0.3806901 0.1020046 -0.9190593 0.3806901 0.1020046 -0.9190593 0.3806896 0.102005 -0.9190595 0.3806896 0.102005 -0.9190595 0.3806896 0.102005 -0.9190595 0.2786844 0.2786844 -0.9190593 0.2786844 0.2786844 -0.9190593 0.2786844 0.2786844 -0.9190593 0.2786844 0.2786844 -0.9190593 0.2786844 0.2786844 -0.9190593 0.2786844 0.2786844 -0.9190593 0.1020045 0.3806896 -0.9190596 0.1020045 0.3806896 -0.9190596 0.1020045 0.3806896 -0.9190596 0.1020051 0.3806899 -0.9190595 0.1020051 0.3806899 -0.9190595 0.1020051 0.3806899 -0.9190595 -0.1020046 0.3806901 -0.9190593 -0.1020046 0.3806901 -0.9190593 -0.1020046 0.3806901 -0.9190593 -0.102005 0.3806896 -0.9190595 -0.102005 0.3806896 -0.9190595 -0.102005 0.3806896 -0.9190595 -0.2786844 0.2786844 -0.9190593 -0.2786844 0.2786844 -0.9190593 -0.2786844 0.2786844 -0.9190593 -0.2786844 0.2786844 -0.9190593 -0.2786844 0.2786844 -0.9190593 -0.2786844 0.2786844 -0.9190593 -0.3806896 0.1020045 -0.9190596 -0.3806896 0.1020045 -0.9190596 -0.3806896 0.1020045 -0.9190596 -0.3806899 0.1020051 -0.9190595 -0.3806899 0.1020051 -0.9190595 -0.3806899 0.1020051 -0.9190595 -0.6008232 -0.1609894 -0.7830032 -0.6008232 -0.1609894 -0.7830032 -0.6008232 -0.1609894 -0.7830032 -0.600821 -0.1609907 -0.7830045 -0.600821 -0.1609907 -0.7830045 -0.600821 -0.1609907 -0.7830045 -0.4398329 -0.4398329 -0.7830032 -0.4398329 -0.4398329 -0.7830032 -0.4398329 -0.4398329 -0.7830032 -0.4398329 -0.4398329 -0.7830032 -0.4398329 -0.4398329 -0.7830032 -0.4398329 -0.4398329 -0.7830032 -0.1609889 -0.6008213 -0.7830048 -0.1609889 -0.6008213 -0.7830048 -0.1609889 -0.6008213 -0.7830048 -0.1609911 -0.6008224 -0.7830033 -0.1609911 -0.6008224 -0.7830033 -0.1609911 -0.6008224 -0.7830033 0.1609894 -0.6008232 -0.7830032 0.1609894 -0.6008232 -0.7830032 0.1609894 -0.6008232 -0.7830032 0.1609907 -0.600821 -0.7830045 0.1609907 -0.600821 -0.7830045 0.1609907 -0.600821 -0.7830045 0.4398329 -0.4398329 -0.7830032 0.4398329 -0.4398329 -0.7830032 0.4398329 -0.4398329 -0.7830032 0.4398329 -0.4398329 -0.7830032 0.4398329 -0.4398329 -0.7830032 0.4398329 -0.4398329 -0.7830032 0.6008213 -0.1609889 -0.7830048 0.6008213 -0.1609889 -0.7830048 0.6008213 -0.1609889 -0.7830048 0.6008224 -0.1609911 -0.7830033 0.6008224 -0.1609911 -0.7830033 0.6008224 -0.1609911 -0.7830033 0.6008232 0.1609894 -0.7830032 0.6008232 0.1609894 -0.7830032 0.6008232 0.1609894 -0.7830032 0.600821 0.1609907 -0.7830045 0.600821 0.1609907 -0.7830045 0.600821 0.1609907 -0.7830045 0.4398329 0.4398329 -0.7830032 0.4398329 0.4398329 -0.7830032 0.4398329 0.4398329 -0.7830032 0.4398329 0.4398329 -0.7830032 0.4398329 0.4398329 -0.7830032 0.4398329 0.4398329 -0.7830032 0.1609889 0.6008213 -0.7830048 0.1609889 0.6008213 -0.7830048 0.1609889 0.6008213 -0.7830048 0.1609911 0.6008224 -0.7830033 0.1609911 0.6008224 -0.7830033 0.1609911 0.6008224 -0.7830033 -0.1609894 0.6008232 -0.7830032 -0.1609894 0.6008232 -0.7830032 -0.1609894 0.6008232 -0.7830032 -0.1609907 0.600821 -0.7830045 -0.1609907 0.600821 -0.7830045 -0.1609907 0.600821 -0.7830045 -0.4398329 0.4398329 -0.7830032 -0.4398329 0.4398329 -0.7830032 -0.4398329 0.4398329 -0.7830032 -0.4398329 0.4398329 -0.7830032 -0.4398329 0.4398329 -0.7830032 -0.4398329 0.4398329 -0.7830032 -0.6008213 0.1609889 -0.7830048 -0.6008213 0.1609889 -0.7830048 -0.6008213 0.1609889 -0.7830048 -0.6008224 0.1609911 -0.7830033 -0.6008224 0.1609911 -0.7830033 -0.6008224 0.1609911 -0.7830033 -0.7760108 -0.2079331 -0.5954589 -0.7760108 -0.2079331 -0.5954589 -0.7760108 -0.2079331 -0.5954589 -0.7760136 -0.2079314 -0.5954558 -0.7760136 -0.2079314 -0.5954558 -0.7760136 -0.2079314 -0.5954558 -0.5680794 -0.5680794 -0.5954592 -0.5680794 -0.5680794 -0.5954592 -0.5680794 -0.5680794 -0.5954592 -0.5680794 -0.5680794 -0.5954591 -0.5680794 -0.5680794 -0.5954591 -0.5680794 -0.5680794 -0.5954591 -0.2079337 -0.7760131 -0.5954555 -0.2079337 -0.7760131 -0.5954555 -0.2079337 -0.7760131 -0.5954555 -0.2079308 -0.7760116 -0.5954585 -0.2079308 -0.7760116 -0.5954585 -0.2079308 -0.7760116 -0.5954585 0.2079331 -0.7760108 -0.5954589 0.2079331 -0.7760108 -0.5954589 0.2079331 -0.7760108 -0.5954589 0.2079314 -0.7760136 -0.5954558 0.2079314 -0.7760136 -0.5954558 0.2079314 -0.7760136 -0.5954558 0.5680794 -0.5680794 -0.5954592 0.5680794 -0.5680794 -0.5954592 0.5680794 -0.5680794 -0.5954592 0.5680794 -0.5680794 -0.5954591 0.5680794 -0.5680794 -0.5954591 0.5680794 -0.5680794 -0.5954591 0.7760131 -0.2079337 -0.5954555 0.7760131 -0.2079337 -0.5954555 0.7760131 -0.2079337 -0.5954555 0.7760116 -0.2079308 -0.5954585 0.7760116 -0.2079308 -0.5954585 0.7760116 -0.2079308 -0.5954585 0.7760108 0.2079331 -0.5954589 0.7760108 0.2079331 -0.5954589 0.7760108 0.2079331 -0.5954589 0.7760136 0.2079314 -0.5954558 0.7760136 0.2079314 -0.5954558 0.7760136 0.2079314 -0.5954558 0.5680794 0.5680794 -0.5954592 0.5680794 0.5680794 -0.5954592 0.5680794 0.5680794 -0.5954592 0.5680794 0.5680794 -0.5954591 0.5680794 0.5680794 -0.5954591 0.5680794 0.5680794 -0.5954591 0.2079337 0.7760131 -0.5954555 0.2079337 0.7760131 -0.5954555 0.2079337 0.7760131 -0.5954555 0.2079308 0.7760116 -0.5954585 0.2079308 0.7760116 -0.5954585 0.2079308 0.7760116 -0.5954585 -0.2079331 0.7760108 -0.5954589 -0.2079331 0.7760108 -0.5954589 -0.2079331 0.7760108 -0.5954589 -0.2079314 0.7760136 -0.5954558 -0.2079314 0.7760136 -0.5954558 -0.2079314 0.7760136 -0.5954558 -0.5680794 0.5680794 -0.5954592 -0.5680794 0.5680794 -0.5954592 -0.5680794 0.5680794 -0.5954592 -0.5680794 0.5680794 -0.5954591 -0.5680794 0.5680794 -0.5954591 -0.5680794 0.5680794 -0.5954591 -0.7760131 0.2079337 -0.5954555 -0.7760131 0.2079337 -0.5954555 -0.7760131 0.2079337 -0.5954555 -0.7760116 0.2079308 -0.5954585 -0.7760116 0.2079308 -0.5954585 -0.7760116 0.2079308 -0.5954585 -0.8968095 -0.2402984 -0.3714692 -0.8968095 -0.2402984 -0.3714692 -0.8968095 -0.2402984 -0.3714692 -0.896808 -0.2402997 -0.371472 -0.896808 -0.2402997 -0.371472 -0.896808 -0.2402997 -0.371472 -0.6565099 -0.6565099 -0.3714692 -0.6565099 -0.6565099 -0.3714692 -0.6565099 -0.6565099 -0.3714692 -0.6565099 -0.6565099 -0.3714692 -0.6565099 -0.6565099 -0.3714692 -0.6565099 -0.6565099 -0.3714692 -0.2402981 -0.8968083 -0.3714722 -0.2402981 -0.8968083 -0.3714722 -0.2402981 -0.8968083 -0.3714722 -0.2403 -0.896809 -0.3714694 -0.2403 -0.896809 -0.3714694 -0.2403 -0.896809 -0.3714694 0.2402984 -0.8968095 -0.3714692 0.2402984 -0.8968095 -0.3714692 0.2402984 -0.8968095 -0.3714692 0.2402997 -0.896808 -0.371472 0.2402997 -0.896808 -0.371472 0.2402997 -0.896808 -0.371472 0.6565099 -0.6565099 -0.3714692 0.6565099 -0.6565099 -0.3714692 0.6565099 -0.6565099 -0.3714692 0.6565099 -0.6565099 -0.3714692 0.6565099 -0.6565099 -0.3714692 0.6565099 -0.6565099 -0.3714692 0.8968083 -0.2402981 -0.3714722 0.8968083 -0.2402981 -0.3714722 0.8968083 -0.2402981 -0.3714722 0.896809 -0.2403 -0.3714694 0.896809 -0.2403 -0.3714694 0.896809 -0.2403 -0.3714694 0.8968095 0.2402984 -0.3714692 0.8968095 0.2402984 -0.3714692 0.8968095 0.2402984 -0.3714692 0.896808 0.2402997 -0.371472 0.896808 0.2402997 -0.371472 0.896808 0.2402997 -0.371472 0.6565099 0.6565099 -0.3714692 0.6565099 0.6565099 -0.3714692 0.6565099 0.6565099 -0.3714692 0.6565099 0.6565099 -0.3714692 0.6565099 0.6565099 -0.3714692 0.6565099 0.6565099 -0.3714692 0.2402981 0.8968083 -0.3714722 0.2402981 0.8968083 -0.3714722 0.2402981 0.8968083 -0.3714722 0.2403 0.896809 -0.3714694 0.2403 0.896809 -0.3714694 0.2403 0.896809 -0.3714694 -0.2402984 0.8968095 -0.3714692 -0.2402984 0.8968095 -0.3714692 -0.2402984 0.8968095 -0.3714692 -0.2402997 0.896808 -0.371472 -0.2402997 0.896808 -0.371472 -0.2402997 0.896808 -0.371472 -0.6565099 0.6565099 -0.3714692 -0.6565099 0.6565099 -0.3714692 -0.6565099 0.6565099 -0.3714692 -0.6565099 0.6565099 -0.3714692 -0.6565099 0.6565099 -0.3714692 -0.6565099 0.6565099 -0.3714692 -0.8968083 0.2402981 -0.3714722 -0.8968083 0.2402981 -0.3714722 -0.8968083 0.2402981 -0.3714722 -0.896809 0.2403 -0.3714694 -0.896809 0.2403 -0.3714694 -0.896809 0.2403 -0.3714694 -0.958209 -0.2567521 -0.1261502 -0.958209 -0.2567521 -0.1261502 -0.958209 -0.2567521 -0.1261502 -0.958209 -0.2567522 -0.1261503 -0.958209 -0.2567522 -0.1261503 -0.958209 -0.2567522 -0.1261503 -0.7014578 -0.7014578 -0.1261502 -0.7014578 -0.7014578 -0.1261502 -0.7014578 -0.7014578 -0.1261502 -0.7014578 -0.7014578 -0.1261502 -0.7014578 -0.7014578 -0.1261502 -0.7014578 -0.7014578 -0.1261502 -0.2567521 -0.958209 -0.1261503 -0.2567521 -0.958209 -0.1261503 -0.2567521 -0.958209 -0.1261503 -0.2567522 -0.958209 -0.1261502 -0.2567522 -0.958209 -0.1261502 -0.2567522 -0.958209 -0.1261502</float_array>
                    <technique_common>
                        <accessor count="840" source="#geometry0-normal-array" stride="3">
                            <param name="X" type="float"/>
                            <param name="Y" type="float"/>
                            <param name="Z" type="float"/>
                        </accessor>
                    </technique_common>
                </source>
                <vertices id="geometry0-vertex">
                    <input semantic="POSITION" source="#geometry0-position"/>
                </vertices>
                <triangles count="288" material="default_ai_0.2_sh_0.2_tr_0.0_dc_r_0.8_g_0.8_b_0.8_sc_r_1.0_g_1.0_b_1.0_ec_r_0.0_g_0.0_b_0_tri">
                    <input offset="0" semantic="VERTEX" source="#geometry0-vertex"/>
                    <input offset="1" semantic="NORMAL" source="#geometry0-normal"/>
                    <p>52 0 53 1 65 2 52 3 65 4 64 5 53 6 54 7 66 8 53 9 66 10 65 11 54 12 55 13 67 14 54 15 67 16 66 17 55 18 56 19 68 20 55 21 68 22 67 23 56 24 57 25 69 26 56 27 69 28 68 29 57 30 58 31 70 32 57 33 70 34 69 35 58 36 59 37 71 38 58 39 71 40 70 41 59 42 60 43 72 44 59 45 72 46 71 47 60 48 50 49 62 50 60 51 62 52 72 53 62 54 61 55 73 56 62 57 73 58 74 59 61 60 63 61 75 62 61 63 75 64 73 65 63 66 64 67 76 68 63 69 76 70 75 71 64 72 65 73 77 74 64 75 77 76 76 77 65 78 66 79 78 80 65 81 78 82 77 83 66 84 67 85 79 86 66 87 79 88 78 89 67 90 68 91 80 92 67 93 80 94 79 95 68 96 69 97 81 98 68 99 81 100 80 101 69 102 70 103 82 104 69 105 82 106 81 107 70 108 71 109 83 110 70 111 83 112 82 113 71 114 72 115 84 116 71 117 84 118 83 119 72 120 62 121 74 122 72 123 74 124 84 125 74 126 73 127 85 128 74 129 85 130 86 131 73 132 75 133 87 134 73 135 87 136 85 137 75 138 76 139 88 140 75 141 88 142 87 143 76 144 77 145 89 146 76 147 89 148 88 149 77 150 78 151 90 152 77 153 90 154 89 155 78 156 79 157 91 158 78 159 91 160 90 161 79 162 80 163 92 164 79 165 92 166 91 167 80 168 81 169 93 170 80 171 93 172 92 173 81 174 82 175 94 176 81 177 94 178 93 179 82 180 83 181 95 182 82 183 95 184 94 185 83 186 84 187 96 188 83 189 96 190 95 191 84 192 74 193 86 194 84 195 86 196 96 197 86 198 85 199 97 200 86 201 97 202 98 203 85 204 87 205 99 206 85 207 99 208 97 209 87 210 88 211 100 212 87 213 100 214 99 215 88 216 89 217 101 218 88 219 101 220 100 221 89 222 90 223 102 224 89 225 102 226 101 227 90 228 91 229 103 230 90 231 103 232 102 233 91 234 92 235 104 236 91 237 104 238 103 239 92 240 93 241 105 242 92 243 105 244 104 245 93 246 94 247 106 248 93 249 106 250 105 251 94 252 95 253 107 254 94 255 107 256 106 257 95 258 96 259 108 260 95 261 108 262 107 263 96 264 86 265 98 266 96 267 98 268 108 269 98 270 97 271 109 272 98 273 109 274 110 275 97 276 99 277 111 278 97 279 111 280 109 281 99 282 100 283 112 284 99 285 112 286 111 287 100 288 101 289 113 290 100 291 113 292 112 293 101 294 102 295 114 296 101 297 114 298 113 299 102 300 103 301 115 302 102 303 115 304 114 305 103 306 104 307 116 308 103 309 116 310 115 311 104 312 105 313 117 314 104 315 117 316 116 317 105 318 106 319 118 320 105 321 118 322 117 323 106 324 107 325 119 326 106 327 119 328 118 329 107 330 108 331 120 332 107 333 120 334 119 335 108 336 98 337 110 338 108 339 110 340 120 341 110 342 109 343 121 344 110 345 121 346 122 347 109 348 111 349 123 350 109 351 123 352 121 353 111 354 112 355 124 356 111 357 124 358 123 359 112 360 113 361 125 362 112 363 125 364 124 365 113 366 114 367 126 368 113 369 126 370 125 371 114 372 115 373 127 374 114 375 127 376 126 377 115 378 116 379 128 380 115 381 128 382 127 383 116 384 117 385 129 386 116 387 129 388 128 389 117 390 118 391 130 392 117 393 130 394 129 395 118 396 119 397 131 398 118 399 131 400 130 401 119 402 120 403 132 404 119 405 132 406 131 407 120 408 110 409 122 410 120 411 122 412 132 413 122 414 121 415 133 416 122 417 133 418 133 418 121 419 123 420 133 421 121 422 133 423 133 423 123 424 124 425 133 426 123 427 133 428 133 428 124 429 125 430 133 431 124 432 133 433 133 433 125 434 126 435 133 436 125 437 133 438 133 438 126 439 127 440 133 441 126 442 133 443 133 443 127 444 128 445 133 446 127 447 133 448 133 448 128 449 129 450 133 451 128 452 133 453 133 453 129 454 130 455 133 456 129 457 133 458 133 458 130 459 131 460 133 461 130 462 133 463 133 463 131 464 132 465 133 466 131 467 133 468 133 468 132 469 122 470 133 471 132 472 133 473 133 473 0 474 0 474 1 475 0 476 1 477 2 478 0 479 0 479 3 480 0 481 3 482 1 483 0 484 0 484 4 485 0 486 4 487 3 488 0 489 0 489 5 490 0 491 5 492 4 493 0 494 0 494 6 495 0 496 6 497 5 498 0 499 0 499 7 500 0 501 7 502 6 503 0 504 0 504 8 505 0 506 8 507 7 508 0 509 0 509 9 510 0 511 9 512 8 513 0 514 0 514 10 515 0 516 10 517 9 518 0 519 0 519 11 520 0 521 11 522 10 523 0 524 0 524 12 525 0 526 12 527 11 528 0 529 0 529 2 530 0 531 2 532 12 533 2 534 1 535 13 536 2 537 13 538 14 539 1 540 3 541 15 542 1 543 15 544 13 545 3 546 4 547 16 548 3 549 16 550 15 551 4 552 5 553 17 554 4 555 17 556 16 557 5 558 6 559 18 560 5 561 18 562 17 563 6 564 7 565 19 566 6 567 19 568 18 569 7 570 8 571 20 572 7 573 20 574 19 575 8 576 9 577 21 578 8 579 21 580 20 581 9 582 10 583 22 584 9 585 22 586 21 587 10 588 11 589 23 590 10 591 23 592 22 593 11 594 12 595 24 596 11 597 24 598 23 599 12 600 2 601 14 602 12 603 14 604 24 605 14 606 13 607 25 608 14 609 25 610 26 611 13 612 15 613 27 614 13 615 27 616 25 617 15 618 16 619 28 620 15 621 28 622 27 623 16 624 17 625 29 626 16 627 29 628 28 629 17 630 18 631 30 632 17 633 30 634 29 635 18 636 19 637 31 638 18 639 31 640 30 641 19 642 20 643 32 644 19 645 32 646 31 647 20 648 21 649 33 650 20 651 33 652 32 653 21 654 22 655 34 656 21 657 34 658 33 659 22 660 23 661 35 662 22 663 35 664 34 665 23 666 24 667 36 668 23 669 36 670 35 671 24 672 14 673 26 674 24 675 26 676 36 677 26 678 25 679 37 680 26 681 37 682 38 683 25 684 27 685 39 686 25 687 39 688 37 689 27 690 28 691 40 692 27 693 40 694 39 695 28 696 29 697 41 698 28 699 41 700 40 701 29 702 30 703 42 704 29 705 42 706 41 707 30 708 31 709 43 710 30 711 43 712 42 713 31 714 32 715 44 716 31 717 44 718 43 719 32 720 33 721 45 722 32 723 45 724 44 725 33 726 34 727 46 728 33 729 46 730 45 731 34 732 35 733 47 734 34 735 47 736 46 737 35 738 36 739 48 740 35 741 48 742 47 743 36 744 26 745 38 746 36 747 38 748 48 749 38 750 37 751 49 752 38 753 49 754 50 755 37 756 39 757 51 758 37 759 51 760 49 761 39 762 40 763 52 764 39 765 52 766 51 767 40 768 41 769 53 770 40 771 53 772 52 773 41 774 42 775 54 776 41 777 54 778 53 779 42 780 43 781 55 782 42 783 55 784 54 785 43 786 44 787 56 788 43 789 56 790 55 791 44 792 45 793 57 794 44 795 57 796 56 797 45 798 46 799 58 800 45 801 58 802 57 803 46 804 47 805 59 806 46 807 59 808 58 809 47 810 48 811 60 812 47 813 60 814 59 815 48 816 38 817 50 818 48 819 50 820 60 821 50 822 49 823 61 824 50 825 61 826 62 827 49 828 51 829 63 830 49 831 63 832 61 833 51 834 52 835 64 836 51 837 64 838 63 839</p>
                </triangles>
            </mesh>
        </geometry>
    </library_geometries>
    <library_visual_scenes>
        <visual_scene id="Building_237_CROWN1">
            <node>
                <instance_geometry url="#geometry0">
                    <bind_material>
                        <technique_common>
                            <instance_material symbol="default_ai_0.2_sh_0.2_tr_0.0_dc_r_0.8_g_0.8_b_0.8_sc_r_1.0_g_1.0_b_1.0_ec_r_0.0_g_0.0_b_0_tri" target="#default_ai_0.2_sh_0.2_tr_0.0_dc_r_0.8_g_0.8_b_0.8_sc_r_1.0_g_1.0_b_1.0_ec_r_0.0_g_0.0_b_0_mat"/>
                        </technique_common>
                    </bind_material>
                </instance_geometry>
            </node>
        </visual_scene>
    </library_visual_scenes>
    <scene>
        <instance_visual_scene url="#Building_237_CROWN1"/>
    </scene>
</COLLADA>
