<?xml version="1.0" encoding="UTF-8" standalone="yes"?>
<COLLADA xmlns="http://www.collada.org/2005/11/COLLADASchema" version="1.4.1">
    <asset>
        <contributor>
            <authoring_tool>3D City Database Importer/Exporter, version 5.5.3; Chair of Geoinformatics, Technical University of Munich</authoring_tool>
        </contributor>
        <created>2026-09-25T14:44:48.572</created>
        <modified>2026-09-25T14:44:48.572</modified>
        <unit meter="1.0" name="meters"/>
        <up_axis>Z_UP</up_axis>
    </asset>
    <library_materials>
        <material id="default_ai_0.2_sh_0.2_tr_0.0_dc_r_0.8_g_0.8_b_0.8_sc_r_1.0_g_1.0_b_1.0_ec_r_0.0_g_0.0_b_0_mat">
            <instance_effect url="#default_ai_0.2_sh_0.2_tr_0.0_dc_r_0.8_g_0.8_b_0.8_sc_r_1.0_g_1.0_b_1.0_ec_r_0.0_g_0.0_b_0_eff"/>
        </material>
    </library_materials>
    <library_effects>
        <effect id="default_ai_0.2_sh_0.2_tr_0.0_dc_r_0.8_g_0.8_b_0.8_sc_r_1.0_g_1.0_b_1.0_ec_r_0.0_g_0.0_b_0_eff">
            <profile_COMMON>
                <technique sid="COMMON">
                    <lambert>
                        <emission>
                            <color>0.0 0.0 0.0 1.0</color>
                        </emission>
                        <diffuse>
                            <color>0.8 0.8 0.8 1.0</color>
                        </diffuse>
                        <reflective>
                            <color>1.0 1.0 1.0 1.0</color>
                        </reflective>
                        <reflectivity>
                            <float>0.2</float>
                        </reflectivity>
                        <transparent opaque="A_ONE">
                            <color>1.0 1.0 1.0 1.0</color>
                        </transparent>
                        <transparency>
                            <float>1.0</float>
                        </transparency>
                    </lambert>
                </technique>
                <extra>
                    <technique profile="GOOGLEEARTH">
                        <double_sided>0</double_sided>
                    </technique>
                </extra>
            </profile_COMMON>
        </effect>
    </library_effects>
    <library_geometries>
        <geometry id="geometry0">
            <mesh>
                <source id="geometry0-position">
                    <float_array id="geometry0-position-array" count="402">0.0 0.0 1.6 0.1793152 0.103528 1.5727408 0.2070552 0.0 1.5727408 0.103528 0.1793152 1.5727408 0.0 0.2070552 1.5727408 -0.103528 0.1793152 1.5727408 -0.1793152 0.103528 1.5727408 -0.2070552 0.0 1.5727408 -0.1793152 -0.103528 1.5727408 -0.103528 -0.1793152 1.5727408 0.0 -0.2070552 1.5727408 0.103528 -0.1793152 1.5727408 0.1793152 -0.103528 1.5727408 0.3464104 0.2 1.49282 0.4 0.0 1.49282 0.2 0.3464104 1.49282 0.0 0.4 1.49282 -0.2 0.3464104 1.49282 -0.3464104 0.2 1.49282 -0.4 0.0 1.49282 -0.3464104 -0.2 1.49282 -0.2 -0.3464104 1.49282 0.0 -0.4 1.49282 0.2 -0.3464104 1.49282 0.3464104 -0.2 1.49282 0.4898976 0.2828424 1.3656856 0.5656856 0.0 1.3656856 0.2828424 0.4898976 1.3656856 0.0 0.5656856 1.3656856 -0.2828424 0.4898976 1.3656856 -0.4898976 0.2828424 1.3656856 -0.5656856 0.0 1.3656856 -0.4898976 -0.2828424 1.3656856 -0.2828424 -0.4898976 1.3656856 0.0 -0.5656856 1.3656856 0.2828424 -0.4898976 1.3656856 0.4898976 -0.2828424 1.3656856 0.6 0.3464104 1.2 0.69282 0.0 1.2 0.3464104 0.6 1.2 0.0 0.69282 1.2 -0.3464104 0.6 1.2 -0.6 0.3464104 1.2 -0.69282 0.0 1.2 -0.6 -0.3464104 1.2 -0.3464104 -0.6 1.2 0.0 -0.69282 1.2 0.3464104 -0.6 1.2 0.6 -0.3464104 1.2 0.6692128 0.3863704 1.0070552 0.7727408 0.0 1.0070552 0.3863704 0.6692128 1.0070552 0.0 0.7727408 1.0070552 -0.3863704 0.6692128 1.0070552 -0.6692128 0.3863704 1.0070552 -0.7727408 0.0 1.0070552 -0.6692128 -0.3863704 1.0070552 -0.3863704 -0.6692128 1.0070552 0.0 -0.7727408 1.0070552 0.3863704 -0.6692128 1.0070552 0.6692128 -0.3863704 1.0070552 0.69282 0.4 0.8 0.8 0.0 0.8 0.4 0.69282 0.8 0.0 0.8 0.8 -0.4 0.69282 0.8 -0.69282 0.4 0.8 -0.8 0.0 0.8 -0.69282 -0.4 0.8 -0.4 -0.69282 0.8 0.0 -0.8 0.8 0.4 -0.69282 0.8 0.69282 -0.4 0.8 0.6692128 0.3863704 0.5929448 0.7727408 0.0 0.5929448 0.3863704 0.6692128 0.5929448 0.0 0.7727408 0.5929448 -0.3863704 0.6692128 0.5929448 -0.6692128 0.3863704 0.5929448 -0.7727408 0.0 0.5929448 -0.6692128 -0.3863704 0.5929448 -0.3863704 -0.6692128 0.5929448 0.0 -0.7727408 0.5929448 0.3863704 -0.6692128 0.5929448 0.6692128 -0.3863704 0.5929448 0.6 0.3464104 0.4 0.69282 0.0 0.4 0.3464104 0.6 0.4 0.0 0.69282 0.4 -0.3464104 0.6 0.4 -0.6 0.3464104 0.4 -0.69282 0.0 0.4 -0.6 -0.3464104 0.4 -0.3464104 -0.6 0.4 0.0 -0.69282 0.4 0.3464104 -0.6 0.4 0.6 -0.3464104 0.4 0.4898976 0.2828424 0.2343144 0.5656856 0.0 0.2343144 0.2828424 0.4898976 0.2343144 0.0 0.5656856 0.2343144 -0.2828424 0.4898976 0.2343144 -0.4898976 0.2828424 0.2343144 -0.5656856 0.0 0.2343144 -0.4898976 -0.2828424 0.2343144 -0.2828424 -0.4898976 0.2343144 0.0 -0.5656856 0.2343144 0.2828424 -0.4898976 0.2343144 0.4898976 -0.2828424 0.2343144 0.3464104 0.2 0.10718 0.4 0.0 0.10718 0.2 0.3464104 0.10718 0.0 0.4 0.10718 -0.2 0.3464104 0.10718 -0.3464104 0.2 0.10718 -0.4 0.0 0.10718 -0.3464104 -0.2 0.10718 -0.2 -0.3464104 0.10718 0.0 -0.4 0.10718 0.2 -0.3464104 0.10718 0.3464104 -0.2 0.10718 0.1793152 0.103528 0.0272592 0.2070552 0.0 0.0272592 0.103528 0.1793152 0.0272592 0.0 0.2070552 0.0272592 -0.103528 0.1793152 0.0272592 -0.1793152 0.103528 0.0272592 -0.2070552 0.0 0.0272592 -0.1793152 -0.103528 0.0272592 -0.103528 -0.1793152 0.0272592 0.0 -0.2070552 0.0272592 0.103528 -0.1793152 0.0272592 0.1793152 -0.103528 0.0272592 0.0 0.0 0.0</float_array>
                    <technique_common>
                        <accessor count="134" source="#geometry0-position-array" stride="3">
                            <param name="X" type="float"/>
                            <param name="Y" type="float"/>
                            <param name="Z" type="float"/>
                        </accessor>
                    </technique_common>
                </source>
                <source id="geometry0-normal">
                    <float_array id="geometry0-normal-array" count="2520">-0.5680802 -0.5680802 -0.5954577 -0.5680802 -0.5680802 -0.5954577 -0.5680802 -0.5680802 -0.5954577 -0.5680802 -0.5680802 -0.5954577 -0.5680802 -0.5680802 -0.5954577 -0.5680802 -0.5680802 -0.5954577 -0.2079341 -0.7760143 -0.5954539 -0.2079341 -0.7760143 -0.5954539 -0.2079341 -0.7760143 -0.5954539 -0.2079311 -0.7760127 -0.5954571 -0.2079311 -0.7760127 -0.5954571 -0.2079311 -0.7760127 -0.5954571 0.2079335 -0.7760118 -0.5954574 0.2079335 -0.7760118 -0.5954574 0.2079335 -0.7760118 -0.5954574 0.2079316 -0.7760146 -0.5954542 0.2079316 -0.7760146 -0.5954542 0.2079316 -0.7760146 -0.5954542 0.5680802 -0.5680802 -0.5954577 0.5680802 -0.5680802 -0.5954577 0.5680802 -0.5680802 -0.5954577 0.5680802 -0.5680802 -0.5954577 0.5680802 -0.5680802 -0.5954577 0.5680802 -0.5680802 -0.5954577 0.7760142 -0.2079339 -0.5954541 0.7760142 -0.2079339 -0.5954541 0.7760142 -0.2079339 -0.5954541 0.7760127 -0.2079311 -0.5954571 0.7760127 -0.2079311 -0.5954571 0.7760127 -0.2079311 -0.5954571 0.7760118 0.2079333 -0.5954574 0.7760118 0.2079333 -0.5954574 0.7760118 0.2079333 -0.5954574 0.7760145 0.2079316 -0.5954543 0.7760145 0.2079316 -0.5954543 0.7760145 0.2079316 -0.5954543 0.5680802 0.5680802 -0.5954577 0.5680802 0.5680802 -0.5954577 0.5680802 0.5680802 -0.5954577 0.5680802 0.5680802 -0.5954577 0.5680802 0.5680802 -0.5954577 0.5680802 0.5680802 -0.5954577 0.2079341 0.7760143 -0.5954539 0.2079341 0.7760143 -0.5954539 0.2079341 0.7760143 -0.5954539 0.2079311 0.7760127 -0.5954571 0.2079311 0.7760127 -0.5954571 0.2079311 0.7760127 -0.5954571 -0.2079335 0.7760118 -0.5954574 -0.2079335 0.7760118 -0.5954574 -0.2079335 0.7760118 -0.5954574 -0.2079316 0.7760146 -0.5954542 -0.2079316 0.7760146 -0.5954542 -0.2079316 0.7760146 -0.5954542 -0.5680802 0.5680802 -0.5954577 -0.5680802 0.5680802 -0.5954577 -0.5680802 0.5680802 -0.5954577 -0.5680802 0.5680802 -0.5954577 -0.5680802 0.5680802 -0.5954577 -0.5680802 0.5680802 -0.5954577 -0.7760142 0.2079339 -0.5954541 -0.7760142 0.2079339 -0.5954541 -0.7760142 0.2079339 -0.5954541 -0.7760127 0.2079311 -0.5954571 -0.7760127 0.2079311 -0.5954571 -0.7760127 0.2079311 -0.5954571 -0.8968096 -0.2402984 -0.3714689 -0.8968096 -0.2402984 -0.3714689 -0.8968096 -0.2402984 -0.3714689 -0.896808 -0.2402997 -0.3714719 -0.896808 -0.2402997 -0.3714719 -0.896808 -0.2402997 -0.3714719 -0.65651 -0.65651 -0.3714689 -0.65651 -0.65651 -0.3714689 -0.65651 -0.65651 -0.3714689 -0.65651 -0.65651 -0.371469 -0.65651 -0.65651 -0.371469 -0.65651 -0.65651 -0.371469 -0.240298 -0.8968084 -0.371472 -0.240298 -0.8968084 -0.371472 -0.240298 -0.8968084 -0.371472 -0.2403001 -0.8968092 -0.3714691 -0.2403001 -0.8968092 -0.3714691 -0.2403001 -0.8968092 -0.3714691 0.2402984 -0.8968096 -0.3714689 0.2402984 -0.8968096 -0.3714689 0.2402984 -0.8968096 -0.3714689 0.2402997 -0.896808 -0.3714719 0.2402997 -0.896808 -0.3714719 0.2402997 -0.896808 -0.3714719 0.65651 -0.65651 -0.3714689 0.65651 -0.65651 -0.3714689 0.65651 -0.65651 -0.3714689 0.65651 -0.65651 -0.371469 0.65651 -0.65651 -0.371469 0.65651 -0.65651 -0.371469 0.8968084 -0.240298 -0.371472 0.8968084 -0.240298 -0.371472 0.8968084 -0.240298 -0.371472 0.8968092 -0.2403001 -0.3714691 0.8968092 -0.2403001 -0.3714691 0.8968092 -0.2403001 -0.3714691 0.8968096 0.2402984 -0.3714689 0.8968096 0.2402984 -0.3714689 0.8968096 0.2402984 -0.3714689 0.896808 0.2402997 -0.3714719 0.896808 0.2402997 -0.3714719 0.896808 0.2402997 -0.3714719 0.65651 0.65651 -0.3714689 0.65651 0.65651 -0.3714689 0.65651 0.65651 -0.3714689 0.65651 0.65651 -0.371469 0.65651 0.65651 -0.371469 0.65651 0.65651 -0.371469 0.240298 0.8968084 -0.371472 0.240298 0.8968084 -0.371472 0.240298 0.8968084 -0.371472 0.2403001 0.8968092 -0.3714691 0.2403001 0.8968092 -0.3714691 0.2403001 0.8968092 -0.3714691 -0.2402984 0.8968096 -0.3714689 -0.2402984 0.8968096 -0.3714689 -0.2402984 0.8968096 -0.3714689 -0.2402997 0.896808 -0.3714719 -0.2402997 0.896808 -0.3714719 -0.2402997 0.896808 -0.3714719 -0.65651 0.65651 -0.3714689 -0.65651 0.65651 -0.3714689 -0.65651 0.65651 -0.3714689 -0.65651 0.65651 -0.371469 -0.65651 0.65651 -0.371469 -0.65651 0.65651 -0.371469 -0.8968084 0.240298 -0.371472 -0.8968084 0.240298 -0.371472 -0.8968084 0.240298 -0.371472 -0.8968092 0.2403001 -0.3714691 -0.8968092 0.2403001 -0.3714691 -0.8968092 0.2403001 -0.3714691 -0.958209 -0.2567521 -0.1261502 -0.958209 -0.2567521 -0.1261502 -0.958209 -0.2567521 -0.1261502 -0.958209 -0.2567521 -0.1261502 -0.958209 -0.2567521 -0.1261502 -0.958209 -0.2567521 -0.1261502 -0.7014578 -0.7014578 -0.1261502 -0.7014578 -0.7014578 -0.1261502 -0.7014578 -0.7014578 -0.1261502 -0.7014578 -0.7014578 -0.1261502 -0.7014578 -0.7014578 -0.1261502 -0.7014578 -0.7014578 -0.1261502 -0.2567521 -0.958209 -0.1261501 -0.2567521 -0.958209 -0.1261501 -0.2567521 -0.958209 -0.1261501 -0.2567521 -0.9582091 -0.1261502 -0.2567521 -0.9582091 -0.1261502 -0.2567521 -0.9582091 -0.1261502 0.2567521 -0.958209 -0.1261502 0.2567521 -0.958209 -0.1261502 0.2567521 -0.958209 -0.1261502 0.2567521 -0.958209 -0.1261502 0.2567521 -0.958209 -0.1261502 0.2567521 -0.958209 -0.1261502 0.7014578 -0.7014578 -0.1261502 0.7014578 -0.7014578 -0.1261502 0.7014578 -0.7014578 -0.1261502 0.7014578 -0.7014578 -0.1261502 0.7014578 -0.7014578 -0.1261502 0.7014578 -0.7014578 -0.1261502 0.958209 -0.2567521 -0.1261501 0.958209 -0.2567521 -0.1261501 0.958209 -0.2567521 -0.1261501 0.9582091 -0.2567521 -0.1261502 0.9582091 -0.2567521 -0.1261502 0.9582091 -0.2567521 -0.1261502 0.958209 0.2567521 -0.1261502 0.958209 0.2567521 -0.1261502 0.958209 0.2567521 -0.1261502 0.958209 0.2567521 -0.1261502 0.958209 0.2567521 -0.1261502 0.958209 0.2567521 -0.1261502 0.7014578 0.7014578 -0.1261502 0.7014578 0.7014578 -0.1261502 0.7014578 0.7014578 -0.1261502 0.7014578 0.7014578 -0.1261502 0.7014578 0.7014578 -0.1261502 0.7014578 0.7014578 -0.1261502 0.2567521 0.958209 -0.1261501 0.2567521 0.958209 -0.1261501 0.2567521 0.958209 -0.1261501 0.2567521 0.9582091 -0.1261502 0.2567521 0.9582091 -0.1261502 0.2567521 0.9582091 -0.1261502 -0.2567521 0.958209 -0.1261502 -0.2567521 0.958209 -0.1261502 -0.2567521 0.958209 -0.1261502 -0.2567521 0.958209 -0.1261502 -0.2567521 0.958209 -0.1261502 -0.2567521 0.958209 -0.1261502 -0.7014578 0.7014578 -0.1261502 -0.7014578 0.7014578 -0.1261502 -0.7014578 0.7014578 -0.1261502 -0.7014578 0.7014578 -0.1261502 -0.7014578 0.7014578 -0.1261502 -0.7014578 0.7014578 -0.1261502 -0.958209 0.2567521 -0.1261501 -0.958209 0.2567521 -0.1261501 -0.958209 0.2567521 -0.1261501 -0.9582091 0.2567521 -0.1261502 -0.9582091 0.2567521 -0.1261502 -0.9582091 0.2567521 -0.1261502 -0.958209 -0.2567521 0.1261502 -0.958209 -0.2567521 0.1261502 -0.958209 -0.2567521 0.1261502 -0.958209 -0.2567521 0.1261501 -0.958209 -0.2567521 0.1261501 -0.958209 -0.2567521 0.1261501 -0.7014578 -0.7014578 0.1261502 -0.7014578 -0.7014578 0.1261502 -0.7014578 -0.7014578 0.1261502 -0.7014578 -0.7014578 0.1261501 -0.7014578 -0.7014578 0.1261501 -0.7014578 -0.7014578 0.1261501 -0.2567521 -0.958209 0.1261501 -0.2567521 -0.958209 0.1261501 -0.2567521 -0.958209 0.1261501 -0.2567521 -0.958209 0.1261502 -0.2567521 -0.958209 0.1261502 -0.2567521 -0.958209 0.1261502 0.2567521 -0.958209 0.1261502 0.2567521 -0.958209 0.1261502 0.2567521 -0.958209 0.1261502 0.2567521 -0.958209 0.1261501 0.2567521 -0.958209 0.1261501 0.2567521 -0.958209 0.1261501 0.7014578 -0.7014578 0.1261502 0.7014578 -0.7014578 0.1261502 0.7014578 -0.7014578 0.1261502 0.7014578 -0.7014578 0.1261501 0.7014578 -0.7014578 0.1261501 0.7014578 -0.7014578 0.1261501 0.958209 -0.2567521 0.1261501 0.958209 -0.2567521 0.1261501 0.958209 -0.2567521 0.1261501 0.958209 -0.2567521 0.1261502 0.958209 -0.2567521 0.1261502 0.958209 -0.2567521 0.1261502 0.958209 0.2567521 0.1261502 0.958209 0.2567521 0.1261502 0.958209 0.2567521 0.1261502 0.958209 0.2567521 0.1261501 0.958209 0.2567521 0.1261501 0.958209 0.2567521 0.1261501 0.7014578 0.7014578 0.1261502 0.7014578 0.7014578 0.1261502 0.7014578 0.7014578 0.1261502 0.7014578 0.7014578 0.1261501 0.7014578 0.7014578 0.1261501 0.7014578 0.7014578 0.1261501 0.2567521 0.958209 0.1261501 0.2567521 0.958209 0.1261501 0.2567521 0.958209 0.1261501 0.2567521 0.958209 0.1261502 0.2567521 0.958209 0.1261502 0.2567521 0.958209 0.1261502 -0.2567521 0.958209 0.1261502 -0.2567521 0.958209 0.1261502 -0.2567521 0.958209 0.1261502 -0.2567521 0.958209 0.1261501 -0.2567521 0.958209 0.1261501 -0.2567521 0.958209 0.1261501 -0.7014578 0.7014578 0.1261502 -0.7014578 0.7014578 0.1261502 -0.7014578 0.7014578 0.1261502 -0.7014578 0.7014578 0.1261501 -0.7014578 0.7014578 0.1261501 -0.7014578 0.7014578 0.1261501 -0.958209 0.2567521 0.1261501 -0.958209 0.2567521 0.1261501 -0.958209 0.2567521 0.1261501 -0.958209 0.2567521 0.1261502 -0.958209 0.2567521 0.1261502 -0.958209 0.2567521 0.1261502 -0.8968092 -0.2403 0.3714692 -0.8968092 -0.2403 0.3714692 -0.8968092 -0.2403 0.3714692 -0.8968084 -0.240298 0.3714721 -0.8968084 -0.240298 0.3714721 -0.8968084 -0.240298 0.3714721 -0.65651 -0.65651 0.3714691 -0.65651 -0.65651 0.3714691 -0.65651 -0.65651 0.3714691 -0.65651 -0.65651 0.3714691 -0.65651 -0.65651 0.3714691 -0.65651 -0.65651 0.3714691 -0.2402997 -0.896808 0.371472 -0.2402997 -0.896808 0.371472 -0.2402997 -0.896808 0.371472 -0.2402984 -0.8968096 0.371469 -0.2402984 -0.8968096 0.371469 -0.2402984 -0.8968096 0.371469 0.2403 -0.8968092 0.3714692 0.2403 -0.8968092 0.3714692 0.2403 -0.8968092 0.3714692 0.240298 -0.8968084 0.3714721 0.240298 -0.8968084 0.3714721 0.240298 -0.8968084 0.3714721 0.65651 -0.65651 0.3714691 0.65651 -0.65651 0.3714691 0.65651 -0.65651 0.3714691 0.65651 -0.65651 0.3714691 0.65651 -0.65651 0.3714691 0.65651 -0.65651 0.3714691 0.896808 -0.2402997 0.371472 0.896808 -0.2402997 0.371472 0.896808 -0.2402997 0.371472 0.8968096 -0.2402984 0.371469 0.8968096 -0.2402984 0.371469 0.8968096 -0.2402984 0.371469 0.8968092 0.2403 0.3714692 0.8968092 0.2403 0.3714692 0.8968092 0.2403 0.3714692 0.8968084 0.240298 0.3714721 0.8968084 0.240298 0.3714721 0.8968084 0.240298 0.3714721 0.65651 0.65651 0.3714691 0.65651 0.65651 0.3714691 0.65651 0.65651 0.3714691 0.65651 0.65651 0.3714691 0.65651 0.65651 0.3714691 0.65651 0.65651 0.3714691 0.2402997 0.896808 0.371472 0.2402997 0.896808 0.371472 0.2402997 0.896808 0.371472 0.2402984 0.8968096 0.371469 0.2402984 0.8968096 0.371469 0.2402984 0.8968096 0.371469 -0.2403 0.8968092 0.3714692 -0.2403 0.8968092 0.3714692 -0.2403 0.8968092 0.3714692 -0.240298 0.8968084 0.3714721 -0.240298 0.8968084 0.3714721 -0.240298 0.8968084 0.3714721 -0.65651 0.65651 0.3714691 -0.65651 0.65651 0.3714691 -0.65651 0.65651 0.3714691 -0.65651 0.65651 0.3714691 -0.65651 0.65651 0.3714691 -0.65651 0.65651 0.3714691 -0.896808 0.2402997 0.371472 -0.896808 0.2402997 0.371472 -0.896808 0.2402997 0.371472 -0.8968096 0.2402984 0.371469 -0.8968096 0.2402984 0.371469 -0.8968096 0.2402984 0.371469 -0.7760127 -0.2079311 0.5954569 -0.7760127 -0.2079311 0.5954569 -0.7760127 -0.2079311 0.5954569 -0.7760143 -0.207934 0.5954539 -0.7760143 -0.207934 0.5954539 -0.7760143 -0.207934 0.5954539 -0.5680803 -0.5680803 0.5954575 -0.5680803 -0.5680803 0.5954575 -0.5680803 -0.5680803 0.5954575 -0.5680802 -0.5680802 0.5954576 -0.5680802 -0.5680802 0.5954576 -0.5680802 -0.5680802 0.5954576 -0.2079316 -0.7760147 0.595454 -0.2079316 -0.7760147 0.595454 -0.2079316 -0.7760147 0.595454 -0.2079335 -0.7760118 0.5954572 -0.2079335 -0.7760118 0.5954572 -0.2079335 -0.7760118 0.5954572 0.2079311 -0.7760127 0.5954569 0.2079311 -0.7760127 0.5954569 0.2079311 -0.7760127 0.5954569 0.2079341 -0.7760144 0.5954537 0.2079341 -0.7760144 0.5954537 0.2079341 -0.7760144 0.5954537 0.5680803 -0.5680803 0.5954575 0.5680803 -0.5680803 0.5954575 0.5680803 -0.5680803 0.5954575 0.5680802 -0.5680802 0.5954576 0.5680802 -0.5680802 0.5954576 0.5680802 -0.5680802 0.5954576 0.7760147 -0.2079316 0.5954542 0.7760147 -0.2079316 0.5954542 0.7760147 -0.2079316 0.5954542 0.776012 -0.2079334 0.5954572 0.776012 -0.2079334 0.5954572 0.776012 -0.2079334 0.5954572 0.7760127 0.2079311 0.5954569 0.7760127 0.2079311 0.5954569 0.7760127 0.2079311 0.5954569 0.7760143 0.207934 0.5954539 0.7760143 0.207934 0.5954539 0.7760143 0.207934 0.5954539 0.5680803 0.5680803 0.5954575 0.5680803 0.5680803 0.5954575 0.5680803 0.5680803 0.5954575 0.5680802 0.5680802 0.5954576 0.5680802 0.5680802 0.5954576 0.5680802 0.5680802 0.5954576 0.2079316 0.7760147 0.595454 0.2079316 0.7760147 0.595454 0.2079316 0.7760147 0.595454 0.2079335 0.7760118 0.5954572 0.2079335 0.7760118 0.5954572 0.2079335 0.7760118 0.5954572 -0.2079311 0.7760127 0.5954569 -0.2079311 0.7760127 0.5954569 -0.2079311 0.7760127 0.5954569 -0.2079341 0.7760144 0.5954537 -0.2079341 0.7760144 0.5954537 -0.2079341 0.7760144 0.5954537 -0.5680803 0.5680803 0.5954575 -0.5680803 0.5680803 0.5954575 -0.5680803 0.5680803 0.5954575 -0.5680802 0.5680802 0.5954576 -0.5680802 0.5680802 0.5954576 -0.5680802 0.5680802 0.5954576 -0.7760147 0.2079316 0.5954542 -0.7760147 0.2079316 0.5954542 -0.7760147 0.2079316 0.5954542 -0.776012 0.2079334 0.5954572 -0.776012 0.2079334 0.5954572 -0.776012 0.2079334 0.5954572 -0.6008204 -0.1609905 0.7830051 -0.6008204 -0.1609905 0.7830051 -0.6008204 -0.1609905 0.7830051 -0.6008192 -0.1609883 0.7830065 -0.6008192 -0.1609883 0.7830065 -0.6008192 -0.1609883 0.7830065 -0.4398314 -0.4398314 0.7830049 -0.4398314 -0.4398314 0.7830049 -0.4398314 -0.4398314 0.7830049 -0.4398313 -0.4398313 0.783005 -0.4398313 -0.4398313 0.783005 -0.4398313 -0.4398313 0.783005 -0.1609902 -0.6008188 0.7830063 -0.1609902 -0.6008188 0.7830063 -0.1609902 -0.6008188 0.7830063 -0.1609889 -0.6008211 0.7830049 -0.1609889 -0.6008211 0.7830049 -0.1609889 -0.6008211 0.7830049 0.1609906 -0.6008203 0.7830051 0.1609906 -0.6008203 0.7830051 0.1609906 -0.6008203 0.7830051 0.1609883 -0.6008189 0.7830066 0.1609883 -0.6008189 0.7830066 0.1609883 -0.6008189 0.7830066 0.4398314 -0.4398314 0.7830049 0.4398314 -0.4398314 0.7830049 0.4398314 -0.4398314 0.7830049 0.4398313 -0.4398313 0.783005 0.4398313 -0.4398313 0.783005 0.4398313 -0.4398313 0.783005 0.6008189 -0.1609901 0.7830063 0.6008189 -0.1609901 0.7830063 0.6008189 -0.1609901 0.7830063 0.6008211 -0.1609889 0.7830049 0.6008211 -0.1609889 0.7830049 0.6008211 -0.1609889 0.7830049 0.6008204 0.1609905 0.7830051 0.6008204 0.1609905 0.7830051 0.6008204 0.1609905 0.7830051 0.6008192 0.1609883 0.7830065 0.6008192 0.1609883 0.7830065 0.6008192 0.1609883 0.7830065 0.4398314 0.4398314 0.7830049 0.4398314 0.4398314 0.7830049 0.4398314 0.4398314 0.7830049 0.4398313 0.4398313 0.783005 0.4398313 0.4398313 0.783005 0.4398313 0.4398313 0.783005 0.1609902 0.6008188 0.7830063 0.1609902 0.6008188 0.7830063 0.1609902 0.6008188 0.7830063 0.1609889 0.6008211 0.7830049 0.1609889 0.6008211 0.7830049 0.1609889 0.6008211 0.7830049 -0.1609906 0.6008203 0.7830051 -0.1609906 0.6008203 0.7830051 -0.1609906 0.6008203 0.7830051 -0.1609883 0.6008189 0.7830066 -0.1609883 0.6008189 0.7830066 -0.1609883 0.6008189 0.7830066 -0.4398314 0.4398314 0.7830049 -0.4398314 0.4398314 0.7830049 -0.4398314 0.4398314 0.7830049 -0.4398313 0.4398313 0.783005 -0.4398313 0.4398313 0.783005 -0.4398313 0.4398313 0.783005 -0.6008189 0.1609901 0.7830063 -0.6008189 0.1609901 0.7830063 -0.6008189 0.1609901 0.7830063 -0.6008211 0.1609889 0.7830049 -0.6008211 0.1609889 0.7830049 -0.6008211 0.1609889 0.7830049 -0.3806893 -0.102005 0.9190596 -0.3806893 -0.102005 0.9190596 -0.3806893 -0.102005 0.9190596 -0.3806892 -0.1020045 0.9190598 -0.3806892 -0.1020045 0.9190598 -0.3806892 -0.1020045 0.9190598 -0.278684 -0.278684 0.9190595 -0.278684 -0.278684 0.9190595 -0.278684 -0.278684 0.9190595 -0.278684 -0.278684 0.9190595 -0.278684 -0.278684 0.9190595 -0.278684 -0.278684 0.9190595 -0.1020049 -0.3806891 0.9190597 -0.1020049 -0.3806891 0.9190597 -0.1020049 -0.3806891 0.9190597 -0.1020046 -0.3806895 0.9190596 -0.1020046 -0.3806895 0.9190596 -0.1020046 -0.3806895 0.9190596 0.102005 -0.3806893 0.9190596 0.102005 -0.3806893 0.9190596 0.102005 -0.3806893 0.9190596 0.1020045 -0.3806892 0.9190598 0.1020045 -0.3806892 0.9190598 0.1020045 -0.3806892 0.9190598 0.278684 -0.278684 0.9190595 0.278684 -0.278684 0.9190595 0.278684 -0.278684 0.9190595 0.278684 -0.278684 0.9190595 0.278684 -0.278684 0.9190595 0.278684 -0.278684 0.9190595 0.3806891 -0.1020049 0.9190597 0.3806891 -0.1020049 0.9190597 0.3806891 -0.1020049 0.9190597 0.3806895 -0.1020046 0.9190596 0.3806895 -0.1020046 0.9190596 0.3806895 -0.1020046 0.9190596 0.3806893 0.102005 0.9190596 0.3806893 0.102005 0.9190596 0.3806893 0.102005 0.9190596 0.3806892 0.1020045 0.9190598 0.3806892 0.1020045 0.9190598 0.3806892 0.1020045 0.9190598 0.278684 0.278684 0.9190595 0.278684 0.278684 0.9190595 0.278684 0.278684 0.9190595 0.278684 0.278684 0.9190595 0.278684 0.278684 0.9190595 0.278684 0.278684 0.9190595 0.1020049 0.3806891 0.9190597 0.1020049 0.3806891 0.9190597 0.1020049 0.3806891 0.9190597 0.1020046 0.3806895 0.9190596 0.1020046 0.3806895 0.9190596 0.1020046 0.3806895 0.9190596 -0.102005 0.3806893 0.9190596 -0.102005 0.3806893 0.9190596 -0.102005 0.3806893 0.9190596 -0.1020045 0.3806892 0.9190598 -0.1020045 0.3806892 0.9190598 -0.1020045 0.3806892 0.9190598 -0.278684 0.278684 0.9190595 -0.278684 0.278684 0.9190595 -0.278684 0.278684 0.9190595 -0.278684 0.278684 0.9190595 -0.278684 0.278684 0.9190595 -0.278684 0.278684 0.9190595 -0.3806891 0.1020049 0.9190597 -0.3806891 0.1020049 0.9190597 -0.3806891 0.1020049 0.9190597 -0.3806895 0.1020046 0.9190596 -0.3806895 0.1020046 0.9190596 -0.3806895 0.1020046 0.9190596 -0.1304458 -0.0349525 0.9908391 -0.1304458 -0.0349525 0.9908391 -0.1304458 -0.0349525 0.9908391 1.0 0.0 0.0 1.0 0.0 0.0 -0.0954928 -0.0954928 0.9908392 -0.0954928 -0.0954928 0.9908392 -0.0954928 -0.0954928 0.9908392 1.0 0.0 0.0 1.0 0.0 0.0 -0.0349525 -0.1304458 0.9908391 -0.0349525 -0.1304458 0.9908391 -0.0349525 -0.1304458 0.9908391 1.0 0.0 0.0 1.0 0.0 0.0 0.0349525 -0.1304458 0.9908391 0.0349525 -0.1304458 0.9908391 0.0349525 -0.1304458 0.9908391 1.0 0.0 0.0 1.0 0.0 0.0 0.0954928 -0.0954928 0.9908392 0.0954928 -0.0954928 0.9908392 0.0954928 -0.0954928 0.9908392 1.0 0.0 0.0 1.0 0.0 0.0 0.1304458 -0.0349525 0.9908391 0.1304458 -0.0349525 0.9908391 0.1304458 -0.0349525 0.9908391 1.0 0.0 0.0 1.0 0.0 0.0 0.1304458 0.0349525 0.9908391 0.1304458 0.0349525 0.9908391 0.1304458 0.0349525 0.9908391 1.0 0.0 0.0 1.0 0.0 0.0 0.0954928 0.0954928 0.9908392 0.0954928 0.0954928 0.9908392 0.0954928 0.0954928 0.9908392 1.0 0.0 0.0 1.0 0.0 0.0 0.0349525 0.1304458 0.9908391 0.0349525 0.1304458 0.9908391 0.0349525 0.1304458 0.9908391 1.0 0.0 0.0 1.0 0.0 0.0 -0.0349525 0.1304458 0.9908391 -0.0349525 0.1304458 0.9908391 -0.0349525 0.1304458 0.9908391 1.0 0.0 0.0 1.0 0.0 0.0 -0.0954928 0.0954928 0.9908392 -0.0954928 0.0954928 0.9908392 -0.0954928 0.0954928 0.9908392 1.0 0.0 0.0 1.0 0.0 0.0 -0.1304458 0.0349525 0.9908391 -0.1304458 0.0349525 0.9908391 -0.1304458 0.0349525 0.9908391 1.0 0.0 0.0 1.0 0.0 0.0 1.0 0.0 0.0 1.0 0.0 0.0 -0.1304459 -0.0349526 -0.9908391 -0.1304459 -0.0349526 -0.9908391 -0.1304459 -0.0349526 -0.9908391 1.0 0.0 0.0 1.0 0.0 0.0 -0.0954929 -0.0954929 -0.9908391 -0.0954929 -0.0954929 -0.9908391 -0.0954929 -0.0954929 -0.9908391 1.0 0.0 0.0 1.0 0.0 0.0 -0.0349526 -0.130446 -0.9908391 -0.0349526 -0.130446 -0.9908391 -0.0349526 -0.130446 -0.9908391 1.0 0.0 0.0 1.0 0.0 0.0 0.0349526 -0.1304459 -0.9908391 0.0349526 -0.1304459 -0.9908391 0.0349526 -0.1304459 -0.9908391 1.0 0.0 0.0 1.0 0.0 0.0 0.0954929 -0.0954929 -0.9908391 0.0954929 -0.0954929 -0.9908391 0.0954929 -0.0954929 -0.9908391 1.0 0.0 0.0 1.0 0.0 0.0 0.130446 -0.0349526 -0.9908391 0.130446 -0.0349526 -0.9908391 0.130446 -0.0349526 -0.9908391 1.0 0.0 0.0 1.0 0.0 0.0 0.1304459 0.0349526 -0.9908391 0.1304459 0.0349526 -0.9908391 0.1304459 0.0349526 -0.9908391 1.0 0.0 0.0 1.0 0.0 0.0 0.0954929 0.0954929 -0.9908391 0.0954929 0.0954929 -0.9908391 0.0954929 0.0954929 -0.9908391 1.0 0.0 0.0 1.0 0.0 0.0 0.0349526 0.130446 -0.9908391 0.0349526 0.130446 -0.9908391 0.0349526 0.130446 -0.9908391 1.0 0.0 0.0 1.0 0.0 0.0 -0.0349526 0.1304459 -0.9908391 -0.0349526 0.1304459 -0.9908391 -0.0349526 0.1304459 -0.9908391 1.0 0.0 0.0 1.0 0.0 0.0 -0.0954929 0.0954929 -0.9908391 -0.0954929 0.0954929 -0.9908391 -0.0954929 0.0954929 -0.9908391 1.0 0.0 0.0 1.0 0.0 0.0 -0.130446 0.0349526 -0.9908391 -0.130446 0.0349526 -0.9908391 -0.130446 0.0349526 -0.9908391 -0.3806894 -0.1020045 -0.9190596 -0.3806894 -0.1020045 -0.9190596 -0.3806894 -0.1020045 -0.9190596 -0.380689 -0.1020049 -0.9190598 -0.380689 -0.1020049 -0.9190598 -0.380689 -0.1020049 -0.9190598 -0.278684 -0.278684 -0.9190596 -0.278684 -0.278684 -0.9190596 -0.278684 -0.278684 -0.9190596 -0.2786839 -0.2786839 -0.9190596 -0.2786839 -0.2786839 -0.9190596 -0.2786839 -0.2786839 -0.9190596 -0.1020044 -0.380689 -0.9190598 -0.1020044 -0.380689 -0.9190598 -0.1020044 -0.380689 -0.9190598 -0.1020049 -0.3806892 -0.9190597 -0.1020049 -0.3806892 -0.9190597 -0.1020049 -0.3806892 -0.9190597 0.1020045 -0.3806894 -0.9190596 0.1020045 -0.3806894 -0.9190596 0.1020045 -0.3806894 -0.9190596 0.1020049 -0.380689 -0.9190598 0.1020049 -0.380689 -0.9190598 0.1020049 -0.380689 -0.9190598 0.278684 -0.278684 -0.9190596 0.278684 -0.278684 -0.9190596 0.278684 -0.278684 -0.9190596 0.2786839 -0.2786839 -0.9190596 0.2786839 -0.2786839 -0.9190596 0.2786839 -0.2786839 -0.9190596 0.380689 -0.1020044 -0.9190598 0.380689 -0.1020044 -0.9190598 0.380689 -0.1020044 -0.9190598 0.3806892 -0.1020049 -0.9190597 0.3806892 -0.1020049 -0.9190597 0.3806892 -0.1020049 -0.9190597 0.3806894 0.1020045 -0.9190596 0.3806894 0.1020045 -0.9190596 0.3806894 0.1020045 -0.9190596 0.380689 0.1020049 -0.9190598 0.380689 0.1020049 -0.9190598 0.380689 0.1020049 -0.9190598 0.278684 0.278684 -0.9190596 0.278684 0.278684 -0.9190596 0.278684 0.278684 -0.9190596 0.2786839 0.2786839 -0.9190596 0.2786839 0.2786839 -0.9190596 0.2786839 0.2786839 -0.9190596 0.1020044 0.380689 -0.9190598 0.1020044 0.380689 -0.9190598 0.1020044 0.380689 -0.9190598 0.1020049 0.3806892 -0.9190597 0.1020049 0.3806892 -0.9190597 0.1020049 0.3806892 -0.9190597 -0.1020045 0.3806894 -0.9190596 -0.1020045 0.3806894 -0.9190596 -0.1020045 0.3806894 -0.9190596 -0.1020049 0.380689 -0.9190598 -0.1020049 0.380689 -0.9190598 -0.1020049 0.380689 -0.9190598 -0.278684 0.278684 -0.9190596 -0.278684 0.278684 -0.9190596 -0.278684 0.278684 -0.9190596 -0.2786839 0.2786839 -0.9190596 -0.2786839 0.2786839 -0.9190596 -0.2786839 0.2786839 -0.9190596 -0.380689 0.1020044 -0.9190598 -0.380689 0.1020044 -0.9190598 -0.380689 0.1020044 -0.9190598 -0.3806892 0.1020049 -0.9190597 -0.3806892 0.1020049 -0.9190597 -0.3806892 0.1020049 -0.9190597 -0.6008213 -0.1609889 -0.7830048 -0.6008213 -0.1609889 -0.7830048 -0.6008213 -0.1609889 -0.7830048 -0.6008191 -0.1609902 -0.7830062 -0.6008191 -0.1609902 -0.7830062 -0.6008191 -0.1609902 -0.7830062 -0.4398315 -0.4398315 -0.7830048 -0.4398315 -0.4398315 -0.7830048 -0.4398315 -0.4398315 -0.7830048 -0.4398315 -0.4398315 -0.7830049 -0.4398315 -0.4398315 -0.7830049 -0.4398315 -0.4398315 -0.7830049 -0.1609883 -0.6008191 -0.7830064 -0.1609883 -0.6008191 -0.7830064 -0.1609883 -0.6008191 -0.7830064 -0.1609907 -0.6008204 -0.783005 -0.1609907 -0.6008204 -0.783005 -0.1609907 -0.6008204 -0.783005 0.1609889 -0.6008213 -0.7830048 0.1609889 -0.6008213 -0.7830048 0.1609889 -0.6008213 -0.7830048 0.1609903 -0.6008189 -0.7830062 0.1609903 -0.6008189 -0.7830062 0.1609903 -0.6008189 -0.7830062 0.4398315 -0.4398315 -0.7830048 0.4398315 -0.4398315 -0.7830048 0.4398315 -0.4398315 -0.7830048 0.4398315 -0.4398315 -0.7830049 0.4398315 -0.4398315 -0.7830049 0.4398315 -0.4398315 -0.7830049 0.6008193 -0.1609884 -0.7830064 0.6008193 -0.1609884 -0.7830064 0.6008193 -0.1609884 -0.7830064 0.6008204 -0.1609906 -0.783005 0.6008204 -0.1609906 -0.783005 0.6008204 -0.1609906 -0.783005 0.6008213 0.1609889 -0.7830048 0.6008213 0.1609889 -0.7830048 0.6008213 0.1609889 -0.7830048 0.6008191 0.1609902 -0.7830062 0.6008191 0.1609902 -0.7830062 0.6008191 0.1609902 -0.7830062 0.4398315 0.4398315 -0.7830048 0.4398315 0.4398315 -0.7830048 0.4398315 0.4398315 -0.7830048 0.4398315 0.4398315 -0.7830049 0.4398315 0.4398315 -0.7830049 0.4398315 0.4398315 -0.7830049 0.1609883 0.6008191 -0.7830064 0.1609883 0.6008191 -0.7830064 0.1609883 0.6008191 -0.7830064 0.1609907 0.6008204 -0.783005 0.1609907 0.6008204 -0.783005 0.1609907 0.6008204 -0.783005 -0.1609889 0.6008213 -0.7830048 -0.1609889 0.6008213 -0.7830048 -0.1609889 0.6008213 -0.7830048 -0.1609903 0.6008189 -0.7830062 -0.1609903 0.6008189 -0.7830062 -0.1609903 0.6008189 -0.7830062 -0.4398315 0.4398315 -0.7830048 -0.4398315 0.4398315 -0.7830048 -0.4398315 0.4398315 -0.7830048 -0.4398315 0.4398315 -0.7830049 -0.4398315 0.4398315 -0.7830049 -0.4398315 0.4398315 -0.7830049 -0.6008193 0.1609884 -0.7830064 -0.6008193 0.1609884 -0.7830064 -0.6008193 0.1609884 -0.7830064 -0.6008204 0.1609906 -0.783005 -0.6008204 0.1609906 -0.783005 -0.6008204 0.1609906 -0.783005 -0.7760118 -0.2079333 -0.5954574 -0.7760118 -0.2079333 -0.5954574 -0.7760118 -0.2079333 -0.5954574 -0.7760145 -0.2079316 -0.5954543 -0.7760145 -0.2079316 -0.5954543 -0.7760145 -0.2079316 -0.5954543</float_array>
                    <technique_common>
                        <accessor count="840" source="#geometry0-normal-array" stride="3">
                            <param name="X" type="float"/>
                            <param name="Y" type="float"/>
                            <param name="Z" type="float"/>
                        </accessor>
                    </technique_common>
                </source>
                <vertices id="geometry0-vertex">
                    <input semantic="POSITION" source="#geometry0-position"/>
                </vertices>
                <triangles count="288" material="default_ai_0.2_sh_0.2_tr_0.0_dc_r_0.8_g_0.8_b_0.8_sc_r_1.0_g_1.0_b_1.0_ec_r_0.0_g_0.0_b_0_tri">
                    <input offset="0" semantic="VERTEX" source="#geometry0-vertex"/>
                    <input offset="1" semantic="NORMAL" source="#geometry0-normal"/>
                    <p>25 0 27 1 39 2 25 3 39 4 37 5 27 6 28 7 40 8 27 9 40 10 39 11 28 12 29 13 41 14 28 15 41 16 40 17 29 18 30 19 42 20 29 21 42 22 41 23 30 24 31 25 43 26 30 27 43 28 42 29 31 30 32 31 44 32 31 33 44 34 43 35 32 36 33 37 45 38 32 39 45 40 44 41 33 42 34 43 46 44 33 45 46 46 45 47 34 48 35 49 47 50 34 51 47 52 46 53 35 54 36 55 48 56 35 57 48 58 47 59 36 60 26 61 38 62 36 63 38 64 48 65 38 66 37 67 49 68 38 69 49 70 50 71 37 72 39 73 51 74 37 75 51 76 49 77 39 78 40 79 52 80 39 81 52 82 51 83 40 84 41 85 53 86 40 87 53 88 52 89 41 90 42 91 54 92 41 93 54 94 53 95 42 96 43 97 55 98 42 99 55 100 54 101 43 102 44 103 56 104 43 105 56 106 55 107 44 108 45 109 57 110 44 111 57 112 56 113 45 114 46 115 58 116 45 117 58 118 57 119 46 120 47 121 59 122 46 123 59 124 58 125 47 126 48 127 60 128 47 129 60 130 59 131 48 132 38 133 50 134 48 135 50 136 60 137 50 138 49 139 61 140 50 141 61 142 62 143 49 144 51 145 63 146 49 147 63 148 61 149 51 150 52 151 64 152 51 153 64 154 63 155 52 156 53 157 65 158 52 159 65 160 64 161 53 162 54 163 66 164 53 165 66 166 65 167 54 168 55 169 67 170 54 171 67 172 66 173 55 174 56 175 68 176 55 177 68 178 67 179 56 180 57 181 69 182 56 183 69 184 68 185 57 186 58 187 70 188 57 189 70 190 69 191 58 192 59 193 71 194 58 195 71 196 70 197 59 198 60 199 72 200 59 201 72 202 71 203 60 204 50 205 62 206 60 207 62 208 72 209 62 210 61 211 73 212 62 213 73 214 74 215 61 216 63 217 75 218 61 219 75 220 73 221 63 222 64 223 76 224 63 225 76 226 75 227 64 228 65 229 77 230 64 231 77 232 76 233 65 234 66 235 78 236 65 237 78 238 77 239 66 240 67 241 79 242 66 243 79 244 78 245 67 246 68 247 80 248 67 249 80 250 79 251 68 252 69 253 81 254 68 255 81 256 80 257 69 258 70 259 82 260 69 261 82 262 81 263 70 264 71 265 83 266 70 267 83 268 82 269 71 270 72 271 84 272 71 273 84 274 83 275 72 276 62 277 74 278 72 279 74 280 84 281 74 282 73 283 85 284 74 285 85 286 86 287 73 288 75 289 87 290 73 291 87 292 85 293 75 294 76 295 88 296 75 297 88 298 87 299 76 300 77 301 89 302 76 303 89 304 88 305 77 306 78 307 90 308 77 309 90 310 89 311 78 312 79 313 91 314 78 315 91 316 90 317 79 318 80 319 92 320 79 321 92 322 91 323 80 324 81 325 93 326 80 327 93 328 92 329 81 330 82 331 94 332 81 333 94 334 93 335 82 336 83 337 95 338 82 339 95 340 94 341 83 342 84 343 96 344 83 345 96 346 95 347 84 348 74 349 86 350 84 351 86 352 96 353 86 354 85 355 97 356 86 357 97 358 98 359 85 360 87 361 99 362 85 363 99 364 97 365 87 366 88 367 100 368 87 369 100 370 99 371 88 372 89 373 101 374 88 375 101 376 100 377 89 378 90 379 102 380 89 381 102 382 101 383 90 384 91 385 103 386 90 387 103 388 102 389 91 390 92 391 104 392 91 393 104 394 103 395 92 396 93 397 105 398 92 399 105 400 104 401 93 402 94 403 106 404 93 405 106 406 105 407 94 408 95 409 107 410 94 411 107 412 106 413 95 414 96 415 108 416 95 417 108 418 107 419 96 420 86 421 98 422 96 423 98 424 108 425 98 426 97 427 109 428 98 429 109 430 110 431 97 432 99 433 111 434 97 435 111 436 109 437 99 438 100 439 112 440 99 441 112 442 111 443 100 444 101 445 113 446 100 447 113 448 112 449 101 450 102 451 114 452 101 453 114 454 113 455 102 456 103 457 115 458 102 459 115 460 114 461 103 462 104 463 116 464 103 465 116 466 115 467 104 468 105 469 117 470 104 471 117 472 116 473 105 474 106 475 118 476 105 477 118 478 117 479 106 480 107 481 119 482 106 483 119 484 118 485 107 486 108 487 120 488 107 489 120 490 119 491 108 492 98 493 110 494 108 495 110 496 120 497 110 498 109 499 121 500 110 501 121 502 122 503 109 504 111 505 123 506 109 507 123 508 121 509 111 510 112 511 124 512 111 513 124 514 123 515 112 516 113 517 125 518 112 519 125 520 124 521 113 522 114 523 126 524 113 525 126 526 125 527 114 528 115 529 127 530 114 531 127 532 126 533 115 534 116 535 128 536 115 537 128 538 127 539 116 540 117 541 129 542 116 543 129 544 128 545 117 546 118 547 130 548 117 549 130 550 129 551 118 552 119 553 131 554 118 555 131 556 130 557 119 558 120 559 132 560 119 561 132 562 131 563 120 564 110 565 122 566 120 567 122 568 132 569 122 570 121 571 133 572 122 573 133 574 133 574 121 575 123 576 133 577 121 578 133 579 133 579 123 580 124 581 133 582 123 583 133 584 133 584 124 585 125 586 133 587 124 588 133 589 133 589 125 590 126 591 133 592 125 593 133 594 133 594 126 595 127 596 133 597 126 598 133 599 133 599 127 600 128 601 133 602 127 603 133 604 133 604 128 605 129 606 133 607 128 608 133 609 133 609 129 610 130 611 133 612 129 613 133 614 133 614 130 615 131 616 133 617 130 618 133 619 133 619 131 620 132 621 133 622 131 623 133 624 133 624 132 625 122 626 133 627 132 628 133 629 133 629 0 630 0 630 1 631 0 632 1 633 2 634 0 635 0 635 3 636 0 637 3 638 1 639 0 640 0 640 4 641 0 642 4 643 3 644 0 645 0 645 5 646 0 647 5 648 4 649 0 650 0 650 6 651 0 652 6 653 5 654 0 655 0 655 7 656 0 657 7 658 6 659 0 660 0 660 8 661 0 662 8 663 7 664 0 665 0 665 9 666 0 667 9 668 8 669 0 670 0 670 10 671 0 672 10 673 9 674 0 675 0 675 11 676 0 677 11 678 10 679 0 680 0 680 12 681 0 682 12 683 11 684 0 685 0 685 2 686 0 687 2 688 12 689 2 690 1 691 13 692 2 693 13 694 14 695 1 696 3 697 15 698 1 699 15 700 13 701 3 702 4 703 16 704 3 705 16 706 15 707 4 708 5 709 17 710 4 711 17 712 16 713 5 714 6 715 18 716 5 717 18 718 17 719 6 720 7 721 19 722 6 723 19 724 18 725 7 726 8 727 20 728 7 729 20 730 19 731 8 732 9 733 21 734 8 735 21 736 20 737 9 738 10 739 22 740 9 741 22 742 21 743 10 744 11 745 23 746 10 747 23 748 22 749 11 750 12 751 24 752 11 753 24 754 23 755 12 756 2 757 14 758 12 759 14 760 24 761 14 762 13 763 25 764 14 765 25 766 26 767 13 768 15 769 27 770 13 771 27 772 25 773 15 774 16 775 28 776 15 777 28 778 27 779 16 780 17 781 29 782 16 783 29 784 28 785 17 786 18 787 30 788 17 789 30 790 29 791 18 792 19 793 31 794 18 795 31 796 30 797 19 798 20 799 32 800 19 801 32 802 31 803 20 804 21 805 33 806 20 807 33 808 32 809 21 810 22 811 34 812 21 813 34 814 33 815 22 816 23 817 35 818 22 819 35 820 34 821 23 822 24 823 36 824 23 825 36 826 35 827 24 828 14 829 26 830 24 831 26 832 36 833 26 834 25 835 37 836 26 837 37 838 38 839</p>
                </triangles>
            </mesh>
        </geometry>
    </library_geometries>
    <library_visual_scenes>
        <visual_scene id="Building_10_CROWN2">
            <node>
                <instance_geometry url="#geometry0">
                    <bind_material>
                        <technique_common>
                            <instance_material symbol="default_ai_0.2_sh_0.2_tr_0.0_dc_r_0.8_g_0.8_b_0.8_sc_r_1.0_g_1.0_b_1.0_ec_r_0.0_g_0.0_b_0_tri" target="#default_ai_0.2_sh_0.2_tr_0.0_dc_r_0.8_g_0.8_b_0.8_sc_r_1.0_g_1.0_b_1.0_ec_r_0.0_g_0.0_b_0_mat"/>
                        </technique_common>
                    </bind_material>
                </instance_geometry>
            </node>
        </visual_scene>
    </library_visual_scenes>
    <scene>
        <instance_visual_scene url="#Building_10_CROWN2"/>
    </scene>
</COLLADA>
