<?xml version="1.0" encoding="UTF-8" standalone="yes"?>
<COLLADA xmlns="http://www.collada.org/2005/11/COLLADASchema" version="1.4.1">
    <asset>
        <contributor>
            <authoring_tool>3D City Database Importer/Exporter, version 5.5.3; Chair of Geoinformatics, Technical University of Munich</authoring_tool>
        </contributor>
        <created>2026-09-25T14:44:58.348</created>
        <modified>2026-09-25T14:44:58.348</modified>
        <unit meter="1.0" name="meters"/>
        <up_axis>Z_UP</up_axis>
    </asset>
    <library_materials>
        <material id="default_ai_0.2_sh_0.2_tr_0.0_dc_r_0.8_g_0.8_b_0.8_sc_r_1.0_g_1.0_b_1.0_ec_r_0.0_g_0.0_b_0_mat">
            <instance_effect url="#default_ai_0.2_sh_0.2_tr_0.0_dc_r_0.8_g_0.8_b_0.8_sc_r_1.0_g_1.0_b_1.0_ec_r_0.0_g_0.0_b_0_eff"/>
        </material>
    </library_materials>
    <library_effects>
        <effect id="default_ai_0.2_sh_0.2_tr_0.0_dc_r_0.8_g_0.8_b_0.8_sc_r_1.0_g_1.0_b_1.0_ec_r_0.0_g_0.0_b_0_eff">
            <profile_COMMON>
                <technique sid="COMMON">
                    <lambert>
                        <emission>
                            <color>0.0 0.0 0.0 1.0</color>
                        </emission>
                        <diffuse>
                            <color>0.8 0.8 0.8 1.0</color>
                        </diffuse>
                        <reflective>
                            <color>1.0 1.0 1.0 1.0</color>
                        </reflective>
                        <reflectivity>
                            <float>0.2</float>
                        </reflectivity>
                        <transparent opaque="A_ONE">
                            <color>1.0 1.0 1.0 1.0</color>
                        </transparent>
                        <transparency>
                            <float>1.0</float>
                        </transparency>
                    </lambert>
                </technique>
                <extra>
                    <technique profile="GOOGLEEARTH">
                        <double_sided>0</double_sided>
                    </technique>
                </extra>
            </profile_COMMON>
        </effect>
    </library_effects>
    <library_geometries>
        <geometry id="geometry0">
            <mesh>
                <source id="geometry0-position">
                    <float_array id="geometry0-position-array" count="402">0.0 0.0 2.7 0.3025944 0.1747035 2.6540001 0.3494056 0.0 2.6540001 0.1747035 0.3025944 2.6540001 0.0 0.3494057 2.6540001 -0.1747035 0.3025944 2.6540001 -0.3025944 0.1747035 2.6540001 -0.3494056 0.0 2.6540001 -0.3025944 -0.1747035 2.6540001 -0.1747035 -0.3025944 2.6540001 0.0 -0.3494057 2.6540001 0.1747035 -0.3025944 2.6540001 0.3025944 -0.1747035 2.6540001 0.5845675 0.3375 2.5191338 0.675 0.0 2.5191338 0.3375 0.5845675 2.5191338 0.0 0.675 2.5191338 -0.3375 0.5845675 2.5191338 -0.5845675 0.3375 2.5191338 -0.675 0.0 2.5191338 -0.5845675 -0.3375 2.5191338 -0.3375 -0.5845675 2.5191338 0.0 -0.675 2.5191338 0.3375 -0.5845675 2.5191338 0.5845675 -0.3375 2.5191338 0.8267022 0.4772965 2.3045944 0.9545945 0.0 2.3045944 0.4772966 0.8267022 2.3045944 0.0 0.9545945 2.3045944 -0.4772966 0.8267022 2.3045944 -0.8267022 0.4772965 2.3045944 -0.9545945 0.0 2.3045944 -0.8267022 -0.4772965 2.3045944 -0.4772966 -0.8267022 2.3045944 0.0 -0.9545945 2.3045944 0.4772966 -0.8267022 2.3045944 0.8267022 -0.4772965 2.3045944 1.0125 0.5845675 2.025 1.1691338 0.0 2.025 0.5845675 1.0125 2.025 0.0 1.1691337 2.025 -0.5845675 1.0125 2.025 -1.0125 0.5845675 2.025 -1.1691338 0.0 2.025 -1.0125 -0.5845675 2.025 -0.5845675 -1.0125 2.025 0.0 -1.1691337 2.025 0.5845675 -1.0125 2.025 1.0125 -0.5845675 2.025 1.1292966 0.6520001 1.6994057 1.3040001 0.0 1.6994057 0.6520001 1.1292966 1.6994057 0.0 1.3040001 1.6994057 -0.6520001 1.1292966 1.6994057 -1.1292966 0.6520001 1.6994057 -1.3040001 0.0 1.6994057 -1.1292966 -0.6520001 1.6994057 -0.6520001 -1.1292966 1.6994057 0.0 -1.3040001 1.6994057 0.6520001 -1.1292966 1.6994057 1.1292966 -0.6520001 1.6994057 1.1691338 0.675 1.35 1.35 0.0 1.35 0.675 1.1691337 1.35 0.0 1.35 1.35 -0.675 1.1691337 1.35 -1.1691338 0.675 1.35 -1.35 0.0 1.35 -1.1691338 -0.675 1.35 -0.675 -1.1691337 1.35 0.0 -1.35 1.35 0.675 -1.1691337 1.35 1.1691338 -0.675 1.35 1.1292966 0.6520001 1.0005944 1.3040001 0.0 1.0005944 0.6520001 1.1292966 1.0005944 0.0 1.3040001 1.0005944 -0.6520001 1.1292966 1.0005944 -1.1292966 0.6520001 1.0005944 -1.3040001 0.0 1.0005944 -1.1292966 -0.6520001 1.0005944 -0.6520001 -1.1292966 1.0005944 0.0 -1.3040001 1.0005944 0.6520001 -1.1292966 1.0005944 1.1292966 -0.6520001 1.0005944 1.0125 0.5845675 0.675 1.1691338 0.0 0.675 0.5845675 1.0125 0.675 0.0 1.1691337 0.675 -0.5845675 1.0125 0.675 -1.0125 0.5845675 0.675 -1.1691338 0.0 0.675 -1.0125 -0.5845675 0.675 -0.5845675 -1.0125 0.675 0.0 -1.1691337 0.675 0.5845675 -1.0125 0.675 1.0125 -0.5845675 0.675 0.8267022 0.4772965 0.3954055 0.9545945 0.0 0.3954055 0.4772966 0.8267022 0.3954055 0.0 0.9545945 0.3954055 -0.4772966 0.8267022 0.3954055 -0.8267022 0.4772965 0.3954055 -0.9545945 0.0 0.3954055 -0.8267022 -0.4772965 0.3954055 -0.4772966 -0.8267022 0.3954055 0.0 -0.9545945 0.3954055 0.4772966 -0.8267022 0.3954055 0.8267022 -0.4772965 0.3954055 0.5845675 0.3375 0.1808662 0.675 0.0 0.1808662 0.3375 0.5845675 0.1808662 0.0 0.675 0.1808662 -0.3375 0.5845675 0.1808662 -0.5845675 0.3375 0.1808662 -0.675 0.0 0.1808662 -0.5845675 -0.3375 0.1808662 -0.3375 -0.5845675 0.1808662 0.0 -0.675 0.1808662 0.3375 -0.5845675 0.1808662 0.5845675 -0.3375 0.1808662 0.3025944 0.1747035 0.0459999 0.3494056 0.0 0.0459999 0.1747035 0.3025944 0.0459999 0.0 0.3494057 0.0459999 -0.1747035 0.3025944 0.0459999 -0.3025944 0.1747035 0.0459999 -0.3494056 0.0 0.0459999 -0.3025944 -0.1747035 0.0459999 -0.1747035 -0.3025944 0.0459999 0.0 -0.3494057 0.0459999 0.1747035 -0.3025944 0.0459999 0.3025944 -0.1747035 0.0459999 0.0 0.0 0.0</float_array>
                    <technique_common>
                        <accessor count="134" source="#geometry0-position-array" stride="3">
                            <param name="X" type="float"/>
                            <param name="Y" type="float"/>
                            <param name="Z" type="float"/>
                        </accessor>
                    </technique_common>
                </source>
                <source id="geometry0-normal">
                    <float_array id="geometry0-normal-array" count="2520">-0.1020045 0.3806893 -0.9190597 -0.1020045 0.3806893 -0.9190597 -0.1020045 0.3806893 -0.9190597 -0.1020048 0.3806889 -0.9190599 -0.1020048 0.3806889 -0.9190599 -0.1020048 0.3806889 -0.9190599 -0.2786838 0.2786838 -0.9190597 -0.2786838 0.2786838 -0.9190597 -0.2786838 0.2786838 -0.9190597 -0.2786838 0.2786838 -0.9190596 -0.2786838 0.2786838 -0.9190596 -0.2786838 0.2786838 -0.9190596 -0.3806888 0.1020044 -0.9190599 -0.3806888 0.1020044 -0.9190599 -0.3806888 0.1020044 -0.9190599 -0.3806891 0.1020049 -0.9190598 -0.3806891 0.1020049 -0.9190598 -0.3806891 0.1020049 -0.9190598 -0.6008211 -0.1609889 -0.7830048 -0.6008211 -0.1609889 -0.7830048 -0.6008211 -0.1609889 -0.7830048 -0.6008189 -0.1609902 -0.7830063 -0.6008189 -0.1609902 -0.7830063 -0.6008189 -0.1609902 -0.7830063 -0.4398314 -0.4398314 -0.7830049 -0.4398314 -0.4398314 -0.7830049 -0.4398314 -0.4398314 -0.7830049 -0.4398314 -0.4398314 -0.783005 -0.4398314 -0.4398314 -0.783005 -0.4398314 -0.4398314 -0.783005 -0.1609883 -0.6008191 -0.7830065 -0.1609883 -0.6008191 -0.7830065 -0.1609883 -0.6008191 -0.7830065 -0.1609906 -0.6008204 -0.7830051 -0.1609906 -0.6008204 -0.7830051 -0.1609906 -0.6008204 -0.7830051 0.1609889 -0.6008211 -0.7830048 0.1609889 -0.6008211 -0.7830048 0.1609889 -0.6008211 -0.7830048 0.1609902 -0.6008189 -0.7830063 0.1609902 -0.6008189 -0.7830063 0.1609902 -0.6008189 -0.7830063 0.4398314 -0.4398314 -0.7830049 0.4398314 -0.4398314 -0.7830049 0.4398314 -0.4398314 -0.7830049 0.4398314 -0.4398314 -0.783005 0.4398314 -0.4398314 -0.783005 0.4398314 -0.4398314 -0.783005 0.6008191 -0.1609883 -0.7830065 0.6008191 -0.1609883 -0.7830065 0.6008191 -0.1609883 -0.7830065 0.6008204 -0.1609906 -0.7830051 0.6008204 -0.1609906 -0.7830051 0.6008204 -0.1609906 -0.7830051 0.6008211 0.1609889 -0.7830048 0.6008211 0.1609889 -0.7830048 0.6008211 0.1609889 -0.7830048 0.6008189 0.1609902 -0.7830063 0.6008189 0.1609902 -0.7830063 0.6008189 0.1609902 -0.7830063 0.4398314 0.4398314 -0.7830049 0.4398314 0.4398314 -0.7830049 0.4398314 0.4398314 -0.7830049 0.4398314 0.4398314 -0.783005 0.4398314 0.4398314 -0.783005 0.4398314 0.4398314 -0.783005 0.1609883 0.6008191 -0.7830065 0.1609883 0.6008191 -0.7830065 0.1609883 0.6008191 -0.7830065 0.1609906 0.6008204 -0.7830051 0.1609906 0.6008204 -0.7830051 0.1609906 0.6008204 -0.7830051 -0.1609889 0.6008211 -0.7830048 -0.1609889 0.6008211 -0.7830048 -0.1609889 0.6008211 -0.7830048 -0.1609902 0.6008189 -0.7830063 -0.1609902 0.6008189 -0.7830063 -0.1609902 0.6008189 -0.7830063 -0.4398314 0.4398314 -0.7830049 -0.4398314 0.4398314 -0.7830049 -0.4398314 0.4398314 -0.7830049 -0.4398314 0.4398314 -0.783005 -0.4398314 0.4398314 -0.783005 -0.4398314 0.4398314 -0.783005 -0.6008191 0.1609883 -0.7830065 -0.6008191 0.1609883 -0.7830065 -0.6008191 0.1609883 -0.7830065 -0.6008204 0.1609906 -0.7830051 -0.6008204 0.1609906 -0.7830051 -0.6008204 0.1609906 -0.7830051 -0.7760118 -0.2079334 -0.5954574 -0.7760118 -0.2079334 -0.5954574 -0.7760118 -0.2079334 -0.5954574 -0.7760146 -0.2079316 -0.5954542 -0.7760146 -0.2079316 -0.5954542 -0.7760146 -0.2079316 -0.5954542 -0.5680802 -0.5680802 -0.5954576 -0.5680802 -0.5680802 -0.5954576 -0.5680802 -0.5680802 -0.5954576 -0.5680802 -0.5680802 -0.5954576 -0.5680802 -0.5680802 -0.5954576 -0.5680802 -0.5680802 -0.5954576 -0.2079341 -0.7760142 -0.5954539 -0.2079341 -0.7760142 -0.5954539 -0.2079341 -0.7760142 -0.5954539 -0.2079311 -0.7760127 -0.5954571 -0.2079311 -0.7760127 -0.5954571 -0.2079311 -0.7760127 -0.5954571 0.2079334 -0.7760118 -0.5954574 0.2079334 -0.7760118 -0.5954574 0.2079334 -0.7760118 -0.5954574 0.2079316 -0.7760146 -0.5954542 0.2079316 -0.7760146 -0.5954542 0.2079316 -0.7760146 -0.5954542 0.5680802 -0.5680802 -0.5954576 0.5680802 -0.5680802 -0.5954576 0.5680802 -0.5680802 -0.5954576 0.5680802 -0.5680802 -0.5954576 0.5680802 -0.5680802 -0.5954576 0.5680802 -0.5680802 -0.5954576 0.7760142 -0.2079341 -0.5954539 0.7760142 -0.2079341 -0.5954539 0.7760142 -0.2079341 -0.5954539 0.7760127 -0.2079311 -0.5954571 0.7760127 -0.2079311 -0.5954571 0.7760127 -0.2079311 -0.5954571 0.7760118 0.2079334 -0.5954574 0.7760118 0.2079334 -0.5954574 0.7760118 0.2079334 -0.5954574 0.7760146 0.2079316 -0.5954542 0.7760146 0.2079316 -0.5954542 0.7760146 0.2079316 -0.5954542 0.5680802 0.5680802 -0.5954576 0.5680802 0.5680802 -0.5954576 0.5680802 0.5680802 -0.5954576 0.5680802 0.5680802 -0.5954576 0.5680802 0.5680802 -0.5954576 0.5680802 0.5680802 -0.5954576 0.2079341 0.7760142 -0.5954539 0.2079341 0.7760142 -0.5954539 0.2079341 0.7760142 -0.5954539 0.2079311 0.7760127 -0.5954571 0.2079311 0.7760127 -0.5954571 0.2079311 0.7760127 -0.5954571 -0.2079334 0.7760118 -0.5954574 -0.2079334 0.7760118 -0.5954574 -0.2079334 0.7760118 -0.5954574 -0.2079316 0.7760146 -0.5954542 -0.2079316 0.7760146 -0.5954542 -0.2079316 0.7760146 -0.5954542 -0.5680802 0.5680802 -0.5954576 -0.5680802 0.5680802 -0.5954576 -0.5680802 0.5680802 -0.5954576 -0.5680802 0.5680802 -0.5954576 -0.5680802 0.5680802 -0.5954576 -0.5680802 0.5680802 -0.5954576 -0.7760142 0.2079341 -0.5954539 -0.7760142 0.2079341 -0.5954539 -0.7760142 0.2079341 -0.5954539 -0.7760127 0.2079311 -0.5954571 -0.7760127 0.2079311 -0.5954571 -0.7760127 0.2079311 -0.5954571 -0.8968098 -0.2402984 -0.3714688 -0.8968098 -0.2402984 -0.3714688 -0.8968098 -0.2402984 -0.3714688 -0.8968079 -0.2402999 -0.371472 -0.8968079 -0.2402999 -0.371472 -0.8968079 -0.2402999 -0.371472 -0.6565101 -0.6565101 -0.3714689 -0.6565101 -0.6565101 -0.3714689 -0.6565101 -0.6565101 -0.3714689 -0.6565101 -0.6565101 -0.3714689 -0.6565101 -0.6565101 -0.3714689 -0.6565101 -0.6565101 -0.3714689 -0.2402981 -0.8968084 -0.3714722 -0.2402981 -0.8968084 -0.3714722 -0.2402981 -0.8968084 -0.3714722 -0.2403003 -0.8968091 -0.3714689 -0.2403003 -0.8968091 -0.3714689 -0.2403003 -0.8968091 -0.3714689 0.2402984 -0.8968098 -0.3714688 0.2402984 -0.8968098 -0.3714688 0.2402984 -0.8968098 -0.3714688 0.2402999 -0.8968079 -0.371472 0.2402999 -0.8968079 -0.371472 0.2402999 -0.8968079 -0.371472 0.6565101 -0.6565101 -0.3714689 0.6565101 -0.6565101 -0.3714689 0.6565101 -0.6565101 -0.3714689 0.6565101 -0.6565101 -0.3714689 0.6565101 -0.6565101 -0.3714689 0.6565101 -0.6565101 -0.3714689 0.8968084 -0.2402981 -0.3714722 0.8968084 -0.2402981 -0.3714722 0.8968084 -0.2402981 -0.3714722 0.8968091 -0.2403003 -0.3714689 0.8968091 -0.2403003 -0.3714689 0.8968091 -0.2403003 -0.3714689 0.8968098 0.2402984 -0.3714688 0.8968098 0.2402984 -0.3714688 0.8968098 0.2402984 -0.3714688 0.8968079 0.2402999 -0.371472 0.8968079 0.2402999 -0.371472 0.8968079 0.2402999 -0.371472 0.6565101 0.6565101 -0.3714689 0.6565101 0.6565101 -0.3714689 0.6565101 0.6565101 -0.3714689 0.6565101 0.6565101 -0.3714689 0.6565101 0.6565101 -0.3714689 0.6565101 0.6565101 -0.3714689 0.2402981 0.8968084 -0.3714722 0.2402981 0.8968084 -0.3714722 0.2402981 0.8968084 -0.3714722 0.2403003 0.8968091 -0.3714689 0.2403003 0.8968091 -0.3714689 0.2403003 0.8968091 -0.3714689 -0.2402984 0.8968098 -0.3714688 -0.2402984 0.8968098 -0.3714688 -0.2402984 0.8968098 -0.3714688 -0.2402999 0.8968079 -0.371472 -0.2402999 0.8968079 -0.371472 -0.2402999 0.8968079 -0.371472 -0.6565101 0.6565101 -0.3714689 -0.6565101 0.6565101 -0.3714689 -0.6565101 0.6565101 -0.3714689 -0.6565101 0.6565101 -0.3714689 -0.6565101 0.6565101 -0.3714689 -0.6565101 0.6565101 -0.3714689 -0.8968084 0.2402981 -0.3714722 -0.8968084 0.2402981 -0.3714722 -0.8968084 0.2402981 -0.3714722 -0.8968091 0.2403003 -0.3714689 -0.8968091 0.2403003 -0.3714689 -0.8968091 0.2403003 -0.3714689 -0.9582089 -0.2567523 -0.1261505 -0.9582089 -0.2567523 -0.1261505 -0.9582089 -0.2567523 -0.1261505 -0.958209 -0.2567521 -0.12615 -0.958209 -0.2567521 -0.12615 -0.958209 -0.2567521 -0.12615 -0.7014578 -0.7014578 -0.1261503 -0.7014578 -0.7014578 -0.1261503 -0.7014578 -0.7014578 -0.1261503 -0.7014578 -0.7014578 -0.1261503 -0.7014578 -0.7014578 -0.1261503 -0.7014578 -0.7014578 -0.1261503 -0.2567524 -0.958209 -0.12615 -0.2567524 -0.958209 -0.12615 -0.2567524 -0.958209 -0.12615 -0.256752 -0.958209 -0.1261504 -0.256752 -0.958209 -0.1261504 -0.256752 -0.958209 -0.1261504 0.2567523 -0.9582089 -0.1261505 0.2567523 -0.9582089 -0.1261505 0.2567523 -0.9582089 -0.1261505 0.2567521 -0.958209 -0.12615 0.2567521 -0.958209 -0.12615 0.2567521 -0.958209 -0.12615 0.7014578 -0.7014578 -0.1261503 0.7014578 -0.7014578 -0.1261503 0.7014578 -0.7014578 -0.1261503 0.7014578 -0.7014578 -0.1261503 0.7014578 -0.7014578 -0.1261503 0.7014578 -0.7014578 -0.1261503 0.958209 -0.2567524 -0.12615 0.958209 -0.2567524 -0.12615 0.958209 -0.2567524 -0.12615 0.958209 -0.256752 -0.1261504 0.958209 -0.256752 -0.1261504 0.958209 -0.256752 -0.1261504 0.9582089 0.2567523 -0.1261505 0.9582089 0.2567523 -0.1261505 0.9582089 0.2567523 -0.1261505 0.958209 0.2567521 -0.12615 0.958209 0.2567521 -0.12615 0.958209 0.2567521 -0.12615 0.7014578 0.7014578 -0.1261503 0.7014578 0.7014578 -0.1261503 0.7014578 0.7014578 -0.1261503 0.7014578 0.7014578 -0.1261503 0.7014578 0.7014578 -0.1261503 0.7014578 0.7014578 -0.1261503 0.2567524 0.958209 -0.12615 0.2567524 0.958209 -0.12615 0.2567524 0.958209 -0.12615 0.256752 0.958209 -0.1261504 0.256752 0.958209 -0.1261504 0.256752 0.958209 -0.1261504 -0.2567523 0.9582089 -0.1261505 -0.2567523 0.9582089 -0.1261505 -0.2567523 0.9582089 -0.1261505 -0.2567521 0.958209 -0.12615 -0.2567521 0.958209 -0.12615 -0.2567521 0.958209 -0.12615 -0.7014578 0.7014578 -0.1261503 -0.7014578 0.7014578 -0.1261503 -0.7014578 0.7014578 -0.1261503 -0.7014578 0.7014578 -0.1261503 -0.7014578 0.7014578 -0.1261503 -0.7014578 0.7014578 -0.1261503 -0.958209 0.2567524 -0.12615 -0.958209 0.2567524 -0.12615 -0.958209 0.2567524 -0.12615 -0.958209 0.256752 -0.1261504 -0.958209 0.256752 -0.1261504 -0.958209 0.256752 -0.1261504 -0.958209 -0.256752 0.1261505 -0.958209 -0.256752 0.1261505 -0.958209 -0.256752 0.1261505 -0.958209 -0.2567524 0.1261499 -0.958209 -0.2567524 0.1261499 -0.958209 -0.2567524 0.1261499 -0.7014578 -0.7014578 0.1261503 -0.7014578 -0.7014578 0.1261503 -0.7014578 -0.7014578 0.1261503 -0.7014578 -0.7014578 0.1261503 -0.7014578 -0.7014578 0.1261503 -0.7014578 -0.7014578 0.1261503 -0.2567521 -0.958209 0.12615 -0.2567521 -0.958209 0.12615 -0.2567521 -0.958209 0.12615 -0.2567523 -0.9582089 0.1261505 -0.2567523 -0.9582089 0.1261505 -0.2567523 -0.9582089 0.1261505 0.256752 -0.958209 0.1261505 0.256752 -0.958209 0.1261505 0.256752 -0.958209 0.1261505 0.2567524 -0.958209 0.1261499 0.2567524 -0.958209 0.1261499 0.2567524 -0.958209 0.1261499 0.7014578 -0.7014578 0.1261503 0.7014578 -0.7014578 0.1261503 0.7014578 -0.7014578 0.1261503 0.7014578 -0.7014578 0.1261503 0.7014578 -0.7014578 0.1261503 0.7014578 -0.7014578 0.1261503 0.958209 -0.2567521 0.12615 0.958209 -0.2567521 0.12615 0.958209 -0.2567521 0.12615 0.9582089 -0.2567523 0.1261505 0.9582089 -0.2567523 0.1261505 0.9582089 -0.2567523 0.1261505 0.958209 0.256752 0.1261505 0.958209 0.256752 0.1261505 0.958209 0.256752 0.1261505 0.958209 0.2567524 0.1261499 0.958209 0.2567524 0.1261499 0.958209 0.2567524 0.1261499 0.7014578 0.7014578 0.1261503 0.7014578 0.7014578 0.1261503 0.7014578 0.7014578 0.1261503 0.7014578 0.7014578 0.1261503 0.7014578 0.7014578 0.1261503 0.7014578 0.7014578 0.1261503 0.2567521 0.958209 0.12615 0.2567521 0.958209 0.12615 0.2567521 0.958209 0.12615 0.2567523 0.9582089 0.1261505 0.2567523 0.9582089 0.1261505 0.2567523 0.9582089 0.1261505 -0.256752 0.958209 0.1261505 -0.256752 0.958209 0.1261505 -0.256752 0.958209 0.1261505 -0.2567524 0.958209 0.1261499 -0.2567524 0.958209 0.1261499 -0.2567524 0.958209 0.1261499 -0.7014578 0.7014578 0.1261503 -0.7014578 0.7014578 0.1261503 -0.7014578 0.7014578 0.1261503 -0.7014578 0.7014578 0.1261503 -0.7014578 0.7014578 0.1261503 -0.7014578 0.7014578 0.1261503 -0.958209 0.2567521 0.12615 -0.958209 0.2567521 0.12615 -0.958209 0.2567521 0.12615 -0.9582089 0.2567523 0.1261505 -0.9582089 0.2567523 0.1261505 -0.9582089 0.2567523 0.1261505 -0.8968091 -0.2403003 0.371469 -0.8968091 -0.2403003 0.371469 -0.8968091 -0.2403003 0.371469 -0.8968083 -0.240298 0.3714723 -0.8968083 -0.240298 0.3714723 -0.8968083 -0.240298 0.3714723 -0.6565101 -0.6565101 0.3714689 -0.6565101 -0.6565101 0.3714689 -0.6565101 -0.6565101 0.3714689 -0.65651 -0.65651 0.371469 -0.65651 -0.65651 0.371469 -0.65651 -0.65651 0.371469 -0.2403 -0.896808 0.3714721 -0.2403 -0.896808 0.3714721 -0.2403 -0.896808 0.3714721 -0.2402984 -0.8968097 0.3714688 -0.2402984 -0.8968097 0.3714688 -0.2402984 -0.8968097 0.3714688 0.2403003 -0.8968091 0.371469 0.2403003 -0.8968091 0.371469 0.2403003 -0.8968091 0.371469 0.240298 -0.8968083 0.3714723 0.240298 -0.8968083 0.3714723 0.240298 -0.8968083 0.3714723 0.6565101 -0.6565101 0.3714689 0.6565101 -0.6565101 0.3714689 0.6565101 -0.6565101 0.3714689 0.65651 -0.65651 0.371469 0.65651 -0.65651 0.371469 0.65651 -0.65651 0.371469 0.896808 -0.2403 0.3714721 0.896808 -0.2403 0.3714721 0.896808 -0.2403 0.3714721 0.8968097 -0.2402984 0.3714688 0.8968097 -0.2402984 0.3714688 0.8968097 -0.2402984 0.3714688 0.8968091 0.2403003 0.371469 0.8968091 0.2403003 0.371469 0.8968091 0.2403003 0.371469 0.8968083 0.240298 0.3714723 0.8968083 0.240298 0.3714723 0.8968083 0.240298 0.3714723 0.6565101 0.6565101 0.3714689 0.6565101 0.6565101 0.3714689 0.6565101 0.6565101 0.3714689 0.65651 0.65651 0.371469 0.65651 0.65651 0.371469 0.65651 0.65651 0.371469 0.2403 0.896808 0.3714721 0.2403 0.896808 0.3714721 0.2403 0.896808 0.3714721 0.2402984 0.8968097 0.3714688 0.2402984 0.8968097 0.3714688 0.2402984 0.8968097 0.3714688 -0.2403003 0.8968091 0.371469 -0.2403003 0.8968091 0.371469 -0.2403003 0.8968091 0.371469 -0.240298 0.8968083 0.3714723 -0.240298 0.8968083 0.3714723 -0.240298 0.8968083 0.3714723 -0.6565101 0.6565101 0.3714689 -0.6565101 0.6565101 0.3714689 -0.6565101 0.6565101 0.3714689 -0.65651 0.65651 0.371469 -0.65651 0.65651 0.371469 -0.65651 0.65651 0.371469 -0.896808 0.2403 0.3714721 -0.896808 0.2403 0.3714721 -0.896808 0.2403 0.3714721 -0.8968097 0.2402984 0.3714688 -0.8968097 0.2402984 0.3714688 -0.8968097 0.2402984 0.3714688 -0.7760127 -0.2079311 0.595457 -0.7760127 -0.2079311 0.595457 -0.7760127 -0.2079311 0.595457 -0.7760142 -0.2079341 0.5954539 -0.7760142 -0.2079341 0.5954539 -0.7760142 -0.2079341 0.5954539 -0.5680802 -0.5680802 0.5954575 -0.5680802 -0.5680802 0.5954575 -0.5680802 -0.5680802 0.5954575 -0.5680802 -0.5680802 0.5954575 -0.5680802 -0.5680802 0.5954575 -0.5680802 -0.5680802 0.5954575 -0.2079316 -0.7760147 0.5954542 -0.2079316 -0.7760147 0.5954542 -0.2079316 -0.7760147 0.5954542 -0.2079334 -0.7760118 0.5954573 -0.2079334 -0.7760118 0.5954573 -0.2079334 -0.7760118 0.5954573 0.2079311 -0.7760127 0.595457 0.2079311 -0.7760127 0.595457 0.2079311 -0.7760127 0.595457 0.2079341 -0.7760142 0.5954539 0.2079341 -0.7760142 0.5954539 0.2079341 -0.7760142 0.5954539 0.5680802 -0.5680802 0.5954575 0.5680802 -0.5680802 0.5954575 0.5680802 -0.5680802 0.5954575 0.5680802 -0.5680802 0.5954575 0.5680802 -0.5680802 0.5954575 0.5680802 -0.5680802 0.5954575 0.7760147 -0.2079316 0.5954542 0.7760147 -0.2079316 0.5954542 0.7760147 -0.2079316 0.5954542 0.7760118 -0.2079334 0.5954573 0.7760118 -0.2079334 0.5954573 0.7760118 -0.2079334 0.5954573 0.7760127 0.2079311 0.595457 0.7760127 0.2079311 0.595457 0.7760127 0.2079311 0.595457 0.7760142 0.2079341 0.5954539 0.7760142 0.2079341 0.5954539 0.7760142 0.2079341 0.5954539 0.5680802 0.5680802 0.5954575 0.5680802 0.5680802 0.5954575 0.5680802 0.5680802 0.5954575 0.5680802 0.5680802 0.5954575 0.5680802 0.5680802 0.5954575 0.5680802 0.5680802 0.5954575 0.2079316 0.7760147 0.5954542 0.2079316 0.7760147 0.5954542 0.2079316 0.7760147 0.5954542 0.2079334 0.7760118 0.5954573 0.2079334 0.7760118 0.5954573 0.2079334 0.7760118 0.5954573 -0.2079311 0.7760127 0.595457 -0.2079311 0.7760127 0.595457 -0.2079311 0.7760127 0.595457 -0.2079341 0.7760142 0.5954539 -0.2079341 0.7760142 0.5954539 -0.2079341 0.7760142 0.5954539 -0.5680802 0.5680802 0.5954575 -0.5680802 0.5680802 0.5954575 -0.5680802 0.5680802 0.5954575 -0.5680802 0.5680802 0.5954575 -0.5680802 0.5680802 0.5954575 -0.5680802 0.5680802 0.5954575 -0.7760147 0.2079316 0.5954542 -0.7760147 0.2079316 0.5954542 -0.7760147 0.2079316 0.5954542 -0.7760118 0.2079334 0.5954573 -0.7760118 0.2079334 0.5954573 -0.7760118 0.2079334 0.5954573 -0.6008204 -0.1609906 0.7830051 -0.6008204 -0.1609906 0.7830051 -0.6008204 -0.1609906 0.7830051 -0.6008191 -0.1609883 0.7830066 -0.6008191 -0.1609883 0.7830066 -0.6008191 -0.1609883 0.7830066 -0.4398314 -0.4398314 0.7830049 -0.4398314 -0.4398314 0.7830049 -0.4398314 -0.4398314 0.7830049 -0.4398314 -0.4398314 0.7830049 -0.4398314 -0.4398314 0.7830049 -0.4398314 -0.4398314 0.7830049 -0.1609902 -0.6008189 0.7830063 -0.1609902 -0.6008189 0.7830063 -0.1609902 -0.6008189 0.7830063 -0.1609889 -0.6008211 0.7830048 -0.1609889 -0.6008211 0.7830048 -0.1609889 -0.6008211 0.7830048 0.1609906 -0.6008204 0.7830051 0.1609906 -0.6008204 0.7830051 0.1609906 -0.6008204 0.7830051 0.1609883 -0.6008191 0.7830066 0.1609883 -0.6008191 0.7830066 0.1609883 -0.6008191 0.7830066 0.4398314 -0.4398314 0.7830049 0.4398314 -0.4398314 0.7830049 0.4398314 -0.4398314 0.7830049 0.4398314 -0.4398314 0.7830049 0.4398314 -0.4398314 0.7830049 0.4398314 -0.4398314 0.7830049 0.6008189 -0.1609902 0.7830063 0.6008189 -0.1609902 0.7830063 0.6008189 -0.1609902 0.7830063 0.6008211 -0.1609889 0.7830048 0.6008211 -0.1609889 0.7830048 0.6008211 -0.1609889 0.7830048 0.6008204 0.1609906 0.7830051 0.6008204 0.1609906 0.7830051 0.6008204 0.1609906 0.7830051 0.6008191 0.1609883 0.7830066 0.6008191 0.1609883 0.7830066 0.6008191 0.1609883 0.7830066 0.4398314 0.4398314 0.7830049 0.4398314 0.4398314 0.7830049 0.4398314 0.4398314 0.7830049 0.4398314 0.4398314 0.7830049 0.4398314 0.4398314 0.7830049 0.4398314 0.4398314 0.7830049 0.1609902 0.6008189 0.7830063 0.1609902 0.6008189 0.7830063 0.1609902 0.6008189 0.7830063 0.1609889 0.6008211 0.7830048 0.1609889 0.6008211 0.7830048 0.1609889 0.6008211 0.7830048 -0.1609906 0.6008204 0.7830051 -0.1609906 0.6008204 0.7830051 -0.1609906 0.6008204 0.7830051 -0.1609883 0.6008191 0.7830066 -0.1609883 0.6008191 0.7830066 -0.1609883 0.6008191 0.7830066 -0.4398314 0.4398314 0.7830049 -0.4398314 0.4398314 0.7830049 -0.4398314 0.4398314 0.7830049 -0.4398314 0.4398314 0.7830049 -0.4398314 0.4398314 0.7830049 -0.4398314 0.4398314 0.7830049 -0.6008189 0.1609902 0.7830063 -0.6008189 0.1609902 0.7830063 -0.6008189 0.1609902 0.7830063 -0.6008211 0.1609889 0.7830048 -0.6008211 0.1609889 0.7830048 -0.6008211 0.1609889 0.7830048 -0.3806893 -0.102005 0.9190596 -0.3806893 -0.102005 0.9190596 -0.3806893 -0.102005 0.9190596 -0.3806891 -0.1020045 0.9190598 -0.3806891 -0.1020045 0.9190598 -0.3806891 -0.1020045 0.9190598 -0.278684 -0.278684 0.9190595 -0.278684 -0.278684 0.9190595 -0.278684 -0.278684 0.9190595 -0.278684 -0.278684 0.9190595 -0.278684 -0.278684 0.9190595 -0.278684 -0.278684 0.9190595 -0.1020049 -0.3806891 0.9190598 -0.1020049 -0.3806891 0.9190598 -0.1020049 -0.3806891 0.9190598 -0.1020046 -0.3806895 0.9190596 -0.1020046 -0.3806895 0.9190596 -0.1020046 -0.3806895 0.9190596 0.102005 -0.3806893 0.9190596 0.102005 -0.3806893 0.9190596 0.102005 -0.3806893 0.9190596 0.1020045 -0.3806891 0.9190598 0.1020045 -0.3806891 0.9190598 0.1020045 -0.3806891 0.9190598 0.278684 -0.278684 0.9190595 0.278684 -0.278684 0.9190595 0.278684 -0.278684 0.9190595 0.278684 -0.278684 0.9190595 0.278684 -0.278684 0.9190595 0.278684 -0.278684 0.9190595 0.3806891 -0.1020049 0.9190598 0.3806891 -0.1020049 0.9190598 0.3806891 -0.1020049 0.9190598 0.3806895 -0.1020046 0.9190596 0.3806895 -0.1020046 0.9190596 0.3806895 -0.1020046 0.9190596 0.3806893 0.102005 0.9190596 0.3806893 0.102005 0.9190596 0.3806893 0.102005 0.9190596 0.3806891 0.1020045 0.9190598 0.3806891 0.1020045 0.9190598 0.3806891 0.1020045 0.9190598 0.278684 0.278684 0.9190595 0.278684 0.278684 0.9190595 0.278684 0.278684 0.9190595 0.278684 0.278684 0.9190595 0.278684 0.278684 0.9190595 0.278684 0.278684 0.9190595 0.1020049 0.3806891 0.9190598 0.1020049 0.3806891 0.9190598 0.1020049 0.3806891 0.9190598 0.1020046 0.3806895 0.9190596 0.1020046 0.3806895 0.9190596 0.1020046 0.3806895 0.9190596 -0.102005 0.3806893 0.9190596 -0.102005 0.3806893 0.9190596 -0.102005 0.3806893 0.9190596 -0.1020045 0.3806891 0.9190598 -0.1020045 0.3806891 0.9190598 -0.1020045 0.3806891 0.9190598 -0.278684 0.278684 0.9190595 -0.278684 0.278684 0.9190595 -0.278684 0.278684 0.9190595 -0.278684 0.278684 0.9190595 -0.278684 0.278684 0.9190595 -0.278684 0.278684 0.9190595 -0.3806891 0.1020049 0.9190598 -0.3806891 0.1020049 0.9190598 -0.3806891 0.1020049 0.9190598 -0.3806895 0.1020046 0.9190596 -0.3806895 0.1020046 0.9190596 -0.3806895 0.1020046 0.9190596 -0.1304458 -0.0349525 0.9908391 -0.1304458 -0.0349525 0.9908391 -0.1304458 -0.0349525 0.9908391 1.0 0.0 0.0 1.0 0.0 0.0 -0.0954928 -0.0954928 0.9908392 -0.0954928 -0.0954928 0.9908392 -0.0954928 -0.0954928 0.9908392 1.0 0.0 0.0 1.0 0.0 0.0 -0.0349525 -0.1304458 0.9908391 -0.0349525 -0.1304458 0.9908391 -0.0349525 -0.1304458 0.9908391 1.0 0.0 0.0 1.0 0.0 0.0 0.0349525 -0.1304458 0.9908391 0.0349525 -0.1304458 0.9908391 0.0349525 -0.1304458 0.9908391 1.0 0.0 0.0 1.0 0.0 0.0 0.0954928 -0.0954928 0.9908392 0.0954928 -0.0954928 0.9908392 0.0954928 -0.0954928 0.9908392 1.0 0.0 0.0 1.0 0.0 0.0 0.1304458 -0.0349525 0.9908391 0.1304458 -0.0349525 0.9908391 0.1304458 -0.0349525 0.9908391 1.0 0.0 0.0 1.0 0.0 0.0 0.1304458 0.0349525 0.9908391 0.1304458 0.0349525 0.9908391 0.1304458 0.0349525 0.9908391 1.0 0.0 0.0 1.0 0.0 0.0 0.0954928 0.0954928 0.9908392 0.0954928 0.0954928 0.9908392 0.0954928 0.0954928 0.9908392 1.0 0.0 0.0 1.0 0.0 0.0 0.0349525 0.1304458 0.9908391 0.0349525 0.1304458 0.9908391 0.0349525 0.1304458 0.9908391 1.0 0.0 0.0 1.0 0.0 0.0 -0.0349525 0.1304458 0.9908391 -0.0349525 0.1304458 0.9908391 -0.0349525 0.1304458 0.9908391 1.0 0.0 0.0 1.0 0.0 0.0 -0.0954928 0.0954928 0.9908392 -0.0954928 0.0954928 0.9908392 -0.0954928 0.0954928 0.9908392 1.0 0.0 0.0 1.0 0.0 0.0 -0.1304458 0.0349525 0.9908391 -0.1304458 0.0349525 0.9908391 -0.1304458 0.0349525 0.9908391 1.0 0.0 0.0 1.0 0.0 0.0 1.0 0.0 0.0 1.0 0.0 0.0 -0.1304461 -0.0349526 -0.9908391 -0.1304461 -0.0349526 -0.9908391 -0.1304461 -0.0349526 -0.9908391 1.0 0.0 0.0 1.0 0.0 0.0 -0.095493 -0.095493 -0.9908392 -0.095493 -0.095493 -0.9908392 -0.095493 -0.095493 -0.9908392 1.0 0.0 0.0 1.0 0.0 0.0 -0.0349526 -0.1304461 -0.9908391 -0.0349526 -0.1304461 -0.9908391 -0.0349526 -0.1304461 -0.9908391 1.0 0.0 0.0 1.0 0.0 0.0 0.0349526 -0.1304461 -0.9908391 0.0349526 -0.1304461 -0.9908391 0.0349526 -0.1304461 -0.9908391 1.0 0.0 0.0 1.0 0.0 0.0 0.095493 -0.095493 -0.9908392 0.095493 -0.095493 -0.9908392 0.095493 -0.095493 -0.9908392 1.0 0.0 0.0 1.0 0.0 0.0 0.1304461 -0.0349526 -0.9908391 0.1304461 -0.0349526 -0.9908391 0.1304461 -0.0349526 -0.9908391 1.0 0.0 0.0 1.0 0.0 0.0 0.1304461 0.0349526 -0.9908391 0.1304461 0.0349526 -0.9908391 0.1304461 0.0349526 -0.9908391 1.0 0.0 0.0 1.0 0.0 0.0 0.095493 0.095493 -0.9908392 0.095493 0.095493 -0.9908392 0.095493 0.095493 -0.9908392 1.0 0.0 0.0 1.0 0.0 0.0 0.0349526 0.1304461 -0.9908391 0.0349526 0.1304461 -0.9908391 0.0349526 0.1304461 -0.9908391 1.0 0.0 0.0 1.0 0.0 0.0 -0.0349526 0.1304461 -0.9908391 -0.0349526 0.1304461 -0.9908391 -0.0349526 0.1304461 -0.9908391 1.0 0.0 0.0 1.0 0.0 0.0 -0.095493 0.095493 -0.9908392 -0.095493 0.095493 -0.9908392 -0.095493 0.095493 -0.9908392 1.0 0.0 0.0 1.0 0.0 0.0 -0.1304461 0.0349526 -0.9908391 -0.1304461 0.0349526 -0.9908391 -0.1304461 0.0349526 -0.9908391 -0.3806893 -0.1020045 -0.9190597 -0.3806893 -0.1020045 -0.9190597 -0.3806893 -0.1020045 -0.9190597 -0.3806889 -0.1020048 -0.9190599 -0.3806889 -0.1020048 -0.9190599 -0.3806889 -0.1020048 -0.9190599 -0.2786838 -0.2786838 -0.9190597 -0.2786838 -0.2786838 -0.9190597 -0.2786838 -0.2786838 -0.9190597 -0.2786838 -0.2786838 -0.9190596 -0.2786838 -0.2786838 -0.9190596 -0.2786838 -0.2786838 -0.9190596 -0.1020044 -0.3806888 -0.9190599 -0.1020044 -0.3806888 -0.9190599 -0.1020044 -0.3806888 -0.9190599 -0.1020049 -0.3806891 -0.9190598 -0.1020049 -0.3806891 -0.9190598 -0.1020049 -0.3806891 -0.9190598 0.1020045 -0.3806893 -0.9190597 0.1020045 -0.3806893 -0.9190597 0.1020045 -0.3806893 -0.9190597 0.1020048 -0.3806889 -0.9190599 0.1020048 -0.3806889 -0.9190599 0.1020048 -0.3806889 -0.9190599 0.2786838 -0.2786838 -0.9190597 0.2786838 -0.2786838 -0.9190597 0.2786838 -0.2786838 -0.9190597 0.2786838 -0.2786838 -0.9190596 0.2786838 -0.2786838 -0.9190596 0.2786838 -0.2786838 -0.9190596 0.3806888 -0.1020044 -0.9190599 0.3806888 -0.1020044 -0.9190599 0.3806888 -0.1020044 -0.9190599 0.3806891 -0.1020049 -0.9190598 0.3806891 -0.1020049 -0.9190598 0.3806891 -0.1020049 -0.9190598 0.3806893 0.1020045 -0.9190597 0.3806893 0.1020045 -0.9190597 0.3806893 0.1020045 -0.9190597 0.3806889 0.1020048 -0.9190599 0.3806889 0.1020048 -0.9190599 0.3806889 0.1020048 -0.9190599 0.2786838 0.2786838 -0.9190597 0.2786838 0.2786838 -0.9190597 0.2786838 0.2786838 -0.9190597 0.2786838 0.2786838 -0.9190596 0.2786838 0.2786838 -0.9190596 0.2786838 0.2786838 -0.9190596 0.1020044 0.3806888 -0.9190599 0.1020044 0.3806888 -0.9190599 0.1020044 0.3806888 -0.9190599 0.1020049 0.3806891 -0.9190598 0.1020049 0.3806891 -0.9190598 0.1020049 0.3806891 -0.9190598</float_array>
                    <technique_common>
                        <accessor count="840" source="#geometry0-normal-array" stride="3">
                            <param name="X" type="float"/>
                            <param name="Y" type="float"/>
                            <param name="Z" type="float"/>
                        </accessor>
                    </technique_common>
                </source>
                <vertices id="geometry0-vertex">
                    <input semantic="POSITION" source="#geometry0-position"/>
                </vertices>
                <triangles count="288" material="default_ai_0.2_sh_0.2_tr_0.0_dc_r_0.8_g_0.8_b_0.8_sc_r_1.0_g_1.0_b_1.0_ec_r_0.0_g_0.0_b_0_tri">
                    <input offset="0" semantic="VERTEX" source="#geometry0-vertex"/>
                    <input offset="1" semantic="NORMAL" source="#geometry0-normal"/>
                    <p>10 0 11 1 23 2 10 3 23 4 22 5 11 6 12 7 24 8 11 9 24 10 23 11 12 12 2 13 14 14 12 15 14 16 24 17 14 18 13 19 25 20 14 21 25 22 26 23 13 24 15 25 27 26 13 27 27 28 25 29 15 30 16 31 28 32 15 33 28 34 27 35 16 36 17 37 29 38 16 39 29 40 28 41 17 42 18 43 30 44 17 45 30 46 29 47 18 48 19 49 31 50 18 51 31 52 30 53 19 54 20 55 32 56 19 57 32 58 31 59 20 60 21 61 33 62 20 63 33 64 32 65 21 66 22 67 34 68 21 69 34 70 33 71 22 72 23 73 35 74 22 75 35 76 34 77 23 78 24 79 36 80 23 81 36 82 35 83 24 84 14 85 26 86 24 87 26 88 36 89 26 90 25 91 37 92 26 93 37 94 38 95 25 96 27 97 39 98 25 99 39 100 37 101 27 102 28 103 40 104 27 105 40 106 39 107 28 108 29 109 41 110 28 111 41 112 40 113 29 114 30 115 42 116 29 117 42 118 41 119 30 120 31 121 43 122 30 123 43 124 42 125 31 126 32 127 44 128 31 129 44 130 43 131 32 132 33 133 45 134 32 135 45 136 44 137 33 138 34 139 46 140 33 141 46 142 45 143 34 144 35 145 47 146 34 147 47 148 46 149 35 150 36 151 48 152 35 153 48 154 47 155 36 156 26 157 38 158 36 159 38 160 48 161 38 162 37 163 49 164 38 165 49 166 50 167 37 168 39 169 51 170 37 171 51 172 49 173 39 174 40 175 52 176 39 177 52 178 51 179 40 180 41 181 53 182 40 183 53 184 52 185 41 186 42 187 54 188 41 189 54 190 53 191 42 192 43 193 55 194 42 195 55 196 54 197 43 198 44 199 56 200 43 201 56 202 55 203 44 204 45 205 57 206 44 207 57 208 56 209 45 210 46 211 58 212 45 213 58 214 57 215 46 216 47 217 59 218 46 219 59 220 58 221 47 222 48 223 60 224 47 225 60 226 59 227 48 228 38 229 50 230 48 231 50 232 60 233 50 234 49 235 61 236 50 237 61 238 62 239 49 240 51 241 63 242 49 243 63 244 61 245 51 246 52 247 64 248 51 249 64 250 63 251 52 252 53 253 65 254 52 255 65 256 64 257 53 258 54 259 66 260 53 261 66 262 65 263 54 264 55 265 67 266 54 267 67 268 66 269 55 270 56 271 68 272 55 273 68 274 67 275 56 276 57 277 69 278 56 279 69 280 68 281 57 282 58 283 70 284 57 285 70 286 69 287 58 288 59 289 71 290 58 291 71 292 70 293 59 294 60 295 72 296 59 297 72 298 71 299 60 300 50 301 62 302 60 303 62 304 72 305 62 306 61 307 73 308 62 309 73 310 74 311 61 312 63 313 75 314 61 315 75 316 73 317 63 318 64 319 76 320 63 321 76 322 75 323 64 324 65 325 77 326 64 327 77 328 76 329 65 330 66 331 78 332 65 333 78 334 77 335 66 336 67 337 79 338 66 339 79 340 78 341 67 342 68 343 80 344 67 345 80 346 79 347 68 348 69 349 81 350 68 351 81 352 80 353 69 354 70 355 82 356 69 357 82 358 81 359 70 360 71 361 83 362 70 363 83 364 82 365 71 366 72 367 84 368 71 369 84 370 83 371 72 372 62 373 74 374 72 375 74 376 84 377 74 378 73 379 85 380 74 381 85 382 86 383 73 384 75 385 87 386 73 387 87 388 85 389 75 390 76 391 88 392 75 393 88 394 87 395 76 396 77 397 89 398 76 399 89 400 88 401 77 402 78 403 90 404 77 405 90 406 89 407 78 408 79 409 91 410 78 411 91 412 90 413 79 414 80 415 92 416 79 417 92 418 91 419 80 420 81 421 93 422 80 423 93 424 92 425 81 426 82 427 94 428 81 429 94 430 93 431 82 432 83 433 95 434 82 435 95 436 94 437 83 438 84 439 96 440 83 441 96 442 95 443 84 444 74 445 86 446 84 447 86 448 96 449 86 450 85 451 97 452 86 453 97 454 98 455 85 456 87 457 99 458 85 459 99 460 97 461 87 462 88 463 100 464 87 465 100 466 99 467 88 468 89 469 101 470 88 471 101 472 100 473 89 474 90 475 102 476 89 477 102 478 101 479 90 480 91 481 103 482 90 483 103 484 102 485 91 486 92 487 104 488 91 489 104 490 103 491 92 492 93 493 105 494 92 495 105 496 104 497 93 498 94 499 106 500 93 501 106 502 105 503 94 504 95 505 107 506 94 507 107 508 106 509 95 510 96 511 108 512 95 513 108 514 107 515 96 516 86 517 98 518 96 519 98 520 108 521 98 522 97 523 109 524 98 525 109 526 110 527 97 528 99 529 111 530 97 531 111 532 109 533 99 534 100 535 112 536 99 537 112 538 111 539 100 540 101 541 113 542 100 543 113 544 112 545 101 546 102 547 114 548 101 549 114 550 113 551 102 552 103 553 115 554 102 555 115 556 114 557 103 558 104 559 116 560 103 561 116 562 115 563 104 564 105 565 117 566 104 567 117 568 116 569 105 570 106 571 118 572 105 573 118 574 117 575 106 576 107 577 119 578 106 579 119 580 118 581 107 582 108 583 120 584 107 585 120 586 119 587 108 588 98 589 110 590 108 591 110 592 120 593 110 594 109 595 121 596 110 597 121 598 122 599 109 600 111 601 123 602 109 603 123 604 121 605 111 606 112 607 124 608 111 609 124 610 123 611 112 612 113 613 125 614 112 615 125 616 124 617 113 618 114 619 126 620 113 621 126 622 125 623 114 624 115 625 127 626 114 627 127 628 126 629 115 630 116 631 128 632 115 633 128 634 127 635 116 636 117 637 129 638 116 639 129 640 128 641 117 642 118 643 130 644 117 645 130 646 129 647 118 648 119 649 131 650 118 651 131 652 130 653 119 654 120 655 132 656 119 657 132 658 131 659 120 660 110 661 122 662 120 663 122 664 132 665 122 666 121 667 133 668 122 669 133 670 133 670 121 671 123 672 133 673 121 674 133 675 133 675 123 676 124 677 133 678 123 679 133 680 133 680 124 681 125 682 133 683 124 684 133 685 133 685 125 686 126 687 133 688 125 689 133 690 133 690 126 691 127 692 133 693 126 694 133 695 133 695 127 696 128 697 133 698 127 699 133 700 133 700 128 701 129 702 133 703 128 704 133 705 133 705 129 706 130 707 133 708 129 709 133 710 133 710 130 711 131 712 133 713 130 714 133 715 133 715 131 716 132 717 133 718 131 719 133 720 133 720 132 721 122 722 133 723 132 724 133 725 133 725 0 726 0 726 1 727 0 728 1 729 2 730 0 731 0 731 3 732 0 733 3 734 1 735 0 736 0 736 4 737 0 738 4 739 3 740 0 741 0 741 5 742 0 743 5 744 4 745 0 746 0 746 6 747 0 748 6 749 5 750 0 751 0 751 7 752 0 753 7 754 6 755 0 756 0 756 8 757 0 758 8 759 7 760 0 761 0 761 9 762 0 763 9 764 8 765 0 766 0 766 10 767 0 768 10 769 9 770 0 771 0 771 11 772 0 773 11 774 10 775 0 776 0 776 12 777 0 778 12 779 11 780 0 781 0 781 2 782 0 783 2 784 12 785 2 786 1 787 13 788 2 789 13 790 14 791 1 792 3 793 15 794 1 795 15 796 13 797 3 798 4 799 16 800 3 801 16 802 15 803 4 804 5 805 17 806 4 807 17 808 16 809 5 810 6 811 18 812 5 813 18 814 17 815 6 816 7 817 19 818 6 819 19 820 18 821 7 822 8 823 20 824 7 825 20 826 19 827 8 828 9 829 21 830 8 831 21 832 20 833 9 834 10 835 22 836 9 837 22 838 21 839</p>
                </triangles>
            </mesh>
        </geometry>
    </library_geometries>
    <library_visual_scenes>
        <visual_scene id="Building_94_CROWN2">
            <node>
                <instance_geometry url="#geometry0">
                    <bind_material>
                        <technique_common>
                            <instance_material symbol="default_ai_0.2_sh_0.2_tr_0.0_dc_r_0.8_g_0.8_b_0.8_sc_r_1.0_g_1.0_b_1.0_ec_r_0.0_g_0.0_b_0_tri" target="#default_ai_0.2_sh_0.2_tr_0.0_dc_r_0.8_g_0.8_b_0.8_sc_r_1.0_g_1.0_b_1.0_ec_r_0.0_g_0.0_b_0_mat"/>
                        </technique_common>
                    </bind_material>
                </instance_geometry>
            </node>
        </visual_scene>
    </library_visual_scenes>
    <scene>
        <instance_visual_scene url="#Building_94_CROWN2"/>
    </scene>
</COLLADA>
