<?xml version="1.0" encoding="UTF-8" standalone="yes"?>
<COLLADA xmlns="http://www.collada.org/2005/11/COLLADASchema" version="1.4.1">
    <asset>
        <contributor>
            <authoring_tool>3D City Database Importer/Exporter, version 5.5.3; Chair of Geoinformatics, Technical University of Munich</authoring_tool>
        </contributor>
        <created>2026-09-25T14:45:29.014</created>
        <modified>2026-09-25T14:45:29.014</modified>
        <unit meter="1.0" name="meters"/>
        <up_axis>Z_UP</up_axis>
    </asset>
    <library_materials>
        <material id="default_ai_0.2_sh_0.2_tr_0.0_dc_r_0.8_g_0.8_b_0.8_sc_r_1.0_g_1.0_b_1.0_ec_r_0.0_g_0.0_b_0_mat">
            <instance_effect url="#default_ai_0.2_sh_0.2_tr_0.0_dc_r_0.8_g_0.8_b_0.8_sc_r_1.0_g_1.0_b_1.0_ec_r_0.0_g_0.0_b_0_eff"/>
        </material>
    </library_materials>
    <library_effects>
        <effect id="default_ai_0.2_sh_0.2_tr_0.0_dc_r_0.8_g_0.8_b_0.8_sc_r_1.0_g_1.0_b_1.0_ec_r_0.0_g_0.0_b_0_eff">
            <profile_COMMON>
                <technique sid="COMMON">
                    <lambert>
                        <emission>
                            <color>0.0 0.0 0.0 1.0</color>
                        </emission>
                        <diffuse>
                            <color>0.8 0.8 0.8 1.0</color>
                        </diffuse>
                        <reflective>
                            <color>1.0 1.0 1.0 1.0</color>
                        </reflective>
                        <reflectivity>
                            <float>0.2</float>
                        </reflectivity>
                        <transparent opaque="A_ONE">
                            <color>1.0 1.0 1.0 1.0</color>
                        </transparent>
                        <transparency>
                            <float>1.0</float>
                        </transparency>
                    </lambert>
                </technique>
                <extra>
                    <technique profile="GOOGLEEARTH">
                        <double_sided>0</double_sided>
                    </technique>
                </extra>
            </profile_COMMON>
        </effect>
    </library_effects>
    <library_geometries>
        <geometry id="geometry0">
            <mesh>
                <source id="geometry0-position">
                    <float_array id="geometry0-position-array" count="78">0.0 0.0 0.0 -0.0074018 0.027625 0.0 -0.0074018 0.027625 0.68 0.0 0.0 0.68 -0.027625 0.0478482 0.0 -0.027625 0.0478482 0.68 -0.05525 0.05525 0.0 -0.05525 0.05525 0.68 -0.082875 0.0478482 0.0 -0.082875 0.0478482 0.68 -0.1030982 0.027625 0.0 -0.1030982 0.027625 0.68 -0.1105 0.0 0.0 -0.1105 0.0 0.68 -0.1030982 -0.027625 0.0 -0.1030982 -0.027625 0.68 -0.082875 -0.0478482 0.0 -0.082875 -0.0478482 0.68 -0.05525 -0.05525 0.0 -0.05525 -0.05525 0.68 -0.027625 -0.0478482 0.0 -0.027625 -0.0478482 0.68 -0.0074018 -0.027625 0.0 -0.0074018 -0.027625 0.68 -0.05525 0.0 0.0 -0.05525 0.0 0.68</float_array>
                    <technique_common>
                        <accessor count="26" source="#geometry0-position-array" stride="3">
                            <param name="X" type="float"/>
                            <param name="Y" type="float"/>
                            <param name="Z" type="float"/>
                        </accessor>
                    </technique_common>
                </source>
                <source id="geometry0-normal">
                    <float_array id="geometry0-normal-array" count="432">0.0 0.0 -1.0 0.0 0.0 -1.0 0.0 0.0 -1.0 0.0 0.0 -1.0 0.0 0.0 -1.0 0.0 0.0 -1.0 0.0 0.0 1.0 0.0 0.0 1.0 0.0 0.0 1.0 0.0 0.0 1.0 0.0 0.0 1.0 0.0 0.0 1.0 0.0 0.0 1.0 0.0 0.0 1.0 0.0 0.0 1.0 0.0 0.0 1.0 0.0 0.0 1.0 0.0 0.0 1.0 0.0 0.0 1.0 0.0 0.0 1.0 0.0 0.0 1.0 0.0 0.0 1.0 0.0 0.0 1.0 0.0 0.0 1.0 0.0 0.0 1.0 0.0 0.0 1.0 0.0 0.0 1.0 0.0 0.0 1.0 0.0 0.0 1.0 0.0 0.0 1.0 0.0 0.0 1.0 0.0 0.0 1.0 0.0 0.0 1.0 0.0 0.0 1.0 0.0 0.0 1.0 0.0 0.0 1.0 0.0 0.0 1.0 0.0 0.0 1.0 0.0 0.0 1.0 0.0 0.0 1.0 0.0 0.0 1.0 0.0 0.0 1.0 0.9659285 0.2588094 0.0 0.9659285 0.2588094 0.0 0.9659285 0.2588094 0.0 0.9659285 0.2588094 0.0 0.9659285 0.2588094 0.0 0.9659285 0.2588094 0.0 0.7071068 0.7071068 0.0 0.7071068 0.7071068 0.0 0.7071068 0.7071068 0.0 0.7071068 0.7071068 0.0 0.7071068 0.7071068 0.0 0.7071068 0.7071068 0.0 0.2588093 0.9659285 0.0 0.2588093 0.9659285 0.0 0.2588093 0.9659285 0.0 0.2588093 0.9659285 0.0 0.2588093 0.9659285 0.0 0.2588093 0.9659285 0.0 -0.2588093 0.9659285 0.0 -0.2588093 0.9659285 0.0 -0.2588093 0.9659285 0.0 -0.2588093 0.9659285 0.0 -0.2588093 0.9659285 0.0 -0.2588093 0.9659285 0.0 -0.7071068 0.7071068 0.0 -0.7071068 0.7071068 0.0 -0.7071068 0.7071068 0.0 -0.7071068 0.7071068 0.0 -0.7071068 0.7071068 0.0 -0.7071068 0.7071068 0.0 -0.9659284 0.2588094 0.0 -0.9659284 0.2588094 0.0 -0.9659284 0.2588094 0.0 -0.9659284 0.2588094 0.0 -0.9659284 0.2588094 0.0 -0.9659284 0.2588094 0.0 -0.9659284 -0.2588094 0.0 -0.9659284 -0.2588094 0.0 -0.9659284 -0.2588094 0.0 -0.9659284 -0.2588094 0.0 -0.9659284 -0.2588094 0.0 -0.9659284 -0.2588094 0.0 -0.7071068 -0.7071068 0.0 -0.7071068 -0.7071068 0.0 -0.7071068 -0.7071068 0.0 -0.7071068 -0.7071068 0.0 -0.7071068 -0.7071068 0.0 -0.7071068 -0.7071068 0.0 -0.2588093 -0.9659285 0.0 -0.2588093 -0.9659285 0.0 -0.2588093 -0.9659285 0.0 -0.2588093 -0.9659285 0.0 -0.2588093 -0.9659285 0.0 -0.2588093 -0.9659285 0.0 0.2588093 -0.9659285 0.0 0.2588093 -0.9659285 0.0 0.2588093 -0.9659285 0.0 0.2588093 -0.9659285 0.0 0.2588093 -0.9659285 0.0 0.2588093 -0.9659285 0.0 0.7071068 -0.7071068 0.0 0.7071068 -0.7071068 0.0 0.7071068 -0.7071068 0.0 0.7071068 -0.7071068 0.0 0.7071068 -0.7071068 0.0 0.7071068 -0.7071068 0.0 0.9659285 -0.2588094 0.0 0.9659285 -0.2588094 0.0 0.9659285 -0.2588094 0.0 0.9659285 -0.2588094 0.0 0.9659285 -0.2588094 0.0 0.9659285 -0.2588094 0.0 0.0 0.0 -1.0 0.0 0.0 -1.0 0.0 0.0 -1.0 0.0 0.0 -1.0 0.0 0.0 -1.0 0.0 0.0 -1.0 0.0 0.0 -1.0 0.0 0.0 -1.0 0.0 0.0 -1.0 0.0 0.0 -1.0 0.0 0.0 -1.0 0.0 0.0 -1.0 0.0 0.0 -1.0 0.0 0.0 -1.0 0.0 0.0 -1.0 0.0 0.0 -1.0 0.0 0.0 -1.0 0.0 0.0 -1.0 0.0 0.0 -1.0 0.0 0.0 -1.0 0.0 0.0 -1.0 0.0 0.0 -1.0 0.0 0.0 -1.0 0.0 0.0 -1.0 0.0 0.0 -1.0 0.0 0.0 -1.0 0.0 0.0 -1.0 0.0 0.0 -1.0 0.0 0.0 -1.0 0.0 0.0 -1.0</float_array>
                    <technique_common>
                        <accessor count="144" source="#geometry0-normal-array" stride="3">
                            <param name="X" type="float"/>
                            <param name="Y" type="float"/>
                            <param name="Z" type="float"/>
                        </accessor>
                    </technique_common>
                </source>
                <vertices id="geometry0-vertex">
                    <input semantic="POSITION" source="#geometry0-position"/>
                </vertices>
                <triangles count="48" material="default_ai_0.2_sh_0.2_tr_0.0_dc_r_0.8_g_0.8_b_0.8_sc_r_1.0_g_1.0_b_1.0_ec_r_0.0_g_0.0_b_0_tri">
                    <input offset="0" semantic="VERTEX" source="#geometry0-vertex"/>
                    <input offset="1" semantic="NORMAL" source="#geometry0-normal"/>
                    <p>24 0 22 1 20 2 24 3 0 4 22 5 25 6 3 7 2 8 25 9 2 10 5 11 25 12 5 13 7 14 25 15 7 16 9 17 25 18 9 19 11 20 25 21 11 22 13 23 25 24 13 25 15 26 25 27 15 28 17 29 25 30 17 31 19 32 25 33 19 34 21 35 25 36 21 37 23 38 25 39 23 40 3 41 0 42 1 43 2 44 0 45 2 46 3 47 1 48 4 49 5 50 1 51 5 52 2 53 4 54 6 55 7 56 4 57 7 58 5 59 6 60 8 61 9 62 6 63 9 64 7 65 8 66 10 67 11 68 8 69 11 70 9 71 10 72 12 73 13 74 10 75 13 76 11 77 12 78 14 79 15 80 12 81 15 82 13 83 14 84 16 85 17 86 14 87 17 88 15 89 16 90 18 91 19 92 16 93 19 94 17 95 18 96 20 97 21 98 18 99 21 100 19 101 20 102 22 103 23 104 20 105 23 106 21 107 22 108 0 109 3 110 22 111 3 112 23 113 24 114 1 115 0 116 24 117 4 118 1 119 24 120 6 121 4 122 24 123 8 124 6 125 24 126 10 127 8 128 24 129 12 130 10 131 24 132 14 133 12 134 24 135 16 136 14 137 24 138 18 139 16 140 24 141 20 142 18 143</p>
                </triangles>
            </mesh>
        </geometry>
    </library_geometries>
    <library_visual_scenes>
        <visual_scene id="Building_240_TRUNK2">
            <node>
                <instance_geometry url="#geometry0">
                    <bind_material>
                        <technique_common>
                            <instance_material symbol="default_ai_0.2_sh_0.2_tr_0.0_dc_r_0.8_g_0.8_b_0.8_sc_r_1.0_g_1.0_b_1.0_ec_r_0.0_g_0.0_b_0_tri" target="#default_ai_0.2_sh_0.2_tr_0.0_dc_r_0.8_g_0.8_b_0.8_sc_r_1.0_g_1.0_b_1.0_ec_r_0.0_g_0.0_b_0_mat"/>
                        </technique_common>
                    </bind_material>
                </instance_geometry>
            </node>
        </visual_scene>
    </library_visual_scenes>
    <scene>
        <instance_visual_scene url="#Building_240_TRUNK2"/>
    </scene>
</COLLADA>
