<?xml version="1.0" encoding="UTF-8" standalone="yes"?>
<COLLADA xmlns="http://www.collada.org/2005/11/COLLADASchema" version="1.4.1">
    <asset>
        <contributor>
            <authoring_tool>3D City Database Importer/Exporter, version 5.5.3; Chair of Geoinformatics, Technical University of Munich</authoring_tool>
        </contributor>
        <created>2026-09-25T14:44:45.026</created>
        <modified>2026-09-25T14:44:45.026</modified>
        <unit meter="1.0" name="meters"/>
        <up_axis>Z_UP</up_axis>
    </asset>
    <library_materials>
        <material id="default_ai_0.2_sh_0.2_tr_0.0_dc_r_0.8_g_0.8_b_0.8_sc_r_1.0_g_1.0_b_1.0_ec_r_0.0_g_0.0_b_0_mat">
            <instance_effect url="#default_ai_0.2_sh_0.2_tr_0.0_dc_r_0.8_g_0.8_b_0.8_sc_r_1.0_g_1.0_b_1.0_ec_r_0.0_g_0.0_b_0_eff"/>
        </material>
    </library_materials>
    <library_effects>
        <effect id="default_ai_0.2_sh_0.2_tr_0.0_dc_r_0.8_g_0.8_b_0.8_sc_r_1.0_g_1.0_b_1.0_ec_r_0.0_g_0.0_b_0_eff">
            <profile_COMMON>
                <technique sid="COMMON">
                    <lambert>
                        <emission>
                            <color>0.0 0.0 0.0 1.0</color>
                        </emission>
                        <diffuse>
                            <color>0.8 0.8 0.8 1.0</color>
                        </diffuse>
                        <reflective>
                            <color>1.0 1.0 1.0 1.0</color>
                        </reflective>
                        <reflectivity>
                            <float>0.2</float>
                        </reflectivity>
                        <transparent opaque="A_ONE">
                            <color>1.0 1.0 1.0 1.0</color>
                        </transparent>
                        <transparency>
                            <float>1.0</float>
                        </transparency>
                    </lambert>
                </technique>
                <extra>
                    <technique profile="GOOGLEEARTH">
                        <double_sided>0</double_sided>
                    </technique>
                </extra>
            </profile_COMMON>
        </effect>
    </library_effects>
    <library_geometries>
        <geometry id="geometry0">
            <mesh>
                <source id="geometry0-position">
                    <float_array id="geometry0-position-array" count="402">0.0 0.0 1.2 0.1344864 0.077646 1.1795556 0.1552914 0.0 1.1795556 0.077646 0.1344864 1.1795556 0.0 0.1552914 1.1795556 -0.077646 0.1344864 1.1795556 -0.1344864 0.077646 1.1795556 -0.1552914 0.0 1.1795556 -0.1344864 -0.077646 1.1795556 -0.077646 -0.1344864 1.1795556 0.0 -0.1552914 1.1795556 0.077646 -0.1344864 1.1795556 0.1344864 -0.077646 1.1795556 0.2598078 0.15 1.119615 0.3 0.0 1.119615 0.15 0.2598078 1.119615 0.0 0.3 1.119615 -0.15 0.2598078 1.119615 -0.2598078 0.15 1.119615 -0.3 0.0 1.119615 -0.2598078 -0.15 1.119615 -0.15 -0.2598078 1.119615 0.0 -0.3 1.119615 0.15 -0.2598078 1.119615 0.2598078 -0.15 1.119615 0.3674232 0.2121318 1.0242636 0.4242642 0.0 1.0242636 0.2121318 0.3674232 1.0242636 0.0 0.4242642 1.0242636 -0.2121318 0.3674232 1.0242636 -0.3674232 0.2121318 1.0242636 -0.4242642 0.0 1.0242636 -0.3674232 -0.2121318 1.0242636 -0.2121318 -0.3674232 1.0242636 0.0 -0.4242642 1.0242636 0.2121318 -0.3674232 1.0242636 0.3674232 -0.2121318 1.0242636 0.45 0.2598078 0.9 0.519615 0.0 0.9 0.2598078 0.45 0.9 0.0 0.519615 0.9 -0.2598078 0.45 0.9 -0.45 0.2598078 0.9 -0.519615 0.0 0.9 -0.45 -0.2598078 0.9 -0.2598078 -0.45 0.9 0.0 -0.519615 0.9 0.2598078 -0.45 0.9 0.45 -0.2598078 0.9 0.5019096 0.2897778 0.7552914 0.5795556 0.0 0.7552914 0.2897778 0.5019096 0.7552914 0.0 0.5795556 0.7552914 -0.2897778 0.5019096 0.7552914 -0.5019096 0.2897778 0.7552914 -0.5795556 0.0 0.7552914 -0.5019096 -0.2897778 0.7552914 -0.2897778 -0.5019096 0.7552914 0.0 -0.5795556 0.7552914 0.2897778 -0.5019096 0.7552914 0.5019096 -0.2897778 0.7552914 0.519615 0.3 0.6 0.6 0.0 0.6 0.3 0.519615 0.6 0.0 0.6 0.6 -0.3 0.519615 0.6 -0.519615 0.3 0.6 -0.6 0.0 0.6 -0.519615 -0.3 0.6 -0.3 -0.519615 0.6 0.0 -0.6 0.6 0.3 -0.519615 0.6 0.519615 -0.3 0.6 0.5019096 0.2897778 0.4447086 0.5795556 0.0 0.4447086 0.2897778 0.5019096 0.4447086 0.0 0.5795556 0.4447086 -0.2897778 0.5019096 0.4447086 -0.5019096 0.2897778 0.4447086 -0.5795556 0.0 0.4447086 -0.5019096 -0.2897778 0.4447086 -0.2897778 -0.5019096 0.4447086 0.0 -0.5795556 0.4447086 0.2897778 -0.5019096 0.4447086 0.5019096 -0.2897778 0.4447086 0.45 0.2598078 0.3 0.519615 0.0 0.3 0.2598078 0.45 0.3 0.0 0.519615 0.3 -0.2598078 0.45 0.3 -0.45 0.2598078 0.3 -0.519615 0.0 0.3 -0.45 -0.2598078 0.3 -0.2598078 -0.45 0.3 0.0 -0.519615 0.3 0.2598078 -0.45 0.3 0.45 -0.2598078 0.3 0.3674232 0.2121318 0.1757358 0.4242642 0.0 0.1757358 0.2121318 0.3674232 0.1757358 0.0 0.4242642 0.1757358 -0.2121318 0.3674232 0.1757358 -0.3674232 0.2121318 0.1757358 -0.4242642 0.0 0.1757358 -0.3674232 -0.2121318 0.1757358 -0.2121318 -0.3674232 0.1757358 0.0 -0.4242642 0.1757358 0.2121318 -0.3674232 0.1757358 0.3674232 -0.2121318 0.1757358 0.2598078 0.15 0.0803844 0.3 0.0 0.0803844 0.15 0.2598078 0.0803844 0.0 0.3 0.0803844 -0.15 0.2598078 0.0803844 -0.2598078 0.15 0.0803844 -0.3 0.0 0.0803844 -0.2598078 -0.15 0.0803844 -0.15 -0.2598078 0.0803844 0.0 -0.3 0.0803844 0.15 -0.2598078 0.0803844 0.2598078 -0.15 0.0803844 0.1344864 0.077646 0.0204444 0.1552914 0.0 0.0204444 0.077646 0.1344864 0.0204444 0.0 0.1552914 0.0204444 -0.077646 0.1344864 0.0204444 -0.1344864 0.077646 0.0204444 -0.1552914 0.0 0.0204444 -0.1344864 -0.077646 0.0204444 -0.077646 -0.1344864 0.0204444 0.0 -0.1552914 0.0204444 0.077646 -0.1344864 0.0204444 0.1344864 -0.077646 0.0204444 0.0 0.0 0.0</float_array>
                    <technique_common>
                        <accessor count="134" source="#geometry0-position-array" stride="3">
                            <param name="X" type="float"/>
                            <param name="Y" type="float"/>
                            <param name="Z" type="float"/>
                        </accessor>
                    </technique_common>
                </source>
                <source id="geometry0-normal">
                    <float_array id="geometry0-normal-array" count="2520">0.1020041 0.380686 0.9190612 0.1020041 0.380686 0.9190612 0.1020041 0.380686 0.9190612 0.1020036 0.3806864 0.919061 0.1020036 0.3806864 0.919061 0.1020036 0.3806864 0.919061 -0.1020041 0.3806861 0.919061 -0.1020041 0.3806861 0.919061 -0.1020041 0.3806861 0.919061 -0.1020035 0.3806859 0.9190612 -0.1020035 0.3806859 0.9190612 -0.1020035 0.3806859 0.9190612 -0.2786817 0.2786817 0.9190609 -0.2786817 0.2786817 0.9190609 -0.2786817 0.2786817 0.9190609 -0.2786817 0.2786817 0.9190609 -0.2786817 0.2786817 0.9190609 -0.2786817 0.2786817 0.9190609 -0.380686 0.1020041 0.9190612 -0.380686 0.1020041 0.9190612 -0.380686 0.1020041 0.9190612 -0.3806864 0.1020036 0.919061 -0.3806864 0.1020036 0.919061 -0.3806864 0.1020036 0.919061 -0.1304458 -0.0349525 0.9908391 -0.1304458 -0.0349525 0.9908391 -0.1304458 -0.0349525 0.9908391 1.0 0.0 0.0 1.0 0.0 0.0 -0.0954928 -0.0954928 0.9908392 -0.0954928 -0.0954928 0.9908392 -0.0954928 -0.0954928 0.9908392 1.0 0.0 0.0 1.0 0.0 0.0 -0.0349525 -0.1304458 0.9908391 -0.0349525 -0.1304458 0.9908391 -0.0349525 -0.1304458 0.9908391 1.0 0.0 0.0 1.0 0.0 0.0 0.0349525 -0.1304458 0.9908391 0.0349525 -0.1304458 0.9908391 0.0349525 -0.1304458 0.9908391 1.0 0.0 0.0 1.0 0.0 0.0 0.0954928 -0.0954928 0.9908392 0.0954928 -0.0954928 0.9908392 0.0954928 -0.0954928 0.9908392 1.0 0.0 0.0 1.0 0.0 0.0 0.1304458 -0.0349525 0.9908391 0.1304458 -0.0349525 0.9908391 0.1304458 -0.0349525 0.9908391 1.0 0.0 0.0 1.0 0.0 0.0 0.1304458 0.0349525 0.9908391 0.1304458 0.0349525 0.9908391 0.1304458 0.0349525 0.9908391 1.0 0.0 0.0 1.0 0.0 0.0 0.0954928 0.0954928 0.9908392 0.0954928 0.0954928 0.9908392 0.0954928 0.0954928 0.9908392 1.0 0.0 0.0 1.0 0.0 0.0 0.0349525 0.1304458 0.9908391 0.0349525 0.1304458 0.9908391 0.0349525 0.1304458 0.9908391 1.0 0.0 0.0 1.0 0.0 0.0 -0.0349525 0.1304458 0.9908391 -0.0349525 0.1304458 0.9908391 -0.0349525 0.1304458 0.9908391 1.0 0.0 0.0 1.0 0.0 0.0 -0.0954928 0.0954928 0.9908392 -0.0954928 0.0954928 0.9908392 -0.0954928 0.0954928 0.9908392 1.0 0.0 0.0 1.0 0.0 0.0 -0.1304458 0.0349525 0.9908391 -0.1304458 0.0349525 0.9908391 -0.1304458 0.0349525 0.9908391 1.0 0.0 0.0 1.0 0.0 0.0 1.0 0.0 0.0 1.0 0.0 0.0 -0.1304458 -0.0349525 -0.9908391 -0.1304458 -0.0349525 -0.9908391 -0.1304458 -0.0349525 -0.9908391 1.0 0.0 0.0 1.0 0.0 0.0 -0.0954928 -0.0954928 -0.9908392 -0.0954928 -0.0954928 -0.9908392 -0.0954928 -0.0954928 -0.9908392 1.0 0.0 0.0 1.0 0.0 0.0 -0.0349525 -0.1304458 -0.9908391 -0.0349525 -0.1304458 -0.9908391 -0.0349525 -0.1304458 -0.9908391 1.0 0.0 0.0 1.0 0.0 0.0 0.0349525 -0.1304458 -0.9908391 0.0349525 -0.1304458 -0.9908391 0.0349525 -0.1304458 -0.9908391 1.0 0.0 0.0 1.0 0.0 0.0 0.0954928 -0.0954928 -0.9908392 0.0954928 -0.0954928 -0.9908392 0.0954928 -0.0954928 -0.9908392 1.0 0.0 0.0 1.0 0.0 0.0 0.1304458 -0.0349525 -0.9908391 0.1304458 -0.0349525 -0.9908391 0.1304458 -0.0349525 -0.9908391 1.0 0.0 0.0 1.0 0.0 0.0 0.1304458 0.0349525 -0.9908391 0.1304458 0.0349525 -0.9908391 0.1304458 0.0349525 -0.9908391 1.0 0.0 0.0 1.0 0.0 0.0 0.0954928 0.0954928 -0.9908392 0.0954928 0.0954928 -0.9908392 0.0954928 0.0954928 -0.9908392 1.0 0.0 0.0 1.0 0.0 0.0 0.0349525 0.1304458 -0.9908391 0.0349525 0.1304458 -0.9908391 0.0349525 0.1304458 -0.9908391 1.0 0.0 0.0 1.0 0.0 0.0 -0.0349525 0.1304458 -0.9908391 -0.0349525 0.1304458 -0.9908391 -0.0349525 0.1304458 -0.9908391 1.0 0.0 0.0 1.0 0.0 0.0 -0.0954928 0.0954928 -0.9908392 -0.0954928 0.0954928 -0.9908392 -0.0954928 0.0954928 -0.9908392 1.0 0.0 0.0 1.0 0.0 0.0 -0.1304458 0.0349525 -0.9908391 -0.1304458 0.0349525 -0.9908391 -0.1304458 0.0349525 -0.9908391 -0.3806901 -0.1020046 -0.9190593 -0.3806901 -0.1020046 -0.9190593 -0.3806901 -0.1020046 -0.9190593 -0.3806896 -0.102005 -0.9190595 -0.3806896 -0.102005 -0.9190595 -0.3806896 -0.102005 -0.9190595 -0.2786844 -0.2786844 -0.9190593 -0.2786844 -0.2786844 -0.9190593 -0.2786844 -0.2786844 -0.9190593 -0.2786844 -0.2786844 -0.9190593 -0.2786844 -0.2786844 -0.9190593 -0.2786844 -0.2786844 -0.9190593 -0.1020045 -0.3806896 -0.9190596 -0.1020045 -0.3806896 -0.9190596 -0.1020045 -0.3806896 -0.9190596 -0.1020051 -0.3806899 -0.9190595 -0.1020051 -0.3806899 -0.9190595 -0.1020051 -0.3806899 -0.9190595 0.1020046 -0.3806901 -0.9190593 0.1020046 -0.3806901 -0.9190593 0.1020046 -0.3806901 -0.9190593 0.102005 -0.3806896 -0.9190595 0.102005 -0.3806896 -0.9190595 0.102005 -0.3806896 -0.9190595 0.2786844 -0.2786844 -0.9190593 0.2786844 -0.2786844 -0.9190593 0.2786844 -0.2786844 -0.9190593 0.2786844 -0.2786844 -0.9190593 0.2786844 -0.2786844 -0.9190593 0.2786844 -0.2786844 -0.9190593 0.3806896 -0.1020045 -0.9190596 0.3806896 -0.1020045 -0.9190596 0.3806896 -0.1020045 -0.9190596 0.3806899 -0.1020051 -0.9190595 0.3806899 -0.1020051 -0.9190595 0.3806899 -0.1020051 -0.9190595 0.3806901 0.1020046 -0.9190593 0.3806901 0.1020046 -0.9190593 0.3806901 0.1020046 -0.9190593 0.3806896 0.102005 -0.9190595 0.3806896 0.102005 -0.9190595 0.3806896 0.102005 -0.9190595 0.2786844 0.2786844 -0.9190593 0.2786844 0.2786844 -0.9190593 0.2786844 0.2786844 -0.9190593 0.2786844 0.2786844 -0.9190593 0.2786844 0.2786844 -0.9190593 0.2786844 0.2786844 -0.9190593 0.1020045 0.3806896 -0.9190596 0.1020045 0.3806896 -0.9190596 0.1020045 0.3806896 -0.9190596 0.1020051 0.3806899 -0.9190595 0.1020051 0.3806899 -0.9190595 0.1020051 0.3806899 -0.9190595 -0.1020046 0.3806901 -0.9190593 -0.1020046 0.3806901 -0.9190593 -0.1020046 0.3806901 -0.9190593 -0.102005 0.3806896 -0.9190595 -0.102005 0.3806896 -0.9190595 -0.102005 0.3806896 -0.9190595 -0.2786844 0.2786844 -0.9190593 -0.2786844 0.2786844 -0.9190593 -0.2786844 0.2786844 -0.9190593 -0.2786844 0.2786844 -0.9190593 -0.2786844 0.2786844 -0.9190593 -0.2786844 0.2786844 -0.9190593 -0.3806896 0.1020045 -0.9190596 -0.3806896 0.1020045 -0.9190596 -0.3806896 0.1020045 -0.9190596 -0.3806899 0.1020051 -0.9190595 -0.3806899 0.1020051 -0.9190595 -0.3806899 0.1020051 -0.9190595 -0.6008232 -0.1609894 -0.7830032 -0.6008232 -0.1609894 -0.7830032 -0.6008232 -0.1609894 -0.7830032 -0.600821 -0.1609907 -0.7830045 -0.600821 -0.1609907 -0.7830045 -0.600821 -0.1609907 -0.7830045 -0.4398329 -0.4398329 -0.7830032 -0.4398329 -0.4398329 -0.7830032 -0.4398329 -0.4398329 -0.7830032 -0.4398329 -0.4398329 -0.7830032 -0.4398329 -0.4398329 -0.7830032 -0.4398329 -0.4398329 -0.7830032 -0.1609889 -0.6008213 -0.7830048 -0.1609889 -0.6008213 -0.7830048 -0.1609889 -0.6008213 -0.7830048 -0.1609911 -0.6008224 -0.7830033 -0.1609911 -0.6008224 -0.7830033 -0.1609911 -0.6008224 -0.7830033 0.1609894 -0.6008232 -0.7830032 0.1609894 -0.6008232 -0.7830032 0.1609894 -0.6008232 -0.7830032 0.1609907 -0.600821 -0.7830045 0.1609907 -0.600821 -0.7830045 0.1609907 -0.600821 -0.7830045 0.4398329 -0.4398329 -0.7830032 0.4398329 -0.4398329 -0.7830032 0.4398329 -0.4398329 -0.7830032 0.4398329 -0.4398329 -0.7830032 0.4398329 -0.4398329 -0.7830032 0.4398329 -0.4398329 -0.7830032 0.6008213 -0.1609889 -0.7830048 0.6008213 -0.1609889 -0.7830048 0.6008213 -0.1609889 -0.7830048 0.6008224 -0.1609911 -0.7830033 0.6008224 -0.1609911 -0.7830033 0.6008224 -0.1609911 -0.7830033 0.6008232 0.1609894 -0.7830032 0.6008232 0.1609894 -0.7830032 0.6008232 0.1609894 -0.7830032 0.600821 0.1609907 -0.7830045 0.600821 0.1609907 -0.7830045 0.600821 0.1609907 -0.7830045 0.4398329 0.4398329 -0.7830032 0.4398329 0.4398329 -0.7830032 0.4398329 0.4398329 -0.7830032 0.4398329 0.4398329 -0.7830032 0.4398329 0.4398329 -0.7830032 0.4398329 0.4398329 -0.7830032 0.1609889 0.6008213 -0.7830048 0.1609889 0.6008213 -0.7830048 0.1609889 0.6008213 -0.7830048 0.1609911 0.6008224 -0.7830033 0.1609911 0.6008224 -0.7830033 0.1609911 0.6008224 -0.7830033 -0.1609894 0.6008232 -0.7830032 -0.1609894 0.6008232 -0.7830032 -0.1609894 0.6008232 -0.7830032 -0.1609907 0.600821 -0.7830045 -0.1609907 0.600821 -0.7830045 -0.1609907 0.600821 -0.7830045 -0.4398329 0.4398329 -0.7830032 -0.4398329 0.4398329 -0.7830032 -0.4398329 0.4398329 -0.7830032 -0.4398329 0.4398329 -0.7830032 -0.4398329 0.4398329 -0.7830032 -0.4398329 0.4398329 -0.7830032 -0.6008213 0.1609889 -0.7830048 -0.6008213 0.1609889 -0.7830048 -0.6008213 0.1609889 -0.7830048 -0.6008224 0.1609911 -0.7830033 -0.6008224 0.1609911 -0.7830033 -0.6008224 0.1609911 -0.7830033 -0.7760108 -0.2079331 -0.5954589 -0.7760108 -0.2079331 -0.5954589 -0.7760108 -0.2079331 -0.5954589 -0.7760136 -0.2079314 -0.5954558 -0.7760136 -0.2079314 -0.5954558 -0.7760136 -0.2079314 -0.5954558 -0.5680794 -0.5680794 -0.5954592 -0.5680794 -0.5680794 -0.5954592 -0.5680794 -0.5680794 -0.5954592 -0.5680794 -0.5680794 -0.5954591 -0.5680794 -0.5680794 -0.5954591 -0.5680794 -0.5680794 -0.5954591 -0.2079337 -0.7760131 -0.5954555 -0.2079337 -0.7760131 -0.5954555 -0.2079337 -0.7760131 -0.5954555 -0.2079308 -0.7760116 -0.5954585 -0.2079308 -0.7760116 -0.5954585 -0.2079308 -0.7760116 -0.5954585 0.2079331 -0.7760108 -0.5954589 0.2079331 -0.7760108 -0.5954589 0.2079331 -0.7760108 -0.5954589 0.2079314 -0.7760136 -0.5954558 0.2079314 -0.7760136 -0.5954558 0.2079314 -0.7760136 -0.5954558 0.5680794 -0.5680794 -0.5954592 0.5680794 -0.5680794 -0.5954592 0.5680794 -0.5680794 -0.5954592 0.5680794 -0.5680794 -0.5954591 0.5680794 -0.5680794 -0.5954591 0.5680794 -0.5680794 -0.5954591 0.7760131 -0.2079337 -0.5954555 0.7760131 -0.2079337 -0.5954555 0.7760131 -0.2079337 -0.5954555 0.7760116 -0.2079308 -0.5954585 0.7760116 -0.2079308 -0.5954585 0.7760116 -0.2079308 -0.5954585 0.7760108 0.2079331 -0.5954589 0.7760108 0.2079331 -0.5954589 0.7760108 0.2079331 -0.5954589 0.7760136 0.2079314 -0.5954558 0.7760136 0.2079314 -0.5954558 0.7760136 0.2079314 -0.5954558 0.5680794 0.5680794 -0.5954592 0.5680794 0.5680794 -0.5954592 0.5680794 0.5680794 -0.5954592 0.5680794 0.5680794 -0.5954591 0.5680794 0.5680794 -0.5954591 0.5680794 0.5680794 -0.5954591 0.2079337 0.7760131 -0.5954555 0.2079337 0.7760131 -0.5954555 0.2079337 0.7760131 -0.5954555 0.2079308 0.7760116 -0.5954585 0.2079308 0.7760116 -0.5954585 0.2079308 0.7760116 -0.5954585 -0.2079331 0.7760108 -0.5954589 -0.2079331 0.7760108 -0.5954589 -0.2079331 0.7760108 -0.5954589 -0.2079314 0.7760136 -0.5954558 -0.2079314 0.7760136 -0.5954558 -0.2079314 0.7760136 -0.5954558 -0.5680794 0.5680794 -0.5954592 -0.5680794 0.5680794 -0.5954592 -0.5680794 0.5680794 -0.5954592 -0.5680794 0.5680794 -0.5954591 -0.5680794 0.5680794 -0.5954591 -0.5680794 0.5680794 -0.5954591 -0.7760131 0.2079337 -0.5954555 -0.7760131 0.2079337 -0.5954555 -0.7760131 0.2079337 -0.5954555 -0.7760116 0.2079308 -0.5954585 -0.7760116 0.2079308 -0.5954585 -0.7760116 0.2079308 -0.5954585 -0.8968095 -0.2402984 -0.3714693 -0.8968095 -0.2402984 -0.3714693 -0.8968095 -0.2402984 -0.3714693 -0.8968081 -0.2402997 -0.371472 -0.8968081 -0.2402997 -0.371472 -0.8968081 -0.2402997 -0.371472 -0.6565099 -0.6565099 -0.3714692 -0.6565099 -0.6565099 -0.3714692 -0.6565099 -0.6565099 -0.3714692 -0.6565099 -0.6565099 -0.3714693 -0.6565099 -0.6565099 -0.3714693 -0.6565099 -0.6565099 -0.3714693 -0.2402981 -0.8968083 -0.3714722 -0.2402981 -0.8968083 -0.3714722 -0.2402981 -0.8968083 -0.3714722 -0.2403 -0.896809 -0.3714694 -0.2403 -0.896809 -0.3714694 -0.2403 -0.896809 -0.3714694 0.2402984 -0.8968095 -0.3714692 0.2402984 -0.8968095 -0.3714692 0.2402984 -0.8968095 -0.3714692 0.2402997 -0.896808 -0.371472 0.2402997 -0.896808 -0.371472 0.2402997 -0.896808 -0.371472 0.6565099 -0.6565099 -0.3714693 0.6565099 -0.6565099 -0.3714693 0.6565099 -0.6565099 -0.3714693 0.6565099 -0.6565099 -0.3714692 0.6565099 -0.6565099 -0.3714692 0.6565099 -0.6565099 -0.3714692 0.8968083 -0.2402981 -0.3714722 0.8968083 -0.2402981 -0.3714722 0.8968083 -0.2402981 -0.3714722 0.896809 -0.2403 -0.3714694 0.896809 -0.2403 -0.3714694 0.896809 -0.2403 -0.3714694 0.8968095 0.2402984 -0.3714693 0.8968095 0.2402984 -0.3714693 0.8968095 0.2402984 -0.3714693 0.8968081 0.2402997 -0.371472 0.8968081 0.2402997 -0.371472 0.8968081 0.2402997 -0.371472 0.6565099 0.6565099 -0.3714692 0.6565099 0.6565099 -0.3714692 0.6565099 0.6565099 -0.3714692 0.6565099 0.6565099 -0.3714693 0.6565099 0.6565099 -0.3714693 0.6565099 0.6565099 -0.3714693 0.2402981 0.8968083 -0.3714722 0.2402981 0.8968083 -0.3714722 0.2402981 0.8968083 -0.3714722 0.2403 0.896809 -0.3714694 0.2403 0.896809 -0.3714694 0.2403 0.896809 -0.3714694 -0.2402984 0.8968095 -0.3714692 -0.2402984 0.8968095 -0.3714692 -0.2402984 0.8968095 -0.3714692 -0.2402997 0.896808 -0.371472 -0.2402997 0.896808 -0.371472 -0.2402997 0.896808 -0.371472 -0.6565099 0.6565099 -0.3714693 -0.6565099 0.6565099 -0.3714693 -0.6565099 0.6565099 -0.3714693 -0.6565099 0.6565099 -0.3714692 -0.6565099 0.6565099 -0.3714692 -0.6565099 0.6565099 -0.3714692 -0.8968083 0.2402981 -0.3714722 -0.8968083 0.2402981 -0.3714722 -0.8968083 0.2402981 -0.3714722 -0.896809 0.2403 -0.3714694 -0.896809 0.2403 -0.3714694 -0.896809 0.2403 -0.3714694 -0.958209 -0.2567521 -0.1261501 -0.958209 -0.2567521 -0.1261501 -0.958209 -0.2567521 -0.1261501 -0.958209 -0.2567522 -0.1261503 -0.958209 -0.2567522 -0.1261503 -0.958209 -0.2567522 -0.1261503 -0.7014578 -0.7014579 -0.1261502 -0.7014578 -0.7014579 -0.1261502 -0.7014578 -0.7014579 -0.1261502 -0.7014578 -0.7014578 -0.1261501 -0.7014578 -0.7014578 -0.1261501 -0.7014578 -0.7014578 -0.1261501 -0.2567521 -0.958209 -0.1261503 -0.2567521 -0.958209 -0.1261503 -0.2567521 -0.958209 -0.1261503 -0.2567522 -0.958209 -0.1261502 -0.2567522 -0.958209 -0.1261502 -0.2567522 -0.958209 -0.1261502 0.2567521 -0.958209 -0.1261502 0.2567521 -0.958209 -0.1261502 0.2567521 -0.958209 -0.1261502 0.2567522 -0.958209 -0.1261503 0.2567522 -0.958209 -0.1261503 0.2567522 -0.958209 -0.1261503 0.7014578 -0.7014579 -0.1261501 0.7014578 -0.7014579 -0.1261501 0.7014578 -0.7014579 -0.1261501 0.7014578 -0.7014578 -0.1261502 0.7014578 -0.7014578 -0.1261502 0.7014578 -0.7014578 -0.1261502 0.958209 -0.2567521 -0.1261503 0.958209 -0.2567521 -0.1261503 0.958209 -0.2567521 -0.1261503 0.958209 -0.2567522 -0.1261501 0.958209 -0.2567522 -0.1261501 0.958209 -0.2567522 -0.1261501 0.958209 0.2567521 -0.1261501 0.958209 0.2567521 -0.1261501 0.958209 0.2567521 -0.1261501 0.958209 0.2567522 -0.1261503 0.958209 0.2567522 -0.1261503 0.958209 0.2567522 -0.1261503 0.7014578 0.7014579 -0.1261502 0.7014578 0.7014579 -0.1261502 0.7014578 0.7014579 -0.1261502 0.7014578 0.7014578 -0.1261501 0.7014578 0.7014578 -0.1261501 0.7014578 0.7014578 -0.1261501 0.2567521 0.958209 -0.1261503 0.2567521 0.958209 -0.1261503 0.2567521 0.958209 -0.1261503 0.2567522 0.958209 -0.1261502 0.2567522 0.958209 -0.1261502 0.2567522 0.958209 -0.1261502 -0.2567521 0.958209 -0.1261502 -0.2567521 0.958209 -0.1261502 -0.2567521 0.958209 -0.1261502 -0.2567522 0.958209 -0.1261503 -0.2567522 0.958209 -0.1261503 -0.2567522 0.958209 -0.1261503 -0.7014578 0.7014579 -0.1261501 -0.7014578 0.7014579 -0.1261501 -0.7014578 0.7014579 -0.1261501 -0.7014578 0.7014578 -0.1261502 -0.7014578 0.7014578 -0.1261502 -0.7014578 0.7014578 -0.1261502 -0.958209 0.2567521 -0.1261503 -0.958209 0.2567521 -0.1261503 -0.958209 0.2567521 -0.1261503 -0.958209 0.2567522 -0.1261501 -0.958209 0.2567522 -0.1261501 -0.958209 0.2567522 -0.1261501 -0.958209 -0.2567522 0.1261501 -0.958209 -0.2567522 0.1261501 -0.958209 -0.2567522 0.1261501 -0.958209 -0.2567521 0.1261503 -0.958209 -0.2567521 0.1261503 -0.958209 -0.2567521 0.1261503 -0.7014578 -0.7014578 0.1261501 -0.7014578 -0.7014578 0.1261501 -0.7014578 -0.7014578 0.1261501 -0.7014577 -0.7014579 0.12615 -0.7014577 -0.7014579 0.12615 -0.7014577 -0.7014579 0.12615 -0.2567522 -0.958209 0.1261503 -0.2567522 -0.958209 0.1261503 -0.2567522 -0.958209 0.1261503 -0.2567521 -0.958209 0.1261501 -0.2567521 -0.958209 0.1261501 -0.2567521 -0.958209 0.1261501 0.2567522 -0.958209 0.1261501 0.2567522 -0.958209 0.1261501 0.2567522 -0.958209 0.1261501 0.2567521 -0.958209 0.1261503 0.2567521 -0.958209 0.1261503 0.2567521 -0.958209 0.1261503 0.7014578 -0.7014578 0.12615 0.7014578 -0.7014578 0.12615 0.7014578 -0.7014578 0.12615 0.7014577 -0.7014579 0.1261501 0.7014577 -0.7014579 0.1261501 0.7014577 -0.7014579 0.1261501 0.958209 -0.2567522 0.1261503 0.958209 -0.2567522 0.1261503 0.958209 -0.2567522 0.1261503 0.958209 -0.2567521 0.1261501 0.958209 -0.2567521 0.1261501 0.958209 -0.2567521 0.1261501 0.958209 0.2567522 0.1261501 0.958209 0.2567522 0.1261501 0.958209 0.2567522 0.1261501 0.958209 0.2567521 0.1261503 0.958209 0.2567521 0.1261503 0.958209 0.2567521 0.1261503 0.7014578 0.7014578 0.1261501 0.7014578 0.7014578 0.1261501 0.7014578 0.7014578 0.1261501 0.7014577 0.7014579 0.12615 0.7014577 0.7014579 0.12615 0.7014577 0.7014579 0.12615 0.2567522 0.958209 0.1261503 0.2567522 0.958209 0.1261503 0.2567522 0.958209 0.1261503 0.2567521 0.958209 0.1261501 0.2567521 0.958209 0.1261501 0.2567521 0.958209 0.1261501 -0.2567522 0.958209 0.1261501 -0.2567522 0.958209 0.1261501 -0.2567522 0.958209 0.1261501 -0.2567521 0.958209 0.1261503 -0.2567521 0.958209 0.1261503 -0.2567521 0.958209 0.1261503 -0.7014578 0.7014578 0.12615 -0.7014578 0.7014578 0.12615 -0.7014578 0.7014578 0.12615 -0.7014577 0.7014579 0.1261501 -0.7014577 0.7014579 0.1261501 -0.7014577 0.7014579 0.1261501 -0.958209 0.2567522 0.1261503 -0.958209 0.2567522 0.1261503 -0.958209 0.2567522 0.1261503 -0.958209 0.2567521 0.1261501 -0.958209 0.2567521 0.1261501 -0.958209 0.2567521 0.1261501 -0.896809 -0.2403 0.3714694 -0.896809 -0.2403 0.3714694 -0.896809 -0.2403 0.3714694 -0.8968083 -0.2402981 0.3714722 -0.8968083 -0.2402981 0.3714722 -0.8968083 -0.2402981 0.3714722 -0.6565099 -0.6565099 0.3714692 -0.6565099 -0.6565099 0.3714692 -0.6565099 -0.6565099 0.3714692 -0.6565099 -0.6565099 0.3714693 -0.6565099 -0.6565099 0.3714693 -0.6565099 -0.6565099 0.3714693 -0.2402997 -0.896808 0.371472 -0.2402997 -0.896808 0.371472 -0.2402997 -0.896808 0.371472 -0.2402984 -0.8968095 0.3714693 -0.2402984 -0.8968095 0.3714693 -0.2402984 -0.8968095 0.3714693 0.2403 -0.896809 0.3714694 0.2403 -0.896809 0.3714694 0.2403 -0.896809 0.3714694 0.2402981 -0.8968083 0.3714722 0.2402981 -0.8968083 0.3714722 0.2402981 -0.8968083 0.3714722 0.6565099 -0.6565099 0.3714693 0.6565099 -0.6565099 0.3714693 0.6565099 -0.6565099 0.3714693 0.6565099 -0.6565099 0.3714692 0.6565099 -0.6565099 0.3714692 0.6565099 -0.6565099 0.3714692 0.8968081 -0.2402997 0.371472 0.8968081 -0.2402997 0.371472 0.8968081 -0.2402997 0.371472 0.8968095 -0.2402984 0.3714693 0.8968095 -0.2402984 0.3714693 0.8968095 -0.2402984 0.3714693 0.896809 0.2403 0.3714694 0.896809 0.2403 0.3714694 0.896809 0.2403 0.3714694 0.8968083 0.2402981 0.3714722 0.8968083 0.2402981 0.3714722 0.8968083 0.2402981 0.3714722 0.6565099 0.6565099 0.3714692 0.6565099 0.6565099 0.3714692 0.6565099 0.6565099 0.3714692 0.6565099 0.6565099 0.3714693 0.6565099 0.6565099 0.3714693 0.6565099 0.6565099 0.3714693 0.2402997 0.896808 0.371472 0.2402997 0.896808 0.371472 0.2402997 0.896808 0.371472 0.2402984 0.8968095 0.3714693 0.2402984 0.8968095 0.3714693 0.2402984 0.8968095 0.3714693 -0.2403 0.896809 0.3714694 -0.2403 0.896809 0.3714694 -0.2403 0.896809 0.3714694 -0.2402981 0.8968083 0.3714722 -0.2402981 0.8968083 0.3714722 -0.2402981 0.8968083 0.3714722 -0.6565099 0.6565099 0.3714693 -0.6565099 0.6565099 0.3714693 -0.6565099 0.6565099 0.3714693 -0.6565099 0.6565099 0.3714692 -0.6565099 0.6565099 0.3714692 -0.6565099 0.6565099 0.3714692 -0.8968081 0.2402997 0.371472 -0.8968081 0.2402997 0.371472 -0.8968081 0.2402997 0.371472 -0.8968095 0.2402984 0.3714693 -0.8968095 0.2402984 0.3714693 -0.8968095 0.2402984 0.3714693 -0.7760128 -0.2079312 0.5954568 -0.7760128 -0.2079312 0.5954568 -0.7760128 -0.2079312 0.5954568 -0.7760144 -0.207934 0.5954537 -0.7760144 -0.207934 0.5954537 -0.7760144 -0.207934 0.5954537 -0.5680803 -0.5680803 0.5954573 -0.5680803 -0.5680803 0.5954573 -0.5680803 -0.5680803 0.5954573 -0.5680803 -0.5680803 0.5954574 -0.5680803 -0.5680803 0.5954574 -0.5680803 -0.5680803 0.5954574 -0.2079317 -0.7760147 0.595454 -0.2079317 -0.7760147 0.595454 -0.2079317 -0.7760147 0.595454 -0.2079334 -0.7760119 0.5954571 -0.2079334 -0.7760119 0.5954571 -0.2079334 -0.7760119 0.5954571 0.2079312 -0.7760128 0.5954568 0.2079312 -0.7760128 0.5954568 0.2079312 -0.7760128 0.5954568 0.207934 -0.7760144 0.5954537 0.207934 -0.7760144 0.5954537 0.207934 -0.7760144 0.5954537 0.5680803 -0.5680803 0.5954573 0.5680803 -0.5680803 0.5954573 0.5680803 -0.5680803 0.5954573 0.5680803 -0.5680803 0.5954574 0.5680803 -0.5680803 0.5954574 0.5680803 -0.5680803 0.5954574 0.7760147 -0.2079317 0.595454 0.7760147 -0.2079317 0.595454 0.7760147 -0.2079317 0.595454 0.7760119 -0.2079334 0.5954571 0.7760119 -0.2079334 0.5954571 0.7760119 -0.2079334 0.5954571 0.7760128 0.2079312 0.5954568 0.7760128 0.2079312 0.5954568 0.7760128 0.2079312 0.5954568 0.7760144 0.207934 0.5954537 0.7760144 0.207934 0.5954537 0.7760144 0.207934 0.5954537 0.5680803 0.5680803 0.5954573 0.5680803 0.5680803 0.5954573 0.5680803 0.5680803 0.5954573 0.5680803 0.5680803 0.5954574 0.5680803 0.5680803 0.5954574 0.5680803 0.5680803 0.5954574 0.2079317 0.7760147 0.595454 0.2079317 0.7760147 0.595454 0.2079317 0.7760147 0.595454 0.2079334 0.7760119 0.5954571 0.2079334 0.7760119 0.5954571 0.2079334 0.7760119 0.5954571 -0.2079312 0.7760128 0.5954568 -0.2079312 0.7760128 0.5954568 -0.2079312 0.7760128 0.5954568 -0.207934 0.7760144 0.5954537 -0.207934 0.7760144 0.5954537 -0.207934 0.7760144 0.5954537 -0.5680803 0.5680803 0.5954573 -0.5680803 0.5680803 0.5954573 -0.5680803 0.5680803 0.5954573 -0.5680803 0.5680803 0.5954574 -0.5680803 0.5680803 0.5954574 -0.5680803 0.5680803 0.5954574 -0.7760147 0.2079317 0.595454 -0.7760147 0.2079317 0.595454 -0.7760147 0.2079317 0.595454 -0.7760119 0.2079334 0.5954571 -0.7760119 0.2079334 0.5954571 -0.7760119 0.2079334 0.5954571 -0.6008226 -0.1609912 0.7830032 -0.6008226 -0.1609912 0.7830032 -0.6008226 -0.1609912 0.7830032 -0.6008214 -0.160989 0.7830046 -0.6008214 -0.160989 0.7830046 -0.6008214 -0.160989 0.7830046 -0.4398331 -0.4398331 0.783003 -0.4398331 -0.4398331 0.783003 -0.4398331 -0.4398331 0.783003 -0.439833 -0.439833 0.7830031 -0.439833 -0.439833 0.7830031 -0.439833 -0.439833 0.7830031 -0.1609908 -0.6008213 0.7830043 -0.1609908 -0.6008213 0.7830043 -0.1609908 -0.6008213 0.7830043 -0.1609895 -0.6008234 0.7830029 -0.1609895 -0.6008234 0.7830029 -0.1609895 -0.6008234 0.7830029 0.1609912 -0.6008226 0.7830032 0.1609912 -0.6008226 0.7830032 0.1609912 -0.6008226 0.7830032 0.160989 -0.6008214 0.7830046 0.160989 -0.6008214 0.7830046 0.160989 -0.6008214 0.7830046 0.4398331 -0.4398331 0.783003 0.4398331 -0.4398331 0.783003 0.4398331 -0.4398331 0.783003 0.439833 -0.439833 0.7830031 0.439833 -0.439833 0.7830031 0.439833 -0.439833 0.7830031 0.6008213 -0.1609908 0.7830043 0.6008213 -0.1609908 0.7830043 0.6008213 -0.1609908 0.7830043 0.6008234 -0.1609895 0.7830029 0.6008234 -0.1609895 0.7830029 0.6008234 -0.1609895 0.7830029 0.6008226 0.1609912 0.7830032 0.6008226 0.1609912 0.7830032 0.6008226 0.1609912 0.7830032 0.6008214 0.160989 0.7830046 0.6008214 0.160989 0.7830046 0.6008214 0.160989 0.7830046 0.4398331 0.4398331 0.783003 0.4398331 0.4398331 0.783003 0.4398331 0.4398331 0.783003 0.439833 0.439833 0.7830031 0.439833 0.439833 0.7830031 0.439833 0.439833 0.7830031 0.1609908 0.6008213 0.7830043 0.1609908 0.6008213 0.7830043 0.1609908 0.6008213 0.7830043 0.1609895 0.6008234 0.7830029 0.1609895 0.6008234 0.7830029 0.1609895 0.6008234 0.7830029 -0.1609912 0.6008226 0.7830032 -0.1609912 0.6008226 0.7830032 -0.1609912 0.6008226 0.7830032 -0.160989 0.6008214 0.7830046 -0.160989 0.6008214 0.7830046 -0.160989 0.6008214 0.7830046 -0.4398331 0.4398331 0.783003 -0.4398331 0.4398331 0.783003 -0.4398331 0.4398331 0.783003 -0.439833 0.439833 0.7830031 -0.439833 0.439833 0.7830031 -0.439833 0.439833 0.7830031 -0.6008213 0.1609908 0.7830043 -0.6008213 0.1609908 0.7830043 -0.6008213 0.1609908 0.7830043 -0.6008234 0.1609895 0.7830029 -0.6008234 0.1609895 0.7830029 -0.6008234 0.1609895 0.7830029 -0.3806861 -0.1020041 0.919061 -0.3806861 -0.1020041 0.919061 -0.3806861 -0.1020041 0.919061 -0.3806859 -0.1020035 0.9190612 -0.3806859 -0.1020035 0.9190612 -0.3806859 -0.1020035 0.9190612 -0.2786817 -0.2786817 0.9190609 -0.2786817 -0.2786817 0.9190609 -0.2786817 -0.2786817 0.9190609 -0.2786817 -0.2786817 0.9190609 -0.2786817 -0.2786817 0.9190609 -0.2786817 -0.2786817 0.9190609 -0.1020041 -0.380686 0.9190612 -0.1020041 -0.380686 0.9190612 -0.1020041 -0.380686 0.9190612 -0.1020036 -0.3806864 0.919061 -0.1020036 -0.3806864 0.919061 -0.1020036 -0.3806864 0.919061 0.1020041 -0.3806861 0.919061 0.1020041 -0.3806861 0.919061 0.1020041 -0.3806861 0.919061 0.1020035 -0.3806859 0.9190612 0.1020035 -0.3806859 0.9190612 0.1020035 -0.3806859 0.9190612 0.2786817 -0.2786817 0.9190609 0.2786817 -0.2786817 0.9190609 0.2786817 -0.2786817 0.9190609 0.2786817 -0.2786817 0.9190609 0.2786817 -0.2786817 0.9190609 0.2786817 -0.2786817 0.9190609 0.380686 -0.1020041 0.9190612 0.380686 -0.1020041 0.9190612 0.380686 -0.1020041 0.9190612 0.3806864 -0.1020036 0.919061 0.3806864 -0.1020036 0.919061 0.3806864 -0.1020036 0.919061 0.3806861 0.1020041 0.919061 0.3806861 0.1020041 0.919061 0.3806861 0.1020041 0.919061 0.3806859 0.1020035 0.9190612 0.3806859 0.1020035 0.9190612 0.3806859 0.1020035 0.9190612 0.2786817 0.2786817 0.9190609 0.2786817 0.2786817 0.9190609 0.2786817 0.2786817 0.9190609 0.2786817 0.2786817 0.9190609 0.2786817 0.2786817 0.9190609 0.2786817 0.2786817 0.9190609</float_array>
                    <technique_common>
                        <accessor count="840" source="#geometry0-normal-array" stride="3">
                            <param name="X" type="float"/>
                            <param name="Y" type="float"/>
                            <param name="Z" type="float"/>
                        </accessor>
                    </technique_common>
                </source>
                <vertices id="geometry0-vertex">
                    <input semantic="POSITION" source="#geometry0-position"/>
                </vertices>
                <triangles count="288" material="default_ai_0.2_sh_0.2_tr_0.0_dc_r_0.8_g_0.8_b_0.8_sc_r_1.0_g_1.0_b_1.0_ec_r_0.0_g_0.0_b_0_tri">
                    <input offset="0" semantic="VERTEX" source="#geometry0-vertex"/>
                    <input offset="1" semantic="NORMAL" source="#geometry0-normal"/>
                    <p>117 0 118 1 130 2 117 3 130 4 129 5 118 6 119 7 131 8 118 9 131 10 130 11 119 12 120 13 132 14 119 15 132 16 131 17 120 18 110 19 122 20 120 21 122 22 132 23 122 24 121 25 133 26 122 27 133 28 133 28 121 29 123 30 133 31 121 32 133 33 133 33 123 34 124 35 133 36 123 37 133 38 133 38 124 39 125 40 133 41 124 42 133 43 133 43 125 44 126 45 133 46 125 47 133 48 133 48 126 49 127 50 133 51 126 52 133 53 133 53 127 54 128 55 133 56 127 57 133 58 133 58 128 59 129 60 133 61 128 62 133 63 133 63 129 64 130 65 133 66 129 67 133 68 133 68 130 69 131 70 133 71 130 72 133 73 133 73 131 74 132 75 133 76 131 77 133 78 133 78 132 79 122 80 133 81 132 82 133 83 133 83 0 84 0 84 1 85 0 86 1 87 2 88 0 89 0 89 3 90 0 91 3 92 1 93 0 94 0 94 4 95 0 96 4 97 3 98 0 99 0 99 5 100 0 101 5 102 4 103 0 104 0 104 6 105 0 106 6 107 5 108 0 109 0 109 7 110 0 111 7 112 6 113 0 114 0 114 8 115 0 116 8 117 7 118 0 119 0 119 9 120 0 121 9 122 8 123 0 124 0 124 10 125 0 126 10 127 9 128 0 129 0 129 11 130 0 131 11 132 10 133 0 134 0 134 12 135 0 136 12 137 11 138 0 139 0 139 2 140 0 141 2 142 12 143 2 144 1 145 13 146 2 147 13 148 14 149 1 150 3 151 15 152 1 153 15 154 13 155 3 156 4 157 16 158 3 159 16 160 15 161 4 162 5 163 17 164 4 165 17 166 16 167 5 168 6 169 18 170 5 171 18 172 17 173 6 174 7 175 19 176 6 177 19 178 18 179 7 180 8 181 20 182 7 183 20 184 19 185 8 186 9 187 21 188 8 189 21 190 20 191 9 192 10 193 22 194 9 195 22 196 21 197 10 198 11 199 23 200 10 201 23 202 22 203 11 204 12 205 24 206 11 207 24 208 23 209 12 210 2 211 14 212 12 213 14 214 24 215 14 216 13 217 25 218 14 219 25 220 26 221 13 222 15 223 27 224 13 225 27 226 25 227 15 228 16 229 28 230 15 231 28 232 27 233 16 234 17 235 29 236 16 237 29 238 28 239 17 240 18 241 30 242 17 243 30 244 29 245 18 246 19 247 31 248 18 249 31 250 30 251 19 252 20 253 32 254 19 255 32 256 31 257 20 258 21 259 33 260 20 261 33 262 32 263 21 264 22 265 34 266 21 267 34 268 33 269 22 270 23 271 35 272 22 273 35 274 34 275 23 276 24 277 36 278 23 279 36 280 35 281 24 282 14 283 26 284 24 285 26 286 36 287 26 288 25 289 37 290 26 291 37 292 38 293 25 294 27 295 39 296 25 297 39 298 37 299 27 300 28 301 40 302 27 303 40 304 39 305 28 306 29 307 41 308 28 309 41 310 40 311 29 312 30 313 42 314 29 315 42 316 41 317 30 318 31 319 43 320 30 321 43 322 42 323 31 324 32 325 44 326 31 327 44 328 43 329 32 330 33 331 45 332 32 333 45 334 44 335 33 336 34 337 46 338 33 339 46 340 45 341 34 342 35 343 47 344 34 345 47 346 46 347 35 348 36 349 48 350 35 351 48 352 47 353 36 354 26 355 38 356 36 357 38 358 48 359 38 360 37 361 49 362 38 363 49 364 50 365 37 366 39 367 51 368 37 369 51 370 49 371 39 372 40 373 52 374 39 375 52 376 51 377 40 378 41 379 53 380 40 381 53 382 52 383 41 384 42 385 54 386 41 387 54 388 53 389 42 390 43 391 55 392 42 393 55 394 54 395 43 396 44 397 56 398 43 399 56 400 55 401 44 402 45 403 57 404 44 405 57 406 56 407 45 408 46 409 58 410 45 411 58 412 57 413 46 414 47 415 59 416 46 417 59 418 58 419 47 420 48 421 60 422 47 423 60 424 59 425 48 426 38 427 50 428 48 429 50 430 60 431 50 432 49 433 61 434 50 435 61 436 62 437 49 438 51 439 63 440 49 441 63 442 61 443 51 444 52 445 64 446 51 447 64 448 63 449 52 450 53 451 65 452 52 453 65 454 64 455 53 456 54 457 66 458 53 459 66 460 65 461 54 462 55 463 67 464 54 465 67 466 66 467 55 468 56 469 68 470 55 471 68 472 67 473 56 474 57 475 69 476 56 477 69 478 68 479 57 480 58 481 70 482 57 483 70 484 69 485 58 486 59 487 71 488 58 489 71 490 70 491 59 492 60 493 72 494 59 495 72 496 71 497 60 498 50 499 62 500 60 501 62 502 72 503 62 504 61 505 73 506 62 507 73 508 74 509 61 510 63 511 75 512 61 513 75 514 73 515 63 516 64 517 76 518 63 519 76 520 75 521 64 522 65 523 77 524 64 525 77 526 76 527 65 528 66 529 78 530 65 531 78 532 77 533 66 534 67 535 79 536 66 537 79 538 78 539 67 540 68 541 80 542 67 543 80 544 79 545 68 546 69 547 81 548 68 549 81 550 80 551 69 552 70 553 82 554 69 555 82 556 81 557 70 558 71 559 83 560 70 561 83 562 82 563 71 564 72 565 84 566 71 567 84 568 83 569 72 570 62 571 74 572 72 573 74 574 84 575 74 576 73 577 85 578 74 579 85 580 86 581 73 582 75 583 87 584 73 585 87 586 85 587 75 588 76 589 88 590 75 591 88 592 87 593 76 594 77 595 89 596 76 597 89 598 88 599 77 600 78 601 90 602 77 603 90 604 89 605 78 606 79 607 91 608 78 609 91 610 90 611 79 612 80 613 92 614 79 615 92 616 91 617 80 618 81 619 93 620 80 621 93 622 92 623 81 624 82 625 94 626 81 627 94 628 93 629 82 630 83 631 95 632 82 633 95 634 94 635 83 636 84 637 96 638 83 639 96 640 95 641 84 642 74 643 86 644 84 645 86 646 96 647 86 648 85 649 97 650 86 651 97 652 98 653 85 654 87 655 99 656 85 657 99 658 97 659 87 660 88 661 100 662 87 663 100 664 99 665 88 666 89 667 101 668 88 669 101 670 100 671 89 672 90 673 102 674 89 675 102 676 101 677 90 678 91 679 103 680 90 681 103 682 102 683 91 684 92 685 104 686 91 687 104 688 103 689 92 690 93 691 105 692 92 693 105 694 104 695 93 696 94 697 106 698 93 699 106 700 105 701 94 702 95 703 107 704 94 705 107 706 106 707 95 708 96 709 108 710 95 711 108 712 107 713 96 714 86 715 98 716 96 717 98 718 108 719 98 720 97 721 109 722 98 723 109 724 110 725 97 726 99 727 111 728 97 729 111 730 109 731 99 732 100 733 112 734 99 735 112 736 111 737 100 738 101 739 113 740 100 741 113 742 112 743 101 744 102 745 114 746 101 747 114 748 113 749 102 750 103 751 115 752 102 753 115 754 114 755 103 756 104 757 116 758 103 759 116 760 115 761 104 762 105 763 117 764 104 765 117 766 116 767 105 768 106 769 118 770 105 771 118 772 117 773 106 774 107 775 119 776 106 777 119 778 118 779 107 780 108 781 120 782 107 783 120 784 119 785 108 786 98 787 110 788 108 789 110 790 120 791 110 792 109 793 121 794 110 795 121 796 122 797 109 798 111 799 123 800 109 801 123 802 121 803 111 804 112 805 124 806 111 807 124 808 123 809 112 810 113 811 125 812 112 813 125 814 124 815 113 816 114 817 126 818 113 819 126 820 125 821 114 822 115 823 127 824 114 825 127 826 126 827 115 828 116 829 128 830 115 831 128 832 127 833 116 834 117 835 129 836 116 837 129 838 128 839</p>
                </triangles>
            </mesh>
        </geometry>
    </library_geometries>
    <library_visual_scenes>
        <visual_scene id="Building_127_CROWN1">
            <node>
                <instance_geometry url="#geometry0">
                    <bind_material>
                        <technique_common>
                            <instance_material symbol="default_ai_0.2_sh_0.2_tr_0.0_dc_r_0.8_g_0.8_b_0.8_sc_r_1.0_g_1.0_b_1.0_ec_r_0.0_g_0.0_b_0_tri" target="#default_ai_0.2_sh_0.2_tr_0.0_dc_r_0.8_g_0.8_b_0.8_sc_r_1.0_g_1.0_b_1.0_ec_r_0.0_g_0.0_b_0_mat"/>
                        </technique_common>
                    </bind_material>
                </instance_geometry>
            </node>
        </visual_scene>
    </library_visual_scenes>
    <scene>
        <instance_visual_scene url="#Building_127_CROWN1"/>
    </scene>
</COLLADA>
