<?xml version="1.0" encoding="UTF-8" standalone="yes"?>
<COLLADA xmlns="http://www.collada.org/2005/11/COLLADASchema" version="1.4.1">
    <asset>
        <contributor>
            <authoring_tool>3D City Database Importer/Exporter, version 5.5.3; Chair of Geoinformatics, Technical University of Munich</authoring_tool>
        </contributor>
        <created>2026-09-25T14:45:30.154</created>
        <modified>2026-09-25T14:45:30.154</modified>
        <unit meter="1.0" name="meters"/>
        <up_axis>Z_UP</up_axis>
    </asset>
    <library_materials>
        <material id="default_ai_0.2_sh_0.2_tr_0.0_dc_r_0.8_g_0.8_b_0.8_sc_r_1.0_g_1.0_b_1.0_ec_r_0.0_g_0.0_b_0_mat">
            <instance_effect url="#default_ai_0.2_sh_0.2_tr_0.0_dc_r_0.8_g_0.8_b_0.8_sc_r_1.0_g_1.0_b_1.0_ec_r_0.0_g_0.0_b_0_eff"/>
        </material>
    </library_materials>
    <library_effects>
        <effect id="default_ai_0.2_sh_0.2_tr_0.0_dc_r_0.8_g_0.8_b_0.8_sc_r_1.0_g_1.0_b_1.0_ec_r_0.0_g_0.0_b_0_eff">
            <profile_COMMON>
                <technique sid="COMMON">
                    <lambert>
                        <emission>
                            <color>0.0 0.0 0.0 1.0</color>
                        </emission>
                        <diffuse>
                            <color>0.8 0.8 0.8 1.0</color>
                        </diffuse>
                        <reflective>
                            <color>1.0 1.0 1.0 1.0</color>
                        </reflective>
                        <reflectivity>
                            <float>0.2</float>
                        </reflectivity>
                        <transparent opaque="A_ONE">
                            <color>1.0 1.0 1.0 1.0</color>
                        </transparent>
                        <transparency>
                            <float>1.0</float>
                        </transparency>
                    </lambert>
                </technique>
                <extra>
                    <technique profile="GOOGLEEARTH">
                        <double_sided>0</double_sided>
                    </technique>
                </extra>
            </profile_COMMON>
        </effect>
    </library_effects>
    <library_geometries>
        <geometry id="geometry0">
            <mesh>
                <source id="geometry0-position">
                    <float_array id="geometry0-position-array" count="402">0.0 0.0 1.3 0.1456936 0.0841165 1.2778519 0.1682324 0.0 1.2778519 0.0841165 0.1456936 1.2778519 0.0 0.1682323 1.2778519 -0.0841165 0.1456936 1.2778519 -0.1456936 0.0841165 1.2778519 -0.1682324 0.0 1.2778519 -0.1456936 -0.0841165 1.2778519 -0.0841165 -0.1456936 1.2778519 0.0 -0.1682323 1.2778519 0.0841165 -0.1456936 1.2778519 0.1456936 -0.0841165 1.2778519 0.2814585 0.1625 1.2129163 0.325 0.0 1.2129163 0.1625 0.2814584 1.2129163 0.0 0.325 1.2129163 -0.1625 0.2814584 1.2129163 -0.2814585 0.1625 1.2129163 -0.325 0.0 1.2129163 -0.2814585 -0.1625 1.2129163 -0.1625 -0.2814584 1.2129163 0.0 -0.325 1.2129163 0.1625 -0.2814584 1.2129163 0.2814585 -0.1625 1.2129163 0.3980418 0.2298094 1.1096189 0.4596195 0.0 1.1096189 0.2298094 0.3980418 1.1096189 0.0 0.4596196 1.1096189 -0.2298094 0.3980418 1.1096189 -0.3980418 0.2298094 1.1096189 -0.4596195 0.0 1.1096189 -0.3980418 -0.2298094 1.1096189 -0.2298094 -0.3980418 1.1096189 0.0 -0.4596196 1.1096189 0.2298094 -0.3980418 1.1096189 0.3980418 -0.2298094 1.1096189 0.4875 0.2814584 0.975 0.5629163 0.0 0.975 0.2814585 0.4875 0.975 0.0 0.5629162 0.975 -0.2814585 0.4875 0.975 -0.4875 0.2814584 0.975 -0.5629163 0.0 0.975 -0.4875 -0.2814584 0.975 -0.2814585 -0.4875 0.975 0.0 -0.5629162 0.975 0.2814585 -0.4875 0.975 0.4875 -0.2814584 0.975 0.5437354 0.3139259 0.8182324 0.6278519 0.0 0.8182324 0.3139259 0.5437354 0.8182324 0.0 0.6278519 0.8182324 -0.3139259 0.5437354 0.8182324 -0.5437354 0.3139259 0.8182324 -0.6278519 0.0 0.8182324 -0.5437354 -0.3139259 0.8182324 -0.3139259 -0.5437354 0.8182324 0.0 -0.6278519 0.8182324 0.3139259 -0.5437354 0.8182324 0.5437354 -0.3139259 0.8182324 0.5629163 0.325 0.65 0.65 0.0 0.65 0.325 0.5629162 0.65 0.0 0.65 0.65 -0.325 0.5629162 0.65 -0.5629163 0.325 0.65 -0.65 0.0 0.65 -0.5629163 -0.325 0.65 -0.325 -0.5629162 0.65 0.0 -0.65 0.65 0.325 -0.5629162 0.65 0.5629163 -0.325 0.65 0.5437354 0.3139259 0.4817677 0.6278519 0.0 0.4817677 0.3139259 0.5437354 0.4817677 0.0 0.6278519 0.4817677 -0.3139259 0.5437354 0.4817677 -0.5437354 0.3139259 0.4817677 -0.6278519 0.0 0.4817677 -0.5437354 -0.3139259 0.4817677 -0.3139259 -0.5437354 0.4817677 0.0 -0.6278519 0.4817677 0.3139259 -0.5437354 0.4817677 0.5437354 -0.3139259 0.4817677 0.4875 0.2814584 0.325 0.5629163 0.0 0.325 0.2814585 0.4875 0.325 0.0 0.5629162 0.325 -0.2814585 0.4875 0.325 -0.4875 0.2814584 0.325 -0.5629163 0.0 0.325 -0.4875 -0.2814584 0.325 -0.2814585 -0.4875 0.325 0.0 -0.5629162 0.325 0.2814585 -0.4875 0.325 0.4875 -0.2814584 0.325 0.3980418 0.2298094 0.1903805 0.4596195 0.0 0.1903805 0.2298094 0.3980418 0.1903805 0.0 0.4596196 0.1903805 -0.2298094 0.3980418 0.1903805 -0.3980418 0.2298094 0.1903805 -0.4596195 0.0 0.1903805 -0.3980418 -0.2298094 0.1903805 -0.2298094 -0.3980418 0.1903805 0.0 -0.4596196 0.1903805 0.2298094 -0.3980418 0.1903805 0.3980418 -0.2298094 0.1903805 0.2814585 0.1625 0.0870831 0.325 0.0 0.0870831 0.1625 0.2814584 0.0870831 0.0 0.325 0.0870831 -0.1625 0.2814584 0.0870831 -0.2814585 0.1625 0.0870831 -0.325 0.0 0.0870831 -0.2814585 -0.1625 0.0870831 -0.1625 -0.2814584 0.0870831 0.0 -0.325 0.0870831 0.1625 -0.2814584 0.0870831 0.2814585 -0.1625 0.0870831 0.1456936 0.0841165 0.0221481 0.1682324 0.0 0.0221481 0.0841165 0.1456936 0.0221481 0.0 0.1682323 0.0221481 -0.0841165 0.1456936 0.0221481 -0.1456936 0.0841165 0.0221481 -0.1682324 0.0 0.0221481 -0.1456936 -0.0841165 0.0221481 -0.0841165 -0.1456936 0.0221481 0.0 -0.1682323 0.0221481 0.0841165 -0.1456936 0.0221481 0.1456936 -0.0841165 0.0221481 0.0 0.0 0.0</float_array>
                    <technique_common>
                        <accessor count="134" source="#geometry0-position-array" stride="3">
                            <param name="X" type="float"/>
                            <param name="Y" type="float"/>
                            <param name="Z" type="float"/>
                        </accessor>
                    </technique_common>
                </source>
                <source id="geometry0-normal">
                    <float_array id="geometry0-normal-array" count="2520">-0.958209 -0.256752 0.1261505 -0.958209 -0.256752 0.1261505 -0.958209 -0.256752 0.1261505 -0.958209 -0.2567523 0.1261499 -0.958209 -0.2567523 0.1261499 -0.958209 -0.2567523 0.1261499 -0.7014578 -0.7014578 0.1261503 -0.7014578 -0.7014578 0.1261503 -0.7014578 -0.7014578 0.1261503 -0.7014578 -0.7014578 0.1261503 -0.7014578 -0.7014578 0.1261503 -0.7014578 -0.7014578 0.1261503 -0.256752 -0.958209 0.1261498 -0.256752 -0.958209 0.1261498 -0.256752 -0.958209 0.1261498 -0.2567523 -0.9582089 0.1261505 -0.2567523 -0.9582089 0.1261505 -0.2567523 -0.9582089 0.1261505 0.256752 -0.958209 0.1261505 0.256752 -0.958209 0.1261505 0.256752 -0.958209 0.1261505 0.2567523 -0.958209 0.1261499 0.2567523 -0.958209 0.1261499 0.2567523 -0.958209 0.1261499 0.7014578 -0.7014578 0.1261503 0.7014578 -0.7014578 0.1261503 0.7014578 -0.7014578 0.1261503 0.7014578 -0.7014578 0.1261503 0.7014578 -0.7014578 0.1261503 0.7014578 -0.7014578 0.1261503 0.958209 -0.256752 0.1261498 0.958209 -0.256752 0.1261498 0.958209 -0.256752 0.1261498 0.9582089 -0.2567523 0.1261505 0.9582089 -0.2567523 0.1261505 0.9582089 -0.2567523 0.1261505 0.958209 0.256752 0.1261505 0.958209 0.256752 0.1261505 0.958209 0.256752 0.1261505 0.958209 0.2567523 0.1261499 0.958209 0.2567523 0.1261499 0.958209 0.2567523 0.1261499 0.7014578 0.7014578 0.1261503 0.7014578 0.7014578 0.1261503 0.7014578 0.7014578 0.1261503 0.7014578 0.7014578 0.1261503 0.7014578 0.7014578 0.1261503 0.7014578 0.7014578 0.1261503 0.256752 0.958209 0.1261498 0.256752 0.958209 0.1261498 0.256752 0.958209 0.1261498 0.2567523 0.9582089 0.1261505 0.2567523 0.9582089 0.1261505 0.2567523 0.9582089 0.1261505 -0.256752 0.958209 0.1261505 -0.256752 0.958209 0.1261505 -0.256752 0.958209 0.1261505 -0.2567523 0.958209 0.1261499 -0.2567523 0.958209 0.1261499 -0.2567523 0.958209 0.1261499 -0.7014578 0.7014578 0.1261503 -0.7014578 0.7014578 0.1261503 -0.7014578 0.7014578 0.1261503 -0.7014578 0.7014578 0.1261503 -0.7014578 0.7014578 0.1261503 -0.7014578 0.7014578 0.1261503 -0.958209 0.256752 0.1261498 -0.958209 0.256752 0.1261498 -0.958209 0.256752 0.1261498 -0.9582089 0.2567523 0.1261505 -0.9582089 0.2567523 0.1261505 -0.9582089 0.2567523 0.1261505 -0.8968092 -0.2403002 0.3714691 -0.8968092 -0.2403002 0.3714691 -0.8968092 -0.2403002 0.3714691 -0.8968084 -0.2402981 0.3714721 -0.8968084 -0.2402981 0.3714721 -0.8968084 -0.2402981 0.3714721 -0.65651 -0.65651 0.371469 -0.65651 -0.65651 0.371469 -0.65651 -0.65651 0.371469 -0.65651 -0.65651 0.371469 -0.65651 -0.65651 0.371469 -0.65651 -0.65651 0.371469 -0.2402999 -0.896808 0.3714719 -0.2402999 -0.896808 0.3714719 -0.2402999 -0.896808 0.3714719 -0.2402985 -0.8968096 0.3714689 -0.2402985 -0.8968096 0.3714689 -0.2402985 -0.8968096 0.3714689 0.2403002 -0.8968092 0.3714691 0.2403002 -0.8968092 0.3714691 0.2403002 -0.8968092 0.3714691 0.2402981 -0.8968084 0.3714721 0.2402981 -0.8968084 0.3714721 0.2402981 -0.8968084 0.3714721 0.65651 -0.65651 0.371469 0.65651 -0.65651 0.371469 0.65651 -0.65651 0.371469 0.65651 -0.65651 0.371469 0.65651 -0.65651 0.371469 0.65651 -0.65651 0.371469 0.896808 -0.2402999 0.3714719 0.896808 -0.2402999 0.3714719 0.896808 -0.2402999 0.3714719 0.8968096 -0.2402985 0.3714689 0.8968096 -0.2402985 0.3714689 0.8968096 -0.2402985 0.3714689 0.8968092 0.2403002 0.3714691 0.8968092 0.2403002 0.3714691 0.8968092 0.2403002 0.3714691 0.8968084 0.2402981 0.3714721 0.8968084 0.2402981 0.3714721 0.8968084 0.2402981 0.3714721 0.65651 0.65651 0.371469 0.65651 0.65651 0.371469 0.65651 0.65651 0.371469 0.65651 0.65651 0.371469 0.65651 0.65651 0.371469 0.65651 0.65651 0.371469 0.2402999 0.896808 0.3714719 0.2402999 0.896808 0.3714719 0.2402999 0.896808 0.3714719 0.2402985 0.8968096 0.3714689 0.2402985 0.8968096 0.3714689 0.2402985 0.8968096 0.3714689 -0.2403002 0.8968092 0.3714691 -0.2403002 0.8968092 0.3714691 -0.2403002 0.8968092 0.3714691 -0.2402981 0.8968084 0.3714721 -0.2402981 0.8968084 0.3714721 -0.2402981 0.8968084 0.3714721 -0.65651 0.65651 0.371469 -0.65651 0.65651 0.371469 -0.65651 0.65651 0.371469 -0.65651 0.65651 0.371469 -0.65651 0.65651 0.371469 -0.65651 0.65651 0.371469 -0.896808 0.2402999 0.3714719 -0.896808 0.2402999 0.3714719 -0.896808 0.2402999 0.3714719 -0.8968096 0.2402985 0.3714689 -0.8968096 0.2402985 0.3714689 -0.8968096 0.2402985 0.3714689 -0.7760128 -0.2079312 0.595457 -0.7760128 -0.2079312 0.595457 -0.7760128 -0.2079312 0.595457 -0.7760143 -0.207934 0.5954539 -0.7760143 -0.207934 0.5954539 -0.7760143 -0.207934 0.5954539 -0.5680802 -0.5680802 0.5954576 -0.5680802 -0.5680802 0.5954576 -0.5680802 -0.5680802 0.5954576 -0.5680802 -0.5680804 0.5954575 -0.5680802 -0.5680804 0.5954575 -0.5680802 -0.5680804 0.5954575 -0.2079317 -0.7760146 0.5954542 -0.2079317 -0.7760146 0.5954542 -0.2079317 -0.7760146 0.5954542 -0.2079334 -0.7760118 0.5954573 -0.2079334 -0.7760118 0.5954573 -0.2079334 -0.7760118 0.5954573 0.2079311 -0.7760126 0.595457 0.2079311 -0.7760126 0.595457 0.2079311 -0.7760126 0.595457 0.2079341 -0.7760142 0.5954539 0.2079341 -0.7760142 0.5954539 0.2079341 -0.7760142 0.5954539 0.5680803 -0.5680803 0.5954575 0.5680803 -0.5680803 0.5954575 0.5680803 -0.5680803 0.5954575 0.5680802 -0.5680803 0.5954576 0.5680802 -0.5680803 0.5954576 0.5680802 -0.5680803 0.5954576 0.7760146 -0.2079317 0.5954542 0.7760146 -0.2079317 0.5954542 0.7760146 -0.2079317 0.5954542 0.7760119 -0.2079334 0.5954572 0.7760119 -0.2079334 0.5954572 0.7760119 -0.2079334 0.5954572 0.7760128 0.2079312 0.595457 0.7760128 0.2079312 0.595457 0.7760128 0.2079312 0.595457 0.7760143 0.207934 0.5954539 0.7760143 0.207934 0.5954539 0.7760143 0.207934 0.5954539 0.5680802 0.5680802 0.5954576 0.5680802 0.5680802 0.5954576 0.5680802 0.5680802 0.5954576 0.5680802 0.5680804 0.5954575 0.5680802 0.5680804 0.5954575 0.5680802 0.5680804 0.5954575 0.2079317 0.7760146 0.5954542 0.2079317 0.7760146 0.5954542 0.2079317 0.7760146 0.5954542 0.2079334 0.7760118 0.5954573 0.2079334 0.7760118 0.5954573 0.2079334 0.7760118 0.5954573 -0.2079311 0.7760126 0.595457 -0.2079311 0.7760126 0.595457 -0.2079311 0.7760126 0.595457 -0.2079341 0.7760142 0.5954539 -0.2079341 0.7760142 0.5954539 -0.2079341 0.7760142 0.5954539 -0.5680803 0.5680803 0.5954575 -0.5680803 0.5680803 0.5954575 -0.5680803 0.5680803 0.5954575 -0.5680802 0.5680803 0.5954576 -0.5680802 0.5680803 0.5954576 -0.5680802 0.5680803 0.5954576 -0.7760146 0.2079317 0.5954542 -0.7760146 0.2079317 0.5954542 -0.7760146 0.2079317 0.5954542 -0.7760119 0.2079334 0.5954572 -0.7760119 0.2079334 0.5954572 -0.7760119 0.2079334 0.5954572 -0.6008226 -0.1609912 0.7830032 -0.6008226 -0.1609912 0.7830032 -0.6008226 -0.1609912 0.7830032 -0.6008213 -0.1609889 0.7830046 -0.6008213 -0.1609889 0.7830046 -0.6008213 -0.1609889 0.7830046 -0.4398331 -0.4398331 0.7830031 -0.4398331 -0.4398331 0.7830031 -0.4398331 -0.4398331 0.7830031 -0.439833 -0.439833 0.783003 -0.439833 -0.439833 0.783003 -0.439833 -0.439833 0.783003 -0.1609909 -0.6008211 0.7830043 -0.1609909 -0.6008211 0.7830043 -0.1609909 -0.6008211 0.7830043 -0.1609894 -0.6008235 0.7830029 -0.1609894 -0.6008235 0.7830029 -0.1609894 -0.6008235 0.7830029 0.1609913 -0.6008227 0.7830031 0.1609913 -0.6008227 0.7830031 0.1609913 -0.6008227 0.7830031 0.1609889 -0.6008213 0.7830046 0.1609889 -0.6008213 0.7830046 0.1609889 -0.6008213 0.7830046 0.439833 -0.439833 0.783003 0.439833 -0.439833 0.783003 0.439833 -0.439833 0.783003 0.4398331 -0.4398331 0.783003 0.4398331 -0.4398331 0.783003 0.4398331 -0.4398331 0.783003 0.6008212 -0.1609908 0.7830044 0.6008212 -0.1609908 0.7830044 0.6008212 -0.1609908 0.7830044 0.6008234 -0.1609894 0.783003 0.6008234 -0.1609894 0.783003 0.6008234 -0.1609894 0.783003 0.6008226 0.1609912 0.7830032 0.6008226 0.1609912 0.7830032 0.6008226 0.1609912 0.7830032 0.6008213 0.1609889 0.7830046 0.6008213 0.1609889 0.7830046 0.6008213 0.1609889 0.7830046 0.4398331 0.4398331 0.7830031 0.4398331 0.4398331 0.7830031 0.4398331 0.4398331 0.7830031 0.439833 0.439833 0.783003 0.439833 0.439833 0.783003 0.439833 0.439833 0.783003 0.1609909 0.6008211 0.7830043 0.1609909 0.6008211 0.7830043 0.1609909 0.6008211 0.7830043 0.1609894 0.6008235 0.7830029 0.1609894 0.6008235 0.7830029 0.1609894 0.6008235 0.7830029 -0.1609913 0.6008227 0.7830031 -0.1609913 0.6008227 0.7830031 -0.1609913 0.6008227 0.7830031 -0.1609889 0.6008213 0.7830046 -0.1609889 0.6008213 0.7830046 -0.1609889 0.6008213 0.7830046 -0.439833 0.439833 0.783003 -0.439833 0.439833 0.783003 -0.439833 0.439833 0.783003 -0.4398331 0.4398331 0.783003 -0.4398331 0.4398331 0.783003 -0.4398331 0.4398331 0.783003 -0.6008212 0.1609908 0.7830044 -0.6008212 0.1609908 0.7830044 -0.6008212 0.1609908 0.7830044 -0.6008234 0.1609894 0.783003 -0.6008234 0.1609894 0.783003 -0.6008234 0.1609894 0.783003 -0.3806861 -0.1020041 0.919061 -0.3806861 -0.1020041 0.919061 -0.3806861 -0.1020041 0.919061 -0.380686 -0.1020036 0.9190612 -0.380686 -0.1020036 0.9190612 -0.380686 -0.1020036 0.9190612 -0.2786817 -0.2786817 0.9190609 -0.2786817 -0.2786817 0.9190609 -0.2786817 -0.2786817 0.9190609 -0.2786817 -0.2786817 0.919061 -0.2786817 -0.2786817 0.919061 -0.2786817 -0.2786817 0.919061 -0.102004 -0.3806859 0.9190611 -0.102004 -0.3806859 0.9190611 -0.102004 -0.3806859 0.9190611 -0.1020037 -0.3806863 0.919061 -0.1020037 -0.3806863 0.919061 -0.1020037 -0.3806863 0.919061 0.1020041 -0.3806861 0.919061 0.1020041 -0.3806861 0.919061 0.1020041 -0.3806861 0.919061 0.1020036 -0.380686 0.9190612 0.1020036 -0.380686 0.9190612 0.1020036 -0.380686 0.9190612 0.2786817 -0.2786817 0.9190609 0.2786817 -0.2786817 0.9190609 0.2786817 -0.2786817 0.9190609 0.2786817 -0.2786817 0.919061 0.2786817 -0.2786817 0.919061 0.2786817 -0.2786817 0.919061 0.3806859 -0.102004 0.9190611 0.3806859 -0.102004 0.9190611 0.3806859 -0.102004 0.9190611 0.3806863 -0.1020037 0.919061 0.3806863 -0.1020037 0.919061 0.3806863 -0.1020037 0.919061 0.3806861 0.1020041 0.919061 0.3806861 0.1020041 0.919061 0.3806861 0.1020041 0.919061 0.380686 0.1020036 0.9190612 0.380686 0.1020036 0.9190612 0.380686 0.1020036 0.9190612 0.2786817 0.2786817 0.9190609 0.2786817 0.2786817 0.9190609 0.2786817 0.2786817 0.9190609 0.2786817 0.2786817 0.919061 0.2786817 0.2786817 0.919061 0.2786817 0.2786817 0.919061 0.102004 0.3806859 0.9190611 0.102004 0.3806859 0.9190611 0.102004 0.3806859 0.9190611 0.1020037 0.3806863 0.919061 0.1020037 0.3806863 0.919061 0.1020037 0.3806863 0.919061 -0.1020041 0.3806861 0.919061 -0.1020041 0.3806861 0.919061 -0.1020041 0.3806861 0.919061 -0.1020036 0.380686 0.9190612 -0.1020036 0.380686 0.9190612 -0.1020036 0.380686 0.9190612 -0.2786817 0.2786817 0.9190609 -0.2786817 0.2786817 0.9190609 -0.2786817 0.2786817 0.9190609 -0.2786817 0.2786817 0.919061 -0.2786817 0.2786817 0.919061 -0.2786817 0.2786817 0.919061 -0.3806859 0.102004 0.9190611 -0.3806859 0.102004 0.9190611 -0.3806859 0.102004 0.9190611 -0.3806863 0.1020037 0.919061 -0.3806863 0.1020037 0.919061 -0.3806863 0.1020037 0.919061 -0.1304458 -0.0349525 0.9908391 -0.1304458 -0.0349525 0.9908391 -0.1304458 -0.0349525 0.9908391 1.0 0.0 0.0 1.0 0.0 0.0 -0.0954928 -0.0954928 0.9908392 -0.0954928 -0.0954928 0.9908392 -0.0954928 -0.0954928 0.9908392 1.0 0.0 0.0 1.0 0.0 0.0 -0.0349525 -0.1304458 0.9908391 -0.0349525 -0.1304458 0.9908391 -0.0349525 -0.1304458 0.9908391 1.0 0.0 0.0 1.0 0.0 0.0 0.0349525 -0.1304458 0.9908391 0.0349525 -0.1304458 0.9908391 0.0349525 -0.1304458 0.9908391 1.0 0.0 0.0 1.0 0.0 0.0 0.0954928 -0.0954928 0.9908392 0.0954928 -0.0954928 0.9908392 0.0954928 -0.0954928 0.9908392 1.0 0.0 0.0 1.0 0.0 0.0 0.1304458 -0.0349525 0.9908391 0.1304458 -0.0349525 0.9908391 0.1304458 -0.0349525 0.9908391 1.0 0.0 0.0 1.0 0.0 0.0 0.1304458 0.0349525 0.9908391 0.1304458 0.0349525 0.9908391 0.1304458 0.0349525 0.9908391 1.0 0.0 0.0 1.0 0.0 0.0 0.0954928 0.0954928 0.9908392 0.0954928 0.0954928 0.9908392 0.0954928 0.0954928 0.9908392 1.0 0.0 0.0 1.0 0.0 0.0 0.0349525 0.1304458 0.9908391 0.0349525 0.1304458 0.9908391 0.0349525 0.1304458 0.9908391 1.0 0.0 0.0 1.0 0.0 0.0 -0.0349525 0.1304458 0.9908391 -0.0349525 0.1304458 0.9908391 -0.0349525 0.1304458 0.9908391 1.0 0.0 0.0 1.0 0.0 0.0 -0.0954928 0.0954928 0.9908392 -0.0954928 0.0954928 0.9908392 -0.0954928 0.0954928 0.9908392 1.0 0.0 0.0 1.0 0.0 0.0 -0.1304458 0.0349525 0.9908391 -0.1304458 0.0349525 0.9908391 -0.1304458 0.0349525 0.9908391 1.0 0.0 0.0 1.0 0.0 0.0 1.0 0.0 0.0 1.0 0.0 0.0 -0.1304453 -0.0349524 -0.9908392 -0.1304453 -0.0349524 -0.9908392 -0.1304453 -0.0349524 -0.9908392 1.0 0.0 0.0 1.0 0.0 0.0 -0.0954924 -0.0954924 -0.9908392 -0.0954924 -0.0954924 -0.9908392 -0.0954924 -0.0954924 -0.9908392 1.0 0.0 0.0 1.0 0.0 0.0 -0.0349524 -0.1304453 -0.9908392 -0.0349524 -0.1304453 -0.9908392 -0.0349524 -0.1304453 -0.9908392 1.0 0.0 0.0 1.0 0.0 0.0 0.0349524 -0.1304453 -0.9908392 0.0349524 -0.1304453 -0.9908392 0.0349524 -0.1304453 -0.9908392 1.0 0.0 0.0 1.0 0.0 0.0 0.0954924 -0.0954924 -0.9908392 0.0954924 -0.0954924 -0.9908392 0.0954924 -0.0954924 -0.9908392 1.0 0.0 0.0 1.0 0.0 0.0 0.1304453 -0.0349524 -0.9908392 0.1304453 -0.0349524 -0.9908392 0.1304453 -0.0349524 -0.9908392 1.0 0.0 0.0 1.0 0.0 0.0 0.1304453 0.0349524 -0.9908392 0.1304453 0.0349524 -0.9908392 0.1304453 0.0349524 -0.9908392 1.0 0.0 0.0 1.0 0.0 0.0 0.0954924 0.0954924 -0.9908392 0.0954924 0.0954924 -0.9908392 0.0954924 0.0954924 -0.9908392 1.0 0.0 0.0 1.0 0.0 0.0 0.0349524 0.1304453 -0.9908392 0.0349524 0.1304453 -0.9908392 0.0349524 0.1304453 -0.9908392 1.0 0.0 0.0 1.0 0.0 0.0 -0.0349524 0.1304453 -0.9908392 -0.0349524 0.1304453 -0.9908392 -0.0349524 0.1304453 -0.9908392 1.0 0.0 0.0 1.0 0.0 0.0 -0.0954924 0.0954924 -0.9908392 -0.0954924 0.0954924 -0.9908392 -0.0954924 0.0954924 -0.9908392 1.0 0.0 0.0 1.0 0.0 0.0 -0.1304453 0.0349524 -0.9908392 -0.1304453 0.0349524 -0.9908392 -0.1304453 0.0349524 -0.9908392 -0.3806897 -0.1020046 -0.9190595 -0.3806897 -0.1020046 -0.9190595 -0.3806897 -0.1020046 -0.9190595 -0.3806893 -0.1020049 -0.9190596 -0.3806893 -0.1020049 -0.9190596 -0.3806893 -0.1020049 -0.9190596 -0.2786842 -0.2786842 -0.9190594 -0.2786842 -0.2786842 -0.9190594 -0.2786842 -0.2786842 -0.9190594 -0.2786842 -0.2786842 -0.9190595 -0.2786842 -0.2786842 -0.9190595 -0.2786842 -0.2786842 -0.9190595 -0.1020045 -0.3806894 -0.9190597 -0.1020045 -0.3806894 -0.9190597 -0.1020045 -0.3806894 -0.9190597 -0.102005 -0.3806896 -0.9190596 -0.102005 -0.3806896 -0.9190596 -0.102005 -0.3806896 -0.9190596 0.1020046 -0.3806897 -0.9190595 0.1020046 -0.3806897 -0.9190595 0.1020046 -0.3806897 -0.9190595 0.1020049 -0.3806893 -0.9190596 0.1020049 -0.3806893 -0.9190596 0.1020049 -0.3806893 -0.9190596 0.2786842 -0.2786842 -0.9190594 0.2786842 -0.2786842 -0.9190594 0.2786842 -0.2786842 -0.9190594 0.2786842 -0.2786842 -0.9190595 0.2786842 -0.2786842 -0.9190595 0.2786842 -0.2786842 -0.9190595 0.3806894 -0.1020045 -0.9190597 0.3806894 -0.1020045 -0.9190597 0.3806894 -0.1020045 -0.9190597 0.3806896 -0.102005 -0.9190596 0.3806896 -0.102005 -0.9190596 0.3806896 -0.102005 -0.9190596 0.3806897 0.1020046 -0.9190595 0.3806897 0.1020046 -0.9190595 0.3806897 0.1020046 -0.9190595 0.3806893 0.1020049 -0.9190596 0.3806893 0.1020049 -0.9190596 0.3806893 0.1020049 -0.9190596 0.2786842 0.2786842 -0.9190594 0.2786842 0.2786842 -0.9190594 0.2786842 0.2786842 -0.9190594 0.2786842 0.2786842 -0.9190595 0.2786842 0.2786842 -0.9190595 0.2786842 0.2786842 -0.9190595 0.1020045 0.3806894 -0.9190597 0.1020045 0.3806894 -0.9190597 0.1020045 0.3806894 -0.9190597 0.102005 0.3806896 -0.9190596 0.102005 0.3806896 -0.9190596 0.102005 0.3806896 -0.9190596 -0.1020046 0.3806897 -0.9190595 -0.1020046 0.3806897 -0.9190595 -0.1020046 0.3806897 -0.9190595 -0.1020049 0.3806893 -0.9190596 -0.1020049 0.3806893 -0.9190596 -0.1020049 0.3806893 -0.9190596 -0.2786842 0.2786842 -0.9190594 -0.2786842 0.2786842 -0.9190594 -0.2786842 0.2786842 -0.9190594 -0.2786842 0.2786842 -0.9190595 -0.2786842 0.2786842 -0.9190595 -0.2786842 0.2786842 -0.9190595 -0.3806894 0.1020045 -0.9190597 -0.3806894 0.1020045 -0.9190597 -0.3806894 0.1020045 -0.9190597 -0.3806896 0.102005 -0.9190596 -0.3806896 0.102005 -0.9190596 -0.3806896 0.102005 -0.9190596 -0.6008234 -0.1609894 -0.783003 -0.6008234 -0.1609894 -0.783003 -0.6008234 -0.1609894 -0.783003 -0.6008212 -0.1609908 -0.7830044 -0.6008212 -0.1609908 -0.7830044 -0.6008212 -0.1609908 -0.7830044 -0.4398331 -0.4398331 -0.783003 -0.4398331 -0.4398331 -0.783003 -0.4398331 -0.4398331 -0.783003 -0.439833 -0.4398331 -0.783003 -0.439833 -0.4398331 -0.783003 -0.439833 -0.4398331 -0.783003 -0.1609889 -0.6008213 -0.7830046 -0.1609889 -0.6008213 -0.7830046 -0.1609889 -0.6008213 -0.7830046 -0.1609913 -0.6008227 -0.7830032 -0.1609913 -0.6008227 -0.7830032 -0.1609913 -0.6008227 -0.7830032 0.1609895 -0.6008235 -0.783003 0.1609895 -0.6008235 -0.783003 0.1609895 -0.6008235 -0.783003 0.1609909 -0.6008212 -0.7830043 0.1609909 -0.6008212 -0.7830043 0.1609909 -0.6008212 -0.7830043 0.439833 -0.439833 -0.783003 0.439833 -0.439833 -0.783003 0.439833 -0.439833 -0.783003 0.4398331 -0.4398331 -0.783003 0.4398331 -0.4398331 -0.783003 0.4398331 -0.4398331 -0.783003 0.6008213 -0.1609889 -0.7830046 0.6008213 -0.1609889 -0.7830046 0.6008213 -0.1609889 -0.7830046 0.6008226 -0.1609912 -0.7830032 0.6008226 -0.1609912 -0.7830032 0.6008226 -0.1609912 -0.7830032 0.6008234 0.1609894 -0.783003 0.6008234 0.1609894 -0.783003 0.6008234 0.1609894 -0.783003 0.6008212 0.1609908 -0.7830044 0.6008212 0.1609908 -0.7830044 0.6008212 0.1609908 -0.7830044 0.4398331 0.4398331 -0.783003 0.4398331 0.4398331 -0.783003 0.4398331 0.4398331 -0.783003 0.439833 0.4398331 -0.783003 0.439833 0.4398331 -0.783003 0.439833 0.4398331 -0.783003 0.1609889 0.6008213 -0.7830046 0.1609889 0.6008213 -0.7830046 0.1609889 0.6008213 -0.7830046 0.1609913 0.6008227 -0.7830032 0.1609913 0.6008227 -0.7830032 0.1609913 0.6008227 -0.7830032 -0.1609895 0.6008235 -0.783003 -0.1609895 0.6008235 -0.783003 -0.1609895 0.6008235 -0.783003 -0.1609909 0.6008212 -0.7830043 -0.1609909 0.6008212 -0.7830043 -0.1609909 0.6008212 -0.7830043 -0.439833 0.439833 -0.783003 -0.439833 0.439833 -0.783003 -0.439833 0.439833 -0.783003 -0.4398331 0.4398331 -0.783003 -0.4398331 0.4398331 -0.783003 -0.4398331 0.4398331 -0.783003 -0.6008213 0.1609889 -0.7830046 -0.6008213 0.1609889 -0.7830046 -0.6008213 0.1609889 -0.7830046 -0.6008226 0.1609912 -0.7830032 -0.6008226 0.1609912 -0.7830032 -0.6008226 0.1609912 -0.7830032 -0.7760105 -0.207933 -0.595459 -0.7760105 -0.207933 -0.595459 -0.7760105 -0.207933 -0.595459 -0.7760133 -0.2079313 -0.5954561 -0.7760133 -0.2079313 -0.5954561 -0.7760133 -0.2079313 -0.5954561 -0.5680792 -0.5680793 -0.5954595 -0.5680792 -0.5680793 -0.5954595 -0.5680792 -0.5680793 -0.5954595 -0.5680793 -0.5680793 -0.5954593 -0.5680793 -0.5680793 -0.5954593 -0.5680793 -0.5680793 -0.5954593 -0.2079338 -0.776013 -0.5954558 -0.2079338 -0.776013 -0.5954558 -0.2079338 -0.776013 -0.5954558 -0.2079308 -0.7760112 -0.5954589 -0.2079308 -0.7760112 -0.5954589 -0.2079308 -0.7760112 -0.5954589 0.2079331 -0.7760104 -0.5954592 0.2079331 -0.7760104 -0.5954592 0.2079331 -0.7760104 -0.5954592 0.2079313 -0.7760133 -0.5954561 0.2079313 -0.7760133 -0.5954561 0.2079313 -0.7760133 -0.5954561 0.5680793 -0.5680794 -0.5954594 0.5680793 -0.5680794 -0.5954594 0.5680793 -0.5680794 -0.5954594 0.5680793 -0.5680793 -0.5954595 0.5680793 -0.5680793 -0.5954595 0.5680793 -0.5680793 -0.5954595 0.7760128 -0.2079336 -0.5954558 0.7760128 -0.2079336 -0.5954558 0.7760128 -0.2079336 -0.5954558 0.7760113 -0.2079308 -0.5954587 0.7760113 -0.2079308 -0.5954587 0.7760113 -0.2079308 -0.5954587 0.7760105 0.207933 -0.595459 0.7760105 0.207933 -0.595459 0.7760105 0.207933 -0.595459 0.7760133 0.2079313 -0.5954561 0.7760133 0.2079313 -0.5954561 0.7760133 0.2079313 -0.5954561 0.5680792 0.5680793 -0.5954595 0.5680792 0.5680793 -0.5954595 0.5680792 0.5680793 -0.5954595 0.5680793 0.5680793 -0.5954593 0.5680793 0.5680793 -0.5954593 0.5680793 0.5680793 -0.5954593 0.2079338 0.776013 -0.5954558 0.2079338 0.776013 -0.5954558 0.2079338 0.776013 -0.5954558 0.2079308 0.7760112 -0.5954589 0.2079308 0.7760112 -0.5954589 0.2079308 0.7760112 -0.5954589 -0.2079331 0.7760104 -0.5954592 -0.2079331 0.7760104 -0.5954592 -0.2079331 0.7760104 -0.5954592 -0.2079313 0.7760133 -0.5954561 -0.2079313 0.7760133 -0.5954561 -0.2079313 0.7760133 -0.5954561 -0.5680793 0.5680794 -0.5954594 -0.5680793 0.5680794 -0.5954594 -0.5680793 0.5680794 -0.5954594 -0.5680793 0.5680793 -0.5954595 -0.5680793 0.5680793 -0.5954595 -0.5680793 0.5680793 -0.5954595 -0.7760128 0.2079336 -0.5954558 -0.7760128 0.2079336 -0.5954558 -0.7760128 0.2079336 -0.5954558 -0.7760113 0.2079308 -0.5954587 -0.7760113 0.2079308 -0.5954587 -0.7760113 0.2079308 -0.5954587 -0.8968096 -0.2402984 -0.3714689 -0.8968096 -0.2402984 -0.3714689 -0.8968096 -0.2402984 -0.3714689 -0.896808 -0.2402999 -0.3714719 -0.896808 -0.2402999 -0.3714719 -0.896808 -0.2402999 -0.3714719 -0.65651 -0.65651 -0.371469 -0.65651 -0.65651 -0.371469 -0.65651 -0.65651 -0.371469 -0.65651 -0.65651 -0.3714691 -0.65651 -0.65651 -0.3714691 -0.65651 -0.65651 -0.3714691 -0.2402981 -0.8968084 -0.3714721 -0.2402981 -0.8968084 -0.3714721 -0.2402981 -0.8968084 -0.3714721 -0.2403002 -0.8968092 -0.3714691 -0.2403002 -0.8968092 -0.3714691 -0.2403002 -0.8968092 -0.3714691 0.2402984 -0.8968096 -0.3714689 0.2402984 -0.8968096 -0.3714689 0.2402984 -0.8968096 -0.3714689 0.2402999 -0.896808 -0.3714719 0.2402999 -0.896808 -0.3714719 0.2402999 -0.896808 -0.3714719 0.65651 -0.65651 -0.371469 0.65651 -0.65651 -0.371469 0.65651 -0.65651 -0.371469 0.65651 -0.65651 -0.3714691 0.65651 -0.65651 -0.3714691 0.65651 -0.65651 -0.3714691 0.8968084 -0.2402981 -0.3714721 0.8968084 -0.2402981 -0.3714721 0.8968084 -0.2402981 -0.3714721 0.8968092 -0.2403002 -0.3714691 0.8968092 -0.2403002 -0.3714691 0.8968092 -0.2403002 -0.3714691 0.8968096 0.2402984 -0.3714689 0.8968096 0.2402984 -0.3714689 0.8968096 0.2402984 -0.3714689 0.896808 0.2402999 -0.3714719 0.896808 0.2402999 -0.3714719 0.896808 0.2402999 -0.3714719 0.65651 0.65651 -0.371469 0.65651 0.65651 -0.371469 0.65651 0.65651 -0.371469 0.65651 0.65651 -0.3714691 0.65651 0.65651 -0.3714691 0.65651 0.65651 -0.3714691 0.2402981 0.8968084 -0.3714721 0.2402981 0.8968084 -0.3714721 0.2402981 0.8968084 -0.3714721 0.2403002 0.8968092 -0.3714691 0.2403002 0.8968092 -0.3714691 0.2403002 0.8968092 -0.3714691 -0.2402984 0.8968096 -0.3714689 -0.2402984 0.8968096 -0.3714689 -0.2402984 0.8968096 -0.3714689 -0.2402999 0.896808 -0.3714719 -0.2402999 0.896808 -0.3714719 -0.2402999 0.896808 -0.3714719 -0.65651 0.65651 -0.371469 -0.65651 0.65651 -0.371469 -0.65651 0.65651 -0.371469 -0.65651 0.65651 -0.3714691 -0.65651 0.65651 -0.3714691 -0.65651 0.65651 -0.3714691 -0.8968084 0.2402981 -0.3714721 -0.8968084 0.2402981 -0.3714721 -0.8968084 0.2402981 -0.3714721 -0.8968092 0.2403002 -0.3714691 -0.8968092 0.2403002 -0.3714691 -0.8968092 0.2403002 -0.3714691 -0.958209 -0.2567523 -0.1261504 -0.958209 -0.2567523 -0.1261504 -0.958209 -0.2567523 -0.1261504 -0.9582092 -0.256752 -0.1261498 -0.9582092 -0.256752 -0.1261498 -0.9582092 -0.256752 -0.1261498 -0.7014578 -0.7014578 -0.1261503 -0.7014578 -0.7014578 -0.1261503 -0.7014578 -0.7014578 -0.1261503 -0.7014578 -0.7014578 -0.1261503 -0.7014578 -0.7014578 -0.1261503 -0.7014578 -0.7014578 -0.1261503 -0.2567523 -0.958209 -0.1261498 -0.2567523 -0.958209 -0.1261498 -0.2567523 -0.958209 -0.1261498 -0.256752 -0.958209 -0.1261504 -0.256752 -0.958209 -0.1261504 -0.256752 -0.958209 -0.1261504 0.2567523 -0.958209 -0.1261504 0.2567523 -0.958209 -0.1261504 0.2567523 -0.958209 -0.1261504 0.256752 -0.9582092 -0.1261498 0.256752 -0.9582092 -0.1261498 0.256752 -0.9582092 -0.1261498 0.7014578 -0.7014578 -0.1261503 0.7014578 -0.7014578 -0.1261503 0.7014578 -0.7014578 -0.1261503 0.7014578 -0.7014578 -0.1261503 0.7014578 -0.7014578 -0.1261503 0.7014578 -0.7014578 -0.1261503 0.958209 -0.2567523 -0.1261498 0.958209 -0.2567523 -0.1261498 0.958209 -0.2567523 -0.1261498 0.958209 -0.256752 -0.1261504 0.958209 -0.256752 -0.1261504 0.958209 -0.256752 -0.1261504 0.958209 0.2567523 -0.1261504 0.958209 0.2567523 -0.1261504 0.958209 0.2567523 -0.1261504 0.9582092 0.256752 -0.1261498 0.9582092 0.256752 -0.1261498 0.9582092 0.256752 -0.1261498 0.7014578 0.7014578 -0.1261503 0.7014578 0.7014578 -0.1261503 0.7014578 0.7014578 -0.1261503 0.7014578 0.7014578 -0.1261503 0.7014578 0.7014578 -0.1261503 0.7014578 0.7014578 -0.1261503 0.2567523 0.958209 -0.1261498 0.2567523 0.958209 -0.1261498 0.2567523 0.958209 -0.1261498 0.256752 0.958209 -0.1261504 0.256752 0.958209 -0.1261504 0.256752 0.958209 -0.1261504 -0.2567523 0.958209 -0.1261504 -0.2567523 0.958209 -0.1261504 -0.2567523 0.958209 -0.1261504 -0.256752 0.9582092 -0.1261498 -0.256752 0.9582092 -0.1261498 -0.256752 0.9582092 -0.1261498 -0.7014578 0.7014578 -0.1261503 -0.7014578 0.7014578 -0.1261503 -0.7014578 0.7014578 -0.1261503 -0.7014578 0.7014578 -0.1261503 -0.7014578 0.7014578 -0.1261503 -0.7014578 0.7014578 -0.1261503 -0.958209 0.2567523 -0.1261498 -0.958209 0.2567523 -0.1261498 -0.958209 0.2567523 -0.1261498 -0.958209 0.256752 -0.1261504 -0.958209 0.256752 -0.1261504 -0.958209 0.256752 -0.1261504</float_array>
                    <technique_common>
                        <accessor count="840" source="#geometry0-normal-array" stride="3">
                            <param name="X" type="float"/>
                            <param name="Y" type="float"/>
                            <param name="Z" type="float"/>
                        </accessor>
                    </technique_common>
                </source>
                <vertices id="geometry0-vertex">
                    <input semantic="POSITION" source="#geometry0-position"/>
                </vertices>
                <triangles count="288" material="default_ai_0.2_sh_0.2_tr_0.0_dc_r_0.8_g_0.8_b_0.8_sc_r_1.0_g_1.0_b_1.0_ec_r_0.0_g_0.0_b_0_tri">
                    <input offset="0" semantic="VERTEX" source="#geometry0-vertex"/>
                    <input offset="1" semantic="NORMAL" source="#geometry0-normal"/>
                    <p>62 0 61 1 73 2 62 3 73 4 74 5 61 6 63 7 75 8 61 9 75 10 73 11 63 12 64 13 76 14 63 15 76 16 75 17 64 18 65 19 77 20 64 21 77 22 76 23 65 24 66 25 78 26 65 27 78 28 77 29 66 30 67 31 79 32 66 33 79 34 78 35 67 36 68 37 80 38 67 39 80 40 79 41 68 42 69 43 81 44 68 45 81 46 80 47 69 48 70 49 82 50 69 51 82 52 81 53 70 54 71 55 83 56 70 57 83 58 82 59 71 60 72 61 84 62 71 63 84 64 83 65 72 66 62 67 74 68 72 69 74 70 84 71 74 72 73 73 85 74 74 75 85 76 86 77 73 78 75 79 87 80 73 81 87 82 85 83 75 84 76 85 88 86 75 87 88 88 87 89 76 90 77 91 89 92 76 93 89 94 88 95 77 96 78 97 90 98 77 99 90 100 89 101 78 102 79 103 91 104 78 105 91 106 90 107 79 108 80 109 92 110 79 111 92 112 91 113 80 114 81 115 93 116 80 117 93 118 92 119 81 120 82 121 94 122 81 123 94 124 93 125 82 126 83 127 95 128 82 129 95 130 94 131 83 132 84 133 96 134 83 135 96 136 95 137 84 138 74 139 86 140 84 141 86 142 96 143 86 144 85 145 97 146 86 147 97 148 98 149 85 150 87 151 99 152 85 153 99 154 97 155 87 156 88 157 100 158 87 159 100 160 99 161 88 162 89 163 101 164 88 165 101 166 100 167 89 168 90 169 102 170 89 171 102 172 101 173 90 174 91 175 103 176 90 177 103 178 102 179 91 180 92 181 104 182 91 183 104 184 103 185 92 186 93 187 105 188 92 189 105 190 104 191 93 192 94 193 106 194 93 195 106 196 105 197 94 198 95 199 107 200 94 201 107 202 106 203 95 204 96 205 108 206 95 207 108 208 107 209 96 210 86 211 98 212 96 213 98 214 108 215 98 216 97 217 109 218 98 219 109 220 110 221 97 222 99 223 111 224 97 225 111 226 109 227 99 228 100 229 112 230 99 231 112 232 111 233 100 234 101 235 113 236 100 237 113 238 112 239 101 240 102 241 114 242 101 243 114 244 113 245 102 246 103 247 115 248 102 249 115 250 114 251 103 252 104 253 116 254 103 255 116 256 115 257 104 258 105 259 117 260 104 261 117 262 116 263 105 264 106 265 118 266 105 267 118 268 117 269 106 270 107 271 119 272 106 273 119 274 118 275 107 276 108 277 120 278 107 279 120 280 119 281 108 282 98 283 110 284 108 285 110 286 120 287 110 288 109 289 121 290 110 291 121 292 122 293 109 294 111 295 123 296 109 297 123 298 121 299 111 300 112 301 124 302 111 303 124 304 123 305 112 306 113 307 125 308 112 309 125 310 124 311 113 312 114 313 126 314 113 315 126 316 125 317 114 318 115 319 127 320 114 321 127 322 126 323 115 324 116 325 128 326 115 327 128 328 127 329 116 330 117 331 129 332 116 333 129 334 128 335 117 336 118 337 130 338 117 339 130 340 129 341 118 342 119 343 131 344 118 345 131 346 130 347 119 348 120 349 132 350 119 351 132 352 131 353 120 354 110 355 122 356 120 357 122 358 132 359 122 360 121 361 133 362 122 363 133 364 133 364 121 365 123 366 133 367 121 368 133 369 133 369 123 370 124 371 133 372 123 373 133 374 133 374 124 375 125 376 133 377 124 378 133 379 133 379 125 380 126 381 133 382 125 383 133 384 133 384 126 385 127 386 133 387 126 388 133 389 133 389 127 390 128 391 133 392 127 393 133 394 133 394 128 395 129 396 133 397 128 398 133 399 133 399 129 400 130 401 133 402 129 403 133 404 133 404 130 405 131 406 133 407 130 408 133 409 133 409 131 410 132 411 133 412 131 413 133 414 133 414 132 415 122 416 133 417 132 418 133 419 133 419 0 420 0 420 1 421 0 422 1 423 2 424 0 425 0 425 3 426 0 427 3 428 1 429 0 430 0 430 4 431 0 432 4 433 3 434 0 435 0 435 5 436 0 437 5 438 4 439 0 440 0 440 6 441 0 442 6 443 5 444 0 445 0 445 7 446 0 447 7 448 6 449 0 450 0 450 8 451 0 452 8 453 7 454 0 455 0 455 9 456 0 457 9 458 8 459 0 460 0 460 10 461 0 462 10 463 9 464 0 465 0 465 11 466 0 467 11 468 10 469 0 470 0 470 12 471 0 472 12 473 11 474 0 475 0 475 2 476 0 477 2 478 12 479 2 480 1 481 13 482 2 483 13 484 14 485 1 486 3 487 15 488 1 489 15 490 13 491 3 492 4 493 16 494 3 495 16 496 15 497 4 498 5 499 17 500 4 501 17 502 16 503 5 504 6 505 18 506 5 507 18 508 17 509 6 510 7 511 19 512 6 513 19 514 18 515 7 516 8 517 20 518 7 519 20 520 19 521 8 522 9 523 21 524 8 525 21 526 20 527 9 528 10 529 22 530 9 531 22 532 21 533 10 534 11 535 23 536 10 537 23 538 22 539 11 540 12 541 24 542 11 543 24 544 23 545 12 546 2 547 14 548 12 549 14 550 24 551 14 552 13 553 25 554 14 555 25 556 26 557 13 558 15 559 27 560 13 561 27 562 25 563 15 564 16 565 28 566 15 567 28 568 27 569 16 570 17 571 29 572 16 573 29 574 28 575 17 576 18 577 30 578 17 579 30 580 29 581 18 582 19 583 31 584 18 585 31 586 30 587 19 588 20 589 32 590 19 591 32 592 31 593 20 594 21 595 33 596 20 597 33 598 32 599 21 600 22 601 34 602 21 603 34 604 33 605 22 606 23 607 35 608 22 609 35 610 34 611 23 612 24 613 36 614 23 615 36 616 35 617 24 618 14 619 26 620 24 621 26 622 36 623 26 624 25 625 37 626 26 627 37 628 38 629 25 630 27 631 39 632 25 633 39 634 37 635 27 636 28 637 40 638 27 639 40 640 39 641 28 642 29 643 41 644 28 645 41 646 40 647 29 648 30 649 42 650 29 651 42 652 41 653 30 654 31 655 43 656 30 657 43 658 42 659 31 660 32 661 44 662 31 663 44 664 43 665 32 666 33 667 45 668 32 669 45 670 44 671 33 672 34 673 46 674 33 675 46 676 45 677 34 678 35 679 47 680 34 681 47 682 46 683 35 684 36 685 48 686 35 687 48 688 47 689 36 690 26 691 38 692 36 693 38 694 48 695 38 696 37 697 49 698 38 699 49 700 50 701 37 702 39 703 51 704 37 705 51 706 49 707 39 708 40 709 52 710 39 711 52 712 51 713 40 714 41 715 53 716 40 717 53 718 52 719 41 720 42 721 54 722 41 723 54 724 53 725 42 726 43 727 55 728 42 729 55 730 54 731 43 732 44 733 56 734 43 735 56 736 55 737 44 738 45 739 57 740 44 741 57 742 56 743 45 744 46 745 58 746 45 747 58 748 57 749 46 750 47 751 59 752 46 753 59 754 58 755 47 756 48 757 60 758 47 759 60 760 59 761 48 762 38 763 50 764 48 765 50 766 60 767 50 768 49 769 61 770 50 771 61 772 62 773 49 774 51 775 63 776 49 777 63 778 61 779 51 780 52 781 64 782 51 783 64 784 63 785 52 786 53 787 65 788 52 789 65 790 64 791 53 792 54 793 66 794 53 795 66 796 65 797 54 798 55 799 67 800 54 801 67 802 66 803 55 804 56 805 68 806 55 807 68 808 67 809 56 810 57 811 69 812 56 813 69 814 68 815 57 816 58 817 70 818 57 819 70 820 69 821 58 822 59 823 71 824 58 825 71 826 70 827 59 828 60 829 72 830 59 831 72 832 71 833 60 834 50 835 62 836 60 837 62 838 72 839</p>
                </triangles>
            </mesh>
        </geometry>
    </library_geometries>
    <library_visual_scenes>
        <visual_scene id="Building_289_CROWN1">
            <node>
                <instance_geometry url="#geometry0">
                    <bind_material>
                        <technique_common>
                            <instance_material symbol="default_ai_0.2_sh_0.2_tr_0.0_dc_r_0.8_g_0.8_b_0.8_sc_r_1.0_g_1.0_b_1.0_ec_r_0.0_g_0.0_b_0_tri" target="#default_ai_0.2_sh_0.2_tr_0.0_dc_r_0.8_g_0.8_b_0.8_sc_r_1.0_g_1.0_b_1.0_ec_r_0.0_g_0.0_b_0_mat"/>
                        </technique_common>
                    </bind_material>
                </instance_geometry>
            </node>
        </visual_scene>
    </library_visual_scenes>
    <scene>
        <instance_visual_scene url="#Building_289_CROWN1"/>
    </scene>
</COLLADA>
