<?xml version="1.0" encoding="UTF-8" standalone="yes"?>
<COLLADA xmlns="http://www.collada.org/2005/11/COLLADASchema" version="1.4.1">
    <asset>
        <contributor>
            <authoring_tool>3D City Database Importer/Exporter, version 5.5.3; Chair of Geoinformatics, Technical University of Munich</authoring_tool>
        </contributor>
        <created>2026-09-25T14:45:29.158</created>
        <modified>2026-09-25T14:45:29.158</modified>
        <unit meter="1.0" name="meters"/>
        <up_axis>Z_UP</up_axis>
    </asset>
    <library_materials>
        <material id="default_ai_0.2_sh_0.2_tr_0.0_dc_r_0.8_g_0.8_b_0.8_sc_r_1.0_g_1.0_b_1.0_ec_r_0.0_g_0.0_b_0_mat">
            <instance_effect url="#default_ai_0.2_sh_0.2_tr_0.0_dc_r_0.8_g_0.8_b_0.8_sc_r_1.0_g_1.0_b_1.0_ec_r_0.0_g_0.0_b_0_eff"/>
        </material>
    </library_materials>
    <library_effects>
        <effect id="default_ai_0.2_sh_0.2_tr_0.0_dc_r_0.8_g_0.8_b_0.8_sc_r_1.0_g_1.0_b_1.0_ec_r_0.0_g_0.0_b_0_eff">
            <profile_COMMON>
                <technique sid="COMMON">
                    <lambert>
                        <emission>
                            <color>0.0 0.0 0.0 1.0</color>
                        </emission>
                        <diffuse>
                            <color>0.8 0.8 0.8 1.0</color>
                        </diffuse>
                        <reflective>
                            <color>1.0 1.0 1.0 1.0</color>
                        </reflective>
                        <reflectivity>
                            <float>0.2</float>
                        </reflectivity>
                        <transparent opaque="A_ONE">
                            <color>1.0 1.0 1.0 1.0</color>
                        </transparent>
                        <transparency>
                            <float>1.0</float>
                        </transparency>
                    </lambert>
                </technique>
                <extra>
                    <technique profile="GOOGLEEARTH">
                        <double_sided>0</double_sided>
                    </technique>
                </extra>
            </profile_COMMON>
        </effect>
    </library_effects>
    <library_geometries>
        <geometry id="geometry0">
            <mesh>
                <source id="geometry0-position">
                    <float_array id="geometry0-position-array" count="402">0.0 0.0 2.0 0.224144 0.12941 1.965926 0.258819 0.0 1.965926 0.12941 0.224144 1.965926 0.0 0.258819 1.965926 -0.12941 0.224144 1.965926 -0.224144 0.12941 1.965926 -0.258819 0.0 1.965926 -0.224144 -0.12941 1.965926 -0.12941 -0.224144 1.965926 0.0 -0.258819 1.965926 0.12941 -0.224144 1.965926 0.224144 -0.12941 1.965926 0.433013 0.25 1.866025 0.5 0.0 1.866025 0.25 0.433013 1.866025 0.0 0.5 1.866025 -0.25 0.433013 1.866025 -0.433013 0.25 1.866025 -0.5 0.0 1.866025 -0.433013 -0.25 1.866025 -0.25 -0.433013 1.866025 0.0 -0.5 1.866025 0.25 -0.433013 1.866025 0.433013 -0.25 1.866025 0.612372 0.353553 1.707107 0.707107 0.0 1.707107 0.353553 0.612372 1.707107 0.0 0.707107 1.707107 -0.353553 0.612372 1.707107 -0.612372 0.353553 1.707107 -0.707107 0.0 1.707107 -0.612372 -0.353553 1.707107 -0.353553 -0.612372 1.707107 0.0 -0.707107 1.707107 0.353553 -0.612372 1.707107 0.612372 -0.353553 1.707107 0.75 0.433013 1.5 0.866025 0.0 1.5 0.433013 0.75 1.5 0.0 0.866025 1.5 -0.433013 0.75 1.5 -0.75 0.433013 1.5 -0.866025 0.0 1.5 -0.75 -0.433013 1.5 -0.433013 -0.75 1.5 0.0 -0.866025 1.5 0.433013 -0.75 1.5 0.75 -0.433013 1.5 0.836516 0.482963 1.258819 0.965926 0.0 1.258819 0.482963 0.836516 1.258819 0.0 0.965926 1.258819 -0.482963 0.836516 1.258819 -0.836516 0.482963 1.258819 -0.965926 0.0 1.258819 -0.836516 -0.482963 1.258819 -0.482963 -0.836516 1.258819 0.0 -0.965926 1.258819 0.482963 -0.836516 1.258819 0.836516 -0.482963 1.258819 0.866025 0.5 1.0 1.0 0.0 1.0 0.5 0.866025 1.0 0.0 1.0 1.0 -0.5 0.866025 1.0 -0.866025 0.5 1.0 -1.0 0.0 1.0 -0.866025 -0.5 1.0 -0.5 -0.866025 1.0 0.0 -1.0 1.0 0.5 -0.866025 1.0 0.866025 -0.5 1.0 0.836516 0.482963 0.741181 0.965926 0.0 0.741181 0.482963 0.836516 0.741181 0.0 0.965926 0.741181 -0.482963 0.836516 0.741181 -0.836516 0.482963 0.741181 -0.965926 0.0 0.741181 -0.836516 -0.482963 0.741181 -0.482963 -0.836516 0.741181 0.0 -0.965926 0.741181 0.482963 -0.836516 0.741181 0.836516 -0.482963 0.741181 0.75 0.433013 0.5 0.866025 0.0 0.5 0.433013 0.75 0.5 0.0 0.866025 0.5 -0.433013 0.75 0.5 -0.75 0.433013 0.5 -0.866025 0.0 0.5 -0.75 -0.433013 0.5 -0.433013 -0.75 0.5 0.0 -0.866025 0.5 0.433013 -0.75 0.5 0.75 -0.433013 0.5 0.612372 0.353553 0.292893 0.707107 0.0 0.292893 0.353553 0.612372 0.292893 0.0 0.707107 0.292893 -0.353553 0.612372 0.292893 -0.612372 0.353553 0.292893 -0.707107 0.0 0.292893 -0.612372 -0.353553 0.292893 -0.353553 -0.612372 0.292893 0.0 -0.707107 0.292893 0.353553 -0.612372 0.292893 0.612372 -0.353553 0.292893 0.433013 0.25 0.133975 0.5 0.0 0.133975 0.25 0.433013 0.133975 0.0 0.5 0.133975 -0.25 0.433013 0.133975 -0.433013 0.25 0.133975 -0.5 0.0 0.133975 -0.433013 -0.25 0.133975 -0.25 -0.433013 0.133975 0.0 -0.5 0.133975 0.25 -0.433013 0.133975 0.433013 -0.25 0.133975 0.224144 0.12941 0.034074 0.258819 0.0 0.034074 0.12941 0.224144 0.034074 0.0 0.258819 0.034074 -0.12941 0.224144 0.034074 -0.224144 0.12941 0.034074 -0.258819 0.0 0.034074 -0.224144 -0.12941 0.034074 -0.12941 -0.224144 0.034074 0.0 -0.258819 0.034074 0.12941 -0.224144 0.034074 0.224144 -0.12941 0.034074 0.0 0.0 0.0</float_array>
                    <technique_common>
                        <accessor count="134" source="#geometry0-position-array" stride="3">
                            <param name="X" type="float"/>
                            <param name="Y" type="float"/>
                            <param name="Z" type="float"/>
                        </accessor>
                    </technique_common>
                </source>
                <source id="geometry0-normal">
                    <float_array id="geometry0-normal-array" count="2520">1.0 0.0 0.0 1.0 0.0 0.0 -0.0349525 0.1304456 -0.9908392 -0.0349525 0.1304456 -0.9908392 -0.0349525 0.1304456 -0.9908392 1.0 0.0 0.0 1.0 0.0 0.0 -0.0954926 0.0954926 -0.9908392 -0.0954926 0.0954926 -0.9908392 -0.0954926 0.0954926 -0.9908392 1.0 0.0 0.0 1.0 0.0 0.0 -0.1304456 0.0349525 -0.9908392 -0.1304456 0.0349525 -0.9908392 -0.1304456 0.0349525 -0.9908392 -0.3806898 -0.1020047 -0.9190595 -0.3806898 -0.1020047 -0.9190595 -0.3806898 -0.1020047 -0.9190595 -0.3806894 -0.102005 -0.9190597 -0.3806894 -0.102005 -0.9190597 -0.3806894 -0.102005 -0.9190597 -0.2786842 -0.2786842 -0.9190594 -0.2786842 -0.2786842 -0.9190594 -0.2786842 -0.2786842 -0.9190594 -0.2786842 -0.2786842 -0.9190594 -0.2786842 -0.2786842 -0.9190594 -0.2786842 -0.2786842 -0.9190594 -0.1020046 -0.3806894 -0.9190596 -0.1020046 -0.3806894 -0.9190596 -0.1020046 -0.3806894 -0.9190596 -0.102005 -0.3806896 -0.9190595 -0.102005 -0.3806896 -0.9190595 -0.102005 -0.3806896 -0.9190595 0.1020047 -0.3806898 -0.9190595 0.1020047 -0.3806898 -0.9190595 0.1020047 -0.3806898 -0.9190595 0.102005 -0.3806894 -0.9190597 0.102005 -0.3806894 -0.9190597 0.102005 -0.3806894 -0.9190597 0.2786842 -0.2786842 -0.9190594 0.2786842 -0.2786842 -0.9190594 0.2786842 -0.2786842 -0.9190594 0.2786842 -0.2786842 -0.9190594 0.2786842 -0.2786842 -0.9190594 0.2786842 -0.2786842 -0.9190594 0.3806894 -0.1020046 -0.9190596 0.3806894 -0.1020046 -0.9190596 0.3806894 -0.1020046 -0.9190596 0.3806896 -0.102005 -0.9190595 0.3806896 -0.102005 -0.9190595 0.3806896 -0.102005 -0.9190595 0.3806898 0.1020047 -0.9190595 0.3806898 0.1020047 -0.9190595 0.3806898 0.1020047 -0.9190595 0.3806894 0.102005 -0.9190597 0.3806894 0.102005 -0.9190597 0.3806894 0.102005 -0.9190597 0.2786842 0.2786842 -0.9190594 0.2786842 0.2786842 -0.9190594 0.2786842 0.2786842 -0.9190594 0.2786842 0.2786842 -0.9190594 0.2786842 0.2786842 -0.9190594 0.2786842 0.2786842 -0.9190594 0.1020046 0.3806894 -0.9190596 0.1020046 0.3806894 -0.9190596 0.1020046 0.3806894 -0.9190596 0.102005 0.3806896 -0.9190595 0.102005 0.3806896 -0.9190595 0.102005 0.3806896 -0.9190595 -0.1020047 0.3806898 -0.9190595 -0.1020047 0.3806898 -0.9190595 -0.1020047 0.3806898 -0.9190595 -0.102005 0.3806894 -0.9190597 -0.102005 0.3806894 -0.9190597 -0.102005 0.3806894 -0.9190597 -0.2786842 0.2786842 -0.9190594 -0.2786842 0.2786842 -0.9190594 -0.2786842 0.2786842 -0.9190594 -0.2786842 0.2786842 -0.9190594 -0.2786842 0.2786842 -0.9190594 -0.2786842 0.2786842 -0.9190594 -0.3806894 0.1020046 -0.9190596 -0.3806894 0.1020046 -0.9190596 -0.3806894 0.1020046 -0.9190596 -0.3806896 0.102005 -0.9190595 -0.3806896 0.102005 -0.9190595 -0.3806896 0.102005 -0.9190595 -0.6008212 -0.1609889 -0.7830048 -0.6008212 -0.1609889 -0.7830048 -0.6008212 -0.1609889 -0.7830048 -0.6008189 -0.1609903 -0.7830063 -0.6008189 -0.1609903 -0.7830063 -0.6008189 -0.1609903 -0.7830063 -0.4398314 -0.4398314 -0.7830049 -0.4398314 -0.4398314 -0.7830049 -0.4398314 -0.4398314 -0.7830049 -0.4398314 -0.4398314 -0.7830049 -0.4398314 -0.4398314 -0.7830049 -0.4398314 -0.4398314 -0.7830049 -0.1609883 -0.6008191 -0.7830065 -0.1609883 -0.6008191 -0.7830065 -0.1609883 -0.6008191 -0.7830065 -0.1609907 -0.6008204 -0.783005 -0.1609907 -0.6008204 -0.783005 -0.1609907 -0.6008204 -0.783005 0.1609889 -0.6008212 -0.7830048 0.1609889 -0.6008212 -0.7830048 0.1609889 -0.6008212 -0.7830048 0.1609903 -0.6008189 -0.7830063 0.1609903 -0.6008189 -0.7830063 0.1609903 -0.6008189 -0.7830063 0.4398314 -0.4398314 -0.7830049 0.4398314 -0.4398314 -0.7830049 0.4398314 -0.4398314 -0.7830049 0.4398314 -0.4398314 -0.7830049 0.4398314 -0.4398314 -0.7830049 0.4398314 -0.4398314 -0.7830049 0.6008191 -0.1609883 -0.7830065 0.6008191 -0.1609883 -0.7830065 0.6008191 -0.1609883 -0.7830065 0.6008204 -0.1609907 -0.783005 0.6008204 -0.1609907 -0.783005 0.6008204 -0.1609907 -0.783005 0.6008212 0.1609889 -0.7830048 0.6008212 0.1609889 -0.7830048 0.6008212 0.1609889 -0.7830048 0.6008189 0.1609903 -0.7830063 0.6008189 0.1609903 -0.7830063 0.6008189 0.1609903 -0.7830063 0.4398314 0.4398314 -0.7830049 0.4398314 0.4398314 -0.7830049 0.4398314 0.4398314 -0.7830049 0.4398314 0.4398314 -0.7830049 0.4398314 0.4398314 -0.7830049 0.4398314 0.4398314 -0.7830049 0.1609883 0.6008191 -0.7830065 0.1609883 0.6008191 -0.7830065 0.1609883 0.6008191 -0.7830065 0.1609907 0.6008204 -0.783005 0.1609907 0.6008204 -0.783005 0.1609907 0.6008204 -0.783005 -0.1609889 0.6008212 -0.7830048 -0.1609889 0.6008212 -0.7830048 -0.1609889 0.6008212 -0.7830048 -0.1609903 0.6008189 -0.7830063 -0.1609903 0.6008189 -0.7830063 -0.1609903 0.6008189 -0.7830063 -0.4398314 0.4398314 -0.7830049 -0.4398314 0.4398314 -0.7830049 -0.4398314 0.4398314 -0.7830049 -0.4398314 0.4398314 -0.7830049 -0.4398314 0.4398314 -0.7830049 -0.4398314 0.4398314 -0.7830049 -0.6008191 0.1609883 -0.7830065 -0.6008191 0.1609883 -0.7830065 -0.6008191 0.1609883 -0.7830065 -0.6008204 0.1609907 -0.783005 -0.6008204 0.1609907 -0.783005 -0.6008204 0.1609907 -0.783005 -0.7760118 -0.2079334 -0.5954573 -0.7760118 -0.2079334 -0.5954573 -0.7760118 -0.2079334 -0.5954573 -0.7760147 -0.2079316 -0.595454 -0.7760147 -0.2079316 -0.595454 -0.7760147 -0.2079316 -0.595454 -0.5680802 -0.5680802 -0.5954576 -0.5680802 -0.5680802 -0.5954576 -0.5680802 -0.5680802 -0.5954576 -0.5680802 -0.5680802 -0.5954577 -0.5680802 -0.5680802 -0.5954577 -0.5680802 -0.5680802 -0.5954577 -0.2079341 -0.7760144 -0.5954538 -0.2079341 -0.7760144 -0.5954538 -0.2079341 -0.7760144 -0.5954538 -0.2079311 -0.7760127 -0.5954571 -0.2079311 -0.7760127 -0.5954571 -0.2079311 -0.7760127 -0.5954571 0.2079334 -0.7760118 -0.5954573 0.2079334 -0.7760118 -0.5954573 0.2079334 -0.7760118 -0.5954573 0.2079316 -0.7760147 -0.595454 0.2079316 -0.7760147 -0.595454 0.2079316 -0.7760147 -0.595454 0.5680802 -0.5680802 -0.5954576 0.5680802 -0.5680802 -0.5954576 0.5680802 -0.5680802 -0.5954576 0.5680802 -0.5680802 -0.5954577 0.5680802 -0.5680802 -0.5954577 0.5680802 -0.5680802 -0.5954577 0.7760144 -0.2079341 -0.5954538 0.7760144 -0.2079341 -0.5954538 0.7760144 -0.2079341 -0.5954538 0.7760127 -0.2079311 -0.5954571 0.7760127 -0.2079311 -0.5954571 0.7760127 -0.2079311 -0.5954571 0.7760118 0.2079334 -0.5954573 0.7760118 0.2079334 -0.5954573 0.7760118 0.2079334 -0.5954573 0.7760147 0.2079316 -0.595454 0.7760147 0.2079316 -0.595454 0.7760147 0.2079316 -0.595454 0.5680802 0.5680802 -0.5954576 0.5680802 0.5680802 -0.5954576 0.5680802 0.5680802 -0.5954576 0.5680802 0.5680802 -0.5954577 0.5680802 0.5680802 -0.5954577 0.5680802 0.5680802 -0.5954577 0.2079341 0.7760144 -0.5954538 0.2079341 0.7760144 -0.5954538 0.2079341 0.7760144 -0.5954538 0.2079311 0.7760127 -0.5954571 0.2079311 0.7760127 -0.5954571 0.2079311 0.7760127 -0.5954571 -0.2079334 0.7760118 -0.5954573 -0.2079334 0.7760118 -0.5954573 -0.2079334 0.7760118 -0.5954573 -0.2079316 0.7760147 -0.595454 -0.2079316 0.7760147 -0.595454 -0.2079316 0.7760147 -0.595454 -0.5680802 0.5680802 -0.5954576 -0.5680802 0.5680802 -0.5954576 -0.5680802 0.5680802 -0.5954576 -0.5680802 0.5680802 -0.5954577 -0.5680802 0.5680802 -0.5954577 -0.5680802 0.5680802 -0.5954577 -0.7760144 0.2079341 -0.5954538 -0.7760144 0.2079341 -0.5954538 -0.7760144 0.2079341 -0.5954538 -0.7760127 0.2079311 -0.5954571 -0.7760127 0.2079311 -0.5954571 -0.7760127 0.2079311 -0.5954571 -0.8968096 -0.2402984 -0.3714691 -0.8968096 -0.2402984 -0.3714691 -0.8968096 -0.2402984 -0.3714691 -0.8968079 -0.2402997 -0.3714721 -0.8968079 -0.2402997 -0.3714721 -0.8968079 -0.2402997 -0.3714721 -0.6565099 -0.6565099 -0.3714691 -0.6565099 -0.6565099 -0.3714691 -0.6565099 -0.6565099 -0.3714691 -0.6565099 -0.6565099 -0.3714692 -0.6565099 -0.6565099 -0.3714692 -0.6565099 -0.6565099 -0.3714692 -0.240298 -0.8968083 -0.3714723 -0.240298 -0.8968083 -0.3714723 -0.240298 -0.8968083 -0.3714723 -0.2403 -0.896809 -0.3714693 -0.2403 -0.896809 -0.3714693 -0.2403 -0.896809 -0.3714693 0.2402984 -0.8968096 -0.3714691 0.2402984 -0.8968096 -0.3714691 0.2402984 -0.8968096 -0.3714691 0.2402997 -0.8968079 -0.3714721 0.2402997 -0.8968079 -0.3714721 0.2402997 -0.8968079 -0.3714721 0.6565099 -0.6565099 -0.3714691 0.6565099 -0.6565099 -0.3714691 0.6565099 -0.6565099 -0.3714691 0.6565099 -0.6565099 -0.3714692 0.6565099 -0.6565099 -0.3714692 0.6565099 -0.6565099 -0.3714692 0.8968083 -0.240298 -0.3714723 0.8968083 -0.240298 -0.3714723 0.8968083 -0.240298 -0.3714723 0.896809 -0.2403 -0.3714693 0.896809 -0.2403 -0.3714693 0.896809 -0.2403 -0.3714693 0.8968096 0.2402984 -0.3714691 0.8968096 0.2402984 -0.3714691 0.8968096 0.2402984 -0.3714691 0.8968079 0.2402997 -0.3714721 0.8968079 0.2402997 -0.3714721 0.8968079 0.2402997 -0.3714721 0.6565099 0.6565099 -0.3714691 0.6565099 0.6565099 -0.3714691 0.6565099 0.6565099 -0.3714691 0.6565099 0.6565099 -0.3714692 0.6565099 0.6565099 -0.3714692 0.6565099 0.6565099 -0.3714692 0.240298 0.8968083 -0.3714723 0.240298 0.8968083 -0.3714723 0.240298 0.8968083 -0.3714723 0.2403 0.896809 -0.3714693 0.2403 0.896809 -0.3714693 0.2403 0.896809 -0.3714693 -0.2402984 0.8968096 -0.3714691 -0.2402984 0.8968096 -0.3714691 -0.2402984 0.8968096 -0.3714691 -0.2402997 0.8968079 -0.3714721 -0.2402997 0.8968079 -0.3714721 -0.2402997 0.8968079 -0.3714721 -0.6565099 0.6565099 -0.3714691 -0.6565099 0.6565099 -0.3714691 -0.6565099 0.6565099 -0.3714691 -0.6565099 0.6565099 -0.3714692 -0.6565099 0.6565099 -0.3714692 -0.6565099 0.6565099 -0.3714692 -0.8968083 0.240298 -0.3714723 -0.8968083 0.240298 -0.3714723 -0.8968083 0.240298 -0.3714723 -0.896809 0.2403 -0.3714693 -0.896809 0.2403 -0.3714693 -0.896809 0.2403 -0.3714693 -0.958209 -0.2567522 -0.12615 -0.958209 -0.2567522 -0.12615 -0.958209 -0.2567522 -0.12615 -0.958209 -0.2567522 -0.12615 -0.958209 -0.2567522 -0.12615 -0.958209 -0.2567522 -0.12615 -0.7014578 -0.7014578 -0.12615 -0.7014578 -0.7014578 -0.12615 -0.7014578 -0.7014578 -0.12615 -0.7014578 -0.7014578 -0.12615 -0.7014578 -0.7014578 -0.12615 -0.7014578 -0.7014578 -0.12615 -0.2567522 -0.958209 -0.12615 -0.2567522 -0.958209 -0.12615 -0.2567522 -0.958209 -0.12615 -0.2567522 -0.958209 -0.12615 -0.2567522 -0.958209 -0.12615 -0.2567522 -0.958209 -0.12615 0.2567522 -0.958209 -0.12615 0.2567522 -0.958209 -0.12615 0.2567522 -0.958209 -0.12615 0.2567522 -0.958209 -0.12615 0.2567522 -0.958209 -0.12615 0.2567522 -0.958209 -0.12615 0.7014578 -0.7014578 -0.12615 0.7014578 -0.7014578 -0.12615 0.7014578 -0.7014578 -0.12615 0.7014578 -0.7014578 -0.12615 0.7014578 -0.7014578 -0.12615 0.7014578 -0.7014578 -0.12615 0.958209 -0.2567522 -0.12615 0.958209 -0.2567522 -0.12615 0.958209 -0.2567522 -0.12615 0.958209 -0.2567522 -0.12615 0.958209 -0.2567522 -0.12615 0.958209 -0.2567522 -0.12615 0.958209 0.2567522 -0.12615 0.958209 0.2567522 -0.12615 0.958209 0.2567522 -0.12615 0.958209 0.2567522 -0.12615 0.958209 0.2567522 -0.12615 0.958209 0.2567522 -0.12615 0.7014578 0.7014578 -0.12615 0.7014578 0.7014578 -0.12615 0.7014578 0.7014578 -0.12615 0.7014578 0.7014578 -0.12615 0.7014578 0.7014578 -0.12615 0.7014578 0.7014578 -0.12615 0.2567522 0.958209 -0.12615 0.2567522 0.958209 -0.12615 0.2567522 0.958209 -0.12615 0.2567522 0.958209 -0.12615 0.2567522 0.958209 -0.12615 0.2567522 0.958209 -0.12615 -0.2567522 0.958209 -0.12615 -0.2567522 0.958209 -0.12615 -0.2567522 0.958209 -0.12615 -0.2567522 0.958209 -0.12615 -0.2567522 0.958209 -0.12615 -0.2567522 0.958209 -0.12615 -0.7014578 0.7014578 -0.12615 -0.7014578 0.7014578 -0.12615 -0.7014578 0.7014578 -0.12615 -0.7014578 0.7014578 -0.12615 -0.7014578 0.7014578 -0.12615 -0.7014578 0.7014578 -0.12615 -0.958209 0.2567522 -0.12615 -0.958209 0.2567522 -0.12615 -0.958209 0.2567522 -0.12615 -0.958209 0.2567522 -0.12615 -0.958209 0.2567522 -0.12615 -0.958209 0.2567522 -0.12615 -0.958209 -0.2567522 0.1261501 -0.958209 -0.2567522 0.1261501 -0.958209 -0.2567522 0.1261501 -0.958209 -0.2567522 0.12615 -0.958209 -0.2567522 0.12615 -0.958209 -0.2567522 0.12615 -0.7014578 -0.7014578 0.12615 -0.7014578 -0.7014578 0.12615 -0.7014578 -0.7014578 0.12615 -0.7014578 -0.7014578 0.12615 -0.7014578 -0.7014578 0.12615 -0.7014578 -0.7014578 0.12615 -0.2567522 -0.958209 0.12615 -0.2567522 -0.958209 0.12615 -0.2567522 -0.958209 0.12615 -0.2567522 -0.958209 0.12615 -0.2567522 -0.958209 0.12615 -0.2567522 -0.958209 0.12615 0.2567522 -0.958209 0.1261501 0.2567522 -0.958209 0.1261501 0.2567522 -0.958209 0.1261501 0.2567522 -0.958209 0.12615 0.2567522 -0.958209 0.12615 0.2567522 -0.958209 0.12615 0.7014578 -0.7014578 0.12615 0.7014578 -0.7014578 0.12615 0.7014578 -0.7014578 0.12615 0.7014578 -0.7014578 0.12615 0.7014578 -0.7014578 0.12615 0.7014578 -0.7014578 0.12615 0.958209 -0.2567522 0.12615 0.958209 -0.2567522 0.12615 0.958209 -0.2567522 0.12615 0.958209 -0.2567522 0.12615 0.958209 -0.2567522 0.12615 0.958209 -0.2567522 0.12615 0.958209 0.2567522 0.1261501 0.958209 0.2567522 0.1261501 0.958209 0.2567522 0.1261501 0.958209 0.2567522 0.12615 0.958209 0.2567522 0.12615 0.958209 0.2567522 0.12615 0.7014578 0.7014578 0.12615 0.7014578 0.7014578 0.12615 0.7014578 0.7014578 0.12615 0.7014578 0.7014578 0.12615 0.7014578 0.7014578 0.12615 0.7014578 0.7014578 0.12615 0.2567522 0.958209 0.12615 0.2567522 0.958209 0.12615 0.2567522 0.958209 0.12615 0.2567522 0.958209 0.12615 0.2567522 0.958209 0.12615 0.2567522 0.958209 0.12615 -0.2567522 0.958209 0.1261501 -0.2567522 0.958209 0.1261501 -0.2567522 0.958209 0.1261501 -0.2567522 0.958209 0.12615 -0.2567522 0.958209 0.12615 -0.2567522 0.958209 0.12615 -0.7014578 0.7014578 0.12615 -0.7014578 0.7014578 0.12615 -0.7014578 0.7014578 0.12615 -0.7014578 0.7014578 0.12615 -0.7014578 0.7014578 0.12615 -0.7014578 0.7014578 0.12615 -0.958209 0.2567522 0.12615 -0.958209 0.2567522 0.12615 -0.958209 0.2567522 0.12615 -0.958209 0.2567522 0.12615 -0.958209 0.2567522 0.12615 -0.958209 0.2567522 0.12615 -0.896809 -0.2403 0.3714693 -0.896809 -0.2403 0.3714693 -0.896809 -0.2403 0.3714693 -0.8968083 -0.240298 0.3714723 -0.8968083 -0.240298 0.3714723 -0.8968083 -0.240298 0.3714723 -0.6565099 -0.6565099 0.3714691 -0.6565099 -0.6565099 0.3714691 -0.6565099 -0.6565099 0.3714691 -0.6565099 -0.6565099 0.3714691 -0.6565099 -0.6565099 0.3714691 -0.6565099 -0.6565099 0.3714691 -0.2402997 -0.8968079 0.3714722 -0.2402997 -0.8968079 0.3714722 -0.2402997 -0.8968079 0.3714722 -0.2402984 -0.8968096 0.3714691 -0.2402984 -0.8968096 0.3714691 -0.2402984 -0.8968096 0.3714691 0.2403 -0.896809 0.3714693 0.2403 -0.896809 0.3714693 0.2403 -0.896809 0.3714693 0.240298 -0.8968083 0.3714723 0.240298 -0.8968083 0.3714723 0.240298 -0.8968083 0.3714723 0.6565099 -0.6565099 0.3714691 0.6565099 -0.6565099 0.3714691 0.6565099 -0.6565099 0.3714691 0.6565099 -0.6565099 0.3714691 0.6565099 -0.6565099 0.3714691 0.6565099 -0.6565099 0.3714691 0.8968079 -0.2402997 0.3714722 0.8968079 -0.2402997 0.3714722 0.8968079 -0.2402997 0.3714722 0.8968096 -0.2402984 0.3714691 0.8968096 -0.2402984 0.3714691 0.8968096 -0.2402984 0.3714691 0.896809 0.2403 0.3714693 0.896809 0.2403 0.3714693 0.896809 0.2403 0.3714693 0.8968083 0.240298 0.3714723 0.8968083 0.240298 0.3714723 0.8968083 0.240298 0.3714723 0.6565099 0.6565099 0.3714691 0.6565099 0.6565099 0.3714691 0.6565099 0.6565099 0.3714691 0.6565099 0.6565099 0.3714691 0.6565099 0.6565099 0.3714691 0.6565099 0.6565099 0.3714691 0.2402997 0.8968079 0.3714722 0.2402997 0.8968079 0.3714722 0.2402997 0.8968079 0.3714722 0.2402984 0.8968096 0.3714691 0.2402984 0.8968096 0.3714691 0.2402984 0.8968096 0.3714691 -0.2403 0.896809 0.3714693 -0.2403 0.896809 0.3714693 -0.2403 0.896809 0.3714693 -0.240298 0.8968083 0.3714723 -0.240298 0.8968083 0.3714723 -0.240298 0.8968083 0.3714723 -0.6565099 0.6565099 0.3714691 -0.6565099 0.6565099 0.3714691 -0.6565099 0.6565099 0.3714691 -0.6565099 0.6565099 0.3714691 -0.6565099 0.6565099 0.3714691 -0.6565099 0.6565099 0.3714691 -0.8968079 0.2402997 0.3714722 -0.8968079 0.2402997 0.3714722 -0.8968079 0.2402997 0.3714722 -0.8968096 0.2402984 0.3714691 -0.8968096 0.2402984 0.3714691 -0.8968096 0.2402984 0.3714691 -0.7760128 -0.2079311 0.5954569 -0.7760128 -0.2079311 0.5954569 -0.7760128 -0.2079311 0.5954569 -0.7760144 -0.2079342 0.5954537 -0.7760144 -0.2079342 0.5954537 -0.7760144 -0.2079342 0.5954537 -0.5680802 -0.5680802 0.5954575 -0.5680802 -0.5680802 0.5954575 -0.5680802 -0.5680802 0.5954575 -0.5680803 -0.5680803 0.5954575 -0.5680803 -0.5680803 0.5954575 -0.5680803 -0.5680803 0.5954575 -0.2079316 -0.7760148 0.595454 -0.2079316 -0.7760148 0.595454 -0.2079316 -0.7760148 0.595454 -0.2079335 -0.7760118 0.5954573 -0.2079335 -0.7760118 0.5954573 -0.2079335 -0.7760118 0.5954573 0.2079311 -0.7760128 0.5954569 0.2079311 -0.7760128 0.5954569 0.2079311 -0.7760128 0.5954569 0.2079342 -0.7760144 0.5954537 0.2079342 -0.7760144 0.5954537 0.2079342 -0.7760144 0.5954537 0.5680802 -0.5680802 0.5954575 0.5680802 -0.5680802 0.5954575 0.5680802 -0.5680802 0.5954575 0.5680803 -0.5680803 0.5954575 0.5680803 -0.5680803 0.5954575 0.5680803 -0.5680803 0.5954575 0.7760148 -0.2079316 0.595454 0.7760148 -0.2079316 0.595454 0.7760148 -0.2079316 0.595454 0.7760118 -0.2079335 0.5954573 0.7760118 -0.2079335 0.5954573 0.7760118 -0.2079335 0.5954573 0.7760128 0.2079311 0.5954569 0.7760128 0.2079311 0.5954569 0.7760128 0.2079311 0.5954569 0.7760144 0.2079342 0.5954537 0.7760144 0.2079342 0.5954537 0.7760144 0.2079342 0.5954537 0.5680802 0.5680802 0.5954575 0.5680802 0.5680802 0.5954575 0.5680802 0.5680802 0.5954575 0.5680803 0.5680803 0.5954575 0.5680803 0.5680803 0.5954575 0.5680803 0.5680803 0.5954575 0.2079316 0.7760148 0.595454 0.2079316 0.7760148 0.595454 0.2079316 0.7760148 0.595454 0.2079335 0.7760118 0.5954573 0.2079335 0.7760118 0.5954573 0.2079335 0.7760118 0.5954573 -0.2079311 0.7760128 0.5954569 -0.2079311 0.7760128 0.5954569 -0.2079311 0.7760128 0.5954569 -0.2079342 0.7760144 0.5954537 -0.2079342 0.7760144 0.5954537 -0.2079342 0.7760144 0.5954537 -0.5680802 0.5680802 0.5954575 -0.5680802 0.5680802 0.5954575 -0.5680802 0.5680802 0.5954575 -0.5680803 0.5680803 0.5954575 -0.5680803 0.5680803 0.5954575 -0.5680803 0.5680803 0.5954575 -0.7760148 0.2079316 0.595454 -0.7760148 0.2079316 0.595454 -0.7760148 0.2079316 0.595454 -0.7760118 0.2079335 0.5954573 -0.7760118 0.2079335 0.5954573 -0.7760118 0.2079335 0.5954573 -0.6008203 -0.1609907 0.7830051 -0.6008203 -0.1609907 0.7830051 -0.6008203 -0.1609907 0.7830051 -0.600819 -0.1609883 0.7830065 -0.600819 -0.1609883 0.7830065 -0.600819 -0.1609883 0.7830065 -0.4398314 -0.4398314 0.783005 -0.4398314 -0.4398314 0.783005 -0.4398314 -0.4398314 0.783005 -0.4398314 -0.4398314 0.7830049 -0.4398314 -0.4398314 0.7830049 -0.4398314 -0.4398314 0.7830049 -0.1609903 -0.6008189 0.7830064 -0.1609903 -0.6008189 0.7830064 -0.1609903 -0.6008189 0.7830064 -0.1609888 -0.6008211 0.7830048 -0.1609888 -0.6008211 0.7830048 -0.1609888 -0.6008211 0.7830048 0.1609907 -0.6008203 0.7830051 0.1609907 -0.6008203 0.7830051 0.1609907 -0.6008203 0.7830051 0.1609883 -0.600819 0.7830065 0.1609883 -0.600819 0.7830065 0.1609883 -0.600819 0.7830065 0.4398314 -0.4398314 0.783005 0.4398314 -0.4398314 0.783005 0.4398314 -0.4398314 0.783005 0.4398314 -0.4398314 0.7830049 0.4398314 -0.4398314 0.7830049 0.4398314 -0.4398314 0.7830049 0.6008189 -0.1609903 0.7830064 0.6008189 -0.1609903 0.7830064 0.6008189 -0.1609903 0.7830064 0.6008211 -0.1609888 0.7830048 0.6008211 -0.1609888 0.7830048 0.6008211 -0.1609888 0.7830048 0.6008203 0.1609907 0.7830051 0.6008203 0.1609907 0.7830051 0.6008203 0.1609907 0.7830051 0.600819 0.1609883 0.7830065 0.600819 0.1609883 0.7830065 0.600819 0.1609883 0.7830065 0.4398314 0.4398314 0.783005 0.4398314 0.4398314 0.783005 0.4398314 0.4398314 0.783005 0.4398314 0.4398314 0.7830049 0.4398314 0.4398314 0.7830049 0.4398314 0.4398314 0.7830049 0.1609903 0.6008189 0.7830064 0.1609903 0.6008189 0.7830064 0.1609903 0.6008189 0.7830064 0.1609888 0.6008211 0.7830048 0.1609888 0.6008211 0.7830048 0.1609888 0.6008211 0.7830048 -0.1609907 0.6008203 0.7830051 -0.1609907 0.6008203 0.7830051 -0.1609907 0.6008203 0.7830051 -0.1609883 0.600819 0.7830065 -0.1609883 0.600819 0.7830065 -0.1609883 0.600819 0.7830065 -0.4398314 0.4398314 0.783005 -0.4398314 0.4398314 0.783005 -0.4398314 0.4398314 0.783005 -0.4398314 0.4398314 0.7830049 -0.4398314 0.4398314 0.7830049 -0.4398314 0.4398314 0.7830049 -0.6008189 0.1609903 0.7830064 -0.6008189 0.1609903 0.7830064 -0.6008189 0.1609903 0.7830064 -0.6008211 0.1609888 0.7830048 -0.6008211 0.1609888 0.7830048 -0.6008211 0.1609888 0.7830048 -0.3806893 -0.102005 0.9190596 -0.3806893 -0.102005 0.9190596 -0.3806893 -0.102005 0.9190596 -0.3806891 -0.1020045 0.9190598 -0.3806891 -0.1020045 0.9190598 -0.3806891 -0.1020045 0.9190598 -0.278684 -0.278684 0.9190595 -0.278684 -0.278684 0.9190595 -0.278684 -0.278684 0.9190595 -0.278684 -0.278684 0.9190595 -0.278684 -0.278684 0.9190595 -0.278684 -0.278684 0.9190595 -0.1020049 -0.3806891 0.9190598 -0.1020049 -0.3806891 0.9190598 -0.1020049 -0.3806891 0.9190598 -0.1020046 -0.3806896 0.9190597 -0.1020046 -0.3806896 0.9190597 -0.1020046 -0.3806896 0.9190597 0.102005 -0.3806893 0.9190596 0.102005 -0.3806893 0.9190596 0.102005 -0.3806893 0.9190596 0.1020045 -0.3806891 0.9190598 0.1020045 -0.3806891 0.9190598 0.1020045 -0.3806891 0.9190598 0.278684 -0.278684 0.9190595 0.278684 -0.278684 0.9190595 0.278684 -0.278684 0.9190595 0.278684 -0.278684 0.9190595 0.278684 -0.278684 0.9190595 0.278684 -0.278684 0.9190595 0.3806891 -0.1020049 0.9190598 0.3806891 -0.1020049 0.9190598 0.3806891 -0.1020049 0.9190598 0.3806896 -0.1020046 0.9190597 0.3806896 -0.1020046 0.9190597 0.3806896 -0.1020046 0.9190597 0.3806893 0.102005 0.9190596 0.3806893 0.102005 0.9190596 0.3806893 0.102005 0.9190596 0.3806891 0.1020045 0.9190598 0.3806891 0.1020045 0.9190598 0.3806891 0.1020045 0.9190598 0.278684 0.278684 0.9190595 0.278684 0.278684 0.9190595 0.278684 0.278684 0.9190595 0.278684 0.278684 0.9190595 0.278684 0.278684 0.9190595 0.278684 0.278684 0.9190595 0.1020049 0.3806891 0.9190598 0.1020049 0.3806891 0.9190598 0.1020049 0.3806891 0.9190598 0.1020046 0.3806896 0.9190597 0.1020046 0.3806896 0.9190597 0.1020046 0.3806896 0.9190597 -0.102005 0.3806893 0.9190596 -0.102005 0.3806893 0.9190596 -0.102005 0.3806893 0.9190596 -0.1020045 0.3806891 0.9190598 -0.1020045 0.3806891 0.9190598 -0.1020045 0.3806891 0.9190598 -0.278684 0.278684 0.9190595 -0.278684 0.278684 0.9190595 -0.278684 0.278684 0.9190595 -0.278684 0.278684 0.9190595 -0.278684 0.278684 0.9190595 -0.278684 0.278684 0.9190595 -0.3806891 0.1020049 0.9190598 -0.3806891 0.1020049 0.9190598 -0.3806891 0.1020049 0.9190598 -0.3806896 0.1020046 0.9190597 -0.3806896 0.1020046 0.9190597 -0.3806896 0.1020046 0.9190597 -0.1304458 -0.0349526 0.9908391 -0.1304458 -0.0349526 0.9908391 -0.1304458 -0.0349526 0.9908391 1.0 0.0 0.0 1.0 0.0 0.0 -0.0954928 -0.0954928 0.9908392 -0.0954928 -0.0954928 0.9908392 -0.0954928 -0.0954928 0.9908392 1.0 0.0 0.0 1.0 0.0 0.0 -0.0349526 -0.1304458 0.9908391 -0.0349526 -0.1304458 0.9908391 -0.0349526 -0.1304458 0.9908391 1.0 0.0 0.0 1.0 0.0 0.0 0.0349526 -0.1304458 0.9908391 0.0349526 -0.1304458 0.9908391 0.0349526 -0.1304458 0.9908391 1.0 0.0 0.0 1.0 0.0 0.0 0.0954928 -0.0954928 0.9908392 0.0954928 -0.0954928 0.9908392 0.0954928 -0.0954928 0.9908392 1.0 0.0 0.0 1.0 0.0 0.0 0.1304458 -0.0349526 0.9908391 0.1304458 -0.0349526 0.9908391 0.1304458 -0.0349526 0.9908391 1.0 0.0 0.0 1.0 0.0 0.0 0.1304458 0.0349526 0.9908391 0.1304458 0.0349526 0.9908391 0.1304458 0.0349526 0.9908391 1.0 0.0 0.0 1.0 0.0 0.0 0.0954928 0.0954928 0.9908392 0.0954928 0.0954928 0.9908392 0.0954928 0.0954928 0.9908392 1.0 0.0 0.0 1.0 0.0 0.0 0.0349526 0.1304458 0.9908391 0.0349526 0.1304458 0.9908391 0.0349526 0.1304458 0.9908391 1.0 0.0 0.0 1.0 0.0 0.0 -0.0349526 0.1304458 0.9908391 -0.0349526 0.1304458 0.9908391 -0.0349526 0.1304458 0.9908391 1.0 0.0 0.0 1.0 0.0 0.0 -0.0954928 0.0954928 0.9908392 -0.0954928 0.0954928 0.9908392 -0.0954928 0.0954928 0.9908392 1.0 0.0 0.0 1.0 0.0 0.0 -0.1304458 0.0349526 0.9908391 -0.1304458 0.0349526 0.9908391 -0.1304458 0.0349526 0.9908391 1.0 0.0 0.0 1.0 0.0 0.0 1.0 0.0 0.0 1.0 0.0 0.0 -0.1304456 -0.0349525 -0.9908392 -0.1304456 -0.0349525 -0.9908392 -0.1304456 -0.0349525 -0.9908392 1.0 0.0 0.0 1.0 0.0 0.0 -0.0954926 -0.0954926 -0.9908392 -0.0954926 -0.0954926 -0.9908392 -0.0954926 -0.0954926 -0.9908392 1.0 0.0 0.0 1.0 0.0 0.0 -0.0349525 -0.1304456 -0.9908392 -0.0349525 -0.1304456 -0.9908392 -0.0349525 -0.1304456 -0.9908392 1.0 0.0 0.0 1.0 0.0 0.0 0.0349525 -0.1304456 -0.9908392 0.0349525 -0.1304456 -0.9908392 0.0349525 -0.1304456 -0.9908392 1.0 0.0 0.0 1.0 0.0 0.0 0.0954926 -0.0954926 -0.9908392 0.0954926 -0.0954926 -0.9908392 0.0954926 -0.0954926 -0.9908392 1.0 0.0 0.0 1.0 0.0 0.0 0.1304456 -0.0349525 -0.9908392 0.1304456 -0.0349525 -0.9908392 0.1304456 -0.0349525 -0.9908392 1.0 0.0 0.0 1.0 0.0 0.0 0.1304456 0.0349525 -0.9908392 0.1304456 0.0349525 -0.9908392 0.1304456 0.0349525 -0.9908392 1.0 0.0 0.0 1.0 0.0 0.0 0.0954926 0.0954926 -0.9908392 0.0954926 0.0954926 -0.9908392 0.0954926 0.0954926 -0.9908392 1.0 0.0 0.0 1.0 0.0 0.0 0.0349525 0.1304456 -0.9908392 0.0349525 0.1304456 -0.9908392 0.0349525 0.1304456 -0.9908392</float_array>
                    <technique_common>
                        <accessor count="840" source="#geometry0-normal-array" stride="3">
                            <param name="X" type="float"/>
                            <param name="Y" type="float"/>
                            <param name="Z" type="float"/>
                        </accessor>
                    </technique_common>
                </source>
                <vertices id="geometry0-vertex">
                    <input semantic="POSITION" source="#geometry0-position"/>
                </vertices>
                <triangles count="288" material="default_ai_0.2_sh_0.2_tr_0.0_dc_r_0.8_g_0.8_b_0.8_sc_r_1.0_g_1.0_b_1.0_ec_r_0.0_g_0.0_b_0_tri">
                    <input offset="0" semantic="VERTEX" source="#geometry0-vertex"/>
                    <input offset="1" semantic="NORMAL" source="#geometry0-normal"/>
                    <p>0 0 0 0 11 1 0 2 11 3 10 4 0 5 0 5 12 6 0 7 12 8 11 9 0 10 0 10 2 11 0 12 2 13 12 14 2 15 1 16 13 17 2 18 13 19 14 20 1 21 3 22 15 23 1 24 15 25 13 26 3 27 4 28 16 29 3 30 16 31 15 32 4 33 5 34 17 35 4 36 17 37 16 38 5 39 6 40 18 41 5 42 18 43 17 44 6 45 7 46 19 47 6 48 19 49 18 50 7 51 8 52 20 53 7 54 20 55 19 56 8 57 9 58 21 59 8 60 21 61 20 62 9 63 10 64 22 65 9 66 22 67 21 68 10 69 11 70 23 71 10 72 23 73 22 74 11 75 12 76 24 77 11 78 24 79 23 80 12 81 2 82 14 83 12 84 14 85 24 86 14 87 13 88 25 89 14 90 25 91 26 92 13 93 15 94 27 95 13 96 27 97 25 98 15 99 16 100 28 101 15 102 28 103 27 104 16 105 17 106 29 107 16 108 29 109 28 110 17 111 18 112 30 113 17 114 30 115 29 116 18 117 19 118 31 119 18 120 31 121 30 122 19 123 20 124 32 125 19 126 32 127 31 128 20 129 21 130 33 131 20 132 33 133 32 134 21 135 22 136 34 137 21 138 34 139 33 140 22 141 23 142 35 143 22 144 35 145 34 146 23 147 24 148 36 149 23 150 36 151 35 152 24 153 14 154 26 155 24 156 26 157 36 158 26 159 25 160 37 161 26 162 37 163 38 164 25 165 27 166 39 167 25 168 39 169 37 170 27 171 28 172 40 173 27 174 40 175 39 176 28 177 29 178 41 179 28 180 41 181 40 182 29 183 30 184 42 185 29 186 42 187 41 188 30 189 31 190 43 191 30 192 43 193 42 194 31 195 32 196 44 197 31 198 44 199 43 200 32 201 33 202 45 203 32 204 45 205 44 206 33 207 34 208 46 209 33 210 46 211 45 212 34 213 35 214 47 215 34 216 47 217 46 218 35 219 36 220 48 221 35 222 48 223 47 224 36 225 26 226 38 227 36 228 38 229 48 230 38 231 37 232 49 233 38 234 49 235 50 236 37 237 39 238 51 239 37 240 51 241 49 242 39 243 40 244 52 245 39 246 52 247 51 248 40 249 41 250 53 251 40 252 53 253 52 254 41 255 42 256 54 257 41 258 54 259 53 260 42 261 43 262 55 263 42 264 55 265 54 266 43 267 44 268 56 269 43 270 56 271 55 272 44 273 45 274 57 275 44 276 57 277 56 278 45 279 46 280 58 281 45 282 58 283 57 284 46 285 47 286 59 287 46 288 59 289 58 290 47 291 48 292 60 293 47 294 60 295 59 296 48 297 38 298 50 299 48 300 50 301 60 302 50 303 49 304 61 305 50 306 61 307 62 308 49 309 51 310 63 311 49 312 63 313 61 314 51 315 52 316 64 317 51 318 64 319 63 320 52 321 53 322 65 323 52 324 65 325 64 326 53 327 54 328 66 329 53 330 66 331 65 332 54 333 55 334 67 335 54 336 67 337 66 338 55 339 56 340 68 341 55 342 68 343 67 344 56 345 57 346 69 347 56 348 69 349 68 350 57 351 58 352 70 353 57 354 70 355 69 356 58 357 59 358 71 359 58 360 71 361 70 362 59 363 60 364 72 365 59 366 72 367 71 368 60 369 50 370 62 371 60 372 62 373 72 374 62 375 61 376 73 377 62 378 73 379 74 380 61 381 63 382 75 383 61 384 75 385 73 386 63 387 64 388 76 389 63 390 76 391 75 392 64 393 65 394 77 395 64 396 77 397 76 398 65 399 66 400 78 401 65 402 78 403 77 404 66 405 67 406 79 407 66 408 79 409 78 410 67 411 68 412 80 413 67 414 80 415 79 416 68 417 69 418 81 419 68 420 81 421 80 422 69 423 70 424 82 425 69 426 82 427 81 428 70 429 71 430 83 431 70 432 83 433 82 434 71 435 72 436 84 437 71 438 84 439 83 440 72 441 62 442 74 443 72 444 74 445 84 446 74 447 73 448 85 449 74 450 85 451 86 452 73 453 75 454 87 455 73 456 87 457 85 458 75 459 76 460 88 461 75 462 88 463 87 464 76 465 77 466 89 467 76 468 89 469 88 470 77 471 78 472 90 473 77 474 90 475 89 476 78 477 79 478 91 479 78 480 91 481 90 482 79 483 80 484 92 485 79 486 92 487 91 488 80 489 81 490 93 491 80 492 93 493 92 494 81 495 82 496 94 497 81 498 94 499 93 500 82 501 83 502 95 503 82 504 95 505 94 506 83 507 84 508 96 509 83 510 96 511 95 512 84 513 74 514 86 515 84 516 86 517 96 518 86 519 85 520 97 521 86 522 97 523 98 524 85 525 87 526 99 527 85 528 99 529 97 530 87 531 88 532 100 533 87 534 100 535 99 536 88 537 89 538 101 539 88 540 101 541 100 542 89 543 90 544 102 545 89 546 102 547 101 548 90 549 91 550 103 551 90 552 103 553 102 554 91 555 92 556 104 557 91 558 104 559 103 560 92 561 93 562 105 563 92 564 105 565 104 566 93 567 94 568 106 569 93 570 106 571 105 572 94 573 95 574 107 575 94 576 107 577 106 578 95 579 96 580 108 581 95 582 108 583 107 584 96 585 86 586 98 587 96 588 98 589 108 590 98 591 97 592 109 593 98 594 109 595 110 596 97 597 99 598 111 599 97 600 111 601 109 602 99 603 100 604 112 605 99 606 112 607 111 608 100 609 101 610 113 611 100 612 113 613 112 614 101 615 102 616 114 617 101 618 114 619 113 620 102 621 103 622 115 623 102 624 115 625 114 626 103 627 104 628 116 629 103 630 116 631 115 632 104 633 105 634 117 635 104 636 117 637 116 638 105 639 106 640 118 641 105 642 118 643 117 644 106 645 107 646 119 647 106 648 119 649 118 650 107 651 108 652 120 653 107 654 120 655 119 656 108 657 98 658 110 659 108 660 110 661 120 662 110 663 109 664 121 665 110 666 121 667 122 668 109 669 111 670 123 671 109 672 123 673 121 674 111 675 112 676 124 677 111 678 124 679 123 680 112 681 113 682 125 683 112 684 125 685 124 686 113 687 114 688 126 689 113 690 126 691 125 692 114 693 115 694 127 695 114 696 127 697 126 698 115 699 116 700 128 701 115 702 128 703 127 704 116 705 117 706 129 707 116 708 129 709 128 710 117 711 118 712 130 713 117 714 130 715 129 716 118 717 119 718 131 719 118 720 131 721 130 722 119 723 120 724 132 725 119 726 132 727 131 728 120 729 110 730 122 731 120 732 122 733 132 734 122 735 121 736 133 737 122 738 133 739 133 739 121 740 123 741 133 742 121 743 133 744 133 744 123 745 124 746 133 747 123 748 133 749 133 749 124 750 125 751 133 752 124 753 133 754 133 754 125 755 126 756 133 757 125 758 133 759 133 759 126 760 127 761 133 762 126 763 133 764 133 764 127 765 128 766 133 767 127 768 133 769 133 769 128 770 129 771 133 772 128 773 133 774 133 774 129 775 130 776 133 777 129 778 133 779 133 779 130 780 131 781 133 782 130 783 133 784 133 784 131 785 132 786 133 787 131 788 133 789 133 789 132 790 122 791 133 792 132 793 133 794 133 794 0 795 0 795 1 796 0 797 1 798 2 799 0 800 0 800 3 801 0 802 3 803 1 804 0 805 0 805 4 806 0 807 4 808 3 809 0 810 0 810 5 811 0 812 5 813 4 814 0 815 0 815 6 816 0 817 6 818 5 819 0 820 0 820 7 821 0 822 7 823 6 824 0 825 0 825 8 826 0 827 8 828 7 829 0 830 0 830 9 831 0 832 9 833 8 834 0 835 0 835 10 836 0 837 10 838 9 839</p>
                </triangles>
            </mesh>
        </geometry>
    </library_geometries>
    <library_visual_scenes>
        <visual_scene id="Building_242_CROWN2">
            <node>
                <instance_geometry url="#geometry0">
                    <bind_material>
                        <technique_common>
                            <instance_material symbol="default_ai_0.2_sh_0.2_tr_0.0_dc_r_0.8_g_0.8_b_0.8_sc_r_1.0_g_1.0_b_1.0_ec_r_0.0_g_0.0_b_0_tri" target="#default_ai_0.2_sh_0.2_tr_0.0_dc_r_0.8_g_0.8_b_0.8_sc_r_1.0_g_1.0_b_1.0_ec_r_0.0_g_0.0_b_0_mat"/>
                        </technique_common>
                    </bind_material>
                </instance_geometry>
            </node>
        </visual_scene>
    </library_visual_scenes>
    <scene>
        <instance_visual_scene url="#Building_242_CROWN2"/>
    </scene>
</COLLADA>
