<?xml version="1.0" encoding="UTF-8" standalone="yes"?>
<COLLADA xmlns="http://www.collada.org/2005/11/COLLADASchema" version="1.4.1">
    <asset>
        <contributor>
            <authoring_tool>3D City Database Importer/Exporter, version 5.5.3; Chair of Geoinformatics, Technical University of Munich</authoring_tool>
        </contributor>
        <created>2026-09-25T14:44:43.769</created>
        <modified>2026-09-25T14:44:43.769</modified>
        <unit meter="1.0" name="meters"/>
        <up_axis>Z_UP</up_axis>
    </asset>
    <library_materials>
        <material id="default_ai_0.2_sh_0.2_tr_0.0_dc_r_0.8_g_0.8_b_0.8_sc_r_1.0_g_1.0_b_1.0_ec_r_0.0_g_0.0_b_0_mat">
            <instance_effect url="#default_ai_0.2_sh_0.2_tr_0.0_dc_r_0.8_g_0.8_b_0.8_sc_r_1.0_g_1.0_b_1.0_ec_r_0.0_g_0.0_b_0_eff"/>
        </material>
    </library_materials>
    <library_effects>
        <effect id="default_ai_0.2_sh_0.2_tr_0.0_dc_r_0.8_g_0.8_b_0.8_sc_r_1.0_g_1.0_b_1.0_ec_r_0.0_g_0.0_b_0_eff">
            <profile_COMMON>
                <technique sid="COMMON">
                    <lambert>
                        <emission>
                            <color>0.0 0.0 0.0 1.0</color>
                        </emission>
                        <diffuse>
                            <color>0.8 0.8 0.8 1.0</color>
                        </diffuse>
                        <reflective>
                            <color>1.0 1.0 1.0 1.0</color>
                        </reflective>
                        <reflectivity>
                            <float>0.2</float>
                        </reflectivity>
                        <transparent opaque="A_ONE">
                            <color>1.0 1.0 1.0 1.0</color>
                        </transparent>
                        <transparency>
                            <float>1.0</float>
                        </transparency>
                    </lambert>
                </technique>
                <extra>
                    <technique profile="GOOGLEEARTH">
                        <double_sided>0</double_sided>
                    </technique>
                </extra>
            </profile_COMMON>
        </effect>
    </library_effects>
    <library_geometries>
        <geometry id="geometry0">
            <mesh>
                <source id="geometry0-position">
                    <float_array id="geometry0-position-array" count="402">0.0 0.0 4.2 0.4707024 0.271761 4.1284446 0.5435199 0.0 4.1284446 0.271761 0.4707024 4.1284446 0.0 0.5435199 4.1284446 -0.271761 0.4707024 4.1284446 -0.4707024 0.271761 4.1284446 -0.5435199 0.0 4.1284446 -0.4707024 -0.271761 4.1284446 -0.271761 -0.4707024 4.1284446 0.0 -0.5435199 4.1284446 0.271761 -0.4707024 4.1284446 0.4707024 -0.271761 4.1284446 0.9093273 0.525 3.9186525 1.05 0.0 3.9186525 0.525 0.9093273 3.9186525 0.0 1.05 3.9186525 -0.525 0.9093273 3.9186525 -0.9093273 0.525 3.9186525 -1.05 0.0 3.9186525 -0.9093273 -0.525 3.9186525 -0.525 -0.9093273 3.9186525 0.0 -1.05 3.9186525 0.525 -0.9093273 3.9186525 0.9093273 -0.525 3.9186525 1.2859812 0.7424613 3.5849247 1.4849247 0.0 3.5849247 0.7424613 1.2859812 3.5849247 0.0 1.4849247 3.5849247 -0.7424613 1.2859812 3.5849247 -1.2859812 0.7424613 3.5849247 -1.4849247 0.0 3.5849247 -1.2859812 -0.7424613 3.5849247 -0.7424613 -1.2859812 3.5849247 0.0 -1.4849247 3.5849247 0.7424613 -1.2859812 3.5849247 1.2859812 -0.7424613 3.5849247 1.575 0.9093273 3.15 1.8186525 0.0 3.15 0.9093273 1.575 3.15 0.0 1.8186525 3.15 -0.9093273 1.575 3.15 -1.575 0.9093273 3.15 -1.8186525 0.0 3.15 -1.575 -0.9093273 3.15 -0.9093273 -1.575 3.15 0.0 -1.8186525 3.15 0.9093273 -1.575 3.15 1.575 -0.9093273 3.15 1.7566836 1.0142223 2.6435199 2.0284446 0.0 2.6435199 1.0142223 1.7566836 2.6435199 0.0 2.0284446 2.6435199 -1.0142223 1.7566836 2.6435199 -1.7566836 1.0142223 2.6435199 -2.0284446 0.0 2.6435199 -1.7566836 -1.0142223 2.6435199 -1.0142223 -1.7566836 2.6435199 0.0 -2.0284446 2.6435199 1.0142223 -1.7566836 2.6435199 1.7566836 -1.0142223 2.6435199 1.8186525 1.05 2.1 2.1 0.0 2.1 1.05 1.8186525 2.1 0.0 2.1 2.1 -1.05 1.8186525 2.1 -1.8186525 1.05 2.1 -2.1 0.0 2.1 -1.8186525 -1.05 2.1 -1.05 -1.8186525 2.1 0.0 -2.1 2.1 1.05 -1.8186525 2.1 1.8186525 -1.05 2.1 1.7566836 1.0142223 1.5564801 2.0284446 0.0 1.5564801 1.0142223 1.7566836 1.5564801 0.0 2.0284446 1.5564801 -1.0142223 1.7566836 1.5564801 -1.7566836 1.0142223 1.5564801 -2.0284446 0.0 1.5564801 -1.7566836 -1.0142223 1.5564801 -1.0142223 -1.7566836 1.5564801 0.0 -2.0284446 1.5564801 1.0142223 -1.7566836 1.5564801 1.7566836 -1.0142223 1.5564801 1.575 0.9093273 1.05 1.8186525 0.0 1.05 0.9093273 1.575 1.05 0.0 1.8186525 1.05 -0.9093273 1.575 1.05 -1.575 0.9093273 1.05 -1.8186525 0.0 1.05 -1.575 -0.9093273 1.05 -0.9093273 -1.575 1.05 0.0 -1.8186525 1.05 0.9093273 -1.575 1.05 1.575 -0.9093273 1.05 1.2859812 0.7424613 0.6150753 1.4849247 0.0 0.6150753 0.7424613 1.2859812 0.6150753 0.0 1.4849247 0.6150753 -0.7424613 1.2859812 0.6150753 -1.2859812 0.7424613 0.6150753 -1.4849247 0.0 0.6150753 -1.2859812 -0.7424613 0.6150753 -0.7424613 -1.2859812 0.6150753 0.0 -1.4849247 0.6150753 0.7424613 -1.2859812 0.6150753 1.2859812 -0.7424613 0.6150753 0.9093273 0.525 0.2813475 1.05 0.0 0.2813475 0.525 0.9093273 0.2813475 0.0 1.05 0.2813475 -0.525 0.9093273 0.2813475 -0.9093273 0.525 0.2813475 -1.05 0.0 0.2813475 -0.9093273 -0.525 0.2813475 -0.525 -0.9093273 0.2813475 0.0 -1.05 0.2813475 0.525 -0.9093273 0.2813475 0.9093273 -0.525 0.2813475 0.4707024 0.271761 0.0715554 0.5435199 0.0 0.0715554 0.271761 0.4707024 0.0715554 0.0 0.5435199 0.0715554 -0.271761 0.4707024 0.0715554 -0.4707024 0.271761 0.0715554 -0.5435199 0.0 0.0715554 -0.4707024 -0.271761 0.0715554 -0.271761 -0.4707024 0.0715554 0.0 -0.5435199 0.0715554 0.271761 -0.4707024 0.0715554 0.4707024 -0.271761 0.0715554 0.0 0.0 0.0</float_array>
                    <technique_common>
                        <accessor count="134" source="#geometry0-position-array" stride="3">
                            <param name="X" type="float"/>
                            <param name="Y" type="float"/>
                            <param name="Z" type="float"/>
                        </accessor>
                    </technique_common>
                </source>
                <source id="geometry0-normal">
                    <float_array id="geometry0-normal-array" count="2520">0.1304458 -0.0349525 0.9908391 0.1304458 -0.0349525 0.9908391 0.1304458 -0.0349525 0.9908391 1.0 0.0 0.0 1.0 0.0 0.0 0.1304458 0.0349525 0.9908391 0.1304458 0.0349525 0.9908391 0.1304458 0.0349525 0.9908391 1.0 0.0 0.0 1.0 0.0 0.0 0.0954928 0.0954928 0.9908392 0.0954928 0.0954928 0.9908392 0.0954928 0.0954928 0.9908392 1.0 0.0 0.0 1.0 0.0 0.0 0.0349525 0.1304458 0.9908391 0.0349525 0.1304458 0.9908391 0.0349525 0.1304458 0.9908391 1.0 0.0 0.0 1.0 0.0 0.0 -0.0349525 0.1304458 0.9908391 -0.0349525 0.1304458 0.9908391 -0.0349525 0.1304458 0.9908391 1.0 0.0 0.0 1.0 0.0 0.0 -0.0954928 0.0954928 0.9908392 -0.0954928 0.0954928 0.9908392 -0.0954928 0.0954928 0.9908392 1.0 0.0 0.0 1.0 0.0 0.0 -0.1304458 0.0349525 0.9908391 -0.1304458 0.0349525 0.9908391 -0.1304458 0.0349525 0.9908391 1.0 0.0 0.0 1.0 0.0 0.0 1.0 0.0 0.0 1.0 0.0 0.0 -0.1304453 -0.0349524 -0.9908392 -0.1304453 -0.0349524 -0.9908392 -0.1304453 -0.0349524 -0.9908392 1.0 0.0 0.0 1.0 0.0 0.0 -0.0954924 -0.0954924 -0.9908392 -0.0954924 -0.0954924 -0.9908392 -0.0954924 -0.0954924 -0.9908392 1.0 0.0 0.0 1.0 0.0 0.0 -0.0349524 -0.1304453 -0.9908392 -0.0349524 -0.1304453 -0.9908392 -0.0349524 -0.1304453 -0.9908392 1.0 0.0 0.0 1.0 0.0 0.0 0.0349524 -0.1304453 -0.9908392 0.0349524 -0.1304453 -0.9908392 0.0349524 -0.1304453 -0.9908392 1.0 0.0 0.0 1.0 0.0 0.0 0.0954924 -0.0954924 -0.9908392 0.0954924 -0.0954924 -0.9908392 0.0954924 -0.0954924 -0.9908392 1.0 0.0 0.0 1.0 0.0 0.0 0.1304453 -0.0349524 -0.9908392 0.1304453 -0.0349524 -0.9908392 0.1304453 -0.0349524 -0.9908392 1.0 0.0 0.0 1.0 0.0 0.0 0.1304453 0.0349524 -0.9908392 0.1304453 0.0349524 -0.9908392 0.1304453 0.0349524 -0.9908392 1.0 0.0 0.0 1.0 0.0 0.0 0.0954924 0.0954924 -0.9908392 0.0954924 0.0954924 -0.9908392 0.0954924 0.0954924 -0.9908392 1.0 0.0 0.0 1.0 0.0 0.0 0.0349524 0.1304453 -0.9908392 0.0349524 0.1304453 -0.9908392 0.0349524 0.1304453 -0.9908392 1.0 0.0 0.0 1.0 0.0 0.0 -0.0349524 0.1304453 -0.9908392 -0.0349524 0.1304453 -0.9908392 -0.0349524 0.1304453 -0.9908392 1.0 0.0 0.0 1.0 0.0 0.0 -0.0954924 0.0954924 -0.9908392 -0.0954924 0.0954924 -0.9908392 -0.0954924 0.0954924 -0.9908392 1.0 0.0 0.0 1.0 0.0 0.0 -0.1304453 0.0349524 -0.9908392 -0.1304453 0.0349524 -0.9908392 -0.1304453 0.0349524 -0.9908392 -0.3806896 -0.1020046 -0.9190596 -0.3806896 -0.1020046 -0.9190596 -0.3806896 -0.1020046 -0.9190596 -0.3806892 -0.1020049 -0.9190597 -0.3806892 -0.1020049 -0.9190597 -0.3806892 -0.1020049 -0.9190597 -0.2786841 -0.2786841 -0.9190595 -0.2786841 -0.2786841 -0.9190595 -0.2786841 -0.2786841 -0.9190595 -0.2786841 -0.2786841 -0.9190595 -0.2786841 -0.2786841 -0.9190595 -0.2786841 -0.2786841 -0.9190595 -0.1020045 -0.3806893 -0.9190598 -0.1020045 -0.3806893 -0.9190598 -0.1020045 -0.3806893 -0.9190598 -0.1020049 -0.3806894 -0.9190597 -0.1020049 -0.3806894 -0.9190597 -0.1020049 -0.3806894 -0.9190597 0.1020046 -0.3806896 -0.9190596 0.1020046 -0.3806896 -0.9190596 0.1020046 -0.3806896 -0.9190596 0.1020049 -0.3806892 -0.9190597 0.1020049 -0.3806892 -0.9190597 0.1020049 -0.3806892 -0.9190597 0.2786841 -0.2786841 -0.9190595 0.2786841 -0.2786841 -0.9190595 0.2786841 -0.2786841 -0.9190595 0.2786841 -0.2786841 -0.9190595 0.2786841 -0.2786841 -0.9190595 0.2786841 -0.2786841 -0.9190595 0.3806893 -0.1020045 -0.9190598 0.3806893 -0.1020045 -0.9190598 0.3806893 -0.1020045 -0.9190598 0.3806894 -0.1020049 -0.9190597 0.3806894 -0.1020049 -0.9190597 0.3806894 -0.1020049 -0.9190597 0.3806896 0.1020046 -0.9190596 0.3806896 0.1020046 -0.9190596 0.3806896 0.1020046 -0.9190596 0.3806892 0.1020049 -0.9190597 0.3806892 0.1020049 -0.9190597 0.3806892 0.1020049 -0.9190597 0.2786841 0.2786841 -0.9190595 0.2786841 0.2786841 -0.9190595 0.2786841 0.2786841 -0.9190595 0.2786841 0.2786841 -0.9190595 0.2786841 0.2786841 -0.9190595 0.2786841 0.2786841 -0.9190595 0.1020045 0.3806893 -0.9190598 0.1020045 0.3806893 -0.9190598 0.1020045 0.3806893 -0.9190598 0.1020049 0.3806894 -0.9190597 0.1020049 0.3806894 -0.9190597 0.1020049 0.3806894 -0.9190597 -0.1020046 0.3806896 -0.9190596 -0.1020046 0.3806896 -0.9190596 -0.1020046 0.3806896 -0.9190596 -0.1020049 0.3806892 -0.9190597 -0.1020049 0.3806892 -0.9190597 -0.1020049 0.3806892 -0.9190597 -0.2786841 0.2786841 -0.9190595 -0.2786841 0.2786841 -0.9190595 -0.2786841 0.2786841 -0.9190595 -0.2786841 0.2786841 -0.9190595 -0.2786841 0.2786841 -0.9190595 -0.2786841 0.2786841 -0.9190595 -0.3806893 0.1020045 -0.9190598 -0.3806893 0.1020045 -0.9190598 -0.3806893 0.1020045 -0.9190598 -0.3806894 0.1020049 -0.9190597 -0.3806894 0.1020049 -0.9190597 -0.3806894 0.1020049 -0.9190597 -0.6008213 -0.1609888 -0.7830047 -0.6008213 -0.1609888 -0.7830047 -0.6008213 -0.1609888 -0.7830047 -0.6008189 -0.1609902 -0.7830063 -0.6008189 -0.1609902 -0.7830063 -0.6008189 -0.1609902 -0.7830063 -0.4398314 -0.4398314 -0.7830049 -0.4398314 -0.4398314 -0.7830049 -0.4398314 -0.4398314 -0.7830049 -0.4398314 -0.4398314 -0.7830049 -0.4398314 -0.4398314 -0.7830049 -0.4398314 -0.4398314 -0.7830049 -0.1609882 -0.6008191 -0.7830066 -0.1609882 -0.6008191 -0.7830066 -0.1609882 -0.6008191 -0.7830066 -0.1609906 -0.6008204 -0.783005 -0.1609906 -0.6008204 -0.783005 -0.1609906 -0.6008204 -0.783005 0.1609888 -0.6008213 -0.7830047 0.1609888 -0.6008213 -0.7830047 0.1609888 -0.6008213 -0.7830047 0.1609902 -0.6008189 -0.7830063 0.1609902 -0.6008189 -0.7830063 0.1609902 -0.6008189 -0.7830063 0.4398314 -0.4398314 -0.7830049 0.4398314 -0.4398314 -0.7830049 0.4398314 -0.4398314 -0.7830049 0.4398314 -0.4398314 -0.7830049 0.4398314 -0.4398314 -0.7830049 0.4398314 -0.4398314 -0.7830049 0.6008191 -0.1609882 -0.7830066 0.6008191 -0.1609882 -0.7830066 0.6008191 -0.1609882 -0.7830066 0.6008204 -0.1609906 -0.783005 0.6008204 -0.1609906 -0.783005 0.6008204 -0.1609906 -0.783005 0.6008213 0.1609888 -0.7830047 0.6008213 0.1609888 -0.7830047 0.6008213 0.1609888 -0.7830047 0.6008189 0.1609902 -0.7830063 0.6008189 0.1609902 -0.7830063 0.6008189 0.1609902 -0.7830063 0.4398314 0.4398314 -0.7830049 0.4398314 0.4398314 -0.7830049 0.4398314 0.4398314 -0.7830049 0.4398314 0.4398314 -0.7830049 0.4398314 0.4398314 -0.7830049 0.4398314 0.4398314 -0.7830049 0.1609882 0.6008191 -0.7830066 0.1609882 0.6008191 -0.7830066 0.1609882 0.6008191 -0.7830066 0.1609906 0.6008204 -0.783005 0.1609906 0.6008204 -0.783005 0.1609906 0.6008204 -0.783005 -0.1609888 0.6008213 -0.7830047 -0.1609888 0.6008213 -0.7830047 -0.1609888 0.6008213 -0.7830047 -0.1609902 0.6008189 -0.7830063 -0.1609902 0.6008189 -0.7830063 -0.1609902 0.6008189 -0.7830063 -0.4398314 0.4398314 -0.7830049 -0.4398314 0.4398314 -0.7830049 -0.4398314 0.4398314 -0.7830049 -0.4398314 0.4398314 -0.7830049 -0.4398314 0.4398314 -0.7830049 -0.4398314 0.4398314 -0.7830049 -0.6008191 0.1609882 -0.7830066 -0.6008191 0.1609882 -0.7830066 -0.6008191 0.1609882 -0.7830066 -0.6008204 0.1609906 -0.783005 -0.6008204 0.1609906 -0.783005 -0.6008204 0.1609906 -0.783005 -0.7760118 -0.2079334 -0.5954574 -0.7760118 -0.2079334 -0.5954574 -0.7760118 -0.2079334 -0.5954574 -0.7760146 -0.2079316 -0.5954542 -0.7760146 -0.2079316 -0.5954542 -0.7760146 -0.2079316 -0.5954542 -0.5680802 -0.5680802 -0.5954576 -0.5680802 -0.5680802 -0.5954576 -0.5680802 -0.5680802 -0.5954576 -0.5680802 -0.5680802 -0.5954577 -0.5680802 -0.5680802 -0.5954577 -0.5680802 -0.5680802 -0.5954577 -0.207934 -0.7760142 -0.5954539 -0.207934 -0.7760142 -0.5954539 -0.207934 -0.7760142 -0.5954539 -0.2079311 -0.7760127 -0.5954571 -0.2079311 -0.7760127 -0.5954571 -0.2079311 -0.7760127 -0.5954571 0.2079334 -0.7760118 -0.5954574 0.2079334 -0.7760118 -0.5954574 0.2079334 -0.7760118 -0.5954574 0.2079316 -0.7760146 -0.5954542 0.2079316 -0.7760146 -0.5954542 0.2079316 -0.7760146 -0.5954542 0.5680802 -0.5680802 -0.5954576 0.5680802 -0.5680802 -0.5954576 0.5680802 -0.5680802 -0.5954576 0.5680802 -0.5680802 -0.5954577 0.5680802 -0.5680802 -0.5954577 0.5680802 -0.5680802 -0.5954577 0.7760142 -0.207934 -0.5954539 0.7760142 -0.207934 -0.5954539 0.7760142 -0.207934 -0.5954539 0.7760127 -0.2079311 -0.5954571 0.7760127 -0.2079311 -0.5954571 0.7760127 -0.2079311 -0.5954571 0.7760118 0.2079334 -0.5954574 0.7760118 0.2079334 -0.5954574 0.7760118 0.2079334 -0.5954574 0.7760146 0.2079316 -0.5954542 0.7760146 0.2079316 -0.5954542 0.7760146 0.2079316 -0.5954542 0.5680802 0.5680802 -0.5954576 0.5680802 0.5680802 -0.5954576 0.5680802 0.5680802 -0.5954576 0.5680802 0.5680802 -0.5954577 0.5680802 0.5680802 -0.5954577 0.5680802 0.5680802 -0.5954577 0.207934 0.7760142 -0.5954539 0.207934 0.7760142 -0.5954539 0.207934 0.7760142 -0.5954539 0.2079311 0.7760127 -0.5954571 0.2079311 0.7760127 -0.5954571 0.2079311 0.7760127 -0.5954571 -0.2079334 0.7760118 -0.5954574 -0.2079334 0.7760118 -0.5954574 -0.2079334 0.7760118 -0.5954574 -0.2079316 0.7760146 -0.5954542 -0.2079316 0.7760146 -0.5954542 -0.2079316 0.7760146 -0.5954542 -0.5680802 0.5680802 -0.5954576 -0.5680802 0.5680802 -0.5954576 -0.5680802 0.5680802 -0.5954576 -0.5680802 0.5680802 -0.5954577 -0.5680802 0.5680802 -0.5954577 -0.5680802 0.5680802 -0.5954577 -0.7760142 0.207934 -0.5954539 -0.7760142 0.207934 -0.5954539 -0.7760142 0.207934 -0.5954539 -0.7760127 0.2079311 -0.5954571 -0.7760127 0.2079311 -0.5954571 -0.7760127 0.2079311 -0.5954571 -0.8968096 -0.2402984 -0.3714689 -0.8968096 -0.2402984 -0.3714689 -0.8968096 -0.2402984 -0.3714689 -0.896808 -0.2402998 -0.3714719 -0.896808 -0.2402998 -0.3714719 -0.896808 -0.2402998 -0.3714719 -0.6565101 -0.6565101 -0.3714689 -0.6565101 -0.6565101 -0.3714689 -0.6565101 -0.6565101 -0.3714689 -0.6565101 -0.6565101 -0.3714689 -0.6565101 -0.6565101 -0.3714689 -0.6565101 -0.6565101 -0.3714689 -0.240298 -0.8968084 -0.3714721 -0.240298 -0.8968084 -0.3714721 -0.240298 -0.8968084 -0.3714721 -0.2403001 -0.8968091 -0.3714691 -0.2403001 -0.8968091 -0.3714691 -0.2403001 -0.8968091 -0.3714691 0.2402984 -0.8968096 -0.3714689 0.2402984 -0.8968096 -0.3714689 0.2402984 -0.8968096 -0.3714689 0.2402998 -0.896808 -0.3714719 0.2402998 -0.896808 -0.3714719 0.2402998 -0.896808 -0.3714719 0.6565101 -0.6565101 -0.3714689 0.6565101 -0.6565101 -0.3714689 0.6565101 -0.6565101 -0.3714689 0.6565101 -0.6565101 -0.3714689 0.6565101 -0.6565101 -0.3714689 0.6565101 -0.6565101 -0.3714689 0.8968084 -0.240298 -0.3714721 0.8968084 -0.240298 -0.3714721 0.8968084 -0.240298 -0.3714721 0.8968091 -0.2403001 -0.3714691 0.8968091 -0.2403001 -0.3714691 0.8968091 -0.2403001 -0.3714691 0.8968096 0.2402984 -0.3714689 0.8968096 0.2402984 -0.3714689 0.8968096 0.2402984 -0.3714689 0.896808 0.2402998 -0.3714719 0.896808 0.2402998 -0.3714719 0.896808 0.2402998 -0.3714719 0.6565101 0.6565101 -0.3714689 0.6565101 0.6565101 -0.3714689 0.6565101 0.6565101 -0.3714689 0.6565101 0.6565101 -0.3714689 0.6565101 0.6565101 -0.3714689 0.6565101 0.6565101 -0.3714689 0.240298 0.8968084 -0.3714721 0.240298 0.8968084 -0.3714721 0.240298 0.8968084 -0.3714721 0.2403001 0.8968091 -0.3714691 0.2403001 0.8968091 -0.3714691 0.2403001 0.8968091 -0.3714691 -0.2402984 0.8968096 -0.3714689 -0.2402984 0.8968096 -0.3714689 -0.2402984 0.8968096 -0.3714689 -0.2402998 0.896808 -0.3714719 -0.2402998 0.896808 -0.3714719 -0.2402998 0.896808 -0.3714719 -0.6565101 0.6565101 -0.3714689 -0.6565101 0.6565101 -0.3714689 -0.6565101 0.6565101 -0.3714689 -0.6565101 0.6565101 -0.3714689 -0.6565101 0.6565101 -0.3714689 -0.6565101 0.6565101 -0.3714689 -0.8968084 0.240298 -0.3714721 -0.8968084 0.240298 -0.3714721 -0.8968084 0.240298 -0.3714721 -0.8968091 0.2403001 -0.3714691 -0.8968091 0.2403001 -0.3714691 -0.8968091 0.2403001 -0.3714691 -0.958209 -0.2567522 -0.1261503 -0.958209 -0.2567522 -0.1261503 -0.958209 -0.2567522 -0.1261503 -0.958209 -0.256752 -0.1261499 -0.958209 -0.256752 -0.1261499 -0.958209 -0.256752 -0.1261499 -0.7014578 -0.7014578 -0.1261501 -0.7014578 -0.7014578 -0.1261501 -0.7014578 -0.7014578 -0.1261501 -0.7014578 -0.7014578 -0.1261502 -0.7014578 -0.7014578 -0.1261502 -0.7014578 -0.7014578 -0.1261502 -0.2567522 -0.958209 -0.1261499 -0.2567522 -0.958209 -0.1261499 -0.2567522 -0.958209 -0.1261499 -0.256752 -0.958209 -0.1261502 -0.256752 -0.958209 -0.1261502 -0.256752 -0.958209 -0.1261502 0.2567522 -0.958209 -0.1261503 0.2567522 -0.958209 -0.1261503 0.2567522 -0.958209 -0.1261503 0.256752 -0.958209 -0.1261499 0.256752 -0.958209 -0.1261499 0.256752 -0.958209 -0.1261499 0.7014578 -0.7014578 -0.1261501 0.7014578 -0.7014578 -0.1261501 0.7014578 -0.7014578 -0.1261501 0.7014578 -0.7014578 -0.1261502 0.7014578 -0.7014578 -0.1261502 0.7014578 -0.7014578 -0.1261502 0.958209 -0.2567522 -0.1261499 0.958209 -0.2567522 -0.1261499 0.958209 -0.2567522 -0.1261499 0.958209 -0.256752 -0.1261502 0.958209 -0.256752 -0.1261502 0.958209 -0.256752 -0.1261502 0.958209 0.2567522 -0.1261503 0.958209 0.2567522 -0.1261503 0.958209 0.2567522 -0.1261503 0.958209 0.256752 -0.1261499 0.958209 0.256752 -0.1261499 0.958209 0.256752 -0.1261499 0.7014578 0.7014578 -0.1261501 0.7014578 0.7014578 -0.1261501 0.7014578 0.7014578 -0.1261501 0.7014578 0.7014578 -0.1261502 0.7014578 0.7014578 -0.1261502 0.7014578 0.7014578 -0.1261502 0.2567522 0.958209 -0.1261499 0.2567522 0.958209 -0.1261499 0.2567522 0.958209 -0.1261499 0.256752 0.958209 -0.1261502 0.256752 0.958209 -0.1261502 0.256752 0.958209 -0.1261502 -0.2567522 0.958209 -0.1261503 -0.2567522 0.958209 -0.1261503 -0.2567522 0.958209 -0.1261503 -0.256752 0.958209 -0.1261499 -0.256752 0.958209 -0.1261499 -0.256752 0.958209 -0.1261499 -0.7014578 0.7014578 -0.1261501 -0.7014578 0.7014578 -0.1261501 -0.7014578 0.7014578 -0.1261501 -0.7014578 0.7014578 -0.1261502 -0.7014578 0.7014578 -0.1261502 -0.7014578 0.7014578 -0.1261502 -0.958209 0.2567522 -0.1261499 -0.958209 0.2567522 -0.1261499 -0.958209 0.2567522 -0.1261499 -0.958209 0.256752 -0.1261502 -0.958209 0.256752 -0.1261502 -0.958209 0.256752 -0.1261502 -0.958209 -0.256752 0.1261503 -0.958209 -0.256752 0.1261503 -0.958209 -0.256752 0.1261503 -0.9582091 -0.2567522 0.1261499 -0.9582091 -0.2567522 0.1261499 -0.9582091 -0.2567522 0.1261499 -0.7014578 -0.7014578 0.1261502 -0.7014578 -0.7014578 0.1261502 -0.7014578 -0.7014578 0.1261502 -0.7014578 -0.7014578 0.1261501 -0.7014578 -0.7014578 0.1261501 -0.7014578 -0.7014578 0.1261501 -0.256752 -0.958209 0.12615 -0.256752 -0.958209 0.12615 -0.256752 -0.958209 0.12615 -0.2567522 -0.958209 0.1261503 -0.2567522 -0.958209 0.1261503 -0.2567522 -0.958209 0.1261503 0.256752 -0.958209 0.1261503 0.256752 -0.958209 0.1261503 0.256752 -0.958209 0.1261503 0.2567522 -0.9582091 0.1261499 0.2567522 -0.9582091 0.1261499 0.2567522 -0.9582091 0.1261499 0.7014578 -0.7014578 0.1261502 0.7014578 -0.7014578 0.1261502 0.7014578 -0.7014578 0.1261502 0.7014578 -0.7014578 0.1261501 0.7014578 -0.7014578 0.1261501 0.7014578 -0.7014578 0.1261501 0.958209 -0.256752 0.12615 0.958209 -0.256752 0.12615 0.958209 -0.256752 0.12615 0.958209 -0.2567522 0.1261503 0.958209 -0.2567522 0.1261503 0.958209 -0.2567522 0.1261503 0.958209 0.256752 0.1261503 0.958209 0.256752 0.1261503 0.958209 0.256752 0.1261503 0.9582091 0.2567522 0.1261499 0.9582091 0.2567522 0.1261499 0.9582091 0.2567522 0.1261499 0.7014578 0.7014578 0.1261502 0.7014578 0.7014578 0.1261502 0.7014578 0.7014578 0.1261502 0.7014578 0.7014578 0.1261501 0.7014578 0.7014578 0.1261501 0.7014578 0.7014578 0.1261501 0.256752 0.958209 0.12615 0.256752 0.958209 0.12615 0.256752 0.958209 0.12615 0.2567522 0.958209 0.1261503 0.2567522 0.958209 0.1261503 0.2567522 0.958209 0.1261503 -0.256752 0.958209 0.1261503 -0.256752 0.958209 0.1261503 -0.256752 0.958209 0.1261503 -0.2567522 0.9582091 0.1261499 -0.2567522 0.9582091 0.1261499 -0.2567522 0.9582091 0.1261499 -0.7014578 0.7014578 0.1261502 -0.7014578 0.7014578 0.1261502 -0.7014578 0.7014578 0.1261502 -0.7014578 0.7014578 0.1261501 -0.7014578 0.7014578 0.1261501 -0.7014578 0.7014578 0.1261501 -0.958209 0.256752 0.12615 -0.958209 0.256752 0.12615 -0.958209 0.256752 0.12615 -0.958209 0.2567522 0.1261503 -0.958209 0.2567522 0.1261503 -0.958209 0.2567522 0.1261503 -0.8968091 -0.2403001 0.3714691 -0.8968091 -0.2403001 0.3714691 -0.8968091 -0.2403001 0.3714691 -0.8968084 -0.240298 0.3714722 -0.8968084 -0.240298 0.3714722 -0.8968084 -0.240298 0.3714722 -0.65651 -0.65651 0.371469 -0.65651 -0.65651 0.371469 -0.65651 -0.65651 0.371469 -0.65651 -0.65651 0.3714689 -0.65651 -0.65651 0.3714689 -0.65651 -0.65651 0.3714689 -0.2402998 -0.896808 0.371472 -0.2402998 -0.896808 0.371472 -0.2402998 -0.896808 0.371472 -0.2402984 -0.8968096 0.371469 -0.2402984 -0.8968096 0.371469 -0.2402984 -0.8968096 0.371469 0.2403001 -0.8968091 0.3714691 0.2403001 -0.8968091 0.3714691 0.2403001 -0.8968091 0.3714691 0.240298 -0.8968084 0.3714722 0.240298 -0.8968084 0.3714722 0.240298 -0.8968084 0.3714722 0.65651 -0.65651 0.371469 0.65651 -0.65651 0.371469 0.65651 -0.65651 0.371469 0.65651 -0.65651 0.3714689 0.65651 -0.65651 0.3714689 0.65651 -0.65651 0.3714689 0.896808 -0.2402998 0.371472 0.896808 -0.2402998 0.371472 0.896808 -0.2402998 0.371472 0.8968096 -0.2402984 0.371469 0.8968096 -0.2402984 0.371469 0.8968096 -0.2402984 0.371469 0.8968091 0.2403001 0.3714691 0.8968091 0.2403001 0.3714691 0.8968091 0.2403001 0.3714691 0.8968084 0.240298 0.3714722 0.8968084 0.240298 0.3714722 0.8968084 0.240298 0.3714722 0.65651 0.65651 0.371469 0.65651 0.65651 0.371469 0.65651 0.65651 0.371469 0.65651 0.65651 0.3714689 0.65651 0.65651 0.3714689 0.65651 0.65651 0.3714689 0.2402998 0.896808 0.371472 0.2402998 0.896808 0.371472 0.2402998 0.896808 0.371472 0.2402984 0.8968096 0.371469 0.2402984 0.8968096 0.371469 0.2402984 0.8968096 0.371469 -0.2403001 0.8968091 0.3714691 -0.2403001 0.8968091 0.3714691 -0.2403001 0.8968091 0.3714691 -0.240298 0.8968084 0.3714722 -0.240298 0.8968084 0.3714722 -0.240298 0.8968084 0.3714722 -0.65651 0.65651 0.371469 -0.65651 0.65651 0.371469 -0.65651 0.65651 0.371469 -0.65651 0.65651 0.3714689 -0.65651 0.65651 0.3714689 -0.65651 0.65651 0.3714689 -0.896808 0.2402998 0.371472 -0.896808 0.2402998 0.371472 -0.896808 0.2402998 0.371472 -0.8968096 0.2402984 0.371469 -0.8968096 0.2402984 0.371469 -0.8968096 0.2402984 0.371469 -0.7760128 -0.2079311 0.595457 -0.7760128 -0.2079311 0.595457 -0.7760128 -0.2079311 0.595457 -0.7760143 -0.2079341 0.5954539 -0.7760143 -0.2079341 0.5954539 -0.7760143 -0.2079341 0.5954539 -0.5680802 -0.5680802 0.5954576 -0.5680802 -0.5680802 0.5954576 -0.5680802 -0.5680802 0.5954576 -0.5680802 -0.5680802 0.5954576 -0.5680802 -0.5680802 0.5954576 -0.5680802 -0.5680802 0.5954576 -0.2079316 -0.7760147 0.5954542 -0.2079316 -0.7760147 0.5954542 -0.2079316 -0.7760147 0.5954542 -0.2079334 -0.7760118 0.5954573 -0.2079334 -0.7760118 0.5954573 -0.2079334 -0.7760118 0.5954573 0.2079311 -0.7760128 0.595457 0.2079311 -0.7760128 0.595457 0.2079311 -0.7760128 0.595457 0.2079341 -0.7760143 0.5954539 0.2079341 -0.7760143 0.5954539 0.2079341 -0.7760143 0.5954539 0.5680802 -0.5680802 0.5954576 0.5680802 -0.5680802 0.5954576 0.5680802 -0.5680802 0.5954576 0.5680802 -0.5680802 0.5954576 0.5680802 -0.5680802 0.5954576 0.5680802 -0.5680802 0.5954576 0.7760147 -0.2079316 0.5954542 0.7760147 -0.2079316 0.5954542 0.7760147 -0.2079316 0.5954542 0.7760118 -0.2079334 0.5954573 0.7760118 -0.2079334 0.5954573 0.7760118 -0.2079334 0.5954573 0.7760128 0.2079311 0.595457 0.7760128 0.2079311 0.595457 0.7760128 0.2079311 0.595457 0.7760143 0.2079341 0.5954539 0.7760143 0.2079341 0.5954539 0.7760143 0.2079341 0.5954539 0.5680802 0.5680802 0.5954576 0.5680802 0.5680802 0.5954576 0.5680802 0.5680802 0.5954576 0.5680802 0.5680802 0.5954576 0.5680802 0.5680802 0.5954576 0.5680802 0.5680802 0.5954576 0.2079316 0.7760147 0.5954542 0.2079316 0.7760147 0.5954542 0.2079316 0.7760147 0.5954542 0.2079334 0.7760118 0.5954573 0.2079334 0.7760118 0.5954573 0.2079334 0.7760118 0.5954573 -0.2079311 0.7760128 0.595457 -0.2079311 0.7760128 0.595457 -0.2079311 0.7760128 0.595457 -0.2079341 0.7760143 0.5954539 -0.2079341 0.7760143 0.5954539 -0.2079341 0.7760143 0.5954539 -0.5680802 0.5680802 0.5954576 -0.5680802 0.5680802 0.5954576 -0.5680802 0.5680802 0.5954576 -0.5680802 0.5680802 0.5954576 -0.5680802 0.5680802 0.5954576 -0.5680802 0.5680802 0.5954576 -0.7760147 0.2079316 0.5954542 -0.7760147 0.2079316 0.5954542 -0.7760147 0.2079316 0.5954542 -0.7760118 0.2079334 0.5954573 -0.7760118 0.2079334 0.5954573 -0.7760118 0.2079334 0.5954573 -0.6008204 -0.1609906 0.7830051 -0.6008204 -0.1609906 0.7830051 -0.6008204 -0.1609906 0.7830051 -0.600819 -0.1609882 0.7830065 -0.600819 -0.1609882 0.7830065 -0.600819 -0.1609882 0.7830065 -0.4398314 -0.4398314 0.7830049 -0.4398314 -0.4398314 0.7830049 -0.4398314 -0.4398314 0.7830049 -0.4398313 -0.4398313 0.7830049 -0.4398313 -0.4398313 0.7830049 -0.4398313 -0.4398313 0.7830049 -0.1609902 -0.6008188 0.7830063 -0.1609902 -0.6008188 0.7830063 -0.1609902 -0.6008188 0.7830063 -0.1609887 -0.6008212 0.7830048 -0.1609887 -0.6008212 0.7830048 -0.1609887 -0.6008212 0.7830048 0.1609906 -0.6008204 0.7830051 0.1609906 -0.6008204 0.7830051 0.1609906 -0.6008204 0.7830051 0.1609882 -0.600819 0.7830065 0.1609882 -0.600819 0.7830065 0.1609882 -0.600819 0.7830065 0.4398314 -0.4398314 0.7830049 0.4398314 -0.4398314 0.7830049 0.4398314 -0.4398314 0.7830049 0.4398313 -0.4398313 0.7830049 0.4398313 -0.4398313 0.7830049 0.4398313 -0.4398313 0.7830049 0.6008188 -0.1609902 0.7830063 0.6008188 -0.1609902 0.7830063 0.6008188 -0.1609902 0.7830063 0.6008212 -0.1609887 0.7830048 0.6008212 -0.1609887 0.7830048 0.6008212 -0.1609887 0.7830048 0.6008204 0.1609906 0.7830051 0.6008204 0.1609906 0.7830051 0.6008204 0.1609906 0.7830051 0.600819 0.1609882 0.7830065 0.600819 0.1609882 0.7830065 0.600819 0.1609882 0.7830065 0.4398314 0.4398314 0.7830049 0.4398314 0.4398314 0.7830049 0.4398314 0.4398314 0.7830049 0.4398313 0.4398313 0.7830049 0.4398313 0.4398313 0.7830049 0.4398313 0.4398313 0.7830049 0.1609902 0.6008188 0.7830063 0.1609902 0.6008188 0.7830063 0.1609902 0.6008188 0.7830063 0.1609887 0.6008212 0.7830048 0.1609887 0.6008212 0.7830048 0.1609887 0.6008212 0.7830048 -0.1609906 0.6008204 0.7830051 -0.1609906 0.6008204 0.7830051 -0.1609906 0.6008204 0.7830051 -0.1609882 0.600819 0.7830065 -0.1609882 0.600819 0.7830065 -0.1609882 0.600819 0.7830065 -0.4398314 0.4398314 0.7830049 -0.4398314 0.4398314 0.7830049 -0.4398314 0.4398314 0.7830049 -0.4398313 0.4398313 0.7830049 -0.4398313 0.4398313 0.7830049 -0.4398313 0.4398313 0.7830049 -0.6008188 0.1609902 0.7830063 -0.6008188 0.1609902 0.7830063 -0.6008188 0.1609902 0.7830063 -0.6008212 0.1609887 0.7830048 -0.6008212 0.1609887 0.7830048 -0.6008212 0.1609887 0.7830048 -0.3806894 -0.1020049 0.9190596 -0.3806894 -0.1020049 0.9190596 -0.3806894 -0.1020049 0.9190596 -0.3806892 -0.1020045 0.9190598 -0.3806892 -0.1020045 0.9190598 -0.3806892 -0.1020045 0.9190598 -0.278684 -0.278684 0.9190595 -0.278684 -0.278684 0.9190595 -0.278684 -0.278684 0.9190595 -0.278684 -0.278684 0.9190595 -0.278684 -0.278684 0.9190595 -0.278684 -0.278684 0.9190595 -0.1020049 -0.3806892 0.9190597 -0.1020049 -0.3806892 0.9190597 -0.1020049 -0.3806892 0.9190597 -0.1020046 -0.3806896 0.9190596 -0.1020046 -0.3806896 0.9190596 -0.1020046 -0.3806896 0.9190596 0.1020049 -0.3806894 0.9190596 0.1020049 -0.3806894 0.9190596 0.1020049 -0.3806894 0.9190596 0.1020045 -0.3806892 0.9190598 0.1020045 -0.3806892 0.9190598 0.1020045 -0.3806892 0.9190598 0.278684 -0.278684 0.9190595 0.278684 -0.278684 0.9190595 0.278684 -0.278684 0.9190595 0.278684 -0.278684 0.9190595 0.278684 -0.278684 0.9190595 0.278684 -0.278684 0.9190595 0.3806892 -0.1020049 0.9190597 0.3806892 -0.1020049 0.9190597 0.3806892 -0.1020049 0.9190597 0.3806896 -0.1020046 0.9190596 0.3806896 -0.1020046 0.9190596 0.3806896 -0.1020046 0.9190596 0.3806894 0.1020049 0.9190596 0.3806894 0.1020049 0.9190596 0.3806894 0.1020049 0.9190596 0.3806892 0.1020045 0.9190598 0.3806892 0.1020045 0.9190598 0.3806892 0.1020045 0.9190598 0.278684 0.278684 0.9190595 0.278684 0.278684 0.9190595 0.278684 0.278684 0.9190595 0.278684 0.278684 0.9190595 0.278684 0.278684 0.9190595 0.278684 0.278684 0.9190595 0.1020049 0.3806892 0.9190597 0.1020049 0.3806892 0.9190597 0.1020049 0.3806892 0.9190597 0.1020046 0.3806896 0.9190596 0.1020046 0.3806896 0.9190596 0.1020046 0.3806896 0.9190596 -0.1020049 0.3806894 0.9190596 -0.1020049 0.3806894 0.9190596 -0.1020049 0.3806894 0.9190596 -0.1020045 0.3806892 0.9190598 -0.1020045 0.3806892 0.9190598 -0.1020045 0.3806892 0.9190598 -0.278684 0.278684 0.9190595 -0.278684 0.278684 0.9190595 -0.278684 0.278684 0.9190595 -0.278684 0.278684 0.9190595 -0.278684 0.278684 0.9190595 -0.278684 0.278684 0.9190595 -0.3806892 0.1020049 0.9190597 -0.3806892 0.1020049 0.9190597 -0.3806892 0.1020049 0.9190597 -0.3806896 0.1020046 0.9190596 -0.3806896 0.1020046 0.9190596 -0.3806896 0.1020046 0.9190596 -0.1304458 -0.0349525 0.9908391 -0.1304458 -0.0349525 0.9908391 -0.1304458 -0.0349525 0.9908391 1.0 0.0 0.0 1.0 0.0 0.0 -0.0954928 -0.0954928 0.9908392 -0.0954928 -0.0954928 0.9908392 -0.0954928 -0.0954928 0.9908392 1.0 0.0 0.0 1.0 0.0 0.0 -0.0349525 -0.1304458 0.9908391 -0.0349525 -0.1304458 0.9908391 -0.0349525 -0.1304458 0.9908391 1.0 0.0 0.0 1.0 0.0 0.0 0.0349525 -0.1304458 0.9908391 0.0349525 -0.1304458 0.9908391 0.0349525 -0.1304458 0.9908391 1.0 0.0 0.0 1.0 0.0 0.0 0.0954928 -0.0954928 0.9908392 0.0954928 -0.0954928 0.9908392 0.0954928 -0.0954928 0.9908392 1.0 0.0 0.0 1.0 0.0 0.0</float_array>
                    <technique_common>
                        <accessor count="840" source="#geometry0-normal-array" stride="3">
                            <param name="X" type="float"/>
                            <param name="Y" type="float"/>
                            <param name="Z" type="float"/>
                        </accessor>
                    </technique_common>
                </source>
                <vertices id="geometry0-vertex">
                    <input semantic="POSITION" source="#geometry0-position"/>
                </vertices>
                <triangles count="288" material="default_ai_0.2_sh_0.2_tr_0.0_dc_r_0.8_g_0.8_b_0.8_sc_r_1.0_g_1.0_b_1.0_ec_r_0.0_g_0.0_b_0_tri">
                    <input offset="0" semantic="VERTEX" source="#geometry0-vertex"/>
                    <input offset="1" semantic="NORMAL" source="#geometry0-normal"/>
                    <p>126 0 127 1 133 2 126 3 133 4 133 4 127 5 128 6 133 7 127 8 133 9 133 9 128 10 129 11 133 12 128 13 133 14 133 14 129 15 130 16 133 17 129 18 133 19 133 19 130 20 131 21 133 22 130 23 133 24 133 24 131 25 132 26 133 27 131 28 133 29 133 29 132 30 122 31 133 32 132 33 133 34 133 34 0 35 0 35 1 36 0 37 1 38 2 39 0 40 0 40 3 41 0 42 3 43 1 44 0 45 0 45 4 46 0 47 4 48 3 49 0 50 0 50 5 51 0 52 5 53 4 54 0 55 0 55 6 56 0 57 6 58 5 59 0 60 0 60 7 61 0 62 7 63 6 64 0 65 0 65 8 66 0 67 8 68 7 69 0 70 0 70 9 71 0 72 9 73 8 74 0 75 0 75 10 76 0 77 10 78 9 79 0 80 0 80 11 81 0 82 11 83 10 84 0 85 0 85 12 86 0 87 12 88 11 89 0 90 0 90 2 91 0 92 2 93 12 94 2 95 1 96 13 97 2 98 13 99 14 100 1 101 3 102 15 103 1 104 15 105 13 106 3 107 4 108 16 109 3 110 16 111 15 112 4 113 5 114 17 115 4 116 17 117 16 118 5 119 6 120 18 121 5 122 18 123 17 124 6 125 7 126 19 127 6 128 19 129 18 130 7 131 8 132 20 133 7 134 20 135 19 136 8 137 9 138 21 139 8 140 21 141 20 142 9 143 10 144 22 145 9 146 22 147 21 148 10 149 11 150 23 151 10 152 23 153 22 154 11 155 12 156 24 157 11 158 24 159 23 160 12 161 2 162 14 163 12 164 14 165 24 166 14 167 13 168 25 169 14 170 25 171 26 172 13 173 15 174 27 175 13 176 27 177 25 178 15 179 16 180 28 181 15 182 28 183 27 184 16 185 17 186 29 187 16 188 29 189 28 190 17 191 18 192 30 193 17 194 30 195 29 196 18 197 19 198 31 199 18 200 31 201 30 202 19 203 20 204 32 205 19 206 32 207 31 208 20 209 21 210 33 211 20 212 33 213 32 214 21 215 22 216 34 217 21 218 34 219 33 220 22 221 23 222 35 223 22 224 35 225 34 226 23 227 24 228 36 229 23 230 36 231 35 232 24 233 14 234 26 235 24 236 26 237 36 238 26 239 25 240 37 241 26 242 37 243 38 244 25 245 27 246 39 247 25 248 39 249 37 250 27 251 28 252 40 253 27 254 40 255 39 256 28 257 29 258 41 259 28 260 41 261 40 262 29 263 30 264 42 265 29 266 42 267 41 268 30 269 31 270 43 271 30 272 43 273 42 274 31 275 32 276 44 277 31 278 44 279 43 280 32 281 33 282 45 283 32 284 45 285 44 286 33 287 34 288 46 289 33 290 46 291 45 292 34 293 35 294 47 295 34 296 47 297 46 298 35 299 36 300 48 301 35 302 48 303 47 304 36 305 26 306 38 307 36 308 38 309 48 310 38 311 37 312 49 313 38 314 49 315 50 316 37 317 39 318 51 319 37 320 51 321 49 322 39 323 40 324 52 325 39 326 52 327 51 328 40 329 41 330 53 331 40 332 53 333 52 334 41 335 42 336 54 337 41 338 54 339 53 340 42 341 43 342 55 343 42 344 55 345 54 346 43 347 44 348 56 349 43 350 56 351 55 352 44 353 45 354 57 355 44 356 57 357 56 358 45 359 46 360 58 361 45 362 58 363 57 364 46 365 47 366 59 367 46 368 59 369 58 370 47 371 48 372 60 373 47 374 60 375 59 376 48 377 38 378 50 379 48 380 50 381 60 382 50 383 49 384 61 385 50 386 61 387 62 388 49 389 51 390 63 391 49 392 63 393 61 394 51 395 52 396 64 397 51 398 64 399 63 400 52 401 53 402 65 403 52 404 65 405 64 406 53 407 54 408 66 409 53 410 66 411 65 412 54 413 55 414 67 415 54 416 67 417 66 418 55 419 56 420 68 421 55 422 68 423 67 424 56 425 57 426 69 427 56 428 69 429 68 430 57 431 58 432 70 433 57 434 70 435 69 436 58 437 59 438 71 439 58 440 71 441 70 442 59 443 60 444 72 445 59 446 72 447 71 448 60 449 50 450 62 451 60 452 62 453 72 454 62 455 61 456 73 457 62 458 73 459 74 460 61 461 63 462 75 463 61 464 75 465 73 466 63 467 64 468 76 469 63 470 76 471 75 472 64 473 65 474 77 475 64 476 77 477 76 478 65 479 66 480 78 481 65 482 78 483 77 484 66 485 67 486 79 487 66 488 79 489 78 490 67 491 68 492 80 493 67 494 80 495 79 496 68 497 69 498 81 499 68 500 81 501 80 502 69 503 70 504 82 505 69 506 82 507 81 508 70 509 71 510 83 511 70 512 83 513 82 514 71 515 72 516 84 517 71 518 84 519 83 520 72 521 62 522 74 523 72 524 74 525 84 526 74 527 73 528 85 529 74 530 85 531 86 532 73 533 75 534 87 535 73 536 87 537 85 538 75 539 76 540 88 541 75 542 88 543 87 544 76 545 77 546 89 547 76 548 89 549 88 550 77 551 78 552 90 553 77 554 90 555 89 556 78 557 79 558 91 559 78 560 91 561 90 562 79 563 80 564 92 565 79 566 92 567 91 568 80 569 81 570 93 571 80 572 93 573 92 574 81 575 82 576 94 577 81 578 94 579 93 580 82 581 83 582 95 583 82 584 95 585 94 586 83 587 84 588 96 589 83 590 96 591 95 592 84 593 74 594 86 595 84 596 86 597 96 598 86 599 85 600 97 601 86 602 97 603 98 604 85 605 87 606 99 607 85 608 99 609 97 610 87 611 88 612 100 613 87 614 100 615 99 616 88 617 89 618 101 619 88 620 101 621 100 622 89 623 90 624 102 625 89 626 102 627 101 628 90 629 91 630 103 631 90 632 103 633 102 634 91 635 92 636 104 637 91 638 104 639 103 640 92 641 93 642 105 643 92 644 105 645 104 646 93 647 94 648 106 649 93 650 106 651 105 652 94 653 95 654 107 655 94 656 107 657 106 658 95 659 96 660 108 661 95 662 108 663 107 664 96 665 86 666 98 667 96 668 98 669 108 670 98 671 97 672 109 673 98 674 109 675 110 676 97 677 99 678 111 679 97 680 111 681 109 682 99 683 100 684 112 685 99 686 112 687 111 688 100 689 101 690 113 691 100 692 113 693 112 694 101 695 102 696 114 697 101 698 114 699 113 700 102 701 103 702 115 703 102 704 115 705 114 706 103 707 104 708 116 709 103 710 116 711 115 712 104 713 105 714 117 715 104 716 117 717 116 718 105 719 106 720 118 721 105 722 118 723 117 724 106 725 107 726 119 727 106 728 119 729 118 730 107 731 108 732 120 733 107 734 120 735 119 736 108 737 98 738 110 739 108 740 110 741 120 742 110 743 109 744 121 745 110 746 121 747 122 748 109 749 111 750 123 751 109 752 123 753 121 754 111 755 112 756 124 757 111 758 124 759 123 760 112 761 113 762 125 763 112 764 125 765 124 766 113 767 114 768 126 769 113 770 126 771 125 772 114 773 115 774 127 775 114 776 127 777 126 778 115 779 116 780 128 781 115 782 128 783 127 784 116 785 117 786 129 787 116 788 129 789 128 790 117 791 118 792 130 793 117 794 130 795 129 796 118 797 119 798 131 799 118 800 131 801 130 802 119 803 120 804 132 805 119 806 132 807 131 808 120 809 110 810 122 811 120 812 122 813 132 814 122 815 121 816 133 817 122 818 133 819 133 819 121 820 123 821 133 822 121 823 133 824 133 824 123 825 124 826 133 827 123 828 133 829 133 829 124 830 125 831 133 832 124 833 133 834 133 834 125 835 126 836 133 837 125 838 133 839 133 839</p>
                </triangles>
            </mesh>
        </geometry>
    </library_geometries>
    <library_visual_scenes>
        <visual_scene id="Building_82_CROWN2">
            <node>
                <instance_geometry url="#geometry0">
                    <bind_material>
                        <technique_common>
                            <instance_material symbol="default_ai_0.2_sh_0.2_tr_0.0_dc_r_0.8_g_0.8_b_0.8_sc_r_1.0_g_1.0_b_1.0_ec_r_0.0_g_0.0_b_0_tri" target="#default_ai_0.2_sh_0.2_tr_0.0_dc_r_0.8_g_0.8_b_0.8_sc_r_1.0_g_1.0_b_1.0_ec_r_0.0_g_0.0_b_0_mat"/>
                        </technique_common>
                    </bind_material>
                </instance_geometry>
            </node>
        </visual_scene>
    </library_visual_scenes>
    <scene>
        <instance_visual_scene url="#Building_82_CROWN2"/>
    </scene>
</COLLADA>
