<?xml version="1.0" encoding="UTF-8" standalone="yes"?>
<COLLADA xmlns="http://www.collada.org/2005/11/COLLADASchema" version="1.4.1">
    <asset>
        <contributor>
            <authoring_tool>3D City Database Importer/Exporter, version 5.5.3; Chair of Geoinformatics, Technical University of Munich</authoring_tool>
        </contributor>
        <created>2026-09-25T14:45:38.746</created>
        <modified>2026-09-25T14:45:38.746</modified>
        <unit meter="1.0" name="meters"/>
        <up_axis>Z_UP</up_axis>
    </asset>
    <library_materials>
        <material id="default_ai_0.2_sh_0.2_tr_0.0_dc_r_0.8_g_0.8_b_0.8_sc_r_1.0_g_1.0_b_1.0_ec_r_0.0_g_0.0_b_0_mat">
            <instance_effect url="#default_ai_0.2_sh_0.2_tr_0.0_dc_r_0.8_g_0.8_b_0.8_sc_r_1.0_g_1.0_b_1.0_ec_r_0.0_g_0.0_b_0_eff"/>
        </material>
    </library_materials>
    <library_effects>
        <effect id="default_ai_0.2_sh_0.2_tr_0.0_dc_r_0.8_g_0.8_b_0.8_sc_r_1.0_g_1.0_b_1.0_ec_r_0.0_g_0.0_b_0_eff">
            <profile_COMMON>
                <technique sid="COMMON">
                    <lambert>
                        <emission>
                            <color>0.0 0.0 0.0 1.0</color>
                        </emission>
                        <diffuse>
                            <color>0.8 0.8 0.8 1.0</color>
                        </diffuse>
                        <reflective>
                            <color>1.0 1.0 1.0 1.0</color>
                        </reflective>
                        <reflectivity>
                            <float>0.2</float>
                        </reflectivity>
                        <transparent opaque="A_ONE">
                            <color>1.0 1.0 1.0 1.0</color>
                        </transparent>
                        <transparency>
                            <float>1.0</float>
                        </transparency>
                    </lambert>
                </technique>
                <extra>
                    <technique profile="GOOGLEEARTH">
                        <double_sided>0</double_sided>
                    </technique>
                </extra>
            </profile_COMMON>
        </effect>
    </library_effects>
    <library_geometries>
        <geometry id="geometry0">
            <mesh>
                <source id="geometry0-position">
                    <float_array id="geometry0-position-array" count="402">0.0 0.0 1.1 0.1232792 0.0711755 1.0812593 0.1423504 0.0 1.0812593 0.0711755 0.1232792 1.0812593 0.0 0.1423505 1.0812593 -0.0711755 0.1232792 1.0812593 -0.1232792 0.0711755 1.0812593 -0.1423504 0.0 1.0812593 -0.1232792 -0.0711755 1.0812593 -0.0711755 -0.1232792 1.0812593 0.0 -0.1423505 1.0812593 0.0711755 -0.1232792 1.0812593 0.1232792 -0.0711755 1.0812593 0.2381571 0.1375 1.0263138 0.275 0.0 1.0263138 0.1375 0.2381572 1.0263138 0.0 0.275 1.0263138 -0.1375 0.2381572 1.0263138 -0.2381571 0.1375 1.0263138 -0.275 0.0 1.0263138 -0.2381571 -0.1375 1.0263138 -0.1375 -0.2381572 1.0263138 0.0 -0.275 1.0263138 0.1375 -0.2381572 1.0263138 0.2381571 -0.1375 1.0263138 0.3368046 0.1944542 0.9389089 0.3889088 0.0 0.9389089 0.1944541 0.3368046 0.9389089 0.0 0.3889089 0.9389089 -0.1944541 0.3368046 0.9389089 -0.3368046 0.1944542 0.9389089 -0.3889088 0.0 0.9389089 -0.3368046 -0.1944542 0.9389089 -0.1944541 -0.3368046 0.9389089 0.0 -0.3889089 0.9389089 0.1944541 -0.3368046 0.9389089 0.3368046 -0.1944542 0.9389089 0.4125 0.2381572 0.825 0.4763138 0.0 0.825 0.2381571 0.4125 0.825 0.0 0.4763138 0.825 -0.2381571 0.4125 0.825 -0.4125 0.2381572 0.825 -0.4763138 0.0 0.825 -0.4125 -0.2381572 0.825 -0.2381571 -0.4125 0.825 0.0 -0.4763138 0.825 0.2381571 -0.4125 0.825 0.4125 -0.2381572 0.825 0.4600838 0.2656297 0.6923505 0.5312593 0.0 0.6923505 0.2656296 0.4600838 0.6923505 0.0 0.5312593 0.6923505 -0.2656296 0.4600838 0.6923505 -0.4600838 0.2656297 0.6923505 -0.5312593 0.0 0.6923505 -0.4600838 -0.2656297 0.6923505 -0.2656296 -0.4600838 0.6923505 0.0 -0.5312593 0.6923505 0.2656296 -0.4600838 0.6923505 0.4600838 -0.2656297 0.6923505 0.4763138 0.275 0.55 0.55 0.0 0.55 0.275 0.4763138 0.55 0.0 0.55 0.55 -0.275 0.4763138 0.55 -0.4763138 0.275 0.55 -0.55 0.0 0.55 -0.4763138 -0.275 0.55 -0.275 -0.4763138 0.55 0.0 -0.55 0.55 0.275 -0.4763138 0.55 0.4763138 -0.275 0.55 0.4600838 0.2656297 0.4076495 0.5312593 0.0 0.4076495 0.2656296 0.4600838 0.4076495 0.0 0.5312593 0.4076495 -0.2656296 0.4600838 0.4076495 -0.4600838 0.2656297 0.4076495 -0.5312593 0.0 0.4076495 -0.4600838 -0.2656297 0.4076495 -0.2656296 -0.4600838 0.4076495 0.0 -0.5312593 0.4076495 0.2656296 -0.4600838 0.4076495 0.4600838 -0.2656297 0.4076495 0.4125 0.2381572 0.275 0.4763138 0.0 0.275 0.2381571 0.4125 0.275 0.0 0.4763138 0.275 -0.2381571 0.4125 0.275 -0.4125 0.2381572 0.275 -0.4763138 0.0 0.275 -0.4125 -0.2381572 0.275 -0.2381571 -0.4125 0.275 0.0 -0.4763138 0.275 0.2381571 -0.4125 0.275 0.4125 -0.2381572 0.275 0.3368046 0.1944542 0.1610911 0.3889088 0.0 0.1610911 0.1944541 0.3368046 0.1610911 0.0 0.3889089 0.1610911 -0.1944541 0.3368046 0.1610911 -0.3368046 0.1944542 0.1610911 -0.3889088 0.0 0.1610911 -0.3368046 -0.1944542 0.1610911 -0.1944541 -0.3368046 0.1610911 0.0 -0.3889089 0.1610911 0.1944541 -0.3368046 0.1610911 0.3368046 -0.1944542 0.1610911 0.2381571 0.1375 0.0736862 0.275 0.0 0.0736862 0.1375 0.2381572 0.0736862 0.0 0.275 0.0736862 -0.1375 0.2381572 0.0736862 -0.2381571 0.1375 0.0736862 -0.275 0.0 0.0736862 -0.2381571 -0.1375 0.0736862 -0.1375 -0.2381572 0.0736862 0.0 -0.275 0.0736862 0.1375 -0.2381572 0.0736862 0.2381571 -0.1375 0.0736862 0.1232792 0.0711755 0.0187407 0.1423504 0.0 0.0187407 0.0711755 0.1232792 0.0187407 0.0 0.1423505 0.0187407 -0.0711755 0.1232792 0.0187407 -0.1232792 0.0711755 0.0187407 -0.1423504 0.0 0.0187407 -0.1232792 -0.0711755 0.0187407 -0.0711755 -0.1232792 0.0187407 0.0 -0.1423505 0.0187407 0.0711755 -0.1232792 0.0187407 0.1232792 -0.0711755 0.0187407 0.0 0.0 0.0</float_array>
                    <technique_common>
                        <accessor count="134" source="#geometry0-position-array" stride="3">
                            <param name="X" type="float"/>
                            <param name="Y" type="float"/>
                            <param name="Z" type="float"/>
                        </accessor>
                    </technique_common>
                </source>
                <source id="geometry0-normal">
                    <float_array id="geometry0-normal-array" count="2520">0.2402981 0.8968083 -0.3714723 0.2402981 0.8968083 -0.3714723 0.2402981 0.8968083 -0.3714723 0.2403 0.896809 -0.3714693 0.2403 0.896809 -0.3714693 0.2403 0.896809 -0.3714693 -0.2402984 0.8968095 -0.3714692 -0.2402984 0.8968095 -0.3714692 -0.2402984 0.8968095 -0.3714692 -0.2402997 0.8968079 -0.3714722 -0.2402997 0.8968079 -0.3714722 -0.2402997 0.8968079 -0.3714722 -0.6565099 0.6565099 -0.3714692 -0.6565099 0.6565099 -0.3714692 -0.6565099 0.6565099 -0.3714692 -0.6565099 0.6565099 -0.3714692 -0.6565099 0.6565099 -0.3714692 -0.6565099 0.6565099 -0.3714692 -0.8968083 0.2402981 -0.3714723 -0.8968083 0.2402981 -0.3714723 -0.8968083 0.2402981 -0.3714723 -0.896809 0.2403 -0.3714693 -0.896809 0.2403 -0.3714693 -0.896809 0.2403 -0.3714693 -0.958209 -0.2567522 -0.1261501 -0.958209 -0.2567522 -0.1261501 -0.958209 -0.2567522 -0.1261501 -0.958209 -0.2567522 -0.1261501 -0.958209 -0.2567522 -0.1261501 -0.958209 -0.2567522 -0.1261501 -0.7014578 -0.7014578 -0.1261501 -0.7014578 -0.7014578 -0.1261501 -0.7014578 -0.7014578 -0.1261501 -0.7014578 -0.7014578 -0.12615 -0.7014578 -0.7014578 -0.12615 -0.7014578 -0.7014578 -0.12615 -0.2567522 -0.958209 -0.1261501 -0.2567522 -0.958209 -0.1261501 -0.2567522 -0.958209 -0.1261501 -0.2567522 -0.958209 -0.1261501 -0.2567522 -0.958209 -0.1261501 -0.2567522 -0.958209 -0.1261501 0.2567522 -0.958209 -0.1261501 0.2567522 -0.958209 -0.1261501 0.2567522 -0.958209 -0.1261501 0.2567522 -0.958209 -0.1261501 0.2567522 -0.958209 -0.1261501 0.2567522 -0.958209 -0.1261501 0.7014578 -0.7014578 -0.1261501 0.7014578 -0.7014578 -0.1261501 0.7014578 -0.7014578 -0.1261501 0.7014578 -0.7014578 -0.12615 0.7014578 -0.7014578 -0.12615 0.7014578 -0.7014578 -0.12615 0.958209 -0.2567522 -0.1261501 0.958209 -0.2567522 -0.1261501 0.958209 -0.2567522 -0.1261501 0.958209 -0.2567522 -0.1261501 0.958209 -0.2567522 -0.1261501 0.958209 -0.2567522 -0.1261501 0.958209 0.2567522 -0.1261501 0.958209 0.2567522 -0.1261501 0.958209 0.2567522 -0.1261501 0.958209 0.2567522 -0.1261501 0.958209 0.2567522 -0.1261501 0.958209 0.2567522 -0.1261501 0.7014578 0.7014578 -0.1261501 0.7014578 0.7014578 -0.1261501 0.7014578 0.7014578 -0.1261501 0.7014578 0.7014578 -0.12615 0.7014578 0.7014578 -0.12615 0.7014578 0.7014578 -0.12615 0.2567522 0.958209 -0.1261501 0.2567522 0.958209 -0.1261501 0.2567522 0.958209 -0.1261501 0.2567522 0.958209 -0.1261501 0.2567522 0.958209 -0.1261501 0.2567522 0.958209 -0.1261501 -0.2567522 0.958209 -0.1261501 -0.2567522 0.958209 -0.1261501 -0.2567522 0.958209 -0.1261501 -0.2567522 0.958209 -0.1261501 -0.2567522 0.958209 -0.1261501 -0.2567522 0.958209 -0.1261501 -0.7014578 0.7014578 -0.1261501 -0.7014578 0.7014578 -0.1261501 -0.7014578 0.7014578 -0.1261501 -0.7014578 0.7014578 -0.12615 -0.7014578 0.7014578 -0.12615 -0.7014578 0.7014578 -0.12615 -0.958209 0.2567522 -0.1261501 -0.958209 0.2567522 -0.1261501 -0.958209 0.2567522 -0.1261501 -0.958209 0.2567522 -0.1261501 -0.958209 0.2567522 -0.1261501 -0.958209 0.2567522 -0.1261501 -0.958209 -0.2567522 0.1261501 -0.958209 -0.2567522 0.1261501 -0.958209 -0.2567522 0.1261501 -0.958209 -0.2567522 0.12615 -0.958209 -0.2567522 0.12615 -0.958209 -0.2567522 0.12615 -0.7014578 -0.7014578 0.1261501 -0.7014578 -0.7014578 0.1261501 -0.7014578 -0.7014578 0.1261501 -0.7014578 -0.7014578 0.1261501 -0.7014578 -0.7014578 0.1261501 -0.7014578 -0.7014578 0.1261501 -0.2567522 -0.958209 0.1261501 -0.2567522 -0.958209 0.1261501 -0.2567522 -0.958209 0.1261501 -0.2567522 -0.958209 0.12615 -0.2567522 -0.958209 0.12615 -0.2567522 -0.958209 0.12615 0.2567522 -0.958209 0.1261501 0.2567522 -0.958209 0.1261501 0.2567522 -0.958209 0.1261501 0.2567522 -0.958209 0.12615 0.2567522 -0.958209 0.12615 0.2567522 -0.958209 0.12615 0.7014578 -0.7014578 0.1261501 0.7014578 -0.7014578 0.1261501 0.7014578 -0.7014578 0.1261501 0.7014578 -0.7014578 0.1261501 0.7014578 -0.7014578 0.1261501 0.7014578 -0.7014578 0.1261501 0.958209 -0.2567522 0.1261501 0.958209 -0.2567522 0.1261501 0.958209 -0.2567522 0.1261501 0.958209 -0.2567522 0.12615 0.958209 -0.2567522 0.12615 0.958209 -0.2567522 0.12615 0.958209 0.2567522 0.1261501 0.958209 0.2567522 0.1261501 0.958209 0.2567522 0.1261501 0.958209 0.2567522 0.12615 0.958209 0.2567522 0.12615 0.958209 0.2567522 0.12615 0.7014578 0.7014578 0.1261501 0.7014578 0.7014578 0.1261501 0.7014578 0.7014578 0.1261501 0.7014578 0.7014578 0.1261501 0.7014578 0.7014578 0.1261501 0.7014578 0.7014578 0.1261501 0.2567522 0.958209 0.1261501 0.2567522 0.958209 0.1261501 0.2567522 0.958209 0.1261501 0.2567522 0.958209 0.12615 0.2567522 0.958209 0.12615 0.2567522 0.958209 0.12615 -0.2567522 0.958209 0.1261501 -0.2567522 0.958209 0.1261501 -0.2567522 0.958209 0.1261501 -0.2567522 0.958209 0.12615 -0.2567522 0.958209 0.12615 -0.2567522 0.958209 0.12615 -0.7014578 0.7014578 0.1261501 -0.7014578 0.7014578 0.1261501 -0.7014578 0.7014578 0.1261501 -0.7014578 0.7014578 0.1261501 -0.7014578 0.7014578 0.1261501 -0.7014578 0.7014578 0.1261501 -0.958209 0.2567522 0.1261501 -0.958209 0.2567522 0.1261501 -0.958209 0.2567522 0.1261501 -0.958209 0.2567522 0.12615 -0.958209 0.2567522 0.12615 -0.958209 0.2567522 0.12615 -0.896809 -0.2403 0.3714694 -0.896809 -0.2403 0.3714694 -0.896809 -0.2403 0.3714694 -0.8968083 -0.2402981 0.3714724 -0.8968083 -0.2402981 0.3714724 -0.8968083 -0.2402981 0.3714724 -0.6565099 -0.6565099 0.3714692 -0.6565099 -0.6565099 0.3714692 -0.6565099 -0.6565099 0.3714692 -0.6565099 -0.6565099 0.3714691 -0.6565099 -0.6565099 0.3714691 -0.6565099 -0.6565099 0.3714691 -0.2402997 -0.8968079 0.3714722 -0.2402997 -0.8968079 0.3714722 -0.2402997 -0.8968079 0.3714722 -0.2402984 -0.8968095 0.3714692 -0.2402984 -0.8968095 0.3714692 -0.2402984 -0.8968095 0.3714692 0.2403 -0.896809 0.3714694 0.2403 -0.896809 0.3714694 0.2403 -0.896809 0.3714694 0.2402981 -0.8968083 0.3714724 0.2402981 -0.8968083 0.3714724 0.2402981 -0.8968083 0.3714724 0.6565099 -0.6565099 0.3714692 0.6565099 -0.6565099 0.3714692 0.6565099 -0.6565099 0.3714692 0.6565099 -0.6565099 0.3714691 0.6565099 -0.6565099 0.3714691 0.6565099 -0.6565099 0.3714691 0.8968079 -0.2402997 0.3714722 0.8968079 -0.2402997 0.3714722 0.8968079 -0.2402997 0.3714722 0.8968095 -0.2402984 0.3714692 0.8968095 -0.2402984 0.3714692 0.8968095 -0.2402984 0.3714692 0.896809 0.2403 0.3714694 0.896809 0.2403 0.3714694 0.896809 0.2403 0.3714694 0.8968083 0.2402981 0.3714724 0.8968083 0.2402981 0.3714724 0.8968083 0.2402981 0.3714724 0.6565099 0.6565099 0.3714692 0.6565099 0.6565099 0.3714692 0.6565099 0.6565099 0.3714692 0.6565099 0.6565099 0.3714691 0.6565099 0.6565099 0.3714691 0.6565099 0.6565099 0.3714691 0.2402997 0.8968079 0.3714722 0.2402997 0.8968079 0.3714722 0.2402997 0.8968079 0.3714722 0.2402984 0.8968095 0.3714692 0.2402984 0.8968095 0.3714692 0.2402984 0.8968095 0.3714692 -0.2403 0.896809 0.3714694 -0.2403 0.896809 0.3714694 -0.2403 0.896809 0.3714694 -0.2402981 0.8968083 0.3714724 -0.2402981 0.8968083 0.3714724 -0.2402981 0.8968083 0.3714724 -0.6565099 0.6565099 0.3714692 -0.6565099 0.6565099 0.3714692 -0.6565099 0.6565099 0.3714692 -0.6565099 0.6565099 0.3714691 -0.6565099 0.6565099 0.3714691 -0.6565099 0.6565099 0.3714691 -0.8968079 0.2402997 0.3714722 -0.8968079 0.2402997 0.3714722 -0.8968079 0.2402997 0.3714722 -0.8968095 0.2402984 0.3714692 -0.8968095 0.2402984 0.3714692 -0.8968095 0.2402984 0.3714692 -0.7760127 -0.2079311 0.5954568 -0.7760127 -0.2079311 0.5954568 -0.7760127 -0.2079311 0.5954568 -0.7760144 -0.2079342 0.5954537 -0.7760144 -0.2079342 0.5954537 -0.7760144 -0.2079342 0.5954537 -0.5680803 -0.5680803 0.5954575 -0.5680803 -0.5680803 0.5954575 -0.5680803 -0.5680803 0.5954575 -0.5680803 -0.5680803 0.5954575 -0.5680803 -0.5680803 0.5954575 -0.5680803 -0.5680803 0.5954575 -0.2079317 -0.7760148 0.595454 -0.2079317 -0.7760148 0.595454 -0.2079317 -0.7760148 0.595454 -0.2079335 -0.7760119 0.5954572 -0.2079335 -0.7760119 0.5954572 -0.2079335 -0.7760119 0.5954572 0.2079311 -0.7760127 0.5954568 0.2079311 -0.7760127 0.5954568 0.2079311 -0.7760127 0.5954568 0.2079342 -0.7760144 0.5954537 0.2079342 -0.7760144 0.5954537 0.2079342 -0.7760144 0.5954537 0.5680803 -0.5680803 0.5954575 0.5680803 -0.5680803 0.5954575 0.5680803 -0.5680803 0.5954575 0.5680803 -0.5680803 0.5954575 0.5680803 -0.5680803 0.5954575 0.5680803 -0.5680803 0.5954575 0.7760148 -0.2079317 0.595454 0.7760148 -0.2079317 0.595454 0.7760148 -0.2079317 0.595454 0.7760119 -0.2079335 0.5954572 0.7760119 -0.2079335 0.5954572 0.7760119 -0.2079335 0.5954572 0.7760127 0.2079311 0.5954568 0.7760127 0.2079311 0.5954568 0.7760127 0.2079311 0.5954568 0.7760144 0.2079342 0.5954537 0.7760144 0.2079342 0.5954537 0.7760144 0.2079342 0.5954537 0.5680803 0.5680803 0.5954575 0.5680803 0.5680803 0.5954575 0.5680803 0.5680803 0.5954575 0.5680803 0.5680803 0.5954575 0.5680803 0.5680803 0.5954575 0.5680803 0.5680803 0.5954575 0.2079317 0.7760148 0.595454 0.2079317 0.7760148 0.595454 0.2079317 0.7760148 0.595454 0.2079335 0.7760119 0.5954572 0.2079335 0.7760119 0.5954572 0.2079335 0.7760119 0.5954572 -0.2079311 0.7760127 0.5954568 -0.2079311 0.7760127 0.5954568 -0.2079311 0.7760127 0.5954568 -0.2079342 0.7760144 0.5954537 -0.2079342 0.7760144 0.5954537 -0.2079342 0.7760144 0.5954537 -0.5680803 0.5680803 0.5954575 -0.5680803 0.5680803 0.5954575 -0.5680803 0.5680803 0.5954575 -0.5680803 0.5680803 0.5954575 -0.5680803 0.5680803 0.5954575 -0.5680803 0.5680803 0.5954575 -0.7760148 0.2079317 0.595454 -0.7760148 0.2079317 0.595454 -0.7760148 0.2079317 0.595454 -0.7760119 0.2079335 0.5954572 -0.7760119 0.2079335 0.5954572 -0.7760119 0.2079335 0.5954572 -0.6008204 -0.1609907 0.783005 -0.6008204 -0.1609907 0.783005 -0.6008204 -0.1609907 0.783005 -0.600819 -0.1609883 0.7830065 -0.600819 -0.1609883 0.7830065 -0.600819 -0.1609883 0.7830065 -0.4398314 -0.4398314 0.7830049 -0.4398314 -0.4398314 0.7830049 -0.4398314 -0.4398314 0.7830049 -0.4398314 -0.4398314 0.7830049 -0.4398314 -0.4398314 0.7830049 -0.4398314 -0.4398314 0.7830049 -0.1609903 -0.6008189 0.7830064 -0.1609903 -0.6008189 0.7830064 -0.1609903 -0.6008189 0.7830064 -0.1609889 -0.6008212 0.7830048 -0.1609889 -0.6008212 0.7830048 -0.1609889 -0.6008212 0.7830048 0.1609907 -0.6008204 0.783005 0.1609907 -0.6008204 0.783005 0.1609907 -0.6008204 0.783005 0.1609883 -0.600819 0.7830065 0.1609883 -0.600819 0.7830065 0.1609883 -0.600819 0.7830065 0.4398314 -0.4398314 0.7830049 0.4398314 -0.4398314 0.7830049 0.4398314 -0.4398314 0.7830049 0.4398314 -0.4398314 0.7830049 0.4398314 -0.4398314 0.7830049 0.4398314 -0.4398314 0.7830049 0.6008189 -0.1609903 0.7830064 0.6008189 -0.1609903 0.7830064 0.6008189 -0.1609903 0.7830064 0.6008212 -0.1609889 0.7830048 0.6008212 -0.1609889 0.7830048 0.6008212 -0.1609889 0.7830048 0.6008204 0.1609907 0.783005 0.6008204 0.1609907 0.783005 0.6008204 0.1609907 0.783005 0.600819 0.1609883 0.7830065 0.600819 0.1609883 0.7830065 0.600819 0.1609883 0.7830065 0.4398314 0.4398314 0.7830049 0.4398314 0.4398314 0.7830049 0.4398314 0.4398314 0.7830049 0.4398314 0.4398314 0.7830049 0.4398314 0.4398314 0.7830049 0.4398314 0.4398314 0.7830049 0.1609903 0.6008189 0.7830064 0.1609903 0.6008189 0.7830064 0.1609903 0.6008189 0.7830064 0.1609889 0.6008212 0.7830048 0.1609889 0.6008212 0.7830048 0.1609889 0.6008212 0.7830048 -0.1609907 0.6008204 0.783005 -0.1609907 0.6008204 0.783005 -0.1609907 0.6008204 0.783005 -0.1609883 0.600819 0.7830065 -0.1609883 0.600819 0.7830065 -0.1609883 0.600819 0.7830065 -0.4398314 0.4398314 0.7830049 -0.4398314 0.4398314 0.7830049 -0.4398314 0.4398314 0.7830049 -0.4398314 0.4398314 0.7830049 -0.4398314 0.4398314 0.7830049 -0.4398314 0.4398314 0.7830049 -0.6008189 0.1609903 0.7830064 -0.6008189 0.1609903 0.7830064 -0.6008189 0.1609903 0.7830064 -0.6008212 0.1609889 0.7830048 -0.6008212 0.1609889 0.7830048 -0.6008212 0.1609889 0.7830048 -0.3806894 -0.102005 0.9190596 -0.3806894 -0.102005 0.9190596 -0.3806894 -0.102005 0.9190596 -0.3806891 -0.1020044 0.9190598 -0.3806891 -0.1020044 0.9190598 -0.3806891 -0.1020044 0.9190598 -0.278684 -0.278684 0.9190595 -0.278684 -0.278684 0.9190595 -0.278684 -0.278684 0.9190595 -0.278684 -0.278684 0.9190595 -0.278684 -0.278684 0.9190595 -0.278684 -0.278684 0.9190595 -0.1020049 -0.3806891 0.9190598 -0.1020049 -0.3806891 0.9190598 -0.1020049 -0.3806891 0.9190598 -0.1020046 -0.3806895 0.9190596 -0.1020046 -0.3806895 0.9190596 -0.1020046 -0.3806895 0.9190596 0.102005 -0.3806894 0.9190596 0.102005 -0.3806894 0.9190596 0.102005 -0.3806894 0.9190596 0.1020044 -0.3806891 0.9190598 0.1020044 -0.3806891 0.9190598 0.1020044 -0.3806891 0.9190598 0.278684 -0.278684 0.9190595 0.278684 -0.278684 0.9190595 0.278684 -0.278684 0.9190595 0.278684 -0.278684 0.9190595 0.278684 -0.278684 0.9190595 0.278684 -0.278684 0.9190595 0.3806891 -0.1020049 0.9190598 0.3806891 -0.1020049 0.9190598 0.3806891 -0.1020049 0.9190598 0.3806895 -0.1020046 0.9190596 0.3806895 -0.1020046 0.9190596 0.3806895 -0.1020046 0.9190596 0.3806894 0.102005 0.9190596 0.3806894 0.102005 0.9190596 0.3806894 0.102005 0.9190596 0.3806891 0.1020044 0.9190598 0.3806891 0.1020044 0.9190598 0.3806891 0.1020044 0.9190598 0.278684 0.278684 0.9190595 0.278684 0.278684 0.9190595 0.278684 0.278684 0.9190595 0.278684 0.278684 0.9190595 0.278684 0.278684 0.9190595 0.278684 0.278684 0.9190595 0.1020049 0.3806891 0.9190598 0.1020049 0.3806891 0.9190598 0.1020049 0.3806891 0.9190598 0.1020046 0.3806895 0.9190596 0.1020046 0.3806895 0.9190596 0.1020046 0.3806895 0.9190596 -0.102005 0.3806894 0.9190596 -0.102005 0.3806894 0.9190596 -0.102005 0.3806894 0.9190596 -0.1020044 0.3806891 0.9190598 -0.1020044 0.3806891 0.9190598 -0.1020044 0.3806891 0.9190598 -0.278684 0.278684 0.9190595 -0.278684 0.278684 0.9190595 -0.278684 0.278684 0.9190595 -0.278684 0.278684 0.9190595 -0.278684 0.278684 0.9190595 -0.278684 0.278684 0.9190595 -0.3806891 0.1020049 0.9190598 -0.3806891 0.1020049 0.9190598 -0.3806891 0.1020049 0.9190598 -0.3806895 0.1020046 0.9190596 -0.3806895 0.1020046 0.9190596 -0.3806895 0.1020046 0.9190596 -0.1304458 -0.0349525 0.9908391 -0.1304458 -0.0349525 0.9908391 -0.1304458 -0.0349525 0.9908391 1.0 0.0 0.0 1.0 0.0 0.0 -0.0954928 -0.0954928 0.9908391 -0.0954928 -0.0954928 0.9908391 -0.0954928 -0.0954928 0.9908391 1.0 0.0 0.0 1.0 0.0 0.0 -0.0349525 -0.1304458 0.9908391 -0.0349525 -0.1304458 0.9908391 -0.0349525 -0.1304458 0.9908391 1.0 0.0 0.0 1.0 0.0 0.0 0.0349525 -0.1304458 0.9908391 0.0349525 -0.1304458 0.9908391 0.0349525 -0.1304458 0.9908391 1.0 0.0 0.0 1.0 0.0 0.0 0.0954928 -0.0954928 0.9908391 0.0954928 -0.0954928 0.9908391 0.0954928 -0.0954928 0.9908391 1.0 0.0 0.0 1.0 0.0 0.0 0.1304458 -0.0349525 0.9908391 0.1304458 -0.0349525 0.9908391 0.1304458 -0.0349525 0.9908391 1.0 0.0 0.0 1.0 0.0 0.0 0.1304458 0.0349525 0.9908391 0.1304458 0.0349525 0.9908391 0.1304458 0.0349525 0.9908391 1.0 0.0 0.0 1.0 0.0 0.0 0.0954928 0.0954928 0.9908391 0.0954928 0.0954928 0.9908391 0.0954928 0.0954928 0.9908391 1.0 0.0 0.0 1.0 0.0 0.0 0.0349525 0.1304458 0.9908391 0.0349525 0.1304458 0.9908391 0.0349525 0.1304458 0.9908391 1.0 0.0 0.0 1.0 0.0 0.0 -0.0349525 0.1304458 0.9908391 -0.0349525 0.1304458 0.9908391 -0.0349525 0.1304458 0.9908391 1.0 0.0 0.0 1.0 0.0 0.0 -0.0954928 0.0954928 0.9908391 -0.0954928 0.0954928 0.9908391 -0.0954928 0.0954928 0.9908391 1.0 0.0 0.0 1.0 0.0 0.0 -0.1304458 0.0349525 0.9908391 -0.1304458 0.0349525 0.9908391 -0.1304458 0.0349525 0.9908391 1.0 0.0 0.0 1.0 0.0 0.0 1.0 0.0 0.0 1.0 0.0 0.0 -0.1304463 -0.0349527 -0.9908391 -0.1304463 -0.0349527 -0.9908391 -0.1304463 -0.0349527 -0.9908391 1.0 0.0 0.0 1.0 0.0 0.0 -0.0954931 -0.0954931 -0.9908391 -0.0954931 -0.0954931 -0.9908391 -0.0954931 -0.0954931 -0.9908391 1.0 0.0 0.0 1.0 0.0 0.0 -0.0349527 -0.1304463 -0.9908391 -0.0349527 -0.1304463 -0.9908391 -0.0349527 -0.1304463 -0.9908391 1.0 0.0 0.0 1.0 0.0 0.0 0.0349527 -0.1304463 -0.9908391 0.0349527 -0.1304463 -0.9908391 0.0349527 -0.1304463 -0.9908391 1.0 0.0 0.0 1.0 0.0 0.0 0.0954931 -0.0954931 -0.9908391 0.0954931 -0.0954931 -0.9908391 0.0954931 -0.0954931 -0.9908391 1.0 0.0 0.0 1.0 0.0 0.0 0.1304463 -0.0349527 -0.9908391 0.1304463 -0.0349527 -0.9908391 0.1304463 -0.0349527 -0.9908391 1.0 0.0 0.0 1.0 0.0 0.0 0.1304463 0.0349527 -0.9908391 0.1304463 0.0349527 -0.9908391 0.1304463 0.0349527 -0.9908391 1.0 0.0 0.0 1.0 0.0 0.0 0.0954931 0.0954931 -0.9908391 0.0954931 0.0954931 -0.9908391 0.0954931 0.0954931 -0.9908391 1.0 0.0 0.0 1.0 0.0 0.0 0.0349527 0.1304463 -0.9908391 0.0349527 0.1304463 -0.9908391 0.0349527 0.1304463 -0.9908391 1.0 0.0 0.0 1.0 0.0 0.0 -0.0349527 0.1304463 -0.9908391 -0.0349527 0.1304463 -0.9908391 -0.0349527 0.1304463 -0.9908391 1.0 0.0 0.0 1.0 0.0 0.0 -0.0954931 0.0954931 -0.9908391 -0.0954931 0.0954931 -0.9908391 -0.0954931 0.0954931 -0.9908391 1.0 0.0 0.0 1.0 0.0 0.0 -0.1304463 0.0349527 -0.9908391 -0.1304463 0.0349527 -0.9908391 -0.1304463 0.0349527 -0.9908391 -0.380689 -0.1020044 -0.9190598 -0.380689 -0.1020044 -0.9190598 -0.380689 -0.1020044 -0.9190598 -0.3806887 -0.1020048 -0.9190599 -0.3806887 -0.1020048 -0.9190599 -0.3806887 -0.1020048 -0.9190599 -0.2786837 -0.2786837 -0.9190598 -0.2786837 -0.2786837 -0.9190598 -0.2786837 -0.2786837 -0.9190598 -0.2786837 -0.2786837 -0.9190598 -0.2786837 -0.2786837 -0.9190598 -0.2786837 -0.2786837 -0.9190598 -0.1020043 -0.3806886 -0.91906 -0.1020043 -0.3806886 -0.91906 -0.1020043 -0.3806886 -0.91906 -0.1020048 -0.3806888 -0.9190598 -0.1020048 -0.3806888 -0.9190598 -0.1020048 -0.3806888 -0.9190598 0.1020044 -0.380689 -0.9190598 0.1020044 -0.380689 -0.9190598 0.1020044 -0.380689 -0.9190598 0.1020048 -0.3806887 -0.9190599 0.1020048 -0.3806887 -0.9190599 0.1020048 -0.3806887 -0.9190599 0.2786837 -0.2786837 -0.9190598 0.2786837 -0.2786837 -0.9190598 0.2786837 -0.2786837 -0.9190598 0.2786837 -0.2786837 -0.9190598 0.2786837 -0.2786837 -0.9190598 0.2786837 -0.2786837 -0.9190598 0.3806886 -0.1020043 -0.91906 0.3806886 -0.1020043 -0.91906 0.3806886 -0.1020043 -0.91906 0.3806888 -0.1020048 -0.9190598 0.3806888 -0.1020048 -0.9190598 0.3806888 -0.1020048 -0.9190598 0.380689 0.1020044 -0.9190598 0.380689 0.1020044 -0.9190598 0.380689 0.1020044 -0.9190598 0.3806887 0.1020048 -0.9190599 0.3806887 0.1020048 -0.9190599 0.3806887 0.1020048 -0.9190599 0.2786837 0.2786837 -0.9190598 0.2786837 0.2786837 -0.9190598 0.2786837 0.2786837 -0.9190598 0.2786837 0.2786837 -0.9190598 0.2786837 0.2786837 -0.9190598 0.2786837 0.2786837 -0.9190598 0.1020043 0.3806886 -0.91906 0.1020043 0.3806886 -0.91906 0.1020043 0.3806886 -0.91906 0.1020048 0.3806888 -0.9190598 0.1020048 0.3806888 -0.9190598 0.1020048 0.3806888 -0.9190598 -0.1020044 0.380689 -0.9190598 -0.1020044 0.380689 -0.9190598 -0.1020044 0.380689 -0.9190598 -0.1020048 0.3806887 -0.9190599 -0.1020048 0.3806887 -0.9190599 -0.1020048 0.3806887 -0.9190599 -0.2786837 0.2786837 -0.9190598 -0.2786837 0.2786837 -0.9190598 -0.2786837 0.2786837 -0.9190598 -0.2786837 0.2786837 -0.9190598 -0.2786837 0.2786837 -0.9190598 -0.2786837 0.2786837 -0.9190598 -0.3806886 0.1020043 -0.91906 -0.3806886 0.1020043 -0.91906 -0.3806886 0.1020043 -0.91906 -0.3806888 0.1020048 -0.9190598 -0.3806888 0.1020048 -0.9190598 -0.3806888 0.1020048 -0.9190598 -0.6008212 -0.1609889 -0.7830048 -0.6008212 -0.1609889 -0.7830048 -0.6008212 -0.1609889 -0.7830048 -0.6008189 -0.1609903 -0.7830064 -0.6008189 -0.1609903 -0.7830064 -0.6008189 -0.1609903 -0.7830064 -0.4398314 -0.4398314 -0.7830049 -0.4398314 -0.4398314 -0.7830049 -0.4398314 -0.4398314 -0.7830049 -0.4398314 -0.4398314 -0.7830049 -0.4398314 -0.4398314 -0.7830049 -0.4398314 -0.4398314 -0.7830049 -0.1609883 -0.6008191 -0.7830065 -0.1609883 -0.6008191 -0.7830065 -0.1609883 -0.6008191 -0.7830065 -0.1609907 -0.6008204 -0.783005 -0.1609907 -0.6008204 -0.783005 -0.1609907 -0.6008204 -0.783005 0.1609889 -0.6008212 -0.7830048 0.1609889 -0.6008212 -0.7830048 0.1609889 -0.6008212 -0.7830048 0.1609903 -0.6008189 -0.7830064 0.1609903 -0.6008189 -0.7830064 0.1609903 -0.6008189 -0.7830064 0.4398314 -0.4398314 -0.7830049 0.4398314 -0.4398314 -0.7830049 0.4398314 -0.4398314 -0.7830049 0.4398314 -0.4398314 -0.7830049 0.4398314 -0.4398314 -0.7830049 0.4398314 -0.4398314 -0.7830049 0.6008191 -0.1609883 -0.7830065 0.6008191 -0.1609883 -0.7830065 0.6008191 -0.1609883 -0.7830065 0.6008204 -0.1609907 -0.783005 0.6008204 -0.1609907 -0.783005 0.6008204 -0.1609907 -0.783005 0.6008212 0.1609889 -0.7830048 0.6008212 0.1609889 -0.7830048 0.6008212 0.1609889 -0.7830048 0.6008189 0.1609903 -0.7830064 0.6008189 0.1609903 -0.7830064 0.6008189 0.1609903 -0.7830064 0.4398314 0.4398314 -0.7830049 0.4398314 0.4398314 -0.7830049 0.4398314 0.4398314 -0.7830049 0.4398314 0.4398314 -0.7830049 0.4398314 0.4398314 -0.7830049 0.4398314 0.4398314 -0.7830049 0.1609883 0.6008191 -0.7830065 0.1609883 0.6008191 -0.7830065 0.1609883 0.6008191 -0.7830065 0.1609907 0.6008204 -0.783005 0.1609907 0.6008204 -0.783005 0.1609907 0.6008204 -0.783005 -0.1609889 0.6008212 -0.7830048 -0.1609889 0.6008212 -0.7830048 -0.1609889 0.6008212 -0.7830048 -0.1609903 0.6008189 -0.7830064 -0.1609903 0.6008189 -0.7830064 -0.1609903 0.6008189 -0.7830064 -0.4398314 0.4398314 -0.7830049 -0.4398314 0.4398314 -0.7830049 -0.4398314 0.4398314 -0.7830049 -0.4398314 0.4398314 -0.7830049 -0.4398314 0.4398314 -0.7830049 -0.4398314 0.4398314 -0.7830049 -0.6008191 0.1609883 -0.7830065 -0.6008191 0.1609883 -0.7830065 -0.6008191 0.1609883 -0.7830065 -0.6008204 0.1609907 -0.783005 -0.6008204 0.1609907 -0.783005 -0.6008204 0.1609907 -0.783005 -0.776012 -0.2079335 -0.5954571 -0.776012 -0.2079335 -0.5954571 -0.776012 -0.2079335 -0.5954571 -0.7760149 -0.2079317 -0.5954539 -0.7760149 -0.2079317 -0.5954539 -0.7760149 -0.2079317 -0.5954539 -0.5680803 -0.5680803 -0.5954574 -0.5680803 -0.5680803 -0.5954574 -0.5680803 -0.5680803 -0.5954574 -0.5680803 -0.5680803 -0.5954574 -0.5680803 -0.5680803 -0.5954574 -0.5680803 -0.5680803 -0.5954574 -0.2079342 -0.7760146 -0.5954536 -0.2079342 -0.7760146 -0.5954536 -0.2079342 -0.7760146 -0.5954536 -0.2079311 -0.7760128 -0.5954567 -0.2079311 -0.7760128 -0.5954567 -0.2079311 -0.7760128 -0.5954567 0.2079335 -0.776012 -0.5954571 0.2079335 -0.776012 -0.5954571 0.2079335 -0.776012 -0.5954571 0.2079317 -0.7760149 -0.5954539 0.2079317 -0.7760149 -0.5954539 0.2079317 -0.7760149 -0.5954539 0.5680803 -0.5680803 -0.5954574 0.5680803 -0.5680803 -0.5954574 0.5680803 -0.5680803 -0.5954574 0.5680803 -0.5680803 -0.5954574 0.5680803 -0.5680803 -0.5954574 0.5680803 -0.5680803 -0.5954574 0.7760146 -0.2079342 -0.5954536 0.7760146 -0.2079342 -0.5954536 0.7760146 -0.2079342 -0.5954536 0.7760128 -0.2079311 -0.5954567 0.7760128 -0.2079311 -0.5954567 0.7760128 -0.2079311 -0.5954567 0.776012 0.2079335 -0.5954571 0.776012 0.2079335 -0.5954571 0.776012 0.2079335 -0.5954571 0.7760149 0.2079317 -0.5954539 0.7760149 0.2079317 -0.5954539 0.7760149 0.2079317 -0.5954539 0.5680803 0.5680803 -0.5954574 0.5680803 0.5680803 -0.5954574 0.5680803 0.5680803 -0.5954574 0.5680803 0.5680803 -0.5954574 0.5680803 0.5680803 -0.5954574 0.5680803 0.5680803 -0.5954574 0.2079342 0.7760146 -0.5954536 0.2079342 0.7760146 -0.5954536 0.2079342 0.7760146 -0.5954536 0.2079311 0.7760128 -0.5954567 0.2079311 0.7760128 -0.5954567 0.2079311 0.7760128 -0.5954567 -0.2079335 0.776012 -0.5954571 -0.2079335 0.776012 -0.5954571 -0.2079335 0.776012 -0.5954571 -0.2079317 0.7760149 -0.5954539 -0.2079317 0.7760149 -0.5954539 -0.2079317 0.7760149 -0.5954539 -0.5680803 0.5680803 -0.5954574 -0.5680803 0.5680803 -0.5954574 -0.5680803 0.5680803 -0.5954574 -0.5680803 0.5680803 -0.5954574 -0.5680803 0.5680803 -0.5954574 -0.5680803 0.5680803 -0.5954574 -0.7760146 0.2079342 -0.5954536 -0.7760146 0.2079342 -0.5954536 -0.7760146 0.2079342 -0.5954536 -0.7760128 0.2079311 -0.5954567 -0.7760128 0.2079311 -0.5954567 -0.7760128 0.2079311 -0.5954567 -0.8968095 -0.2402984 -0.3714692 -0.8968095 -0.2402984 -0.3714692 -0.8968095 -0.2402984 -0.3714692 -0.8968079 -0.2402997 -0.3714722 -0.8968079 -0.2402997 -0.3714722 -0.8968079 -0.2402997 -0.3714722 -0.6565099 -0.6565099 -0.3714692 -0.6565099 -0.6565099 -0.3714692 -0.6565099 -0.6565099 -0.3714692 -0.6565099 -0.6565099 -0.3714692 -0.6565099 -0.6565099 -0.3714692 -0.6565099 -0.6565099 -0.3714692 -0.2402981 -0.8968083 -0.3714723 -0.2402981 -0.8968083 -0.3714723 -0.2402981 -0.8968083 -0.3714723 -0.2403 -0.896809 -0.3714693 -0.2403 -0.896809 -0.3714693 -0.2403 -0.896809 -0.3714693 0.2402984 -0.8968095 -0.3714692 0.2402984 -0.8968095 -0.3714692 0.2402984 -0.8968095 -0.3714692 0.2402997 -0.8968079 -0.3714722 0.2402997 -0.8968079 -0.3714722 0.2402997 -0.8968079 -0.3714722 0.6565099 -0.6565099 -0.3714692 0.6565099 -0.6565099 -0.3714692 0.6565099 -0.6565099 -0.3714692 0.6565099 -0.6565099 -0.3714692 0.6565099 -0.6565099 -0.3714692 0.6565099 -0.6565099 -0.3714692 0.8968083 -0.2402981 -0.3714723 0.8968083 -0.2402981 -0.3714723 0.8968083 -0.2402981 -0.3714723 0.896809 -0.2403 -0.3714693 0.896809 -0.2403 -0.3714693 0.896809 -0.2403 -0.3714693 0.8968095 0.2402984 -0.3714692 0.8968095 0.2402984 -0.3714692 0.8968095 0.2402984 -0.3714692 0.8968079 0.2402997 -0.3714722 0.8968079 0.2402997 -0.3714722 0.8968079 0.2402997 -0.3714722 0.6565099 0.6565099 -0.3714692 0.6565099 0.6565099 -0.3714692 0.6565099 0.6565099 -0.3714692 0.6565099 0.6565099 -0.3714692 0.6565099 0.6565099 -0.3714692 0.6565099 0.6565099 -0.3714692</float_array>
                    <technique_common>
                        <accessor count="840" source="#geometry0-normal-array" stride="3">
                            <param name="X" type="float"/>
                            <param name="Y" type="float"/>
                            <param name="Z" type="float"/>
                        </accessor>
                    </technique_common>
                </source>
                <vertices id="geometry0-vertex">
                    <input semantic="POSITION" source="#geometry0-position"/>
                </vertices>
                <triangles count="288" material="default_ai_0.2_sh_0.2_tr_0.0_dc_r_0.8_g_0.8_b_0.8_sc_r_1.0_g_1.0_b_1.0_ec_r_0.0_g_0.0_b_0_tri">
                    <input offset="0" semantic="VERTEX" source="#geometry0-vertex"/>
                    <input offset="1" semantic="NORMAL" source="#geometry0-normal"/>
                    <p>45 0 46 1 58 2 45 3 58 4 57 5 46 6 47 7 59 8 46 9 59 10 58 11 47 12 48 13 60 14 47 15 60 16 59 17 48 18 38 19 50 20 48 21 50 22 60 23 50 24 49 25 61 26 50 27 61 28 62 29 49 30 51 31 63 32 49 33 63 34 61 35 51 36 52 37 64 38 51 39 64 40 63 41 52 42 53 43 65 44 52 45 65 46 64 47 53 48 54 49 66 50 53 51 66 52 65 53 54 54 55 55 67 56 54 57 67 58 66 59 55 60 56 61 68 62 55 63 68 64 67 65 56 66 57 67 69 68 56 69 69 70 68 71 57 72 58 73 70 74 57 75 70 76 69 77 58 78 59 79 71 80 58 81 71 82 70 83 59 84 60 85 72 86 59 87 72 88 71 89 60 90 50 91 62 92 60 93 62 94 72 95 62 96 61 97 73 98 62 99 73 100 74 101 61 102 63 103 75 104 61 105 75 106 73 107 63 108 64 109 76 110 63 111 76 112 75 113 64 114 65 115 77 116 64 117 77 118 76 119 65 120 66 121 78 122 65 123 78 124 77 125 66 126 67 127 79 128 66 129 79 130 78 131 67 132 68 133 80 134 67 135 80 136 79 137 68 138 69 139 81 140 68 141 81 142 80 143 69 144 70 145 82 146 69 147 82 148 81 149 70 150 71 151 83 152 70 153 83 154 82 155 71 156 72 157 84 158 71 159 84 160 83 161 72 162 62 163 74 164 72 165 74 166 84 167 74 168 73 169 85 170 74 171 85 172 86 173 73 174 75 175 87 176 73 177 87 178 85 179 75 180 76 181 88 182 75 183 88 184 87 185 76 186 77 187 89 188 76 189 89 190 88 191 77 192 78 193 90 194 77 195 90 196 89 197 78 198 79 199 91 200 78 201 91 202 90 203 79 204 80 205 92 206 79 207 92 208 91 209 80 210 81 211 93 212 80 213 93 214 92 215 81 216 82 217 94 218 81 219 94 220 93 221 82 222 83 223 95 224 82 225 95 226 94 227 83 228 84 229 96 230 83 231 96 232 95 233 84 234 74 235 86 236 84 237 86 238 96 239 86 240 85 241 97 242 86 243 97 244 98 245 85 246 87 247 99 248 85 249 99 250 97 251 87 252 88 253 100 254 87 255 100 256 99 257 88 258 89 259 101 260 88 261 101 262 100 263 89 264 90 265 102 266 89 267 102 268 101 269 90 270 91 271 103 272 90 273 103 274 102 275 91 276 92 277 104 278 91 279 104 280 103 281 92 282 93 283 105 284 92 285 105 286 104 287 93 288 94 289 106 290 93 291 106 292 105 293 94 294 95 295 107 296 94 297 107 298 106 299 95 300 96 301 108 302 95 303 108 304 107 305 96 306 86 307 98 308 96 309 98 310 108 311 98 312 97 313 109 314 98 315 109 316 110 317 97 318 99 319 111 320 97 321 111 322 109 323 99 324 100 325 112 326 99 327 112 328 111 329 100 330 101 331 113 332 100 333 113 334 112 335 101 336 102 337 114 338 101 339 114 340 113 341 102 342 103 343 115 344 102 345 115 346 114 347 103 348 104 349 116 350 103 351 116 352 115 353 104 354 105 355 117 356 104 357 117 358 116 359 105 360 106 361 118 362 105 363 118 364 117 365 106 366 107 367 119 368 106 369 119 370 118 371 107 372 108 373 120 374 107 375 120 376 119 377 108 378 98 379 110 380 108 381 110 382 120 383 110 384 109 385 121 386 110 387 121 388 122 389 109 390 111 391 123 392 109 393 123 394 121 395 111 396 112 397 124 398 111 399 124 400 123 401 112 402 113 403 125 404 112 405 125 406 124 407 113 408 114 409 126 410 113 411 126 412 125 413 114 414 115 415 127 416 114 417 127 418 126 419 115 420 116 421 128 422 115 423 128 424 127 425 116 426 117 427 129 428 116 429 129 430 128 431 117 432 118 433 130 434 117 435 130 436 129 437 118 438 119 439 131 440 118 441 131 442 130 443 119 444 120 445 132 446 119 447 132 448 131 449 120 450 110 451 122 452 120 453 122 454 132 455 122 456 121 457 133 458 122 459 133 460 133 460 121 461 123 462 133 463 121 464 133 465 133 465 123 466 124 467 133 468 123 469 133 470 133 470 124 471 125 472 133 473 124 474 133 475 133 475 125 476 126 477 133 478 125 479 133 480 133 480 126 481 127 482 133 483 126 484 133 485 133 485 127 486 128 487 133 488 127 489 133 490 133 490 128 491 129 492 133 493 128 494 133 495 133 495 129 496 130 497 133 498 129 499 133 500 133 500 130 501 131 502 133 503 130 504 133 505 133 505 131 506 132 507 133 508 131 509 133 510 133 510 132 511 122 512 133 513 132 514 133 515 133 515 0 516 0 516 1 517 0 518 1 519 2 520 0 521 0 521 3 522 0 523 3 524 1 525 0 526 0 526 4 527 0 528 4 529 3 530 0 531 0 531 5 532 0 533 5 534 4 535 0 536 0 536 6 537 0 538 6 539 5 540 0 541 0 541 7 542 0 543 7 544 6 545 0 546 0 546 8 547 0 548 8 549 7 550 0 551 0 551 9 552 0 553 9 554 8 555 0 556 0 556 10 557 0 558 10 559 9 560 0 561 0 561 11 562 0 563 11 564 10 565 0 566 0 566 12 567 0 568 12 569 11 570 0 571 0 571 2 572 0 573 2 574 12 575 2 576 1 577 13 578 2 579 13 580 14 581 1 582 3 583 15 584 1 585 15 586 13 587 3 588 4 589 16 590 3 591 16 592 15 593 4 594 5 595 17 596 4 597 17 598 16 599 5 600 6 601 18 602 5 603 18 604 17 605 6 606 7 607 19 608 6 609 19 610 18 611 7 612 8 613 20 614 7 615 20 616 19 617 8 618 9 619 21 620 8 621 21 622 20 623 9 624 10 625 22 626 9 627 22 628 21 629 10 630 11 631 23 632 10 633 23 634 22 635 11 636 12 637 24 638 11 639 24 640 23 641 12 642 2 643 14 644 12 645 14 646 24 647 14 648 13 649 25 650 14 651 25 652 26 653 13 654 15 655 27 656 13 657 27 658 25 659 15 660 16 661 28 662 15 663 28 664 27 665 16 666 17 667 29 668 16 669 29 670 28 671 17 672 18 673 30 674 17 675 30 676 29 677 18 678 19 679 31 680 18 681 31 682 30 683 19 684 20 685 32 686 19 687 32 688 31 689 20 690 21 691 33 692 20 693 33 694 32 695 21 696 22 697 34 698 21 699 34 700 33 701 22 702 23 703 35 704 22 705 35 706 34 707 23 708 24 709 36 710 23 711 36 712 35 713 24 714 14 715 26 716 24 717 26 718 36 719 26 720 25 721 37 722 26 723 37 724 38 725 25 726 27 727 39 728 25 729 39 730 37 731 27 732 28 733 40 734 27 735 40 736 39 737 28 738 29 739 41 740 28 741 41 742 40 743 29 744 30 745 42 746 29 747 42 748 41 749 30 750 31 751 43 752 30 753 43 754 42 755 31 756 32 757 44 758 31 759 44 760 43 761 32 762 33 763 45 764 32 765 45 766 44 767 33 768 34 769 46 770 33 771 46 772 45 773 34 774 35 775 47 776 34 777 47 778 46 779 35 780 36 781 48 782 35 783 48 784 47 785 36 786 26 787 38 788 36 789 38 790 48 791 38 792 37 793 49 794 38 795 49 796 50 797 37 798 39 799 51 800 37 801 51 802 49 803 39 804 40 805 52 806 39 807 52 808 51 809 40 810 41 811 53 812 40 813 53 814 52 815 41 816 42 817 54 818 41 819 54 820 53 821 42 822 43 823 55 824 42 825 55 826 54 827 43 828 44 829 56 830 43 831 56 832 55 833 44 834 45 835 57 836 44 837 57 838 56 839</p>
                </triangles>
            </mesh>
        </geometry>
    </library_geometries>
    <library_visual_scenes>
        <visual_scene id="Building_22_CROWN2">
            <node>
                <instance_geometry url="#geometry0">
                    <bind_material>
                        <technique_common>
                            <instance_material symbol="default_ai_0.2_sh_0.2_tr_0.0_dc_r_0.8_g_0.8_b_0.8_sc_r_1.0_g_1.0_b_1.0_ec_r_0.0_g_0.0_b_0_tri" target="#default_ai_0.2_sh_0.2_tr_0.0_dc_r_0.8_g_0.8_b_0.8_sc_r_1.0_g_1.0_b_1.0_ec_r_0.0_g_0.0_b_0_mat"/>
                        </technique_common>
                    </bind_material>
                </instance_geometry>
            </node>
        </visual_scene>
    </library_visual_scenes>
    <scene>
        <instance_visual_scene url="#Building_22_CROWN2"/>
    </scene>
</COLLADA>
