<?xml version="1.0" encoding="UTF-8" standalone="yes"?>
<COLLADA xmlns="http://www.collada.org/2005/11/COLLADASchema" version="1.4.1">
    <asset>
        <contributor>
            <authoring_tool>3D City Database Importer/Exporter, version 5.5.3; Chair of Geoinformatics, Technical University of Munich</authoring_tool>
        </contributor>
        <created>2026-09-25T14:44:42.368</created>
        <modified>2026-09-25T14:44:42.368</modified>
        <unit meter="1.0" name="meters"/>
        <up_axis>Z_UP</up_axis>
    </asset>
    <library_materials>
        <material id="default_ai_0.2_sh_0.2_tr_0.0_dc_r_0.8_g_0.8_b_0.8_sc_r_1.0_g_1.0_b_1.0_ec_r_0.0_g_0.0_b_0_mat">
            <instance_effect url="#default_ai_0.2_sh_0.2_tr_0.0_dc_r_0.8_g_0.8_b_0.8_sc_r_1.0_g_1.0_b_1.0_ec_r_0.0_g_0.0_b_0_eff"/>
        </material>
    </library_materials>
    <library_effects>
        <effect id="default_ai_0.2_sh_0.2_tr_0.0_dc_r_0.8_g_0.8_b_0.8_sc_r_1.0_g_1.0_b_1.0_ec_r_0.0_g_0.0_b_0_eff">
            <profile_COMMON>
                <technique sid="COMMON">
                    <lambert>
                        <emission>
                            <color>0.0 0.0 0.0 1.0</color>
                        </emission>
                        <diffuse>
                            <color>0.8 0.8 0.8 1.0</color>
                        </diffuse>
                        <reflective>
                            <color>1.0 1.0 1.0 1.0</color>
                        </reflective>
                        <reflectivity>
                            <float>0.2</float>
                        </reflectivity>
                        <transparent opaque="A_ONE">
                            <color>1.0 1.0 1.0 1.0</color>
                        </transparent>
                        <transparency>
                            <float>1.0</float>
                        </transparency>
                    </lambert>
                </technique>
                <extra>
                    <technique profile="GOOGLEEARTH">
                        <double_sided>0</double_sided>
                    </technique>
                </extra>
            </profile_COMMON>
        </effect>
    </library_effects>
    <library_geometries>
        <geometry id="geometry0">
            <mesh>
                <source id="geometry0-position">
                    <float_array id="geometry0-position-array" count="402">0.0 0.0 4.2 0.4707024 0.271761 4.1284446 0.5435199 0.0 4.1284446 0.271761 0.4707024 4.1284446 0.0 0.5435199 4.1284446 -0.271761 0.4707024 4.1284446 -0.4707024 0.271761 4.1284446 -0.5435199 0.0 4.1284446 -0.4707024 -0.271761 4.1284446 -0.271761 -0.4707024 4.1284446 0.0 -0.5435199 4.1284446 0.271761 -0.4707024 4.1284446 0.4707024 -0.271761 4.1284446 0.9093273 0.525 3.9186525 1.05 0.0 3.9186525 0.525 0.9093273 3.9186525 0.0 1.05 3.9186525 -0.525 0.9093273 3.9186525 -0.9093273 0.525 3.9186525 -1.05 0.0 3.9186525 -0.9093273 -0.525 3.9186525 -0.525 -0.9093273 3.9186525 0.0 -1.05 3.9186525 0.525 -0.9093273 3.9186525 0.9093273 -0.525 3.9186525 1.2859812 0.7424613 3.5849226 1.4849247 0.0 3.5849226 0.7424613 1.2859812 3.5849226 0.0 1.4849247 3.5849226 -0.7424613 1.2859812 3.5849226 -1.2859812 0.7424613 3.5849226 -1.4849247 0.0 3.5849226 -1.2859812 -0.7424613 3.5849226 -0.7424613 -1.2859812 3.5849226 0.0 -1.4849247 3.5849226 0.7424613 -1.2859812 3.5849226 1.2859812 -0.7424613 3.5849226 1.575 0.9093273 3.15 1.8186525 0.0 3.15 0.9093273 1.575 3.15 0.0 1.8186525 3.15 -0.9093273 1.575 3.15 -1.575 0.9093273 3.15 -1.8186525 0.0 3.15 -1.575 -0.9093273 3.15 -0.9093273 -1.575 3.15 0.0 -1.8186525 3.15 0.9093273 -1.575 3.15 1.575 -0.9093273 3.15 1.7566836 1.0142223 2.6435199 2.0284446 0.0 2.6435199 1.0142223 1.7566836 2.6435199 0.0 2.0284446 2.6435199 -1.0142223 1.7566836 2.6435199 -1.7566836 1.0142223 2.6435199 -2.0284446 0.0 2.6435199 -1.7566836 -1.0142223 2.6435199 -1.0142223 -1.7566836 2.6435199 0.0 -2.0284446 2.6435199 1.0142223 -1.7566836 2.6435199 1.7566836 -1.0142223 2.6435199 1.8186525 1.05 2.1 2.1 0.0 2.1 1.05 1.8186525 2.1 0.0 2.1 2.1 -1.05 1.8186525 2.1 -1.8186525 1.05 2.1 -2.1 0.0 2.1 -1.8186525 -1.05 2.1 -1.05 -1.8186525 2.1 0.0 -2.1 2.1 1.05 -1.8186525 2.1 1.8186525 -1.05 2.1 1.7566836 1.0142223 1.5564801 2.0284446 0.0 1.5564801 1.0142223 1.7566836 1.5564801 0.0 2.0284446 1.5564801 -1.0142223 1.7566836 1.5564801 -1.7566836 1.0142223 1.5564801 -2.0284446 0.0 1.5564801 -1.7566836 -1.0142223 1.5564801 -1.0142223 -1.7566836 1.5564801 0.0 -2.0284446 1.5564801 1.0142223 -1.7566836 1.5564801 1.7566836 -1.0142223 1.5564801 1.575 0.9093273 1.05 1.8186525 0.0 1.05 0.9093273 1.575 1.05 0.0 1.8186525 1.05 -0.9093273 1.575 1.05 -1.575 0.9093273 1.05 -1.8186525 0.0 1.05 -1.575 -0.9093273 1.05 -0.9093273 -1.575 1.05 0.0 -1.8186525 1.05 0.9093273 -1.575 1.05 1.575 -0.9093273 1.05 1.2859812 0.7424613 0.6150753 1.4849247 0.0 0.6150753 0.7424613 1.2859812 0.6150753 0.0 1.4849247 0.6150753 -0.7424613 1.2859812 0.6150753 -1.2859812 0.7424613 0.6150753 -1.4849247 0.0 0.6150753 -1.2859812 -0.7424613 0.6150753 -0.7424613 -1.2859812 0.6150753 0.0 -1.4849247 0.6150753 0.7424613 -1.2859812 0.6150753 1.2859812 -0.7424613 0.6150753 0.9093273 0.525 0.2813454 1.05 0.0 0.2813454 0.525 0.9093273 0.2813454 0.0 1.05 0.2813454 -0.525 0.9093273 0.2813454 -0.9093273 0.525 0.2813454 -1.05 0.0 0.2813454 -0.9093273 -0.525 0.2813454 -0.525 -0.9093273 0.2813454 0.0 -1.05 0.2813454 0.525 -0.9093273 0.2813454 0.9093273 -0.525 0.2813454 0.4707024 0.271761 0.0715554 0.5435199 0.0 0.0715554 0.271761 0.4707024 0.0715554 0.0 0.5435199 0.0715554 -0.271761 0.4707024 0.0715554 -0.4707024 0.271761 0.0715554 -0.5435199 0.0 0.0715554 -0.4707024 -0.271761 0.0715554 -0.271761 -0.4707024 0.0715554 0.0 -0.5435199 0.0715554 0.271761 -0.4707024 0.0715554 0.4707024 -0.271761 0.0715554 0.0 0.0 0.0</float_array>
                    <technique_common>
                        <accessor count="134" source="#geometry0-position-array" stride="3">
                            <param name="X" type="float"/>
                            <param name="Y" type="float"/>
                            <param name="Z" type="float"/>
                        </accessor>
                    </technique_common>
                </source>
                <source id="geometry0-normal">
                    <float_array id="geometry0-normal-array" count="2520">-0.1609888 -0.6008214 -0.7830046 -0.1609888 -0.6008214 -0.7830046 -0.1609888 -0.6008214 -0.7830046 -0.1609913 -0.6008228 -0.7830032 -0.1609913 -0.6008228 -0.7830032 -0.1609913 -0.6008228 -0.7830032 0.1609894 -0.6008236 -0.7830028 0.1609894 -0.6008236 -0.7830028 0.1609894 -0.6008236 -0.7830028 0.1609908 -0.6008213 -0.7830043 0.1609908 -0.6008213 -0.7830043 0.1609908 -0.6008213 -0.7830043 0.4398331 -0.4398331 -0.7830029 0.4398331 -0.4398331 -0.7830029 0.4398331 -0.4398331 -0.7830029 0.4398331 -0.4398331 -0.783003 0.4398331 -0.4398331 -0.783003 0.4398331 -0.4398331 -0.783003 0.6008214 -0.1609888 -0.7830046 0.6008214 -0.1609888 -0.7830046 0.6008214 -0.1609888 -0.7830046 0.6008228 -0.1609913 -0.7830032 0.6008228 -0.1609913 -0.7830032 0.6008228 -0.1609913 -0.7830032 0.6008236 0.1609894 -0.7830028 0.6008236 0.1609894 -0.7830028 0.6008236 0.1609894 -0.7830028 0.6008213 0.1609908 -0.7830043 0.6008213 0.1609908 -0.7830043 0.6008213 0.1609908 -0.7830043 0.4398331 0.4398331 -0.7830029 0.4398331 0.4398331 -0.7830029 0.4398331 0.4398331 -0.7830029 0.4398331 0.4398331 -0.783003 0.4398331 0.4398331 -0.783003 0.4398331 0.4398331 -0.783003 0.1609888 0.6008214 -0.7830046 0.1609888 0.6008214 -0.7830046 0.1609888 0.6008214 -0.7830046 0.1609913 0.6008228 -0.7830032 0.1609913 0.6008228 -0.7830032 0.1609913 0.6008228 -0.7830032 -0.1609894 0.6008236 -0.7830028 -0.1609894 0.6008236 -0.7830028 -0.1609894 0.6008236 -0.7830028 -0.1609908 0.6008213 -0.7830043 -0.1609908 0.6008213 -0.7830043 -0.1609908 0.6008213 -0.7830043 -0.4398331 0.4398331 -0.7830029 -0.4398331 0.4398331 -0.7830029 -0.4398331 0.4398331 -0.7830029 -0.4398331 0.4398331 -0.783003 -0.4398331 0.4398331 -0.783003 -0.4398331 0.4398331 -0.783003 -0.6008214 0.1609888 -0.7830046 -0.6008214 0.1609888 -0.7830046 -0.6008214 0.1609888 -0.7830046 -0.6008228 0.1609913 -0.7830032 -0.6008228 0.1609913 -0.7830032 -0.6008228 0.1609913 -0.7830032 -0.7760104 -0.207933 -0.5954592 -0.7760104 -0.207933 -0.5954592 -0.7760104 -0.207933 -0.5954592 -0.7760133 -0.2079312 -0.5954561 -0.7760133 -0.2079312 -0.5954561 -0.7760133 -0.2079312 -0.5954561 -0.5680792 -0.5680792 -0.5954595 -0.5680792 -0.5680792 -0.5954595 -0.5680792 -0.5680792 -0.5954595 -0.5680792 -0.5680792 -0.5954596 -0.5680792 -0.5680792 -0.5954596 -0.5680792 -0.5680792 -0.5954596 -0.2079337 -0.7760128 -0.5954558 -0.2079337 -0.7760128 -0.5954558 -0.2079337 -0.7760128 -0.5954558 -0.2079307 -0.7760112 -0.5954589 -0.2079307 -0.7760112 -0.5954589 -0.2079307 -0.7760112 -0.5954589 0.207933 -0.7760104 -0.5954592 0.207933 -0.7760104 -0.5954592 0.207933 -0.7760104 -0.5954592 0.2079312 -0.7760133 -0.5954561 0.2079312 -0.7760133 -0.5954561 0.2079312 -0.7760133 -0.5954561 0.5680792 -0.5680792 -0.5954595 0.5680792 -0.5680792 -0.5954595 0.5680792 -0.5680792 -0.5954595 0.5680792 -0.5680792 -0.5954596 0.5680792 -0.5680792 -0.5954596 0.5680792 -0.5680792 -0.5954596 0.7760128 -0.2079337 -0.5954558 0.7760128 -0.2079337 -0.5954558 0.7760128 -0.2079337 -0.5954558 0.7760112 -0.2079307 -0.5954589 0.7760112 -0.2079307 -0.5954589 0.7760112 -0.2079307 -0.5954589 0.7760104 0.207933 -0.5954592 0.7760104 0.207933 -0.5954592 0.7760104 0.207933 -0.5954592 0.7760133 0.2079312 -0.5954561 0.7760133 0.2079312 -0.5954561 0.7760133 0.2079312 -0.5954561 0.5680792 0.5680792 -0.5954595 0.5680792 0.5680792 -0.5954595 0.5680792 0.5680792 -0.5954595 0.5680792 0.5680792 -0.5954596 0.5680792 0.5680792 -0.5954596 0.5680792 0.5680792 -0.5954596 0.2079337 0.7760128 -0.5954558 0.2079337 0.7760128 -0.5954558 0.2079337 0.7760128 -0.5954558 0.2079307 0.7760112 -0.5954589 0.2079307 0.7760112 -0.5954589 0.2079307 0.7760112 -0.5954589 -0.207933 0.7760104 -0.5954592 -0.207933 0.7760104 -0.5954592 -0.207933 0.7760104 -0.5954592 -0.2079312 0.7760133 -0.5954561 -0.2079312 0.7760133 -0.5954561 -0.2079312 0.7760133 -0.5954561 -0.5680792 0.5680792 -0.5954595 -0.5680792 0.5680792 -0.5954595 -0.5680792 0.5680792 -0.5954595 -0.5680792 0.5680792 -0.5954596 -0.5680792 0.5680792 -0.5954596 -0.5680792 0.5680792 -0.5954596 -0.7760128 0.2079337 -0.5954558 -0.7760128 0.2079337 -0.5954558 -0.7760128 0.2079337 -0.5954558 -0.7760112 0.2079307 -0.5954589 -0.7760112 0.2079307 -0.5954589 -0.7760112 0.2079307 -0.5954589 -0.8968096 -0.2402984 -0.3714689 -0.8968096 -0.2402984 -0.3714689 -0.8968096 -0.2402984 -0.3714689 -0.896808 -0.2402998 -0.3714719 -0.896808 -0.2402998 -0.3714719 -0.896808 -0.2402998 -0.3714719 -0.6565101 -0.6565101 -0.3714689 -0.6565101 -0.6565101 -0.3714689 -0.6565101 -0.6565101 -0.3714689 -0.6565101 -0.6565101 -0.3714689 -0.6565101 -0.6565101 -0.3714689 -0.6565101 -0.6565101 -0.3714689 -0.240298 -0.8968084 -0.3714721 -0.240298 -0.8968084 -0.3714721 -0.240298 -0.8968084 -0.3714721 -0.2403001 -0.8968091 -0.3714691 -0.2403001 -0.8968091 -0.3714691 -0.2403001 -0.8968091 -0.3714691 0.2402984 -0.8968096 -0.3714689 0.2402984 -0.8968096 -0.3714689 0.2402984 -0.8968096 -0.3714689 0.2402998 -0.896808 -0.3714719 0.2402998 -0.896808 -0.3714719 0.2402998 -0.896808 -0.3714719 0.6565101 -0.6565101 -0.3714689 0.6565101 -0.6565101 -0.3714689 0.6565101 -0.6565101 -0.3714689 0.6565101 -0.6565101 -0.3714689 0.6565101 -0.6565101 -0.3714689 0.6565101 -0.6565101 -0.3714689 0.8968084 -0.240298 -0.3714721 0.8968084 -0.240298 -0.3714721 0.8968084 -0.240298 -0.3714721 0.8968091 -0.2403001 -0.3714691 0.8968091 -0.2403001 -0.3714691 0.8968091 -0.2403001 -0.3714691 0.8968096 0.2402984 -0.3714689 0.8968096 0.2402984 -0.3714689 0.8968096 0.2402984 -0.3714689 0.896808 0.2402998 -0.3714719 0.896808 0.2402998 -0.3714719 0.896808 0.2402998 -0.3714719 0.6565101 0.6565101 -0.3714689 0.6565101 0.6565101 -0.3714689 0.6565101 0.6565101 -0.3714689 0.6565101 0.6565101 -0.3714689 0.6565101 0.6565101 -0.3714689 0.6565101 0.6565101 -0.3714689 0.240298 0.8968084 -0.3714721 0.240298 0.8968084 -0.3714721 0.240298 0.8968084 -0.3714721 0.2403001 0.8968091 -0.3714691 0.2403001 0.8968091 -0.3714691 0.2403001 0.8968091 -0.3714691 -0.2402984 0.8968096 -0.3714689 -0.2402984 0.8968096 -0.3714689 -0.2402984 0.8968096 -0.3714689 -0.2402998 0.896808 -0.3714719 -0.2402998 0.896808 -0.3714719 -0.2402998 0.896808 -0.3714719 -0.6565101 0.6565101 -0.3714689 -0.6565101 0.6565101 -0.3714689 -0.6565101 0.6565101 -0.3714689 -0.6565101 0.6565101 -0.3714689 -0.6565101 0.6565101 -0.3714689 -0.6565101 0.6565101 -0.3714689 -0.8968084 0.240298 -0.3714721 -0.8968084 0.240298 -0.3714721 -0.8968084 0.240298 -0.3714721 -0.8968091 0.2403001 -0.3714691 -0.8968091 0.2403001 -0.3714691 -0.8968091 0.2403001 -0.3714691 -0.958209 -0.2567522 -0.1261503 -0.958209 -0.2567522 -0.1261503 -0.958209 -0.2567522 -0.1261503 -0.958209 -0.256752 -0.1261499 -0.958209 -0.256752 -0.1261499 -0.958209 -0.256752 -0.1261499 -0.7014578 -0.7014578 -0.1261501 -0.7014578 -0.7014578 -0.1261501 -0.7014578 -0.7014578 -0.1261501 -0.7014578 -0.7014578 -0.1261502 -0.7014578 -0.7014578 -0.1261502 -0.7014578 -0.7014578 -0.1261502 -0.2567522 -0.958209 -0.1261499 -0.2567522 -0.958209 -0.1261499 -0.2567522 -0.958209 -0.1261499 -0.256752 -0.958209 -0.1261502 -0.256752 -0.958209 -0.1261502 -0.256752 -0.958209 -0.1261502 0.2567522 -0.958209 -0.1261503 0.2567522 -0.958209 -0.1261503 0.2567522 -0.958209 -0.1261503 0.256752 -0.958209 -0.1261499 0.256752 -0.958209 -0.1261499 0.256752 -0.958209 -0.1261499 0.7014578 -0.7014578 -0.1261501 0.7014578 -0.7014578 -0.1261501 0.7014578 -0.7014578 -0.1261501 0.7014578 -0.7014578 -0.1261502 0.7014578 -0.7014578 -0.1261502 0.7014578 -0.7014578 -0.1261502 0.958209 -0.2567522 -0.1261499 0.958209 -0.2567522 -0.1261499 0.958209 -0.2567522 -0.1261499 0.958209 -0.256752 -0.1261502 0.958209 -0.256752 -0.1261502 0.958209 -0.256752 -0.1261502 0.958209 0.2567522 -0.1261503 0.958209 0.2567522 -0.1261503 0.958209 0.2567522 -0.1261503 0.958209 0.256752 -0.1261499 0.958209 0.256752 -0.1261499 0.958209 0.256752 -0.1261499 0.7014578 0.7014578 -0.1261501 0.7014578 0.7014578 -0.1261501 0.7014578 0.7014578 -0.1261501 0.7014578 0.7014578 -0.1261502 0.7014578 0.7014578 -0.1261502 0.7014578 0.7014578 -0.1261502 0.2567522 0.958209 -0.1261499 0.2567522 0.958209 -0.1261499 0.2567522 0.958209 -0.1261499 0.256752 0.958209 -0.1261502 0.256752 0.958209 -0.1261502 0.256752 0.958209 -0.1261502 -0.2567522 0.958209 -0.1261503 -0.2567522 0.958209 -0.1261503 -0.2567522 0.958209 -0.1261503 -0.256752 0.958209 -0.1261499 -0.256752 0.958209 -0.1261499 -0.256752 0.958209 -0.1261499 -0.7014578 0.7014578 -0.1261501 -0.7014578 0.7014578 -0.1261501 -0.7014578 0.7014578 -0.1261501 -0.7014578 0.7014578 -0.1261502 -0.7014578 0.7014578 -0.1261502 -0.7014578 0.7014578 -0.1261502 -0.958209 0.2567522 -0.1261499 -0.958209 0.2567522 -0.1261499 -0.958209 0.2567522 -0.1261499 -0.958209 0.256752 -0.1261502 -0.958209 0.256752 -0.1261502 -0.958209 0.256752 -0.1261502 -0.958209 -0.256752 0.1261503 -0.958209 -0.256752 0.1261503 -0.958209 -0.256752 0.1261503 -0.9582091 -0.2567522 0.1261499 -0.9582091 -0.2567522 0.1261499 -0.9582091 -0.2567522 0.1261499 -0.7014578 -0.7014578 0.1261502 -0.7014578 -0.7014578 0.1261502 -0.7014578 -0.7014578 0.1261502 -0.7014578 -0.7014578 0.1261501 -0.7014578 -0.7014578 0.1261501 -0.7014578 -0.7014578 0.1261501 -0.256752 -0.958209 0.12615 -0.256752 -0.958209 0.12615 -0.256752 -0.958209 0.12615 -0.2567522 -0.958209 0.1261503 -0.2567522 -0.958209 0.1261503 -0.2567522 -0.958209 0.1261503 0.256752 -0.958209 0.1261503 0.256752 -0.958209 0.1261503 0.256752 -0.958209 0.1261503 0.2567522 -0.9582091 0.1261499 0.2567522 -0.9582091 0.1261499 0.2567522 -0.9582091 0.1261499 0.7014578 -0.7014578 0.1261502 0.7014578 -0.7014578 0.1261502 0.7014578 -0.7014578 0.1261502 0.7014578 -0.7014578 0.1261501 0.7014578 -0.7014578 0.1261501 0.7014578 -0.7014578 0.1261501 0.958209 -0.256752 0.12615 0.958209 -0.256752 0.12615 0.958209 -0.256752 0.12615 0.958209 -0.2567522 0.1261503 0.958209 -0.2567522 0.1261503 0.958209 -0.2567522 0.1261503 0.958209 0.256752 0.1261503 0.958209 0.256752 0.1261503 0.958209 0.256752 0.1261503 0.9582091 0.2567522 0.1261499 0.9582091 0.2567522 0.1261499 0.9582091 0.2567522 0.1261499 0.7014578 0.7014578 0.1261502 0.7014578 0.7014578 0.1261502 0.7014578 0.7014578 0.1261502 0.7014578 0.7014578 0.1261501 0.7014578 0.7014578 0.1261501 0.7014578 0.7014578 0.1261501 0.256752 0.958209 0.12615 0.256752 0.958209 0.12615 0.256752 0.958209 0.12615 0.2567522 0.958209 0.1261503 0.2567522 0.958209 0.1261503 0.2567522 0.958209 0.1261503 -0.256752 0.958209 0.1261503 -0.256752 0.958209 0.1261503 -0.256752 0.958209 0.1261503 -0.2567522 0.9582091 0.1261499 -0.2567522 0.9582091 0.1261499 -0.2567522 0.9582091 0.1261499 -0.7014578 0.7014578 0.1261502 -0.7014578 0.7014578 0.1261502 -0.7014578 0.7014578 0.1261502 -0.7014578 0.7014578 0.1261501 -0.7014578 0.7014578 0.1261501 -0.7014578 0.7014578 0.1261501 -0.958209 0.256752 0.12615 -0.958209 0.256752 0.12615 -0.958209 0.256752 0.12615 -0.958209 0.2567522 0.1261503 -0.958209 0.2567522 0.1261503 -0.958209 0.2567522 0.1261503 -0.8968091 -0.2403001 0.3714691 -0.8968091 -0.2403001 0.3714691 -0.8968091 -0.2403001 0.3714691 -0.8968084 -0.240298 0.3714722 -0.8968084 -0.240298 0.3714722 -0.8968084 -0.240298 0.3714722 -0.65651 -0.65651 0.371469 -0.65651 -0.65651 0.371469 -0.65651 -0.65651 0.371469 -0.65651 -0.65651 0.3714689 -0.65651 -0.65651 0.3714689 -0.65651 -0.65651 0.3714689 -0.2402998 -0.896808 0.371472 -0.2402998 -0.896808 0.371472 -0.2402998 -0.896808 0.371472 -0.2402984 -0.8968096 0.371469 -0.2402984 -0.8968096 0.371469 -0.2402984 -0.8968096 0.371469 0.2403001 -0.8968091 0.3714691 0.2403001 -0.8968091 0.3714691 0.2403001 -0.8968091 0.3714691 0.240298 -0.8968084 0.3714722 0.240298 -0.8968084 0.3714722 0.240298 -0.8968084 0.3714722 0.65651 -0.65651 0.371469 0.65651 -0.65651 0.371469 0.65651 -0.65651 0.371469 0.65651 -0.65651 0.3714689 0.65651 -0.65651 0.3714689 0.65651 -0.65651 0.3714689 0.896808 -0.2402998 0.371472 0.896808 -0.2402998 0.371472 0.896808 -0.2402998 0.371472 0.8968096 -0.2402984 0.371469 0.8968096 -0.2402984 0.371469 0.8968096 -0.2402984 0.371469 0.8968091 0.2403001 0.3714691 0.8968091 0.2403001 0.3714691 0.8968091 0.2403001 0.3714691 0.8968084 0.240298 0.3714722 0.8968084 0.240298 0.3714722 0.8968084 0.240298 0.3714722 0.65651 0.65651 0.371469 0.65651 0.65651 0.371469 0.65651 0.65651 0.371469 0.65651 0.65651 0.3714689 0.65651 0.65651 0.3714689 0.65651 0.65651 0.3714689 0.2402998 0.896808 0.371472 0.2402998 0.896808 0.371472 0.2402998 0.896808 0.371472 0.2402984 0.8968096 0.371469 0.2402984 0.8968096 0.371469 0.2402984 0.8968096 0.371469 -0.2403001 0.8968091 0.3714691 -0.2403001 0.8968091 0.3714691 -0.2403001 0.8968091 0.3714691 -0.240298 0.8968084 0.3714722 -0.240298 0.8968084 0.3714722 -0.240298 0.8968084 0.3714722 -0.65651 0.65651 0.371469 -0.65651 0.65651 0.371469 -0.65651 0.65651 0.371469 -0.65651 0.65651 0.3714689 -0.65651 0.65651 0.3714689 -0.65651 0.65651 0.3714689 -0.896808 0.2402998 0.371472 -0.896808 0.2402998 0.371472 -0.896808 0.2402998 0.371472 -0.8968096 0.2402984 0.371469 -0.8968096 0.2402984 0.371469 -0.8968096 0.2402984 0.371469 -0.7760128 -0.2079311 0.595457 -0.7760128 -0.2079311 0.595457 -0.7760128 -0.2079311 0.595457 -0.7760143 -0.2079341 0.5954539 -0.7760143 -0.2079341 0.5954539 -0.7760143 -0.2079341 0.5954539 -0.5680802 -0.5680802 0.5954576 -0.5680802 -0.5680802 0.5954576 -0.5680802 -0.5680802 0.5954576 -0.5680802 -0.5680802 0.5954576 -0.5680802 -0.5680802 0.5954576 -0.5680802 -0.5680802 0.5954576 -0.2079316 -0.7760147 0.5954542 -0.2079316 -0.7760147 0.5954542 -0.2079316 -0.7760147 0.5954542 -0.2079334 -0.7760118 0.5954573 -0.2079334 -0.7760118 0.5954573 -0.2079334 -0.7760118 0.5954573 0.2079311 -0.7760128 0.595457 0.2079311 -0.7760128 0.595457 0.2079311 -0.7760128 0.595457 0.2079341 -0.7760143 0.5954539 0.2079341 -0.7760143 0.5954539 0.2079341 -0.7760143 0.5954539 0.5680802 -0.5680802 0.5954576 0.5680802 -0.5680802 0.5954576 0.5680802 -0.5680802 0.5954576 0.5680802 -0.5680802 0.5954576 0.5680802 -0.5680802 0.5954576 0.5680802 -0.5680802 0.5954576 0.7760147 -0.2079316 0.5954542 0.7760147 -0.2079316 0.5954542 0.7760147 -0.2079316 0.5954542 0.7760118 -0.2079334 0.5954573 0.7760118 -0.2079334 0.5954573 0.7760118 -0.2079334 0.5954573 0.7760128 0.2079311 0.595457 0.7760128 0.2079311 0.595457 0.7760128 0.2079311 0.595457 0.7760143 0.2079341 0.5954539 0.7760143 0.2079341 0.5954539 0.7760143 0.2079341 0.5954539 0.5680802 0.5680802 0.5954576 0.5680802 0.5680802 0.5954576 0.5680802 0.5680802 0.5954576 0.5680802 0.5680802 0.5954576 0.5680802 0.5680802 0.5954576 0.5680802 0.5680802 0.5954576 0.2079316 0.7760147 0.5954542 0.2079316 0.7760147 0.5954542 0.2079316 0.7760147 0.5954542 0.2079334 0.7760118 0.5954573 0.2079334 0.7760118 0.5954573 0.2079334 0.7760118 0.5954573 -0.2079311 0.7760128 0.595457 -0.2079311 0.7760128 0.595457 -0.2079311 0.7760128 0.595457 -0.2079341 0.7760143 0.5954539 -0.2079341 0.7760143 0.5954539 -0.2079341 0.7760143 0.5954539 -0.5680802 0.5680802 0.5954576 -0.5680802 0.5680802 0.5954576 -0.5680802 0.5680802 0.5954576 -0.5680802 0.5680802 0.5954576 -0.5680802 0.5680802 0.5954576 -0.5680802 0.5680802 0.5954576 -0.7760147 0.2079316 0.5954542 -0.7760147 0.2079316 0.5954542 -0.7760147 0.2079316 0.5954542 -0.7760118 0.2079334 0.5954573 -0.7760118 0.2079334 0.5954573 -0.7760118 0.2079334 0.5954573 -0.6008227 -0.1609912 0.7830032 -0.6008227 -0.1609912 0.7830032 -0.6008227 -0.1609912 0.7830032 -0.6008213 -0.1609888 0.7830046 -0.6008213 -0.1609888 0.7830046 -0.6008213 -0.1609888 0.7830046 -0.4398331 -0.4398331 0.783003 -0.4398331 -0.4398331 0.783003 -0.4398331 -0.4398331 0.783003 -0.439833 -0.439833 0.783003 -0.439833 -0.439833 0.783003 -0.439833 -0.439833 0.783003 -0.1609908 -0.6008212 0.7830044 -0.1609908 -0.6008212 0.7830044 -0.1609908 -0.6008212 0.7830044 -0.1609894 -0.6008235 0.7830029 -0.1609894 -0.6008235 0.7830029 -0.1609894 -0.6008235 0.7830029 0.1609912 -0.6008227 0.7830032 0.1609912 -0.6008227 0.7830032 0.1609912 -0.6008227 0.7830032 0.1609888 -0.6008213 0.7830046 0.1609888 -0.6008213 0.7830046 0.1609888 -0.6008213 0.7830046 0.4398331 -0.4398331 0.783003 0.4398331 -0.4398331 0.783003 0.4398331 -0.4398331 0.783003 0.439833 -0.439833 0.783003 0.439833 -0.439833 0.783003 0.439833 -0.439833 0.783003 0.6008212 -0.1609908 0.7830044 0.6008212 -0.1609908 0.7830044 0.6008212 -0.1609908 0.7830044 0.6008235 -0.1609894 0.7830029 0.6008235 -0.1609894 0.7830029 0.6008235 -0.1609894 0.7830029 0.6008227 0.1609912 0.7830032 0.6008227 0.1609912 0.7830032 0.6008227 0.1609912 0.7830032 0.6008213 0.1609888 0.7830046 0.6008213 0.1609888 0.7830046 0.6008213 0.1609888 0.7830046 0.4398331 0.4398331 0.783003 0.4398331 0.4398331 0.783003 0.4398331 0.4398331 0.783003 0.439833 0.439833 0.783003 0.439833 0.439833 0.783003 0.439833 0.439833 0.783003 0.1609908 0.6008212 0.7830044 0.1609908 0.6008212 0.7830044 0.1609908 0.6008212 0.7830044 0.1609894 0.6008235 0.7830029 0.1609894 0.6008235 0.7830029 0.1609894 0.6008235 0.7830029 -0.1609912 0.6008227 0.7830032 -0.1609912 0.6008227 0.7830032 -0.1609912 0.6008227 0.7830032 -0.1609888 0.6008213 0.7830046 -0.1609888 0.6008213 0.7830046 -0.1609888 0.6008213 0.7830046 -0.4398331 0.4398331 0.783003 -0.4398331 0.4398331 0.783003 -0.4398331 0.4398331 0.783003 -0.439833 0.439833 0.783003 -0.439833 0.439833 0.783003 -0.439833 0.439833 0.783003 -0.6008212 0.1609908 0.7830044 -0.6008212 0.1609908 0.7830044 -0.6008212 0.1609908 0.7830044 -0.6008235 0.1609894 0.7830029 -0.6008235 0.1609894 0.7830029 -0.6008235 0.1609894 0.7830029 -0.3806861 -0.102004 0.9190611 -0.3806861 -0.102004 0.9190611 -0.3806861 -0.102004 0.9190611 -0.380686 -0.1020036 0.9190612 -0.380686 -0.1020036 0.9190612 -0.380686 -0.1020036 0.9190612 -0.2786817 -0.2786817 0.9190609 -0.2786817 -0.2786817 0.9190609 -0.2786817 -0.2786817 0.9190609 -0.2786817 -0.2786817 0.9190609 -0.2786817 -0.2786817 0.9190609 -0.2786817 -0.2786817 0.9190609 -0.102004 -0.380686 0.9190612 -0.102004 -0.380686 0.9190612 -0.102004 -0.380686 0.9190612 -0.1020037 -0.3806863 0.9190611 -0.1020037 -0.3806863 0.9190611 -0.1020037 -0.3806863 0.9190611 0.102004 -0.3806861 0.9190611 0.102004 -0.3806861 0.9190611 0.102004 -0.3806861 0.9190611 0.1020036 -0.380686 0.9190612 0.1020036 -0.380686 0.9190612 0.1020036 -0.380686 0.9190612 0.2786817 -0.2786817 0.9190609 0.2786817 -0.2786817 0.9190609 0.2786817 -0.2786817 0.9190609 0.2786817 -0.2786817 0.9190609 0.2786817 -0.2786817 0.9190609 0.2786817 -0.2786817 0.9190609 0.380686 -0.102004 0.9190612 0.380686 -0.102004 0.9190612 0.380686 -0.102004 0.9190612 0.3806863 -0.1020037 0.9190611 0.3806863 -0.1020037 0.9190611 0.3806863 -0.1020037 0.9190611 0.3806861 0.102004 0.9190611 0.3806861 0.102004 0.9190611 0.3806861 0.102004 0.9190611 0.380686 0.1020036 0.9190612 0.380686 0.1020036 0.9190612 0.380686 0.1020036 0.9190612 0.2786817 0.2786817 0.9190609 0.2786817 0.2786817 0.9190609 0.2786817 0.2786817 0.9190609 0.2786817 0.2786817 0.9190609 0.2786817 0.2786817 0.9190609 0.2786817 0.2786817 0.9190609 0.102004 0.380686 0.9190612 0.102004 0.380686 0.9190612 0.102004 0.380686 0.9190612 0.1020037 0.3806863 0.9190611 0.1020037 0.3806863 0.9190611 0.1020037 0.3806863 0.9190611 -0.102004 0.3806861 0.9190611 -0.102004 0.3806861 0.9190611 -0.102004 0.3806861 0.9190611 -0.1020036 0.380686 0.9190612 -0.1020036 0.380686 0.9190612 -0.1020036 0.380686 0.9190612 -0.2786817 0.2786817 0.9190609 -0.2786817 0.2786817 0.9190609 -0.2786817 0.2786817 0.9190609 -0.2786817 0.2786817 0.9190609 -0.2786817 0.2786817 0.9190609 -0.2786817 0.2786817 0.9190609 -0.380686 0.102004 0.9190612 -0.380686 0.102004 0.9190612 -0.380686 0.102004 0.9190612 -0.3806863 0.1020037 0.9190611 -0.3806863 0.1020037 0.9190611 -0.3806863 0.1020037 0.9190611 -0.1304458 -0.0349525 0.9908391 -0.1304458 -0.0349525 0.9908391 -0.1304458 -0.0349525 0.9908391 1.0 0.0 0.0 1.0 0.0 0.0 -0.0954928 -0.0954928 0.9908392 -0.0954928 -0.0954928 0.9908392 -0.0954928 -0.0954928 0.9908392 1.0 0.0 0.0 1.0 0.0 0.0 -0.0349525 -0.1304458 0.9908391 -0.0349525 -0.1304458 0.9908391 -0.0349525 -0.1304458 0.9908391 1.0 0.0 0.0 1.0 0.0 0.0 0.0349525 -0.1304458 0.9908391 0.0349525 -0.1304458 0.9908391 0.0349525 -0.1304458 0.9908391 1.0 0.0 0.0 1.0 0.0 0.0 0.0954928 -0.0954928 0.9908392 0.0954928 -0.0954928 0.9908392 0.0954928 -0.0954928 0.9908392 1.0 0.0 0.0 1.0 0.0 0.0 0.1304458 -0.0349525 0.9908391 0.1304458 -0.0349525 0.9908391 0.1304458 -0.0349525 0.9908391 1.0 0.0 0.0 1.0 0.0 0.0 0.1304458 0.0349525 0.9908391 0.1304458 0.0349525 0.9908391 0.1304458 0.0349525 0.9908391 1.0 0.0 0.0 1.0 0.0 0.0 0.0954928 0.0954928 0.9908392 0.0954928 0.0954928 0.9908392 0.0954928 0.0954928 0.9908392 1.0 0.0 0.0 1.0 0.0 0.0 0.0349525 0.1304458 0.9908391 0.0349525 0.1304458 0.9908391 0.0349525 0.1304458 0.9908391 1.0 0.0 0.0 1.0 0.0 0.0 -0.0349525 0.1304458 0.9908391 -0.0349525 0.1304458 0.9908391 -0.0349525 0.1304458 0.9908391 1.0 0.0 0.0 1.0 0.0 0.0 -0.0954928 0.0954928 0.9908392 -0.0954928 0.0954928 0.9908392 -0.0954928 0.0954928 0.9908392 1.0 0.0 0.0 1.0 0.0 0.0 -0.1304458 0.0349525 0.9908391 -0.1304458 0.0349525 0.9908391 -0.1304458 0.0349525 0.9908391 1.0 0.0 0.0 1.0 0.0 0.0 1.0 0.0 0.0 1.0 0.0 0.0 -0.1304453 -0.0349524 -0.9908392 -0.1304453 -0.0349524 -0.9908392 -0.1304453 -0.0349524 -0.9908392 1.0 0.0 0.0 1.0 0.0 0.0 -0.0954924 -0.0954924 -0.9908392 -0.0954924 -0.0954924 -0.9908392 -0.0954924 -0.0954924 -0.9908392 1.0 0.0 0.0 1.0 0.0 0.0 -0.0349524 -0.1304453 -0.9908392 -0.0349524 -0.1304453 -0.9908392 -0.0349524 -0.1304453 -0.9908392 1.0 0.0 0.0 1.0 0.0 0.0 0.0349524 -0.1304453 -0.9908392 0.0349524 -0.1304453 -0.9908392 0.0349524 -0.1304453 -0.9908392 1.0 0.0 0.0 1.0 0.0 0.0 0.0954924 -0.0954924 -0.9908392 0.0954924 -0.0954924 -0.9908392 0.0954924 -0.0954924 -0.9908392 1.0 0.0 0.0 1.0 0.0 0.0 0.1304453 -0.0349524 -0.9908392 0.1304453 -0.0349524 -0.9908392 0.1304453 -0.0349524 -0.9908392 1.0 0.0 0.0 1.0 0.0 0.0 0.1304453 0.0349524 -0.9908392 0.1304453 0.0349524 -0.9908392 0.1304453 0.0349524 -0.9908392 1.0 0.0 0.0 1.0 0.0 0.0 0.0954924 0.0954924 -0.9908392 0.0954924 0.0954924 -0.9908392 0.0954924 0.0954924 -0.9908392 1.0 0.0 0.0 1.0 0.0 0.0 0.0349524 0.1304453 -0.9908392 0.0349524 0.1304453 -0.9908392 0.0349524 0.1304453 -0.9908392 1.0 0.0 0.0 1.0 0.0 0.0 -0.0349524 0.1304453 -0.9908392 -0.0349524 0.1304453 -0.9908392 -0.0349524 0.1304453 -0.9908392 1.0 0.0 0.0 1.0 0.0 0.0 -0.0954924 0.0954924 -0.9908392 -0.0954924 0.0954924 -0.9908392 -0.0954924 0.0954924 -0.9908392 1.0 0.0 0.0 1.0 0.0 0.0 -0.1304453 0.0349524 -0.9908392 -0.1304453 0.0349524 -0.9908392 -0.1304453 0.0349524 -0.9908392 -0.3806896 -0.1020046 -0.9190596 -0.3806896 -0.1020046 -0.9190596 -0.3806896 -0.1020046 -0.9190596 -0.3806892 -0.1020049 -0.9190597 -0.3806892 -0.1020049 -0.9190597 -0.3806892 -0.1020049 -0.9190597 -0.2786841 -0.2786841 -0.9190595 -0.2786841 -0.2786841 -0.9190595 -0.2786841 -0.2786841 -0.9190595 -0.2786841 -0.2786841 -0.9190595 -0.2786841 -0.2786841 -0.9190595 -0.2786841 -0.2786841 -0.9190595 -0.1020045 -0.3806893 -0.9190598 -0.1020045 -0.3806893 -0.9190598 -0.1020045 -0.3806893 -0.9190598 -0.1020049 -0.3806894 -0.9190597 -0.1020049 -0.3806894 -0.9190597 -0.1020049 -0.3806894 -0.9190597 0.1020046 -0.3806896 -0.9190596 0.1020046 -0.3806896 -0.9190596 0.1020046 -0.3806896 -0.9190596 0.1020049 -0.3806892 -0.9190597 0.1020049 -0.3806892 -0.9190597 0.1020049 -0.3806892 -0.9190597 0.2786841 -0.2786841 -0.9190595 0.2786841 -0.2786841 -0.9190595 0.2786841 -0.2786841 -0.9190595 0.2786841 -0.2786841 -0.9190595 0.2786841 -0.2786841 -0.9190595 0.2786841 -0.2786841 -0.9190595 0.3806893 -0.1020045 -0.9190598 0.3806893 -0.1020045 -0.9190598 0.3806893 -0.1020045 -0.9190598 0.3806894 -0.1020049 -0.9190597 0.3806894 -0.1020049 -0.9190597 0.3806894 -0.1020049 -0.9190597 0.3806896 0.1020046 -0.9190596 0.3806896 0.1020046 -0.9190596 0.3806896 0.1020046 -0.9190596 0.3806892 0.1020049 -0.9190597 0.3806892 0.1020049 -0.9190597 0.3806892 0.1020049 -0.9190597 0.2786841 0.2786841 -0.9190595 0.2786841 0.2786841 -0.9190595 0.2786841 0.2786841 -0.9190595 0.2786841 0.2786841 -0.9190595 0.2786841 0.2786841 -0.9190595 0.2786841 0.2786841 -0.9190595 0.1020045 0.3806893 -0.9190598 0.1020045 0.3806893 -0.9190598 0.1020045 0.3806893 -0.9190598 0.1020049 0.3806894 -0.9190597 0.1020049 0.3806894 -0.9190597 0.1020049 0.3806894 -0.9190597 -0.1020046 0.3806896 -0.9190596 -0.1020046 0.3806896 -0.9190596 -0.1020046 0.3806896 -0.9190596 -0.1020049 0.3806892 -0.9190597 -0.1020049 0.3806892 -0.9190597 -0.1020049 0.3806892 -0.9190597 -0.2786841 0.2786841 -0.9190595 -0.2786841 0.2786841 -0.9190595 -0.2786841 0.2786841 -0.9190595 -0.2786841 0.2786841 -0.9190595 -0.2786841 0.2786841 -0.9190595 -0.2786841 0.2786841 -0.9190595 -0.3806893 0.1020045 -0.9190598 -0.3806893 0.1020045 -0.9190598 -0.3806893 0.1020045 -0.9190598 -0.3806894 0.1020049 -0.9190597 -0.3806894 0.1020049 -0.9190597 -0.3806894 0.1020049 -0.9190597 -0.6008236 -0.1609894 -0.7830028 -0.6008236 -0.1609894 -0.7830028 -0.6008236 -0.1609894 -0.7830028 -0.6008213 -0.1609908 -0.7830043 -0.6008213 -0.1609908 -0.7830043 -0.6008213 -0.1609908 -0.7830043 -0.4398331 -0.4398331 -0.7830029 -0.4398331 -0.4398331 -0.7830029 -0.4398331 -0.4398331 -0.7830029 -0.4398331 -0.4398331 -0.783003 -0.4398331 -0.4398331 -0.783003 -0.4398331 -0.4398331 -0.783003</float_array>
                    <technique_common>
                        <accessor count="840" source="#geometry0-normal-array" stride="3">
                            <param name="X" type="float"/>
                            <param name="Y" type="float"/>
                            <param name="Z" type="float"/>
                        </accessor>
                    </technique_common>
                </source>
                <vertices id="geometry0-vertex">
                    <input semantic="POSITION" source="#geometry0-position"/>
                </vertices>
                <triangles count="288" material="default_ai_0.2_sh_0.2_tr_0.0_dc_r_0.8_g_0.8_b_0.8_sc_r_1.0_g_1.0_b_1.0_ec_r_0.0_g_0.0_b_0_tri">
                    <input offset="0" semantic="VERTEX" source="#geometry0-vertex"/>
                    <input offset="1" semantic="NORMAL" source="#geometry0-normal"/>
                    <p>15 0 16 1 28 2 15 3 28 4 27 5 16 6 17 7 29 8 16 9 29 10 28 11 17 12 18 13 30 14 17 15 30 16 29 17 18 18 19 19 31 20 18 21 31 22 30 23 19 24 20 25 32 26 19 27 32 28 31 29 20 30 21 31 33 32 20 33 33 34 32 35 21 36 22 37 34 38 21 39 34 40 33 41 22 42 23 43 35 44 22 45 35 46 34 47 23 48 24 49 36 50 23 51 36 52 35 53 24 54 14 55 26 56 24 57 26 58 36 59 26 60 25 61 37 62 26 63 37 64 38 65 25 66 27 67 39 68 25 69 39 70 37 71 27 72 28 73 40 74 27 75 40 76 39 77 28 78 29 79 41 80 28 81 41 82 40 83 29 84 30 85 42 86 29 87 42 88 41 89 30 90 31 91 43 92 30 93 43 94 42 95 31 96 32 97 44 98 31 99 44 100 43 101 32 102 33 103 45 104 32 105 45 106 44 107 33 108 34 109 46 110 33 111 46 112 45 113 34 114 35 115 47 116 34 117 47 118 46 119 35 120 36 121 48 122 35 123 48 124 47 125 36 126 26 127 38 128 36 129 38 130 48 131 38 132 37 133 49 134 38 135 49 136 50 137 37 138 39 139 51 140 37 141 51 142 49 143 39 144 40 145 52 146 39 147 52 148 51 149 40 150 41 151 53 152 40 153 53 154 52 155 41 156 42 157 54 158 41 159 54 160 53 161 42 162 43 163 55 164 42 165 55 166 54 167 43 168 44 169 56 170 43 171 56 172 55 173 44 174 45 175 57 176 44 177 57 178 56 179 45 180 46 181 58 182 45 183 58 184 57 185 46 186 47 187 59 188 46 189 59 190 58 191 47 192 48 193 60 194 47 195 60 196 59 197 48 198 38 199 50 200 48 201 50 202 60 203 50 204 49 205 61 206 50 207 61 208 62 209 49 210 51 211 63 212 49 213 63 214 61 215 51 216 52 217 64 218 51 219 64 220 63 221 52 222 53 223 65 224 52 225 65 226 64 227 53 228 54 229 66 230 53 231 66 232 65 233 54 234 55 235 67 236 54 237 67 238 66 239 55 240 56 241 68 242 55 243 68 244 67 245 56 246 57 247 69 248 56 249 69 250 68 251 57 252 58 253 70 254 57 255 70 256 69 257 58 258 59 259 71 260 58 261 71 262 70 263 59 264 60 265 72 266 59 267 72 268 71 269 60 270 50 271 62 272 60 273 62 274 72 275 62 276 61 277 73 278 62 279 73 280 74 281 61 282 63 283 75 284 61 285 75 286 73 287 63 288 64 289 76 290 63 291 76 292 75 293 64 294 65 295 77 296 64 297 77 298 76 299 65 300 66 301 78 302 65 303 78 304 77 305 66 306 67 307 79 308 66 309 79 310 78 311 67 312 68 313 80 314 67 315 80 316 79 317 68 318 69 319 81 320 68 321 81 322 80 323 69 324 70 325 82 326 69 327 82 328 81 329 70 330 71 331 83 332 70 333 83 334 82 335 71 336 72 337 84 338 71 339 84 340 83 341 72 342 62 343 74 344 72 345 74 346 84 347 74 348 73 349 85 350 74 351 85 352 86 353 73 354 75 355 87 356 73 357 87 358 85 359 75 360 76 361 88 362 75 363 88 364 87 365 76 366 77 367 89 368 76 369 89 370 88 371 77 372 78 373 90 374 77 375 90 376 89 377 78 378 79 379 91 380 78 381 91 382 90 383 79 384 80 385 92 386 79 387 92 388 91 389 80 390 81 391 93 392 80 393 93 394 92 395 81 396 82 397 94 398 81 399 94 400 93 401 82 402 83 403 95 404 82 405 95 406 94 407 83 408 84 409 96 410 83 411 96 412 95 413 84 414 74 415 86 416 84 417 86 418 96 419 86 420 85 421 97 422 86 423 97 424 98 425 85 426 87 427 99 428 85 429 99 430 97 431 87 432 88 433 100 434 87 435 100 436 99 437 88 438 89 439 101 440 88 441 101 442 100 443 89 444 90 445 102 446 89 447 102 448 101 449 90 450 91 451 103 452 90 453 103 454 102 455 91 456 92 457 104 458 91 459 104 460 103 461 92 462 93 463 105 464 92 465 105 466 104 467 93 468 94 469 106 470 93 471 106 472 105 473 94 474 95 475 107 476 94 477 107 478 106 479 95 480 96 481 108 482 95 483 108 484 107 485 96 486 86 487 98 488 96 489 98 490 108 491 98 492 97 493 109 494 98 495 109 496 110 497 97 498 99 499 111 500 97 501 111 502 109 503 99 504 100 505 112 506 99 507 112 508 111 509 100 510 101 511 113 512 100 513 113 514 112 515 101 516 102 517 114 518 101 519 114 520 113 521 102 522 103 523 115 524 102 525 115 526 114 527 103 528 104 529 116 530 103 531 116 532 115 533 104 534 105 535 117 536 104 537 117 538 116 539 105 540 106 541 118 542 105 543 118 544 117 545 106 546 107 547 119 548 106 549 119 550 118 551 107 552 108 553 120 554 107 555 120 556 119 557 108 558 98 559 110 560 108 561 110 562 120 563 110 564 109 565 121 566 110 567 121 568 122 569 109 570 111 571 123 572 109 573 123 574 121 575 111 576 112 577 124 578 111 579 124 580 123 581 112 582 113 583 125 584 112 585 125 586 124 587 113 588 114 589 126 590 113 591 126 592 125 593 114 594 115 595 127 596 114 597 127 598 126 599 115 600 116 601 128 602 115 603 128 604 127 605 116 606 117 607 129 608 116 609 129 610 128 611 117 612 118 613 130 614 117 615 130 616 129 617 118 618 119 619 131 620 118 621 131 622 130 623 119 624 120 625 132 626 119 627 132 628 131 629 120 630 110 631 122 632 120 633 122 634 132 635 122 636 121 637 133 638 122 639 133 640 133 640 121 641 123 642 133 643 121 644 133 645 133 645 123 646 124 647 133 648 123 649 133 650 133 650 124 651 125 652 133 653 124 654 133 655 133 655 125 656 126 657 133 658 125 659 133 660 133 660 126 661 127 662 133 663 126 664 133 665 133 665 127 666 128 667 133 668 127 669 133 670 133 670 128 671 129 672 133 673 128 674 133 675 133 675 129 676 130 677 133 678 129 679 133 680 133 680 130 681 131 682 133 683 130 684 133 685 133 685 131 686 132 687 133 688 131 689 133 690 133 690 132 691 122 692 133 693 132 694 133 695 133 695 0 696 0 696 1 697 0 698 1 699 2 700 0 701 0 701 3 702 0 703 3 704 1 705 0 706 0 706 4 707 0 708 4 709 3 710 0 711 0 711 5 712 0 713 5 714 4 715 0 716 0 716 6 717 0 718 6 719 5 720 0 721 0 721 7 722 0 723 7 724 6 725 0 726 0 726 8 727 0 728 8 729 7 730 0 731 0 731 9 732 0 733 9 734 8 735 0 736 0 736 10 737 0 738 10 739 9 740 0 741 0 741 11 742 0 743 11 744 10 745 0 746 0 746 12 747 0 748 12 749 11 750 0 751 0 751 2 752 0 753 2 754 12 755 2 756 1 757 13 758 2 759 13 760 14 761 1 762 3 763 15 764 1 765 15 766 13 767 3 768 4 769 16 770 3 771 16 772 15 773 4 774 5 775 17 776 4 777 17 778 16 779 5 780 6 781 18 782 5 783 18 784 17 785 6 786 7 787 19 788 6 789 19 790 18 791 7 792 8 793 20 794 7 795 20 796 19 797 8 798 9 799 21 800 8 801 21 802 20 803 9 804 10 805 22 806 9 807 22 808 21 809 10 810 11 811 23 812 10 813 23 814 22 815 11 816 12 817 24 818 11 819 24 820 23 821 12 822 2 823 14 824 12 825 14 826 24 827 14 828 13 829 25 830 14 831 25 832 26 833 13 834 15 835 27 836 13 837 27 838 25 839</p>
                </triangles>
            </mesh>
        </geometry>
    </library_geometries>
    <library_visual_scenes>
        <visual_scene id="Building_41_CROWN1">
            <node>
                <instance_geometry url="#geometry0">
                    <bind_material>
                        <technique_common>
                            <instance_material symbol="default_ai_0.2_sh_0.2_tr_0.0_dc_r_0.8_g_0.8_b_0.8_sc_r_1.0_g_1.0_b_1.0_ec_r_0.0_g_0.0_b_0_tri" target="#default_ai_0.2_sh_0.2_tr_0.0_dc_r_0.8_g_0.8_b_0.8_sc_r_1.0_g_1.0_b_1.0_ec_r_0.0_g_0.0_b_0_mat"/>
                        </technique_common>
                    </bind_material>
                </instance_geometry>
            </node>
        </visual_scene>
    </library_visual_scenes>
    <scene>
        <instance_visual_scene url="#Building_41_CROWN1"/>
    </scene>
</COLLADA>
