<?xml version="1.0" encoding="UTF-8" standalone="yes"?>
<COLLADA xmlns="http://www.collada.org/2005/11/COLLADASchema" version="1.4.1">
    <asset>
        <contributor>
            <authoring_tool>3D City Database Importer/Exporter, version 5.5.3; Chair of Geoinformatics, Technical University of Munich</authoring_tool>
        </contributor>
        <created>2026-09-25T14:44:53.205</created>
        <modified>2026-09-25T14:44:53.205</modified>
        <unit meter="1.0" name="meters"/>
        <up_axis>Z_UP</up_axis>
    </asset>
    <library_materials>
        <material id="default_ai_0.2_sh_0.2_tr_0.0_dc_r_0.8_g_0.8_b_0.8_sc_r_1.0_g_1.0_b_1.0_ec_r_0.0_g_0.0_b_0_mat">
            <instance_effect url="#default_ai_0.2_sh_0.2_tr_0.0_dc_r_0.8_g_0.8_b_0.8_sc_r_1.0_g_1.0_b_1.0_ec_r_0.0_g_0.0_b_0_eff"/>
        </material>
    </library_materials>
    <library_effects>
        <effect id="default_ai_0.2_sh_0.2_tr_0.0_dc_r_0.8_g_0.8_b_0.8_sc_r_1.0_g_1.0_b_1.0_ec_r_0.0_g_0.0_b_0_eff">
            <profile_COMMON>
                <technique sid="COMMON">
                    <lambert>
                        <emission>
                            <color>0.0 0.0 0.0 1.0</color>
                        </emission>
                        <diffuse>
                            <color>0.8 0.8 0.8 1.0</color>
                        </diffuse>
                        <reflective>
                            <color>1.0 1.0 1.0 1.0</color>
                        </reflective>
                        <reflectivity>
                            <float>0.2</float>
                        </reflectivity>
                        <transparent opaque="A_ONE">
                            <color>1.0 1.0 1.0 1.0</color>
                        </transparent>
                        <transparency>
                            <float>1.0</float>
                        </transparency>
                    </lambert>
                </technique>
                <extra>
                    <technique profile="GOOGLEEARTH">
                        <double_sided>0</double_sided>
                    </technique>
                </extra>
            </profile_COMMON>
        </effect>
    </library_effects>
    <library_geometries>
        <geometry id="geometry0">
            <mesh>
                <source id="geometry0-position">
                    <float_array id="geometry0-position-array" count="402">0.0 0.0 2.3 0.2577656 0.1488215 2.2608149 0.2976419 0.0 2.2608149 0.1488215 0.2577656 2.2608149 0.0 0.2976419 2.2608149 -0.1488215 0.2577656 2.2608149 -0.2577656 0.1488215 2.2608149 -0.2976419 0.0 2.2608149 -0.2577656 -0.1488215 2.2608149 -0.1488215 -0.2577656 2.2608149 0.0 -0.2976419 2.2608149 0.1488215 -0.2577656 2.2608149 0.2577656 -0.1488215 2.2608149 0.4979649 0.2875 2.1459287 0.575 0.0 2.1459287 0.2875 0.497965 2.1459287 0.0 0.575 2.1459287 -0.2875 0.497965 2.1459287 -0.4979649 0.2875 2.1459287 -0.575 0.0 2.1459287 -0.4979649 -0.2875 2.1459287 -0.2875 -0.497965 2.1459287 0.0 -0.575 2.1459287 0.2875 -0.497965 2.1459287 0.4979649 -0.2875 2.1459287 0.7042278 0.406586 1.963173 0.8131731 0.0 1.963173 0.4065859 0.7042278 1.963173 0.0 0.8131731 1.963173 -0.4065859 0.7042278 1.963173 -0.7042278 0.406586 1.963173 -0.8131731 0.0 1.963173 -0.7042278 -0.406586 1.963173 -0.4065859 -0.7042278 1.963173 0.0 -0.8131731 1.963173 0.4065859 -0.7042278 1.963173 0.7042278 -0.406586 1.963173 0.8625 0.497965 1.725 0.9959288 0.0 1.725 0.4979649 0.8625 1.725 0.0 0.9959288 1.725 -0.4979649 0.8625 1.725 -0.8625 0.497965 1.725 -0.9959288 0.0 1.725 -0.8625 -0.497965 1.725 -0.4979649 -0.8625 1.725 0.0 -0.9959288 1.725 0.4979649 -0.8625 1.725 0.8625 -0.497965 1.725 0.9619934 0.5554074 1.4476419 1.1108149 0.0 1.4476419 0.5554075 0.9619934 1.4476419 0.0 1.1108149 1.4476419 -0.5554075 0.9619934 1.4476419 -0.9619934 0.5554074 1.4476419 -1.1108149 0.0 1.4476419 -0.9619934 -0.5554074 1.4476419 -0.5554075 -0.9619934 1.4476419 0.0 -1.1108149 1.4476419 0.5554075 -0.9619934 1.4476419 0.9619934 -0.5554074 1.4476419 0.9959288 0.575 1.15 1.15 0.0 1.15 0.575 0.9959288 1.15 0.0 1.15 1.15 -0.575 0.9959288 1.15 -0.9959288 0.575 1.15 -1.15 0.0 1.15 -0.9959288 -0.575 1.15 -0.575 -0.9959288 1.15 0.0 -1.15 1.15 0.575 -0.9959288 1.15 0.9959288 -0.575 1.15 0.9619934 0.5554074 0.8523582 1.1108149 0.0 0.8523582 0.5554075 0.9619934 0.8523582 0.0 1.1108149 0.8523582 -0.5554075 0.9619934 0.8523582 -0.9619934 0.5554074 0.8523582 -1.1108149 0.0 0.8523582 -0.9619934 -0.5554074 0.8523582 -0.5554075 -0.9619934 0.8523582 0.0 -1.1108149 0.8523582 0.5554075 -0.9619934 0.8523582 0.9619934 -0.5554074 0.8523582 0.8625 0.497965 0.575 0.9959288 0.0 0.575 0.4979649 0.8625 0.575 0.0 0.9959288 0.575 -0.4979649 0.8625 0.575 -0.8625 0.497965 0.575 -0.9959288 0.0 0.575 -0.8625 -0.497965 0.575 -0.4979649 -0.8625 0.575 0.0 -0.9959288 0.575 0.4979649 -0.8625 0.575 0.8625 -0.497965 0.575 0.7042278 0.406586 0.3368269 0.8131731 0.0 0.3368269 0.4065859 0.7042278 0.3368269 0.0 0.8131731 0.3368269 -0.4065859 0.7042278 0.3368269 -0.7042278 0.406586 0.3368269 -0.8131731 0.0 0.3368269 -0.7042278 -0.406586 0.3368269 -0.4065859 -0.7042278 0.3368269 0.0 -0.8131731 0.3368269 0.4065859 -0.7042278 0.3368269 0.7042278 -0.406586 0.3368269 0.4979649 0.2875 0.1540712 0.575 0.0 0.1540712 0.2875 0.497965 0.1540712 0.0 0.575 0.1540712 -0.2875 0.497965 0.1540712 -0.4979649 0.2875 0.1540712 -0.575 0.0 0.1540712 -0.4979649 -0.2875 0.1540712 -0.2875 -0.497965 0.1540712 0.0 -0.575 0.1540712 0.2875 -0.497965 0.1540712 0.4979649 -0.2875 0.1540712 0.2577656 0.1488215 0.0391851 0.2976419 0.0 0.0391851 0.1488215 0.2577656 0.0391851 0.0 0.2976419 0.0391851 -0.1488215 0.2577656 0.0391851 -0.2577656 0.1488215 0.0391851 -0.2976419 0.0 0.0391851 -0.2577656 -0.1488215 0.0391851 -0.1488215 -0.2577656 0.0391851 0.0 -0.2976419 0.0391851 0.1488215 -0.2577656 0.0391851 0.2577656 -0.1488215 0.0391851 0.0 0.0 0.0</float_array>
                    <technique_common>
                        <accessor count="134" source="#geometry0-position-array" stride="3">
                            <param name="X" type="float"/>
                            <param name="Y" type="float"/>
                            <param name="Z" type="float"/>
                        </accessor>
                    </technique_common>
                </source>
                <source id="geometry0-normal">
                    <float_array id="geometry0-normal-array" count="2520">-0.7014578 -0.7014578 0.1261501 -0.7014578 -0.7014578 0.1261501 -0.7014578 -0.7014578 0.1261501 -0.7014578 -0.7014578 0.1261502 -0.7014578 -0.7014578 0.1261502 -0.7014578 -0.7014578 0.1261502 -0.2567521 -0.958209 0.1261498 -0.2567521 -0.958209 0.1261498 -0.2567521 -0.958209 0.1261498 -0.2567523 -0.9582089 0.1261503 -0.2567523 -0.9582089 0.1261503 -0.2567523 -0.9582089 0.1261503 0.2567521 -0.958209 0.1261503 0.2567521 -0.958209 0.1261503 0.2567521 -0.958209 0.1261503 0.2567523 -0.958209 0.1261498 0.2567523 -0.958209 0.1261498 0.2567523 -0.958209 0.1261498 0.7014578 -0.7014578 0.1261501 0.7014578 -0.7014578 0.1261501 0.7014578 -0.7014578 0.1261501 0.7014578 -0.7014578 0.1261502 0.7014578 -0.7014578 0.1261502 0.7014578 -0.7014578 0.1261502 0.958209 -0.2567521 0.1261498 0.958209 -0.2567521 0.1261498 0.958209 -0.2567521 0.1261498 0.9582089 -0.2567523 0.1261503 0.9582089 -0.2567523 0.1261503 0.9582089 -0.2567523 0.1261503 0.958209 0.2567521 0.1261503 0.958209 0.2567521 0.1261503 0.958209 0.2567521 0.1261503 0.958209 0.2567523 0.1261498 0.958209 0.2567523 0.1261498 0.958209 0.2567523 0.1261498 0.7014578 0.7014578 0.1261501 0.7014578 0.7014578 0.1261501 0.7014578 0.7014578 0.1261501 0.7014578 0.7014578 0.1261502 0.7014578 0.7014578 0.1261502 0.7014578 0.7014578 0.1261502 0.2567521 0.958209 0.1261498 0.2567521 0.958209 0.1261498 0.2567521 0.958209 0.1261498 0.2567523 0.9582089 0.1261503 0.2567523 0.9582089 0.1261503 0.2567523 0.9582089 0.1261503 -0.2567521 0.958209 0.1261503 -0.2567521 0.958209 0.1261503 -0.2567521 0.958209 0.1261503 -0.2567523 0.958209 0.1261498 -0.2567523 0.958209 0.1261498 -0.2567523 0.958209 0.1261498 -0.7014578 0.7014578 0.1261501 -0.7014578 0.7014578 0.1261501 -0.7014578 0.7014578 0.1261501 -0.7014578 0.7014578 0.1261502 -0.7014578 0.7014578 0.1261502 -0.7014578 0.7014578 0.1261502 -0.958209 0.2567521 0.1261498 -0.958209 0.2567521 0.1261498 -0.958209 0.2567521 0.1261498 -0.9582089 0.2567523 0.1261503 -0.9582089 0.2567523 0.1261503 -0.9582089 0.2567523 0.1261503 -0.896809 -0.2403001 0.3714692 -0.896809 -0.2403001 0.3714692 -0.896809 -0.2403001 0.3714692 -0.8968083 -0.2402981 0.3714723 -0.8968083 -0.2402981 0.3714723 -0.8968083 -0.2402981 0.3714723 -0.65651 -0.65651 0.3714691 -0.65651 -0.65651 0.3714691 -0.65651 -0.65651 0.3714691 -0.6565099 -0.6565099 0.3714691 -0.6565099 -0.6565099 0.3714691 -0.6565099 -0.6565099 0.3714691 -0.2402998 -0.8968079 0.3714721 -0.2402998 -0.8968079 0.3714721 -0.2402998 -0.8968079 0.3714721 -0.2402984 -0.8968096 0.371469 -0.2402984 -0.8968096 0.371469 -0.2402984 -0.8968096 0.371469 0.2403001 -0.896809 0.3714692 0.2403001 -0.896809 0.3714692 0.2403001 -0.896809 0.3714692 0.2402981 -0.8968083 0.3714723 0.2402981 -0.8968083 0.3714723 0.2402981 -0.8968083 0.3714723 0.65651 -0.65651 0.3714691 0.65651 -0.65651 0.3714691 0.65651 -0.65651 0.3714691 0.6565099 -0.6565099 0.3714691 0.6565099 -0.6565099 0.3714691 0.6565099 -0.6565099 0.3714691 0.8968079 -0.2402998 0.3714721 0.8968079 -0.2402998 0.3714721 0.8968079 -0.2402998 0.3714721 0.8968096 -0.2402984 0.371469 0.8968096 -0.2402984 0.371469 0.8968096 -0.2402984 0.371469 0.896809 0.2403001 0.3714692 0.896809 0.2403001 0.3714692 0.896809 0.2403001 0.3714692 0.8968083 0.2402981 0.3714723 0.8968083 0.2402981 0.3714723 0.8968083 0.2402981 0.3714723 0.65651 0.65651 0.3714691 0.65651 0.65651 0.3714691 0.65651 0.65651 0.3714691 0.6565099 0.6565099 0.3714691 0.6565099 0.6565099 0.3714691 0.6565099 0.6565099 0.3714691 0.2402998 0.8968079 0.3714721 0.2402998 0.8968079 0.3714721 0.2402998 0.8968079 0.3714721 0.2402984 0.8968096 0.371469 0.2402984 0.8968096 0.371469 0.2402984 0.8968096 0.371469 -0.2403001 0.896809 0.3714692 -0.2403001 0.896809 0.3714692 -0.2403001 0.896809 0.3714692 -0.2402981 0.8968083 0.3714723 -0.2402981 0.8968083 0.3714723 -0.2402981 0.8968083 0.3714723 -0.65651 0.65651 0.3714691 -0.65651 0.65651 0.3714691 -0.65651 0.65651 0.3714691 -0.6565099 0.6565099 0.3714691 -0.6565099 0.6565099 0.3714691 -0.6565099 0.6565099 0.3714691 -0.8968079 0.2402998 0.3714721 -0.8968079 0.2402998 0.3714721 -0.8968079 0.2402998 0.3714721 -0.8968096 0.2402984 0.371469 -0.8968096 0.2402984 0.371469 -0.8968096 0.2402984 0.371469 -0.7760127 -0.2079311 0.5954569 -0.7760127 -0.2079311 0.5954569 -0.7760127 -0.2079311 0.5954569 -0.7760144 -0.2079341 0.5954539 -0.7760144 -0.2079341 0.5954539 -0.7760144 -0.2079341 0.5954539 -0.5680802 -0.5680802 0.5954575 -0.5680802 -0.5680802 0.5954575 -0.5680802 -0.5680802 0.5954575 -0.5680803 -0.5680803 0.5954574 -0.5680803 -0.5680803 0.5954574 -0.5680803 -0.5680803 0.5954574 -0.2079317 -0.7760147 0.5954541 -0.2079317 -0.7760147 0.5954541 -0.2079317 -0.7760147 0.5954541 -0.2079334 -0.7760118 0.5954572 -0.2079334 -0.7760118 0.5954572 -0.2079334 -0.7760118 0.5954572 0.2079311 -0.7760127 0.5954569 0.2079311 -0.7760127 0.5954569 0.2079311 -0.7760127 0.5954569 0.2079341 -0.7760144 0.5954539 0.2079341 -0.7760144 0.5954539 0.2079341 -0.7760144 0.5954539 0.5680802 -0.5680802 0.5954575 0.5680802 -0.5680802 0.5954575 0.5680802 -0.5680802 0.5954575 0.5680803 -0.5680803 0.5954574 0.5680803 -0.5680803 0.5954574 0.5680803 -0.5680803 0.5954574 0.7760147 -0.2079317 0.5954541 0.7760147 -0.2079317 0.5954541 0.7760147 -0.2079317 0.5954541 0.7760118 -0.2079334 0.5954572 0.7760118 -0.2079334 0.5954572 0.7760118 -0.2079334 0.5954572 0.7760127 0.2079311 0.5954569 0.7760127 0.2079311 0.5954569 0.7760127 0.2079311 0.5954569 0.7760144 0.2079341 0.5954539 0.7760144 0.2079341 0.5954539 0.7760144 0.2079341 0.5954539 0.5680802 0.5680802 0.5954575 0.5680802 0.5680802 0.5954575 0.5680802 0.5680802 0.5954575 0.5680803 0.5680803 0.5954574 0.5680803 0.5680803 0.5954574 0.5680803 0.5680803 0.5954574 0.2079317 0.7760147 0.5954541 0.2079317 0.7760147 0.5954541 0.2079317 0.7760147 0.5954541 0.2079334 0.7760118 0.5954572 0.2079334 0.7760118 0.5954572 0.2079334 0.7760118 0.5954572 -0.2079311 0.7760127 0.5954569 -0.2079311 0.7760127 0.5954569 -0.2079311 0.7760127 0.5954569 -0.2079341 0.7760144 0.5954539 -0.2079341 0.7760144 0.5954539 -0.2079341 0.7760144 0.5954539 -0.5680802 0.5680802 0.5954575 -0.5680802 0.5680802 0.5954575 -0.5680802 0.5680802 0.5954575 -0.5680803 0.5680803 0.5954574 -0.5680803 0.5680803 0.5954574 -0.5680803 0.5680803 0.5954574 -0.7760147 0.2079317 0.5954541 -0.7760147 0.2079317 0.5954541 -0.7760147 0.2079317 0.5954541 -0.7760118 0.2079334 0.5954572 -0.7760118 0.2079334 0.5954572 -0.7760118 0.2079334 0.5954572 -0.6008204 -0.1609906 0.7830052 -0.6008204 -0.1609906 0.7830052 -0.6008204 -0.1609906 0.7830052 -0.6008191 -0.1609882 0.7830065 -0.6008191 -0.1609882 0.7830065 -0.6008191 -0.1609882 0.7830065 -0.4398313 -0.4398313 0.7830049 -0.4398313 -0.4398313 0.7830049 -0.4398313 -0.4398313 0.7830049 -0.4398313 -0.4398313 0.783005 -0.4398313 -0.4398313 0.783005 -0.4398313 -0.4398313 0.783005 -0.1609902 -0.6008188 0.7830063 -0.1609902 -0.6008188 0.7830063 -0.1609902 -0.6008188 0.7830063 -0.1609888 -0.6008211 0.7830048 -0.1609888 -0.6008211 0.7830048 -0.1609888 -0.6008211 0.7830048 0.1609906 -0.6008204 0.7830052 0.1609906 -0.6008204 0.7830052 0.1609906 -0.6008204 0.7830052 0.1609882 -0.6008191 0.7830065 0.1609882 -0.6008191 0.7830065 0.1609882 -0.6008191 0.7830065 0.4398313 -0.4398313 0.7830049 0.4398313 -0.4398313 0.7830049 0.4398313 -0.4398313 0.7830049 0.4398313 -0.4398313 0.783005 0.4398313 -0.4398313 0.783005 0.4398313 -0.4398313 0.783005 0.6008188 -0.1609902 0.7830063 0.6008188 -0.1609902 0.7830063 0.6008188 -0.1609902 0.7830063 0.6008211 -0.1609888 0.7830048 0.6008211 -0.1609888 0.7830048 0.6008211 -0.1609888 0.7830048 0.6008204 0.1609906 0.7830052 0.6008204 0.1609906 0.7830052 0.6008204 0.1609906 0.7830052 0.6008191 0.1609882 0.7830065 0.6008191 0.1609882 0.7830065 0.6008191 0.1609882 0.7830065 0.4398313 0.4398313 0.7830049 0.4398313 0.4398313 0.7830049 0.4398313 0.4398313 0.7830049 0.4398313 0.4398313 0.783005 0.4398313 0.4398313 0.783005 0.4398313 0.4398313 0.783005 0.1609902 0.6008188 0.7830063 0.1609902 0.6008188 0.7830063 0.1609902 0.6008188 0.7830063 0.1609888 0.6008211 0.7830048 0.1609888 0.6008211 0.7830048 0.1609888 0.6008211 0.7830048 -0.1609906 0.6008204 0.7830052 -0.1609906 0.6008204 0.7830052 -0.1609906 0.6008204 0.7830052 -0.1609882 0.6008191 0.7830065 -0.1609882 0.6008191 0.7830065 -0.1609882 0.6008191 0.7830065 -0.4398313 0.4398313 0.7830049 -0.4398313 0.4398313 0.7830049 -0.4398313 0.4398313 0.7830049 -0.4398313 0.4398313 0.783005 -0.4398313 0.4398313 0.783005 -0.4398313 0.4398313 0.783005 -0.6008188 0.1609902 0.7830063 -0.6008188 0.1609902 0.7830063 -0.6008188 0.1609902 0.7830063 -0.6008211 0.1609888 0.7830048 -0.6008211 0.1609888 0.7830048 -0.6008211 0.1609888 0.7830048 -0.3806893 -0.1020049 0.9190596 -0.3806893 -0.1020049 0.9190596 -0.3806893 -0.1020049 0.9190596 -0.3806892 -0.1020045 0.9190598 -0.3806892 -0.1020045 0.9190598 -0.3806892 -0.1020045 0.9190598 -0.278684 -0.278684 0.9190595 -0.278684 -0.278684 0.9190595 -0.278684 -0.278684 0.9190595 -0.2786841 -0.2786841 0.9190595 -0.2786841 -0.2786841 0.9190595 -0.2786841 -0.2786841 0.9190595 -0.1020049 -0.3806891 0.9190597 -0.1020049 -0.3806891 0.9190597 -0.1020049 -0.3806891 0.9190597 -0.1020046 -0.3806896 0.9190596 -0.1020046 -0.3806896 0.9190596 -0.1020046 -0.3806896 0.9190596 0.1020049 -0.3806893 0.9190596 0.1020049 -0.3806893 0.9190596 0.1020049 -0.3806893 0.9190596 0.1020045 -0.3806892 0.9190598 0.1020045 -0.3806892 0.9190598 0.1020045 -0.3806892 0.9190598 0.278684 -0.278684 0.9190595 0.278684 -0.278684 0.9190595 0.278684 -0.278684 0.9190595 0.2786841 -0.2786841 0.9190595 0.2786841 -0.2786841 0.9190595 0.2786841 -0.2786841 0.9190595 0.3806891 -0.1020049 0.9190597 0.3806891 -0.1020049 0.9190597 0.3806891 -0.1020049 0.9190597 0.3806896 -0.1020046 0.9190596 0.3806896 -0.1020046 0.9190596 0.3806896 -0.1020046 0.9190596 0.3806893 0.1020049 0.9190596 0.3806893 0.1020049 0.9190596 0.3806893 0.1020049 0.9190596 0.3806892 0.1020045 0.9190598 0.3806892 0.1020045 0.9190598 0.3806892 0.1020045 0.9190598 0.278684 0.278684 0.9190595 0.278684 0.278684 0.9190595 0.278684 0.278684 0.9190595 0.2786841 0.2786841 0.9190595 0.2786841 0.2786841 0.9190595 0.2786841 0.2786841 0.9190595 0.1020049 0.3806891 0.9190597 0.1020049 0.3806891 0.9190597 0.1020049 0.3806891 0.9190597 0.1020046 0.3806896 0.9190596 0.1020046 0.3806896 0.9190596 0.1020046 0.3806896 0.9190596 -0.1020049 0.3806893 0.9190596 -0.1020049 0.3806893 0.9190596 -0.1020049 0.3806893 0.9190596 -0.1020045 0.3806892 0.9190598 -0.1020045 0.3806892 0.9190598 -0.1020045 0.3806892 0.9190598 -0.278684 0.278684 0.9190595 -0.278684 0.278684 0.9190595 -0.278684 0.278684 0.9190595 -0.2786841 0.2786841 0.9190595 -0.2786841 0.2786841 0.9190595 -0.2786841 0.2786841 0.9190595 -0.3806891 0.1020049 0.9190597 -0.3806891 0.1020049 0.9190597 -0.3806891 0.1020049 0.9190597 -0.3806896 0.1020046 0.9190596 -0.3806896 0.1020046 0.9190596 -0.3806896 0.1020046 0.9190596 -0.1304458 -0.0349525 0.9908391 -0.1304458 -0.0349525 0.9908391 -0.1304458 -0.0349525 0.9908391 1.0 0.0 0.0 1.0 0.0 0.0 -0.0954928 -0.0954928 0.9908392 -0.0954928 -0.0954928 0.9908392 -0.0954928 -0.0954928 0.9908392 1.0 0.0 0.0 1.0 0.0 0.0 -0.0349525 -0.1304458 0.9908391 -0.0349525 -0.1304458 0.9908391 -0.0349525 -0.1304458 0.9908391 1.0 0.0 0.0 1.0 0.0 0.0 0.0349525 -0.1304458 0.9908391 0.0349525 -0.1304458 0.9908391 0.0349525 -0.1304458 0.9908391 1.0 0.0 0.0 1.0 0.0 0.0 0.0954928 -0.0954928 0.9908392 0.0954928 -0.0954928 0.9908392 0.0954928 -0.0954928 0.9908392 1.0 0.0 0.0 1.0 0.0 0.0 0.1304458 -0.0349525 0.9908391 0.1304458 -0.0349525 0.9908391 0.1304458 -0.0349525 0.9908391 1.0 0.0 0.0 1.0 0.0 0.0 0.1304458 0.0349525 0.9908391 0.1304458 0.0349525 0.9908391 0.1304458 0.0349525 0.9908391 1.0 0.0 0.0 1.0 0.0 0.0 0.0954928 0.0954928 0.9908392 0.0954928 0.0954928 0.9908392 0.0954928 0.0954928 0.9908392 1.0 0.0 0.0 1.0 0.0 0.0 0.0349525 0.1304458 0.9908391 0.0349525 0.1304458 0.9908391 0.0349525 0.1304458 0.9908391 1.0 0.0 0.0 1.0 0.0 0.0 -0.0349525 0.1304458 0.9908391 -0.0349525 0.1304458 0.9908391 -0.0349525 0.1304458 0.9908391 1.0 0.0 0.0 1.0 0.0 0.0 -0.0954928 0.0954928 0.9908392 -0.0954928 0.0954928 0.9908392 -0.0954928 0.0954928 0.9908392 1.0 0.0 0.0 1.0 0.0 0.0 -0.1304458 0.0349525 0.9908391 -0.1304458 0.0349525 0.9908391 -0.1304458 0.0349525 0.9908391 1.0 0.0 0.0 1.0 0.0 0.0 1.0 0.0 0.0 1.0 0.0 0.0 -0.1304456 -0.0349525 -0.9908391 -0.1304456 -0.0349525 -0.9908391 -0.1304456 -0.0349525 -0.9908391 1.0 0.0 0.0 1.0 0.0 0.0 -0.0954927 -0.0954927 -0.9908392 -0.0954927 -0.0954927 -0.9908392 -0.0954927 -0.0954927 -0.9908392 1.0 0.0 0.0 1.0 0.0 0.0 -0.0349525 -0.1304456 -0.9908391 -0.0349525 -0.1304456 -0.9908391 -0.0349525 -0.1304456 -0.9908391 1.0 0.0 0.0 1.0 0.0 0.0 0.0349525 -0.1304456 -0.9908391 0.0349525 -0.1304456 -0.9908391 0.0349525 -0.1304456 -0.9908391 1.0 0.0 0.0 1.0 0.0 0.0 0.0954927 -0.0954927 -0.9908392 0.0954927 -0.0954927 -0.9908392 0.0954927 -0.0954927 -0.9908392 1.0 0.0 0.0 1.0 0.0 0.0 0.1304456 -0.0349525 -0.9908391 0.1304456 -0.0349525 -0.9908391 0.1304456 -0.0349525 -0.9908391 1.0 0.0 0.0 1.0 0.0 0.0 0.1304456 0.0349525 -0.9908391 0.1304456 0.0349525 -0.9908391 0.1304456 0.0349525 -0.9908391 1.0 0.0 0.0 1.0 0.0 0.0 0.0954927 0.0954927 -0.9908392 0.0954927 0.0954927 -0.9908392 0.0954927 0.0954927 -0.9908392 1.0 0.0 0.0 1.0 0.0 0.0 0.0349525 0.1304456 -0.9908391 0.0349525 0.1304456 -0.9908391 0.0349525 0.1304456 -0.9908391 1.0 0.0 0.0 1.0 0.0 0.0 -0.0349525 0.1304456 -0.9908391 -0.0349525 0.1304456 -0.9908391 -0.0349525 0.1304456 -0.9908391 1.0 0.0 0.0 1.0 0.0 0.0 -0.0954927 0.0954927 -0.9908392 -0.0954927 0.0954927 -0.9908392 -0.0954927 0.0954927 -0.9908392 1.0 0.0 0.0 1.0 0.0 0.0 -0.1304456 0.0349525 -0.9908391 -0.1304456 0.0349525 -0.9908391 -0.1304456 0.0349525 -0.9908391 -0.3806893 -0.1020045 -0.9190597 -0.3806893 -0.1020045 -0.9190597 -0.3806893 -0.1020045 -0.9190597 -0.3806889 -0.1020048 -0.9190599 -0.3806889 -0.1020048 -0.9190599 -0.3806889 -0.1020048 -0.9190599 -0.2786838 -0.2786838 -0.9190596 -0.2786838 -0.2786838 -0.9190596 -0.2786838 -0.2786838 -0.9190596 -0.2786838 -0.2786838 -0.9190596 -0.2786838 -0.2786838 -0.9190596 -0.2786838 -0.2786838 -0.9190596 -0.1020044 -0.3806888 -0.9190599 -0.1020044 -0.3806888 -0.9190599 -0.1020044 -0.3806888 -0.9190599 -0.1020048 -0.380689 -0.9190598 -0.1020048 -0.380689 -0.9190598 -0.1020048 -0.380689 -0.9190598 0.1020045 -0.3806893 -0.9190597 0.1020045 -0.3806893 -0.9190597 0.1020045 -0.3806893 -0.9190597 0.1020048 -0.3806889 -0.9190599 0.1020048 -0.3806889 -0.9190599 0.1020048 -0.3806889 -0.9190599 0.2786838 -0.2786838 -0.9190596 0.2786838 -0.2786838 -0.9190596 0.2786838 -0.2786838 -0.9190596 0.2786838 -0.2786838 -0.9190596 0.2786838 -0.2786838 -0.9190596 0.2786838 -0.2786838 -0.9190596 0.3806888 -0.1020044 -0.9190599 0.3806888 -0.1020044 -0.9190599 0.3806888 -0.1020044 -0.9190599 0.380689 -0.1020048 -0.9190598 0.380689 -0.1020048 -0.9190598 0.380689 -0.1020048 -0.9190598 0.3806893 0.1020045 -0.9190597 0.3806893 0.1020045 -0.9190597 0.3806893 0.1020045 -0.9190597 0.3806889 0.1020048 -0.9190599 0.3806889 0.1020048 -0.9190599 0.3806889 0.1020048 -0.9190599 0.2786838 0.2786838 -0.9190596 0.2786838 0.2786838 -0.9190596 0.2786838 0.2786838 -0.9190596 0.2786838 0.2786838 -0.9190596 0.2786838 0.2786838 -0.9190596 0.2786838 0.2786838 -0.9190596 0.1020044 0.3806888 -0.9190599 0.1020044 0.3806888 -0.9190599 0.1020044 0.3806888 -0.9190599 0.1020048 0.380689 -0.9190598 0.1020048 0.380689 -0.9190598 0.1020048 0.380689 -0.9190598 -0.1020045 0.3806893 -0.9190597 -0.1020045 0.3806893 -0.9190597 -0.1020045 0.3806893 -0.9190597 -0.1020048 0.3806889 -0.9190599 -0.1020048 0.3806889 -0.9190599 -0.1020048 0.3806889 -0.9190599 -0.2786838 0.2786838 -0.9190596 -0.2786838 0.2786838 -0.9190596 -0.2786838 0.2786838 -0.9190596 -0.2786838 0.2786838 -0.9190596 -0.2786838 0.2786838 -0.9190596 -0.2786838 0.2786838 -0.9190596 -0.3806888 0.1020044 -0.9190599 -0.3806888 0.1020044 -0.9190599 -0.3806888 0.1020044 -0.9190599 -0.380689 0.1020048 -0.9190598 -0.380689 0.1020048 -0.9190598 -0.380689 0.1020048 -0.9190598 -0.6008214 -0.1609889 -0.7830046 -0.6008214 -0.1609889 -0.7830046 -0.6008214 -0.1609889 -0.7830046 -0.6008191 -0.1609903 -0.7830061 -0.6008191 -0.1609903 -0.7830061 -0.6008191 -0.1609903 -0.7830061 -0.4398316 -0.4398316 -0.7830047 -0.4398316 -0.4398316 -0.7830047 -0.4398316 -0.4398316 -0.7830047 -0.4398315 -0.4398315 -0.7830048 -0.4398315 -0.4398315 -0.7830048 -0.4398315 -0.4398315 -0.7830048 -0.1609883 -0.6008193 -0.7830064 -0.1609883 -0.6008193 -0.7830064 -0.1609883 -0.6008193 -0.7830064 -0.1609907 -0.6008206 -0.7830049 -0.1609907 -0.6008206 -0.7830049 -0.1609907 -0.6008206 -0.7830049 0.1609889 -0.6008214 -0.7830046 0.1609889 -0.6008214 -0.7830046 0.1609889 -0.6008214 -0.7830046 0.1609903 -0.6008191 -0.7830061 0.1609903 -0.6008191 -0.7830061 0.1609903 -0.6008191 -0.7830061 0.4398316 -0.4398316 -0.7830047 0.4398316 -0.4398316 -0.7830047 0.4398316 -0.4398316 -0.7830047 0.4398315 -0.4398315 -0.7830048 0.4398315 -0.4398315 -0.7830048 0.4398315 -0.4398315 -0.7830048 0.6008193 -0.1609883 -0.7830064 0.6008193 -0.1609883 -0.7830064 0.6008193 -0.1609883 -0.7830064 0.6008206 -0.1609907 -0.7830049 0.6008206 -0.1609907 -0.7830049 0.6008206 -0.1609907 -0.7830049 0.6008214 0.1609889 -0.7830046 0.6008214 0.1609889 -0.7830046 0.6008214 0.1609889 -0.7830046 0.6008191 0.1609903 -0.7830061 0.6008191 0.1609903 -0.7830061 0.6008191 0.1609903 -0.7830061 0.4398316 0.4398316 -0.7830047 0.4398316 0.4398316 -0.7830047 0.4398316 0.4398316 -0.7830047 0.4398315 0.4398315 -0.7830048 0.4398315 0.4398315 -0.7830048 0.4398315 0.4398315 -0.7830048 0.1609883 0.6008193 -0.7830064 0.1609883 0.6008193 -0.7830064 0.1609883 0.6008193 -0.7830064 0.1609907 0.6008206 -0.7830049 0.1609907 0.6008206 -0.7830049 0.1609907 0.6008206 -0.7830049 -0.1609889 0.6008214 -0.7830046 -0.1609889 0.6008214 -0.7830046 -0.1609889 0.6008214 -0.7830046 -0.1609903 0.6008191 -0.7830061 -0.1609903 0.6008191 -0.7830061 -0.1609903 0.6008191 -0.7830061 -0.4398316 0.4398316 -0.7830047 -0.4398316 0.4398316 -0.7830047 -0.4398316 0.4398316 -0.7830047 -0.4398315 0.4398315 -0.7830048 -0.4398315 0.4398315 -0.7830048 -0.4398315 0.4398315 -0.7830048 -0.6008193 0.1609883 -0.7830064 -0.6008193 0.1609883 -0.7830064 -0.6008193 0.1609883 -0.7830064 -0.6008206 0.1609907 -0.7830049 -0.6008206 0.1609907 -0.7830049 -0.6008206 0.1609907 -0.7830049 -0.7760119 -0.2079334 -0.5954573 -0.7760119 -0.2079334 -0.5954573 -0.7760119 -0.2079334 -0.5954573 -0.7760146 -0.2079317 -0.5954542 -0.7760146 -0.2079317 -0.5954542 -0.7760146 -0.2079317 -0.5954542 -0.5680802 -0.5680802 -0.5954575 -0.5680802 -0.5680802 -0.5954575 -0.5680802 -0.5680802 -0.5954575 -0.5680802 -0.5680802 -0.5954575 -0.5680802 -0.5680802 -0.5954575 -0.5680802 -0.5680802 -0.5954575 -0.2079341 -0.7760143 -0.5954539 -0.2079341 -0.7760143 -0.5954539 -0.2079341 -0.7760143 -0.5954539 -0.2079311 -0.7760127 -0.595457 -0.2079311 -0.7760127 -0.595457 -0.2079311 -0.7760127 -0.595457 0.2079334 -0.7760119 -0.5954573 0.2079334 -0.7760119 -0.5954573 0.2079334 -0.7760119 -0.5954573 0.2079317 -0.7760146 -0.5954542 0.2079317 -0.7760146 -0.5954542 0.2079317 -0.7760146 -0.5954542 0.5680802 -0.5680802 -0.5954575 0.5680802 -0.5680802 -0.5954575 0.5680802 -0.5680802 -0.5954575 0.5680802 -0.5680802 -0.5954575 0.5680802 -0.5680802 -0.5954575 0.5680802 -0.5680802 -0.5954575 0.7760143 -0.2079341 -0.5954539 0.7760143 -0.2079341 -0.5954539 0.7760143 -0.2079341 -0.5954539 0.7760127 -0.2079311 -0.595457 0.7760127 -0.2079311 -0.595457 0.7760127 -0.2079311 -0.595457 0.7760119 0.2079334 -0.5954573 0.7760119 0.2079334 -0.5954573 0.7760119 0.2079334 -0.5954573 0.7760146 0.2079317 -0.5954542 0.7760146 0.2079317 -0.5954542 0.7760146 0.2079317 -0.5954542 0.5680802 0.5680802 -0.5954575 0.5680802 0.5680802 -0.5954575 0.5680802 0.5680802 -0.5954575 0.5680802 0.5680802 -0.5954575 0.5680802 0.5680802 -0.5954575 0.5680802 0.5680802 -0.5954575 0.2079341 0.7760143 -0.5954539 0.2079341 0.7760143 -0.5954539 0.2079341 0.7760143 -0.5954539 0.2079311 0.7760127 -0.595457 0.2079311 0.7760127 -0.595457 0.2079311 0.7760127 -0.595457 -0.2079334 0.7760119 -0.5954573 -0.2079334 0.7760119 -0.5954573 -0.2079334 0.7760119 -0.5954573 -0.2079317 0.7760146 -0.5954542 -0.2079317 0.7760146 -0.5954542 -0.2079317 0.7760146 -0.5954542 -0.5680802 0.5680802 -0.5954575 -0.5680802 0.5680802 -0.5954575 -0.5680802 0.5680802 -0.5954575 -0.5680802 0.5680802 -0.5954575 -0.5680802 0.5680802 -0.5954575 -0.5680802 0.5680802 -0.5954575 -0.7760143 0.2079341 -0.5954539 -0.7760143 0.2079341 -0.5954539 -0.7760143 0.2079341 -0.5954539 -0.7760127 0.2079311 -0.595457 -0.7760127 0.2079311 -0.595457 -0.7760127 0.2079311 -0.595457 -0.8968096 -0.2402984 -0.371469 -0.8968096 -0.2402984 -0.371469 -0.8968096 -0.2402984 -0.371469 -0.8968079 -0.2402998 -0.3714721 -0.8968079 -0.2402998 -0.3714721 -0.8968079 -0.2402998 -0.3714721 -0.65651 -0.65651 -0.3714691 -0.65651 -0.65651 -0.3714691 -0.65651 -0.65651 -0.3714691 -0.65651 -0.65651 -0.371469 -0.65651 -0.65651 -0.371469 -0.65651 -0.65651 -0.371469 -0.2402981 -0.8968083 -0.3714723 -0.2402981 -0.8968083 -0.3714723 -0.2402981 -0.8968083 -0.3714723 -0.2403001 -0.8968091 -0.3714691 -0.2403001 -0.8968091 -0.3714691 -0.2403001 -0.8968091 -0.3714691 0.2402984 -0.8968096 -0.371469 0.2402984 -0.8968096 -0.371469 0.2402984 -0.8968096 -0.371469 0.2402998 -0.8968079 -0.3714721 0.2402998 -0.8968079 -0.3714721 0.2402998 -0.8968079 -0.3714721 0.65651 -0.65651 -0.3714691 0.65651 -0.65651 -0.3714691 0.65651 -0.65651 -0.3714691 0.65651 -0.65651 -0.371469 0.65651 -0.65651 -0.371469 0.65651 -0.65651 -0.371469 0.8968083 -0.2402981 -0.3714723 0.8968083 -0.2402981 -0.3714723 0.8968083 -0.2402981 -0.3714723 0.8968091 -0.2403001 -0.3714691 0.8968091 -0.2403001 -0.3714691 0.8968091 -0.2403001 -0.3714691 0.8968096 0.2402984 -0.371469 0.8968096 0.2402984 -0.371469 0.8968096 0.2402984 -0.371469 0.8968079 0.2402998 -0.3714721 0.8968079 0.2402998 -0.3714721 0.8968079 0.2402998 -0.3714721 0.65651 0.65651 -0.3714691 0.65651 0.65651 -0.3714691 0.65651 0.65651 -0.3714691 0.65651 0.65651 -0.371469 0.65651 0.65651 -0.371469 0.65651 0.65651 -0.371469 0.2402981 0.8968083 -0.3714723 0.2402981 0.8968083 -0.3714723 0.2402981 0.8968083 -0.3714723 0.2403001 0.8968091 -0.3714691 0.2403001 0.8968091 -0.3714691 0.2403001 0.8968091 -0.3714691 -0.2402984 0.8968096 -0.371469 -0.2402984 0.8968096 -0.371469 -0.2402984 0.8968096 -0.371469 -0.2402998 0.8968079 -0.3714721 -0.2402998 0.8968079 -0.3714721 -0.2402998 0.8968079 -0.3714721 -0.65651 0.65651 -0.3714691 -0.65651 0.65651 -0.3714691 -0.65651 0.65651 -0.3714691 -0.65651 0.65651 -0.371469 -0.65651 0.65651 -0.371469 -0.65651 0.65651 -0.371469 -0.8968083 0.2402981 -0.3714723 -0.8968083 0.2402981 -0.3714723 -0.8968083 0.2402981 -0.3714723 -0.8968091 0.2403001 -0.3714691 -0.8968091 0.2403001 -0.3714691 -0.8968091 0.2403001 -0.3714691 -0.958209 -0.2567523 -0.1261503 -0.958209 -0.2567523 -0.1261503 -0.958209 -0.2567523 -0.1261503 -0.958209 -0.2567521 -0.1261498 -0.958209 -0.2567521 -0.1261498 -0.958209 -0.2567521 -0.1261498 -0.7014578 -0.7014578 -0.1261501 -0.7014578 -0.7014578 -0.1261501 -0.7014578 -0.7014578 -0.1261501 -0.7014578 -0.7014578 -0.1261501 -0.7014578 -0.7014578 -0.1261501 -0.7014578 -0.7014578 -0.1261501 -0.2567523 -0.958209 -0.1261498 -0.2567523 -0.958209 -0.1261498 -0.2567523 -0.958209 -0.1261498 -0.2567521 -0.958209 -0.1261503 -0.2567521 -0.958209 -0.1261503 -0.2567521 -0.958209 -0.1261503 0.2567523 -0.958209 -0.1261503 0.2567523 -0.958209 -0.1261503 0.2567523 -0.958209 -0.1261503 0.2567521 -0.958209 -0.1261498 0.2567521 -0.958209 -0.1261498 0.2567521 -0.958209 -0.1261498 0.7014578 -0.7014578 -0.1261501 0.7014578 -0.7014578 -0.1261501 0.7014578 -0.7014578 -0.1261501 0.7014578 -0.7014578 -0.1261501 0.7014578 -0.7014578 -0.1261501 0.7014578 -0.7014578 -0.1261501 0.958209 -0.2567523 -0.1261498 0.958209 -0.2567523 -0.1261498 0.958209 -0.2567523 -0.1261498 0.958209 -0.2567521 -0.1261503 0.958209 -0.2567521 -0.1261503 0.958209 -0.2567521 -0.1261503 0.958209 0.2567523 -0.1261503 0.958209 0.2567523 -0.1261503 0.958209 0.2567523 -0.1261503 0.958209 0.2567521 -0.1261498 0.958209 0.2567521 -0.1261498 0.958209 0.2567521 -0.1261498 0.7014578 0.7014578 -0.1261501 0.7014578 0.7014578 -0.1261501 0.7014578 0.7014578 -0.1261501 0.7014578 0.7014578 -0.1261501 0.7014578 0.7014578 -0.1261501 0.7014578 0.7014578 -0.1261501 0.2567523 0.958209 -0.1261498 0.2567523 0.958209 -0.1261498 0.2567523 0.958209 -0.1261498 0.2567521 0.958209 -0.1261503 0.2567521 0.958209 -0.1261503 0.2567521 0.958209 -0.1261503 -0.2567523 0.958209 -0.1261503 -0.2567523 0.958209 -0.1261503 -0.2567523 0.958209 -0.1261503 -0.2567521 0.958209 -0.1261498 -0.2567521 0.958209 -0.1261498 -0.2567521 0.958209 -0.1261498 -0.7014578 0.7014578 -0.1261501 -0.7014578 0.7014578 -0.1261501 -0.7014578 0.7014578 -0.1261501 -0.7014578 0.7014578 -0.1261501 -0.7014578 0.7014578 -0.1261501 -0.7014578 0.7014578 -0.1261501 -0.958209 0.2567523 -0.1261498 -0.958209 0.2567523 -0.1261498 -0.958209 0.2567523 -0.1261498 -0.958209 0.2567521 -0.1261503 -0.958209 0.2567521 -0.1261503 -0.958209 0.2567521 -0.1261503 -0.958209 -0.2567521 0.1261503 -0.958209 -0.2567521 0.1261503 -0.958209 -0.2567521 0.1261503 -0.958209 -0.2567523 0.1261498 -0.958209 -0.2567523 0.1261498 -0.958209 -0.2567523 0.1261498</float_array>
                    <technique_common>
                        <accessor count="840" source="#geometry0-normal-array" stride="3">
                            <param name="X" type="float"/>
                            <param name="Y" type="float"/>
                            <param name="Z" type="float"/>
                        </accessor>
                    </technique_common>
                </source>
                <vertices id="geometry0-vertex">
                    <input semantic="POSITION" source="#geometry0-position"/>
                </vertices>
                <triangles count="288" material="default_ai_0.2_sh_0.2_tr_0.0_dc_r_0.8_g_0.8_b_0.8_sc_r_1.0_g_1.0_b_1.0_ec_r_0.0_g_0.0_b_0_tri">
                    <input offset="0" semantic="VERTEX" source="#geometry0-vertex"/>
                    <input offset="1" semantic="NORMAL" source="#geometry0-normal"/>
                    <p>61 0 63 1 75 2 61 3 75 4 73 5 63 6 64 7 76 8 63 9 76 10 75 11 64 12 65 13 77 14 64 15 77 16 76 17 65 18 66 19 78 20 65 21 78 22 77 23 66 24 67 25 79 26 66 27 79 28 78 29 67 30 68 31 80 32 67 33 80 34 79 35 68 36 69 37 81 38 68 39 81 40 80 41 69 42 70 43 82 44 69 45 82 46 81 47 70 48 71 49 83 50 70 51 83 52 82 53 71 54 72 55 84 56 71 57 84 58 83 59 72 60 62 61 74 62 72 63 74 64 84 65 74 66 73 67 85 68 74 69 85 70 86 71 73 72 75 73 87 74 73 75 87 76 85 77 75 78 76 79 88 80 75 81 88 82 87 83 76 84 77 85 89 86 76 87 89 88 88 89 77 90 78 91 90 92 77 93 90 94 89 95 78 96 79 97 91 98 78 99 91 100 90 101 79 102 80 103 92 104 79 105 92 106 91 107 80 108 81 109 93 110 80 111 93 112 92 113 81 114 82 115 94 116 81 117 94 118 93 119 82 120 83 121 95 122 82 123 95 124 94 125 83 126 84 127 96 128 83 129 96 130 95 131 84 132 74 133 86 134 84 135 86 136 96 137 86 138 85 139 97 140 86 141 97 142 98 143 85 144 87 145 99 146 85 147 99 148 97 149 87 150 88 151 100 152 87 153 100 154 99 155 88 156 89 157 101 158 88 159 101 160 100 161 89 162 90 163 102 164 89 165 102 166 101 167 90 168 91 169 103 170 90 171 103 172 102 173 91 174 92 175 104 176 91 177 104 178 103 179 92 180 93 181 105 182 92 183 105 184 104 185 93 186 94 187 106 188 93 189 106 190 105 191 94 192 95 193 107 194 94 195 107 196 106 197 95 198 96 199 108 200 95 201 108 202 107 203 96 204 86 205 98 206 96 207 98 208 108 209 98 210 97 211 109 212 98 213 109 214 110 215 97 216 99 217 111 218 97 219 111 220 109 221 99 222 100 223 112 224 99 225 112 226 111 227 100 228 101 229 113 230 100 231 113 232 112 233 101 234 102 235 114 236 101 237 114 238 113 239 102 240 103 241 115 242 102 243 115 244 114 245 103 246 104 247 116 248 103 249 116 250 115 251 104 252 105 253 117 254 104 255 117 256 116 257 105 258 106 259 118 260 105 261 118 262 117 263 106 264 107 265 119 266 106 267 119 268 118 269 107 270 108 271 120 272 107 273 120 274 119 275 108 276 98 277 110 278 108 279 110 280 120 281 110 282 109 283 121 284 110 285 121 286 122 287 109 288 111 289 123 290 109 291 123 292 121 293 111 294 112 295 124 296 111 297 124 298 123 299 112 300 113 301 125 302 112 303 125 304 124 305 113 306 114 307 126 308 113 309 126 310 125 311 114 312 115 313 127 314 114 315 127 316 126 317 115 318 116 319 128 320 115 321 128 322 127 323 116 324 117 325 129 326 116 327 129 328 128 329 117 330 118 331 130 332 117 333 130 334 129 335 118 336 119 337 131 338 118 339 131 340 130 341 119 342 120 343 132 344 119 345 132 346 131 347 120 348 110 349 122 350 120 351 122 352 132 353 122 354 121 355 133 356 122 357 133 358 133 358 121 359 123 360 133 361 121 362 133 363 133 363 123 364 124 365 133 366 123 367 133 368 133 368 124 369 125 370 133 371 124 372 133 373 133 373 125 374 126 375 133 376 125 377 133 378 133 378 126 379 127 380 133 381 126 382 133 383 133 383 127 384 128 385 133 386 127 387 133 388 133 388 128 389 129 390 133 391 128 392 133 393 133 393 129 394 130 395 133 396 129 397 133 398 133 398 130 399 131 400 133 401 130 402 133 403 133 403 131 404 132 405 133 406 131 407 133 408 133 408 132 409 122 410 133 411 132 412 133 413 133 413 0 414 0 414 1 415 0 416 1 417 2 418 0 419 0 419 3 420 0 421 3 422 1 423 0 424 0 424 4 425 0 426 4 427 3 428 0 429 0 429 5 430 0 431 5 432 4 433 0 434 0 434 6 435 0 436 6 437 5 438 0 439 0 439 7 440 0 441 7 442 6 443 0 444 0 444 8 445 0 446 8 447 7 448 0 449 0 449 9 450 0 451 9 452 8 453 0 454 0 454 10 455 0 456 10 457 9 458 0 459 0 459 11 460 0 461 11 462 10 463 0 464 0 464 12 465 0 466 12 467 11 468 0 469 0 469 2 470 0 471 2 472 12 473 2 474 1 475 13 476 2 477 13 478 14 479 1 480 3 481 15 482 1 483 15 484 13 485 3 486 4 487 16 488 3 489 16 490 15 491 4 492 5 493 17 494 4 495 17 496 16 497 5 498 6 499 18 500 5 501 18 502 17 503 6 504 7 505 19 506 6 507 19 508 18 509 7 510 8 511 20 512 7 513 20 514 19 515 8 516 9 517 21 518 8 519 21 520 20 521 9 522 10 523 22 524 9 525 22 526 21 527 10 528 11 529 23 530 10 531 23 532 22 533 11 534 12 535 24 536 11 537 24 538 23 539 12 540 2 541 14 542 12 543 14 544 24 545 14 546 13 547 25 548 14 549 25 550 26 551 13 552 15 553 27 554 13 555 27 556 25 557 15 558 16 559 28 560 15 561 28 562 27 563 16 564 17 565 29 566 16 567 29 568 28 569 17 570 18 571 30 572 17 573 30 574 29 575 18 576 19 577 31 578 18 579 31 580 30 581 19 582 20 583 32 584 19 585 32 586 31 587 20 588 21 589 33 590 20 591 33 592 32 593 21 594 22 595 34 596 21 597 34 598 33 599 22 600 23 601 35 602 22 603 35 604 34 605 23 606 24 607 36 608 23 609 36 610 35 611 24 612 14 613 26 614 24 615 26 616 36 617 26 618 25 619 37 620 26 621 37 622 38 623 25 624 27 625 39 626 25 627 39 628 37 629 27 630 28 631 40 632 27 633 40 634 39 635 28 636 29 637 41 638 28 639 41 640 40 641 29 642 30 643 42 644 29 645 42 646 41 647 30 648 31 649 43 650 30 651 43 652 42 653 31 654 32 655 44 656 31 657 44 658 43 659 32 660 33 661 45 662 32 663 45 664 44 665 33 666 34 667 46 668 33 669 46 670 45 671 34 672 35 673 47 674 34 675 47 676 46 677 35 678 36 679 48 680 35 681 48 682 47 683 36 684 26 685 38 686 36 687 38 688 48 689 38 690 37 691 49 692 38 693 49 694 50 695 37 696 39 697 51 698 37 699 51 700 49 701 39 702 40 703 52 704 39 705 52 706 51 707 40 708 41 709 53 710 40 711 53 712 52 713 41 714 42 715 54 716 41 717 54 718 53 719 42 720 43 721 55 722 42 723 55 724 54 725 43 726 44 727 56 728 43 729 56 730 55 731 44 732 45 733 57 734 44 735 57 736 56 737 45 738 46 739 58 740 45 741 58 742 57 743 46 744 47 745 59 746 46 747 59 748 58 749 47 750 48 751 60 752 47 753 60 754 59 755 48 756 38 757 50 758 48 759 50 760 60 761 50 762 49 763 61 764 50 765 61 766 62 767 49 768 51 769 63 770 49 771 63 772 61 773 51 774 52 775 64 776 51 777 64 778 63 779 52 780 53 781 65 782 52 783 65 784 64 785 53 786 54 787 66 788 53 789 66 790 65 791 54 792 55 793 67 794 54 795 67 796 66 797 55 798 56 799 68 800 55 801 68 802 67 803 56 804 57 805 69 806 56 807 69 808 68 809 57 810 58 811 70 812 57 813 70 814 69 815 58 816 59 817 71 818 58 819 71 820 70 821 59 822 60 823 72 824 59 825 72 826 71 827 60 828 50 829 62 830 60 831 62 832 72 833 62 834 61 835 73 836 62 837 73 838 74 839</p>
                </triangles>
            </mesh>
        </geometry>
    </library_geometries>
    <library_visual_scenes>
        <visual_scene id="Building_62_CROWN2">
            <node>
                <instance_geometry url="#geometry0">
                    <bind_material>
                        <technique_common>
                            <instance_material symbol="default_ai_0.2_sh_0.2_tr_0.0_dc_r_0.8_g_0.8_b_0.8_sc_r_1.0_g_1.0_b_1.0_ec_r_0.0_g_0.0_b_0_tri" target="#default_ai_0.2_sh_0.2_tr_0.0_dc_r_0.8_g_0.8_b_0.8_sc_r_1.0_g_1.0_b_1.0_ec_r_0.0_g_0.0_b_0_mat"/>
                        </technique_common>
                    </bind_material>
                </instance_geometry>
            </node>
        </visual_scene>
    </library_visual_scenes>
    <scene>
        <instance_visual_scene url="#Building_62_CROWN2"/>
    </scene>
</COLLADA>
