<?xml version="1.0" encoding="UTF-8" standalone="yes"?>
<COLLADA xmlns="http://www.collada.org/2005/11/COLLADASchema" version="1.4.1">
    <asset>
        <contributor>
            <authoring_tool>3D City Database Importer/Exporter, version 5.5.3; Chair of Geoinformatics, Technical University of Munich</authoring_tool>
        </contributor>
        <created>2026-09-25T14:44:48.170</created>
        <modified>2026-09-25T14:44:48.170</modified>
        <unit meter="1.0" name="meters"/>
        <up_axis>Z_UP</up_axis>
    </asset>
    <library_materials>
        <material id="default_ai_0.2_sh_0.2_tr_0.0_dc_r_0.8_g_0.8_b_0.8_sc_r_1.0_g_1.0_b_1.0_ec_r_0.0_g_0.0_b_0_mat">
            <instance_effect url="#default_ai_0.2_sh_0.2_tr_0.0_dc_r_0.8_g_0.8_b_0.8_sc_r_1.0_g_1.0_b_1.0_ec_r_0.0_g_0.0_b_0_eff"/>
        </material>
    </library_materials>
    <library_effects>
        <effect id="default_ai_0.2_sh_0.2_tr_0.0_dc_r_0.8_g_0.8_b_0.8_sc_r_1.0_g_1.0_b_1.0_ec_r_0.0_g_0.0_b_0_eff">
            <profile_COMMON>
                <technique sid="COMMON">
                    <lambert>
                        <emission>
                            <color>0.0 0.0 0.0 1.0</color>
                        </emission>
                        <diffuse>
                            <color>0.8 0.8 0.8 1.0</color>
                        </diffuse>
                        <reflective>
                            <color>1.0 1.0 1.0 1.0</color>
                        </reflective>
                        <reflectivity>
                            <float>0.2</float>
                        </reflectivity>
                        <transparent opaque="A_ONE">
                            <color>1.0 1.0 1.0 1.0</color>
                        </transparent>
                        <transparency>
                            <float>1.0</float>
                        </transparency>
                    </lambert>
                </technique>
                <extra>
                    <technique profile="GOOGLEEARTH">
                        <double_sided>0</double_sided>
                    </technique>
                </extra>
            </profile_COMMON>
        </effect>
    </library_effects>
    <library_geometries>
        <geometry id="geometry0">
            <mesh>
                <source id="geometry0-position">
                    <float_array id="geometry0-position-array" count="402">0.0 0.0 1.8 0.2017296 0.116469 1.7693334 0.2329371 0.0 1.7693334 0.116469 0.2017296 1.7693334 0.0 0.2329371 1.7693334 -0.116469 0.2017296 1.7693334 -0.2017296 0.116469 1.7693334 -0.2329371 0.0 1.7693334 -0.2017296 -0.116469 1.7693334 -0.116469 -0.2017296 1.7693334 0.0 -0.2329371 1.7693334 0.116469 -0.2017296 1.7693334 0.2017296 -0.116469 1.7693334 0.3897117 0.225 1.6794225 0.45 0.0 1.6794225 0.225 0.3897117 1.6794225 0.0 0.45 1.6794225 -0.225 0.3897117 1.6794225 -0.3897117 0.225 1.6794225 -0.45 0.0 1.6794225 -0.3897117 -0.225 1.6794225 -0.225 -0.3897117 1.6794225 0.0 -0.45 1.6794225 0.225 -0.3897117 1.6794225 0.3897117 -0.225 1.6794225 0.5511348 0.3181977 1.5363954 0.6363963 0.0 1.5363954 0.3181977 0.5511348 1.5363954 0.0 0.6363963 1.5363954 -0.3181977 0.5511348 1.5363954 -0.5511348 0.3181977 1.5363954 -0.6363963 0.0 1.5363954 -0.5511348 -0.3181977 1.5363954 -0.3181977 -0.5511348 1.5363954 0.0 -0.6363963 1.5363954 0.3181977 -0.5511348 1.5363954 0.5511348 -0.3181977 1.5363954 0.675 0.3897117 1.35 0.7794225 0.0 1.35 0.3897117 0.675 1.35 0.0 0.7794225 1.35 -0.3897117 0.675 1.35 -0.675 0.3897117 1.35 -0.7794225 0.0 1.35 -0.675 -0.3897117 1.35 -0.3897117 -0.675 1.35 0.0 -0.7794225 1.35 0.3897117 -0.675 1.35 0.675 -0.3897117 1.35 0.7528644 0.4346667 1.1329371 0.8693334 0.0 1.1329371 0.4346667 0.7528644 1.1329371 0.0 0.8693334 1.1329371 -0.4346667 0.7528644 1.1329371 -0.7528644 0.4346667 1.1329371 -0.8693334 0.0 1.1329371 -0.7528644 -0.4346667 1.1329371 -0.4346667 -0.7528644 1.1329371 0.0 -0.8693334 1.1329371 0.4346667 -0.7528644 1.1329371 0.7528644 -0.4346667 1.1329371 0.7794225 0.45 0.9 0.9 0.0 0.9 0.45 0.7794225 0.9 0.0 0.9 0.9 -0.45 0.7794225 0.9 -0.7794225 0.45 0.9 -0.9 0.0 0.9 -0.7794225 -0.45 0.9 -0.45 -0.7794225 0.9 0.0 -0.9 0.9 0.45 -0.7794225 0.9 0.7794225 -0.45 0.9 0.7528644 0.4346667 0.6670629 0.8693334 0.0 0.6670629 0.4346667 0.7528644 0.6670629 0.0 0.8693334 0.6670629 -0.4346667 0.7528644 0.6670629 -0.7528644 0.4346667 0.6670629 -0.8693334 0.0 0.6670629 -0.7528644 -0.4346667 0.6670629 -0.4346667 -0.7528644 0.6670629 0.0 -0.8693334 0.6670629 0.4346667 -0.7528644 0.6670629 0.7528644 -0.4346667 0.6670629 0.675 0.3897117 0.45 0.7794225 0.0 0.45 0.3897117 0.675 0.45 0.0 0.7794225 0.45 -0.3897117 0.675 0.45 -0.675 0.3897117 0.45 -0.7794225 0.0 0.45 -0.675 -0.3897117 0.45 -0.3897117 -0.675 0.45 0.0 -0.7794225 0.45 0.3897117 -0.675 0.45 0.675 -0.3897117 0.45 0.5511348 0.3181977 0.2636037 0.6363963 0.0 0.2636037 0.3181977 0.5511348 0.2636037 0.0 0.6363963 0.2636037 -0.3181977 0.5511348 0.2636037 -0.5511348 0.3181977 0.2636037 -0.6363963 0.0 0.2636037 -0.5511348 -0.3181977 0.2636037 -0.3181977 -0.5511348 0.2636037 0.0 -0.6363963 0.2636037 0.3181977 -0.5511348 0.2636037 0.5511348 -0.3181977 0.2636037 0.3897117 0.225 0.1205766 0.45 0.0 0.1205766 0.225 0.3897117 0.1205766 0.0 0.45 0.1205766 -0.225 0.3897117 0.1205766 -0.3897117 0.225 0.1205766 -0.45 0.0 0.1205766 -0.3897117 -0.225 0.1205766 -0.225 -0.3897117 0.1205766 0.0 -0.45 0.1205766 0.225 -0.3897117 0.1205766 0.3897117 -0.225 0.1205766 0.2017296 0.116469 0.0306666 0.2329371 0.0 0.0306666 0.116469 0.2017296 0.0306666 0.0 0.2329371 0.0306666 -0.116469 0.2017296 0.0306666 -0.2017296 0.116469 0.0306666 -0.2329371 0.0 0.0306666 -0.2017296 -0.116469 0.0306666 -0.116469 -0.2017296 0.0306666 0.0 -0.2329371 0.0306666 0.116469 -0.2017296 0.0306666 0.2017296 -0.116469 0.0306666 0.0 0.0 0.0</float_array>
                    <technique_common>
                        <accessor count="134" source="#geometry0-position-array" stride="3">
                            <param name="X" type="float"/>
                            <param name="Y" type="float"/>
                            <param name="Z" type="float"/>
                        </accessor>
                    </technique_common>
                </source>
                <source id="geometry0-normal">
                    <float_array id="geometry0-normal-array" count="2520">0.958209 0.256752 0.1261502 0.958209 0.256752 0.1261502 0.958209 0.256752 0.1261502 0.958209 0.2567522 0.12615 0.958209 0.2567522 0.12615 0.958209 0.2567522 0.12615 0.7014578 0.7014578 0.1261501 0.7014578 0.7014578 0.1261501 0.7014578 0.7014578 0.1261501 0.7014578 0.7014578 0.1261502 0.7014578 0.7014578 0.1261502 0.7014578 0.7014578 0.1261502 0.256752 0.958209 0.12615 0.256752 0.958209 0.12615 0.256752 0.958209 0.12615 0.2567521 0.958209 0.1261502 0.2567521 0.958209 0.1261502 0.2567521 0.958209 0.1261502 -0.256752 0.958209 0.1261502 -0.256752 0.958209 0.1261502 -0.256752 0.958209 0.1261502 -0.2567522 0.958209 0.12615 -0.2567522 0.958209 0.12615 -0.2567522 0.958209 0.12615 -0.7014578 0.7014578 0.1261501 -0.7014578 0.7014578 0.1261501 -0.7014578 0.7014578 0.1261501 -0.7014578 0.7014578 0.1261502 -0.7014578 0.7014578 0.1261502 -0.7014578 0.7014578 0.1261502 -0.958209 0.256752 0.12615 -0.958209 0.256752 0.12615 -0.958209 0.256752 0.12615 -0.958209 0.2567521 0.1261502 -0.958209 0.2567521 0.1261502 -0.958209 0.2567521 0.1261502 -0.896809 -0.2403 0.3714692 -0.896809 -0.2403 0.3714692 -0.896809 -0.2403 0.3714692 -0.8968084 -0.2402981 0.3714721 -0.8968084 -0.2402981 0.3714721 -0.8968084 -0.2402981 0.3714721 -0.6565099 -0.6565099 0.3714691 -0.6565099 -0.6565099 0.3714691 -0.6565099 -0.6565099 0.3714691 -0.65651 -0.65651 0.3714691 -0.65651 -0.65651 0.3714691 -0.65651 -0.65651 0.3714691 -0.2402998 -0.896808 0.371472 -0.2402998 -0.896808 0.371472 -0.2402998 -0.896808 0.371472 -0.2402984 -0.8968096 0.3714691 -0.2402984 -0.8968096 0.3714691 -0.2402984 -0.8968096 0.3714691 0.2403 -0.896809 0.3714692 0.2403 -0.896809 0.3714692 0.2403 -0.896809 0.3714692 0.2402981 -0.8968084 0.3714721 0.2402981 -0.8968084 0.3714721 0.2402981 -0.8968084 0.3714721 0.6565099 -0.6565099 0.3714691 0.6565099 -0.6565099 0.3714691 0.6565099 -0.6565099 0.3714691 0.65651 -0.65651 0.3714691 0.65651 -0.65651 0.3714691 0.65651 -0.65651 0.3714691 0.896808 -0.2402998 0.371472 0.896808 -0.2402998 0.371472 0.896808 -0.2402998 0.371472 0.8968096 -0.2402984 0.3714691 0.8968096 -0.2402984 0.3714691 0.8968096 -0.2402984 0.3714691 0.896809 0.2403 0.3714692 0.896809 0.2403 0.3714692 0.896809 0.2403 0.3714692 0.8968084 0.2402981 0.3714721 0.8968084 0.2402981 0.3714721 0.8968084 0.2402981 0.3714721 0.6565099 0.6565099 0.3714691 0.6565099 0.6565099 0.3714691 0.6565099 0.6565099 0.3714691 0.65651 0.65651 0.3714691 0.65651 0.65651 0.3714691 0.65651 0.65651 0.3714691 0.2402998 0.896808 0.371472 0.2402998 0.896808 0.371472 0.2402998 0.896808 0.371472 0.2402984 0.8968096 0.3714691 0.2402984 0.8968096 0.3714691 0.2402984 0.8968096 0.3714691 -0.2403 0.896809 0.3714692 -0.2403 0.896809 0.3714692 -0.2403 0.896809 0.3714692 -0.2402981 0.8968084 0.3714721 -0.2402981 0.8968084 0.3714721 -0.2402981 0.8968084 0.3714721 -0.6565099 0.6565099 0.3714691 -0.6565099 0.6565099 0.3714691 -0.6565099 0.6565099 0.3714691 -0.65651 0.65651 0.3714691 -0.65651 0.65651 0.3714691 -0.65651 0.65651 0.3714691 -0.896808 0.2402998 0.371472 -0.896808 0.2402998 0.371472 -0.896808 0.2402998 0.371472 -0.8968096 0.2402984 0.3714691 -0.8968096 0.2402984 0.3714691 -0.8968096 0.2402984 0.3714691 -0.7760128 -0.2079311 0.5954568 -0.7760128 -0.2079311 0.5954568 -0.7760128 -0.2079311 0.5954568 -0.7760143 -0.207934 0.5954539 -0.7760143 -0.207934 0.5954539 -0.7760143 -0.207934 0.5954539 -0.5680803 -0.5680803 0.5954574 -0.5680803 -0.5680803 0.5954574 -0.5680803 -0.5680803 0.5954574 -0.5680803 -0.5680803 0.5954575 -0.5680803 -0.5680803 0.5954575 -0.5680803 -0.5680803 0.5954575 -0.2079317 -0.7760147 0.5954542 -0.2079317 -0.7760147 0.5954542 -0.2079317 -0.7760147 0.5954542 -0.2079334 -0.776012 0.5954572 -0.2079334 -0.776012 0.5954572 -0.2079334 -0.776012 0.5954572 0.2079311 -0.7760128 0.5954568 0.2079311 -0.7760128 0.5954568 0.2079311 -0.7760128 0.5954568 0.207934 -0.7760143 0.5954539 0.207934 -0.7760143 0.5954539 0.207934 -0.7760143 0.5954539 0.5680803 -0.5680803 0.5954574 0.5680803 -0.5680803 0.5954574 0.5680803 -0.5680803 0.5954574 0.5680803 -0.5680803 0.5954575 0.5680803 -0.5680803 0.5954575 0.5680803 -0.5680803 0.5954575 0.7760147 -0.2079317 0.5954542 0.7760147 -0.2079317 0.5954542 0.7760147 -0.2079317 0.5954542 0.776012 -0.2079334 0.5954572 0.776012 -0.2079334 0.5954572 0.776012 -0.2079334 0.5954572 0.7760128 0.2079311 0.5954568 0.7760128 0.2079311 0.5954568 0.7760128 0.2079311 0.5954568 0.7760143 0.207934 0.5954539 0.7760143 0.207934 0.5954539 0.7760143 0.207934 0.5954539 0.5680803 0.5680803 0.5954574 0.5680803 0.5680803 0.5954574 0.5680803 0.5680803 0.5954574 0.5680803 0.5680803 0.5954575 0.5680803 0.5680803 0.5954575 0.5680803 0.5680803 0.5954575 0.2079317 0.7760147 0.5954542 0.2079317 0.7760147 0.5954542 0.2079317 0.7760147 0.5954542 0.2079334 0.776012 0.5954572 0.2079334 0.776012 0.5954572 0.2079334 0.776012 0.5954572 -0.2079311 0.7760128 0.5954568 -0.2079311 0.7760128 0.5954568 -0.2079311 0.7760128 0.5954568 -0.207934 0.7760143 0.5954539 -0.207934 0.7760143 0.5954539 -0.207934 0.7760143 0.5954539 -0.5680803 0.5680803 0.5954574 -0.5680803 0.5680803 0.5954574 -0.5680803 0.5680803 0.5954574 -0.5680803 0.5680803 0.5954575 -0.5680803 0.5680803 0.5954575 -0.5680803 0.5680803 0.5954575 -0.7760147 0.2079317 0.5954542 -0.7760147 0.2079317 0.5954542 -0.7760147 0.2079317 0.5954542 -0.776012 0.2079334 0.5954572 -0.776012 0.2079334 0.5954572 -0.776012 0.2079334 0.5954572 -0.6008227 -0.1609912 0.7830033 -0.6008227 -0.1609912 0.7830033 -0.6008227 -0.1609912 0.7830033 -0.6008214 -0.1609888 0.7830046 -0.6008214 -0.1609888 0.7830046 -0.6008214 -0.1609888 0.7830046 -0.439833 -0.439833 0.783003 -0.439833 -0.439833 0.783003 -0.439833 -0.439833 0.783003 -0.439833 -0.439833 0.783003 -0.439833 -0.439833 0.783003 -0.439833 -0.439833 0.783003 -0.1609908 -0.6008212 0.7830045 -0.1609908 -0.6008212 0.7830045 -0.1609908 -0.6008212 0.7830045 -0.1609894 -0.6008234 0.7830029 -0.1609894 -0.6008234 0.7830029 -0.1609894 -0.6008234 0.7830029 0.1609912 -0.6008227 0.7830033 0.1609912 -0.6008227 0.7830033 0.1609912 -0.6008227 0.7830033 0.1609888 -0.6008214 0.7830046 0.1609888 -0.6008214 0.7830046 0.1609888 -0.6008214 0.7830046 0.439833 -0.439833 0.783003 0.439833 -0.439833 0.783003 0.439833 -0.439833 0.783003 0.439833 -0.439833 0.783003 0.439833 -0.439833 0.783003 0.439833 -0.439833 0.783003 0.6008212 -0.1609908 0.7830045 0.6008212 -0.1609908 0.7830045 0.6008212 -0.1609908 0.7830045 0.6008234 -0.1609894 0.7830029 0.6008234 -0.1609894 0.7830029 0.6008234 -0.1609894 0.7830029 0.6008227 0.1609912 0.7830033 0.6008227 0.1609912 0.7830033 0.6008227 0.1609912 0.7830033 0.6008214 0.1609888 0.7830046 0.6008214 0.1609888 0.7830046 0.6008214 0.1609888 0.7830046 0.439833 0.439833 0.783003 0.439833 0.439833 0.783003 0.439833 0.439833 0.783003 0.439833 0.439833 0.783003 0.439833 0.439833 0.783003 0.439833 0.439833 0.783003 0.1609908 0.6008212 0.7830045 0.1609908 0.6008212 0.7830045 0.1609908 0.6008212 0.7830045 0.1609894 0.6008234 0.7830029 0.1609894 0.6008234 0.7830029 0.1609894 0.6008234 0.7830029 -0.1609912 0.6008227 0.7830033 -0.1609912 0.6008227 0.7830033 -0.1609912 0.6008227 0.7830033 -0.1609888 0.6008214 0.7830046 -0.1609888 0.6008214 0.7830046 -0.1609888 0.6008214 0.7830046 -0.439833 0.439833 0.783003 -0.439833 0.439833 0.783003 -0.439833 0.439833 0.783003 -0.439833 0.439833 0.783003 -0.439833 0.439833 0.783003 -0.439833 0.439833 0.783003 -0.6008212 0.1609908 0.7830045 -0.6008212 0.1609908 0.7830045 -0.6008212 0.1609908 0.7830045 -0.6008234 0.1609894 0.7830029 -0.6008234 0.1609894 0.7830029 -0.6008234 0.1609894 0.7830029 -0.3806861 -0.1020041 0.9190611 -0.3806861 -0.1020041 0.9190611 -0.3806861 -0.1020041 0.9190611 -0.3806859 -0.1020036 0.9190612 -0.3806859 -0.1020036 0.9190612 -0.3806859 -0.1020036 0.9190612 -0.2786817 -0.2786817 0.9190609 -0.2786817 -0.2786817 0.9190609 -0.2786817 -0.2786817 0.9190609 -0.2786817 -0.2786816 0.9190609 -0.2786817 -0.2786816 0.9190609 -0.2786817 -0.2786816 0.9190609 -0.102004 -0.3806859 0.9190611 -0.102004 -0.3806859 0.9190611 -0.102004 -0.3806859 0.9190611 -0.1020037 -0.3806863 0.9190611 -0.1020037 -0.3806863 0.9190611 -0.1020037 -0.3806863 0.9190611 0.1020041 -0.3806861 0.9190611 0.1020041 -0.3806861 0.9190611 0.1020041 -0.3806861 0.9190611 0.1020036 -0.3806859 0.9190612 0.1020036 -0.3806859 0.9190612 0.1020036 -0.3806859 0.9190612 0.2786817 -0.2786817 0.9190609 0.2786817 -0.2786817 0.9190609 0.2786817 -0.2786817 0.9190609 0.2786817 -0.2786817 0.9190609 0.2786817 -0.2786817 0.9190609 0.2786817 -0.2786817 0.9190609 0.3806859 -0.102004 0.9190611 0.3806859 -0.102004 0.9190611 0.3806859 -0.102004 0.9190611 0.3806863 -0.1020037 0.9190611 0.3806863 -0.1020037 0.9190611 0.3806863 -0.1020037 0.9190611 0.3806861 0.1020041 0.9190611 0.3806861 0.1020041 0.9190611 0.3806861 0.1020041 0.9190611 0.3806859 0.1020036 0.9190612 0.3806859 0.1020036 0.9190612 0.3806859 0.1020036 0.9190612 0.2786817 0.2786817 0.9190609 0.2786817 0.2786817 0.9190609 0.2786817 0.2786817 0.9190609 0.2786817 0.2786816 0.9190609 0.2786817 0.2786816 0.9190609 0.2786817 0.2786816 0.9190609 0.102004 0.3806859 0.9190611 0.102004 0.3806859 0.9190611 0.102004 0.3806859 0.9190611 0.1020037 0.3806863 0.9190611 0.1020037 0.3806863 0.9190611 0.1020037 0.3806863 0.9190611 -0.1020041 0.3806861 0.9190611 -0.1020041 0.3806861 0.9190611 -0.1020041 0.3806861 0.9190611 -0.1020036 0.3806859 0.9190612 -0.1020036 0.3806859 0.9190612 -0.1020036 0.3806859 0.9190612 -0.2786817 0.2786817 0.9190609 -0.2786817 0.2786817 0.9190609 -0.2786817 0.2786817 0.9190609 -0.2786817 0.2786817 0.9190609 -0.2786817 0.2786817 0.9190609 -0.2786817 0.2786817 0.9190609 -0.3806859 0.102004 0.9190611 -0.3806859 0.102004 0.9190611 -0.3806859 0.102004 0.9190611 -0.3806863 0.1020037 0.9190611 -0.3806863 0.1020037 0.9190611 -0.3806863 0.1020037 0.9190611 -0.1304458 -0.0349525 0.9908391 -0.1304458 -0.0349525 0.9908391 -0.1304458 -0.0349525 0.9908391 1.0 0.0 0.0 1.0 0.0 0.0 -0.0954928 -0.0954928 0.9908392 -0.0954928 -0.0954928 0.9908392 -0.0954928 -0.0954928 0.9908392 1.0 0.0 0.0 1.0 0.0 0.0 -0.0349525 -0.1304458 0.9908391 -0.0349525 -0.1304458 0.9908391 -0.0349525 -0.1304458 0.9908391 1.0 0.0 0.0 1.0 0.0 0.0 0.0349525 -0.1304458 0.9908391 0.0349525 -0.1304458 0.9908391 0.0349525 -0.1304458 0.9908391 1.0 0.0 0.0 1.0 0.0 0.0 0.0954928 -0.0954928 0.9908392 0.0954928 -0.0954928 0.9908392 0.0954928 -0.0954928 0.9908392 1.0 0.0 0.0 1.0 0.0 0.0 0.1304458 -0.0349525 0.9908391 0.1304458 -0.0349525 0.9908391 0.1304458 -0.0349525 0.9908391 1.0 0.0 0.0 1.0 0.0 0.0 0.1304458 0.0349525 0.9908391 0.1304458 0.0349525 0.9908391 0.1304458 0.0349525 0.9908391 1.0 0.0 0.0 1.0 0.0 0.0 0.0954928 0.0954928 0.9908392 0.0954928 0.0954928 0.9908392 0.0954928 0.0954928 0.9908392 1.0 0.0 0.0 1.0 0.0 0.0 0.0349525 0.1304458 0.9908391 0.0349525 0.1304458 0.9908391 0.0349525 0.1304458 0.9908391 1.0 0.0 0.0 1.0 0.0 0.0 -0.0349525 0.1304458 0.9908391 -0.0349525 0.1304458 0.9908391 -0.0349525 0.1304458 0.9908391 1.0 0.0 0.0 1.0 0.0 0.0 -0.0954928 0.0954928 0.9908392 -0.0954928 0.0954928 0.9908392 -0.0954928 0.0954928 0.9908392 1.0 0.0 0.0 1.0 0.0 0.0 -0.1304458 0.0349525 0.9908391 -0.1304458 0.0349525 0.9908391 -0.1304458 0.0349525 0.9908391 1.0 0.0 0.0 1.0 0.0 0.0 1.0 0.0 0.0 1.0 0.0 0.0 -0.1304457 -0.0349525 -0.9908391 -0.1304457 -0.0349525 -0.9908391 -0.1304457 -0.0349525 -0.9908391 1.0 0.0 0.0 1.0 0.0 0.0 -0.0954928 -0.0954927 -0.9908392 -0.0954928 -0.0954927 -0.9908392 -0.0954928 -0.0954927 -0.9908392 1.0 0.0 0.0 1.0 0.0 0.0 -0.0349525 -0.1304458 -0.9908391 -0.0349525 -0.1304458 -0.9908391 -0.0349525 -0.1304458 -0.9908391 1.0 0.0 0.0 1.0 0.0 0.0 0.0349525 -0.1304458 -0.9908391 0.0349525 -0.1304458 -0.9908391 0.0349525 -0.1304458 -0.9908391 1.0 0.0 0.0 1.0 0.0 0.0 0.0954928 -0.0954927 -0.9908392 0.0954928 -0.0954927 -0.9908392 0.0954928 -0.0954927 -0.9908392 1.0 0.0 0.0 1.0 0.0 0.0 0.1304457 -0.0349525 -0.9908391 0.1304457 -0.0349525 -0.9908391 0.1304457 -0.0349525 -0.9908391 1.0 0.0 0.0 1.0 0.0 0.0 0.1304457 0.0349525 -0.9908391 0.1304457 0.0349525 -0.9908391 0.1304457 0.0349525 -0.9908391 1.0 0.0 0.0 1.0 0.0 0.0 0.0954928 0.0954927 -0.9908392 0.0954928 0.0954927 -0.9908392 0.0954928 0.0954927 -0.9908392 1.0 0.0 0.0 1.0 0.0 0.0 0.0349525 0.1304458 -0.9908391 0.0349525 0.1304458 -0.9908391 0.0349525 0.1304458 -0.9908391 1.0 0.0 0.0 1.0 0.0 0.0 -0.0349525 0.1304458 -0.9908391 -0.0349525 0.1304458 -0.9908391 -0.0349525 0.1304458 -0.9908391 1.0 0.0 0.0 1.0 0.0 0.0 -0.0954928 0.0954927 -0.9908392 -0.0954928 0.0954927 -0.9908392 -0.0954928 0.0954927 -0.9908392 1.0 0.0 0.0 1.0 0.0 0.0 -0.1304457 0.0349525 -0.9908391 -0.1304457 0.0349525 -0.9908391 -0.1304457 0.0349525 -0.9908391 -0.3806894 -0.1020045 -0.9190598 -0.3806894 -0.1020045 -0.9190598 -0.3806894 -0.1020045 -0.9190598 -0.380689 -0.1020048 -0.9190598 -0.380689 -0.1020048 -0.9190598 -0.380689 -0.1020048 -0.9190598 -0.278684 -0.278684 -0.9190596 -0.278684 -0.278684 -0.9190596 -0.278684 -0.278684 -0.9190596 -0.278684 -0.278684 -0.9190596 -0.278684 -0.278684 -0.9190596 -0.278684 -0.278684 -0.9190596 -0.1020044 -0.3806891 -0.9190599 -0.1020044 -0.3806891 -0.9190599 -0.1020044 -0.3806891 -0.9190599 -0.1020049 -0.3806892 -0.9190597 -0.1020049 -0.3806892 -0.9190597 -0.1020049 -0.3806892 -0.9190597 0.1020045 -0.3806894 -0.9190597 0.1020045 -0.3806894 -0.9190597 0.1020045 -0.3806894 -0.9190597 0.1020048 -0.380689 -0.9190598 0.1020048 -0.380689 -0.9190598 0.1020048 -0.380689 -0.9190598 0.278684 -0.2786839 -0.9190596 0.278684 -0.2786839 -0.9190596 0.278684 -0.2786839 -0.9190596 0.278684 -0.278684 -0.9190596 0.278684 -0.278684 -0.9190596 0.278684 -0.278684 -0.9190596 0.380689 -0.1020044 -0.9190598 0.380689 -0.1020044 -0.9190598 0.380689 -0.1020044 -0.9190598 0.3806892 -0.1020049 -0.9190597 0.3806892 -0.1020049 -0.9190597 0.3806892 -0.1020049 -0.9190597 0.3806894 0.1020045 -0.9190598 0.3806894 0.1020045 -0.9190598 0.3806894 0.1020045 -0.9190598 0.380689 0.1020048 -0.9190598 0.380689 0.1020048 -0.9190598 0.380689 0.1020048 -0.9190598 0.278684 0.278684 -0.9190596 0.278684 0.278684 -0.9190596 0.278684 0.278684 -0.9190596 0.278684 0.278684 -0.9190596 0.278684 0.278684 -0.9190596 0.278684 0.278684 -0.9190596 0.1020044 0.3806891 -0.9190599 0.1020044 0.3806891 -0.9190599 0.1020044 0.3806891 -0.9190599 0.1020049 0.3806892 -0.9190597 0.1020049 0.3806892 -0.9190597 0.1020049 0.3806892 -0.9190597 -0.1020045 0.3806894 -0.9190597 -0.1020045 0.3806894 -0.9190597 -0.1020045 0.3806894 -0.9190597 -0.1020048 0.380689 -0.9190598 -0.1020048 0.380689 -0.9190598 -0.1020048 0.380689 -0.9190598 -0.278684 0.2786839 -0.9190596 -0.278684 0.2786839 -0.9190596 -0.278684 0.2786839 -0.9190596 -0.278684 0.278684 -0.9190596 -0.278684 0.278684 -0.9190596 -0.278684 0.278684 -0.9190596 -0.380689 0.1020044 -0.9190598 -0.380689 0.1020044 -0.9190598 -0.380689 0.1020044 -0.9190598 -0.3806892 0.1020049 -0.9190597 -0.3806892 0.1020049 -0.9190597 -0.3806892 0.1020049 -0.9190597 -0.6008233 -0.1609894 -0.783003 -0.6008233 -0.1609894 -0.783003 -0.6008233 -0.1609894 -0.783003 -0.6008211 -0.1609907 -0.7830045 -0.6008211 -0.1609907 -0.7830045 -0.6008211 -0.1609907 -0.7830045 -0.439833 -0.439833 -0.7830031 -0.439833 -0.439833 -0.7830031 -0.439833 -0.439833 -0.7830031 -0.439833 -0.439833 -0.7830031 -0.439833 -0.439833 -0.7830031 -0.439833 -0.439833 -0.7830031 -0.1609888 -0.6008213 -0.7830047 -0.1609888 -0.6008213 -0.7830047 -0.1609888 -0.6008213 -0.7830047 -0.1609911 -0.6008226 -0.7830032 -0.1609911 -0.6008226 -0.7830032 -0.1609911 -0.6008226 -0.7830032 0.1609894 -0.6008233 -0.783003 0.1609894 -0.6008233 -0.783003 0.1609894 -0.6008233 -0.783003 0.1609907 -0.6008211 -0.7830045 0.1609907 -0.6008211 -0.7830045 0.1609907 -0.6008211 -0.7830045 0.439833 -0.439833 -0.7830031 0.439833 -0.439833 -0.7830031 0.439833 -0.439833 -0.7830031 0.439833 -0.439833 -0.7830031 0.439833 -0.439833 -0.7830031 0.439833 -0.439833 -0.7830031 0.6008213 -0.1609888 -0.7830047 0.6008213 -0.1609888 -0.7830047 0.6008213 -0.1609888 -0.7830047 0.6008226 -0.1609911 -0.7830032 0.6008226 -0.1609911 -0.7830032 0.6008226 -0.1609911 -0.7830032 0.6008233 0.1609894 -0.783003 0.6008233 0.1609894 -0.783003 0.6008233 0.1609894 -0.783003 0.6008211 0.1609907 -0.7830045 0.6008211 0.1609907 -0.7830045 0.6008211 0.1609907 -0.7830045 0.439833 0.439833 -0.7830031 0.439833 0.439833 -0.7830031 0.439833 0.439833 -0.7830031 0.439833 0.439833 -0.7830031 0.439833 0.439833 -0.7830031 0.439833 0.439833 -0.7830031 0.1609888 0.6008213 -0.7830047 0.1609888 0.6008213 -0.7830047 0.1609888 0.6008213 -0.7830047 0.1609911 0.6008226 -0.7830032 0.1609911 0.6008226 -0.7830032 0.1609911 0.6008226 -0.7830032 -0.1609894 0.6008233 -0.783003 -0.1609894 0.6008233 -0.783003 -0.1609894 0.6008233 -0.783003 -0.1609907 0.6008211 -0.7830045 -0.1609907 0.6008211 -0.7830045 -0.1609907 0.6008211 -0.7830045 -0.439833 0.439833 -0.7830031 -0.439833 0.439833 -0.7830031 -0.439833 0.439833 -0.7830031 -0.439833 0.439833 -0.7830031 -0.439833 0.439833 -0.7830031 -0.439833 0.439833 -0.7830031 -0.6008213 0.1609888 -0.7830047 -0.6008213 0.1609888 -0.7830047 -0.6008213 0.1609888 -0.7830047 -0.6008226 0.1609911 -0.7830032 -0.6008226 0.1609911 -0.7830032 -0.6008226 0.1609911 -0.7830032 -0.7760106 -0.207933 -0.595459 -0.7760106 -0.207933 -0.595459 -0.7760106 -0.207933 -0.595459 -0.7760133 -0.2079313 -0.595456 -0.7760133 -0.2079313 -0.595456 -0.7760133 -0.2079313 -0.595456 -0.5680793 -0.5680793 -0.5954593 -0.5680793 -0.5680793 -0.5954593 -0.5680793 -0.5680793 -0.5954593 -0.5680793 -0.5680793 -0.5954593 -0.5680793 -0.5680793 -0.5954593 -0.5680793 -0.5680793 -0.5954593 -0.2079336 -0.776013 -0.5954557 -0.2079336 -0.776013 -0.5954557 -0.2079336 -0.776013 -0.5954557 -0.2079308 -0.7760114 -0.5954587 -0.2079308 -0.7760114 -0.5954587 -0.2079308 -0.7760114 -0.5954587 0.207933 -0.7760106 -0.595459 0.207933 -0.7760106 -0.595459 0.207933 -0.7760106 -0.595459 0.2079313 -0.7760133 -0.595456 0.2079313 -0.7760133 -0.595456 0.2079313 -0.7760133 -0.595456 0.5680793 -0.5680793 -0.5954593 0.5680793 -0.5680793 -0.5954593 0.5680793 -0.5680793 -0.5954593 0.5680793 -0.5680793 -0.5954593 0.5680793 -0.5680793 -0.5954593 0.5680793 -0.5680793 -0.5954593 0.776013 -0.2079336 -0.5954557 0.776013 -0.2079336 -0.5954557 0.776013 -0.2079336 -0.5954557 0.7760114 -0.2079308 -0.5954587 0.7760114 -0.2079308 -0.5954587 0.7760114 -0.2079308 -0.5954587 0.7760106 0.207933 -0.595459 0.7760106 0.207933 -0.595459 0.7760106 0.207933 -0.595459 0.7760133 0.2079313 -0.595456 0.7760133 0.2079313 -0.595456 0.7760133 0.2079313 -0.595456 0.5680793 0.5680793 -0.5954593 0.5680793 0.5680793 -0.5954593 0.5680793 0.5680793 -0.5954593 0.5680793 0.5680793 -0.5954593 0.5680793 0.5680793 -0.5954593 0.5680793 0.5680793 -0.5954593 0.2079336 0.776013 -0.5954557 0.2079336 0.776013 -0.5954557 0.2079336 0.776013 -0.5954557 0.2079308 0.7760114 -0.5954587 0.2079308 0.7760114 -0.5954587 0.2079308 0.7760114 -0.5954587 -0.207933 0.7760106 -0.595459 -0.207933 0.7760106 -0.595459 -0.207933 0.7760106 -0.595459 -0.2079313 0.7760133 -0.595456 -0.2079313 0.7760133 -0.595456 -0.2079313 0.7760133 -0.595456 -0.5680793 0.5680793 -0.5954593 -0.5680793 0.5680793 -0.5954593 -0.5680793 0.5680793 -0.5954593 -0.5680793 0.5680793 -0.5954593 -0.5680793 0.5680793 -0.5954593 -0.5680793 0.5680793 -0.5954593 -0.776013 0.2079336 -0.5954557 -0.776013 0.2079336 -0.5954557 -0.776013 0.2079336 -0.5954557 -0.7760114 0.2079308 -0.5954587 -0.7760114 0.2079308 -0.5954587 -0.7760114 0.2079308 -0.5954587 -0.8968096 -0.2402984 -0.371469 -0.8968096 -0.2402984 -0.371469 -0.8968096 -0.2402984 -0.371469 -0.896808 -0.2402998 -0.3714719 -0.896808 -0.2402998 -0.3714719 -0.896808 -0.2402998 -0.3714719 -0.65651 -0.65651 -0.371469 -0.65651 -0.65651 -0.371469 -0.65651 -0.65651 -0.371469 -0.65651 -0.65651 -0.371469 -0.65651 -0.65651 -0.371469 -0.65651 -0.65651 -0.371469 -0.2402981 -0.8968084 -0.3714721 -0.2402981 -0.8968084 -0.3714721 -0.2402981 -0.8968084 -0.3714721 -0.2403001 -0.8968092 -0.3714691 -0.2403001 -0.8968092 -0.3714691 -0.2403001 -0.8968092 -0.3714691 0.2402984 -0.8968096 -0.371469 0.2402984 -0.8968096 -0.371469 0.2402984 -0.8968096 -0.371469 0.2402998 -0.896808 -0.3714719 0.2402998 -0.896808 -0.3714719 0.2402998 -0.896808 -0.3714719 0.65651 -0.65651 -0.371469 0.65651 -0.65651 -0.371469 0.65651 -0.65651 -0.371469 0.65651 -0.65651 -0.371469 0.65651 -0.65651 -0.371469 0.65651 -0.65651 -0.371469 0.8968084 -0.2402981 -0.3714721 0.8968084 -0.2402981 -0.3714721 0.8968084 -0.2402981 -0.3714721 0.8968092 -0.2403001 -0.3714691 0.8968092 -0.2403001 -0.3714691 0.8968092 -0.2403001 -0.3714691 0.8968096 0.2402984 -0.371469 0.8968096 0.2402984 -0.371469 0.8968096 0.2402984 -0.371469 0.896808 0.2402998 -0.3714719 0.896808 0.2402998 -0.3714719 0.896808 0.2402998 -0.3714719 0.65651 0.65651 -0.371469 0.65651 0.65651 -0.371469 0.65651 0.65651 -0.371469 0.65651 0.65651 -0.371469 0.65651 0.65651 -0.371469 0.65651 0.65651 -0.371469 0.2402981 0.8968084 -0.3714721 0.2402981 0.8968084 -0.3714721 0.2402981 0.8968084 -0.3714721 0.2403001 0.8968092 -0.3714691 0.2403001 0.8968092 -0.3714691 0.2403001 0.8968092 -0.3714691 -0.2402984 0.8968096 -0.371469 -0.2402984 0.8968096 -0.371469 -0.2402984 0.8968096 -0.371469 -0.2402998 0.896808 -0.3714719 -0.2402998 0.896808 -0.3714719 -0.2402998 0.896808 -0.3714719 -0.65651 0.65651 -0.371469 -0.65651 0.65651 -0.371469 -0.65651 0.65651 -0.371469 -0.65651 0.65651 -0.371469 -0.65651 0.65651 -0.371469 -0.65651 0.65651 -0.371469 -0.8968084 0.2402981 -0.3714721 -0.8968084 0.2402981 -0.3714721 -0.8968084 0.2402981 -0.3714721 -0.8968092 0.2403001 -0.3714691 -0.8968092 0.2403001 -0.3714691 -0.8968092 0.2403001 -0.3714691 -0.958209 -0.2567521 -0.1261502 -0.958209 -0.2567521 -0.1261502 -0.958209 -0.2567521 -0.1261502 -0.958209 -0.256752 -0.1261499 -0.958209 -0.256752 -0.1261499 -0.958209 -0.256752 -0.1261499 -0.7014578 -0.7014578 -0.1261501 -0.7014578 -0.7014578 -0.1261501 -0.7014578 -0.7014578 -0.1261501 -0.7014578 -0.7014578 -0.1261501 -0.7014578 -0.7014578 -0.1261501 -0.7014578 -0.7014578 -0.1261501 -0.2567522 -0.958209 -0.12615 -0.2567522 -0.958209 -0.12615 -0.2567522 -0.958209 -0.12615 -0.256752 -0.958209 -0.1261502 -0.256752 -0.958209 -0.1261502 -0.256752 -0.958209 -0.1261502 0.2567521 -0.958209 -0.1261502 0.2567521 -0.958209 -0.1261502 0.2567521 -0.958209 -0.1261502 0.256752 -0.958209 -0.1261499 0.256752 -0.958209 -0.1261499 0.256752 -0.958209 -0.1261499 0.7014578 -0.7014578 -0.1261501 0.7014578 -0.7014578 -0.1261501 0.7014578 -0.7014578 -0.1261501 0.7014578 -0.7014578 -0.1261501 0.7014578 -0.7014578 -0.1261501 0.7014578 -0.7014578 -0.1261501 0.958209 -0.2567522 -0.12615 0.958209 -0.2567522 -0.12615 0.958209 -0.2567522 -0.12615 0.958209 -0.256752 -0.1261502 0.958209 -0.256752 -0.1261502 0.958209 -0.256752 -0.1261502 0.958209 0.2567521 -0.1261502 0.958209 0.2567521 -0.1261502 0.958209 0.2567521 -0.1261502 0.958209 0.256752 -0.1261499 0.958209 0.256752 -0.1261499 0.958209 0.256752 -0.1261499 0.7014578 0.7014578 -0.1261501 0.7014578 0.7014578 -0.1261501 0.7014578 0.7014578 -0.1261501 0.7014578 0.7014578 -0.1261501 0.7014578 0.7014578 -0.1261501 0.7014578 0.7014578 -0.1261501 0.2567522 0.958209 -0.12615 0.2567522 0.958209 -0.12615 0.2567522 0.958209 -0.12615 0.256752 0.958209 -0.1261502 0.256752 0.958209 -0.1261502 0.256752 0.958209 -0.1261502 -0.2567521 0.958209 -0.1261502 -0.2567521 0.958209 -0.1261502 -0.2567521 0.958209 -0.1261502 -0.256752 0.958209 -0.1261499 -0.256752 0.958209 -0.1261499 -0.256752 0.958209 -0.1261499 -0.7014578 0.7014578 -0.1261501 -0.7014578 0.7014578 -0.1261501 -0.7014578 0.7014578 -0.1261501 -0.7014578 0.7014578 -0.1261501 -0.7014578 0.7014578 -0.1261501 -0.7014578 0.7014578 -0.1261501 -0.958209 0.2567522 -0.12615 -0.958209 0.2567522 -0.12615 -0.958209 0.2567522 -0.12615 -0.958209 0.256752 -0.1261502 -0.958209 0.256752 -0.1261502 -0.958209 0.256752 -0.1261502 -0.958209 -0.256752 0.1261502 -0.958209 -0.256752 0.1261502 -0.958209 -0.256752 0.1261502 -0.958209 -0.2567522 0.12615 -0.958209 -0.2567522 0.12615 -0.958209 -0.2567522 0.12615 -0.7014578 -0.7014578 0.1261501 -0.7014578 -0.7014578 0.1261501 -0.7014578 -0.7014578 0.1261501 -0.7014578 -0.7014578 0.1261502 -0.7014578 -0.7014578 0.1261502 -0.7014578 -0.7014578 0.1261502 -0.256752 -0.958209 0.12615 -0.256752 -0.958209 0.12615 -0.256752 -0.958209 0.12615 -0.2567521 -0.958209 0.1261502 -0.2567521 -0.958209 0.1261502 -0.2567521 -0.958209 0.1261502 0.256752 -0.958209 0.1261502 0.256752 -0.958209 0.1261502 0.256752 -0.958209 0.1261502 0.2567522 -0.958209 0.12615 0.2567522 -0.958209 0.12615 0.2567522 -0.958209 0.12615 0.7014578 -0.7014578 0.1261501 0.7014578 -0.7014578 0.1261501 0.7014578 -0.7014578 0.1261501 0.7014578 -0.7014578 0.1261502 0.7014578 -0.7014578 0.1261502 0.7014578 -0.7014578 0.1261502 0.958209 -0.256752 0.12615 0.958209 -0.256752 0.12615 0.958209 -0.256752 0.12615 0.958209 -0.2567521 0.1261502 0.958209 -0.2567521 0.1261502 0.958209 -0.2567521 0.1261502</float_array>
                    <technique_common>
                        <accessor count="840" source="#geometry0-normal-array" stride="3">
                            <param name="X" type="float"/>
                            <param name="Y" type="float"/>
                            <param name="Z" type="float"/>
                        </accessor>
                    </technique_common>
                </source>
                <vertices id="geometry0-vertex">
                    <input semantic="POSITION" source="#geometry0-position"/>
                </vertices>
                <triangles count="288" material="default_ai_0.2_sh_0.2_tr_0.0_dc_r_0.8_g_0.8_b_0.8_sc_r_1.0_g_1.0_b_1.0_ec_r_0.0_g_0.0_b_0_tri">
                    <input offset="0" semantic="VERTEX" source="#geometry0-vertex"/>
                    <input offset="1" semantic="NORMAL" source="#geometry0-normal"/>
                    <p>67 0 68 1 80 2 67 3 80 4 79 5 68 6 69 7 81 8 68 9 81 10 80 11 69 12 70 13 82 14 69 15 82 16 81 17 70 18 71 19 83 20 70 21 83 22 82 23 71 24 72 25 84 26 71 27 84 28 83 29 72 30 62 31 74 32 72 33 74 34 84 35 74 36 73 37 85 38 74 39 85 40 86 41 73 42 75 43 87 44 73 45 87 46 85 47 75 48 76 49 88 50 75 51 88 52 87 53 76 54 77 55 89 56 76 57 89 58 88 59 77 60 78 61 90 62 77 63 90 64 89 65 78 66 79 67 91 68 78 69 91 70 90 71 79 72 80 73 92 74 79 75 92 76 91 77 80 78 81 79 93 80 80 81 93 82 92 83 81 84 82 85 94 86 81 87 94 88 93 89 82 90 83 91 95 92 82 93 95 94 94 95 83 96 84 97 96 98 83 99 96 100 95 101 84 102 74 103 86 104 84 105 86 106 96 107 86 108 85 109 97 110 86 111 97 112 98 113 85 114 87 115 99 116 85 117 99 118 97 119 87 120 88 121 100 122 87 123 100 124 99 125 88 126 89 127 101 128 88 129 101 130 100 131 89 132 90 133 102 134 89 135 102 136 101 137 90 138 91 139 103 140 90 141 103 142 102 143 91 144 92 145 104 146 91 147 104 148 103 149 92 150 93 151 105 152 92 153 105 154 104 155 93 156 94 157 106 158 93 159 106 160 105 161 94 162 95 163 107 164 94 165 107 166 106 167 95 168 96 169 108 170 95 171 108 172 107 173 96 174 86 175 98 176 96 177 98 178 108 179 98 180 97 181 109 182 98 183 109 184 110 185 97 186 99 187 111 188 97 189 111 190 109 191 99 192 100 193 112 194 99 195 112 196 111 197 100 198 101 199 113 200 100 201 113 202 112 203 101 204 102 205 114 206 101 207 114 208 113 209 102 210 103 211 115 212 102 213 115 214 114 215 103 216 104 217 116 218 103 219 116 220 115 221 104 222 105 223 117 224 104 225 117 226 116 227 105 228 106 229 118 230 105 231 118 232 117 233 106 234 107 235 119 236 106 237 119 238 118 239 107 240 108 241 120 242 107 243 120 244 119 245 108 246 98 247 110 248 108 249 110 250 120 251 110 252 109 253 121 254 110 255 121 256 122 257 109 258 111 259 123 260 109 261 123 262 121 263 111 264 112 265 124 266 111 267 124 268 123 269 112 270 113 271 125 272 112 273 125 274 124 275 113 276 114 277 126 278 113 279 126 280 125 281 114 282 115 283 127 284 114 285 127 286 126 287 115 288 116 289 128 290 115 291 128 292 127 293 116 294 117 295 129 296 116 297 129 298 128 299 117 300 118 301 130 302 117 303 130 304 129 305 118 306 119 307 131 308 118 309 131 310 130 311 119 312 120 313 132 314 119 315 132 316 131 317 120 318 110 319 122 320 120 321 122 322 132 323 122 324 121 325 133 326 122 327 133 328 133 328 121 329 123 330 133 331 121 332 133 333 133 333 123 334 124 335 133 336 123 337 133 338 133 338 124 339 125 340 133 341 124 342 133 343 133 343 125 344 126 345 133 346 125 347 133 348 133 348 126 349 127 350 133 351 126 352 133 353 133 353 127 354 128 355 133 356 127 357 133 358 133 358 128 359 129 360 133 361 128 362 133 363 133 363 129 364 130 365 133 366 129 367 133 368 133 368 130 369 131 370 133 371 130 372 133 373 133 373 131 374 132 375 133 376 131 377 133 378 133 378 132 379 122 380 133 381 132 382 133 383 133 383 0 384 0 384 1 385 0 386 1 387 2 388 0 389 0 389 3 390 0 391 3 392 1 393 0 394 0 394 4 395 0 396 4 397 3 398 0 399 0 399 5 400 0 401 5 402 4 403 0 404 0 404 6 405 0 406 6 407 5 408 0 409 0 409 7 410 0 411 7 412 6 413 0 414 0 414 8 415 0 416 8 417 7 418 0 419 0 419 9 420 0 421 9 422 8 423 0 424 0 424 10 425 0 426 10 427 9 428 0 429 0 429 11 430 0 431 11 432 10 433 0 434 0 434 12 435 0 436 12 437 11 438 0 439 0 439 2 440 0 441 2 442 12 443 2 444 1 445 13 446 2 447 13 448 14 449 1 450 3 451 15 452 1 453 15 454 13 455 3 456 4 457 16 458 3 459 16 460 15 461 4 462 5 463 17 464 4 465 17 466 16 467 5 468 6 469 18 470 5 471 18 472 17 473 6 474 7 475 19 476 6 477 19 478 18 479 7 480 8 481 20 482 7 483 20 484 19 485 8 486 9 487 21 488 8 489 21 490 20 491 9 492 10 493 22 494 9 495 22 496 21 497 10 498 11 499 23 500 10 501 23 502 22 503 11 504 12 505 24 506 11 507 24 508 23 509 12 510 2 511 14 512 12 513 14 514 24 515 14 516 13 517 25 518 14 519 25 520 26 521 13 522 15 523 27 524 13 525 27 526 25 527 15 528 16 529 28 530 15 531 28 532 27 533 16 534 17 535 29 536 16 537 29 538 28 539 17 540 18 541 30 542 17 543 30 544 29 545 18 546 19 547 31 548 18 549 31 550 30 551 19 552 20 553 32 554 19 555 32 556 31 557 20 558 21 559 33 560 20 561 33 562 32 563 21 564 22 565 34 566 21 567 34 568 33 569 22 570 23 571 35 572 22 573 35 574 34 575 23 576 24 577 36 578 23 579 36 580 35 581 24 582 14 583 26 584 24 585 26 586 36 587 26 588 25 589 37 590 26 591 37 592 38 593 25 594 27 595 39 596 25 597 39 598 37 599 27 600 28 601 40 602 27 603 40 604 39 605 28 606 29 607 41 608 28 609 41 610 40 611 29 612 30 613 42 614 29 615 42 616 41 617 30 618 31 619 43 620 30 621 43 622 42 623 31 624 32 625 44 626 31 627 44 628 43 629 32 630 33 631 45 632 32 633 45 634 44 635 33 636 34 637 46 638 33 639 46 640 45 641 34 642 35 643 47 644 34 645 47 646 46 647 35 648 36 649 48 650 35 651 48 652 47 653 36 654 26 655 38 656 36 657 38 658 48 659 38 660 37 661 49 662 38 663 49 664 50 665 37 666 39 667 51 668 37 669 51 670 49 671 39 672 40 673 52 674 39 675 52 676 51 677 40 678 41 679 53 680 40 681 53 682 52 683 41 684 42 685 54 686 41 687 54 688 53 689 42 690 43 691 55 692 42 693 55 694 54 695 43 696 44 697 56 698 43 699 56 700 55 701 44 702 45 703 57 704 44 705 57 706 56 707 45 708 46 709 58 710 45 711 58 712 57 713 46 714 47 715 59 716 46 717 59 718 58 719 47 720 48 721 60 722 47 723 60 724 59 725 48 726 38 727 50 728 48 729 50 730 60 731 50 732 49 733 61 734 50 735 61 736 62 737 49 738 51 739 63 740 49 741 63 742 61 743 51 744 52 745 64 746 51 747 64 748 63 749 52 750 53 751 65 752 52 753 65 754 64 755 53 756 54 757 66 758 53 759 66 760 65 761 54 762 55 763 67 764 54 765 67 766 66 767 55 768 56 769 68 770 55 771 68 772 67 773 56 774 57 775 69 776 56 777 69 778 68 779 57 780 58 781 70 782 57 783 70 784 69 785 58 786 59 787 71 788 58 789 71 790 70 791 59 792 60 793 72 794 59 795 72 796 71 797 60 798 50 799 62 800 60 801 62 802 72 803 62 804 61 805 73 806 62 807 73 808 74 809 61 810 63 811 75 812 61 813 75 814 73 815 63 816 64 817 76 818 63 819 76 820 75 821 64 822 65 823 77 824 64 825 77 826 76 827 65 828 66 829 78 830 65 831 78 832 77 833 66 834 67 835 79 836 66 837 79 838 78 839</p>
                </triangles>
            </mesh>
        </geometry>
    </library_geometries>
    <library_visual_scenes>
        <visual_scene id="Building_3_CROWN1">
            <node>
                <instance_geometry url="#geometry0">
                    <bind_material>
                        <technique_common>
                            <instance_material symbol="default_ai_0.2_sh_0.2_tr_0.0_dc_r_0.8_g_0.8_b_0.8_sc_r_1.0_g_1.0_b_1.0_ec_r_0.0_g_0.0_b_0_tri" target="#default_ai_0.2_sh_0.2_tr_0.0_dc_r_0.8_g_0.8_b_0.8_sc_r_1.0_g_1.0_b_1.0_ec_r_0.0_g_0.0_b_0_mat"/>
                        </technique_common>
                    </bind_material>
                </instance_geometry>
            </node>
        </visual_scene>
    </library_visual_scenes>
    <scene>
        <instance_visual_scene url="#Building_3_CROWN1"/>
    </scene>
</COLLADA>
