<?xml version="1.0" encoding="UTF-8" standalone="yes"?>
<COLLADA xmlns="http://www.collada.org/2005/11/COLLADASchema" version="1.4.1">
    <asset>
        <contributor>
            <authoring_tool>3D City Database Importer/Exporter, version 5.5.3; Chair of Geoinformatics, Technical University of Munich</authoring_tool>
        </contributor>
        <created>2026-09-25T14:45:36.632</created>
        <modified>2026-09-25T14:45:36.632</modified>
        <unit meter="1.0" name="meters"/>
        <up_axis>Z_UP</up_axis>
    </asset>
    <library_materials>
        <material id="default_ai_0.2_sh_0.2_tr_0.0_dc_r_0.8_g_0.8_b_0.8_sc_r_1.0_g_1.0_b_1.0_ec_r_0.0_g_0.0_b_0_mat">
            <instance_effect url="#default_ai_0.2_sh_0.2_tr_0.0_dc_r_0.8_g_0.8_b_0.8_sc_r_1.0_g_1.0_b_1.0_ec_r_0.0_g_0.0_b_0_eff"/>
        </material>
    </library_materials>
    <library_effects>
        <effect id="default_ai_0.2_sh_0.2_tr_0.0_dc_r_0.8_g_0.8_b_0.8_sc_r_1.0_g_1.0_b_1.0_ec_r_0.0_g_0.0_b_0_eff">
            <profile_COMMON>
                <technique sid="COMMON">
                    <lambert>
                        <emission>
                            <color>0.0 0.0 0.0 1.0</color>
                        </emission>
                        <diffuse>
                            <color>0.8 0.8 0.8 1.0</color>
                        </diffuse>
                        <reflective>
                            <color>1.0 1.0 1.0 1.0</color>
                        </reflective>
                        <reflectivity>
                            <float>0.2</float>
                        </reflectivity>
                        <transparent opaque="A_ONE">
                            <color>1.0 1.0 1.0 1.0</color>
                        </transparent>
                        <transparency>
                            <float>1.0</float>
                        </transparency>
                    </lambert>
                </technique>
                <extra>
                    <technique profile="GOOGLEEARTH">
                        <double_sided>0</double_sided>
                    </technique>
                </extra>
            </profile_COMMON>
        </effect>
    </library_effects>
    <library_geometries>
        <geometry id="geometry0">
            <mesh>
                <source id="geometry0-position">
                    <float_array id="geometry0-position-array" count="402">0.0 0.0 1.4 0.1569008 0.090587 1.3761482 0.1811733 0.0 1.3761482 0.090587 0.1569008 1.3761482 0.0 0.1811733 1.3761482 -0.090587 0.1569008 1.3761482 -0.1569008 0.090587 1.3761482 -0.1811733 0.0 1.3761482 -0.1569008 -0.090587 1.3761482 -0.090587 -0.1569008 1.3761482 0.0 -0.1811733 1.3761482 0.090587 -0.1569008 1.3761482 0.1569008 -0.090587 1.3761482 0.3031091 0.175 1.3062175 0.35 0.0 1.3062175 0.175 0.3031091 1.3062175 0.0 0.35 1.3062175 -0.175 0.3031091 1.3062175 -0.3031091 0.175 1.3062175 -0.35 0.0 1.3062175 -0.3031091 -0.175 1.3062175 -0.175 -0.3031091 1.3062175 0.0 -0.35 1.3062175 0.175 -0.3031091 1.3062175 0.3031091 -0.175 1.3062175 0.4286604 0.2474871 1.1949749 0.4949749 0.0 1.1949749 0.2474871 0.4286604 1.1949749 0.0 0.4949749 1.1949749 -0.2474871 0.4286604 1.1949749 -0.4286604 0.2474871 1.1949749 -0.4949749 0.0 1.1949749 -0.4286604 -0.2474871 1.1949749 -0.2474871 -0.4286604 1.1949749 0.0 -0.4949749 1.1949749 0.2474871 -0.4286604 1.1949749 0.4286604 -0.2474871 1.1949749 0.525 0.3031091 1.05 0.6062175 0.0 1.05 0.3031091 0.525 1.05 0.0 0.6062175 1.05 -0.3031091 0.525 1.05 -0.525 0.3031091 1.05 -0.6062175 0.0 1.05 -0.525 -0.3031091 1.05 -0.3031091 -0.525 1.05 0.0 -0.6062175 1.05 0.3031091 -0.525 1.05 0.525 -0.3031091 1.05 0.5855612 0.3380741 0.8811733 0.6761482 0.0 0.8811733 0.3380741 0.5855612 0.8811733 0.0 0.6761482 0.8811733 -0.3380741 0.5855612 0.8811733 -0.5855612 0.3380741 0.8811733 -0.6761482 0.0 0.8811733 -0.5855612 -0.3380741 0.8811733 -0.3380741 -0.5855612 0.8811733 0.0 -0.6761482 0.8811733 0.3380741 -0.5855612 0.8811733 0.5855612 -0.3380741 0.8811733 0.6062175 0.35 0.7 0.7 0.0 0.7 0.35 0.6062175 0.7 0.0 0.7 0.7 -0.35 0.6062175 0.7 -0.6062175 0.35 0.7 -0.7 0.0 0.7 -0.6062175 -0.35 0.7 -0.35 -0.6062175 0.7 0.0 -0.7 0.7 0.35 -0.6062175 0.7 0.6062175 -0.35 0.7 0.5855612 0.3380741 0.5188267 0.6761482 0.0 0.5188267 0.3380741 0.5855612 0.5188267 0.0 0.6761482 0.5188267 -0.3380741 0.5855612 0.5188267 -0.5855612 0.3380741 0.5188267 -0.6761482 0.0 0.5188267 -0.5855612 -0.3380741 0.5188267 -0.3380741 -0.5855612 0.5188267 0.0 -0.6761482 0.5188267 0.3380741 -0.5855612 0.5188267 0.5855612 -0.3380741 0.5188267 0.525 0.3031091 0.35 0.6062175 0.0 0.35 0.3031091 0.525 0.35 0.0 0.6062175 0.35 -0.3031091 0.525 0.35 -0.525 0.3031091 0.35 -0.6062175 0.0 0.35 -0.525 -0.3031091 0.35 -0.3031091 -0.525 0.35 0.0 -0.6062175 0.35 0.3031091 -0.525 0.35 0.525 -0.3031091 0.35 0.4286604 0.2474871 0.2050251 0.4949749 0.0 0.2050251 0.2474871 0.4286604 0.2050251 0.0 0.4949749 0.2050251 -0.2474871 0.4286604 0.2050251 -0.4286604 0.2474871 0.2050251 -0.4949749 0.0 0.2050251 -0.4286604 -0.2474871 0.2050251 -0.2474871 -0.4286604 0.2050251 0.0 -0.4949749 0.2050251 0.2474871 -0.4286604 0.2050251 0.4286604 -0.2474871 0.2050251 0.3031091 0.175 0.0937825 0.35 0.0 0.0937825 0.175 0.3031091 0.0937825 0.0 0.35 0.0937825 -0.175 0.3031091 0.0937825 -0.3031091 0.175 0.0937825 -0.35 0.0 0.0937825 -0.3031091 -0.175 0.0937825 -0.175 -0.3031091 0.0937825 0.0 -0.35 0.0937825 0.175 -0.3031091 0.0937825 0.3031091 -0.175 0.0937825 0.1569008 0.090587 0.0238518 0.1811733 0.0 0.0238518 0.090587 0.1569008 0.0238518 0.0 0.1811733 0.0238518 -0.090587 0.1569008 0.0238518 -0.1569008 0.090587 0.0238518 -0.1811733 0.0 0.0238518 -0.1569008 -0.090587 0.0238518 -0.090587 -0.1569008 0.0238518 0.0 -0.1811733 0.0238518 0.090587 -0.1569008 0.0238518 0.1569008 -0.090587 0.0238518 0.0 0.0 0.0</float_array>
                    <technique_common>
                        <accessor count="134" source="#geometry0-position-array" stride="3">
                            <param name="X" type="float"/>
                            <param name="Y" type="float"/>
                            <param name="Z" type="float"/>
                        </accessor>
                    </technique_common>
                </source>
                <source id="geometry0-normal">
                    <float_array id="geometry0-normal-array" count="2520">0.4398315 0.4398315 0.7830049 0.4398315 0.4398315 0.7830049 0.4398315 0.4398315 0.7830049 0.4398314 0.4398314 0.7830048 0.4398314 0.4398314 0.7830048 0.4398314 0.4398314 0.7830048 0.1609903 0.6008189 0.7830064 0.1609903 0.6008189 0.7830064 0.1609903 0.6008189 0.7830064 0.1609888 0.6008212 0.7830048 0.1609888 0.6008212 0.7830048 0.1609888 0.6008212 0.7830048 -0.1609907 0.6008204 0.783005 -0.1609907 0.6008204 0.783005 -0.1609907 0.6008204 0.783005 -0.1609882 0.6008191 0.7830065 -0.1609882 0.6008191 0.7830065 -0.1609882 0.6008191 0.7830065 -0.4398315 0.4398315 0.7830049 -0.4398315 0.4398315 0.7830049 -0.4398315 0.4398315 0.7830049 -0.4398314 0.4398314 0.7830048 -0.4398314 0.4398314 0.7830048 -0.4398314 0.4398314 0.7830048 -0.6008189 0.1609903 0.7830064 -0.6008189 0.1609903 0.7830064 -0.6008189 0.1609903 0.7830064 -0.6008212 0.1609888 0.7830048 -0.6008212 0.1609888 0.7830048 -0.6008212 0.1609888 0.7830048 -0.3806893 -0.1020049 0.9190596 -0.3806893 -0.1020049 0.9190596 -0.3806893 -0.1020049 0.9190596 -0.3806891 -0.1020045 0.9190598 -0.3806891 -0.1020045 0.9190598 -0.3806891 -0.1020045 0.9190598 -0.278684 -0.278684 0.9190595 -0.278684 -0.278684 0.9190595 -0.278684 -0.278684 0.9190595 -0.278684 -0.278684 0.9190596 -0.278684 -0.278684 0.9190596 -0.278684 -0.278684 0.9190596 -0.1020049 -0.3806891 0.9190597 -0.1020049 -0.3806891 0.9190597 -0.1020049 -0.3806891 0.9190597 -0.1020046 -0.3806896 0.9190597 -0.1020046 -0.3806896 0.9190597 -0.1020046 -0.3806896 0.9190597 0.1020049 -0.3806893 0.9190596 0.1020049 -0.3806893 0.9190596 0.1020049 -0.3806893 0.9190596 0.1020045 -0.3806891 0.9190598 0.1020045 -0.3806891 0.9190598 0.1020045 -0.3806891 0.9190598 0.278684 -0.278684 0.9190595 0.278684 -0.278684 0.9190595 0.278684 -0.278684 0.9190595 0.278684 -0.278684 0.9190596 0.278684 -0.278684 0.9190596 0.278684 -0.278684 0.9190596 0.3806891 -0.1020049 0.9190597 0.3806891 -0.1020049 0.9190597 0.3806891 -0.1020049 0.9190597 0.3806896 -0.1020046 0.9190597 0.3806896 -0.1020046 0.9190597 0.3806896 -0.1020046 0.9190597 0.3806893 0.1020049 0.9190596 0.3806893 0.1020049 0.9190596 0.3806893 0.1020049 0.9190596 0.3806891 0.1020045 0.9190598 0.3806891 0.1020045 0.9190598 0.3806891 0.1020045 0.9190598 0.278684 0.278684 0.9190595 0.278684 0.278684 0.9190595 0.278684 0.278684 0.9190595 0.278684 0.278684 0.9190596 0.278684 0.278684 0.9190596 0.278684 0.278684 0.9190596 0.1020049 0.3806891 0.9190597 0.1020049 0.3806891 0.9190597 0.1020049 0.3806891 0.9190597 0.1020046 0.3806896 0.9190597 0.1020046 0.3806896 0.9190597 0.1020046 0.3806896 0.9190597 -0.1020049 0.3806893 0.9190596 -0.1020049 0.3806893 0.9190596 -0.1020049 0.3806893 0.9190596 -0.1020045 0.3806891 0.9190598 -0.1020045 0.3806891 0.9190598 -0.1020045 0.3806891 0.9190598 -0.278684 0.278684 0.9190595 -0.278684 0.278684 0.9190595 -0.278684 0.278684 0.9190595 -0.278684 0.278684 0.9190596 -0.278684 0.278684 0.9190596 -0.278684 0.278684 0.9190596 -0.3806891 0.1020049 0.9190597 -0.3806891 0.1020049 0.9190597 -0.3806891 0.1020049 0.9190597 -0.3806896 0.1020046 0.9190597 -0.3806896 0.1020046 0.9190597 -0.3806896 0.1020046 0.9190597 -0.1304458 -0.0349525 0.9908391 -0.1304458 -0.0349525 0.9908391 -0.1304458 -0.0349525 0.9908391 1.0 0.0 0.0 1.0 0.0 0.0 -0.0954928 -0.0954928 0.9908392 -0.0954928 -0.0954928 0.9908392 -0.0954928 -0.0954928 0.9908392 1.0 0.0 0.0 1.0 0.0 0.0 -0.0349525 -0.1304458 0.9908391 -0.0349525 -0.1304458 0.9908391 -0.0349525 -0.1304458 0.9908391 1.0 0.0 0.0 1.0 0.0 0.0 0.0349525 -0.1304458 0.9908391 0.0349525 -0.1304458 0.9908391 0.0349525 -0.1304458 0.9908391 1.0 0.0 0.0 1.0 0.0 0.0 0.0954928 -0.0954928 0.9908392 0.0954928 -0.0954928 0.9908392 0.0954928 -0.0954928 0.9908392 1.0 0.0 0.0 1.0 0.0 0.0 0.1304458 -0.0349525 0.9908391 0.1304458 -0.0349525 0.9908391 0.1304458 -0.0349525 0.9908391 1.0 0.0 0.0 1.0 0.0 0.0 0.1304458 0.0349525 0.9908391 0.1304458 0.0349525 0.9908391 0.1304458 0.0349525 0.9908391 1.0 0.0 0.0 1.0 0.0 0.0 0.0954928 0.0954928 0.9908392 0.0954928 0.0954928 0.9908392 0.0954928 0.0954928 0.9908392 1.0 0.0 0.0 1.0 0.0 0.0 0.0349525 0.1304458 0.9908391 0.0349525 0.1304458 0.9908391 0.0349525 0.1304458 0.9908391 1.0 0.0 0.0 1.0 0.0 0.0 -0.0349525 0.1304458 0.9908391 -0.0349525 0.1304458 0.9908391 -0.0349525 0.1304458 0.9908391 1.0 0.0 0.0 1.0 0.0 0.0 -0.0954928 0.0954928 0.9908392 -0.0954928 0.0954928 0.9908392 -0.0954928 0.0954928 0.9908392 1.0 0.0 0.0 1.0 0.0 0.0 -0.1304458 0.0349525 0.9908391 -0.1304458 0.0349525 0.9908391 -0.1304458 0.0349525 0.9908391 1.0 0.0 0.0 1.0 0.0 0.0 1.0 0.0 0.0 1.0 0.0 0.0 -0.1304456 -0.0349525 -0.9908392 -0.1304456 -0.0349525 -0.9908392 -0.1304456 -0.0349525 -0.9908392 1.0 0.0 0.0 1.0 0.0 0.0 -0.0954926 -0.0954926 -0.9908392 -0.0954926 -0.0954926 -0.9908392 -0.0954926 -0.0954926 -0.9908392 1.0 0.0 0.0 1.0 0.0 0.0 -0.0349525 -0.1304456 -0.9908392 -0.0349525 -0.1304456 -0.9908392 -0.0349525 -0.1304456 -0.9908392 1.0 0.0 0.0 1.0 0.0 0.0 0.0349525 -0.1304456 -0.9908392 0.0349525 -0.1304456 -0.9908392 0.0349525 -0.1304456 -0.9908392 1.0 0.0 0.0 1.0 0.0 0.0 0.0954926 -0.0954926 -0.9908392 0.0954926 -0.0954926 -0.9908392 0.0954926 -0.0954926 -0.9908392 1.0 0.0 0.0 1.0 0.0 0.0 0.1304456 -0.0349525 -0.9908392 0.1304456 -0.0349525 -0.9908392 0.1304456 -0.0349525 -0.9908392 1.0 0.0 0.0 1.0 0.0 0.0 0.1304456 0.0349525 -0.9908392 0.1304456 0.0349525 -0.9908392 0.1304456 0.0349525 -0.9908392 1.0 0.0 0.0 1.0 0.0 0.0 0.0954926 0.0954926 -0.9908392 0.0954926 0.0954926 -0.9908392 0.0954926 0.0954926 -0.9908392 1.0 0.0 0.0 1.0 0.0 0.0 0.0349525 0.1304456 -0.9908392 0.0349525 0.1304456 -0.9908392 0.0349525 0.1304456 -0.9908392 1.0 0.0 0.0 1.0 0.0 0.0 -0.0349525 0.1304456 -0.9908392 -0.0349525 0.1304456 -0.9908392 -0.0349525 0.1304456 -0.9908392 1.0 0.0 0.0 1.0 0.0 0.0 -0.0954926 0.0954926 -0.9908392 -0.0954926 0.0954926 -0.9908392 -0.0954926 0.0954926 -0.9908392 1.0 0.0 0.0 1.0 0.0 0.0 -0.1304456 0.0349525 -0.9908392 -0.1304456 0.0349525 -0.9908392 -0.1304456 0.0349525 -0.9908392 -0.3806894 -0.1020045 -0.9190596 -0.3806894 -0.1020045 -0.9190596 -0.3806894 -0.1020045 -0.9190596 -0.380689 -0.1020048 -0.9190598 -0.380689 -0.1020048 -0.9190598 -0.380689 -0.1020048 -0.9190598 -0.2786839 -0.2786839 -0.9190596 -0.2786839 -0.2786839 -0.9190596 -0.2786839 -0.2786839 -0.9190596 -0.2786839 -0.2786839 -0.9190596 -0.2786839 -0.2786839 -0.9190596 -0.2786839 -0.2786839 -0.9190596 -0.1020044 -0.380689 -0.9190598 -0.1020044 -0.380689 -0.9190598 -0.1020044 -0.380689 -0.9190598 -0.1020049 -0.3806892 -0.9190597 -0.1020049 -0.3806892 -0.9190597 -0.1020049 -0.3806892 -0.9190597 0.1020045 -0.3806894 -0.9190596 0.1020045 -0.3806894 -0.9190596 0.1020045 -0.3806894 -0.9190596 0.1020048 -0.380689 -0.9190598 0.1020048 -0.380689 -0.9190598 0.1020048 -0.380689 -0.9190598 0.2786839 -0.2786839 -0.9190596 0.2786839 -0.2786839 -0.9190596 0.2786839 -0.2786839 -0.9190596 0.2786839 -0.2786839 -0.9190596 0.2786839 -0.2786839 -0.9190596 0.2786839 -0.2786839 -0.9190596 0.380689 -0.1020044 -0.9190598 0.380689 -0.1020044 -0.9190598 0.380689 -0.1020044 -0.9190598 0.3806892 -0.1020049 -0.9190597 0.3806892 -0.1020049 -0.9190597 0.3806892 -0.1020049 -0.9190597 0.3806894 0.1020045 -0.9190596 0.3806894 0.1020045 -0.9190596 0.3806894 0.1020045 -0.9190596 0.380689 0.1020048 -0.9190598 0.380689 0.1020048 -0.9190598 0.380689 0.1020048 -0.9190598 0.2786839 0.2786839 -0.9190596 0.2786839 0.2786839 -0.9190596 0.2786839 0.2786839 -0.9190596 0.2786839 0.2786839 -0.9190596 0.2786839 0.2786839 -0.9190596 0.2786839 0.2786839 -0.9190596 0.1020044 0.380689 -0.9190598 0.1020044 0.380689 -0.9190598 0.1020044 0.380689 -0.9190598 0.1020049 0.3806892 -0.9190597 0.1020049 0.3806892 -0.9190597 0.1020049 0.3806892 -0.9190597 -0.1020045 0.3806894 -0.9190596 -0.1020045 0.3806894 -0.9190596 -0.1020045 0.3806894 -0.9190596 -0.1020048 0.380689 -0.9190598 -0.1020048 0.380689 -0.9190598 -0.1020048 0.380689 -0.9190598 -0.2786839 0.2786839 -0.9190596 -0.2786839 0.2786839 -0.9190596 -0.2786839 0.2786839 -0.9190596 -0.2786839 0.2786839 -0.9190596 -0.2786839 0.2786839 -0.9190596 -0.2786839 0.2786839 -0.9190596 -0.380689 0.1020044 -0.9190598 -0.380689 0.1020044 -0.9190598 -0.380689 0.1020044 -0.9190598 -0.3806892 0.1020049 -0.9190597 -0.3806892 0.1020049 -0.9190597 -0.3806892 0.1020049 -0.9190597 -0.6008214 -0.1609889 -0.7830047 -0.6008214 -0.1609889 -0.7830047 -0.6008214 -0.1609889 -0.7830047 -0.600819 -0.1609903 -0.7830062 -0.600819 -0.1609903 -0.7830062 -0.600819 -0.1609903 -0.7830062 -0.4398316 -0.4398316 -0.7830048 -0.4398316 -0.4398316 -0.7830048 -0.4398316 -0.4398316 -0.7830048 -0.4398316 -0.4398316 -0.7830048 -0.4398316 -0.4398316 -0.7830048 -0.4398316 -0.4398316 -0.7830048 -0.1609883 -0.6008192 -0.7830064 -0.1609883 -0.6008192 -0.7830064 -0.1609883 -0.6008192 -0.7830064 -0.1609907 -0.6008205 -0.7830049 -0.1609907 -0.6008205 -0.7830049 -0.1609907 -0.6008205 -0.7830049 0.1609889 -0.6008214 -0.7830047 0.1609889 -0.6008214 -0.7830047 0.1609889 -0.6008214 -0.7830047 0.1609903 -0.600819 -0.7830062 0.1609903 -0.600819 -0.7830062 0.1609903 -0.600819 -0.7830062 0.4398316 -0.4398316 -0.7830048 0.4398316 -0.4398316 -0.7830048 0.4398316 -0.4398316 -0.7830048 0.4398316 -0.4398316 -0.7830048 0.4398316 -0.4398316 -0.7830048 0.4398316 -0.4398316 -0.7830048 0.6008192 -0.1609883 -0.7830064 0.6008192 -0.1609883 -0.7830064 0.6008192 -0.1609883 -0.7830064 0.6008205 -0.1609907 -0.7830049 0.6008205 -0.1609907 -0.7830049 0.6008205 -0.1609907 -0.7830049 0.6008214 0.1609889 -0.7830047 0.6008214 0.1609889 -0.7830047 0.6008214 0.1609889 -0.7830047 0.600819 0.1609903 -0.7830062 0.600819 0.1609903 -0.7830062 0.600819 0.1609903 -0.7830062 0.4398316 0.4398316 -0.7830048 0.4398316 0.4398316 -0.7830048 0.4398316 0.4398316 -0.7830048 0.4398316 0.4398316 -0.7830048 0.4398316 0.4398316 -0.7830048 0.4398316 0.4398316 -0.7830048 0.1609883 0.6008192 -0.7830064 0.1609883 0.6008192 -0.7830064 0.1609883 0.6008192 -0.7830064 0.1609907 0.6008205 -0.7830049 0.1609907 0.6008205 -0.7830049 0.1609907 0.6008205 -0.7830049 -0.1609889 0.6008214 -0.7830047 -0.1609889 0.6008214 -0.7830047 -0.1609889 0.6008214 -0.7830047 -0.1609903 0.600819 -0.7830062 -0.1609903 0.600819 -0.7830062 -0.1609903 0.600819 -0.7830062 -0.4398316 0.4398316 -0.7830048 -0.4398316 0.4398316 -0.7830048 -0.4398316 0.4398316 -0.7830048 -0.4398316 0.4398316 -0.7830048 -0.4398316 0.4398316 -0.7830048 -0.4398316 0.4398316 -0.7830048 -0.6008192 0.1609883 -0.7830064 -0.6008192 0.1609883 -0.7830064 -0.6008192 0.1609883 -0.7830064 -0.6008205 0.1609907 -0.7830049 -0.6008205 0.1609907 -0.7830049 -0.6008205 0.1609907 -0.7830049 -0.7760119 -0.2079335 -0.595457 -0.7760119 -0.2079335 -0.595457 -0.7760119 -0.2079335 -0.595457 -0.7760148 -0.2079317 -0.595454 -0.7760148 -0.2079317 -0.595454 -0.7760148 -0.2079317 -0.595454 -0.5680804 -0.5680804 -0.5954573 -0.5680804 -0.5680804 -0.5954573 -0.5680804 -0.5680804 -0.5954573 -0.5680803 -0.5680803 -0.5954574 -0.5680803 -0.5680803 -0.5954574 -0.5680803 -0.5680803 -0.5954574 -0.2079342 -0.7760145 -0.5954536 -0.2079342 -0.7760145 -0.5954536 -0.2079342 -0.7760145 -0.5954536 -0.2079312 -0.7760128 -0.5954568 -0.2079312 -0.7760128 -0.5954568 -0.2079312 -0.7760128 -0.5954568 0.2079335 -0.7760119 -0.595457 0.2079335 -0.7760119 -0.595457 0.2079335 -0.7760119 -0.595457 0.2079317 -0.7760148 -0.595454 0.2079317 -0.7760148 -0.595454 0.2079317 -0.7760148 -0.595454 0.5680804 -0.5680804 -0.5954573 0.5680804 -0.5680804 -0.5954573 0.5680804 -0.5680804 -0.5954573 0.5680803 -0.5680803 -0.5954574 0.5680803 -0.5680803 -0.5954574 0.5680803 -0.5680803 -0.5954574 0.7760145 -0.2079342 -0.5954536 0.7760145 -0.2079342 -0.5954536 0.7760145 -0.2079342 -0.5954536 0.7760128 -0.2079312 -0.5954568 0.7760128 -0.2079312 -0.5954568 0.7760128 -0.2079312 -0.5954568 0.7760119 0.2079335 -0.595457 0.7760119 0.2079335 -0.595457 0.7760119 0.2079335 -0.595457 0.7760148 0.2079317 -0.595454 0.7760148 0.2079317 -0.595454 0.7760148 0.2079317 -0.595454 0.5680804 0.5680804 -0.5954573 0.5680804 0.5680804 -0.5954573 0.5680804 0.5680804 -0.5954573 0.5680803 0.5680803 -0.5954574 0.5680803 0.5680803 -0.5954574 0.5680803 0.5680803 -0.5954574 0.2079342 0.7760145 -0.5954536 0.2079342 0.7760145 -0.5954536 0.2079342 0.7760145 -0.5954536 0.2079312 0.7760128 -0.5954568 0.2079312 0.7760128 -0.5954568 0.2079312 0.7760128 -0.5954568 -0.2079335 0.7760119 -0.595457 -0.2079335 0.7760119 -0.595457 -0.2079335 0.7760119 -0.595457 -0.2079317 0.7760148 -0.595454 -0.2079317 0.7760148 -0.595454 -0.2079317 0.7760148 -0.595454 -0.5680804 0.5680804 -0.5954573 -0.5680804 0.5680804 -0.5954573 -0.5680804 0.5680804 -0.5954573 -0.5680803 0.5680803 -0.5954574 -0.5680803 0.5680803 -0.5954574 -0.5680803 0.5680803 -0.5954574 -0.7760145 0.2079342 -0.5954536 -0.7760145 0.2079342 -0.5954536 -0.7760145 0.2079342 -0.5954536 -0.7760128 0.2079312 -0.5954568 -0.7760128 0.2079312 -0.5954568 -0.7760128 0.2079312 -0.5954568 -0.8968095 -0.2402985 -0.3714693 -0.8968095 -0.2402985 -0.3714693 -0.8968095 -0.2402985 -0.3714693 -0.896808 -0.2402997 -0.3714721 -0.896808 -0.2402997 -0.3714721 -0.896808 -0.2402997 -0.3714721 -0.6565099 -0.6565099 -0.3714693 -0.6565099 -0.6565099 -0.3714693 -0.6565099 -0.6565099 -0.3714693 -0.6565099 -0.6565099 -0.3714693 -0.6565099 -0.6565099 -0.3714693 -0.6565099 -0.6565099 -0.3714693 -0.2402982 -0.8968083 -0.3714722 -0.2402982 -0.8968083 -0.3714722 -0.2402982 -0.8968083 -0.3714722 -0.2403 -0.896809 -0.3714695 -0.2403 -0.896809 -0.3714695 -0.2403 -0.896809 -0.3714695 0.2402985 -0.8968095 -0.3714693 0.2402985 -0.8968095 -0.3714693 0.2402985 -0.8968095 -0.3714693 0.2402997 -0.896808 -0.3714721 0.2402997 -0.896808 -0.3714721 0.2402997 -0.896808 -0.3714721 0.6565099 -0.6565099 -0.3714693 0.6565099 -0.6565099 -0.3714693 0.6565099 -0.6565099 -0.3714693 0.6565099 -0.6565099 -0.3714693 0.6565099 -0.6565099 -0.3714693 0.6565099 -0.6565099 -0.3714693 0.8968083 -0.2402982 -0.3714722 0.8968083 -0.2402982 -0.3714722 0.8968083 -0.2402982 -0.3714722 0.896809 -0.2403 -0.3714695 0.896809 -0.2403 -0.3714695 0.896809 -0.2403 -0.3714695 0.8968095 0.2402985 -0.3714693 0.8968095 0.2402985 -0.3714693 0.8968095 0.2402985 -0.3714693 0.896808 0.2402997 -0.3714721 0.896808 0.2402997 -0.3714721 0.896808 0.2402997 -0.3714721 0.6565099 0.6565099 -0.3714693 0.6565099 0.6565099 -0.3714693 0.6565099 0.6565099 -0.3714693 0.6565099 0.6565099 -0.3714693 0.6565099 0.6565099 -0.3714693 0.6565099 0.6565099 -0.3714693 0.2402982 0.8968083 -0.3714722 0.2402982 0.8968083 -0.3714722 0.2402982 0.8968083 -0.3714722 0.2403 0.896809 -0.3714695 0.2403 0.896809 -0.3714695 0.2403 0.896809 -0.3714695 -0.2402985 0.8968095 -0.3714693 -0.2402985 0.8968095 -0.3714693 -0.2402985 0.8968095 -0.3714693 -0.2402997 0.896808 -0.3714721 -0.2402997 0.896808 -0.3714721 -0.2402997 0.896808 -0.3714721 -0.6565099 0.6565099 -0.3714693 -0.6565099 0.6565099 -0.3714693 -0.6565099 0.6565099 -0.3714693 -0.6565099 0.6565099 -0.3714693 -0.6565099 0.6565099 -0.3714693 -0.6565099 0.6565099 -0.3714693 -0.8968083 0.2402982 -0.3714722 -0.8968083 0.2402982 -0.3714722 -0.8968083 0.2402982 -0.3714722 -0.896809 0.2403 -0.3714695 -0.896809 0.2403 -0.3714695 -0.896809 0.2403 -0.3714695 -0.958209 -0.2567521 -0.1261501 -0.958209 -0.2567521 -0.1261501 -0.958209 -0.2567521 -0.1261501 -0.958209 -0.2567521 -0.12615 -0.958209 -0.2567521 -0.12615 -0.958209 -0.2567521 -0.12615 -0.7014578 -0.7014578 -0.1261501 -0.7014578 -0.7014578 -0.1261501 -0.7014578 -0.7014578 -0.1261501 -0.7014578 -0.7014578 -0.1261501 -0.7014578 -0.7014578 -0.1261501 -0.7014578 -0.7014578 -0.1261501 -0.2567521 -0.958209 -0.12615 -0.2567521 -0.958209 -0.12615 -0.2567521 -0.958209 -0.12615 -0.2567521 -0.958209 -0.1261501 -0.2567521 -0.958209 -0.1261501 -0.2567521 -0.958209 -0.1261501 0.2567521 -0.958209 -0.1261501 0.2567521 -0.958209 -0.1261501 0.2567521 -0.958209 -0.1261501 0.2567521 -0.958209 -0.12615 0.2567521 -0.958209 -0.12615 0.2567521 -0.958209 -0.12615 0.7014578 -0.7014578 -0.1261501 0.7014578 -0.7014578 -0.1261501 0.7014578 -0.7014578 -0.1261501 0.7014578 -0.7014578 -0.1261501 0.7014578 -0.7014578 -0.1261501 0.7014578 -0.7014578 -0.1261501 0.958209 -0.2567521 -0.12615 0.958209 -0.2567521 -0.12615 0.958209 -0.2567521 -0.12615 0.958209 -0.2567521 -0.1261501 0.958209 -0.2567521 -0.1261501 0.958209 -0.2567521 -0.1261501 0.958209 0.2567521 -0.1261501 0.958209 0.2567521 -0.1261501 0.958209 0.2567521 -0.1261501 0.958209 0.2567521 -0.12615 0.958209 0.2567521 -0.12615 0.958209 0.2567521 -0.12615 0.7014578 0.7014578 -0.1261501 0.7014578 0.7014578 -0.1261501 0.7014578 0.7014578 -0.1261501 0.7014578 0.7014578 -0.1261501 0.7014578 0.7014578 -0.1261501 0.7014578 0.7014578 -0.1261501 0.2567521 0.958209 -0.12615 0.2567521 0.958209 -0.12615 0.2567521 0.958209 -0.12615 0.2567521 0.958209 -0.1261501 0.2567521 0.958209 -0.1261501 0.2567521 0.958209 -0.1261501 -0.2567521 0.958209 -0.1261501 -0.2567521 0.958209 -0.1261501 -0.2567521 0.958209 -0.1261501 -0.2567521 0.958209 -0.12615 -0.2567521 0.958209 -0.12615 -0.2567521 0.958209 -0.12615 -0.7014578 0.7014578 -0.1261501 -0.7014578 0.7014578 -0.1261501 -0.7014578 0.7014578 -0.1261501 -0.7014578 0.7014578 -0.1261501 -0.7014578 0.7014578 -0.1261501 -0.7014578 0.7014578 -0.1261501 -0.958209 0.2567521 -0.12615 -0.958209 0.2567521 -0.12615 -0.958209 0.2567521 -0.12615 -0.958209 0.2567521 -0.1261501 -0.958209 0.2567521 -0.1261501 -0.958209 0.2567521 -0.1261501 -0.9582091 -0.2567521 0.1261502 -0.9582091 -0.2567521 0.1261502 -0.9582091 -0.2567521 0.1261502 -0.958209 -0.2567521 0.12615 -0.958209 -0.2567521 0.12615 -0.958209 -0.2567521 0.12615 -0.7014578 -0.7014578 0.1261501 -0.7014578 -0.7014578 0.1261501 -0.7014578 -0.7014578 0.1261501 -0.7014578 -0.7014578 0.1261502 -0.7014578 -0.7014578 0.1261502 -0.7014578 -0.7014578 0.1261502 -0.2567521 -0.9582091 0.1261501 -0.2567521 -0.9582091 0.1261501 -0.2567521 -0.9582091 0.1261501 -0.2567521 -0.958209 0.1261502 -0.2567521 -0.958209 0.1261502 -0.2567521 -0.958209 0.1261502 0.2567521 -0.9582091 0.1261502 0.2567521 -0.9582091 0.1261502 0.2567521 -0.9582091 0.1261502 0.2567521 -0.958209 0.12615 0.2567521 -0.958209 0.12615 0.2567521 -0.958209 0.12615 0.7014578 -0.7014578 0.1261501 0.7014578 -0.7014578 0.1261501 0.7014578 -0.7014578 0.1261501 0.7014578 -0.7014578 0.1261502 0.7014578 -0.7014578 0.1261502 0.7014578 -0.7014578 0.1261502 0.9582091 -0.2567521 0.1261501 0.9582091 -0.2567521 0.1261501 0.9582091 -0.2567521 0.1261501 0.958209 -0.2567521 0.1261502 0.958209 -0.2567521 0.1261502 0.958209 -0.2567521 0.1261502 0.9582091 0.2567521 0.1261502 0.9582091 0.2567521 0.1261502 0.9582091 0.2567521 0.1261502 0.958209 0.2567521 0.12615 0.958209 0.2567521 0.12615 0.958209 0.2567521 0.12615 0.7014578 0.7014578 0.1261501 0.7014578 0.7014578 0.1261501 0.7014578 0.7014578 0.1261501 0.7014578 0.7014578 0.1261502 0.7014578 0.7014578 0.1261502 0.7014578 0.7014578 0.1261502 0.2567521 0.9582091 0.1261501 0.2567521 0.9582091 0.1261501 0.2567521 0.9582091 0.1261501 0.2567521 0.958209 0.1261502 0.2567521 0.958209 0.1261502 0.2567521 0.958209 0.1261502 -0.2567521 0.9582091 0.1261502 -0.2567521 0.9582091 0.1261502 -0.2567521 0.9582091 0.1261502 -0.2567521 0.958209 0.12615 -0.2567521 0.958209 0.12615 -0.2567521 0.958209 0.12615 -0.7014578 0.7014578 0.1261501 -0.7014578 0.7014578 0.1261501 -0.7014578 0.7014578 0.1261501 -0.7014578 0.7014578 0.1261502 -0.7014578 0.7014578 0.1261502 -0.7014578 0.7014578 0.1261502 -0.9582091 0.2567521 0.1261501 -0.9582091 0.2567521 0.1261501 -0.9582091 0.2567521 0.1261501 -0.958209 0.2567521 0.1261502 -0.958209 0.2567521 0.1261502 -0.958209 0.2567521 0.1261502 -0.8968091 -0.2403 0.3714693 -0.8968091 -0.2403 0.3714693 -0.8968091 -0.2403 0.3714693 -0.8968084 -0.2402982 0.3714721 -0.8968084 -0.2402982 0.3714721 -0.8968084 -0.2402982 0.3714721 -0.65651 -0.65651 0.3714691 -0.65651 -0.65651 0.3714691 -0.65651 -0.65651 0.3714691 -0.6565099 -0.6565099 0.3714692 -0.6565099 -0.6565099 0.3714692 -0.6565099 -0.6565099 0.3714692 -0.2402997 -0.896808 0.3714719 -0.2402997 -0.896808 0.3714719 -0.2402997 -0.896808 0.3714719 -0.2402984 -0.8968095 0.3714692 -0.2402984 -0.8968095 0.3714692 -0.2402984 -0.8968095 0.3714692 0.2403 -0.8968091 0.3714693 0.2403 -0.8968091 0.3714693 0.2403 -0.8968091 0.3714693 0.2402982 -0.8968084 0.3714721 0.2402982 -0.8968084 0.3714721 0.2402982 -0.8968084 0.3714721 0.65651 -0.65651 0.3714691 0.65651 -0.65651 0.3714691 0.65651 -0.65651 0.3714691 0.6565099 -0.6565099 0.3714692 0.6565099 -0.6565099 0.3714692 0.6565099 -0.6565099 0.3714692 0.896808 -0.2402997 0.3714719 0.896808 -0.2402997 0.3714719 0.896808 -0.2402997 0.3714719 0.8968095 -0.2402984 0.3714692 0.8968095 -0.2402984 0.3714692 0.8968095 -0.2402984 0.3714692 0.8968091 0.2403 0.3714693 0.8968091 0.2403 0.3714693 0.8968091 0.2403 0.3714693 0.8968084 0.2402982 0.3714721 0.8968084 0.2402982 0.3714721 0.8968084 0.2402982 0.3714721 0.65651 0.65651 0.3714691 0.65651 0.65651 0.3714691 0.65651 0.65651 0.3714691 0.6565099 0.6565099 0.3714692 0.6565099 0.6565099 0.3714692 0.6565099 0.6565099 0.3714692 0.2402997 0.896808 0.3714719 0.2402997 0.896808 0.3714719 0.2402997 0.896808 0.3714719 0.2402984 0.8968095 0.3714692 0.2402984 0.8968095 0.3714692 0.2402984 0.8968095 0.3714692 -0.2403 0.8968091 0.3714693 -0.2403 0.8968091 0.3714693 -0.2403 0.8968091 0.3714693 -0.2402982 0.8968084 0.3714721 -0.2402982 0.8968084 0.3714721 -0.2402982 0.8968084 0.3714721 -0.65651 0.65651 0.3714691 -0.65651 0.65651 0.3714691 -0.65651 0.65651 0.3714691 -0.6565099 0.6565099 0.3714692 -0.6565099 0.6565099 0.3714692 -0.6565099 0.6565099 0.3714692 -0.896808 0.2402997 0.3714719 -0.896808 0.2402997 0.3714719 -0.896808 0.2402997 0.3714719 -0.8968095 0.2402984 0.3714692 -0.8968095 0.2402984 0.3714692 -0.8968095 0.2402984 0.3714692 -0.7760127 -0.2079312 0.5954569 -0.7760127 -0.2079312 0.5954569 -0.7760127 -0.2079312 0.5954569 -0.7760144 -0.2079342 0.5954537 -0.7760144 -0.2079342 0.5954537 -0.7760144 -0.2079342 0.5954537 -0.5680802 -0.5680802 0.5954575 -0.5680802 -0.5680802 0.5954575 -0.5680802 -0.5680802 0.5954575 -0.5680802 -0.5680802 0.5954575 -0.5680802 -0.5680802 0.5954575 -0.5680802 -0.5680802 0.5954575 -0.2079317 -0.7760147 0.595454 -0.2079317 -0.7760147 0.595454 -0.2079317 -0.7760147 0.595454 -0.2079335 -0.7760119 0.5954572 -0.2079335 -0.7760119 0.5954572 -0.2079335 -0.7760119 0.5954572 0.2079312 -0.7760127 0.5954569 0.2079312 -0.7760127 0.5954569 0.2079312 -0.7760127 0.5954569 0.2079342 -0.7760144 0.5954537 0.2079342 -0.7760144 0.5954537 0.2079342 -0.7760144 0.5954537 0.5680802 -0.5680802 0.5954575 0.5680802 -0.5680802 0.5954575 0.5680802 -0.5680802 0.5954575 0.5680802 -0.5680802 0.5954575 0.5680802 -0.5680802 0.5954575 0.5680802 -0.5680802 0.5954575 0.7760147 -0.2079317 0.595454 0.7760147 -0.2079317 0.595454 0.7760147 -0.2079317 0.595454 0.7760119 -0.2079335 0.5954572 0.7760119 -0.2079335 0.5954572 0.7760119 -0.2079335 0.5954572 0.7760127 0.2079312 0.5954569 0.7760127 0.2079312 0.5954569 0.7760127 0.2079312 0.5954569 0.7760144 0.2079342 0.5954537 0.7760144 0.2079342 0.5954537 0.7760144 0.2079342 0.5954537 0.5680802 0.5680802 0.5954575 0.5680802 0.5680802 0.5954575 0.5680802 0.5680802 0.5954575 0.5680802 0.5680802 0.5954575 0.5680802 0.5680802 0.5954575 0.5680802 0.5680802 0.5954575 0.2079317 0.7760147 0.595454 0.2079317 0.7760147 0.595454 0.2079317 0.7760147 0.595454 0.2079335 0.7760119 0.5954572 0.2079335 0.7760119 0.5954572 0.2079335 0.7760119 0.5954572 -0.2079312 0.7760127 0.5954569 -0.2079312 0.7760127 0.5954569 -0.2079312 0.7760127 0.5954569 -0.2079342 0.7760144 0.5954537 -0.2079342 0.7760144 0.5954537 -0.2079342 0.7760144 0.5954537 -0.5680802 0.5680802 0.5954575 -0.5680802 0.5680802 0.5954575 -0.5680802 0.5680802 0.5954575 -0.5680802 0.5680802 0.5954575 -0.5680802 0.5680802 0.5954575 -0.5680802 0.5680802 0.5954575 -0.7760147 0.2079317 0.595454 -0.7760147 0.2079317 0.595454 -0.7760147 0.2079317 0.595454 -0.7760119 0.2079335 0.5954572 -0.7760119 0.2079335 0.5954572 -0.7760119 0.2079335 0.5954572 -0.6008204 -0.1609907 0.783005 -0.6008204 -0.1609907 0.783005 -0.6008204 -0.1609907 0.783005 -0.6008191 -0.1609882 0.7830065 -0.6008191 -0.1609882 0.7830065 -0.6008191 -0.1609882 0.7830065 -0.4398315 -0.4398315 0.7830049 -0.4398315 -0.4398315 0.7830049 -0.4398315 -0.4398315 0.7830049 -0.4398314 -0.4398314 0.7830048 -0.4398314 -0.4398314 0.7830048 -0.4398314 -0.4398314 0.7830048 -0.1609903 -0.6008189 0.7830064 -0.1609903 -0.6008189 0.7830064 -0.1609903 -0.6008189 0.7830064 -0.1609888 -0.6008212 0.7830048 -0.1609888 -0.6008212 0.7830048 -0.1609888 -0.6008212 0.7830048 0.1609907 -0.6008204 0.783005 0.1609907 -0.6008204 0.783005 0.1609907 -0.6008204 0.783005 0.1609882 -0.6008191 0.7830065 0.1609882 -0.6008191 0.7830065 0.1609882 -0.6008191 0.7830065 0.4398315 -0.4398315 0.7830049 0.4398315 -0.4398315 0.7830049 0.4398315 -0.4398315 0.7830049 0.4398314 -0.4398314 0.7830048 0.4398314 -0.4398314 0.7830048 0.4398314 -0.4398314 0.7830048 0.6008189 -0.1609903 0.7830064 0.6008189 -0.1609903 0.7830064 0.6008189 -0.1609903 0.7830064 0.6008212 -0.1609888 0.7830048 0.6008212 -0.1609888 0.7830048 0.6008212 -0.1609888 0.7830048 0.6008204 0.1609907 0.783005 0.6008204 0.1609907 0.783005 0.6008204 0.1609907 0.783005 0.6008191 0.1609882 0.7830065 0.6008191 0.1609882 0.7830065 0.6008191 0.1609882 0.7830065</float_array>
                    <technique_common>
                        <accessor count="840" source="#geometry0-normal-array" stride="3">
                            <param name="X" type="float"/>
                            <param name="Y" type="float"/>
                            <param name="Z" type="float"/>
                        </accessor>
                    </technique_common>
                </source>
                <vertices id="geometry0-vertex">
                    <input semantic="POSITION" source="#geometry0-position"/>
                </vertices>
                <triangles count="288" material="default_ai_0.2_sh_0.2_tr_0.0_dc_r_0.8_g_0.8_b_0.8_sc_r_1.0_g_1.0_b_1.0_ec_r_0.0_g_0.0_b_0_tri">
                    <input offset="0" semantic="VERTEX" source="#geometry0-vertex"/>
                    <input offset="1" semantic="NORMAL" source="#geometry0-normal"/>
                    <p>104 0 105 1 117 2 104 3 117 4 116 5 105 6 106 7 118 8 105 9 118 10 117 11 106 12 107 13 119 14 106 15 119 16 118 17 107 18 108 19 120 20 107 21 120 22 119 23 108 24 98 25 110 26 108 27 110 28 120 29 110 30 109 31 121 32 110 33 121 34 122 35 109 36 111 37 123 38 109 39 123 40 121 41 111 42 112 43 124 44 111 45 124 46 123 47 112 48 113 49 125 50 112 51 125 52 124 53 113 54 114 55 126 56 113 57 126 58 125 59 114 60 115 61 127 62 114 63 127 64 126 65 115 66 116 67 128 68 115 69 128 70 127 71 116 72 117 73 129 74 116 75 129 76 128 77 117 78 118 79 130 80 117 81 130 82 129 83 118 84 119 85 131 86 118 87 131 88 130 89 119 90 120 91 132 92 119 93 132 94 131 95 120 96 110 97 122 98 120 99 122 100 132 101 122 102 121 103 133 104 122 105 133 106 133 106 121 107 123 108 133 109 121 110 133 111 133 111 123 112 124 113 133 114 123 115 133 116 133 116 124 117 125 118 133 119 124 120 133 121 133 121 125 122 126 123 133 124 125 125 133 126 133 126 126 127 127 128 133 129 126 130 133 131 133 131 127 132 128 133 133 134 127 135 133 136 133 136 128 137 129 138 133 139 128 140 133 141 133 141 129 142 130 143 133 144 129 145 133 146 133 146 130 147 131 148 133 149 130 150 133 151 133 151 131 152 132 153 133 154 131 155 133 156 133 156 132 157 122 158 133 159 132 160 133 161 133 161 0 162 0 162 1 163 0 164 1 165 2 166 0 167 0 167 3 168 0 169 3 170 1 171 0 172 0 172 4 173 0 174 4 175 3 176 0 177 0 177 5 178 0 179 5 180 4 181 0 182 0 182 6 183 0 184 6 185 5 186 0 187 0 187 7 188 0 189 7 190 6 191 0 192 0 192 8 193 0 194 8 195 7 196 0 197 0 197 9 198 0 199 9 200 8 201 0 202 0 202 10 203 0 204 10 205 9 206 0 207 0 207 11 208 0 209 11 210 10 211 0 212 0 212 12 213 0 214 12 215 11 216 0 217 0 217 2 218 0 219 2 220 12 221 2 222 1 223 13 224 2 225 13 226 14 227 1 228 3 229 15 230 1 231 15 232 13 233 3 234 4 235 16 236 3 237 16 238 15 239 4 240 5 241 17 242 4 243 17 244 16 245 5 246 6 247 18 248 5 249 18 250 17 251 6 252 7 253 19 254 6 255 19 256 18 257 7 258 8 259 20 260 7 261 20 262 19 263 8 264 9 265 21 266 8 267 21 268 20 269 9 270 10 271 22 272 9 273 22 274 21 275 10 276 11 277 23 278 10 279 23 280 22 281 11 282 12 283 24 284 11 285 24 286 23 287 12 288 2 289 14 290 12 291 14 292 24 293 14 294 13 295 25 296 14 297 25 298 26 299 13 300 15 301 27 302 13 303 27 304 25 305 15 306 16 307 28 308 15 309 28 310 27 311 16 312 17 313 29 314 16 315 29 316 28 317 17 318 18 319 30 320 17 321 30 322 29 323 18 324 19 325 31 326 18 327 31 328 30 329 19 330 20 331 32 332 19 333 32 334 31 335 20 336 21 337 33 338 20 339 33 340 32 341 21 342 22 343 34 344 21 345 34 346 33 347 22 348 23 349 35 350 22 351 35 352 34 353 23 354 24 355 36 356 23 357 36 358 35 359 24 360 14 361 26 362 24 363 26 364 36 365 26 366 25 367 37 368 26 369 37 370 38 371 25 372 27 373 39 374 25 375 39 376 37 377 27 378 28 379 40 380 27 381 40 382 39 383 28 384 29 385 41 386 28 387 41 388 40 389 29 390 30 391 42 392 29 393 42 394 41 395 30 396 31 397 43 398 30 399 43 400 42 401 31 402 32 403 44 404 31 405 44 406 43 407 32 408 33 409 45 410 32 411 45 412 44 413 33 414 34 415 46 416 33 417 46 418 45 419 34 420 35 421 47 422 34 423 47 424 46 425 35 426 36 427 48 428 35 429 48 430 47 431 36 432 26 433 38 434 36 435 38 436 48 437 38 438 37 439 49 440 38 441 49 442 50 443 37 444 39 445 51 446 37 447 51 448 49 449 39 450 40 451 52 452 39 453 52 454 51 455 40 456 41 457 53 458 40 459 53 460 52 461 41 462 42 463 54 464 41 465 54 466 53 467 42 468 43 469 55 470 42 471 55 472 54 473 43 474 44 475 56 476 43 477 56 478 55 479 44 480 45 481 57 482 44 483 57 484 56 485 45 486 46 487 58 488 45 489 58 490 57 491 46 492 47 493 59 494 46 495 59 496 58 497 47 498 48 499 60 500 47 501 60 502 59 503 48 504 38 505 50 506 48 507 50 508 60 509 50 510 49 511 61 512 50 513 61 514 62 515 49 516 51 517 63 518 49 519 63 520 61 521 51 522 52 523 64 524 51 525 64 526 63 527 52 528 53 529 65 530 52 531 65 532 64 533 53 534 54 535 66 536 53 537 66 538 65 539 54 540 55 541 67 542 54 543 67 544 66 545 55 546 56 547 68 548 55 549 68 550 67 551 56 552 57 553 69 554 56 555 69 556 68 557 57 558 58 559 70 560 57 561 70 562 69 563 58 564 59 565 71 566 58 567 71 568 70 569 59 570 60 571 72 572 59 573 72 574 71 575 60 576 50 577 62 578 60 579 62 580 72 581 62 582 61 583 73 584 62 585 73 586 74 587 61 588 63 589 75 590 61 591 75 592 73 593 63 594 64 595 76 596 63 597 76 598 75 599 64 600 65 601 77 602 64 603 77 604 76 605 65 606 66 607 78 608 65 609 78 610 77 611 66 612 67 613 79 614 66 615 79 616 78 617 67 618 68 619 80 620 67 621 80 622 79 623 68 624 69 625 81 626 68 627 81 628 80 629 69 630 70 631 82 632 69 633 82 634 81 635 70 636 71 637 83 638 70 639 83 640 82 641 71 642 72 643 84 644 71 645 84 646 83 647 72 648 62 649 74 650 72 651 74 652 84 653 74 654 73 655 85 656 74 657 85 658 86 659 73 660 75 661 87 662 73 663 87 664 85 665 75 666 76 667 88 668 75 669 88 670 87 671 76 672 77 673 89 674 76 675 89 676 88 677 77 678 78 679 90 680 77 681 90 682 89 683 78 684 79 685 91 686 78 687 91 688 90 689 79 690 80 691 92 692 79 693 92 694 91 695 80 696 81 697 93 698 80 699 93 700 92 701 81 702 82 703 94 704 81 705 94 706 93 707 82 708 83 709 95 710 82 711 95 712 94 713 83 714 84 715 96 716 83 717 96 718 95 719 84 720 74 721 86 722 84 723 86 724 96 725 86 726 85 727 97 728 86 729 97 730 98 731 85 732 87 733 99 734 85 735 99 736 97 737 87 738 88 739 100 740 87 741 100 742 99 743 88 744 89 745 101 746 88 747 101 748 100 749 89 750 90 751 102 752 89 753 102 754 101 755 90 756 91 757 103 758 90 759 103 760 102 761 91 762 92 763 104 764 91 765 104 766 103 767 92 768 93 769 105 770 92 771 105 772 104 773 93 774 94 775 106 776 93 777 106 778 105 779 94 780 95 781 107 782 94 783 107 784 106 785 95 786 96 787 108 788 95 789 108 790 107 791 96 792 86 793 98 794 96 795 98 796 108 797 98 798 97 799 109 800 98 801 109 802 110 803 97 804 99 805 111 806 97 807 111 808 109 809 99 810 100 811 112 812 99 813 112 814 111 815 100 816 101 817 113 818 100 819 113 820 112 821 101 822 102 823 114 824 101 825 114 826 113 827 102 828 103 829 115 830 102 831 115 832 114 833 103 834 104 835 116 836 103 837 116 838 115 839</p>
                </triangles>
            </mesh>
        </geometry>
    </library_geometries>
    <library_visual_scenes>
        <visual_scene id="Building_332_CROWN2">
            <node>
                <instance_geometry url="#geometry0">
                    <bind_material>
                        <technique_common>
                            <instance_material symbol="default_ai_0.2_sh_0.2_tr_0.0_dc_r_0.8_g_0.8_b_0.8_sc_r_1.0_g_1.0_b_1.0_ec_r_0.0_g_0.0_b_0_tri" target="#default_ai_0.2_sh_0.2_tr_0.0_dc_r_0.8_g_0.8_b_0.8_sc_r_1.0_g_1.0_b_1.0_ec_r_0.0_g_0.0_b_0_mat"/>
                        </technique_common>
                    </bind_material>
                </instance_geometry>
            </node>
        </visual_scene>
    </library_visual_scenes>
    <scene>
        <instance_visual_scene url="#Building_332_CROWN2"/>
    </scene>
</COLLADA>
