<?xml version="1.0" encoding="UTF-8" standalone="yes"?>
<COLLADA xmlns="http://www.collada.org/2005/11/COLLADASchema" version="1.4.1">
    <asset>
        <contributor>
            <authoring_tool>3D City Database Importer/Exporter, version 5.5.3; Chair of Geoinformatics, Technical University of Munich</authoring_tool>
        </contributor>
        <created>2026-09-25T14:44:48.743</created>
        <modified>2026-09-25T14:44:48.743</modified>
        <unit meter="1.0" name="meters"/>
        <up_axis>Z_UP</up_axis>
    </asset>
    <library_materials>
        <material id="default_ai_0.2_sh_0.2_tr_0.0_dc_r_0.8_g_0.8_b_0.8_sc_r_1.0_g_1.0_b_1.0_ec_r_0.0_g_0.0_b_0_mat">
            <instance_effect url="#default_ai_0.2_sh_0.2_tr_0.0_dc_r_0.8_g_0.8_b_0.8_sc_r_1.0_g_1.0_b_1.0_ec_r_0.0_g_0.0_b_0_eff"/>
        </material>
    </library_materials>
    <library_effects>
        <effect id="default_ai_0.2_sh_0.2_tr_0.0_dc_r_0.8_g_0.8_b_0.8_sc_r_1.0_g_1.0_b_1.0_ec_r_0.0_g_0.0_b_0_eff">
            <profile_COMMON>
                <technique sid="COMMON">
                    <lambert>
                        <emission>
                            <color>0.0 0.0 0.0 1.0</color>
                        </emission>
                        <diffuse>
                            <color>0.8 0.8 0.8 1.0</color>
                        </diffuse>
                        <reflective>
                            <color>1.0 1.0 1.0 1.0</color>
                        </reflective>
                        <reflectivity>
                            <float>0.2</float>
                        </reflectivity>
                        <transparent opaque="A_ONE">
                            <color>1.0 1.0 1.0 1.0</color>
                        </transparent>
                        <transparency>
                            <float>1.0</float>
                        </transparency>
                    </lambert>
                </technique>
                <extra>
                    <technique profile="GOOGLEEARTH">
                        <double_sided>0</double_sided>
                    </technique>
                </extra>
            </profile_COMMON>
        </effect>
    </library_effects>
    <library_geometries>
        <geometry id="geometry0">
            <mesh>
                <source id="geometry0-position">
                    <float_array id="geometry0-position-array" count="402">0.0 0.0 2.2 0.2465584 0.142351 2.1625186 0.2847009 0.0 2.1625186 0.142351 0.2465584 2.1625186 0.0 0.2847009 2.1625186 -0.142351 0.2465584 2.1625186 -0.2465584 0.142351 2.1625186 -0.2847009 0.0 2.1625186 -0.2465584 -0.142351 2.1625186 -0.142351 -0.2465584 2.1625186 0.0 -0.2847009 2.1625186 0.142351 -0.2465584 2.1625186 0.2465584 -0.142351 2.1625186 0.4763143 0.275 2.0526275 0.55 0.0 2.0526275 0.275 0.4763143 2.0526275 0.0 0.55 2.0526275 -0.275 0.4763143 2.0526275 -0.4763143 0.275 2.0526275 -0.55 0.0 2.0526275 -0.4763143 -0.275 2.0526275 -0.275 -0.4763143 2.0526275 0.0 -0.55 2.0526275 0.275 -0.4763143 2.0526275 0.4763143 -0.275 2.0526275 0.6736092 0.3889083 1.8778177 0.7778177 0.0 1.8778177 0.3889083 0.6736092 1.8778177 0.0 0.7778177 1.8778177 -0.3889083 0.6736092 1.8778177 -0.6736092 0.3889083 1.8778177 -0.7778177 0.0 1.8778177 -0.6736092 -0.3889083 1.8778177 -0.3889083 -0.6736092 1.8778177 0.0 -0.7778177 1.8778177 0.3889083 -0.6736092 1.8778177 0.6736092 -0.3889083 1.8778177 0.825 0.4763143 1.65 0.9526275 0.0 1.65 0.4763143 0.825 1.65 0.0 0.9526275 1.65 -0.4763143 0.825 1.65 -0.825 0.4763143 1.65 -0.9526275 0.0 1.65 -0.825 -0.4763143 1.65 -0.4763143 -0.825 1.65 0.0 -0.9526275 1.65 0.4763143 -0.825 1.65 0.825 -0.4763143 1.65 0.9201676 0.5312593 1.3847009 1.0625186 0.0 1.3847009 0.5312593 0.9201676 1.3847009 0.0 1.0625186 1.3847009 -0.5312593 0.9201676 1.3847009 -0.9201676 0.5312593 1.3847009 -1.0625186 0.0 1.3847009 -0.9201676 -0.5312593 1.3847009 -0.5312593 -0.9201676 1.3847009 0.0 -1.0625186 1.3847009 0.5312593 -0.9201676 1.3847009 0.9201676 -0.5312593 1.3847009 0.9526275 0.55 1.1 1.1 0.0 1.1 0.55 0.9526275 1.1 0.0 1.1 1.1 -0.55 0.9526275 1.1 -0.9526275 0.55 1.1 -1.1 0.0 1.1 -0.9526275 -0.55 1.1 -0.55 -0.9526275 1.1 0.0 -1.1 1.1 0.55 -0.9526275 1.1 0.9526275 -0.55 1.1 0.9201676 0.5312593 0.8152991 1.0625186 0.0 0.8152991 0.5312593 0.9201676 0.8152991 0.0 1.0625186 0.8152991 -0.5312593 0.9201676 0.8152991 -0.9201676 0.5312593 0.8152991 -1.0625186 0.0 0.8152991 -0.9201676 -0.5312593 0.8152991 -0.5312593 -0.9201676 0.8152991 0.0 -1.0625186 0.8152991 0.5312593 -0.9201676 0.8152991 0.9201676 -0.5312593 0.8152991 0.825 0.4763143 0.55 0.9526275 0.0 0.55 0.4763143 0.825 0.55 0.0 0.9526275 0.55 -0.4763143 0.825 0.55 -0.825 0.4763143 0.55 -0.9526275 0.0 0.55 -0.825 -0.4763143 0.55 -0.4763143 -0.825 0.55 0.0 -0.9526275 0.55 0.4763143 -0.825 0.55 0.825 -0.4763143 0.55 0.6736092 0.3889083 0.3221823 0.7778177 0.0 0.3221823 0.3889083 0.6736092 0.3221823 0.0 0.7778177 0.3221823 -0.3889083 0.6736092 0.3221823 -0.6736092 0.3889083 0.3221823 -0.7778177 0.0 0.3221823 -0.6736092 -0.3889083 0.3221823 -0.3889083 -0.6736092 0.3221823 0.0 -0.7778177 0.3221823 0.3889083 -0.6736092 0.3221823 0.6736092 -0.3889083 0.3221823 0.4763143 0.275 0.1473725 0.55 0.0 0.1473725 0.275 0.4763143 0.1473725 0.0 0.55 0.1473725 -0.275 0.4763143 0.1473725 -0.4763143 0.275 0.1473725 -0.55 0.0 0.1473725 -0.4763143 -0.275 0.1473725 -0.275 -0.4763143 0.1473725 0.0 -0.55 0.1473725 0.275 -0.4763143 0.1473725 0.4763143 -0.275 0.1473725 0.2465584 0.142351 0.0374814 0.2847009 0.0 0.0374814 0.142351 0.2465584 0.0374814 0.0 0.2847009 0.0374814 -0.142351 0.2465584 0.0374814 -0.2465584 0.142351 0.0374814 -0.2847009 0.0 0.0374814 -0.2465584 -0.142351 0.0374814 -0.142351 -0.2465584 0.0374814 0.0 -0.2847009 0.0374814 0.142351 -0.2465584 0.0374814 0.2465584 -0.142351 0.0374814 0.0 0.0 0.0</float_array>
                    <technique_common>
                        <accessor count="134" source="#geometry0-position-array" stride="3">
                            <param name="X" type="float"/>
                            <param name="Y" type="float"/>
                            <param name="Z" type="float"/>
                        </accessor>
                    </technique_common>
                </source>
                <source id="geometry0-normal">
                    <float_array id="geometry0-normal-array" count="2520">0.8968083 -0.2402981 -0.3714723 0.8968083 -0.2402981 -0.3714723 0.8968083 -0.2402981 -0.3714723 0.896809 -0.2403 -0.3714693 0.896809 -0.2403 -0.3714693 0.896809 -0.2403 -0.3714693 0.8968095 0.2402984 -0.3714692 0.8968095 0.2402984 -0.3714692 0.8968095 0.2402984 -0.3714692 0.8968079 0.2402997 -0.3714722 0.8968079 0.2402997 -0.3714722 0.8968079 0.2402997 -0.3714722 0.6565099 0.6565099 -0.3714692 0.6565099 0.6565099 -0.3714692 0.6565099 0.6565099 -0.3714692 0.6565099 0.6565099 -0.3714692 0.6565099 0.6565099 -0.3714692 0.6565099 0.6565099 -0.3714692 0.2402981 0.8968083 -0.3714723 0.2402981 0.8968083 -0.3714723 0.2402981 0.8968083 -0.3714723 0.2403 0.896809 -0.3714693 0.2403 0.896809 -0.3714693 0.2403 0.896809 -0.3714693 -0.2402984 0.8968095 -0.3714692 -0.2402984 0.8968095 -0.3714692 -0.2402984 0.8968095 -0.3714692 -0.2402997 0.8968079 -0.3714722 -0.2402997 0.8968079 -0.3714722 -0.2402997 0.8968079 -0.3714722 -0.6565099 0.6565099 -0.3714692 -0.6565099 0.6565099 -0.3714692 -0.6565099 0.6565099 -0.3714692 -0.6565099 0.6565099 -0.3714692 -0.6565099 0.6565099 -0.3714692 -0.6565099 0.6565099 -0.3714692 -0.8968083 0.2402981 -0.3714723 -0.8968083 0.2402981 -0.3714723 -0.8968083 0.2402981 -0.3714723 -0.896809 0.2403 -0.3714693 -0.896809 0.2403 -0.3714693 -0.896809 0.2403 -0.3714693 -0.958209 -0.2567522 -0.1261501 -0.958209 -0.2567522 -0.1261501 -0.958209 -0.2567522 -0.1261501 -0.958209 -0.2567522 -0.1261501 -0.958209 -0.2567522 -0.1261501 -0.958209 -0.2567522 -0.1261501 -0.7014578 -0.7014578 -0.1261501 -0.7014578 -0.7014578 -0.1261501 -0.7014578 -0.7014578 -0.1261501 -0.7014578 -0.7014578 -0.12615 -0.7014578 -0.7014578 -0.12615 -0.7014578 -0.7014578 -0.12615 -0.2567522 -0.958209 -0.1261501 -0.2567522 -0.958209 -0.1261501 -0.2567522 -0.958209 -0.1261501 -0.2567522 -0.958209 -0.1261501 -0.2567522 -0.958209 -0.1261501 -0.2567522 -0.958209 -0.1261501 0.2567522 -0.958209 -0.1261501 0.2567522 -0.958209 -0.1261501 0.2567522 -0.958209 -0.1261501 0.2567522 -0.958209 -0.1261501 0.2567522 -0.958209 -0.1261501 0.2567522 -0.958209 -0.1261501 0.7014578 -0.7014578 -0.1261501 0.7014578 -0.7014578 -0.1261501 0.7014578 -0.7014578 -0.1261501 0.7014578 -0.7014578 -0.12615 0.7014578 -0.7014578 -0.12615 0.7014578 -0.7014578 -0.12615 0.958209 -0.2567522 -0.1261501 0.958209 -0.2567522 -0.1261501 0.958209 -0.2567522 -0.1261501 0.958209 -0.2567522 -0.1261501 0.958209 -0.2567522 -0.1261501 0.958209 -0.2567522 -0.1261501 0.958209 0.2567522 -0.1261501 0.958209 0.2567522 -0.1261501 0.958209 0.2567522 -0.1261501 0.958209 0.2567522 -0.1261501 0.958209 0.2567522 -0.1261501 0.958209 0.2567522 -0.1261501 0.7014578 0.7014578 -0.1261501 0.7014578 0.7014578 -0.1261501 0.7014578 0.7014578 -0.1261501 0.7014578 0.7014578 -0.12615 0.7014578 0.7014578 -0.12615 0.7014578 0.7014578 -0.12615 0.2567522 0.958209 -0.1261501 0.2567522 0.958209 -0.1261501 0.2567522 0.958209 -0.1261501 0.2567522 0.958209 -0.1261501 0.2567522 0.958209 -0.1261501 0.2567522 0.958209 -0.1261501 -0.2567522 0.958209 -0.1261501 -0.2567522 0.958209 -0.1261501 -0.2567522 0.958209 -0.1261501 -0.2567522 0.958209 -0.1261501 -0.2567522 0.958209 -0.1261501 -0.2567522 0.958209 -0.1261501 -0.7014578 0.7014578 -0.1261501 -0.7014578 0.7014578 -0.1261501 -0.7014578 0.7014578 -0.1261501 -0.7014578 0.7014578 -0.12615 -0.7014578 0.7014578 -0.12615 -0.7014578 0.7014578 -0.12615 -0.958209 0.2567522 -0.1261501 -0.958209 0.2567522 -0.1261501 -0.958209 0.2567522 -0.1261501 -0.958209 0.2567522 -0.1261501 -0.958209 0.2567522 -0.1261501 -0.958209 0.2567522 -0.1261501 -0.958209 -0.2567522 0.1261501 -0.958209 -0.2567522 0.1261501 -0.958209 -0.2567522 0.1261501 -0.958209 -0.2567522 0.12615 -0.958209 -0.2567522 0.12615 -0.958209 -0.2567522 0.12615 -0.7014578 -0.7014578 0.1261501 -0.7014578 -0.7014578 0.1261501 -0.7014578 -0.7014578 0.1261501 -0.7014578 -0.7014578 0.1261501 -0.7014578 -0.7014578 0.1261501 -0.7014578 -0.7014578 0.1261501 -0.2567522 -0.958209 0.1261501 -0.2567522 -0.958209 0.1261501 -0.2567522 -0.958209 0.1261501 -0.2567522 -0.958209 0.12615 -0.2567522 -0.958209 0.12615 -0.2567522 -0.958209 0.12615 0.2567522 -0.958209 0.1261501 0.2567522 -0.958209 0.1261501 0.2567522 -0.958209 0.1261501 0.2567522 -0.958209 0.12615 0.2567522 -0.958209 0.12615 0.2567522 -0.958209 0.12615 0.7014578 -0.7014578 0.1261501 0.7014578 -0.7014578 0.1261501 0.7014578 -0.7014578 0.1261501 0.7014578 -0.7014578 0.1261501 0.7014578 -0.7014578 0.1261501 0.7014578 -0.7014578 0.1261501 0.958209 -0.2567522 0.1261501 0.958209 -0.2567522 0.1261501 0.958209 -0.2567522 0.1261501 0.958209 -0.2567522 0.12615 0.958209 -0.2567522 0.12615 0.958209 -0.2567522 0.12615 0.958209 0.2567522 0.1261501 0.958209 0.2567522 0.1261501 0.958209 0.2567522 0.1261501 0.958209 0.2567522 0.12615 0.958209 0.2567522 0.12615 0.958209 0.2567522 0.12615 0.7014578 0.7014578 0.1261501 0.7014578 0.7014578 0.1261501 0.7014578 0.7014578 0.1261501 0.7014578 0.7014578 0.1261501 0.7014578 0.7014578 0.1261501 0.7014578 0.7014578 0.1261501 0.2567522 0.958209 0.1261501 0.2567522 0.958209 0.1261501 0.2567522 0.958209 0.1261501 0.2567522 0.958209 0.12615 0.2567522 0.958209 0.12615 0.2567522 0.958209 0.12615 -0.2567522 0.958209 0.1261501 -0.2567522 0.958209 0.1261501 -0.2567522 0.958209 0.1261501 -0.2567522 0.958209 0.12615 -0.2567522 0.958209 0.12615 -0.2567522 0.958209 0.12615 -0.7014578 0.7014578 0.1261501 -0.7014578 0.7014578 0.1261501 -0.7014578 0.7014578 0.1261501 -0.7014578 0.7014578 0.1261501 -0.7014578 0.7014578 0.1261501 -0.7014578 0.7014578 0.1261501 -0.958209 0.2567522 0.1261501 -0.958209 0.2567522 0.1261501 -0.958209 0.2567522 0.1261501 -0.958209 0.2567522 0.12615 -0.958209 0.2567522 0.12615 -0.958209 0.2567522 0.12615 -0.896809 -0.2403 0.3714694 -0.896809 -0.2403 0.3714694 -0.896809 -0.2403 0.3714694 -0.8968083 -0.2402981 0.3714724 -0.8968083 -0.2402981 0.3714724 -0.8968083 -0.2402981 0.3714724 -0.6565099 -0.6565099 0.3714692 -0.6565099 -0.6565099 0.3714692 -0.6565099 -0.6565099 0.3714692 -0.6565099 -0.6565099 0.3714691 -0.6565099 -0.6565099 0.3714691 -0.6565099 -0.6565099 0.3714691 -0.2402997 -0.8968079 0.3714722 -0.2402997 -0.8968079 0.3714722 -0.2402997 -0.8968079 0.3714722 -0.2402984 -0.8968095 0.3714692 -0.2402984 -0.8968095 0.3714692 -0.2402984 -0.8968095 0.3714692 0.2403 -0.896809 0.3714694 0.2403 -0.896809 0.3714694 0.2403 -0.896809 0.3714694 0.2402981 -0.8968083 0.3714724 0.2402981 -0.8968083 0.3714724 0.2402981 -0.8968083 0.3714724 0.6565099 -0.6565099 0.3714692 0.6565099 -0.6565099 0.3714692 0.6565099 -0.6565099 0.3714692 0.6565099 -0.6565099 0.3714691 0.6565099 -0.6565099 0.3714691 0.6565099 -0.6565099 0.3714691 0.8968079 -0.2402997 0.3714722 0.8968079 -0.2402997 0.3714722 0.8968079 -0.2402997 0.3714722 0.8968095 -0.2402984 0.3714692 0.8968095 -0.2402984 0.3714692 0.8968095 -0.2402984 0.3714692 0.896809 0.2403 0.3714694 0.896809 0.2403 0.3714694 0.896809 0.2403 0.3714694 0.8968083 0.2402981 0.3714724 0.8968083 0.2402981 0.3714724 0.8968083 0.2402981 0.3714724 0.6565099 0.6565099 0.3714692 0.6565099 0.6565099 0.3714692 0.6565099 0.6565099 0.3714692 0.6565099 0.6565099 0.3714691 0.6565099 0.6565099 0.3714691 0.6565099 0.6565099 0.3714691 0.2402997 0.8968079 0.3714722 0.2402997 0.8968079 0.3714722 0.2402997 0.8968079 0.3714722 0.2402984 0.8968095 0.3714692 0.2402984 0.8968095 0.3714692 0.2402984 0.8968095 0.3714692 -0.2403 0.896809 0.3714694 -0.2403 0.896809 0.3714694 -0.2403 0.896809 0.3714694 -0.2402981 0.8968083 0.3714724 -0.2402981 0.8968083 0.3714724 -0.2402981 0.8968083 0.3714724 -0.6565099 0.6565099 0.3714692 -0.6565099 0.6565099 0.3714692 -0.6565099 0.6565099 0.3714692 -0.6565099 0.6565099 0.3714691 -0.6565099 0.6565099 0.3714691 -0.6565099 0.6565099 0.3714691 -0.8968079 0.2402997 0.3714722 -0.8968079 0.2402997 0.3714722 -0.8968079 0.2402997 0.3714722 -0.8968095 0.2402984 0.3714692 -0.8968095 0.2402984 0.3714692 -0.8968095 0.2402984 0.3714692 -0.7760127 -0.2079311 0.5954568 -0.7760127 -0.2079311 0.5954568 -0.7760127 -0.2079311 0.5954568 -0.7760144 -0.2079342 0.5954537 -0.7760144 -0.2079342 0.5954537 -0.7760144 -0.2079342 0.5954537 -0.5680803 -0.5680803 0.5954575 -0.5680803 -0.5680803 0.5954575 -0.5680803 -0.5680803 0.5954575 -0.5680803 -0.5680803 0.5954575 -0.5680803 -0.5680803 0.5954575 -0.5680803 -0.5680803 0.5954575 -0.2079317 -0.7760148 0.595454 -0.2079317 -0.7760148 0.595454 -0.2079317 -0.7760148 0.595454 -0.2079335 -0.7760119 0.5954572 -0.2079335 -0.7760119 0.5954572 -0.2079335 -0.7760119 0.5954572 0.2079311 -0.7760127 0.5954568 0.2079311 -0.7760127 0.5954568 0.2079311 -0.7760127 0.5954568 0.2079342 -0.7760144 0.5954537 0.2079342 -0.7760144 0.5954537 0.2079342 -0.7760144 0.5954537 0.5680803 -0.5680803 0.5954575 0.5680803 -0.5680803 0.5954575 0.5680803 -0.5680803 0.5954575 0.5680803 -0.5680803 0.5954575 0.5680803 -0.5680803 0.5954575 0.5680803 -0.5680803 0.5954575 0.7760148 -0.2079317 0.595454 0.7760148 -0.2079317 0.595454 0.7760148 -0.2079317 0.595454 0.7760119 -0.2079335 0.5954572 0.7760119 -0.2079335 0.5954572 0.7760119 -0.2079335 0.5954572 0.7760127 0.2079311 0.5954568 0.7760127 0.2079311 0.5954568 0.7760127 0.2079311 0.5954568 0.7760144 0.2079342 0.5954537 0.7760144 0.2079342 0.5954537 0.7760144 0.2079342 0.5954537 0.5680803 0.5680803 0.5954575 0.5680803 0.5680803 0.5954575 0.5680803 0.5680803 0.5954575 0.5680803 0.5680803 0.5954575 0.5680803 0.5680803 0.5954575 0.5680803 0.5680803 0.5954575 0.2079317 0.7760148 0.595454 0.2079317 0.7760148 0.595454 0.2079317 0.7760148 0.595454 0.2079335 0.7760119 0.5954572 0.2079335 0.7760119 0.5954572 0.2079335 0.7760119 0.5954572 -0.2079311 0.7760127 0.5954568 -0.2079311 0.7760127 0.5954568 -0.2079311 0.7760127 0.5954568 -0.2079342 0.7760144 0.5954537 -0.2079342 0.7760144 0.5954537 -0.2079342 0.7760144 0.5954537 -0.5680803 0.5680803 0.5954575 -0.5680803 0.5680803 0.5954575 -0.5680803 0.5680803 0.5954575 -0.5680803 0.5680803 0.5954575 -0.5680803 0.5680803 0.5954575 -0.5680803 0.5680803 0.5954575 -0.7760148 0.2079317 0.595454 -0.7760148 0.2079317 0.595454 -0.7760148 0.2079317 0.595454 -0.7760119 0.2079335 0.5954572 -0.7760119 0.2079335 0.5954572 -0.7760119 0.2079335 0.5954572 -0.6008204 -0.1609907 0.783005 -0.6008204 -0.1609907 0.783005 -0.6008204 -0.1609907 0.783005 -0.600819 -0.1609883 0.7830065 -0.600819 -0.1609883 0.7830065 -0.600819 -0.1609883 0.7830065 -0.4398314 -0.4398314 0.7830049 -0.4398314 -0.4398314 0.7830049 -0.4398314 -0.4398314 0.7830049 -0.4398314 -0.4398314 0.7830049 -0.4398314 -0.4398314 0.7830049 -0.4398314 -0.4398314 0.7830049 -0.1609903 -0.6008189 0.7830064 -0.1609903 -0.6008189 0.7830064 -0.1609903 -0.6008189 0.7830064 -0.1609889 -0.6008212 0.7830048 -0.1609889 -0.6008212 0.7830048 -0.1609889 -0.6008212 0.7830048 0.1609907 -0.6008204 0.783005 0.1609907 -0.6008204 0.783005 0.1609907 -0.6008204 0.783005 0.1609883 -0.600819 0.7830065 0.1609883 -0.600819 0.7830065 0.1609883 -0.600819 0.7830065 0.4398314 -0.4398314 0.7830049 0.4398314 -0.4398314 0.7830049 0.4398314 -0.4398314 0.7830049 0.4398314 -0.4398314 0.7830049 0.4398314 -0.4398314 0.7830049 0.4398314 -0.4398314 0.7830049 0.6008189 -0.1609903 0.7830064 0.6008189 -0.1609903 0.7830064 0.6008189 -0.1609903 0.7830064 0.6008212 -0.1609889 0.7830048 0.6008212 -0.1609889 0.7830048 0.6008212 -0.1609889 0.7830048 0.6008204 0.1609907 0.783005 0.6008204 0.1609907 0.783005 0.6008204 0.1609907 0.783005 0.600819 0.1609883 0.7830065 0.600819 0.1609883 0.7830065 0.600819 0.1609883 0.7830065 0.4398314 0.4398314 0.7830049 0.4398314 0.4398314 0.7830049 0.4398314 0.4398314 0.7830049 0.4398314 0.4398314 0.7830049 0.4398314 0.4398314 0.7830049 0.4398314 0.4398314 0.7830049 0.1609903 0.6008189 0.7830064 0.1609903 0.6008189 0.7830064 0.1609903 0.6008189 0.7830064 0.1609889 0.6008212 0.7830048 0.1609889 0.6008212 0.7830048 0.1609889 0.6008212 0.7830048 -0.1609907 0.6008204 0.783005 -0.1609907 0.6008204 0.783005 -0.1609907 0.6008204 0.783005 -0.1609883 0.600819 0.7830065 -0.1609883 0.600819 0.7830065 -0.1609883 0.600819 0.7830065 -0.4398314 0.4398314 0.7830049 -0.4398314 0.4398314 0.7830049 -0.4398314 0.4398314 0.7830049 -0.4398314 0.4398314 0.7830049 -0.4398314 0.4398314 0.7830049 -0.4398314 0.4398314 0.7830049 -0.6008189 0.1609903 0.7830064 -0.6008189 0.1609903 0.7830064 -0.6008189 0.1609903 0.7830064 -0.6008212 0.1609889 0.7830048 -0.6008212 0.1609889 0.7830048 -0.6008212 0.1609889 0.7830048 -0.3806894 -0.102005 0.9190596 -0.3806894 -0.102005 0.9190596 -0.3806894 -0.102005 0.9190596 -0.3806891 -0.1020044 0.9190598 -0.3806891 -0.1020044 0.9190598 -0.3806891 -0.1020044 0.9190598 -0.278684 -0.278684 0.9190595 -0.278684 -0.278684 0.9190595 -0.278684 -0.278684 0.9190595 -0.278684 -0.278684 0.9190595 -0.278684 -0.278684 0.9190595 -0.278684 -0.278684 0.9190595 -0.1020049 -0.3806891 0.9190598 -0.1020049 -0.3806891 0.9190598 -0.1020049 -0.3806891 0.9190598 -0.1020046 -0.3806895 0.9190596 -0.1020046 -0.3806895 0.9190596 -0.1020046 -0.3806895 0.9190596 0.102005 -0.3806894 0.9190596 0.102005 -0.3806894 0.9190596 0.102005 -0.3806894 0.9190596 0.1020044 -0.3806891 0.9190598 0.1020044 -0.3806891 0.9190598 0.1020044 -0.3806891 0.9190598 0.278684 -0.278684 0.9190595 0.278684 -0.278684 0.9190595 0.278684 -0.278684 0.9190595 0.278684 -0.278684 0.9190595 0.278684 -0.278684 0.9190595 0.278684 -0.278684 0.9190595 0.3806891 -0.1020049 0.9190598 0.3806891 -0.1020049 0.9190598 0.3806891 -0.1020049 0.9190598 0.3806895 -0.1020046 0.9190596 0.3806895 -0.1020046 0.9190596 0.3806895 -0.1020046 0.9190596 0.3806894 0.102005 0.9190596 0.3806894 0.102005 0.9190596 0.3806894 0.102005 0.9190596 0.3806891 0.1020044 0.9190598 0.3806891 0.1020044 0.9190598 0.3806891 0.1020044 0.9190598 0.278684 0.278684 0.9190595 0.278684 0.278684 0.9190595 0.278684 0.278684 0.9190595 0.278684 0.278684 0.9190595 0.278684 0.278684 0.9190595 0.278684 0.278684 0.9190595 0.1020049 0.3806891 0.9190598 0.1020049 0.3806891 0.9190598 0.1020049 0.3806891 0.9190598 0.1020046 0.3806895 0.9190596 0.1020046 0.3806895 0.9190596 0.1020046 0.3806895 0.9190596 -0.102005 0.3806894 0.9190596 -0.102005 0.3806894 0.9190596 -0.102005 0.3806894 0.9190596 -0.1020044 0.3806891 0.9190598 -0.1020044 0.3806891 0.9190598 -0.1020044 0.3806891 0.9190598 -0.278684 0.278684 0.9190595 -0.278684 0.278684 0.9190595 -0.278684 0.278684 0.9190595 -0.278684 0.278684 0.9190595 -0.278684 0.278684 0.9190595 -0.278684 0.278684 0.9190595 -0.3806891 0.1020049 0.9190598 -0.3806891 0.1020049 0.9190598 -0.3806891 0.1020049 0.9190598 -0.3806895 0.1020046 0.9190596 -0.3806895 0.1020046 0.9190596 -0.3806895 0.1020046 0.9190596 -0.1304458 -0.0349525 0.9908391 -0.1304458 -0.0349525 0.9908391 -0.1304458 -0.0349525 0.9908391 1.0 0.0 0.0 1.0 0.0 0.0 -0.0954928 -0.0954928 0.9908391 -0.0954928 -0.0954928 0.9908391 -0.0954928 -0.0954928 0.9908391 1.0 0.0 0.0 1.0 0.0 0.0 -0.0349525 -0.1304458 0.9908391 -0.0349525 -0.1304458 0.9908391 -0.0349525 -0.1304458 0.9908391 1.0 0.0 0.0 1.0 0.0 0.0 0.0349525 -0.1304458 0.9908391 0.0349525 -0.1304458 0.9908391 0.0349525 -0.1304458 0.9908391 1.0 0.0 0.0 1.0 0.0 0.0 0.0954928 -0.0954928 0.9908391 0.0954928 -0.0954928 0.9908391 0.0954928 -0.0954928 0.9908391 1.0 0.0 0.0 1.0 0.0 0.0 0.1304458 -0.0349525 0.9908391 0.1304458 -0.0349525 0.9908391 0.1304458 -0.0349525 0.9908391 1.0 0.0 0.0 1.0 0.0 0.0 0.1304458 0.0349525 0.9908391 0.1304458 0.0349525 0.9908391 0.1304458 0.0349525 0.9908391 1.0 0.0 0.0 1.0 0.0 0.0 0.0954928 0.0954928 0.9908391 0.0954928 0.0954928 0.9908391 0.0954928 0.0954928 0.9908391 1.0 0.0 0.0 1.0 0.0 0.0 0.0349525 0.1304458 0.9908391 0.0349525 0.1304458 0.9908391 0.0349525 0.1304458 0.9908391 1.0 0.0 0.0 1.0 0.0 0.0 -0.0349525 0.1304458 0.9908391 -0.0349525 0.1304458 0.9908391 -0.0349525 0.1304458 0.9908391 1.0 0.0 0.0 1.0 0.0 0.0 -0.0954928 0.0954928 0.9908391 -0.0954928 0.0954928 0.9908391 -0.0954928 0.0954928 0.9908391 1.0 0.0 0.0 1.0 0.0 0.0 -0.1304458 0.0349525 0.9908391 -0.1304458 0.0349525 0.9908391 -0.1304458 0.0349525 0.9908391 1.0 0.0 0.0 1.0 0.0 0.0 1.0 0.0 0.0 1.0 0.0 0.0 -0.1304463 -0.0349527 -0.9908391 -0.1304463 -0.0349527 -0.9908391 -0.1304463 -0.0349527 -0.9908391 1.0 0.0 0.0 1.0 0.0 0.0 -0.0954931 -0.0954931 -0.9908391 -0.0954931 -0.0954931 -0.9908391 -0.0954931 -0.0954931 -0.9908391 1.0 0.0 0.0 1.0 0.0 0.0 -0.0349527 -0.1304463 -0.9908391 -0.0349527 -0.1304463 -0.9908391 -0.0349527 -0.1304463 -0.9908391 1.0 0.0 0.0 1.0 0.0 0.0 0.0349527 -0.1304463 -0.9908391 0.0349527 -0.1304463 -0.9908391 0.0349527 -0.1304463 -0.9908391 1.0 0.0 0.0 1.0 0.0 0.0 0.0954931 -0.0954931 -0.9908391 0.0954931 -0.0954931 -0.9908391 0.0954931 -0.0954931 -0.9908391 1.0 0.0 0.0 1.0 0.0 0.0 0.1304463 -0.0349527 -0.9908391 0.1304463 -0.0349527 -0.9908391 0.1304463 -0.0349527 -0.9908391 1.0 0.0 0.0 1.0 0.0 0.0 0.1304463 0.0349527 -0.9908391 0.1304463 0.0349527 -0.9908391 0.1304463 0.0349527 -0.9908391 1.0 0.0 0.0 1.0 0.0 0.0 0.0954931 0.0954931 -0.9908391 0.0954931 0.0954931 -0.9908391 0.0954931 0.0954931 -0.9908391 1.0 0.0 0.0 1.0 0.0 0.0 0.0349527 0.1304463 -0.9908391 0.0349527 0.1304463 -0.9908391 0.0349527 0.1304463 -0.9908391 1.0 0.0 0.0 1.0 0.0 0.0 -0.0349527 0.1304463 -0.9908391 -0.0349527 0.1304463 -0.9908391 -0.0349527 0.1304463 -0.9908391 1.0 0.0 0.0 1.0 0.0 0.0 -0.0954931 0.0954931 -0.9908391 -0.0954931 0.0954931 -0.9908391 -0.0954931 0.0954931 -0.9908391 1.0 0.0 0.0 1.0 0.0 0.0 -0.1304463 0.0349527 -0.9908391 -0.1304463 0.0349527 -0.9908391 -0.1304463 0.0349527 -0.9908391 -0.380689 -0.1020044 -0.9190598 -0.380689 -0.1020044 -0.9190598 -0.380689 -0.1020044 -0.9190598 -0.3806887 -0.1020048 -0.9190599 -0.3806887 -0.1020048 -0.9190599 -0.3806887 -0.1020048 -0.9190599 -0.2786837 -0.2786837 -0.9190598 -0.2786837 -0.2786837 -0.9190598 -0.2786837 -0.2786837 -0.9190598 -0.2786837 -0.2786837 -0.9190598 -0.2786837 -0.2786837 -0.9190598 -0.2786837 -0.2786837 -0.9190598 -0.1020043 -0.3806886 -0.91906 -0.1020043 -0.3806886 -0.91906 -0.1020043 -0.3806886 -0.91906 -0.1020048 -0.3806888 -0.9190598 -0.1020048 -0.3806888 -0.9190598 -0.1020048 -0.3806888 -0.9190598 0.1020044 -0.380689 -0.9190598 0.1020044 -0.380689 -0.9190598 0.1020044 -0.380689 -0.9190598 0.1020048 -0.3806887 -0.9190599 0.1020048 -0.3806887 -0.9190599 0.1020048 -0.3806887 -0.9190599 0.2786837 -0.2786837 -0.9190598 0.2786837 -0.2786837 -0.9190598 0.2786837 -0.2786837 -0.9190598 0.2786837 -0.2786837 -0.9190598 0.2786837 -0.2786837 -0.9190598 0.2786837 -0.2786837 -0.9190598 0.3806886 -0.1020043 -0.91906 0.3806886 -0.1020043 -0.91906 0.3806886 -0.1020043 -0.91906 0.3806888 -0.1020048 -0.9190598 0.3806888 -0.1020048 -0.9190598 0.3806888 -0.1020048 -0.9190598 0.380689 0.1020044 -0.9190598 0.380689 0.1020044 -0.9190598 0.380689 0.1020044 -0.9190598 0.3806887 0.1020048 -0.9190599 0.3806887 0.1020048 -0.9190599 0.3806887 0.1020048 -0.9190599 0.2786837 0.2786837 -0.9190598 0.2786837 0.2786837 -0.9190598 0.2786837 0.2786837 -0.9190598 0.2786837 0.2786837 -0.9190598 0.2786837 0.2786837 -0.9190598 0.2786837 0.2786837 -0.9190598 0.1020043 0.3806886 -0.91906 0.1020043 0.3806886 -0.91906 0.1020043 0.3806886 -0.91906 0.1020048 0.3806888 -0.9190598 0.1020048 0.3806888 -0.9190598 0.1020048 0.3806888 -0.9190598 -0.1020044 0.380689 -0.9190598 -0.1020044 0.380689 -0.9190598 -0.1020044 0.380689 -0.9190598 -0.1020048 0.3806887 -0.9190599 -0.1020048 0.3806887 -0.9190599 -0.1020048 0.3806887 -0.9190599 -0.2786837 0.2786837 -0.9190598 -0.2786837 0.2786837 -0.9190598 -0.2786837 0.2786837 -0.9190598 -0.2786837 0.2786837 -0.9190598 -0.2786837 0.2786837 -0.9190598 -0.2786837 0.2786837 -0.9190598 -0.3806886 0.1020043 -0.91906 -0.3806886 0.1020043 -0.91906 -0.3806886 0.1020043 -0.91906 -0.3806888 0.1020048 -0.9190598 -0.3806888 0.1020048 -0.9190598 -0.3806888 0.1020048 -0.9190598 -0.6008212 -0.1609889 -0.7830048 -0.6008212 -0.1609889 -0.7830048 -0.6008212 -0.1609889 -0.7830048 -0.6008189 -0.1609903 -0.7830064 -0.6008189 -0.1609903 -0.7830064 -0.6008189 -0.1609903 -0.7830064 -0.4398314 -0.4398314 -0.7830049 -0.4398314 -0.4398314 -0.7830049 -0.4398314 -0.4398314 -0.7830049 -0.4398314 -0.4398314 -0.7830049 -0.4398314 -0.4398314 -0.7830049 -0.4398314 -0.4398314 -0.7830049 -0.1609883 -0.6008191 -0.7830065 -0.1609883 -0.6008191 -0.7830065 -0.1609883 -0.6008191 -0.7830065 -0.1609907 -0.6008204 -0.783005 -0.1609907 -0.6008204 -0.783005 -0.1609907 -0.6008204 -0.783005 0.1609889 -0.6008212 -0.7830048 0.1609889 -0.6008212 -0.7830048 0.1609889 -0.6008212 -0.7830048 0.1609903 -0.6008189 -0.7830064 0.1609903 -0.6008189 -0.7830064 0.1609903 -0.6008189 -0.7830064 0.4398314 -0.4398314 -0.7830049 0.4398314 -0.4398314 -0.7830049 0.4398314 -0.4398314 -0.7830049 0.4398314 -0.4398314 -0.7830049 0.4398314 -0.4398314 -0.7830049 0.4398314 -0.4398314 -0.7830049 0.6008191 -0.1609883 -0.7830065 0.6008191 -0.1609883 -0.7830065 0.6008191 -0.1609883 -0.7830065 0.6008204 -0.1609907 -0.783005 0.6008204 -0.1609907 -0.783005 0.6008204 -0.1609907 -0.783005 0.6008212 0.1609889 -0.7830048 0.6008212 0.1609889 -0.7830048 0.6008212 0.1609889 -0.7830048 0.6008189 0.1609903 -0.7830064 0.6008189 0.1609903 -0.7830064 0.6008189 0.1609903 -0.7830064 0.4398314 0.4398314 -0.7830049 0.4398314 0.4398314 -0.7830049 0.4398314 0.4398314 -0.7830049 0.4398314 0.4398314 -0.7830049 0.4398314 0.4398314 -0.7830049 0.4398314 0.4398314 -0.7830049 0.1609883 0.6008191 -0.7830065 0.1609883 0.6008191 -0.7830065 0.1609883 0.6008191 -0.7830065 0.1609907 0.6008204 -0.783005 0.1609907 0.6008204 -0.783005 0.1609907 0.6008204 -0.783005 -0.1609889 0.6008212 -0.7830048 -0.1609889 0.6008212 -0.7830048 -0.1609889 0.6008212 -0.7830048 -0.1609903 0.6008189 -0.7830064 -0.1609903 0.6008189 -0.7830064 -0.1609903 0.6008189 -0.7830064 -0.4398314 0.4398314 -0.7830049 -0.4398314 0.4398314 -0.7830049 -0.4398314 0.4398314 -0.7830049 -0.4398314 0.4398314 -0.7830049 -0.4398314 0.4398314 -0.7830049 -0.4398314 0.4398314 -0.7830049 -0.6008191 0.1609883 -0.7830065 -0.6008191 0.1609883 -0.7830065 -0.6008191 0.1609883 -0.7830065 -0.6008204 0.1609907 -0.783005 -0.6008204 0.1609907 -0.783005 -0.6008204 0.1609907 -0.783005 -0.776012 -0.2079335 -0.5954571 -0.776012 -0.2079335 -0.5954571 -0.776012 -0.2079335 -0.5954571 -0.7760149 -0.2079317 -0.5954539 -0.7760149 -0.2079317 -0.5954539 -0.7760149 -0.2079317 -0.5954539 -0.5680803 -0.5680803 -0.5954574 -0.5680803 -0.5680803 -0.5954574 -0.5680803 -0.5680803 -0.5954574 -0.5680803 -0.5680803 -0.5954574 -0.5680803 -0.5680803 -0.5954574 -0.5680803 -0.5680803 -0.5954574 -0.2079342 -0.7760146 -0.5954536 -0.2079342 -0.7760146 -0.5954536 -0.2079342 -0.7760146 -0.5954536 -0.2079311 -0.7760128 -0.5954567 -0.2079311 -0.7760128 -0.5954567 -0.2079311 -0.7760128 -0.5954567 0.2079335 -0.776012 -0.5954571 0.2079335 -0.776012 -0.5954571 0.2079335 -0.776012 -0.5954571 0.2079317 -0.7760149 -0.5954539 0.2079317 -0.7760149 -0.5954539 0.2079317 -0.7760149 -0.5954539 0.5680803 -0.5680803 -0.5954574 0.5680803 -0.5680803 -0.5954574 0.5680803 -0.5680803 -0.5954574 0.5680803 -0.5680803 -0.5954574 0.5680803 -0.5680803 -0.5954574 0.5680803 -0.5680803 -0.5954574 0.7760146 -0.2079342 -0.5954536 0.7760146 -0.2079342 -0.5954536 0.7760146 -0.2079342 -0.5954536 0.7760128 -0.2079311 -0.5954567 0.7760128 -0.2079311 -0.5954567 0.7760128 -0.2079311 -0.5954567 0.776012 0.2079335 -0.5954571 0.776012 0.2079335 -0.5954571 0.776012 0.2079335 -0.5954571 0.7760149 0.2079317 -0.5954539 0.7760149 0.2079317 -0.5954539 0.7760149 0.2079317 -0.5954539 0.5680803 0.5680803 -0.5954574 0.5680803 0.5680803 -0.5954574 0.5680803 0.5680803 -0.5954574 0.5680803 0.5680803 -0.5954574 0.5680803 0.5680803 -0.5954574 0.5680803 0.5680803 -0.5954574 0.2079342 0.7760146 -0.5954536 0.2079342 0.7760146 -0.5954536 0.2079342 0.7760146 -0.5954536 0.2079311 0.7760128 -0.5954567 0.2079311 0.7760128 -0.5954567 0.2079311 0.7760128 -0.5954567 -0.2079335 0.776012 -0.5954571 -0.2079335 0.776012 -0.5954571 -0.2079335 0.776012 -0.5954571 -0.2079317 0.7760149 -0.5954539 -0.2079317 0.7760149 -0.5954539 -0.2079317 0.7760149 -0.5954539 -0.5680803 0.5680803 -0.5954574 -0.5680803 0.5680803 -0.5954574 -0.5680803 0.5680803 -0.5954574 -0.5680803 0.5680803 -0.5954574 -0.5680803 0.5680803 -0.5954574 -0.5680803 0.5680803 -0.5954574 -0.7760146 0.2079342 -0.5954536 -0.7760146 0.2079342 -0.5954536 -0.7760146 0.2079342 -0.5954536 -0.7760128 0.2079311 -0.5954567 -0.7760128 0.2079311 -0.5954567 -0.7760128 0.2079311 -0.5954567 -0.8968095 -0.2402984 -0.3714692 -0.8968095 -0.2402984 -0.3714692 -0.8968095 -0.2402984 -0.3714692 -0.8968079 -0.2402997 -0.3714722 -0.8968079 -0.2402997 -0.3714722 -0.8968079 -0.2402997 -0.3714722 -0.6565099 -0.6565099 -0.3714692 -0.6565099 -0.6565099 -0.3714692 -0.6565099 -0.6565099 -0.3714692 -0.6565099 -0.6565099 -0.3714692 -0.6565099 -0.6565099 -0.3714692 -0.6565099 -0.6565099 -0.3714692 -0.2402981 -0.8968083 -0.3714723 -0.2402981 -0.8968083 -0.3714723 -0.2402981 -0.8968083 -0.3714723 -0.2403 -0.896809 -0.3714693 -0.2403 -0.896809 -0.3714693 -0.2403 -0.896809 -0.3714693 0.2402984 -0.8968095 -0.3714692 0.2402984 -0.8968095 -0.3714692 0.2402984 -0.8968095 -0.3714692 0.2402997 -0.8968079 -0.3714722 0.2402997 -0.8968079 -0.3714722 0.2402997 -0.8968079 -0.3714722 0.6565099 -0.6565099 -0.3714692 0.6565099 -0.6565099 -0.3714692 0.6565099 -0.6565099 -0.3714692 0.6565099 -0.6565099 -0.3714692 0.6565099 -0.6565099 -0.3714692 0.6565099 -0.6565099 -0.3714692</float_array>
                    <technique_common>
                        <accessor count="840" source="#geometry0-normal-array" stride="3">
                            <param name="X" type="float"/>
                            <param name="Y" type="float"/>
                            <param name="Z" type="float"/>
                        </accessor>
                    </technique_common>
                </source>
                <vertices id="geometry0-vertex">
                    <input semantic="POSITION" source="#geometry0-position"/>
                </vertices>
                <triangles count="288" material="default_ai_0.2_sh_0.2_tr_0.0_dc_r_0.8_g_0.8_b_0.8_sc_r_1.0_g_1.0_b_1.0_ec_r_0.0_g_0.0_b_0_tri">
                    <input offset="0" semantic="VERTEX" source="#geometry0-vertex"/>
                    <input offset="1" semantic="NORMAL" source="#geometry0-normal"/>
                    <p>42 0 43 1 55 2 42 3 55 4 54 5 43 6 44 7 56 8 43 9 56 10 55 11 44 12 45 13 57 14 44 15 57 16 56 17 45 18 46 19 58 20 45 21 58 22 57 23 46 24 47 25 59 26 46 27 59 28 58 29 47 30 48 31 60 32 47 33 60 34 59 35 48 36 38 37 50 38 48 39 50 40 60 41 50 42 49 43 61 44 50 45 61 46 62 47 49 48 51 49 63 50 49 51 63 52 61 53 51 54 52 55 64 56 51 57 64 58 63 59 52 60 53 61 65 62 52 63 65 64 64 65 53 66 54 67 66 68 53 69 66 70 65 71 54 72 55 73 67 74 54 75 67 76 66 77 55 78 56 79 68 80 55 81 68 82 67 83 56 84 57 85 69 86 56 87 69 88 68 89 57 90 58 91 70 92 57 93 70 94 69 95 58 96 59 97 71 98 58 99 71 100 70 101 59 102 60 103 72 104 59 105 72 106 71 107 60 108 50 109 62 110 60 111 62 112 72 113 62 114 61 115 73 116 62 117 73 118 74 119 61 120 63 121 75 122 61 123 75 124 73 125 63 126 64 127 76 128 63 129 76 130 75 131 64 132 65 133 77 134 64 135 77 136 76 137 65 138 66 139 78 140 65 141 78 142 77 143 66 144 67 145 79 146 66 147 79 148 78 149 67 150 68 151 80 152 67 153 80 154 79 155 68 156 69 157 81 158 68 159 81 160 80 161 69 162 70 163 82 164 69 165 82 166 81 167 70 168 71 169 83 170 70 171 83 172 82 173 71 174 72 175 84 176 71 177 84 178 83 179 72 180 62 181 74 182 72 183 74 184 84 185 74 186 73 187 85 188 74 189 85 190 86 191 73 192 75 193 87 194 73 195 87 196 85 197 75 198 76 199 88 200 75 201 88 202 87 203 76 204 77 205 89 206 76 207 89 208 88 209 77 210 78 211 90 212 77 213 90 214 89 215 78 216 79 217 91 218 78 219 91 220 90 221 79 222 80 223 92 224 79 225 92 226 91 227 80 228 81 229 93 230 80 231 93 232 92 233 81 234 82 235 94 236 81 237 94 238 93 239 82 240 83 241 95 242 82 243 95 244 94 245 83 246 84 247 96 248 83 249 96 250 95 251 84 252 74 253 86 254 84 255 86 256 96 257 86 258 85 259 97 260 86 261 97 262 98 263 85 264 87 265 99 266 85 267 99 268 97 269 87 270 88 271 100 272 87 273 100 274 99 275 88 276 89 277 101 278 88 279 101 280 100 281 89 282 90 283 102 284 89 285 102 286 101 287 90 288 91 289 103 290 90 291 103 292 102 293 91 294 92 295 104 296 91 297 104 298 103 299 92 300 93 301 105 302 92 303 105 304 104 305 93 306 94 307 106 308 93 309 106 310 105 311 94 312 95 313 107 314 94 315 107 316 106 317 95 318 96 319 108 320 95 321 108 322 107 323 96 324 86 325 98 326 96 327 98 328 108 329 98 330 97 331 109 332 98 333 109 334 110 335 97 336 99 337 111 338 97 339 111 340 109 341 99 342 100 343 112 344 99 345 112 346 111 347 100 348 101 349 113 350 100 351 113 352 112 353 101 354 102 355 114 356 101 357 114 358 113 359 102 360 103 361 115 362 102 363 115 364 114 365 103 366 104 367 116 368 103 369 116 370 115 371 104 372 105 373 117 374 104 375 117 376 116 377 105 378 106 379 118 380 105 381 118 382 117 383 106 384 107 385 119 386 106 387 119 388 118 389 107 390 108 391 120 392 107 393 120 394 119 395 108 396 98 397 110 398 108 399 110 400 120 401 110 402 109 403 121 404 110 405 121 406 122 407 109 408 111 409 123 410 109 411 123 412 121 413 111 414 112 415 124 416 111 417 124 418 123 419 112 420 113 421 125 422 112 423 125 424 124 425 113 426 114 427 126 428 113 429 126 430 125 431 114 432 115 433 127 434 114 435 127 436 126 437 115 438 116 439 128 440 115 441 128 442 127 443 116 444 117 445 129 446 116 447 129 448 128 449 117 450 118 451 130 452 117 453 130 454 129 455 118 456 119 457 131 458 118 459 131 460 130 461 119 462 120 463 132 464 119 465 132 466 131 467 120 468 110 469 122 470 120 471 122 472 132 473 122 474 121 475 133 476 122 477 133 478 133 478 121 479 123 480 133 481 121 482 133 483 133 483 123 484 124 485 133 486 123 487 133 488 133 488 124 489 125 490 133 491 124 492 133 493 133 493 125 494 126 495 133 496 125 497 133 498 133 498 126 499 127 500 133 501 126 502 133 503 133 503 127 504 128 505 133 506 127 507 133 508 133 508 128 509 129 510 133 511 128 512 133 513 133 513 129 514 130 515 133 516 129 517 133 518 133 518 130 519 131 520 133 521 130 522 133 523 133 523 131 524 132 525 133 526 131 527 133 528 133 528 132 529 122 530 133 531 132 532 133 533 133 533 0 534 0 534 1 535 0 536 1 537 2 538 0 539 0 539 3 540 0 541 3 542 1 543 0 544 0 544 4 545 0 546 4 547 3 548 0 549 0 549 5 550 0 551 5 552 4 553 0 554 0 554 6 555 0 556 6 557 5 558 0 559 0 559 7 560 0 561 7 562 6 563 0 564 0 564 8 565 0 566 8 567 7 568 0 569 0 569 9 570 0 571 9 572 8 573 0 574 0 574 10 575 0 576 10 577 9 578 0 579 0 579 11 580 0 581 11 582 10 583 0 584 0 584 12 585 0 586 12 587 11 588 0 589 0 589 2 590 0 591 2 592 12 593 2 594 1 595 13 596 2 597 13 598 14 599 1 600 3 601 15 602 1 603 15 604 13 605 3 606 4 607 16 608 3 609 16 610 15 611 4 612 5 613 17 614 4 615 17 616 16 617 5 618 6 619 18 620 5 621 18 622 17 623 6 624 7 625 19 626 6 627 19 628 18 629 7 630 8 631 20 632 7 633 20 634 19 635 8 636 9 637 21 638 8 639 21 640 20 641 9 642 10 643 22 644 9 645 22 646 21 647 10 648 11 649 23 650 10 651 23 652 22 653 11 654 12 655 24 656 11 657 24 658 23 659 12 660 2 661 14 662 12 663 14 664 24 665 14 666 13 667 25 668 14 669 25 670 26 671 13 672 15 673 27 674 13 675 27 676 25 677 15 678 16 679 28 680 15 681 28 682 27 683 16 684 17 685 29 686 16 687 29 688 28 689 17 690 18 691 30 692 17 693 30 694 29 695 18 696 19 697 31 698 18 699 31 700 30 701 19 702 20 703 32 704 19 705 32 706 31 707 20 708 21 709 33 710 20 711 33 712 32 713 21 714 22 715 34 716 21 717 34 718 33 719 22 720 23 721 35 722 22 723 35 724 34 725 23 726 24 727 36 728 23 729 36 730 35 731 24 732 14 733 26 734 24 735 26 736 36 737 26 738 25 739 37 740 26 741 37 742 38 743 25 744 27 745 39 746 25 747 39 748 37 749 27 750 28 751 40 752 27 753 40 754 39 755 28 756 29 757 41 758 28 759 41 760 40 761 29 762 30 763 42 764 29 765 42 766 41 767 30 768 31 769 43 770 30 771 43 772 42 773 31 774 32 775 44 776 31 777 44 778 43 779 32 780 33 781 45 782 32 783 45 784 44 785 33 786 34 787 46 788 33 789 46 790 45 791 34 792 35 793 47 794 34 795 47 796 46 797 35 798 36 799 48 800 35 801 48 802 47 803 36 804 26 805 38 806 36 807 38 808 48 809 38 810 37 811 49 812 38 813 49 814 50 815 37 816 39 817 51 818 37 819 51 820 49 821 39 822 40 823 52 824 39 825 52 826 51 827 40 828 41 829 53 830 40 831 53 832 52 833 41 834 42 835 54 836 41 837 54 838 53 839</p>
                </triangles>
            </mesh>
        </geometry>
    </library_geometries>
    <library_visual_scenes>
        <visual_scene id="Building_14_CROWN2">
            <node>
                <instance_geometry url="#geometry0">
                    <bind_material>
                        <technique_common>
                            <instance_material symbol="default_ai_0.2_sh_0.2_tr_0.0_dc_r_0.8_g_0.8_b_0.8_sc_r_1.0_g_1.0_b_1.0_ec_r_0.0_g_0.0_b_0_tri" target="#default_ai_0.2_sh_0.2_tr_0.0_dc_r_0.8_g_0.8_b_0.8_sc_r_1.0_g_1.0_b_1.0_ec_r_0.0_g_0.0_b_0_mat"/>
                        </technique_common>
                    </bind_material>
                </instance_geometry>
            </node>
        </visual_scene>
    </library_visual_scenes>
    <scene>
        <instance_visual_scene url="#Building_14_CROWN2"/>
    </scene>
</COLLADA>
