<?xml version="1.0" encoding="UTF-8" standalone="yes"?>
<COLLADA xmlns="http://www.collada.org/2005/11/COLLADASchema" version="1.4.1">
    <asset>
        <contributor>
            <authoring_tool>3D City Database Importer/Exporter, version 5.5.3; Chair of Geoinformatics, Technical University of Munich</authoring_tool>
        </contributor>
        <created>2026-09-25T14:44:45.670</created>
        <modified>2026-09-25T14:44:45.670</modified>
        <unit meter="1.0" name="meters"/>
        <up_axis>Z_UP</up_axis>
    </asset>
    <library_materials>
        <material id="default_ai_0.2_sh_0.2_tr_0.0_dc_r_0.8_g_0.8_b_0.8_sc_r_1.0_g_1.0_b_1.0_ec_r_0.0_g_0.0_b_0_mat">
            <instance_effect url="#default_ai_0.2_sh_0.2_tr_0.0_dc_r_0.8_g_0.8_b_0.8_sc_r_1.0_g_1.0_b_1.0_ec_r_0.0_g_0.0_b_0_eff"/>
        </material>
    </library_materials>
    <library_effects>
        <effect id="default_ai_0.2_sh_0.2_tr_0.0_dc_r_0.8_g_0.8_b_0.8_sc_r_1.0_g_1.0_b_1.0_ec_r_0.0_g_0.0_b_0_eff">
            <profile_COMMON>
                <technique sid="COMMON">
                    <lambert>
                        <emission>
                            <color>0.0 0.0 0.0 1.0</color>
                        </emission>
                        <diffuse>
                            <color>0.8 0.8 0.8 1.0</color>
                        </diffuse>
                        <reflective>
                            <color>1.0 1.0 1.0 1.0</color>
                        </reflective>
                        <reflectivity>
                            <float>0.2</float>
                        </reflectivity>
                        <transparent opaque="A_ONE">
                            <color>1.0 1.0 1.0 1.0</color>
                        </transparent>
                        <transparency>
                            <float>1.0</float>
                        </transparency>
                    </lambert>
                </technique>
                <extra>
                    <technique profile="GOOGLEEARTH">
                        <double_sided>0</double_sided>
                    </technique>
                </extra>
            </profile_COMMON>
        </effect>
    </library_effects>
    <library_geometries>
        <geometry id="geometry0">
            <mesh>
                <source id="geometry0-position">
                    <float_array id="geometry0-position-array" count="402">0.0 0.0 1.1 0.1232792 0.0711755 1.0812593 0.1423504 0.0 1.0812593 0.0711755 0.1232792 1.0812593 0.0 0.1423505 1.0812593 -0.0711755 0.1232792 1.0812593 -0.1232792 0.0711755 1.0812593 -0.1423504 0.0 1.0812593 -0.1232792 -0.0711755 1.0812593 -0.0711755 -0.1232792 1.0812593 0.0 -0.1423505 1.0812593 0.0711755 -0.1232792 1.0812593 0.1232792 -0.0711755 1.0812593 0.2381571 0.1375 1.0263138 0.275 0.0 1.0263138 0.1375 0.2381572 1.0263138 0.0 0.275 1.0263138 -0.1375 0.2381572 1.0263138 -0.2381571 0.1375 1.0263138 -0.275 0.0 1.0263138 -0.2381571 -0.1375 1.0263138 -0.1375 -0.2381572 1.0263138 0.0 -0.275 1.0263138 0.1375 -0.2381572 1.0263138 0.2381571 -0.1375 1.0263138 0.3368046 0.1944542 0.9389083 0.3889088 0.0 0.9389083 0.1944541 0.3368046 0.9389083 0.0 0.3889089 0.9389083 -0.1944541 0.3368046 0.9389083 -0.3368046 0.1944542 0.9389083 -0.3889088 0.0 0.9389083 -0.3368046 -0.1944542 0.9389083 -0.1944541 -0.3368046 0.9389083 0.0 -0.3889089 0.9389083 0.1944541 -0.3368046 0.9389083 0.3368046 -0.1944542 0.9389083 0.4125 0.2381572 0.825 0.4763138 0.0 0.825 0.2381571 0.4125 0.825 0.0 0.4763138 0.825 -0.2381571 0.4125 0.825 -0.4125 0.2381572 0.825 -0.4763138 0.0 0.825 -0.4125 -0.2381572 0.825 -0.2381571 -0.4125 0.825 0.0 -0.4763138 0.825 0.2381571 -0.4125 0.825 0.4125 -0.2381572 0.825 0.4600838 0.2656297 0.6923505 0.5312593 0.0 0.6923505 0.2656296 0.4600838 0.6923505 0.0 0.5312593 0.6923505 -0.2656296 0.4600838 0.6923505 -0.4600838 0.2656297 0.6923505 -0.5312593 0.0 0.6923505 -0.4600838 -0.2656297 0.6923505 -0.2656296 -0.4600838 0.6923505 0.0 -0.5312593 0.6923505 0.2656296 -0.4600838 0.6923505 0.4600838 -0.2656297 0.6923505 0.4763138 0.275 0.55 0.55 0.0 0.55 0.275 0.4763138 0.55 0.0 0.55 0.55 -0.275 0.4763138 0.55 -0.4763138 0.275 0.55 -0.55 0.0 0.55 -0.4763138 -0.275 0.55 -0.275 -0.4763138 0.55 0.0 -0.55 0.55 0.275 -0.4763138 0.55 0.4763138 -0.275 0.55 0.4600838 0.2656297 0.4076496 0.5312593 0.0 0.4076496 0.2656296 0.4600838 0.4076496 0.0 0.5312593 0.4076496 -0.2656296 0.4600838 0.4076496 -0.4600838 0.2656297 0.4076496 -0.5312593 0.0 0.4076496 -0.4600838 -0.2656297 0.4076496 -0.2656296 -0.4600838 0.4076496 0.0 -0.5312593 0.4076496 0.2656296 -0.4600838 0.4076496 0.4600838 -0.2656297 0.4076496 0.4125 0.2381572 0.275 0.4763138 0.0 0.275 0.2381571 0.4125 0.275 0.0 0.4763138 0.275 -0.2381571 0.4125 0.275 -0.4125 0.2381572 0.275 -0.4763138 0.0 0.275 -0.4125 -0.2381572 0.275 -0.2381571 -0.4125 0.275 0.0 -0.4763138 0.275 0.2381571 -0.4125 0.275 0.4125 -0.2381572 0.275 0.3368046 0.1944542 0.1610911 0.3889088 0.0 0.1610911 0.1944541 0.3368046 0.1610911 0.0 0.3889089 0.1610911 -0.1944541 0.3368046 0.1610911 -0.3368046 0.1944542 0.1610911 -0.3889088 0.0 0.1610911 -0.3368046 -0.1944542 0.1610911 -0.1944541 -0.3368046 0.1610911 0.0 -0.3889089 0.1610911 0.1944541 -0.3368046 0.1610911 0.3368046 -0.1944542 0.1610911 0.2381571 0.1375 0.0736857 0.275 0.0 0.0736857 0.1375 0.2381572 0.0736857 0.0 0.275 0.0736857 -0.1375 0.2381572 0.0736857 -0.2381571 0.1375 0.0736857 -0.275 0.0 0.0736857 -0.2381571 -0.1375 0.0736857 -0.1375 -0.2381572 0.0736857 0.0 -0.275 0.0736857 0.1375 -0.2381572 0.0736857 0.2381571 -0.1375 0.0736857 0.1232792 0.0711755 0.0187407 0.1423504 0.0 0.0187407 0.0711755 0.1232792 0.0187407 0.0 0.1423505 0.0187407 -0.0711755 0.1232792 0.0187407 -0.1232792 0.0711755 0.0187407 -0.1423504 0.0 0.0187407 -0.1232792 -0.0711755 0.0187407 -0.0711755 -0.1232792 0.0187407 0.0 -0.1423505 0.0187407 0.0711755 -0.1232792 0.0187407 0.1232792 -0.0711755 0.0187407 0.0 0.0 0.0</float_array>
                    <technique_common>
                        <accessor count="134" source="#geometry0-position-array" stride="3">
                            <param name="X" type="float"/>
                            <param name="Y" type="float"/>
                            <param name="Z" type="float"/>
                        </accessor>
                    </technique_common>
                </source>
                <source id="geometry0-normal">
                    <float_array id="geometry0-normal-array" count="2520">0.4398331 -0.4398331 0.783003 0.4398331 -0.4398331 0.783003 0.4398331 -0.4398331 0.783003 0.4398331 -0.4398331 0.783003 0.4398331 -0.4398331 0.783003 0.4398331 -0.4398331 0.783003 0.6008211 -0.1609909 0.7830043 0.6008211 -0.1609909 0.7830043 0.6008211 -0.1609909 0.7830043 0.6008235 -0.1609895 0.7830029 0.6008235 -0.1609895 0.7830029 0.6008235 -0.1609895 0.7830029 0.6008227 0.1609913 0.7830032 0.6008227 0.1609913 0.7830032 0.6008227 0.1609913 0.7830032 0.6008213 0.1609889 0.7830046 0.6008213 0.1609889 0.7830046 0.6008213 0.1609889 0.7830046 0.4398331 0.4398331 0.783003 0.4398331 0.4398331 0.783003 0.4398331 0.4398331 0.783003 0.4398331 0.4398331 0.783003 0.4398331 0.4398331 0.783003 0.4398331 0.4398331 0.783003 0.1609909 0.6008211 0.7830043 0.1609909 0.6008211 0.7830043 0.1609909 0.6008211 0.7830043 0.1609895 0.6008235 0.7830029 0.1609895 0.6008235 0.7830029 0.1609895 0.6008235 0.7830029 -0.1609913 0.6008227 0.7830032 -0.1609913 0.6008227 0.7830032 -0.1609913 0.6008227 0.7830032 -0.1609889 0.6008213 0.7830046 -0.1609889 0.6008213 0.7830046 -0.1609889 0.6008213 0.7830046 -0.4398331 0.4398331 0.783003 -0.4398331 0.4398331 0.783003 -0.4398331 0.4398331 0.783003 -0.4398331 0.4398331 0.783003 -0.4398331 0.4398331 0.783003 -0.4398331 0.4398331 0.783003 -0.6008211 0.1609909 0.7830043 -0.6008211 0.1609909 0.7830043 -0.6008211 0.1609909 0.7830043 -0.6008235 0.1609895 0.7830029 -0.6008235 0.1609895 0.7830029 -0.6008235 0.1609895 0.7830029 -0.3806861 -0.1020041 0.9190611 -0.3806861 -0.1020041 0.9190611 -0.3806861 -0.1020041 0.9190611 -0.3806859 -0.1020036 0.9190612 -0.3806859 -0.1020036 0.9190612 -0.3806859 -0.1020036 0.9190612 -0.2786817 -0.2786817 0.9190609 -0.2786817 -0.2786817 0.9190609 -0.2786817 -0.2786817 0.9190609 -0.2786817 -0.2786817 0.9190609 -0.2786817 -0.2786817 0.9190609 -0.2786817 -0.2786817 0.9190609 -0.102004 -0.3806859 0.9190612 -0.102004 -0.3806859 0.9190612 -0.102004 -0.3806859 0.9190612 -0.1020037 -0.3806863 0.919061 -0.1020037 -0.3806863 0.919061 -0.1020037 -0.3806863 0.919061 0.1020041 -0.3806861 0.9190611 0.1020041 -0.3806861 0.9190611 0.1020041 -0.3806861 0.9190611 0.1020036 -0.3806859 0.9190612 0.1020036 -0.3806859 0.9190612 0.1020036 -0.3806859 0.9190612 0.2786817 -0.2786817 0.9190609 0.2786817 -0.2786817 0.9190609 0.2786817 -0.2786817 0.9190609 0.2786817 -0.2786817 0.9190609 0.2786817 -0.2786817 0.9190609 0.2786817 -0.2786817 0.9190609 0.3806859 -0.102004 0.9190612 0.3806859 -0.102004 0.9190612 0.3806859 -0.102004 0.9190612 0.3806863 -0.1020037 0.919061 0.3806863 -0.1020037 0.919061 0.3806863 -0.1020037 0.919061 0.3806861 0.1020041 0.9190611 0.3806861 0.1020041 0.9190611 0.3806861 0.1020041 0.9190611 0.3806859 0.1020036 0.9190612 0.3806859 0.1020036 0.9190612 0.3806859 0.1020036 0.9190612 0.2786817 0.2786817 0.9190609 0.2786817 0.2786817 0.9190609 0.2786817 0.2786817 0.9190609 0.2786817 0.2786817 0.9190609 0.2786817 0.2786817 0.9190609 0.2786817 0.2786817 0.9190609 0.102004 0.3806859 0.9190612 0.102004 0.3806859 0.9190612 0.102004 0.3806859 0.9190612 0.1020037 0.3806863 0.919061 0.1020037 0.3806863 0.919061 0.1020037 0.3806863 0.919061 -0.1020041 0.3806861 0.9190611 -0.1020041 0.3806861 0.9190611 -0.1020041 0.3806861 0.9190611 -0.1020036 0.3806859 0.9190612 -0.1020036 0.3806859 0.9190612 -0.1020036 0.3806859 0.9190612 -0.2786817 0.2786817 0.9190609 -0.2786817 0.2786817 0.9190609 -0.2786817 0.2786817 0.9190609 -0.2786817 0.2786817 0.9190609 -0.2786817 0.2786817 0.9190609 -0.2786817 0.2786817 0.9190609 -0.3806859 0.102004 0.9190612 -0.3806859 0.102004 0.9190612 -0.3806859 0.102004 0.9190612 -0.3806863 0.1020037 0.919061 -0.3806863 0.1020037 0.919061 -0.3806863 0.1020037 0.919061 -0.1304458 -0.0349525 0.9908391 -0.1304458 -0.0349525 0.9908391 -0.1304458 -0.0349525 0.9908391 1.0 0.0 0.0 1.0 0.0 0.0 -0.0954928 -0.0954928 0.9908391 -0.0954928 -0.0954928 0.9908391 -0.0954928 -0.0954928 0.9908391 1.0 0.0 0.0 1.0 0.0 0.0 -0.0349525 -0.1304458 0.9908391 -0.0349525 -0.1304458 0.9908391 -0.0349525 -0.1304458 0.9908391 1.0 0.0 0.0 1.0 0.0 0.0 0.0349525 -0.1304458 0.9908391 0.0349525 -0.1304458 0.9908391 0.0349525 -0.1304458 0.9908391 1.0 0.0 0.0 1.0 0.0 0.0 0.0954928 -0.0954928 0.9908391 0.0954928 -0.0954928 0.9908391 0.0954928 -0.0954928 0.9908391 1.0 0.0 0.0 1.0 0.0 0.0 0.1304458 -0.0349525 0.9908391 0.1304458 -0.0349525 0.9908391 0.1304458 -0.0349525 0.9908391 1.0 0.0 0.0 1.0 0.0 0.0 0.1304458 0.0349525 0.9908391 0.1304458 0.0349525 0.9908391 0.1304458 0.0349525 0.9908391 1.0 0.0 0.0 1.0 0.0 0.0 0.0954928 0.0954928 0.9908391 0.0954928 0.0954928 0.9908391 0.0954928 0.0954928 0.9908391 1.0 0.0 0.0 1.0 0.0 0.0 0.0349525 0.1304458 0.9908391 0.0349525 0.1304458 0.9908391 0.0349525 0.1304458 0.9908391 1.0 0.0 0.0 1.0 0.0 0.0 -0.0349525 0.1304458 0.9908391 -0.0349525 0.1304458 0.9908391 -0.0349525 0.1304458 0.9908391 1.0 0.0 0.0 1.0 0.0 0.0 -0.0954928 0.0954928 0.9908391 -0.0954928 0.0954928 0.9908391 -0.0954928 0.0954928 0.9908391 1.0 0.0 0.0 1.0 0.0 0.0 -0.1304458 0.0349525 0.9908391 -0.1304458 0.0349525 0.9908391 -0.1304458 0.0349525 0.9908391 1.0 0.0 0.0 1.0 0.0 0.0 1.0 0.0 0.0 1.0 0.0 0.0 -0.1304463 -0.0349527 -0.9908391 -0.1304463 -0.0349527 -0.9908391 -0.1304463 -0.0349527 -0.9908391 1.0 0.0 0.0 1.0 0.0 0.0 -0.0954931 -0.0954931 -0.9908391 -0.0954931 -0.0954931 -0.9908391 -0.0954931 -0.0954931 -0.9908391 1.0 0.0 0.0 1.0 0.0 0.0 -0.0349527 -0.1304463 -0.9908391 -0.0349527 -0.1304463 -0.9908391 -0.0349527 -0.1304463 -0.9908391 1.0 0.0 0.0 1.0 0.0 0.0 0.0349527 -0.1304463 -0.9908391 0.0349527 -0.1304463 -0.9908391 0.0349527 -0.1304463 -0.9908391 1.0 0.0 0.0 1.0 0.0 0.0 0.0954931 -0.0954931 -0.9908391 0.0954931 -0.0954931 -0.9908391 0.0954931 -0.0954931 -0.9908391 1.0 0.0 0.0 1.0 0.0 0.0 0.1304463 -0.0349527 -0.9908391 0.1304463 -0.0349527 -0.9908391 0.1304463 -0.0349527 -0.9908391 1.0 0.0 0.0 1.0 0.0 0.0 0.1304463 0.0349527 -0.9908391 0.1304463 0.0349527 -0.9908391 0.1304463 0.0349527 -0.9908391 1.0 0.0 0.0 1.0 0.0 0.0 0.0954931 0.0954931 -0.9908391 0.0954931 0.0954931 -0.9908391 0.0954931 0.0954931 -0.9908391 1.0 0.0 0.0 1.0 0.0 0.0 0.0349527 0.1304463 -0.9908391 0.0349527 0.1304463 -0.9908391 0.0349527 0.1304463 -0.9908391 1.0 0.0 0.0 1.0 0.0 0.0 -0.0349527 0.1304463 -0.9908391 -0.0349527 0.1304463 -0.9908391 -0.0349527 0.1304463 -0.9908391 1.0 0.0 0.0 1.0 0.0 0.0 -0.0954931 0.0954931 -0.9908391 -0.0954931 0.0954931 -0.9908391 -0.0954931 0.0954931 -0.9908391 1.0 0.0 0.0 1.0 0.0 0.0 -0.1304463 0.0349527 -0.9908391 -0.1304463 0.0349527 -0.9908391 -0.1304463 0.0349527 -0.9908391 -0.380689 -0.1020044 -0.9190598 -0.380689 -0.1020044 -0.9190598 -0.380689 -0.1020044 -0.9190598 -0.3806887 -0.1020048 -0.9190599 -0.3806887 -0.1020048 -0.9190599 -0.3806887 -0.1020048 -0.9190599 -0.2786837 -0.2786837 -0.9190598 -0.2786837 -0.2786837 -0.9190598 -0.2786837 -0.2786837 -0.9190598 -0.2786837 -0.2786837 -0.9190598 -0.2786837 -0.2786837 -0.9190598 -0.2786837 -0.2786837 -0.9190598 -0.1020043 -0.3806886 -0.91906 -0.1020043 -0.3806886 -0.91906 -0.1020043 -0.3806886 -0.91906 -0.1020048 -0.3806888 -0.9190598 -0.1020048 -0.3806888 -0.9190598 -0.1020048 -0.3806888 -0.9190598 0.1020044 -0.380689 -0.9190598 0.1020044 -0.380689 -0.9190598 0.1020044 -0.380689 -0.9190598 0.1020048 -0.3806887 -0.9190599 0.1020048 -0.3806887 -0.9190599 0.1020048 -0.3806887 -0.9190599 0.2786837 -0.2786837 -0.9190598 0.2786837 -0.2786837 -0.9190598 0.2786837 -0.2786837 -0.9190598 0.2786837 -0.2786837 -0.9190598 0.2786837 -0.2786837 -0.9190598 0.2786837 -0.2786837 -0.9190598 0.3806886 -0.1020043 -0.91906 0.3806886 -0.1020043 -0.91906 0.3806886 -0.1020043 -0.91906 0.3806888 -0.1020048 -0.9190598 0.3806888 -0.1020048 -0.9190598 0.3806888 -0.1020048 -0.9190598 0.380689 0.1020044 -0.9190598 0.380689 0.1020044 -0.9190598 0.380689 0.1020044 -0.9190598 0.3806887 0.1020048 -0.9190599 0.3806887 0.1020048 -0.9190599 0.3806887 0.1020048 -0.9190599 0.2786837 0.2786837 -0.9190598 0.2786837 0.2786837 -0.9190598 0.2786837 0.2786837 -0.9190598 0.2786837 0.2786837 -0.9190598 0.2786837 0.2786837 -0.9190598 0.2786837 0.2786837 -0.9190598 0.1020043 0.3806886 -0.91906 0.1020043 0.3806886 -0.91906 0.1020043 0.3806886 -0.91906 0.1020048 0.3806888 -0.9190598 0.1020048 0.3806888 -0.9190598 0.1020048 0.3806888 -0.9190598 -0.1020044 0.380689 -0.9190598 -0.1020044 0.380689 -0.9190598 -0.1020044 0.380689 -0.9190598 -0.1020048 0.3806887 -0.9190599 -0.1020048 0.3806887 -0.9190599 -0.1020048 0.3806887 -0.9190599 -0.2786837 0.2786837 -0.9190598 -0.2786837 0.2786837 -0.9190598 -0.2786837 0.2786837 -0.9190598 -0.2786837 0.2786837 -0.9190598 -0.2786837 0.2786837 -0.9190598 -0.2786837 0.2786837 -0.9190598 -0.3806886 0.1020043 -0.91906 -0.3806886 0.1020043 -0.91906 -0.3806886 0.1020043 -0.91906 -0.3806888 0.1020048 -0.9190598 -0.3806888 0.1020048 -0.9190598 -0.3806888 0.1020048 -0.9190598 -0.6008237 -0.1609895 -0.7830027 -0.6008237 -0.1609895 -0.7830027 -0.6008237 -0.1609895 -0.7830027 -0.6008214 -0.1609909 -0.7830042 -0.6008214 -0.1609909 -0.7830042 -0.6008214 -0.1609909 -0.7830042 -0.4398333 -0.4398333 -0.7830028 -0.4398333 -0.4398333 -0.7830028 -0.4398333 -0.4398333 -0.7830028 -0.4398332 -0.4398332 -0.7830028 -0.4398332 -0.4398332 -0.7830028 -0.4398332 -0.4398332 -0.7830028 -0.1609889 -0.6008216 -0.7830045 -0.1609889 -0.6008216 -0.7830045 -0.1609889 -0.6008216 -0.7830045 -0.1609913 -0.6008229 -0.7830029 -0.1609913 -0.6008229 -0.7830029 -0.1609913 -0.6008229 -0.7830029 0.1609895 -0.6008237 -0.7830027 0.1609895 -0.6008237 -0.7830027 0.1609895 -0.6008237 -0.7830027 0.1609909 -0.6008214 -0.7830042 0.1609909 -0.6008214 -0.7830042 0.1609909 -0.6008214 -0.7830042 0.4398333 -0.4398333 -0.7830028 0.4398333 -0.4398333 -0.7830028 0.4398333 -0.4398333 -0.7830028 0.4398332 -0.4398332 -0.7830028 0.4398332 -0.4398332 -0.7830028 0.4398332 -0.4398332 -0.7830028 0.6008216 -0.1609889 -0.7830045 0.6008216 -0.1609889 -0.7830045 0.6008216 -0.1609889 -0.7830045 0.6008229 -0.1609913 -0.7830029 0.6008229 -0.1609913 -0.7830029 0.6008229 -0.1609913 -0.7830029 0.6008237 0.1609895 -0.7830027 0.6008237 0.1609895 -0.7830027 0.6008237 0.1609895 -0.7830027 0.6008214 0.1609909 -0.7830042 0.6008214 0.1609909 -0.7830042 0.6008214 0.1609909 -0.7830042 0.4398333 0.4398333 -0.7830028 0.4398333 0.4398333 -0.7830028 0.4398333 0.4398333 -0.7830028 0.4398332 0.4398332 -0.7830028 0.4398332 0.4398332 -0.7830028 0.4398332 0.4398332 -0.7830028 0.1609889 0.6008216 -0.7830045 0.1609889 0.6008216 -0.7830045 0.1609889 0.6008216 -0.7830045 0.1609913 0.6008229 -0.7830029 0.1609913 0.6008229 -0.7830029 0.1609913 0.6008229 -0.7830029 -0.1609895 0.6008237 -0.7830027 -0.1609895 0.6008237 -0.7830027 -0.1609895 0.6008237 -0.7830027 -0.1609909 0.6008214 -0.7830042 -0.1609909 0.6008214 -0.7830042 -0.1609909 0.6008214 -0.7830042 -0.4398333 0.4398333 -0.7830028 -0.4398333 0.4398333 -0.7830028 -0.4398333 0.4398333 -0.7830028 -0.4398332 0.4398332 -0.7830028 -0.4398332 0.4398332 -0.7830028 -0.4398332 0.4398332 -0.7830028 -0.6008216 0.1609889 -0.7830045 -0.6008216 0.1609889 -0.7830045 -0.6008216 0.1609889 -0.7830045 -0.6008229 0.1609913 -0.7830029 -0.6008229 0.1609913 -0.7830029 -0.6008229 0.1609913 -0.7830029 -0.7760105 -0.2079331 -0.595459 -0.7760105 -0.2079331 -0.595459 -0.7760105 -0.2079331 -0.595459 -0.7760135 -0.2079313 -0.5954559 -0.7760135 -0.2079313 -0.5954559 -0.7760135 -0.2079313 -0.5954559 -0.5680792 -0.5680792 -0.5954593 -0.5680792 -0.5680792 -0.5954593 -0.5680792 -0.5680792 -0.5954593 -0.5680792 -0.5680792 -0.5954593 -0.5680792 -0.5680792 -0.5954593 -0.5680792 -0.5680792 -0.5954593 -0.2079338 -0.776013 -0.5954555 -0.2079338 -0.776013 -0.5954555 -0.2079338 -0.776013 -0.5954555 -0.2079307 -0.7760114 -0.5954587 -0.2079307 -0.7760114 -0.5954587 -0.2079307 -0.7760114 -0.5954587 0.2079331 -0.7760105 -0.595459 0.2079331 -0.7760105 -0.595459 0.2079331 -0.7760105 -0.595459 0.2079313 -0.7760135 -0.5954559 0.2079313 -0.7760135 -0.5954559 0.2079313 -0.7760135 -0.5954559 0.5680792 -0.5680792 -0.5954593 0.5680792 -0.5680792 -0.5954593 0.5680792 -0.5680792 -0.5954593 0.5680792 -0.5680792 -0.5954593 0.5680792 -0.5680792 -0.5954593 0.5680792 -0.5680792 -0.5954593 0.776013 -0.2079338 -0.5954555 0.776013 -0.2079338 -0.5954555 0.776013 -0.2079338 -0.5954555 0.7760114 -0.2079307 -0.5954587 0.7760114 -0.2079307 -0.5954587 0.7760114 -0.2079307 -0.5954587 0.7760105 0.2079331 -0.595459 0.7760105 0.2079331 -0.595459 0.7760105 0.2079331 -0.595459 0.7760135 0.2079313 -0.5954559 0.7760135 0.2079313 -0.5954559 0.7760135 0.2079313 -0.5954559 0.5680792 0.5680792 -0.5954593 0.5680792 0.5680792 -0.5954593 0.5680792 0.5680792 -0.5954593 0.5680792 0.5680792 -0.5954593 0.5680792 0.5680792 -0.5954593 0.5680792 0.5680792 -0.5954593 0.2079338 0.776013 -0.5954555 0.2079338 0.776013 -0.5954555 0.2079338 0.776013 -0.5954555 0.2079307 0.7760114 -0.5954587 0.2079307 0.7760114 -0.5954587 0.2079307 0.7760114 -0.5954587 -0.2079331 0.7760105 -0.595459 -0.2079331 0.7760105 -0.595459 -0.2079331 0.7760105 -0.595459 -0.2079313 0.7760135 -0.5954559 -0.2079313 0.7760135 -0.5954559 -0.2079313 0.7760135 -0.5954559 -0.5680792 0.5680792 -0.5954593 -0.5680792 0.5680792 -0.5954593 -0.5680792 0.5680792 -0.5954593 -0.5680792 0.5680792 -0.5954593 -0.5680792 0.5680792 -0.5954593 -0.5680792 0.5680792 -0.5954593 -0.776013 0.2079338 -0.5954555 -0.776013 0.2079338 -0.5954555 -0.776013 0.2079338 -0.5954555 -0.7760114 0.2079307 -0.5954587 -0.7760114 0.2079307 -0.5954587 -0.7760114 0.2079307 -0.5954587 -0.8968095 -0.2402984 -0.3714692 -0.8968095 -0.2402984 -0.3714692 -0.8968095 -0.2402984 -0.3714692 -0.8968079 -0.2402997 -0.3714722 -0.8968079 -0.2402997 -0.3714722 -0.8968079 -0.2402997 -0.3714722 -0.6565099 -0.6565099 -0.3714692 -0.6565099 -0.6565099 -0.3714692 -0.6565099 -0.6565099 -0.3714692 -0.6565099 -0.6565099 -0.3714692 -0.6565099 -0.6565099 -0.3714692 -0.6565099 -0.6565099 -0.3714692 -0.2402981 -0.8968083 -0.3714723 -0.2402981 -0.8968083 -0.3714723 -0.2402981 -0.8968083 -0.3714723 -0.2403 -0.896809 -0.3714693 -0.2403 -0.896809 -0.3714693 -0.2403 -0.896809 -0.3714693 0.2402984 -0.8968095 -0.3714692 0.2402984 -0.8968095 -0.3714692 0.2402984 -0.8968095 -0.3714692 0.2402997 -0.8968079 -0.3714722 0.2402997 -0.8968079 -0.3714722 0.2402997 -0.8968079 -0.3714722 0.6565099 -0.6565099 -0.3714692 0.6565099 -0.6565099 -0.3714692 0.6565099 -0.6565099 -0.3714692 0.6565099 -0.6565099 -0.3714692 0.6565099 -0.6565099 -0.3714692 0.6565099 -0.6565099 -0.3714692 0.8968083 -0.2402981 -0.3714723 0.8968083 -0.2402981 -0.3714723 0.8968083 -0.2402981 -0.3714723 0.896809 -0.2403 -0.3714693 0.896809 -0.2403 -0.3714693 0.896809 -0.2403 -0.3714693 0.8968095 0.2402984 -0.3714692 0.8968095 0.2402984 -0.3714692 0.8968095 0.2402984 -0.3714692 0.8968079 0.2402997 -0.3714722 0.8968079 0.2402997 -0.3714722 0.8968079 0.2402997 -0.3714722 0.6565099 0.6565099 -0.3714692 0.6565099 0.6565099 -0.3714692 0.6565099 0.6565099 -0.3714692 0.6565099 0.6565099 -0.3714692 0.6565099 0.6565099 -0.3714692 0.6565099 0.6565099 -0.3714692 0.2402981 0.8968083 -0.3714723 0.2402981 0.8968083 -0.3714723 0.2402981 0.8968083 -0.3714723 0.2403 0.896809 -0.3714693 0.2403 0.896809 -0.3714693 0.2403 0.896809 -0.3714693 -0.2402984 0.8968095 -0.3714692 -0.2402984 0.8968095 -0.3714692 -0.2402984 0.8968095 -0.3714692 -0.2402997 0.8968079 -0.3714722 -0.2402997 0.8968079 -0.3714722 -0.2402997 0.8968079 -0.3714722 -0.6565099 0.6565099 -0.3714692 -0.6565099 0.6565099 -0.3714692 -0.6565099 0.6565099 -0.3714692 -0.6565099 0.6565099 -0.3714692 -0.6565099 0.6565099 -0.3714692 -0.6565099 0.6565099 -0.3714692 -0.8968083 0.2402981 -0.3714723 -0.8968083 0.2402981 -0.3714723 -0.8968083 0.2402981 -0.3714723 -0.896809 0.2403 -0.3714693 -0.896809 0.2403 -0.3714693 -0.896809 0.2403 -0.3714693 -0.958209 -0.2567522 -0.1261501 -0.958209 -0.2567522 -0.1261501 -0.958209 -0.2567522 -0.1261501 -0.958209 -0.2567522 -0.1261501 -0.958209 -0.2567522 -0.1261501 -0.958209 -0.2567522 -0.1261501 -0.7014578 -0.7014578 -0.1261501 -0.7014578 -0.7014578 -0.1261501 -0.7014578 -0.7014578 -0.1261501 -0.7014578 -0.7014578 -0.12615 -0.7014578 -0.7014578 -0.12615 -0.7014578 -0.7014578 -0.12615 -0.2567522 -0.958209 -0.1261501 -0.2567522 -0.958209 -0.1261501 -0.2567522 -0.958209 -0.1261501 -0.2567522 -0.958209 -0.1261501 -0.2567522 -0.958209 -0.1261501 -0.2567522 -0.958209 -0.1261501 0.2567522 -0.958209 -0.1261501 0.2567522 -0.958209 -0.1261501 0.2567522 -0.958209 -0.1261501 0.2567522 -0.958209 -0.1261501 0.2567522 -0.958209 -0.1261501 0.2567522 -0.958209 -0.1261501 0.7014578 -0.7014578 -0.1261501 0.7014578 -0.7014578 -0.1261501 0.7014578 -0.7014578 -0.1261501 0.7014578 -0.7014578 -0.12615 0.7014578 -0.7014578 -0.12615 0.7014578 -0.7014578 -0.12615 0.958209 -0.2567522 -0.1261501 0.958209 -0.2567522 -0.1261501 0.958209 -0.2567522 -0.1261501 0.958209 -0.2567522 -0.1261501 0.958209 -0.2567522 -0.1261501 0.958209 -0.2567522 -0.1261501 0.958209 0.2567522 -0.1261501 0.958209 0.2567522 -0.1261501 0.958209 0.2567522 -0.1261501 0.958209 0.2567522 -0.1261501 0.958209 0.2567522 -0.1261501 0.958209 0.2567522 -0.1261501 0.7014578 0.7014578 -0.1261501 0.7014578 0.7014578 -0.1261501 0.7014578 0.7014578 -0.1261501 0.7014578 0.7014578 -0.12615 0.7014578 0.7014578 -0.12615 0.7014578 0.7014578 -0.12615 0.2567522 0.958209 -0.1261501 0.2567522 0.958209 -0.1261501 0.2567522 0.958209 -0.1261501 0.2567522 0.958209 -0.1261501 0.2567522 0.958209 -0.1261501 0.2567522 0.958209 -0.1261501 -0.2567522 0.958209 -0.1261501 -0.2567522 0.958209 -0.1261501 -0.2567522 0.958209 -0.1261501 -0.2567522 0.958209 -0.1261501 -0.2567522 0.958209 -0.1261501 -0.2567522 0.958209 -0.1261501 -0.7014578 0.7014578 -0.1261501 -0.7014578 0.7014578 -0.1261501 -0.7014578 0.7014578 -0.1261501 -0.7014578 0.7014578 -0.12615 -0.7014578 0.7014578 -0.12615 -0.7014578 0.7014578 -0.12615 -0.958209 0.2567522 -0.1261501 -0.958209 0.2567522 -0.1261501 -0.958209 0.2567522 -0.1261501 -0.958209 0.2567522 -0.1261501 -0.958209 0.2567522 -0.1261501 -0.958209 0.2567522 -0.1261501 -0.958209 -0.2567522 0.1261501 -0.958209 -0.2567522 0.1261501 -0.958209 -0.2567522 0.1261501 -0.958209 -0.2567522 0.12615 -0.958209 -0.2567522 0.12615 -0.958209 -0.2567522 0.12615 -0.7014578 -0.7014578 0.1261501 -0.7014578 -0.7014578 0.1261501 -0.7014578 -0.7014578 0.1261501 -0.7014578 -0.7014578 0.1261501 -0.7014578 -0.7014578 0.1261501 -0.7014578 -0.7014578 0.1261501 -0.2567522 -0.958209 0.1261501 -0.2567522 -0.958209 0.1261501 -0.2567522 -0.958209 0.1261501 -0.2567522 -0.958209 0.12615 -0.2567522 -0.958209 0.12615 -0.2567522 -0.958209 0.12615 0.2567522 -0.958209 0.1261501 0.2567522 -0.958209 0.1261501 0.2567522 -0.958209 0.1261501 0.2567522 -0.958209 0.12615 0.2567522 -0.958209 0.12615 0.2567522 -0.958209 0.12615 0.7014578 -0.7014578 0.1261501 0.7014578 -0.7014578 0.1261501 0.7014578 -0.7014578 0.1261501 0.7014578 -0.7014578 0.1261501 0.7014578 -0.7014578 0.1261501 0.7014578 -0.7014578 0.1261501 0.958209 -0.2567522 0.1261501 0.958209 -0.2567522 0.1261501 0.958209 -0.2567522 0.1261501 0.958209 -0.2567522 0.12615 0.958209 -0.2567522 0.12615 0.958209 -0.2567522 0.12615 0.958209 0.2567522 0.1261501 0.958209 0.2567522 0.1261501 0.958209 0.2567522 0.1261501 0.958209 0.2567522 0.12615 0.958209 0.2567522 0.12615 0.958209 0.2567522 0.12615 0.7014578 0.7014578 0.1261501 0.7014578 0.7014578 0.1261501 0.7014578 0.7014578 0.1261501 0.7014578 0.7014578 0.1261501 0.7014578 0.7014578 0.1261501 0.7014578 0.7014578 0.1261501 0.2567522 0.958209 0.1261501 0.2567522 0.958209 0.1261501 0.2567522 0.958209 0.1261501 0.2567522 0.958209 0.12615 0.2567522 0.958209 0.12615 0.2567522 0.958209 0.12615 -0.2567522 0.958209 0.1261501 -0.2567522 0.958209 0.1261501 -0.2567522 0.958209 0.1261501 -0.2567522 0.958209 0.12615 -0.2567522 0.958209 0.12615 -0.2567522 0.958209 0.12615 -0.7014578 0.7014578 0.1261501 -0.7014578 0.7014578 0.1261501 -0.7014578 0.7014578 0.1261501 -0.7014578 0.7014578 0.1261501 -0.7014578 0.7014578 0.1261501 -0.7014578 0.7014578 0.1261501 -0.958209 0.2567522 0.1261501 -0.958209 0.2567522 0.1261501 -0.958209 0.2567522 0.1261501 -0.958209 0.2567522 0.12615 -0.958209 0.2567522 0.12615 -0.958209 0.2567522 0.12615 -0.896809 -0.2403 0.3714694 -0.896809 -0.2403 0.3714694 -0.896809 -0.2403 0.3714694 -0.8968083 -0.2402981 0.3714724 -0.8968083 -0.2402981 0.3714724 -0.8968083 -0.2402981 0.3714724 -0.6565099 -0.6565099 0.3714692 -0.6565099 -0.6565099 0.3714692 -0.6565099 -0.6565099 0.3714692 -0.6565099 -0.6565099 0.3714691 -0.6565099 -0.6565099 0.3714691 -0.6565099 -0.6565099 0.3714691 -0.2402997 -0.8968079 0.3714722 -0.2402997 -0.8968079 0.3714722 -0.2402997 -0.8968079 0.3714722 -0.2402984 -0.8968095 0.3714692 -0.2402984 -0.8968095 0.3714692 -0.2402984 -0.8968095 0.3714692 0.2403 -0.896809 0.3714694 0.2403 -0.896809 0.3714694 0.2403 -0.896809 0.3714694 0.2402981 -0.8968083 0.3714724 0.2402981 -0.8968083 0.3714724 0.2402981 -0.8968083 0.3714724 0.6565099 -0.6565099 0.3714692 0.6565099 -0.6565099 0.3714692 0.6565099 -0.6565099 0.3714692 0.6565099 -0.6565099 0.3714691 0.6565099 -0.6565099 0.3714691 0.6565099 -0.6565099 0.3714691 0.8968079 -0.2402997 0.3714722 0.8968079 -0.2402997 0.3714722 0.8968079 -0.2402997 0.3714722 0.8968095 -0.2402984 0.3714692 0.8968095 -0.2402984 0.3714692 0.8968095 -0.2402984 0.3714692 0.896809 0.2403 0.3714694 0.896809 0.2403 0.3714694 0.896809 0.2403 0.3714694 0.8968083 0.2402981 0.3714724 0.8968083 0.2402981 0.3714724 0.8968083 0.2402981 0.3714724 0.6565099 0.6565099 0.3714692 0.6565099 0.6565099 0.3714692 0.6565099 0.6565099 0.3714692 0.6565099 0.6565099 0.3714691 0.6565099 0.6565099 0.3714691 0.6565099 0.6565099 0.3714691 0.2402997 0.8968079 0.3714722 0.2402997 0.8968079 0.3714722 0.2402997 0.8968079 0.3714722 0.2402984 0.8968095 0.3714692 0.2402984 0.8968095 0.3714692 0.2402984 0.8968095 0.3714692 -0.2403 0.896809 0.3714694 -0.2403 0.896809 0.3714694 -0.2403 0.896809 0.3714694 -0.2402981 0.8968083 0.3714724 -0.2402981 0.8968083 0.3714724 -0.2402981 0.8968083 0.3714724 -0.6565099 0.6565099 0.3714692 -0.6565099 0.6565099 0.3714692 -0.6565099 0.6565099 0.3714692 -0.6565099 0.6565099 0.3714691 -0.6565099 0.6565099 0.3714691 -0.6565099 0.6565099 0.3714691 -0.8968079 0.2402997 0.3714722 -0.8968079 0.2402997 0.3714722 -0.8968079 0.2402997 0.3714722 -0.8968095 0.2402984 0.3714692 -0.8968095 0.2402984 0.3714692 -0.8968095 0.2402984 0.3714692 -0.7760127 -0.2079311 0.5954568 -0.7760127 -0.2079311 0.5954568 -0.7760127 -0.2079311 0.5954568 -0.7760144 -0.2079342 0.5954537 -0.7760144 -0.2079342 0.5954537 -0.7760144 -0.2079342 0.5954537 -0.5680803 -0.5680803 0.5954575 -0.5680803 -0.5680803 0.5954575 -0.5680803 -0.5680803 0.5954575 -0.5680803 -0.5680803 0.5954575 -0.5680803 -0.5680803 0.5954575 -0.5680803 -0.5680803 0.5954575 -0.2079317 -0.7760148 0.595454 -0.2079317 -0.7760148 0.595454 -0.2079317 -0.7760148 0.595454 -0.2079335 -0.7760119 0.5954572 -0.2079335 -0.7760119 0.5954572 -0.2079335 -0.7760119 0.5954572 0.2079311 -0.7760127 0.5954568 0.2079311 -0.7760127 0.5954568 0.2079311 -0.7760127 0.5954568 0.2079342 -0.7760144 0.5954537 0.2079342 -0.7760144 0.5954537 0.2079342 -0.7760144 0.5954537 0.5680803 -0.5680803 0.5954575 0.5680803 -0.5680803 0.5954575 0.5680803 -0.5680803 0.5954575 0.5680803 -0.5680803 0.5954575 0.5680803 -0.5680803 0.5954575 0.5680803 -0.5680803 0.5954575 0.7760148 -0.2079317 0.595454 0.7760148 -0.2079317 0.595454 0.7760148 -0.2079317 0.595454 0.7760119 -0.2079335 0.5954572 0.7760119 -0.2079335 0.5954572 0.7760119 -0.2079335 0.5954572 0.7760127 0.2079311 0.5954568 0.7760127 0.2079311 0.5954568 0.7760127 0.2079311 0.5954568 0.7760144 0.2079342 0.5954537 0.7760144 0.2079342 0.5954537 0.7760144 0.2079342 0.5954537 0.5680803 0.5680803 0.5954575 0.5680803 0.5680803 0.5954575 0.5680803 0.5680803 0.5954575 0.5680803 0.5680803 0.5954575 0.5680803 0.5680803 0.5954575 0.5680803 0.5680803 0.5954575 0.2079317 0.7760148 0.595454 0.2079317 0.7760148 0.595454 0.2079317 0.7760148 0.595454 0.2079335 0.7760119 0.5954572 0.2079335 0.7760119 0.5954572 0.2079335 0.7760119 0.5954572 -0.2079311 0.7760127 0.5954568 -0.2079311 0.7760127 0.5954568 -0.2079311 0.7760127 0.5954568 -0.2079342 0.7760144 0.5954537 -0.2079342 0.7760144 0.5954537 -0.2079342 0.7760144 0.5954537 -0.5680803 0.5680803 0.5954575 -0.5680803 0.5680803 0.5954575 -0.5680803 0.5680803 0.5954575 -0.5680803 0.5680803 0.5954575 -0.5680803 0.5680803 0.5954575 -0.5680803 0.5680803 0.5954575 -0.7760148 0.2079317 0.595454 -0.7760148 0.2079317 0.595454 -0.7760148 0.2079317 0.595454 -0.7760119 0.2079335 0.5954572 -0.7760119 0.2079335 0.5954572 -0.7760119 0.2079335 0.5954572 -0.6008227 -0.1609913 0.7830032 -0.6008227 -0.1609913 0.7830032 -0.6008227 -0.1609913 0.7830032 -0.6008213 -0.1609889 0.7830046 -0.6008213 -0.1609889 0.7830046 -0.6008213 -0.1609889 0.7830046 -0.4398331 -0.4398331 0.783003 -0.4398331 -0.4398331 0.783003 -0.4398331 -0.4398331 0.783003 -0.4398331 -0.4398331 0.783003 -0.4398331 -0.4398331 0.783003 -0.4398331 -0.4398331 0.783003 -0.1609909 -0.6008211 0.7830043 -0.1609909 -0.6008211 0.7830043 -0.1609909 -0.6008211 0.7830043 -0.1609895 -0.6008235 0.7830029 -0.1609895 -0.6008235 0.7830029 -0.1609895 -0.6008235 0.7830029 0.1609913 -0.6008227 0.7830032 0.1609913 -0.6008227 0.7830032 0.1609913 -0.6008227 0.7830032 0.1609889 -0.6008213 0.7830046 0.1609889 -0.6008213 0.7830046 0.1609889 -0.6008213 0.7830046</float_array>
                    <technique_common>
                        <accessor count="840" source="#geometry0-normal-array" stride="3">
                            <param name="X" type="float"/>
                            <param name="Y" type="float"/>
                            <param name="Z" type="float"/>
                        </accessor>
                    </technique_common>
                </source>
                <vertices id="geometry0-vertex">
                    <input semantic="POSITION" source="#geometry0-position"/>
                </vertices>
                <triangles count="288" material="default_ai_0.2_sh_0.2_tr_0.0_dc_r_0.8_g_0.8_b_0.8_sc_r_1.0_g_1.0_b_1.0_ec_r_0.0_g_0.0_b_0_tri">
                    <input offset="0" semantic="VERTEX" source="#geometry0-vertex"/>
                    <input offset="1" semantic="NORMAL" source="#geometry0-normal"/>
                    <p>101 0 102 1 114 2 101 3 114 4 113 5 102 6 103 7 115 8 102 9 115 10 114 11 103 12 104 13 116 14 103 15 116 16 115 17 104 18 105 19 117 20 104 21 117 22 116 23 105 24 106 25 118 26 105 27 118 28 117 29 106 30 107 31 119 32 106 33 119 34 118 35 107 36 108 37 120 38 107 39 120 40 119 41 108 42 98 43 110 44 108 45 110 46 120 47 110 48 109 49 121 50 110 51 121 52 122 53 109 54 111 55 123 56 109 57 123 58 121 59 111 60 112 61 124 62 111 63 124 64 123 65 112 66 113 67 125 68 112 69 125 70 124 71 113 72 114 73 126 74 113 75 126 76 125 77 114 78 115 79 127 80 114 81 127 82 126 83 115 84 116 85 128 86 115 87 128 88 127 89 116 90 117 91 129 92 116 93 129 94 128 95 117 96 118 97 130 98 117 99 130 100 129 101 118 102 119 103 131 104 118 105 131 106 130 107 119 108 120 109 132 110 119 111 132 112 131 113 120 114 110 115 122 116 120 117 122 118 132 119 122 120 121 121 133 122 122 123 133 124 133 124 121 125 123 126 133 127 121 128 133 129 133 129 123 130 124 131 133 132 123 133 133 134 133 134 124 135 125 136 133 137 124 138 133 139 133 139 125 140 126 141 133 142 125 143 133 144 133 144 126 145 127 146 133 147 126 148 133 149 133 149 127 150 128 151 133 152 127 153 133 154 133 154 128 155 129 156 133 157 128 158 133 159 133 159 129 160 130 161 133 162 129 163 133 164 133 164 130 165 131 166 133 167 130 168 133 169 133 169 131 170 132 171 133 172 131 173 133 174 133 174 132 175 122 176 133 177 132 178 133 179 133 179 0 180 0 180 1 181 0 182 1 183 2 184 0 185 0 185 3 186 0 187 3 188 1 189 0 190 0 190 4 191 0 192 4 193 3 194 0 195 0 195 5 196 0 197 5 198 4 199 0 200 0 200 6 201 0 202 6 203 5 204 0 205 0 205 7 206 0 207 7 208 6 209 0 210 0 210 8 211 0 212 8 213 7 214 0 215 0 215 9 216 0 217 9 218 8 219 0 220 0 220 10 221 0 222 10 223 9 224 0 225 0 225 11 226 0 227 11 228 10 229 0 230 0 230 12 231 0 232 12 233 11 234 0 235 0 235 2 236 0 237 2 238 12 239 2 240 1 241 13 242 2 243 13 244 14 245 1 246 3 247 15 248 1 249 15 250 13 251 3 252 4 253 16 254 3 255 16 256 15 257 4 258 5 259 17 260 4 261 17 262 16 263 5 264 6 265 18 266 5 267 18 268 17 269 6 270 7 271 19 272 6 273 19 274 18 275 7 276 8 277 20 278 7 279 20 280 19 281 8 282 9 283 21 284 8 285 21 286 20 287 9 288 10 289 22 290 9 291 22 292 21 293 10 294 11 295 23 296 10 297 23 298 22 299 11 300 12 301 24 302 11 303 24 304 23 305 12 306 2 307 14 308 12 309 14 310 24 311 14 312 13 313 25 314 14 315 25 316 26 317 13 318 15 319 27 320 13 321 27 322 25 323 15 324 16 325 28 326 15 327 28 328 27 329 16 330 17 331 29 332 16 333 29 334 28 335 17 336 18 337 30 338 17 339 30 340 29 341 18 342 19 343 31 344 18 345 31 346 30 347 19 348 20 349 32 350 19 351 32 352 31 353 20 354 21 355 33 356 20 357 33 358 32 359 21 360 22 361 34 362 21 363 34 364 33 365 22 366 23 367 35 368 22 369 35 370 34 371 23 372 24 373 36 374 23 375 36 376 35 377 24 378 14 379 26 380 24 381 26 382 36 383 26 384 25 385 37 386 26 387 37 388 38 389 25 390 27 391 39 392 25 393 39 394 37 395 27 396 28 397 40 398 27 399 40 400 39 401 28 402 29 403 41 404 28 405 41 406 40 407 29 408 30 409 42 410 29 411 42 412 41 413 30 414 31 415 43 416 30 417 43 418 42 419 31 420 32 421 44 422 31 423 44 424 43 425 32 426 33 427 45 428 32 429 45 430 44 431 33 432 34 433 46 434 33 435 46 436 45 437 34 438 35 439 47 440 34 441 47 442 46 443 35 444 36 445 48 446 35 447 48 448 47 449 36 450 26 451 38 452 36 453 38 454 48 455 38 456 37 457 49 458 38 459 49 460 50 461 37 462 39 463 51 464 37 465 51 466 49 467 39 468 40 469 52 470 39 471 52 472 51 473 40 474 41 475 53 476 40 477 53 478 52 479 41 480 42 481 54 482 41 483 54 484 53 485 42 486 43 487 55 488 42 489 55 490 54 491 43 492 44 493 56 494 43 495 56 496 55 497 44 498 45 499 57 500 44 501 57 502 56 503 45 504 46 505 58 506 45 507 58 508 57 509 46 510 47 511 59 512 46 513 59 514 58 515 47 516 48 517 60 518 47 519 60 520 59 521 48 522 38 523 50 524 48 525 50 526 60 527 50 528 49 529 61 530 50 531 61 532 62 533 49 534 51 535 63 536 49 537 63 538 61 539 51 540 52 541 64 542 51 543 64 544 63 545 52 546 53 547 65 548 52 549 65 550 64 551 53 552 54 553 66 554 53 555 66 556 65 557 54 558 55 559 67 560 54 561 67 562 66 563 55 564 56 565 68 566 55 567 68 568 67 569 56 570 57 571 69 572 56 573 69 574 68 575 57 576 58 577 70 578 57 579 70 580 69 581 58 582 59 583 71 584 58 585 71 586 70 587 59 588 60 589 72 590 59 591 72 592 71 593 60 594 50 595 62 596 60 597 62 598 72 599 62 600 61 601 73 602 62 603 73 604 74 605 61 606 63 607 75 608 61 609 75 610 73 611 63 612 64 613 76 614 63 615 76 616 75 617 64 618 65 619 77 620 64 621 77 622 76 623 65 624 66 625 78 626 65 627 78 628 77 629 66 630 67 631 79 632 66 633 79 634 78 635 67 636 68 637 80 638 67 639 80 640 79 641 68 642 69 643 81 644 68 645 81 646 80 647 69 648 70 649 82 650 69 651 82 652 81 653 70 654 71 655 83 656 70 657 83 658 82 659 71 660 72 661 84 662 71 663 84 664 83 665 72 666 62 667 74 668 72 669 74 670 84 671 74 672 73 673 85 674 74 675 85 676 86 677 73 678 75 679 87 680 73 681 87 682 85 683 75 684 76 685 88 686 75 687 88 688 87 689 76 690 77 691 89 692 76 693 89 694 88 695 77 696 78 697 90 698 77 699 90 700 89 701 78 702 79 703 91 704 78 705 91 706 90 707 79 708 80 709 92 710 79 711 92 712 91 713 80 714 81 715 93 716 80 717 93 718 92 719 81 720 82 721 94 722 81 723 94 724 93 725 82 726 83 727 95 728 82 729 95 730 94 731 83 732 84 733 96 734 83 735 96 736 95 737 84 738 74 739 86 740 84 741 86 742 96 743 86 744 85 745 97 746 86 747 97 748 98 749 85 750 87 751 99 752 85 753 99 754 97 755 87 756 88 757 100 758 87 759 100 760 99 761 88 762 89 763 101 764 88 765 101 766 100 767 89 768 90 769 102 770 89 771 102 772 101 773 90 774 91 775 103 776 90 777 103 778 102 779 91 780 92 781 104 782 91 783 104 784 103 785 92 786 93 787 105 788 92 789 105 790 104 791 93 792 94 793 106 794 93 795 106 796 105 797 94 798 95 799 107 800 94 801 107 802 106 803 95 804 96 805 108 806 95 807 108 808 107 809 96 810 86 811 98 812 96 813 98 814 108 815 98 816 97 817 109 818 98 819 109 820 110 821 97 822 99 823 111 824 97 825 111 826 109 827 99 828 100 829 112 830 99 831 112 832 111 833 100 834 101 835 113 836 100 837 113 838 112 839</p>
                </triangles>
            </mesh>
        </geometry>
    </library_geometries>
    <library_visual_scenes>
        <visual_scene id="Building_123_CROWN1">
            <node>
                <instance_geometry url="#geometry0">
                    <bind_material>
                        <technique_common>
                            <instance_material symbol="default_ai_0.2_sh_0.2_tr_0.0_dc_r_0.8_g_0.8_b_0.8_sc_r_1.0_g_1.0_b_1.0_ec_r_0.0_g_0.0_b_0_tri" target="#default_ai_0.2_sh_0.2_tr_0.0_dc_r_0.8_g_0.8_b_0.8_sc_r_1.0_g_1.0_b_1.0_ec_r_0.0_g_0.0_b_0_mat"/>
                        </technique_common>
                    </bind_material>
                </instance_geometry>
            </node>
        </visual_scene>
    </library_visual_scenes>
    <scene>
        <instance_visual_scene url="#Building_123_CROWN1"/>
    </scene>
</COLLADA>
