<?xml version="1.0" encoding="UTF-8" standalone="yes"?>
<COLLADA xmlns="http://www.collada.org/2005/11/COLLADASchema" version="1.4.1">
    <asset>
        <contributor>
            <authoring_tool>3D City Database Importer/Exporter, version 5.5.3; Chair of Geoinformatics, Technical University of Munich</authoring_tool>
        </contributor>
        <created>2026-09-25T14:44:51.117</created>
        <modified>2026-09-25T14:44:51.117</modified>
        <unit meter="1.0" name="meters"/>
        <up_axis>Z_UP</up_axis>
    </asset>
    <library_materials>
        <material id="default_ai_0.2_sh_0.2_tr_0.0_dc_r_0.8_g_0.8_b_0.8_sc_r_1.0_g_1.0_b_1.0_ec_r_0.0_g_0.0_b_0_mat">
            <instance_effect url="#default_ai_0.2_sh_0.2_tr_0.0_dc_r_0.8_g_0.8_b_0.8_sc_r_1.0_g_1.0_b_1.0_ec_r_0.0_g_0.0_b_0_eff"/>
        </material>
    </library_materials>
    <library_effects>
        <effect id="default_ai_0.2_sh_0.2_tr_0.0_dc_r_0.8_g_0.8_b_0.8_sc_r_1.0_g_1.0_b_1.0_ec_r_0.0_g_0.0_b_0_eff">
            <profile_COMMON>
                <technique sid="COMMON">
                    <lambert>
                        <emission>
                            <color>0.0 0.0 0.0 1.0</color>
                        </emission>
                        <diffuse>
                            <color>0.8 0.8 0.8 1.0</color>
                        </diffuse>
                        <reflective>
                            <color>1.0 1.0 1.0 1.0</color>
                        </reflective>
                        <reflectivity>
                            <float>0.2</float>
                        </reflectivity>
                        <transparent opaque="A_ONE">
                            <color>1.0 1.0 1.0 1.0</color>
                        </transparent>
                        <transparency>
                            <float>1.0</float>
                        </transparency>
                    </lambert>
                </technique>
                <extra>
                    <technique profile="GOOGLEEARTH">
                        <double_sided>0</double_sided>
                    </technique>
                </extra>
            </profile_COMMON>
        </effect>
    </library_effects>
    <library_geometries>
        <geometry id="geometry0">
            <mesh>
                <source id="geometry0-position">
                    <float_array id="geometry0-position-array" count="402">0.0 0.0 3.1 0.3474232 0.2005855 3.0471853 0.4011695 0.0 3.0471853 0.2005855 0.3474232 3.0471853 0.0 0.4011695 3.0471853 -0.2005855 0.3474232 3.0471853 -0.3474232 0.2005855 3.0471853 -0.4011695 0.0 3.0471853 -0.3474232 -0.2005855 3.0471853 -0.2005855 -0.3474232 3.0471853 0.0 -0.4011695 3.0471853 0.2005855 -0.3474232 3.0471853 0.3474232 -0.2005855 3.0471853 0.6711701 0.3875 2.8923388 0.775 0.0 2.8923388 0.3875 0.6711701 2.8923388 0.0 0.775 2.8923388 -0.3875 0.6711701 2.8923388 -0.6711701 0.3875 2.8923388 -0.775 0.0 2.8923388 -0.6711701 -0.3875 2.8923388 -0.3875 -0.6711701 2.8923388 0.0 -0.775 2.8923388 0.3875 -0.6711701 2.8923388 0.6711701 -0.3875 2.8923388 0.9491766 0.5480072 2.6460143 1.0960159 0.0 2.6460143 0.5480072 0.9491766 2.6460143 0.0 1.0960159 2.6460143 -0.5480072 0.9491766 2.6460143 -0.9491766 0.5480072 2.6460143 -1.0960159 0.0 2.6460143 -0.9491766 -0.5480072 2.6460143 -0.5480072 -0.9491766 2.6460143 0.0 -1.0960159 2.6460143 0.5480072 -0.9491766 2.6460143 0.9491766 -0.5480072 2.6460143 1.1625 0.6711701 2.325 1.3423388 0.0 2.325 0.6711701 1.1625 2.325 0.0 1.3423388 2.325 -0.6711701 1.1625 2.325 -1.1625 0.6711701 2.325 -1.3423388 0.0 2.325 -1.1625 -0.6711701 2.325 -0.6711701 -1.1625 2.325 0.0 -1.3423388 2.325 0.6711701 -1.1625 2.325 1.1625 -0.6711701 2.325 1.2965998 0.7485926 1.9511694 1.4971853 0.0 1.9511694 0.7485926 1.2965998 1.9511694 0.0 1.4971853 1.9511694 -0.7485926 1.2965998 1.9511694 -1.2965998 0.7485926 1.9511694 -1.4971853 0.0 1.9511694 -1.2965998 -0.7485926 1.9511694 -0.7485926 -1.2965998 1.9511694 0.0 -1.4971853 1.9511694 0.7485926 -1.2965998 1.9511694 1.2965998 -0.7485926 1.9511694 1.3423388 0.775 1.55 1.55 0.0 1.55 0.775 1.3423388 1.55 0.0 1.55 1.55 -0.775 1.3423388 1.55 -1.3423388 0.775 1.55 -1.55 0.0 1.55 -1.3423388 -0.775 1.55 -0.775 -1.3423388 1.55 0.0 -1.55 1.55 0.775 -1.3423388 1.55 1.3423388 -0.775 1.55 1.2965998 0.7485926 1.1488306 1.4971853 0.0 1.1488306 0.7485926 1.2965998 1.1488306 0.0 1.4971853 1.1488306 -0.7485926 1.2965998 1.1488306 -1.2965998 0.7485926 1.1488306 -1.4971853 0.0 1.1488306 -1.2965998 -0.7485926 1.1488306 -0.7485926 -1.2965998 1.1488306 0.0 -1.4971853 1.1488306 0.7485926 -1.2965998 1.1488306 1.2965998 -0.7485926 1.1488306 1.1625 0.6711701 0.775 1.3423388 0.0 0.775 0.6711701 1.1625 0.775 0.0 1.3423388 0.775 -0.6711701 1.1625 0.775 -1.1625 0.6711701 0.775 -1.3423388 0.0 0.775 -1.1625 -0.6711701 0.775 -0.6711701 -1.1625 0.775 0.0 -1.3423388 0.775 0.6711701 -1.1625 0.775 1.1625 -0.6711701 0.775 0.9491766 0.5480072 0.4539842 1.0960159 0.0 0.4539842 0.5480072 0.9491766 0.4539842 0.0 1.0960159 0.4539842 -0.5480072 0.9491766 0.4539842 -0.9491766 0.5480072 0.4539842 -1.0960159 0.0 0.4539842 -0.9491766 -0.5480072 0.4539842 -0.5480072 -0.9491766 0.4539842 0.0 -1.0960159 0.4539842 0.5480072 -0.9491766 0.4539842 0.9491766 -0.5480072 0.4539842 0.6711701 0.3875 0.2076597 0.775 0.0 0.2076597 0.3875 0.6711701 0.2076597 0.0 0.775 0.2076597 -0.3875 0.6711701 0.2076597 -0.6711701 0.3875 0.2076597 -0.775 0.0 0.2076597 -0.6711701 -0.3875 0.2076597 -0.3875 -0.6711701 0.2076597 0.0 -0.775 0.2076597 0.3875 -0.6711701 0.2076597 0.6711701 -0.3875 0.2076597 0.3474232 0.2005855 0.0528147 0.4011695 0.0 0.0528147 0.2005855 0.3474232 0.0528147 0.0 0.4011695 0.0528147 -0.2005855 0.3474232 0.0528147 -0.3474232 0.2005855 0.0528147 -0.4011695 0.0 0.0528147 -0.3474232 -0.2005855 0.0528147 -0.2005855 -0.3474232 0.0528147 0.0 -0.4011695 0.0528147 0.2005855 -0.3474232 0.0528147 0.3474232 -0.2005855 0.0528147 0.0 0.0 0.0</float_array>
                    <technique_common>
                        <accessor count="134" source="#geometry0-position-array" stride="3">
                            <param name="X" type="float"/>
                            <param name="Y" type="float"/>
                            <param name="Z" type="float"/>
                        </accessor>
                    </technique_common>
                </source>
                <source id="geometry0-normal">
                    <float_array id="geometry0-normal-array" count="2520">0.102004 -0.3806861 0.9190611 0.102004 -0.3806861 0.9190611 0.102004 -0.3806861 0.9190611 0.1020036 -0.380686 0.9190612 0.1020036 -0.380686 0.9190612 0.1020036 -0.380686 0.9190612 0.2786817 -0.2786817 0.9190609 0.2786817 -0.2786817 0.9190609 0.2786817 -0.2786817 0.9190609 0.2786816 -0.2786816 0.9190609 0.2786816 -0.2786816 0.9190609 0.2786816 -0.2786816 0.9190609 0.3806859 -0.102004 0.9190612 0.3806859 -0.102004 0.9190612 0.3806859 -0.102004 0.9190612 0.3806863 -0.1020037 0.919061 0.3806863 -0.1020037 0.919061 0.3806863 -0.1020037 0.919061 0.3806861 0.102004 0.9190611 0.3806861 0.102004 0.9190611 0.3806861 0.102004 0.9190611 0.380686 0.1020036 0.9190612 0.380686 0.1020036 0.9190612 0.380686 0.1020036 0.9190612 0.2786817 0.2786817 0.9190609 0.2786817 0.2786817 0.9190609 0.2786817 0.2786817 0.9190609 0.2786816 0.2786816 0.9190609 0.2786816 0.2786816 0.9190609 0.2786816 0.2786816 0.9190609 0.102004 0.3806859 0.9190612 0.102004 0.3806859 0.9190612 0.102004 0.3806859 0.9190612 0.1020037 0.3806863 0.919061 0.1020037 0.3806863 0.919061 0.1020037 0.3806863 0.919061 -0.102004 0.3806861 0.9190611 -0.102004 0.3806861 0.9190611 -0.102004 0.3806861 0.9190611 -0.1020036 0.380686 0.9190612 -0.1020036 0.380686 0.9190612 -0.1020036 0.380686 0.9190612 -0.2786817 0.2786817 0.9190609 -0.2786817 0.2786817 0.9190609 -0.2786817 0.2786817 0.9190609 -0.2786816 0.2786816 0.9190609 -0.2786816 0.2786816 0.9190609 -0.2786816 0.2786816 0.9190609 -0.3806859 0.102004 0.9190612 -0.3806859 0.102004 0.9190612 -0.3806859 0.102004 0.9190612 -0.3806863 0.1020037 0.919061 -0.3806863 0.1020037 0.919061 -0.3806863 0.1020037 0.919061 -0.1304458 -0.0349525 0.9908391 -0.1304458 -0.0349525 0.9908391 -0.1304458 -0.0349525 0.9908391 1.0 0.0 0.0 1.0 0.0 0.0 -0.0954928 -0.0954928 0.9908392 -0.0954928 -0.0954928 0.9908392 -0.0954928 -0.0954928 0.9908392 1.0 0.0 0.0 1.0 0.0 0.0 -0.0349525 -0.1304458 0.9908391 -0.0349525 -0.1304458 0.9908391 -0.0349525 -0.1304458 0.9908391 1.0 0.0 0.0 1.0 0.0 0.0 0.0349525 -0.1304458 0.9908391 0.0349525 -0.1304458 0.9908391 0.0349525 -0.1304458 0.9908391 1.0 0.0 0.0 1.0 0.0 0.0 0.0954928 -0.0954928 0.9908392 0.0954928 -0.0954928 0.9908392 0.0954928 -0.0954928 0.9908392 1.0 0.0 0.0 1.0 0.0 0.0 0.1304458 -0.0349525 0.9908391 0.1304458 -0.0349525 0.9908391 0.1304458 -0.0349525 0.9908391 1.0 0.0 0.0 1.0 0.0 0.0 0.1304458 0.0349525 0.9908391 0.1304458 0.0349525 0.9908391 0.1304458 0.0349525 0.9908391 1.0 0.0 0.0 1.0 0.0 0.0 0.0954928 0.0954928 0.9908392 0.0954928 0.0954928 0.9908392 0.0954928 0.0954928 0.9908392 1.0 0.0 0.0 1.0 0.0 0.0 0.0349525 0.1304458 0.9908391 0.0349525 0.1304458 0.9908391 0.0349525 0.1304458 0.9908391 1.0 0.0 0.0 1.0 0.0 0.0 -0.0349525 0.1304458 0.9908391 -0.0349525 0.1304458 0.9908391 -0.0349525 0.1304458 0.9908391 1.0 0.0 0.0 1.0 0.0 0.0 -0.0954928 0.0954928 0.9908392 -0.0954928 0.0954928 0.9908392 -0.0954928 0.0954928 0.9908392 1.0 0.0 0.0 1.0 0.0 0.0 -0.1304458 0.0349525 0.9908391 -0.1304458 0.0349525 0.9908391 -0.1304458 0.0349525 0.9908391 1.0 0.0 0.0 1.0 0.0 0.0 1.0 0.0 0.0 1.0 0.0 0.0 -0.1304459 -0.0349526 -0.9908391 -0.1304459 -0.0349526 -0.9908391 -0.1304459 -0.0349526 -0.9908391 1.0 0.0 0.0 1.0 0.0 0.0 -0.0954928 -0.0954928 -0.9908392 -0.0954928 -0.0954928 -0.9908392 -0.0954928 -0.0954928 -0.9908392 1.0 0.0 0.0 1.0 0.0 0.0 -0.0349526 -0.1304459 -0.9908391 -0.0349526 -0.1304459 -0.9908391 -0.0349526 -0.1304459 -0.9908391 1.0 0.0 0.0 1.0 0.0 0.0 0.0349526 -0.1304459 -0.9908391 0.0349526 -0.1304459 -0.9908391 0.0349526 -0.1304459 -0.9908391 1.0 0.0 0.0 1.0 0.0 0.0 0.0954928 -0.0954928 -0.9908392 0.0954928 -0.0954928 -0.9908392 0.0954928 -0.0954928 -0.9908392 1.0 0.0 0.0 1.0 0.0 0.0 0.1304459 -0.0349526 -0.9908391 0.1304459 -0.0349526 -0.9908391 0.1304459 -0.0349526 -0.9908391 1.0 0.0 0.0 1.0 0.0 0.0 0.1304459 0.0349526 -0.9908391 0.1304459 0.0349526 -0.9908391 0.1304459 0.0349526 -0.9908391 1.0 0.0 0.0 1.0 0.0 0.0 0.0954928 0.0954928 -0.9908392 0.0954928 0.0954928 -0.9908392 0.0954928 0.0954928 -0.9908392 1.0 0.0 0.0 1.0 0.0 0.0 0.0349526 0.1304459 -0.9908391 0.0349526 0.1304459 -0.9908391 0.0349526 0.1304459 -0.9908391 1.0 0.0 0.0 1.0 0.0 0.0 -0.0349526 0.1304459 -0.9908391 -0.0349526 0.1304459 -0.9908391 -0.0349526 0.1304459 -0.9908391 1.0 0.0 0.0 1.0 0.0 0.0 -0.0954928 0.0954928 -0.9908392 -0.0954928 0.0954928 -0.9908392 -0.0954928 0.0954928 -0.9908392 1.0 0.0 0.0 1.0 0.0 0.0 -0.1304459 0.0349526 -0.9908391 -0.1304459 0.0349526 -0.9908391 -0.1304459 0.0349526 -0.9908391 -0.3806893 -0.1020045 -0.9190597 -0.3806893 -0.1020045 -0.9190597 -0.3806893 -0.1020045 -0.9190597 -0.3806889 -0.1020048 -0.9190598 -0.3806889 -0.1020048 -0.9190598 -0.3806889 -0.1020048 -0.9190598 -0.2786838 -0.2786838 -0.9190596 -0.2786838 -0.2786838 -0.9190596 -0.2786838 -0.2786838 -0.9190596 -0.2786838 -0.2786838 -0.9190596 -0.2786838 -0.2786838 -0.9190596 -0.2786838 -0.2786838 -0.9190596 -0.1020044 -0.380689 -0.9190599 -0.1020044 -0.380689 -0.9190599 -0.1020044 -0.380689 -0.9190599 -0.1020048 -0.3806891 -0.9190598 -0.1020048 -0.3806891 -0.9190598 -0.1020048 -0.3806891 -0.9190598 0.1020045 -0.3806893 -0.9190597 0.1020045 -0.3806893 -0.9190597 0.1020045 -0.3806893 -0.9190597 0.1020048 -0.3806889 -0.9190598 0.1020048 -0.3806889 -0.9190598 0.1020048 -0.3806889 -0.9190598 0.2786838 -0.2786838 -0.9190596 0.2786838 -0.2786838 -0.9190596 0.2786838 -0.2786838 -0.9190596 0.2786838 -0.2786838 -0.9190596 0.2786838 -0.2786838 -0.9190596 0.2786838 -0.2786838 -0.9190596 0.380689 -0.1020044 -0.9190599 0.380689 -0.1020044 -0.9190599 0.380689 -0.1020044 -0.9190599 0.3806891 -0.1020048 -0.9190598 0.3806891 -0.1020048 -0.9190598 0.3806891 -0.1020048 -0.9190598 0.3806893 0.1020045 -0.9190597 0.3806893 0.1020045 -0.9190597 0.3806893 0.1020045 -0.9190597 0.3806889 0.1020048 -0.9190598 0.3806889 0.1020048 -0.9190598 0.3806889 0.1020048 -0.9190598 0.2786838 0.2786838 -0.9190596 0.2786838 0.2786838 -0.9190596 0.2786838 0.2786838 -0.9190596 0.2786838 0.2786838 -0.9190596 0.2786838 0.2786838 -0.9190596 0.2786838 0.2786838 -0.9190596 0.1020044 0.380689 -0.9190599 0.1020044 0.380689 -0.9190599 0.1020044 0.380689 -0.9190599 0.1020048 0.3806891 -0.9190598 0.1020048 0.3806891 -0.9190598 0.1020048 0.3806891 -0.9190598 -0.1020045 0.3806893 -0.9190597 -0.1020045 0.3806893 -0.9190597 -0.1020045 0.3806893 -0.9190597 -0.1020048 0.3806889 -0.9190598 -0.1020048 0.3806889 -0.9190598 -0.1020048 0.3806889 -0.9190598 -0.2786838 0.2786838 -0.9190596 -0.2786838 0.2786838 -0.9190596 -0.2786838 0.2786838 -0.9190596 -0.2786838 0.2786838 -0.9190596 -0.2786838 0.2786838 -0.9190596 -0.2786838 0.2786838 -0.9190596 -0.380689 0.1020044 -0.9190599 -0.380689 0.1020044 -0.9190599 -0.380689 0.1020044 -0.9190599 -0.3806891 0.1020048 -0.9190598 -0.3806891 0.1020048 -0.9190598 -0.3806891 0.1020048 -0.9190598 -0.6008236 -0.1609894 -0.7830027 -0.6008236 -0.1609894 -0.7830027 -0.6008236 -0.1609894 -0.7830027 -0.6008214 -0.1609908 -0.7830043 -0.6008214 -0.1609908 -0.7830043 -0.6008214 -0.1609908 -0.7830043 -0.4398332 -0.4398332 -0.7830029 -0.4398332 -0.4398332 -0.7830029 -0.4398332 -0.4398332 -0.7830029 -0.4398332 -0.4398332 -0.7830029 -0.4398332 -0.4398332 -0.7830029 -0.4398332 -0.4398332 -0.7830029 -0.1609889 -0.6008216 -0.7830045 -0.1609889 -0.6008216 -0.7830045 -0.1609889 -0.6008216 -0.7830045 -0.1609912 -0.6008229 -0.783003 -0.1609912 -0.6008229 -0.783003 -0.1609912 -0.6008229 -0.783003 0.1609894 -0.6008236 -0.7830027 0.1609894 -0.6008236 -0.7830027 0.1609894 -0.6008236 -0.7830027 0.1609908 -0.6008214 -0.7830043 0.1609908 -0.6008214 -0.7830043 0.1609908 -0.6008214 -0.7830043 0.4398332 -0.4398332 -0.7830029 0.4398332 -0.4398332 -0.7830029 0.4398332 -0.4398332 -0.7830029 0.4398332 -0.4398332 -0.7830029 0.4398332 -0.4398332 -0.7830029 0.4398332 -0.4398332 -0.7830029 0.6008216 -0.1609889 -0.7830045 0.6008216 -0.1609889 -0.7830045 0.6008216 -0.1609889 -0.7830045 0.6008229 -0.1609912 -0.783003 0.6008229 -0.1609912 -0.783003 0.6008229 -0.1609912 -0.783003 0.6008236 0.1609894 -0.7830027 0.6008236 0.1609894 -0.7830027 0.6008236 0.1609894 -0.7830027 0.6008214 0.1609908 -0.7830043 0.6008214 0.1609908 -0.7830043 0.6008214 0.1609908 -0.7830043 0.4398332 0.4398332 -0.7830029 0.4398332 0.4398332 -0.7830029 0.4398332 0.4398332 -0.7830029 0.4398332 0.4398332 -0.7830029 0.4398332 0.4398332 -0.7830029 0.4398332 0.4398332 -0.7830029 0.1609889 0.6008216 -0.7830045 0.1609889 0.6008216 -0.7830045 0.1609889 0.6008216 -0.7830045 0.1609912 0.6008229 -0.783003 0.1609912 0.6008229 -0.783003 0.1609912 0.6008229 -0.783003 -0.1609894 0.6008236 -0.7830027 -0.1609894 0.6008236 -0.7830027 -0.1609894 0.6008236 -0.7830027 -0.1609908 0.6008214 -0.7830043 -0.1609908 0.6008214 -0.7830043 -0.1609908 0.6008214 -0.7830043 -0.4398332 0.4398332 -0.7830029 -0.4398332 0.4398332 -0.7830029 -0.4398332 0.4398332 -0.7830029 -0.4398332 0.4398332 -0.7830029 -0.4398332 0.4398332 -0.7830029 -0.4398332 0.4398332 -0.7830029 -0.6008216 0.1609889 -0.7830045 -0.6008216 0.1609889 -0.7830045 -0.6008216 0.1609889 -0.7830045 -0.6008229 0.1609912 -0.783003 -0.6008229 0.1609912 -0.783003 -0.6008229 0.1609912 -0.783003 -0.7760104 -0.207933 -0.5954592 -0.7760104 -0.207933 -0.5954592 -0.7760104 -0.207933 -0.5954592 -0.7760132 -0.2079313 -0.5954562 -0.7760132 -0.2079313 -0.5954562 -0.7760132 -0.2079313 -0.5954562 -0.5680792 -0.5680792 -0.5954596 -0.5680792 -0.5680792 -0.5954596 -0.5680792 -0.5680792 -0.5954596 -0.5680792 -0.5680792 -0.5954595 -0.5680792 -0.5680792 -0.5954595 -0.5680792 -0.5680792 -0.5954595 -0.2079336 -0.7760128 -0.5954559 -0.2079336 -0.7760128 -0.5954559 -0.2079336 -0.7760128 -0.5954559 -0.2079308 -0.7760113 -0.5954589 -0.2079308 -0.7760113 -0.5954589 -0.2079308 -0.7760113 -0.5954589 0.207933 -0.7760104 -0.5954592 0.207933 -0.7760104 -0.5954592 0.207933 -0.7760104 -0.5954592 0.2079313 -0.7760132 -0.5954562 0.2079313 -0.7760132 -0.5954562 0.2079313 -0.7760132 -0.5954562 0.5680792 -0.5680792 -0.5954596 0.5680792 -0.5680792 -0.5954596 0.5680792 -0.5680792 -0.5954596 0.5680792 -0.5680792 -0.5954595 0.5680792 -0.5680792 -0.5954595 0.5680792 -0.5680792 -0.5954595 0.7760128 -0.2079336 -0.5954559 0.7760128 -0.2079336 -0.5954559 0.7760128 -0.2079336 -0.5954559 0.7760113 -0.2079308 -0.5954589 0.7760113 -0.2079308 -0.5954589 0.7760113 -0.2079308 -0.5954589 0.7760104 0.207933 -0.5954592 0.7760104 0.207933 -0.5954592 0.7760104 0.207933 -0.5954592 0.7760132 0.2079313 -0.5954562 0.7760132 0.2079313 -0.5954562 0.7760132 0.2079313 -0.5954562 0.5680792 0.5680792 -0.5954596 0.5680792 0.5680792 -0.5954596 0.5680792 0.5680792 -0.5954596 0.5680792 0.5680792 -0.5954595 0.5680792 0.5680792 -0.5954595 0.5680792 0.5680792 -0.5954595 0.2079336 0.7760128 -0.5954559 0.2079336 0.7760128 -0.5954559 0.2079336 0.7760128 -0.5954559 0.2079308 0.7760113 -0.5954589 0.2079308 0.7760113 -0.5954589 0.2079308 0.7760113 -0.5954589 -0.207933 0.7760104 -0.5954592 -0.207933 0.7760104 -0.5954592 -0.207933 0.7760104 -0.5954592 -0.2079313 0.7760132 -0.5954562 -0.2079313 0.7760132 -0.5954562 -0.2079313 0.7760132 -0.5954562 -0.5680792 0.5680792 -0.5954596 -0.5680792 0.5680792 -0.5954596 -0.5680792 0.5680792 -0.5954596 -0.5680792 0.5680792 -0.5954595 -0.5680792 0.5680792 -0.5954595 -0.5680792 0.5680792 -0.5954595 -0.7760128 0.2079336 -0.5954559 -0.7760128 0.2079336 -0.5954559 -0.7760128 0.2079336 -0.5954559 -0.7760113 0.2079308 -0.5954589 -0.7760113 0.2079308 -0.5954589 -0.7760113 0.2079308 -0.5954589 -0.8968096 -0.2402984 -0.3714689 -0.8968096 -0.2402984 -0.3714689 -0.8968096 -0.2402984 -0.3714689 -0.8968079 -0.2402999 -0.3714721 -0.8968079 -0.2402999 -0.3714721 -0.8968079 -0.2402999 -0.3714721 -0.65651 -0.65651 -0.371469 -0.65651 -0.65651 -0.371469 -0.65651 -0.65651 -0.371469 -0.65651 -0.65651 -0.371469 -0.65651 -0.65651 -0.371469 -0.65651 -0.65651 -0.371469 -0.2402981 -0.8968083 -0.3714722 -0.2402981 -0.8968083 -0.3714722 -0.2402981 -0.8968083 -0.3714722 -0.2403002 -0.8968091 -0.371469 -0.2403002 -0.8968091 -0.371469 -0.2403002 -0.8968091 -0.371469 0.2402984 -0.8968096 -0.3714689 0.2402984 -0.8968096 -0.3714689 0.2402984 -0.8968096 -0.3714689 0.2402999 -0.8968079 -0.3714721 0.2402999 -0.8968079 -0.3714721 0.2402999 -0.8968079 -0.3714721 0.65651 -0.65651 -0.371469 0.65651 -0.65651 -0.371469 0.65651 -0.65651 -0.371469 0.65651 -0.65651 -0.371469 0.65651 -0.65651 -0.371469 0.65651 -0.65651 -0.371469 0.8968083 -0.2402981 -0.3714722 0.8968083 -0.2402981 -0.3714722 0.8968083 -0.2402981 -0.3714722 0.8968091 -0.2403002 -0.371469 0.8968091 -0.2403002 -0.371469 0.8968091 -0.2403002 -0.371469 0.8968096 0.2402984 -0.3714689 0.8968096 0.2402984 -0.3714689 0.8968096 0.2402984 -0.3714689 0.8968079 0.2402999 -0.3714721 0.8968079 0.2402999 -0.3714721 0.8968079 0.2402999 -0.3714721 0.65651 0.65651 -0.371469 0.65651 0.65651 -0.371469 0.65651 0.65651 -0.371469 0.65651 0.65651 -0.371469 0.65651 0.65651 -0.371469 0.65651 0.65651 -0.371469 0.2402981 0.8968083 -0.3714722 0.2402981 0.8968083 -0.3714722 0.2402981 0.8968083 -0.3714722 0.2403002 0.8968091 -0.371469 0.2403002 0.8968091 -0.371469 0.2403002 0.8968091 -0.371469 -0.2402984 0.8968096 -0.3714689 -0.2402984 0.8968096 -0.3714689 -0.2402984 0.8968096 -0.3714689 -0.2402999 0.8968079 -0.3714721 -0.2402999 0.8968079 -0.3714721 -0.2402999 0.8968079 -0.3714721 -0.65651 0.65651 -0.371469 -0.65651 0.65651 -0.371469 -0.65651 0.65651 -0.371469 -0.65651 0.65651 -0.371469 -0.65651 0.65651 -0.371469 -0.65651 0.65651 -0.371469 -0.8968083 0.2402981 -0.3714722 -0.8968083 0.2402981 -0.3714722 -0.8968083 0.2402981 -0.3714722 -0.8968091 0.2403002 -0.371469 -0.8968091 0.2403002 -0.371469 -0.8968091 0.2403002 -0.371469 -0.9582089 -0.2567523 -0.1261504 -0.9582089 -0.2567523 -0.1261504 -0.9582089 -0.2567523 -0.1261504 -0.9582091 -0.256752 -0.1261497 -0.9582091 -0.256752 -0.1261497 -0.9582091 -0.256752 -0.1261497 -0.7014578 -0.7014578 -0.1261502 -0.7014578 -0.7014578 -0.1261502 -0.7014578 -0.7014578 -0.1261502 -0.7014578 -0.7014578 -0.1261502 -0.7014578 -0.7014578 -0.1261502 -0.7014578 -0.7014578 -0.1261502 -0.2567523 -0.958209 -0.1261497 -0.2567523 -0.958209 -0.1261497 -0.2567523 -0.958209 -0.1261497 -0.256752 -0.958209 -0.1261504 -0.256752 -0.958209 -0.1261504 -0.256752 -0.958209 -0.1261504 0.2567523 -0.9582089 -0.1261504 0.2567523 -0.9582089 -0.1261504 0.2567523 -0.9582089 -0.1261504 0.256752 -0.9582091 -0.1261497 0.256752 -0.9582091 -0.1261497 0.256752 -0.9582091 -0.1261497 0.7014578 -0.7014578 -0.1261502 0.7014578 -0.7014578 -0.1261502 0.7014578 -0.7014578 -0.1261502 0.7014578 -0.7014578 -0.1261502 0.7014578 -0.7014578 -0.1261502 0.7014578 -0.7014578 -0.1261502 0.958209 -0.2567523 -0.1261497 0.958209 -0.2567523 -0.1261497 0.958209 -0.2567523 -0.1261497 0.958209 -0.256752 -0.1261504 0.958209 -0.256752 -0.1261504 0.958209 -0.256752 -0.1261504 0.9582089 0.2567523 -0.1261504 0.9582089 0.2567523 -0.1261504 0.9582089 0.2567523 -0.1261504 0.9582091 0.256752 -0.1261497 0.9582091 0.256752 -0.1261497 0.9582091 0.256752 -0.1261497 0.7014578 0.7014578 -0.1261502 0.7014578 0.7014578 -0.1261502 0.7014578 0.7014578 -0.1261502 0.7014578 0.7014578 -0.1261502 0.7014578 0.7014578 -0.1261502 0.7014578 0.7014578 -0.1261502 0.2567523 0.958209 -0.1261497 0.2567523 0.958209 -0.1261497 0.2567523 0.958209 -0.1261497 0.256752 0.958209 -0.1261504 0.256752 0.958209 -0.1261504 0.256752 0.958209 -0.1261504 -0.2567523 0.9582089 -0.1261504 -0.2567523 0.9582089 -0.1261504 -0.2567523 0.9582089 -0.1261504 -0.256752 0.9582091 -0.1261497 -0.256752 0.9582091 -0.1261497 -0.256752 0.9582091 -0.1261497 -0.7014578 0.7014578 -0.1261502 -0.7014578 0.7014578 -0.1261502 -0.7014578 0.7014578 -0.1261502 -0.7014578 0.7014578 -0.1261502 -0.7014578 0.7014578 -0.1261502 -0.7014578 0.7014578 -0.1261502 -0.958209 0.2567523 -0.1261497 -0.958209 0.2567523 -0.1261497 -0.958209 0.2567523 -0.1261497 -0.958209 0.256752 -0.1261504 -0.958209 0.256752 -0.1261504 -0.958209 0.256752 -0.1261504 -0.958209 -0.256752 0.1261504 -0.958209 -0.256752 0.1261504 -0.958209 -0.256752 0.1261504 -0.958209 -0.2567524 0.1261498 -0.958209 -0.2567524 0.1261498 -0.958209 -0.2567524 0.1261498 -0.7014578 -0.7014578 0.1261503 -0.7014578 -0.7014578 0.1261503 -0.7014578 -0.7014578 0.1261503 -0.7014578 -0.7014578 0.1261503 -0.7014578 -0.7014578 0.1261503 -0.7014578 -0.7014578 0.1261503 -0.256752 -0.958209 0.1261498 -0.256752 -0.958209 0.1261498 -0.256752 -0.958209 0.1261498 -0.2567523 -0.958209 0.1261505 -0.2567523 -0.958209 0.1261505 -0.2567523 -0.958209 0.1261505 0.256752 -0.958209 0.1261504 0.256752 -0.958209 0.1261504 0.256752 -0.958209 0.1261504 0.2567524 -0.958209 0.1261498 0.2567524 -0.958209 0.1261498 0.2567524 -0.958209 0.1261498 0.7014578 -0.7014578 0.1261503 0.7014578 -0.7014578 0.1261503 0.7014578 -0.7014578 0.1261503 0.7014578 -0.7014578 0.1261503 0.7014578 -0.7014578 0.1261503 0.7014578 -0.7014578 0.1261503 0.958209 -0.256752 0.1261498 0.958209 -0.256752 0.1261498 0.958209 -0.256752 0.1261498 0.958209 -0.2567523 0.1261505 0.958209 -0.2567523 0.1261505 0.958209 -0.2567523 0.1261505 0.958209 0.256752 0.1261504 0.958209 0.256752 0.1261504 0.958209 0.256752 0.1261504 0.958209 0.2567524 0.1261498 0.958209 0.2567524 0.1261498 0.958209 0.2567524 0.1261498 0.7014578 0.7014578 0.1261503 0.7014578 0.7014578 0.1261503 0.7014578 0.7014578 0.1261503 0.7014578 0.7014578 0.1261503 0.7014578 0.7014578 0.1261503 0.7014578 0.7014578 0.1261503 0.256752 0.958209 0.1261498 0.256752 0.958209 0.1261498 0.256752 0.958209 0.1261498 0.2567523 0.958209 0.1261505 0.2567523 0.958209 0.1261505 0.2567523 0.958209 0.1261505 -0.256752 0.958209 0.1261504 -0.256752 0.958209 0.1261504 -0.256752 0.958209 0.1261504 -0.2567524 0.958209 0.1261498 -0.2567524 0.958209 0.1261498 -0.2567524 0.958209 0.1261498 -0.7014578 0.7014578 0.1261503 -0.7014578 0.7014578 0.1261503 -0.7014578 0.7014578 0.1261503 -0.7014578 0.7014578 0.1261503 -0.7014578 0.7014578 0.1261503 -0.7014578 0.7014578 0.1261503 -0.958209 0.256752 0.1261498 -0.958209 0.256752 0.1261498 -0.958209 0.256752 0.1261498 -0.958209 0.2567523 0.1261505 -0.958209 0.2567523 0.1261505 -0.958209 0.2567523 0.1261505 -0.8968091 -0.2403002 0.3714691 -0.8968091 -0.2403002 0.3714691 -0.8968091 -0.2403002 0.3714691 -0.8968083 -0.2402981 0.3714722 -0.8968083 -0.2402981 0.3714722 -0.8968083 -0.2402981 0.3714722 -0.65651 -0.65651 0.371469 -0.65651 -0.65651 0.371469 -0.65651 -0.65651 0.371469 -0.65651 -0.65651 0.371469 -0.65651 -0.65651 0.371469 -0.65651 -0.65651 0.371469 -0.2402999 -0.896808 0.3714721 -0.2402999 -0.896808 0.3714721 -0.2402999 -0.896808 0.3714721 -0.2402984 -0.8968096 0.3714689 -0.2402984 -0.8968096 0.3714689 -0.2402984 -0.8968096 0.3714689 0.2403002 -0.8968091 0.3714691 0.2403002 -0.8968091 0.3714691 0.2403002 -0.8968091 0.3714691 0.2402981 -0.8968083 0.3714722 0.2402981 -0.8968083 0.3714722 0.2402981 -0.8968083 0.3714722 0.65651 -0.65651 0.371469 0.65651 -0.65651 0.371469 0.65651 -0.65651 0.371469 0.65651 -0.65651 0.371469 0.65651 -0.65651 0.371469 0.65651 -0.65651 0.371469 0.896808 -0.2402999 0.3714721 0.896808 -0.2402999 0.3714721 0.896808 -0.2402999 0.3714721 0.8968096 -0.2402984 0.3714689 0.8968096 -0.2402984 0.3714689 0.8968096 -0.2402984 0.3714689 0.8968091 0.2403002 0.3714691 0.8968091 0.2403002 0.3714691 0.8968091 0.2403002 0.3714691 0.8968083 0.2402981 0.3714722 0.8968083 0.2402981 0.3714722 0.8968083 0.2402981 0.3714722 0.65651 0.65651 0.371469 0.65651 0.65651 0.371469 0.65651 0.65651 0.371469 0.65651 0.65651 0.371469 0.65651 0.65651 0.371469 0.65651 0.65651 0.371469 0.2402999 0.896808 0.3714721 0.2402999 0.896808 0.3714721 0.2402999 0.896808 0.3714721 0.2402984 0.8968096 0.3714689 0.2402984 0.8968096 0.3714689 0.2402984 0.8968096 0.3714689 -0.2403002 0.8968091 0.3714691 -0.2403002 0.8968091 0.3714691 -0.2403002 0.8968091 0.3714691 -0.2402981 0.8968083 0.3714722 -0.2402981 0.8968083 0.3714722 -0.2402981 0.8968083 0.3714722 -0.65651 0.65651 0.371469 -0.65651 0.65651 0.371469 -0.65651 0.65651 0.371469 -0.65651 0.65651 0.371469 -0.65651 0.65651 0.371469 -0.65651 0.65651 0.371469 -0.896808 0.2402999 0.3714721 -0.896808 0.2402999 0.3714721 -0.896808 0.2402999 0.3714721 -0.8968096 0.2402984 0.3714689 -0.8968096 0.2402984 0.3714689 -0.8968096 0.2402984 0.3714689 -0.7760127 -0.2079311 0.595457 -0.7760127 -0.2079311 0.595457 -0.7760127 -0.2079311 0.595457 -0.7760143 -0.207934 0.595454 -0.7760143 -0.207934 0.595454 -0.7760143 -0.207934 0.595454 -0.5680802 -0.5680802 0.5954576 -0.5680802 -0.5680802 0.5954576 -0.5680802 -0.5680802 0.5954576 -0.5680802 -0.5680802 0.5954576 -0.5680802 -0.5680802 0.5954576 -0.5680802 -0.5680802 0.5954576 -0.2079317 -0.7760146 0.5954542 -0.2079317 -0.7760146 0.5954542 -0.2079317 -0.7760146 0.5954542 -0.2079333 -0.7760118 0.5954573 -0.2079333 -0.7760118 0.5954573 -0.2079333 -0.7760118 0.5954573 0.2079311 -0.7760127 0.595457 0.2079311 -0.7760127 0.595457 0.2079311 -0.7760127 0.595457 0.207934 -0.7760143 0.595454 0.207934 -0.7760143 0.595454 0.207934 -0.7760143 0.595454 0.5680802 -0.5680802 0.5954576 0.5680802 -0.5680802 0.5954576 0.5680802 -0.5680802 0.5954576 0.5680802 -0.5680802 0.5954576 0.5680802 -0.5680802 0.5954576 0.5680802 -0.5680802 0.5954576 0.7760146 -0.2079317 0.5954542 0.7760146 -0.2079317 0.5954542 0.7760146 -0.2079317 0.5954542 0.7760118 -0.2079333 0.5954573 0.7760118 -0.2079333 0.5954573 0.7760118 -0.2079333 0.5954573 0.7760127 0.2079311 0.595457 0.7760127 0.2079311 0.595457 0.7760127 0.2079311 0.595457 0.7760143 0.207934 0.595454 0.7760143 0.207934 0.595454 0.7760143 0.207934 0.595454 0.5680802 0.5680802 0.5954576 0.5680802 0.5680802 0.5954576 0.5680802 0.5680802 0.5954576 0.5680802 0.5680802 0.5954576 0.5680802 0.5680802 0.5954576 0.5680802 0.5680802 0.5954576 0.2079317 0.7760146 0.5954542 0.2079317 0.7760146 0.5954542 0.2079317 0.7760146 0.5954542 0.2079333 0.7760118 0.5954573 0.2079333 0.7760118 0.5954573 0.2079333 0.7760118 0.5954573 -0.2079311 0.7760127 0.595457 -0.2079311 0.7760127 0.595457 -0.2079311 0.7760127 0.595457 -0.207934 0.7760143 0.595454 -0.207934 0.7760143 0.595454 -0.207934 0.7760143 0.595454 -0.5680802 0.5680802 0.5954576 -0.5680802 0.5680802 0.5954576 -0.5680802 0.5680802 0.5954576 -0.5680802 0.5680802 0.5954576 -0.5680802 0.5680802 0.5954576 -0.5680802 0.5680802 0.5954576 -0.7760146 0.2079317 0.5954542 -0.7760146 0.2079317 0.5954542 -0.7760146 0.2079317 0.5954542 -0.7760118 0.2079333 0.5954573 -0.7760118 0.2079333 0.5954573 -0.7760118 0.2079333 0.5954573 -0.6008227 -0.1609912 0.7830032 -0.6008227 -0.1609912 0.7830032 -0.6008227 -0.1609912 0.7830032 -0.6008213 -0.1609888 0.7830046 -0.6008213 -0.1609888 0.7830046 -0.6008213 -0.1609888 0.7830046 -0.4398331 -0.4398331 0.783003 -0.4398331 -0.4398331 0.783003 -0.4398331 -0.4398331 0.783003 -0.439833 -0.439833 0.783003 -0.439833 -0.439833 0.783003 -0.439833 -0.439833 0.783003 -0.1609908 -0.6008212 0.7830043 -0.1609908 -0.6008212 0.7830043 -0.1609908 -0.6008212 0.7830043 -0.1609894 -0.6008235 0.7830029 -0.1609894 -0.6008235 0.7830029 -0.1609894 -0.6008235 0.7830029 0.1609912 -0.6008227 0.7830032 0.1609912 -0.6008227 0.7830032 0.1609912 -0.6008227 0.7830032 0.1609888 -0.6008213 0.7830046 0.1609888 -0.6008213 0.7830046 0.1609888 -0.6008213 0.7830046 0.4398331 -0.4398331 0.783003 0.4398331 -0.4398331 0.783003 0.4398331 -0.4398331 0.783003 0.439833 -0.439833 0.783003 0.439833 -0.439833 0.783003 0.439833 -0.439833 0.783003 0.6008212 -0.1609908 0.7830043 0.6008212 -0.1609908 0.7830043 0.6008212 -0.1609908 0.7830043 0.6008235 -0.1609894 0.7830029 0.6008235 -0.1609894 0.7830029 0.6008235 -0.1609894 0.7830029 0.6008227 0.1609912 0.7830032 0.6008227 0.1609912 0.7830032 0.6008227 0.1609912 0.7830032 0.6008213 0.1609888 0.7830046 0.6008213 0.1609888 0.7830046 0.6008213 0.1609888 0.7830046 0.4398331 0.4398331 0.783003 0.4398331 0.4398331 0.783003 0.4398331 0.4398331 0.783003 0.439833 0.439833 0.783003 0.439833 0.439833 0.783003 0.439833 0.439833 0.783003 0.1609908 0.6008212 0.7830043 0.1609908 0.6008212 0.7830043 0.1609908 0.6008212 0.7830043 0.1609894 0.6008235 0.7830029 0.1609894 0.6008235 0.7830029 0.1609894 0.6008235 0.7830029 -0.1609912 0.6008227 0.7830032 -0.1609912 0.6008227 0.7830032 -0.1609912 0.6008227 0.7830032 -0.1609888 0.6008213 0.7830046 -0.1609888 0.6008213 0.7830046 -0.1609888 0.6008213 0.7830046 -0.4398331 0.4398331 0.783003 -0.4398331 0.4398331 0.783003 -0.4398331 0.4398331 0.783003 -0.439833 0.439833 0.783003 -0.439833 0.439833 0.783003 -0.439833 0.439833 0.783003 -0.6008212 0.1609908 0.7830043 -0.6008212 0.1609908 0.7830043 -0.6008212 0.1609908 0.7830043 -0.6008235 0.1609894 0.7830029 -0.6008235 0.1609894 0.7830029 -0.6008235 0.1609894 0.7830029 -0.3806861 -0.102004 0.9190611 -0.3806861 -0.102004 0.9190611 -0.3806861 -0.102004 0.9190611 -0.380686 -0.1020036 0.9190612 -0.380686 -0.1020036 0.9190612 -0.380686 -0.1020036 0.9190612 -0.2786817 -0.2786817 0.9190609 -0.2786817 -0.2786817 0.9190609 -0.2786817 -0.2786817 0.9190609 -0.2786816 -0.2786816 0.9190609 -0.2786816 -0.2786816 0.9190609 -0.2786816 -0.2786816 0.9190609 -0.102004 -0.3806859 0.9190612 -0.102004 -0.3806859 0.9190612 -0.102004 -0.3806859 0.9190612 -0.1020037 -0.3806863 0.919061 -0.1020037 -0.3806863 0.919061 -0.1020037 -0.3806863 0.919061</float_array>
                    <technique_common>
                        <accessor count="840" source="#geometry0-normal-array" stride="3">
                            <param name="X" type="float"/>
                            <param name="Y" type="float"/>
                            <param name="Z" type="float"/>
                        </accessor>
                    </technique_common>
                </source>
                <vertices id="geometry0-vertex">
                    <input semantic="POSITION" source="#geometry0-position"/>
                </vertices>
                <triangles count="288" material="default_ai_0.2_sh_0.2_tr_0.0_dc_r_0.8_g_0.8_b_0.8_sc_r_1.0_g_1.0_b_1.0_ec_r_0.0_g_0.0_b_0_tri">
                    <input offset="0" semantic="VERTEX" source="#geometry0-vertex"/>
                    <input offset="1" semantic="NORMAL" source="#geometry0-normal"/>
                    <p>112 0 113 1 125 2 112 3 125 4 124 5 113 6 114 7 126 8 113 9 126 10 125 11 114 12 115 13 127 14 114 15 127 16 126 17 115 18 116 19 128 20 115 21 128 22 127 23 116 24 117 25 129 26 116 27 129 28 128 29 117 30 118 31 130 32 117 33 130 34 129 35 118 36 119 37 131 38 118 39 131 40 130 41 119 42 120 43 132 44 119 45 132 46 131 47 120 48 110 49 122 50 120 51 122 52 132 53 122 54 121 55 133 56 122 57 133 58 133 58 121 59 123 60 133 61 121 62 133 63 133 63 123 64 124 65 133 66 123 67 133 68 133 68 124 69 125 70 133 71 124 72 133 73 133 73 125 74 126 75 133 76 125 77 133 78 133 78 126 79 127 80 133 81 126 82 133 83 133 83 127 84 128 85 133 86 127 87 133 88 133 88 128 89 129 90 133 91 128 92 133 93 133 93 129 94 130 95 133 96 129 97 133 98 133 98 130 99 131 100 133 101 130 102 133 103 133 103 131 104 132 105 133 106 131 107 133 108 133 108 132 109 122 110 133 111 132 112 133 113 133 113 0 114 0 114 1 115 0 116 1 117 2 118 0 119 0 119 3 120 0 121 3 122 1 123 0 124 0 124 4 125 0 126 4 127 3 128 0 129 0 129 5 130 0 131 5 132 4 133 0 134 0 134 6 135 0 136 6 137 5 138 0 139 0 139 7 140 0 141 7 142 6 143 0 144 0 144 8 145 0 146 8 147 7 148 0 149 0 149 9 150 0 151 9 152 8 153 0 154 0 154 10 155 0 156 10 157 9 158 0 159 0 159 11 160 0 161 11 162 10 163 0 164 0 164 12 165 0 166 12 167 11 168 0 169 0 169 2 170 0 171 2 172 12 173 2 174 1 175 13 176 2 177 13 178 14 179 1 180 3 181 15 182 1 183 15 184 13 185 3 186 4 187 16 188 3 189 16 190 15 191 4 192 5 193 17 194 4 195 17 196 16 197 5 198 6 199 18 200 5 201 18 202 17 203 6 204 7 205 19 206 6 207 19 208 18 209 7 210 8 211 20 212 7 213 20 214 19 215 8 216 9 217 21 218 8 219 21 220 20 221 9 222 10 223 22 224 9 225 22 226 21 227 10 228 11 229 23 230 10 231 23 232 22 233 11 234 12 235 24 236 11 237 24 238 23 239 12 240 2 241 14 242 12 243 14 244 24 245 14 246 13 247 25 248 14 249 25 250 26 251 13 252 15 253 27 254 13 255 27 256 25 257 15 258 16 259 28 260 15 261 28 262 27 263 16 264 17 265 29 266 16 267 29 268 28 269 17 270 18 271 30 272 17 273 30 274 29 275 18 276 19 277 31 278 18 279 31 280 30 281 19 282 20 283 32 284 19 285 32 286 31 287 20 288 21 289 33 290 20 291 33 292 32 293 21 294 22 295 34 296 21 297 34 298 33 299 22 300 23 301 35 302 22 303 35 304 34 305 23 306 24 307 36 308 23 309 36 310 35 311 24 312 14 313 26 314 24 315 26 316 36 317 26 318 25 319 37 320 26 321 37 322 38 323 25 324 27 325 39 326 25 327 39 328 37 329 27 330 28 331 40 332 27 333 40 334 39 335 28 336 29 337 41 338 28 339 41 340 40 341 29 342 30 343 42 344 29 345 42 346 41 347 30 348 31 349 43 350 30 351 43 352 42 353 31 354 32 355 44 356 31 357 44 358 43 359 32 360 33 361 45 362 32 363 45 364 44 365 33 366 34 367 46 368 33 369 46 370 45 371 34 372 35 373 47 374 34 375 47 376 46 377 35 378 36 379 48 380 35 381 48 382 47 383 36 384 26 385 38 386 36 387 38 388 48 389 38 390 37 391 49 392 38 393 49 394 50 395 37 396 39 397 51 398 37 399 51 400 49 401 39 402 40 403 52 404 39 405 52 406 51 407 40 408 41 409 53 410 40 411 53 412 52 413 41 414 42 415 54 416 41 417 54 418 53 419 42 420 43 421 55 422 42 423 55 424 54 425 43 426 44 427 56 428 43 429 56 430 55 431 44 432 45 433 57 434 44 435 57 436 56 437 45 438 46 439 58 440 45 441 58 442 57 443 46 444 47 445 59 446 46 447 59 448 58 449 47 450 48 451 60 452 47 453 60 454 59 455 48 456 38 457 50 458 48 459 50 460 60 461 50 462 49 463 61 464 50 465 61 466 62 467 49 468 51 469 63 470 49 471 63 472 61 473 51 474 52 475 64 476 51 477 64 478 63 479 52 480 53 481 65 482 52 483 65 484 64 485 53 486 54 487 66 488 53 489 66 490 65 491 54 492 55 493 67 494 54 495 67 496 66 497 55 498 56 499 68 500 55 501 68 502 67 503 56 504 57 505 69 506 56 507 69 508 68 509 57 510 58 511 70 512 57 513 70 514 69 515 58 516 59 517 71 518 58 519 71 520 70 521 59 522 60 523 72 524 59 525 72 526 71 527 60 528 50 529 62 530 60 531 62 532 72 533 62 534 61 535 73 536 62 537 73 538 74 539 61 540 63 541 75 542 61 543 75 544 73 545 63 546 64 547 76 548 63 549 76 550 75 551 64 552 65 553 77 554 64 555 77 556 76 557 65 558 66 559 78 560 65 561 78 562 77 563 66 564 67 565 79 566 66 567 79 568 78 569 67 570 68 571 80 572 67 573 80 574 79 575 68 576 69 577 81 578 68 579 81 580 80 581 69 582 70 583 82 584 69 585 82 586 81 587 70 588 71 589 83 590 70 591 83 592 82 593 71 594 72 595 84 596 71 597 84 598 83 599 72 600 62 601 74 602 72 603 74 604 84 605 74 606 73 607 85 608 74 609 85 610 86 611 73 612 75 613 87 614 73 615 87 616 85 617 75 618 76 619 88 620 75 621 88 622 87 623 76 624 77 625 89 626 76 627 89 628 88 629 77 630 78 631 90 632 77 633 90 634 89 635 78 636 79 637 91 638 78 639 91 640 90 641 79 642 80 643 92 644 79 645 92 646 91 647 80 648 81 649 93 650 80 651 93 652 92 653 81 654 82 655 94 656 81 657 94 658 93 659 82 660 83 661 95 662 82 663 95 664 94 665 83 666 84 667 96 668 83 669 96 670 95 671 84 672 74 673 86 674 84 675 86 676 96 677 86 678 85 679 97 680 86 681 97 682 98 683 85 684 87 685 99 686 85 687 99 688 97 689 87 690 88 691 100 692 87 693 100 694 99 695 88 696 89 697 101 698 88 699 101 700 100 701 89 702 90 703 102 704 89 705 102 706 101 707 90 708 91 709 103 710 90 711 103 712 102 713 91 714 92 715 104 716 91 717 104 718 103 719 92 720 93 721 105 722 92 723 105 724 104 725 93 726 94 727 106 728 93 729 106 730 105 731 94 732 95 733 107 734 94 735 107 736 106 737 95 738 96 739 108 740 95 741 108 742 107 743 96 744 86 745 98 746 96 747 98 748 108 749 98 750 97 751 109 752 98 753 109 754 110 755 97 756 99 757 111 758 97 759 111 760 109 761 99 762 100 763 112 764 99 765 112 766 111 767 100 768 101 769 113 770 100 771 113 772 112 773 101 774 102 775 114 776 101 777 114 778 113 779 102 780 103 781 115 782 102 783 115 784 114 785 103 786 104 787 116 788 103 789 116 790 115 791 104 792 105 793 117 794 104 795 117 796 116 797 105 798 106 799 118 800 105 801 118 802 117 803 106 804 107 805 119 806 106 807 119 808 118 809 107 810 108 811 120 812 107 813 120 814 119 815 108 816 98 817 110 818 108 819 110 820 120 821 110 822 109 823 121 824 110 825 121 826 122 827 109 828 111 829 123 830 109 831 123 832 121 833 111 834 112 835 124 836 111 837 124 838 123 839</p>
                </triangles>
            </mesh>
        </geometry>
    </library_geometries>
    <library_visual_scenes>
        <visual_scene id="Building_55_CROWN1">
            <node>
                <instance_geometry url="#geometry0">
                    <bind_material>
                        <technique_common>
                            <instance_material symbol="default_ai_0.2_sh_0.2_tr_0.0_dc_r_0.8_g_0.8_b_0.8_sc_r_1.0_g_1.0_b_1.0_ec_r_0.0_g_0.0_b_0_tri" target="#default_ai_0.2_sh_0.2_tr_0.0_dc_r_0.8_g_0.8_b_0.8_sc_r_1.0_g_1.0_b_1.0_ec_r_0.0_g_0.0_b_0_mat"/>
                        </technique_common>
                    </bind_material>
                </instance_geometry>
            </node>
        </visual_scene>
    </library_visual_scenes>
    <scene>
        <instance_visual_scene url="#Building_55_CROWN1"/>
    </scene>
</COLLADA>
