<?xml version="1.0" encoding="UTF-8" standalone="yes"?>
<COLLADA xmlns="http://www.collada.org/2005/11/COLLADASchema" version="1.4.1">
    <asset>
        <contributor>
            <authoring_tool>3D City Database Importer/Exporter, version 5.5.3; Chair of Geoinformatics, Technical University of Munich</authoring_tool>
        </contributor>
        <created>2026-09-25T14:44:41.100</created>
        <modified>2026-09-25T14:44:41.100</modified>
        <unit meter="1.0" name="meters"/>
        <up_axis>Z_UP</up_axis>
    </asset>
    <library_materials>
        <material id="default_ai_0.2_sh_0.2_tr_0.0_dc_r_0.8_g_0.8_b_0.8_sc_r_1.0_g_1.0_b_1.0_ec_r_0.0_g_0.0_b_0_mat">
            <instance_effect url="#default_ai_0.2_sh_0.2_tr_0.0_dc_r_0.8_g_0.8_b_0.8_sc_r_1.0_g_1.0_b_1.0_ec_r_0.0_g_0.0_b_0_eff"/>
        </material>
    </library_materials>
    <library_effects>
        <effect id="default_ai_0.2_sh_0.2_tr_0.0_dc_r_0.8_g_0.8_b_0.8_sc_r_1.0_g_1.0_b_1.0_ec_r_0.0_g_0.0_b_0_eff">
            <profile_COMMON>
                <technique sid="COMMON">
                    <lambert>
                        <emission>
                            <color>0.0 0.0 0.0 1.0</color>
                        </emission>
                        <diffuse>
                            <color>0.8 0.8 0.8 1.0</color>
                        </diffuse>
                        <reflective>
                            <color>1.0 1.0 1.0 1.0</color>
                        </reflective>
                        <reflectivity>
                            <float>0.2</float>
                        </reflectivity>
                        <transparent opaque="A_ONE">
                            <color>1.0 1.0 1.0 1.0</color>
                        </transparent>
                        <transparency>
                            <float>1.0</float>
                        </transparency>
                    </lambert>
                </technique>
                <extra>
                    <technique profile="GOOGLEEARTH">
                        <double_sided>0</double_sided>
                    </technique>
                </extra>
            </profile_COMMON>
        </effect>
    </library_effects>
    <library_geometries>
        <geometry id="geometry0">
            <mesh>
                <source id="geometry0-position">
                    <float_array id="geometry0-position-array" count="402">0.0 0.0 1.7 0.1905224 0.1099985 1.6710371 0.2199962 0.0 1.6710371 0.1099985 0.1905224 1.6710371 0.0 0.2199961 1.6710371 -0.1099985 0.1905224 1.6710371 -0.1905224 0.1099985 1.6710371 -0.2199962 0.0 1.6710371 -0.1905224 -0.1099985 1.6710371 -0.1099985 -0.1905224 1.6710371 0.0 -0.2199961 1.6710371 0.1099985 -0.1905224 1.6710371 0.1905224 -0.1099985 1.6710371 0.3680611 0.2125 1.5861212 0.425 0.0 1.5861212 0.2125 0.368061 1.5861212 0.0 0.425 1.5861212 -0.2125 0.368061 1.5861212 -0.3680611 0.2125 1.5861212 -0.425 0.0 1.5861212 -0.3680611 -0.2125 1.5861212 -0.2125 -0.368061 1.5861212 0.0 -0.425 1.5861212 0.2125 -0.368061 1.5861212 0.3680611 -0.2125 1.5861212 0.5205162 0.3005201 1.4510401 0.6010409 0.0 1.4510401 0.30052 0.5205162 1.4510401 0.0 0.601041 1.4510401 -0.30052 0.5205162 1.4510401 -0.5205162 0.3005201 1.4510401 -0.6010409 0.0 1.4510401 -0.5205162 -0.3005201 1.4510401 -0.30052 -0.5205162 1.4510401 0.0 -0.601041 1.4510401 0.30052 -0.5205162 1.4510401 0.5205162 -0.3005201 1.4510401 0.6375 0.368061 1.275 0.7361213 0.0 1.275 0.3680611 0.6375 1.275 0.0 0.7361213 1.275 -0.3680611 0.6375 1.275 -0.6375 0.368061 1.275 -0.7361213 0.0 1.275 -0.6375 -0.368061 1.275 -0.3680611 -0.6375 1.275 0.0 -0.7361213 1.275 0.3680611 -0.6375 1.275 0.6375 -0.368061 1.275 0.7110386 0.4105186 1.0699962 0.8210371 0.0 1.0699962 0.4105186 0.7110386 1.0699962 0.0 0.8210371 1.0699962 -0.4105186 0.7110386 1.0699962 -0.7110386 0.4105186 1.0699962 -0.8210371 0.0 1.0699962 -0.7110386 -0.4105186 1.0699962 -0.4105186 -0.7110386 1.0699962 0.0 -0.8210371 1.0699962 0.4105186 -0.7110386 1.0699962 0.7110386 -0.4105186 1.0699962 0.7361213 0.425 0.85 0.85 0.0 0.85 0.425 0.7361213 0.85 0.0 0.85 0.85 -0.425 0.7361213 0.85 -0.7361213 0.425 0.85 -0.85 0.0 0.85 -0.7361213 -0.425 0.85 -0.425 -0.7361213 0.85 0.0 -0.85 0.85 0.425 -0.7361213 0.85 0.7361213 -0.425 0.85 0.7110386 0.4105186 0.6300038 0.8210371 0.0 0.6300038 0.4105186 0.7110386 0.6300038 0.0 0.8210371 0.6300038 -0.4105186 0.7110386 0.6300038 -0.7110386 0.4105186 0.6300038 -0.8210371 0.0 0.6300038 -0.7110386 -0.4105186 0.6300038 -0.4105186 -0.7110386 0.6300038 0.0 -0.8210371 0.6300038 0.4105186 -0.7110386 0.6300038 0.7110386 -0.4105186 0.6300038 0.6375 0.368061 0.425 0.7361213 0.0 0.425 0.3680611 0.6375 0.425 0.0 0.7361213 0.425 -0.3680611 0.6375 0.425 -0.6375 0.368061 0.425 -0.7361213 0.0 0.425 -0.6375 -0.368061 0.425 -0.3680611 -0.6375 0.425 0.0 -0.7361213 0.425 0.3680611 -0.6375 0.425 0.6375 -0.368061 0.425 0.5205162 0.3005201 0.248959 0.6010409 0.0 0.248959 0.30052 0.5205162 0.248959 0.0 0.601041 0.248959 -0.30052 0.5205162 0.248959 -0.5205162 0.3005201 0.248959 -0.6010409 0.0 0.248959 -0.5205162 -0.3005201 0.248959 -0.30052 -0.5205162 0.248959 0.0 -0.601041 0.248959 0.30052 -0.5205162 0.248959 0.5205162 -0.3005201 0.248959 0.3680611 0.2125 0.1138779 0.425 0.0 0.1138779 0.2125 0.368061 0.1138779 0.0 0.425 0.1138779 -0.2125 0.368061 0.1138779 -0.3680611 0.2125 0.1138779 -0.425 0.0 0.1138779 -0.3680611 -0.2125 0.1138779 -0.2125 -0.368061 0.1138779 0.0 -0.425 0.1138779 0.2125 -0.368061 0.1138779 0.3680611 -0.2125 0.1138779 0.1905224 0.1099985 0.0289629 0.2199962 0.0 0.0289629 0.1099985 0.1905224 0.0289629 0.0 0.2199961 0.0289629 -0.1099985 0.1905224 0.0289629 -0.1905224 0.1099985 0.0289629 -0.2199962 0.0 0.0289629 -0.1905224 -0.1099985 0.0289629 -0.1099985 -0.1905224 0.0289629 0.0 -0.2199961 0.0289629 0.1099985 -0.1905224 0.0289629 0.1905224 -0.1099985 0.0289629 0.0 0.0 0.0</float_array>
                    <technique_common>
                        <accessor count="134" source="#geometry0-position-array" stride="3">
                            <param name="X" type="float"/>
                            <param name="Y" type="float"/>
                            <param name="Z" type="float"/>
                        </accessor>
                    </technique_common>
                </source>
                <source id="geometry0-normal">
                    <float_array id="geometry0-normal-array" count="2520">0.2402984 -0.8968096 -0.3714691 0.2402984 -0.8968096 -0.3714691 0.2402984 -0.8968096 -0.3714691 0.2402999 -0.896808 -0.3714722 0.2402999 -0.896808 -0.3714722 0.2402999 -0.896808 -0.3714722 0.6565099 -0.6565099 -0.3714692 0.6565099 -0.6565099 -0.3714692 0.6565099 -0.6565099 -0.3714692 0.6565099 -0.6565099 -0.3714691 0.6565099 -0.6565099 -0.3714691 0.6565099 -0.6565099 -0.3714691 0.8968083 -0.2402981 -0.3714723 0.8968083 -0.2402981 -0.3714723 0.8968083 -0.2402981 -0.3714723 0.896809 -0.2403002 -0.3714693 0.896809 -0.2403002 -0.3714693 0.896809 -0.2403002 -0.3714693 0.8968096 0.2402984 -0.3714691 0.8968096 0.2402984 -0.3714691 0.8968096 0.2402984 -0.3714691 0.896808 0.2402999 -0.3714722 0.896808 0.2402999 -0.3714722 0.896808 0.2402999 -0.3714722 0.6565099 0.6565099 -0.3714692 0.6565099 0.6565099 -0.3714692 0.6565099 0.6565099 -0.3714692 0.6565099 0.6565099 -0.3714691 0.6565099 0.6565099 -0.3714691 0.6565099 0.6565099 -0.3714691 0.2402981 0.8968083 -0.3714723 0.2402981 0.8968083 -0.3714723 0.2402981 0.8968083 -0.3714723 0.2403002 0.896809 -0.3714693 0.2403002 0.896809 -0.3714693 0.2403002 0.896809 -0.3714693 -0.2402984 0.8968096 -0.3714691 -0.2402984 0.8968096 -0.3714691 -0.2402984 0.8968096 -0.3714691 -0.2402999 0.896808 -0.3714722 -0.2402999 0.896808 -0.3714722 -0.2402999 0.896808 -0.3714722 -0.6565099 0.6565099 -0.3714692 -0.6565099 0.6565099 -0.3714692 -0.6565099 0.6565099 -0.3714692 -0.6565099 0.6565099 -0.3714691 -0.6565099 0.6565099 -0.3714691 -0.6565099 0.6565099 -0.3714691 -0.8968083 0.2402981 -0.3714723 -0.8968083 0.2402981 -0.3714723 -0.8968083 0.2402981 -0.3714723 -0.896809 0.2403002 -0.3714693 -0.896809 0.2403002 -0.3714693 -0.896809 0.2403002 -0.3714693 -0.9582089 -0.2567523 -0.1261503 -0.9582089 -0.2567523 -0.1261503 -0.9582089 -0.2567523 -0.1261503 -0.958209 -0.2567522 -0.1261501 -0.958209 -0.2567522 -0.1261501 -0.958209 -0.2567522 -0.1261501 -0.7014578 -0.7014578 -0.1261502 -0.7014578 -0.7014578 -0.1261502 -0.7014578 -0.7014578 -0.1261502 -0.7014578 -0.7014578 -0.1261503 -0.7014578 -0.7014578 -0.1261503 -0.7014578 -0.7014578 -0.1261503 -0.2567523 -0.958209 -0.1261501 -0.2567523 -0.958209 -0.1261501 -0.2567523 -0.958209 -0.1261501 -0.2567522 -0.958209 -0.1261503 -0.2567522 -0.958209 -0.1261503 -0.2567522 -0.958209 -0.1261503 0.2567523 -0.9582089 -0.1261503 0.2567523 -0.9582089 -0.1261503 0.2567523 -0.9582089 -0.1261503 0.2567522 -0.958209 -0.1261501 0.2567522 -0.958209 -0.1261501 0.2567522 -0.958209 -0.1261501 0.7014578 -0.7014578 -0.1261502 0.7014578 -0.7014578 -0.1261502 0.7014578 -0.7014578 -0.1261502 0.7014578 -0.7014578 -0.1261503 0.7014578 -0.7014578 -0.1261503 0.7014578 -0.7014578 -0.1261503 0.958209 -0.2567523 -0.1261501 0.958209 -0.2567523 -0.1261501 0.958209 -0.2567523 -0.1261501 0.958209 -0.2567522 -0.1261503 0.958209 -0.2567522 -0.1261503 0.958209 -0.2567522 -0.1261503 0.9582089 0.2567523 -0.1261503 0.9582089 0.2567523 -0.1261503 0.9582089 0.2567523 -0.1261503 0.958209 0.2567522 -0.1261501 0.958209 0.2567522 -0.1261501 0.958209 0.2567522 -0.1261501 0.7014578 0.7014578 -0.1261502 0.7014578 0.7014578 -0.1261502 0.7014578 0.7014578 -0.1261502 0.7014578 0.7014578 -0.1261503 0.7014578 0.7014578 -0.1261503 0.7014578 0.7014578 -0.1261503 0.2567523 0.958209 -0.1261501 0.2567523 0.958209 -0.1261501 0.2567523 0.958209 -0.1261501 0.2567522 0.958209 -0.1261503 0.2567522 0.958209 -0.1261503 0.2567522 0.958209 -0.1261503 -0.2567523 0.9582089 -0.1261503 -0.2567523 0.9582089 -0.1261503 -0.2567523 0.9582089 -0.1261503 -0.2567522 0.958209 -0.1261501 -0.2567522 0.958209 -0.1261501 -0.2567522 0.958209 -0.1261501 -0.7014578 0.7014578 -0.1261502 -0.7014578 0.7014578 -0.1261502 -0.7014578 0.7014578 -0.1261502 -0.7014578 0.7014578 -0.1261503 -0.7014578 0.7014578 -0.1261503 -0.7014578 0.7014578 -0.1261503 -0.958209 0.2567523 -0.1261501 -0.958209 0.2567523 -0.1261501 -0.958209 0.2567523 -0.1261501 -0.958209 0.2567522 -0.1261503 -0.958209 0.2567522 -0.1261503 -0.958209 0.2567522 -0.1261503 -0.958209 -0.2567522 0.1261502 -0.958209 -0.2567522 0.1261502 -0.958209 -0.2567522 0.1261502 -0.958209 -0.2567523 0.12615 -0.958209 -0.2567523 0.12615 -0.958209 -0.2567523 0.12615 -0.7014578 -0.7014578 0.1261502 -0.7014578 -0.7014578 0.1261502 -0.7014578 -0.7014578 0.1261502 -0.7014578 -0.7014578 0.1261502 -0.7014578 -0.7014578 0.1261502 -0.7014578 -0.7014578 0.1261502 -0.2567522 -0.958209 0.12615 -0.2567522 -0.958209 0.12615 -0.2567522 -0.958209 0.12615 -0.2567523 -0.958209 0.1261503 -0.2567523 -0.958209 0.1261503 -0.2567523 -0.958209 0.1261503 0.2567522 -0.958209 0.1261502 0.2567522 -0.958209 0.1261502 0.2567522 -0.958209 0.1261502 0.2567523 -0.958209 0.12615 0.2567523 -0.958209 0.12615 0.2567523 -0.958209 0.12615 0.7014578 -0.7014578 0.1261502 0.7014578 -0.7014578 0.1261502 0.7014578 -0.7014578 0.1261502 0.7014578 -0.7014578 0.1261502 0.7014578 -0.7014578 0.1261502 0.7014578 -0.7014578 0.1261502 0.958209 -0.2567522 0.12615 0.958209 -0.2567522 0.12615 0.958209 -0.2567522 0.12615 0.958209 -0.2567523 0.1261503 0.958209 -0.2567523 0.1261503 0.958209 -0.2567523 0.1261503 0.958209 0.2567522 0.1261502 0.958209 0.2567522 0.1261502 0.958209 0.2567522 0.1261502 0.958209 0.2567523 0.12615 0.958209 0.2567523 0.12615 0.958209 0.2567523 0.12615 0.7014578 0.7014578 0.1261502 0.7014578 0.7014578 0.1261502 0.7014578 0.7014578 0.1261502 0.7014578 0.7014578 0.1261502 0.7014578 0.7014578 0.1261502 0.7014578 0.7014578 0.1261502 0.2567522 0.958209 0.12615 0.2567522 0.958209 0.12615 0.2567522 0.958209 0.12615 0.2567523 0.958209 0.1261503 0.2567523 0.958209 0.1261503 0.2567523 0.958209 0.1261503 -0.2567522 0.958209 0.1261502 -0.2567522 0.958209 0.1261502 -0.2567522 0.958209 0.1261502 -0.2567523 0.958209 0.12615 -0.2567523 0.958209 0.12615 -0.2567523 0.958209 0.12615 -0.7014578 0.7014578 0.1261502 -0.7014578 0.7014578 0.1261502 -0.7014578 0.7014578 0.1261502 -0.7014578 0.7014578 0.1261502 -0.7014578 0.7014578 0.1261502 -0.7014578 0.7014578 0.1261502 -0.958209 0.2567522 0.12615 -0.958209 0.2567522 0.12615 -0.958209 0.2567522 0.12615 -0.958209 0.2567523 0.1261503 -0.958209 0.2567523 0.1261503 -0.958209 0.2567523 0.1261503 -0.896809 -0.2403002 0.3714693 -0.896809 -0.2403002 0.3714693 -0.896809 -0.2403002 0.3714693 -0.8968083 -0.2402981 0.3714723 -0.8968083 -0.2402981 0.3714723 -0.8968083 -0.2402981 0.3714723 -0.6565099 -0.6565099 0.3714691 -0.6565099 -0.6565099 0.3714691 -0.6565099 -0.6565099 0.3714691 -0.6565099 -0.6565099 0.3714691 -0.6565099 -0.6565099 0.3714691 -0.6565099 -0.6565099 0.3714691 -0.2402999 -0.896808 0.3714722 -0.2402999 -0.896808 0.3714722 -0.2402999 -0.896808 0.3714722 -0.2402984 -0.8968096 0.3714691 -0.2402984 -0.8968096 0.3714691 -0.2402984 -0.8968096 0.3714691 0.2403002 -0.896809 0.3714693 0.2403002 -0.896809 0.3714693 0.2403002 -0.896809 0.3714693 0.2402981 -0.8968083 0.3714723 0.2402981 -0.8968083 0.3714723 0.2402981 -0.8968083 0.3714723 0.6565099 -0.6565099 0.3714691 0.6565099 -0.6565099 0.3714691 0.6565099 -0.6565099 0.3714691 0.6565099 -0.6565099 0.3714691 0.6565099 -0.6565099 0.3714691 0.6565099 -0.6565099 0.3714691 0.896808 -0.2402999 0.3714722 0.896808 -0.2402999 0.3714722 0.896808 -0.2402999 0.3714722 0.8968096 -0.2402984 0.3714691 0.8968096 -0.2402984 0.3714691 0.8968096 -0.2402984 0.3714691 0.896809 0.2403002 0.3714693 0.896809 0.2403002 0.3714693 0.896809 0.2403002 0.3714693 0.8968083 0.2402981 0.3714723 0.8968083 0.2402981 0.3714723 0.8968083 0.2402981 0.3714723 0.6565099 0.6565099 0.3714691 0.6565099 0.6565099 0.3714691 0.6565099 0.6565099 0.3714691 0.6565099 0.6565099 0.3714691 0.6565099 0.6565099 0.3714691 0.6565099 0.6565099 0.3714691 0.2402999 0.896808 0.3714722 0.2402999 0.896808 0.3714722 0.2402999 0.896808 0.3714722 0.2402984 0.8968096 0.3714691 0.2402984 0.8968096 0.3714691 0.2402984 0.8968096 0.3714691 -0.2403002 0.896809 0.3714693 -0.2403002 0.896809 0.3714693 -0.2403002 0.896809 0.3714693 -0.2402981 0.8968083 0.3714723 -0.2402981 0.8968083 0.3714723 -0.2402981 0.8968083 0.3714723 -0.6565099 0.6565099 0.3714691 -0.6565099 0.6565099 0.3714691 -0.6565099 0.6565099 0.3714691 -0.6565099 0.6565099 0.3714691 -0.6565099 0.6565099 0.3714691 -0.6565099 0.6565099 0.3714691 -0.896808 0.2402999 0.3714722 -0.896808 0.2402999 0.3714722 -0.896808 0.2402999 0.3714722 -0.8968096 0.2402984 0.3714691 -0.8968096 0.2402984 0.3714691 -0.8968096 0.2402984 0.3714691 -0.7760128 -0.2079312 0.5954568 -0.7760128 -0.2079312 0.5954568 -0.7760128 -0.2079312 0.5954568 -0.7760144 -0.2079341 0.5954537 -0.7760144 -0.2079341 0.5954537 -0.7760144 -0.2079341 0.5954537 -0.5680803 -0.5680803 0.5954573 -0.5680803 -0.5680803 0.5954573 -0.5680803 -0.5680803 0.5954573 -0.5680803 -0.5680803 0.5954574 -0.5680803 -0.5680803 0.5954574 -0.5680803 -0.5680803 0.5954574 -0.2079317 -0.7760148 0.595454 -0.2079317 -0.7760148 0.595454 -0.2079317 -0.7760148 0.595454 -0.2079334 -0.776012 0.595457 -0.2079334 -0.776012 0.595457 -0.2079334 -0.776012 0.595457 0.2079312 -0.7760128 0.5954568 0.2079312 -0.7760128 0.5954568 0.2079312 -0.7760128 0.5954568 0.2079341 -0.7760144 0.5954537 0.2079341 -0.7760144 0.5954537 0.2079341 -0.7760144 0.5954537 0.5680803 -0.5680803 0.5954573 0.5680803 -0.5680803 0.5954573 0.5680803 -0.5680803 0.5954573 0.5680803 -0.5680803 0.5954574 0.5680803 -0.5680803 0.5954574 0.5680803 -0.5680803 0.5954574 0.7760148 -0.2079317 0.595454 0.7760148 -0.2079317 0.595454 0.7760148 -0.2079317 0.595454 0.776012 -0.2079334 0.595457 0.776012 -0.2079334 0.595457 0.776012 -0.2079334 0.595457 0.7760128 0.2079312 0.5954568 0.7760128 0.2079312 0.5954568 0.7760128 0.2079312 0.5954568 0.7760144 0.2079341 0.5954537 0.7760144 0.2079341 0.5954537 0.7760144 0.2079341 0.5954537 0.5680803 0.5680803 0.5954573 0.5680803 0.5680803 0.5954573 0.5680803 0.5680803 0.5954573 0.5680803 0.5680803 0.5954574 0.5680803 0.5680803 0.5954574 0.5680803 0.5680803 0.5954574 0.2079317 0.7760148 0.595454 0.2079317 0.7760148 0.595454 0.2079317 0.7760148 0.595454 0.2079334 0.776012 0.595457 0.2079334 0.776012 0.595457 0.2079334 0.776012 0.595457 -0.2079312 0.7760128 0.5954568 -0.2079312 0.7760128 0.5954568 -0.2079312 0.7760128 0.5954568 -0.2079341 0.7760144 0.5954537 -0.2079341 0.7760144 0.5954537 -0.2079341 0.7760144 0.5954537 -0.5680803 0.5680803 0.5954573 -0.5680803 0.5680803 0.5954573 -0.5680803 0.5680803 0.5954573 -0.5680803 0.5680803 0.5954574 -0.5680803 0.5680803 0.5954574 -0.5680803 0.5680803 0.5954574 -0.7760148 0.2079317 0.595454 -0.7760148 0.2079317 0.595454 -0.7760148 0.2079317 0.595454 -0.776012 0.2079334 0.595457 -0.776012 0.2079334 0.595457 -0.776012 0.2079334 0.595457 -0.6008226 -0.1609912 0.7830033 -0.6008226 -0.1609912 0.7830033 -0.6008226 -0.1609912 0.7830033 -0.6008214 -0.160989 0.7830047 -0.6008214 -0.160989 0.7830047 -0.6008214 -0.160989 0.7830047 -0.439833 -0.439833 0.7830031 -0.439833 -0.439833 0.7830031 -0.439833 -0.439833 0.7830031 -0.439833 -0.439833 0.7830031 -0.439833 -0.439833 0.7830031 -0.439833 -0.439833 0.7830031 -0.1609908 -0.6008212 0.7830045 -0.1609908 -0.6008212 0.7830045 -0.1609908 -0.6008212 0.7830045 -0.1609895 -0.6008233 0.783003 -0.1609895 -0.6008233 0.783003 -0.1609895 -0.6008233 0.783003 0.1609912 -0.6008226 0.7830033 0.1609912 -0.6008226 0.7830033 0.1609912 -0.6008226 0.7830033 0.160989 -0.6008214 0.7830047 0.160989 -0.6008214 0.7830047 0.160989 -0.6008214 0.7830047 0.439833 -0.439833 0.7830031 0.439833 -0.439833 0.7830031 0.439833 -0.439833 0.7830031 0.439833 -0.439833 0.7830031 0.439833 -0.439833 0.7830031 0.439833 -0.439833 0.7830031 0.6008212 -0.1609908 0.7830045 0.6008212 -0.1609908 0.7830045 0.6008212 -0.1609908 0.7830045 0.6008233 -0.1609895 0.783003 0.6008233 -0.1609895 0.783003 0.6008233 -0.1609895 0.783003 0.6008226 0.1609912 0.7830033 0.6008226 0.1609912 0.7830033 0.6008226 0.1609912 0.7830033 0.6008214 0.160989 0.7830047 0.6008214 0.160989 0.7830047 0.6008214 0.160989 0.7830047 0.439833 0.439833 0.7830031 0.439833 0.439833 0.7830031 0.439833 0.439833 0.7830031 0.439833 0.439833 0.7830031 0.439833 0.439833 0.7830031 0.439833 0.439833 0.7830031 0.1609908 0.6008212 0.7830045 0.1609908 0.6008212 0.7830045 0.1609908 0.6008212 0.7830045 0.1609895 0.6008233 0.783003 0.1609895 0.6008233 0.783003 0.1609895 0.6008233 0.783003 -0.1609912 0.6008226 0.7830033 -0.1609912 0.6008226 0.7830033 -0.1609912 0.6008226 0.7830033 -0.160989 0.6008214 0.7830047 -0.160989 0.6008214 0.7830047 -0.160989 0.6008214 0.7830047 -0.439833 0.439833 0.7830031 -0.439833 0.439833 0.7830031 -0.439833 0.439833 0.7830031 -0.439833 0.439833 0.7830031 -0.439833 0.439833 0.7830031 -0.439833 0.439833 0.7830031 -0.6008212 0.1609908 0.7830045 -0.6008212 0.1609908 0.7830045 -0.6008212 0.1609908 0.7830045 -0.6008233 0.1609895 0.783003 -0.6008233 0.1609895 0.783003 -0.6008233 0.1609895 0.783003 -0.3806861 -0.1020041 0.9190611 -0.3806861 -0.1020041 0.9190611 -0.3806861 -0.1020041 0.9190611 -0.3806859 -0.1020036 0.9190612 -0.3806859 -0.1020036 0.9190612 -0.3806859 -0.1020036 0.9190612 -0.2786817 -0.2786817 0.9190609 -0.2786817 -0.2786817 0.9190609 -0.2786817 -0.2786817 0.9190609 -0.2786817 -0.2786817 0.9190609 -0.2786817 -0.2786817 0.9190609 -0.2786817 -0.2786817 0.9190609 -0.1020041 -0.380686 0.9190612 -0.1020041 -0.380686 0.9190612 -0.1020041 -0.380686 0.9190612 -0.1020037 -0.3806863 0.919061 -0.1020037 -0.3806863 0.919061 -0.1020037 -0.3806863 0.919061 0.1020041 -0.3806861 0.9190611 0.1020041 -0.3806861 0.9190611 0.1020041 -0.3806861 0.9190611 0.1020036 -0.3806859 0.9190612 0.1020036 -0.3806859 0.9190612 0.1020036 -0.3806859 0.9190612 0.2786817 -0.2786817 0.9190609 0.2786817 -0.2786817 0.9190609 0.2786817 -0.2786817 0.9190609 0.2786817 -0.2786817 0.9190609 0.2786817 -0.2786817 0.9190609 0.2786817 -0.2786817 0.9190609 0.380686 -0.1020041 0.9190612 0.380686 -0.1020041 0.9190612 0.380686 -0.1020041 0.9190612 0.3806863 -0.1020037 0.919061 0.3806863 -0.1020037 0.919061 0.3806863 -0.1020037 0.919061 0.3806861 0.1020041 0.9190611 0.3806861 0.1020041 0.9190611 0.3806861 0.1020041 0.9190611 0.3806859 0.1020036 0.9190612 0.3806859 0.1020036 0.9190612 0.3806859 0.1020036 0.9190612 0.2786817 0.2786817 0.9190609 0.2786817 0.2786817 0.9190609 0.2786817 0.2786817 0.9190609 0.2786817 0.2786817 0.9190609 0.2786817 0.2786817 0.9190609 0.2786817 0.2786817 0.9190609 0.1020041 0.380686 0.9190612 0.1020041 0.380686 0.9190612 0.1020041 0.380686 0.9190612 0.1020037 0.3806863 0.919061 0.1020037 0.3806863 0.919061 0.1020037 0.3806863 0.919061 -0.1020041 0.3806861 0.9190611 -0.1020041 0.3806861 0.9190611 -0.1020041 0.3806861 0.9190611 -0.1020036 0.3806859 0.9190612 -0.1020036 0.3806859 0.9190612 -0.1020036 0.3806859 0.9190612 -0.2786817 0.2786817 0.9190609 -0.2786817 0.2786817 0.9190609 -0.2786817 0.2786817 0.9190609 -0.2786817 0.2786817 0.9190609 -0.2786817 0.2786817 0.9190609 -0.2786817 0.2786817 0.9190609 -0.380686 0.1020041 0.9190612 -0.380686 0.1020041 0.9190612 -0.380686 0.1020041 0.9190612 -0.3806863 0.1020037 0.919061 -0.3806863 0.1020037 0.919061 -0.3806863 0.1020037 0.919061 -0.1304458 -0.0349525 0.9908391 -0.1304458 -0.0349525 0.9908391 -0.1304458 -0.0349525 0.9908391 1.0 0.0 0.0 1.0 0.0 0.0 -0.0954928 -0.0954928 0.9908392 -0.0954928 -0.0954928 0.9908392 -0.0954928 -0.0954928 0.9908392 1.0 0.0 0.0 1.0 0.0 0.0 -0.0349525 -0.1304458 0.9908391 -0.0349525 -0.1304458 0.9908391 -0.0349525 -0.1304458 0.9908391 1.0 0.0 0.0 1.0 0.0 0.0 0.0349525 -0.1304458 0.9908391 0.0349525 -0.1304458 0.9908391 0.0349525 -0.1304458 0.9908391 1.0 0.0 0.0 1.0 0.0 0.0 0.0954928 -0.0954928 0.9908392 0.0954928 -0.0954928 0.9908392 0.0954928 -0.0954928 0.9908392 1.0 0.0 0.0 1.0 0.0 0.0 0.1304458 -0.0349525 0.9908391 0.1304458 -0.0349525 0.9908391 0.1304458 -0.0349525 0.9908391 1.0 0.0 0.0 1.0 0.0 0.0 0.1304458 0.0349525 0.9908391 0.1304458 0.0349525 0.9908391 0.1304458 0.0349525 0.9908391 1.0 0.0 0.0 1.0 0.0 0.0 0.0954928 0.0954928 0.9908392 0.0954928 0.0954928 0.9908392 0.0954928 0.0954928 0.9908392 1.0 0.0 0.0 1.0 0.0 0.0 0.0349525 0.1304458 0.9908391 0.0349525 0.1304458 0.9908391 0.0349525 0.1304458 0.9908391 1.0 0.0 0.0 1.0 0.0 0.0 -0.0349525 0.1304458 0.9908391 -0.0349525 0.1304458 0.9908391 -0.0349525 0.1304458 0.9908391 1.0 0.0 0.0 1.0 0.0 0.0 -0.0954928 0.0954928 0.9908392 -0.0954928 0.0954928 0.9908392 -0.0954928 0.0954928 0.9908392 1.0 0.0 0.0 1.0 0.0 0.0 -0.1304458 0.0349525 0.9908391 -0.1304458 0.0349525 0.9908391 -0.1304458 0.0349525 0.9908391 1.0 0.0 0.0 1.0 0.0 0.0 1.0 0.0 0.0 1.0 0.0 0.0 -0.1304461 -0.0349526 -0.9908391 -0.1304461 -0.0349526 -0.9908391 -0.1304461 -0.0349526 -0.9908391 1.0 0.0 0.0 1.0 0.0 0.0 -0.095493 -0.095493 -0.9908391 -0.095493 -0.095493 -0.9908391 -0.095493 -0.095493 -0.9908391 1.0 0.0 0.0 1.0 0.0 0.0 -0.0349526 -0.1304461 -0.9908391 -0.0349526 -0.1304461 -0.9908391 -0.0349526 -0.1304461 -0.9908391 1.0 0.0 0.0 1.0 0.0 0.0 0.0349526 -0.1304461 -0.9908391 0.0349526 -0.1304461 -0.9908391 0.0349526 -0.1304461 -0.9908391 1.0 0.0 0.0 1.0 0.0 0.0 0.095493 -0.095493 -0.9908391 0.095493 -0.095493 -0.9908391 0.095493 -0.095493 -0.9908391 1.0 0.0 0.0 1.0 0.0 0.0 0.1304461 -0.0349526 -0.9908391 0.1304461 -0.0349526 -0.9908391 0.1304461 -0.0349526 -0.9908391 1.0 0.0 0.0 1.0 0.0 0.0 0.1304461 0.0349526 -0.9908391 0.1304461 0.0349526 -0.9908391 0.1304461 0.0349526 -0.9908391 1.0 0.0 0.0 1.0 0.0 0.0 0.095493 0.095493 -0.9908391 0.095493 0.095493 -0.9908391 0.095493 0.095493 -0.9908391 1.0 0.0 0.0 1.0 0.0 0.0 0.0349526 0.1304461 -0.9908391 0.0349526 0.1304461 -0.9908391 0.0349526 0.1304461 -0.9908391 1.0 0.0 0.0 1.0 0.0 0.0 -0.0349526 0.1304461 -0.9908391 -0.0349526 0.1304461 -0.9908391 -0.0349526 0.1304461 -0.9908391 1.0 0.0 0.0 1.0 0.0 0.0 -0.095493 0.095493 -0.9908391 -0.095493 0.095493 -0.9908391 -0.095493 0.095493 -0.9908391 1.0 0.0 0.0 1.0 0.0 0.0 -0.1304461 0.0349526 -0.9908391 -0.1304461 0.0349526 -0.9908391 -0.1304461 0.0349526 -0.9908391 -0.3806897 -0.1020046 -0.9190596 -0.3806897 -0.1020046 -0.9190596 -0.3806897 -0.1020046 -0.9190596 -0.3806892 -0.102005 -0.9190597 -0.3806892 -0.102005 -0.9190597 -0.3806892 -0.102005 -0.9190597 -0.2786841 -0.2786841 -0.9190595 -0.2786841 -0.2786841 -0.9190595 -0.2786841 -0.2786841 -0.9190595 -0.2786841 -0.2786841 -0.9190595 -0.2786841 -0.2786841 -0.9190595 -0.2786841 -0.2786841 -0.9190595 -0.1020045 -0.3806892 -0.9190598 -0.1020045 -0.3806892 -0.9190598 -0.1020045 -0.3806892 -0.9190598 -0.102005 -0.3806894 -0.9190596 -0.102005 -0.3806894 -0.9190596 -0.102005 -0.3806894 -0.9190596 0.1020046 -0.3806897 -0.9190596 0.1020046 -0.3806897 -0.9190596 0.1020046 -0.3806897 -0.9190596 0.102005 -0.3806892 -0.9190597 0.102005 -0.3806892 -0.9190597 0.102005 -0.3806892 -0.9190597 0.2786841 -0.2786841 -0.9190595 0.2786841 -0.2786841 -0.9190595 0.2786841 -0.2786841 -0.9190595 0.2786841 -0.2786841 -0.9190595 0.2786841 -0.2786841 -0.9190595 0.2786841 -0.2786841 -0.9190595 0.3806892 -0.1020045 -0.9190598 0.3806892 -0.1020045 -0.9190598 0.3806892 -0.1020045 -0.9190598 0.3806894 -0.102005 -0.9190596 0.3806894 -0.102005 -0.9190596 0.3806894 -0.102005 -0.9190596 0.3806897 0.1020046 -0.9190596 0.3806897 0.1020046 -0.9190596 0.3806897 0.1020046 -0.9190596 0.3806892 0.102005 -0.9190597 0.3806892 0.102005 -0.9190597 0.3806892 0.102005 -0.9190597 0.2786841 0.2786841 -0.9190595 0.2786841 0.2786841 -0.9190595 0.2786841 0.2786841 -0.9190595 0.2786841 0.2786841 -0.9190595 0.2786841 0.2786841 -0.9190595 0.2786841 0.2786841 -0.9190595 0.1020045 0.3806892 -0.9190598 0.1020045 0.3806892 -0.9190598 0.1020045 0.3806892 -0.9190598 0.102005 0.3806894 -0.9190596 0.102005 0.3806894 -0.9190596 0.102005 0.3806894 -0.9190596 -0.1020046 0.3806897 -0.9190596 -0.1020046 0.3806897 -0.9190596 -0.1020046 0.3806897 -0.9190596 -0.102005 0.3806892 -0.9190597 -0.102005 0.3806892 -0.9190597 -0.102005 0.3806892 -0.9190597 -0.2786841 0.2786841 -0.9190595 -0.2786841 0.2786841 -0.9190595 -0.2786841 0.2786841 -0.9190595 -0.2786841 0.2786841 -0.9190595 -0.2786841 0.2786841 -0.9190595 -0.2786841 0.2786841 -0.9190595 -0.3806892 0.1020045 -0.9190598 -0.3806892 0.1020045 -0.9190598 -0.3806892 0.1020045 -0.9190598 -0.3806894 0.102005 -0.9190596 -0.3806894 0.102005 -0.9190596 -0.3806894 0.102005 -0.9190596 -0.6008232 -0.1609894 -0.7830032 -0.6008232 -0.1609894 -0.7830032 -0.6008232 -0.1609894 -0.7830032 -0.6008209 -0.1609907 -0.7830046 -0.6008209 -0.1609907 -0.7830046 -0.6008209 -0.1609907 -0.7830046 -0.4398328 -0.4398328 -0.7830033 -0.4398328 -0.4398328 -0.7830033 -0.4398328 -0.4398328 -0.7830033 -0.4398328 -0.4398328 -0.7830033 -0.4398328 -0.4398328 -0.7830033 -0.4398328 -0.4398328 -0.7830033 -0.1609889 -0.6008211 -0.7830048 -0.1609889 -0.6008211 -0.7830048 -0.1609889 -0.6008211 -0.7830048 -0.1609911 -0.6008223 -0.7830034 -0.1609911 -0.6008223 -0.7830034 -0.1609911 -0.6008223 -0.7830034 0.1609894 -0.6008232 -0.7830032 0.1609894 -0.6008232 -0.7830032 0.1609894 -0.6008232 -0.7830032 0.1609907 -0.6008209 -0.7830046 0.1609907 -0.6008209 -0.7830046 0.1609907 -0.6008209 -0.7830046 0.4398328 -0.4398328 -0.7830033 0.4398328 -0.4398328 -0.7830033 0.4398328 -0.4398328 -0.7830033 0.4398328 -0.4398328 -0.7830033 0.4398328 -0.4398328 -0.7830033 0.4398328 -0.4398328 -0.7830033 0.6008211 -0.1609889 -0.7830048 0.6008211 -0.1609889 -0.7830048 0.6008211 -0.1609889 -0.7830048 0.6008223 -0.1609911 -0.7830034 0.6008223 -0.1609911 -0.7830034 0.6008223 -0.1609911 -0.7830034 0.6008232 0.1609894 -0.7830032 0.6008232 0.1609894 -0.7830032 0.6008232 0.1609894 -0.7830032 0.6008209 0.1609907 -0.7830046 0.6008209 0.1609907 -0.7830046 0.6008209 0.1609907 -0.7830046 0.4398328 0.4398328 -0.7830033 0.4398328 0.4398328 -0.7830033 0.4398328 0.4398328 -0.7830033 0.4398328 0.4398328 -0.7830033 0.4398328 0.4398328 -0.7830033 0.4398328 0.4398328 -0.7830033 0.1609889 0.6008211 -0.7830048 0.1609889 0.6008211 -0.7830048 0.1609889 0.6008211 -0.7830048 0.1609911 0.6008223 -0.7830034 0.1609911 0.6008223 -0.7830034 0.1609911 0.6008223 -0.7830034 -0.1609894 0.6008232 -0.7830032 -0.1609894 0.6008232 -0.7830032 -0.1609894 0.6008232 -0.7830032 -0.1609907 0.6008209 -0.7830046 -0.1609907 0.6008209 -0.7830046 -0.1609907 0.6008209 -0.7830046 -0.4398328 0.4398328 -0.7830033 -0.4398328 0.4398328 -0.7830033 -0.4398328 0.4398328 -0.7830033 -0.4398328 0.4398328 -0.7830033 -0.4398328 0.4398328 -0.7830033 -0.4398328 0.4398328 -0.7830033 -0.6008211 0.1609889 -0.7830048 -0.6008211 0.1609889 -0.7830048 -0.6008211 0.1609889 -0.7830048 -0.6008223 0.1609911 -0.7830034 -0.6008223 0.1609911 -0.7830034 -0.6008223 0.1609911 -0.7830034 -0.7760107 -0.2079331 -0.5954587 -0.7760107 -0.2079331 -0.5954587 -0.7760107 -0.2079331 -0.5954587 -0.7760136 -0.2079314 -0.5954557 -0.7760136 -0.2079314 -0.5954557 -0.7760136 -0.2079314 -0.5954557 -0.5680795 -0.5680795 -0.595459 -0.5680795 -0.5680795 -0.595459 -0.5680795 -0.5680795 -0.595459 -0.5680795 -0.5680795 -0.595459 -0.5680795 -0.5680795 -0.595459 -0.5680795 -0.5680795 -0.595459 -0.2079337 -0.7760132 -0.5954554 -0.2079337 -0.7760132 -0.5954554 -0.2079337 -0.7760132 -0.5954554 -0.2079308 -0.7760116 -0.5954584 -0.2079308 -0.7760116 -0.5954584 -0.2079308 -0.7760116 -0.5954584 0.2079331 -0.7760107 -0.5954587 0.2079331 -0.7760107 -0.5954587 0.2079331 -0.7760107 -0.5954587 0.2079314 -0.7760136 -0.5954557 0.2079314 -0.7760136 -0.5954557 0.2079314 -0.7760136 -0.5954557 0.5680795 -0.5680795 -0.595459 0.5680795 -0.5680795 -0.595459 0.5680795 -0.5680795 -0.595459 0.5680795 -0.5680795 -0.595459 0.5680795 -0.5680795 -0.595459 0.5680795 -0.5680795 -0.595459 0.7760132 -0.2079337 -0.5954554 0.7760132 -0.2079337 -0.5954554 0.7760132 -0.2079337 -0.5954554 0.7760116 -0.2079308 -0.5954584 0.7760116 -0.2079308 -0.5954584 0.7760116 -0.2079308 -0.5954584 0.7760107 0.2079331 -0.5954587 0.7760107 0.2079331 -0.5954587 0.7760107 0.2079331 -0.5954587 0.7760136 0.2079314 -0.5954557 0.7760136 0.2079314 -0.5954557 0.7760136 0.2079314 -0.5954557 0.5680795 0.5680795 -0.595459 0.5680795 0.5680795 -0.595459 0.5680795 0.5680795 -0.595459 0.5680795 0.5680795 -0.595459 0.5680795 0.5680795 -0.595459 0.5680795 0.5680795 -0.595459 0.2079337 0.7760132 -0.5954554 0.2079337 0.7760132 -0.5954554 0.2079337 0.7760132 -0.5954554 0.2079308 0.7760116 -0.5954584 0.2079308 0.7760116 -0.5954584 0.2079308 0.7760116 -0.5954584 -0.2079331 0.7760107 -0.5954587 -0.2079331 0.7760107 -0.5954587 -0.2079331 0.7760107 -0.5954587 -0.2079314 0.7760136 -0.5954557 -0.2079314 0.7760136 -0.5954557 -0.2079314 0.7760136 -0.5954557 -0.5680795 0.5680795 -0.595459 -0.5680795 0.5680795 -0.595459 -0.5680795 0.5680795 -0.595459 -0.5680795 0.5680795 -0.595459 -0.5680795 0.5680795 -0.595459 -0.5680795 0.5680795 -0.595459 -0.7760132 0.2079337 -0.5954554 -0.7760132 0.2079337 -0.5954554 -0.7760132 0.2079337 -0.5954554 -0.7760116 0.2079308 -0.5954584 -0.7760116 0.2079308 -0.5954584 -0.7760116 0.2079308 -0.5954584 -0.8968096 -0.2402984 -0.3714691 -0.8968096 -0.2402984 -0.3714691 -0.8968096 -0.2402984 -0.3714691 -0.896808 -0.2402999 -0.3714722 -0.896808 -0.2402999 -0.3714722 -0.896808 -0.2402999 -0.3714722 -0.6565099 -0.6565099 -0.3714692 -0.6565099 -0.6565099 -0.3714692 -0.6565099 -0.6565099 -0.3714692 -0.6565099 -0.6565099 -0.3714691 -0.6565099 -0.6565099 -0.3714691 -0.6565099 -0.6565099 -0.3714691 -0.2402981 -0.8968083 -0.3714723 -0.2402981 -0.8968083 -0.3714723 -0.2402981 -0.8968083 -0.3714723 -0.2403002 -0.896809 -0.3714693 -0.2403002 -0.896809 -0.3714693 -0.2403002 -0.896809 -0.3714693</float_array>
                    <technique_common>
                        <accessor count="840" source="#geometry0-normal-array" stride="3">
                            <param name="X" type="float"/>
                            <param name="Y" type="float"/>
                            <param name="Z" type="float"/>
                        </accessor>
                    </technique_common>
                </source>
                <vertices id="geometry0-vertex">
                    <input semantic="POSITION" source="#geometry0-position"/>
                </vertices>
                <triangles count="288" material="default_ai_0.2_sh_0.2_tr_0.0_dc_r_0.8_g_0.8_b_0.8_sc_r_1.0_g_1.0_b_1.0_ec_r_0.0_g_0.0_b_0_tri">
                    <input offset="0" semantic="VERTEX" source="#geometry0-vertex"/>
                    <input offset="1" semantic="NORMAL" source="#geometry0-normal"/>
                    <p>40 0 41 1 53 2 40 3 53 4 52 5 41 6 42 7 54 8 41 9 54 10 53 11 42 12 43 13 55 14 42 15 55 16 54 17 43 18 44 19 56 20 43 21 56 22 55 23 44 24 45 25 57 26 44 27 57 28 56 29 45 30 46 31 58 32 45 33 58 34 57 35 46 36 47 37 59 38 46 39 59 40 58 41 47 42 48 43 60 44 47 45 60 46 59 47 48 48 38 49 50 50 48 51 50 52 60 53 50 54 49 55 61 56 50 57 61 58 62 59 49 60 51 61 63 62 49 63 63 64 61 65 51 66 52 67 64 68 51 69 64 70 63 71 52 72 53 73 65 74 52 75 65 76 64 77 53 78 54 79 66 80 53 81 66 82 65 83 54 84 55 85 67 86 54 87 67 88 66 89 55 90 56 91 68 92 55 93 68 94 67 95 56 96 57 97 69 98 56 99 69 100 68 101 57 102 58 103 70 104 57 105 70 106 69 107 58 108 59 109 71 110 58 111 71 112 70 113 59 114 60 115 72 116 59 117 72 118 71 119 60 120 50 121 62 122 60 123 62 124 72 125 62 126 61 127 73 128 62 129 73 130 74 131 61 132 63 133 75 134 61 135 75 136 73 137 63 138 64 139 76 140 63 141 76 142 75 143 64 144 65 145 77 146 64 147 77 148 76 149 65 150 66 151 78 152 65 153 78 154 77 155 66 156 67 157 79 158 66 159 79 160 78 161 67 162 68 163 80 164 67 165 80 166 79 167 68 168 69 169 81 170 68 171 81 172 80 173 69 174 70 175 82 176 69 177 82 178 81 179 70 180 71 181 83 182 70 183 83 184 82 185 71 186 72 187 84 188 71 189 84 190 83 191 72 192 62 193 74 194 72 195 74 196 84 197 74 198 73 199 85 200 74 201 85 202 86 203 73 204 75 205 87 206 73 207 87 208 85 209 75 210 76 211 88 212 75 213 88 214 87 215 76 216 77 217 89 218 76 219 89 220 88 221 77 222 78 223 90 224 77 225 90 226 89 227 78 228 79 229 91 230 78 231 91 232 90 233 79 234 80 235 92 236 79 237 92 238 91 239 80 240 81 241 93 242 80 243 93 244 92 245 81 246 82 247 94 248 81 249 94 250 93 251 82 252 83 253 95 254 82 255 95 256 94 257 83 258 84 259 96 260 83 261 96 262 95 263 84 264 74 265 86 266 84 267 86 268 96 269 86 270 85 271 97 272 86 273 97 274 98 275 85 276 87 277 99 278 85 279 99 280 97 281 87 282 88 283 100 284 87 285 100 286 99 287 88 288 89 289 101 290 88 291 101 292 100 293 89 294 90 295 102 296 89 297 102 298 101 299 90 300 91 301 103 302 90 303 103 304 102 305 91 306 92 307 104 308 91 309 104 310 103 311 92 312 93 313 105 314 92 315 105 316 104 317 93 318 94 319 106 320 93 321 106 322 105 323 94 324 95 325 107 326 94 327 107 328 106 329 95 330 96 331 108 332 95 333 108 334 107 335 96 336 86 337 98 338 96 339 98 340 108 341 98 342 97 343 109 344 98 345 109 346 110 347 97 348 99 349 111 350 97 351 111 352 109 353 99 354 100 355 112 356 99 357 112 358 111 359 100 360 101 361 113 362 100 363 113 364 112 365 101 366 102 367 114 368 101 369 114 370 113 371 102 372 103 373 115 374 102 375 115 376 114 377 103 378 104 379 116 380 103 381 116 382 115 383 104 384 105 385 117 386 104 387 117 388 116 389 105 390 106 391 118 392 105 393 118 394 117 395 106 396 107 397 119 398 106 399 119 400 118 401 107 402 108 403 120 404 107 405 120 406 119 407 108 408 98 409 110 410 108 411 110 412 120 413 110 414 109 415 121 416 110 417 121 418 122 419 109 420 111 421 123 422 109 423 123 424 121 425 111 426 112 427 124 428 111 429 124 430 123 431 112 432 113 433 125 434 112 435 125 436 124 437 113 438 114 439 126 440 113 441 126 442 125 443 114 444 115 445 127 446 114 447 127 448 126 449 115 450 116 451 128 452 115 453 128 454 127 455 116 456 117 457 129 458 116 459 129 460 128 461 117 462 118 463 130 464 117 465 130 466 129 467 118 468 119 469 131 470 118 471 131 472 130 473 119 474 120 475 132 476 119 477 132 478 131 479 120 480 110 481 122 482 120 483 122 484 132 485 122 486 121 487 133 488 122 489 133 490 133 490 121 491 123 492 133 493 121 494 133 495 133 495 123 496 124 497 133 498 123 499 133 500 133 500 124 501 125 502 133 503 124 504 133 505 133 505 125 506 126 507 133 508 125 509 133 510 133 510 126 511 127 512 133 513 126 514 133 515 133 515 127 516 128 517 133 518 127 519 133 520 133 520 128 521 129 522 133 523 128 524 133 525 133 525 129 526 130 527 133 528 129 529 133 530 133 530 130 531 131 532 133 533 130 534 133 535 133 535 131 536 132 537 133 538 131 539 133 540 133 540 132 541 122 542 133 543 132 544 133 545 133 545 0 546 0 546 1 547 0 548 1 549 2 550 0 551 0 551 3 552 0 553 3 554 1 555 0 556 0 556 4 557 0 558 4 559 3 560 0 561 0 561 5 562 0 563 5 564 4 565 0 566 0 566 6 567 0 568 6 569 5 570 0 571 0 571 7 572 0 573 7 574 6 575 0 576 0 576 8 577 0 578 8 579 7 580 0 581 0 581 9 582 0 583 9 584 8 585 0 586 0 586 10 587 0 588 10 589 9 590 0 591 0 591 11 592 0 593 11 594 10 595 0 596 0 596 12 597 0 598 12 599 11 600 0 601 0 601 2 602 0 603 2 604 12 605 2 606 1 607 13 608 2 609 13 610 14 611 1 612 3 613 15 614 1 615 15 616 13 617 3 618 4 619 16 620 3 621 16 622 15 623 4 624 5 625 17 626 4 627 17 628 16 629 5 630 6 631 18 632 5 633 18 634 17 635 6 636 7 637 19 638 6 639 19 640 18 641 7 642 8 643 20 644 7 645 20 646 19 647 8 648 9 649 21 650 8 651 21 652 20 653 9 654 10 655 22 656 9 657 22 658 21 659 10 660 11 661 23 662 10 663 23 664 22 665 11 666 12 667 24 668 11 669 24 670 23 671 12 672 2 673 14 674 12 675 14 676 24 677 14 678 13 679 25 680 14 681 25 682 26 683 13 684 15 685 27 686 13 687 27 688 25 689 15 690 16 691 28 692 15 693 28 694 27 695 16 696 17 697 29 698 16 699 29 700 28 701 17 702 18 703 30 704 17 705 30 706 29 707 18 708 19 709 31 710 18 711 31 712 30 713 19 714 20 715 32 716 19 717 32 718 31 719 20 720 21 721 33 722 20 723 33 724 32 725 21 726 22 727 34 728 21 729 34 730 33 731 22 732 23 733 35 734 22 735 35 736 34 737 23 738 24 739 36 740 23 741 36 742 35 743 24 744 14 745 26 746 24 747 26 748 36 749 26 750 25 751 37 752 26 753 37 754 38 755 25 756 27 757 39 758 25 759 39 760 37 761 27 762 28 763 40 764 27 765 40 766 39 767 28 768 29 769 41 770 28 771 41 772 40 773 29 774 30 775 42 776 29 777 42 778 41 779 30 780 31 781 43 782 30 783 43 784 42 785 31 786 32 787 44 788 31 789 44 790 43 791 32 792 33 793 45 794 32 795 45 796 44 797 33 798 34 799 46 800 33 801 46 802 45 803 34 804 35 805 47 806 34 807 47 808 46 809 35 810 36 811 48 812 35 813 48 814 47 815 36 816 26 817 38 818 36 819 38 820 48 821 38 822 37 823 49 824 38 825 49 826 50 827 37 828 39 829 51 830 37 831 51 832 49 833 39 834 40 835 52 836 39 837 52 838 51 839</p>
                </triangles>
            </mesh>
        </geometry>
    </library_geometries>
    <library_visual_scenes>
        <visual_scene id="Building_53_CROWN1">
            <node>
                <instance_geometry url="#geometry0">
                    <bind_material>
                        <technique_common>
                            <instance_material symbol="default_ai_0.2_sh_0.2_tr_0.0_dc_r_0.8_g_0.8_b_0.8_sc_r_1.0_g_1.0_b_1.0_ec_r_0.0_g_0.0_b_0_tri" target="#default_ai_0.2_sh_0.2_tr_0.0_dc_r_0.8_g_0.8_b_0.8_sc_r_1.0_g_1.0_b_1.0_ec_r_0.0_g_0.0_b_0_mat"/>
                        </technique_common>
                    </bind_material>
                </instance_geometry>
            </node>
        </visual_scene>
    </library_visual_scenes>
    <scene>
        <instance_visual_scene url="#Building_53_CROWN1"/>
    </scene>
</COLLADA>
