<?xml version="1.0" encoding="UTF-8" standalone="yes"?>
<COLLADA xmlns="http://www.collada.org/2005/11/COLLADASchema" version="1.4.1">
    <asset>
        <contributor>
            <authoring_tool>3D City Database Importer/Exporter, version 5.5.3; Chair of Geoinformatics, Technical University of Munich</authoring_tool>
        </contributor>
        <created>2026-09-25T14:44:46.315</created>
        <modified>2026-09-25T14:44:46.315</modified>
        <unit meter="1.0" name="meters"/>
        <up_axis>Z_UP</up_axis>
    </asset>
    <library_materials>
        <material id="default_ai_0.2_sh_0.2_tr_0.0_dc_r_0.8_g_0.8_b_0.8_sc_r_1.0_g_1.0_b_1.0_ec_r_0.0_g_0.0_b_0_mat">
            <instance_effect url="#default_ai_0.2_sh_0.2_tr_0.0_dc_r_0.8_g_0.8_b_0.8_sc_r_1.0_g_1.0_b_1.0_ec_r_0.0_g_0.0_b_0_eff"/>
        </material>
    </library_materials>
    <library_effects>
        <effect id="default_ai_0.2_sh_0.2_tr_0.0_dc_r_0.8_g_0.8_b_0.8_sc_r_1.0_g_1.0_b_1.0_ec_r_0.0_g_0.0_b_0_eff">
            <profile_COMMON>
                <technique sid="COMMON">
                    <lambert>
                        <emission>
                            <color>0.0 0.0 0.0 1.0</color>
                        </emission>
                        <diffuse>
                            <color>0.8 0.8 0.8 1.0</color>
                        </diffuse>
                        <reflective>
                            <color>1.0 1.0 1.0 1.0</color>
                        </reflective>
                        <reflectivity>
                            <float>0.2</float>
                        </reflectivity>
                        <transparent opaque="A_ONE">
                            <color>1.0 1.0 1.0 1.0</color>
                        </transparent>
                        <transparency>
                            <float>1.0</float>
                        </transparency>
                    </lambert>
                </technique>
                <extra>
                    <technique profile="GOOGLEEARTH">
                        <double_sided>0</double_sided>
                    </technique>
                </extra>
            </profile_COMMON>
        </effect>
    </library_effects>
    <library_geometries>
        <geometry id="geometry0">
            <mesh>
                <source id="geometry0-position">
                    <float_array id="geometry0-position-array" count="402">0.0 0.0 2.3 0.2577656 0.1488215 2.2608149 0.2976419 0.0 2.2608149 0.1488215 0.2577656 2.2608149 0.0 0.2976419 2.2608149 -0.1488215 0.2577656 2.2608149 -0.2577656 0.1488215 2.2608149 -0.2976419 0.0 2.2608149 -0.2577656 -0.1488215 2.2608149 -0.1488215 -0.2577656 2.2608149 0.0 -0.2976419 2.2608149 0.1488215 -0.2577656 2.2608149 0.2577656 -0.1488215 2.2608149 0.4979649 0.2875 2.1459287 0.575 0.0 2.1459287 0.2875 0.497965 2.1459287 0.0 0.575 2.1459287 -0.2875 0.497965 2.1459287 -0.4979649 0.2875 2.1459287 -0.575 0.0 2.1459287 -0.4979649 -0.2875 2.1459287 -0.2875 -0.497965 2.1459287 0.0 -0.575 2.1459287 0.2875 -0.497965 2.1459287 0.4979649 -0.2875 2.1459287 0.7042278 0.406586 1.9631719 0.8131731 0.0 1.9631719 0.4065859 0.7042278 1.9631719 0.0 0.8131731 1.9631719 -0.4065859 0.7042278 1.9631719 -0.7042278 0.406586 1.9631719 -0.8131731 0.0 1.9631719 -0.7042278 -0.406586 1.9631719 -0.4065859 -0.7042278 1.9631719 0.0 -0.8131731 1.9631719 0.4065859 -0.7042278 1.9631719 0.7042278 -0.406586 1.9631719 0.8625 0.497965 1.725 0.9959288 0.0 1.725 0.4979649 0.8625 1.725 0.0 0.9959288 1.725 -0.4979649 0.8625 1.725 -0.8625 0.497965 1.725 -0.9959288 0.0 1.725 -0.8625 -0.497965 1.725 -0.4979649 -0.8625 1.725 0.0 -0.9959288 1.725 0.4979649 -0.8625 1.725 0.8625 -0.497965 1.725 0.9619934 0.5554074 1.4476418 1.1108149 0.0 1.4476418 0.5554075 0.9619934 1.4476418 0.0 1.1108149 1.4476418 -0.5554075 0.9619934 1.4476418 -0.9619934 0.5554074 1.4476418 -1.1108149 0.0 1.4476418 -0.9619934 -0.5554074 1.4476418 -0.5554075 -0.9619934 1.4476418 0.0 -1.1108149 1.4476418 0.5554075 -0.9619934 1.4476418 0.9619934 -0.5554074 1.4476418 0.9959288 0.575 1.15 1.15 0.0 1.15 0.575 0.9959288 1.15 0.0 1.15 1.15 -0.575 0.9959288 1.15 -0.9959288 0.575 1.15 -1.15 0.0 1.15 -0.9959288 -0.575 1.15 -0.575 -0.9959288 1.15 0.0 -1.15 1.15 0.575 -0.9959288 1.15 0.9959288 -0.575 1.15 0.9619934 0.5554074 0.8523582 1.1108149 0.0 0.8523582 0.5554075 0.9619934 0.8523582 0.0 1.1108149 0.8523582 -0.5554075 0.9619934 0.8523582 -0.9619934 0.5554074 0.8523582 -1.1108149 0.0 0.8523582 -0.9619934 -0.5554074 0.8523582 -0.5554075 -0.9619934 0.8523582 0.0 -1.1108149 0.8523582 0.5554075 -0.9619934 0.8523582 0.9619934 -0.5554074 0.8523582 0.8625 0.497965 0.575 0.9959288 0.0 0.575 0.4979649 0.8625 0.575 0.0 0.9959288 0.575 -0.4979649 0.8625 0.575 -0.8625 0.497965 0.575 -0.9959288 0.0 0.575 -0.8625 -0.497965 0.575 -0.4979649 -0.8625 0.575 0.0 -0.9959288 0.575 0.4979649 -0.8625 0.575 0.8625 -0.497965 0.575 0.7042278 0.406586 0.336827 0.8131731 0.0 0.336827 0.4065859 0.7042278 0.336827 0.0 0.8131731 0.336827 -0.4065859 0.7042278 0.336827 -0.7042278 0.406586 0.336827 -0.8131731 0.0 0.336827 -0.7042278 -0.406586 0.336827 -0.4065859 -0.7042278 0.336827 0.0 -0.8131731 0.336827 0.4065859 -0.7042278 0.336827 0.7042278 -0.406586 0.336827 0.4979649 0.2875 0.1540701 0.575 0.0 0.1540701 0.2875 0.497965 0.1540701 0.0 0.575 0.1540701 -0.2875 0.497965 0.1540701 -0.4979649 0.2875 0.1540701 -0.575 0.0 0.1540701 -0.4979649 -0.2875 0.1540701 -0.2875 -0.497965 0.1540701 0.0 -0.575 0.1540701 0.2875 -0.497965 0.1540701 0.4979649 -0.2875 0.1540701 0.2577656 0.1488215 0.0391851 0.2976419 0.0 0.0391851 0.1488215 0.2577656 0.0391851 0.0 0.2976419 0.0391851 -0.1488215 0.2577656 0.0391851 -0.2577656 0.1488215 0.0391851 -0.2976419 0.0 0.0391851 -0.2577656 -0.1488215 0.0391851 -0.1488215 -0.2577656 0.0391851 0.0 -0.2976419 0.0391851 0.1488215 -0.2577656 0.0391851 0.2577656 -0.1488215 0.0391851 0.0 0.0 0.0</float_array>
                    <technique_common>
                        <accessor count="134" source="#geometry0-position-array" stride="3">
                            <param name="X" type="float"/>
                            <param name="Y" type="float"/>
                            <param name="Z" type="float"/>
                        </accessor>
                    </technique_common>
                </source>
                <source id="geometry0-normal">
                    <float_array id="geometry0-normal-array" count="2520">0.5680802 0.5680802 0.5954575 0.5680802 0.5680802 0.5954575 0.5680802 0.5680802 0.5954575 0.5680803 0.5680803 0.5954574 0.5680803 0.5680803 0.5954574 0.5680803 0.5680803 0.5954574 0.2079317 0.7760147 0.5954541 0.2079317 0.7760147 0.5954541 0.2079317 0.7760147 0.5954541 0.2079334 0.7760118 0.5954572 0.2079334 0.7760118 0.5954572 0.2079334 0.7760118 0.5954572 -0.2079311 0.7760127 0.5954569 -0.2079311 0.7760127 0.5954569 -0.2079311 0.7760127 0.5954569 -0.2079341 0.7760144 0.5954539 -0.2079341 0.7760144 0.5954539 -0.2079341 0.7760144 0.5954539 -0.5680802 0.5680802 0.5954575 -0.5680802 0.5680802 0.5954575 -0.5680802 0.5680802 0.5954575 -0.5680803 0.5680803 0.5954574 -0.5680803 0.5680803 0.5954574 -0.5680803 0.5680803 0.5954574 -0.7760147 0.2079317 0.5954541 -0.7760147 0.2079317 0.5954541 -0.7760147 0.2079317 0.5954541 -0.7760118 0.2079334 0.5954572 -0.7760118 0.2079334 0.5954572 -0.7760118 0.2079334 0.5954572 -0.6008226 -0.1609912 0.7830032 -0.6008226 -0.1609912 0.7830032 -0.6008226 -0.1609912 0.7830032 -0.6008214 -0.1609889 0.7830046 -0.6008214 -0.1609889 0.7830046 -0.6008214 -0.1609889 0.7830046 -0.4398331 -0.4398331 0.7830031 -0.4398331 -0.4398331 0.7830031 -0.4398331 -0.4398331 0.7830031 -0.439833 -0.439833 0.783003 -0.439833 -0.439833 0.783003 -0.439833 -0.439833 0.783003 -0.1609908 -0.6008211 0.7830044 -0.1609908 -0.6008211 0.7830044 -0.1609908 -0.6008211 0.7830044 -0.1609894 -0.6008235 0.783003 -0.1609894 -0.6008235 0.783003 -0.1609894 -0.6008235 0.783003 0.1609912 -0.6008226 0.7830032 0.1609912 -0.6008226 0.7830032 0.1609912 -0.6008226 0.7830032 0.1609889 -0.6008214 0.7830046 0.1609889 -0.6008214 0.7830046 0.1609889 -0.6008214 0.7830046 0.4398331 -0.4398331 0.7830031 0.4398331 -0.4398331 0.7830031 0.4398331 -0.4398331 0.7830031 0.439833 -0.439833 0.783003 0.439833 -0.439833 0.783003 0.439833 -0.439833 0.783003 0.6008211 -0.1609908 0.7830044 0.6008211 -0.1609908 0.7830044 0.6008211 -0.1609908 0.7830044 0.6008235 -0.1609894 0.783003 0.6008235 -0.1609894 0.783003 0.6008235 -0.1609894 0.783003 0.6008226 0.1609912 0.7830032 0.6008226 0.1609912 0.7830032 0.6008226 0.1609912 0.7830032 0.6008214 0.1609889 0.7830046 0.6008214 0.1609889 0.7830046 0.6008214 0.1609889 0.7830046 0.4398331 0.4398331 0.7830031 0.4398331 0.4398331 0.7830031 0.4398331 0.4398331 0.7830031 0.439833 0.439833 0.783003 0.439833 0.439833 0.783003 0.439833 0.439833 0.783003 0.1609908 0.6008211 0.7830044 0.1609908 0.6008211 0.7830044 0.1609908 0.6008211 0.7830044 0.1609894 0.6008235 0.783003 0.1609894 0.6008235 0.783003 0.1609894 0.6008235 0.783003 -0.1609912 0.6008226 0.7830032 -0.1609912 0.6008226 0.7830032 -0.1609912 0.6008226 0.7830032 -0.1609889 0.6008214 0.7830046 -0.1609889 0.6008214 0.7830046 -0.1609889 0.6008214 0.7830046 -0.4398331 0.4398331 0.7830031 -0.4398331 0.4398331 0.7830031 -0.4398331 0.4398331 0.7830031 -0.439833 0.439833 0.783003 -0.439833 0.439833 0.783003 -0.439833 0.439833 0.783003 -0.6008211 0.1609908 0.7830044 -0.6008211 0.1609908 0.7830044 -0.6008211 0.1609908 0.7830044 -0.6008235 0.1609894 0.783003 -0.6008235 0.1609894 0.783003 -0.6008235 0.1609894 0.783003 -0.3806861 -0.1020041 0.9190611 -0.3806861 -0.1020041 0.9190611 -0.3806861 -0.1020041 0.9190611 -0.3806859 -0.1020036 0.9190612 -0.3806859 -0.1020036 0.9190612 -0.3806859 -0.1020036 0.9190612 -0.2786816 -0.2786816 0.9190609 -0.2786816 -0.2786816 0.9190609 -0.2786816 -0.2786816 0.9190609 -0.2786817 -0.2786817 0.9190609 -0.2786817 -0.2786817 0.9190609 -0.2786817 -0.2786817 0.9190609 -0.102004 -0.3806859 0.9190611 -0.102004 -0.3806859 0.9190611 -0.102004 -0.3806859 0.9190611 -0.1020037 -0.3806863 0.919061 -0.1020037 -0.3806863 0.919061 -0.1020037 -0.3806863 0.919061 0.1020041 -0.3806861 0.9190611 0.1020041 -0.3806861 0.9190611 0.1020041 -0.3806861 0.9190611 0.1020036 -0.3806859 0.9190612 0.1020036 -0.3806859 0.9190612 0.1020036 -0.3806859 0.9190612 0.2786816 -0.2786816 0.9190609 0.2786816 -0.2786816 0.9190609 0.2786816 -0.2786816 0.9190609 0.2786817 -0.2786817 0.9190609 0.2786817 -0.2786817 0.9190609 0.2786817 -0.2786817 0.9190609 0.3806859 -0.102004 0.9190611 0.3806859 -0.102004 0.9190611 0.3806859 -0.102004 0.9190611 0.3806863 -0.1020037 0.919061 0.3806863 -0.1020037 0.919061 0.3806863 -0.1020037 0.919061 0.3806861 0.1020041 0.9190611 0.3806861 0.1020041 0.9190611 0.3806861 0.1020041 0.9190611 0.3806859 0.1020036 0.9190612 0.3806859 0.1020036 0.9190612 0.3806859 0.1020036 0.9190612 0.2786816 0.2786816 0.9190609 0.2786816 0.2786816 0.9190609 0.2786816 0.2786816 0.9190609 0.2786817 0.2786817 0.9190609 0.2786817 0.2786817 0.9190609 0.2786817 0.2786817 0.9190609 0.102004 0.3806859 0.9190611 0.102004 0.3806859 0.9190611 0.102004 0.3806859 0.9190611 0.1020037 0.3806863 0.919061 0.1020037 0.3806863 0.919061 0.1020037 0.3806863 0.919061 -0.1020041 0.3806861 0.9190611 -0.1020041 0.3806861 0.9190611 -0.1020041 0.3806861 0.9190611 -0.1020036 0.3806859 0.9190612 -0.1020036 0.3806859 0.9190612 -0.1020036 0.3806859 0.9190612 -0.2786816 0.2786816 0.9190609 -0.2786816 0.2786816 0.9190609 -0.2786816 0.2786816 0.9190609 -0.2786817 0.2786817 0.9190609 -0.2786817 0.2786817 0.9190609 -0.2786817 0.2786817 0.9190609 -0.3806859 0.102004 0.9190611 -0.3806859 0.102004 0.9190611 -0.3806859 0.102004 0.9190611 -0.3806863 0.1020037 0.919061 -0.3806863 0.1020037 0.919061 -0.3806863 0.1020037 0.919061 -0.1304458 -0.0349525 0.9908391 -0.1304458 -0.0349525 0.9908391 -0.1304458 -0.0349525 0.9908391 1.0 0.0 0.0 1.0 0.0 0.0 -0.0954928 -0.0954928 0.9908392 -0.0954928 -0.0954928 0.9908392 -0.0954928 -0.0954928 0.9908392 1.0 0.0 0.0 1.0 0.0 0.0 -0.0349525 -0.1304458 0.9908391 -0.0349525 -0.1304458 0.9908391 -0.0349525 -0.1304458 0.9908391 1.0 0.0 0.0 1.0 0.0 0.0 0.0349525 -0.1304458 0.9908391 0.0349525 -0.1304458 0.9908391 0.0349525 -0.1304458 0.9908391 1.0 0.0 0.0 1.0 0.0 0.0 0.0954928 -0.0954928 0.9908392 0.0954928 -0.0954928 0.9908392 0.0954928 -0.0954928 0.9908392 1.0 0.0 0.0 1.0 0.0 0.0 0.1304458 -0.0349525 0.9908391 0.1304458 -0.0349525 0.9908391 0.1304458 -0.0349525 0.9908391 1.0 0.0 0.0 1.0 0.0 0.0 0.1304458 0.0349525 0.9908391 0.1304458 0.0349525 0.9908391 0.1304458 0.0349525 0.9908391 1.0 0.0 0.0 1.0 0.0 0.0 0.0954928 0.0954928 0.9908392 0.0954928 0.0954928 0.9908392 0.0954928 0.0954928 0.9908392 1.0 0.0 0.0 1.0 0.0 0.0 0.0349525 0.1304458 0.9908391 0.0349525 0.1304458 0.9908391 0.0349525 0.1304458 0.9908391 1.0 0.0 0.0 1.0 0.0 0.0 -0.0349525 0.1304458 0.9908391 -0.0349525 0.1304458 0.9908391 -0.0349525 0.1304458 0.9908391 1.0 0.0 0.0 1.0 0.0 0.0 -0.0954928 0.0954928 0.9908392 -0.0954928 0.0954928 0.9908392 -0.0954928 0.0954928 0.9908392 1.0 0.0 0.0 1.0 0.0 0.0 -0.1304458 0.0349525 0.9908391 -0.1304458 0.0349525 0.9908391 -0.1304458 0.0349525 0.9908391 1.0 0.0 0.0 1.0 0.0 0.0 1.0 0.0 0.0 1.0 0.0 0.0 -0.1304456 -0.0349525 -0.9908391 -0.1304456 -0.0349525 -0.9908391 -0.1304456 -0.0349525 -0.9908391 1.0 0.0 0.0 1.0 0.0 0.0 -0.0954927 -0.0954927 -0.9908392 -0.0954927 -0.0954927 -0.9908392 -0.0954927 -0.0954927 -0.9908392 1.0 0.0 0.0 1.0 0.0 0.0 -0.0349525 -0.1304456 -0.9908391 -0.0349525 -0.1304456 -0.9908391 -0.0349525 -0.1304456 -0.9908391 1.0 0.0 0.0 1.0 0.0 0.0 0.0349525 -0.1304456 -0.9908391 0.0349525 -0.1304456 -0.9908391 0.0349525 -0.1304456 -0.9908391 1.0 0.0 0.0 1.0 0.0 0.0 0.0954927 -0.0954927 -0.9908392 0.0954927 -0.0954927 -0.9908392 0.0954927 -0.0954927 -0.9908392 1.0 0.0 0.0 1.0 0.0 0.0 0.1304456 -0.0349525 -0.9908391 0.1304456 -0.0349525 -0.9908391 0.1304456 -0.0349525 -0.9908391 1.0 0.0 0.0 1.0 0.0 0.0 0.1304456 0.0349525 -0.9908391 0.1304456 0.0349525 -0.9908391 0.1304456 0.0349525 -0.9908391 1.0 0.0 0.0 1.0 0.0 0.0 0.0954927 0.0954927 -0.9908392 0.0954927 0.0954927 -0.9908392 0.0954927 0.0954927 -0.9908392 1.0 0.0 0.0 1.0 0.0 0.0 0.0349525 0.1304456 -0.9908391 0.0349525 0.1304456 -0.9908391 0.0349525 0.1304456 -0.9908391 1.0 0.0 0.0 1.0 0.0 0.0 -0.0349525 0.1304456 -0.9908391 -0.0349525 0.1304456 -0.9908391 -0.0349525 0.1304456 -0.9908391 1.0 0.0 0.0 1.0 0.0 0.0 -0.0954927 0.0954927 -0.9908392 -0.0954927 0.0954927 -0.9908392 -0.0954927 0.0954927 -0.9908392 1.0 0.0 0.0 1.0 0.0 0.0 -0.1304456 0.0349525 -0.9908391 -0.1304456 0.0349525 -0.9908391 -0.1304456 0.0349525 -0.9908391 -0.3806893 -0.1020045 -0.9190597 -0.3806893 -0.1020045 -0.9190597 -0.3806893 -0.1020045 -0.9190597 -0.3806889 -0.1020048 -0.9190599 -0.3806889 -0.1020048 -0.9190599 -0.3806889 -0.1020048 -0.9190599 -0.2786838 -0.2786838 -0.9190596 -0.2786838 -0.2786838 -0.9190596 -0.2786838 -0.2786838 -0.9190596 -0.2786838 -0.2786838 -0.9190596 -0.2786838 -0.2786838 -0.9190596 -0.2786838 -0.2786838 -0.9190596 -0.1020044 -0.3806888 -0.9190599 -0.1020044 -0.3806888 -0.9190599 -0.1020044 -0.3806888 -0.9190599 -0.1020048 -0.380689 -0.9190598 -0.1020048 -0.380689 -0.9190598 -0.1020048 -0.380689 -0.9190598 0.1020045 -0.3806893 -0.9190597 0.1020045 -0.3806893 -0.9190597 0.1020045 -0.3806893 -0.9190597 0.1020048 -0.3806889 -0.9190599 0.1020048 -0.3806889 -0.9190599 0.1020048 -0.3806889 -0.9190599 0.2786838 -0.2786838 -0.9190596 0.2786838 -0.2786838 -0.9190596 0.2786838 -0.2786838 -0.9190596 0.2786838 -0.2786838 -0.9190596 0.2786838 -0.2786838 -0.9190596 0.2786838 -0.2786838 -0.9190596 0.3806888 -0.1020044 -0.9190599 0.3806888 -0.1020044 -0.9190599 0.3806888 -0.1020044 -0.9190599 0.380689 -0.1020048 -0.9190598 0.380689 -0.1020048 -0.9190598 0.380689 -0.1020048 -0.9190598 0.3806893 0.1020045 -0.9190597 0.3806893 0.1020045 -0.9190597 0.3806893 0.1020045 -0.9190597 0.3806889 0.1020048 -0.9190599 0.3806889 0.1020048 -0.9190599 0.3806889 0.1020048 -0.9190599 0.2786838 0.2786838 -0.9190596 0.2786838 0.2786838 -0.9190596 0.2786838 0.2786838 -0.9190596 0.2786838 0.2786838 -0.9190596 0.2786838 0.2786838 -0.9190596 0.2786838 0.2786838 -0.9190596 0.1020044 0.3806888 -0.9190599 0.1020044 0.3806888 -0.9190599 0.1020044 0.3806888 -0.9190599 0.1020048 0.380689 -0.9190598 0.1020048 0.380689 -0.9190598 0.1020048 0.380689 -0.9190598 -0.1020045 0.3806893 -0.9190597 -0.1020045 0.3806893 -0.9190597 -0.1020045 0.3806893 -0.9190597 -0.1020048 0.3806889 -0.9190599 -0.1020048 0.3806889 -0.9190599 -0.1020048 0.3806889 -0.9190599 -0.2786838 0.2786838 -0.9190596 -0.2786838 0.2786838 -0.9190596 -0.2786838 0.2786838 -0.9190596 -0.2786838 0.2786838 -0.9190596 -0.2786838 0.2786838 -0.9190596 -0.2786838 0.2786838 -0.9190596 -0.3806888 0.1020044 -0.9190599 -0.3806888 0.1020044 -0.9190599 -0.3806888 0.1020044 -0.9190599 -0.380689 0.1020048 -0.9190598 -0.380689 0.1020048 -0.9190598 -0.380689 0.1020048 -0.9190598 -0.6008235 -0.1609894 -0.7830029 -0.6008235 -0.1609894 -0.7830029 -0.6008235 -0.1609894 -0.7830029 -0.6008213 -0.1609908 -0.7830043 -0.6008213 -0.1609908 -0.7830043 -0.6008213 -0.1609908 -0.7830043 -0.4398332 -0.4398332 -0.7830029 -0.4398332 -0.4398332 -0.7830029 -0.4398332 -0.4398332 -0.7830029 -0.4398331 -0.4398331 -0.783003 -0.4398331 -0.4398331 -0.783003 -0.4398331 -0.4398331 -0.783003 -0.1609889 -0.6008215 -0.7830046 -0.1609889 -0.6008215 -0.7830046 -0.1609889 -0.6008215 -0.7830046 -0.1609913 -0.6008228 -0.7830032 -0.1609913 -0.6008228 -0.7830032 -0.1609913 -0.6008228 -0.7830032 0.1609894 -0.6008235 -0.7830029 0.1609894 -0.6008235 -0.7830029 0.1609894 -0.6008235 -0.7830029 0.1609908 -0.6008213 -0.7830043 0.1609908 -0.6008213 -0.7830043 0.1609908 -0.6008213 -0.7830043 0.4398332 -0.4398332 -0.7830029 0.4398332 -0.4398332 -0.7830029 0.4398332 -0.4398332 -0.7830029 0.4398331 -0.4398331 -0.783003 0.4398331 -0.4398331 -0.783003 0.4398331 -0.4398331 -0.783003 0.6008215 -0.1609889 -0.7830046 0.6008215 -0.1609889 -0.7830046 0.6008215 -0.1609889 -0.7830046 0.6008228 -0.1609913 -0.7830032 0.6008228 -0.1609913 -0.7830032 0.6008228 -0.1609913 -0.7830032 0.6008235 0.1609894 -0.7830029 0.6008235 0.1609894 -0.7830029 0.6008235 0.1609894 -0.7830029 0.6008213 0.1609908 -0.7830043 0.6008213 0.1609908 -0.7830043 0.6008213 0.1609908 -0.7830043 0.4398332 0.4398332 -0.7830029 0.4398332 0.4398332 -0.7830029 0.4398332 0.4398332 -0.7830029 0.4398331 0.4398331 -0.783003 0.4398331 0.4398331 -0.783003 0.4398331 0.4398331 -0.783003 0.1609889 0.6008215 -0.7830046 0.1609889 0.6008215 -0.7830046 0.1609889 0.6008215 -0.7830046 0.1609913 0.6008228 -0.7830032 0.1609913 0.6008228 -0.7830032 0.1609913 0.6008228 -0.7830032 -0.1609894 0.6008235 -0.7830029 -0.1609894 0.6008235 -0.7830029 -0.1609894 0.6008235 -0.7830029 -0.1609908 0.6008213 -0.7830043 -0.1609908 0.6008213 -0.7830043 -0.1609908 0.6008213 -0.7830043 -0.4398332 0.4398332 -0.7830029 -0.4398332 0.4398332 -0.7830029 -0.4398332 0.4398332 -0.7830029 -0.4398331 0.4398331 -0.783003 -0.4398331 0.4398331 -0.783003 -0.4398331 0.4398331 -0.783003 -0.6008215 0.1609889 -0.7830046 -0.6008215 0.1609889 -0.7830046 -0.6008215 0.1609889 -0.7830046 -0.6008228 0.1609913 -0.7830032 -0.6008228 0.1609913 -0.7830032 -0.6008228 0.1609913 -0.7830032 -0.7760106 -0.2079331 -0.595459 -0.7760106 -0.2079331 -0.595459 -0.7760106 -0.2079331 -0.595459 -0.7760134 -0.2079313 -0.5954559 -0.7760134 -0.2079313 -0.5954559 -0.7760134 -0.2079313 -0.5954559 -0.5680794 -0.5680794 -0.5954592 -0.5680794 -0.5680794 -0.5954592 -0.5680794 -0.5680794 -0.5954592 -0.5680794 -0.5680794 -0.5954593 -0.5680794 -0.5680794 -0.5954593 -0.5680794 -0.5680794 -0.5954593 -0.2079337 -0.776013 -0.5954556 -0.2079337 -0.776013 -0.5954556 -0.2079337 -0.776013 -0.5954556 -0.2079308 -0.7760115 -0.5954587 -0.2079308 -0.7760115 -0.5954587 -0.2079308 -0.7760115 -0.5954587 0.2079331 -0.7760106 -0.595459 0.2079331 -0.7760106 -0.595459 0.2079331 -0.7760106 -0.595459 0.2079313 -0.7760134 -0.5954559 0.2079313 -0.7760134 -0.5954559 0.2079313 -0.7760134 -0.5954559 0.5680794 -0.5680794 -0.5954592 0.5680794 -0.5680794 -0.5954592 0.5680794 -0.5680794 -0.5954592 0.5680794 -0.5680794 -0.5954593 0.5680794 -0.5680794 -0.5954593 0.5680794 -0.5680794 -0.5954593 0.776013 -0.2079337 -0.5954556 0.776013 -0.2079337 -0.5954556 0.776013 -0.2079337 -0.5954556 0.7760115 -0.2079308 -0.5954587 0.7760115 -0.2079308 -0.5954587 0.7760115 -0.2079308 -0.5954587 0.7760106 0.2079331 -0.595459 0.7760106 0.2079331 -0.595459 0.7760106 0.2079331 -0.595459 0.7760134 0.2079313 -0.5954559 0.7760134 0.2079313 -0.5954559 0.7760134 0.2079313 -0.5954559 0.5680794 0.5680794 -0.5954592 0.5680794 0.5680794 -0.5954592 0.5680794 0.5680794 -0.5954592 0.5680794 0.5680794 -0.5954593 0.5680794 0.5680794 -0.5954593 0.5680794 0.5680794 -0.5954593 0.2079337 0.776013 -0.5954556 0.2079337 0.776013 -0.5954556 0.2079337 0.776013 -0.5954556 0.2079308 0.7760115 -0.5954587 0.2079308 0.7760115 -0.5954587 0.2079308 0.7760115 -0.5954587 -0.2079331 0.7760106 -0.595459 -0.2079331 0.7760106 -0.595459 -0.2079331 0.7760106 -0.595459 -0.2079313 0.7760134 -0.5954559 -0.2079313 0.7760134 -0.5954559 -0.2079313 0.7760134 -0.5954559 -0.5680794 0.5680794 -0.5954592 -0.5680794 0.5680794 -0.5954592 -0.5680794 0.5680794 -0.5954592 -0.5680794 0.5680794 -0.5954593 -0.5680794 0.5680794 -0.5954593 -0.5680794 0.5680794 -0.5954593 -0.776013 0.2079337 -0.5954556 -0.776013 0.2079337 -0.5954556 -0.776013 0.2079337 -0.5954556 -0.7760115 0.2079308 -0.5954587 -0.7760115 0.2079308 -0.5954587 -0.7760115 0.2079308 -0.5954587 -0.8968096 -0.2402984 -0.371469 -0.8968096 -0.2402984 -0.371469 -0.8968096 -0.2402984 -0.371469 -0.8968079 -0.2402998 -0.3714721 -0.8968079 -0.2402998 -0.3714721 -0.8968079 -0.2402998 -0.3714721 -0.65651 -0.65651 -0.3714691 -0.65651 -0.65651 -0.3714691 -0.65651 -0.65651 -0.3714691 -0.65651 -0.65651 -0.371469 -0.65651 -0.65651 -0.371469 -0.65651 -0.65651 -0.371469 -0.2402981 -0.8968083 -0.3714723 -0.2402981 -0.8968083 -0.3714723 -0.2402981 -0.8968083 -0.3714723 -0.2403001 -0.8968091 -0.3714691 -0.2403001 -0.8968091 -0.3714691 -0.2403001 -0.8968091 -0.3714691 0.2402984 -0.8968096 -0.371469 0.2402984 -0.8968096 -0.371469 0.2402984 -0.8968096 -0.371469 0.2402998 -0.8968079 -0.3714721 0.2402998 -0.8968079 -0.3714721 0.2402998 -0.8968079 -0.3714721 0.65651 -0.65651 -0.3714691 0.65651 -0.65651 -0.3714691 0.65651 -0.65651 -0.3714691 0.65651 -0.65651 -0.371469 0.65651 -0.65651 -0.371469 0.65651 -0.65651 -0.371469 0.8968083 -0.2402981 -0.3714723 0.8968083 -0.2402981 -0.3714723 0.8968083 -0.2402981 -0.3714723 0.8968091 -0.2403001 -0.3714691 0.8968091 -0.2403001 -0.3714691 0.8968091 -0.2403001 -0.3714691 0.8968096 0.2402984 -0.371469 0.8968096 0.2402984 -0.371469 0.8968096 0.2402984 -0.371469 0.8968079 0.2402998 -0.3714721 0.8968079 0.2402998 -0.3714721 0.8968079 0.2402998 -0.3714721 0.65651 0.65651 -0.3714691 0.65651 0.65651 -0.3714691 0.65651 0.65651 -0.3714691 0.65651 0.65651 -0.371469 0.65651 0.65651 -0.371469 0.65651 0.65651 -0.371469 0.2402981 0.8968083 -0.3714723 0.2402981 0.8968083 -0.3714723 0.2402981 0.8968083 -0.3714723 0.2403001 0.8968091 -0.3714691 0.2403001 0.8968091 -0.3714691 0.2403001 0.8968091 -0.3714691 -0.2402984 0.8968096 -0.371469 -0.2402984 0.8968096 -0.371469 -0.2402984 0.8968096 -0.371469 -0.2402998 0.8968079 -0.3714721 -0.2402998 0.8968079 -0.3714721 -0.2402998 0.8968079 -0.3714721 -0.65651 0.65651 -0.3714691 -0.65651 0.65651 -0.3714691 -0.65651 0.65651 -0.3714691 -0.65651 0.65651 -0.371469 -0.65651 0.65651 -0.371469 -0.65651 0.65651 -0.371469 -0.8968083 0.2402981 -0.3714723 -0.8968083 0.2402981 -0.3714723 -0.8968083 0.2402981 -0.3714723 -0.8968091 0.2403001 -0.3714691 -0.8968091 0.2403001 -0.3714691 -0.8968091 0.2403001 -0.3714691 -0.958209 -0.2567523 -0.1261503 -0.958209 -0.2567523 -0.1261503 -0.958209 -0.2567523 -0.1261503 -0.958209 -0.2567521 -0.1261498 -0.958209 -0.2567521 -0.1261498 -0.958209 -0.2567521 -0.1261498 -0.7014578 -0.7014578 -0.1261501 -0.7014578 -0.7014578 -0.1261501 -0.7014578 -0.7014578 -0.1261501 -0.7014578 -0.7014578 -0.1261501 -0.7014578 -0.7014578 -0.1261501 -0.7014578 -0.7014578 -0.1261501 -0.2567523 -0.958209 -0.1261498 -0.2567523 -0.958209 -0.1261498 -0.2567523 -0.958209 -0.1261498 -0.2567521 -0.958209 -0.1261503 -0.2567521 -0.958209 -0.1261503 -0.2567521 -0.958209 -0.1261503 0.2567523 -0.958209 -0.1261503 0.2567523 -0.958209 -0.1261503 0.2567523 -0.958209 -0.1261503 0.2567521 -0.958209 -0.1261498 0.2567521 -0.958209 -0.1261498 0.2567521 -0.958209 -0.1261498 0.7014578 -0.7014578 -0.1261501 0.7014578 -0.7014578 -0.1261501 0.7014578 -0.7014578 -0.1261501 0.7014578 -0.7014578 -0.1261501 0.7014578 -0.7014578 -0.1261501 0.7014578 -0.7014578 -0.1261501 0.958209 -0.2567523 -0.1261498 0.958209 -0.2567523 -0.1261498 0.958209 -0.2567523 -0.1261498 0.958209 -0.2567521 -0.1261503 0.958209 -0.2567521 -0.1261503 0.958209 -0.2567521 -0.1261503 0.958209 0.2567523 -0.1261503 0.958209 0.2567523 -0.1261503 0.958209 0.2567523 -0.1261503 0.958209 0.2567521 -0.1261498 0.958209 0.2567521 -0.1261498 0.958209 0.2567521 -0.1261498 0.7014578 0.7014578 -0.1261501 0.7014578 0.7014578 -0.1261501 0.7014578 0.7014578 -0.1261501 0.7014578 0.7014578 -0.1261501 0.7014578 0.7014578 -0.1261501 0.7014578 0.7014578 -0.1261501 0.2567523 0.958209 -0.1261498 0.2567523 0.958209 -0.1261498 0.2567523 0.958209 -0.1261498 0.2567521 0.958209 -0.1261503 0.2567521 0.958209 -0.1261503 0.2567521 0.958209 -0.1261503 -0.2567523 0.958209 -0.1261503 -0.2567523 0.958209 -0.1261503 -0.2567523 0.958209 -0.1261503 -0.2567521 0.958209 -0.1261498 -0.2567521 0.958209 -0.1261498 -0.2567521 0.958209 -0.1261498 -0.7014578 0.7014578 -0.1261501 -0.7014578 0.7014578 -0.1261501 -0.7014578 0.7014578 -0.1261501 -0.7014578 0.7014578 -0.1261501 -0.7014578 0.7014578 -0.1261501 -0.7014578 0.7014578 -0.1261501 -0.958209 0.2567523 -0.1261498 -0.958209 0.2567523 -0.1261498 -0.958209 0.2567523 -0.1261498 -0.958209 0.2567521 -0.1261503 -0.958209 0.2567521 -0.1261503 -0.958209 0.2567521 -0.1261503 -0.958209 -0.2567521 0.1261503 -0.958209 -0.2567521 0.1261503 -0.958209 -0.2567521 0.1261503 -0.958209 -0.2567523 0.1261498 -0.958209 -0.2567523 0.1261498 -0.958209 -0.2567523 0.1261498 -0.7014578 -0.7014578 0.1261501 -0.7014578 -0.7014578 0.1261501 -0.7014578 -0.7014578 0.1261501 -0.7014578 -0.7014578 0.1261502 -0.7014578 -0.7014578 0.1261502 -0.7014578 -0.7014578 0.1261502 -0.2567521 -0.958209 0.1261498 -0.2567521 -0.958209 0.1261498 -0.2567521 -0.958209 0.1261498 -0.2567523 -0.9582089 0.1261503 -0.2567523 -0.9582089 0.1261503 -0.2567523 -0.9582089 0.1261503 0.2567521 -0.958209 0.1261503 0.2567521 -0.958209 0.1261503 0.2567521 -0.958209 0.1261503 0.2567523 -0.958209 0.1261498 0.2567523 -0.958209 0.1261498 0.2567523 -0.958209 0.1261498 0.7014578 -0.7014578 0.1261501 0.7014578 -0.7014578 0.1261501 0.7014578 -0.7014578 0.1261501 0.7014578 -0.7014578 0.1261502 0.7014578 -0.7014578 0.1261502 0.7014578 -0.7014578 0.1261502 0.958209 -0.2567521 0.1261498 0.958209 -0.2567521 0.1261498 0.958209 -0.2567521 0.1261498 0.9582089 -0.2567523 0.1261503 0.9582089 -0.2567523 0.1261503 0.9582089 -0.2567523 0.1261503 0.958209 0.2567521 0.1261503 0.958209 0.2567521 0.1261503 0.958209 0.2567521 0.1261503 0.958209 0.2567523 0.1261498 0.958209 0.2567523 0.1261498 0.958209 0.2567523 0.1261498 0.7014578 0.7014578 0.1261501 0.7014578 0.7014578 0.1261501 0.7014578 0.7014578 0.1261501 0.7014578 0.7014578 0.1261502 0.7014578 0.7014578 0.1261502 0.7014578 0.7014578 0.1261502 0.2567521 0.958209 0.1261498 0.2567521 0.958209 0.1261498 0.2567521 0.958209 0.1261498 0.2567523 0.9582089 0.1261503 0.2567523 0.9582089 0.1261503 0.2567523 0.9582089 0.1261503 -0.2567521 0.958209 0.1261503 -0.2567521 0.958209 0.1261503 -0.2567521 0.958209 0.1261503 -0.2567523 0.958209 0.1261498 -0.2567523 0.958209 0.1261498 -0.2567523 0.958209 0.1261498 -0.7014578 0.7014578 0.1261501 -0.7014578 0.7014578 0.1261501 -0.7014578 0.7014578 0.1261501 -0.7014578 0.7014578 0.1261502 -0.7014578 0.7014578 0.1261502 -0.7014578 0.7014578 0.1261502 -0.958209 0.2567521 0.1261498 -0.958209 0.2567521 0.1261498 -0.958209 0.2567521 0.1261498 -0.9582089 0.2567523 0.1261503 -0.9582089 0.2567523 0.1261503 -0.9582089 0.2567523 0.1261503 -0.896809 -0.2403001 0.3714692 -0.896809 -0.2403001 0.3714692 -0.896809 -0.2403001 0.3714692 -0.8968083 -0.2402981 0.3714723 -0.8968083 -0.2402981 0.3714723 -0.8968083 -0.2402981 0.3714723 -0.65651 -0.65651 0.3714691 -0.65651 -0.65651 0.3714691 -0.65651 -0.65651 0.3714691 -0.6565099 -0.6565099 0.3714691 -0.6565099 -0.6565099 0.3714691 -0.6565099 -0.6565099 0.3714691 -0.2402998 -0.8968079 0.3714721 -0.2402998 -0.8968079 0.3714721 -0.2402998 -0.8968079 0.3714721 -0.2402984 -0.8968096 0.371469 -0.2402984 -0.8968096 0.371469 -0.2402984 -0.8968096 0.371469 0.2403001 -0.896809 0.3714692 0.2403001 -0.896809 0.3714692 0.2403001 -0.896809 0.3714692 0.2402981 -0.8968083 0.3714723 0.2402981 -0.8968083 0.3714723 0.2402981 -0.8968083 0.3714723 0.65651 -0.65651 0.3714691 0.65651 -0.65651 0.3714691 0.65651 -0.65651 0.3714691 0.6565099 -0.6565099 0.3714691 0.6565099 -0.6565099 0.3714691 0.6565099 -0.6565099 0.3714691 0.8968079 -0.2402998 0.3714721 0.8968079 -0.2402998 0.3714721 0.8968079 -0.2402998 0.3714721 0.8968096 -0.2402984 0.371469 0.8968096 -0.2402984 0.371469 0.8968096 -0.2402984 0.371469 0.896809 0.2403001 0.3714692 0.896809 0.2403001 0.3714692 0.896809 0.2403001 0.3714692 0.8968083 0.2402981 0.3714723 0.8968083 0.2402981 0.3714723 0.8968083 0.2402981 0.3714723 0.65651 0.65651 0.3714691 0.65651 0.65651 0.3714691 0.65651 0.65651 0.3714691 0.6565099 0.6565099 0.3714691 0.6565099 0.6565099 0.3714691 0.6565099 0.6565099 0.3714691 0.2402998 0.8968079 0.3714721 0.2402998 0.8968079 0.3714721 0.2402998 0.8968079 0.3714721 0.2402984 0.8968096 0.371469 0.2402984 0.8968096 0.371469 0.2402984 0.8968096 0.371469 -0.2403001 0.896809 0.3714692 -0.2403001 0.896809 0.3714692 -0.2403001 0.896809 0.3714692 -0.2402981 0.8968083 0.3714723 -0.2402981 0.8968083 0.3714723 -0.2402981 0.8968083 0.3714723 -0.65651 0.65651 0.3714691 -0.65651 0.65651 0.3714691 -0.65651 0.65651 0.3714691 -0.6565099 0.6565099 0.3714691 -0.6565099 0.6565099 0.3714691 -0.6565099 0.6565099 0.3714691 -0.8968079 0.2402998 0.3714721 -0.8968079 0.2402998 0.3714721 -0.8968079 0.2402998 0.3714721 -0.8968096 0.2402984 0.371469 -0.8968096 0.2402984 0.371469 -0.8968096 0.2402984 0.371469 -0.7760127 -0.2079311 0.5954569 -0.7760127 -0.2079311 0.5954569 -0.7760127 -0.2079311 0.5954569 -0.7760144 -0.2079341 0.5954539 -0.7760144 -0.2079341 0.5954539 -0.7760144 -0.2079341 0.5954539 -0.5680802 -0.5680802 0.5954575 -0.5680802 -0.5680802 0.5954575 -0.5680802 -0.5680802 0.5954575 -0.5680803 -0.5680803 0.5954574 -0.5680803 -0.5680803 0.5954574 -0.5680803 -0.5680803 0.5954574 -0.2079317 -0.7760147 0.5954541 -0.2079317 -0.7760147 0.5954541 -0.2079317 -0.7760147 0.5954541 -0.2079334 -0.7760118 0.5954572 -0.2079334 -0.7760118 0.5954572 -0.2079334 -0.7760118 0.5954572 0.2079311 -0.7760127 0.5954569 0.2079311 -0.7760127 0.5954569 0.2079311 -0.7760127 0.5954569 0.2079341 -0.7760144 0.5954539 0.2079341 -0.7760144 0.5954539 0.2079341 -0.7760144 0.5954539 0.5680802 -0.5680802 0.5954575 0.5680802 -0.5680802 0.5954575 0.5680802 -0.5680802 0.5954575 0.5680803 -0.5680803 0.5954574 0.5680803 -0.5680803 0.5954574 0.5680803 -0.5680803 0.5954574 0.7760147 -0.2079317 0.5954541 0.7760147 -0.2079317 0.5954541 0.7760147 -0.2079317 0.5954541 0.7760118 -0.2079334 0.5954572 0.7760118 -0.2079334 0.5954572 0.7760118 -0.2079334 0.5954572 0.7760127 0.2079311 0.5954569 0.7760127 0.2079311 0.5954569 0.7760127 0.2079311 0.5954569 0.7760144 0.2079341 0.5954539 0.7760144 0.2079341 0.5954539 0.7760144 0.2079341 0.5954539</float_array>
                    <technique_common>
                        <accessor count="840" source="#geometry0-normal-array" stride="3">
                            <param name="X" type="float"/>
                            <param name="Y" type="float"/>
                            <param name="Z" type="float"/>
                        </accessor>
                    </technique_common>
                </source>
                <vertices id="geometry0-vertex">
                    <input semantic="POSITION" source="#geometry0-position"/>
                </vertices>
                <triangles count="288" material="default_ai_0.2_sh_0.2_tr_0.0_dc_r_0.8_g_0.8_b_0.8_sc_r_1.0_g_1.0_b_1.0_ec_r_0.0_g_0.0_b_0_tri">
                    <input offset="0" semantic="VERTEX" source="#geometry0-vertex"/>
                    <input offset="1" semantic="NORMAL" source="#geometry0-normal"/>
                    <p>92 0 93 1 105 2 92 3 105 4 104 5 93 6 94 7 106 8 93 9 106 10 105 11 94 12 95 13 107 14 94 15 107 16 106 17 95 18 96 19 108 20 95 21 108 22 107 23 96 24 86 25 98 26 96 27 98 28 108 29 98 30 97 31 109 32 98 33 109 34 110 35 97 36 99 37 111 38 97 39 111 40 109 41 99 42 100 43 112 44 99 45 112 46 111 47 100 48 101 49 113 50 100 51 113 52 112 53 101 54 102 55 114 56 101 57 114 58 113 59 102 60 103 61 115 62 102 63 115 64 114 65 103 66 104 67 116 68 103 69 116 70 115 71 104 72 105 73 117 74 104 75 117 76 116 77 105 78 106 79 118 80 105 81 118 82 117 83 106 84 107 85 119 86 106 87 119 88 118 89 107 90 108 91 120 92 107 93 120 94 119 95 108 96 98 97 110 98 108 99 110 100 120 101 110 102 109 103 121 104 110 105 121 106 122 107 109 108 111 109 123 110 109 111 123 112 121 113 111 114 112 115 124 116 111 117 124 118 123 119 112 120 113 121 125 122 112 123 125 124 124 125 113 126 114 127 126 128 113 129 126 130 125 131 114 132 115 133 127 134 114 135 127 136 126 137 115 138 116 139 128 140 115 141 128 142 127 143 116 144 117 145 129 146 116 147 129 148 128 149 117 150 118 151 130 152 117 153 130 154 129 155 118 156 119 157 131 158 118 159 131 160 130 161 119 162 120 163 132 164 119 165 132 166 131 167 120 168 110 169 122 170 120 171 122 172 132 173 122 174 121 175 133 176 122 177 133 178 133 178 121 179 123 180 133 181 121 182 133 183 133 183 123 184 124 185 133 186 123 187 133 188 133 188 124 189 125 190 133 191 124 192 133 193 133 193 125 194 126 195 133 196 125 197 133 198 133 198 126 199 127 200 133 201 126 202 133 203 133 203 127 204 128 205 133 206 127 207 133 208 133 208 128 209 129 210 133 211 128 212 133 213 133 213 129 214 130 215 133 216 129 217 133 218 133 218 130 219 131 220 133 221 130 222 133 223 133 223 131 224 132 225 133 226 131 227 133 228 133 228 132 229 122 230 133 231 132 232 133 233 133 233 0 234 0 234 1 235 0 236 1 237 2 238 0 239 0 239 3 240 0 241 3 242 1 243 0 244 0 244 4 245 0 246 4 247 3 248 0 249 0 249 5 250 0 251 5 252 4 253 0 254 0 254 6 255 0 256 6 257 5 258 0 259 0 259 7 260 0 261 7 262 6 263 0 264 0 264 8 265 0 266 8 267 7 268 0 269 0 269 9 270 0 271 9 272 8 273 0 274 0 274 10 275 0 276 10 277 9 278 0 279 0 279 11 280 0 281 11 282 10 283 0 284 0 284 12 285 0 286 12 287 11 288 0 289 0 289 2 290 0 291 2 292 12 293 2 294 1 295 13 296 2 297 13 298 14 299 1 300 3 301 15 302 1 303 15 304 13 305 3 306 4 307 16 308 3 309 16 310 15 311 4 312 5 313 17 314 4 315 17 316 16 317 5 318 6 319 18 320 5 321 18 322 17 323 6 324 7 325 19 326 6 327 19 328 18 329 7 330 8 331 20 332 7 333 20 334 19 335 8 336 9 337 21 338 8 339 21 340 20 341 9 342 10 343 22 344 9 345 22 346 21 347 10 348 11 349 23 350 10 351 23 352 22 353 11 354 12 355 24 356 11 357 24 358 23 359 12 360 2 361 14 362 12 363 14 364 24 365 14 366 13 367 25 368 14 369 25 370 26 371 13 372 15 373 27 374 13 375 27 376 25 377 15 378 16 379 28 380 15 381 28 382 27 383 16 384 17 385 29 386 16 387 29 388 28 389 17 390 18 391 30 392 17 393 30 394 29 395 18 396 19 397 31 398 18 399 31 400 30 401 19 402 20 403 32 404 19 405 32 406 31 407 20 408 21 409 33 410 20 411 33 412 32 413 21 414 22 415 34 416 21 417 34 418 33 419 22 420 23 421 35 422 22 423 35 424 34 425 23 426 24 427 36 428 23 429 36 430 35 431 24 432 14 433 26 434 24 435 26 436 36 437 26 438 25 439 37 440 26 441 37 442 38 443 25 444 27 445 39 446 25 447 39 448 37 449 27 450 28 451 40 452 27 453 40 454 39 455 28 456 29 457 41 458 28 459 41 460 40 461 29 462 30 463 42 464 29 465 42 466 41 467 30 468 31 469 43 470 30 471 43 472 42 473 31 474 32 475 44 476 31 477 44 478 43 479 32 480 33 481 45 482 32 483 45 484 44 485 33 486 34 487 46 488 33 489 46 490 45 491 34 492 35 493 47 494 34 495 47 496 46 497 35 498 36 499 48 500 35 501 48 502 47 503 36 504 26 505 38 506 36 507 38 508 48 509 38 510 37 511 49 512 38 513 49 514 50 515 37 516 39 517 51 518 37 519 51 520 49 521 39 522 40 523 52 524 39 525 52 526 51 527 40 528 41 529 53 530 40 531 53 532 52 533 41 534 42 535 54 536 41 537 54 538 53 539 42 540 43 541 55 542 42 543 55 544 54 545 43 546 44 547 56 548 43 549 56 550 55 551 44 552 45 553 57 554 44 555 57 556 56 557 45 558 46 559 58 560 45 561 58 562 57 563 46 564 47 565 59 566 46 567 59 568 58 569 47 570 48 571 60 572 47 573 60 574 59 575 48 576 38 577 50 578 48 579 50 580 60 581 50 582 49 583 61 584 50 585 61 586 62 587 49 588 51 589 63 590 49 591 63 592 61 593 51 594 52 595 64 596 51 597 64 598 63 599 52 600 53 601 65 602 52 603 65 604 64 605 53 606 54 607 66 608 53 609 66 610 65 611 54 612 55 613 67 614 54 615 67 616 66 617 55 618 56 619 68 620 55 621 68 622 67 623 56 624 57 625 69 626 56 627 69 628 68 629 57 630 58 631 70 632 57 633 70 634 69 635 58 636 59 637 71 638 58 639 71 640 70 641 59 642 60 643 72 644 59 645 72 646 71 647 60 648 50 649 62 650 60 651 62 652 72 653 62 654 61 655 73 656 62 657 73 658 74 659 61 660 63 661 75 662 61 663 75 664 73 665 63 666 64 667 76 668 63 669 76 670 75 671 64 672 65 673 77 674 64 675 77 676 76 677 65 678 66 679 78 680 65 681 78 682 77 683 66 684 67 685 79 686 66 687 79 688 78 689 67 690 68 691 80 692 67 693 80 694 79 695 68 696 69 697 81 698 68 699 81 700 80 701 69 702 70 703 82 704 69 705 82 706 81 707 70 708 71 709 83 710 70 711 83 712 82 713 71 714 72 715 84 716 71 717 84 718 83 719 72 720 62 721 74 722 72 723 74 724 84 725 74 726 73 727 85 728 74 729 85 730 86 731 73 732 75 733 87 734 73 735 87 736 85 737 75 738 76 739 88 740 75 741 88 742 87 743 76 744 77 745 89 746 76 747 89 748 88 749 77 750 78 751 90 752 77 753 90 754 89 755 78 756 79 757 91 758 78 759 91 760 90 761 79 762 80 763 92 764 79 765 92 766 91 767 80 768 81 769 93 770 80 771 93 772 92 773 81 774 82 775 94 776 81 777 94 778 93 779 82 780 83 781 95 782 82 783 95 784 94 785 83 786 84 787 96 788 83 789 96 790 95 791 84 792 74 793 86 794 84 795 86 796 96 797 86 798 85 799 97 800 86 801 97 802 98 803 85 804 87 805 99 806 85 807 99 808 97 809 87 810 88 811 100 812 87 813 100 814 99 815 88 816 89 817 101 818 88 819 101 820 100 821 89 822 90 823 102 824 89 825 102 826 101 827 90 828 91 829 103 830 90 831 103 832 102 833 91 834 92 835 104 836 91 837 104 838 103 839</p>
                </triangles>
            </mesh>
        </geometry>
    </library_geometries>
    <library_visual_scenes>
        <visual_scene id="Building_11_CROWN1">
            <node>
                <instance_geometry url="#geometry0">
                    <bind_material>
                        <technique_common>
                            <instance_material symbol="default_ai_0.2_sh_0.2_tr_0.0_dc_r_0.8_g_0.8_b_0.8_sc_r_1.0_g_1.0_b_1.0_ec_r_0.0_g_0.0_b_0_tri" target="#default_ai_0.2_sh_0.2_tr_0.0_dc_r_0.8_g_0.8_b_0.8_sc_r_1.0_g_1.0_b_1.0_ec_r_0.0_g_0.0_b_0_mat"/>
                        </technique_common>
                    </bind_material>
                </instance_geometry>
            </node>
        </visual_scene>
    </library_visual_scenes>
    <scene>
        <instance_visual_scene url="#Building_11_CROWN1"/>
    </scene>
</COLLADA>
