<?xml version="1.0" encoding="UTF-8" standalone="yes"?>
<COLLADA xmlns="http://www.collada.org/2005/11/COLLADASchema" version="1.4.1">
    <asset>
        <contributor>
            <authoring_tool>3D City Database Importer/Exporter, version 5.5.3; Chair of Geoinformatics, Technical University of Munich</authoring_tool>
        </contributor>
        <created>2026-09-25T14:45:04.648</created>
        <modified>2026-09-25T14:45:04.648</modified>
        <unit meter="1.0" name="meters"/>
        <up_axis>Z_UP</up_axis>
    </asset>
    <library_materials>
        <material id="default_ai_0.2_sh_0.2_tr_0.0_dc_r_0.8_g_0.8_b_0.8_sc_r_1.0_g_1.0_b_1.0_ec_r_0.0_g_0.0_b_0_mat">
            <instance_effect url="#default_ai_0.2_sh_0.2_tr_0.0_dc_r_0.8_g_0.8_b_0.8_sc_r_1.0_g_1.0_b_1.0_ec_r_0.0_g_0.0_b_0_eff"/>
        </material>
    </library_materials>
    <library_effects>
        <effect id="default_ai_0.2_sh_0.2_tr_0.0_dc_r_0.8_g_0.8_b_0.8_sc_r_1.0_g_1.0_b_1.0_ec_r_0.0_g_0.0_b_0_eff">
            <profile_COMMON>
                <technique sid="COMMON">
                    <lambert>
                        <emission>
                            <color>0.0 0.0 0.0 1.0</color>
                        </emission>
                        <diffuse>
                            <color>0.8 0.8 0.8 1.0</color>
                        </diffuse>
                        <reflective>
                            <color>1.0 1.0 1.0 1.0</color>
                        </reflective>
                        <reflectivity>
                            <float>0.2</float>
                        </reflectivity>
                        <transparent opaque="A_ONE">
                            <color>1.0 1.0 1.0 1.0</color>
                        </transparent>
                        <transparency>
                            <float>1.0</float>
                        </transparency>
                    </lambert>
                </technique>
                <extra>
                    <technique profile="GOOGLEEARTH">
                        <double_sided>0</double_sided>
                    </technique>
                </extra>
            </profile_COMMON>
        </effect>
    </library_effects>
    <library_geometries>
        <geometry id="geometry0">
            <mesh>
                <source id="geometry0-position">
                    <float_array id="geometry0-position-array" count="402">0.0 0.0 1.9 0.2129368 0.1229395 1.8676297 0.245878 0.0 1.8676297 0.1229395 0.2129368 1.8676297 0.0 0.2458781 1.8676297 -0.1229395 0.2129368 1.8676297 -0.2129368 0.1229395 1.8676297 -0.245878 0.0 1.8676297 -0.2129368 -0.1229395 1.8676297 -0.1229395 -0.2129368 1.8676297 0.0 -0.2458781 1.8676297 0.1229395 -0.2129368 1.8676297 0.2129368 -0.1229395 1.8676297 0.4113623 0.2375 1.7727237 0.475 0.0 1.7727237 0.2375 0.4113623 1.7727237 0.0 0.475 1.7727237 -0.2375 0.4113623 1.7727237 -0.4113623 0.2375 1.7727237 -0.475 0.0 1.7727237 -0.4113623 -0.2375 1.7727237 -0.2375 -0.4113623 1.7727237 0.0 -0.475 1.7727237 0.2375 -0.4113623 1.7727237 0.4113623 -0.2375 1.7727237 0.5817534 0.3358754 1.6217507 0.6717516 0.0 1.6217507 0.3358753 0.5817534 1.6217507 0.0 0.6717517 1.6217507 -0.3358753 0.5817534 1.6217507 -0.5817534 0.3358754 1.6217507 -0.6717516 0.0 1.6217507 -0.5817534 -0.3358754 1.6217507 -0.3358753 -0.5817534 1.6217507 0.0 -0.6717517 1.6217507 0.3358753 -0.5817534 1.6217507 0.5817534 -0.3358754 1.6217507 0.7125 0.4113623 1.425 0.8227238 0.0 1.425 0.4113623 0.7125 1.425 0.0 0.8227238 1.425 -0.4113623 0.7125 1.425 -0.7125 0.4113623 1.425 -0.8227238 0.0 1.425 -0.7125 -0.4113623 1.425 -0.4113623 -0.7125 1.425 0.0 -0.8227238 1.425 0.4113623 -0.7125 1.425 0.7125 -0.4113623 1.425 0.7946902 0.4588149 1.195878 0.9176297 0.0 1.195878 0.4588149 0.7946902 1.195878 0.0 0.9176297 1.195878 -0.4588149 0.7946902 1.195878 -0.7946902 0.4588149 1.195878 -0.9176297 0.0 1.195878 -0.7946902 -0.4588149 1.195878 -0.4588149 -0.7946902 1.195878 0.0 -0.9176297 1.195878 0.4588149 -0.7946902 1.195878 0.7946902 -0.4588149 1.195878 0.8227238 0.475 0.95 0.95 0.0 0.95 0.475 0.8227238 0.95 0.0 0.95 0.95 -0.475 0.8227238 0.95 -0.8227238 0.475 0.95 -0.95 0.0 0.95 -0.8227238 -0.475 0.95 -0.475 -0.8227238 0.95 0.0 -0.95 0.95 0.475 -0.8227238 0.95 0.8227238 -0.475 0.95 0.7946902 0.4588149 0.704122 0.9176297 0.0 0.704122 0.4588149 0.7946902 0.704122 0.0 0.9176297 0.704122 -0.4588149 0.7946902 0.704122 -0.7946902 0.4588149 0.704122 -0.9176297 0.0 0.704122 -0.7946902 -0.4588149 0.704122 -0.4588149 -0.7946902 0.704122 0.0 -0.9176297 0.704122 0.4588149 -0.7946902 0.704122 0.7946902 -0.4588149 0.704122 0.7125 0.4113623 0.475 0.8227238 0.0 0.475 0.4113623 0.7125 0.475 0.0 0.8227238 0.475 -0.4113623 0.7125 0.475 -0.7125 0.4113623 0.475 -0.8227238 0.0 0.475 -0.7125 -0.4113623 0.475 -0.4113623 -0.7125 0.475 0.0 -0.8227238 0.475 0.4113623 -0.7125 0.475 0.7125 -0.4113623 0.475 0.5817534 0.3358754 0.2782483 0.6717516 0.0 0.2782483 0.3358753 0.5817534 0.2782483 0.0 0.6717517 0.2782483 -0.3358753 0.5817534 0.2782483 -0.5817534 0.3358754 0.2782483 -0.6717516 0.0 0.2782483 -0.5817534 -0.3358754 0.2782483 -0.3358753 -0.5817534 0.2782483 0.0 -0.6717517 0.2782483 0.3358753 -0.5817534 0.2782483 0.5817534 -0.3358754 0.2782483 0.4113623 0.2375 0.1272753 0.475 0.0 0.1272753 0.2375 0.4113623 0.1272753 0.0 0.475 0.1272753 -0.2375 0.4113623 0.1272753 -0.4113623 0.2375 0.1272753 -0.475 0.0 0.1272753 -0.4113623 -0.2375 0.1272753 -0.2375 -0.4113623 0.1272753 0.0 -0.475 0.1272753 0.2375 -0.4113623 0.1272753 0.4113623 -0.2375 0.1272753 0.2129368 0.1229395 0.0323703 0.245878 0.0 0.0323703 0.1229395 0.2129368 0.0323703 0.0 0.2458781 0.0323703 -0.1229395 0.2129368 0.0323703 -0.2129368 0.1229395 0.0323703 -0.245878 0.0 0.0323703 -0.2129368 -0.1229395 0.0323703 -0.1229395 -0.2129368 0.0323703 0.0 -0.2458781 0.0323703 0.1229395 -0.2129368 0.0323703 0.2129368 -0.1229395 0.0323703 0.0 0.0 0.0</float_array>
                    <technique_common>
                        <accessor count="134" source="#geometry0-position-array" stride="3">
                            <param name="X" type="float"/>
                            <param name="Y" type="float"/>
                            <param name="Z" type="float"/>
                        </accessor>
                    </technique_common>
                </source>
                <source id="geometry0-normal">
                    <float_array id="geometry0-normal-array" count="2520">-0.2402984 0.8968095 -0.3714692 -0.2402984 0.8968095 -0.3714692 -0.2402984 0.8968095 -0.3714692 -0.2402999 0.896808 -0.3714722 -0.2402999 0.896808 -0.3714722 -0.2402999 0.896808 -0.3714722 -0.6565099 0.6565099 -0.3714692 -0.6565099 0.6565099 -0.3714692 -0.6565099 0.6565099 -0.3714692 -0.6565099 0.6565099 -0.3714692 -0.6565099 0.6565099 -0.3714692 -0.6565099 0.6565099 -0.3714692 -0.8968083 0.2402981 -0.3714724 -0.8968083 0.2402981 -0.3714724 -0.8968083 0.2402981 -0.3714724 -0.896809 0.2403001 -0.3714693 -0.896809 0.2403001 -0.3714693 -0.896809 0.2403001 -0.3714693 -0.958209 -0.2567523 -0.1261502 -0.958209 -0.2567523 -0.1261502 -0.958209 -0.2567523 -0.1261502 -0.958209 -0.2567521 -0.1261498 -0.958209 -0.2567521 -0.1261498 -0.958209 -0.2567521 -0.1261498 -0.7014578 -0.7014578 -0.1261501 -0.7014578 -0.7014578 -0.1261501 -0.7014578 -0.7014578 -0.1261501 -0.7014578 -0.7014578 -0.1261501 -0.7014578 -0.7014578 -0.1261501 -0.7014578 -0.7014578 -0.1261501 -0.2567523 -0.958209 -0.1261499 -0.2567523 -0.958209 -0.1261499 -0.2567523 -0.958209 -0.1261499 -0.2567521 -0.958209 -0.1261502 -0.2567521 -0.958209 -0.1261502 -0.2567521 -0.958209 -0.1261502 0.2567523 -0.958209 -0.1261502 0.2567523 -0.958209 -0.1261502 0.2567523 -0.958209 -0.1261502 0.2567521 -0.958209 -0.1261498 0.2567521 -0.958209 -0.1261498 0.2567521 -0.958209 -0.1261498 0.7014578 -0.7014578 -0.1261501 0.7014578 -0.7014578 -0.1261501 0.7014578 -0.7014578 -0.1261501 0.7014578 -0.7014578 -0.1261501 0.7014578 -0.7014578 -0.1261501 0.7014578 -0.7014578 -0.1261501 0.958209 -0.2567523 -0.1261499 0.958209 -0.2567523 -0.1261499 0.958209 -0.2567523 -0.1261499 0.958209 -0.2567521 -0.1261502 0.958209 -0.2567521 -0.1261502 0.958209 -0.2567521 -0.1261502 0.958209 0.2567523 -0.1261502 0.958209 0.2567523 -0.1261502 0.958209 0.2567523 -0.1261502 0.958209 0.2567521 -0.1261498 0.958209 0.2567521 -0.1261498 0.958209 0.2567521 -0.1261498 0.7014578 0.7014578 -0.1261501 0.7014578 0.7014578 -0.1261501 0.7014578 0.7014578 -0.1261501 0.7014578 0.7014578 -0.1261501 0.7014578 0.7014578 -0.1261501 0.7014578 0.7014578 -0.1261501 0.2567523 0.958209 -0.1261499 0.2567523 0.958209 -0.1261499 0.2567523 0.958209 -0.1261499 0.2567521 0.958209 -0.1261502 0.2567521 0.958209 -0.1261502 0.2567521 0.958209 -0.1261502 -0.2567523 0.958209 -0.1261502 -0.2567523 0.958209 -0.1261502 -0.2567523 0.958209 -0.1261502 -0.2567521 0.958209 -0.1261498 -0.2567521 0.958209 -0.1261498 -0.2567521 0.958209 -0.1261498 -0.7014578 0.7014578 -0.1261501 -0.7014578 0.7014578 -0.1261501 -0.7014578 0.7014578 -0.1261501 -0.7014578 0.7014578 -0.1261501 -0.7014578 0.7014578 -0.1261501 -0.7014578 0.7014578 -0.1261501 -0.958209 0.2567523 -0.1261499 -0.958209 0.2567523 -0.1261499 -0.958209 0.2567523 -0.1261499 -0.958209 0.2567521 -0.1261502 -0.958209 0.2567521 -0.1261502 -0.958209 0.2567521 -0.1261502 -0.958209 -0.2567521 0.1261502 -0.958209 -0.2567521 0.1261502 -0.958209 -0.2567521 0.1261502 -0.958209 -0.2567523 0.1261498 -0.958209 -0.2567523 0.1261498 -0.958209 -0.2567523 0.1261498 -0.7014578 -0.7014578 0.1261501 -0.7014578 -0.7014578 0.1261501 -0.7014578 -0.7014578 0.1261501 -0.7014578 -0.7014578 0.1261501 -0.7014578 -0.7014578 0.1261501 -0.7014578 -0.7014578 0.1261501 -0.2567521 -0.958209 0.1261499 -0.2567521 -0.958209 0.1261499 -0.2567521 -0.958209 0.1261499 -0.2567523 -0.958209 0.1261503 -0.2567523 -0.958209 0.1261503 -0.2567523 -0.958209 0.1261503 0.2567521 -0.958209 0.1261502 0.2567521 -0.958209 0.1261502 0.2567521 -0.958209 0.1261502 0.2567523 -0.958209 0.1261498 0.2567523 -0.958209 0.1261498 0.2567523 -0.958209 0.1261498 0.7014578 -0.7014578 0.1261501 0.7014578 -0.7014578 0.1261501 0.7014578 -0.7014578 0.1261501 0.7014578 -0.7014578 0.1261501 0.7014578 -0.7014578 0.1261501 0.7014578 -0.7014578 0.1261501 0.958209 -0.2567521 0.1261499 0.958209 -0.2567521 0.1261499 0.958209 -0.2567521 0.1261499 0.958209 -0.2567523 0.1261503 0.958209 -0.2567523 0.1261503 0.958209 -0.2567523 0.1261503 0.958209 0.2567521 0.1261502 0.958209 0.2567521 0.1261502 0.958209 0.2567521 0.1261502 0.958209 0.2567523 0.1261498 0.958209 0.2567523 0.1261498 0.958209 0.2567523 0.1261498 0.7014578 0.7014578 0.1261501 0.7014578 0.7014578 0.1261501 0.7014578 0.7014578 0.1261501 0.7014578 0.7014578 0.1261501 0.7014578 0.7014578 0.1261501 0.7014578 0.7014578 0.1261501 0.2567521 0.958209 0.1261499 0.2567521 0.958209 0.1261499 0.2567521 0.958209 0.1261499 0.2567523 0.958209 0.1261503 0.2567523 0.958209 0.1261503 0.2567523 0.958209 0.1261503 -0.2567521 0.958209 0.1261502 -0.2567521 0.958209 0.1261502 -0.2567521 0.958209 0.1261502 -0.2567523 0.958209 0.1261498 -0.2567523 0.958209 0.1261498 -0.2567523 0.958209 0.1261498 -0.7014578 0.7014578 0.1261501 -0.7014578 0.7014578 0.1261501 -0.7014578 0.7014578 0.1261501 -0.7014578 0.7014578 0.1261501 -0.7014578 0.7014578 0.1261501 -0.7014578 0.7014578 0.1261501 -0.958209 0.2567521 0.1261499 -0.958209 0.2567521 0.1261499 -0.958209 0.2567521 0.1261499 -0.958209 0.2567523 0.1261503 -0.958209 0.2567523 0.1261503 -0.958209 0.2567523 0.1261503 -0.8968091 -0.2403002 0.3714693 -0.8968091 -0.2403002 0.3714693 -0.8968091 -0.2403002 0.3714693 -0.8968083 -0.2402981 0.3714723 -0.8968083 -0.2402981 0.3714723 -0.8968083 -0.2402981 0.3714723 -0.6565099 -0.6565099 0.3714692 -0.6565099 -0.6565099 0.3714692 -0.6565099 -0.6565099 0.3714692 -0.6565099 -0.6565099 0.3714692 -0.6565099 -0.6565099 0.3714692 -0.6565099 -0.6565099 0.3714692 -0.2402999 -0.896808 0.3714722 -0.2402999 -0.896808 0.3714722 -0.2402999 -0.896808 0.3714722 -0.2402984 -0.8968096 0.3714691 -0.2402984 -0.8968096 0.3714691 -0.2402984 -0.8968096 0.3714691 0.2403002 -0.8968091 0.3714693 0.2403002 -0.8968091 0.3714693 0.2403002 -0.8968091 0.3714693 0.2402981 -0.8968083 0.3714723 0.2402981 -0.8968083 0.3714723 0.2402981 -0.8968083 0.3714723 0.6565099 -0.6565099 0.3714692 0.6565099 -0.6565099 0.3714692 0.6565099 -0.6565099 0.3714692 0.6565099 -0.6565099 0.3714692 0.6565099 -0.6565099 0.3714692 0.6565099 -0.6565099 0.3714692 0.896808 -0.2402999 0.3714722 0.896808 -0.2402999 0.3714722 0.896808 -0.2402999 0.3714722 0.8968096 -0.2402984 0.3714691 0.8968096 -0.2402984 0.3714691 0.8968096 -0.2402984 0.3714691 0.8968091 0.2403002 0.3714693 0.8968091 0.2403002 0.3714693 0.8968091 0.2403002 0.3714693 0.8968083 0.2402981 0.3714723 0.8968083 0.2402981 0.3714723 0.8968083 0.2402981 0.3714723 0.6565099 0.6565099 0.3714692 0.6565099 0.6565099 0.3714692 0.6565099 0.6565099 0.3714692 0.6565099 0.6565099 0.3714692 0.6565099 0.6565099 0.3714692 0.6565099 0.6565099 0.3714692 0.2402999 0.896808 0.3714722 0.2402999 0.896808 0.3714722 0.2402999 0.896808 0.3714722 0.2402984 0.8968096 0.3714691 0.2402984 0.8968096 0.3714691 0.2402984 0.8968096 0.3714691 -0.2403002 0.8968091 0.3714693 -0.2403002 0.8968091 0.3714693 -0.2403002 0.8968091 0.3714693 -0.2402981 0.8968083 0.3714723 -0.2402981 0.8968083 0.3714723 -0.2402981 0.8968083 0.3714723 -0.6565099 0.6565099 0.3714692 -0.6565099 0.6565099 0.3714692 -0.6565099 0.6565099 0.3714692 -0.6565099 0.6565099 0.3714692 -0.6565099 0.6565099 0.3714692 -0.6565099 0.6565099 0.3714692 -0.896808 0.2402999 0.3714722 -0.896808 0.2402999 0.3714722 -0.896808 0.2402999 0.3714722 -0.8968096 0.2402984 0.3714691 -0.8968096 0.2402984 0.3714691 -0.8968096 0.2402984 0.3714691 -0.7760128 -0.2079312 0.5954568 -0.7760128 -0.2079312 0.5954568 -0.7760128 -0.2079312 0.5954568 -0.7760144 -0.2079342 0.5954537 -0.7760144 -0.2079342 0.5954537 -0.7760144 -0.2079342 0.5954537 -0.5680803 -0.5680803 0.5954574 -0.5680803 -0.5680803 0.5954574 -0.5680803 -0.5680803 0.5954574 -0.5680803 -0.5680803 0.5954575 -0.5680803 -0.5680803 0.5954575 -0.5680803 -0.5680803 0.5954575 -0.2079317 -0.7760147 0.595454 -0.2079317 -0.7760147 0.595454 -0.2079317 -0.7760147 0.595454 -0.2079335 -0.7760118 0.5954572 -0.2079335 -0.7760118 0.5954572 -0.2079335 -0.7760118 0.5954572 0.2079312 -0.7760128 0.5954568 0.2079312 -0.7760128 0.5954568 0.2079312 -0.7760128 0.5954568 0.2079342 -0.7760144 0.5954537 0.2079342 -0.7760144 0.5954537 0.2079342 -0.7760144 0.5954537 0.5680803 -0.5680803 0.5954574 0.5680803 -0.5680803 0.5954574 0.5680803 -0.5680803 0.5954574 0.5680803 -0.5680803 0.5954575 0.5680803 -0.5680803 0.5954575 0.5680803 -0.5680803 0.5954575 0.7760147 -0.2079317 0.595454 0.7760147 -0.2079317 0.595454 0.7760147 -0.2079317 0.595454 0.7760118 -0.2079335 0.5954572 0.7760118 -0.2079335 0.5954572 0.7760118 -0.2079335 0.5954572 0.7760128 0.2079312 0.5954568 0.7760128 0.2079312 0.5954568 0.7760128 0.2079312 0.5954568 0.7760144 0.2079342 0.5954537 0.7760144 0.2079342 0.5954537 0.7760144 0.2079342 0.5954537 0.5680803 0.5680803 0.5954574 0.5680803 0.5680803 0.5954574 0.5680803 0.5680803 0.5954574 0.5680803 0.5680803 0.5954575 0.5680803 0.5680803 0.5954575 0.5680803 0.5680803 0.5954575 0.2079317 0.7760147 0.595454 0.2079317 0.7760147 0.595454 0.2079317 0.7760147 0.595454 0.2079335 0.7760118 0.5954572 0.2079335 0.7760118 0.5954572 0.2079335 0.7760118 0.5954572 -0.2079312 0.7760128 0.5954568 -0.2079312 0.7760128 0.5954568 -0.2079312 0.7760128 0.5954568 -0.2079342 0.7760144 0.5954537 -0.2079342 0.7760144 0.5954537 -0.2079342 0.7760144 0.5954537 -0.5680803 0.5680803 0.5954574 -0.5680803 0.5680803 0.5954574 -0.5680803 0.5680803 0.5954574 -0.5680803 0.5680803 0.5954575 -0.5680803 0.5680803 0.5954575 -0.5680803 0.5680803 0.5954575 -0.7760147 0.2079317 0.595454 -0.7760147 0.2079317 0.595454 -0.7760147 0.2079317 0.595454 -0.7760118 0.2079335 0.5954572 -0.7760118 0.2079335 0.5954572 -0.7760118 0.2079335 0.5954572 -0.6008226 -0.1609913 0.7830032 -0.6008226 -0.1609913 0.7830032 -0.6008226 -0.1609913 0.7830032 -0.6008213 -0.1609889 0.7830047 -0.6008213 -0.1609889 0.7830047 -0.6008213 -0.1609889 0.7830047 -0.4398331 -0.4398331 0.783003 -0.4398331 -0.4398331 0.783003 -0.4398331 -0.4398331 0.783003 -0.4398331 -0.4398331 0.783003 -0.4398331 -0.4398331 0.783003 -0.4398331 -0.4398331 0.783003 -0.1609909 -0.6008211 0.7830045 -0.1609909 -0.6008211 0.7830045 -0.1609909 -0.6008211 0.7830045 -0.1609894 -0.6008235 0.7830029 -0.1609894 -0.6008235 0.7830029 -0.1609894 -0.6008235 0.7830029 0.1609913 -0.6008226 0.7830032 0.1609913 -0.6008226 0.7830032 0.1609913 -0.6008226 0.7830032 0.1609889 -0.6008213 0.7830047 0.1609889 -0.6008213 0.7830047 0.1609889 -0.6008213 0.7830047 0.4398331 -0.4398331 0.783003 0.4398331 -0.4398331 0.783003 0.4398331 -0.4398331 0.783003 0.4398331 -0.4398331 0.783003 0.4398331 -0.4398331 0.783003 0.4398331 -0.4398331 0.783003 0.6008211 -0.1609909 0.7830045 0.6008211 -0.1609909 0.7830045 0.6008211 -0.1609909 0.7830045 0.6008235 -0.1609894 0.7830029 0.6008235 -0.1609894 0.7830029 0.6008235 -0.1609894 0.7830029 0.6008226 0.1609913 0.7830032 0.6008226 0.1609913 0.7830032 0.6008226 0.1609913 0.7830032 0.6008213 0.1609889 0.7830047 0.6008213 0.1609889 0.7830047 0.6008213 0.1609889 0.7830047 0.4398331 0.4398331 0.783003 0.4398331 0.4398331 0.783003 0.4398331 0.4398331 0.783003 0.4398331 0.4398331 0.783003 0.4398331 0.4398331 0.783003 0.4398331 0.4398331 0.783003 0.1609909 0.6008211 0.7830045 0.1609909 0.6008211 0.7830045 0.1609909 0.6008211 0.7830045 0.1609894 0.6008235 0.7830029 0.1609894 0.6008235 0.7830029 0.1609894 0.6008235 0.7830029 -0.1609913 0.6008226 0.7830032 -0.1609913 0.6008226 0.7830032 -0.1609913 0.6008226 0.7830032 -0.1609889 0.6008213 0.7830047 -0.1609889 0.6008213 0.7830047 -0.1609889 0.6008213 0.7830047 -0.4398331 0.4398331 0.783003 -0.4398331 0.4398331 0.783003 -0.4398331 0.4398331 0.783003 -0.4398331 0.4398331 0.783003 -0.4398331 0.4398331 0.783003 -0.4398331 0.4398331 0.783003 -0.6008211 0.1609909 0.7830045 -0.6008211 0.1609909 0.7830045 -0.6008211 0.1609909 0.7830045 -0.6008235 0.1609894 0.7830029 -0.6008235 0.1609894 0.7830029 -0.6008235 0.1609894 0.7830029 -0.3806862 -0.1020041 0.9190611 -0.3806862 -0.1020041 0.9190611 -0.3806862 -0.1020041 0.9190611 -0.380686 -0.1020036 0.9190612 -0.380686 -0.1020036 0.9190612 -0.380686 -0.1020036 0.9190612 -0.2786817 -0.2786817 0.9190609 -0.2786817 -0.2786817 0.9190609 -0.2786817 -0.2786817 0.9190609 -0.2786817 -0.2786817 0.9190609 -0.2786817 -0.2786817 0.9190609 -0.2786817 -0.2786817 0.9190609 -0.102004 -0.3806859 0.9190611 -0.102004 -0.3806859 0.9190611 -0.102004 -0.3806859 0.9190611 -0.1020037 -0.3806864 0.9190611 -0.1020037 -0.3806864 0.9190611 -0.1020037 -0.3806864 0.9190611 0.1020041 -0.3806862 0.9190611 0.1020041 -0.3806862 0.9190611 0.1020041 -0.3806862 0.9190611 0.1020036 -0.380686 0.9190612 0.1020036 -0.380686 0.9190612 0.1020036 -0.380686 0.9190612 0.2786817 -0.2786817 0.9190609 0.2786817 -0.2786817 0.9190609 0.2786817 -0.2786817 0.9190609 0.2786817 -0.2786817 0.9190609 0.2786817 -0.2786817 0.9190609 0.2786817 -0.2786817 0.9190609 0.3806859 -0.102004 0.9190611 0.3806859 -0.102004 0.9190611 0.3806859 -0.102004 0.9190611 0.3806864 -0.1020037 0.9190611 0.3806864 -0.1020037 0.9190611 0.3806864 -0.1020037 0.9190611 0.3806862 0.1020041 0.9190611 0.3806862 0.1020041 0.9190611 0.3806862 0.1020041 0.9190611 0.380686 0.1020036 0.9190612 0.380686 0.1020036 0.9190612 0.380686 0.1020036 0.9190612 0.2786817 0.2786817 0.9190609 0.2786817 0.2786817 0.9190609 0.2786817 0.2786817 0.9190609 0.2786817 0.2786817 0.9190609 0.2786817 0.2786817 0.9190609 0.2786817 0.2786817 0.9190609 0.102004 0.3806859 0.9190611 0.102004 0.3806859 0.9190611 0.102004 0.3806859 0.9190611 0.1020037 0.3806864 0.9190611 0.1020037 0.3806864 0.9190611 0.1020037 0.3806864 0.9190611 -0.1020041 0.3806862 0.9190611 -0.1020041 0.3806862 0.9190611 -0.1020041 0.3806862 0.9190611 -0.1020036 0.380686 0.9190612 -0.1020036 0.380686 0.9190612 -0.1020036 0.380686 0.9190612 -0.2786817 0.2786817 0.9190609 -0.2786817 0.2786817 0.9190609 -0.2786817 0.2786817 0.9190609 -0.2786817 0.2786817 0.9190609 -0.2786817 0.2786817 0.9190609 -0.2786817 0.2786817 0.9190609 -0.3806859 0.102004 0.9190611 -0.3806859 0.102004 0.9190611 -0.3806859 0.102004 0.9190611 -0.3806864 0.1020037 0.9190611 -0.3806864 0.1020037 0.9190611 -0.3806864 0.1020037 0.9190611 -0.1304458 -0.0349525 0.9908392 -0.1304458 -0.0349525 0.9908392 -0.1304458 -0.0349525 0.9908392 1.0 0.0 0.0 1.0 0.0 0.0 -0.0954928 -0.0954928 0.9908392 -0.0954928 -0.0954928 0.9908392 -0.0954928 -0.0954928 0.9908392 1.0 0.0 0.0 1.0 0.0 0.0 -0.0349525 -0.1304458 0.9908391 -0.0349525 -0.1304458 0.9908391 -0.0349525 -0.1304458 0.9908391 1.0 0.0 0.0 1.0 0.0 0.0 0.0349525 -0.1304458 0.9908392 0.0349525 -0.1304458 0.9908392 0.0349525 -0.1304458 0.9908392 1.0 0.0 0.0 1.0 0.0 0.0 0.0954928 -0.0954928 0.9908392 0.0954928 -0.0954928 0.9908392 0.0954928 -0.0954928 0.9908392 1.0 0.0 0.0 1.0 0.0 0.0 0.1304458 -0.0349525 0.9908391 0.1304458 -0.0349525 0.9908391 0.1304458 -0.0349525 0.9908391 1.0 0.0 0.0 1.0 0.0 0.0 0.1304458 0.0349525 0.9908392 0.1304458 0.0349525 0.9908392 0.1304458 0.0349525 0.9908392 1.0 0.0 0.0 1.0 0.0 0.0 0.0954928 0.0954928 0.9908392 0.0954928 0.0954928 0.9908392 0.0954928 0.0954928 0.9908392 1.0 0.0 0.0 1.0 0.0 0.0 0.0349525 0.1304458 0.9908391 0.0349525 0.1304458 0.9908391 0.0349525 0.1304458 0.9908391 1.0 0.0 0.0 1.0 0.0 0.0 -0.0349525 0.1304458 0.9908392 -0.0349525 0.1304458 0.9908392 -0.0349525 0.1304458 0.9908392 1.0 0.0 0.0 1.0 0.0 0.0 -0.0954928 0.0954928 0.9908392 -0.0954928 0.0954928 0.9908392 -0.0954928 0.0954928 0.9908392 1.0 0.0 0.0 1.0 0.0 0.0 -0.1304458 0.0349525 0.9908391 -0.1304458 0.0349525 0.9908391 -0.1304458 0.0349525 0.9908391 1.0 0.0 0.0 1.0 0.0 0.0 1.0 0.0 0.0 1.0 0.0 0.0 -0.1304459 -0.0349526 -0.9908392 -0.1304459 -0.0349526 -0.9908392 -0.1304459 -0.0349526 -0.9908392 1.0 0.0 0.0 1.0 0.0 0.0 -0.0954929 -0.0954929 -0.9908391 -0.0954929 -0.0954929 -0.9908391 -0.0954929 -0.0954929 -0.9908391 1.0 0.0 0.0 1.0 0.0 0.0 -0.0349526 -0.1304459 -0.9908391 -0.0349526 -0.1304459 -0.9908391 -0.0349526 -0.1304459 -0.9908391 1.0 0.0 0.0 1.0 0.0 0.0 0.0349526 -0.1304459 -0.9908392 0.0349526 -0.1304459 -0.9908392 0.0349526 -0.1304459 -0.9908392 1.0 0.0 0.0 1.0 0.0 0.0 0.0954929 -0.0954929 -0.9908391 0.0954929 -0.0954929 -0.9908391 0.0954929 -0.0954929 -0.9908391 1.0 0.0 0.0 1.0 0.0 0.0 0.1304459 -0.0349526 -0.9908391 0.1304459 -0.0349526 -0.9908391 0.1304459 -0.0349526 -0.9908391 1.0 0.0 0.0 1.0 0.0 0.0 0.1304459 0.0349526 -0.9908392 0.1304459 0.0349526 -0.9908392 0.1304459 0.0349526 -0.9908392 1.0 0.0 0.0 1.0 0.0 0.0 0.0954929 0.0954929 -0.9908391 0.0954929 0.0954929 -0.9908391 0.0954929 0.0954929 -0.9908391 1.0 0.0 0.0 1.0 0.0 0.0 0.0349526 0.1304459 -0.9908391 0.0349526 0.1304459 -0.9908391 0.0349526 0.1304459 -0.9908391 1.0 0.0 0.0 1.0 0.0 0.0 -0.0349526 0.1304459 -0.9908392 -0.0349526 0.1304459 -0.9908392 -0.0349526 0.1304459 -0.9908392 1.0 0.0 0.0 1.0 0.0 0.0 -0.0954929 0.0954929 -0.9908391 -0.0954929 0.0954929 -0.9908391 -0.0954929 0.0954929 -0.9908391 1.0 0.0 0.0 1.0 0.0 0.0 -0.1304459 0.0349526 -0.9908391 -0.1304459 0.0349526 -0.9908391 -0.1304459 0.0349526 -0.9908391 -0.3806892 -0.1020045 -0.9190598 -0.3806892 -0.1020045 -0.9190598 -0.3806892 -0.1020045 -0.9190598 -0.3806888 -0.1020048 -0.9190599 -0.3806888 -0.1020048 -0.9190599 -0.3806888 -0.1020048 -0.9190599 -0.2786838 -0.2786838 -0.9190596 -0.2786838 -0.2786838 -0.9190596 -0.2786838 -0.2786838 -0.9190596 -0.2786838 -0.2786838 -0.9190597 -0.2786838 -0.2786838 -0.9190597 -0.2786838 -0.2786838 -0.9190597 -0.1020044 -0.3806888 -0.9190599 -0.1020044 -0.3806888 -0.9190599 -0.1020044 -0.3806888 -0.9190599 -0.1020048 -0.380689 -0.9190598 -0.1020048 -0.380689 -0.9190598 -0.1020048 -0.380689 -0.9190598 0.1020045 -0.3806892 -0.9190598 0.1020045 -0.3806892 -0.9190598 0.1020045 -0.3806892 -0.9190598 0.1020048 -0.3806888 -0.9190599 0.1020048 -0.3806888 -0.9190599 0.1020048 -0.3806888 -0.9190599 0.2786838 -0.2786838 -0.9190596 0.2786838 -0.2786838 -0.9190596 0.2786838 -0.2786838 -0.9190596 0.2786838 -0.2786838 -0.9190597 0.2786838 -0.2786838 -0.9190597 0.2786838 -0.2786838 -0.9190597 0.3806888 -0.1020044 -0.9190599 0.3806888 -0.1020044 -0.9190599 0.3806888 -0.1020044 -0.9190599 0.380689 -0.1020048 -0.9190598 0.380689 -0.1020048 -0.9190598 0.380689 -0.1020048 -0.9190598 0.3806892 0.1020045 -0.9190598 0.3806892 0.1020045 -0.9190598 0.3806892 0.1020045 -0.9190598 0.3806888 0.1020048 -0.9190599 0.3806888 0.1020048 -0.9190599 0.3806888 0.1020048 -0.9190599 0.2786838 0.2786838 -0.9190596 0.2786838 0.2786838 -0.9190596 0.2786838 0.2786838 -0.9190596 0.2786838 0.2786838 -0.9190597 0.2786838 0.2786838 -0.9190597 0.2786838 0.2786838 -0.9190597 0.1020044 0.3806888 -0.9190599 0.1020044 0.3806888 -0.9190599 0.1020044 0.3806888 -0.9190599 0.1020048 0.380689 -0.9190598 0.1020048 0.380689 -0.9190598 0.1020048 0.380689 -0.9190598 -0.1020045 0.3806892 -0.9190598 -0.1020045 0.3806892 -0.9190598 -0.1020045 0.3806892 -0.9190598 -0.1020048 0.3806888 -0.9190599 -0.1020048 0.3806888 -0.9190599 -0.1020048 0.3806888 -0.9190599 -0.2786838 0.2786838 -0.9190596 -0.2786838 0.2786838 -0.9190596 -0.2786838 0.2786838 -0.9190596 -0.2786838 0.2786838 -0.9190597 -0.2786838 0.2786838 -0.9190597 -0.2786838 0.2786838 -0.9190597 -0.3806888 0.1020044 -0.9190599 -0.3806888 0.1020044 -0.9190599 -0.3806888 0.1020044 -0.9190599 -0.380689 0.1020048 -0.9190598 -0.380689 0.1020048 -0.9190598 -0.380689 0.1020048 -0.9190598 -0.6008236 -0.1609895 -0.7830028 -0.6008236 -0.1609895 -0.7830028 -0.6008236 -0.1609895 -0.7830028 -0.6008212 -0.1609909 -0.7830043 -0.6008212 -0.1609909 -0.7830043 -0.6008212 -0.1609909 -0.7830043 -0.4398331 -0.4398331 -0.7830029 -0.4398331 -0.4398331 -0.7830029 -0.4398331 -0.4398331 -0.7830029 -0.4398331 -0.4398331 -0.7830029 -0.4398331 -0.4398331 -0.7830029 -0.4398331 -0.4398331 -0.7830029 -0.1609889 -0.6008214 -0.7830047 -0.1609889 -0.6008214 -0.7830047 -0.1609889 -0.6008214 -0.7830047 -0.1609914 -0.6008228 -0.7830032 -0.1609914 -0.6008228 -0.7830032 -0.1609914 -0.6008228 -0.7830032 0.1609895 -0.6008236 -0.7830028 0.1609895 -0.6008236 -0.7830028 0.1609895 -0.6008236 -0.7830028 0.1609909 -0.6008212 -0.7830043 0.1609909 -0.6008212 -0.7830043 0.1609909 -0.6008212 -0.7830043 0.4398331 -0.4398331 -0.7830029 0.4398331 -0.4398331 -0.7830029 0.4398331 -0.4398331 -0.7830029 0.4398331 -0.4398331 -0.7830029 0.4398331 -0.4398331 -0.7830029 0.4398331 -0.4398331 -0.7830029 0.6008214 -0.1609889 -0.7830047 0.6008214 -0.1609889 -0.7830047 0.6008214 -0.1609889 -0.7830047 0.6008228 -0.1609914 -0.7830032 0.6008228 -0.1609914 -0.7830032 0.6008228 -0.1609914 -0.7830032 0.6008236 0.1609895 -0.7830028 0.6008236 0.1609895 -0.7830028 0.6008236 0.1609895 -0.7830028 0.6008212 0.1609909 -0.7830043 0.6008212 0.1609909 -0.7830043 0.6008212 0.1609909 -0.7830043 0.4398331 0.4398331 -0.7830029 0.4398331 0.4398331 -0.7830029 0.4398331 0.4398331 -0.7830029 0.4398331 0.4398331 -0.7830029 0.4398331 0.4398331 -0.7830029 0.4398331 0.4398331 -0.7830029 0.1609889 0.6008214 -0.7830047 0.1609889 0.6008214 -0.7830047 0.1609889 0.6008214 -0.7830047 0.1609914 0.6008228 -0.7830032 0.1609914 0.6008228 -0.7830032 0.1609914 0.6008228 -0.7830032 -0.1609895 0.6008236 -0.7830028 -0.1609895 0.6008236 -0.7830028 -0.1609895 0.6008236 -0.7830028 -0.1609909 0.6008212 -0.7830043 -0.1609909 0.6008212 -0.7830043 -0.1609909 0.6008212 -0.7830043 -0.4398331 0.4398331 -0.7830029 -0.4398331 0.4398331 -0.7830029 -0.4398331 0.4398331 -0.7830029 -0.4398331 0.4398331 -0.7830029 -0.4398331 0.4398331 -0.7830029 -0.4398331 0.4398331 -0.7830029 -0.6008214 0.1609889 -0.7830047 -0.6008214 0.1609889 -0.7830047 -0.6008214 0.1609889 -0.7830047 -0.6008228 0.1609914 -0.7830032 -0.6008228 0.1609914 -0.7830032 -0.6008228 0.1609914 -0.7830032 -0.7760106 -0.2079332 -0.595459 -0.7760106 -0.2079332 -0.595459 -0.7760106 -0.2079332 -0.595459 -0.7760135 -0.2079314 -0.5954557 -0.7760135 -0.2079314 -0.5954557 -0.7760135 -0.2079314 -0.5954557 -0.5680794 -0.5680794 -0.5954592 -0.5680794 -0.5680794 -0.5954592 -0.5680794 -0.5680794 -0.5954592 -0.5680794 -0.5680794 -0.5954592 -0.5680794 -0.5680794 -0.5954592 -0.5680794 -0.5680794 -0.5954592 -0.2079339 -0.7760131 -0.5954555 -0.2079339 -0.7760131 -0.5954555 -0.2079339 -0.7760131 -0.5954555 -0.2079308 -0.7760115 -0.5954586 -0.2079308 -0.7760115 -0.5954586 -0.2079308 -0.7760115 -0.5954586 0.2079332 -0.7760106 -0.595459 0.2079332 -0.7760106 -0.595459 0.2079332 -0.7760106 -0.595459 0.2079314 -0.7760135 -0.5954557 0.2079314 -0.7760135 -0.5954557 0.2079314 -0.7760135 -0.5954557 0.5680794 -0.5680794 -0.5954592 0.5680794 -0.5680794 -0.5954592 0.5680794 -0.5680794 -0.5954592 0.5680794 -0.5680794 -0.5954592 0.5680794 -0.5680794 -0.5954592 0.5680794 -0.5680794 -0.5954592 0.7760131 -0.2079339 -0.5954555 0.7760131 -0.2079339 -0.5954555 0.7760131 -0.2079339 -0.5954555 0.7760115 -0.2079308 -0.5954586 0.7760115 -0.2079308 -0.5954586 0.7760115 -0.2079308 -0.5954586 0.7760106 0.2079332 -0.595459 0.7760106 0.2079332 -0.595459 0.7760106 0.2079332 -0.595459 0.7760135 0.2079314 -0.5954557 0.7760135 0.2079314 -0.5954557 0.7760135 0.2079314 -0.5954557 0.5680794 0.5680794 -0.5954592 0.5680794 0.5680794 -0.5954592 0.5680794 0.5680794 -0.5954592 0.5680794 0.5680794 -0.5954592 0.5680794 0.5680794 -0.5954592 0.5680794 0.5680794 -0.5954592 0.2079339 0.7760131 -0.5954555 0.2079339 0.7760131 -0.5954555 0.2079339 0.7760131 -0.5954555 0.2079308 0.7760115 -0.5954586 0.2079308 0.7760115 -0.5954586 0.2079308 0.7760115 -0.5954586 -0.2079332 0.7760106 -0.595459 -0.2079332 0.7760106 -0.595459 -0.2079332 0.7760106 -0.595459 -0.2079314 0.7760135 -0.5954557 -0.2079314 0.7760135 -0.5954557 -0.2079314 0.7760135 -0.5954557 -0.5680794 0.5680794 -0.5954592 -0.5680794 0.5680794 -0.5954592 -0.5680794 0.5680794 -0.5954592 -0.5680794 0.5680794 -0.5954592 -0.5680794 0.5680794 -0.5954592 -0.5680794 0.5680794 -0.5954592 -0.7760131 0.2079339 -0.5954555 -0.7760131 0.2079339 -0.5954555 -0.7760131 0.2079339 -0.5954555 -0.7760115 0.2079308 -0.5954586 -0.7760115 0.2079308 -0.5954586 -0.7760115 0.2079308 -0.5954586 -0.8968095 -0.2402984 -0.3714692 -0.8968095 -0.2402984 -0.3714692 -0.8968095 -0.2402984 -0.3714692 -0.896808 -0.2402999 -0.3714722 -0.896808 -0.2402999 -0.3714722 -0.896808 -0.2402999 -0.3714722 -0.6565099 -0.6565099 -0.3714692 -0.6565099 -0.6565099 -0.3714692 -0.6565099 -0.6565099 -0.3714692 -0.6565099 -0.6565099 -0.3714692 -0.6565099 -0.6565099 -0.3714692 -0.6565099 -0.6565099 -0.3714692 -0.2402981 -0.8968083 -0.3714724 -0.2402981 -0.8968083 -0.3714724 -0.2402981 -0.8968083 -0.3714724 -0.2403001 -0.896809 -0.3714693 -0.2403001 -0.896809 -0.3714693 -0.2403001 -0.896809 -0.3714693 0.2402984 -0.8968095 -0.3714692 0.2402984 -0.8968095 -0.3714692 0.2402984 -0.8968095 -0.3714692 0.2402999 -0.896808 -0.3714722 0.2402999 -0.896808 -0.3714722 0.2402999 -0.896808 -0.3714722 0.6565099 -0.6565099 -0.3714692 0.6565099 -0.6565099 -0.3714692 0.6565099 -0.6565099 -0.3714692 0.6565099 -0.6565099 -0.3714692 0.6565099 -0.6565099 -0.3714692 0.6565099 -0.6565099 -0.3714692 0.8968083 -0.2402981 -0.3714724 0.8968083 -0.2402981 -0.3714724 0.8968083 -0.2402981 -0.3714724 0.896809 -0.2403001 -0.3714693 0.896809 -0.2403001 -0.3714693 0.896809 -0.2403001 -0.3714693 0.8968095 0.2402984 -0.3714692 0.8968095 0.2402984 -0.3714692 0.8968095 0.2402984 -0.3714692 0.896808 0.2402999 -0.3714722 0.896808 0.2402999 -0.3714722 0.896808 0.2402999 -0.3714722 0.6565099 0.6565099 -0.3714692 0.6565099 0.6565099 -0.3714692 0.6565099 0.6565099 -0.3714692 0.6565099 0.6565099 -0.3714692 0.6565099 0.6565099 -0.3714692 0.6565099 0.6565099 -0.3714692 0.2402981 0.8968083 -0.3714724 0.2402981 0.8968083 -0.3714724 0.2402981 0.8968083 -0.3714724 0.2403001 0.896809 -0.3714693 0.2403001 0.896809 -0.3714693 0.2403001 0.896809 -0.3714693</float_array>
                    <technique_common>
                        <accessor count="840" source="#geometry0-normal-array" stride="3">
                            <param name="X" type="float"/>
                            <param name="Y" type="float"/>
                            <param name="Z" type="float"/>
                        </accessor>
                    </technique_common>
                </source>
                <vertices id="geometry0-vertex">
                    <input semantic="POSITION" source="#geometry0-position"/>
                </vertices>
                <triangles count="288" material="default_ai_0.2_sh_0.2_tr_0.0_dc_r_0.8_g_0.8_b_0.8_sc_r_1.0_g_1.0_b_1.0_ec_r_0.0_g_0.0_b_0_tri">
                    <input offset="0" semantic="VERTEX" source="#geometry0-vertex"/>
                    <input offset="1" semantic="NORMAL" source="#geometry0-normal"/>
                    <p>46 0 47 1 59 2 46 3 59 4 58 5 47 6 48 7 60 8 47 9 60 10 59 11 48 12 38 13 50 14 48 15 50 16 60 17 50 18 49 19 61 20 50 21 61 22 62 23 49 24 51 25 63 26 49 27 63 28 61 29 51 30 52 31 64 32 51 33 64 34 63 35 52 36 53 37 65 38 52 39 65 40 64 41 53 42 54 43 66 44 53 45 66 46 65 47 54 48 55 49 67 50 54 51 67 52 66 53 55 54 56 55 68 56 55 57 68 58 67 59 56 60 57 61 69 62 56 63 69 64 68 65 57 66 58 67 70 68 57 69 70 70 69 71 58 72 59 73 71 74 58 75 71 76 70 77 59 78 60 79 72 80 59 81 72 82 71 83 60 84 50 85 62 86 60 87 62 88 72 89 62 90 61 91 73 92 62 93 73 94 74 95 61 96 63 97 75 98 61 99 75 100 73 101 63 102 64 103 76 104 63 105 76 106 75 107 64 108 65 109 77 110 64 111 77 112 76 113 65 114 66 115 78 116 65 117 78 118 77 119 66 120 67 121 79 122 66 123 79 124 78 125 67 126 68 127 80 128 67 129 80 130 79 131 68 132 69 133 81 134 68 135 81 136 80 137 69 138 70 139 82 140 69 141 82 142 81 143 70 144 71 145 83 146 70 147 83 148 82 149 71 150 72 151 84 152 71 153 84 154 83 155 72 156 62 157 74 158 72 159 74 160 84 161 74 162 73 163 85 164 74 165 85 166 86 167 73 168 75 169 87 170 73 171 87 172 85 173 75 174 76 175 88 176 75 177 88 178 87 179 76 180 77 181 89 182 76 183 89 184 88 185 77 186 78 187 90 188 77 189 90 190 89 191 78 192 79 193 91 194 78 195 91 196 90 197 79 198 80 199 92 200 79 201 92 202 91 203 80 204 81 205 93 206 80 207 93 208 92 209 81 210 82 211 94 212 81 213 94 214 93 215 82 216 83 217 95 218 82 219 95 220 94 221 83 222 84 223 96 224 83 225 96 226 95 227 84 228 74 229 86 230 84 231 86 232 96 233 86 234 85 235 97 236 86 237 97 238 98 239 85 240 87 241 99 242 85 243 99 244 97 245 87 246 88 247 100 248 87 249 100 250 99 251 88 252 89 253 101 254 88 255 101 256 100 257 89 258 90 259 102 260 89 261 102 262 101 263 90 264 91 265 103 266 90 267 103 268 102 269 91 270 92 271 104 272 91 273 104 274 103 275 92 276 93 277 105 278 92 279 105 280 104 281 93 282 94 283 106 284 93 285 106 286 105 287 94 288 95 289 107 290 94 291 107 292 106 293 95 294 96 295 108 296 95 297 108 298 107 299 96 300 86 301 98 302 96 303 98 304 108 305 98 306 97 307 109 308 98 309 109 310 110 311 97 312 99 313 111 314 97 315 111 316 109 317 99 318 100 319 112 320 99 321 112 322 111 323 100 324 101 325 113 326 100 327 113 328 112 329 101 330 102 331 114 332 101 333 114 334 113 335 102 336 103 337 115 338 102 339 115 340 114 341 103 342 104 343 116 344 103 345 116 346 115 347 104 348 105 349 117 350 104 351 117 352 116 353 105 354 106 355 118 356 105 357 118 358 117 359 106 360 107 361 119 362 106 363 119 364 118 365 107 366 108 367 120 368 107 369 120 370 119 371 108 372 98 373 110 374 108 375 110 376 120 377 110 378 109 379 121 380 110 381 121 382 122 383 109 384 111 385 123 386 109 387 123 388 121 389 111 390 112 391 124 392 111 393 124 394 123 395 112 396 113 397 125 398 112 399 125 400 124 401 113 402 114 403 126 404 113 405 126 406 125 407 114 408 115 409 127 410 114 411 127 412 126 413 115 414 116 415 128 416 115 417 128 418 127 419 116 420 117 421 129 422 116 423 129 424 128 425 117 426 118 427 130 428 117 429 130 430 129 431 118 432 119 433 131 434 118 435 131 436 130 437 119 438 120 439 132 440 119 441 132 442 131 443 120 444 110 445 122 446 120 447 122 448 132 449 122 450 121 451 133 452 122 453 133 454 133 454 121 455 123 456 133 457 121 458 133 459 133 459 123 460 124 461 133 462 123 463 133 464 133 464 124 465 125 466 133 467 124 468 133 469 133 469 125 470 126 471 133 472 125 473 133 474 133 474 126 475 127 476 133 477 126 478 133 479 133 479 127 480 128 481 133 482 127 483 133 484 133 484 128 485 129 486 133 487 128 488 133 489 133 489 129 490 130 491 133 492 129 493 133 494 133 494 130 495 131 496 133 497 130 498 133 499 133 499 131 500 132 501 133 502 131 503 133 504 133 504 132 505 122 506 133 507 132 508 133 509 133 509 0 510 0 510 1 511 0 512 1 513 2 514 0 515 0 515 3 516 0 517 3 518 1 519 0 520 0 520 4 521 0 522 4 523 3 524 0 525 0 525 5 526 0 527 5 528 4 529 0 530 0 530 6 531 0 532 6 533 5 534 0 535 0 535 7 536 0 537 7 538 6 539 0 540 0 540 8 541 0 542 8 543 7 544 0 545 0 545 9 546 0 547 9 548 8 549 0 550 0 550 10 551 0 552 10 553 9 554 0 555 0 555 11 556 0 557 11 558 10 559 0 560 0 560 12 561 0 562 12 563 11 564 0 565 0 565 2 566 0 567 2 568 12 569 2 570 1 571 13 572 2 573 13 574 14 575 1 576 3 577 15 578 1 579 15 580 13 581 3 582 4 583 16 584 3 585 16 586 15 587 4 588 5 589 17 590 4 591 17 592 16 593 5 594 6 595 18 596 5 597 18 598 17 599 6 600 7 601 19 602 6 603 19 604 18 605 7 606 8 607 20 608 7 609 20 610 19 611 8 612 9 613 21 614 8 615 21 616 20 617 9 618 10 619 22 620 9 621 22 622 21 623 10 624 11 625 23 626 10 627 23 628 22 629 11 630 12 631 24 632 11 633 24 634 23 635 12 636 2 637 14 638 12 639 14 640 24 641 14 642 13 643 25 644 14 645 25 646 26 647 13 648 15 649 27 650 13 651 27 652 25 653 15 654 16 655 28 656 15 657 28 658 27 659 16 660 17 661 29 662 16 663 29 664 28 665 17 666 18 667 30 668 17 669 30 670 29 671 18 672 19 673 31 674 18 675 31 676 30 677 19 678 20 679 32 680 19 681 32 682 31 683 20 684 21 685 33 686 20 687 33 688 32 689 21 690 22 691 34 692 21 693 34 694 33 695 22 696 23 697 35 698 22 699 35 700 34 701 23 702 24 703 36 704 23 705 36 706 35 707 24 708 14 709 26 710 24 711 26 712 36 713 26 714 25 715 37 716 26 717 37 718 38 719 25 720 27 721 39 722 25 723 39 724 37 725 27 726 28 727 40 728 27 729 40 730 39 731 28 732 29 733 41 734 28 735 41 736 40 737 29 738 30 739 42 740 29 741 42 742 41 743 30 744 31 745 43 746 30 747 43 748 42 749 31 750 32 751 44 752 31 753 44 754 43 755 32 756 33 757 45 758 32 759 45 760 44 761 33 762 34 763 46 764 33 765 46 766 45 767 34 768 35 769 47 770 34 771 47 772 46 773 35 774 36 775 48 776 35 777 48 778 47 779 36 780 26 781 38 782 36 783 38 784 48 785 38 786 37 787 49 788 38 789 49 790 50 791 37 792 39 793 51 794 37 795 51 796 49 797 39 798 40 799 52 800 39 801 52 802 51 803 40 804 41 805 53 806 40 807 53 808 52 809 41 810 42 811 54 812 41 813 54 814 53 815 42 816 43 817 55 818 42 819 55 820 54 821 43 822 44 823 56 824 43 825 56 826 55 827 44 828 45 829 57 830 44 831 57 832 56 833 45 834 46 835 58 836 45 837 58 838 57 839</p>
                </triangles>
            </mesh>
        </geometry>
    </library_geometries>
    <library_visual_scenes>
        <visual_scene id="Building_157_CROWN1">
            <node>
                <instance_geometry url="#geometry0">
                    <bind_material>
                        <technique_common>
                            <instance_material symbol="default_ai_0.2_sh_0.2_tr_0.0_dc_r_0.8_g_0.8_b_0.8_sc_r_1.0_g_1.0_b_1.0_ec_r_0.0_g_0.0_b_0_tri" target="#default_ai_0.2_sh_0.2_tr_0.0_dc_r_0.8_g_0.8_b_0.8_sc_r_1.0_g_1.0_b_1.0_ec_r_0.0_g_0.0_b_0_mat"/>
                        </technique_common>
                    </bind_material>
                </instance_geometry>
            </node>
        </visual_scene>
    </library_visual_scenes>
    <scene>
        <instance_visual_scene url="#Building_157_CROWN1"/>
    </scene>
</COLLADA>
