<?xml version="1.0" encoding="UTF-8" standalone="yes"?>
<COLLADA xmlns="http://www.collada.org/2005/11/COLLADASchema" version="1.4.1">
    <asset>
        <contributor>
            <authoring_tool>3D City Database Importer/Exporter, version 5.5.3; Chair of Geoinformatics, Technical University of Munich</authoring_tool>
        </contributor>
        <created>2026-09-25T14:44:58.947</created>
        <modified>2026-09-25T14:44:58.947</modified>
        <unit meter="1.0" name="meters"/>
        <up_axis>Z_UP</up_axis>
    </asset>
    <library_materials>
        <material id="default_ai_0.2_sh_0.2_tr_0.0_dc_r_0.8_g_0.8_b_0.8_sc_r_1.0_g_1.0_b_1.0_ec_r_0.0_g_0.0_b_0_mat">
            <instance_effect url="#default_ai_0.2_sh_0.2_tr_0.0_dc_r_0.8_g_0.8_b_0.8_sc_r_1.0_g_1.0_b_1.0_ec_r_0.0_g_0.0_b_0_eff"/>
        </material>
    </library_materials>
    <library_effects>
        <effect id="default_ai_0.2_sh_0.2_tr_0.0_dc_r_0.8_g_0.8_b_0.8_sc_r_1.0_g_1.0_b_1.0_ec_r_0.0_g_0.0_b_0_eff">
            <profile_COMMON>
                <technique sid="COMMON">
                    <lambert>
                        <emission>
                            <color>0.0 0.0 0.0 1.0</color>
                        </emission>
                        <diffuse>
                            <color>0.8 0.8 0.8 1.0</color>
                        </diffuse>
                        <reflective>
                            <color>1.0 1.0 1.0 1.0</color>
                        </reflective>
                        <reflectivity>
                            <float>0.2</float>
                        </reflectivity>
                        <transparent opaque="A_ONE">
                            <color>1.0 1.0 1.0 1.0</color>
                        </transparent>
                        <transparency>
                            <float>1.0</float>
                        </transparency>
                    </lambert>
                </technique>
                <extra>
                    <technique profile="GOOGLEEARTH">
                        <double_sided>0</double_sided>
                    </technique>
                </extra>
            </profile_COMMON>
        </effect>
    </library_effects>
    <library_geometries>
        <geometry id="geometry0">
            <mesh>
                <source id="geometry0-position">
                    <float_array id="geometry0-position-array" count="402">0.0 0.0 5.5 0.616396 0.3558775 5.4062965 0.7117522 0.0 5.4062965 0.3558775 0.616396 5.4062965 0.0 0.7117522 5.4062965 -0.3558775 0.616396 5.4062965 -0.616396 0.3558775 5.4062965 -0.7117522 0.0 5.4062965 -0.616396 -0.3558775 5.4062965 -0.3558775 -0.616396 5.4062965 0.0 -0.7117522 5.4062965 0.3558775 -0.616396 5.4062965 0.616396 -0.3558775 5.4062965 1.1907857 0.6875 5.1315687 1.375 0.0 5.1315687 0.6875 1.1907857 5.1315687 0.0 1.375 5.1315687 -0.6875 1.1907857 5.1315687 -1.1907857 0.6875 5.1315687 -1.375 0.0 5.1315687 -1.1907857 -0.6875 5.1315687 -0.6875 -1.1907857 5.1315687 0.0 -1.375 5.1315687 0.6875 -1.1907857 5.1315687 1.1907857 -0.6875 5.1315687 1.684023 0.9722708 4.6945442 1.9445442 0.0 4.6945442 0.9722707 1.684023 4.6945442 0.0 1.9445443 4.6945442 -0.9722707 1.684023 4.6945442 -1.684023 0.9722708 4.6945442 -1.9445442 0.0 4.6945442 -1.684023 -0.9722708 4.6945442 -0.9722707 -1.684023 4.6945442 0.0 -1.9445443 4.6945442 0.9722707 -1.684023 4.6945442 1.684023 -0.9722708 4.6945442 2.0625 1.1907857 4.125 2.3815688 0.0 4.125 1.1907857 2.0625 4.125 0.0 2.3815688 4.125 -1.1907857 2.0625 4.125 -2.0625 1.1907857 4.125 -2.3815688 0.0 4.125 -2.0625 -1.1907857 4.125 -1.1907857 -2.0625 4.125 0.0 -2.3815688 4.125 1.1907857 -2.0625 4.125 2.0625 -1.1907857 4.125 2.300419 1.3281482 3.4617522 2.6562965 0.0 3.4617522 1.3281483 2.300419 3.4617522 0.0 2.6562965 3.4617522 -1.3281483 2.300419 3.4617522 -2.300419 1.3281482 3.4617522 -2.6562965 0.0 3.4617522 -2.300419 -1.3281482 3.4617522 -1.3281483 -2.300419 3.4617522 0.0 -2.6562965 3.4617522 1.3281483 -2.300419 3.4617522 2.300419 -1.3281482 3.4617522 2.3815688 1.375 2.75 2.75 0.0 2.75 1.375 2.3815688 2.75 0.0 2.75 2.75 -1.375 2.3815688 2.75 -2.3815688 1.375 2.75 -2.75 0.0 2.75 -2.3815688 -1.375 2.75 -1.375 -2.3815688 2.75 0.0 -2.75 2.75 1.375 -2.3815688 2.75 2.3815688 -1.375 2.75 2.300419 1.3281482 2.0382477 2.6562965 0.0 2.0382477 1.3281483 2.300419 2.0382477 0.0 2.6562965 2.0382477 -1.3281483 2.300419 2.0382477 -2.300419 1.3281482 2.0382477 -2.6562965 0.0 2.0382477 -2.300419 -1.3281482 2.0382477 -1.3281483 -2.300419 2.0382477 0.0 -2.6562965 2.0382477 1.3281483 -2.300419 2.0382477 2.300419 -1.3281482 2.0382477 2.0625 1.1907857 1.375 2.3815688 0.0 1.375 1.1907857 2.0625 1.375 0.0 2.3815688 1.375 -1.1907857 2.0625 1.375 -2.0625 1.1907857 1.375 -2.3815688 0.0 1.375 -2.0625 -1.1907857 1.375 -1.1907857 -2.0625 1.375 0.0 -2.3815688 1.375 1.1907857 -2.0625 1.375 2.0625 -1.1907857 1.375 1.684023 0.9722708 0.8054557 1.9445442 0.0 0.8054557 0.9722707 1.684023 0.8054557 0.0 1.9445443 0.8054557 -0.9722707 1.684023 0.8054557 -1.684023 0.9722708 0.8054557 -1.9445442 0.0 0.8054557 -1.684023 -0.9722708 0.8054557 -0.9722707 -1.684023 0.8054557 0.0 -1.9445443 0.8054557 0.9722707 -1.684023 0.8054557 1.684023 -0.9722708 0.8054557 1.1907857 0.6875 0.3684312 1.375 0.0 0.3684312 0.6875 1.1907857 0.3684312 0.0 1.375 0.3684312 -0.6875 1.1907857 0.3684312 -1.1907857 0.6875 0.3684312 -1.375 0.0 0.3684312 -1.1907857 -0.6875 0.3684312 -0.6875 -1.1907857 0.3684312 0.0 -1.375 0.3684312 0.6875 -1.1907857 0.3684312 1.1907857 -0.6875 0.3684312 0.616396 0.3558775 0.0937035 0.7117522 0.0 0.0937035 0.3558775 0.616396 0.0937035 0.0 0.7117522 0.0937035 -0.3558775 0.616396 0.0937035 -0.616396 0.3558775 0.0937035 -0.7117522 0.0 0.0937035 -0.616396 -0.3558775 0.0937035 -0.3558775 -0.616396 0.0937035 0.0 -0.7117522 0.0937035 0.3558775 -0.616396 0.0937035 0.616396 -0.3558775 0.0937035 0.0 0.0 0.0</float_array>
                    <technique_common>
                        <accessor count="134" source="#geometry0-position-array" stride="3">
                            <param name="X" type="float"/>
                            <param name="Y" type="float"/>
                            <param name="Z" type="float"/>
                        </accessor>
                    </technique_common>
                </source>
                <source id="geometry0-normal">
                    <float_array id="geometry0-normal-array" count="2520">-0.0349525 0.1304458 0.9908391 -0.0349525 0.1304458 0.9908391 -0.0349525 0.1304458 0.9908391 1.0 0.0 0.0 1.0 0.0 0.0 -0.0954928 0.0954928 0.9908392 -0.0954928 0.0954928 0.9908392 -0.0954928 0.0954928 0.9908392 1.0 0.0 0.0 1.0 0.0 0.0 -0.1304458 0.0349525 0.9908391 -0.1304458 0.0349525 0.9908391 -0.1304458 0.0349525 0.9908391 1.0 0.0 0.0 1.0 0.0 0.0 1.0 0.0 0.0 1.0 0.0 0.0 -0.1304455 -0.0349524 -0.9908392 -0.1304455 -0.0349524 -0.9908392 -0.1304455 -0.0349524 -0.9908392 1.0 0.0 0.0 1.0 0.0 0.0 -0.0954925 -0.0954925 -0.9908392 -0.0954925 -0.0954925 -0.9908392 -0.0954925 -0.0954925 -0.9908392 1.0 0.0 0.0 1.0 0.0 0.0 -0.0349525 -0.1304455 -0.9908392 -0.0349525 -0.1304455 -0.9908392 -0.0349525 -0.1304455 -0.9908392 1.0 0.0 0.0 1.0 0.0 0.0 0.0349524 -0.1304455 -0.9908392 0.0349524 -0.1304455 -0.9908392 0.0349524 -0.1304455 -0.9908392 1.0 0.0 0.0 1.0 0.0 0.0 0.0954925 -0.0954925 -0.9908392 0.0954925 -0.0954925 -0.9908392 0.0954925 -0.0954925 -0.9908392 1.0 0.0 0.0 1.0 0.0 0.0 0.1304455 -0.0349525 -0.9908392 0.1304455 -0.0349525 -0.9908392 0.1304455 -0.0349525 -0.9908392 1.0 0.0 0.0 1.0 0.0 0.0 0.1304455 0.0349524 -0.9908392 0.1304455 0.0349524 -0.9908392 0.1304455 0.0349524 -0.9908392 1.0 0.0 0.0 1.0 0.0 0.0 0.0954925 0.0954925 -0.9908392 0.0954925 0.0954925 -0.9908392 0.0954925 0.0954925 -0.9908392 1.0 0.0 0.0 1.0 0.0 0.0 0.0349525 0.1304455 -0.9908392 0.0349525 0.1304455 -0.9908392 0.0349525 0.1304455 -0.9908392 1.0 0.0 0.0 1.0 0.0 0.0 -0.0349524 0.1304455 -0.9908392 -0.0349524 0.1304455 -0.9908392 -0.0349524 0.1304455 -0.9908392 1.0 0.0 0.0 1.0 0.0 0.0 -0.0954925 0.0954925 -0.9908392 -0.0954925 0.0954925 -0.9908392 -0.0954925 0.0954925 -0.9908392 1.0 0.0 0.0 1.0 0.0 0.0 -0.1304455 0.0349525 -0.9908392 -0.1304455 0.0349525 -0.9908392 -0.1304455 0.0349525 -0.9908392 -0.3806896 -0.1020046 -0.9190596 -0.3806896 -0.1020046 -0.9190596 -0.3806896 -0.1020046 -0.9190596 -0.3806892 -0.1020049 -0.9190597 -0.3806892 -0.1020049 -0.9190597 -0.3806892 -0.1020049 -0.9190597 -0.2786841 -0.2786841 -0.9190595 -0.2786841 -0.2786841 -0.9190595 -0.2786841 -0.2786841 -0.9190595 -0.2786841 -0.2786841 -0.9190595 -0.2786841 -0.2786841 -0.9190595 -0.2786841 -0.2786841 -0.9190595 -0.1020045 -0.3806892 -0.9190598 -0.1020045 -0.3806892 -0.9190598 -0.1020045 -0.3806892 -0.9190598 -0.102005 -0.3806895 -0.9190597 -0.102005 -0.3806895 -0.9190597 -0.102005 -0.3806895 -0.9190597 0.1020046 -0.3806896 -0.9190596 0.1020046 -0.3806896 -0.9190596 0.1020046 -0.3806896 -0.9190596 0.1020049 -0.3806892 -0.9190597 0.1020049 -0.3806892 -0.9190597 0.1020049 -0.3806892 -0.9190597 0.2786841 -0.2786841 -0.9190595 0.2786841 -0.2786841 -0.9190595 0.2786841 -0.2786841 -0.9190595 0.2786841 -0.2786841 -0.9190595 0.2786841 -0.2786841 -0.9190595 0.2786841 -0.2786841 -0.9190595 0.3806892 -0.1020045 -0.9190598 0.3806892 -0.1020045 -0.9190598 0.3806892 -0.1020045 -0.9190598 0.3806895 -0.102005 -0.9190597 0.3806895 -0.102005 -0.9190597 0.3806895 -0.102005 -0.9190597 0.3806896 0.1020046 -0.9190596 0.3806896 0.1020046 -0.9190596 0.3806896 0.1020046 -0.9190596 0.3806892 0.1020049 -0.9190597 0.3806892 0.1020049 -0.9190597 0.3806892 0.1020049 -0.9190597 0.2786841 0.2786841 -0.9190595 0.2786841 0.2786841 -0.9190595 0.2786841 0.2786841 -0.9190595 0.2786841 0.2786841 -0.9190595 0.2786841 0.2786841 -0.9190595 0.2786841 0.2786841 -0.9190595 0.1020045 0.3806892 -0.9190598 0.1020045 0.3806892 -0.9190598 0.1020045 0.3806892 -0.9190598 0.102005 0.3806895 -0.9190597 0.102005 0.3806895 -0.9190597 0.102005 0.3806895 -0.9190597 -0.1020046 0.3806896 -0.9190596 -0.1020046 0.3806896 -0.9190596 -0.1020046 0.3806896 -0.9190596 -0.1020049 0.3806892 -0.9190597 -0.1020049 0.3806892 -0.9190597 -0.1020049 0.3806892 -0.9190597 -0.2786841 0.2786841 -0.9190595 -0.2786841 0.2786841 -0.9190595 -0.2786841 0.2786841 -0.9190595 -0.2786841 0.2786841 -0.9190595 -0.2786841 0.2786841 -0.9190595 -0.2786841 0.2786841 -0.9190595 -0.3806892 0.1020045 -0.9190598 -0.3806892 0.1020045 -0.9190598 -0.3806892 0.1020045 -0.9190598 -0.3806895 0.102005 -0.9190597 -0.3806895 0.102005 -0.9190597 -0.3806895 0.102005 -0.9190597 -0.6008213 -0.1609889 -0.7830048 -0.6008213 -0.1609889 -0.7830048 -0.6008213 -0.1609889 -0.7830048 -0.600819 -0.1609902 -0.7830062 -0.600819 -0.1609902 -0.7830062 -0.600819 -0.1609902 -0.7830062 -0.4398314 -0.4398314 -0.7830048 -0.4398314 -0.4398314 -0.7830048 -0.4398314 -0.4398314 -0.7830048 -0.4398314 -0.4398314 -0.7830048 -0.4398314 -0.4398314 -0.7830048 -0.4398314 -0.4398314 -0.7830048 -0.1609883 -0.6008192 -0.7830064 -0.1609883 -0.6008192 -0.7830064 -0.1609883 -0.6008192 -0.7830064 -0.1609906 -0.6008205 -0.783005 -0.1609906 -0.6008205 -0.783005 -0.1609906 -0.6008205 -0.783005 0.1609889 -0.6008213 -0.7830048 0.1609889 -0.6008213 -0.7830048 0.1609889 -0.6008213 -0.7830048 0.1609902 -0.600819 -0.7830062 0.1609902 -0.600819 -0.7830062 0.1609902 -0.600819 -0.7830062 0.4398314 -0.4398314 -0.7830048 0.4398314 -0.4398314 -0.7830048 0.4398314 -0.4398314 -0.7830048 0.4398314 -0.4398314 -0.7830048 0.4398314 -0.4398314 -0.7830048 0.4398314 -0.4398314 -0.7830048 0.6008192 -0.1609883 -0.7830064 0.6008192 -0.1609883 -0.7830064 0.6008192 -0.1609883 -0.7830064 0.6008205 -0.1609906 -0.783005 0.6008205 -0.1609906 -0.783005 0.6008205 -0.1609906 -0.783005 0.6008213 0.1609889 -0.7830048 0.6008213 0.1609889 -0.7830048 0.6008213 0.1609889 -0.7830048 0.600819 0.1609902 -0.7830062 0.600819 0.1609902 -0.7830062 0.600819 0.1609902 -0.7830062 0.4398314 0.4398314 -0.7830048 0.4398314 0.4398314 -0.7830048 0.4398314 0.4398314 -0.7830048 0.4398314 0.4398314 -0.7830048 0.4398314 0.4398314 -0.7830048 0.4398314 0.4398314 -0.7830048 0.1609883 0.6008192 -0.7830064 0.1609883 0.6008192 -0.7830064 0.1609883 0.6008192 -0.7830064 0.1609906 0.6008205 -0.783005 0.1609906 0.6008205 -0.783005 0.1609906 0.6008205 -0.783005 -0.1609889 0.6008213 -0.7830048 -0.1609889 0.6008213 -0.7830048 -0.1609889 0.6008213 -0.7830048 -0.1609902 0.600819 -0.7830062 -0.1609902 0.600819 -0.7830062 -0.1609902 0.600819 -0.7830062 -0.4398314 0.4398314 -0.7830048 -0.4398314 0.4398314 -0.7830048 -0.4398314 0.4398314 -0.7830048 -0.4398314 0.4398314 -0.7830048 -0.4398314 0.4398314 -0.7830048 -0.4398314 0.4398314 -0.7830048 -0.6008192 0.1609883 -0.7830064 -0.6008192 0.1609883 -0.7830064 -0.6008192 0.1609883 -0.7830064 -0.6008205 0.1609906 -0.783005 -0.6008205 0.1609906 -0.783005 -0.6008205 0.1609906 -0.783005 -0.7760119 -0.2079334 -0.5954571 -0.7760119 -0.2079334 -0.5954571 -0.7760119 -0.2079334 -0.5954571 -0.7760148 -0.2079316 -0.595454 -0.7760148 -0.2079316 -0.595454 -0.7760148 -0.2079316 -0.595454 -0.5680803 -0.5680803 -0.5954574 -0.5680803 -0.5680803 -0.5954574 -0.5680803 -0.5680803 -0.5954574 -0.5680803 -0.5680803 -0.5954575 -0.5680803 -0.5680803 -0.5954575 -0.5680803 -0.5680803 -0.5954575 -0.207934 -0.7760144 -0.5954537 -0.207934 -0.7760144 -0.5954537 -0.207934 -0.7760144 -0.5954537 -0.2079311 -0.7760128 -0.5954568 -0.2079311 -0.7760128 -0.5954568 -0.2079311 -0.7760128 -0.5954568 0.2079334 -0.7760119 -0.5954571 0.2079334 -0.7760119 -0.5954571 0.2079334 -0.7760119 -0.5954571 0.2079316 -0.7760148 -0.595454 0.2079316 -0.7760148 -0.595454 0.2079316 -0.7760148 -0.595454 0.5680803 -0.5680803 -0.5954574 0.5680803 -0.5680803 -0.5954574 0.5680803 -0.5680803 -0.5954574 0.5680803 -0.5680803 -0.5954575 0.5680803 -0.5680803 -0.5954575 0.5680803 -0.5680803 -0.5954575 0.7760144 -0.207934 -0.5954537 0.7760144 -0.207934 -0.5954537 0.7760144 -0.207934 -0.5954537 0.7760128 -0.2079311 -0.5954568 0.7760128 -0.2079311 -0.5954568 0.7760128 -0.2079311 -0.5954568 0.7760119 0.2079334 -0.5954571 0.7760119 0.2079334 -0.5954571 0.7760119 0.2079334 -0.5954571 0.7760148 0.2079316 -0.595454 0.7760148 0.2079316 -0.595454 0.7760148 0.2079316 -0.595454 0.5680803 0.5680803 -0.5954574 0.5680803 0.5680803 -0.5954574 0.5680803 0.5680803 -0.5954574 0.5680803 0.5680803 -0.5954575 0.5680803 0.5680803 -0.5954575 0.5680803 0.5680803 -0.5954575 0.207934 0.7760144 -0.5954537 0.207934 0.7760144 -0.5954537 0.207934 0.7760144 -0.5954537 0.2079311 0.7760128 -0.5954568 0.2079311 0.7760128 -0.5954568 0.2079311 0.7760128 -0.5954568 -0.2079334 0.7760119 -0.5954571 -0.2079334 0.7760119 -0.5954571 -0.2079334 0.7760119 -0.5954571 -0.2079316 0.7760148 -0.595454 -0.2079316 0.7760148 -0.595454 -0.2079316 0.7760148 -0.595454 -0.5680803 0.5680803 -0.5954574 -0.5680803 0.5680803 -0.5954574 -0.5680803 0.5680803 -0.5954574 -0.5680803 0.5680803 -0.5954575 -0.5680803 0.5680803 -0.5954575 -0.5680803 0.5680803 -0.5954575 -0.7760144 0.207934 -0.5954537 -0.7760144 0.207934 -0.5954537 -0.7760144 0.207934 -0.5954537 -0.7760128 0.2079311 -0.5954568 -0.7760128 0.2079311 -0.5954568 -0.7760128 0.2079311 -0.5954568 -0.8968095 -0.2402983 -0.3714692 -0.8968095 -0.2402983 -0.3714692 -0.8968095 -0.2402983 -0.3714692 -0.8968079 -0.2402997 -0.3714721 -0.8968079 -0.2402997 -0.3714721 -0.8968079 -0.2402997 -0.3714721 -0.6565099 -0.6565099 -0.3714692 -0.6565099 -0.6565099 -0.3714692 -0.6565099 -0.6565099 -0.3714692 -0.6565099 -0.6565099 -0.3714691 -0.6565099 -0.6565099 -0.3714691 -0.6565099 -0.6565099 -0.3714691 -0.240298 -0.8968083 -0.3714723 -0.240298 -0.8968083 -0.3714723 -0.240298 -0.8968083 -0.3714723 -0.2403 -0.896809 -0.3714693 -0.2403 -0.896809 -0.3714693 -0.2403 -0.896809 -0.3714693 0.2402983 -0.8968095 -0.3714692 0.2402983 -0.8968095 -0.3714692 0.2402983 -0.8968095 -0.3714692 0.2402997 -0.8968079 -0.3714721 0.2402997 -0.8968079 -0.3714721 0.2402997 -0.8968079 -0.3714721 0.6565099 -0.6565099 -0.3714692 0.6565099 -0.6565099 -0.3714692 0.6565099 -0.6565099 -0.3714692 0.6565099 -0.6565099 -0.3714691 0.6565099 -0.6565099 -0.3714691 0.6565099 -0.6565099 -0.3714691 0.8968083 -0.240298 -0.3714723 0.8968083 -0.240298 -0.3714723 0.8968083 -0.240298 -0.3714723 0.896809 -0.2403 -0.3714693 0.896809 -0.2403 -0.3714693 0.896809 -0.2403 -0.3714693 0.8968095 0.2402983 -0.3714692 0.8968095 0.2402983 -0.3714692 0.8968095 0.2402983 -0.3714692 0.8968079 0.2402997 -0.3714721 0.8968079 0.2402997 -0.3714721 0.8968079 0.2402997 -0.3714721 0.6565099 0.6565099 -0.3714692 0.6565099 0.6565099 -0.3714692 0.6565099 0.6565099 -0.3714692 0.6565099 0.6565099 -0.3714691 0.6565099 0.6565099 -0.3714691 0.6565099 0.6565099 -0.3714691 0.240298 0.8968083 -0.3714723 0.240298 0.8968083 -0.3714723 0.240298 0.8968083 -0.3714723 0.2403 0.896809 -0.3714693 0.2403 0.896809 -0.3714693 0.2403 0.896809 -0.3714693 -0.2402983 0.8968095 -0.3714692 -0.2402983 0.8968095 -0.3714692 -0.2402983 0.8968095 -0.3714692 -0.2402997 0.8968079 -0.3714721 -0.2402997 0.8968079 -0.3714721 -0.2402997 0.8968079 -0.3714721 -0.6565099 0.6565099 -0.3714692 -0.6565099 0.6565099 -0.3714692 -0.6565099 0.6565099 -0.3714692 -0.6565099 0.6565099 -0.3714691 -0.6565099 0.6565099 -0.3714691 -0.6565099 0.6565099 -0.3714691 -0.8968083 0.240298 -0.3714723 -0.8968083 0.240298 -0.3714723 -0.8968083 0.240298 -0.3714723 -0.896809 0.2403 -0.3714693 -0.896809 0.2403 -0.3714693 -0.896809 0.2403 -0.3714693 -0.958209 -0.2567522 -0.12615 -0.958209 -0.2567522 -0.12615 -0.958209 -0.2567522 -0.12615 -0.958209 -0.2567522 -0.12615 -0.958209 -0.2567522 -0.12615 -0.958209 -0.2567522 -0.12615 -0.7014578 -0.7014578 -0.12615 -0.7014578 -0.7014578 -0.12615 -0.7014578 -0.7014578 -0.12615 -0.7014578 -0.7014578 -0.12615 -0.7014578 -0.7014578 -0.12615 -0.7014578 -0.7014578 -0.12615 -0.2567522 -0.958209 -0.12615 -0.2567522 -0.958209 -0.12615 -0.2567522 -0.958209 -0.12615 -0.2567522 -0.958209 -0.12615 -0.2567522 -0.958209 -0.12615 -0.2567522 -0.958209 -0.12615 0.2567522 -0.958209 -0.12615 0.2567522 -0.958209 -0.12615 0.2567522 -0.958209 -0.12615 0.2567522 -0.958209 -0.12615 0.2567522 -0.958209 -0.12615 0.2567522 -0.958209 -0.12615 0.7014578 -0.7014578 -0.12615 0.7014578 -0.7014578 -0.12615 0.7014578 -0.7014578 -0.12615 0.7014578 -0.7014578 -0.12615 0.7014578 -0.7014578 -0.12615 0.7014578 -0.7014578 -0.12615 0.958209 -0.2567522 -0.12615 0.958209 -0.2567522 -0.12615 0.958209 -0.2567522 -0.12615 0.958209 -0.2567522 -0.12615 0.958209 -0.2567522 -0.12615 0.958209 -0.2567522 -0.12615 0.958209 0.2567522 -0.12615 0.958209 0.2567522 -0.12615 0.958209 0.2567522 -0.12615 0.958209 0.2567522 -0.12615 0.958209 0.2567522 -0.12615 0.958209 0.2567522 -0.12615 0.7014578 0.7014578 -0.12615 0.7014578 0.7014578 -0.12615 0.7014578 0.7014578 -0.12615 0.7014578 0.7014578 -0.12615 0.7014578 0.7014578 -0.12615 0.7014578 0.7014578 -0.12615 0.2567522 0.958209 -0.12615 0.2567522 0.958209 -0.12615 0.2567522 0.958209 -0.12615 0.2567522 0.958209 -0.12615 0.2567522 0.958209 -0.12615 0.2567522 0.958209 -0.12615 -0.2567522 0.958209 -0.12615 -0.2567522 0.958209 -0.12615 -0.2567522 0.958209 -0.12615 -0.2567522 0.958209 -0.12615 -0.2567522 0.958209 -0.12615 -0.2567522 0.958209 -0.12615 -0.7014578 0.7014578 -0.12615 -0.7014578 0.7014578 -0.12615 -0.7014578 0.7014578 -0.12615 -0.7014578 0.7014578 -0.12615 -0.7014578 0.7014578 -0.12615 -0.7014578 0.7014578 -0.12615 -0.958209 0.2567522 -0.12615 -0.958209 0.2567522 -0.12615 -0.958209 0.2567522 -0.12615 -0.958209 0.2567522 -0.12615 -0.958209 0.2567522 -0.12615 -0.958209 0.2567522 -0.12615 -0.958209 -0.2567522 0.12615 -0.958209 -0.2567522 0.12615 -0.958209 -0.2567522 0.12615 -0.958209 -0.2567522 0.12615 -0.958209 -0.2567522 0.12615 -0.958209 -0.2567522 0.12615 -0.7014578 -0.7014578 0.12615 -0.7014578 -0.7014578 0.12615 -0.7014578 -0.7014578 0.12615 -0.7014578 -0.7014578 0.12615 -0.7014578 -0.7014578 0.12615 -0.7014578 -0.7014578 0.12615 -0.2567522 -0.958209 0.12615 -0.2567522 -0.958209 0.12615 -0.2567522 -0.958209 0.12615 -0.2567522 -0.958209 0.12615 -0.2567522 -0.958209 0.12615 -0.2567522 -0.958209 0.12615 0.2567522 -0.958209 0.12615 0.2567522 -0.958209 0.12615 0.2567522 -0.958209 0.12615 0.2567522 -0.958209 0.12615 0.2567522 -0.958209 0.12615 0.2567522 -0.958209 0.12615 0.7014578 -0.7014578 0.12615 0.7014578 -0.7014578 0.12615 0.7014578 -0.7014578 0.12615 0.7014578 -0.7014578 0.12615 0.7014578 -0.7014578 0.12615 0.7014578 -0.7014578 0.12615 0.958209 -0.2567522 0.12615 0.958209 -0.2567522 0.12615 0.958209 -0.2567522 0.12615 0.958209 -0.2567522 0.12615 0.958209 -0.2567522 0.12615 0.958209 -0.2567522 0.12615 0.958209 0.2567522 0.12615 0.958209 0.2567522 0.12615 0.958209 0.2567522 0.12615 0.958209 0.2567522 0.12615 0.958209 0.2567522 0.12615 0.958209 0.2567522 0.12615 0.7014578 0.7014578 0.12615 0.7014578 0.7014578 0.12615 0.7014578 0.7014578 0.12615 0.7014578 0.7014578 0.12615 0.7014578 0.7014578 0.12615 0.7014578 0.7014578 0.12615 0.2567522 0.958209 0.12615 0.2567522 0.958209 0.12615 0.2567522 0.958209 0.12615 0.2567522 0.958209 0.12615 0.2567522 0.958209 0.12615 0.2567522 0.958209 0.12615 -0.2567522 0.958209 0.12615 -0.2567522 0.958209 0.12615 -0.2567522 0.958209 0.12615 -0.2567522 0.958209 0.12615 -0.2567522 0.958209 0.12615 -0.2567522 0.958209 0.12615 -0.7014578 0.7014578 0.12615 -0.7014578 0.7014578 0.12615 -0.7014578 0.7014578 0.12615 -0.7014578 0.7014578 0.12615 -0.7014578 0.7014578 0.12615 -0.7014578 0.7014578 0.12615 -0.958209 0.2567522 0.12615 -0.958209 0.2567522 0.12615 -0.958209 0.2567522 0.12615 -0.958209 0.2567522 0.12615 -0.958209 0.2567522 0.12615 -0.958209 0.2567522 0.12615 -0.896809 -0.2403 0.3714693 -0.896809 -0.2403 0.3714693 -0.896809 -0.2403 0.3714693 -0.8968083 -0.240298 0.3714723 -0.8968083 -0.240298 0.3714723 -0.8968083 -0.240298 0.3714723 -0.6565099 -0.6565099 0.3714691 -0.6565099 -0.6565099 0.3714691 -0.6565099 -0.6565099 0.3714691 -0.6565099 -0.6565099 0.3714692 -0.6565099 -0.6565099 0.3714692 -0.6565099 -0.6565099 0.3714692 -0.2402997 -0.8968079 0.3714721 -0.2402997 -0.8968079 0.3714721 -0.2402997 -0.8968079 0.3714721 -0.2402984 -0.8968096 0.3714691 -0.2402984 -0.8968096 0.3714691 -0.2402984 -0.8968096 0.3714691 0.2403 -0.896809 0.3714693 0.2403 -0.896809 0.3714693 0.2403 -0.896809 0.3714693 0.240298 -0.8968083 0.3714723 0.240298 -0.8968083 0.3714723 0.240298 -0.8968083 0.3714723 0.6565099 -0.6565099 0.3714691 0.6565099 -0.6565099 0.3714691 0.6565099 -0.6565099 0.3714691 0.6565099 -0.6565099 0.3714692 0.6565099 -0.6565099 0.3714692 0.6565099 -0.6565099 0.3714692 0.8968079 -0.2402997 0.3714721 0.8968079 -0.2402997 0.3714721 0.8968079 -0.2402997 0.3714721 0.8968096 -0.2402984 0.3714691 0.8968096 -0.2402984 0.3714691 0.8968096 -0.2402984 0.3714691 0.896809 0.2403 0.3714693 0.896809 0.2403 0.3714693 0.896809 0.2403 0.3714693 0.8968083 0.240298 0.3714723 0.8968083 0.240298 0.3714723 0.8968083 0.240298 0.3714723 0.6565099 0.6565099 0.3714691 0.6565099 0.6565099 0.3714691 0.6565099 0.6565099 0.3714691 0.6565099 0.6565099 0.3714692 0.6565099 0.6565099 0.3714692 0.6565099 0.6565099 0.3714692 0.2402997 0.8968079 0.3714721 0.2402997 0.8968079 0.3714721 0.2402997 0.8968079 0.3714721 0.2402984 0.8968096 0.3714691 0.2402984 0.8968096 0.3714691 0.2402984 0.8968096 0.3714691 -0.2403 0.896809 0.3714693 -0.2403 0.896809 0.3714693 -0.2403 0.896809 0.3714693 -0.240298 0.8968083 0.3714723 -0.240298 0.8968083 0.3714723 -0.240298 0.8968083 0.3714723 -0.6565099 0.6565099 0.3714691 -0.6565099 0.6565099 0.3714691 -0.6565099 0.6565099 0.3714691 -0.6565099 0.6565099 0.3714692 -0.6565099 0.6565099 0.3714692 -0.6565099 0.6565099 0.3714692 -0.8968079 0.2402997 0.3714721 -0.8968079 0.2402997 0.3714721 -0.8968079 0.2402997 0.3714721 -0.8968096 0.2402984 0.3714691 -0.8968096 0.2402984 0.3714691 -0.8968096 0.2402984 0.3714691 -0.7760127 -0.2079311 0.5954568 -0.7760127 -0.2079311 0.5954568 -0.7760127 -0.2079311 0.5954568 -0.7760143 -0.207934 0.5954537 -0.7760143 -0.207934 0.5954537 -0.7760143 -0.207934 0.5954537 -0.5680802 -0.5680802 0.5954575 -0.5680802 -0.5680802 0.5954575 -0.5680802 -0.5680802 0.5954575 -0.5680802 -0.5680802 0.5954575 -0.5680802 -0.5680802 0.5954575 -0.5680802 -0.5680802 0.5954575 -0.2079316 -0.7760147 0.5954541 -0.2079316 -0.7760147 0.5954541 -0.2079316 -0.7760147 0.5954541 -0.2079334 -0.7760119 0.5954571 -0.2079334 -0.7760119 0.5954571 -0.2079334 -0.7760119 0.5954571 0.2079311 -0.7760127 0.5954568 0.2079311 -0.7760127 0.5954568 0.2079311 -0.7760127 0.5954568 0.207934 -0.7760143 0.5954537 0.207934 -0.7760143 0.5954537 0.207934 -0.7760143 0.5954537 0.5680802 -0.5680802 0.5954575 0.5680802 -0.5680802 0.5954575 0.5680802 -0.5680802 0.5954575 0.5680802 -0.5680802 0.5954575 0.5680802 -0.5680802 0.5954575 0.5680802 -0.5680802 0.5954575 0.7760147 -0.2079316 0.5954541 0.7760147 -0.2079316 0.5954541 0.7760147 -0.2079316 0.5954541 0.7760119 -0.2079334 0.5954571 0.7760119 -0.2079334 0.5954571 0.7760119 -0.2079334 0.5954571 0.7760127 0.2079311 0.5954568 0.7760127 0.2079311 0.5954568 0.7760127 0.2079311 0.5954568 0.7760143 0.207934 0.5954537 0.7760143 0.207934 0.5954537 0.7760143 0.207934 0.5954537 0.5680802 0.5680802 0.5954575 0.5680802 0.5680802 0.5954575 0.5680802 0.5680802 0.5954575 0.5680802 0.5680802 0.5954575 0.5680802 0.5680802 0.5954575 0.5680802 0.5680802 0.5954575 0.2079316 0.7760147 0.5954541 0.2079316 0.7760147 0.5954541 0.2079316 0.7760147 0.5954541 0.2079334 0.7760119 0.5954571 0.2079334 0.7760119 0.5954571 0.2079334 0.7760119 0.5954571 -0.2079311 0.7760127 0.5954568 -0.2079311 0.7760127 0.5954568 -0.2079311 0.7760127 0.5954568 -0.207934 0.7760143 0.5954537 -0.207934 0.7760143 0.5954537 -0.207934 0.7760143 0.5954537 -0.5680802 0.5680802 0.5954575 -0.5680802 0.5680802 0.5954575 -0.5680802 0.5680802 0.5954575 -0.5680802 0.5680802 0.5954575 -0.5680802 0.5680802 0.5954575 -0.5680802 0.5680802 0.5954575 -0.7760147 0.2079316 0.5954541 -0.7760147 0.2079316 0.5954541 -0.7760147 0.2079316 0.5954541 -0.7760119 0.2079334 0.5954571 -0.7760119 0.2079334 0.5954571 -0.7760119 0.2079334 0.5954571 -0.6008204 -0.1609906 0.7830051 -0.6008204 -0.1609906 0.7830051 -0.6008204 -0.1609906 0.7830051 -0.6008191 -0.1609883 0.7830065 -0.6008191 -0.1609883 0.7830065 -0.6008191 -0.1609883 0.7830065 -0.4398314 -0.4398314 0.7830049 -0.4398314 -0.4398314 0.7830049 -0.4398314 -0.4398314 0.7830049 -0.4398314 -0.4398314 0.7830049 -0.4398314 -0.4398314 0.7830049 -0.4398314 -0.4398314 0.7830049 -0.1609902 -0.6008189 0.7830063 -0.1609902 -0.6008189 0.7830063 -0.1609902 -0.6008189 0.7830063 -0.1609888 -0.6008212 0.7830048 -0.1609888 -0.6008212 0.7830048 -0.1609888 -0.6008212 0.7830048 0.1609906 -0.6008204 0.7830051 0.1609906 -0.6008204 0.7830051 0.1609906 -0.6008204 0.7830051 0.1609883 -0.6008191 0.7830065 0.1609883 -0.6008191 0.7830065 0.1609883 -0.6008191 0.7830065 0.4398314 -0.4398314 0.7830049 0.4398314 -0.4398314 0.7830049 0.4398314 -0.4398314 0.7830049 0.4398314 -0.4398314 0.7830049 0.4398314 -0.4398314 0.7830049 0.4398314 -0.4398314 0.7830049 0.6008189 -0.1609902 0.7830063 0.6008189 -0.1609902 0.7830063 0.6008189 -0.1609902 0.7830063 0.6008212 -0.1609888 0.7830048 0.6008212 -0.1609888 0.7830048 0.6008212 -0.1609888 0.7830048 0.6008204 0.1609906 0.7830051 0.6008204 0.1609906 0.7830051 0.6008204 0.1609906 0.7830051 0.6008191 0.1609883 0.7830065 0.6008191 0.1609883 0.7830065 0.6008191 0.1609883 0.7830065 0.4398314 0.4398314 0.7830049 0.4398314 0.4398314 0.7830049 0.4398314 0.4398314 0.7830049 0.4398314 0.4398314 0.7830049 0.4398314 0.4398314 0.7830049 0.4398314 0.4398314 0.7830049 0.1609902 0.6008189 0.7830063 0.1609902 0.6008189 0.7830063 0.1609902 0.6008189 0.7830063 0.1609888 0.6008212 0.7830048 0.1609888 0.6008212 0.7830048 0.1609888 0.6008212 0.7830048 -0.1609906 0.6008204 0.7830051 -0.1609906 0.6008204 0.7830051 -0.1609906 0.6008204 0.7830051 -0.1609883 0.6008191 0.7830065 -0.1609883 0.6008191 0.7830065 -0.1609883 0.6008191 0.7830065 -0.4398314 0.4398314 0.7830049 -0.4398314 0.4398314 0.7830049 -0.4398314 0.4398314 0.7830049 -0.4398314 0.4398314 0.7830049 -0.4398314 0.4398314 0.7830049 -0.4398314 0.4398314 0.7830049 -0.6008189 0.1609902 0.7830063 -0.6008189 0.1609902 0.7830063 -0.6008189 0.1609902 0.7830063 -0.6008212 0.1609888 0.7830048 -0.6008212 0.1609888 0.7830048 -0.6008212 0.1609888 0.7830048 -0.3806893 -0.1020049 0.9190596 -0.3806893 -0.1020049 0.9190596 -0.3806893 -0.1020049 0.9190596 -0.3806891 -0.1020044 0.9190598 -0.3806891 -0.1020044 0.9190598 -0.3806891 -0.1020044 0.9190598 -0.278684 -0.278684 0.9190595 -0.278684 -0.278684 0.9190595 -0.278684 -0.278684 0.9190595 -0.278684 -0.278684 0.9190595 -0.278684 -0.278684 0.9190595 -0.278684 -0.278684 0.9190595 -0.1020049 -0.3806891 0.9190598 -0.1020049 -0.3806891 0.9190598 -0.1020049 -0.3806891 0.9190598 -0.1020045 -0.3806895 0.9190596 -0.1020045 -0.3806895 0.9190596 -0.1020045 -0.3806895 0.9190596 0.1020049 -0.3806893 0.9190596 0.1020049 -0.3806893 0.9190596 0.1020049 -0.3806893 0.9190596 0.1020044 -0.3806891 0.9190598 0.1020044 -0.3806891 0.9190598 0.1020044 -0.3806891 0.9190598 0.278684 -0.278684 0.9190595 0.278684 -0.278684 0.9190595 0.278684 -0.278684 0.9190595 0.278684 -0.278684 0.9190595 0.278684 -0.278684 0.9190595 0.278684 -0.278684 0.9190595 0.3806891 -0.1020049 0.9190598 0.3806891 -0.1020049 0.9190598 0.3806891 -0.1020049 0.9190598 0.3806895 -0.1020045 0.9190596 0.3806895 -0.1020045 0.9190596 0.3806895 -0.1020045 0.9190596 0.3806893 0.1020049 0.9190596 0.3806893 0.1020049 0.9190596 0.3806893 0.1020049 0.9190596 0.3806891 0.1020044 0.9190598 0.3806891 0.1020044 0.9190598 0.3806891 0.1020044 0.9190598 0.278684 0.278684 0.9190595 0.278684 0.278684 0.9190595 0.278684 0.278684 0.9190595 0.278684 0.278684 0.9190595 0.278684 0.278684 0.9190595 0.278684 0.278684 0.9190595 0.1020049 0.3806891 0.9190598 0.1020049 0.3806891 0.9190598 0.1020049 0.3806891 0.9190598 0.1020045 0.3806895 0.9190596 0.1020045 0.3806895 0.9190596 0.1020045 0.3806895 0.9190596 -0.1020049 0.3806893 0.9190596 -0.1020049 0.3806893 0.9190596 -0.1020049 0.3806893 0.9190596 -0.1020044 0.3806891 0.9190598 -0.1020044 0.3806891 0.9190598 -0.1020044 0.3806891 0.9190598 -0.278684 0.278684 0.9190595 -0.278684 0.278684 0.9190595 -0.278684 0.278684 0.9190595 -0.278684 0.278684 0.9190595 -0.278684 0.278684 0.9190595 -0.278684 0.278684 0.9190595 -0.3806891 0.1020049 0.9190598 -0.3806891 0.1020049 0.9190598 -0.3806891 0.1020049 0.9190598 -0.3806895 0.1020045 0.9190596 -0.3806895 0.1020045 0.9190596 -0.3806895 0.1020045 0.9190596 -0.1304458 -0.0349525 0.9908391 -0.1304458 -0.0349525 0.9908391 -0.1304458 -0.0349525 0.9908391 1.0 0.0 0.0 1.0 0.0 0.0 -0.0954928 -0.0954928 0.9908392 -0.0954928 -0.0954928 0.9908392 -0.0954928 -0.0954928 0.9908392 1.0 0.0 0.0 1.0 0.0 0.0 -0.0349525 -0.1304458 0.9908391 -0.0349525 -0.1304458 0.9908391 -0.0349525 -0.1304458 0.9908391 1.0 0.0 0.0 1.0 0.0 0.0 0.0349525 -0.1304458 0.9908391 0.0349525 -0.1304458 0.9908391 0.0349525 -0.1304458 0.9908391 1.0 0.0 0.0 1.0 0.0 0.0 0.0954928 -0.0954928 0.9908392 0.0954928 -0.0954928 0.9908392 0.0954928 -0.0954928 0.9908392 1.0 0.0 0.0 1.0 0.0 0.0 0.1304458 -0.0349525 0.9908391 0.1304458 -0.0349525 0.9908391 0.1304458 -0.0349525 0.9908391 1.0 0.0 0.0 1.0 0.0 0.0 0.1304458 0.0349525 0.9908391 0.1304458 0.0349525 0.9908391 0.1304458 0.0349525 0.9908391 1.0 0.0 0.0 1.0 0.0 0.0 0.0954928 0.0954928 0.9908392 0.0954928 0.0954928 0.9908392 0.0954928 0.0954928 0.9908392 1.0 0.0 0.0 1.0 0.0 0.0 0.0349525 0.1304458 0.9908391 0.0349525 0.1304458 0.9908391 0.0349525 0.1304458 0.9908391 1.0 0.0 0.0 1.0 0.0 0.0</float_array>
                    <technique_common>
                        <accessor count="840" source="#geometry0-normal-array" stride="3">
                            <param name="X" type="float"/>
                            <param name="Y" type="float"/>
                            <param name="Z" type="float"/>
                        </accessor>
                    </technique_common>
                </source>
                <vertices id="geometry0-vertex">
                    <input semantic="POSITION" source="#geometry0-position"/>
                </vertices>
                <triangles count="288" material="default_ai_0.2_sh_0.2_tr_0.0_dc_r_0.8_g_0.8_b_0.8_sc_r_1.0_g_1.0_b_1.0_ec_r_0.0_g_0.0_b_0_tri">
                    <input offset="0" semantic="VERTEX" source="#geometry0-vertex"/>
                    <input offset="1" semantic="NORMAL" source="#geometry0-normal"/>
                    <p>130 0 131 1 133 2 130 3 133 4 133 4 131 5 132 6 133 7 131 8 133 9 133 9 132 10 122 11 133 12 132 13 133 14 133 14 0 15 0 15 1 16 0 17 1 18 2 19 0 20 0 20 3 21 0 22 3 23 1 24 0 25 0 25 4 26 0 27 4 28 3 29 0 30 0 30 5 31 0 32 5 33 4 34 0 35 0 35 6 36 0 37 6 38 5 39 0 40 0 40 7 41 0 42 7 43 6 44 0 45 0 45 8 46 0 47 8 48 7 49 0 50 0 50 9 51 0 52 9 53 8 54 0 55 0 55 10 56 0 57 10 58 9 59 0 60 0 60 11 61 0 62 11 63 10 64 0 65 0 65 12 66 0 67 12 68 11 69 0 70 0 70 2 71 0 72 2 73 12 74 2 75 1 76 13 77 2 78 13 79 14 80 1 81 3 82 15 83 1 84 15 85 13 86 3 87 4 88 16 89 3 90 16 91 15 92 4 93 5 94 17 95 4 96 17 97 16 98 5 99 6 100 18 101 5 102 18 103 17 104 6 105 7 106 19 107 6 108 19 109 18 110 7 111 8 112 20 113 7 114 20 115 19 116 8 117 9 118 21 119 8 120 21 121 20 122 9 123 10 124 22 125 9 126 22 127 21 128 10 129 11 130 23 131 10 132 23 133 22 134 11 135 12 136 24 137 11 138 24 139 23 140 12 141 2 142 14 143 12 144 14 145 24 146 14 147 13 148 25 149 14 150 25 151 26 152 13 153 15 154 27 155 13 156 27 157 25 158 15 159 16 160 28 161 15 162 28 163 27 164 16 165 17 166 29 167 16 168 29 169 28 170 17 171 18 172 30 173 17 174 30 175 29 176 18 177 19 178 31 179 18 180 31 181 30 182 19 183 20 184 32 185 19 186 32 187 31 188 20 189 21 190 33 191 20 192 33 193 32 194 21 195 22 196 34 197 21 198 34 199 33 200 22 201 23 202 35 203 22 204 35 205 34 206 23 207 24 208 36 209 23 210 36 211 35 212 24 213 14 214 26 215 24 216 26 217 36 218 26 219 25 220 37 221 26 222 37 223 38 224 25 225 27 226 39 227 25 228 39 229 37 230 27 231 28 232 40 233 27 234 40 235 39 236 28 237 29 238 41 239 28 240 41 241 40 242 29 243 30 244 42 245 29 246 42 247 41 248 30 249 31 250 43 251 30 252 43 253 42 254 31 255 32 256 44 257 31 258 44 259 43 260 32 261 33 262 45 263 32 264 45 265 44 266 33 267 34 268 46 269 33 270 46 271 45 272 34 273 35 274 47 275 34 276 47 277 46 278 35 279 36 280 48 281 35 282 48 283 47 284 36 285 26 286 38 287 36 288 38 289 48 290 38 291 37 292 49 293 38 294 49 295 50 296 37 297 39 298 51 299 37 300 51 301 49 302 39 303 40 304 52 305 39 306 52 307 51 308 40 309 41 310 53 311 40 312 53 313 52 314 41 315 42 316 54 317 41 318 54 319 53 320 42 321 43 322 55 323 42 324 55 325 54 326 43 327 44 328 56 329 43 330 56 331 55 332 44 333 45 334 57 335 44 336 57 337 56 338 45 339 46 340 58 341 45 342 58 343 57 344 46 345 47 346 59 347 46 348 59 349 58 350 47 351 48 352 60 353 47 354 60 355 59 356 48 357 38 358 50 359 48 360 50 361 60 362 50 363 49 364 61 365 50 366 61 367 62 368 49 369 51 370 63 371 49 372 63 373 61 374 51 375 52 376 64 377 51 378 64 379 63 380 52 381 53 382 65 383 52 384 65 385 64 386 53 387 54 388 66 389 53 390 66 391 65 392 54 393 55 394 67 395 54 396 67 397 66 398 55 399 56 400 68 401 55 402 68 403 67 404 56 405 57 406 69 407 56 408 69 409 68 410 57 411 58 412 70 413 57 414 70 415 69 416 58 417 59 418 71 419 58 420 71 421 70 422 59 423 60 424 72 425 59 426 72 427 71 428 60 429 50 430 62 431 60 432 62 433 72 434 62 435 61 436 73 437 62 438 73 439 74 440 61 441 63 442 75 443 61 444 75 445 73 446 63 447 64 448 76 449 63 450 76 451 75 452 64 453 65 454 77 455 64 456 77 457 76 458 65 459 66 460 78 461 65 462 78 463 77 464 66 465 67 466 79 467 66 468 79 469 78 470 67 471 68 472 80 473 67 474 80 475 79 476 68 477 69 478 81 479 68 480 81 481 80 482 69 483 70 484 82 485 69 486 82 487 81 488 70 489 71 490 83 491 70 492 83 493 82 494 71 495 72 496 84 497 71 498 84 499 83 500 72 501 62 502 74 503 72 504 74 505 84 506 74 507 73 508 85 509 74 510 85 511 86 512 73 513 75 514 87 515 73 516 87 517 85 518 75 519 76 520 88 521 75 522 88 523 87 524 76 525 77 526 89 527 76 528 89 529 88 530 77 531 78 532 90 533 77 534 90 535 89 536 78 537 79 538 91 539 78 540 91 541 90 542 79 543 80 544 92 545 79 546 92 547 91 548 80 549 81 550 93 551 80 552 93 553 92 554 81 555 82 556 94 557 81 558 94 559 93 560 82 561 83 562 95 563 82 564 95 565 94 566 83 567 84 568 96 569 83 570 96 571 95 572 84 573 74 574 86 575 84 576 86 577 96 578 86 579 85 580 97 581 86 582 97 583 98 584 85 585 87 586 99 587 85 588 99 589 97 590 87 591 88 592 100 593 87 594 100 595 99 596 88 597 89 598 101 599 88 600 101 601 100 602 89 603 90 604 102 605 89 606 102 607 101 608 90 609 91 610 103 611 90 612 103 613 102 614 91 615 92 616 104 617 91 618 104 619 103 620 92 621 93 622 105 623 92 624 105 625 104 626 93 627 94 628 106 629 93 630 106 631 105 632 94 633 95 634 107 635 94 636 107 637 106 638 95 639 96 640 108 641 95 642 108 643 107 644 96 645 86 646 98 647 96 648 98 649 108 650 98 651 97 652 109 653 98 654 109 655 110 656 97 657 99 658 111 659 97 660 111 661 109 662 99 663 100 664 112 665 99 666 112 667 111 668 100 669 101 670 113 671 100 672 113 673 112 674 101 675 102 676 114 677 101 678 114 679 113 680 102 681 103 682 115 683 102 684 115 685 114 686 103 687 104 688 116 689 103 690 116 691 115 692 104 693 105 694 117 695 104 696 117 697 116 698 105 699 106 700 118 701 105 702 118 703 117 704 106 705 107 706 119 707 106 708 119 709 118 710 107 711 108 712 120 713 107 714 120 715 119 716 108 717 98 718 110 719 108 720 110 721 120 722 110 723 109 724 121 725 110 726 121 727 122 728 109 729 111 730 123 731 109 732 123 733 121 734 111 735 112 736 124 737 111 738 124 739 123 740 112 741 113 742 125 743 112 744 125 745 124 746 113 747 114 748 126 749 113 750 126 751 125 752 114 753 115 754 127 755 114 756 127 757 126 758 115 759 116 760 128 761 115 762 128 763 127 764 116 765 117 766 129 767 116 768 129 769 128 770 117 771 118 772 130 773 117 774 130 775 129 776 118 777 119 778 131 779 118 780 131 781 130 782 119 783 120 784 132 785 119 786 132 787 131 788 120 789 110 790 122 791 120 792 122 793 132 794 122 795 121 796 133 797 122 798 133 799 133 799 121 800 123 801 133 802 121 803 133 804 133 804 123 805 124 806 133 807 123 808 133 809 133 809 124 810 125 811 133 812 124 813 133 814 133 814 125 815 126 816 133 817 125 818 133 819 133 819 126 820 127 821 133 822 126 823 133 824 133 824 127 825 128 826 133 827 127 828 133 829 133 829 128 830 129 831 133 832 128 833 133 834 133 834 129 835 130 836 133 837 129 838 133 839 133 839</p>
                </triangles>
            </mesh>
        </geometry>
    </library_geometries>
    <library_visual_scenes>
        <visual_scene id="Building_112_CROWN2">
            <node>
                <instance_geometry url="#geometry0">
                    <bind_material>
                        <technique_common>
                            <instance_material symbol="default_ai_0.2_sh_0.2_tr_0.0_dc_r_0.8_g_0.8_b_0.8_sc_r_1.0_g_1.0_b_1.0_ec_r_0.0_g_0.0_b_0_tri" target="#default_ai_0.2_sh_0.2_tr_0.0_dc_r_0.8_g_0.8_b_0.8_sc_r_1.0_g_1.0_b_1.0_ec_r_0.0_g_0.0_b_0_mat"/>
                        </technique_common>
                    </bind_material>
                </instance_geometry>
            </node>
        </visual_scene>
    </library_visual_scenes>
    <scene>
        <instance_visual_scene url="#Building_112_CROWN2"/>
    </scene>
</COLLADA>
