<?xml version="1.0" encoding="UTF-8" standalone="yes"?>
<COLLADA xmlns="http://www.collada.org/2005/11/COLLADASchema" version="1.4.1">
    <asset>
        <contributor>
            <authoring_tool>3D City Database Importer/Exporter, version 5.5.3; Chair of Geoinformatics, Technical University of Munich</authoring_tool>
        </contributor>
        <created>2026-09-25T14:44:53.042</created>
        <modified>2026-09-25T14:44:53.042</modified>
        <unit meter="1.0" name="meters"/>
        <up_axis>Z_UP</up_axis>
    </asset>
    <library_materials>
        <material id="default_ai_0.2_sh_0.2_tr_0.0_dc_r_0.8_g_0.8_b_0.8_sc_r_1.0_g_1.0_b_1.0_ec_r_0.0_g_0.0_b_0_mat">
            <instance_effect url="#default_ai_0.2_sh_0.2_tr_0.0_dc_r_0.8_g_0.8_b_0.8_sc_r_1.0_g_1.0_b_1.0_ec_r_0.0_g_0.0_b_0_eff"/>
        </material>
    </library_materials>
    <library_effects>
        <effect id="default_ai_0.2_sh_0.2_tr_0.0_dc_r_0.8_g_0.8_b_0.8_sc_r_1.0_g_1.0_b_1.0_ec_r_0.0_g_0.0_b_0_eff">
            <profile_COMMON>
                <technique sid="COMMON">
                    <lambert>
                        <emission>
                            <color>0.0 0.0 0.0 1.0</color>
                        </emission>
                        <diffuse>
                            <color>0.8 0.8 0.8 1.0</color>
                        </diffuse>
                        <reflective>
                            <color>1.0 1.0 1.0 1.0</color>
                        </reflective>
                        <reflectivity>
                            <float>0.2</float>
                        </reflectivity>
                        <transparent opaque="A_ONE">
                            <color>1.0 1.0 1.0 1.0</color>
                        </transparent>
                        <transparency>
                            <float>1.0</float>
                        </transparency>
                    </lambert>
                </technique>
                <extra>
                    <technique profile="GOOGLEEARTH">
                        <double_sided>0</double_sided>
                    </technique>
                </extra>
            </profile_COMMON>
        </effect>
    </library_effects>
    <library_geometries>
        <geometry id="geometry0">
            <mesh>
                <source id="geometry0-position">
                    <float_array id="geometry0-position-array" count="402">0.0 0.0 2.3 0.2577656 0.1488215 2.2608149 0.2976419 0.0 2.2608149 0.1488215 0.2577656 2.2608149 0.0 0.2976419 2.2608149 -0.1488215 0.2577656 2.2608149 -0.2577656 0.1488215 2.2608149 -0.2976419 0.0 2.2608149 -0.2577656 -0.1488215 2.2608149 -0.1488215 -0.2577656 2.2608149 0.0 -0.2976419 2.2608149 0.1488215 -0.2577656 2.2608149 0.2577656 -0.1488215 2.2608149 0.4979649 0.2875 2.1459287 0.575 0.0 2.1459287 0.2875 0.497965 2.1459287 0.0 0.575 2.1459287 -0.2875 0.497965 2.1459287 -0.4979649 0.2875 2.1459287 -0.575 0.0 2.1459287 -0.4979649 -0.2875 2.1459287 -0.2875 -0.497965 2.1459287 0.0 -0.575 2.1459287 0.2875 -0.497965 2.1459287 0.4979649 -0.2875 2.1459287 0.7042278 0.406586 1.9631719 0.8131731 0.0 1.9631719 0.4065859 0.7042278 1.9631719 0.0 0.8131731 1.9631719 -0.4065859 0.7042278 1.9631719 -0.7042278 0.406586 1.9631719 -0.8131731 0.0 1.9631719 -0.7042278 -0.406586 1.9631719 -0.4065859 -0.7042278 1.9631719 0.0 -0.8131731 1.9631719 0.4065859 -0.7042278 1.9631719 0.7042278 -0.406586 1.9631719 0.8625 0.497965 1.725 0.9959288 0.0 1.725 0.4979649 0.8625 1.725 0.0 0.9959288 1.725 -0.4979649 0.8625 1.725 -0.8625 0.497965 1.725 -0.9959288 0.0 1.725 -0.8625 -0.497965 1.725 -0.4979649 -0.8625 1.725 0.0 -0.9959288 1.725 0.4979649 -0.8625 1.725 0.8625 -0.497965 1.725 0.9619934 0.5554074 1.4476418 1.1108149 0.0 1.4476418 0.5554075 0.9619934 1.4476418 0.0 1.1108149 1.4476418 -0.5554075 0.9619934 1.4476418 -0.9619934 0.5554074 1.4476418 -1.1108149 0.0 1.4476418 -0.9619934 -0.5554074 1.4476418 -0.5554075 -0.9619934 1.4476418 0.0 -1.1108149 1.4476418 0.5554075 -0.9619934 1.4476418 0.9619934 -0.5554074 1.4476418 0.9959288 0.575 1.15 1.15 0.0 1.15 0.575 0.9959288 1.15 0.0 1.15 1.15 -0.575 0.9959288 1.15 -0.9959288 0.575 1.15 -1.15 0.0 1.15 -0.9959288 -0.575 1.15 -0.575 -0.9959288 1.15 0.0 -1.15 1.15 0.575 -0.9959288 1.15 0.9959288 -0.575 1.15 0.9619934 0.5554074 0.8523582 1.1108149 0.0 0.8523582 0.5554075 0.9619934 0.8523582 0.0 1.1108149 0.8523582 -0.5554075 0.9619934 0.8523582 -0.9619934 0.5554074 0.8523582 -1.1108149 0.0 0.8523582 -0.9619934 -0.5554074 0.8523582 -0.5554075 -0.9619934 0.8523582 0.0 -1.1108149 0.8523582 0.5554075 -0.9619934 0.8523582 0.9619934 -0.5554074 0.8523582 0.8625 0.497965 0.575 0.9959288 0.0 0.575 0.4979649 0.8625 0.575 0.0 0.9959288 0.575 -0.4979649 0.8625 0.575 -0.8625 0.497965 0.575 -0.9959288 0.0 0.575 -0.8625 -0.497965 0.575 -0.4979649 -0.8625 0.575 0.0 -0.9959288 0.575 0.4979649 -0.8625 0.575 0.8625 -0.497965 0.575 0.7042278 0.406586 0.336827 0.8131731 0.0 0.336827 0.4065859 0.7042278 0.336827 0.0 0.8131731 0.336827 -0.4065859 0.7042278 0.336827 -0.7042278 0.406586 0.336827 -0.8131731 0.0 0.336827 -0.7042278 -0.406586 0.336827 -0.4065859 -0.7042278 0.336827 0.0 -0.8131731 0.336827 0.4065859 -0.7042278 0.336827 0.7042278 -0.406586 0.336827 0.4979649 0.2875 0.1540701 0.575 0.0 0.1540701 0.2875 0.497965 0.1540701 0.0 0.575 0.1540701 -0.2875 0.497965 0.1540701 -0.4979649 0.2875 0.1540701 -0.575 0.0 0.1540701 -0.4979649 -0.2875 0.1540701 -0.2875 -0.497965 0.1540701 0.0 -0.575 0.1540701 0.2875 -0.497965 0.1540701 0.4979649 -0.2875 0.1540701 0.2577656 0.1488215 0.0391851 0.2976419 0.0 0.0391851 0.1488215 0.2577656 0.0391851 0.0 0.2976419 0.0391851 -0.1488215 0.2577656 0.0391851 -0.2577656 0.1488215 0.0391851 -0.2976419 0.0 0.0391851 -0.2577656 -0.1488215 0.0391851 -0.1488215 -0.2577656 0.0391851 0.0 -0.2976419 0.0391851 0.1488215 -0.2577656 0.0391851 0.2577656 -0.1488215 0.0391851 0.0 0.0 0.0</float_array>
                    <technique_common>
                        <accessor count="134" source="#geometry0-position-array" stride="3">
                            <param name="X" type="float"/>
                            <param name="Y" type="float"/>
                            <param name="Z" type="float"/>
                        </accessor>
                    </technique_common>
                </source>
                <source id="geometry0-normal">
                    <float_array id="geometry0-normal-array" count="2520">0.8968079 -0.2402998 0.3714721 0.8968079 -0.2402998 0.3714721 0.8968079 -0.2402998 0.3714721 0.8968096 -0.2402984 0.371469 0.8968096 -0.2402984 0.371469 0.8968096 -0.2402984 0.371469 0.896809 0.2403001 0.3714692 0.896809 0.2403001 0.3714692 0.896809 0.2403001 0.3714692 0.8968083 0.2402981 0.3714723 0.8968083 0.2402981 0.3714723 0.8968083 0.2402981 0.3714723 0.65651 0.65651 0.3714691 0.65651 0.65651 0.3714691 0.65651 0.65651 0.3714691 0.6565099 0.6565099 0.3714691 0.6565099 0.6565099 0.3714691 0.6565099 0.6565099 0.3714691 0.2402998 0.8968079 0.3714721 0.2402998 0.8968079 0.3714721 0.2402998 0.8968079 0.3714721 0.2402984 0.8968096 0.371469 0.2402984 0.8968096 0.371469 0.2402984 0.8968096 0.371469 -0.2403001 0.896809 0.3714692 -0.2403001 0.896809 0.3714692 -0.2403001 0.896809 0.3714692 -0.2402981 0.8968083 0.3714723 -0.2402981 0.8968083 0.3714723 -0.2402981 0.8968083 0.3714723 -0.65651 0.65651 0.3714691 -0.65651 0.65651 0.3714691 -0.65651 0.65651 0.3714691 -0.6565099 0.6565099 0.3714691 -0.6565099 0.6565099 0.3714691 -0.6565099 0.6565099 0.3714691 -0.8968079 0.2402998 0.3714721 -0.8968079 0.2402998 0.3714721 -0.8968079 0.2402998 0.3714721 -0.8968096 0.2402984 0.371469 -0.8968096 0.2402984 0.371469 -0.8968096 0.2402984 0.371469 -0.7760127 -0.2079311 0.5954569 -0.7760127 -0.2079311 0.5954569 -0.7760127 -0.2079311 0.5954569 -0.7760144 -0.2079341 0.5954539 -0.7760144 -0.2079341 0.5954539 -0.7760144 -0.2079341 0.5954539 -0.5680802 -0.5680802 0.5954575 -0.5680802 -0.5680802 0.5954575 -0.5680802 -0.5680802 0.5954575 -0.5680803 -0.5680803 0.5954574 -0.5680803 -0.5680803 0.5954574 -0.5680803 -0.5680803 0.5954574 -0.2079317 -0.7760147 0.5954541 -0.2079317 -0.7760147 0.5954541 -0.2079317 -0.7760147 0.5954541 -0.2079334 -0.7760118 0.5954572 -0.2079334 -0.7760118 0.5954572 -0.2079334 -0.7760118 0.5954572 0.2079311 -0.7760127 0.5954569 0.2079311 -0.7760127 0.5954569 0.2079311 -0.7760127 0.5954569 0.2079341 -0.7760144 0.5954539 0.2079341 -0.7760144 0.5954539 0.2079341 -0.7760144 0.5954539 0.5680802 -0.5680802 0.5954575 0.5680802 -0.5680802 0.5954575 0.5680802 -0.5680802 0.5954575 0.5680803 -0.5680803 0.5954574 0.5680803 -0.5680803 0.5954574 0.5680803 -0.5680803 0.5954574 0.7760147 -0.2079317 0.5954541 0.7760147 -0.2079317 0.5954541 0.7760147 -0.2079317 0.5954541 0.7760118 -0.2079334 0.5954572 0.7760118 -0.2079334 0.5954572 0.7760118 -0.2079334 0.5954572 0.7760127 0.2079311 0.5954569 0.7760127 0.2079311 0.5954569 0.7760127 0.2079311 0.5954569 0.7760144 0.2079341 0.5954539 0.7760144 0.2079341 0.5954539 0.7760144 0.2079341 0.5954539 0.5680802 0.5680802 0.5954575 0.5680802 0.5680802 0.5954575 0.5680802 0.5680802 0.5954575 0.5680803 0.5680803 0.5954574 0.5680803 0.5680803 0.5954574 0.5680803 0.5680803 0.5954574 0.2079317 0.7760147 0.5954541 0.2079317 0.7760147 0.5954541 0.2079317 0.7760147 0.5954541 0.2079334 0.7760118 0.5954572 0.2079334 0.7760118 0.5954572 0.2079334 0.7760118 0.5954572 -0.2079311 0.7760127 0.5954569 -0.2079311 0.7760127 0.5954569 -0.2079311 0.7760127 0.5954569 -0.2079341 0.7760144 0.5954539 -0.2079341 0.7760144 0.5954539 -0.2079341 0.7760144 0.5954539 -0.5680802 0.5680802 0.5954575 -0.5680802 0.5680802 0.5954575 -0.5680802 0.5680802 0.5954575 -0.5680803 0.5680803 0.5954574 -0.5680803 0.5680803 0.5954574 -0.5680803 0.5680803 0.5954574 -0.7760147 0.2079317 0.5954541 -0.7760147 0.2079317 0.5954541 -0.7760147 0.2079317 0.5954541 -0.7760118 0.2079334 0.5954572 -0.7760118 0.2079334 0.5954572 -0.7760118 0.2079334 0.5954572 -0.6008226 -0.1609912 0.7830032 -0.6008226 -0.1609912 0.7830032 -0.6008226 -0.1609912 0.7830032 -0.6008214 -0.1609889 0.7830046 -0.6008214 -0.1609889 0.7830046 -0.6008214 -0.1609889 0.7830046 -0.4398331 -0.4398331 0.7830031 -0.4398331 -0.4398331 0.7830031 -0.4398331 -0.4398331 0.7830031 -0.439833 -0.439833 0.783003 -0.439833 -0.439833 0.783003 -0.439833 -0.439833 0.783003 -0.1609908 -0.6008211 0.7830044 -0.1609908 -0.6008211 0.7830044 -0.1609908 -0.6008211 0.7830044 -0.1609894 -0.6008235 0.783003 -0.1609894 -0.6008235 0.783003 -0.1609894 -0.6008235 0.783003 0.1609912 -0.6008226 0.7830032 0.1609912 -0.6008226 0.7830032 0.1609912 -0.6008226 0.7830032 0.1609889 -0.6008214 0.7830046 0.1609889 -0.6008214 0.7830046 0.1609889 -0.6008214 0.7830046 0.4398331 -0.4398331 0.7830031 0.4398331 -0.4398331 0.7830031 0.4398331 -0.4398331 0.7830031 0.439833 -0.439833 0.783003 0.439833 -0.439833 0.783003 0.439833 -0.439833 0.783003 0.6008211 -0.1609908 0.7830044 0.6008211 -0.1609908 0.7830044 0.6008211 -0.1609908 0.7830044 0.6008235 -0.1609894 0.783003 0.6008235 -0.1609894 0.783003 0.6008235 -0.1609894 0.783003 0.6008226 0.1609912 0.7830032 0.6008226 0.1609912 0.7830032 0.6008226 0.1609912 0.7830032 0.6008214 0.1609889 0.7830046 0.6008214 0.1609889 0.7830046 0.6008214 0.1609889 0.7830046 0.4398331 0.4398331 0.7830031 0.4398331 0.4398331 0.7830031 0.4398331 0.4398331 0.7830031 0.439833 0.439833 0.783003 0.439833 0.439833 0.783003 0.439833 0.439833 0.783003 0.1609908 0.6008211 0.7830044 0.1609908 0.6008211 0.7830044 0.1609908 0.6008211 0.7830044 0.1609894 0.6008235 0.783003 0.1609894 0.6008235 0.783003 0.1609894 0.6008235 0.783003 -0.1609912 0.6008226 0.7830032 -0.1609912 0.6008226 0.7830032 -0.1609912 0.6008226 0.7830032 -0.1609889 0.6008214 0.7830046 -0.1609889 0.6008214 0.7830046 -0.1609889 0.6008214 0.7830046 -0.4398331 0.4398331 0.7830031 -0.4398331 0.4398331 0.7830031 -0.4398331 0.4398331 0.7830031 -0.439833 0.439833 0.783003 -0.439833 0.439833 0.783003 -0.439833 0.439833 0.783003 -0.6008211 0.1609908 0.7830044 -0.6008211 0.1609908 0.7830044 -0.6008211 0.1609908 0.7830044 -0.6008235 0.1609894 0.783003 -0.6008235 0.1609894 0.783003 -0.6008235 0.1609894 0.783003 -0.3806861 -0.1020041 0.9190611 -0.3806861 -0.1020041 0.9190611 -0.3806861 -0.1020041 0.9190611 -0.3806859 -0.1020036 0.9190612 -0.3806859 -0.1020036 0.9190612 -0.3806859 -0.1020036 0.9190612 -0.2786816 -0.2786816 0.9190609 -0.2786816 -0.2786816 0.9190609 -0.2786816 -0.2786816 0.9190609 -0.2786817 -0.2786817 0.9190609 -0.2786817 -0.2786817 0.9190609 -0.2786817 -0.2786817 0.9190609 -0.102004 -0.3806859 0.9190611 -0.102004 -0.3806859 0.9190611 -0.102004 -0.3806859 0.9190611 -0.1020037 -0.3806863 0.919061 -0.1020037 -0.3806863 0.919061 -0.1020037 -0.3806863 0.919061 0.1020041 -0.3806861 0.9190611 0.1020041 -0.3806861 0.9190611 0.1020041 -0.3806861 0.9190611 0.1020036 -0.3806859 0.9190612 0.1020036 -0.3806859 0.9190612 0.1020036 -0.3806859 0.9190612 0.2786816 -0.2786816 0.9190609 0.2786816 -0.2786816 0.9190609 0.2786816 -0.2786816 0.9190609 0.2786817 -0.2786817 0.9190609 0.2786817 -0.2786817 0.9190609 0.2786817 -0.2786817 0.9190609 0.3806859 -0.102004 0.9190611 0.3806859 -0.102004 0.9190611 0.3806859 -0.102004 0.9190611 0.3806863 -0.1020037 0.919061 0.3806863 -0.1020037 0.919061 0.3806863 -0.1020037 0.919061 0.3806861 0.1020041 0.9190611 0.3806861 0.1020041 0.9190611 0.3806861 0.1020041 0.9190611 0.3806859 0.1020036 0.9190612 0.3806859 0.1020036 0.9190612 0.3806859 0.1020036 0.9190612 0.2786816 0.2786816 0.9190609 0.2786816 0.2786816 0.9190609 0.2786816 0.2786816 0.9190609 0.2786817 0.2786817 0.9190609 0.2786817 0.2786817 0.9190609 0.2786817 0.2786817 0.9190609 0.102004 0.3806859 0.9190611 0.102004 0.3806859 0.9190611 0.102004 0.3806859 0.9190611 0.1020037 0.3806863 0.919061 0.1020037 0.3806863 0.919061 0.1020037 0.3806863 0.919061 -0.1020041 0.3806861 0.9190611 -0.1020041 0.3806861 0.9190611 -0.1020041 0.3806861 0.9190611 -0.1020036 0.3806859 0.9190612 -0.1020036 0.3806859 0.9190612 -0.1020036 0.3806859 0.9190612 -0.2786816 0.2786816 0.9190609 -0.2786816 0.2786816 0.9190609 -0.2786816 0.2786816 0.9190609 -0.2786817 0.2786817 0.9190609 -0.2786817 0.2786817 0.9190609 -0.2786817 0.2786817 0.9190609 -0.3806859 0.102004 0.9190611 -0.3806859 0.102004 0.9190611 -0.3806859 0.102004 0.9190611 -0.3806863 0.1020037 0.919061 -0.3806863 0.1020037 0.919061 -0.3806863 0.1020037 0.919061 -0.1304458 -0.0349525 0.9908391 -0.1304458 -0.0349525 0.9908391 -0.1304458 -0.0349525 0.9908391 1.0 0.0 0.0 1.0 0.0 0.0 -0.0954928 -0.0954928 0.9908392 -0.0954928 -0.0954928 0.9908392 -0.0954928 -0.0954928 0.9908392 1.0 0.0 0.0 1.0 0.0 0.0 -0.0349525 -0.1304458 0.9908391 -0.0349525 -0.1304458 0.9908391 -0.0349525 -0.1304458 0.9908391 1.0 0.0 0.0 1.0 0.0 0.0 0.0349525 -0.1304458 0.9908391 0.0349525 -0.1304458 0.9908391 0.0349525 -0.1304458 0.9908391 1.0 0.0 0.0 1.0 0.0 0.0 0.0954928 -0.0954928 0.9908392 0.0954928 -0.0954928 0.9908392 0.0954928 -0.0954928 0.9908392 1.0 0.0 0.0 1.0 0.0 0.0 0.1304458 -0.0349525 0.9908391 0.1304458 -0.0349525 0.9908391 0.1304458 -0.0349525 0.9908391 1.0 0.0 0.0 1.0 0.0 0.0 0.1304458 0.0349525 0.9908391 0.1304458 0.0349525 0.9908391 0.1304458 0.0349525 0.9908391 1.0 0.0 0.0 1.0 0.0 0.0 0.0954928 0.0954928 0.9908392 0.0954928 0.0954928 0.9908392 0.0954928 0.0954928 0.9908392 1.0 0.0 0.0 1.0 0.0 0.0 0.0349525 0.1304458 0.9908391 0.0349525 0.1304458 0.9908391 0.0349525 0.1304458 0.9908391 1.0 0.0 0.0 1.0 0.0 0.0 -0.0349525 0.1304458 0.9908391 -0.0349525 0.1304458 0.9908391 -0.0349525 0.1304458 0.9908391 1.0 0.0 0.0 1.0 0.0 0.0 -0.0954928 0.0954928 0.9908392 -0.0954928 0.0954928 0.9908392 -0.0954928 0.0954928 0.9908392 1.0 0.0 0.0 1.0 0.0 0.0 -0.1304458 0.0349525 0.9908391 -0.1304458 0.0349525 0.9908391 -0.1304458 0.0349525 0.9908391 1.0 0.0 0.0 1.0 0.0 0.0 1.0 0.0 0.0 1.0 0.0 0.0 -0.1304456 -0.0349525 -0.9908391 -0.1304456 -0.0349525 -0.9908391 -0.1304456 -0.0349525 -0.9908391 1.0 0.0 0.0 1.0 0.0 0.0 -0.0954927 -0.0954927 -0.9908392 -0.0954927 -0.0954927 -0.9908392 -0.0954927 -0.0954927 -0.9908392 1.0 0.0 0.0 1.0 0.0 0.0 -0.0349525 -0.1304456 -0.9908391 -0.0349525 -0.1304456 -0.9908391 -0.0349525 -0.1304456 -0.9908391 1.0 0.0 0.0 1.0 0.0 0.0 0.0349525 -0.1304456 -0.9908391 0.0349525 -0.1304456 -0.9908391 0.0349525 -0.1304456 -0.9908391 1.0 0.0 0.0 1.0 0.0 0.0 0.0954927 -0.0954927 -0.9908392 0.0954927 -0.0954927 -0.9908392 0.0954927 -0.0954927 -0.9908392 1.0 0.0 0.0 1.0 0.0 0.0 0.1304456 -0.0349525 -0.9908391 0.1304456 -0.0349525 -0.9908391 0.1304456 -0.0349525 -0.9908391 1.0 0.0 0.0 1.0 0.0 0.0 0.1304456 0.0349525 -0.9908391 0.1304456 0.0349525 -0.9908391 0.1304456 0.0349525 -0.9908391 1.0 0.0 0.0 1.0 0.0 0.0 0.0954927 0.0954927 -0.9908392 0.0954927 0.0954927 -0.9908392 0.0954927 0.0954927 -0.9908392 1.0 0.0 0.0 1.0 0.0 0.0 0.0349525 0.1304456 -0.9908391 0.0349525 0.1304456 -0.9908391 0.0349525 0.1304456 -0.9908391 1.0 0.0 0.0 1.0 0.0 0.0 -0.0349525 0.1304456 -0.9908391 -0.0349525 0.1304456 -0.9908391 -0.0349525 0.1304456 -0.9908391 1.0 0.0 0.0 1.0 0.0 0.0 -0.0954927 0.0954927 -0.9908392 -0.0954927 0.0954927 -0.9908392 -0.0954927 0.0954927 -0.9908392 1.0 0.0 0.0 1.0 0.0 0.0 -0.1304456 0.0349525 -0.9908391 -0.1304456 0.0349525 -0.9908391 -0.1304456 0.0349525 -0.9908391 -0.3806893 -0.1020045 -0.9190597 -0.3806893 -0.1020045 -0.9190597 -0.3806893 -0.1020045 -0.9190597 -0.3806889 -0.1020048 -0.9190599 -0.3806889 -0.1020048 -0.9190599 -0.3806889 -0.1020048 -0.9190599 -0.2786838 -0.2786838 -0.9190596 -0.2786838 -0.2786838 -0.9190596 -0.2786838 -0.2786838 -0.9190596 -0.2786838 -0.2786838 -0.9190596 -0.2786838 -0.2786838 -0.9190596 -0.2786838 -0.2786838 -0.9190596 -0.1020044 -0.3806888 -0.9190599 -0.1020044 -0.3806888 -0.9190599 -0.1020044 -0.3806888 -0.9190599 -0.1020048 -0.380689 -0.9190598 -0.1020048 -0.380689 -0.9190598 -0.1020048 -0.380689 -0.9190598 0.1020045 -0.3806893 -0.9190597 0.1020045 -0.3806893 -0.9190597 0.1020045 -0.3806893 -0.9190597 0.1020048 -0.3806889 -0.9190599 0.1020048 -0.3806889 -0.9190599 0.1020048 -0.3806889 -0.9190599 0.2786838 -0.2786838 -0.9190596 0.2786838 -0.2786838 -0.9190596 0.2786838 -0.2786838 -0.9190596 0.2786838 -0.2786838 -0.9190596 0.2786838 -0.2786838 -0.9190596 0.2786838 -0.2786838 -0.9190596 0.3806888 -0.1020044 -0.9190599 0.3806888 -0.1020044 -0.9190599 0.3806888 -0.1020044 -0.9190599 0.380689 -0.1020048 -0.9190598 0.380689 -0.1020048 -0.9190598 0.380689 -0.1020048 -0.9190598 0.3806893 0.1020045 -0.9190597 0.3806893 0.1020045 -0.9190597 0.3806893 0.1020045 -0.9190597 0.3806889 0.1020048 -0.9190599 0.3806889 0.1020048 -0.9190599 0.3806889 0.1020048 -0.9190599 0.2786838 0.2786838 -0.9190596 0.2786838 0.2786838 -0.9190596 0.2786838 0.2786838 -0.9190596 0.2786838 0.2786838 -0.9190596 0.2786838 0.2786838 -0.9190596 0.2786838 0.2786838 -0.9190596 0.1020044 0.3806888 -0.9190599 0.1020044 0.3806888 -0.9190599 0.1020044 0.3806888 -0.9190599 0.1020048 0.380689 -0.9190598 0.1020048 0.380689 -0.9190598 0.1020048 0.380689 -0.9190598 -0.1020045 0.3806893 -0.9190597 -0.1020045 0.3806893 -0.9190597 -0.1020045 0.3806893 -0.9190597 -0.1020048 0.3806889 -0.9190599 -0.1020048 0.3806889 -0.9190599 -0.1020048 0.3806889 -0.9190599 -0.2786838 0.2786838 -0.9190596 -0.2786838 0.2786838 -0.9190596 -0.2786838 0.2786838 -0.9190596 -0.2786838 0.2786838 -0.9190596 -0.2786838 0.2786838 -0.9190596 -0.2786838 0.2786838 -0.9190596 -0.3806888 0.1020044 -0.9190599 -0.3806888 0.1020044 -0.9190599 -0.3806888 0.1020044 -0.9190599 -0.380689 0.1020048 -0.9190598 -0.380689 0.1020048 -0.9190598 -0.380689 0.1020048 -0.9190598 -0.6008235 -0.1609894 -0.7830029 -0.6008235 -0.1609894 -0.7830029 -0.6008235 -0.1609894 -0.7830029 -0.6008213 -0.1609908 -0.7830043 -0.6008213 -0.1609908 -0.7830043 -0.6008213 -0.1609908 -0.7830043 -0.4398332 -0.4398332 -0.7830029 -0.4398332 -0.4398332 -0.7830029 -0.4398332 -0.4398332 -0.7830029 -0.4398331 -0.4398331 -0.783003 -0.4398331 -0.4398331 -0.783003 -0.4398331 -0.4398331 -0.783003 -0.1609889 -0.6008215 -0.7830046 -0.1609889 -0.6008215 -0.7830046 -0.1609889 -0.6008215 -0.7830046 -0.1609913 -0.6008228 -0.7830032 -0.1609913 -0.6008228 -0.7830032 -0.1609913 -0.6008228 -0.7830032 0.1609894 -0.6008235 -0.7830029 0.1609894 -0.6008235 -0.7830029 0.1609894 -0.6008235 -0.7830029 0.1609908 -0.6008213 -0.7830043 0.1609908 -0.6008213 -0.7830043 0.1609908 -0.6008213 -0.7830043 0.4398332 -0.4398332 -0.7830029 0.4398332 -0.4398332 -0.7830029 0.4398332 -0.4398332 -0.7830029 0.4398331 -0.4398331 -0.783003 0.4398331 -0.4398331 -0.783003 0.4398331 -0.4398331 -0.783003 0.6008215 -0.1609889 -0.7830046 0.6008215 -0.1609889 -0.7830046 0.6008215 -0.1609889 -0.7830046 0.6008228 -0.1609913 -0.7830032 0.6008228 -0.1609913 -0.7830032 0.6008228 -0.1609913 -0.7830032 0.6008235 0.1609894 -0.7830029 0.6008235 0.1609894 -0.7830029 0.6008235 0.1609894 -0.7830029 0.6008213 0.1609908 -0.7830043 0.6008213 0.1609908 -0.7830043 0.6008213 0.1609908 -0.7830043 0.4398332 0.4398332 -0.7830029 0.4398332 0.4398332 -0.7830029 0.4398332 0.4398332 -0.7830029 0.4398331 0.4398331 -0.783003 0.4398331 0.4398331 -0.783003 0.4398331 0.4398331 -0.783003 0.1609889 0.6008215 -0.7830046 0.1609889 0.6008215 -0.7830046 0.1609889 0.6008215 -0.7830046 0.1609913 0.6008228 -0.7830032 0.1609913 0.6008228 -0.7830032 0.1609913 0.6008228 -0.7830032 -0.1609894 0.6008235 -0.7830029 -0.1609894 0.6008235 -0.7830029 -0.1609894 0.6008235 -0.7830029 -0.1609908 0.6008213 -0.7830043 -0.1609908 0.6008213 -0.7830043 -0.1609908 0.6008213 -0.7830043 -0.4398332 0.4398332 -0.7830029 -0.4398332 0.4398332 -0.7830029 -0.4398332 0.4398332 -0.7830029 -0.4398331 0.4398331 -0.783003 -0.4398331 0.4398331 -0.783003 -0.4398331 0.4398331 -0.783003 -0.6008215 0.1609889 -0.7830046 -0.6008215 0.1609889 -0.7830046 -0.6008215 0.1609889 -0.7830046 -0.6008228 0.1609913 -0.7830032 -0.6008228 0.1609913 -0.7830032 -0.6008228 0.1609913 -0.7830032 -0.7760106 -0.2079331 -0.595459 -0.7760106 -0.2079331 -0.595459 -0.7760106 -0.2079331 -0.595459 -0.7760134 -0.2079313 -0.5954559 -0.7760134 -0.2079313 -0.5954559 -0.7760134 -0.2079313 -0.5954559 -0.5680794 -0.5680794 -0.5954592 -0.5680794 -0.5680794 -0.5954592 -0.5680794 -0.5680794 -0.5954592 -0.5680794 -0.5680794 -0.5954593 -0.5680794 -0.5680794 -0.5954593 -0.5680794 -0.5680794 -0.5954593 -0.2079337 -0.776013 -0.5954556 -0.2079337 -0.776013 -0.5954556 -0.2079337 -0.776013 -0.5954556 -0.2079308 -0.7760115 -0.5954587 -0.2079308 -0.7760115 -0.5954587 -0.2079308 -0.7760115 -0.5954587 0.2079331 -0.7760106 -0.595459 0.2079331 -0.7760106 -0.595459 0.2079331 -0.7760106 -0.595459 0.2079313 -0.7760134 -0.5954559 0.2079313 -0.7760134 -0.5954559 0.2079313 -0.7760134 -0.5954559 0.5680794 -0.5680794 -0.5954592 0.5680794 -0.5680794 -0.5954592 0.5680794 -0.5680794 -0.5954592 0.5680794 -0.5680794 -0.5954593 0.5680794 -0.5680794 -0.5954593 0.5680794 -0.5680794 -0.5954593 0.776013 -0.2079337 -0.5954556 0.776013 -0.2079337 -0.5954556 0.776013 -0.2079337 -0.5954556 0.7760115 -0.2079308 -0.5954587 0.7760115 -0.2079308 -0.5954587 0.7760115 -0.2079308 -0.5954587 0.7760106 0.2079331 -0.595459 0.7760106 0.2079331 -0.595459 0.7760106 0.2079331 -0.595459 0.7760134 0.2079313 -0.5954559 0.7760134 0.2079313 -0.5954559 0.7760134 0.2079313 -0.5954559 0.5680794 0.5680794 -0.5954592 0.5680794 0.5680794 -0.5954592 0.5680794 0.5680794 -0.5954592 0.5680794 0.5680794 -0.5954593 0.5680794 0.5680794 -0.5954593 0.5680794 0.5680794 -0.5954593 0.2079337 0.776013 -0.5954556 0.2079337 0.776013 -0.5954556 0.2079337 0.776013 -0.5954556 0.2079308 0.7760115 -0.5954587 0.2079308 0.7760115 -0.5954587 0.2079308 0.7760115 -0.5954587 -0.2079331 0.7760106 -0.595459 -0.2079331 0.7760106 -0.595459 -0.2079331 0.7760106 -0.595459 -0.2079313 0.7760134 -0.5954559 -0.2079313 0.7760134 -0.5954559 -0.2079313 0.7760134 -0.5954559 -0.5680794 0.5680794 -0.5954592 -0.5680794 0.5680794 -0.5954592 -0.5680794 0.5680794 -0.5954592 -0.5680794 0.5680794 -0.5954593 -0.5680794 0.5680794 -0.5954593 -0.5680794 0.5680794 -0.5954593 -0.776013 0.2079337 -0.5954556 -0.776013 0.2079337 -0.5954556 -0.776013 0.2079337 -0.5954556 -0.7760115 0.2079308 -0.5954587 -0.7760115 0.2079308 -0.5954587 -0.7760115 0.2079308 -0.5954587 -0.8968096 -0.2402984 -0.371469 -0.8968096 -0.2402984 -0.371469 -0.8968096 -0.2402984 -0.371469 -0.8968079 -0.2402998 -0.3714721 -0.8968079 -0.2402998 -0.3714721 -0.8968079 -0.2402998 -0.3714721 -0.65651 -0.65651 -0.3714691 -0.65651 -0.65651 -0.3714691 -0.65651 -0.65651 -0.3714691 -0.65651 -0.65651 -0.371469 -0.65651 -0.65651 -0.371469 -0.65651 -0.65651 -0.371469 -0.2402981 -0.8968083 -0.3714723 -0.2402981 -0.8968083 -0.3714723 -0.2402981 -0.8968083 -0.3714723 -0.2403001 -0.8968091 -0.3714691 -0.2403001 -0.8968091 -0.3714691 -0.2403001 -0.8968091 -0.3714691 0.2402984 -0.8968096 -0.371469 0.2402984 -0.8968096 -0.371469 0.2402984 -0.8968096 -0.371469 0.2402998 -0.8968079 -0.3714721 0.2402998 -0.8968079 -0.3714721 0.2402998 -0.8968079 -0.3714721 0.65651 -0.65651 -0.3714691 0.65651 -0.65651 -0.3714691 0.65651 -0.65651 -0.3714691 0.65651 -0.65651 -0.371469 0.65651 -0.65651 -0.371469 0.65651 -0.65651 -0.371469 0.8968083 -0.2402981 -0.3714723 0.8968083 -0.2402981 -0.3714723 0.8968083 -0.2402981 -0.3714723 0.8968091 -0.2403001 -0.3714691 0.8968091 -0.2403001 -0.3714691 0.8968091 -0.2403001 -0.3714691 0.8968096 0.2402984 -0.371469 0.8968096 0.2402984 -0.371469 0.8968096 0.2402984 -0.371469 0.8968079 0.2402998 -0.3714721 0.8968079 0.2402998 -0.3714721 0.8968079 0.2402998 -0.3714721 0.65651 0.65651 -0.3714691 0.65651 0.65651 -0.3714691 0.65651 0.65651 -0.3714691 0.65651 0.65651 -0.371469 0.65651 0.65651 -0.371469 0.65651 0.65651 -0.371469 0.2402981 0.8968083 -0.3714723 0.2402981 0.8968083 -0.3714723 0.2402981 0.8968083 -0.3714723 0.2403001 0.8968091 -0.3714691 0.2403001 0.8968091 -0.3714691 0.2403001 0.8968091 -0.3714691 -0.2402984 0.8968096 -0.371469 -0.2402984 0.8968096 -0.371469 -0.2402984 0.8968096 -0.371469 -0.2402998 0.8968079 -0.3714721 -0.2402998 0.8968079 -0.3714721 -0.2402998 0.8968079 -0.3714721 -0.65651 0.65651 -0.3714691 -0.65651 0.65651 -0.3714691 -0.65651 0.65651 -0.3714691 -0.65651 0.65651 -0.371469 -0.65651 0.65651 -0.371469 -0.65651 0.65651 -0.371469 -0.8968083 0.2402981 -0.3714723 -0.8968083 0.2402981 -0.3714723 -0.8968083 0.2402981 -0.3714723 -0.8968091 0.2403001 -0.3714691 -0.8968091 0.2403001 -0.3714691 -0.8968091 0.2403001 -0.3714691 -0.958209 -0.2567523 -0.1261503 -0.958209 -0.2567523 -0.1261503 -0.958209 -0.2567523 -0.1261503 -0.958209 -0.2567521 -0.1261498 -0.958209 -0.2567521 -0.1261498 -0.958209 -0.2567521 -0.1261498 -0.7014578 -0.7014578 -0.1261501 -0.7014578 -0.7014578 -0.1261501 -0.7014578 -0.7014578 -0.1261501 -0.7014578 -0.7014578 -0.1261501 -0.7014578 -0.7014578 -0.1261501 -0.7014578 -0.7014578 -0.1261501 -0.2567523 -0.958209 -0.1261498 -0.2567523 -0.958209 -0.1261498 -0.2567523 -0.958209 -0.1261498 -0.2567521 -0.958209 -0.1261503 -0.2567521 -0.958209 -0.1261503 -0.2567521 -0.958209 -0.1261503 0.2567523 -0.958209 -0.1261503 0.2567523 -0.958209 -0.1261503 0.2567523 -0.958209 -0.1261503 0.2567521 -0.958209 -0.1261498 0.2567521 -0.958209 -0.1261498 0.2567521 -0.958209 -0.1261498 0.7014578 -0.7014578 -0.1261501 0.7014578 -0.7014578 -0.1261501 0.7014578 -0.7014578 -0.1261501 0.7014578 -0.7014578 -0.1261501 0.7014578 -0.7014578 -0.1261501 0.7014578 -0.7014578 -0.1261501 0.958209 -0.2567523 -0.1261498 0.958209 -0.2567523 -0.1261498 0.958209 -0.2567523 -0.1261498 0.958209 -0.2567521 -0.1261503 0.958209 -0.2567521 -0.1261503 0.958209 -0.2567521 -0.1261503 0.958209 0.2567523 -0.1261503 0.958209 0.2567523 -0.1261503 0.958209 0.2567523 -0.1261503 0.958209 0.2567521 -0.1261498 0.958209 0.2567521 -0.1261498 0.958209 0.2567521 -0.1261498 0.7014578 0.7014578 -0.1261501 0.7014578 0.7014578 -0.1261501 0.7014578 0.7014578 -0.1261501 0.7014578 0.7014578 -0.1261501 0.7014578 0.7014578 -0.1261501 0.7014578 0.7014578 -0.1261501 0.2567523 0.958209 -0.1261498 0.2567523 0.958209 -0.1261498 0.2567523 0.958209 -0.1261498 0.2567521 0.958209 -0.1261503 0.2567521 0.958209 -0.1261503 0.2567521 0.958209 -0.1261503 -0.2567523 0.958209 -0.1261503 -0.2567523 0.958209 -0.1261503 -0.2567523 0.958209 -0.1261503 -0.2567521 0.958209 -0.1261498 -0.2567521 0.958209 -0.1261498 -0.2567521 0.958209 -0.1261498 -0.7014578 0.7014578 -0.1261501 -0.7014578 0.7014578 -0.1261501 -0.7014578 0.7014578 -0.1261501 -0.7014578 0.7014578 -0.1261501 -0.7014578 0.7014578 -0.1261501 -0.7014578 0.7014578 -0.1261501 -0.958209 0.2567523 -0.1261498 -0.958209 0.2567523 -0.1261498 -0.958209 0.2567523 -0.1261498 -0.958209 0.2567521 -0.1261503 -0.958209 0.2567521 -0.1261503 -0.958209 0.2567521 -0.1261503 -0.958209 -0.2567521 0.1261503 -0.958209 -0.2567521 0.1261503 -0.958209 -0.2567521 0.1261503 -0.958209 -0.2567523 0.1261498 -0.958209 -0.2567523 0.1261498 -0.958209 -0.2567523 0.1261498 -0.7014578 -0.7014578 0.1261501 -0.7014578 -0.7014578 0.1261501 -0.7014578 -0.7014578 0.1261501 -0.7014578 -0.7014578 0.1261502 -0.7014578 -0.7014578 0.1261502 -0.7014578 -0.7014578 0.1261502 -0.2567521 -0.958209 0.1261498 -0.2567521 -0.958209 0.1261498 -0.2567521 -0.958209 0.1261498 -0.2567523 -0.9582089 0.1261503 -0.2567523 -0.9582089 0.1261503 -0.2567523 -0.9582089 0.1261503 0.2567521 -0.958209 0.1261503 0.2567521 -0.958209 0.1261503 0.2567521 -0.958209 0.1261503 0.2567523 -0.958209 0.1261498 0.2567523 -0.958209 0.1261498 0.2567523 -0.958209 0.1261498 0.7014578 -0.7014578 0.1261501 0.7014578 -0.7014578 0.1261501 0.7014578 -0.7014578 0.1261501 0.7014578 -0.7014578 0.1261502 0.7014578 -0.7014578 0.1261502 0.7014578 -0.7014578 0.1261502 0.958209 -0.2567521 0.1261498 0.958209 -0.2567521 0.1261498 0.958209 -0.2567521 0.1261498 0.9582089 -0.2567523 0.1261503 0.9582089 -0.2567523 0.1261503 0.9582089 -0.2567523 0.1261503 0.958209 0.2567521 0.1261503 0.958209 0.2567521 0.1261503 0.958209 0.2567521 0.1261503 0.958209 0.2567523 0.1261498 0.958209 0.2567523 0.1261498 0.958209 0.2567523 0.1261498 0.7014578 0.7014578 0.1261501 0.7014578 0.7014578 0.1261501 0.7014578 0.7014578 0.1261501 0.7014578 0.7014578 0.1261502 0.7014578 0.7014578 0.1261502 0.7014578 0.7014578 0.1261502 0.2567521 0.958209 0.1261498 0.2567521 0.958209 0.1261498 0.2567521 0.958209 0.1261498 0.2567523 0.9582089 0.1261503 0.2567523 0.9582089 0.1261503 0.2567523 0.9582089 0.1261503 -0.2567521 0.958209 0.1261503 -0.2567521 0.958209 0.1261503 -0.2567521 0.958209 0.1261503 -0.2567523 0.958209 0.1261498 -0.2567523 0.958209 0.1261498 -0.2567523 0.958209 0.1261498 -0.7014578 0.7014578 0.1261501 -0.7014578 0.7014578 0.1261501 -0.7014578 0.7014578 0.1261501 -0.7014578 0.7014578 0.1261502 -0.7014578 0.7014578 0.1261502 -0.7014578 0.7014578 0.1261502 -0.958209 0.2567521 0.1261498 -0.958209 0.2567521 0.1261498 -0.958209 0.2567521 0.1261498 -0.9582089 0.2567523 0.1261503 -0.9582089 0.2567523 0.1261503 -0.9582089 0.2567523 0.1261503 -0.896809 -0.2403001 0.3714692 -0.896809 -0.2403001 0.3714692 -0.896809 -0.2403001 0.3714692 -0.8968083 -0.2402981 0.3714723 -0.8968083 -0.2402981 0.3714723 -0.8968083 -0.2402981 0.3714723 -0.65651 -0.65651 0.3714691 -0.65651 -0.65651 0.3714691 -0.65651 -0.65651 0.3714691 -0.6565099 -0.6565099 0.3714691 -0.6565099 -0.6565099 0.3714691 -0.6565099 -0.6565099 0.3714691 -0.2402998 -0.8968079 0.3714721 -0.2402998 -0.8968079 0.3714721 -0.2402998 -0.8968079 0.3714721 -0.2402984 -0.8968096 0.371469 -0.2402984 -0.8968096 0.371469 -0.2402984 -0.8968096 0.371469 0.2403001 -0.896809 0.3714692 0.2403001 -0.896809 0.3714692 0.2403001 -0.896809 0.3714692 0.2402981 -0.8968083 0.3714723 0.2402981 -0.8968083 0.3714723 0.2402981 -0.8968083 0.3714723 0.65651 -0.65651 0.3714691 0.65651 -0.65651 0.3714691 0.65651 -0.65651 0.3714691 0.6565099 -0.6565099 0.3714691 0.6565099 -0.6565099 0.3714691 0.6565099 -0.6565099 0.3714691</float_array>
                    <technique_common>
                        <accessor count="840" source="#geometry0-normal-array" stride="3">
                            <param name="X" type="float"/>
                            <param name="Y" type="float"/>
                            <param name="Z" type="float"/>
                        </accessor>
                    </technique_common>
                </source>
                <vertices id="geometry0-vertex">
                    <input semantic="POSITION" source="#geometry0-position"/>
                </vertices>
                <triangles count="288" material="default_ai_0.2_sh_0.2_tr_0.0_dc_r_0.8_g_0.8_b_0.8_sc_r_1.0_g_1.0_b_1.0_ec_r_0.0_g_0.0_b_0_tri">
                    <input offset="0" semantic="VERTEX" source="#geometry0-vertex"/>
                    <input offset="1" semantic="NORMAL" source="#geometry0-normal"/>
                    <p>78 0 79 1 91 2 78 3 91 4 90 5 79 6 80 7 92 8 79 9 92 10 91 11 80 12 81 13 93 14 80 15 93 16 92 17 81 18 82 19 94 20 81 21 94 22 93 23 82 24 83 25 95 26 82 27 95 28 94 29 83 30 84 31 96 32 83 33 96 34 95 35 84 36 74 37 86 38 84 39 86 40 96 41 86 42 85 43 97 44 86 45 97 46 98 47 85 48 87 49 99 50 85 51 99 52 97 53 87 54 88 55 100 56 87 57 100 58 99 59 88 60 89 61 101 62 88 63 101 64 100 65 89 66 90 67 102 68 89 69 102 70 101 71 90 72 91 73 103 74 90 75 103 76 102 77 91 78 92 79 104 80 91 81 104 82 103 83 92 84 93 85 105 86 92 87 105 88 104 89 93 90 94 91 106 92 93 93 106 94 105 95 94 96 95 97 107 98 94 99 107 100 106 101 95 102 96 103 108 104 95 105 108 106 107 107 96 108 86 109 98 110 96 111 98 112 108 113 98 114 97 115 109 116 98 117 109 118 110 119 97 120 99 121 111 122 97 123 111 124 109 125 99 126 100 127 112 128 99 129 112 130 111 131 100 132 101 133 113 134 100 135 113 136 112 137 101 138 102 139 114 140 101 141 114 142 113 143 102 144 103 145 115 146 102 147 115 148 114 149 103 150 104 151 116 152 103 153 116 154 115 155 104 156 105 157 117 158 104 159 117 160 116 161 105 162 106 163 118 164 105 165 118 166 117 167 106 168 107 169 119 170 106 171 119 172 118 173 107 174 108 175 120 176 107 177 120 178 119 179 108 180 98 181 110 182 108 183 110 184 120 185 110 186 109 187 121 188 110 189 121 190 122 191 109 192 111 193 123 194 109 195 123 196 121 197 111 198 112 199 124 200 111 201 124 202 123 203 112 204 113 205 125 206 112 207 125 208 124 209 113 210 114 211 126 212 113 213 126 214 125 215 114 216 115 217 127 218 114 219 127 220 126 221 115 222 116 223 128 224 115 225 128 226 127 227 116 228 117 229 129 230 116 231 129 232 128 233 117 234 118 235 130 236 117 237 130 238 129 239 118 240 119 241 131 242 118 243 131 244 130 245 119 246 120 247 132 248 119 249 132 250 131 251 120 252 110 253 122 254 120 255 122 256 132 257 122 258 121 259 133 260 122 261 133 262 133 262 121 263 123 264 133 265 121 266 133 267 133 267 123 268 124 269 133 270 123 271 133 272 133 272 124 273 125 274 133 275 124 276 133 277 133 277 125 278 126 279 133 280 125 281 133 282 133 282 126 283 127 284 133 285 126 286 133 287 133 287 127 288 128 289 133 290 127 291 133 292 133 292 128 293 129 294 133 295 128 296 133 297 133 297 129 298 130 299 133 300 129 301 133 302 133 302 130 303 131 304 133 305 130 306 133 307 133 307 131 308 132 309 133 310 131 311 133 312 133 312 132 313 122 314 133 315 132 316 133 317 133 317 0 318 0 318 1 319 0 320 1 321 2 322 0 323 0 323 3 324 0 325 3 326 1 327 0 328 0 328 4 329 0 330 4 331 3 332 0 333 0 333 5 334 0 335 5 336 4 337 0 338 0 338 6 339 0 340 6 341 5 342 0 343 0 343 7 344 0 345 7 346 6 347 0 348 0 348 8 349 0 350 8 351 7 352 0 353 0 353 9 354 0 355 9 356 8 357 0 358 0 358 10 359 0 360 10 361 9 362 0 363 0 363 11 364 0 365 11 366 10 367 0 368 0 368 12 369 0 370 12 371 11 372 0 373 0 373 2 374 0 375 2 376 12 377 2 378 1 379 13 380 2 381 13 382 14 383 1 384 3 385 15 386 1 387 15 388 13 389 3 390 4 391 16 392 3 393 16 394 15 395 4 396 5 397 17 398 4 399 17 400 16 401 5 402 6 403 18 404 5 405 18 406 17 407 6 408 7 409 19 410 6 411 19 412 18 413 7 414 8 415 20 416 7 417 20 418 19 419 8 420 9 421 21 422 8 423 21 424 20 425 9 426 10 427 22 428 9 429 22 430 21 431 10 432 11 433 23 434 10 435 23 436 22 437 11 438 12 439 24 440 11 441 24 442 23 443 12 444 2 445 14 446 12 447 14 448 24 449 14 450 13 451 25 452 14 453 25 454 26 455 13 456 15 457 27 458 13 459 27 460 25 461 15 462 16 463 28 464 15 465 28 466 27 467 16 468 17 469 29 470 16 471 29 472 28 473 17 474 18 475 30 476 17 477 30 478 29 479 18 480 19 481 31 482 18 483 31 484 30 485 19 486 20 487 32 488 19 489 32 490 31 491 20 492 21 493 33 494 20 495 33 496 32 497 21 498 22 499 34 500 21 501 34 502 33 503 22 504 23 505 35 506 22 507 35 508 34 509 23 510 24 511 36 512 23 513 36 514 35 515 24 516 14 517 26 518 24 519 26 520 36 521 26 522 25 523 37 524 26 525 37 526 38 527 25 528 27 529 39 530 25 531 39 532 37 533 27 534 28 535 40 536 27 537 40 538 39 539 28 540 29 541 41 542 28 543 41 544 40 545 29 546 30 547 42 548 29 549 42 550 41 551 30 552 31 553 43 554 30 555 43 556 42 557 31 558 32 559 44 560 31 561 44 562 43 563 32 564 33 565 45 566 32 567 45 568 44 569 33 570 34 571 46 572 33 573 46 574 45 575 34 576 35 577 47 578 34 579 47 580 46 581 35 582 36 583 48 584 35 585 48 586 47 587 36 588 26 589 38 590 36 591 38 592 48 593 38 594 37 595 49 596 38 597 49 598 50 599 37 600 39 601 51 602 37 603 51 604 49 605 39 606 40 607 52 608 39 609 52 610 51 611 40 612 41 613 53 614 40 615 53 616 52 617 41 618 42 619 54 620 41 621 54 622 53 623 42 624 43 625 55 626 42 627 55 628 54 629 43 630 44 631 56 632 43 633 56 634 55 635 44 636 45 637 57 638 44 639 57 640 56 641 45 642 46 643 58 644 45 645 58 646 57 647 46 648 47 649 59 650 46 651 59 652 58 653 47 654 48 655 60 656 47 657 60 658 59 659 48 660 38 661 50 662 48 663 50 664 60 665 50 666 49 667 61 668 50 669 61 670 62 671 49 672 51 673 63 674 49 675 63 676 61 677 51 678 52 679 64 680 51 681 64 682 63 683 52 684 53 685 65 686 52 687 65 688 64 689 53 690 54 691 66 692 53 693 66 694 65 695 54 696 55 697 67 698 54 699 67 700 66 701 55 702 56 703 68 704 55 705 68 706 67 707 56 708 57 709 69 710 56 711 69 712 68 713 57 714 58 715 70 716 57 717 70 718 69 719 58 720 59 721 71 722 58 723 71 724 70 725 59 726 60 727 72 728 59 729 72 730 71 731 60 732 50 733 62 734 60 735 62 736 72 737 62 738 61 739 73 740 62 741 73 742 74 743 61 744 63 745 75 746 61 747 75 748 73 749 63 750 64 751 76 752 63 753 76 754 75 755 64 756 65 757 77 758 64 759 77 760 76 761 65 762 66 763 78 764 65 765 78 766 77 767 66 768 67 769 79 770 66 771 79 772 78 773 67 774 68 775 80 776 67 777 80 778 79 779 68 780 69 781 81 782 68 783 81 784 80 785 69 786 70 787 82 788 69 789 82 790 81 791 70 792 71 793 83 794 70 795 83 796 82 797 71 798 72 799 84 800 71 801 84 802 83 803 72 804 62 805 74 806 72 807 74 808 84 809 74 810 73 811 85 812 74 813 85 814 86 815 73 816 75 817 87 818 73 819 87 820 85 821 75 822 76 823 88 824 75 825 88 826 87 827 76 828 77 829 89 830 76 831 89 832 88 833 77 834 78 835 90 836 77 837 90 838 89 839</p>
                </triangles>
            </mesh>
        </geometry>
    </library_geometries>
    <library_visual_scenes>
        <visual_scene id="Building_61_CROWN1">
            <node>
                <instance_geometry url="#geometry0">
                    <bind_material>
                        <technique_common>
                            <instance_material symbol="default_ai_0.2_sh_0.2_tr_0.0_dc_r_0.8_g_0.8_b_0.8_sc_r_1.0_g_1.0_b_1.0_ec_r_0.0_g_0.0_b_0_tri" target="#default_ai_0.2_sh_0.2_tr_0.0_dc_r_0.8_g_0.8_b_0.8_sc_r_1.0_g_1.0_b_1.0_ec_r_0.0_g_0.0_b_0_mat"/>
                        </technique_common>
                    </bind_material>
                </instance_geometry>
            </node>
        </visual_scene>
    </library_visual_scenes>
    <scene>
        <instance_visual_scene url="#Building_61_CROWN1"/>
    </scene>
</COLLADA>
