<?xml version="1.0" encoding="UTF-8" standalone="yes"?>
<COLLADA xmlns="http://www.collada.org/2005/11/COLLADASchema" version="1.4.1">
    <asset>
        <contributor>
            <authoring_tool>3D City Database Importer/Exporter, version 5.5.3; Chair of Geoinformatics, Technical University of Munich</authoring_tool>
        </contributor>
        <created>2026-09-25T14:44:37.712</created>
        <modified>2026-09-25T14:44:37.712</modified>
        <unit meter="1.0" name="meters"/>
        <up_axis>Z_UP</up_axis>
    </asset>
    <library_materials>
        <material id="default_ai_0.2_sh_0.2_tr_0.0_dc_r_0.8_g_0.8_b_0.8_sc_r_1.0_g_1.0_b_1.0_ec_r_0.0_g_0.0_b_0_mat">
            <instance_effect url="#default_ai_0.2_sh_0.2_tr_0.0_dc_r_0.8_g_0.8_b_0.8_sc_r_1.0_g_1.0_b_1.0_ec_r_0.0_g_0.0_b_0_eff"/>
        </material>
    </library_materials>
    <library_effects>
        <effect id="default_ai_0.2_sh_0.2_tr_0.0_dc_r_0.8_g_0.8_b_0.8_sc_r_1.0_g_1.0_b_1.0_ec_r_0.0_g_0.0_b_0_eff">
            <profile_COMMON>
                <technique sid="COMMON">
                    <lambert>
                        <emission>
                            <color>0.0 0.0 0.0 1.0</color>
                        </emission>
                        <diffuse>
                            <color>0.8 0.8 0.8 1.0</color>
                        </diffuse>
                        <reflective>
                            <color>1.0 1.0 1.0 1.0</color>
                        </reflective>
                        <reflectivity>
                            <float>0.2</float>
                        </reflectivity>
                        <transparent opaque="A_ONE">
                            <color>1.0 1.0 1.0 1.0</color>
                        </transparent>
                        <transparency>
                            <float>1.0</float>
                        </transparency>
                    </lambert>
                </technique>
                <extra>
                    <technique profile="GOOGLEEARTH">
                        <double_sided>0</double_sided>
                    </technique>
                </extra>
            </profile_COMMON>
        </effect>
    </library_effects>
    <library_geometries>
        <geometry id="geometry0">
            <mesh>
                <source id="geometry0-position">
                    <float_array id="geometry0-position-array" count="78">0.0 0.0 0.0 -0.006531 0.024375 0.0 -0.006531 0.024375 0.6 0.0 0.0 0.6 -0.024375 0.042219 0.0 -0.024375 0.042219 0.6 -0.04875 0.04875 0.0 -0.04875 0.04875 0.6 -0.073125 0.042219 0.0 -0.073125 0.042219 0.6 -0.090969 0.024375 0.0 -0.090969 0.024375 0.6 -0.0975 0.0 0.0 -0.0975 0.0 0.6 -0.090969 -0.024375 0.0 -0.090969 -0.024375 0.6 -0.073125 -0.042219 0.0 -0.073125 -0.042219 0.6 -0.04875 -0.04875 0.0 -0.04875 -0.04875 0.6 -0.024375 -0.042219 0.0 -0.024375 -0.042219 0.6 -0.006531 -0.024375 0.0 -0.006531 -0.024375 0.6 -0.04875 0.0 0.0 -0.04875 0.0 0.6</float_array>
                    <technique_common>
                        <accessor count="26" source="#geometry0-position-array" stride="3">
                            <param name="X" type="float"/>
                            <param name="Y" type="float"/>
                            <param name="Z" type="float"/>
                        </accessor>
                    </technique_common>
                </source>
                <source id="geometry0-normal">
                    <float_array id="geometry0-normal-array" count="432">-0.9659285 -0.2588094 0.0 -0.9659285 -0.2588094 0.0 -0.9659285 -0.2588094 0.0 -0.9659285 -0.2588094 0.0 -0.9659285 -0.2588094 0.0 -0.9659285 -0.2588094 0.0 -0.7071068 -0.7071068 0.0 -0.7071068 -0.7071068 0.0 -0.7071068 -0.7071068 0.0 -0.7071068 -0.7071068 0.0 -0.7071068 -0.7071068 0.0 -0.7071068 -0.7071068 0.0 -0.2588094 -0.9659285 0.0 -0.2588094 -0.9659285 0.0 -0.2588094 -0.9659285 0.0 -0.2588094 -0.9659285 0.0 -0.2588094 -0.9659285 0.0 -0.2588094 -0.9659285 0.0 0.2588094 -0.9659285 0.0 0.2588094 -0.9659285 0.0 0.2588094 -0.9659285 0.0 0.2588094 -0.9659285 0.0 0.2588094 -0.9659285 0.0 0.2588094 -0.9659285 0.0 0.7071068 -0.7071068 0.0 0.7071068 -0.7071068 0.0 0.7071068 -0.7071068 0.0 0.7071068 -0.7071068 0.0 0.7071068 -0.7071068 0.0 0.7071068 -0.7071068 0.0 0.9659285 -0.2588094 0.0 0.9659285 -0.2588094 0.0 0.9659285 -0.2588094 0.0 0.9659285 -0.2588094 0.0 0.9659285 -0.2588094 0.0 0.9659285 -0.2588094 0.0 0.0 0.0 -1.0 0.0 0.0 -1.0 0.0 0.0 -1.0 0.0 0.0 -1.0 0.0 0.0 -1.0 0.0 0.0 -1.0 0.0 0.0 -1.0 0.0 0.0 -1.0 0.0 0.0 -1.0 0.0 0.0 -1.0 0.0 0.0 -1.0 0.0 0.0 -1.0 0.0 0.0 -1.0 0.0 0.0 -1.0 0.0 0.0 -1.0 0.0 0.0 -1.0 0.0 0.0 -1.0 0.0 0.0 -1.0 0.0 0.0 -1.0 0.0 0.0 -1.0 0.0 0.0 -1.0 0.0 0.0 -1.0 0.0 0.0 -1.0 0.0 0.0 -1.0 0.0 0.0 -1.0 0.0 0.0 -1.0 0.0 0.0 -1.0 0.0 0.0 -1.0 0.0 0.0 -1.0 0.0 0.0 -1.0 0.0 0.0 -1.0 0.0 0.0 -1.0 0.0 0.0 -1.0 0.0 0.0 -1.0 0.0 0.0 -1.0 0.0 0.0 -1.0 0.0 0.0 1.0 0.0 0.0 1.0 0.0 0.0 1.0 0.0 0.0 1.0 0.0 0.0 1.0 0.0 0.0 1.0 0.0 0.0 1.0 0.0 0.0 1.0 0.0 0.0 1.0 0.0 0.0 1.0 0.0 0.0 1.0 0.0 0.0 1.0 0.0 0.0 1.0 0.0 0.0 1.0 0.0 0.0 1.0 0.0 0.0 1.0 0.0 0.0 1.0 0.0 0.0 1.0 0.0 0.0 1.0 0.0 0.0 1.0 0.0 0.0 1.0 0.0 0.0 1.0 0.0 0.0 1.0 0.0 0.0 1.0 0.0 0.0 1.0 0.0 0.0 1.0 0.0 0.0 1.0 0.0 0.0 1.0 0.0 0.0 1.0 0.0 0.0 1.0 0.0 0.0 1.0 0.0 0.0 1.0 0.0 0.0 1.0 0.0 0.0 1.0 0.0 0.0 1.0 0.0 0.0 1.0 0.9659285 0.2588094 0.0 0.9659285 0.2588094 0.0 0.9659285 0.2588094 0.0 0.9659285 0.2588094 0.0 0.9659285 0.2588094 0.0 0.9659285 0.2588094 0.0 0.7071068 0.7071068 0.0 0.7071068 0.7071068 0.0 0.7071068 0.7071068 0.0 0.7071068 0.7071068 0.0 0.7071068 0.7071068 0.0 0.7071068 0.7071068 0.0 0.2588094 0.9659285 0.0 0.2588094 0.9659285 0.0 0.2588094 0.9659285 0.0 0.2588094 0.9659285 0.0 0.2588094 0.9659285 0.0 0.2588094 0.9659285 0.0 -0.2588094 0.9659285 0.0 -0.2588094 0.9659285 0.0 -0.2588094 0.9659285 0.0 -0.2588094 0.9659285 0.0 -0.2588094 0.9659285 0.0 -0.2588094 0.9659285 0.0 -0.7071068 0.7071068 0.0 -0.7071068 0.7071068 0.0 -0.7071068 0.7071068 0.0 -0.7071068 0.7071068 0.0 -0.7071068 0.7071068 0.0 -0.7071068 0.7071068 0.0 -0.9659285 0.2588094 0.0 -0.9659285 0.2588094 0.0 -0.9659285 0.2588094 0.0 -0.9659285 0.2588094 0.0 -0.9659285 0.2588094 0.0 -0.9659285 0.2588094 0.0</float_array>
                    <technique_common>
                        <accessor count="144" source="#geometry0-normal-array" stride="3">
                            <param name="X" type="float"/>
                            <param name="Y" type="float"/>
                            <param name="Z" type="float"/>
                        </accessor>
                    </technique_common>
                </source>
                <vertices id="geometry0-vertex">
                    <input semantic="POSITION" source="#geometry0-position"/>
                </vertices>
                <triangles count="48" material="default_ai_0.2_sh_0.2_tr_0.0_dc_r_0.8_g_0.8_b_0.8_sc_r_1.0_g_1.0_b_1.0_ec_r_0.0_g_0.0_b_0_tri">
                    <input offset="0" semantic="VERTEX" source="#geometry0-vertex"/>
                    <input offset="1" semantic="NORMAL" source="#geometry0-normal"/>
                    <p>12 0 14 1 15 2 12 3 15 4 13 5 14 6 16 7 17 8 14 9 17 10 15 11 16 12 18 13 19 14 16 15 19 16 17 17 18 18 20 19 21 20 18 21 21 22 19 23 20 24 22 25 23 26 20 27 23 28 21 29 22 30 0 31 3 32 22 33 3 34 23 35 24 36 1 37 0 38 24 39 4 40 1 41 24 42 6 43 4 44 24 45 8 46 6 47 24 48 10 49 8 50 24 51 12 52 10 53 24 54 14 55 12 56 24 57 16 58 14 59 24 60 18 61 16 62 24 63 20 64 18 65 24 66 22 67 20 68 24 69 0 70 22 71 25 72 3 73 2 74 25 75 2 76 5 77 25 78 5 79 7 80 25 81 7 82 9 83 25 84 9 85 11 86 25 87 11 88 13 89 25 90 13 91 15 92 25 93 15 94 17 95 25 96 17 97 19 98 25 99 19 100 21 101 25 102 21 103 23 104 25 105 23 106 3 107 0 108 1 109 2 110 0 111 2 112 3 113 1 114 4 115 5 116 1 117 5 118 2 119 4 120 6 121 7 122 4 123 7 124 5 125 6 126 8 127 9 128 6 129 9 130 7 131 8 132 10 133 11 134 8 135 11 136 9 137 10 138 12 139 13 140 10 141 13 142 11 143</p>
                </triangles>
            </mesh>
        </geometry>
    </library_geometries>
    <library_visual_scenes>
        <visual_scene id="Building_4_TRUNK2">
            <node>
                <instance_geometry url="#geometry0">
                    <bind_material>
                        <technique_common>
                            <instance_material symbol="default_ai_0.2_sh_0.2_tr_0.0_dc_r_0.8_g_0.8_b_0.8_sc_r_1.0_g_1.0_b_1.0_ec_r_0.0_g_0.0_b_0_tri" target="#default_ai_0.2_sh_0.2_tr_0.0_dc_r_0.8_g_0.8_b_0.8_sc_r_1.0_g_1.0_b_1.0_ec_r_0.0_g_0.0_b_0_mat"/>
                        </technique_common>
                    </bind_material>
                </instance_geometry>
            </node>
        </visual_scene>
    </library_visual_scenes>
    <scene>
        <instance_visual_scene url="#Building_4_TRUNK2"/>
    </scene>
</COLLADA>
