<?xml version="1.0" encoding="UTF-8" standalone="yes"?>
<COLLADA xmlns="http://www.collada.org/2005/11/COLLADASchema" version="1.4.1">
    <asset>
        <contributor>
            <authoring_tool>3D City Database Importer/Exporter, version 5.5.3; Chair of Geoinformatics, Technical University of Munich</authoring_tool>
        </contributor>
        <created>2026-09-25T14:45:38.504</created>
        <modified>2026-09-25T14:45:38.504</modified>
        <unit meter="1.0" name="meters"/>
        <up_axis>Z_UP</up_axis>
    </asset>
    <library_materials>
        <material id="default_ai_0.2_sh_0.2_tr_0.0_dc_r_0.8_g_0.8_b_0.8_sc_r_1.0_g_1.0_b_1.0_ec_r_0.0_g_0.0_b_0_mat">
            <instance_effect url="#default_ai_0.2_sh_0.2_tr_0.0_dc_r_0.8_g_0.8_b_0.8_sc_r_1.0_g_1.0_b_1.0_ec_r_0.0_g_0.0_b_0_eff"/>
        </material>
    </library_materials>
    <library_effects>
        <effect id="default_ai_0.2_sh_0.2_tr_0.0_dc_r_0.8_g_0.8_b_0.8_sc_r_1.0_g_1.0_b_1.0_ec_r_0.0_g_0.0_b_0_eff">
            <profile_COMMON>
                <technique sid="COMMON">
                    <lambert>
                        <emission>
                            <color>0.0 0.0 0.0 1.0</color>
                        </emission>
                        <diffuse>
                            <color>0.8 0.8 0.8 1.0</color>
                        </diffuse>
                        <reflective>
                            <color>1.0 1.0 1.0 1.0</color>
                        </reflective>
                        <reflectivity>
                            <float>0.2</float>
                        </reflectivity>
                        <transparent opaque="A_ONE">
                            <color>1.0 1.0 1.0 1.0</color>
                        </transparent>
                        <transparency>
                            <float>1.0</float>
                        </transparency>
                    </lambert>
                </technique>
                <extra>
                    <technique profile="GOOGLEEARTH">
                        <double_sided>0</double_sided>
                    </technique>
                </extra>
            </profile_COMMON>
        </effect>
    </library_effects>
    <library_geometries>
        <geometry id="geometry0">
            <mesh>
                <source id="geometry0-position">
                    <float_array id="geometry0-position-array" count="402">0.0 0.0 2.6 0.2913872 0.168233 2.5557038 0.3364647 0.0 2.5557038 0.168233 0.2913872 2.5557038 0.0 0.3364647 2.5557038 -0.168233 0.2913872 2.5557038 -0.2913872 0.168233 2.5557038 -0.3364647 0.0 2.5557038 -0.2913872 -0.168233 2.5557038 -0.168233 -0.2913872 2.5557038 0.0 -0.3364647 2.5557038 0.168233 -0.2913872 2.5557038 0.2913872 -0.168233 2.5557038 0.5629169 0.325 2.4258325 0.65 0.0 2.4258325 0.325 0.5629169 2.4258325 0.0 0.65 2.4258325 -0.325 0.5629169 2.4258325 -0.5629169 0.325 2.4258325 -0.65 0.0 2.4258325 -0.5629169 -0.325 2.4258325 -0.325 -0.5629169 2.4258325 0.0 -0.65 2.4258325 0.325 -0.5629169 2.4258325 0.5629169 -0.325 2.4258325 0.7960836 0.4596189 2.2192391 0.9192391 0.0 2.2192391 0.4596189 0.7960836 2.2192391 0.0 0.9192391 2.2192391 -0.4596189 0.7960836 2.2192391 -0.7960836 0.4596189 2.2192391 -0.9192391 0.0 2.2192391 -0.7960836 -0.4596189 2.2192391 -0.4596189 -0.7960836 2.2192391 0.0 -0.9192391 2.2192391 0.4596189 -0.7960836 2.2192391 0.7960836 -0.4596189 2.2192391 0.975 0.5629169 1.95 1.1258325 0.0 1.95 0.5629169 0.975 1.95 0.0 1.1258325 1.95 -0.5629169 0.975 1.95 -0.975 0.5629169 1.95 -1.1258325 0.0 1.95 -0.975 -0.5629169 1.95 -0.5629169 -0.975 1.95 0.0 -1.1258325 1.95 0.5629169 -0.975 1.95 0.975 -0.5629169 1.95 1.0874708 0.6278519 1.6364647 1.2557038 0.0 1.6364647 0.6278519 1.0874708 1.6364647 0.0 1.2557038 1.6364647 -0.6278519 1.0874708 1.6364647 -1.0874708 0.6278519 1.6364647 -1.2557038 0.0 1.6364647 -1.0874708 -0.6278519 1.6364647 -0.6278519 -1.0874708 1.6364647 0.0 -1.2557038 1.6364647 0.6278519 -1.0874708 1.6364647 1.0874708 -0.6278519 1.6364647 1.1258325 0.65 1.3 1.3 0.0 1.3 0.65 1.1258325 1.3 0.0 1.3 1.3 -0.65 1.1258325 1.3 -1.1258325 0.65 1.3 -1.3 0.0 1.3 -1.1258325 -0.65 1.3 -0.65 -1.1258325 1.3 0.0 -1.3 1.3 0.65 -1.1258325 1.3 1.1258325 -0.65 1.3 1.0874708 0.6278519 0.9635353 1.2557038 0.0 0.9635353 0.6278519 1.0874708 0.9635353 0.0 1.2557038 0.9635353 -0.6278519 1.0874708 0.9635353 -1.0874708 0.6278519 0.9635353 -1.2557038 0.0 0.9635353 -1.0874708 -0.6278519 0.9635353 -0.6278519 -1.0874708 0.9635353 0.0 -1.2557038 0.9635353 0.6278519 -1.0874708 0.9635353 1.0874708 -0.6278519 0.9635353 0.975 0.5629169 0.65 1.1258325 0.0 0.65 0.5629169 0.975 0.65 0.0 1.1258325 0.65 -0.5629169 0.975 0.65 -0.975 0.5629169 0.65 -1.1258325 0.0 0.65 -0.975 -0.5629169 0.65 -0.5629169 -0.975 0.65 0.0 -1.1258325 0.65 0.5629169 -0.975 0.65 0.975 -0.5629169 0.65 0.7960836 0.4596189 0.3807609 0.9192391 0.0 0.3807609 0.4596189 0.7960836 0.3807609 0.0 0.9192391 0.3807609 -0.4596189 0.7960836 0.3807609 -0.7960836 0.4596189 0.3807609 -0.9192391 0.0 0.3807609 -0.7960836 -0.4596189 0.3807609 -0.4596189 -0.7960836 0.3807609 0.0 -0.9192391 0.3807609 0.4596189 -0.7960836 0.3807609 0.7960836 -0.4596189 0.3807609 0.5629169 0.325 0.1741675 0.65 0.0 0.1741675 0.325 0.5629169 0.1741675 0.0 0.65 0.1741675 -0.325 0.5629169 0.1741675 -0.5629169 0.325 0.1741675 -0.65 0.0 0.1741675 -0.5629169 -0.325 0.1741675 -0.325 -0.5629169 0.1741675 0.0 -0.65 0.1741675 0.325 -0.5629169 0.1741675 0.5629169 -0.325 0.1741675 0.2913872 0.168233 0.0442962 0.3364647 0.0 0.0442962 0.168233 0.2913872 0.0442962 0.0 0.3364647 0.0442962 -0.168233 0.2913872 0.0442962 -0.2913872 0.168233 0.0442962 -0.3364647 0.0 0.0442962 -0.2913872 -0.168233 0.0442962 -0.168233 -0.2913872 0.0442962 0.0 -0.3364647 0.0442962 0.168233 -0.2913872 0.0442962 0.2913872 -0.168233 0.0442962 0.0 0.0 0.0</float_array>
                    <technique_common>
                        <accessor count="134" source="#geometry0-position-array" stride="3">
                            <param name="X" type="float"/>
                            <param name="Y" type="float"/>
                            <param name="Z" type="float"/>
                        </accessor>
                    </technique_common>
                </source>
                <source id="geometry0-normal">
                    <float_array id="geometry0-normal-array" count="2520">0.958209 -0.2567523 -0.1261498 0.958209 -0.2567523 -0.1261498 0.958209 -0.2567523 -0.1261498 0.958209 -0.256752 -0.1261504 0.958209 -0.256752 -0.1261504 0.958209 -0.256752 -0.1261504 0.958209 0.2567523 -0.1261504 0.958209 0.2567523 -0.1261504 0.958209 0.2567523 -0.1261504 0.9582092 0.256752 -0.1261498 0.9582092 0.256752 -0.1261498 0.9582092 0.256752 -0.1261498 0.7014578 0.7014578 -0.1261503 0.7014578 0.7014578 -0.1261503 0.7014578 0.7014578 -0.1261503 0.7014578 0.7014578 -0.1261503 0.7014578 0.7014578 -0.1261503 0.7014578 0.7014578 -0.1261503 0.2567523 0.958209 -0.1261498 0.2567523 0.958209 -0.1261498 0.2567523 0.958209 -0.1261498 0.256752 0.958209 -0.1261504 0.256752 0.958209 -0.1261504 0.256752 0.958209 -0.1261504 -0.2567523 0.958209 -0.1261504 -0.2567523 0.958209 -0.1261504 -0.2567523 0.958209 -0.1261504 -0.256752 0.9582092 -0.1261498 -0.256752 0.9582092 -0.1261498 -0.256752 0.9582092 -0.1261498 -0.7014578 0.7014578 -0.1261503 -0.7014578 0.7014578 -0.1261503 -0.7014578 0.7014578 -0.1261503 -0.7014578 0.7014578 -0.1261503 -0.7014578 0.7014578 -0.1261503 -0.7014578 0.7014578 -0.1261503 -0.958209 0.2567523 -0.1261498 -0.958209 0.2567523 -0.1261498 -0.958209 0.2567523 -0.1261498 -0.958209 0.256752 -0.1261504 -0.958209 0.256752 -0.1261504 -0.958209 0.256752 -0.1261504 -0.958209 -0.256752 0.1261505 -0.958209 -0.256752 0.1261505 -0.958209 -0.256752 0.1261505 -0.958209 -0.2567523 0.1261499 -0.958209 -0.2567523 0.1261499 -0.958209 -0.2567523 0.1261499 -0.7014578 -0.7014578 0.1261503 -0.7014578 -0.7014578 0.1261503 -0.7014578 -0.7014578 0.1261503 -0.7014578 -0.7014578 0.1261503 -0.7014578 -0.7014578 0.1261503 -0.7014578 -0.7014578 0.1261503 -0.256752 -0.958209 0.1261498 -0.256752 -0.958209 0.1261498 -0.256752 -0.958209 0.1261498 -0.2567523 -0.9582089 0.1261505 -0.2567523 -0.9582089 0.1261505 -0.2567523 -0.9582089 0.1261505 0.256752 -0.958209 0.1261505 0.256752 -0.958209 0.1261505 0.256752 -0.958209 0.1261505 0.2567523 -0.958209 0.1261499 0.2567523 -0.958209 0.1261499 0.2567523 -0.958209 0.1261499 0.7014578 -0.7014578 0.1261503 0.7014578 -0.7014578 0.1261503 0.7014578 -0.7014578 0.1261503 0.7014578 -0.7014578 0.1261503 0.7014578 -0.7014578 0.1261503 0.7014578 -0.7014578 0.1261503 0.958209 -0.256752 0.1261498 0.958209 -0.256752 0.1261498 0.958209 -0.256752 0.1261498 0.9582089 -0.2567523 0.1261505 0.9582089 -0.2567523 0.1261505 0.9582089 -0.2567523 0.1261505 0.958209 0.256752 0.1261505 0.958209 0.256752 0.1261505 0.958209 0.256752 0.1261505 0.958209 0.2567523 0.1261499 0.958209 0.2567523 0.1261499 0.958209 0.2567523 0.1261499 0.7014578 0.7014578 0.1261503 0.7014578 0.7014578 0.1261503 0.7014578 0.7014578 0.1261503 0.7014578 0.7014578 0.1261503 0.7014578 0.7014578 0.1261503 0.7014578 0.7014578 0.1261503 0.256752 0.958209 0.1261498 0.256752 0.958209 0.1261498 0.256752 0.958209 0.1261498 0.2567523 0.9582089 0.1261505 0.2567523 0.9582089 0.1261505 0.2567523 0.9582089 0.1261505 -0.256752 0.958209 0.1261505 -0.256752 0.958209 0.1261505 -0.256752 0.958209 0.1261505 -0.2567523 0.958209 0.1261499 -0.2567523 0.958209 0.1261499 -0.2567523 0.958209 0.1261499 -0.7014578 0.7014578 0.1261503 -0.7014578 0.7014578 0.1261503 -0.7014578 0.7014578 0.1261503 -0.7014578 0.7014578 0.1261503 -0.7014578 0.7014578 0.1261503 -0.7014578 0.7014578 0.1261503 -0.958209 0.256752 0.1261498 -0.958209 0.256752 0.1261498 -0.958209 0.256752 0.1261498 -0.9582089 0.2567523 0.1261505 -0.9582089 0.2567523 0.1261505 -0.9582089 0.2567523 0.1261505 -0.8968092 -0.2403002 0.3714691 -0.8968092 -0.2403002 0.3714691 -0.8968092 -0.2403002 0.3714691 -0.8968084 -0.2402981 0.3714721 -0.8968084 -0.2402981 0.3714721 -0.8968084 -0.2402981 0.3714721 -0.65651 -0.65651 0.371469 -0.65651 -0.65651 0.371469 -0.65651 -0.65651 0.371469 -0.65651 -0.65651 0.371469 -0.65651 -0.65651 0.371469 -0.65651 -0.65651 0.371469 -0.2402999 -0.896808 0.3714719 -0.2402999 -0.896808 0.3714719 -0.2402999 -0.896808 0.3714719 -0.2402985 -0.8968096 0.3714689 -0.2402985 -0.8968096 0.3714689 -0.2402985 -0.8968096 0.3714689 0.2403002 -0.8968092 0.3714691 0.2403002 -0.8968092 0.3714691 0.2403002 -0.8968092 0.3714691 0.2402981 -0.8968084 0.3714721 0.2402981 -0.8968084 0.3714721 0.2402981 -0.8968084 0.3714721 0.65651 -0.65651 0.371469 0.65651 -0.65651 0.371469 0.65651 -0.65651 0.371469 0.65651 -0.65651 0.371469 0.65651 -0.65651 0.371469 0.65651 -0.65651 0.371469 0.896808 -0.2402999 0.3714719 0.896808 -0.2402999 0.3714719 0.896808 -0.2402999 0.3714719 0.8968096 -0.2402985 0.3714689 0.8968096 -0.2402985 0.3714689 0.8968096 -0.2402985 0.3714689 0.8968092 0.2403002 0.3714691 0.8968092 0.2403002 0.3714691 0.8968092 0.2403002 0.3714691 0.8968084 0.2402981 0.3714721 0.8968084 0.2402981 0.3714721 0.8968084 0.2402981 0.3714721 0.65651 0.65651 0.371469 0.65651 0.65651 0.371469 0.65651 0.65651 0.371469 0.65651 0.65651 0.371469 0.65651 0.65651 0.371469 0.65651 0.65651 0.371469 0.2402999 0.896808 0.3714719 0.2402999 0.896808 0.3714719 0.2402999 0.896808 0.3714719 0.2402985 0.8968096 0.3714689 0.2402985 0.8968096 0.3714689 0.2402985 0.8968096 0.3714689 -0.2403002 0.8968092 0.3714691 -0.2403002 0.8968092 0.3714691 -0.2403002 0.8968092 0.3714691 -0.2402981 0.8968084 0.3714721 -0.2402981 0.8968084 0.3714721 -0.2402981 0.8968084 0.3714721 -0.65651 0.65651 0.371469 -0.65651 0.65651 0.371469 -0.65651 0.65651 0.371469 -0.65651 0.65651 0.371469 -0.65651 0.65651 0.371469 -0.65651 0.65651 0.371469 -0.896808 0.2402999 0.3714719 -0.896808 0.2402999 0.3714719 -0.896808 0.2402999 0.3714719 -0.8968096 0.2402985 0.3714689 -0.8968096 0.2402985 0.3714689 -0.8968096 0.2402985 0.3714689 -0.7760128 -0.2079312 0.595457 -0.7760128 -0.2079312 0.595457 -0.7760128 -0.2079312 0.595457 -0.7760143 -0.207934 0.5954539 -0.7760143 -0.207934 0.5954539 -0.7760143 -0.207934 0.5954539 -0.5680803 -0.5680803 0.5954575 -0.5680803 -0.5680803 0.5954575 -0.5680803 -0.5680803 0.5954575 -0.5680803 -0.5680803 0.5954575 -0.5680803 -0.5680803 0.5954575 -0.5680803 -0.5680803 0.5954575 -0.2079317 -0.7760146 0.5954542 -0.2079317 -0.7760146 0.5954542 -0.2079317 -0.7760146 0.5954542 -0.2079334 -0.7760119 0.5954572 -0.2079334 -0.7760119 0.5954572 -0.2079334 -0.7760119 0.5954572 0.2079312 -0.7760128 0.595457 0.2079312 -0.7760128 0.595457 0.2079312 -0.7760128 0.595457 0.207934 -0.7760143 0.5954539 0.207934 -0.7760143 0.5954539 0.207934 -0.7760143 0.5954539 0.5680803 -0.5680803 0.5954575 0.5680803 -0.5680803 0.5954575 0.5680803 -0.5680803 0.5954575 0.5680803 -0.5680803 0.5954575 0.5680803 -0.5680803 0.5954575 0.5680803 -0.5680803 0.5954575 0.7760146 -0.2079317 0.5954542 0.7760146 -0.2079317 0.5954542 0.7760146 -0.2079317 0.5954542 0.7760119 -0.2079334 0.5954572 0.7760119 -0.2079334 0.5954572 0.7760119 -0.2079334 0.5954572 0.7760128 0.2079312 0.595457 0.7760128 0.2079312 0.595457 0.7760128 0.2079312 0.595457 0.7760143 0.207934 0.5954539 0.7760143 0.207934 0.5954539 0.7760143 0.207934 0.5954539 0.5680803 0.5680803 0.5954575 0.5680803 0.5680803 0.5954575 0.5680803 0.5680803 0.5954575 0.5680803 0.5680803 0.5954575 0.5680803 0.5680803 0.5954575 0.5680803 0.5680803 0.5954575 0.2079317 0.7760146 0.5954542 0.2079317 0.7760146 0.5954542 0.2079317 0.7760146 0.5954542 0.2079334 0.7760119 0.5954572 0.2079334 0.7760119 0.5954572 0.2079334 0.7760119 0.5954572 -0.2079312 0.7760128 0.595457 -0.2079312 0.7760128 0.595457 -0.2079312 0.7760128 0.595457 -0.207934 0.7760143 0.5954539 -0.207934 0.7760143 0.5954539 -0.207934 0.7760143 0.5954539 -0.5680803 0.5680803 0.5954575 -0.5680803 0.5680803 0.5954575 -0.5680803 0.5680803 0.5954575 -0.5680803 0.5680803 0.5954575 -0.5680803 0.5680803 0.5954575 -0.5680803 0.5680803 0.5954575 -0.7760146 0.2079317 0.5954542 -0.7760146 0.2079317 0.5954542 -0.7760146 0.2079317 0.5954542 -0.7760119 0.2079334 0.5954572 -0.7760119 0.2079334 0.5954572 -0.7760119 0.2079334 0.5954572 -0.6008203 -0.1609906 0.7830051 -0.6008203 -0.1609906 0.7830051 -0.6008203 -0.1609906 0.7830051 -0.6008191 -0.1609883 0.7830065 -0.6008191 -0.1609883 0.7830065 -0.6008191 -0.1609883 0.7830065 -0.4398314 -0.4398314 0.7830049 -0.4398314 -0.4398314 0.7830049 -0.4398314 -0.4398314 0.7830049 -0.4398313 -0.4398313 0.7830049 -0.4398313 -0.4398313 0.7830049 -0.4398313 -0.4398313 0.7830049 -0.1609902 -0.6008189 0.7830063 -0.1609902 -0.6008189 0.7830063 -0.1609902 -0.6008189 0.7830063 -0.1609888 -0.6008211 0.7830048 -0.1609888 -0.6008211 0.7830048 -0.1609888 -0.6008211 0.7830048 0.1609906 -0.6008203 0.7830051 0.1609906 -0.6008203 0.7830051 0.1609906 -0.6008203 0.7830051 0.1609883 -0.6008191 0.7830065 0.1609883 -0.6008191 0.7830065 0.1609883 -0.6008191 0.7830065 0.4398314 -0.4398314 0.7830049 0.4398314 -0.4398314 0.7830049 0.4398314 -0.4398314 0.7830049 0.4398313 -0.4398313 0.7830049 0.4398313 -0.4398313 0.7830049 0.4398313 -0.4398313 0.7830049 0.6008189 -0.1609902 0.7830063 0.6008189 -0.1609902 0.7830063 0.6008189 -0.1609902 0.7830063 0.6008211 -0.1609888 0.7830048 0.6008211 -0.1609888 0.7830048 0.6008211 -0.1609888 0.7830048 0.6008203 0.1609906 0.7830051 0.6008203 0.1609906 0.7830051 0.6008203 0.1609906 0.7830051 0.6008191 0.1609883 0.7830065 0.6008191 0.1609883 0.7830065 0.6008191 0.1609883 0.7830065 0.4398314 0.4398314 0.7830049 0.4398314 0.4398314 0.7830049 0.4398314 0.4398314 0.7830049 0.4398313 0.4398313 0.7830049 0.4398313 0.4398313 0.7830049 0.4398313 0.4398313 0.7830049 0.1609902 0.6008189 0.7830063 0.1609902 0.6008189 0.7830063 0.1609902 0.6008189 0.7830063 0.1609888 0.6008211 0.7830048 0.1609888 0.6008211 0.7830048 0.1609888 0.6008211 0.7830048 -0.1609906 0.6008203 0.7830051 -0.1609906 0.6008203 0.7830051 -0.1609906 0.6008203 0.7830051 -0.1609883 0.6008191 0.7830065 -0.1609883 0.6008191 0.7830065 -0.1609883 0.6008191 0.7830065 -0.4398314 0.4398314 0.7830049 -0.4398314 0.4398314 0.7830049 -0.4398314 0.4398314 0.7830049 -0.4398313 0.4398313 0.7830049 -0.4398313 0.4398313 0.7830049 -0.4398313 0.4398313 0.7830049 -0.6008189 0.1609902 0.7830063 -0.6008189 0.1609902 0.7830063 -0.6008189 0.1609902 0.7830063 -0.6008211 0.1609888 0.7830048 -0.6008211 0.1609888 0.7830048 -0.6008211 0.1609888 0.7830048 -0.3806894 -0.102005 0.9190596 -0.3806894 -0.102005 0.9190596 -0.3806894 -0.102005 0.9190596 -0.3806891 -0.1020045 0.9190598 -0.3806891 -0.1020045 0.9190598 -0.3806891 -0.1020045 0.9190598 -0.278684 -0.278684 0.9190595 -0.278684 -0.278684 0.9190595 -0.278684 -0.278684 0.9190595 -0.2786841 -0.2786841 0.9190595 -0.2786841 -0.2786841 0.9190595 -0.2786841 -0.2786841 0.9190595 -0.1020049 -0.3806891 0.9190597 -0.1020049 -0.3806891 0.9190597 -0.1020049 -0.3806891 0.9190597 -0.1020046 -0.3806895 0.9190596 -0.1020046 -0.3806895 0.9190596 -0.1020046 -0.3806895 0.9190596 0.102005 -0.3806894 0.9190596 0.102005 -0.3806894 0.9190596 0.102005 -0.3806894 0.9190596 0.1020045 -0.3806891 0.9190598 0.1020045 -0.3806891 0.9190598 0.1020045 -0.3806891 0.9190598 0.278684 -0.278684 0.9190595 0.278684 -0.278684 0.9190595 0.278684 -0.278684 0.9190595 0.2786841 -0.2786841 0.9190595 0.2786841 -0.2786841 0.9190595 0.2786841 -0.2786841 0.9190595 0.3806891 -0.1020049 0.9190597 0.3806891 -0.1020049 0.9190597 0.3806891 -0.1020049 0.9190597 0.3806895 -0.1020046 0.9190596 0.3806895 -0.1020046 0.9190596 0.3806895 -0.1020046 0.9190596 0.3806894 0.102005 0.9190596 0.3806894 0.102005 0.9190596 0.3806894 0.102005 0.9190596 0.3806891 0.1020045 0.9190598 0.3806891 0.1020045 0.9190598 0.3806891 0.1020045 0.9190598 0.278684 0.278684 0.9190595 0.278684 0.278684 0.9190595 0.278684 0.278684 0.9190595 0.2786841 0.2786841 0.9190595 0.2786841 0.2786841 0.9190595 0.2786841 0.2786841 0.9190595 0.1020049 0.3806891 0.9190597 0.1020049 0.3806891 0.9190597 0.1020049 0.3806891 0.9190597 0.1020046 0.3806895 0.9190596 0.1020046 0.3806895 0.9190596 0.1020046 0.3806895 0.9190596 -0.102005 0.3806894 0.9190596 -0.102005 0.3806894 0.9190596 -0.102005 0.3806894 0.9190596 -0.1020045 0.3806891 0.9190598 -0.1020045 0.3806891 0.9190598 -0.1020045 0.3806891 0.9190598 -0.278684 0.278684 0.9190595 -0.278684 0.278684 0.9190595 -0.278684 0.278684 0.9190595 -0.2786841 0.2786841 0.9190595 -0.2786841 0.2786841 0.9190595 -0.2786841 0.2786841 0.9190595 -0.3806891 0.1020049 0.9190597 -0.3806891 0.1020049 0.9190597 -0.3806891 0.1020049 0.9190597 -0.3806895 0.1020046 0.9190596 -0.3806895 0.1020046 0.9190596 -0.3806895 0.1020046 0.9190596 -0.1304458 -0.0349525 0.9908391 -0.1304458 -0.0349525 0.9908391 -0.1304458 -0.0349525 0.9908391 1.0 0.0 0.0 1.0 0.0 0.0 -0.0954928 -0.0954928 0.9908392 -0.0954928 -0.0954928 0.9908392 -0.0954928 -0.0954928 0.9908392 1.0 0.0 0.0 1.0 0.0 0.0 -0.0349525 -0.1304458 0.9908391 -0.0349525 -0.1304458 0.9908391 -0.0349525 -0.1304458 0.9908391 1.0 0.0 0.0 1.0 0.0 0.0 0.0349525 -0.1304458 0.9908391 0.0349525 -0.1304458 0.9908391 0.0349525 -0.1304458 0.9908391 1.0 0.0 0.0 1.0 0.0 0.0 0.0954928 -0.0954928 0.9908392 0.0954928 -0.0954928 0.9908392 0.0954928 -0.0954928 0.9908392 1.0 0.0 0.0 1.0 0.0 0.0 0.1304458 -0.0349525 0.9908391 0.1304458 -0.0349525 0.9908391 0.1304458 -0.0349525 0.9908391 1.0 0.0 0.0 1.0 0.0 0.0 0.1304458 0.0349525 0.9908391 0.1304458 0.0349525 0.9908391 0.1304458 0.0349525 0.9908391 1.0 0.0 0.0 1.0 0.0 0.0 0.0954928 0.0954928 0.9908392 0.0954928 0.0954928 0.9908392 0.0954928 0.0954928 0.9908392 1.0 0.0 0.0 1.0 0.0 0.0 0.0349525 0.1304458 0.9908391 0.0349525 0.1304458 0.9908391 0.0349525 0.1304458 0.9908391 1.0 0.0 0.0 1.0 0.0 0.0 -0.0349525 0.1304458 0.9908391 -0.0349525 0.1304458 0.9908391 -0.0349525 0.1304458 0.9908391 1.0 0.0 0.0 1.0 0.0 0.0 -0.0954928 0.0954928 0.9908392 -0.0954928 0.0954928 0.9908392 -0.0954928 0.0954928 0.9908392 1.0 0.0 0.0 1.0 0.0 0.0 -0.1304458 0.0349525 0.9908391 -0.1304458 0.0349525 0.9908391 -0.1304458 0.0349525 0.9908391 1.0 0.0 0.0 1.0 0.0 0.0 1.0 0.0 0.0 1.0 0.0 0.0 -0.1304453 -0.0349524 -0.9908392 -0.1304453 -0.0349524 -0.9908392 -0.1304453 -0.0349524 -0.9908392 1.0 0.0 0.0 1.0 0.0 0.0 -0.0954924 -0.0954924 -0.9908392 -0.0954924 -0.0954924 -0.9908392 -0.0954924 -0.0954924 -0.9908392 1.0 0.0 0.0 1.0 0.0 0.0 -0.0349524 -0.1304453 -0.9908392 -0.0349524 -0.1304453 -0.9908392 -0.0349524 -0.1304453 -0.9908392 1.0 0.0 0.0 1.0 0.0 0.0 0.0349524 -0.1304453 -0.9908392 0.0349524 -0.1304453 -0.9908392 0.0349524 -0.1304453 -0.9908392 1.0 0.0 0.0 1.0 0.0 0.0 0.0954924 -0.0954924 -0.9908392 0.0954924 -0.0954924 -0.9908392 0.0954924 -0.0954924 -0.9908392 1.0 0.0 0.0 1.0 0.0 0.0 0.1304453 -0.0349524 -0.9908392 0.1304453 -0.0349524 -0.9908392 0.1304453 -0.0349524 -0.9908392 1.0 0.0 0.0 1.0 0.0 0.0 0.1304453 0.0349524 -0.9908392 0.1304453 0.0349524 -0.9908392 0.1304453 0.0349524 -0.9908392 1.0 0.0 0.0 1.0 0.0 0.0 0.0954924 0.0954924 -0.9908392 0.0954924 0.0954924 -0.9908392 0.0954924 0.0954924 -0.9908392 1.0 0.0 0.0 1.0 0.0 0.0 0.0349524 0.1304453 -0.9908392 0.0349524 0.1304453 -0.9908392 0.0349524 0.1304453 -0.9908392 1.0 0.0 0.0 1.0 0.0 0.0 -0.0349524 0.1304453 -0.9908392 -0.0349524 0.1304453 -0.9908392 -0.0349524 0.1304453 -0.9908392 1.0 0.0 0.0 1.0 0.0 0.0 -0.0954924 0.0954924 -0.9908392 -0.0954924 0.0954924 -0.9908392 -0.0954924 0.0954924 -0.9908392 1.0 0.0 0.0 1.0 0.0 0.0 -0.1304453 0.0349524 -0.9908392 -0.1304453 0.0349524 -0.9908392 -0.1304453 0.0349524 -0.9908392 -0.3806897 -0.1020046 -0.9190595 -0.3806897 -0.1020046 -0.9190595 -0.3806897 -0.1020046 -0.9190595 -0.3806893 -0.1020049 -0.9190596 -0.3806893 -0.1020049 -0.9190596 -0.3806893 -0.1020049 -0.9190596 -0.2786842 -0.2786842 -0.9190594 -0.2786842 -0.2786842 -0.9190594 -0.2786842 -0.2786842 -0.9190594 -0.2786842 -0.2786842 -0.9190595 -0.2786842 -0.2786842 -0.9190595 -0.2786842 -0.2786842 -0.9190595 -0.1020045 -0.3806894 -0.9190597 -0.1020045 -0.3806894 -0.9190597 -0.1020045 -0.3806894 -0.9190597 -0.102005 -0.3806896 -0.9190596 -0.102005 -0.3806896 -0.9190596 -0.102005 -0.3806896 -0.9190596 0.1020046 -0.3806897 -0.9190595 0.1020046 -0.3806897 -0.9190595 0.1020046 -0.3806897 -0.9190595 0.1020049 -0.3806893 -0.9190596 0.1020049 -0.3806893 -0.9190596 0.1020049 -0.3806893 -0.9190596 0.2786842 -0.2786842 -0.9190594 0.2786842 -0.2786842 -0.9190594 0.2786842 -0.2786842 -0.9190594 0.2786842 -0.2786842 -0.9190595 0.2786842 -0.2786842 -0.9190595 0.2786842 -0.2786842 -0.9190595 0.3806894 -0.1020045 -0.9190597 0.3806894 -0.1020045 -0.9190597 0.3806894 -0.1020045 -0.9190597 0.3806896 -0.102005 -0.9190596 0.3806896 -0.102005 -0.9190596 0.3806896 -0.102005 -0.9190596 0.3806897 0.1020046 -0.9190595 0.3806897 0.1020046 -0.9190595 0.3806897 0.1020046 -0.9190595 0.3806893 0.1020049 -0.9190596 0.3806893 0.1020049 -0.9190596 0.3806893 0.1020049 -0.9190596 0.2786842 0.2786842 -0.9190594 0.2786842 0.2786842 -0.9190594 0.2786842 0.2786842 -0.9190594 0.2786842 0.2786842 -0.9190595 0.2786842 0.2786842 -0.9190595 0.2786842 0.2786842 -0.9190595 0.1020045 0.3806894 -0.9190597 0.1020045 0.3806894 -0.9190597 0.1020045 0.3806894 -0.9190597 0.102005 0.3806896 -0.9190596 0.102005 0.3806896 -0.9190596 0.102005 0.3806896 -0.9190596 -0.1020046 0.3806897 -0.9190595 -0.1020046 0.3806897 -0.9190595 -0.1020046 0.3806897 -0.9190595 -0.1020049 0.3806893 -0.9190596 -0.1020049 0.3806893 -0.9190596 -0.1020049 0.3806893 -0.9190596 -0.2786842 0.2786842 -0.9190594 -0.2786842 0.2786842 -0.9190594 -0.2786842 0.2786842 -0.9190594 -0.2786842 0.2786842 -0.9190595 -0.2786842 0.2786842 -0.9190595 -0.2786842 0.2786842 -0.9190595 -0.3806894 0.1020045 -0.9190597 -0.3806894 0.1020045 -0.9190597 -0.3806894 0.1020045 -0.9190597 -0.3806896 0.102005 -0.9190596 -0.3806896 0.102005 -0.9190596 -0.3806896 0.102005 -0.9190596 -0.6008213 -0.1609889 -0.7830047 -0.6008213 -0.1609889 -0.7830047 -0.6008213 -0.1609889 -0.7830047 -0.6008191 -0.1609902 -0.7830062 -0.6008191 -0.1609902 -0.7830062 -0.6008191 -0.1609902 -0.7830062 -0.4398315 -0.4398315 -0.7830048 -0.4398315 -0.4398315 -0.7830048 -0.4398315 -0.4398315 -0.7830048 -0.4398315 -0.4398315 -0.7830048 -0.4398315 -0.4398315 -0.7830048 -0.4398315 -0.4398315 -0.7830048 -0.1609883 -0.6008192 -0.7830064 -0.1609883 -0.6008192 -0.7830064 -0.1609883 -0.6008192 -0.7830064 -0.1609906 -0.6008205 -0.7830049 -0.1609906 -0.6008205 -0.7830049 -0.1609906 -0.6008205 -0.7830049 0.1609889 -0.6008213 -0.7830047 0.1609889 -0.6008213 -0.7830047 0.1609889 -0.6008213 -0.7830047 0.1609902 -0.6008191 -0.7830062 0.1609902 -0.6008191 -0.7830062 0.1609902 -0.6008191 -0.7830062 0.4398315 -0.4398315 -0.7830048 0.4398315 -0.4398315 -0.7830048 0.4398315 -0.4398315 -0.7830048 0.4398315 -0.4398315 -0.7830048 0.4398315 -0.4398315 -0.7830048 0.4398315 -0.4398315 -0.7830048 0.6008192 -0.1609883 -0.7830064 0.6008192 -0.1609883 -0.7830064 0.6008192 -0.1609883 -0.7830064 0.6008205 -0.1609906 -0.7830049 0.6008205 -0.1609906 -0.7830049 0.6008205 -0.1609906 -0.7830049 0.6008213 0.1609889 -0.7830047 0.6008213 0.1609889 -0.7830047 0.6008213 0.1609889 -0.7830047 0.6008191 0.1609902 -0.7830062 0.6008191 0.1609902 -0.7830062 0.6008191 0.1609902 -0.7830062 0.4398315 0.4398315 -0.7830048 0.4398315 0.4398315 -0.7830048 0.4398315 0.4398315 -0.7830048 0.4398315 0.4398315 -0.7830048 0.4398315 0.4398315 -0.7830048 0.4398315 0.4398315 -0.7830048 0.1609883 0.6008192 -0.7830064 0.1609883 0.6008192 -0.7830064 0.1609883 0.6008192 -0.7830064 0.1609906 0.6008205 -0.7830049 0.1609906 0.6008205 -0.7830049 0.1609906 0.6008205 -0.7830049 -0.1609889 0.6008213 -0.7830047 -0.1609889 0.6008213 -0.7830047 -0.1609889 0.6008213 -0.7830047 -0.1609902 0.6008191 -0.7830062 -0.1609902 0.6008191 -0.7830062 -0.1609902 0.6008191 -0.7830062 -0.4398315 0.4398315 -0.7830048 -0.4398315 0.4398315 -0.7830048 -0.4398315 0.4398315 -0.7830048 -0.4398315 0.4398315 -0.7830048 -0.4398315 0.4398315 -0.7830048 -0.4398315 0.4398315 -0.7830048 -0.6008192 0.1609883 -0.7830064 -0.6008192 0.1609883 -0.7830064 -0.6008192 0.1609883 -0.7830064 -0.6008205 0.1609906 -0.7830049 -0.6008205 0.1609906 -0.7830049 -0.6008205 0.1609906 -0.7830049 -0.7760118 -0.2079334 -0.5954574 -0.7760118 -0.2079334 -0.5954574 -0.7760118 -0.2079334 -0.5954574 -0.7760144 -0.2079317 -0.5954543 -0.7760144 -0.2079317 -0.5954543 -0.7760144 -0.2079317 -0.5954543 -0.5680802 -0.5680802 -0.5954577 -0.5680802 -0.5680802 -0.5954577 -0.5680802 -0.5680802 -0.5954577 -0.5680802 -0.5680802 -0.5954576 -0.5680802 -0.5680802 -0.5954576 -0.5680802 -0.5680802 -0.5954576 -0.207934 -0.7760141 -0.595454 -0.207934 -0.7760141 -0.595454 -0.207934 -0.7760141 -0.595454 -0.2079311 -0.7760126 -0.5954571 -0.2079311 -0.7760126 -0.5954571 -0.2079311 -0.7760126 -0.5954571 0.2079334 -0.7760118 -0.5954574 0.2079334 -0.7760118 -0.5954574 0.2079334 -0.7760118 -0.5954574 0.2079317 -0.7760144 -0.5954543 0.2079317 -0.7760144 -0.5954543 0.2079317 -0.7760144 -0.5954543 0.5680802 -0.5680802 -0.5954577 0.5680802 -0.5680802 -0.5954577 0.5680802 -0.5680802 -0.5954577 0.5680802 -0.5680802 -0.5954576 0.5680802 -0.5680802 -0.5954576 0.5680802 -0.5680802 -0.5954576 0.7760141 -0.207934 -0.595454 0.7760141 -0.207934 -0.595454 0.7760141 -0.207934 -0.595454 0.7760126 -0.2079311 -0.5954571 0.7760126 -0.2079311 -0.5954571 0.7760126 -0.2079311 -0.5954571 0.7760118 0.2079334 -0.5954574 0.7760118 0.2079334 -0.5954574 0.7760118 0.2079334 -0.5954574 0.7760144 0.2079317 -0.5954543 0.7760144 0.2079317 -0.5954543 0.7760144 0.2079317 -0.5954543 0.5680802 0.5680802 -0.5954577 0.5680802 0.5680802 -0.5954577 0.5680802 0.5680802 -0.5954577 0.5680802 0.5680802 -0.5954576 0.5680802 0.5680802 -0.5954576 0.5680802 0.5680802 -0.5954576 0.207934 0.7760141 -0.595454 0.207934 0.7760141 -0.595454 0.207934 0.7760141 -0.595454 0.2079311 0.7760126 -0.5954571 0.2079311 0.7760126 -0.5954571 0.2079311 0.7760126 -0.5954571 -0.2079334 0.7760118 -0.5954574 -0.2079334 0.7760118 -0.5954574 -0.2079334 0.7760118 -0.5954574 -0.2079317 0.7760144 -0.5954543 -0.2079317 0.7760144 -0.5954543 -0.2079317 0.7760144 -0.5954543 -0.5680802 0.5680802 -0.5954577 -0.5680802 0.5680802 -0.5954577 -0.5680802 0.5680802 -0.5954577 -0.5680802 0.5680802 -0.5954576 -0.5680802 0.5680802 -0.5954576 -0.5680802 0.5680802 -0.5954576 -0.7760141 0.207934 -0.595454 -0.7760141 0.207934 -0.595454 -0.7760141 0.207934 -0.595454 -0.7760126 0.2079311 -0.5954571 -0.7760126 0.2079311 -0.5954571 -0.7760126 0.2079311 -0.5954571 -0.8968096 -0.2402984 -0.3714689 -0.8968096 -0.2402984 -0.3714689 -0.8968096 -0.2402984 -0.3714689 -0.896808 -0.2402999 -0.3714719 -0.896808 -0.2402999 -0.3714719 -0.896808 -0.2402999 -0.3714719 -0.65651 -0.65651 -0.371469 -0.65651 -0.65651 -0.371469 -0.65651 -0.65651 -0.371469 -0.65651 -0.65651 -0.3714691 -0.65651 -0.65651 -0.3714691 -0.65651 -0.65651 -0.3714691 -0.2402981 -0.8968084 -0.3714721 -0.2402981 -0.8968084 -0.3714721 -0.2402981 -0.8968084 -0.3714721 -0.2403002 -0.8968092 -0.3714691 -0.2403002 -0.8968092 -0.3714691 -0.2403002 -0.8968092 -0.3714691 0.2402984 -0.8968096 -0.3714689 0.2402984 -0.8968096 -0.3714689 0.2402984 -0.8968096 -0.3714689 0.2402999 -0.896808 -0.3714719 0.2402999 -0.896808 -0.3714719 0.2402999 -0.896808 -0.3714719 0.65651 -0.65651 -0.371469 0.65651 -0.65651 -0.371469 0.65651 -0.65651 -0.371469 0.65651 -0.65651 -0.3714691 0.65651 -0.65651 -0.3714691 0.65651 -0.65651 -0.3714691 0.8968084 -0.2402981 -0.3714721 0.8968084 -0.2402981 -0.3714721 0.8968084 -0.2402981 -0.3714721 0.8968092 -0.2403002 -0.3714691 0.8968092 -0.2403002 -0.3714691 0.8968092 -0.2403002 -0.3714691 0.8968096 0.2402984 -0.3714689 0.8968096 0.2402984 -0.3714689 0.8968096 0.2402984 -0.3714689 0.896808 0.2402999 -0.3714719 0.896808 0.2402999 -0.3714719 0.896808 0.2402999 -0.3714719 0.65651 0.65651 -0.371469 0.65651 0.65651 -0.371469 0.65651 0.65651 -0.371469 0.65651 0.65651 -0.3714691 0.65651 0.65651 -0.3714691 0.65651 0.65651 -0.3714691 0.2402981 0.8968084 -0.3714721 0.2402981 0.8968084 -0.3714721 0.2402981 0.8968084 -0.3714721 0.2403002 0.8968092 -0.3714691 0.2403002 0.8968092 -0.3714691 0.2403002 0.8968092 -0.3714691 -0.2402984 0.8968096 -0.3714689 -0.2402984 0.8968096 -0.3714689 -0.2402984 0.8968096 -0.3714689 -0.2402999 0.896808 -0.3714719 -0.2402999 0.896808 -0.3714719 -0.2402999 0.896808 -0.3714719 -0.65651 0.65651 -0.371469 -0.65651 0.65651 -0.371469 -0.65651 0.65651 -0.371469 -0.65651 0.65651 -0.3714691 -0.65651 0.65651 -0.3714691 -0.65651 0.65651 -0.3714691 -0.8968084 0.2402981 -0.3714721 -0.8968084 0.2402981 -0.3714721 -0.8968084 0.2402981 -0.3714721 -0.8968092 0.2403002 -0.3714691 -0.8968092 0.2403002 -0.3714691 -0.8968092 0.2403002 -0.3714691 -0.958209 -0.2567523 -0.1261504 -0.958209 -0.2567523 -0.1261504 -0.958209 -0.2567523 -0.1261504 -0.9582092 -0.256752 -0.1261498 -0.9582092 -0.256752 -0.1261498 -0.9582092 -0.256752 -0.1261498 -0.7014578 -0.7014578 -0.1261503 -0.7014578 -0.7014578 -0.1261503 -0.7014578 -0.7014578 -0.1261503 -0.7014578 -0.7014578 -0.1261503 -0.7014578 -0.7014578 -0.1261503 -0.7014578 -0.7014578 -0.1261503 -0.2567523 -0.958209 -0.1261498 -0.2567523 -0.958209 -0.1261498 -0.2567523 -0.958209 -0.1261498 -0.256752 -0.958209 -0.1261504 -0.256752 -0.958209 -0.1261504 -0.256752 -0.958209 -0.1261504 0.2567523 -0.958209 -0.1261504 0.2567523 -0.958209 -0.1261504 0.2567523 -0.958209 -0.1261504 0.256752 -0.9582092 -0.1261498 0.256752 -0.9582092 -0.1261498 0.256752 -0.9582092 -0.1261498 0.7014578 -0.7014578 -0.1261503 0.7014578 -0.7014578 -0.1261503 0.7014578 -0.7014578 -0.1261503 0.7014578 -0.7014578 -0.1261503 0.7014578 -0.7014578 -0.1261503 0.7014578 -0.7014578 -0.1261503</float_array>
                    <technique_common>
                        <accessor count="840" source="#geometry0-normal-array" stride="3">
                            <param name="X" type="float"/>
                            <param name="Y" type="float"/>
                            <param name="Z" type="float"/>
                        </accessor>
                    </technique_common>
                </source>
                <vertices id="geometry0-vertex">
                    <input semantic="POSITION" source="#geometry0-position"/>
                </vertices>
                <triangles count="288" material="default_ai_0.2_sh_0.2_tr_0.0_dc_r_0.8_g_0.8_b_0.8_sc_r_1.0_g_1.0_b_1.0_ec_r_0.0_g_0.0_b_0_tri">
                    <input offset="0" semantic="VERTEX" source="#geometry0-vertex"/>
                    <input offset="1" semantic="NORMAL" source="#geometry0-normal"/>
                    <p>54 0 55 1 67 2 54 3 67 4 66 5 55 6 56 7 68 8 55 9 68 10 67 11 56 12 57 13 69 14 56 15 69 16 68 17 57 18 58 19 70 20 57 21 70 22 69 23 58 24 59 25 71 26 58 27 71 28 70 29 59 30 60 31 72 32 59 33 72 34 71 35 60 36 50 37 62 38 60 39 62 40 72 41 62 42 61 43 73 44 62 45 73 46 74 47 61 48 63 49 75 50 61 51 75 52 73 53 63 54 64 55 76 56 63 57 76 58 75 59 64 60 65 61 77 62 64 63 77 64 76 65 65 66 66 67 78 68 65 69 78 70 77 71 66 72 67 73 79 74 66 75 79 76 78 77 67 78 68 79 80 80 67 81 80 82 79 83 68 84 69 85 81 86 68 87 81 88 80 89 69 90 70 91 82 92 69 93 82 94 81 95 70 96 71 97 83 98 70 99 83 100 82 101 71 102 72 103 84 104 71 105 84 106 83 107 72 108 62 109 74 110 72 111 74 112 84 113 74 114 73 115 85 116 74 117 85 118 86 119 73 120 75 121 87 122 73 123 87 124 85 125 75 126 76 127 88 128 75 129 88 130 87 131 76 132 77 133 89 134 76 135 89 136 88 137 77 138 78 139 90 140 77 141 90 142 89 143 78 144 79 145 91 146 78 147 91 148 90 149 79 150 80 151 92 152 79 153 92 154 91 155 80 156 81 157 93 158 80 159 93 160 92 161 81 162 82 163 94 164 81 165 94 166 93 167 82 168 83 169 95 170 82 171 95 172 94 173 83 174 84 175 96 176 83 177 96 178 95 179 84 180 74 181 86 182 84 183 86 184 96 185 86 186 85 187 97 188 86 189 97 190 98 191 85 192 87 193 99 194 85 195 99 196 97 197 87 198 88 199 100 200 87 201 100 202 99 203 88 204 89 205 101 206 88 207 101 208 100 209 89 210 90 211 102 212 89 213 102 214 101 215 90 216 91 217 103 218 90 219 103 220 102 221 91 222 92 223 104 224 91 225 104 226 103 227 92 228 93 229 105 230 92 231 105 232 104 233 93 234 94 235 106 236 93 237 106 238 105 239 94 240 95 241 107 242 94 243 107 244 106 245 95 246 96 247 108 248 95 249 108 250 107 251 96 252 86 253 98 254 96 255 98 256 108 257 98 258 97 259 109 260 98 261 109 262 110 263 97 264 99 265 111 266 97 267 111 268 109 269 99 270 100 271 112 272 99 273 112 274 111 275 100 276 101 277 113 278 100 279 113 280 112 281 101 282 102 283 114 284 101 285 114 286 113 287 102 288 103 289 115 290 102 291 115 292 114 293 103 294 104 295 116 296 103 297 116 298 115 299 104 300 105 301 117 302 104 303 117 304 116 305 105 306 106 307 118 308 105 309 118 310 117 311 106 312 107 313 119 314 106 315 119 316 118 317 107 318 108 319 120 320 107 321 120 322 119 323 108 324 98 325 110 326 108 327 110 328 120 329 110 330 109 331 121 332 110 333 121 334 122 335 109 336 111 337 123 338 109 339 123 340 121 341 111 342 112 343 124 344 111 345 124 346 123 347 112 348 113 349 125 350 112 351 125 352 124 353 113 354 114 355 126 356 113 357 126 358 125 359 114 360 115 361 127 362 114 363 127 364 126 365 115 366 116 367 128 368 115 369 128 370 127 371 116 372 117 373 129 374 116 375 129 376 128 377 117 378 118 379 130 380 117 381 130 382 129 383 118 384 119 385 131 386 118 387 131 388 130 389 119 390 120 391 132 392 119 393 132 394 131 395 120 396 110 397 122 398 120 399 122 400 132 401 122 402 121 403 133 404 122 405 133 406 133 406 121 407 123 408 133 409 121 410 133 411 133 411 123 412 124 413 133 414 123 415 133 416 133 416 124 417 125 418 133 419 124 420 133 421 133 421 125 422 126 423 133 424 125 425 133 426 133 426 126 427 127 428 133 429 126 430 133 431 133 431 127 432 128 433 133 434 127 435 133 436 133 436 128 437 129 438 133 439 128 440 133 441 133 441 129 442 130 443 133 444 129 445 133 446 133 446 130 447 131 448 133 449 130 450 133 451 133 451 131 452 132 453 133 454 131 455 133 456 133 456 132 457 122 458 133 459 132 460 133 461 133 461 0 462 0 462 1 463 0 464 1 465 2 466 0 467 0 467 3 468 0 469 3 470 1 471 0 472 0 472 4 473 0 474 4 475 3 476 0 477 0 477 5 478 0 479 5 480 4 481 0 482 0 482 6 483 0 484 6 485 5 486 0 487 0 487 7 488 0 489 7 490 6 491 0 492 0 492 8 493 0 494 8 495 7 496 0 497 0 497 9 498 0 499 9 500 8 501 0 502 0 502 10 503 0 504 10 505 9 506 0 507 0 507 11 508 0 509 11 510 10 511 0 512 0 512 12 513 0 514 12 515 11 516 0 517 0 517 2 518 0 519 2 520 12 521 2 522 1 523 13 524 2 525 13 526 14 527 1 528 3 529 15 530 1 531 15 532 13 533 3 534 4 535 16 536 3 537 16 538 15 539 4 540 5 541 17 542 4 543 17 544 16 545 5 546 6 547 18 548 5 549 18 550 17 551 6 552 7 553 19 554 6 555 19 556 18 557 7 558 8 559 20 560 7 561 20 562 19 563 8 564 9 565 21 566 8 567 21 568 20 569 9 570 10 571 22 572 9 573 22 574 21 575 10 576 11 577 23 578 10 579 23 580 22 581 11 582 12 583 24 584 11 585 24 586 23 587 12 588 2 589 14 590 12 591 14 592 24 593 14 594 13 595 25 596 14 597 25 598 26 599 13 600 15 601 27 602 13 603 27 604 25 605 15 606 16 607 28 608 15 609 28 610 27 611 16 612 17 613 29 614 16 615 29 616 28 617 17 618 18 619 30 620 17 621 30 622 29 623 18 624 19 625 31 626 18 627 31 628 30 629 19 630 20 631 32 632 19 633 32 634 31 635 20 636 21 637 33 638 20 639 33 640 32 641 21 642 22 643 34 644 21 645 34 646 33 647 22 648 23 649 35 650 22 651 35 652 34 653 23 654 24 655 36 656 23 657 36 658 35 659 24 660 14 661 26 662 24 663 26 664 36 665 26 666 25 667 37 668 26 669 37 670 38 671 25 672 27 673 39 674 25 675 39 676 37 677 27 678 28 679 40 680 27 681 40 682 39 683 28 684 29 685 41 686 28 687 41 688 40 689 29 690 30 691 42 692 29 693 42 694 41 695 30 696 31 697 43 698 30 699 43 700 42 701 31 702 32 703 44 704 31 705 44 706 43 707 32 708 33 709 45 710 32 711 45 712 44 713 33 714 34 715 46 716 33 717 46 718 45 719 34 720 35 721 47 722 34 723 47 724 46 725 35 726 36 727 48 728 35 729 48 730 47 731 36 732 26 733 38 734 36 735 38 736 48 737 38 738 37 739 49 740 38 741 49 742 50 743 37 744 39 745 51 746 37 747 51 748 49 749 39 750 40 751 52 752 39 753 52 754 51 755 40 756 41 757 53 758 40 759 53 760 52 761 41 762 42 763 54 764 41 765 54 766 53 767 42 768 43 769 55 770 42 771 55 772 54 773 43 774 44 775 56 776 43 777 56 778 55 779 44 780 45 781 57 782 44 783 57 784 56 785 45 786 46 787 58 788 45 789 58 790 57 791 46 792 47 793 59 794 46 795 59 796 58 797 47 798 48 799 60 800 47 801 60 802 59 803 48 804 38 805 50 806 48 807 50 808 60 809 50 810 49 811 61 812 50 813 61 814 62 815 49 816 51 817 63 818 49 819 63 820 61 821 51 822 52 823 64 824 51 825 64 826 63 827 52 828 53 829 65 830 52 831 65 832 64 833 53 834 54 835 66 836 53 837 66 838 65 839</p>
                </triangles>
            </mesh>
        </geometry>
    </library_geometries>
    <library_visual_scenes>
        <visual_scene id="Building_40_CROWN2">
            <node>
                <instance_geometry url="#geometry0">
                    <bind_material>
                        <technique_common>
                            <instance_material symbol="default_ai_0.2_sh_0.2_tr_0.0_dc_r_0.8_g_0.8_b_0.8_sc_r_1.0_g_1.0_b_1.0_ec_r_0.0_g_0.0_b_0_tri" target="#default_ai_0.2_sh_0.2_tr_0.0_dc_r_0.8_g_0.8_b_0.8_sc_r_1.0_g_1.0_b_1.0_ec_r_0.0_g_0.0_b_0_mat"/>
                        </technique_common>
                    </bind_material>
                </instance_geometry>
            </node>
        </visual_scene>
    </library_visual_scenes>
    <scene>
        <instance_visual_scene url="#Building_40_CROWN2"/>
    </scene>
</COLLADA>
