<?xml version="1.0" encoding="UTF-8" standalone="yes"?>
<COLLADA xmlns="http://www.collada.org/2005/11/COLLADASchema" version="1.4.1">
    <asset>
        <contributor>
            <authoring_tool>3D City Database Importer/Exporter, version 5.5.3; Chair of Geoinformatics, Technical University of Munich</authoring_tool>
        </contributor>
        <created>2026-09-25T14:45:31.672</created>
        <modified>2026-09-25T14:45:31.672</modified>
        <unit meter="1.0" name="meters"/>
        <up_axis>Z_UP</up_axis>
    </asset>
    <library_materials>
        <material id="default_ai_0.2_sh_0.2_tr_0.0_dc_r_0.8_g_0.8_b_0.8_sc_r_1.0_g_1.0_b_1.0_ec_r_0.0_g_0.0_b_0_mat">
            <instance_effect url="#default_ai_0.2_sh_0.2_tr_0.0_dc_r_0.8_g_0.8_b_0.8_sc_r_1.0_g_1.0_b_1.0_ec_r_0.0_g_0.0_b_0_eff"/>
        </material>
    </library_materials>
    <library_effects>
        <effect id="default_ai_0.2_sh_0.2_tr_0.0_dc_r_0.8_g_0.8_b_0.8_sc_r_1.0_g_1.0_b_1.0_ec_r_0.0_g_0.0_b_0_eff">
            <profile_COMMON>
                <technique sid="COMMON">
                    <lambert>
                        <emission>
                            <color>0.0 0.0 0.0 1.0</color>
                        </emission>
                        <diffuse>
                            <color>0.8 0.8 0.8 1.0</color>
                        </diffuse>
                        <reflective>
                            <color>1.0 1.0 1.0 1.0</color>
                        </reflective>
                        <reflectivity>
                            <float>0.2</float>
                        </reflectivity>
                        <transparent opaque="A_ONE">
                            <color>1.0 1.0 1.0 1.0</color>
                        </transparent>
                        <transparency>
                            <float>1.0</float>
                        </transparency>
                    </lambert>
                </technique>
                <extra>
                    <technique profile="GOOGLEEARTH">
                        <double_sided>0</double_sided>
                    </technique>
                </extra>
            </profile_COMMON>
        </effect>
    </library_effects>
    <library_geometries>
        <geometry id="geometry0">
            <mesh>
                <source id="geometry0-position">
                    <float_array id="geometry0-position-array" count="402">0.0 0.0 1.7 0.1905224 0.1099985 1.6710371 0.2199962 0.0 1.6710371 0.1099985 0.1905224 1.6710371 0.0 0.2199961 1.6710371 -0.1099985 0.1905224 1.6710371 -0.1905224 0.1099985 1.6710371 -0.2199962 0.0 1.6710371 -0.1905224 -0.1099985 1.6710371 -0.1099985 -0.1905224 1.6710371 0.0 -0.2199961 1.6710371 0.1099985 -0.1905224 1.6710371 0.1905224 -0.1099985 1.6710371 0.3680611 0.2125 1.5861212 0.425 0.0 1.5861212 0.2125 0.368061 1.5861212 0.0 0.425 1.5861212 -0.2125 0.368061 1.5861212 -0.3680611 0.2125 1.5861212 -0.425 0.0 1.5861212 -0.3680611 -0.2125 1.5861212 -0.2125 -0.368061 1.5861212 0.0 -0.425 1.5861212 0.2125 -0.368061 1.5861212 0.3680611 -0.2125 1.5861212 0.5205162 0.3005201 1.4510409 0.6010409 0.0 1.4510409 0.30052 0.5205162 1.4510409 0.0 0.601041 1.4510409 -0.30052 0.5205162 1.4510409 -0.5205162 0.3005201 1.4510409 -0.6010409 0.0 1.4510409 -0.5205162 -0.3005201 1.4510409 -0.30052 -0.5205162 1.4510409 0.0 -0.601041 1.4510409 0.30052 -0.5205162 1.4510409 0.5205162 -0.3005201 1.4510409 0.6375 0.368061 1.275 0.7361213 0.0 1.275 0.3680611 0.6375 1.275 0.0 0.7361213 1.275 -0.3680611 0.6375 1.275 -0.6375 0.368061 1.275 -0.7361213 0.0 1.275 -0.6375 -0.368061 1.275 -0.3680611 -0.6375 1.275 0.0 -0.7361213 1.275 0.3680611 -0.6375 1.275 0.6375 -0.368061 1.275 0.7110386 0.4105186 1.0699962 0.8210371 0.0 1.0699962 0.4105186 0.7110386 1.0699962 0.0 0.8210371 1.0699962 -0.4105186 0.7110386 1.0699962 -0.7110386 0.4105186 1.0699962 -0.8210371 0.0 1.0699962 -0.7110386 -0.4105186 1.0699962 -0.4105186 -0.7110386 1.0699962 0.0 -0.8210371 1.0699962 0.4105186 -0.7110386 1.0699962 0.7110386 -0.4105186 1.0699962 0.7361213 0.425 0.85 0.85 0.0 0.85 0.425 0.7361213 0.85 0.0 0.85 0.85 -0.425 0.7361213 0.85 -0.7361213 0.425 0.85 -0.85 0.0 0.85 -0.7361213 -0.425 0.85 -0.425 -0.7361213 0.85 0.0 -0.85 0.85 0.425 -0.7361213 0.85 0.7361213 -0.425 0.85 0.7110386 0.4105186 0.6300038 0.8210371 0.0 0.6300038 0.4105186 0.7110386 0.6300038 0.0 0.8210371 0.6300038 -0.4105186 0.7110386 0.6300038 -0.7110386 0.4105186 0.6300038 -0.8210371 0.0 0.6300038 -0.7110386 -0.4105186 0.6300038 -0.4105186 -0.7110386 0.6300038 0.0 -0.8210371 0.6300038 0.4105186 -0.7110386 0.6300038 0.7110386 -0.4105186 0.6300038 0.6375 0.368061 0.425 0.7361213 0.0 0.425 0.3680611 0.6375 0.425 0.0 0.7361213 0.425 -0.3680611 0.6375 0.425 -0.6375 0.368061 0.425 -0.7361213 0.0 0.425 -0.6375 -0.368061 0.425 -0.3680611 -0.6375 0.425 0.0 -0.7361213 0.425 0.3680611 -0.6375 0.425 0.6375 -0.368061 0.425 0.5205162 0.3005201 0.248959 0.6010409 0.0 0.248959 0.30052 0.5205162 0.248959 0.0 0.601041 0.248959 -0.30052 0.5205162 0.248959 -0.5205162 0.3005201 0.248959 -0.6010409 0.0 0.248959 -0.5205162 -0.3005201 0.248959 -0.30052 -0.5205162 0.248959 0.0 -0.601041 0.248959 0.30052 -0.5205162 0.248959 0.5205162 -0.3005201 0.248959 0.3680611 0.2125 0.1138787 0.425 0.0 0.1138787 0.2125 0.368061 0.1138787 0.0 0.425 0.1138787 -0.2125 0.368061 0.1138787 -0.3680611 0.2125 0.1138787 -0.425 0.0 0.1138787 -0.3680611 -0.2125 0.1138787 -0.2125 -0.368061 0.1138787 0.0 -0.425 0.1138787 0.2125 -0.368061 0.1138787 0.3680611 -0.2125 0.1138787 0.1905224 0.1099985 0.0289629 0.2199962 0.0 0.0289629 0.1099985 0.1905224 0.0289629 0.0 0.2199961 0.0289629 -0.1099985 0.1905224 0.0289629 -0.1905224 0.1099985 0.0289629 -0.2199962 0.0 0.0289629 -0.1905224 -0.1099985 0.0289629 -0.1099985 -0.1905224 0.0289629 0.0 -0.2199961 0.0289629 0.1099985 -0.1905224 0.0289629 0.1905224 -0.1099985 0.0289629 0.0 0.0 0.0</float_array>
                    <technique_common>
                        <accessor count="134" source="#geometry0-position-array" stride="3">
                            <param name="X" type="float"/>
                            <param name="Y" type="float"/>
                            <param name="Z" type="float"/>
                        </accessor>
                    </technique_common>
                </source>
                <source id="geometry0-normal">
                    <float_array id="geometry0-normal-array" count="2520">0.1020046 -0.3806897 -0.9190596 0.1020046 -0.3806897 -0.9190596 0.1020046 -0.3806897 -0.9190596 0.102005 -0.3806892 -0.9190597 0.102005 -0.3806892 -0.9190597 0.102005 -0.3806892 -0.9190597 0.2786841 -0.2786841 -0.9190595 0.2786841 -0.2786841 -0.9190595 0.2786841 -0.2786841 -0.9190595 0.2786841 -0.2786841 -0.9190595 0.2786841 -0.2786841 -0.9190595 0.2786841 -0.2786841 -0.9190595 0.3806892 -0.1020045 -0.9190598 0.3806892 -0.1020045 -0.9190598 0.3806892 -0.1020045 -0.9190598 0.3806894 -0.102005 -0.9190596 0.3806894 -0.102005 -0.9190596 0.3806894 -0.102005 -0.9190596 0.3806897 0.1020046 -0.9190596 0.3806897 0.1020046 -0.9190596 0.3806897 0.1020046 -0.9190596 0.3806892 0.102005 -0.9190597 0.3806892 0.102005 -0.9190597 0.3806892 0.102005 -0.9190597 0.2786841 0.2786841 -0.9190595 0.2786841 0.2786841 -0.9190595 0.2786841 0.2786841 -0.9190595 0.2786841 0.2786841 -0.9190595 0.2786841 0.2786841 -0.9190595 0.2786841 0.2786841 -0.9190595 0.1020045 0.3806892 -0.9190598 0.1020045 0.3806892 -0.9190598 0.1020045 0.3806892 -0.9190598 0.102005 0.3806894 -0.9190596 0.102005 0.3806894 -0.9190596 0.102005 0.3806894 -0.9190596 -0.1020046 0.3806897 -0.9190596 -0.1020046 0.3806897 -0.9190596 -0.1020046 0.3806897 -0.9190596 -0.102005 0.3806892 -0.9190597 -0.102005 0.3806892 -0.9190597 -0.102005 0.3806892 -0.9190597 -0.2786841 0.2786841 -0.9190595 -0.2786841 0.2786841 -0.9190595 -0.2786841 0.2786841 -0.9190595 -0.2786841 0.2786841 -0.9190595 -0.2786841 0.2786841 -0.9190595 -0.2786841 0.2786841 -0.9190595 -0.3806892 0.1020045 -0.9190598 -0.3806892 0.1020045 -0.9190598 -0.3806892 0.1020045 -0.9190598 -0.3806894 0.102005 -0.9190596 -0.3806894 0.102005 -0.9190596 -0.3806894 0.102005 -0.9190596 -0.6008208 -0.1609888 -0.783005 -0.6008208 -0.1609888 -0.783005 -0.6008208 -0.1609888 -0.783005 -0.6008186 -0.1609901 -0.7830065 -0.6008186 -0.1609901 -0.7830065 -0.6008186 -0.1609901 -0.7830065 -0.4398312 -0.4398312 -0.7830052 -0.4398312 -0.4398312 -0.7830052 -0.4398312 -0.4398312 -0.7830052 -0.4398312 -0.4398312 -0.7830052 -0.4398312 -0.4398312 -0.7830052 -0.4398312 -0.4398312 -0.7830052 -0.1609883 -0.6008189 -0.7830067 -0.1609883 -0.6008189 -0.7830067 -0.1609883 -0.6008189 -0.7830067 -0.1609905 -0.6008201 -0.7830052 -0.1609905 -0.6008201 -0.7830052 -0.1609905 -0.6008201 -0.7830052 0.1609888 -0.6008208 -0.783005 0.1609888 -0.6008208 -0.783005 0.1609888 -0.6008208 -0.783005 0.1609901 -0.6008186 -0.7830065 0.1609901 -0.6008186 -0.7830065 0.1609901 -0.6008186 -0.7830065 0.4398312 -0.4398312 -0.7830052 0.4398312 -0.4398312 -0.7830052 0.4398312 -0.4398312 -0.7830052 0.4398312 -0.4398312 -0.7830052 0.4398312 -0.4398312 -0.7830052 0.4398312 -0.4398312 -0.7830052 0.6008189 -0.1609883 -0.7830067 0.6008189 -0.1609883 -0.7830067 0.6008189 -0.1609883 -0.7830067 0.6008201 -0.1609905 -0.7830052 0.6008201 -0.1609905 -0.7830052 0.6008201 -0.1609905 -0.7830052 0.6008208 0.1609888 -0.783005 0.6008208 0.1609888 -0.783005 0.6008208 0.1609888 -0.783005 0.6008186 0.1609901 -0.7830065 0.6008186 0.1609901 -0.7830065 0.6008186 0.1609901 -0.7830065 0.4398312 0.4398312 -0.7830052 0.4398312 0.4398312 -0.7830052 0.4398312 0.4398312 -0.7830052 0.4398312 0.4398312 -0.7830052 0.4398312 0.4398312 -0.7830052 0.4398312 0.4398312 -0.7830052 0.1609883 0.6008189 -0.7830067 0.1609883 0.6008189 -0.7830067 0.1609883 0.6008189 -0.7830067 0.1609905 0.6008201 -0.7830052 0.1609905 0.6008201 -0.7830052 0.1609905 0.6008201 -0.7830052 -0.1609888 0.6008208 -0.783005 -0.1609888 0.6008208 -0.783005 -0.1609888 0.6008208 -0.783005 -0.1609901 0.6008186 -0.7830065 -0.1609901 0.6008186 -0.7830065 -0.1609901 0.6008186 -0.7830065 -0.4398312 0.4398312 -0.7830052 -0.4398312 0.4398312 -0.7830052 -0.4398312 0.4398312 -0.7830052 -0.4398312 0.4398312 -0.7830052 -0.4398312 0.4398312 -0.7830052 -0.4398312 0.4398312 -0.7830052 -0.6008189 0.1609883 -0.7830067 -0.6008189 0.1609883 -0.7830067 -0.6008189 0.1609883 -0.7830067 -0.6008201 0.1609905 -0.7830052 -0.6008201 0.1609905 -0.7830052 -0.6008201 0.1609905 -0.7830052 -0.7760121 -0.2079335 -0.595457 -0.7760121 -0.2079335 -0.595457 -0.7760121 -0.2079335 -0.595457 -0.7760149 -0.2079317 -0.5954539 -0.7760149 -0.2079317 -0.5954539 -0.7760149 -0.2079317 -0.5954539 -0.5680804 -0.5680804 -0.5954572 -0.5680804 -0.5680804 -0.5954572 -0.5680804 -0.5680804 -0.5954572 -0.5680804 -0.5680804 -0.5954573 -0.5680804 -0.5680804 -0.5954573 -0.5680804 -0.5680804 -0.5954573 -0.2079341 -0.7760144 -0.5954536 -0.2079341 -0.7760144 -0.5954536 -0.2079341 -0.7760144 -0.5954536 -0.2079312 -0.7760129 -0.5954567 -0.2079312 -0.7760129 -0.5954567 -0.2079312 -0.7760129 -0.5954567 0.2079335 -0.7760121 -0.595457 0.2079335 -0.7760121 -0.595457 0.2079335 -0.7760121 -0.595457 0.2079317 -0.7760149 -0.5954539 0.2079317 -0.7760149 -0.5954539 0.2079317 -0.7760149 -0.5954539 0.5680804 -0.5680804 -0.5954572 0.5680804 -0.5680804 -0.5954572 0.5680804 -0.5680804 -0.5954572 0.5680804 -0.5680804 -0.5954573 0.5680804 -0.5680804 -0.5954573 0.5680804 -0.5680804 -0.5954573 0.7760144 -0.2079341 -0.5954536 0.7760144 -0.2079341 -0.5954536 0.7760144 -0.2079341 -0.5954536 0.7760129 -0.2079312 -0.5954567 0.7760129 -0.2079312 -0.5954567 0.7760129 -0.2079312 -0.5954567 0.7760121 0.2079335 -0.595457 0.7760121 0.2079335 -0.595457 0.7760121 0.2079335 -0.595457 0.7760149 0.2079317 -0.5954539 0.7760149 0.2079317 -0.5954539 0.7760149 0.2079317 -0.5954539 0.5680804 0.5680804 -0.5954572 0.5680804 0.5680804 -0.5954572 0.5680804 0.5680804 -0.5954572 0.5680804 0.5680804 -0.5954573 0.5680804 0.5680804 -0.5954573 0.5680804 0.5680804 -0.5954573 0.2079341 0.7760144 -0.5954536 0.2079341 0.7760144 -0.5954536 0.2079341 0.7760144 -0.5954536 0.2079312 0.7760129 -0.5954567 0.2079312 0.7760129 -0.5954567 0.2079312 0.7760129 -0.5954567 -0.2079335 0.7760121 -0.595457 -0.2079335 0.7760121 -0.595457 -0.2079335 0.7760121 -0.595457 -0.2079317 0.7760149 -0.5954539 -0.2079317 0.7760149 -0.5954539 -0.2079317 0.7760149 -0.5954539 -0.5680804 0.5680804 -0.5954572 -0.5680804 0.5680804 -0.5954572 -0.5680804 0.5680804 -0.5954572 -0.5680804 0.5680804 -0.5954573 -0.5680804 0.5680804 -0.5954573 -0.5680804 0.5680804 -0.5954573 -0.7760144 0.2079341 -0.5954536 -0.7760144 0.2079341 -0.5954536 -0.7760144 0.2079341 -0.5954536 -0.7760129 0.2079312 -0.5954567 -0.7760129 0.2079312 -0.5954567 -0.7760129 0.2079312 -0.5954567 -0.8968096 -0.2402984 -0.3714691 -0.8968096 -0.2402984 -0.3714691 -0.8968096 -0.2402984 -0.3714691 -0.896808 -0.2402999 -0.3714722 -0.896808 -0.2402999 -0.3714722 -0.896808 -0.2402999 -0.3714722 -0.6565099 -0.6565099 -0.3714692 -0.6565099 -0.6565099 -0.3714692 -0.6565099 -0.6565099 -0.3714692 -0.6565099 -0.6565099 -0.3714691 -0.6565099 -0.6565099 -0.3714691 -0.6565099 -0.6565099 -0.3714691 -0.2402981 -0.8968083 -0.3714723 -0.2402981 -0.8968083 -0.3714723 -0.2402981 -0.8968083 -0.3714723 -0.2403002 -0.896809 -0.3714693 -0.2403002 -0.896809 -0.3714693 -0.2403002 -0.896809 -0.3714693 0.2402984 -0.8968096 -0.3714691 0.2402984 -0.8968096 -0.3714691 0.2402984 -0.8968096 -0.3714691 0.2402999 -0.896808 -0.3714722 0.2402999 -0.896808 -0.3714722 0.2402999 -0.896808 -0.3714722 0.6565099 -0.6565099 -0.3714692 0.6565099 -0.6565099 -0.3714692 0.6565099 -0.6565099 -0.3714692 0.6565099 -0.6565099 -0.3714691 0.6565099 -0.6565099 -0.3714691 0.6565099 -0.6565099 -0.3714691 0.8968083 -0.2402981 -0.3714723 0.8968083 -0.2402981 -0.3714723 0.8968083 -0.2402981 -0.3714723 0.896809 -0.2403002 -0.3714693 0.896809 -0.2403002 -0.3714693 0.896809 -0.2403002 -0.3714693 0.8968096 0.2402984 -0.3714691 0.8968096 0.2402984 -0.3714691 0.8968096 0.2402984 -0.3714691 0.896808 0.2402999 -0.3714722 0.896808 0.2402999 -0.3714722 0.896808 0.2402999 -0.3714722 0.6565099 0.6565099 -0.3714692 0.6565099 0.6565099 -0.3714692 0.6565099 0.6565099 -0.3714692 0.6565099 0.6565099 -0.3714691 0.6565099 0.6565099 -0.3714691 0.6565099 0.6565099 -0.3714691 0.2402981 0.8968083 -0.3714723 0.2402981 0.8968083 -0.3714723 0.2402981 0.8968083 -0.3714723 0.2403002 0.896809 -0.3714693 0.2403002 0.896809 -0.3714693 0.2403002 0.896809 -0.3714693 -0.2402984 0.8968096 -0.3714691 -0.2402984 0.8968096 -0.3714691 -0.2402984 0.8968096 -0.3714691 -0.2402999 0.896808 -0.3714722 -0.2402999 0.896808 -0.3714722 -0.2402999 0.896808 -0.3714722 -0.6565099 0.6565099 -0.3714692 -0.6565099 0.6565099 -0.3714692 -0.6565099 0.6565099 -0.3714692 -0.6565099 0.6565099 -0.3714691 -0.6565099 0.6565099 -0.3714691 -0.6565099 0.6565099 -0.3714691 -0.8968083 0.2402981 -0.3714723 -0.8968083 0.2402981 -0.3714723 -0.8968083 0.2402981 -0.3714723 -0.896809 0.2403002 -0.3714693 -0.896809 0.2403002 -0.3714693 -0.896809 0.2403002 -0.3714693 -0.9582089 -0.2567523 -0.1261503 -0.9582089 -0.2567523 -0.1261503 -0.9582089 -0.2567523 -0.1261503 -0.958209 -0.2567522 -0.1261501 -0.958209 -0.2567522 -0.1261501 -0.958209 -0.2567522 -0.1261501 -0.7014578 -0.7014578 -0.1261502 -0.7014578 -0.7014578 -0.1261502 -0.7014578 -0.7014578 -0.1261502 -0.7014578 -0.7014578 -0.1261503 -0.7014578 -0.7014578 -0.1261503 -0.7014578 -0.7014578 -0.1261503 -0.2567523 -0.958209 -0.1261501 -0.2567523 -0.958209 -0.1261501 -0.2567523 -0.958209 -0.1261501 -0.2567522 -0.958209 -0.1261503 -0.2567522 -0.958209 -0.1261503 -0.2567522 -0.958209 -0.1261503 0.2567523 -0.9582089 -0.1261503 0.2567523 -0.9582089 -0.1261503 0.2567523 -0.9582089 -0.1261503 0.2567522 -0.958209 -0.1261501 0.2567522 -0.958209 -0.1261501 0.2567522 -0.958209 -0.1261501 0.7014578 -0.7014578 -0.1261502 0.7014578 -0.7014578 -0.1261502 0.7014578 -0.7014578 -0.1261502 0.7014578 -0.7014578 -0.1261503 0.7014578 -0.7014578 -0.1261503 0.7014578 -0.7014578 -0.1261503 0.958209 -0.2567523 -0.1261501 0.958209 -0.2567523 -0.1261501 0.958209 -0.2567523 -0.1261501 0.958209 -0.2567522 -0.1261503 0.958209 -0.2567522 -0.1261503 0.958209 -0.2567522 -0.1261503 0.9582089 0.2567523 -0.1261503 0.9582089 0.2567523 -0.1261503 0.9582089 0.2567523 -0.1261503 0.958209 0.2567522 -0.1261501 0.958209 0.2567522 -0.1261501 0.958209 0.2567522 -0.1261501 0.7014578 0.7014578 -0.1261502 0.7014578 0.7014578 -0.1261502 0.7014578 0.7014578 -0.1261502 0.7014578 0.7014578 -0.1261503 0.7014578 0.7014578 -0.1261503 0.7014578 0.7014578 -0.1261503 0.2567523 0.958209 -0.1261501 0.2567523 0.958209 -0.1261501 0.2567523 0.958209 -0.1261501 0.2567522 0.958209 -0.1261503 0.2567522 0.958209 -0.1261503 0.2567522 0.958209 -0.1261503 -0.2567523 0.9582089 -0.1261503 -0.2567523 0.9582089 -0.1261503 -0.2567523 0.9582089 -0.1261503 -0.2567522 0.958209 -0.1261501 -0.2567522 0.958209 -0.1261501 -0.2567522 0.958209 -0.1261501 -0.7014578 0.7014578 -0.1261502 -0.7014578 0.7014578 -0.1261502 -0.7014578 0.7014578 -0.1261502 -0.7014578 0.7014578 -0.1261503 -0.7014578 0.7014578 -0.1261503 -0.7014578 0.7014578 -0.1261503 -0.958209 0.2567523 -0.1261501 -0.958209 0.2567523 -0.1261501 -0.958209 0.2567523 -0.1261501 -0.958209 0.2567522 -0.1261503 -0.958209 0.2567522 -0.1261503 -0.958209 0.2567522 -0.1261503 -0.958209 -0.2567522 0.1261502 -0.958209 -0.2567522 0.1261502 -0.958209 -0.2567522 0.1261502 -0.958209 -0.2567523 0.12615 -0.958209 -0.2567523 0.12615 -0.958209 -0.2567523 0.12615 -0.7014578 -0.7014578 0.1261502 -0.7014578 -0.7014578 0.1261502 -0.7014578 -0.7014578 0.1261502 -0.7014578 -0.7014578 0.1261502 -0.7014578 -0.7014578 0.1261502 -0.7014578 -0.7014578 0.1261502 -0.2567522 -0.958209 0.12615 -0.2567522 -0.958209 0.12615 -0.2567522 -0.958209 0.12615 -0.2567523 -0.958209 0.1261503 -0.2567523 -0.958209 0.1261503 -0.2567523 -0.958209 0.1261503 0.2567522 -0.958209 0.1261502 0.2567522 -0.958209 0.1261502 0.2567522 -0.958209 0.1261502 0.2567523 -0.958209 0.12615 0.2567523 -0.958209 0.12615 0.2567523 -0.958209 0.12615 0.7014578 -0.7014578 0.1261502 0.7014578 -0.7014578 0.1261502 0.7014578 -0.7014578 0.1261502 0.7014578 -0.7014578 0.1261502 0.7014578 -0.7014578 0.1261502 0.7014578 -0.7014578 0.1261502 0.958209 -0.2567522 0.12615 0.958209 -0.2567522 0.12615 0.958209 -0.2567522 0.12615 0.958209 -0.2567523 0.1261503 0.958209 -0.2567523 0.1261503 0.958209 -0.2567523 0.1261503 0.958209 0.2567522 0.1261502 0.958209 0.2567522 0.1261502 0.958209 0.2567522 0.1261502 0.958209 0.2567523 0.12615 0.958209 0.2567523 0.12615 0.958209 0.2567523 0.12615 0.7014578 0.7014578 0.1261502 0.7014578 0.7014578 0.1261502 0.7014578 0.7014578 0.1261502 0.7014578 0.7014578 0.1261502 0.7014578 0.7014578 0.1261502 0.7014578 0.7014578 0.1261502 0.2567522 0.958209 0.12615 0.2567522 0.958209 0.12615 0.2567522 0.958209 0.12615 0.2567523 0.958209 0.1261503 0.2567523 0.958209 0.1261503 0.2567523 0.958209 0.1261503 -0.2567522 0.958209 0.1261502 -0.2567522 0.958209 0.1261502 -0.2567522 0.958209 0.1261502 -0.2567523 0.958209 0.12615 -0.2567523 0.958209 0.12615 -0.2567523 0.958209 0.12615 -0.7014578 0.7014578 0.1261502 -0.7014578 0.7014578 0.1261502 -0.7014578 0.7014578 0.1261502 -0.7014578 0.7014578 0.1261502 -0.7014578 0.7014578 0.1261502 -0.7014578 0.7014578 0.1261502 -0.958209 0.2567522 0.12615 -0.958209 0.2567522 0.12615 -0.958209 0.2567522 0.12615 -0.958209 0.2567523 0.1261503 -0.958209 0.2567523 0.1261503 -0.958209 0.2567523 0.1261503 -0.896809 -0.2403002 0.3714693 -0.896809 -0.2403002 0.3714693 -0.896809 -0.2403002 0.3714693 -0.8968083 -0.2402981 0.3714723 -0.8968083 -0.2402981 0.3714723 -0.8968083 -0.2402981 0.3714723 -0.6565099 -0.6565099 0.3714691 -0.6565099 -0.6565099 0.3714691 -0.6565099 -0.6565099 0.3714691 -0.6565099 -0.6565099 0.3714691 -0.6565099 -0.6565099 0.3714691 -0.6565099 -0.6565099 0.3714691 -0.2402999 -0.896808 0.3714722 -0.2402999 -0.896808 0.3714722 -0.2402999 -0.896808 0.3714722 -0.2402984 -0.8968096 0.3714691 -0.2402984 -0.8968096 0.3714691 -0.2402984 -0.8968096 0.3714691 0.2403002 -0.896809 0.3714693 0.2403002 -0.896809 0.3714693 0.2403002 -0.896809 0.3714693 0.2402981 -0.8968083 0.3714723 0.2402981 -0.8968083 0.3714723 0.2402981 -0.8968083 0.3714723 0.6565099 -0.6565099 0.3714691 0.6565099 -0.6565099 0.3714691 0.6565099 -0.6565099 0.3714691 0.6565099 -0.6565099 0.3714691 0.6565099 -0.6565099 0.3714691 0.6565099 -0.6565099 0.3714691 0.896808 -0.2402999 0.3714722 0.896808 -0.2402999 0.3714722 0.896808 -0.2402999 0.3714722 0.8968096 -0.2402984 0.3714691 0.8968096 -0.2402984 0.3714691 0.8968096 -0.2402984 0.3714691 0.896809 0.2403002 0.3714693 0.896809 0.2403002 0.3714693 0.896809 0.2403002 0.3714693 0.8968083 0.2402981 0.3714723 0.8968083 0.2402981 0.3714723 0.8968083 0.2402981 0.3714723 0.6565099 0.6565099 0.3714691 0.6565099 0.6565099 0.3714691 0.6565099 0.6565099 0.3714691 0.6565099 0.6565099 0.3714691 0.6565099 0.6565099 0.3714691 0.6565099 0.6565099 0.3714691 0.2402999 0.896808 0.3714722 0.2402999 0.896808 0.3714722 0.2402999 0.896808 0.3714722 0.2402984 0.8968096 0.3714691 0.2402984 0.8968096 0.3714691 0.2402984 0.8968096 0.3714691 -0.2403002 0.896809 0.3714693 -0.2403002 0.896809 0.3714693 -0.2403002 0.896809 0.3714693 -0.2402981 0.8968083 0.3714723 -0.2402981 0.8968083 0.3714723 -0.2402981 0.8968083 0.3714723 -0.6565099 0.6565099 0.3714691 -0.6565099 0.6565099 0.3714691 -0.6565099 0.6565099 0.3714691 -0.6565099 0.6565099 0.3714691 -0.6565099 0.6565099 0.3714691 -0.6565099 0.6565099 0.3714691 -0.896808 0.2402999 0.3714722 -0.896808 0.2402999 0.3714722 -0.896808 0.2402999 0.3714722 -0.8968096 0.2402984 0.3714691 -0.8968096 0.2402984 0.3714691 -0.8968096 0.2402984 0.3714691 -0.7760128 -0.2079312 0.5954568 -0.7760128 -0.2079312 0.5954568 -0.7760128 -0.2079312 0.5954568 -0.7760144 -0.2079341 0.5954537 -0.7760144 -0.2079341 0.5954537 -0.7760144 -0.2079341 0.5954537 -0.5680803 -0.5680803 0.5954573 -0.5680803 -0.5680803 0.5954573 -0.5680803 -0.5680803 0.5954573 -0.5680803 -0.5680803 0.5954574 -0.5680803 -0.5680803 0.5954574 -0.5680803 -0.5680803 0.5954574 -0.2079317 -0.7760148 0.595454 -0.2079317 -0.7760148 0.595454 -0.2079317 -0.7760148 0.595454 -0.2079334 -0.776012 0.595457 -0.2079334 -0.776012 0.595457 -0.2079334 -0.776012 0.595457 0.2079312 -0.7760128 0.5954568 0.2079312 -0.7760128 0.5954568 0.2079312 -0.7760128 0.5954568 0.2079341 -0.7760144 0.5954537 0.2079341 -0.7760144 0.5954537 0.2079341 -0.7760144 0.5954537 0.5680803 -0.5680803 0.5954573 0.5680803 -0.5680803 0.5954573 0.5680803 -0.5680803 0.5954573 0.5680803 -0.5680803 0.5954574 0.5680803 -0.5680803 0.5954574 0.5680803 -0.5680803 0.5954574 0.7760148 -0.2079317 0.595454 0.7760148 -0.2079317 0.595454 0.7760148 -0.2079317 0.595454 0.776012 -0.2079334 0.595457 0.776012 -0.2079334 0.595457 0.776012 -0.2079334 0.595457 0.7760128 0.2079312 0.5954568 0.7760128 0.2079312 0.5954568 0.7760128 0.2079312 0.5954568 0.7760144 0.2079341 0.5954537 0.7760144 0.2079341 0.5954537 0.7760144 0.2079341 0.5954537 0.5680803 0.5680803 0.5954573 0.5680803 0.5680803 0.5954573 0.5680803 0.5680803 0.5954573 0.5680803 0.5680803 0.5954574 0.5680803 0.5680803 0.5954574 0.5680803 0.5680803 0.5954574 0.2079317 0.7760148 0.595454 0.2079317 0.7760148 0.595454 0.2079317 0.7760148 0.595454 0.2079334 0.776012 0.595457 0.2079334 0.776012 0.595457 0.2079334 0.776012 0.595457 -0.2079312 0.7760128 0.5954568 -0.2079312 0.7760128 0.5954568 -0.2079312 0.7760128 0.5954568 -0.2079341 0.7760144 0.5954537 -0.2079341 0.7760144 0.5954537 -0.2079341 0.7760144 0.5954537 -0.5680803 0.5680803 0.5954573 -0.5680803 0.5680803 0.5954573 -0.5680803 0.5680803 0.5954573 -0.5680803 0.5680803 0.5954574 -0.5680803 0.5680803 0.5954574 -0.5680803 0.5680803 0.5954574 -0.7760148 0.2079317 0.595454 -0.7760148 0.2079317 0.595454 -0.7760148 0.2079317 0.595454 -0.776012 0.2079334 0.595457 -0.776012 0.2079334 0.595457 -0.776012 0.2079334 0.595457 -0.6008203 -0.1609906 0.7830051 -0.6008203 -0.1609906 0.7830051 -0.6008203 -0.1609906 0.7830051 -0.6008191 -0.1609883 0.7830065 -0.6008191 -0.1609883 0.7830065 -0.6008191 -0.1609883 0.7830065 -0.4398313 -0.4398313 0.7830049 -0.4398313 -0.4398313 0.7830049 -0.4398313 -0.4398313 0.7830049 -0.4398313 -0.4398313 0.7830049 -0.4398313 -0.4398313 0.7830049 -0.4398313 -0.4398313 0.7830049 -0.1609902 -0.6008189 0.7830063 -0.1609902 -0.6008189 0.7830063 -0.1609902 -0.6008189 0.7830063 -0.1609889 -0.6008211 0.7830049 -0.1609889 -0.6008211 0.7830049 -0.1609889 -0.6008211 0.7830049 0.1609906 -0.6008203 0.7830051 0.1609906 -0.6008203 0.7830051 0.1609906 -0.6008203 0.7830051 0.1609883 -0.6008191 0.7830065 0.1609883 -0.6008191 0.7830065 0.1609883 -0.6008191 0.7830065 0.4398313 -0.4398313 0.7830049 0.4398313 -0.4398313 0.7830049 0.4398313 -0.4398313 0.7830049 0.4398313 -0.4398313 0.7830049 0.4398313 -0.4398313 0.7830049 0.4398313 -0.4398313 0.7830049 0.6008189 -0.1609902 0.7830063 0.6008189 -0.1609902 0.7830063 0.6008189 -0.1609902 0.7830063 0.6008211 -0.1609889 0.7830049 0.6008211 -0.1609889 0.7830049 0.6008211 -0.1609889 0.7830049 0.6008203 0.1609906 0.7830051 0.6008203 0.1609906 0.7830051 0.6008203 0.1609906 0.7830051 0.6008191 0.1609883 0.7830065 0.6008191 0.1609883 0.7830065 0.6008191 0.1609883 0.7830065 0.4398313 0.4398313 0.7830049 0.4398313 0.4398313 0.7830049 0.4398313 0.4398313 0.7830049 0.4398313 0.4398313 0.7830049 0.4398313 0.4398313 0.7830049 0.4398313 0.4398313 0.7830049 0.1609902 0.6008189 0.7830063 0.1609902 0.6008189 0.7830063 0.1609902 0.6008189 0.7830063 0.1609889 0.6008211 0.7830049 0.1609889 0.6008211 0.7830049 0.1609889 0.6008211 0.7830049 -0.1609906 0.6008203 0.7830051 -0.1609906 0.6008203 0.7830051 -0.1609906 0.6008203 0.7830051 -0.1609883 0.6008191 0.7830065 -0.1609883 0.6008191 0.7830065 -0.1609883 0.6008191 0.7830065 -0.4398313 0.4398313 0.7830049 -0.4398313 0.4398313 0.7830049 -0.4398313 0.4398313 0.7830049 -0.4398313 0.4398313 0.7830049 -0.4398313 0.4398313 0.7830049 -0.4398313 0.4398313 0.7830049 -0.6008189 0.1609902 0.7830063 -0.6008189 0.1609902 0.7830063 -0.6008189 0.1609902 0.7830063 -0.6008211 0.1609889 0.7830049 -0.6008211 0.1609889 0.7830049 -0.6008211 0.1609889 0.7830049 -0.3806893 -0.102005 0.9190596 -0.3806893 -0.102005 0.9190596 -0.3806893 -0.102005 0.9190596 -0.3806891 -0.1020044 0.9190598 -0.3806891 -0.1020044 0.9190598 -0.3806891 -0.1020044 0.9190598 -0.278684 -0.278684 0.9190595 -0.278684 -0.278684 0.9190595 -0.278684 -0.278684 0.9190595 -0.278684 -0.278684 0.9190595 -0.278684 -0.278684 0.9190595 -0.278684 -0.278684 0.9190595 -0.1020049 -0.3806891 0.9190598 -0.1020049 -0.3806891 0.9190598 -0.1020049 -0.3806891 0.9190598 -0.1020046 -0.3806895 0.9190596 -0.1020046 -0.3806895 0.9190596 -0.1020046 -0.3806895 0.9190596 0.102005 -0.3806893 0.9190596 0.102005 -0.3806893 0.9190596 0.102005 -0.3806893 0.9190596 0.1020044 -0.3806891 0.9190598 0.1020044 -0.3806891 0.9190598 0.1020044 -0.3806891 0.9190598 0.278684 -0.278684 0.9190595 0.278684 -0.278684 0.9190595 0.278684 -0.278684 0.9190595 0.278684 -0.278684 0.9190595 0.278684 -0.278684 0.9190595 0.278684 -0.278684 0.9190595 0.3806891 -0.1020049 0.9190598 0.3806891 -0.1020049 0.9190598 0.3806891 -0.1020049 0.9190598 0.3806895 -0.1020046 0.9190596 0.3806895 -0.1020046 0.9190596 0.3806895 -0.1020046 0.9190596 0.3806893 0.102005 0.9190596 0.3806893 0.102005 0.9190596 0.3806893 0.102005 0.9190596 0.3806891 0.1020044 0.9190598 0.3806891 0.1020044 0.9190598 0.3806891 0.1020044 0.9190598 0.278684 0.278684 0.9190595 0.278684 0.278684 0.9190595 0.278684 0.278684 0.9190595 0.278684 0.278684 0.9190595 0.278684 0.278684 0.9190595 0.278684 0.278684 0.9190595 0.1020049 0.3806891 0.9190598 0.1020049 0.3806891 0.9190598 0.1020049 0.3806891 0.9190598 0.1020046 0.3806895 0.9190596 0.1020046 0.3806895 0.9190596 0.1020046 0.3806895 0.9190596 -0.102005 0.3806893 0.9190596 -0.102005 0.3806893 0.9190596 -0.102005 0.3806893 0.9190596 -0.1020044 0.3806891 0.9190598 -0.1020044 0.3806891 0.9190598 -0.1020044 0.3806891 0.9190598 -0.278684 0.278684 0.9190595 -0.278684 0.278684 0.9190595 -0.278684 0.278684 0.9190595 -0.278684 0.278684 0.9190595 -0.278684 0.278684 0.9190595 -0.278684 0.278684 0.9190595 -0.3806891 0.1020049 0.9190598 -0.3806891 0.1020049 0.9190598 -0.3806891 0.1020049 0.9190598 -0.3806895 0.1020046 0.9190596 -0.3806895 0.1020046 0.9190596 -0.3806895 0.1020046 0.9190596 -0.1304458 -0.0349525 0.9908391 -0.1304458 -0.0349525 0.9908391 -0.1304458 -0.0349525 0.9908391 1.0 0.0 0.0 1.0 0.0 0.0 -0.0954928 -0.0954928 0.9908392 -0.0954928 -0.0954928 0.9908392 -0.0954928 -0.0954928 0.9908392 1.0 0.0 0.0 1.0 0.0 0.0 -0.0349525 -0.1304458 0.9908391 -0.0349525 -0.1304458 0.9908391 -0.0349525 -0.1304458 0.9908391 1.0 0.0 0.0 1.0 0.0 0.0 0.0349525 -0.1304458 0.9908391 0.0349525 -0.1304458 0.9908391 0.0349525 -0.1304458 0.9908391 1.0 0.0 0.0 1.0 0.0 0.0 0.0954928 -0.0954928 0.9908392 0.0954928 -0.0954928 0.9908392 0.0954928 -0.0954928 0.9908392 1.0 0.0 0.0 1.0 0.0 0.0 0.1304458 -0.0349525 0.9908391 0.1304458 -0.0349525 0.9908391 0.1304458 -0.0349525 0.9908391 1.0 0.0 0.0 1.0 0.0 0.0 0.1304458 0.0349525 0.9908391 0.1304458 0.0349525 0.9908391 0.1304458 0.0349525 0.9908391 1.0 0.0 0.0 1.0 0.0 0.0 0.0954928 0.0954928 0.9908392 0.0954928 0.0954928 0.9908392 0.0954928 0.0954928 0.9908392 1.0 0.0 0.0 1.0 0.0 0.0 0.0349525 0.1304458 0.9908391 0.0349525 0.1304458 0.9908391 0.0349525 0.1304458 0.9908391 1.0 0.0 0.0 1.0 0.0 0.0 -0.0349525 0.1304458 0.9908391 -0.0349525 0.1304458 0.9908391 -0.0349525 0.1304458 0.9908391 1.0 0.0 0.0 1.0 0.0 0.0 -0.0954928 0.0954928 0.9908392 -0.0954928 0.0954928 0.9908392 -0.0954928 0.0954928 0.9908392 1.0 0.0 0.0 1.0 0.0 0.0 -0.1304458 0.0349525 0.9908391 -0.1304458 0.0349525 0.9908391 -0.1304458 0.0349525 0.9908391 1.0 0.0 0.0 1.0 0.0 0.0 1.0 0.0 0.0 1.0 0.0 0.0 -0.1304461 -0.0349526 -0.9908391 -0.1304461 -0.0349526 -0.9908391 -0.1304461 -0.0349526 -0.9908391 1.0 0.0 0.0 1.0 0.0 0.0 -0.095493 -0.095493 -0.9908391 -0.095493 -0.095493 -0.9908391 -0.095493 -0.095493 -0.9908391 1.0 0.0 0.0 1.0 0.0 0.0 -0.0349526 -0.1304461 -0.9908391 -0.0349526 -0.1304461 -0.9908391 -0.0349526 -0.1304461 -0.9908391 1.0 0.0 0.0 1.0 0.0 0.0 0.0349526 -0.1304461 -0.9908391 0.0349526 -0.1304461 -0.9908391 0.0349526 -0.1304461 -0.9908391 1.0 0.0 0.0 1.0 0.0 0.0 0.095493 -0.095493 -0.9908391 0.095493 -0.095493 -0.9908391 0.095493 -0.095493 -0.9908391 1.0 0.0 0.0 1.0 0.0 0.0 0.1304461 -0.0349526 -0.9908391 0.1304461 -0.0349526 -0.9908391 0.1304461 -0.0349526 -0.9908391 1.0 0.0 0.0 1.0 0.0 0.0 0.1304461 0.0349526 -0.9908391 0.1304461 0.0349526 -0.9908391 0.1304461 0.0349526 -0.9908391 1.0 0.0 0.0 1.0 0.0 0.0 0.095493 0.095493 -0.9908391 0.095493 0.095493 -0.9908391 0.095493 0.095493 -0.9908391 1.0 0.0 0.0 1.0 0.0 0.0 0.0349526 0.1304461 -0.9908391 0.0349526 0.1304461 -0.9908391 0.0349526 0.1304461 -0.9908391 1.0 0.0 0.0 1.0 0.0 0.0 -0.0349526 0.1304461 -0.9908391 -0.0349526 0.1304461 -0.9908391 -0.0349526 0.1304461 -0.9908391 1.0 0.0 0.0 1.0 0.0 0.0 -0.095493 0.095493 -0.9908391 -0.095493 0.095493 -0.9908391 -0.095493 0.095493 -0.9908391 1.0 0.0 0.0 1.0 0.0 0.0 -0.1304461 0.0349526 -0.9908391 -0.1304461 0.0349526 -0.9908391 -0.1304461 0.0349526 -0.9908391 -0.3806897 -0.1020046 -0.9190596 -0.3806897 -0.1020046 -0.9190596 -0.3806897 -0.1020046 -0.9190596 -0.3806892 -0.102005 -0.9190597 -0.3806892 -0.102005 -0.9190597 -0.3806892 -0.102005 -0.9190597 -0.2786841 -0.2786841 -0.9190595 -0.2786841 -0.2786841 -0.9190595 -0.2786841 -0.2786841 -0.9190595 -0.2786841 -0.2786841 -0.9190595 -0.2786841 -0.2786841 -0.9190595 -0.2786841 -0.2786841 -0.9190595 -0.1020045 -0.3806892 -0.9190598 -0.1020045 -0.3806892 -0.9190598 -0.1020045 -0.3806892 -0.9190598 -0.102005 -0.3806894 -0.9190596 -0.102005 -0.3806894 -0.9190596 -0.102005 -0.3806894 -0.9190596</float_array>
                    <technique_common>
                        <accessor count="840" source="#geometry0-normal-array" stride="3">
                            <param name="X" type="float"/>
                            <param name="Y" type="float"/>
                            <param name="Z" type="float"/>
                        </accessor>
                    </technique_common>
                </source>
                <vertices id="geometry0-vertex">
                    <input semantic="POSITION" source="#geometry0-position"/>
                </vertices>
                <triangles count="288" material="default_ai_0.2_sh_0.2_tr_0.0_dc_r_0.8_g_0.8_b_0.8_sc_r_1.0_g_1.0_b_1.0_ec_r_0.0_g_0.0_b_0_tri">
                    <input offset="0" semantic="VERTEX" source="#geometry0-vertex"/>
                    <input offset="1" semantic="NORMAL" source="#geometry0-normal"/>
                    <p>4 0 5 1 17 2 4 3 17 4 16 5 5 6 6 7 18 8 5 9 18 10 17 11 6 12 7 13 19 14 6 15 19 16 18 17 7 18 8 19 20 20 7 21 20 22 19 23 8 24 9 25 21 26 8 27 21 28 20 29 9 30 10 31 22 32 9 33 22 34 21 35 10 36 11 37 23 38 10 39 23 40 22 41 11 42 12 43 24 44 11 45 24 46 23 47 12 48 2 49 14 50 12 51 14 52 24 53 14 54 13 55 25 56 14 57 25 58 26 59 13 60 15 61 27 62 13 63 27 64 25 65 15 66 16 67 28 68 15 69 28 70 27 71 16 72 17 73 29 74 16 75 29 76 28 77 17 78 18 79 30 80 17 81 30 82 29 83 18 84 19 85 31 86 18 87 31 88 30 89 19 90 20 91 32 92 19 93 32 94 31 95 20 96 21 97 33 98 20 99 33 100 32 101 21 102 22 103 34 104 21 105 34 106 33 107 22 108 23 109 35 110 22 111 35 112 34 113 23 114 24 115 36 116 23 117 36 118 35 119 24 120 14 121 26 122 24 123 26 124 36 125 26 126 25 127 37 128 26 129 37 130 38 131 25 132 27 133 39 134 25 135 39 136 37 137 27 138 28 139 40 140 27 141 40 142 39 143 28 144 29 145 41 146 28 147 41 148 40 149 29 150 30 151 42 152 29 153 42 154 41 155 30 156 31 157 43 158 30 159 43 160 42 161 31 162 32 163 44 164 31 165 44 166 43 167 32 168 33 169 45 170 32 171 45 172 44 173 33 174 34 175 46 176 33 177 46 178 45 179 34 180 35 181 47 182 34 183 47 184 46 185 35 186 36 187 48 188 35 189 48 190 47 191 36 192 26 193 38 194 36 195 38 196 48 197 38 198 37 199 49 200 38 201 49 202 50 203 37 204 39 205 51 206 37 207 51 208 49 209 39 210 40 211 52 212 39 213 52 214 51 215 40 216 41 217 53 218 40 219 53 220 52 221 41 222 42 223 54 224 41 225 54 226 53 227 42 228 43 229 55 230 42 231 55 232 54 233 43 234 44 235 56 236 43 237 56 238 55 239 44 240 45 241 57 242 44 243 57 244 56 245 45 246 46 247 58 248 45 249 58 250 57 251 46 252 47 253 59 254 46 255 59 256 58 257 47 258 48 259 60 260 47 261 60 262 59 263 48 264 38 265 50 266 48 267 50 268 60 269 50 270 49 271 61 272 50 273 61 274 62 275 49 276 51 277 63 278 49 279 63 280 61 281 51 282 52 283 64 284 51 285 64 286 63 287 52 288 53 289 65 290 52 291 65 292 64 293 53 294 54 295 66 296 53 297 66 298 65 299 54 300 55 301 67 302 54 303 67 304 66 305 55 306 56 307 68 308 55 309 68 310 67 311 56 312 57 313 69 314 56 315 69 316 68 317 57 318 58 319 70 320 57 321 70 322 69 323 58 324 59 325 71 326 58 327 71 328 70 329 59 330 60 331 72 332 59 333 72 334 71 335 60 336 50 337 62 338 60 339 62 340 72 341 62 342 61 343 73 344 62 345 73 346 74 347 61 348 63 349 75 350 61 351 75 352 73 353 63 354 64 355 76 356 63 357 76 358 75 359 64 360 65 361 77 362 64 363 77 364 76 365 65 366 66 367 78 368 65 369 78 370 77 371 66 372 67 373 79 374 66 375 79 376 78 377 67 378 68 379 80 380 67 381 80 382 79 383 68 384 69 385 81 386 68 387 81 388 80 389 69 390 70 391 82 392 69 393 82 394 81 395 70 396 71 397 83 398 70 399 83 400 82 401 71 402 72 403 84 404 71 405 84 406 83 407 72 408 62 409 74 410 72 411 74 412 84 413 74 414 73 415 85 416 74 417 85 418 86 419 73 420 75 421 87 422 73 423 87 424 85 425 75 426 76 427 88 428 75 429 88 430 87 431 76 432 77 433 89 434 76 435 89 436 88 437 77 438 78 439 90 440 77 441 90 442 89 443 78 444 79 445 91 446 78 447 91 448 90 449 79 450 80 451 92 452 79 453 92 454 91 455 80 456 81 457 93 458 80 459 93 460 92 461 81 462 82 463 94 464 81 465 94 466 93 467 82 468 83 469 95 470 82 471 95 472 94 473 83 474 84 475 96 476 83 477 96 478 95 479 84 480 74 481 86 482 84 483 86 484 96 485 86 486 85 487 97 488 86 489 97 490 98 491 85 492 87 493 99 494 85 495 99 496 97 497 87 498 88 499 100 500 87 501 100 502 99 503 88 504 89 505 101 506 88 507 101 508 100 509 89 510 90 511 102 512 89 513 102 514 101 515 90 516 91 517 103 518 90 519 103 520 102 521 91 522 92 523 104 524 91 525 104 526 103 527 92 528 93 529 105 530 92 531 105 532 104 533 93 534 94 535 106 536 93 537 106 538 105 539 94 540 95 541 107 542 94 543 107 544 106 545 95 546 96 547 108 548 95 549 108 550 107 551 96 552 86 553 98 554 96 555 98 556 108 557 98 558 97 559 109 560 98 561 109 562 110 563 97 564 99 565 111 566 97 567 111 568 109 569 99 570 100 571 112 572 99 573 112 574 111 575 100 576 101 577 113 578 100 579 113 580 112 581 101 582 102 583 114 584 101 585 114 586 113 587 102 588 103 589 115 590 102 591 115 592 114 593 103 594 104 595 116 596 103 597 116 598 115 599 104 600 105 601 117 602 104 603 117 604 116 605 105 606 106 607 118 608 105 609 118 610 117 611 106 612 107 613 119 614 106 615 119 616 118 617 107 618 108 619 120 620 107 621 120 622 119 623 108 624 98 625 110 626 108 627 110 628 120 629 110 630 109 631 121 632 110 633 121 634 122 635 109 636 111 637 123 638 109 639 123 640 121 641 111 642 112 643 124 644 111 645 124 646 123 647 112 648 113 649 125 650 112 651 125 652 124 653 113 654 114 655 126 656 113 657 126 658 125 659 114 660 115 661 127 662 114 663 127 664 126 665 115 666 116 667 128 668 115 669 128 670 127 671 116 672 117 673 129 674 116 675 129 676 128 677 117 678 118 679 130 680 117 681 130 682 129 683 118 684 119 685 131 686 118 687 131 688 130 689 119 690 120 691 132 692 119 693 132 694 131 695 120 696 110 697 122 698 120 699 122 700 132 701 122 702 121 703 133 704 122 705 133 706 133 706 121 707 123 708 133 709 121 710 133 711 133 711 123 712 124 713 133 714 123 715 133 716 133 716 124 717 125 718 133 719 124 720 133 721 133 721 125 722 126 723 133 724 125 725 133 726 133 726 126 727 127 728 133 729 126 730 133 731 133 731 127 732 128 733 133 734 127 735 133 736 133 736 128 737 129 738 133 739 128 740 133 741 133 741 129 742 130 743 133 744 129 745 133 746 133 746 130 747 131 748 133 749 130 750 133 751 133 751 131 752 132 753 133 754 131 755 133 756 133 756 132 757 122 758 133 759 132 760 133 761 133 761 0 762 0 762 1 763 0 764 1 765 2 766 0 767 0 767 3 768 0 769 3 770 1 771 0 772 0 772 4 773 0 774 4 775 3 776 0 777 0 777 5 778 0 779 5 780 4 781 0 782 0 782 6 783 0 784 6 785 5 786 0 787 0 787 7 788 0 789 7 790 6 791 0 792 0 792 8 793 0 794 8 795 7 796 0 797 0 797 9 798 0 799 9 800 8 801 0 802 0 802 10 803 0 804 10 805 9 806 0 807 0 807 11 808 0 809 11 810 10 811 0 812 0 812 12 813 0 814 12 815 11 816 0 817 0 817 2 818 0 819 2 820 12 821 2 822 1 823 13 824 2 825 13 826 14 827 1 828 3 829 15 830 1 831 15 832 13 833 3 834 4 835 16 836 3 837 16 838 15 839</p>
                </triangles>
            </mesh>
        </geometry>
    </library_geometries>
    <library_visual_scenes>
        <visual_scene id="Building_240_CROWN2">
            <node>
                <instance_geometry url="#geometry0">
                    <bind_material>
                        <technique_common>
                            <instance_material symbol="default_ai_0.2_sh_0.2_tr_0.0_dc_r_0.8_g_0.8_b_0.8_sc_r_1.0_g_1.0_b_1.0_ec_r_0.0_g_0.0_b_0_tri" target="#default_ai_0.2_sh_0.2_tr_0.0_dc_r_0.8_g_0.8_b_0.8_sc_r_1.0_g_1.0_b_1.0_ec_r_0.0_g_0.0_b_0_mat"/>
                        </technique_common>
                    </bind_material>
                </instance_geometry>
            </node>
        </visual_scene>
    </library_visual_scenes>
    <scene>
        <instance_visual_scene url="#Building_240_CROWN2"/>
    </scene>
</COLLADA>
