<?xml version="1.0" encoding="UTF-8" standalone="yes"?>
<COLLADA xmlns="http://www.collada.org/2005/11/COLLADASchema" version="1.4.1">
    <asset>
        <contributor>
            <authoring_tool>3D City Database Importer/Exporter, version 5.5.3; Chair of Geoinformatics, Technical University of Munich</authoring_tool>
        </contributor>
        <created>2026-09-25T14:45:00.405</created>
        <modified>2026-09-25T14:45:00.405</modified>
        <unit meter="1.0" name="meters"/>
        <up_axis>Z_UP</up_axis>
    </asset>
    <library_materials>
        <material id="default_ai_0.2_sh_0.2_tr_0.0_dc_r_0.8_g_0.8_b_0.8_sc_r_1.0_g_1.0_b_1.0_ec_r_0.0_g_0.0_b_0_mat">
            <instance_effect url="#default_ai_0.2_sh_0.2_tr_0.0_dc_r_0.8_g_0.8_b_0.8_sc_r_1.0_g_1.0_b_1.0_ec_r_0.0_g_0.0_b_0_eff"/>
        </material>
    </library_materials>
    <library_effects>
        <effect id="default_ai_0.2_sh_0.2_tr_0.0_dc_r_0.8_g_0.8_b_0.8_sc_r_1.0_g_1.0_b_1.0_ec_r_0.0_g_0.0_b_0_eff">
            <profile_COMMON>
                <technique sid="COMMON">
                    <lambert>
                        <emission>
                            <color>0.0 0.0 0.0 1.0</color>
                        </emission>
                        <diffuse>
                            <color>0.8 0.8 0.8 1.0</color>
                        </diffuse>
                        <reflective>
                            <color>1.0 1.0 1.0 1.0</color>
                        </reflective>
                        <reflectivity>
                            <float>0.2</float>
                        </reflectivity>
                        <transparent opaque="A_ONE">
                            <color>1.0 1.0 1.0 1.0</color>
                        </transparent>
                        <transparency>
                            <float>1.0</float>
                        </transparency>
                    </lambert>
                </technique>
                <extra>
                    <technique profile="GOOGLEEARTH">
                        <double_sided>0</double_sided>
                    </technique>
                </extra>
            </profile_COMMON>
        </effect>
    </library_effects>
    <library_geometries>
        <geometry id="geometry0">
            <mesh>
                <source id="geometry0-position">
                    <float_array id="geometry0-position-array" count="402">0.0 0.0 3.8 0.4258736 0.245879 3.7352594 0.4917561 0.0 3.7352594 0.245879 0.4258736 3.7352594 0.0 0.4917561 3.7352594 -0.245879 0.4258736 3.7352594 -0.4258736 0.245879 3.7352594 -0.4917561 0.0 3.7352594 -0.4258736 -0.245879 3.7352594 -0.245879 -0.4258736 3.7352594 0.0 -0.4917561 3.7352594 0.245879 -0.4258736 3.7352594 0.4258736 -0.245879 3.7352594 0.8227247 0.475 3.5454475 0.95 0.0 3.5454475 0.475 0.8227247 3.5454475 0.0 0.95 3.5454475 -0.475 0.8227247 3.5454475 -0.8227247 0.475 3.5454475 -0.95 0.0 3.5454475 -0.8227247 -0.475 3.5454475 -0.475 -0.8227247 3.5454475 0.0 -0.95 3.5454475 0.475 -0.8227247 3.5454475 0.8227247 -0.475 3.5454475 1.1635068 0.6717507 3.2435014 1.3435033 0.0 3.2435014 0.6717507 1.1635068 3.2435014 0.0 1.3435033 3.2435014 -0.6717507 1.1635068 3.2435014 -1.1635068 0.6717507 3.2435014 -1.3435033 0.0 3.2435014 -1.1635068 -0.6717507 3.2435014 -0.6717507 -1.1635068 3.2435014 0.0 -1.3435033 3.2435014 0.6717507 -1.1635068 3.2435014 1.1635068 -0.6717507 3.2435014 1.425 0.8227247 2.85 1.6454475 0.0 2.85 0.8227247 1.425 2.85 0.0 1.6454475 2.85 -0.8227247 1.425 2.85 -1.425 0.8227247 2.85 -1.6454475 0.0 2.85 -1.425 -0.8227247 2.85 -0.8227247 -1.425 2.85 0.0 -1.6454475 2.85 0.8227247 -1.425 2.85 1.425 -0.8227247 2.85 1.5893804 0.9176297 2.3917561 1.8352594 0.0 2.3917561 0.9176297 1.5893804 2.3917561 0.0 1.8352594 2.3917561 -0.9176297 1.5893804 2.3917561 -1.5893804 0.9176297 2.3917561 -1.8352594 0.0 2.3917561 -1.5893804 -0.9176297 2.3917561 -0.9176297 -1.5893804 2.3917561 0.0 -1.8352594 2.3917561 0.9176297 -1.5893804 2.3917561 1.5893804 -0.9176297 2.3917561 1.6454475 0.95 1.9 1.9 0.0 1.9 0.95 1.6454475 1.9 0.0 1.9 1.9 -0.95 1.6454475 1.9 -1.6454475 0.95 1.9 -1.9 0.0 1.9 -1.6454475 -0.95 1.9 -0.95 -1.6454475 1.9 0.0 -1.9 1.9 0.95 -1.6454475 1.9 1.6454475 -0.95 1.9 1.5893804 0.9176297 1.4082439 1.8352594 0.0 1.4082439 0.9176297 1.5893804 1.4082439 0.0 1.8352594 1.4082439 -0.9176297 1.5893804 1.4082439 -1.5893804 0.9176297 1.4082439 -1.8352594 0.0 1.4082439 -1.5893804 -0.9176297 1.4082439 -0.9176297 -1.5893804 1.4082439 0.0 -1.8352594 1.4082439 0.9176297 -1.5893804 1.4082439 1.5893804 -0.9176297 1.4082439 1.425 0.8227247 0.95 1.6454475 0.0 0.95 0.8227247 1.425 0.95 0.0 1.6454475 0.95 -0.8227247 1.425 0.95 -1.425 0.8227247 0.95 -1.6454475 0.0 0.95 -1.425 -0.8227247 0.95 -0.8227247 -1.425 0.95 0.0 -1.6454475 0.95 0.8227247 -1.425 0.95 1.425 -0.8227247 0.95 1.1635068 0.6717507 0.5564967 1.3435033 0.0 0.5564967 0.6717507 1.1635068 0.5564967 0.0 1.3435033 0.5564967 -0.6717507 1.1635068 0.5564967 -1.1635068 0.6717507 0.5564967 -1.3435033 0.0 0.5564967 -1.1635068 -0.6717507 0.5564967 -0.6717507 -1.1635068 0.5564967 0.0 -1.3435033 0.5564967 0.6717507 -1.1635068 0.5564967 1.1635068 -0.6717507 0.5564967 0.8227247 0.475 0.2545506 0.95 0.0 0.2545506 0.475 0.8227247 0.2545506 0.0 0.95 0.2545506 -0.475 0.8227247 0.2545506 -0.8227247 0.475 0.2545506 -0.95 0.0 0.2545506 -0.8227247 -0.475 0.2545506 -0.475 -0.8227247 0.2545506 0.0 -0.95 0.2545506 0.475 -0.8227247 0.2545506 0.8227247 -0.475 0.2545506 0.4258736 0.245879 0.0647406 0.4917561 0.0 0.0647406 0.245879 0.4258736 0.0647406 0.0 0.4917561 0.0647406 -0.245879 0.4258736 0.0647406 -0.4258736 0.245879 0.0647406 -0.4917561 0.0 0.0647406 -0.4258736 -0.245879 0.0647406 -0.245879 -0.4258736 0.0647406 0.0 -0.4917561 0.0647406 0.245879 -0.4258736 0.0647406 0.4258736 -0.245879 0.0647406 0.0 0.0 0.0</float_array>
                    <technique_common>
                        <accessor count="134" source="#geometry0-position-array" stride="3">
                            <param name="X" type="float"/>
                            <param name="Y" type="float"/>
                            <param name="Z" type="float"/>
                        </accessor>
                    </technique_common>
                </source>
                <source id="geometry0-normal">
                    <float_array id="geometry0-normal-array" count="2520">0.2567521 -0.958209 0.1261502 0.2567521 -0.958209 0.1261502 0.2567521 -0.958209 0.1261502 0.2567523 -0.958209 0.1261498 0.2567523 -0.958209 0.1261498 0.2567523 -0.958209 0.1261498 0.7014578 -0.7014578 0.1261501 0.7014578 -0.7014578 0.1261501 0.7014578 -0.7014578 0.1261501 0.7014578 -0.7014578 0.1261501 0.7014578 -0.7014578 0.1261501 0.7014578 -0.7014578 0.1261501 0.958209 -0.2567521 0.1261499 0.958209 -0.2567521 0.1261499 0.958209 -0.2567521 0.1261499 0.958209 -0.2567523 0.1261503 0.958209 -0.2567523 0.1261503 0.958209 -0.2567523 0.1261503 0.958209 0.2567521 0.1261502 0.958209 0.2567521 0.1261502 0.958209 0.2567521 0.1261502 0.958209 0.2567523 0.1261498 0.958209 0.2567523 0.1261498 0.958209 0.2567523 0.1261498 0.7014578 0.7014578 0.1261501 0.7014578 0.7014578 0.1261501 0.7014578 0.7014578 0.1261501 0.7014578 0.7014578 0.1261501 0.7014578 0.7014578 0.1261501 0.7014578 0.7014578 0.1261501 0.2567521 0.958209 0.1261499 0.2567521 0.958209 0.1261499 0.2567521 0.958209 0.1261499 0.2567523 0.958209 0.1261503 0.2567523 0.958209 0.1261503 0.2567523 0.958209 0.1261503 -0.2567521 0.958209 0.1261502 -0.2567521 0.958209 0.1261502 -0.2567521 0.958209 0.1261502 -0.2567523 0.958209 0.1261498 -0.2567523 0.958209 0.1261498 -0.2567523 0.958209 0.1261498 -0.7014578 0.7014578 0.1261501 -0.7014578 0.7014578 0.1261501 -0.7014578 0.7014578 0.1261501 -0.7014578 0.7014578 0.1261501 -0.7014578 0.7014578 0.1261501 -0.7014578 0.7014578 0.1261501 -0.958209 0.2567521 0.1261499 -0.958209 0.2567521 0.1261499 -0.958209 0.2567521 0.1261499 -0.958209 0.2567523 0.1261503 -0.958209 0.2567523 0.1261503 -0.958209 0.2567523 0.1261503 -0.8968091 -0.2403002 0.3714693 -0.8968091 -0.2403002 0.3714693 -0.8968091 -0.2403002 0.3714693 -0.8968083 -0.2402981 0.3714723 -0.8968083 -0.2402981 0.3714723 -0.8968083 -0.2402981 0.3714723 -0.6565099 -0.6565099 0.3714692 -0.6565099 -0.6565099 0.3714692 -0.6565099 -0.6565099 0.3714692 -0.6565099 -0.6565099 0.3714692 -0.6565099 -0.6565099 0.3714692 -0.6565099 -0.6565099 0.3714692 -0.2402999 -0.896808 0.3714722 -0.2402999 -0.896808 0.3714722 -0.2402999 -0.896808 0.3714722 -0.2402984 -0.8968096 0.3714691 -0.2402984 -0.8968096 0.3714691 -0.2402984 -0.8968096 0.3714691 0.2403002 -0.8968091 0.3714693 0.2403002 -0.8968091 0.3714693 0.2403002 -0.8968091 0.3714693 0.2402981 -0.8968083 0.3714723 0.2402981 -0.8968083 0.3714723 0.2402981 -0.8968083 0.3714723 0.6565099 -0.6565099 0.3714692 0.6565099 -0.6565099 0.3714692 0.6565099 -0.6565099 0.3714692 0.6565099 -0.6565099 0.3714692 0.6565099 -0.6565099 0.3714692 0.6565099 -0.6565099 0.3714692 0.896808 -0.2402999 0.3714722 0.896808 -0.2402999 0.3714722 0.896808 -0.2402999 0.3714722 0.8968096 -0.2402984 0.3714691 0.8968096 -0.2402984 0.3714691 0.8968096 -0.2402984 0.3714691 0.8968091 0.2403002 0.3714693 0.8968091 0.2403002 0.3714693 0.8968091 0.2403002 0.3714693 0.8968083 0.2402981 0.3714723 0.8968083 0.2402981 0.3714723 0.8968083 0.2402981 0.3714723 0.6565099 0.6565099 0.3714692 0.6565099 0.6565099 0.3714692 0.6565099 0.6565099 0.3714692 0.6565099 0.6565099 0.3714692 0.6565099 0.6565099 0.3714692 0.6565099 0.6565099 0.3714692 0.2402999 0.896808 0.3714722 0.2402999 0.896808 0.3714722 0.2402999 0.896808 0.3714722 0.2402984 0.8968096 0.3714691 0.2402984 0.8968096 0.3714691 0.2402984 0.8968096 0.3714691 -0.2403002 0.8968091 0.3714693 -0.2403002 0.8968091 0.3714693 -0.2403002 0.8968091 0.3714693 -0.2402981 0.8968083 0.3714723 -0.2402981 0.8968083 0.3714723 -0.2402981 0.8968083 0.3714723 -0.6565099 0.6565099 0.3714692 -0.6565099 0.6565099 0.3714692 -0.6565099 0.6565099 0.3714692 -0.6565099 0.6565099 0.3714692 -0.6565099 0.6565099 0.3714692 -0.6565099 0.6565099 0.3714692 -0.896808 0.2402999 0.3714722 -0.896808 0.2402999 0.3714722 -0.896808 0.2402999 0.3714722 -0.8968096 0.2402984 0.3714691 -0.8968096 0.2402984 0.3714691 -0.8968096 0.2402984 0.3714691 -0.7760128 -0.2079312 0.5954568 -0.7760128 -0.2079312 0.5954568 -0.7760128 -0.2079312 0.5954568 -0.7760144 -0.2079342 0.5954537 -0.7760144 -0.2079342 0.5954537 -0.7760144 -0.2079342 0.5954537 -0.5680803 -0.5680803 0.5954574 -0.5680803 -0.5680803 0.5954574 -0.5680803 -0.5680803 0.5954574 -0.5680803 -0.5680803 0.5954575 -0.5680803 -0.5680803 0.5954575 -0.5680803 -0.5680803 0.5954575 -0.2079317 -0.7760147 0.595454 -0.2079317 -0.7760147 0.595454 -0.2079317 -0.7760147 0.595454 -0.2079335 -0.7760118 0.5954572 -0.2079335 -0.7760118 0.5954572 -0.2079335 -0.7760118 0.5954572 0.2079312 -0.7760128 0.5954568 0.2079312 -0.7760128 0.5954568 0.2079312 -0.7760128 0.5954568 0.2079342 -0.7760144 0.5954537 0.2079342 -0.7760144 0.5954537 0.2079342 -0.7760144 0.5954537 0.5680803 -0.5680803 0.5954574 0.5680803 -0.5680803 0.5954574 0.5680803 -0.5680803 0.5954574 0.5680803 -0.5680803 0.5954575 0.5680803 -0.5680803 0.5954575 0.5680803 -0.5680803 0.5954575 0.7760147 -0.2079317 0.595454 0.7760147 -0.2079317 0.595454 0.7760147 -0.2079317 0.595454 0.7760118 -0.2079335 0.5954572 0.7760118 -0.2079335 0.5954572 0.7760118 -0.2079335 0.5954572 0.7760128 0.2079312 0.5954568 0.7760128 0.2079312 0.5954568 0.7760128 0.2079312 0.5954568 0.7760144 0.2079342 0.5954537 0.7760144 0.2079342 0.5954537 0.7760144 0.2079342 0.5954537 0.5680803 0.5680803 0.5954574 0.5680803 0.5680803 0.5954574 0.5680803 0.5680803 0.5954574 0.5680803 0.5680803 0.5954575 0.5680803 0.5680803 0.5954575 0.5680803 0.5680803 0.5954575 0.2079317 0.7760147 0.595454 0.2079317 0.7760147 0.595454 0.2079317 0.7760147 0.595454 0.2079335 0.7760118 0.5954572 0.2079335 0.7760118 0.5954572 0.2079335 0.7760118 0.5954572 -0.2079312 0.7760128 0.5954568 -0.2079312 0.7760128 0.5954568 -0.2079312 0.7760128 0.5954568 -0.2079342 0.7760144 0.5954537 -0.2079342 0.7760144 0.5954537 -0.2079342 0.7760144 0.5954537 -0.5680803 0.5680803 0.5954574 -0.5680803 0.5680803 0.5954574 -0.5680803 0.5680803 0.5954574 -0.5680803 0.5680803 0.5954575 -0.5680803 0.5680803 0.5954575 -0.5680803 0.5680803 0.5954575 -0.7760147 0.2079317 0.595454 -0.7760147 0.2079317 0.595454 -0.7760147 0.2079317 0.595454 -0.7760118 0.2079335 0.5954572 -0.7760118 0.2079335 0.5954572 -0.7760118 0.2079335 0.5954572 -0.6008226 -0.1609913 0.7830032 -0.6008226 -0.1609913 0.7830032 -0.6008226 -0.1609913 0.7830032 -0.6008213 -0.1609889 0.7830047 -0.6008213 -0.1609889 0.7830047 -0.6008213 -0.1609889 0.7830047 -0.4398331 -0.4398331 0.783003 -0.4398331 -0.4398331 0.783003 -0.4398331 -0.4398331 0.783003 -0.4398331 -0.4398331 0.783003 -0.4398331 -0.4398331 0.783003 -0.4398331 -0.4398331 0.783003 -0.1609909 -0.6008211 0.7830045 -0.1609909 -0.6008211 0.7830045 -0.1609909 -0.6008211 0.7830045 -0.1609894 -0.6008235 0.7830029 -0.1609894 -0.6008235 0.7830029 -0.1609894 -0.6008235 0.7830029 0.1609913 -0.6008226 0.7830032 0.1609913 -0.6008226 0.7830032 0.1609913 -0.6008226 0.7830032 0.1609889 -0.6008213 0.7830047 0.1609889 -0.6008213 0.7830047 0.1609889 -0.6008213 0.7830047 0.4398331 -0.4398331 0.783003 0.4398331 -0.4398331 0.783003 0.4398331 -0.4398331 0.783003 0.4398331 -0.4398331 0.783003 0.4398331 -0.4398331 0.783003 0.4398331 -0.4398331 0.783003 0.6008211 -0.1609909 0.7830045 0.6008211 -0.1609909 0.7830045 0.6008211 -0.1609909 0.7830045 0.6008235 -0.1609894 0.7830029 0.6008235 -0.1609894 0.7830029 0.6008235 -0.1609894 0.7830029 0.6008226 0.1609913 0.7830032 0.6008226 0.1609913 0.7830032 0.6008226 0.1609913 0.7830032 0.6008213 0.1609889 0.7830047 0.6008213 0.1609889 0.7830047 0.6008213 0.1609889 0.7830047 0.4398331 0.4398331 0.783003 0.4398331 0.4398331 0.783003 0.4398331 0.4398331 0.783003 0.4398331 0.4398331 0.783003 0.4398331 0.4398331 0.783003 0.4398331 0.4398331 0.783003 0.1609909 0.6008211 0.7830045 0.1609909 0.6008211 0.7830045 0.1609909 0.6008211 0.7830045 0.1609894 0.6008235 0.7830029 0.1609894 0.6008235 0.7830029 0.1609894 0.6008235 0.7830029 -0.1609913 0.6008226 0.7830032 -0.1609913 0.6008226 0.7830032 -0.1609913 0.6008226 0.7830032 -0.1609889 0.6008213 0.7830047 -0.1609889 0.6008213 0.7830047 -0.1609889 0.6008213 0.7830047 -0.4398331 0.4398331 0.783003 -0.4398331 0.4398331 0.783003 -0.4398331 0.4398331 0.783003 -0.4398331 0.4398331 0.783003 -0.4398331 0.4398331 0.783003 -0.4398331 0.4398331 0.783003 -0.6008211 0.1609909 0.7830045 -0.6008211 0.1609909 0.7830045 -0.6008211 0.1609909 0.7830045 -0.6008235 0.1609894 0.7830029 -0.6008235 0.1609894 0.7830029 -0.6008235 0.1609894 0.7830029 -0.3806862 -0.1020041 0.9190611 -0.3806862 -0.1020041 0.9190611 -0.3806862 -0.1020041 0.9190611 -0.380686 -0.1020036 0.9190612 -0.380686 -0.1020036 0.9190612 -0.380686 -0.1020036 0.9190612 -0.2786817 -0.2786817 0.9190609 -0.2786817 -0.2786817 0.9190609 -0.2786817 -0.2786817 0.9190609 -0.2786817 -0.2786817 0.9190609 -0.2786817 -0.2786817 0.9190609 -0.2786817 -0.2786817 0.9190609 -0.102004 -0.3806859 0.9190611 -0.102004 -0.3806859 0.9190611 -0.102004 -0.3806859 0.9190611 -0.1020037 -0.3806864 0.9190611 -0.1020037 -0.3806864 0.9190611 -0.1020037 -0.3806864 0.9190611 0.1020041 -0.3806862 0.9190611 0.1020041 -0.3806862 0.9190611 0.1020041 -0.3806862 0.9190611 0.1020036 -0.380686 0.9190612 0.1020036 -0.380686 0.9190612 0.1020036 -0.380686 0.9190612 0.2786817 -0.2786817 0.9190609 0.2786817 -0.2786817 0.9190609 0.2786817 -0.2786817 0.9190609 0.2786817 -0.2786817 0.9190609 0.2786817 -0.2786817 0.9190609 0.2786817 -0.2786817 0.9190609 0.3806859 -0.102004 0.9190611 0.3806859 -0.102004 0.9190611 0.3806859 -0.102004 0.9190611 0.3806864 -0.1020037 0.9190611 0.3806864 -0.1020037 0.9190611 0.3806864 -0.1020037 0.9190611 0.3806862 0.1020041 0.9190611 0.3806862 0.1020041 0.9190611 0.3806862 0.1020041 0.9190611 0.380686 0.1020036 0.9190612 0.380686 0.1020036 0.9190612 0.380686 0.1020036 0.9190612 0.2786817 0.2786817 0.9190609 0.2786817 0.2786817 0.9190609 0.2786817 0.2786817 0.9190609 0.2786817 0.2786817 0.9190609 0.2786817 0.2786817 0.9190609 0.2786817 0.2786817 0.9190609 0.102004 0.3806859 0.9190611 0.102004 0.3806859 0.9190611 0.102004 0.3806859 0.9190611 0.1020037 0.3806864 0.9190611 0.1020037 0.3806864 0.9190611 0.1020037 0.3806864 0.9190611 -0.1020041 0.3806862 0.9190611 -0.1020041 0.3806862 0.9190611 -0.1020041 0.3806862 0.9190611 -0.1020036 0.380686 0.9190612 -0.1020036 0.380686 0.9190612 -0.1020036 0.380686 0.9190612 -0.2786817 0.2786817 0.9190609 -0.2786817 0.2786817 0.9190609 -0.2786817 0.2786817 0.9190609 -0.2786817 0.2786817 0.9190609 -0.2786817 0.2786817 0.9190609 -0.2786817 0.2786817 0.9190609 -0.3806859 0.102004 0.9190611 -0.3806859 0.102004 0.9190611 -0.3806859 0.102004 0.9190611 -0.3806864 0.1020037 0.9190611 -0.3806864 0.1020037 0.9190611 -0.3806864 0.1020037 0.9190611 -0.1304458 -0.0349525 0.9908392 -0.1304458 -0.0349525 0.9908392 -0.1304458 -0.0349525 0.9908392 1.0 0.0 0.0 1.0 0.0 0.0 -0.0954928 -0.0954928 0.9908392 -0.0954928 -0.0954928 0.9908392 -0.0954928 -0.0954928 0.9908392 1.0 0.0 0.0 1.0 0.0 0.0 -0.0349525 -0.1304458 0.9908391 -0.0349525 -0.1304458 0.9908391 -0.0349525 -0.1304458 0.9908391 1.0 0.0 0.0 1.0 0.0 0.0 0.0349525 -0.1304458 0.9908392 0.0349525 -0.1304458 0.9908392 0.0349525 -0.1304458 0.9908392 1.0 0.0 0.0 1.0 0.0 0.0 0.0954928 -0.0954928 0.9908392 0.0954928 -0.0954928 0.9908392 0.0954928 -0.0954928 0.9908392 1.0 0.0 0.0 1.0 0.0 0.0 0.1304458 -0.0349525 0.9908391 0.1304458 -0.0349525 0.9908391 0.1304458 -0.0349525 0.9908391 1.0 0.0 0.0 1.0 0.0 0.0 0.1304458 0.0349525 0.9908392 0.1304458 0.0349525 0.9908392 0.1304458 0.0349525 0.9908392 1.0 0.0 0.0 1.0 0.0 0.0 0.0954928 0.0954928 0.9908392 0.0954928 0.0954928 0.9908392 0.0954928 0.0954928 0.9908392 1.0 0.0 0.0 1.0 0.0 0.0 0.0349525 0.1304458 0.9908391 0.0349525 0.1304458 0.9908391 0.0349525 0.1304458 0.9908391 1.0 0.0 0.0 1.0 0.0 0.0 -0.0349525 0.1304458 0.9908392 -0.0349525 0.1304458 0.9908392 -0.0349525 0.1304458 0.9908392 1.0 0.0 0.0 1.0 0.0 0.0 -0.0954928 0.0954928 0.9908392 -0.0954928 0.0954928 0.9908392 -0.0954928 0.0954928 0.9908392 1.0 0.0 0.0 1.0 0.0 0.0 -0.1304458 0.0349525 0.9908391 -0.1304458 0.0349525 0.9908391 -0.1304458 0.0349525 0.9908391 1.0 0.0 0.0 1.0 0.0 0.0 1.0 0.0 0.0 1.0 0.0 0.0 -0.1304459 -0.0349526 -0.9908392 -0.1304459 -0.0349526 -0.9908392 -0.1304459 -0.0349526 -0.9908392 1.0 0.0 0.0 1.0 0.0 0.0 -0.0954929 -0.0954929 -0.9908391 -0.0954929 -0.0954929 -0.9908391 -0.0954929 -0.0954929 -0.9908391 1.0 0.0 0.0 1.0 0.0 0.0 -0.0349526 -0.1304459 -0.9908391 -0.0349526 -0.1304459 -0.9908391 -0.0349526 -0.1304459 -0.9908391 1.0 0.0 0.0 1.0 0.0 0.0 0.0349526 -0.1304459 -0.9908392 0.0349526 -0.1304459 -0.9908392 0.0349526 -0.1304459 -0.9908392 1.0 0.0 0.0 1.0 0.0 0.0 0.0954929 -0.0954929 -0.9908391 0.0954929 -0.0954929 -0.9908391 0.0954929 -0.0954929 -0.9908391 1.0 0.0 0.0 1.0 0.0 0.0 0.1304459 -0.0349526 -0.9908391 0.1304459 -0.0349526 -0.9908391 0.1304459 -0.0349526 -0.9908391 1.0 0.0 0.0 1.0 0.0 0.0 0.1304459 0.0349526 -0.9908392 0.1304459 0.0349526 -0.9908392 0.1304459 0.0349526 -0.9908392 1.0 0.0 0.0 1.0 0.0 0.0 0.0954929 0.0954929 -0.9908391 0.0954929 0.0954929 -0.9908391 0.0954929 0.0954929 -0.9908391 1.0 0.0 0.0 1.0 0.0 0.0 0.0349526 0.1304459 -0.9908391 0.0349526 0.1304459 -0.9908391 0.0349526 0.1304459 -0.9908391 1.0 0.0 0.0 1.0 0.0 0.0 -0.0349526 0.1304459 -0.9908392 -0.0349526 0.1304459 -0.9908392 -0.0349526 0.1304459 -0.9908392 1.0 0.0 0.0 1.0 0.0 0.0 -0.0954929 0.0954929 -0.9908391 -0.0954929 0.0954929 -0.9908391 -0.0954929 0.0954929 -0.9908391 1.0 0.0 0.0 1.0 0.0 0.0 -0.1304459 0.0349526 -0.9908391 -0.1304459 0.0349526 -0.9908391 -0.1304459 0.0349526 -0.9908391 -0.3806892 -0.1020045 -0.9190598 -0.3806892 -0.1020045 -0.9190598 -0.3806892 -0.1020045 -0.9190598 -0.3806888 -0.1020048 -0.9190599 -0.3806888 -0.1020048 -0.9190599 -0.3806888 -0.1020048 -0.9190599 -0.2786838 -0.2786838 -0.9190596 -0.2786838 -0.2786838 -0.9190596 -0.2786838 -0.2786838 -0.9190596 -0.2786838 -0.2786838 -0.9190597 -0.2786838 -0.2786838 -0.9190597 -0.2786838 -0.2786838 -0.9190597 -0.1020044 -0.3806888 -0.9190599 -0.1020044 -0.3806888 -0.9190599 -0.1020044 -0.3806888 -0.9190599 -0.1020048 -0.380689 -0.9190598 -0.1020048 -0.380689 -0.9190598 -0.1020048 -0.380689 -0.9190598 0.1020045 -0.3806892 -0.9190598 0.1020045 -0.3806892 -0.9190598 0.1020045 -0.3806892 -0.9190598 0.1020048 -0.3806888 -0.9190599 0.1020048 -0.3806888 -0.9190599 0.1020048 -0.3806888 -0.9190599 0.2786838 -0.2786838 -0.9190596 0.2786838 -0.2786838 -0.9190596 0.2786838 -0.2786838 -0.9190596 0.2786838 -0.2786838 -0.9190597 0.2786838 -0.2786838 -0.9190597 0.2786838 -0.2786838 -0.9190597 0.3806888 -0.1020044 -0.9190599 0.3806888 -0.1020044 -0.9190599 0.3806888 -0.1020044 -0.9190599 0.380689 -0.1020048 -0.9190598 0.380689 -0.1020048 -0.9190598 0.380689 -0.1020048 -0.9190598 0.3806892 0.1020045 -0.9190598 0.3806892 0.1020045 -0.9190598 0.3806892 0.1020045 -0.9190598 0.3806888 0.1020048 -0.9190599 0.3806888 0.1020048 -0.9190599 0.3806888 0.1020048 -0.9190599 0.2786838 0.2786838 -0.9190596 0.2786838 0.2786838 -0.9190596 0.2786838 0.2786838 -0.9190596 0.2786838 0.2786838 -0.9190597 0.2786838 0.2786838 -0.9190597 0.2786838 0.2786838 -0.9190597 0.1020044 0.3806888 -0.9190599 0.1020044 0.3806888 -0.9190599 0.1020044 0.3806888 -0.9190599 0.1020048 0.380689 -0.9190598 0.1020048 0.380689 -0.9190598 0.1020048 0.380689 -0.9190598 -0.1020045 0.3806892 -0.9190598 -0.1020045 0.3806892 -0.9190598 -0.1020045 0.3806892 -0.9190598 -0.1020048 0.3806888 -0.9190599 -0.1020048 0.3806888 -0.9190599 -0.1020048 0.3806888 -0.9190599 -0.2786838 0.2786838 -0.9190596 -0.2786838 0.2786838 -0.9190596 -0.2786838 0.2786838 -0.9190596 -0.2786838 0.2786838 -0.9190597 -0.2786838 0.2786838 -0.9190597 -0.2786838 0.2786838 -0.9190597 -0.3806888 0.1020044 -0.9190599 -0.3806888 0.1020044 -0.9190599 -0.3806888 0.1020044 -0.9190599 -0.380689 0.1020048 -0.9190598 -0.380689 0.1020048 -0.9190598 -0.380689 0.1020048 -0.9190598 -0.6008236 -0.1609895 -0.7830028 -0.6008236 -0.1609895 -0.7830028 -0.6008236 -0.1609895 -0.7830028 -0.6008212 -0.1609909 -0.7830043 -0.6008212 -0.1609909 -0.7830043 -0.6008212 -0.1609909 -0.7830043 -0.4398331 -0.4398331 -0.7830029 -0.4398331 -0.4398331 -0.7830029 -0.4398331 -0.4398331 -0.7830029 -0.4398331 -0.4398331 -0.7830029 -0.4398331 -0.4398331 -0.7830029 -0.4398331 -0.4398331 -0.7830029 -0.1609889 -0.6008214 -0.7830047 -0.1609889 -0.6008214 -0.7830047 -0.1609889 -0.6008214 -0.7830047 -0.1609914 -0.6008228 -0.7830032 -0.1609914 -0.6008228 -0.7830032 -0.1609914 -0.6008228 -0.7830032 0.1609895 -0.6008236 -0.7830028 0.1609895 -0.6008236 -0.7830028 0.1609895 -0.6008236 -0.7830028 0.1609909 -0.6008212 -0.7830043 0.1609909 -0.6008212 -0.7830043 0.1609909 -0.6008212 -0.7830043 0.4398331 -0.4398331 -0.7830029 0.4398331 -0.4398331 -0.7830029 0.4398331 -0.4398331 -0.7830029 0.4398331 -0.4398331 -0.7830029 0.4398331 -0.4398331 -0.7830029 0.4398331 -0.4398331 -0.7830029 0.6008214 -0.1609889 -0.7830047 0.6008214 -0.1609889 -0.7830047 0.6008214 -0.1609889 -0.7830047 0.6008228 -0.1609914 -0.7830032 0.6008228 -0.1609914 -0.7830032 0.6008228 -0.1609914 -0.7830032 0.6008236 0.1609895 -0.7830028 0.6008236 0.1609895 -0.7830028 0.6008236 0.1609895 -0.7830028 0.6008212 0.1609909 -0.7830043 0.6008212 0.1609909 -0.7830043 0.6008212 0.1609909 -0.7830043 0.4398331 0.4398331 -0.7830029 0.4398331 0.4398331 -0.7830029 0.4398331 0.4398331 -0.7830029 0.4398331 0.4398331 -0.7830029 0.4398331 0.4398331 -0.7830029 0.4398331 0.4398331 -0.7830029 0.1609889 0.6008214 -0.7830047 0.1609889 0.6008214 -0.7830047 0.1609889 0.6008214 -0.7830047 0.1609914 0.6008228 -0.7830032 0.1609914 0.6008228 -0.7830032 0.1609914 0.6008228 -0.7830032 -0.1609895 0.6008236 -0.7830028 -0.1609895 0.6008236 -0.7830028 -0.1609895 0.6008236 -0.7830028 -0.1609909 0.6008212 -0.7830043 -0.1609909 0.6008212 -0.7830043 -0.1609909 0.6008212 -0.7830043 -0.4398331 0.4398331 -0.7830029 -0.4398331 0.4398331 -0.7830029 -0.4398331 0.4398331 -0.7830029 -0.4398331 0.4398331 -0.7830029 -0.4398331 0.4398331 -0.7830029 -0.4398331 0.4398331 -0.7830029 -0.6008214 0.1609889 -0.7830047 -0.6008214 0.1609889 -0.7830047 -0.6008214 0.1609889 -0.7830047 -0.6008228 0.1609914 -0.7830032 -0.6008228 0.1609914 -0.7830032 -0.6008228 0.1609914 -0.7830032 -0.7760106 -0.2079332 -0.595459 -0.7760106 -0.2079332 -0.595459 -0.7760106 -0.2079332 -0.595459 -0.7760135 -0.2079314 -0.5954557 -0.7760135 -0.2079314 -0.5954557 -0.7760135 -0.2079314 -0.5954557 -0.5680794 -0.5680794 -0.5954592 -0.5680794 -0.5680794 -0.5954592 -0.5680794 -0.5680794 -0.5954592 -0.5680794 -0.5680794 -0.5954592 -0.5680794 -0.5680794 -0.5954592 -0.5680794 -0.5680794 -0.5954592 -0.2079339 -0.7760131 -0.5954555 -0.2079339 -0.7760131 -0.5954555 -0.2079339 -0.7760131 -0.5954555 -0.2079308 -0.7760115 -0.5954586 -0.2079308 -0.7760115 -0.5954586 -0.2079308 -0.7760115 -0.5954586 0.2079332 -0.7760106 -0.595459 0.2079332 -0.7760106 -0.595459 0.2079332 -0.7760106 -0.595459 0.2079314 -0.7760135 -0.5954557 0.2079314 -0.7760135 -0.5954557 0.2079314 -0.7760135 -0.5954557 0.5680794 -0.5680794 -0.5954592 0.5680794 -0.5680794 -0.5954592 0.5680794 -0.5680794 -0.5954592 0.5680794 -0.5680794 -0.5954592 0.5680794 -0.5680794 -0.5954592 0.5680794 -0.5680794 -0.5954592 0.7760131 -0.2079339 -0.5954555 0.7760131 -0.2079339 -0.5954555 0.7760131 -0.2079339 -0.5954555 0.7760115 -0.2079308 -0.5954586 0.7760115 -0.2079308 -0.5954586 0.7760115 -0.2079308 -0.5954586 0.7760106 0.2079332 -0.595459 0.7760106 0.2079332 -0.595459 0.7760106 0.2079332 -0.595459 0.7760135 0.2079314 -0.5954557 0.7760135 0.2079314 -0.5954557 0.7760135 0.2079314 -0.5954557 0.5680794 0.5680794 -0.5954592 0.5680794 0.5680794 -0.5954592 0.5680794 0.5680794 -0.5954592 0.5680794 0.5680794 -0.5954592 0.5680794 0.5680794 -0.5954592 0.5680794 0.5680794 -0.5954592 0.2079339 0.7760131 -0.5954555 0.2079339 0.7760131 -0.5954555 0.2079339 0.7760131 -0.5954555 0.2079308 0.7760115 -0.5954586 0.2079308 0.7760115 -0.5954586 0.2079308 0.7760115 -0.5954586 -0.2079332 0.7760106 -0.595459 -0.2079332 0.7760106 -0.595459 -0.2079332 0.7760106 -0.595459 -0.2079314 0.7760135 -0.5954557 -0.2079314 0.7760135 -0.5954557 -0.2079314 0.7760135 -0.5954557 -0.5680794 0.5680794 -0.5954592 -0.5680794 0.5680794 -0.5954592 -0.5680794 0.5680794 -0.5954592 -0.5680794 0.5680794 -0.5954592 -0.5680794 0.5680794 -0.5954592 -0.5680794 0.5680794 -0.5954592 -0.7760131 0.2079339 -0.5954555 -0.7760131 0.2079339 -0.5954555 -0.7760131 0.2079339 -0.5954555 -0.7760115 0.2079308 -0.5954586 -0.7760115 0.2079308 -0.5954586 -0.7760115 0.2079308 -0.5954586 -0.8968095 -0.2402984 -0.3714692 -0.8968095 -0.2402984 -0.3714692 -0.8968095 -0.2402984 -0.3714692 -0.896808 -0.2402999 -0.3714722 -0.896808 -0.2402999 -0.3714722 -0.896808 -0.2402999 -0.3714722 -0.6565099 -0.6565099 -0.3714692 -0.6565099 -0.6565099 -0.3714692 -0.6565099 -0.6565099 -0.3714692 -0.6565099 -0.6565099 -0.3714692 -0.6565099 -0.6565099 -0.3714692 -0.6565099 -0.6565099 -0.3714692 -0.2402981 -0.8968083 -0.3714724 -0.2402981 -0.8968083 -0.3714724 -0.2402981 -0.8968083 -0.3714724 -0.2403001 -0.896809 -0.3714693 -0.2403001 -0.896809 -0.3714693 -0.2403001 -0.896809 -0.3714693 0.2402984 -0.8968095 -0.3714692 0.2402984 -0.8968095 -0.3714692 0.2402984 -0.8968095 -0.3714692 0.2402999 -0.896808 -0.3714722 0.2402999 -0.896808 -0.3714722 0.2402999 -0.896808 -0.3714722 0.6565099 -0.6565099 -0.3714692 0.6565099 -0.6565099 -0.3714692 0.6565099 -0.6565099 -0.3714692 0.6565099 -0.6565099 -0.3714692 0.6565099 -0.6565099 -0.3714692 0.6565099 -0.6565099 -0.3714692 0.8968083 -0.2402981 -0.3714724 0.8968083 -0.2402981 -0.3714724 0.8968083 -0.2402981 -0.3714724 0.896809 -0.2403001 -0.3714693 0.896809 -0.2403001 -0.3714693 0.896809 -0.2403001 -0.3714693 0.8968095 0.2402984 -0.3714692 0.8968095 0.2402984 -0.3714692 0.8968095 0.2402984 -0.3714692 0.896808 0.2402999 -0.3714722 0.896808 0.2402999 -0.3714722 0.896808 0.2402999 -0.3714722 0.6565099 0.6565099 -0.3714692 0.6565099 0.6565099 -0.3714692 0.6565099 0.6565099 -0.3714692 0.6565099 0.6565099 -0.3714692 0.6565099 0.6565099 -0.3714692 0.6565099 0.6565099 -0.3714692 0.2402981 0.8968083 -0.3714724 0.2402981 0.8968083 -0.3714724 0.2402981 0.8968083 -0.3714724 0.2403001 0.896809 -0.3714693 0.2403001 0.896809 -0.3714693 0.2403001 0.896809 -0.3714693 -0.2402984 0.8968095 -0.3714692 -0.2402984 0.8968095 -0.3714692 -0.2402984 0.8968095 -0.3714692 -0.2402999 0.896808 -0.3714722 -0.2402999 0.896808 -0.3714722 -0.2402999 0.896808 -0.3714722 -0.6565099 0.6565099 -0.3714692 -0.6565099 0.6565099 -0.3714692 -0.6565099 0.6565099 -0.3714692 -0.6565099 0.6565099 -0.3714692 -0.6565099 0.6565099 -0.3714692 -0.6565099 0.6565099 -0.3714692 -0.8968083 0.2402981 -0.3714724 -0.8968083 0.2402981 -0.3714724 -0.8968083 0.2402981 -0.3714724 -0.896809 0.2403001 -0.3714693 -0.896809 0.2403001 -0.3714693 -0.896809 0.2403001 -0.3714693 -0.958209 -0.2567523 -0.1261502 -0.958209 -0.2567523 -0.1261502 -0.958209 -0.2567523 -0.1261502 -0.958209 -0.2567521 -0.1261498 -0.958209 -0.2567521 -0.1261498 -0.958209 -0.2567521 -0.1261498 -0.7014578 -0.7014578 -0.1261501 -0.7014578 -0.7014578 -0.1261501 -0.7014578 -0.7014578 -0.1261501 -0.7014578 -0.7014578 -0.1261501 -0.7014578 -0.7014578 -0.1261501 -0.7014578 -0.7014578 -0.1261501 -0.2567523 -0.958209 -0.1261499 -0.2567523 -0.958209 -0.1261499 -0.2567523 -0.958209 -0.1261499 -0.2567521 -0.958209 -0.1261502 -0.2567521 -0.958209 -0.1261502 -0.2567521 -0.958209 -0.1261502 0.2567523 -0.958209 -0.1261502 0.2567523 -0.958209 -0.1261502 0.2567523 -0.958209 -0.1261502 0.2567521 -0.958209 -0.1261498 0.2567521 -0.958209 -0.1261498 0.2567521 -0.958209 -0.1261498 0.7014578 -0.7014578 -0.1261501 0.7014578 -0.7014578 -0.1261501 0.7014578 -0.7014578 -0.1261501 0.7014578 -0.7014578 -0.1261501 0.7014578 -0.7014578 -0.1261501 0.7014578 -0.7014578 -0.1261501 0.958209 -0.2567523 -0.1261499 0.958209 -0.2567523 -0.1261499 0.958209 -0.2567523 -0.1261499 0.958209 -0.2567521 -0.1261502 0.958209 -0.2567521 -0.1261502 0.958209 -0.2567521 -0.1261502 0.958209 0.2567523 -0.1261502 0.958209 0.2567523 -0.1261502 0.958209 0.2567523 -0.1261502 0.958209 0.2567521 -0.1261498 0.958209 0.2567521 -0.1261498 0.958209 0.2567521 -0.1261498 0.7014578 0.7014578 -0.1261501 0.7014578 0.7014578 -0.1261501 0.7014578 0.7014578 -0.1261501 0.7014578 0.7014578 -0.1261501 0.7014578 0.7014578 -0.1261501 0.7014578 0.7014578 -0.1261501 0.2567523 0.958209 -0.1261499 0.2567523 0.958209 -0.1261499 0.2567523 0.958209 -0.1261499 0.2567521 0.958209 -0.1261502 0.2567521 0.958209 -0.1261502 0.2567521 0.958209 -0.1261502 -0.2567523 0.958209 -0.1261502 -0.2567523 0.958209 -0.1261502 -0.2567523 0.958209 -0.1261502 -0.2567521 0.958209 -0.1261498 -0.2567521 0.958209 -0.1261498 -0.2567521 0.958209 -0.1261498 -0.7014578 0.7014578 -0.1261501 -0.7014578 0.7014578 -0.1261501 -0.7014578 0.7014578 -0.1261501 -0.7014578 0.7014578 -0.1261501 -0.7014578 0.7014578 -0.1261501 -0.7014578 0.7014578 -0.1261501 -0.958209 0.2567523 -0.1261499 -0.958209 0.2567523 -0.1261499 -0.958209 0.2567523 -0.1261499 -0.958209 0.2567521 -0.1261502 -0.958209 0.2567521 -0.1261502 -0.958209 0.2567521 -0.1261502 -0.958209 -0.2567521 0.1261502 -0.958209 -0.2567521 0.1261502 -0.958209 -0.2567521 0.1261502 -0.958209 -0.2567523 0.1261498 -0.958209 -0.2567523 0.1261498 -0.958209 -0.2567523 0.1261498 -0.7014578 -0.7014578 0.1261501 -0.7014578 -0.7014578 0.1261501 -0.7014578 -0.7014578 0.1261501 -0.7014578 -0.7014578 0.1261501 -0.7014578 -0.7014578 0.1261501 -0.7014578 -0.7014578 0.1261501 -0.2567521 -0.958209 0.1261499 -0.2567521 -0.958209 0.1261499 -0.2567521 -0.958209 0.1261499 -0.2567523 -0.958209 0.1261503 -0.2567523 -0.958209 0.1261503 -0.2567523 -0.958209 0.1261503</float_array>
                    <technique_common>
                        <accessor count="840" source="#geometry0-normal-array" stride="3">
                            <param name="X" type="float"/>
                            <param name="Y" type="float"/>
                            <param name="Z" type="float"/>
                        </accessor>
                    </technique_common>
                </source>
                <vertices id="geometry0-vertex">
                    <input semantic="POSITION" source="#geometry0-position"/>
                </vertices>
                <triangles count="288" material="default_ai_0.2_sh_0.2_tr_0.0_dc_r_0.8_g_0.8_b_0.8_sc_r_1.0_g_1.0_b_1.0_ec_r_0.0_g_0.0_b_0_tri">
                    <input offset="0" semantic="VERTEX" source="#geometry0-vertex"/>
                    <input offset="1" semantic="NORMAL" source="#geometry0-normal"/>
                    <p>64 0 65 1 77 2 64 3 77 4 76 5 65 6 66 7 78 8 65 9 78 10 77 11 66 12 67 13 79 14 66 15 79 16 78 17 67 18 68 19 80 20 67 21 80 22 79 23 68 24 69 25 81 26 68 27 81 28 80 29 69 30 70 31 82 32 69 33 82 34 81 35 70 36 71 37 83 38 70 39 83 40 82 41 71 42 72 43 84 44 71 45 84 46 83 47 72 48 62 49 74 50 72 51 74 52 84 53 74 54 73 55 85 56 74 57 85 58 86 59 73 60 75 61 87 62 73 63 87 64 85 65 75 66 76 67 88 68 75 69 88 70 87 71 76 72 77 73 89 74 76 75 89 76 88 77 77 78 78 79 90 80 77 81 90 82 89 83 78 84 79 85 91 86 78 87 91 88 90 89 79 90 80 91 92 92 79 93 92 94 91 95 80 96 81 97 93 98 80 99 93 100 92 101 81 102 82 103 94 104 81 105 94 106 93 107 82 108 83 109 95 110 82 111 95 112 94 113 83 114 84 115 96 116 83 117 96 118 95 119 84 120 74 121 86 122 84 123 86 124 96 125 86 126 85 127 97 128 86 129 97 130 98 131 85 132 87 133 99 134 85 135 99 136 97 137 87 138 88 139 100 140 87 141 100 142 99 143 88 144 89 145 101 146 88 147 101 148 100 149 89 150 90 151 102 152 89 153 102 154 101 155 90 156 91 157 103 158 90 159 103 160 102 161 91 162 92 163 104 164 91 165 104 166 103 167 92 168 93 169 105 170 92 171 105 172 104 173 93 174 94 175 106 176 93 177 106 178 105 179 94 180 95 181 107 182 94 183 107 184 106 185 95 186 96 187 108 188 95 189 108 190 107 191 96 192 86 193 98 194 96 195 98 196 108 197 98 198 97 199 109 200 98 201 109 202 110 203 97 204 99 205 111 206 97 207 111 208 109 209 99 210 100 211 112 212 99 213 112 214 111 215 100 216 101 217 113 218 100 219 113 220 112 221 101 222 102 223 114 224 101 225 114 226 113 227 102 228 103 229 115 230 102 231 115 232 114 233 103 234 104 235 116 236 103 237 116 238 115 239 104 240 105 241 117 242 104 243 117 244 116 245 105 246 106 247 118 248 105 249 118 250 117 251 106 252 107 253 119 254 106 255 119 256 118 257 107 258 108 259 120 260 107 261 120 262 119 263 108 264 98 265 110 266 108 267 110 268 120 269 110 270 109 271 121 272 110 273 121 274 122 275 109 276 111 277 123 278 109 279 123 280 121 281 111 282 112 283 124 284 111 285 124 286 123 287 112 288 113 289 125 290 112 291 125 292 124 293 113 294 114 295 126 296 113 297 126 298 125 299 114 300 115 301 127 302 114 303 127 304 126 305 115 306 116 307 128 308 115 309 128 310 127 311 116 312 117 313 129 314 116 315 129 316 128 317 117 318 118 319 130 320 117 321 130 322 129 323 118 324 119 325 131 326 118 327 131 328 130 329 119 330 120 331 132 332 119 333 132 334 131 335 120 336 110 337 122 338 120 339 122 340 132 341 122 342 121 343 133 344 122 345 133 346 133 346 121 347 123 348 133 349 121 350 133 351 133 351 123 352 124 353 133 354 123 355 133 356 133 356 124 357 125 358 133 359 124 360 133 361 133 361 125 362 126 363 133 364 125 365 133 366 133 366 126 367 127 368 133 369 126 370 133 371 133 371 127 372 128 373 133 374 127 375 133 376 133 376 128 377 129 378 133 379 128 380 133 381 133 381 129 382 130 383 133 384 129 385 133 386 133 386 130 387 131 388 133 389 130 390 133 391 133 391 131 392 132 393 133 394 131 395 133 396 133 396 132 397 122 398 133 399 132 400 133 401 133 401 0 402 0 402 1 403 0 404 1 405 2 406 0 407 0 407 3 408 0 409 3 410 1 411 0 412 0 412 4 413 0 414 4 415 3 416 0 417 0 417 5 418 0 419 5 420 4 421 0 422 0 422 6 423 0 424 6 425 5 426 0 427 0 427 7 428 0 429 7 430 6 431 0 432 0 432 8 433 0 434 8 435 7 436 0 437 0 437 9 438 0 439 9 440 8 441 0 442 0 442 10 443 0 444 10 445 9 446 0 447 0 447 11 448 0 449 11 450 10 451 0 452 0 452 12 453 0 454 12 455 11 456 0 457 0 457 2 458 0 459 2 460 12 461 2 462 1 463 13 464 2 465 13 466 14 467 1 468 3 469 15 470 1 471 15 472 13 473 3 474 4 475 16 476 3 477 16 478 15 479 4 480 5 481 17 482 4 483 17 484 16 485 5 486 6 487 18 488 5 489 18 490 17 491 6 492 7 493 19 494 6 495 19 496 18 497 7 498 8 499 20 500 7 501 20 502 19 503 8 504 9 505 21 506 8 507 21 508 20 509 9 510 10 511 22 512 9 513 22 514 21 515 10 516 11 517 23 518 10 519 23 520 22 521 11 522 12 523 24 524 11 525 24 526 23 527 12 528 2 529 14 530 12 531 14 532 24 533 14 534 13 535 25 536 14 537 25 538 26 539 13 540 15 541 27 542 13 543 27 544 25 545 15 546 16 547 28 548 15 549 28 550 27 551 16 552 17 553 29 554 16 555 29 556 28 557 17 558 18 559 30 560 17 561 30 562 29 563 18 564 19 565 31 566 18 567 31 568 30 569 19 570 20 571 32 572 19 573 32 574 31 575 20 576 21 577 33 578 20 579 33 580 32 581 21 582 22 583 34 584 21 585 34 586 33 587 22 588 23 589 35 590 22 591 35 592 34 593 23 594 24 595 36 596 23 597 36 598 35 599 24 600 14 601 26 602 24 603 26 604 36 605 26 606 25 607 37 608 26 609 37 610 38 611 25 612 27 613 39 614 25 615 39 616 37 617 27 618 28 619 40 620 27 621 40 622 39 623 28 624 29 625 41 626 28 627 41 628 40 629 29 630 30 631 42 632 29 633 42 634 41 635 30 636 31 637 43 638 30 639 43 640 42 641 31 642 32 643 44 644 31 645 44 646 43 647 32 648 33 649 45 650 32 651 45 652 44 653 33 654 34 655 46 656 33 657 46 658 45 659 34 660 35 661 47 662 34 663 47 664 46 665 35 666 36 667 48 668 35 669 48 670 47 671 36 672 26 673 38 674 36 675 38 676 48 677 38 678 37 679 49 680 38 681 49 682 50 683 37 684 39 685 51 686 37 687 51 688 49 689 39 690 40 691 52 692 39 693 52 694 51 695 40 696 41 697 53 698 40 699 53 700 52 701 41 702 42 703 54 704 41 705 54 706 53 707 42 708 43 709 55 710 42 711 55 712 54 713 43 714 44 715 56 716 43 717 56 718 55 719 44 720 45 721 57 722 44 723 57 724 56 725 45 726 46 727 58 728 45 729 58 730 57 731 46 732 47 733 59 734 46 735 59 736 58 737 47 738 48 739 60 740 47 741 60 742 59 743 48 744 38 745 50 746 48 747 50 748 60 749 50 750 49 751 61 752 50 753 61 754 62 755 49 756 51 757 63 758 49 759 63 760 61 761 51 762 52 763 64 764 51 765 64 766 63 767 52 768 53 769 65 770 52 771 65 772 64 773 53 774 54 775 66 776 53 777 66 778 65 779 54 780 55 781 67 782 54 783 67 784 66 785 55 786 56 787 68 788 55 789 68 790 67 791 56 792 57 793 69 794 56 795 69 796 68 797 57 798 58 799 70 800 57 801 70 802 69 803 58 804 59 805 71 806 58 807 71 808 70 809 59 810 60 811 72 812 59 813 72 814 71 815 60 816 50 817 62 818 60 819 62 820 72 821 62 822 61 823 73 824 62 825 73 826 74 827 61 828 63 829 75 830 61 831 75 832 73 833 63 834 64 835 76 836 63 837 76 838 75 839</p>
                </triangles>
            </mesh>
        </geometry>
    </library_geometries>
    <library_visual_scenes>
        <visual_scene id="Building_199_CROWN1">
            <node>
                <instance_geometry url="#geometry0">
                    <bind_material>
                        <technique_common>
                            <instance_material symbol="default_ai_0.2_sh_0.2_tr_0.0_dc_r_0.8_g_0.8_b_0.8_sc_r_1.0_g_1.0_b_1.0_ec_r_0.0_g_0.0_b_0_tri" target="#default_ai_0.2_sh_0.2_tr_0.0_dc_r_0.8_g_0.8_b_0.8_sc_r_1.0_g_1.0_b_1.0_ec_r_0.0_g_0.0_b_0_mat"/>
                        </technique_common>
                    </bind_material>
                </instance_geometry>
            </node>
        </visual_scene>
    </library_visual_scenes>
    <scene>
        <instance_visual_scene url="#Building_199_CROWN1"/>
    </scene>
</COLLADA>
