<?xml version="1.0" encoding="UTF-8" standalone="yes"?>
<COLLADA xmlns="http://www.collada.org/2005/11/COLLADASchema" version="1.4.1">
    <asset>
        <contributor>
            <authoring_tool>3D City Database Importer/Exporter, version 5.5.3; Chair of Geoinformatics, Technical University of Munich</authoring_tool>
        </contributor>
        <created>2026-09-25T14:45:07.396</created>
        <modified>2026-09-25T14:45:07.396</modified>
        <unit meter="1.0" name="meters"/>
        <up_axis>Z_UP</up_axis>
    </asset>
    <library_materials>
        <material id="default_ai_0.2_sh_0.2_tr_0.0_dc_r_0.8_g_0.8_b_0.8_sc_r_1.0_g_1.0_b_1.0_ec_r_0.0_g_0.0_b_0_mat">
            <instance_effect url="#default_ai_0.2_sh_0.2_tr_0.0_dc_r_0.8_g_0.8_b_0.8_sc_r_1.0_g_1.0_b_1.0_ec_r_0.0_g_0.0_b_0_eff"/>
        </material>
    </library_materials>
    <library_effects>
        <effect id="default_ai_0.2_sh_0.2_tr_0.0_dc_r_0.8_g_0.8_b_0.8_sc_r_1.0_g_1.0_b_1.0_ec_r_0.0_g_0.0_b_0_eff">
            <profile_COMMON>
                <technique sid="COMMON">
                    <lambert>
                        <emission>
                            <color>0.0 0.0 0.0 1.0</color>
                        </emission>
                        <diffuse>
                            <color>0.8 0.8 0.8 1.0</color>
                        </diffuse>
                        <reflective>
                            <color>1.0 1.0 1.0 1.0</color>
                        </reflective>
                        <reflectivity>
                            <float>0.2</float>
                        </reflectivity>
                        <transparent opaque="A_ONE">
                            <color>1.0 1.0 1.0 1.0</color>
                        </transparent>
                        <transparency>
                            <float>1.0</float>
                        </transparency>
                    </lambert>
                </technique>
                <extra>
                    <technique profile="GOOGLEEARTH">
                        <double_sided>0</double_sided>
                    </technique>
                </extra>
            </profile_COMMON>
        </effect>
    </library_effects>
    <library_geometries>
        <geometry id="geometry0">
            <mesh>
                <source id="geometry0-position">
                    <float_array id="geometry0-position-array" count="402">0.0 0.0 2.1 0.2353512 0.1358805 2.0642223 0.2717599 0.0 2.0642223 0.1358805 0.2353512 2.0642223 0.0 0.2717599 2.0642223 -0.1358805 0.2353512 2.0642223 -0.2353512 0.1358805 2.0642223 -0.2717599 0.0 2.0642223 -0.2353512 -0.1358805 2.0642223 -0.1358805 -0.2353512 2.0642223 0.0 -0.2717599 2.0642223 0.1358805 -0.2353512 2.0642223 0.2353512 -0.1358805 2.0642223 0.4546637 0.2625 1.9593263 0.525 0.0 1.9593263 0.2625 0.4546637 1.9593263 0.0 0.525 1.9593263 -0.2625 0.4546637 1.9593263 -0.4546637 0.2625 1.9593263 -0.525 0.0 1.9593263 -0.4546637 -0.2625 1.9593263 -0.2625 -0.4546637 1.9593263 0.0 -0.525 1.9593263 0.2625 -0.4546637 1.9593263 0.4546637 -0.2625 1.9593263 0.6429906 0.3712306 1.7924613 0.7424623 0.0 1.7924613 0.3712306 0.6429906 1.7924613 0.0 0.7424624 1.7924613 -0.3712306 0.6429906 1.7924613 -0.6429906 0.3712306 1.7924613 -0.7424623 0.0 1.7924613 -0.6429906 -0.3712306 1.7924613 -0.3712306 -0.6429906 1.7924613 0.0 -0.7424624 1.7924613 0.3712306 -0.6429906 1.7924613 0.6429906 -0.3712306 1.7924613 0.7875 0.4546637 1.575 0.9093263 0.0 1.575 0.4546637 0.7875 1.575 0.0 0.9093262 1.575 -0.4546637 0.7875 1.575 -0.7875 0.4546637 1.575 -0.9093263 0.0 1.575 -0.7875 -0.4546637 1.575 -0.4546637 -0.7875 1.575 0.0 -0.9093262 1.575 0.4546637 -0.7875 1.575 0.7875 -0.4546637 1.575 0.8783418 0.5071111 1.3217599 1.0142223 0.0 1.3217599 0.5071112 0.8783418 1.3217599 0.0 1.0142223 1.3217599 -0.5071112 0.8783418 1.3217599 -0.8783418 0.5071111 1.3217599 -1.0142223 0.0 1.3217599 -0.8783418 -0.5071111 1.3217599 -0.5071112 -0.8783418 1.3217599 0.0 -1.0142223 1.3217599 0.5071112 -0.8783418 1.3217599 0.8783418 -0.5071111 1.3217599 0.9093263 0.525 1.05 1.05 0.0 1.05 0.525 0.9093262 1.05 0.0 1.05 1.05 -0.525 0.9093262 1.05 -0.9093263 0.525 1.05 -1.05 0.0 1.05 -0.9093263 -0.525 1.05 -0.525 -0.9093262 1.05 0.0 -1.05 1.05 0.525 -0.9093262 1.05 0.9093263 -0.525 1.05 0.8783418 0.5071111 0.7782401 1.0142223 0.0 0.7782401 0.5071112 0.8783418 0.7782401 0.0 1.0142223 0.7782401 -0.5071112 0.8783418 0.7782401 -0.8783418 0.5071111 0.7782401 -1.0142223 0.0 0.7782401 -0.8783418 -0.5071111 0.7782401 -0.5071112 -0.8783418 0.7782401 0.0 -1.0142223 0.7782401 0.5071112 -0.8783418 0.7782401 0.8783418 -0.5071111 0.7782401 0.7875 0.4546637 0.525 0.9093263 0.0 0.525 0.4546637 0.7875 0.525 0.0 0.9093262 0.525 -0.4546637 0.7875 0.525 -0.7875 0.4546637 0.525 -0.9093263 0.0 0.525 -0.7875 -0.4546637 0.525 -0.4546637 -0.7875 0.525 0.0 -0.9093262 0.525 0.4546637 -0.7875 0.525 0.7875 -0.4546637 0.525 0.6429906 0.3712306 0.3075377 0.7424623 0.0 0.3075377 0.3712306 0.6429906 0.3075377 0.0 0.7424624 0.3075377 -0.3712306 0.6429906 0.3075377 -0.6429906 0.3712306 0.3075377 -0.7424623 0.0 0.3075377 -0.6429906 -0.3712306 0.3075377 -0.3712306 -0.6429906 0.3075377 0.0 -0.7424624 0.3075377 0.3712306 -0.6429906 0.3075377 0.6429906 -0.3712306 0.3075377 0.4546637 0.2625 0.1406727 0.525 0.0 0.1406727 0.2625 0.4546637 0.1406727 0.0 0.525 0.1406727 -0.2625 0.4546637 0.1406727 -0.4546637 0.2625 0.1406727 -0.525 0.0 0.1406727 -0.4546637 -0.2625 0.1406727 -0.2625 -0.4546637 0.1406727 0.0 -0.525 0.1406727 0.2625 -0.4546637 0.1406727 0.4546637 -0.2625 0.1406727 0.2353512 0.1358805 0.0357777 0.2717599 0.0 0.0357777 0.1358805 0.2353512 0.0357777 0.0 0.2717599 0.0357777 -0.1358805 0.2353512 0.0357777 -0.2353512 0.1358805 0.0357777 -0.2717599 0.0 0.0357777 -0.2353512 -0.1358805 0.0357777 -0.1358805 -0.2353512 0.0357777 0.0 -0.2717599 0.0357777 0.1358805 -0.2353512 0.0357777 0.2353512 -0.1358805 0.0357777 0.0 0.0 0.0</float_array>
                    <technique_common>
                        <accessor count="134" source="#geometry0-position-array" stride="3">
                            <param name="X" type="float"/>
                            <param name="Y" type="float"/>
                            <param name="Z" type="float"/>
                        </accessor>
                    </technique_common>
                </source>
                <source id="geometry0-normal">
                    <float_array id="geometry0-normal-array" count="2520">-0.3806893 0.1020045 -0.9190598 -0.3806893 0.1020045 -0.9190598 -0.3806893 0.1020045 -0.9190598 -0.3806894 0.1020049 -0.9190597 -0.3806894 0.1020049 -0.9190597 -0.3806894 0.1020049 -0.9190597 -0.6008236 -0.1609894 -0.7830028 -0.6008236 -0.1609894 -0.7830028 -0.6008236 -0.1609894 -0.7830028 -0.6008213 -0.1609908 -0.7830043 -0.6008213 -0.1609908 -0.7830043 -0.6008213 -0.1609908 -0.7830043 -0.4398331 -0.4398331 -0.7830029 -0.4398331 -0.4398331 -0.7830029 -0.4398331 -0.4398331 -0.7830029 -0.4398331 -0.4398331 -0.783003 -0.4398331 -0.4398331 -0.783003 -0.4398331 -0.4398331 -0.783003 -0.1609888 -0.6008214 -0.7830046 -0.1609888 -0.6008214 -0.7830046 -0.1609888 -0.6008214 -0.7830046 -0.1609913 -0.6008228 -0.7830032 -0.1609913 -0.6008228 -0.7830032 -0.1609913 -0.6008228 -0.7830032 0.1609894 -0.6008236 -0.7830028 0.1609894 -0.6008236 -0.7830028 0.1609894 -0.6008236 -0.7830028 0.1609908 -0.6008213 -0.7830043 0.1609908 -0.6008213 -0.7830043 0.1609908 -0.6008213 -0.7830043 0.4398331 -0.4398331 -0.7830029 0.4398331 -0.4398331 -0.7830029 0.4398331 -0.4398331 -0.7830029 0.4398331 -0.4398331 -0.783003 0.4398331 -0.4398331 -0.783003 0.4398331 -0.4398331 -0.783003 0.6008214 -0.1609888 -0.7830046 0.6008214 -0.1609888 -0.7830046 0.6008214 -0.1609888 -0.7830046 0.6008228 -0.1609913 -0.7830032 0.6008228 -0.1609913 -0.7830032 0.6008228 -0.1609913 -0.7830032 0.6008236 0.1609894 -0.7830028 0.6008236 0.1609894 -0.7830028 0.6008236 0.1609894 -0.7830028 0.6008213 0.1609908 -0.7830043 0.6008213 0.1609908 -0.7830043 0.6008213 0.1609908 -0.7830043 0.4398331 0.4398331 -0.7830029 0.4398331 0.4398331 -0.7830029 0.4398331 0.4398331 -0.7830029 0.4398331 0.4398331 -0.783003 0.4398331 0.4398331 -0.783003 0.4398331 0.4398331 -0.783003 0.1609888 0.6008214 -0.7830046 0.1609888 0.6008214 -0.7830046 0.1609888 0.6008214 -0.7830046 0.1609913 0.6008228 -0.7830032 0.1609913 0.6008228 -0.7830032 0.1609913 0.6008228 -0.7830032 -0.1609894 0.6008236 -0.7830028 -0.1609894 0.6008236 -0.7830028 -0.1609894 0.6008236 -0.7830028 -0.1609908 0.6008213 -0.7830043 -0.1609908 0.6008213 -0.7830043 -0.1609908 0.6008213 -0.7830043 -0.4398331 0.4398331 -0.7830029 -0.4398331 0.4398331 -0.7830029 -0.4398331 0.4398331 -0.7830029 -0.4398331 0.4398331 -0.783003 -0.4398331 0.4398331 -0.783003 -0.4398331 0.4398331 -0.783003 -0.6008214 0.1609888 -0.7830046 -0.6008214 0.1609888 -0.7830046 -0.6008214 0.1609888 -0.7830046 -0.6008228 0.1609913 -0.7830032 -0.6008228 0.1609913 -0.7830032 -0.6008228 0.1609913 -0.7830032 -0.7760104 -0.207933 -0.5954592 -0.7760104 -0.207933 -0.5954592 -0.7760104 -0.207933 -0.5954592 -0.7760133 -0.2079312 -0.5954561 -0.7760133 -0.2079312 -0.5954561 -0.7760133 -0.2079312 -0.5954561 -0.5680792 -0.5680792 -0.5954595 -0.5680792 -0.5680792 -0.5954595 -0.5680792 -0.5680792 -0.5954595 -0.5680792 -0.5680792 -0.5954596 -0.5680792 -0.5680792 -0.5954596 -0.5680792 -0.5680792 -0.5954596 -0.2079337 -0.7760128 -0.5954558 -0.2079337 -0.7760128 -0.5954558 -0.2079337 -0.7760128 -0.5954558 -0.2079307 -0.7760112 -0.5954589 -0.2079307 -0.7760112 -0.5954589 -0.2079307 -0.7760112 -0.5954589 0.207933 -0.7760104 -0.5954592 0.207933 -0.7760104 -0.5954592 0.207933 -0.7760104 -0.5954592 0.2079312 -0.7760133 -0.5954561 0.2079312 -0.7760133 -0.5954561 0.2079312 -0.7760133 -0.5954561 0.5680792 -0.5680792 -0.5954595 0.5680792 -0.5680792 -0.5954595 0.5680792 -0.5680792 -0.5954595 0.5680792 -0.5680792 -0.5954596 0.5680792 -0.5680792 -0.5954596 0.5680792 -0.5680792 -0.5954596 0.7760128 -0.2079337 -0.5954558 0.7760128 -0.2079337 -0.5954558 0.7760128 -0.2079337 -0.5954558 0.7760112 -0.2079307 -0.5954589 0.7760112 -0.2079307 -0.5954589 0.7760112 -0.2079307 -0.5954589 0.7760104 0.207933 -0.5954592 0.7760104 0.207933 -0.5954592 0.7760104 0.207933 -0.5954592 0.7760133 0.2079312 -0.5954561 0.7760133 0.2079312 -0.5954561 0.7760133 0.2079312 -0.5954561 0.5680792 0.5680792 -0.5954595 0.5680792 0.5680792 -0.5954595 0.5680792 0.5680792 -0.5954595 0.5680792 0.5680792 -0.5954596 0.5680792 0.5680792 -0.5954596 0.5680792 0.5680792 -0.5954596 0.2079337 0.7760128 -0.5954558 0.2079337 0.7760128 -0.5954558 0.2079337 0.7760128 -0.5954558 0.2079307 0.7760112 -0.5954589 0.2079307 0.7760112 -0.5954589 0.2079307 0.7760112 -0.5954589 -0.207933 0.7760104 -0.5954592 -0.207933 0.7760104 -0.5954592 -0.207933 0.7760104 -0.5954592 -0.2079312 0.7760133 -0.5954561 -0.2079312 0.7760133 -0.5954561 -0.2079312 0.7760133 -0.5954561 -0.5680792 0.5680792 -0.5954595 -0.5680792 0.5680792 -0.5954595 -0.5680792 0.5680792 -0.5954595 -0.5680792 0.5680792 -0.5954596 -0.5680792 0.5680792 -0.5954596 -0.5680792 0.5680792 -0.5954596 -0.7760128 0.2079337 -0.5954558 -0.7760128 0.2079337 -0.5954558 -0.7760128 0.2079337 -0.5954558 -0.7760112 0.2079307 -0.5954589 -0.7760112 0.2079307 -0.5954589 -0.7760112 0.2079307 -0.5954589 -0.8968096 -0.2402984 -0.3714689 -0.8968096 -0.2402984 -0.3714689 -0.8968096 -0.2402984 -0.3714689 -0.896808 -0.2402998 -0.3714719 -0.896808 -0.2402998 -0.3714719 -0.896808 -0.2402998 -0.3714719 -0.6565101 -0.6565101 -0.3714689 -0.6565101 -0.6565101 -0.3714689 -0.6565101 -0.6565101 -0.3714689 -0.6565101 -0.6565101 -0.3714689 -0.6565101 -0.6565101 -0.3714689 -0.6565101 -0.6565101 -0.3714689 -0.240298 -0.8968084 -0.3714721 -0.240298 -0.8968084 -0.3714721 -0.240298 -0.8968084 -0.3714721 -0.2403001 -0.8968091 -0.3714691 -0.2403001 -0.8968091 -0.3714691 -0.2403001 -0.8968091 -0.3714691 0.2402984 -0.8968096 -0.3714689 0.2402984 -0.8968096 -0.3714689 0.2402984 -0.8968096 -0.3714689 0.2402998 -0.896808 -0.3714719 0.2402998 -0.896808 -0.3714719 0.2402998 -0.896808 -0.3714719 0.6565101 -0.6565101 -0.3714689 0.6565101 -0.6565101 -0.3714689 0.6565101 -0.6565101 -0.3714689 0.6565101 -0.6565101 -0.3714689 0.6565101 -0.6565101 -0.3714689 0.6565101 -0.6565101 -0.3714689 0.8968084 -0.240298 -0.3714721 0.8968084 -0.240298 -0.3714721 0.8968084 -0.240298 -0.3714721 0.8968091 -0.2403001 -0.3714691 0.8968091 -0.2403001 -0.3714691 0.8968091 -0.2403001 -0.3714691 0.8968096 0.2402984 -0.3714689 0.8968096 0.2402984 -0.3714689 0.8968096 0.2402984 -0.3714689 0.896808 0.2402998 -0.3714719 0.896808 0.2402998 -0.3714719 0.896808 0.2402998 -0.3714719 0.6565101 0.6565101 -0.3714689 0.6565101 0.6565101 -0.3714689 0.6565101 0.6565101 -0.3714689 0.6565101 0.6565101 -0.3714689 0.6565101 0.6565101 -0.3714689 0.6565101 0.6565101 -0.3714689 0.240298 0.8968084 -0.3714721 0.240298 0.8968084 -0.3714721 0.240298 0.8968084 -0.3714721 0.2403001 0.8968091 -0.3714691 0.2403001 0.8968091 -0.3714691 0.2403001 0.8968091 -0.3714691 -0.2402984 0.8968096 -0.3714689 -0.2402984 0.8968096 -0.3714689 -0.2402984 0.8968096 -0.3714689 -0.2402998 0.896808 -0.3714719 -0.2402998 0.896808 -0.3714719 -0.2402998 0.896808 -0.3714719 -0.6565101 0.6565101 -0.3714689 -0.6565101 0.6565101 -0.3714689 -0.6565101 0.6565101 -0.3714689 -0.6565101 0.6565101 -0.3714689 -0.6565101 0.6565101 -0.3714689 -0.6565101 0.6565101 -0.3714689 -0.8968084 0.240298 -0.3714721 -0.8968084 0.240298 -0.3714721 -0.8968084 0.240298 -0.3714721 -0.8968091 0.2403001 -0.3714691 -0.8968091 0.2403001 -0.3714691 -0.8968091 0.2403001 -0.3714691 -0.958209 -0.2567522 -0.1261503 -0.958209 -0.2567522 -0.1261503 -0.958209 -0.2567522 -0.1261503 -0.958209 -0.256752 -0.1261499 -0.958209 -0.256752 -0.1261499 -0.958209 -0.256752 -0.1261499 -0.7014578 -0.7014578 -0.1261501 -0.7014578 -0.7014578 -0.1261501 -0.7014578 -0.7014578 -0.1261501 -0.7014578 -0.7014578 -0.1261502 -0.7014578 -0.7014578 -0.1261502 -0.7014578 -0.7014578 -0.1261502 -0.2567522 -0.958209 -0.1261499 -0.2567522 -0.958209 -0.1261499 -0.2567522 -0.958209 -0.1261499 -0.256752 -0.958209 -0.1261502 -0.256752 -0.958209 -0.1261502 -0.256752 -0.958209 -0.1261502 0.2567522 -0.958209 -0.1261503 0.2567522 -0.958209 -0.1261503 0.2567522 -0.958209 -0.1261503 0.256752 -0.958209 -0.1261499 0.256752 -0.958209 -0.1261499 0.256752 -0.958209 -0.1261499 0.7014578 -0.7014578 -0.1261501 0.7014578 -0.7014578 -0.1261501 0.7014578 -0.7014578 -0.1261501 0.7014578 -0.7014578 -0.1261502 0.7014578 -0.7014578 -0.1261502 0.7014578 -0.7014578 -0.1261502 0.958209 -0.2567522 -0.1261499 0.958209 -0.2567522 -0.1261499 0.958209 -0.2567522 -0.1261499 0.958209 -0.256752 -0.1261502 0.958209 -0.256752 -0.1261502 0.958209 -0.256752 -0.1261502 0.958209 0.2567522 -0.1261503 0.958209 0.2567522 -0.1261503 0.958209 0.2567522 -0.1261503 0.958209 0.256752 -0.1261499 0.958209 0.256752 -0.1261499 0.958209 0.256752 -0.1261499 0.7014578 0.7014578 -0.1261501 0.7014578 0.7014578 -0.1261501 0.7014578 0.7014578 -0.1261501 0.7014578 0.7014578 -0.1261502 0.7014578 0.7014578 -0.1261502 0.7014578 0.7014578 -0.1261502 0.2567522 0.958209 -0.1261499 0.2567522 0.958209 -0.1261499 0.2567522 0.958209 -0.1261499 0.256752 0.958209 -0.1261502 0.256752 0.958209 -0.1261502 0.256752 0.958209 -0.1261502 -0.2567522 0.958209 -0.1261503 -0.2567522 0.958209 -0.1261503 -0.2567522 0.958209 -0.1261503 -0.256752 0.958209 -0.1261499 -0.256752 0.958209 -0.1261499 -0.256752 0.958209 -0.1261499 -0.7014578 0.7014578 -0.1261501 -0.7014578 0.7014578 -0.1261501 -0.7014578 0.7014578 -0.1261501 -0.7014578 0.7014578 -0.1261502 -0.7014578 0.7014578 -0.1261502 -0.7014578 0.7014578 -0.1261502 -0.958209 0.2567522 -0.1261499 -0.958209 0.2567522 -0.1261499 -0.958209 0.2567522 -0.1261499 -0.958209 0.256752 -0.1261502 -0.958209 0.256752 -0.1261502 -0.958209 0.256752 -0.1261502 -0.958209 -0.256752 0.1261503 -0.958209 -0.256752 0.1261503 -0.958209 -0.256752 0.1261503 -0.9582091 -0.2567522 0.1261499 -0.9582091 -0.2567522 0.1261499 -0.9582091 -0.2567522 0.1261499 -0.7014578 -0.7014578 0.1261502 -0.7014578 -0.7014578 0.1261502 -0.7014578 -0.7014578 0.1261502 -0.7014578 -0.7014578 0.1261501 -0.7014578 -0.7014578 0.1261501 -0.7014578 -0.7014578 0.1261501 -0.256752 -0.958209 0.12615 -0.256752 -0.958209 0.12615 -0.256752 -0.958209 0.12615 -0.2567522 -0.958209 0.1261503 -0.2567522 -0.958209 0.1261503 -0.2567522 -0.958209 0.1261503 0.256752 -0.958209 0.1261503 0.256752 -0.958209 0.1261503 0.256752 -0.958209 0.1261503 0.2567522 -0.9582091 0.1261499 0.2567522 -0.9582091 0.1261499 0.2567522 -0.9582091 0.1261499 0.7014578 -0.7014578 0.1261502 0.7014578 -0.7014578 0.1261502 0.7014578 -0.7014578 0.1261502 0.7014578 -0.7014578 0.1261501 0.7014578 -0.7014578 0.1261501 0.7014578 -0.7014578 0.1261501 0.958209 -0.256752 0.12615 0.958209 -0.256752 0.12615 0.958209 -0.256752 0.12615 0.958209 -0.2567522 0.1261503 0.958209 -0.2567522 0.1261503 0.958209 -0.2567522 0.1261503 0.958209 0.256752 0.1261503 0.958209 0.256752 0.1261503 0.958209 0.256752 0.1261503 0.9582091 0.2567522 0.1261499 0.9582091 0.2567522 0.1261499 0.9582091 0.2567522 0.1261499 0.7014578 0.7014578 0.1261502 0.7014578 0.7014578 0.1261502 0.7014578 0.7014578 0.1261502 0.7014578 0.7014578 0.1261501 0.7014578 0.7014578 0.1261501 0.7014578 0.7014578 0.1261501 0.256752 0.958209 0.12615 0.256752 0.958209 0.12615 0.256752 0.958209 0.12615 0.2567522 0.958209 0.1261503 0.2567522 0.958209 0.1261503 0.2567522 0.958209 0.1261503 -0.256752 0.958209 0.1261503 -0.256752 0.958209 0.1261503 -0.256752 0.958209 0.1261503 -0.2567522 0.9582091 0.1261499 -0.2567522 0.9582091 0.1261499 -0.2567522 0.9582091 0.1261499 -0.7014578 0.7014578 0.1261502 -0.7014578 0.7014578 0.1261502 -0.7014578 0.7014578 0.1261502 -0.7014578 0.7014578 0.1261501 -0.7014578 0.7014578 0.1261501 -0.7014578 0.7014578 0.1261501 -0.958209 0.256752 0.12615 -0.958209 0.256752 0.12615 -0.958209 0.256752 0.12615 -0.958209 0.2567522 0.1261503 -0.958209 0.2567522 0.1261503 -0.958209 0.2567522 0.1261503 -0.8968091 -0.2403001 0.3714691 -0.8968091 -0.2403001 0.3714691 -0.8968091 -0.2403001 0.3714691 -0.8968084 -0.240298 0.3714722 -0.8968084 -0.240298 0.3714722 -0.8968084 -0.240298 0.3714722 -0.65651 -0.65651 0.371469 -0.65651 -0.65651 0.371469 -0.65651 -0.65651 0.371469 -0.65651 -0.65651 0.3714689 -0.65651 -0.65651 0.3714689 -0.65651 -0.65651 0.3714689 -0.2402998 -0.896808 0.371472 -0.2402998 -0.896808 0.371472 -0.2402998 -0.896808 0.371472 -0.2402984 -0.8968096 0.371469 -0.2402984 -0.8968096 0.371469 -0.2402984 -0.8968096 0.371469 0.2403001 -0.8968091 0.3714691 0.2403001 -0.8968091 0.3714691 0.2403001 -0.8968091 0.3714691 0.240298 -0.8968084 0.3714722 0.240298 -0.8968084 0.3714722 0.240298 -0.8968084 0.3714722 0.65651 -0.65651 0.371469 0.65651 -0.65651 0.371469 0.65651 -0.65651 0.371469 0.65651 -0.65651 0.3714689 0.65651 -0.65651 0.3714689 0.65651 -0.65651 0.3714689 0.896808 -0.2402998 0.371472 0.896808 -0.2402998 0.371472 0.896808 -0.2402998 0.371472 0.8968096 -0.2402984 0.371469 0.8968096 -0.2402984 0.371469 0.8968096 -0.2402984 0.371469 0.8968091 0.2403001 0.3714691 0.8968091 0.2403001 0.3714691 0.8968091 0.2403001 0.3714691 0.8968084 0.240298 0.3714722 0.8968084 0.240298 0.3714722 0.8968084 0.240298 0.3714722 0.65651 0.65651 0.371469 0.65651 0.65651 0.371469 0.65651 0.65651 0.371469 0.65651 0.65651 0.3714689 0.65651 0.65651 0.3714689 0.65651 0.65651 0.3714689 0.2402998 0.896808 0.371472 0.2402998 0.896808 0.371472 0.2402998 0.896808 0.371472 0.2402984 0.8968096 0.371469 0.2402984 0.8968096 0.371469 0.2402984 0.8968096 0.371469 -0.2403001 0.8968091 0.3714691 -0.2403001 0.8968091 0.3714691 -0.2403001 0.8968091 0.3714691 -0.240298 0.8968084 0.3714722 -0.240298 0.8968084 0.3714722 -0.240298 0.8968084 0.3714722 -0.65651 0.65651 0.371469 -0.65651 0.65651 0.371469 -0.65651 0.65651 0.371469 -0.65651 0.65651 0.3714689 -0.65651 0.65651 0.3714689 -0.65651 0.65651 0.3714689 -0.896808 0.2402998 0.371472 -0.896808 0.2402998 0.371472 -0.896808 0.2402998 0.371472 -0.8968096 0.2402984 0.371469 -0.8968096 0.2402984 0.371469 -0.8968096 0.2402984 0.371469 -0.7760128 -0.2079311 0.595457 -0.7760128 -0.2079311 0.595457 -0.7760128 -0.2079311 0.595457 -0.7760143 -0.2079341 0.5954539 -0.7760143 -0.2079341 0.5954539 -0.7760143 -0.2079341 0.5954539 -0.5680802 -0.5680802 0.5954576 -0.5680802 -0.5680802 0.5954576 -0.5680802 -0.5680802 0.5954576 -0.5680802 -0.5680802 0.5954576 -0.5680802 -0.5680802 0.5954576 -0.5680802 -0.5680802 0.5954576 -0.2079316 -0.7760147 0.5954542 -0.2079316 -0.7760147 0.5954542 -0.2079316 -0.7760147 0.5954542 -0.2079334 -0.7760118 0.5954573 -0.2079334 -0.7760118 0.5954573 -0.2079334 -0.7760118 0.5954573 0.2079311 -0.7760128 0.595457 0.2079311 -0.7760128 0.595457 0.2079311 -0.7760128 0.595457 0.2079341 -0.7760143 0.5954539 0.2079341 -0.7760143 0.5954539 0.2079341 -0.7760143 0.5954539 0.5680802 -0.5680802 0.5954576 0.5680802 -0.5680802 0.5954576 0.5680802 -0.5680802 0.5954576 0.5680802 -0.5680802 0.5954576 0.5680802 -0.5680802 0.5954576 0.5680802 -0.5680802 0.5954576 0.7760147 -0.2079316 0.5954542 0.7760147 -0.2079316 0.5954542 0.7760147 -0.2079316 0.5954542 0.7760118 -0.2079334 0.5954573 0.7760118 -0.2079334 0.5954573 0.7760118 -0.2079334 0.5954573 0.7760128 0.2079311 0.595457 0.7760128 0.2079311 0.595457 0.7760128 0.2079311 0.595457 0.7760143 0.2079341 0.5954539 0.7760143 0.2079341 0.5954539 0.7760143 0.2079341 0.5954539 0.5680802 0.5680802 0.5954576 0.5680802 0.5680802 0.5954576 0.5680802 0.5680802 0.5954576 0.5680802 0.5680802 0.5954576 0.5680802 0.5680802 0.5954576 0.5680802 0.5680802 0.5954576 0.2079316 0.7760147 0.5954542 0.2079316 0.7760147 0.5954542 0.2079316 0.7760147 0.5954542 0.2079334 0.7760118 0.5954573 0.2079334 0.7760118 0.5954573 0.2079334 0.7760118 0.5954573 -0.2079311 0.7760128 0.595457 -0.2079311 0.7760128 0.595457 -0.2079311 0.7760128 0.595457 -0.2079341 0.7760143 0.5954539 -0.2079341 0.7760143 0.5954539 -0.2079341 0.7760143 0.5954539 -0.5680802 0.5680802 0.5954576 -0.5680802 0.5680802 0.5954576 -0.5680802 0.5680802 0.5954576 -0.5680802 0.5680802 0.5954576 -0.5680802 0.5680802 0.5954576 -0.5680802 0.5680802 0.5954576 -0.7760147 0.2079316 0.5954542 -0.7760147 0.2079316 0.5954542 -0.7760147 0.2079316 0.5954542 -0.7760118 0.2079334 0.5954573 -0.7760118 0.2079334 0.5954573 -0.7760118 0.2079334 0.5954573 -0.6008227 -0.1609912 0.7830032 -0.6008227 -0.1609912 0.7830032 -0.6008227 -0.1609912 0.7830032 -0.6008213 -0.1609888 0.7830046 -0.6008213 -0.1609888 0.7830046 -0.6008213 -0.1609888 0.7830046 -0.4398331 -0.4398331 0.783003 -0.4398331 -0.4398331 0.783003 -0.4398331 -0.4398331 0.783003 -0.439833 -0.439833 0.783003 -0.439833 -0.439833 0.783003 -0.439833 -0.439833 0.783003 -0.1609908 -0.6008212 0.7830044 -0.1609908 -0.6008212 0.7830044 -0.1609908 -0.6008212 0.7830044 -0.1609894 -0.6008235 0.7830029 -0.1609894 -0.6008235 0.7830029 -0.1609894 -0.6008235 0.7830029 0.1609912 -0.6008227 0.7830032 0.1609912 -0.6008227 0.7830032 0.1609912 -0.6008227 0.7830032 0.1609888 -0.6008213 0.7830046 0.1609888 -0.6008213 0.7830046 0.1609888 -0.6008213 0.7830046 0.4398331 -0.4398331 0.783003 0.4398331 -0.4398331 0.783003 0.4398331 -0.4398331 0.783003 0.439833 -0.439833 0.783003 0.439833 -0.439833 0.783003 0.439833 -0.439833 0.783003 0.6008212 -0.1609908 0.7830044 0.6008212 -0.1609908 0.7830044 0.6008212 -0.1609908 0.7830044 0.6008235 -0.1609894 0.7830029 0.6008235 -0.1609894 0.7830029 0.6008235 -0.1609894 0.7830029 0.6008227 0.1609912 0.7830032 0.6008227 0.1609912 0.7830032 0.6008227 0.1609912 0.7830032 0.6008213 0.1609888 0.7830046 0.6008213 0.1609888 0.7830046 0.6008213 0.1609888 0.7830046 0.4398331 0.4398331 0.783003 0.4398331 0.4398331 0.783003 0.4398331 0.4398331 0.783003 0.439833 0.439833 0.783003 0.439833 0.439833 0.783003 0.439833 0.439833 0.783003 0.1609908 0.6008212 0.7830044 0.1609908 0.6008212 0.7830044 0.1609908 0.6008212 0.7830044 0.1609894 0.6008235 0.7830029 0.1609894 0.6008235 0.7830029 0.1609894 0.6008235 0.7830029 -0.1609912 0.6008227 0.7830032 -0.1609912 0.6008227 0.7830032 -0.1609912 0.6008227 0.7830032 -0.1609888 0.6008213 0.7830046 -0.1609888 0.6008213 0.7830046 -0.1609888 0.6008213 0.7830046 -0.4398331 0.4398331 0.783003 -0.4398331 0.4398331 0.783003 -0.4398331 0.4398331 0.783003 -0.439833 0.439833 0.783003 -0.439833 0.439833 0.783003 -0.439833 0.439833 0.783003 -0.6008212 0.1609908 0.7830044 -0.6008212 0.1609908 0.7830044 -0.6008212 0.1609908 0.7830044 -0.6008235 0.1609894 0.7830029 -0.6008235 0.1609894 0.7830029 -0.6008235 0.1609894 0.7830029 -0.3806861 -0.102004 0.9190611 -0.3806861 -0.102004 0.9190611 -0.3806861 -0.102004 0.9190611 -0.380686 -0.1020036 0.9190612 -0.380686 -0.1020036 0.9190612 -0.380686 -0.1020036 0.9190612 -0.2786817 -0.2786817 0.9190609 -0.2786817 -0.2786817 0.9190609 -0.2786817 -0.2786817 0.9190609 -0.2786817 -0.2786817 0.9190609 -0.2786817 -0.2786817 0.9190609 -0.2786817 -0.2786817 0.9190609 -0.102004 -0.380686 0.9190612 -0.102004 -0.380686 0.9190612 -0.102004 -0.380686 0.9190612 -0.1020037 -0.3806863 0.9190611 -0.1020037 -0.3806863 0.9190611 -0.1020037 -0.3806863 0.9190611 0.102004 -0.3806861 0.9190611 0.102004 -0.3806861 0.9190611 0.102004 -0.3806861 0.9190611 0.1020036 -0.380686 0.9190612 0.1020036 -0.380686 0.9190612 0.1020036 -0.380686 0.9190612 0.2786817 -0.2786817 0.9190609 0.2786817 -0.2786817 0.9190609 0.2786817 -0.2786817 0.9190609 0.2786817 -0.2786817 0.9190609 0.2786817 -0.2786817 0.9190609 0.2786817 -0.2786817 0.9190609 0.380686 -0.102004 0.9190612 0.380686 -0.102004 0.9190612 0.380686 -0.102004 0.9190612 0.3806863 -0.1020037 0.9190611 0.3806863 -0.1020037 0.9190611 0.3806863 -0.1020037 0.9190611 0.3806861 0.102004 0.9190611 0.3806861 0.102004 0.9190611 0.3806861 0.102004 0.9190611 0.380686 0.1020036 0.9190612 0.380686 0.1020036 0.9190612 0.380686 0.1020036 0.9190612 0.2786817 0.2786817 0.9190609 0.2786817 0.2786817 0.9190609 0.2786817 0.2786817 0.9190609 0.2786817 0.2786817 0.9190609 0.2786817 0.2786817 0.9190609 0.2786817 0.2786817 0.9190609 0.102004 0.380686 0.9190612 0.102004 0.380686 0.9190612 0.102004 0.380686 0.9190612 0.1020037 0.3806863 0.9190611 0.1020037 0.3806863 0.9190611 0.1020037 0.3806863 0.9190611 -0.102004 0.3806861 0.9190611 -0.102004 0.3806861 0.9190611 -0.102004 0.3806861 0.9190611 -0.1020036 0.380686 0.9190612 -0.1020036 0.380686 0.9190612 -0.1020036 0.380686 0.9190612 -0.2786817 0.2786817 0.9190609 -0.2786817 0.2786817 0.9190609 -0.2786817 0.2786817 0.9190609 -0.2786817 0.2786817 0.9190609 -0.2786817 0.2786817 0.9190609 -0.2786817 0.2786817 0.9190609 -0.380686 0.102004 0.9190612 -0.380686 0.102004 0.9190612 -0.380686 0.102004 0.9190612 -0.3806863 0.1020037 0.9190611 -0.3806863 0.1020037 0.9190611 -0.3806863 0.1020037 0.9190611 -0.1304458 -0.0349525 0.9908391 -0.1304458 -0.0349525 0.9908391 -0.1304458 -0.0349525 0.9908391 1.0 0.0 0.0 1.0 0.0 0.0 -0.0954928 -0.0954928 0.9908392 -0.0954928 -0.0954928 0.9908392 -0.0954928 -0.0954928 0.9908392 1.0 0.0 0.0 1.0 0.0 0.0 -0.0349525 -0.1304458 0.9908391 -0.0349525 -0.1304458 0.9908391 -0.0349525 -0.1304458 0.9908391 1.0 0.0 0.0 1.0 0.0 0.0 0.0349525 -0.1304458 0.9908391 0.0349525 -0.1304458 0.9908391 0.0349525 -0.1304458 0.9908391 1.0 0.0 0.0 1.0 0.0 0.0 0.0954928 -0.0954928 0.9908392 0.0954928 -0.0954928 0.9908392 0.0954928 -0.0954928 0.9908392 1.0 0.0 0.0 1.0 0.0 0.0 0.1304458 -0.0349525 0.9908391 0.1304458 -0.0349525 0.9908391 0.1304458 -0.0349525 0.9908391 1.0 0.0 0.0 1.0 0.0 0.0 0.1304458 0.0349525 0.9908391 0.1304458 0.0349525 0.9908391 0.1304458 0.0349525 0.9908391 1.0 0.0 0.0 1.0 0.0 0.0 0.0954928 0.0954928 0.9908392 0.0954928 0.0954928 0.9908392 0.0954928 0.0954928 0.9908392 1.0 0.0 0.0 1.0 0.0 0.0 0.0349525 0.1304458 0.9908391 0.0349525 0.1304458 0.9908391 0.0349525 0.1304458 0.9908391 1.0 0.0 0.0 1.0 0.0 0.0 -0.0349525 0.1304458 0.9908391 -0.0349525 0.1304458 0.9908391 -0.0349525 0.1304458 0.9908391 1.0 0.0 0.0 1.0 0.0 0.0 -0.0954928 0.0954928 0.9908392 -0.0954928 0.0954928 0.9908392 -0.0954928 0.0954928 0.9908392 1.0 0.0 0.0 1.0 0.0 0.0 -0.1304458 0.0349525 0.9908391 -0.1304458 0.0349525 0.9908391 -0.1304458 0.0349525 0.9908391 1.0 0.0 0.0 1.0 0.0 0.0 1.0 0.0 0.0 1.0 0.0 0.0 -0.1304453 -0.0349524 -0.9908392 -0.1304453 -0.0349524 -0.9908392 -0.1304453 -0.0349524 -0.9908392 1.0 0.0 0.0 1.0 0.0 0.0 -0.0954924 -0.0954924 -0.9908392 -0.0954924 -0.0954924 -0.9908392 -0.0954924 -0.0954924 -0.9908392 1.0 0.0 0.0 1.0 0.0 0.0 -0.0349524 -0.1304453 -0.9908392 -0.0349524 -0.1304453 -0.9908392 -0.0349524 -0.1304453 -0.9908392 1.0 0.0 0.0 1.0 0.0 0.0 0.0349524 -0.1304453 -0.9908392 0.0349524 -0.1304453 -0.9908392 0.0349524 -0.1304453 -0.9908392 1.0 0.0 0.0 1.0 0.0 0.0 0.0954924 -0.0954924 -0.9908392 0.0954924 -0.0954924 -0.9908392 0.0954924 -0.0954924 -0.9908392 1.0 0.0 0.0 1.0 0.0 0.0 0.1304453 -0.0349524 -0.9908392 0.1304453 -0.0349524 -0.9908392 0.1304453 -0.0349524 -0.9908392 1.0 0.0 0.0 1.0 0.0 0.0 0.1304453 0.0349524 -0.9908392 0.1304453 0.0349524 -0.9908392 0.1304453 0.0349524 -0.9908392 1.0 0.0 0.0 1.0 0.0 0.0 0.0954924 0.0954924 -0.9908392 0.0954924 0.0954924 -0.9908392 0.0954924 0.0954924 -0.9908392 1.0 0.0 0.0 1.0 0.0 0.0 0.0349524 0.1304453 -0.9908392 0.0349524 0.1304453 -0.9908392 0.0349524 0.1304453 -0.9908392 1.0 0.0 0.0 1.0 0.0 0.0 -0.0349524 0.1304453 -0.9908392 -0.0349524 0.1304453 -0.9908392 -0.0349524 0.1304453 -0.9908392 1.0 0.0 0.0 1.0 0.0 0.0 -0.0954924 0.0954924 -0.9908392 -0.0954924 0.0954924 -0.9908392 -0.0954924 0.0954924 -0.9908392 1.0 0.0 0.0 1.0 0.0 0.0 -0.1304453 0.0349524 -0.9908392 -0.1304453 0.0349524 -0.9908392 -0.1304453 0.0349524 -0.9908392 -0.3806896 -0.1020046 -0.9190596 -0.3806896 -0.1020046 -0.9190596 -0.3806896 -0.1020046 -0.9190596 -0.3806892 -0.1020049 -0.9190597 -0.3806892 -0.1020049 -0.9190597 -0.3806892 -0.1020049 -0.9190597 -0.2786841 -0.2786841 -0.9190595 -0.2786841 -0.2786841 -0.9190595 -0.2786841 -0.2786841 -0.9190595 -0.2786841 -0.2786841 -0.9190595 -0.2786841 -0.2786841 -0.9190595 -0.2786841 -0.2786841 -0.9190595 -0.1020045 -0.3806893 -0.9190598 -0.1020045 -0.3806893 -0.9190598 -0.1020045 -0.3806893 -0.9190598 -0.1020049 -0.3806894 -0.9190597 -0.1020049 -0.3806894 -0.9190597 -0.1020049 -0.3806894 -0.9190597 0.1020046 -0.3806896 -0.9190596 0.1020046 -0.3806896 -0.9190596 0.1020046 -0.3806896 -0.9190596 0.1020049 -0.3806892 -0.9190597 0.1020049 -0.3806892 -0.9190597 0.1020049 -0.3806892 -0.9190597 0.2786841 -0.2786841 -0.9190595 0.2786841 -0.2786841 -0.9190595 0.2786841 -0.2786841 -0.9190595 0.2786841 -0.2786841 -0.9190595 0.2786841 -0.2786841 -0.9190595 0.2786841 -0.2786841 -0.9190595 0.3806893 -0.1020045 -0.9190598 0.3806893 -0.1020045 -0.9190598 0.3806893 -0.1020045 -0.9190598 0.3806894 -0.1020049 -0.9190597 0.3806894 -0.1020049 -0.9190597 0.3806894 -0.1020049 -0.9190597 0.3806896 0.1020046 -0.9190596 0.3806896 0.1020046 -0.9190596 0.3806896 0.1020046 -0.9190596 0.3806892 0.1020049 -0.9190597 0.3806892 0.1020049 -0.9190597 0.3806892 0.1020049 -0.9190597 0.2786841 0.2786841 -0.9190595 0.2786841 0.2786841 -0.9190595 0.2786841 0.2786841 -0.9190595 0.2786841 0.2786841 -0.9190595 0.2786841 0.2786841 -0.9190595 0.2786841 0.2786841 -0.9190595 0.1020045 0.3806893 -0.9190598 0.1020045 0.3806893 -0.9190598 0.1020045 0.3806893 -0.9190598 0.1020049 0.3806894 -0.9190597 0.1020049 0.3806894 -0.9190597 0.1020049 0.3806894 -0.9190597 -0.1020046 0.3806896 -0.9190596 -0.1020046 0.3806896 -0.9190596 -0.1020046 0.3806896 -0.9190596 -0.1020049 0.3806892 -0.9190597 -0.1020049 0.3806892 -0.9190597 -0.1020049 0.3806892 -0.9190597 -0.2786841 0.2786841 -0.9190595 -0.2786841 0.2786841 -0.9190595 -0.2786841 0.2786841 -0.9190595 -0.2786841 0.2786841 -0.9190595 -0.2786841 0.2786841 -0.9190595 -0.2786841 0.2786841 -0.9190595</float_array>
                    <technique_common>
                        <accessor count="840" source="#geometry0-normal-array" stride="3">
                            <param name="X" type="float"/>
                            <param name="Y" type="float"/>
                            <param name="Z" type="float"/>
                        </accessor>
                    </technique_common>
                </source>
                <vertices id="geometry0-vertex">
                    <input semantic="POSITION" source="#geometry0-position"/>
                </vertices>
                <triangles count="288" material="default_ai_0.2_sh_0.2_tr_0.0_dc_r_0.8_g_0.8_b_0.8_sc_r_1.0_g_1.0_b_1.0_ec_r_0.0_g_0.0_b_0_tri">
                    <input offset="0" semantic="VERTEX" source="#geometry0-vertex"/>
                    <input offset="1" semantic="NORMAL" source="#geometry0-normal"/>
                    <p>12 0 2 1 14 2 12 3 14 4 24 5 14 6 13 7 25 8 14 9 25 10 26 11 13 12 15 13 27 14 13 15 27 16 25 17 15 18 16 19 28 20 15 21 28 22 27 23 16 24 17 25 29 26 16 27 29 28 28 29 17 30 18 31 30 32 17 33 30 34 29 35 18 36 19 37 31 38 18 39 31 40 30 41 19 42 20 43 32 44 19 45 32 46 31 47 20 48 21 49 33 50 20 51 33 52 32 53 21 54 22 55 34 56 21 57 34 58 33 59 22 60 23 61 35 62 22 63 35 64 34 65 23 66 24 67 36 68 23 69 36 70 35 71 24 72 14 73 26 74 24 75 26 76 36 77 26 78 25 79 37 80 26 81 37 82 38 83 25 84 27 85 39 86 25 87 39 88 37 89 27 90 28 91 40 92 27 93 40 94 39 95 28 96 29 97 41 98 28 99 41 100 40 101 29 102 30 103 42 104 29 105 42 106 41 107 30 108 31 109 43 110 30 111 43 112 42 113 31 114 32 115 44 116 31 117 44 118 43 119 32 120 33 121 45 122 32 123 45 124 44 125 33 126 34 127 46 128 33 129 46 130 45 131 34 132 35 133 47 134 34 135 47 136 46 137 35 138 36 139 48 140 35 141 48 142 47 143 36 144 26 145 38 146 36 147 38 148 48 149 38 150 37 151 49 152 38 153 49 154 50 155 37 156 39 157 51 158 37 159 51 160 49 161 39 162 40 163 52 164 39 165 52 166 51 167 40 168 41 169 53 170 40 171 53 172 52 173 41 174 42 175 54 176 41 177 54 178 53 179 42 180 43 181 55 182 42 183 55 184 54 185 43 186 44 187 56 188 43 189 56 190 55 191 44 192 45 193 57 194 44 195 57 196 56 197 45 198 46 199 58 200 45 201 58 202 57 203 46 204 47 205 59 206 46 207 59 208 58 209 47 210 48 211 60 212 47 213 60 214 59 215 48 216 38 217 50 218 48 219 50 220 60 221 50 222 49 223 61 224 50 225 61 226 62 227 49 228 51 229 63 230 49 231 63 232 61 233 51 234 52 235 64 236 51 237 64 238 63 239 52 240 53 241 65 242 52 243 65 244 64 245 53 246 54 247 66 248 53 249 66 250 65 251 54 252 55 253 67 254 54 255 67 256 66 257 55 258 56 259 68 260 55 261 68 262 67 263 56 264 57 265 69 266 56 267 69 268 68 269 57 270 58 271 70 272 57 273 70 274 69 275 58 276 59 277 71 278 58 279 71 280 70 281 59 282 60 283 72 284 59 285 72 286 71 287 60 288 50 289 62 290 60 291 62 292 72 293 62 294 61 295 73 296 62 297 73 298 74 299 61 300 63 301 75 302 61 303 75 304 73 305 63 306 64 307 76 308 63 309 76 310 75 311 64 312 65 313 77 314 64 315 77 316 76 317 65 318 66 319 78 320 65 321 78 322 77 323 66 324 67 325 79 326 66 327 79 328 78 329 67 330 68 331 80 332 67 333 80 334 79 335 68 336 69 337 81 338 68 339 81 340 80 341 69 342 70 343 82 344 69 345 82 346 81 347 70 348 71 349 83 350 70 351 83 352 82 353 71 354 72 355 84 356 71 357 84 358 83 359 72 360 62 361 74 362 72 363 74 364 84 365 74 366 73 367 85 368 74 369 85 370 86 371 73 372 75 373 87 374 73 375 87 376 85 377 75 378 76 379 88 380 75 381 88 382 87 383 76 384 77 385 89 386 76 387 89 388 88 389 77 390 78 391 90 392 77 393 90 394 89 395 78 396 79 397 91 398 78 399 91 400 90 401 79 402 80 403 92 404 79 405 92 406 91 407 80 408 81 409 93 410 80 411 93 412 92 413 81 414 82 415 94 416 81 417 94 418 93 419 82 420 83 421 95 422 82 423 95 424 94 425 83 426 84 427 96 428 83 429 96 430 95 431 84 432 74 433 86 434 84 435 86 436 96 437 86 438 85 439 97 440 86 441 97 442 98 443 85 444 87 445 99 446 85 447 99 448 97 449 87 450 88 451 100 452 87 453 100 454 99 455 88 456 89 457 101 458 88 459 101 460 100 461 89 462 90 463 102 464 89 465 102 466 101 467 90 468 91 469 103 470 90 471 103 472 102 473 91 474 92 475 104 476 91 477 104 478 103 479 92 480 93 481 105 482 92 483 105 484 104 485 93 486 94 487 106 488 93 489 106 490 105 491 94 492 95 493 107 494 94 495 107 496 106 497 95 498 96 499 108 500 95 501 108 502 107 503 96 504 86 505 98 506 96 507 98 508 108 509 98 510 97 511 109 512 98 513 109 514 110 515 97 516 99 517 111 518 97 519 111 520 109 521 99 522 100 523 112 524 99 525 112 526 111 527 100 528 101 529 113 530 100 531 113 532 112 533 101 534 102 535 114 536 101 537 114 538 113 539 102 540 103 541 115 542 102 543 115 544 114 545 103 546 104 547 116 548 103 549 116 550 115 551 104 552 105 553 117 554 104 555 117 556 116 557 105 558 106 559 118 560 105 561 118 562 117 563 106 564 107 565 119 566 106 567 119 568 118 569 107 570 108 571 120 572 107 573 120 574 119 575 108 576 98 577 110 578 108 579 110 580 120 581 110 582 109 583 121 584 110 585 121 586 122 587 109 588 111 589 123 590 109 591 123 592 121 593 111 594 112 595 124 596 111 597 124 598 123 599 112 600 113 601 125 602 112 603 125 604 124 605 113 606 114 607 126 608 113 609 126 610 125 611 114 612 115 613 127 614 114 615 127 616 126 617 115 618 116 619 128 620 115 621 128 622 127 623 116 624 117 625 129 626 116 627 129 628 128 629 117 630 118 631 130 632 117 633 130 634 129 635 118 636 119 637 131 638 118 639 131 640 130 641 119 642 120 643 132 644 119 645 132 646 131 647 120 648 110 649 122 650 120 651 122 652 132 653 122 654 121 655 133 656 122 657 133 658 133 658 121 659 123 660 133 661 121 662 133 663 133 663 123 664 124 665 133 666 123 667 133 668 133 668 124 669 125 670 133 671 124 672 133 673 133 673 125 674 126 675 133 676 125 677 133 678 133 678 126 679 127 680 133 681 126 682 133 683 133 683 127 684 128 685 133 686 127 687 133 688 133 688 128 689 129 690 133 691 128 692 133 693 133 693 129 694 130 695 133 696 129 697 133 698 133 698 130 699 131 700 133 701 130 702 133 703 133 703 131 704 132 705 133 706 131 707 133 708 133 708 132 709 122 710 133 711 132 712 133 713 133 713 0 714 0 714 1 715 0 716 1 717 2 718 0 719 0 719 3 720 0 721 3 722 1 723 0 724 0 724 4 725 0 726 4 727 3 728 0 729 0 729 5 730 0 731 5 732 4 733 0 734 0 734 6 735 0 736 6 737 5 738 0 739 0 739 7 740 0 741 7 742 6 743 0 744 0 744 8 745 0 746 8 747 7 748 0 749 0 749 9 750 0 751 9 752 8 753 0 754 0 754 10 755 0 756 10 757 9 758 0 759 0 759 11 760 0 761 11 762 10 763 0 764 0 764 12 765 0 766 12 767 11 768 0 769 0 769 2 770 0 771 2 772 12 773 2 774 1 775 13 776 2 777 13 778 14 779 1 780 3 781 15 782 1 783 15 784 13 785 3 786 4 787 16 788 3 789 16 790 15 791 4 792 5 793 17 794 4 795 17 796 16 797 5 798 6 799 18 800 5 801 18 802 17 803 6 804 7 805 19 806 6 807 19 808 18 809 7 810 8 811 20 812 7 813 20 814 19 815 8 816 9 817 21 818 8 819 21 820 20 821 9 822 10 823 22 824 9 825 22 826 21 827 10 828 11 829 23 830 10 831 23 832 22 833 11 834 12 835 24 836 11 837 24 838 23 839</p>
                </triangles>
            </mesh>
        </geometry>
    </library_geometries>
    <library_visual_scenes>
        <visual_scene id="Building_223_CROWN1">
            <node>
                <instance_geometry url="#geometry0">
                    <bind_material>
                        <technique_common>
                            <instance_material symbol="default_ai_0.2_sh_0.2_tr_0.0_dc_r_0.8_g_0.8_b_0.8_sc_r_1.0_g_1.0_b_1.0_ec_r_0.0_g_0.0_b_0_tri" target="#default_ai_0.2_sh_0.2_tr_0.0_dc_r_0.8_g_0.8_b_0.8_sc_r_1.0_g_1.0_b_1.0_ec_r_0.0_g_0.0_b_0_mat"/>
                        </technique_common>
                    </bind_material>
                </instance_geometry>
            </node>
        </visual_scene>
    </library_visual_scenes>
    <scene>
        <instance_visual_scene url="#Building_223_CROWN1"/>
    </scene>
</COLLADA>
