<?xml version="1.0" encoding="UTF-8" standalone="yes"?>
<COLLADA xmlns="http://www.collada.org/2005/11/COLLADASchema" version="1.4.1">
    <asset>
        <contributor>
            <authoring_tool>3D City Database Importer/Exporter, version 5.5.3; Chair of Geoinformatics, Technical University of Munich</authoring_tool>
        </contributor>
        <created>2026-09-25T14:45:24.877</created>
        <modified>2026-09-25T14:45:24.877</modified>
        <unit meter="1.0" name="meters"/>
        <up_axis>Z_UP</up_axis>
    </asset>
    <library_materials>
        <material id="default_ai_0.2_sh_0.2_tr_0.0_dc_r_0.8_g_0.8_b_0.8_sc_r_1.0_g_1.0_b_1.0_ec_r_0.0_g_0.0_b_0_mat">
            <instance_effect url="#default_ai_0.2_sh_0.2_tr_0.0_dc_r_0.8_g_0.8_b_0.8_sc_r_1.0_g_1.0_b_1.0_ec_r_0.0_g_0.0_b_0_eff"/>
        </material>
    </library_materials>
    <library_effects>
        <effect id="default_ai_0.2_sh_0.2_tr_0.0_dc_r_0.8_g_0.8_b_0.8_sc_r_1.0_g_1.0_b_1.0_ec_r_0.0_g_0.0_b_0_eff">
            <profile_COMMON>
                <technique sid="COMMON">
                    <lambert>
                        <emission>
                            <color>0.0 0.0 0.0 1.0</color>
                        </emission>
                        <diffuse>
                            <color>0.8 0.8 0.8 1.0</color>
                        </diffuse>
                        <reflective>
                            <color>1.0 1.0 1.0 1.0</color>
                        </reflective>
                        <reflectivity>
                            <float>0.2</float>
                        </reflectivity>
                        <transparent opaque="A_ONE">
                            <color>1.0 1.0 1.0 1.0</color>
                        </transparent>
                        <transparency>
                            <float>1.0</float>
                        </transparency>
                    </lambert>
                </technique>
                <extra>
                    <technique profile="GOOGLEEARTH">
                        <double_sided>0</double_sided>
                    </technique>
                </extra>
            </profile_COMMON>
        </effect>
    </library_effects>
    <library_geometries>
        <geometry id="geometry0">
            <mesh>
                <source id="geometry0-position">
                    <float_array id="geometry0-position-array" count="402">0.0 0.0 1.4 0.1569008 0.090587 1.3761482 0.1811733 0.0 1.3761482 0.090587 0.1569008 1.3761482 0.0 0.1811733 1.3761482 -0.090587 0.1569008 1.3761482 -0.1569008 0.090587 1.3761482 -0.1811733 0.0 1.3761482 -0.1569008 -0.090587 1.3761482 -0.090587 -0.1569008 1.3761482 0.0 -0.1811733 1.3761482 0.090587 -0.1569008 1.3761482 0.1569008 -0.090587 1.3761482 0.3031091 0.175 1.3062175 0.35 0.0 1.3062175 0.175 0.3031091 1.3062175 0.0 0.35 1.3062175 -0.175 0.3031091 1.3062175 -0.3031091 0.175 1.3062175 -0.35 0.0 1.3062175 -0.3031091 -0.175 1.3062175 -0.175 -0.3031091 1.3062175 0.0 -0.35 1.3062175 0.175 -0.3031091 1.3062175 0.3031091 -0.175 1.3062175 0.4286604 0.2474871 1.1949749 0.4949749 0.0 1.1949749 0.2474871 0.4286604 1.1949749 0.0 0.4949749 1.1949749 -0.2474871 0.4286604 1.1949749 -0.4286604 0.2474871 1.1949749 -0.4949749 0.0 1.1949749 -0.4286604 -0.2474871 1.1949749 -0.2474871 -0.4286604 1.1949749 0.0 -0.4949749 1.1949749 0.2474871 -0.4286604 1.1949749 0.4286604 -0.2474871 1.1949749 0.525 0.3031091 1.05 0.6062175 0.0 1.05 0.3031091 0.525 1.05 0.0 0.6062175 1.05 -0.3031091 0.525 1.05 -0.525 0.3031091 1.05 -0.6062175 0.0 1.05 -0.525 -0.3031091 1.05 -0.3031091 -0.525 1.05 0.0 -0.6062175 1.05 0.3031091 -0.525 1.05 0.525 -0.3031091 1.05 0.5855612 0.3380741 0.8811733 0.6761482 0.0 0.8811733 0.3380741 0.5855612 0.8811733 0.0 0.6761482 0.8811733 -0.3380741 0.5855612 0.8811733 -0.5855612 0.3380741 0.8811733 -0.6761482 0.0 0.8811733 -0.5855612 -0.3380741 0.8811733 -0.3380741 -0.5855612 0.8811733 0.0 -0.6761482 0.8811733 0.3380741 -0.5855612 0.8811733 0.5855612 -0.3380741 0.8811733 0.6062175 0.35 0.7 0.7 0.0 0.7 0.35 0.6062175 0.7 0.0 0.7 0.7 -0.35 0.6062175 0.7 -0.6062175 0.35 0.7 -0.7 0.0 0.7 -0.6062175 -0.35 0.7 -0.35 -0.6062175 0.7 0.0 -0.7 0.7 0.35 -0.6062175 0.7 0.6062175 -0.35 0.7 0.5855612 0.3380741 0.5188267 0.6761482 0.0 0.5188267 0.3380741 0.5855612 0.5188267 0.0 0.6761482 0.5188267 -0.3380741 0.5855612 0.5188267 -0.5855612 0.3380741 0.5188267 -0.6761482 0.0 0.5188267 -0.5855612 -0.3380741 0.5188267 -0.3380741 -0.5855612 0.5188267 0.0 -0.6761482 0.5188267 0.3380741 -0.5855612 0.5188267 0.5855612 -0.3380741 0.5188267 0.525 0.3031091 0.35 0.6062175 0.0 0.35 0.3031091 0.525 0.35 0.0 0.6062175 0.35 -0.3031091 0.525 0.35 -0.525 0.3031091 0.35 -0.6062175 0.0 0.35 -0.525 -0.3031091 0.35 -0.3031091 -0.525 0.35 0.0 -0.6062175 0.35 0.3031091 -0.525 0.35 0.525 -0.3031091 0.35 0.4286604 0.2474871 0.2050251 0.4949749 0.0 0.2050251 0.2474871 0.4286604 0.2050251 0.0 0.4949749 0.2050251 -0.2474871 0.4286604 0.2050251 -0.4286604 0.2474871 0.2050251 -0.4949749 0.0 0.2050251 -0.4286604 -0.2474871 0.2050251 -0.2474871 -0.4286604 0.2050251 0.0 -0.4949749 0.2050251 0.2474871 -0.4286604 0.2050251 0.4286604 -0.2474871 0.2050251 0.3031091 0.175 0.0937825 0.35 0.0 0.0937825 0.175 0.3031091 0.0937825 0.0 0.35 0.0937825 -0.175 0.3031091 0.0937825 -0.3031091 0.175 0.0937825 -0.35 0.0 0.0937825 -0.3031091 -0.175 0.0937825 -0.175 -0.3031091 0.0937825 0.0 -0.35 0.0937825 0.175 -0.3031091 0.0937825 0.3031091 -0.175 0.0937825 0.1569008 0.090587 0.0238518 0.1811733 0.0 0.0238518 0.090587 0.1569008 0.0238518 0.0 0.1811733 0.0238518 -0.090587 0.1569008 0.0238518 -0.1569008 0.090587 0.0238518 -0.1811733 0.0 0.0238518 -0.1569008 -0.090587 0.0238518 -0.090587 -0.1569008 0.0238518 0.0 -0.1811733 0.0238518 0.090587 -0.1569008 0.0238518 0.1569008 -0.090587 0.0238518 0.0 0.0 0.0</float_array>
                    <technique_common>
                        <accessor count="134" source="#geometry0-position-array" stride="3">
                            <param name="X" type="float"/>
                            <param name="Y" type="float"/>
                            <param name="Z" type="float"/>
                        </accessor>
                    </technique_common>
                </source>
                <source id="geometry0-normal">
                    <float_array id="geometry0-normal-array" count="2520">0.6565099 -0.6565099 -0.3714693 0.6565099 -0.6565099 -0.3714693 0.6565099 -0.6565099 -0.3714693 0.6565099 -0.6565099 -0.3714693 0.6565099 -0.6565099 -0.3714693 0.6565099 -0.6565099 -0.3714693 0.8968083 -0.2402982 -0.3714722 0.8968083 -0.2402982 -0.3714722 0.8968083 -0.2402982 -0.3714722 0.896809 -0.2403 -0.3714695 0.896809 -0.2403 -0.3714695 0.896809 -0.2403 -0.3714695 0.8968095 0.2402985 -0.3714693 0.8968095 0.2402985 -0.3714693 0.8968095 0.2402985 -0.3714693 0.896808 0.2402997 -0.3714721 0.896808 0.2402997 -0.3714721 0.896808 0.2402997 -0.3714721 0.6565099 0.6565099 -0.3714693 0.6565099 0.6565099 -0.3714693 0.6565099 0.6565099 -0.3714693 0.6565099 0.6565099 -0.3714693 0.6565099 0.6565099 -0.3714693 0.6565099 0.6565099 -0.3714693 0.2402982 0.8968083 -0.3714722 0.2402982 0.8968083 -0.3714722 0.2402982 0.8968083 -0.3714722 0.2403 0.896809 -0.3714695 0.2403 0.896809 -0.3714695 0.2403 0.896809 -0.3714695 -0.2402985 0.8968095 -0.3714693 -0.2402985 0.8968095 -0.3714693 -0.2402985 0.8968095 -0.3714693 -0.2402997 0.896808 -0.3714721 -0.2402997 0.896808 -0.3714721 -0.2402997 0.896808 -0.3714721 -0.6565099 0.6565099 -0.3714693 -0.6565099 0.6565099 -0.3714693 -0.6565099 0.6565099 -0.3714693 -0.6565099 0.6565099 -0.3714693 -0.6565099 0.6565099 -0.3714693 -0.6565099 0.6565099 -0.3714693 -0.8968083 0.2402982 -0.3714722 -0.8968083 0.2402982 -0.3714722 -0.8968083 0.2402982 -0.3714722 -0.896809 0.2403 -0.3714695 -0.896809 0.2403 -0.3714695 -0.896809 0.2403 -0.3714695 -0.958209 -0.2567521 -0.1261501 -0.958209 -0.2567521 -0.1261501 -0.958209 -0.2567521 -0.1261501 -0.958209 -0.2567521 -0.12615 -0.958209 -0.2567521 -0.12615 -0.958209 -0.2567521 -0.12615 -0.7014578 -0.7014578 -0.1261501 -0.7014578 -0.7014578 -0.1261501 -0.7014578 -0.7014578 -0.1261501 -0.7014578 -0.7014578 -0.1261501 -0.7014578 -0.7014578 -0.1261501 -0.7014578 -0.7014578 -0.1261501 -0.2567521 -0.958209 -0.12615 -0.2567521 -0.958209 -0.12615 -0.2567521 -0.958209 -0.12615 -0.2567521 -0.958209 -0.1261501 -0.2567521 -0.958209 -0.1261501 -0.2567521 -0.958209 -0.1261501 0.2567521 -0.958209 -0.1261501 0.2567521 -0.958209 -0.1261501 0.2567521 -0.958209 -0.1261501 0.2567521 -0.958209 -0.12615 0.2567521 -0.958209 -0.12615 0.2567521 -0.958209 -0.12615 0.7014578 -0.7014578 -0.1261501 0.7014578 -0.7014578 -0.1261501 0.7014578 -0.7014578 -0.1261501 0.7014578 -0.7014578 -0.1261501 0.7014578 -0.7014578 -0.1261501 0.7014578 -0.7014578 -0.1261501 0.958209 -0.2567521 -0.12615 0.958209 -0.2567521 -0.12615 0.958209 -0.2567521 -0.12615 0.958209 -0.2567521 -0.1261501 0.958209 -0.2567521 -0.1261501 0.958209 -0.2567521 -0.1261501 0.958209 0.2567521 -0.1261501 0.958209 0.2567521 -0.1261501 0.958209 0.2567521 -0.1261501 0.958209 0.2567521 -0.12615 0.958209 0.2567521 -0.12615 0.958209 0.2567521 -0.12615 0.7014578 0.7014578 -0.1261501 0.7014578 0.7014578 -0.1261501 0.7014578 0.7014578 -0.1261501 0.7014578 0.7014578 -0.1261501 0.7014578 0.7014578 -0.1261501 0.7014578 0.7014578 -0.1261501 0.2567521 0.958209 -0.12615 0.2567521 0.958209 -0.12615 0.2567521 0.958209 -0.12615 0.2567521 0.958209 -0.1261501 0.2567521 0.958209 -0.1261501 0.2567521 0.958209 -0.1261501 -0.2567521 0.958209 -0.1261501 -0.2567521 0.958209 -0.1261501 -0.2567521 0.958209 -0.1261501 -0.2567521 0.958209 -0.12615 -0.2567521 0.958209 -0.12615 -0.2567521 0.958209 -0.12615 -0.7014578 0.7014578 -0.1261501 -0.7014578 0.7014578 -0.1261501 -0.7014578 0.7014578 -0.1261501 -0.7014578 0.7014578 -0.1261501 -0.7014578 0.7014578 -0.1261501 -0.7014578 0.7014578 -0.1261501 -0.958209 0.2567521 -0.12615 -0.958209 0.2567521 -0.12615 -0.958209 0.2567521 -0.12615 -0.958209 0.2567521 -0.1261501 -0.958209 0.2567521 -0.1261501 -0.958209 0.2567521 -0.1261501 -0.9582091 -0.2567521 0.1261502 -0.9582091 -0.2567521 0.1261502 -0.9582091 -0.2567521 0.1261502 -0.958209 -0.2567521 0.12615 -0.958209 -0.2567521 0.12615 -0.958209 -0.2567521 0.12615 -0.7014578 -0.7014578 0.1261501 -0.7014578 -0.7014578 0.1261501 -0.7014578 -0.7014578 0.1261501 -0.7014578 -0.7014578 0.1261502 -0.7014578 -0.7014578 0.1261502 -0.7014578 -0.7014578 0.1261502 -0.2567521 -0.9582091 0.1261501 -0.2567521 -0.9582091 0.1261501 -0.2567521 -0.9582091 0.1261501 -0.2567521 -0.958209 0.1261502 -0.2567521 -0.958209 0.1261502 -0.2567521 -0.958209 0.1261502 0.2567521 -0.9582091 0.1261502 0.2567521 -0.9582091 0.1261502 0.2567521 -0.9582091 0.1261502 0.2567521 -0.958209 0.12615 0.2567521 -0.958209 0.12615 0.2567521 -0.958209 0.12615 0.7014578 -0.7014578 0.1261501 0.7014578 -0.7014578 0.1261501 0.7014578 -0.7014578 0.1261501 0.7014578 -0.7014578 0.1261502 0.7014578 -0.7014578 0.1261502 0.7014578 -0.7014578 0.1261502 0.9582091 -0.2567521 0.1261501 0.9582091 -0.2567521 0.1261501 0.9582091 -0.2567521 0.1261501 0.958209 -0.2567521 0.1261502 0.958209 -0.2567521 0.1261502 0.958209 -0.2567521 0.1261502 0.9582091 0.2567521 0.1261502 0.9582091 0.2567521 0.1261502 0.9582091 0.2567521 0.1261502 0.958209 0.2567521 0.12615 0.958209 0.2567521 0.12615 0.958209 0.2567521 0.12615 0.7014578 0.7014578 0.1261501 0.7014578 0.7014578 0.1261501 0.7014578 0.7014578 0.1261501 0.7014578 0.7014578 0.1261502 0.7014578 0.7014578 0.1261502 0.7014578 0.7014578 0.1261502 0.2567521 0.9582091 0.1261501 0.2567521 0.9582091 0.1261501 0.2567521 0.9582091 0.1261501 0.2567521 0.958209 0.1261502 0.2567521 0.958209 0.1261502 0.2567521 0.958209 0.1261502 -0.2567521 0.9582091 0.1261502 -0.2567521 0.9582091 0.1261502 -0.2567521 0.9582091 0.1261502 -0.2567521 0.958209 0.12615 -0.2567521 0.958209 0.12615 -0.2567521 0.958209 0.12615 -0.7014578 0.7014578 0.1261501 -0.7014578 0.7014578 0.1261501 -0.7014578 0.7014578 0.1261501 -0.7014578 0.7014578 0.1261502 -0.7014578 0.7014578 0.1261502 -0.7014578 0.7014578 0.1261502 -0.9582091 0.2567521 0.1261501 -0.9582091 0.2567521 0.1261501 -0.9582091 0.2567521 0.1261501 -0.958209 0.2567521 0.1261502 -0.958209 0.2567521 0.1261502 -0.958209 0.2567521 0.1261502 -0.8968091 -0.2403 0.3714693 -0.8968091 -0.2403 0.3714693 -0.8968091 -0.2403 0.3714693 -0.8968084 -0.2402982 0.3714721 -0.8968084 -0.2402982 0.3714721 -0.8968084 -0.2402982 0.3714721 -0.65651 -0.65651 0.3714691 -0.65651 -0.65651 0.3714691 -0.65651 -0.65651 0.3714691 -0.6565099 -0.6565099 0.3714692 -0.6565099 -0.6565099 0.3714692 -0.6565099 -0.6565099 0.3714692 -0.2402997 -0.896808 0.3714719 -0.2402997 -0.896808 0.3714719 -0.2402997 -0.896808 0.3714719 -0.2402984 -0.8968095 0.3714692 -0.2402984 -0.8968095 0.3714692 -0.2402984 -0.8968095 0.3714692 0.2403 -0.8968091 0.3714693 0.2403 -0.8968091 0.3714693 0.2403 -0.8968091 0.3714693 0.2402982 -0.8968084 0.3714721 0.2402982 -0.8968084 0.3714721 0.2402982 -0.8968084 0.3714721 0.65651 -0.65651 0.3714691 0.65651 -0.65651 0.3714691 0.65651 -0.65651 0.3714691 0.6565099 -0.6565099 0.3714692 0.6565099 -0.6565099 0.3714692 0.6565099 -0.6565099 0.3714692 0.896808 -0.2402997 0.3714719 0.896808 -0.2402997 0.3714719 0.896808 -0.2402997 0.3714719 0.8968095 -0.2402984 0.3714692 0.8968095 -0.2402984 0.3714692 0.8968095 -0.2402984 0.3714692 0.8968091 0.2403 0.3714693 0.8968091 0.2403 0.3714693 0.8968091 0.2403 0.3714693 0.8968084 0.2402982 0.3714721 0.8968084 0.2402982 0.3714721 0.8968084 0.2402982 0.3714721 0.65651 0.65651 0.3714691 0.65651 0.65651 0.3714691 0.65651 0.65651 0.3714691 0.6565099 0.6565099 0.3714692 0.6565099 0.6565099 0.3714692 0.6565099 0.6565099 0.3714692 0.2402997 0.896808 0.3714719 0.2402997 0.896808 0.3714719 0.2402997 0.896808 0.3714719 0.2402984 0.8968095 0.3714692 0.2402984 0.8968095 0.3714692 0.2402984 0.8968095 0.3714692 -0.2403 0.8968091 0.3714693 -0.2403 0.8968091 0.3714693 -0.2403 0.8968091 0.3714693 -0.2402982 0.8968084 0.3714721 -0.2402982 0.8968084 0.3714721 -0.2402982 0.8968084 0.3714721 -0.65651 0.65651 0.3714691 -0.65651 0.65651 0.3714691 -0.65651 0.65651 0.3714691 -0.6565099 0.6565099 0.3714692 -0.6565099 0.6565099 0.3714692 -0.6565099 0.6565099 0.3714692 -0.896808 0.2402997 0.3714719 -0.896808 0.2402997 0.3714719 -0.896808 0.2402997 0.3714719 -0.8968095 0.2402984 0.3714692 -0.8968095 0.2402984 0.3714692 -0.8968095 0.2402984 0.3714692 -0.7760127 -0.2079312 0.5954569 -0.7760127 -0.2079312 0.5954569 -0.7760127 -0.2079312 0.5954569 -0.7760144 -0.2079342 0.5954537 -0.7760144 -0.2079342 0.5954537 -0.7760144 -0.2079342 0.5954537 -0.5680802 -0.5680802 0.5954575 -0.5680802 -0.5680802 0.5954575 -0.5680802 -0.5680802 0.5954575 -0.5680802 -0.5680802 0.5954575 -0.5680802 -0.5680802 0.5954575 -0.5680802 -0.5680802 0.5954575 -0.2079317 -0.7760147 0.595454 -0.2079317 -0.7760147 0.595454 -0.2079317 -0.7760147 0.595454 -0.2079335 -0.7760119 0.5954572 -0.2079335 -0.7760119 0.5954572 -0.2079335 -0.7760119 0.5954572 0.2079312 -0.7760127 0.5954569 0.2079312 -0.7760127 0.5954569 0.2079312 -0.7760127 0.5954569 0.2079342 -0.7760144 0.5954537 0.2079342 -0.7760144 0.5954537 0.2079342 -0.7760144 0.5954537 0.5680802 -0.5680802 0.5954575 0.5680802 -0.5680802 0.5954575 0.5680802 -0.5680802 0.5954575 0.5680802 -0.5680802 0.5954575 0.5680802 -0.5680802 0.5954575 0.5680802 -0.5680802 0.5954575 0.7760147 -0.2079317 0.595454 0.7760147 -0.2079317 0.595454 0.7760147 -0.2079317 0.595454 0.7760119 -0.2079335 0.5954572 0.7760119 -0.2079335 0.5954572 0.7760119 -0.2079335 0.5954572 0.7760127 0.2079312 0.5954569 0.7760127 0.2079312 0.5954569 0.7760127 0.2079312 0.5954569 0.7760144 0.2079342 0.5954537 0.7760144 0.2079342 0.5954537 0.7760144 0.2079342 0.5954537 0.5680802 0.5680802 0.5954575 0.5680802 0.5680802 0.5954575 0.5680802 0.5680802 0.5954575 0.5680802 0.5680802 0.5954575 0.5680802 0.5680802 0.5954575 0.5680802 0.5680802 0.5954575 0.2079317 0.7760147 0.595454 0.2079317 0.7760147 0.595454 0.2079317 0.7760147 0.595454 0.2079335 0.7760119 0.5954572 0.2079335 0.7760119 0.5954572 0.2079335 0.7760119 0.5954572 -0.2079312 0.7760127 0.5954569 -0.2079312 0.7760127 0.5954569 -0.2079312 0.7760127 0.5954569 -0.2079342 0.7760144 0.5954537 -0.2079342 0.7760144 0.5954537 -0.2079342 0.7760144 0.5954537 -0.5680802 0.5680802 0.5954575 -0.5680802 0.5680802 0.5954575 -0.5680802 0.5680802 0.5954575 -0.5680802 0.5680802 0.5954575 -0.5680802 0.5680802 0.5954575 -0.5680802 0.5680802 0.5954575 -0.7760147 0.2079317 0.595454 -0.7760147 0.2079317 0.595454 -0.7760147 0.2079317 0.595454 -0.7760119 0.2079335 0.5954572 -0.7760119 0.2079335 0.5954572 -0.7760119 0.2079335 0.5954572 -0.6008204 -0.1609907 0.783005 -0.6008204 -0.1609907 0.783005 -0.6008204 -0.1609907 0.783005 -0.6008191 -0.1609882 0.7830065 -0.6008191 -0.1609882 0.7830065 -0.6008191 -0.1609882 0.7830065 -0.4398315 -0.4398315 0.7830049 -0.4398315 -0.4398315 0.7830049 -0.4398315 -0.4398315 0.7830049 -0.4398314 -0.4398314 0.7830048 -0.4398314 -0.4398314 0.7830048 -0.4398314 -0.4398314 0.7830048 -0.1609903 -0.6008189 0.7830064 -0.1609903 -0.6008189 0.7830064 -0.1609903 -0.6008189 0.7830064 -0.1609888 -0.6008212 0.7830048 -0.1609888 -0.6008212 0.7830048 -0.1609888 -0.6008212 0.7830048 0.1609907 -0.6008204 0.783005 0.1609907 -0.6008204 0.783005 0.1609907 -0.6008204 0.783005 0.1609882 -0.6008191 0.7830065 0.1609882 -0.6008191 0.7830065 0.1609882 -0.6008191 0.7830065 0.4398315 -0.4398315 0.7830049 0.4398315 -0.4398315 0.7830049 0.4398315 -0.4398315 0.7830049 0.4398314 -0.4398314 0.7830048 0.4398314 -0.4398314 0.7830048 0.4398314 -0.4398314 0.7830048 0.6008189 -0.1609903 0.7830064 0.6008189 -0.1609903 0.7830064 0.6008189 -0.1609903 0.7830064 0.6008212 -0.1609888 0.7830048 0.6008212 -0.1609888 0.7830048 0.6008212 -0.1609888 0.7830048 0.6008204 0.1609907 0.783005 0.6008204 0.1609907 0.783005 0.6008204 0.1609907 0.783005 0.6008191 0.1609882 0.7830065 0.6008191 0.1609882 0.7830065 0.6008191 0.1609882 0.7830065 0.4398315 0.4398315 0.7830049 0.4398315 0.4398315 0.7830049 0.4398315 0.4398315 0.7830049 0.4398314 0.4398314 0.7830048 0.4398314 0.4398314 0.7830048 0.4398314 0.4398314 0.7830048 0.1609903 0.6008189 0.7830064 0.1609903 0.6008189 0.7830064 0.1609903 0.6008189 0.7830064 0.1609888 0.6008212 0.7830048 0.1609888 0.6008212 0.7830048 0.1609888 0.6008212 0.7830048 -0.1609907 0.6008204 0.783005 -0.1609907 0.6008204 0.783005 -0.1609907 0.6008204 0.783005 -0.1609882 0.6008191 0.7830065 -0.1609882 0.6008191 0.7830065 -0.1609882 0.6008191 0.7830065 -0.4398315 0.4398315 0.7830049 -0.4398315 0.4398315 0.7830049 -0.4398315 0.4398315 0.7830049 -0.4398314 0.4398314 0.7830048 -0.4398314 0.4398314 0.7830048 -0.4398314 0.4398314 0.7830048 -0.6008189 0.1609903 0.7830064 -0.6008189 0.1609903 0.7830064 -0.6008189 0.1609903 0.7830064 -0.6008212 0.1609888 0.7830048 -0.6008212 0.1609888 0.7830048 -0.6008212 0.1609888 0.7830048 -0.3806893 -0.1020049 0.9190596 -0.3806893 -0.1020049 0.9190596 -0.3806893 -0.1020049 0.9190596 -0.3806891 -0.1020045 0.9190598 -0.3806891 -0.1020045 0.9190598 -0.3806891 -0.1020045 0.9190598 -0.278684 -0.278684 0.9190595 -0.278684 -0.278684 0.9190595 -0.278684 -0.278684 0.9190595 -0.278684 -0.278684 0.9190596 -0.278684 -0.278684 0.9190596 -0.278684 -0.278684 0.9190596 -0.1020049 -0.3806891 0.9190597 -0.1020049 -0.3806891 0.9190597 -0.1020049 -0.3806891 0.9190597 -0.1020046 -0.3806896 0.9190597 -0.1020046 -0.3806896 0.9190597 -0.1020046 -0.3806896 0.9190597 0.1020049 -0.3806893 0.9190596 0.1020049 -0.3806893 0.9190596 0.1020049 -0.3806893 0.9190596 0.1020045 -0.3806891 0.9190598 0.1020045 -0.3806891 0.9190598 0.1020045 -0.3806891 0.9190598 0.278684 -0.278684 0.9190595 0.278684 -0.278684 0.9190595 0.278684 -0.278684 0.9190595 0.278684 -0.278684 0.9190596 0.278684 -0.278684 0.9190596 0.278684 -0.278684 0.9190596 0.3806891 -0.1020049 0.9190597 0.3806891 -0.1020049 0.9190597 0.3806891 -0.1020049 0.9190597 0.3806896 -0.1020046 0.9190597 0.3806896 -0.1020046 0.9190597 0.3806896 -0.1020046 0.9190597 0.3806893 0.1020049 0.9190596 0.3806893 0.1020049 0.9190596 0.3806893 0.1020049 0.9190596 0.3806891 0.1020045 0.9190598 0.3806891 0.1020045 0.9190598 0.3806891 0.1020045 0.9190598 0.278684 0.278684 0.9190595 0.278684 0.278684 0.9190595 0.278684 0.278684 0.9190595 0.278684 0.278684 0.9190596 0.278684 0.278684 0.9190596 0.278684 0.278684 0.9190596 0.1020049 0.3806891 0.9190597 0.1020049 0.3806891 0.9190597 0.1020049 0.3806891 0.9190597 0.1020046 0.3806896 0.9190597 0.1020046 0.3806896 0.9190597 0.1020046 0.3806896 0.9190597 -0.1020049 0.3806893 0.9190596 -0.1020049 0.3806893 0.9190596 -0.1020049 0.3806893 0.9190596 -0.1020045 0.3806891 0.9190598 -0.1020045 0.3806891 0.9190598 -0.1020045 0.3806891 0.9190598 -0.278684 0.278684 0.9190595 -0.278684 0.278684 0.9190595 -0.278684 0.278684 0.9190595 -0.278684 0.278684 0.9190596 -0.278684 0.278684 0.9190596 -0.278684 0.278684 0.9190596 -0.3806891 0.1020049 0.9190597 -0.3806891 0.1020049 0.9190597 -0.3806891 0.1020049 0.9190597 -0.3806896 0.1020046 0.9190597 -0.3806896 0.1020046 0.9190597 -0.3806896 0.1020046 0.9190597 -0.1304458 -0.0349525 0.9908391 -0.1304458 -0.0349525 0.9908391 -0.1304458 -0.0349525 0.9908391 1.0 0.0 0.0 1.0 0.0 0.0 -0.0954928 -0.0954928 0.9908392 -0.0954928 -0.0954928 0.9908392 -0.0954928 -0.0954928 0.9908392 1.0 0.0 0.0 1.0 0.0 0.0 -0.0349525 -0.1304458 0.9908391 -0.0349525 -0.1304458 0.9908391 -0.0349525 -0.1304458 0.9908391 1.0 0.0 0.0 1.0 0.0 0.0 0.0349525 -0.1304458 0.9908391 0.0349525 -0.1304458 0.9908391 0.0349525 -0.1304458 0.9908391 1.0 0.0 0.0 1.0 0.0 0.0 0.0954928 -0.0954928 0.9908392 0.0954928 -0.0954928 0.9908392 0.0954928 -0.0954928 0.9908392 1.0 0.0 0.0 1.0 0.0 0.0 0.1304458 -0.0349525 0.9908391 0.1304458 -0.0349525 0.9908391 0.1304458 -0.0349525 0.9908391 1.0 0.0 0.0 1.0 0.0 0.0 0.1304458 0.0349525 0.9908391 0.1304458 0.0349525 0.9908391 0.1304458 0.0349525 0.9908391 1.0 0.0 0.0 1.0 0.0 0.0 0.0954928 0.0954928 0.9908392 0.0954928 0.0954928 0.9908392 0.0954928 0.0954928 0.9908392 1.0 0.0 0.0 1.0 0.0 0.0 0.0349525 0.1304458 0.9908391 0.0349525 0.1304458 0.9908391 0.0349525 0.1304458 0.9908391 1.0 0.0 0.0 1.0 0.0 0.0 -0.0349525 0.1304458 0.9908391 -0.0349525 0.1304458 0.9908391 -0.0349525 0.1304458 0.9908391 1.0 0.0 0.0 1.0 0.0 0.0 -0.0954928 0.0954928 0.9908392 -0.0954928 0.0954928 0.9908392 -0.0954928 0.0954928 0.9908392 1.0 0.0 0.0 1.0 0.0 0.0 -0.1304458 0.0349525 0.9908391 -0.1304458 0.0349525 0.9908391 -0.1304458 0.0349525 0.9908391 1.0 0.0 0.0 1.0 0.0 0.0 1.0 0.0 0.0 1.0 0.0 0.0 -0.1304456 -0.0349525 -0.9908392 -0.1304456 -0.0349525 -0.9908392 -0.1304456 -0.0349525 -0.9908392 1.0 0.0 0.0 1.0 0.0 0.0 -0.0954926 -0.0954926 -0.9908392 -0.0954926 -0.0954926 -0.9908392 -0.0954926 -0.0954926 -0.9908392 1.0 0.0 0.0 1.0 0.0 0.0 -0.0349525 -0.1304456 -0.9908392 -0.0349525 -0.1304456 -0.9908392 -0.0349525 -0.1304456 -0.9908392 1.0 0.0 0.0 1.0 0.0 0.0 0.0349525 -0.1304456 -0.9908392 0.0349525 -0.1304456 -0.9908392 0.0349525 -0.1304456 -0.9908392 1.0 0.0 0.0 1.0 0.0 0.0 0.0954926 -0.0954926 -0.9908392 0.0954926 -0.0954926 -0.9908392 0.0954926 -0.0954926 -0.9908392 1.0 0.0 0.0 1.0 0.0 0.0 0.1304456 -0.0349525 -0.9908392 0.1304456 -0.0349525 -0.9908392 0.1304456 -0.0349525 -0.9908392 1.0 0.0 0.0 1.0 0.0 0.0 0.1304456 0.0349525 -0.9908392 0.1304456 0.0349525 -0.9908392 0.1304456 0.0349525 -0.9908392 1.0 0.0 0.0 1.0 0.0 0.0 0.0954926 0.0954926 -0.9908392 0.0954926 0.0954926 -0.9908392 0.0954926 0.0954926 -0.9908392 1.0 0.0 0.0 1.0 0.0 0.0 0.0349525 0.1304456 -0.9908392 0.0349525 0.1304456 -0.9908392 0.0349525 0.1304456 -0.9908392 1.0 0.0 0.0 1.0 0.0 0.0 -0.0349525 0.1304456 -0.9908392 -0.0349525 0.1304456 -0.9908392 -0.0349525 0.1304456 -0.9908392 1.0 0.0 0.0 1.0 0.0 0.0 -0.0954926 0.0954926 -0.9908392 -0.0954926 0.0954926 -0.9908392 -0.0954926 0.0954926 -0.9908392 1.0 0.0 0.0 1.0 0.0 0.0 -0.1304456 0.0349525 -0.9908392 -0.1304456 0.0349525 -0.9908392 -0.1304456 0.0349525 -0.9908392 -0.3806894 -0.1020045 -0.9190596 -0.3806894 -0.1020045 -0.9190596 -0.3806894 -0.1020045 -0.9190596 -0.380689 -0.1020048 -0.9190598 -0.380689 -0.1020048 -0.9190598 -0.380689 -0.1020048 -0.9190598 -0.2786839 -0.2786839 -0.9190596 -0.2786839 -0.2786839 -0.9190596 -0.2786839 -0.2786839 -0.9190596 -0.2786839 -0.2786839 -0.9190596 -0.2786839 -0.2786839 -0.9190596 -0.2786839 -0.2786839 -0.9190596 -0.1020044 -0.380689 -0.9190598 -0.1020044 -0.380689 -0.9190598 -0.1020044 -0.380689 -0.9190598 -0.1020049 -0.3806892 -0.9190597 -0.1020049 -0.3806892 -0.9190597 -0.1020049 -0.3806892 -0.9190597 0.1020045 -0.3806894 -0.9190596 0.1020045 -0.3806894 -0.9190596 0.1020045 -0.3806894 -0.9190596 0.1020048 -0.380689 -0.9190598 0.1020048 -0.380689 -0.9190598 0.1020048 -0.380689 -0.9190598 0.2786839 -0.2786839 -0.9190596 0.2786839 -0.2786839 -0.9190596 0.2786839 -0.2786839 -0.9190596 0.2786839 -0.2786839 -0.9190596 0.2786839 -0.2786839 -0.9190596 0.2786839 -0.2786839 -0.9190596 0.380689 -0.1020044 -0.9190598 0.380689 -0.1020044 -0.9190598 0.380689 -0.1020044 -0.9190598 0.3806892 -0.1020049 -0.9190597 0.3806892 -0.1020049 -0.9190597 0.3806892 -0.1020049 -0.9190597 0.3806894 0.1020045 -0.9190596 0.3806894 0.1020045 -0.9190596 0.3806894 0.1020045 -0.9190596 0.380689 0.1020048 -0.9190598 0.380689 0.1020048 -0.9190598 0.380689 0.1020048 -0.9190598 0.2786839 0.2786839 -0.9190596 0.2786839 0.2786839 -0.9190596 0.2786839 0.2786839 -0.9190596 0.2786839 0.2786839 -0.9190596 0.2786839 0.2786839 -0.9190596 0.2786839 0.2786839 -0.9190596 0.1020044 0.380689 -0.9190598 0.1020044 0.380689 -0.9190598 0.1020044 0.380689 -0.9190598 0.1020049 0.3806892 -0.9190597 0.1020049 0.3806892 -0.9190597 0.1020049 0.3806892 -0.9190597 -0.1020045 0.3806894 -0.9190596 -0.1020045 0.3806894 -0.9190596 -0.1020045 0.3806894 -0.9190596 -0.1020048 0.380689 -0.9190598 -0.1020048 0.380689 -0.9190598 -0.1020048 0.380689 -0.9190598 -0.2786839 0.2786839 -0.9190596 -0.2786839 0.2786839 -0.9190596 -0.2786839 0.2786839 -0.9190596 -0.2786839 0.2786839 -0.9190596 -0.2786839 0.2786839 -0.9190596 -0.2786839 0.2786839 -0.9190596 -0.380689 0.1020044 -0.9190598 -0.380689 0.1020044 -0.9190598 -0.380689 0.1020044 -0.9190598 -0.3806892 0.1020049 -0.9190597 -0.3806892 0.1020049 -0.9190597 -0.3806892 0.1020049 -0.9190597 -0.6008214 -0.1609889 -0.7830047 -0.6008214 -0.1609889 -0.7830047 -0.6008214 -0.1609889 -0.7830047 -0.600819 -0.1609903 -0.7830062 -0.600819 -0.1609903 -0.7830062 -0.600819 -0.1609903 -0.7830062 -0.4398316 -0.4398316 -0.7830048 -0.4398316 -0.4398316 -0.7830048 -0.4398316 -0.4398316 -0.7830048 -0.4398316 -0.4398316 -0.7830048 -0.4398316 -0.4398316 -0.7830048 -0.4398316 -0.4398316 -0.7830048 -0.1609883 -0.6008192 -0.7830064 -0.1609883 -0.6008192 -0.7830064 -0.1609883 -0.6008192 -0.7830064 -0.1609907 -0.6008205 -0.7830049 -0.1609907 -0.6008205 -0.7830049 -0.1609907 -0.6008205 -0.7830049 0.1609889 -0.6008214 -0.7830047 0.1609889 -0.6008214 -0.7830047 0.1609889 -0.6008214 -0.7830047 0.1609903 -0.600819 -0.7830062 0.1609903 -0.600819 -0.7830062 0.1609903 -0.600819 -0.7830062 0.4398316 -0.4398316 -0.7830048 0.4398316 -0.4398316 -0.7830048 0.4398316 -0.4398316 -0.7830048 0.4398316 -0.4398316 -0.7830048 0.4398316 -0.4398316 -0.7830048 0.4398316 -0.4398316 -0.7830048 0.6008192 -0.1609883 -0.7830064 0.6008192 -0.1609883 -0.7830064 0.6008192 -0.1609883 -0.7830064 0.6008205 -0.1609907 -0.7830049 0.6008205 -0.1609907 -0.7830049 0.6008205 -0.1609907 -0.7830049 0.6008214 0.1609889 -0.7830047 0.6008214 0.1609889 -0.7830047 0.6008214 0.1609889 -0.7830047 0.600819 0.1609903 -0.7830062 0.600819 0.1609903 -0.7830062 0.600819 0.1609903 -0.7830062 0.4398316 0.4398316 -0.7830048 0.4398316 0.4398316 -0.7830048 0.4398316 0.4398316 -0.7830048 0.4398316 0.4398316 -0.7830048 0.4398316 0.4398316 -0.7830048 0.4398316 0.4398316 -0.7830048 0.1609883 0.6008192 -0.7830064 0.1609883 0.6008192 -0.7830064 0.1609883 0.6008192 -0.7830064 0.1609907 0.6008205 -0.7830049 0.1609907 0.6008205 -0.7830049 0.1609907 0.6008205 -0.7830049 -0.1609889 0.6008214 -0.7830047 -0.1609889 0.6008214 -0.7830047 -0.1609889 0.6008214 -0.7830047 -0.1609903 0.600819 -0.7830062 -0.1609903 0.600819 -0.7830062 -0.1609903 0.600819 -0.7830062 -0.4398316 0.4398316 -0.7830048 -0.4398316 0.4398316 -0.7830048 -0.4398316 0.4398316 -0.7830048 -0.4398316 0.4398316 -0.7830048 -0.4398316 0.4398316 -0.7830048 -0.4398316 0.4398316 -0.7830048 -0.6008192 0.1609883 -0.7830064 -0.6008192 0.1609883 -0.7830064 -0.6008192 0.1609883 -0.7830064 -0.6008205 0.1609907 -0.7830049 -0.6008205 0.1609907 -0.7830049 -0.6008205 0.1609907 -0.7830049 -0.7760119 -0.2079335 -0.595457 -0.7760119 -0.2079335 -0.595457 -0.7760119 -0.2079335 -0.595457 -0.7760148 -0.2079317 -0.595454 -0.7760148 -0.2079317 -0.595454 -0.7760148 -0.2079317 -0.595454 -0.5680804 -0.5680804 -0.5954573 -0.5680804 -0.5680804 -0.5954573 -0.5680804 -0.5680804 -0.5954573 -0.5680803 -0.5680803 -0.5954574 -0.5680803 -0.5680803 -0.5954574 -0.5680803 -0.5680803 -0.5954574 -0.2079342 -0.7760145 -0.5954536 -0.2079342 -0.7760145 -0.5954536 -0.2079342 -0.7760145 -0.5954536 -0.2079312 -0.7760128 -0.5954568 -0.2079312 -0.7760128 -0.5954568 -0.2079312 -0.7760128 -0.5954568 0.2079335 -0.7760119 -0.595457 0.2079335 -0.7760119 -0.595457 0.2079335 -0.7760119 -0.595457 0.2079317 -0.7760148 -0.595454 0.2079317 -0.7760148 -0.595454 0.2079317 -0.7760148 -0.595454 0.5680804 -0.5680804 -0.5954573 0.5680804 -0.5680804 -0.5954573 0.5680804 -0.5680804 -0.5954573 0.5680803 -0.5680803 -0.5954574 0.5680803 -0.5680803 -0.5954574 0.5680803 -0.5680803 -0.5954574 0.7760145 -0.2079342 -0.5954536 0.7760145 -0.2079342 -0.5954536 0.7760145 -0.2079342 -0.5954536 0.7760128 -0.2079312 -0.5954568 0.7760128 -0.2079312 -0.5954568 0.7760128 -0.2079312 -0.5954568 0.7760119 0.2079335 -0.595457 0.7760119 0.2079335 -0.595457 0.7760119 0.2079335 -0.595457 0.7760148 0.2079317 -0.595454 0.7760148 0.2079317 -0.595454 0.7760148 0.2079317 -0.595454 0.5680804 0.5680804 -0.5954573 0.5680804 0.5680804 -0.5954573 0.5680804 0.5680804 -0.5954573 0.5680803 0.5680803 -0.5954574 0.5680803 0.5680803 -0.5954574 0.5680803 0.5680803 -0.5954574 0.2079342 0.7760145 -0.5954536 0.2079342 0.7760145 -0.5954536 0.2079342 0.7760145 -0.5954536 0.2079312 0.7760128 -0.5954568 0.2079312 0.7760128 -0.5954568 0.2079312 0.7760128 -0.5954568 -0.2079335 0.7760119 -0.595457 -0.2079335 0.7760119 -0.595457 -0.2079335 0.7760119 -0.595457 -0.2079317 0.7760148 -0.595454 -0.2079317 0.7760148 -0.595454 -0.2079317 0.7760148 -0.595454 -0.5680804 0.5680804 -0.5954573 -0.5680804 0.5680804 -0.5954573 -0.5680804 0.5680804 -0.5954573 -0.5680803 0.5680803 -0.5954574 -0.5680803 0.5680803 -0.5954574 -0.5680803 0.5680803 -0.5954574 -0.7760145 0.2079342 -0.5954536 -0.7760145 0.2079342 -0.5954536 -0.7760145 0.2079342 -0.5954536 -0.7760128 0.2079312 -0.5954568 -0.7760128 0.2079312 -0.5954568 -0.7760128 0.2079312 -0.5954568 -0.8968095 -0.2402985 -0.3714693 -0.8968095 -0.2402985 -0.3714693 -0.8968095 -0.2402985 -0.3714693 -0.896808 -0.2402997 -0.3714721 -0.896808 -0.2402997 -0.3714721 -0.896808 -0.2402997 -0.3714721 -0.6565099 -0.6565099 -0.3714693 -0.6565099 -0.6565099 -0.3714693 -0.6565099 -0.6565099 -0.3714693 -0.6565099 -0.6565099 -0.3714693 -0.6565099 -0.6565099 -0.3714693 -0.6565099 -0.6565099 -0.3714693 -0.2402982 -0.8968083 -0.3714722 -0.2402982 -0.8968083 -0.3714722 -0.2402982 -0.8968083 -0.3714722 -0.2403 -0.896809 -0.3714695 -0.2403 -0.896809 -0.3714695 -0.2403 -0.896809 -0.3714695 0.2402985 -0.8968095 -0.3714693 0.2402985 -0.8968095 -0.3714693 0.2402985 -0.8968095 -0.3714693 0.2402997 -0.896808 -0.3714721 0.2402997 -0.896808 -0.3714721 0.2402997 -0.896808 -0.3714721</float_array>
                    <technique_common>
                        <accessor count="840" source="#geometry0-normal-array" stride="3">
                            <param name="X" type="float"/>
                            <param name="Y" type="float"/>
                            <param name="Z" type="float"/>
                        </accessor>
                    </technique_common>
                </source>
                <vertices id="geometry0-vertex">
                    <input semantic="POSITION" source="#geometry0-position"/>
                </vertices>
                <triangles count="288" material="default_ai_0.2_sh_0.2_tr_0.0_dc_r_0.8_g_0.8_b_0.8_sc_r_1.0_g_1.0_b_1.0_ec_r_0.0_g_0.0_b_0_tri">
                    <input offset="0" semantic="VERTEX" source="#geometry0-vertex"/>
                    <input offset="1" semantic="NORMAL" source="#geometry0-normal"/>
                    <p>41 0 42 1 54 2 41 3 54 4 53 5 42 6 43 7 55 8 42 9 55 10 54 11 43 12 44 13 56 14 43 15 56 16 55 17 44 18 45 19 57 20 44 21 57 22 56 23 45 24 46 25 58 26 45 27 58 28 57 29 46 30 47 31 59 32 46 33 59 34 58 35 47 36 48 37 60 38 47 39 60 40 59 41 48 42 38 43 50 44 48 45 50 46 60 47 50 48 49 49 61 50 50 51 61 52 62 53 49 54 51 55 63 56 49 57 63 58 61 59 51 60 52 61 64 62 51 63 64 64 63 65 52 66 53 67 65 68 52 69 65 70 64 71 53 72 54 73 66 74 53 75 66 76 65 77 54 78 55 79 67 80 54 81 67 82 66 83 55 84 56 85 68 86 55 87 68 88 67 89 56 90 57 91 69 92 56 93 69 94 68 95 57 96 58 97 70 98 57 99 70 100 69 101 58 102 59 103 71 104 58 105 71 106 70 107 59 108 60 109 72 110 59 111 72 112 71 113 60 114 50 115 62 116 60 117 62 118 72 119 62 120 61 121 73 122 62 123 73 124 74 125 61 126 63 127 75 128 61 129 75 130 73 131 63 132 64 133 76 134 63 135 76 136 75 137 64 138 65 139 77 140 64 141 77 142 76 143 65 144 66 145 78 146 65 147 78 148 77 149 66 150 67 151 79 152 66 153 79 154 78 155 67 156 68 157 80 158 67 159 80 160 79 161 68 162 69 163 81 164 68 165 81 166 80 167 69 168 70 169 82 170 69 171 82 172 81 173 70 174 71 175 83 176 70 177 83 178 82 179 71 180 72 181 84 182 71 183 84 184 83 185 72 186 62 187 74 188 72 189 74 190 84 191 74 192 73 193 85 194 74 195 85 196 86 197 73 198 75 199 87 200 73 201 87 202 85 203 75 204 76 205 88 206 75 207 88 208 87 209 76 210 77 211 89 212 76 213 89 214 88 215 77 216 78 217 90 218 77 219 90 220 89 221 78 222 79 223 91 224 78 225 91 226 90 227 79 228 80 229 92 230 79 231 92 232 91 233 80 234 81 235 93 236 80 237 93 238 92 239 81 240 82 241 94 242 81 243 94 244 93 245 82 246 83 247 95 248 82 249 95 250 94 251 83 252 84 253 96 254 83 255 96 256 95 257 84 258 74 259 86 260 84 261 86 262 96 263 86 264 85 265 97 266 86 267 97 268 98 269 85 270 87 271 99 272 85 273 99 274 97 275 87 276 88 277 100 278 87 279 100 280 99 281 88 282 89 283 101 284 88 285 101 286 100 287 89 288 90 289 102 290 89 291 102 292 101 293 90 294 91 295 103 296 90 297 103 298 102 299 91 300 92 301 104 302 91 303 104 304 103 305 92 306 93 307 105 308 92 309 105 310 104 311 93 312 94 313 106 314 93 315 106 316 105 317 94 318 95 319 107 320 94 321 107 322 106 323 95 324 96 325 108 326 95 327 108 328 107 329 96 330 86 331 98 332 96 333 98 334 108 335 98 336 97 337 109 338 98 339 109 340 110 341 97 342 99 343 111 344 97 345 111 346 109 347 99 348 100 349 112 350 99 351 112 352 111 353 100 354 101 355 113 356 100 357 113 358 112 359 101 360 102 361 114 362 101 363 114 364 113 365 102 366 103 367 115 368 102 369 115 370 114 371 103 372 104 373 116 374 103 375 116 376 115 377 104 378 105 379 117 380 104 381 117 382 116 383 105 384 106 385 118 386 105 387 118 388 117 389 106 390 107 391 119 392 106 393 119 394 118 395 107 396 108 397 120 398 107 399 120 400 119 401 108 402 98 403 110 404 108 405 110 406 120 407 110 408 109 409 121 410 110 411 121 412 122 413 109 414 111 415 123 416 109 417 123 418 121 419 111 420 112 421 124 422 111 423 124 424 123 425 112 426 113 427 125 428 112 429 125 430 124 431 113 432 114 433 126 434 113 435 126 436 125 437 114 438 115 439 127 440 114 441 127 442 126 443 115 444 116 445 128 446 115 447 128 448 127 449 116 450 117 451 129 452 116 453 129 454 128 455 117 456 118 457 130 458 117 459 130 460 129 461 118 462 119 463 131 464 118 465 131 466 130 467 119 468 120 469 132 470 119 471 132 472 131 473 120 474 110 475 122 476 120 477 122 478 132 479 122 480 121 481 133 482 122 483 133 484 133 484 121 485 123 486 133 487 121 488 133 489 133 489 123 490 124 491 133 492 123 493 133 494 133 494 124 495 125 496 133 497 124 498 133 499 133 499 125 500 126 501 133 502 125 503 133 504 133 504 126 505 127 506 133 507 126 508 133 509 133 509 127 510 128 511 133 512 127 513 133 514 133 514 128 515 129 516 133 517 128 518 133 519 133 519 129 520 130 521 133 522 129 523 133 524 133 524 130 525 131 526 133 527 130 528 133 529 133 529 131 530 132 531 133 532 131 533 133 534 133 534 132 535 122 536 133 537 132 538 133 539 133 539 0 540 0 540 1 541 0 542 1 543 2 544 0 545 0 545 3 546 0 547 3 548 1 549 0 550 0 550 4 551 0 552 4 553 3 554 0 555 0 555 5 556 0 557 5 558 4 559 0 560 0 560 6 561 0 562 6 563 5 564 0 565 0 565 7 566 0 567 7 568 6 569 0 570 0 570 8 571 0 572 8 573 7 574 0 575 0 575 9 576 0 577 9 578 8 579 0 580 0 580 10 581 0 582 10 583 9 584 0 585 0 585 11 586 0 587 11 588 10 589 0 590 0 590 12 591 0 592 12 593 11 594 0 595 0 595 2 596 0 597 2 598 12 599 2 600 1 601 13 602 2 603 13 604 14 605 1 606 3 607 15 608 1 609 15 610 13 611 3 612 4 613 16 614 3 615 16 616 15 617 4 618 5 619 17 620 4 621 17 622 16 623 5 624 6 625 18 626 5 627 18 628 17 629 6 630 7 631 19 632 6 633 19 634 18 635 7 636 8 637 20 638 7 639 20 640 19 641 8 642 9 643 21 644 8 645 21 646 20 647 9 648 10 649 22 650 9 651 22 652 21 653 10 654 11 655 23 656 10 657 23 658 22 659 11 660 12 661 24 662 11 663 24 664 23 665 12 666 2 667 14 668 12 669 14 670 24 671 14 672 13 673 25 674 14 675 25 676 26 677 13 678 15 679 27 680 13 681 27 682 25 683 15 684 16 685 28 686 15 687 28 688 27 689 16 690 17 691 29 692 16 693 29 694 28 695 17 696 18 697 30 698 17 699 30 700 29 701 18 702 19 703 31 704 18 705 31 706 30 707 19 708 20 709 32 710 19 711 32 712 31 713 20 714 21 715 33 716 20 717 33 718 32 719 21 720 22 721 34 722 21 723 34 724 33 725 22 726 23 727 35 728 22 729 35 730 34 731 23 732 24 733 36 734 23 735 36 736 35 737 24 738 14 739 26 740 24 741 26 742 36 743 26 744 25 745 37 746 26 747 37 748 38 749 25 750 27 751 39 752 25 753 39 754 37 755 27 756 28 757 40 758 27 759 40 760 39 761 28 762 29 763 41 764 28 765 41 766 40 767 29 768 30 769 42 770 29 771 42 772 41 773 30 774 31 775 43 776 30 777 43 778 42 779 31 780 32 781 44 782 31 783 44 784 43 785 32 786 33 787 45 788 32 789 45 790 44 791 33 792 34 793 46 794 33 795 46 796 45 797 34 798 35 799 47 800 34 801 47 802 46 803 35 804 36 805 48 806 35 807 48 808 47 809 36 810 26 811 38 812 36 813 38 814 48 815 38 816 37 817 49 818 38 819 49 820 50 821 37 822 39 823 51 824 37 825 51 826 49 827 39 828 40 829 52 830 39 831 52 832 51 833 40 834 41 835 53 836 40 837 53 838 52 839</p>
                </triangles>
            </mesh>
        </geometry>
    </library_geometries>
    <library_visual_scenes>
        <visual_scene id="Building_234_CROWN2">
            <node>
                <instance_geometry url="#geometry0">
                    <bind_material>
                        <technique_common>
                            <instance_material symbol="default_ai_0.2_sh_0.2_tr_0.0_dc_r_0.8_g_0.8_b_0.8_sc_r_1.0_g_1.0_b_1.0_ec_r_0.0_g_0.0_b_0_tri" target="#default_ai_0.2_sh_0.2_tr_0.0_dc_r_0.8_g_0.8_b_0.8_sc_r_1.0_g_1.0_b_1.0_ec_r_0.0_g_0.0_b_0_mat"/>
                        </technique_common>
                    </bind_material>
                </instance_geometry>
            </node>
        </visual_scene>
    </library_visual_scenes>
    <scene>
        <instance_visual_scene url="#Building_234_CROWN2"/>
    </scene>
</COLLADA>
