<?xml version="1.0" encoding="UTF-8" standalone="yes"?>
<COLLADA xmlns="http://www.collada.org/2005/11/COLLADASchema" version="1.4.1">
    <asset>
        <contributor>
            <authoring_tool>3D City Database Importer/Exporter, version 5.5.3; Chair of Geoinformatics, Technical University of Munich</authoring_tool>
        </contributor>
        <created>2026-09-25T14:44:40.327</created>
        <modified>2026-09-25T14:44:40.327</modified>
        <unit meter="1.0" name="meters"/>
        <up_axis>Z_UP</up_axis>
    </asset>
    <library_materials>
        <material id="default_ai_0.2_sh_0.2_tr_0.0_dc_r_0.8_g_0.8_b_0.8_sc_r_1.0_g_1.0_b_1.0_ec_r_0.0_g_0.0_b_0_mat">
            <instance_effect url="#default_ai_0.2_sh_0.2_tr_0.0_dc_r_0.8_g_0.8_b_0.8_sc_r_1.0_g_1.0_b_1.0_ec_r_0.0_g_0.0_b_0_eff"/>
        </material>
    </library_materials>
    <library_effects>
        <effect id="default_ai_0.2_sh_0.2_tr_0.0_dc_r_0.8_g_0.8_b_0.8_sc_r_1.0_g_1.0_b_1.0_ec_r_0.0_g_0.0_b_0_eff">
            <profile_COMMON>
                <technique sid="COMMON">
                    <lambert>
                        <emission>
                            <color>0.0 0.0 0.0 1.0</color>
                        </emission>
                        <diffuse>
                            <color>0.8 0.8 0.8 1.0</color>
                        </diffuse>
                        <reflective>
                            <color>1.0 1.0 1.0 1.0</color>
                        </reflective>
                        <reflectivity>
                            <float>0.2</float>
                        </reflectivity>
                        <transparent opaque="A_ONE">
                            <color>1.0 1.0 1.0 1.0</color>
                        </transparent>
                        <transparency>
                            <float>1.0</float>
                        </transparency>
                    </lambert>
                </technique>
                <extra>
                    <technique profile="GOOGLEEARTH">
                        <double_sided>0</double_sided>
                    </technique>
                </extra>
            </profile_COMMON>
        </effect>
    </library_effects>
    <library_geometries>
        <geometry id="geometry0">
            <mesh>
                <source id="geometry0-position">
                    <float_array id="geometry0-position-array" count="402">0.0 0.0 4.1 0.4594952 0.2652905 4.0301483 0.530579 0.0 4.0301483 0.2652905 0.4594952 4.0301483 0.0 0.530579 4.0301483 -0.2652905 0.4594952 4.0301483 -0.4594952 0.2652905 4.0301483 -0.530579 0.0 4.0301483 -0.4594952 -0.2652905 4.0301483 -0.2652905 -0.4594952 4.0301483 0.0 -0.530579 4.0301483 0.2652905 -0.4594952 4.0301483 0.4594952 -0.2652905 4.0301483 0.8876767 0.5125 3.8253512 1.025 0.0 3.8253512 0.5125 0.8876766 3.8253512 0.0 1.025 3.8253512 -0.5125 0.8876766 3.8253512 -0.8876767 0.5125 3.8253512 -1.025 0.0 3.8253512 -0.8876767 -0.5125 3.8253512 -0.5125 -0.8876766 3.8253512 0.0 -1.025 3.8253512 0.5125 -0.8876766 3.8253512 0.8876767 -0.5125 3.8253512 1.2553626 0.7247836 3.4995673 1.4495693 0.0 3.4995673 0.7247837 1.2553626 3.4995673 0.0 1.4495694 3.4995673 -0.7247837 1.2553626 3.4995673 -1.2553626 0.7247836 3.4995673 -1.4495693 0.0 3.4995673 -1.2553626 -0.7247836 3.4995673 -0.7247837 -1.2553626 3.4995673 0.0 -1.4495694 3.4995673 0.7247837 -1.2553626 3.4995673 1.2553626 -0.7247836 3.4995673 1.5375 0.8876766 3.075 1.7753513 0.0 3.075 0.8876767 1.5375 3.075 0.0 1.7753512 3.075 -0.8876767 1.5375 3.075 -1.5375 0.8876766 3.075 -1.7753513 0.0 3.075 -1.5375 -0.8876766 3.075 -0.8876767 -1.5375 3.075 0.0 -1.7753512 3.075 0.8876767 -1.5375 3.075 1.5375 -0.8876766 3.075 1.7148578 0.9900742 2.5805789 1.9801483 0.0 2.5805789 0.9900741 1.7148578 2.5805789 0.0 1.9801483 2.5805789 -0.9900741 1.7148578 2.5805789 -1.7148578 0.9900742 2.5805789 -1.9801483 0.0 2.5805789 -1.7148578 -0.9900742 2.5805789 -0.9900741 -1.7148578 2.5805789 0.0 -1.9801483 2.5805789 0.9900741 -1.7148578 2.5805789 1.7148578 -0.9900742 2.5805789 1.7753513 1.025 2.05 2.05 0.0 2.05 1.025 1.7753512 2.05 0.0 2.05 2.05 -1.025 1.7753512 2.05 -1.7753513 1.025 2.05 -2.05 0.0 2.05 -1.7753513 -1.025 2.05 -1.025 -1.7753512 2.05 0.0 -2.05 2.05 1.025 -1.7753512 2.05 1.7753513 -1.025 2.05 1.7148578 0.9900742 1.519421 1.9801483 0.0 1.519421 0.9900741 1.7148578 1.519421 0.0 1.9801483 1.519421 -0.9900741 1.7148578 1.519421 -1.7148578 0.9900742 1.519421 -1.9801483 0.0 1.519421 -1.7148578 -0.9900742 1.519421 -0.9900741 -1.7148578 1.519421 0.0 -1.9801483 1.519421 0.9900741 -1.7148578 1.519421 1.7148578 -0.9900742 1.519421 1.5375 0.8876766 1.025 1.7753513 0.0 1.025 0.8876767 1.5375 1.025 0.0 1.7753512 1.025 -0.8876767 1.5375 1.025 -1.5375 0.8876766 1.025 -1.7753513 0.0 1.025 -1.5375 -0.8876766 1.025 -0.8876767 -1.5375 1.025 0.0 -1.7753512 1.025 0.8876767 -1.5375 1.025 1.5375 -0.8876766 1.025 1.2553626 0.7247836 0.6004307 1.4495693 0.0 0.6004307 0.7247837 1.2553626 0.6004307 0.0 1.4495694 0.6004307 -0.7247837 1.2553626 0.6004307 -1.2553626 0.7247836 0.6004307 -1.4495693 0.0 0.6004307 -1.2553626 -0.7247836 0.6004307 -0.7247837 -1.2553626 0.6004307 0.0 -1.4495694 0.6004307 0.7247837 -1.2553626 0.6004307 1.2553626 -0.7247836 0.6004307 0.8876767 0.5125 0.2746467 1.025 0.0 0.2746467 0.5125 0.8876766 0.2746467 0.0 1.025 0.2746467 -0.5125 0.8876766 0.2746467 -0.8876767 0.5125 0.2746467 -1.025 0.0 0.2746467 -0.8876767 -0.5125 0.2746467 -0.5125 -0.8876766 0.2746467 0.0 -1.025 0.2746467 0.5125 -0.8876766 0.2746467 0.8876767 -0.5125 0.2746467 0.4594952 0.2652905 0.0698517 0.530579 0.0 0.0698517 0.2652905 0.4594952 0.0698517 0.0 0.530579 0.0698517 -0.2652905 0.4594952 0.0698517 -0.4594952 0.2652905 0.0698517 -0.530579 0.0 0.0698517 -0.4594952 -0.2652905 0.0698517 -0.2652905 -0.4594952 0.0698517 0.0 -0.530579 0.0698517 0.2652905 -0.4594952 0.0698517 0.4594952 -0.2652905 0.0698517 0.0 0.0 0.0</float_array>
                    <technique_common>
                        <accessor count="134" source="#geometry0-position-array" stride="3">
                            <param name="X" type="float"/>
                            <param name="Y" type="float"/>
                            <param name="Z" type="float"/>
                        </accessor>
                    </technique_common>
                </source>
                <source id="geometry0-normal">
                    <float_array id="geometry0-normal-array" count="2520">0.7014578 -0.7014578 0.1261501 0.7014578 -0.7014578 0.1261501 0.7014578 -0.7014578 0.1261501 0.7014578 -0.7014578 0.1261502 0.7014578 -0.7014578 0.1261502 0.7014578 -0.7014578 0.1261502 0.958209 -0.256752 0.1261499 0.958209 -0.256752 0.1261499 0.958209 -0.256752 0.1261499 0.958209 -0.2567522 0.1261503 0.958209 -0.2567522 0.1261503 0.958209 -0.2567522 0.1261503 0.958209 0.256752 0.1261503 0.958209 0.256752 0.1261503 0.958209 0.256752 0.1261503 0.958209 0.2567522 0.1261499 0.958209 0.2567522 0.1261499 0.958209 0.2567522 0.1261499 0.7014578 0.7014578 0.1261501 0.7014578 0.7014578 0.1261501 0.7014578 0.7014578 0.1261501 0.7014578 0.7014578 0.1261502 0.7014578 0.7014578 0.1261502 0.7014578 0.7014578 0.1261502 0.256752 0.958209 0.1261499 0.256752 0.958209 0.1261499 0.256752 0.958209 0.1261499 0.2567522 0.958209 0.1261503 0.2567522 0.958209 0.1261503 0.2567522 0.958209 0.1261503 -0.256752 0.958209 0.1261503 -0.256752 0.958209 0.1261503 -0.256752 0.958209 0.1261503 -0.2567522 0.958209 0.1261499 -0.2567522 0.958209 0.1261499 -0.2567522 0.958209 0.1261499 -0.7014578 0.7014578 0.1261501 -0.7014578 0.7014578 0.1261501 -0.7014578 0.7014578 0.1261501 -0.7014578 0.7014578 0.1261502 -0.7014578 0.7014578 0.1261502 -0.7014578 0.7014578 0.1261502 -0.958209 0.256752 0.1261499 -0.958209 0.256752 0.1261499 -0.958209 0.256752 0.1261499 -0.958209 0.2567522 0.1261503 -0.958209 0.2567522 0.1261503 -0.958209 0.2567522 0.1261503 -0.896809 -0.2403001 0.3714692 -0.896809 -0.2403001 0.3714692 -0.896809 -0.2403001 0.3714692 -0.8968083 -0.2402981 0.3714721 -0.8968083 -0.2402981 0.3714721 -0.8968083 -0.2402981 0.3714721 -0.65651 -0.65651 0.3714691 -0.65651 -0.65651 0.3714691 -0.65651 -0.65651 0.3714691 -0.65651 -0.65651 0.3714691 -0.65651 -0.65651 0.3714691 -0.65651 -0.65651 0.3714691 -0.2402998 -0.896808 0.371472 -0.2402998 -0.896808 0.371472 -0.2402998 -0.896808 0.371472 -0.2402984 -0.8968096 0.371469 -0.2402984 -0.8968096 0.371469 -0.2402984 -0.8968096 0.371469 0.2403001 -0.896809 0.3714692 0.2403001 -0.896809 0.3714692 0.2403001 -0.896809 0.3714692 0.2402981 -0.8968083 0.3714721 0.2402981 -0.8968083 0.3714721 0.2402981 -0.8968083 0.3714721 0.65651 -0.65651 0.3714691 0.65651 -0.65651 0.3714691 0.65651 -0.65651 0.3714691 0.65651 -0.65651 0.3714691 0.65651 -0.65651 0.3714691 0.65651 -0.65651 0.3714691 0.896808 -0.2402998 0.371472 0.896808 -0.2402998 0.371472 0.896808 -0.2402998 0.371472 0.8968096 -0.2402984 0.371469 0.8968096 -0.2402984 0.371469 0.8968096 -0.2402984 0.371469 0.896809 0.2403001 0.3714692 0.896809 0.2403001 0.3714692 0.896809 0.2403001 0.3714692 0.8968083 0.2402981 0.3714721 0.8968083 0.2402981 0.3714721 0.8968083 0.2402981 0.3714721 0.65651 0.65651 0.3714691 0.65651 0.65651 0.3714691 0.65651 0.65651 0.3714691 0.65651 0.65651 0.3714691 0.65651 0.65651 0.3714691 0.65651 0.65651 0.3714691 0.2402998 0.896808 0.371472 0.2402998 0.896808 0.371472 0.2402998 0.896808 0.371472 0.2402984 0.8968096 0.371469 0.2402984 0.8968096 0.371469 0.2402984 0.8968096 0.371469 -0.2403001 0.896809 0.3714692 -0.2403001 0.896809 0.3714692 -0.2403001 0.896809 0.3714692 -0.2402981 0.8968083 0.3714721 -0.2402981 0.8968083 0.3714721 -0.2402981 0.8968083 0.3714721 -0.65651 0.65651 0.3714691 -0.65651 0.65651 0.3714691 -0.65651 0.65651 0.3714691 -0.65651 0.65651 0.3714691 -0.65651 0.65651 0.3714691 -0.65651 0.65651 0.3714691 -0.896808 0.2402998 0.371472 -0.896808 0.2402998 0.371472 -0.896808 0.2402998 0.371472 -0.8968096 0.2402984 0.371469 -0.8968096 0.2402984 0.371469 -0.8968096 0.2402984 0.371469 -0.7760127 -0.2079311 0.5954569 -0.7760127 -0.2079311 0.5954569 -0.7760127 -0.2079311 0.5954569 -0.7760144 -0.2079341 0.5954539 -0.7760144 -0.2079341 0.5954539 -0.7760144 -0.2079341 0.5954539 -0.5680802 -0.5680802 0.5954575 -0.5680802 -0.5680802 0.5954575 -0.5680802 -0.5680802 0.5954575 -0.5680802 -0.5680802 0.5954575 -0.5680802 -0.5680802 0.5954575 -0.5680802 -0.5680802 0.5954575 -0.2079317 -0.7760147 0.5954542 -0.2079317 -0.7760147 0.5954542 -0.2079317 -0.7760147 0.5954542 -0.2079334 -0.7760118 0.5954572 -0.2079334 -0.7760118 0.5954572 -0.2079334 -0.7760118 0.5954572 0.2079311 -0.7760127 0.5954569 0.2079311 -0.7760127 0.5954569 0.2079311 -0.7760127 0.5954569 0.2079341 -0.7760144 0.5954539 0.2079341 -0.7760144 0.5954539 0.2079341 -0.7760144 0.5954539 0.5680802 -0.5680802 0.5954575 0.5680802 -0.5680802 0.5954575 0.5680802 -0.5680802 0.5954575 0.5680802 -0.5680802 0.5954575 0.5680802 -0.5680802 0.5954575 0.5680802 -0.5680802 0.5954575 0.7760147 -0.2079317 0.5954542 0.7760147 -0.2079317 0.5954542 0.7760147 -0.2079317 0.5954542 0.7760118 -0.2079334 0.5954572 0.7760118 -0.2079334 0.5954572 0.7760118 -0.2079334 0.5954572 0.7760127 0.2079311 0.5954569 0.7760127 0.2079311 0.5954569 0.7760127 0.2079311 0.5954569 0.7760144 0.2079341 0.5954539 0.7760144 0.2079341 0.5954539 0.7760144 0.2079341 0.5954539 0.5680802 0.5680802 0.5954575 0.5680802 0.5680802 0.5954575 0.5680802 0.5680802 0.5954575 0.5680802 0.5680802 0.5954575 0.5680802 0.5680802 0.5954575 0.5680802 0.5680802 0.5954575 0.2079317 0.7760147 0.5954542 0.2079317 0.7760147 0.5954542 0.2079317 0.7760147 0.5954542 0.2079334 0.7760118 0.5954572 0.2079334 0.7760118 0.5954572 0.2079334 0.7760118 0.5954572 -0.2079311 0.7760127 0.5954569 -0.2079311 0.7760127 0.5954569 -0.2079311 0.7760127 0.5954569 -0.2079341 0.7760144 0.5954539 -0.2079341 0.7760144 0.5954539 -0.2079341 0.7760144 0.5954539 -0.5680802 0.5680802 0.5954575 -0.5680802 0.5680802 0.5954575 -0.5680802 0.5680802 0.5954575 -0.5680802 0.5680802 0.5954575 -0.5680802 0.5680802 0.5954575 -0.5680802 0.5680802 0.5954575 -0.7760147 0.2079317 0.5954542 -0.7760147 0.2079317 0.5954542 -0.7760147 0.2079317 0.5954542 -0.7760118 0.2079334 0.5954572 -0.7760118 0.2079334 0.5954572 -0.7760118 0.2079334 0.5954572 -0.6008227 -0.1609912 0.7830032 -0.6008227 -0.1609912 0.7830032 -0.6008227 -0.1609912 0.7830032 -0.6008214 -0.1609889 0.7830046 -0.6008214 -0.1609889 0.7830046 -0.6008214 -0.1609889 0.7830046 -0.4398331 -0.4398331 0.783003 -0.4398331 -0.4398331 0.783003 -0.4398331 -0.4398331 0.783003 -0.4398331 -0.4398331 0.783003 -0.4398331 -0.4398331 0.783003 -0.4398331 -0.4398331 0.783003 -0.1609908 -0.6008212 0.7830044 -0.1609908 -0.6008212 0.7830044 -0.1609908 -0.6008212 0.7830044 -0.1609894 -0.6008235 0.7830029 -0.1609894 -0.6008235 0.7830029 -0.1609894 -0.6008235 0.7830029 0.1609912 -0.6008227 0.7830032 0.1609912 -0.6008227 0.7830032 0.1609912 -0.6008227 0.7830032 0.1609889 -0.6008214 0.7830046 0.1609889 -0.6008214 0.7830046 0.1609889 -0.6008214 0.7830046 0.4398331 -0.4398331 0.783003 0.4398331 -0.4398331 0.783003 0.4398331 -0.4398331 0.783003 0.4398331 -0.4398331 0.783003 0.4398331 -0.4398331 0.783003 0.4398331 -0.4398331 0.783003 0.6008212 -0.1609908 0.7830044 0.6008212 -0.1609908 0.7830044 0.6008212 -0.1609908 0.7830044 0.6008235 -0.1609894 0.7830029 0.6008235 -0.1609894 0.7830029 0.6008235 -0.1609894 0.7830029 0.6008227 0.1609912 0.7830032 0.6008227 0.1609912 0.7830032 0.6008227 0.1609912 0.7830032 0.6008214 0.1609889 0.7830046 0.6008214 0.1609889 0.7830046 0.6008214 0.1609889 0.7830046 0.4398331 0.4398331 0.783003 0.4398331 0.4398331 0.783003 0.4398331 0.4398331 0.783003 0.4398331 0.4398331 0.783003 0.4398331 0.4398331 0.783003 0.4398331 0.4398331 0.783003 0.1609908 0.6008212 0.7830044 0.1609908 0.6008212 0.7830044 0.1609908 0.6008212 0.7830044 0.1609894 0.6008235 0.7830029 0.1609894 0.6008235 0.7830029 0.1609894 0.6008235 0.7830029 -0.1609912 0.6008227 0.7830032 -0.1609912 0.6008227 0.7830032 -0.1609912 0.6008227 0.7830032 -0.1609889 0.6008214 0.7830046 -0.1609889 0.6008214 0.7830046 -0.1609889 0.6008214 0.7830046 -0.4398331 0.4398331 0.783003 -0.4398331 0.4398331 0.783003 -0.4398331 0.4398331 0.783003 -0.4398331 0.4398331 0.783003 -0.4398331 0.4398331 0.783003 -0.4398331 0.4398331 0.783003 -0.6008212 0.1609908 0.7830044 -0.6008212 0.1609908 0.7830044 -0.6008212 0.1609908 0.7830044 -0.6008235 0.1609894 0.7830029 -0.6008235 0.1609894 0.7830029 -0.6008235 0.1609894 0.7830029 -0.3806861 -0.1020041 0.9190611 -0.3806861 -0.1020041 0.9190611 -0.3806861 -0.1020041 0.9190611 -0.380686 -0.1020036 0.9190612 -0.380686 -0.1020036 0.9190612 -0.380686 -0.1020036 0.9190612 -0.2786817 -0.2786817 0.9190609 -0.2786817 -0.2786817 0.9190609 -0.2786817 -0.2786817 0.9190609 -0.2786817 -0.2786817 0.9190609 -0.2786817 -0.2786817 0.9190609 -0.2786817 -0.2786817 0.9190609 -0.102004 -0.380686 0.9190611 -0.102004 -0.380686 0.9190611 -0.102004 -0.380686 0.9190611 -0.1020037 -0.3806863 0.9190611 -0.1020037 -0.3806863 0.9190611 -0.1020037 -0.3806863 0.9190611 0.1020041 -0.3806861 0.9190611 0.1020041 -0.3806861 0.9190611 0.1020041 -0.3806861 0.9190611 0.1020036 -0.380686 0.9190612 0.1020036 -0.380686 0.9190612 0.1020036 -0.380686 0.9190612 0.2786817 -0.2786817 0.9190609 0.2786817 -0.2786817 0.9190609 0.2786817 -0.2786817 0.9190609 0.2786817 -0.2786817 0.9190609 0.2786817 -0.2786817 0.9190609 0.2786817 -0.2786817 0.9190609 0.380686 -0.102004 0.9190611 0.380686 -0.102004 0.9190611 0.380686 -0.102004 0.9190611 0.3806863 -0.1020037 0.9190611 0.3806863 -0.1020037 0.9190611 0.3806863 -0.1020037 0.9190611 0.3806861 0.1020041 0.9190611 0.3806861 0.1020041 0.9190611 0.3806861 0.1020041 0.9190611 0.380686 0.1020036 0.9190612 0.380686 0.1020036 0.9190612 0.380686 0.1020036 0.9190612 0.2786817 0.2786817 0.9190609 0.2786817 0.2786817 0.9190609 0.2786817 0.2786817 0.9190609 0.2786817 0.2786817 0.9190609 0.2786817 0.2786817 0.9190609 0.2786817 0.2786817 0.9190609 0.102004 0.380686 0.9190611 0.102004 0.380686 0.9190611 0.102004 0.380686 0.9190611 0.1020037 0.3806863 0.9190611 0.1020037 0.3806863 0.9190611 0.1020037 0.3806863 0.9190611 -0.1020041 0.3806861 0.9190611 -0.1020041 0.3806861 0.9190611 -0.1020041 0.3806861 0.9190611 -0.1020036 0.380686 0.9190612 -0.1020036 0.380686 0.9190612 -0.1020036 0.380686 0.9190612 -0.2786817 0.2786817 0.9190609 -0.2786817 0.2786817 0.9190609 -0.2786817 0.2786817 0.9190609 -0.2786817 0.2786817 0.9190609 -0.2786817 0.2786817 0.9190609 -0.2786817 0.2786817 0.9190609 -0.380686 0.102004 0.9190611 -0.380686 0.102004 0.9190611 -0.380686 0.102004 0.9190611 -0.3806863 0.1020037 0.9190611 -0.3806863 0.1020037 0.9190611 -0.3806863 0.1020037 0.9190611 -0.1304458 -0.0349526 0.9908391 -0.1304458 -0.0349526 0.9908391 -0.1304458 -0.0349526 0.9908391 1.0 0.0 0.0 1.0 0.0 0.0 -0.0954928 -0.0954928 0.9908391 -0.0954928 -0.0954928 0.9908391 -0.0954928 -0.0954928 0.9908391 1.0 0.0 0.0 1.0 0.0 0.0 -0.0349526 -0.1304458 0.9908391 -0.0349526 -0.1304458 0.9908391 -0.0349526 -0.1304458 0.9908391 1.0 0.0 0.0 1.0 0.0 0.0 0.0349526 -0.1304458 0.9908391 0.0349526 -0.1304458 0.9908391 0.0349526 -0.1304458 0.9908391 1.0 0.0 0.0 1.0 0.0 0.0 0.0954928 -0.0954928 0.9908391 0.0954928 -0.0954928 0.9908391 0.0954928 -0.0954928 0.9908391 1.0 0.0 0.0 1.0 0.0 0.0 0.1304458 -0.0349526 0.9908391 0.1304458 -0.0349526 0.9908391 0.1304458 -0.0349526 0.9908391 1.0 0.0 0.0 1.0 0.0 0.0 0.1304458 0.0349526 0.9908391 0.1304458 0.0349526 0.9908391 0.1304458 0.0349526 0.9908391 1.0 0.0 0.0 1.0 0.0 0.0 0.0954928 0.0954928 0.9908391 0.0954928 0.0954928 0.9908391 0.0954928 0.0954928 0.9908391 1.0 0.0 0.0 1.0 0.0 0.0 0.0349526 0.1304458 0.9908391 0.0349526 0.1304458 0.9908391 0.0349526 0.1304458 0.9908391 1.0 0.0 0.0 1.0 0.0 0.0 -0.0349526 0.1304458 0.9908391 -0.0349526 0.1304458 0.9908391 -0.0349526 0.1304458 0.9908391 1.0 0.0 0.0 1.0 0.0 0.0 -0.0954928 0.0954928 0.9908391 -0.0954928 0.0954928 0.9908391 -0.0954928 0.0954928 0.9908391 1.0 0.0 0.0 1.0 0.0 0.0 -0.1304458 0.0349526 0.9908391 -0.1304458 0.0349526 0.9908391 -0.1304458 0.0349526 0.9908391 1.0 0.0 0.0 1.0 0.0 0.0 1.0 0.0 0.0 1.0 0.0 0.0 -0.1304453 -0.0349524 -0.9908392 -0.1304453 -0.0349524 -0.9908392 -0.1304453 -0.0349524 -0.9908392 1.0 0.0 0.0 1.0 0.0 0.0 -0.0954924 -0.0954924 -0.9908392 -0.0954924 -0.0954924 -0.9908392 -0.0954924 -0.0954924 -0.9908392 1.0 0.0 0.0 1.0 0.0 0.0 -0.0349524 -0.1304453 -0.9908392 -0.0349524 -0.1304453 -0.9908392 -0.0349524 -0.1304453 -0.9908392 1.0 0.0 0.0 1.0 0.0 0.0 0.0349524 -0.1304453 -0.9908392 0.0349524 -0.1304453 -0.9908392 0.0349524 -0.1304453 -0.9908392 1.0 0.0 0.0 1.0 0.0 0.0 0.0954924 -0.0954924 -0.9908392 0.0954924 -0.0954924 -0.9908392 0.0954924 -0.0954924 -0.9908392 1.0 0.0 0.0 1.0 0.0 0.0 0.1304453 -0.0349524 -0.9908392 0.1304453 -0.0349524 -0.9908392 0.1304453 -0.0349524 -0.9908392 1.0 0.0 0.0 1.0 0.0 0.0 0.1304453 0.0349524 -0.9908392 0.1304453 0.0349524 -0.9908392 0.1304453 0.0349524 -0.9908392 1.0 0.0 0.0 1.0 0.0 0.0 0.0954924 0.0954924 -0.9908392 0.0954924 0.0954924 -0.9908392 0.0954924 0.0954924 -0.9908392 1.0 0.0 0.0 1.0 0.0 0.0 0.0349524 0.1304453 -0.9908392 0.0349524 0.1304453 -0.9908392 0.0349524 0.1304453 -0.9908392 1.0 0.0 0.0 1.0 0.0 0.0 -0.0349524 0.1304453 -0.9908392 -0.0349524 0.1304453 -0.9908392 -0.0349524 0.1304453 -0.9908392 1.0 0.0 0.0 1.0 0.0 0.0 -0.0954924 0.0954924 -0.9908392 -0.0954924 0.0954924 -0.9908392 -0.0954924 0.0954924 -0.9908392 1.0 0.0 0.0 1.0 0.0 0.0 -0.1304453 0.0349524 -0.9908392 -0.1304453 0.0349524 -0.9908392 -0.1304453 0.0349524 -0.9908392 -0.3806899 -0.1020047 -0.9190595 -0.3806899 -0.1020047 -0.9190595 -0.3806899 -0.1020047 -0.9190595 -0.3806895 -0.102005 -0.9190596 -0.3806895 -0.102005 -0.9190596 -0.3806895 -0.102005 -0.9190596 -0.2786843 -0.2786843 -0.9190594 -0.2786843 -0.2786843 -0.9190594 -0.2786843 -0.2786843 -0.9190594 -0.2786843 -0.2786843 -0.9190595 -0.2786843 -0.2786843 -0.9190595 -0.2786843 -0.2786843 -0.9190595 -0.1020046 -0.3806895 -0.9190596 -0.1020046 -0.3806895 -0.9190596 -0.1020046 -0.3806895 -0.9190596 -0.102005 -0.3806897 -0.9190595 -0.102005 -0.3806897 -0.9190595 -0.102005 -0.3806897 -0.9190595 0.1020047 -0.3806899 -0.9190595 0.1020047 -0.3806899 -0.9190595 0.1020047 -0.3806899 -0.9190595 0.102005 -0.3806895 -0.9190596 0.102005 -0.3806895 -0.9190596 0.102005 -0.3806895 -0.9190596 0.2786843 -0.2786843 -0.9190594 0.2786843 -0.2786843 -0.9190594 0.2786843 -0.2786843 -0.9190594 0.2786843 -0.2786843 -0.9190595 0.2786843 -0.2786843 -0.9190595 0.2786843 -0.2786843 -0.9190595 0.3806895 -0.1020046 -0.9190596 0.3806895 -0.1020046 -0.9190596 0.3806895 -0.1020046 -0.9190596 0.3806897 -0.102005 -0.9190595 0.3806897 -0.102005 -0.9190595 0.3806897 -0.102005 -0.9190595 0.3806899 0.1020047 -0.9190595 0.3806899 0.1020047 -0.9190595 0.3806899 0.1020047 -0.9190595 0.3806895 0.102005 -0.9190596 0.3806895 0.102005 -0.9190596 0.3806895 0.102005 -0.9190596 0.2786843 0.2786843 -0.9190594 0.2786843 0.2786843 -0.9190594 0.2786843 0.2786843 -0.9190594 0.2786843 0.2786843 -0.9190595 0.2786843 0.2786843 -0.9190595 0.2786843 0.2786843 -0.9190595 0.1020046 0.3806895 -0.9190596 0.1020046 0.3806895 -0.9190596 0.1020046 0.3806895 -0.9190596 0.102005 0.3806897 -0.9190595 0.102005 0.3806897 -0.9190595 0.102005 0.3806897 -0.9190595 -0.1020047 0.3806899 -0.9190595 -0.1020047 0.3806899 -0.9190595 -0.1020047 0.3806899 -0.9190595 -0.102005 0.3806895 -0.9190596 -0.102005 0.3806895 -0.9190596 -0.102005 0.3806895 -0.9190596 -0.2786843 0.2786843 -0.9190594 -0.2786843 0.2786843 -0.9190594 -0.2786843 0.2786843 -0.9190594 -0.2786843 0.2786843 -0.9190595 -0.2786843 0.2786843 -0.9190595 -0.2786843 0.2786843 -0.9190595 -0.3806895 0.1020046 -0.9190596 -0.3806895 0.1020046 -0.9190596 -0.3806895 0.1020046 -0.9190596 -0.3806897 0.102005 -0.9190595 -0.3806897 0.102005 -0.9190595 -0.3806897 0.102005 -0.9190595 -0.6008235 -0.1609894 -0.7830029 -0.6008235 -0.1609894 -0.7830029 -0.6008235 -0.1609894 -0.7830029 -0.6008211 -0.1609908 -0.7830044 -0.6008211 -0.1609908 -0.7830044 -0.6008211 -0.1609908 -0.7830044 -0.4398331 -0.4398331 -0.783003 -0.4398331 -0.4398331 -0.783003 -0.4398331 -0.4398331 -0.783003 -0.4398331 -0.4398331 -0.783003 -0.4398331 -0.4398331 -0.783003 -0.4398331 -0.4398331 -0.783003 -0.1609889 -0.6008214 -0.7830046 -0.1609889 -0.6008214 -0.7830046 -0.1609889 -0.6008214 -0.7830046 -0.1609912 -0.6008227 -0.7830032 -0.1609912 -0.6008227 -0.7830032 -0.1609912 -0.6008227 -0.7830032 0.1609894 -0.6008235 -0.7830029 0.1609894 -0.6008235 -0.7830029 0.1609894 -0.6008235 -0.7830029 0.1609908 -0.6008211 -0.7830044 0.1609908 -0.6008211 -0.7830044 0.1609908 -0.6008211 -0.7830044 0.4398331 -0.4398331 -0.783003 0.4398331 -0.4398331 -0.783003 0.4398331 -0.4398331 -0.783003 0.4398331 -0.4398331 -0.783003 0.4398331 -0.4398331 -0.783003 0.4398331 -0.4398331 -0.783003 0.6008214 -0.1609889 -0.7830046 0.6008214 -0.1609889 -0.7830046 0.6008214 -0.1609889 -0.7830046 0.6008227 -0.1609912 -0.7830032 0.6008227 -0.1609912 -0.7830032 0.6008227 -0.1609912 -0.7830032 0.6008235 0.1609894 -0.7830029 0.6008235 0.1609894 -0.7830029 0.6008235 0.1609894 -0.7830029 0.6008211 0.1609908 -0.7830044 0.6008211 0.1609908 -0.7830044 0.6008211 0.1609908 -0.7830044 0.4398331 0.4398331 -0.783003 0.4398331 0.4398331 -0.783003 0.4398331 0.4398331 -0.783003 0.4398331 0.4398331 -0.783003 0.4398331 0.4398331 -0.783003 0.4398331 0.4398331 -0.783003 0.1609889 0.6008214 -0.7830046 0.1609889 0.6008214 -0.7830046 0.1609889 0.6008214 -0.7830046 0.1609912 0.6008227 -0.7830032 0.1609912 0.6008227 -0.7830032 0.1609912 0.6008227 -0.7830032 -0.1609894 0.6008235 -0.7830029 -0.1609894 0.6008235 -0.7830029 -0.1609894 0.6008235 -0.7830029 -0.1609908 0.6008211 -0.7830044 -0.1609908 0.6008211 -0.7830044 -0.1609908 0.6008211 -0.7830044 -0.4398331 0.4398331 -0.783003 -0.4398331 0.4398331 -0.783003 -0.4398331 0.4398331 -0.783003 -0.4398331 0.4398331 -0.783003 -0.4398331 0.4398331 -0.783003 -0.4398331 0.4398331 -0.783003 -0.6008214 0.1609889 -0.7830046 -0.6008214 0.1609889 -0.7830046 -0.6008214 0.1609889 -0.7830046 -0.6008227 0.1609912 -0.7830032 -0.6008227 0.1609912 -0.7830032 -0.6008227 0.1609912 -0.7830032 -0.7760105 -0.207933 -0.5954591 -0.7760105 -0.207933 -0.5954591 -0.7760105 -0.207933 -0.5954591 -0.7760133 -0.2079313 -0.5954561 -0.7760133 -0.2079313 -0.5954561 -0.7760133 -0.2079313 -0.5954561 -0.5680792 -0.5680792 -0.5954593 -0.5680792 -0.5680792 -0.5954593 -0.5680792 -0.5680792 -0.5954593 -0.5680793 -0.5680793 -0.5954594 -0.5680793 -0.5680793 -0.5954594 -0.5680793 -0.5680793 -0.5954594 -0.2079336 -0.7760129 -0.5954558 -0.2079336 -0.7760129 -0.5954558 -0.2079336 -0.7760129 -0.5954558 -0.2079308 -0.7760115 -0.5954588 -0.2079308 -0.7760115 -0.5954588 -0.2079308 -0.7760115 -0.5954588 0.207933 -0.7760105 -0.5954591 0.207933 -0.7760105 -0.5954591 0.207933 -0.7760105 -0.5954591 0.2079313 -0.7760133 -0.5954561 0.2079313 -0.7760133 -0.5954561 0.2079313 -0.7760133 -0.5954561 0.5680792 -0.5680792 -0.5954593 0.5680792 -0.5680792 -0.5954593 0.5680792 -0.5680792 -0.5954593 0.5680793 -0.5680793 -0.5954594 0.5680793 -0.5680793 -0.5954594 0.5680793 -0.5680793 -0.5954594 0.7760129 -0.2079336 -0.5954558 0.7760129 -0.2079336 -0.5954558 0.7760129 -0.2079336 -0.5954558 0.7760115 -0.2079308 -0.5954588 0.7760115 -0.2079308 -0.5954588 0.7760115 -0.2079308 -0.5954588 0.7760105 0.207933 -0.5954591 0.7760105 0.207933 -0.5954591 0.7760105 0.207933 -0.5954591 0.7760133 0.2079313 -0.5954561 0.7760133 0.2079313 -0.5954561 0.7760133 0.2079313 -0.5954561 0.5680792 0.5680792 -0.5954593 0.5680792 0.5680792 -0.5954593 0.5680792 0.5680792 -0.5954593 0.5680793 0.5680793 -0.5954594 0.5680793 0.5680793 -0.5954594 0.5680793 0.5680793 -0.5954594 0.2079336 0.7760129 -0.5954558 0.2079336 0.7760129 -0.5954558 0.2079336 0.7760129 -0.5954558 0.2079308 0.7760115 -0.5954588 0.2079308 0.7760115 -0.5954588 0.2079308 0.7760115 -0.5954588 -0.207933 0.7760105 -0.5954591 -0.207933 0.7760105 -0.5954591 -0.207933 0.7760105 -0.5954591 -0.2079313 0.7760133 -0.5954561 -0.2079313 0.7760133 -0.5954561 -0.2079313 0.7760133 -0.5954561 -0.5680792 0.5680792 -0.5954593 -0.5680792 0.5680792 -0.5954593 -0.5680792 0.5680792 -0.5954593 -0.5680793 0.5680793 -0.5954594 -0.5680793 0.5680793 -0.5954594 -0.5680793 0.5680793 -0.5954594 -0.7760129 0.2079336 -0.5954558 -0.7760129 0.2079336 -0.5954558 -0.7760129 0.2079336 -0.5954558 -0.7760115 0.2079308 -0.5954588 -0.7760115 0.2079308 -0.5954588 -0.7760115 0.2079308 -0.5954588 -0.8968096 -0.2402984 -0.3714691 -0.8968096 -0.2402984 -0.3714691 -0.8968096 -0.2402984 -0.3714691 -0.896808 -0.2402998 -0.3714721 -0.896808 -0.2402998 -0.3714721 -0.896808 -0.2402998 -0.3714721 -0.6565099 -0.6565099 -0.3714691 -0.6565099 -0.6565099 -0.3714691 -0.6565099 -0.6565099 -0.3714691 -0.6565099 -0.6565099 -0.3714691 -0.6565099 -0.6565099 -0.3714691 -0.6565099 -0.6565099 -0.3714691 -0.2402981 -0.8968083 -0.3714722 -0.2402981 -0.8968083 -0.3714722 -0.2402981 -0.8968083 -0.3714722 -0.2403001 -0.896809 -0.3714692 -0.2403001 -0.896809 -0.3714692 -0.2403001 -0.896809 -0.3714692 0.2402984 -0.8968096 -0.3714691 0.2402984 -0.8968096 -0.3714691 0.2402984 -0.8968096 -0.3714691 0.2402998 -0.896808 -0.3714721 0.2402998 -0.896808 -0.3714721 0.2402998 -0.896808 -0.3714721 0.6565099 -0.6565099 -0.3714691 0.6565099 -0.6565099 -0.3714691 0.6565099 -0.6565099 -0.3714691 0.6565099 -0.6565099 -0.3714691 0.6565099 -0.6565099 -0.3714691 0.6565099 -0.6565099 -0.3714691 0.8968083 -0.2402981 -0.3714722 0.8968083 -0.2402981 -0.3714722 0.8968083 -0.2402981 -0.3714722 0.896809 -0.2403001 -0.3714692 0.896809 -0.2403001 -0.3714692 0.896809 -0.2403001 -0.3714692 0.8968096 0.2402984 -0.3714691 0.8968096 0.2402984 -0.3714691 0.8968096 0.2402984 -0.3714691 0.896808 0.2402998 -0.3714721 0.896808 0.2402998 -0.3714721 0.896808 0.2402998 -0.3714721 0.6565099 0.6565099 -0.3714691 0.6565099 0.6565099 -0.3714691 0.6565099 0.6565099 -0.3714691 0.6565099 0.6565099 -0.3714691 0.6565099 0.6565099 -0.3714691 0.6565099 0.6565099 -0.3714691 0.2402981 0.8968083 -0.3714722 0.2402981 0.8968083 -0.3714722 0.2402981 0.8968083 -0.3714722 0.2403001 0.896809 -0.3714692 0.2403001 0.896809 -0.3714692 0.2403001 0.896809 -0.3714692 -0.2402984 0.8968096 -0.3714691 -0.2402984 0.8968096 -0.3714691 -0.2402984 0.8968096 -0.3714691 -0.2402998 0.896808 -0.3714721 -0.2402998 0.896808 -0.3714721 -0.2402998 0.896808 -0.3714721 -0.6565099 0.6565099 -0.3714691 -0.6565099 0.6565099 -0.3714691 -0.6565099 0.6565099 -0.3714691 -0.6565099 0.6565099 -0.3714691 -0.6565099 0.6565099 -0.3714691 -0.6565099 0.6565099 -0.3714691 -0.8968083 0.2402981 -0.3714722 -0.8968083 0.2402981 -0.3714722 -0.8968083 0.2402981 -0.3714722 -0.896809 0.2403001 -0.3714692 -0.896809 0.2403001 -0.3714692 -0.896809 0.2403001 -0.3714692 -0.958209 -0.2567522 -0.1261502 -0.958209 -0.2567522 -0.1261502 -0.958209 -0.2567522 -0.1261502 -0.958209 -0.256752 -0.1261498 -0.958209 -0.256752 -0.1261498 -0.958209 -0.256752 -0.1261498 -0.7014578 -0.7014578 -0.1261501 -0.7014578 -0.7014578 -0.1261501 -0.7014578 -0.7014578 -0.1261501 -0.7014578 -0.7014578 -0.12615 -0.7014578 -0.7014578 -0.12615 -0.7014578 -0.7014578 -0.12615 -0.2567522 -0.958209 -0.1261498 -0.2567522 -0.958209 -0.1261498 -0.2567522 -0.958209 -0.1261498 -0.256752 -0.958209 -0.1261502 -0.256752 -0.958209 -0.1261502 -0.256752 -0.958209 -0.1261502 0.2567522 -0.958209 -0.1261502 0.2567522 -0.958209 -0.1261502 0.2567522 -0.958209 -0.1261502 0.256752 -0.958209 -0.1261498 0.256752 -0.958209 -0.1261498 0.256752 -0.958209 -0.1261498 0.7014578 -0.7014578 -0.1261501 0.7014578 -0.7014578 -0.1261501 0.7014578 -0.7014578 -0.1261501 0.7014578 -0.7014578 -0.12615 0.7014578 -0.7014578 -0.12615 0.7014578 -0.7014578 -0.12615 0.958209 -0.2567522 -0.1261498 0.958209 -0.2567522 -0.1261498 0.958209 -0.2567522 -0.1261498 0.958209 -0.256752 -0.1261502 0.958209 -0.256752 -0.1261502 0.958209 -0.256752 -0.1261502 0.958209 0.2567522 -0.1261502 0.958209 0.2567522 -0.1261502 0.958209 0.2567522 -0.1261502 0.958209 0.256752 -0.1261498 0.958209 0.256752 -0.1261498 0.958209 0.256752 -0.1261498 0.7014578 0.7014578 -0.1261501 0.7014578 0.7014578 -0.1261501 0.7014578 0.7014578 -0.1261501 0.7014578 0.7014578 -0.12615 0.7014578 0.7014578 -0.12615 0.7014578 0.7014578 -0.12615 0.2567522 0.958209 -0.1261498 0.2567522 0.958209 -0.1261498 0.2567522 0.958209 -0.1261498 0.256752 0.958209 -0.1261502 0.256752 0.958209 -0.1261502 0.256752 0.958209 -0.1261502 -0.2567522 0.958209 -0.1261502 -0.2567522 0.958209 -0.1261502 -0.2567522 0.958209 -0.1261502 -0.256752 0.958209 -0.1261498 -0.256752 0.958209 -0.1261498 -0.256752 0.958209 -0.1261498 -0.7014578 0.7014578 -0.1261501 -0.7014578 0.7014578 -0.1261501 -0.7014578 0.7014578 -0.1261501 -0.7014578 0.7014578 -0.12615 -0.7014578 0.7014578 -0.12615 -0.7014578 0.7014578 -0.12615 -0.958209 0.2567522 -0.1261498 -0.958209 0.2567522 -0.1261498 -0.958209 0.2567522 -0.1261498 -0.958209 0.256752 -0.1261502 -0.958209 0.256752 -0.1261502 -0.958209 0.256752 -0.1261502 -0.958209 -0.256752 0.1261503 -0.958209 -0.256752 0.1261503 -0.958209 -0.256752 0.1261503 -0.958209 -0.2567522 0.1261499 -0.958209 -0.2567522 0.1261499 -0.958209 -0.2567522 0.1261499 -0.7014578 -0.7014578 0.1261501 -0.7014578 -0.7014578 0.1261501 -0.7014578 -0.7014578 0.1261501 -0.7014578 -0.7014578 0.1261502 -0.7014578 -0.7014578 0.1261502 -0.7014578 -0.7014578 0.1261502 -0.256752 -0.958209 0.1261499 -0.256752 -0.958209 0.1261499 -0.256752 -0.958209 0.1261499 -0.2567522 -0.958209 0.1261503 -0.2567522 -0.958209 0.1261503 -0.2567522 -0.958209 0.1261503 0.256752 -0.958209 0.1261503 0.256752 -0.958209 0.1261503 0.256752 -0.958209 0.1261503 0.2567522 -0.958209 0.1261499 0.2567522 -0.958209 0.1261499 0.2567522 -0.958209 0.1261499</float_array>
                    <technique_common>
                        <accessor count="840" source="#geometry0-normal-array" stride="3">
                            <param name="X" type="float"/>
                            <param name="Y" type="float"/>
                            <param name="Z" type="float"/>
                        </accessor>
                    </technique_common>
                </source>
                <vertices id="geometry0-vertex">
                    <input semantic="POSITION" source="#geometry0-position"/>
                </vertices>
                <triangles count="288" material="default_ai_0.2_sh_0.2_tr_0.0_dc_r_0.8_g_0.8_b_0.8_sc_r_1.0_g_1.0_b_1.0_ec_r_0.0_g_0.0_b_0_tri">
                    <input offset="0" semantic="VERTEX" source="#geometry0-vertex"/>
                    <input offset="1" semantic="NORMAL" source="#geometry0-normal"/>
                    <p>65 0 66 1 78 2 65 3 78 4 77 5 66 6 67 7 79 8 66 9 79 10 78 11 67 12 68 13 80 14 67 15 80 16 79 17 68 18 69 19 81 20 68 21 81 22 80 23 69 24 70 25 82 26 69 27 82 28 81 29 70 30 71 31 83 32 70 33 83 34 82 35 71 36 72 37 84 38 71 39 84 40 83 41 72 42 62 43 74 44 72 45 74 46 84 47 74 48 73 49 85 50 74 51 85 52 86 53 73 54 75 55 87 56 73 57 87 58 85 59 75 60 76 61 88 62 75 63 88 64 87 65 76 66 77 67 89 68 76 69 89 70 88 71 77 72 78 73 90 74 77 75 90 76 89 77 78 78 79 79 91 80 78 81 91 82 90 83 79 84 80 85 92 86 79 87 92 88 91 89 80 90 81 91 93 92 80 93 93 94 92 95 81 96 82 97 94 98 81 99 94 100 93 101 82 102 83 103 95 104 82 105 95 106 94 107 83 108 84 109 96 110 83 111 96 112 95 113 84 114 74 115 86 116 84 117 86 118 96 119 86 120 85 121 97 122 86 123 97 124 98 125 85 126 87 127 99 128 85 129 99 130 97 131 87 132 88 133 100 134 87 135 100 136 99 137 88 138 89 139 101 140 88 141 101 142 100 143 89 144 90 145 102 146 89 147 102 148 101 149 90 150 91 151 103 152 90 153 103 154 102 155 91 156 92 157 104 158 91 159 104 160 103 161 92 162 93 163 105 164 92 165 105 166 104 167 93 168 94 169 106 170 93 171 106 172 105 173 94 174 95 175 107 176 94 177 107 178 106 179 95 180 96 181 108 182 95 183 108 184 107 185 96 186 86 187 98 188 96 189 98 190 108 191 98 192 97 193 109 194 98 195 109 196 110 197 97 198 99 199 111 200 97 201 111 202 109 203 99 204 100 205 112 206 99 207 112 208 111 209 100 210 101 211 113 212 100 213 113 214 112 215 101 216 102 217 114 218 101 219 114 220 113 221 102 222 103 223 115 224 102 225 115 226 114 227 103 228 104 229 116 230 103 231 116 232 115 233 104 234 105 235 117 236 104 237 117 238 116 239 105 240 106 241 118 242 105 243 118 244 117 245 106 246 107 247 119 248 106 249 119 250 118 251 107 252 108 253 120 254 107 255 120 256 119 257 108 258 98 259 110 260 108 261 110 262 120 263 110 264 109 265 121 266 110 267 121 268 122 269 109 270 111 271 123 272 109 273 123 274 121 275 111 276 112 277 124 278 111 279 124 280 123 281 112 282 113 283 125 284 112 285 125 286 124 287 113 288 114 289 126 290 113 291 126 292 125 293 114 294 115 295 127 296 114 297 127 298 126 299 115 300 116 301 128 302 115 303 128 304 127 305 116 306 117 307 129 308 116 309 129 310 128 311 117 312 118 313 130 314 117 315 130 316 129 317 118 318 119 319 131 320 118 321 131 322 130 323 119 324 120 325 132 326 119 327 132 328 131 329 120 330 110 331 122 332 120 333 122 334 132 335 122 336 121 337 133 338 122 339 133 340 133 340 121 341 123 342 133 343 121 344 133 345 133 345 123 346 124 347 133 348 123 349 133 350 133 350 124 351 125 352 133 353 124 354 133 355 133 355 125 356 126 357 133 358 125 359 133 360 133 360 126 361 127 362 133 363 126 364 133 365 133 365 127 366 128 367 133 368 127 369 133 370 133 370 128 371 129 372 133 373 128 374 133 375 133 375 129 376 130 377 133 378 129 379 133 380 133 380 130 381 131 382 133 383 130 384 133 385 133 385 131 386 132 387 133 388 131 389 133 390 133 390 132 391 122 392 133 393 132 394 133 395 133 395 0 396 0 396 1 397 0 398 1 399 2 400 0 401 0 401 3 402 0 403 3 404 1 405 0 406 0 406 4 407 0 408 4 409 3 410 0 411 0 411 5 412 0 413 5 414 4 415 0 416 0 416 6 417 0 418 6 419 5 420 0 421 0 421 7 422 0 423 7 424 6 425 0 426 0 426 8 427 0 428 8 429 7 430 0 431 0 431 9 432 0 433 9 434 8 435 0 436 0 436 10 437 0 438 10 439 9 440 0 441 0 441 11 442 0 443 11 444 10 445 0 446 0 446 12 447 0 448 12 449 11 450 0 451 0 451 2 452 0 453 2 454 12 455 2 456 1 457 13 458 2 459 13 460 14 461 1 462 3 463 15 464 1 465 15 466 13 467 3 468 4 469 16 470 3 471 16 472 15 473 4 474 5 475 17 476 4 477 17 478 16 479 5 480 6 481 18 482 5 483 18 484 17 485 6 486 7 487 19 488 6 489 19 490 18 491 7 492 8 493 20 494 7 495 20 496 19 497 8 498 9 499 21 500 8 501 21 502 20 503 9 504 10 505 22 506 9 507 22 508 21 509 10 510 11 511 23 512 10 513 23 514 22 515 11 516 12 517 24 518 11 519 24 520 23 521 12 522 2 523 14 524 12 525 14 526 24 527 14 528 13 529 25 530 14 531 25 532 26 533 13 534 15 535 27 536 13 537 27 538 25 539 15 540 16 541 28 542 15 543 28 544 27 545 16 546 17 547 29 548 16 549 29 550 28 551 17 552 18 553 30 554 17 555 30 556 29 557 18 558 19 559 31 560 18 561 31 562 30 563 19 564 20 565 32 566 19 567 32 568 31 569 20 570 21 571 33 572 20 573 33 574 32 575 21 576 22 577 34 578 21 579 34 580 33 581 22 582 23 583 35 584 22 585 35 586 34 587 23 588 24 589 36 590 23 591 36 592 35 593 24 594 14 595 26 596 24 597 26 598 36 599 26 600 25 601 37 602 26 603 37 604 38 605 25 606 27 607 39 608 25 609 39 610 37 611 27 612 28 613 40 614 27 615 40 616 39 617 28 618 29 619 41 620 28 621 41 622 40 623 29 624 30 625 42 626 29 627 42 628 41 629 30 630 31 631 43 632 30 633 43 634 42 635 31 636 32 637 44 638 31 639 44 640 43 641 32 642 33 643 45 644 32 645 45 646 44 647 33 648 34 649 46 650 33 651 46 652 45 653 34 654 35 655 47 656 34 657 47 658 46 659 35 660 36 661 48 662 35 663 48 664 47 665 36 666 26 667 38 668 36 669 38 670 48 671 38 672 37 673 49 674 38 675 49 676 50 677 37 678 39 679 51 680 37 681 51 682 49 683 39 684 40 685 52 686 39 687 52 688 51 689 40 690 41 691 53 692 40 693 53 694 52 695 41 696 42 697 54 698 41 699 54 700 53 701 42 702 43 703 55 704 42 705 55 706 54 707 43 708 44 709 56 710 43 711 56 712 55 713 44 714 45 715 57 716 44 717 57 718 56 719 45 720 46 721 58 722 45 723 58 724 57 725 46 726 47 727 59 728 46 729 59 730 58 731 47 732 48 733 60 734 47 735 60 736 59 737 48 738 38 739 50 740 48 741 50 742 60 743 50 744 49 745 61 746 50 747 61 748 62 749 49 750 51 751 63 752 49 753 63 754 61 755 51 756 52 757 64 758 51 759 64 760 63 761 52 762 53 763 65 764 52 765 65 766 64 767 53 768 54 769 66 770 53 771 66 772 65 773 54 774 55 775 67 776 54 777 67 778 66 779 55 780 56 781 68 782 55 783 68 784 67 785 56 786 57 787 69 788 56 789 69 790 68 791 57 792 58 793 70 794 57 795 70 796 69 797 58 798 59 799 71 800 58 801 71 802 70 803 59 804 60 805 72 806 59 807 72 808 71 809 60 810 50 811 62 812 60 813 62 814 72 815 62 816 61 817 73 818 62 819 73 820 74 821 61 822 63 823 75 824 61 825 75 826 73 827 63 828 64 829 76 830 63 831 76 832 75 833 64 834 65 835 77 836 64 837 77 838 76 839</p>
                </triangles>
            </mesh>
        </geometry>
    </library_geometries>
    <library_visual_scenes>
        <visual_scene id="Building_31_CROWN1">
            <node>
                <instance_geometry url="#geometry0">
                    <bind_material>
                        <technique_common>
                            <instance_material symbol="default_ai_0.2_sh_0.2_tr_0.0_dc_r_0.8_g_0.8_b_0.8_sc_r_1.0_g_1.0_b_1.0_ec_r_0.0_g_0.0_b_0_tri" target="#default_ai_0.2_sh_0.2_tr_0.0_dc_r_0.8_g_0.8_b_0.8_sc_r_1.0_g_1.0_b_1.0_ec_r_0.0_g_0.0_b_0_mat"/>
                        </technique_common>
                    </bind_material>
                </instance_geometry>
            </node>
        </visual_scene>
    </library_visual_scenes>
    <scene>
        <instance_visual_scene url="#Building_31_CROWN1"/>
    </scene>
</COLLADA>
