<?xml version="1.0" encoding="UTF-8" standalone="yes"?>
<COLLADA xmlns="http://www.collada.org/2005/11/COLLADASchema" version="1.4.1">
    <asset>
        <contributor>
            <authoring_tool>3D City Database Importer/Exporter, version 5.5.3; Chair of Geoinformatics, Technical University of Munich</authoring_tool>
        </contributor>
        <created>2026-09-25T14:45:00.113</created>
        <modified>2026-09-25T14:45:00.113</modified>
        <unit meter="1.0" name="meters"/>
        <up_axis>Z_UP</up_axis>
    </asset>
    <library_materials>
        <material id="default_ai_0.2_sh_0.2_tr_0.0_dc_r_0.8_g_0.8_b_0.8_sc_r_1.0_g_1.0_b_1.0_ec_r_0.0_g_0.0_b_0_mat">
            <instance_effect url="#default_ai_0.2_sh_0.2_tr_0.0_dc_r_0.8_g_0.8_b_0.8_sc_r_1.0_g_1.0_b_1.0_ec_r_0.0_g_0.0_b_0_eff"/>
        </material>
    </library_materials>
    <library_effects>
        <effect id="default_ai_0.2_sh_0.2_tr_0.0_dc_r_0.8_g_0.8_b_0.8_sc_r_1.0_g_1.0_b_1.0_ec_r_0.0_g_0.0_b_0_eff">
            <profile_COMMON>
                <technique sid="COMMON">
                    <lambert>
                        <emission>
                            <color>0.0 0.0 0.0 1.0</color>
                        </emission>
                        <diffuse>
                            <color>0.8 0.8 0.8 1.0</color>
                        </diffuse>
                        <reflective>
                            <color>1.0 1.0 1.0 1.0</color>
                        </reflective>
                        <reflectivity>
                            <float>0.2</float>
                        </reflectivity>
                        <transparent opaque="A_ONE">
                            <color>1.0 1.0 1.0 1.0</color>
                        </transparent>
                        <transparency>
                            <float>1.0</float>
                        </transparency>
                    </lambert>
                </technique>
                <extra>
                    <technique profile="GOOGLEEARTH">
                        <double_sided>0</double_sided>
                    </technique>
                </extra>
            </profile_COMMON>
        </effect>
    </library_effects>
    <library_geometries>
        <geometry id="geometry0">
            <mesh>
                <source id="geometry0-position">
                    <float_array id="geometry0-position-array" count="78">0.0 0.0 0.0 -0.0056941 0.02125 0.0 -0.0056941 0.02125 1.416667 0.0 0.0 1.416667 -0.02125 0.0368059 0.0 -0.02125 0.0368059 1.416667 -0.0425 0.0425 0.0 -0.0425 0.0425 1.416667 -0.06375 0.0368059 0.0 -0.06375 0.0368059 1.416667 -0.0793058 0.02125 0.0 -0.0793058 0.02125 1.416667 -0.085 0.0 0.0 -0.085 0.0 1.416667 -0.0793058 -0.02125 0.0 -0.0793058 -0.02125 1.416667 -0.06375 -0.0368059 0.0 -0.06375 -0.0368059 1.416667 -0.0425 -0.0425 0.0 -0.0425 -0.0425 1.416667 -0.02125 -0.0368059 0.0 -0.02125 -0.0368059 1.416667 -0.0056941 -0.02125 0.0 -0.0056941 -0.02125 1.416667 -0.0425 0.0 0.0 -0.0425 0.0 1.416667</float_array>
                    <technique_common>
                        <accessor count="26" source="#geometry0-position-array" stride="3">
                            <param name="X" type="float"/>
                            <param name="Y" type="float"/>
                            <param name="Z" type="float"/>
                        </accessor>
                    </technique_common>
                </source>
                <source id="geometry0-normal">
                    <float_array id="geometry0-normal-array" count="432">-0.7071067 0.7071068 0.0 -0.7071067 0.7071068 0.0 -0.7071067 0.7071068 0.0 -0.7071067 0.7071068 0.0 -0.7071067 0.7071068 0.0 -0.7071067 0.7071068 0.0 -0.9659232 0.2588288 0.0 -0.9659232 0.2588288 0.0 -0.9659232 0.2588288 0.0 -0.9659232 0.2588288 0.0 -0.9659232 0.2588288 0.0 -0.9659232 0.2588288 0.0 -0.9659232 -0.2588288 0.0 -0.9659232 -0.2588288 0.0 -0.9659232 -0.2588288 0.0 -0.9659232 -0.2588288 0.0 -0.9659232 -0.2588288 0.0 -0.9659232 -0.2588288 0.0 -0.7071067 -0.7071068 0.0 -0.7071067 -0.7071068 0.0 -0.7071067 -0.7071068 0.0 -0.7071067 -0.7071068 0.0 -0.7071067 -0.7071068 0.0 -0.7071067 -0.7071068 0.0 -0.2588288 -0.9659232 0.0 -0.2588288 -0.9659232 0.0 -0.2588288 -0.9659232 0.0 -0.2588288 -0.9659232 0.0 -0.2588288 -0.9659232 0.0 -0.2588288 -0.9659232 0.0 0.2588288 -0.9659232 0.0 0.2588288 -0.9659232 0.0 0.2588288 -0.9659232 0.0 0.2588288 -0.9659232 0.0 0.2588288 -0.9659232 0.0 0.2588288 -0.9659232 0.0 0.7071068 -0.7071068 0.0 0.7071068 -0.7071068 0.0 0.7071068 -0.7071068 0.0 0.7071068 -0.7071068 0.0 0.7071068 -0.7071068 0.0 0.7071068 -0.7071068 0.0 0.9659232 -0.2588288 0.0 0.9659232 -0.2588288 0.0 0.9659232 -0.2588288 0.0 0.9659232 -0.2588288 0.0 0.9659232 -0.2588288 0.0 0.9659232 -0.2588288 0.0 0.0 0.0 -1.0 0.0 0.0 -1.0 0.0 0.0 -1.0 0.0 0.0 -1.0 0.0 0.0 -1.0 0.0 0.0 -1.0 0.0 0.0 -1.0 0.0 0.0 -1.0 0.0 0.0 -1.0 0.0 0.0 -1.0 0.0 0.0 -1.0 0.0 0.0 -1.0 0.0 0.0 -1.0 0.0 0.0 -1.0 0.0 0.0 -1.0 0.0 0.0 -1.0 0.0 0.0 -1.0 0.0 0.0 -1.0 0.0 0.0 -1.0 0.0 0.0 -1.0 0.0 0.0 -1.0 0.0 0.0 -1.0 0.0 0.0 -1.0 0.0 0.0 -1.0 0.0 0.0 -1.0 0.0 0.0 -1.0 0.0 0.0 -1.0 0.0 0.0 -1.0 0.0 0.0 -1.0 0.0 0.0 -1.0 0.0 0.0 -1.0 0.0 0.0 -1.0 0.0 0.0 -1.0 0.0 0.0 -1.0 0.0 0.0 -1.0 0.0 0.0 -1.0 0.0 0.0 1.0 0.0 0.0 1.0 0.0 0.0 1.0 0.0 0.0 1.0 0.0 0.0 1.0 0.0 0.0 1.0 0.0 0.0 1.0 0.0 0.0 1.0 0.0 0.0 1.0 0.0 0.0 1.0 0.0 0.0 1.0 0.0 0.0 1.0 0.0 0.0 1.0 0.0 0.0 1.0 0.0 0.0 1.0 0.0 0.0 1.0 0.0 0.0 1.0 0.0 0.0 1.0 0.0 0.0 1.0 0.0 0.0 1.0 0.0 0.0 1.0 0.0 0.0 1.0 0.0 0.0 1.0 0.0 0.0 1.0 0.0 0.0 1.0 0.0 0.0 1.0 0.0 0.0 1.0 0.0 0.0 1.0 0.0 0.0 1.0 0.0 0.0 1.0 0.0 0.0 1.0 0.0 0.0 1.0 0.0 0.0 1.0 0.0 0.0 1.0 0.0 0.0 1.0 0.0 0.0 1.0 0.9659232 0.2588288 0.0 0.9659232 0.2588288 0.0 0.9659232 0.2588288 0.0 0.9659232 0.2588288 0.0 0.9659232 0.2588288 0.0 0.9659232 0.2588288 0.0 0.7071068 0.7071068 0.0 0.7071068 0.7071068 0.0 0.7071068 0.7071068 0.0 0.7071068 0.7071068 0.0 0.7071068 0.7071068 0.0 0.7071068 0.7071068 0.0 0.2588288 0.9659232 0.0 0.2588288 0.9659232 0.0 0.2588288 0.9659232 0.0 0.2588288 0.9659232 0.0 0.2588288 0.9659232 0.0 0.2588288 0.9659232 0.0 -0.2588288 0.9659232 0.0 -0.2588288 0.9659232 0.0 -0.2588288 0.9659232 0.0 -0.2588288 0.9659232 0.0 -0.2588288 0.9659232 0.0 -0.2588288 0.9659232 0.0</float_array>
                    <technique_common>
                        <accessor count="144" source="#geometry0-normal-array" stride="3">
                            <param name="X" type="float"/>
                            <param name="Y" type="float"/>
                            <param name="Z" type="float"/>
                        </accessor>
                    </technique_common>
                </source>
                <vertices id="geometry0-vertex">
                    <input semantic="POSITION" source="#geometry0-position"/>
                </vertices>
                <triangles count="48" material="default_ai_0.2_sh_0.2_tr_0.0_dc_r_0.8_g_0.8_b_0.8_sc_r_1.0_g_1.0_b_1.0_ec_r_0.0_g_0.0_b_0_tri">
                    <input offset="0" semantic="VERTEX" source="#geometry0-vertex"/>
                    <input offset="1" semantic="NORMAL" source="#geometry0-normal"/>
                    <p>8 0 10 1 11 2 8 3 11 4 9 5 10 6 12 7 13 8 10 9 13 10 11 11 12 12 14 13 15 14 12 15 15 16 13 17 14 18 16 19 17 20 14 21 17 22 15 23 16 24 18 25 19 26 16 27 19 28 17 29 18 30 20 31 21 32 18 33 21 34 19 35 20 36 22 37 23 38 20 39 23 40 21 41 22 42 0 43 3 44 22 45 3 46 23 47 24 48 1 49 0 50 24 51 4 52 1 53 24 54 6 55 4 56 24 57 8 58 6 59 24 60 10 61 8 62 24 63 12 64 10 65 24 66 14 67 12 68 24 69 16 70 14 71 24 72 18 73 16 74 24 75 20 76 18 77 24 78 22 79 20 80 24 81 0 82 22 83 25 84 3 85 2 86 25 87 2 88 5 89 25 90 5 91 7 92 25 93 7 94 9 95 25 96 9 97 11 98 25 99 11 100 13 101 25 102 13 103 15 104 25 105 15 106 17 107 25 108 17 109 19 110 25 111 19 112 21 113 25 114 21 115 23 116 25 117 23 118 3 119 0 120 1 121 2 122 0 123 2 124 3 125 1 126 4 127 5 128 1 129 5 130 2 131 4 132 6 133 7 134 4 135 7 136 5 137 6 138 8 139 9 140 6 141 9 142 7 143</p>
                </triangles>
            </mesh>
        </geometry>
    </library_geometries>
    <library_visual_scenes>
        <visual_scene id="Building_195_TRUNK1">
            <node>
                <instance_geometry url="#geometry0">
                    <bind_material>
                        <technique_common>
                            <instance_material symbol="default_ai_0.2_sh_0.2_tr_0.0_dc_r_0.8_g_0.8_b_0.8_sc_r_1.0_g_1.0_b_1.0_ec_r_0.0_g_0.0_b_0_tri" target="#default_ai_0.2_sh_0.2_tr_0.0_dc_r_0.8_g_0.8_b_0.8_sc_r_1.0_g_1.0_b_1.0_ec_r_0.0_g_0.0_b_0_mat"/>
                        </technique_common>
                    </bind_material>
                </instance_geometry>
            </node>
        </visual_scene>
    </library_visual_scenes>
    <scene>
        <instance_visual_scene url="#Building_195_TRUNK1"/>
    </scene>
</COLLADA>
