<?xml version="1.0" encoding="UTF-8" standalone="yes"?>
<COLLADA xmlns="http://www.collada.org/2005/11/COLLADASchema" version="1.4.1">
    <asset>
        <contributor>
            <authoring_tool>3D City Database Importer/Exporter, version 5.5.3; Chair of Geoinformatics, Technical University of Munich</authoring_tool>
        </contributor>
        <created>2026-09-25T14:45:04.885</created>
        <modified>2026-09-25T14:45:04.885</modified>
        <unit meter="1.0" name="meters"/>
        <up_axis>Z_UP</up_axis>
    </asset>
    <library_materials>
        <material id="default_ai_0.2_sh_0.2_tr_0.0_dc_r_0.8_g_0.8_b_0.8_sc_r_1.0_g_1.0_b_1.0_ec_r_0.0_g_0.0_b_0_mat">
            <instance_effect url="#default_ai_0.2_sh_0.2_tr_0.0_dc_r_0.8_g_0.8_b_0.8_sc_r_1.0_g_1.0_b_1.0_ec_r_0.0_g_0.0_b_0_eff"/>
        </material>
    </library_materials>
    <library_effects>
        <effect id="default_ai_0.2_sh_0.2_tr_0.0_dc_r_0.8_g_0.8_b_0.8_sc_r_1.0_g_1.0_b_1.0_ec_r_0.0_g_0.0_b_0_eff">
            <profile_COMMON>
                <technique sid="COMMON">
                    <lambert>
                        <emission>
                            <color>0.0 0.0 0.0 1.0</color>
                        </emission>
                        <diffuse>
                            <color>0.8 0.8 0.8 1.0</color>
                        </diffuse>
                        <reflective>
                            <color>1.0 1.0 1.0 1.0</color>
                        </reflective>
                        <reflectivity>
                            <float>0.2</float>
                        </reflectivity>
                        <transparent opaque="A_ONE">
                            <color>1.0 1.0 1.0 1.0</color>
                        </transparent>
                        <transparency>
                            <float>1.0</float>
                        </transparency>
                    </lambert>
                </technique>
                <extra>
                    <technique profile="GOOGLEEARTH">
                        <double_sided>0</double_sided>
                    </technique>
                </extra>
            </profile_COMMON>
        </effect>
    </library_effects>
    <library_geometries>
        <geometry id="geometry0">
            <mesh>
                <source id="geometry0-position">
                    <float_array id="geometry0-position-array" count="402">0.0 0.0 1.4 0.1569008 0.090587 1.3761482 0.1811733 0.0 1.3761482 0.090587 0.1569008 1.3761482 0.0 0.1811733 1.3761482 -0.090587 0.1569008 1.3761482 -0.1569008 0.090587 1.3761482 -0.1811733 0.0 1.3761482 -0.1569008 -0.090587 1.3761482 -0.090587 -0.1569008 1.3761482 0.0 -0.1811733 1.3761482 0.090587 -0.1569008 1.3761482 0.1569008 -0.090587 1.3761482 0.3031091 0.175 1.3062175 0.35 0.0 1.3062175 0.175 0.3031091 1.3062175 0.0 0.35 1.3062175 -0.175 0.3031091 1.3062175 -0.3031091 0.175 1.3062175 -0.35 0.0 1.3062175 -0.3031091 -0.175 1.3062175 -0.175 -0.3031091 1.3062175 0.0 -0.35 1.3062175 0.175 -0.3031091 1.3062175 0.3031091 -0.175 1.3062175 0.4286604 0.2474871 1.1949742 0.4949749 0.0 1.1949742 0.2474871 0.4286604 1.1949742 0.0 0.4949749 1.1949742 -0.2474871 0.4286604 1.1949742 -0.4286604 0.2474871 1.1949742 -0.4949749 0.0 1.1949742 -0.4286604 -0.2474871 1.1949742 -0.2474871 -0.4286604 1.1949742 0.0 -0.4949749 1.1949742 0.2474871 -0.4286604 1.1949742 0.4286604 -0.2474871 1.1949742 0.525 0.3031091 1.05 0.6062175 0.0 1.05 0.3031091 0.525 1.05 0.0 0.6062175 1.05 -0.3031091 0.525 1.05 -0.525 0.3031091 1.05 -0.6062175 0.0 1.05 -0.525 -0.3031091 1.05 -0.3031091 -0.525 1.05 0.0 -0.6062175 1.05 0.3031091 -0.525 1.05 0.525 -0.3031091 1.05 0.5855612 0.3380741 0.8811733 0.6761482 0.0 0.8811733 0.3380741 0.5855612 0.8811733 0.0 0.6761482 0.8811733 -0.3380741 0.5855612 0.8811733 -0.5855612 0.3380741 0.8811733 -0.6761482 0.0 0.8811733 -0.5855612 -0.3380741 0.8811733 -0.3380741 -0.5855612 0.8811733 0.0 -0.6761482 0.8811733 0.3380741 -0.5855612 0.8811733 0.5855612 -0.3380741 0.8811733 0.6062175 0.35 0.7 0.7 0.0 0.7 0.35 0.6062175 0.7 0.0 0.7 0.7 -0.35 0.6062175 0.7 -0.6062175 0.35 0.7 -0.7 0.0 0.7 -0.6062175 -0.35 0.7 -0.35 -0.6062175 0.7 0.0 -0.7 0.7 0.35 -0.6062175 0.7 0.6062175 -0.35 0.7 0.5855612 0.3380741 0.5188267 0.6761482 0.0 0.5188267 0.3380741 0.5855612 0.5188267 0.0 0.6761482 0.5188267 -0.3380741 0.5855612 0.5188267 -0.5855612 0.3380741 0.5188267 -0.6761482 0.0 0.5188267 -0.5855612 -0.3380741 0.5188267 -0.3380741 -0.5855612 0.5188267 0.0 -0.6761482 0.5188267 0.3380741 -0.5855612 0.5188267 0.5855612 -0.3380741 0.5188267 0.525 0.3031091 0.35 0.6062175 0.0 0.35 0.3031091 0.525 0.35 0.0 0.6062175 0.35 -0.3031091 0.525 0.35 -0.525 0.3031091 0.35 -0.6062175 0.0 0.35 -0.525 -0.3031091 0.35 -0.3031091 -0.525 0.35 0.0 -0.6062175 0.35 0.3031091 -0.525 0.35 0.525 -0.3031091 0.35 0.4286604 0.2474871 0.2050251 0.4949749 0.0 0.2050251 0.2474871 0.4286604 0.2050251 0.0 0.4949749 0.2050251 -0.2474871 0.4286604 0.2050251 -0.4286604 0.2474871 0.2050251 -0.4949749 0.0 0.2050251 -0.4286604 -0.2474871 0.2050251 -0.2474871 -0.4286604 0.2050251 0.0 -0.4949749 0.2050251 0.2474871 -0.4286604 0.2050251 0.4286604 -0.2474871 0.2050251 0.3031091 0.175 0.0937818 0.35 0.0 0.0937818 0.175 0.3031091 0.0937818 0.0 0.35 0.0937818 -0.175 0.3031091 0.0937818 -0.3031091 0.175 0.0937818 -0.35 0.0 0.0937818 -0.3031091 -0.175 0.0937818 -0.175 -0.3031091 0.0937818 0.0 -0.35 0.0937818 0.175 -0.3031091 0.0937818 0.3031091 -0.175 0.0937818 0.1569008 0.090587 0.0238518 0.1811733 0.0 0.0238518 0.090587 0.1569008 0.0238518 0.0 0.1811733 0.0238518 -0.090587 0.1569008 0.0238518 -0.1569008 0.090587 0.0238518 -0.1811733 0.0 0.0238518 -0.1569008 -0.090587 0.0238518 -0.090587 -0.1569008 0.0238518 0.0 -0.1811733 0.0238518 0.090587 -0.1569008 0.0238518 0.1569008 -0.090587 0.0238518 0.0 0.0 0.0</float_array>
                    <technique_common>
                        <accessor count="134" source="#geometry0-position-array" stride="3">
                            <param name="X" type="float"/>
                            <param name="Y" type="float"/>
                            <param name="Z" type="float"/>
                        </accessor>
                    </technique_common>
                </source>
                <source id="geometry0-normal">
                    <float_array id="geometry0-normal-array" count="2520">-0.3806861 -0.102004 0.9190611 -0.3806861 -0.102004 0.9190611 -0.3806861 -0.102004 0.9190611 -0.3806859 -0.1020036 0.9190612 -0.3806859 -0.1020036 0.9190612 -0.3806859 -0.1020036 0.9190612 -0.2786817 -0.2786817 0.9190609 -0.2786817 -0.2786817 0.9190609 -0.2786817 -0.2786817 0.9190609 -0.2786817 -0.2786817 0.9190609 -0.2786817 -0.2786817 0.9190609 -0.2786817 -0.2786817 0.9190609 -0.102004 -0.3806859 0.9190612 -0.102004 -0.3806859 0.9190612 -0.102004 -0.3806859 0.9190612 -0.1020037 -0.3806863 0.919061 -0.1020037 -0.3806863 0.919061 -0.1020037 -0.3806863 0.919061 0.102004 -0.3806861 0.9190611 0.102004 -0.3806861 0.9190611 0.102004 -0.3806861 0.9190611 0.1020036 -0.3806859 0.9190612 0.1020036 -0.3806859 0.9190612 0.1020036 -0.3806859 0.9190612 0.2786817 -0.2786817 0.9190609 0.2786817 -0.2786817 0.9190609 0.2786817 -0.2786817 0.9190609 0.2786817 -0.2786817 0.9190609 0.2786817 -0.2786817 0.9190609 0.2786817 -0.2786817 0.9190609 0.3806859 -0.102004 0.9190612 0.3806859 -0.102004 0.9190612 0.3806859 -0.102004 0.9190612 0.3806863 -0.1020037 0.919061 0.3806863 -0.1020037 0.919061 0.3806863 -0.1020037 0.919061 0.3806861 0.102004 0.9190611 0.3806861 0.102004 0.9190611 0.3806861 0.102004 0.9190611 0.3806859 0.1020036 0.9190612 0.3806859 0.1020036 0.9190612 0.3806859 0.1020036 0.9190612 0.2786817 0.2786817 0.9190609 0.2786817 0.2786817 0.9190609 0.2786817 0.2786817 0.9190609 0.2786817 0.2786817 0.9190609 0.2786817 0.2786817 0.9190609 0.2786817 0.2786817 0.9190609 0.102004 0.3806859 0.9190612 0.102004 0.3806859 0.9190612 0.102004 0.3806859 0.9190612 0.1020037 0.3806863 0.919061 0.1020037 0.3806863 0.919061 0.1020037 0.3806863 0.919061 -0.102004 0.3806861 0.9190611 -0.102004 0.3806861 0.9190611 -0.102004 0.3806861 0.9190611 -0.1020036 0.3806859 0.9190612 -0.1020036 0.3806859 0.9190612 -0.1020036 0.3806859 0.9190612 -0.2786817 0.2786817 0.9190609 -0.2786817 0.2786817 0.9190609 -0.2786817 0.2786817 0.9190609 -0.2786817 0.2786817 0.9190609 -0.2786817 0.2786817 0.9190609 -0.2786817 0.2786817 0.9190609 -0.3806859 0.102004 0.9190612 -0.3806859 0.102004 0.9190612 -0.3806859 0.102004 0.9190612 -0.3806863 0.1020037 0.919061 -0.3806863 0.1020037 0.919061 -0.3806863 0.1020037 0.919061 -0.1304458 -0.0349525 0.9908391 -0.1304458 -0.0349525 0.9908391 -0.1304458 -0.0349525 0.9908391 1.0 0.0 0.0 1.0 0.0 0.0 -0.0954928 -0.0954928 0.9908392 -0.0954928 -0.0954928 0.9908392 -0.0954928 -0.0954928 0.9908392 1.0 0.0 0.0 1.0 0.0 0.0 -0.0349525 -0.1304458 0.9908391 -0.0349525 -0.1304458 0.9908391 -0.0349525 -0.1304458 0.9908391 1.0 0.0 0.0 1.0 0.0 0.0 0.0349525 -0.1304458 0.9908391 0.0349525 -0.1304458 0.9908391 0.0349525 -0.1304458 0.9908391 1.0 0.0 0.0 1.0 0.0 0.0 0.0954928 -0.0954928 0.9908392 0.0954928 -0.0954928 0.9908392 0.0954928 -0.0954928 0.9908392 1.0 0.0 0.0 1.0 0.0 0.0 0.1304458 -0.0349525 0.9908391 0.1304458 -0.0349525 0.9908391 0.1304458 -0.0349525 0.9908391 1.0 0.0 0.0 1.0 0.0 0.0 0.1304458 0.0349525 0.9908391 0.1304458 0.0349525 0.9908391 0.1304458 0.0349525 0.9908391 1.0 0.0 0.0 1.0 0.0 0.0 0.0954928 0.0954928 0.9908392 0.0954928 0.0954928 0.9908392 0.0954928 0.0954928 0.9908392 1.0 0.0 0.0 1.0 0.0 0.0 0.0349525 0.1304458 0.9908391 0.0349525 0.1304458 0.9908391 0.0349525 0.1304458 0.9908391 1.0 0.0 0.0 1.0 0.0 0.0 -0.0349525 0.1304458 0.9908391 -0.0349525 0.1304458 0.9908391 -0.0349525 0.1304458 0.9908391 1.0 0.0 0.0 1.0 0.0 0.0 -0.0954928 0.0954928 0.9908392 -0.0954928 0.0954928 0.9908392 -0.0954928 0.0954928 0.9908392 1.0 0.0 0.0 1.0 0.0 0.0 -0.1304458 0.0349525 0.9908391 -0.1304458 0.0349525 0.9908391 -0.1304458 0.0349525 0.9908391 1.0 0.0 0.0 1.0 0.0 0.0 1.0 0.0 0.0 1.0 0.0 0.0 -0.1304456 -0.0349525 -0.9908392 -0.1304456 -0.0349525 -0.9908392 -0.1304456 -0.0349525 -0.9908392 1.0 0.0 0.0 1.0 0.0 0.0 -0.0954926 -0.0954926 -0.9908392 -0.0954926 -0.0954926 -0.9908392 -0.0954926 -0.0954926 -0.9908392 1.0 0.0 0.0 1.0 0.0 0.0 -0.0349525 -0.1304456 -0.9908392 -0.0349525 -0.1304456 -0.9908392 -0.0349525 -0.1304456 -0.9908392 1.0 0.0 0.0 1.0 0.0 0.0 0.0349525 -0.1304456 -0.9908392 0.0349525 -0.1304456 -0.9908392 0.0349525 -0.1304456 -0.9908392 1.0 0.0 0.0 1.0 0.0 0.0 0.0954926 -0.0954926 -0.9908392 0.0954926 -0.0954926 -0.9908392 0.0954926 -0.0954926 -0.9908392 1.0 0.0 0.0 1.0 0.0 0.0 0.1304456 -0.0349525 -0.9908392 0.1304456 -0.0349525 -0.9908392 0.1304456 -0.0349525 -0.9908392 1.0 0.0 0.0 1.0 0.0 0.0 0.1304456 0.0349525 -0.9908392 0.1304456 0.0349525 -0.9908392 0.1304456 0.0349525 -0.9908392 1.0 0.0 0.0 1.0 0.0 0.0 0.0954926 0.0954926 -0.9908392 0.0954926 0.0954926 -0.9908392 0.0954926 0.0954926 -0.9908392 1.0 0.0 0.0 1.0 0.0 0.0 0.0349525 0.1304456 -0.9908392 0.0349525 0.1304456 -0.9908392 0.0349525 0.1304456 -0.9908392 1.0 0.0 0.0 1.0 0.0 0.0 -0.0349525 0.1304456 -0.9908392 -0.0349525 0.1304456 -0.9908392 -0.0349525 0.1304456 -0.9908392 1.0 0.0 0.0 1.0 0.0 0.0 -0.0954926 0.0954926 -0.9908392 -0.0954926 0.0954926 -0.9908392 -0.0954926 0.0954926 -0.9908392 1.0 0.0 0.0 1.0 0.0 0.0 -0.1304456 0.0349525 -0.9908392 -0.1304456 0.0349525 -0.9908392 -0.1304456 0.0349525 -0.9908392 -0.3806894 -0.1020045 -0.9190596 -0.3806894 -0.1020045 -0.9190596 -0.3806894 -0.1020045 -0.9190596 -0.380689 -0.1020048 -0.9190598 -0.380689 -0.1020048 -0.9190598 -0.380689 -0.1020048 -0.9190598 -0.2786839 -0.2786839 -0.9190596 -0.2786839 -0.2786839 -0.9190596 -0.2786839 -0.2786839 -0.9190596 -0.2786839 -0.2786839 -0.9190596 -0.2786839 -0.2786839 -0.9190596 -0.2786839 -0.2786839 -0.9190596 -0.1020044 -0.380689 -0.9190598 -0.1020044 -0.380689 -0.9190598 -0.1020044 -0.380689 -0.9190598 -0.1020049 -0.3806892 -0.9190597 -0.1020049 -0.3806892 -0.9190597 -0.1020049 -0.3806892 -0.9190597 0.1020045 -0.3806894 -0.9190596 0.1020045 -0.3806894 -0.9190596 0.1020045 -0.3806894 -0.9190596 0.1020048 -0.380689 -0.9190598 0.1020048 -0.380689 -0.9190598 0.1020048 -0.380689 -0.9190598 0.2786839 -0.2786839 -0.9190596 0.2786839 -0.2786839 -0.9190596 0.2786839 -0.2786839 -0.9190596 0.2786839 -0.2786839 -0.9190596 0.2786839 -0.2786839 -0.9190596 0.2786839 -0.2786839 -0.9190596 0.380689 -0.1020044 -0.9190598 0.380689 -0.1020044 -0.9190598 0.380689 -0.1020044 -0.9190598 0.3806892 -0.1020049 -0.9190597 0.3806892 -0.1020049 -0.9190597 0.3806892 -0.1020049 -0.9190597 0.3806894 0.1020045 -0.9190596 0.3806894 0.1020045 -0.9190596 0.3806894 0.1020045 -0.9190596 0.380689 0.1020048 -0.9190598 0.380689 0.1020048 -0.9190598 0.380689 0.1020048 -0.9190598 0.2786839 0.2786839 -0.9190596 0.2786839 0.2786839 -0.9190596 0.2786839 0.2786839 -0.9190596 0.2786839 0.2786839 -0.9190596 0.2786839 0.2786839 -0.9190596 0.2786839 0.2786839 -0.9190596 0.1020044 0.380689 -0.9190598 0.1020044 0.380689 -0.9190598 0.1020044 0.380689 -0.9190598 0.1020049 0.3806892 -0.9190597 0.1020049 0.3806892 -0.9190597 0.1020049 0.3806892 -0.9190597 -0.1020045 0.3806894 -0.9190596 -0.1020045 0.3806894 -0.9190596 -0.1020045 0.3806894 -0.9190596 -0.1020048 0.380689 -0.9190598 -0.1020048 0.380689 -0.9190598 -0.1020048 0.380689 -0.9190598 -0.2786839 0.2786839 -0.9190596 -0.2786839 0.2786839 -0.9190596 -0.2786839 0.2786839 -0.9190596 -0.2786839 0.2786839 -0.9190596 -0.2786839 0.2786839 -0.9190596 -0.2786839 0.2786839 -0.9190596 -0.380689 0.1020044 -0.9190598 -0.380689 0.1020044 -0.9190598 -0.380689 0.1020044 -0.9190598 -0.3806892 0.1020049 -0.9190597 -0.3806892 0.1020049 -0.9190597 -0.3806892 0.1020049 -0.9190597 -0.6008238 -0.1609895 -0.7830027 -0.6008238 -0.1609895 -0.7830027 -0.6008238 -0.1609895 -0.7830027 -0.6008213 -0.1609909 -0.7830042 -0.6008213 -0.1609909 -0.7830042 -0.6008213 -0.1609909 -0.7830042 -0.4398333 -0.4398333 -0.7830028 -0.4398333 -0.4398333 -0.7830028 -0.4398333 -0.4398333 -0.7830028 -0.4398333 -0.4398333 -0.7830028 -0.4398333 -0.4398333 -0.7830028 -0.4398333 -0.4398333 -0.7830028 -0.1609889 -0.6008216 -0.7830045 -0.1609889 -0.6008216 -0.7830045 -0.1609889 -0.6008216 -0.7830045 -0.1609913 -0.6008229 -0.783003 -0.1609913 -0.6008229 -0.783003 -0.1609913 -0.6008229 -0.783003 0.1609895 -0.6008238 -0.7830027 0.1609895 -0.6008238 -0.7830027 0.1609895 -0.6008238 -0.7830027 0.1609909 -0.6008213 -0.7830042 0.1609909 -0.6008213 -0.7830042 0.1609909 -0.6008213 -0.7830042 0.4398333 -0.4398333 -0.7830028 0.4398333 -0.4398333 -0.7830028 0.4398333 -0.4398333 -0.7830028 0.4398333 -0.4398333 -0.7830028 0.4398333 -0.4398333 -0.7830028 0.4398333 -0.4398333 -0.7830028 0.6008216 -0.1609889 -0.7830045 0.6008216 -0.1609889 -0.7830045 0.6008216 -0.1609889 -0.7830045 0.6008229 -0.1609913 -0.783003 0.6008229 -0.1609913 -0.783003 0.6008229 -0.1609913 -0.783003 0.6008238 0.1609895 -0.7830027 0.6008238 0.1609895 -0.7830027 0.6008238 0.1609895 -0.7830027 0.6008213 0.1609909 -0.7830042 0.6008213 0.1609909 -0.7830042 0.6008213 0.1609909 -0.7830042 0.4398333 0.4398333 -0.7830028 0.4398333 0.4398333 -0.7830028 0.4398333 0.4398333 -0.7830028 0.4398333 0.4398333 -0.7830028 0.4398333 0.4398333 -0.7830028 0.4398333 0.4398333 -0.7830028 0.1609889 0.6008216 -0.7830045 0.1609889 0.6008216 -0.7830045 0.1609889 0.6008216 -0.7830045 0.1609913 0.6008229 -0.783003 0.1609913 0.6008229 -0.783003 0.1609913 0.6008229 -0.783003 -0.1609895 0.6008238 -0.7830027 -0.1609895 0.6008238 -0.7830027 -0.1609895 0.6008238 -0.7830027 -0.1609909 0.6008213 -0.7830042 -0.1609909 0.6008213 -0.7830042 -0.1609909 0.6008213 -0.7830042 -0.4398333 0.4398333 -0.7830028 -0.4398333 0.4398333 -0.7830028 -0.4398333 0.4398333 -0.7830028 -0.4398333 0.4398333 -0.7830028 -0.4398333 0.4398333 -0.7830028 -0.4398333 0.4398333 -0.7830028 -0.6008216 0.1609889 -0.7830045 -0.6008216 0.1609889 -0.7830045 -0.6008216 0.1609889 -0.7830045 -0.6008229 0.1609913 -0.783003 -0.6008229 0.1609913 -0.783003 -0.6008229 0.1609913 -0.783003 -0.7760106 -0.2079331 -0.5954589 -0.7760106 -0.2079331 -0.5954589 -0.7760106 -0.2079331 -0.5954589 -0.7760134 -0.2079314 -0.5954558 -0.7760134 -0.2079314 -0.5954558 -0.7760134 -0.2079314 -0.5954558 -0.5680794 -0.5680794 -0.5954593 -0.5680794 -0.5680794 -0.5954593 -0.5680794 -0.5680794 -0.5954593 -0.5680794 -0.5680794 -0.5954592 -0.5680794 -0.5680794 -0.5954592 -0.5680794 -0.5680794 -0.5954592 -0.2079338 -0.7760131 -0.5954555 -0.2079338 -0.7760131 -0.5954555 -0.2079338 -0.7760131 -0.5954555 -0.2079308 -0.7760114 -0.5954586 -0.2079308 -0.7760114 -0.5954586 -0.2079308 -0.7760114 -0.5954586 0.2079331 -0.7760106 -0.5954589 0.2079331 -0.7760106 -0.5954589 0.2079331 -0.7760106 -0.5954589 0.2079314 -0.7760134 -0.5954558 0.2079314 -0.7760134 -0.5954558 0.2079314 -0.7760134 -0.5954558 0.5680794 -0.5680794 -0.5954593 0.5680794 -0.5680794 -0.5954593 0.5680794 -0.5680794 -0.5954593 0.5680794 -0.5680794 -0.5954592 0.5680794 -0.5680794 -0.5954592 0.5680794 -0.5680794 -0.5954592 0.7760131 -0.2079338 -0.5954555 0.7760131 -0.2079338 -0.5954555 0.7760131 -0.2079338 -0.5954555 0.7760114 -0.2079308 -0.5954586 0.7760114 -0.2079308 -0.5954586 0.7760114 -0.2079308 -0.5954586 0.7760106 0.2079331 -0.5954589 0.7760106 0.2079331 -0.5954589 0.7760106 0.2079331 -0.5954589 0.7760134 0.2079314 -0.5954558 0.7760134 0.2079314 -0.5954558 0.7760134 0.2079314 -0.5954558 0.5680794 0.5680794 -0.5954593 0.5680794 0.5680794 -0.5954593 0.5680794 0.5680794 -0.5954593 0.5680794 0.5680794 -0.5954592 0.5680794 0.5680794 -0.5954592 0.5680794 0.5680794 -0.5954592 0.2079338 0.7760131 -0.5954555 0.2079338 0.7760131 -0.5954555 0.2079338 0.7760131 -0.5954555 0.2079308 0.7760114 -0.5954586 0.2079308 0.7760114 -0.5954586 0.2079308 0.7760114 -0.5954586 -0.2079331 0.7760106 -0.5954589 -0.2079331 0.7760106 -0.5954589 -0.2079331 0.7760106 -0.5954589 -0.2079314 0.7760134 -0.5954558 -0.2079314 0.7760134 -0.5954558 -0.2079314 0.7760134 -0.5954558 -0.5680794 0.5680794 -0.5954593 -0.5680794 0.5680794 -0.5954593 -0.5680794 0.5680794 -0.5954593 -0.5680794 0.5680794 -0.5954592 -0.5680794 0.5680794 -0.5954592 -0.5680794 0.5680794 -0.5954592 -0.7760131 0.2079338 -0.5954555 -0.7760131 0.2079338 -0.5954555 -0.7760131 0.2079338 -0.5954555 -0.7760114 0.2079308 -0.5954586 -0.7760114 0.2079308 -0.5954586 -0.7760114 0.2079308 -0.5954586 -0.8968095 -0.2402985 -0.3714693 -0.8968095 -0.2402985 -0.3714693 -0.8968095 -0.2402985 -0.3714693 -0.896808 -0.2402997 -0.3714721 -0.896808 -0.2402997 -0.3714721 -0.896808 -0.2402997 -0.3714721 -0.6565099 -0.6565099 -0.3714693 -0.6565099 -0.6565099 -0.3714693 -0.6565099 -0.6565099 -0.3714693 -0.6565099 -0.6565099 -0.3714693 -0.6565099 -0.6565099 -0.3714693 -0.6565099 -0.6565099 -0.3714693 -0.2402982 -0.8968083 -0.3714722 -0.2402982 -0.8968083 -0.3714722 -0.2402982 -0.8968083 -0.3714722 -0.2403 -0.896809 -0.3714695 -0.2403 -0.896809 -0.3714695 -0.2403 -0.896809 -0.3714695 0.2402985 -0.8968095 -0.3714693 0.2402985 -0.8968095 -0.3714693 0.2402985 -0.8968095 -0.3714693 0.2402997 -0.896808 -0.3714721 0.2402997 -0.896808 -0.3714721 0.2402997 -0.896808 -0.3714721 0.6565099 -0.6565099 -0.3714693 0.6565099 -0.6565099 -0.3714693 0.6565099 -0.6565099 -0.3714693 0.6565099 -0.6565099 -0.3714693 0.6565099 -0.6565099 -0.3714693 0.6565099 -0.6565099 -0.3714693 0.8968083 -0.2402982 -0.3714722 0.8968083 -0.2402982 -0.3714722 0.8968083 -0.2402982 -0.3714722 0.896809 -0.2403 -0.3714695 0.896809 -0.2403 -0.3714695 0.896809 -0.2403 -0.3714695 0.8968095 0.2402985 -0.3714693 0.8968095 0.2402985 -0.3714693 0.8968095 0.2402985 -0.3714693 0.896808 0.2402997 -0.3714721 0.896808 0.2402997 -0.3714721 0.896808 0.2402997 -0.3714721 0.6565099 0.6565099 -0.3714693 0.6565099 0.6565099 -0.3714693 0.6565099 0.6565099 -0.3714693 0.6565099 0.6565099 -0.3714693 0.6565099 0.6565099 -0.3714693 0.6565099 0.6565099 -0.3714693 0.2402982 0.8968083 -0.3714722 0.2402982 0.8968083 -0.3714722 0.2402982 0.8968083 -0.3714722 0.2403 0.896809 -0.3714695 0.2403 0.896809 -0.3714695 0.2403 0.896809 -0.3714695 -0.2402985 0.8968095 -0.3714693 -0.2402985 0.8968095 -0.3714693 -0.2402985 0.8968095 -0.3714693 -0.2402997 0.896808 -0.3714721 -0.2402997 0.896808 -0.3714721 -0.2402997 0.896808 -0.3714721 -0.6565099 0.6565099 -0.3714693 -0.6565099 0.6565099 -0.3714693 -0.6565099 0.6565099 -0.3714693 -0.6565099 0.6565099 -0.3714693 -0.6565099 0.6565099 -0.3714693 -0.6565099 0.6565099 -0.3714693 -0.8968083 0.2402982 -0.3714722 -0.8968083 0.2402982 -0.3714722 -0.8968083 0.2402982 -0.3714722 -0.896809 0.2403 -0.3714695 -0.896809 0.2403 -0.3714695 -0.896809 0.2403 -0.3714695 -0.958209 -0.2567521 -0.1261501 -0.958209 -0.2567521 -0.1261501 -0.958209 -0.2567521 -0.1261501 -0.958209 -0.2567521 -0.12615 -0.958209 -0.2567521 -0.12615 -0.958209 -0.2567521 -0.12615 -0.7014578 -0.7014578 -0.1261501 -0.7014578 -0.7014578 -0.1261501 -0.7014578 -0.7014578 -0.1261501 -0.7014578 -0.7014578 -0.1261501 -0.7014578 -0.7014578 -0.1261501 -0.7014578 -0.7014578 -0.1261501 -0.2567521 -0.958209 -0.12615 -0.2567521 -0.958209 -0.12615 -0.2567521 -0.958209 -0.12615 -0.2567521 -0.958209 -0.1261501 -0.2567521 -0.958209 -0.1261501 -0.2567521 -0.958209 -0.1261501 0.2567521 -0.958209 -0.1261501 0.2567521 -0.958209 -0.1261501 0.2567521 -0.958209 -0.1261501 0.2567521 -0.958209 -0.12615 0.2567521 -0.958209 -0.12615 0.2567521 -0.958209 -0.12615 0.7014578 -0.7014578 -0.1261501 0.7014578 -0.7014578 -0.1261501 0.7014578 -0.7014578 -0.1261501 0.7014578 -0.7014578 -0.1261501 0.7014578 -0.7014578 -0.1261501 0.7014578 -0.7014578 -0.1261501 0.958209 -0.2567521 -0.12615 0.958209 -0.2567521 -0.12615 0.958209 -0.2567521 -0.12615 0.958209 -0.2567521 -0.1261501 0.958209 -0.2567521 -0.1261501 0.958209 -0.2567521 -0.1261501 0.958209 0.2567521 -0.1261501 0.958209 0.2567521 -0.1261501 0.958209 0.2567521 -0.1261501 0.958209 0.2567521 -0.12615 0.958209 0.2567521 -0.12615 0.958209 0.2567521 -0.12615 0.7014578 0.7014578 -0.1261501 0.7014578 0.7014578 -0.1261501 0.7014578 0.7014578 -0.1261501 0.7014578 0.7014578 -0.1261501 0.7014578 0.7014578 -0.1261501 0.7014578 0.7014578 -0.1261501 0.2567521 0.958209 -0.12615 0.2567521 0.958209 -0.12615 0.2567521 0.958209 -0.12615 0.2567521 0.958209 -0.1261501 0.2567521 0.958209 -0.1261501 0.2567521 0.958209 -0.1261501 -0.2567521 0.958209 -0.1261501 -0.2567521 0.958209 -0.1261501 -0.2567521 0.958209 -0.1261501 -0.2567521 0.958209 -0.12615 -0.2567521 0.958209 -0.12615 -0.2567521 0.958209 -0.12615 -0.7014578 0.7014578 -0.1261501 -0.7014578 0.7014578 -0.1261501 -0.7014578 0.7014578 -0.1261501 -0.7014578 0.7014578 -0.1261501 -0.7014578 0.7014578 -0.1261501 -0.7014578 0.7014578 -0.1261501 -0.958209 0.2567521 -0.12615 -0.958209 0.2567521 -0.12615 -0.958209 0.2567521 -0.12615 -0.958209 0.2567521 -0.1261501 -0.958209 0.2567521 -0.1261501 -0.958209 0.2567521 -0.1261501 -0.9582091 -0.2567521 0.1261502 -0.9582091 -0.2567521 0.1261502 -0.9582091 -0.2567521 0.1261502 -0.958209 -0.2567521 0.12615 -0.958209 -0.2567521 0.12615 -0.958209 -0.2567521 0.12615 -0.7014578 -0.7014578 0.1261501 -0.7014578 -0.7014578 0.1261501 -0.7014578 -0.7014578 0.1261501 -0.7014578 -0.7014578 0.1261502 -0.7014578 -0.7014578 0.1261502 -0.7014578 -0.7014578 0.1261502 -0.2567521 -0.9582091 0.1261501 -0.2567521 -0.9582091 0.1261501 -0.2567521 -0.9582091 0.1261501 -0.2567521 -0.958209 0.1261502 -0.2567521 -0.958209 0.1261502 -0.2567521 -0.958209 0.1261502 0.2567521 -0.9582091 0.1261502 0.2567521 -0.9582091 0.1261502 0.2567521 -0.9582091 0.1261502 0.2567521 -0.958209 0.12615 0.2567521 -0.958209 0.12615 0.2567521 -0.958209 0.12615 0.7014578 -0.7014578 0.1261501 0.7014578 -0.7014578 0.1261501 0.7014578 -0.7014578 0.1261501 0.7014578 -0.7014578 0.1261502 0.7014578 -0.7014578 0.1261502 0.7014578 -0.7014578 0.1261502 0.9582091 -0.2567521 0.1261501 0.9582091 -0.2567521 0.1261501 0.9582091 -0.2567521 0.1261501 0.958209 -0.2567521 0.1261502 0.958209 -0.2567521 0.1261502 0.958209 -0.2567521 0.1261502 0.9582091 0.2567521 0.1261502 0.9582091 0.2567521 0.1261502 0.9582091 0.2567521 0.1261502 0.958209 0.2567521 0.12615 0.958209 0.2567521 0.12615 0.958209 0.2567521 0.12615 0.7014578 0.7014578 0.1261501 0.7014578 0.7014578 0.1261501 0.7014578 0.7014578 0.1261501 0.7014578 0.7014578 0.1261502 0.7014578 0.7014578 0.1261502 0.7014578 0.7014578 0.1261502 0.2567521 0.9582091 0.1261501 0.2567521 0.9582091 0.1261501 0.2567521 0.9582091 0.1261501 0.2567521 0.958209 0.1261502 0.2567521 0.958209 0.1261502 0.2567521 0.958209 0.1261502 -0.2567521 0.9582091 0.1261502 -0.2567521 0.9582091 0.1261502 -0.2567521 0.9582091 0.1261502 -0.2567521 0.958209 0.12615 -0.2567521 0.958209 0.12615 -0.2567521 0.958209 0.12615 -0.7014578 0.7014578 0.1261501 -0.7014578 0.7014578 0.1261501 -0.7014578 0.7014578 0.1261501 -0.7014578 0.7014578 0.1261502 -0.7014578 0.7014578 0.1261502 -0.7014578 0.7014578 0.1261502 -0.9582091 0.2567521 0.1261501 -0.9582091 0.2567521 0.1261501 -0.9582091 0.2567521 0.1261501 -0.958209 0.2567521 0.1261502 -0.958209 0.2567521 0.1261502 -0.958209 0.2567521 0.1261502 -0.8968091 -0.2403 0.3714693 -0.8968091 -0.2403 0.3714693 -0.8968091 -0.2403 0.3714693 -0.8968084 -0.2402982 0.3714721 -0.8968084 -0.2402982 0.3714721 -0.8968084 -0.2402982 0.3714721 -0.65651 -0.65651 0.3714691 -0.65651 -0.65651 0.3714691 -0.65651 -0.65651 0.3714691 -0.6565099 -0.6565099 0.3714692 -0.6565099 -0.6565099 0.3714692 -0.6565099 -0.6565099 0.3714692 -0.2402997 -0.896808 0.3714719 -0.2402997 -0.896808 0.3714719 -0.2402997 -0.896808 0.3714719 -0.2402984 -0.8968095 0.3714692 -0.2402984 -0.8968095 0.3714692 -0.2402984 -0.8968095 0.3714692 0.2403 -0.8968091 0.3714693 0.2403 -0.8968091 0.3714693 0.2403 -0.8968091 0.3714693 0.2402982 -0.8968084 0.3714721 0.2402982 -0.8968084 0.3714721 0.2402982 -0.8968084 0.3714721 0.65651 -0.65651 0.3714691 0.65651 -0.65651 0.3714691 0.65651 -0.65651 0.3714691 0.6565099 -0.6565099 0.3714692 0.6565099 -0.6565099 0.3714692 0.6565099 -0.6565099 0.3714692 0.896808 -0.2402997 0.3714719 0.896808 -0.2402997 0.3714719 0.896808 -0.2402997 0.3714719 0.8968095 -0.2402984 0.3714692 0.8968095 -0.2402984 0.3714692 0.8968095 -0.2402984 0.3714692 0.8968091 0.2403 0.3714693 0.8968091 0.2403 0.3714693 0.8968091 0.2403 0.3714693 0.8968084 0.2402982 0.3714721 0.8968084 0.2402982 0.3714721 0.8968084 0.2402982 0.3714721 0.65651 0.65651 0.3714691 0.65651 0.65651 0.3714691 0.65651 0.65651 0.3714691 0.6565099 0.6565099 0.3714692 0.6565099 0.6565099 0.3714692 0.6565099 0.6565099 0.3714692 0.2402997 0.896808 0.3714719 0.2402997 0.896808 0.3714719 0.2402997 0.896808 0.3714719 0.2402984 0.8968095 0.3714692 0.2402984 0.8968095 0.3714692 0.2402984 0.8968095 0.3714692 -0.2403 0.8968091 0.3714693 -0.2403 0.8968091 0.3714693 -0.2403 0.8968091 0.3714693 -0.2402982 0.8968084 0.3714721 -0.2402982 0.8968084 0.3714721 -0.2402982 0.8968084 0.3714721 -0.65651 0.65651 0.3714691 -0.65651 0.65651 0.3714691 -0.65651 0.65651 0.3714691 -0.6565099 0.6565099 0.3714692 -0.6565099 0.6565099 0.3714692 -0.6565099 0.6565099 0.3714692 -0.896808 0.2402997 0.3714719 -0.896808 0.2402997 0.3714719 -0.896808 0.2402997 0.3714719 -0.8968095 0.2402984 0.3714692 -0.8968095 0.2402984 0.3714692 -0.8968095 0.2402984 0.3714692 -0.7760127 -0.2079312 0.5954569 -0.7760127 -0.2079312 0.5954569 -0.7760127 -0.2079312 0.5954569 -0.7760144 -0.2079342 0.5954537 -0.7760144 -0.2079342 0.5954537 -0.7760144 -0.2079342 0.5954537 -0.5680802 -0.5680802 0.5954575 -0.5680802 -0.5680802 0.5954575 -0.5680802 -0.5680802 0.5954575 -0.5680802 -0.5680802 0.5954575 -0.5680802 -0.5680802 0.5954575 -0.5680802 -0.5680802 0.5954575 -0.2079317 -0.7760147 0.595454 -0.2079317 -0.7760147 0.595454 -0.2079317 -0.7760147 0.595454 -0.2079335 -0.7760119 0.5954572 -0.2079335 -0.7760119 0.5954572 -0.2079335 -0.7760119 0.5954572 0.2079312 -0.7760127 0.5954569 0.2079312 -0.7760127 0.5954569 0.2079312 -0.7760127 0.5954569 0.2079342 -0.7760144 0.5954537 0.2079342 -0.7760144 0.5954537 0.2079342 -0.7760144 0.5954537 0.5680802 -0.5680802 0.5954575 0.5680802 -0.5680802 0.5954575 0.5680802 -0.5680802 0.5954575 0.5680802 -0.5680802 0.5954575 0.5680802 -0.5680802 0.5954575 0.5680802 -0.5680802 0.5954575 0.7760147 -0.2079317 0.595454 0.7760147 -0.2079317 0.595454 0.7760147 -0.2079317 0.595454 0.7760119 -0.2079335 0.5954572 0.7760119 -0.2079335 0.5954572 0.7760119 -0.2079335 0.5954572 0.7760127 0.2079312 0.5954569 0.7760127 0.2079312 0.5954569 0.7760127 0.2079312 0.5954569 0.7760144 0.2079342 0.5954537 0.7760144 0.2079342 0.5954537 0.7760144 0.2079342 0.5954537 0.5680802 0.5680802 0.5954575 0.5680802 0.5680802 0.5954575 0.5680802 0.5680802 0.5954575 0.5680802 0.5680802 0.5954575 0.5680802 0.5680802 0.5954575 0.5680802 0.5680802 0.5954575 0.2079317 0.7760147 0.595454 0.2079317 0.7760147 0.595454 0.2079317 0.7760147 0.595454 0.2079335 0.7760119 0.5954572 0.2079335 0.7760119 0.5954572 0.2079335 0.7760119 0.5954572 -0.2079312 0.7760127 0.5954569 -0.2079312 0.7760127 0.5954569 -0.2079312 0.7760127 0.5954569 -0.2079342 0.7760144 0.5954537 -0.2079342 0.7760144 0.5954537 -0.2079342 0.7760144 0.5954537 -0.5680802 0.5680802 0.5954575 -0.5680802 0.5680802 0.5954575 -0.5680802 0.5680802 0.5954575 -0.5680802 0.5680802 0.5954575 -0.5680802 0.5680802 0.5954575 -0.5680802 0.5680802 0.5954575 -0.7760147 0.2079317 0.595454 -0.7760147 0.2079317 0.595454 -0.7760147 0.2079317 0.595454 -0.7760119 0.2079335 0.5954572 -0.7760119 0.2079335 0.5954572 -0.7760119 0.2079335 0.5954572 -0.6008227 -0.1609913 0.7830031 -0.6008227 -0.1609913 0.7830031 -0.6008227 -0.1609913 0.7830031 -0.6008214 -0.1609889 0.7830047 -0.6008214 -0.1609889 0.7830047 -0.6008214 -0.1609889 0.7830047 -0.4398332 -0.4398332 0.783003 -0.4398332 -0.4398332 0.783003 -0.4398332 -0.4398332 0.783003 -0.4398331 -0.4398331 0.7830029 -0.4398331 -0.4398331 0.7830029 -0.4398331 -0.4398331 0.7830029 -0.1609909 -0.6008211 0.7830043 -0.1609909 -0.6008211 0.7830043 -0.1609909 -0.6008211 0.7830043 -0.1609894 -0.6008236 0.7830029 -0.1609894 -0.6008236 0.7830029 -0.1609894 -0.6008236 0.7830029 0.1609913 -0.6008227 0.7830031 0.1609913 -0.6008227 0.7830031 0.1609913 -0.6008227 0.7830031 0.1609889 -0.6008214 0.7830047 0.1609889 -0.6008214 0.7830047 0.1609889 -0.6008214 0.7830047 0.4398332 -0.4398332 0.783003 0.4398332 -0.4398332 0.783003 0.4398332 -0.4398332 0.783003 0.4398331 -0.4398331 0.7830029 0.4398331 -0.4398331 0.7830029 0.4398331 -0.4398331 0.7830029 0.6008211 -0.1609909 0.7830043 0.6008211 -0.1609909 0.7830043 0.6008211 -0.1609909 0.7830043 0.6008236 -0.1609894 0.7830029 0.6008236 -0.1609894 0.7830029 0.6008236 -0.1609894 0.7830029 0.6008227 0.1609913 0.7830031 0.6008227 0.1609913 0.7830031 0.6008227 0.1609913 0.7830031 0.6008214 0.1609889 0.7830047 0.6008214 0.1609889 0.7830047 0.6008214 0.1609889 0.7830047 0.4398332 0.4398332 0.783003 0.4398332 0.4398332 0.783003 0.4398332 0.4398332 0.783003 0.4398331 0.4398331 0.7830029 0.4398331 0.4398331 0.7830029 0.4398331 0.4398331 0.7830029 0.1609909 0.6008211 0.7830043 0.1609909 0.6008211 0.7830043 0.1609909 0.6008211 0.7830043 0.1609894 0.6008236 0.7830029 0.1609894 0.6008236 0.7830029 0.1609894 0.6008236 0.7830029 -0.1609913 0.6008227 0.7830031 -0.1609913 0.6008227 0.7830031 -0.1609913 0.6008227 0.7830031 -0.1609889 0.6008214 0.7830047 -0.1609889 0.6008214 0.7830047 -0.1609889 0.6008214 0.7830047 -0.4398332 0.4398332 0.783003 -0.4398332 0.4398332 0.783003 -0.4398332 0.4398332 0.783003 -0.4398331 0.4398331 0.7830029 -0.4398331 0.4398331 0.7830029 -0.4398331 0.4398331 0.7830029 -0.6008211 0.1609909 0.7830043 -0.6008211 0.1609909 0.7830043 -0.6008211 0.1609909 0.7830043 -0.6008236 0.1609894 0.7830029 -0.6008236 0.1609894 0.7830029 -0.6008236 0.1609894 0.7830029</float_array>
                    <technique_common>
                        <accessor count="840" source="#geometry0-normal-array" stride="3">
                            <param name="X" type="float"/>
                            <param name="Y" type="float"/>
                            <param name="Z" type="float"/>
                        </accessor>
                    </technique_common>
                </source>
                <vertices id="geometry0-vertex">
                    <input semantic="POSITION" source="#geometry0-position"/>
                </vertices>
                <triangles count="288" material="default_ai_0.2_sh_0.2_tr_0.0_dc_r_0.8_g_0.8_b_0.8_sc_r_1.0_g_1.0_b_1.0_ec_r_0.0_g_0.0_b_0_tri">
                    <input offset="0" semantic="VERTEX" source="#geometry0-vertex"/>
                    <input offset="1" semantic="NORMAL" source="#geometry0-normal"/>
                    <p>110 0 109 1 121 2 110 3 121 4 122 5 109 6 111 7 123 8 109 9 123 10 121 11 111 12 112 13 124 14 111 15 124 16 123 17 112 18 113 19 125 20 112 21 125 22 124 23 113 24 114 25 126 26 113 27 126 28 125 29 114 30 115 31 127 32 114 33 127 34 126 35 115 36 116 37 128 38 115 39 128 40 127 41 116 42 117 43 129 44 116 45 129 46 128 47 117 48 118 49 130 50 117 51 130 52 129 53 118 54 119 55 131 56 118 57 131 58 130 59 119 60 120 61 132 62 119 63 132 64 131 65 120 66 110 67 122 68 120 69 122 70 132 71 122 72 121 73 133 74 122 75 133 76 133 76 121 77 123 78 133 79 121 80 133 81 133 81 123 82 124 83 133 84 123 85 133 86 133 86 124 87 125 88 133 89 124 90 133 91 133 91 125 92 126 93 133 94 125 95 133 96 133 96 126 97 127 98 133 99 126 100 133 101 133 101 127 102 128 103 133 104 127 105 133 106 133 106 128 107 129 108 133 109 128 110 133 111 133 111 129 112 130 113 133 114 129 115 133 116 133 116 130 117 131 118 133 119 130 120 133 121 133 121 131 122 132 123 133 124 131 125 133 126 133 126 132 127 122 128 133 129 132 130 133 131 133 131 0 132 0 132 1 133 0 134 1 135 2 136 0 137 0 137 3 138 0 139 3 140 1 141 0 142 0 142 4 143 0 144 4 145 3 146 0 147 0 147 5 148 0 149 5 150 4 151 0 152 0 152 6 153 0 154 6 155 5 156 0 157 0 157 7 158 0 159 7 160 6 161 0 162 0 162 8 163 0 164 8 165 7 166 0 167 0 167 9 168 0 169 9 170 8 171 0 172 0 172 10 173 0 174 10 175 9 176 0 177 0 177 11 178 0 179 11 180 10 181 0 182 0 182 12 183 0 184 12 185 11 186 0 187 0 187 2 188 0 189 2 190 12 191 2 192 1 193 13 194 2 195 13 196 14 197 1 198 3 199 15 200 1 201 15 202 13 203 3 204 4 205 16 206 3 207 16 208 15 209 4 210 5 211 17 212 4 213 17 214 16 215 5 216 6 217 18 218 5 219 18 220 17 221 6 222 7 223 19 224 6 225 19 226 18 227 7 228 8 229 20 230 7 231 20 232 19 233 8 234 9 235 21 236 8 237 21 238 20 239 9 240 10 241 22 242 9 243 22 244 21 245 10 246 11 247 23 248 10 249 23 250 22 251 11 252 12 253 24 254 11 255 24 256 23 257 12 258 2 259 14 260 12 261 14 262 24 263 14 264 13 265 25 266 14 267 25 268 26 269 13 270 15 271 27 272 13 273 27 274 25 275 15 276 16 277 28 278 15 279 28 280 27 281 16 282 17 283 29 284 16 285 29 286 28 287 17 288 18 289 30 290 17 291 30 292 29 293 18 294 19 295 31 296 18 297 31 298 30 299 19 300 20 301 32 302 19 303 32 304 31 305 20 306 21 307 33 308 20 309 33 310 32 311 21 312 22 313 34 314 21 315 34 316 33 317 22 318 23 319 35 320 22 321 35 322 34 323 23 324 24 325 36 326 23 327 36 328 35 329 24 330 14 331 26 332 24 333 26 334 36 335 26 336 25 337 37 338 26 339 37 340 38 341 25 342 27 343 39 344 25 345 39 346 37 347 27 348 28 349 40 350 27 351 40 352 39 353 28 354 29 355 41 356 28 357 41 358 40 359 29 360 30 361 42 362 29 363 42 364 41 365 30 366 31 367 43 368 30 369 43 370 42 371 31 372 32 373 44 374 31 375 44 376 43 377 32 378 33 379 45 380 32 381 45 382 44 383 33 384 34 385 46 386 33 387 46 388 45 389 34 390 35 391 47 392 34 393 47 394 46 395 35 396 36 397 48 398 35 399 48 400 47 401 36 402 26 403 38 404 36 405 38 406 48 407 38 408 37 409 49 410 38 411 49 412 50 413 37 414 39 415 51 416 37 417 51 418 49 419 39 420 40 421 52 422 39 423 52 424 51 425 40 426 41 427 53 428 40 429 53 430 52 431 41 432 42 433 54 434 41 435 54 436 53 437 42 438 43 439 55 440 42 441 55 442 54 443 43 444 44 445 56 446 43 447 56 448 55 449 44 450 45 451 57 452 44 453 57 454 56 455 45 456 46 457 58 458 45 459 58 460 57 461 46 462 47 463 59 464 46 465 59 466 58 467 47 468 48 469 60 470 47 471 60 472 59 473 48 474 38 475 50 476 48 477 50 478 60 479 50 480 49 481 61 482 50 483 61 484 62 485 49 486 51 487 63 488 49 489 63 490 61 491 51 492 52 493 64 494 51 495 64 496 63 497 52 498 53 499 65 500 52 501 65 502 64 503 53 504 54 505 66 506 53 507 66 508 65 509 54 510 55 511 67 512 54 513 67 514 66 515 55 516 56 517 68 518 55 519 68 520 67 521 56 522 57 523 69 524 56 525 69 526 68 527 57 528 58 529 70 530 57 531 70 532 69 533 58 534 59 535 71 536 58 537 71 538 70 539 59 540 60 541 72 542 59 543 72 544 71 545 60 546 50 547 62 548 60 549 62 550 72 551 62 552 61 553 73 554 62 555 73 556 74 557 61 558 63 559 75 560 61 561 75 562 73 563 63 564 64 565 76 566 63 567 76 568 75 569 64 570 65 571 77 572 64 573 77 574 76 575 65 576 66 577 78 578 65 579 78 580 77 581 66 582 67 583 79 584 66 585 79 586 78 587 67 588 68 589 80 590 67 591 80 592 79 593 68 594 69 595 81 596 68 597 81 598 80 599 69 600 70 601 82 602 69 603 82 604 81 605 70 606 71 607 83 608 70 609 83 610 82 611 71 612 72 613 84 614 71 615 84 616 83 617 72 618 62 619 74 620 72 621 74 622 84 623 74 624 73 625 85 626 74 627 85 628 86 629 73 630 75 631 87 632 73 633 87 634 85 635 75 636 76 637 88 638 75 639 88 640 87 641 76 642 77 643 89 644 76 645 89 646 88 647 77 648 78 649 90 650 77 651 90 652 89 653 78 654 79 655 91 656 78 657 91 658 90 659 79 660 80 661 92 662 79 663 92 664 91 665 80 666 81 667 93 668 80 669 93 670 92 671 81 672 82 673 94 674 81 675 94 676 93 677 82 678 83 679 95 680 82 681 95 682 94 683 83 684 84 685 96 686 83 687 96 688 95 689 84 690 74 691 86 692 84 693 86 694 96 695 86 696 85 697 97 698 86 699 97 700 98 701 85 702 87 703 99 704 85 705 99 706 97 707 87 708 88 709 100 710 87 711 100 712 99 713 88 714 89 715 101 716 88 717 101 718 100 719 89 720 90 721 102 722 89 723 102 724 101 725 90 726 91 727 103 728 90 729 103 730 102 731 91 732 92 733 104 734 91 735 104 736 103 737 92 738 93 739 105 740 92 741 105 742 104 743 93 744 94 745 106 746 93 747 106 748 105 749 94 750 95 751 107 752 94 753 107 754 106 755 95 756 96 757 108 758 95 759 108 760 107 761 96 762 86 763 98 764 96 765 98 766 108 767 98 768 97 769 109 770 98 771 109 772 110 773 97 774 99 775 111 776 97 777 111 778 109 779 99 780 100 781 112 782 99 783 112 784 111 785 100 786 101 787 113 788 100 789 113 790 112 791 101 792 102 793 114 794 101 795 114 796 113 797 102 798 103 799 115 800 102 801 115 802 114 803 103 804 104 805 116 806 103 807 116 808 115 809 104 810 105 811 117 812 104 813 117 814 116 815 105 816 106 817 118 818 105 819 118 820 117 821 106 822 107 823 119 824 106 825 119 826 118 827 107 828 108 829 120 830 107 831 120 832 119 833 108 834 98 835 110 836 108 837 110 838 120 839</p>
                </triangles>
            </mesh>
        </geometry>
    </library_geometries>
    <library_visual_scenes>
        <visual_scene id="Building_161_CROWN1">
            <node>
                <instance_geometry url="#geometry0">
                    <bind_material>
                        <technique_common>
                            <instance_material symbol="default_ai_0.2_sh_0.2_tr_0.0_dc_r_0.8_g_0.8_b_0.8_sc_r_1.0_g_1.0_b_1.0_ec_r_0.0_g_0.0_b_0_tri" target="#default_ai_0.2_sh_0.2_tr_0.0_dc_r_0.8_g_0.8_b_0.8_sc_r_1.0_g_1.0_b_1.0_ec_r_0.0_g_0.0_b_0_mat"/>
                        </technique_common>
                    </bind_material>
                </instance_geometry>
            </node>
        </visual_scene>
    </library_visual_scenes>
    <scene>
        <instance_visual_scene url="#Building_161_CROWN1"/>
    </scene>
</COLLADA>
