<?xml version="1.0" encoding="UTF-8" standalone="yes"?>
<COLLADA xmlns="http://www.collada.org/2005/11/COLLADASchema" version="1.4.1">
    <asset>
        <contributor>
            <authoring_tool>3D City Database Importer/Exporter, version 5.5.3; Chair of Geoinformatics, Technical University of Munich</authoring_tool>
        </contributor>
        <created>2026-09-25T14:44:51.065</created>
        <modified>2026-09-25T14:44:51.065</modified>
        <unit meter="1.0" name="meters"/>
        <up_axis>Z_UP</up_axis>
    </asset>
    <library_materials>
        <material id="default_ai_0.2_sh_0.2_tr_0.0_dc_r_0.8_g_0.8_b_0.8_sc_r_1.0_g_1.0_b_1.0_ec_r_0.0_g_0.0_b_0_mat">
            <instance_effect url="#default_ai_0.2_sh_0.2_tr_0.0_dc_r_0.8_g_0.8_b_0.8_sc_r_1.0_g_1.0_b_1.0_ec_r_0.0_g_0.0_b_0_eff"/>
        </material>
    </library_materials>
    <library_effects>
        <effect id="default_ai_0.2_sh_0.2_tr_0.0_dc_r_0.8_g_0.8_b_0.8_sc_r_1.0_g_1.0_b_1.0_ec_r_0.0_g_0.0_b_0_eff">
            <profile_COMMON>
                <technique sid="COMMON">
                    <lambert>
                        <emission>
                            <color>0.0 0.0 0.0 1.0</color>
                        </emission>
                        <diffuse>
                            <color>0.8 0.8 0.8 1.0</color>
                        </diffuse>
                        <reflective>
                            <color>1.0 1.0 1.0 1.0</color>
                        </reflective>
                        <reflectivity>
                            <float>0.2</float>
                        </reflectivity>
                        <transparent opaque="A_ONE">
                            <color>1.0 1.0 1.0 1.0</color>
                        </transparent>
                        <transparency>
                            <float>1.0</float>
                        </transparency>
                    </lambert>
                </technique>
                <extra>
                    <technique profile="GOOGLEEARTH">
                        <double_sided>0</double_sided>
                    </technique>
                </extra>
            </profile_COMMON>
        </effect>
    </library_effects>
    <library_geometries>
        <geometry id="geometry0">
            <mesh>
                <source id="geometry0-position">
                    <float_array id="geometry0-position-array" count="402">0.0 0.0 3.3 0.3698376 0.2135265 3.2437779 0.4270514 0.0 3.2437779 0.2135265 0.3698376 3.2437779 0.0 0.4270513 3.2437779 -0.2135265 0.3698376 3.2437779 -0.3698376 0.2135265 3.2437779 -0.4270514 0.0 3.2437779 -0.3698376 -0.2135265 3.2437779 -0.2135265 -0.3698376 3.2437779 0.0 -0.4270513 3.2437779 0.2135265 -0.3698376 3.2437779 0.3698376 -0.2135265 3.2437779 0.7144715 0.4125 3.0789412 0.825 0.0 3.0789412 0.4125 0.7144715 3.0789412 0.0 0.825 3.0789412 -0.4125 0.7144715 3.0789412 -0.7144715 0.4125 3.0789412 -0.825 0.0 3.0789412 -0.7144715 -0.4125 3.0789412 -0.4125 -0.7144715 3.0789412 0.0 -0.825 3.0789412 0.4125 -0.7144715 3.0789412 0.7144715 -0.4125 3.0789412 1.0104138 0.5833624 2.8167265 1.1667265 0.0 2.8167265 0.5833625 1.0104138 2.8167265 0.0 1.1667266 2.8167265 -0.5833625 1.0104138 2.8167265 -1.0104138 0.5833624 2.8167265 -1.1667265 0.0 2.8167265 -1.0104138 -0.5833624 2.8167265 -0.5833625 -1.0104138 2.8167265 0.0 -1.1667266 2.8167265 0.5833625 -1.0104138 2.8167265 1.0104138 -0.5833624 2.8167265 1.2375 0.7144715 2.475 1.4289413 0.0 2.475 0.7144715 1.2375 2.475 0.0 1.4289412 2.475 -0.7144715 1.2375 2.475 -1.2375 0.7144715 2.475 -1.4289413 0.0 2.475 -1.2375 -0.7144715 2.475 -0.7144715 -1.2375 2.475 0.0 -1.4289412 2.475 0.7144715 -1.2375 2.475 1.2375 -0.7144715 2.475 1.3802514 0.796889 2.0770513 1.5937779 0.0 2.0770513 0.7968889 1.3802514 2.0770513 0.0 1.5937779 2.0770513 -0.7968889 1.3802514 2.0770513 -1.3802514 0.796889 2.0770513 -1.5937779 0.0 2.0770513 -1.3802514 -0.796889 2.0770513 -0.7968889 -1.3802514 2.0770513 0.0 -1.5937779 2.0770513 0.7968889 -1.3802514 2.0770513 1.3802514 -0.796889 2.0770513 1.4289413 0.825 1.65 1.65 0.0 1.65 0.825 1.4289412 1.65 0.0 1.65 1.65 -0.825 1.4289412 1.65 -1.4289413 0.825 1.65 -1.65 0.0 1.65 -1.4289413 -0.825 1.65 -0.825 -1.4289412 1.65 0.0 -1.65 1.65 0.825 -1.4289412 1.65 1.4289413 -0.825 1.65 1.3802514 0.796889 1.2229486 1.5937779 0.0 1.2229486 0.7968889 1.3802514 1.2229486 0.0 1.5937779 1.2229486 -0.7968889 1.3802514 1.2229486 -1.3802514 0.796889 1.2229486 -1.5937779 0.0 1.2229486 -1.3802514 -0.796889 1.2229486 -0.7968889 -1.3802514 1.2229486 0.0 -1.5937779 1.2229486 0.7968889 -1.3802514 1.2229486 1.3802514 -0.796889 1.2229486 1.2375 0.7144715 0.825 1.4289413 0.0 0.825 0.7144715 1.2375 0.825 0.0 1.4289412 0.825 -0.7144715 1.2375 0.825 -1.2375 0.7144715 0.825 -1.4289413 0.0 0.825 -1.2375 -0.7144715 0.825 -0.7144715 -1.2375 0.825 0.0 -1.4289412 0.825 0.7144715 -1.2375 0.825 1.2375 -0.7144715 0.825 1.0104138 0.5833624 0.4832734 1.1667265 0.0 0.4832734 0.5833625 1.0104138 0.4832734 0.0 1.1667266 0.4832734 -0.5833625 1.0104138 0.4832734 -1.0104138 0.5833624 0.4832734 -1.1667265 0.0 0.4832734 -1.0104138 -0.5833624 0.4832734 -0.5833625 -1.0104138 0.4832734 0.0 -1.1667266 0.4832734 0.5833625 -1.0104138 0.4832734 1.0104138 -0.5833624 0.4832734 0.7144715 0.4125 0.2210587 0.825 0.0 0.2210587 0.4125 0.7144715 0.2210587 0.0 0.825 0.2210587 -0.4125 0.7144715 0.2210587 -0.7144715 0.4125 0.2210587 -0.825 0.0 0.2210587 -0.7144715 -0.4125 0.2210587 -0.4125 -0.7144715 0.2210587 0.0 -0.825 0.2210587 0.4125 -0.7144715 0.2210587 0.7144715 -0.4125 0.2210587 0.3698376 0.2135265 0.0562221 0.4270514 0.0 0.0562221 0.2135265 0.3698376 0.0562221 0.0 0.4270513 0.0562221 -0.2135265 0.3698376 0.0562221 -0.3698376 0.2135265 0.0562221 -0.4270514 0.0 0.0562221 -0.3698376 -0.2135265 0.0562221 -0.2135265 -0.3698376 0.0562221 0.0 -0.4270513 0.0562221 0.2135265 -0.3698376 0.0562221 0.3698376 -0.2135265 0.0562221 0.0 0.0 0.0</float_array>
                    <technique_common>
                        <accessor count="134" source="#geometry0-position-array" stride="3">
                            <param name="X" type="float"/>
                            <param name="Y" type="float"/>
                            <param name="Z" type="float"/>
                        </accessor>
                    </technique_common>
                </source>
                <source id="geometry0-normal">
                    <float_array id="geometry0-normal-array" count="2520">0.278684 0.278684 -0.9190595 0.278684 0.278684 -0.9190595 0.278684 0.278684 -0.9190595 0.278684 0.278684 -0.9190595 0.278684 0.278684 -0.9190595 0.278684 0.278684 -0.9190595 0.1020044 0.3806891 -0.9190598 0.1020044 0.3806891 -0.9190598 0.1020044 0.3806891 -0.9190598 0.1020049 0.3806893 -0.9190596 0.1020049 0.3806893 -0.9190596 0.1020049 0.3806893 -0.9190596 -0.1020045 0.3806896 -0.9190596 -0.1020045 0.3806896 -0.9190596 -0.1020045 0.3806896 -0.9190596 -0.1020049 0.3806892 -0.9190598 -0.1020049 0.3806892 -0.9190598 -0.1020049 0.3806892 -0.9190598 -0.278684 0.278684 -0.9190595 -0.278684 0.278684 -0.9190595 -0.278684 0.278684 -0.9190595 -0.278684 0.278684 -0.9190595 -0.278684 0.278684 -0.9190595 -0.278684 0.278684 -0.9190595 -0.3806891 0.1020044 -0.9190598 -0.3806891 0.1020044 -0.9190598 -0.3806891 0.1020044 -0.9190598 -0.3806893 0.1020049 -0.9190596 -0.3806893 0.1020049 -0.9190596 -0.3806893 0.1020049 -0.9190596 -0.6008215 -0.1609889 -0.7830045 -0.6008215 -0.1609889 -0.7830045 -0.6008215 -0.1609889 -0.7830045 -0.6008191 -0.1609903 -0.7830061 -0.6008191 -0.1609903 -0.7830061 -0.6008191 -0.1609903 -0.7830061 -0.4398316 -0.4398316 -0.7830047 -0.4398316 -0.4398316 -0.7830047 -0.4398316 -0.4398316 -0.7830047 -0.4398316 -0.4398316 -0.7830046 -0.4398316 -0.4398316 -0.7830046 -0.4398316 -0.4398316 -0.7830046 -0.1609883 -0.6008193 -0.7830064 -0.1609883 -0.6008193 -0.7830064 -0.1609883 -0.6008193 -0.7830064 -0.1609908 -0.6008207 -0.7830048 -0.1609908 -0.6008207 -0.7830048 -0.1609908 -0.6008207 -0.7830048 0.1609889 -0.6008215 -0.7830045 0.1609889 -0.6008215 -0.7830045 0.1609889 -0.6008215 -0.7830045 0.1609903 -0.6008191 -0.7830061 0.1609903 -0.6008191 -0.7830061 0.1609903 -0.6008191 -0.7830061 0.4398316 -0.4398316 -0.7830047 0.4398316 -0.4398316 -0.7830047 0.4398316 -0.4398316 -0.7830047 0.4398316 -0.4398316 -0.7830046 0.4398316 -0.4398316 -0.7830046 0.4398316 -0.4398316 -0.7830046 0.6008193 -0.1609883 -0.7830064 0.6008193 -0.1609883 -0.7830064 0.6008193 -0.1609883 -0.7830064 0.6008207 -0.1609908 -0.7830048 0.6008207 -0.1609908 -0.7830048 0.6008207 -0.1609908 -0.7830048 0.6008215 0.1609889 -0.7830045 0.6008215 0.1609889 -0.7830045 0.6008215 0.1609889 -0.7830045 0.6008191 0.1609903 -0.7830061 0.6008191 0.1609903 -0.7830061 0.6008191 0.1609903 -0.7830061 0.4398316 0.4398316 -0.7830047 0.4398316 0.4398316 -0.7830047 0.4398316 0.4398316 -0.7830047 0.4398316 0.4398316 -0.7830046 0.4398316 0.4398316 -0.7830046 0.4398316 0.4398316 -0.7830046 0.1609883 0.6008193 -0.7830064 0.1609883 0.6008193 -0.7830064 0.1609883 0.6008193 -0.7830064 0.1609908 0.6008207 -0.7830048 0.1609908 0.6008207 -0.7830048 0.1609908 0.6008207 -0.7830048 -0.1609889 0.6008215 -0.7830045 -0.1609889 0.6008215 -0.7830045 -0.1609889 0.6008215 -0.7830045 -0.1609903 0.6008191 -0.7830061 -0.1609903 0.6008191 -0.7830061 -0.1609903 0.6008191 -0.7830061 -0.4398316 0.4398316 -0.7830047 -0.4398316 0.4398316 -0.7830047 -0.4398316 0.4398316 -0.7830047 -0.4398316 0.4398316 -0.7830046 -0.4398316 0.4398316 -0.7830046 -0.4398316 0.4398316 -0.7830046 -0.6008193 0.1609883 -0.7830064 -0.6008193 0.1609883 -0.7830064 -0.6008193 0.1609883 -0.7830064 -0.6008207 0.1609908 -0.7830048 -0.6008207 0.1609908 -0.7830048 -0.6008207 0.1609908 -0.7830048 -0.7760118 -0.2079335 -0.5954572 -0.7760118 -0.2079335 -0.5954572 -0.7760118 -0.2079335 -0.5954572 -0.7760148 -0.2079317 -0.595454 -0.7760148 -0.2079317 -0.595454 -0.7760148 -0.2079317 -0.595454 -0.5680802 -0.5680802 -0.5954575 -0.5680802 -0.5680802 -0.5954575 -0.5680802 -0.5680802 -0.5954575 -0.5680803 -0.5680803 -0.5954574 -0.5680803 -0.5680803 -0.5954574 -0.5680803 -0.5680803 -0.5954574 -0.2079342 -0.7760144 -0.5954537 -0.2079342 -0.7760144 -0.5954537 -0.2079342 -0.7760144 -0.5954537 -0.2079312 -0.7760127 -0.5954568 -0.2079312 -0.7760127 -0.5954568 -0.2079312 -0.7760127 -0.5954568 0.2079335 -0.7760118 -0.5954572 0.2079335 -0.7760118 -0.5954572 0.2079335 -0.7760118 -0.5954572 0.2079317 -0.7760148 -0.595454 0.2079317 -0.7760148 -0.595454 0.2079317 -0.7760148 -0.595454 0.5680802 -0.5680802 -0.5954575 0.5680802 -0.5680802 -0.5954575 0.5680802 -0.5680802 -0.5954575 0.5680803 -0.5680803 -0.5954574 0.5680803 -0.5680803 -0.5954574 0.5680803 -0.5680803 -0.5954574 0.7760144 -0.2079342 -0.5954537 0.7760144 -0.2079342 -0.5954537 0.7760144 -0.2079342 -0.5954537 0.7760127 -0.2079312 -0.5954568 0.7760127 -0.2079312 -0.5954568 0.7760127 -0.2079312 -0.5954568 0.7760118 0.2079335 -0.5954572 0.7760118 0.2079335 -0.5954572 0.7760118 0.2079335 -0.5954572 0.7760148 0.2079317 -0.595454 0.7760148 0.2079317 -0.595454 0.7760148 0.2079317 -0.595454 0.5680802 0.5680802 -0.5954575 0.5680802 0.5680802 -0.5954575 0.5680802 0.5680802 -0.5954575 0.5680803 0.5680803 -0.5954574 0.5680803 0.5680803 -0.5954574 0.5680803 0.5680803 -0.5954574 0.2079342 0.7760144 -0.5954537 0.2079342 0.7760144 -0.5954537 0.2079342 0.7760144 -0.5954537 0.2079312 0.7760127 -0.5954568 0.2079312 0.7760127 -0.5954568 0.2079312 0.7760127 -0.5954568 -0.2079335 0.7760118 -0.5954572 -0.2079335 0.7760118 -0.5954572 -0.2079335 0.7760118 -0.5954572 -0.2079317 0.7760148 -0.595454 -0.2079317 0.7760148 -0.595454 -0.2079317 0.7760148 -0.595454 -0.5680802 0.5680802 -0.5954575 -0.5680802 0.5680802 -0.5954575 -0.5680802 0.5680802 -0.5954575 -0.5680803 0.5680803 -0.5954574 -0.5680803 0.5680803 -0.5954574 -0.5680803 0.5680803 -0.5954574 -0.7760144 0.2079342 -0.5954537 -0.7760144 0.2079342 -0.5954537 -0.7760144 0.2079342 -0.5954537 -0.7760127 0.2079312 -0.5954568 -0.7760127 0.2079312 -0.5954568 -0.7760127 0.2079312 -0.5954568 -0.8968095 -0.2402984 -0.3714693 -0.8968095 -0.2402984 -0.3714693 -0.8968095 -0.2402984 -0.3714693 -0.8968079 -0.2402998 -0.3714722 -0.8968079 -0.2402998 -0.3714722 -0.8968079 -0.2402998 -0.3714722 -0.6565099 -0.6565099 -0.3714693 -0.6565099 -0.6565099 -0.3714693 -0.6565099 -0.6565099 -0.3714693 -0.6565099 -0.6565099 -0.3714693 -0.6565099 -0.6565099 -0.3714693 -0.6565099 -0.6565099 -0.3714693 -0.2402981 -0.8968083 -0.3714724 -0.2402981 -0.8968083 -0.3714724 -0.2402981 -0.8968083 -0.3714724 -0.2403001 -0.896809 -0.3714694 -0.2403001 -0.896809 -0.3714694 -0.2403001 -0.896809 -0.3714694 0.2402984 -0.8968095 -0.3714693 0.2402984 -0.8968095 -0.3714693 0.2402984 -0.8968095 -0.3714693 0.2402998 -0.8968079 -0.3714722 0.2402998 -0.8968079 -0.3714722 0.2402998 -0.8968079 -0.3714722 0.6565099 -0.6565099 -0.3714693 0.6565099 -0.6565099 -0.3714693 0.6565099 -0.6565099 -0.3714693 0.6565099 -0.6565099 -0.3714693 0.6565099 -0.6565099 -0.3714693 0.6565099 -0.6565099 -0.3714693 0.8968083 -0.2402981 -0.3714724 0.8968083 -0.2402981 -0.3714724 0.8968083 -0.2402981 -0.3714724 0.896809 -0.2403001 -0.3714694 0.896809 -0.2403001 -0.3714694 0.896809 -0.2403001 -0.3714694 0.8968095 0.2402984 -0.3714693 0.8968095 0.2402984 -0.3714693 0.8968095 0.2402984 -0.3714693 0.8968079 0.2402998 -0.3714722 0.8968079 0.2402998 -0.3714722 0.8968079 0.2402998 -0.3714722 0.6565099 0.6565099 -0.3714693 0.6565099 0.6565099 -0.3714693 0.6565099 0.6565099 -0.3714693 0.6565099 0.6565099 -0.3714693 0.6565099 0.6565099 -0.3714693 0.6565099 0.6565099 -0.3714693 0.2402981 0.8968083 -0.3714724 0.2402981 0.8968083 -0.3714724 0.2402981 0.8968083 -0.3714724 0.2403001 0.896809 -0.3714694 0.2403001 0.896809 -0.3714694 0.2403001 0.896809 -0.3714694 -0.2402984 0.8968095 -0.3714693 -0.2402984 0.8968095 -0.3714693 -0.2402984 0.8968095 -0.3714693 -0.2402998 0.8968079 -0.3714722 -0.2402998 0.8968079 -0.3714722 -0.2402998 0.8968079 -0.3714722 -0.6565099 0.6565099 -0.3714693 -0.6565099 0.6565099 -0.3714693 -0.6565099 0.6565099 -0.3714693 -0.6565099 0.6565099 -0.3714693 -0.6565099 0.6565099 -0.3714693 -0.6565099 0.6565099 -0.3714693 -0.8968083 0.2402981 -0.3714724 -0.8968083 0.2402981 -0.3714724 -0.8968083 0.2402981 -0.3714724 -0.896809 0.2403001 -0.3714694 -0.896809 0.2403001 -0.3714694 -0.896809 0.2403001 -0.3714694 -0.958209 -0.2567522 -0.1261502 -0.958209 -0.2567522 -0.1261502 -0.958209 -0.2567522 -0.1261502 -0.958209 -0.2567521 -0.1261499 -0.958209 -0.2567521 -0.1261499 -0.958209 -0.2567521 -0.1261499 -0.7014578 -0.7014578 -0.1261501 -0.7014578 -0.7014578 -0.1261501 -0.7014578 -0.7014578 -0.1261501 -0.7014578 -0.7014578 -0.12615 -0.7014578 -0.7014578 -0.12615 -0.7014578 -0.7014578 -0.12615 -0.2567522 -0.958209 -0.1261499 -0.2567522 -0.958209 -0.1261499 -0.2567522 -0.958209 -0.1261499 -0.2567521 -0.9582091 -0.1261502 -0.2567521 -0.9582091 -0.1261502 -0.2567521 -0.9582091 -0.1261502 0.2567522 -0.958209 -0.1261502 0.2567522 -0.958209 -0.1261502 0.2567522 -0.958209 -0.1261502 0.2567521 -0.958209 -0.1261499 0.2567521 -0.958209 -0.1261499 0.2567521 -0.958209 -0.1261499 0.7014578 -0.7014578 -0.1261501 0.7014578 -0.7014578 -0.1261501 0.7014578 -0.7014578 -0.1261501 0.7014578 -0.7014578 -0.12615 0.7014578 -0.7014578 -0.12615 0.7014578 -0.7014578 -0.12615 0.958209 -0.2567522 -0.1261499 0.958209 -0.2567522 -0.1261499 0.958209 -0.2567522 -0.1261499 0.9582091 -0.2567521 -0.1261502 0.9582091 -0.2567521 -0.1261502 0.9582091 -0.2567521 -0.1261502 0.958209 0.2567522 -0.1261502 0.958209 0.2567522 -0.1261502 0.958209 0.2567522 -0.1261502 0.958209 0.2567521 -0.1261499 0.958209 0.2567521 -0.1261499 0.958209 0.2567521 -0.1261499 0.7014578 0.7014578 -0.1261501 0.7014578 0.7014578 -0.1261501 0.7014578 0.7014578 -0.1261501 0.7014578 0.7014578 -0.12615 0.7014578 0.7014578 -0.12615 0.7014578 0.7014578 -0.12615 0.2567522 0.958209 -0.1261499 0.2567522 0.958209 -0.1261499 0.2567522 0.958209 -0.1261499 0.2567521 0.9582091 -0.1261502 0.2567521 0.9582091 -0.1261502 0.2567521 0.9582091 -0.1261502 -0.2567522 0.958209 -0.1261502 -0.2567522 0.958209 -0.1261502 -0.2567522 0.958209 -0.1261502 -0.2567521 0.958209 -0.1261499 -0.2567521 0.958209 -0.1261499 -0.2567521 0.958209 -0.1261499 -0.7014578 0.7014578 -0.1261501 -0.7014578 0.7014578 -0.1261501 -0.7014578 0.7014578 -0.1261501 -0.7014578 0.7014578 -0.12615 -0.7014578 0.7014578 -0.12615 -0.7014578 0.7014578 -0.12615 -0.958209 0.2567522 -0.1261499 -0.958209 0.2567522 -0.1261499 -0.958209 0.2567522 -0.1261499 -0.9582091 0.2567521 -0.1261502 -0.9582091 0.2567521 -0.1261502 -0.9582091 0.2567521 -0.1261502 -0.9582091 -0.2567521 0.1261502 -0.9582091 -0.2567521 0.1261502 -0.9582091 -0.2567521 0.1261502 -0.958209 -0.2567522 0.12615 -0.958209 -0.2567522 0.12615 -0.958209 -0.2567522 0.12615 -0.7014578 -0.7014578 0.1261501 -0.7014578 -0.7014578 0.1261501 -0.7014578 -0.7014578 0.1261501 -0.7014578 -0.7014578 0.1261501 -0.7014578 -0.7014578 0.1261501 -0.7014578 -0.7014578 0.1261501 -0.256752 -0.958209 0.12615 -0.256752 -0.958209 0.12615 -0.256752 -0.958209 0.12615 -0.2567522 -0.958209 0.1261502 -0.2567522 -0.958209 0.1261502 -0.2567522 -0.958209 0.1261502 0.2567521 -0.9582091 0.1261502 0.2567521 -0.9582091 0.1261502 0.2567521 -0.9582091 0.1261502 0.2567522 -0.958209 0.12615 0.2567522 -0.958209 0.12615 0.2567522 -0.958209 0.12615 0.7014578 -0.7014578 0.1261501 0.7014578 -0.7014578 0.1261501 0.7014578 -0.7014578 0.1261501 0.7014578 -0.7014578 0.1261501 0.7014578 -0.7014578 0.1261501 0.7014578 -0.7014578 0.1261501 0.958209 -0.256752 0.12615 0.958209 -0.256752 0.12615 0.958209 -0.256752 0.12615 0.958209 -0.2567522 0.1261502 0.958209 -0.2567522 0.1261502 0.958209 -0.2567522 0.1261502 0.9582091 0.2567521 0.1261502 0.9582091 0.2567521 0.1261502 0.9582091 0.2567521 0.1261502 0.958209 0.2567522 0.12615 0.958209 0.2567522 0.12615 0.958209 0.2567522 0.12615 0.7014578 0.7014578 0.1261501 0.7014578 0.7014578 0.1261501 0.7014578 0.7014578 0.1261501 0.7014578 0.7014578 0.1261501 0.7014578 0.7014578 0.1261501 0.7014578 0.7014578 0.1261501 0.256752 0.958209 0.12615 0.256752 0.958209 0.12615 0.256752 0.958209 0.12615 0.2567522 0.958209 0.1261502 0.2567522 0.958209 0.1261502 0.2567522 0.958209 0.1261502 -0.2567521 0.9582091 0.1261502 -0.2567521 0.9582091 0.1261502 -0.2567521 0.9582091 0.1261502 -0.2567522 0.958209 0.12615 -0.2567522 0.958209 0.12615 -0.2567522 0.958209 0.12615 -0.7014578 0.7014578 0.1261501 -0.7014578 0.7014578 0.1261501 -0.7014578 0.7014578 0.1261501 -0.7014578 0.7014578 0.1261501 -0.7014578 0.7014578 0.1261501 -0.7014578 0.7014578 0.1261501 -0.958209 0.256752 0.12615 -0.958209 0.256752 0.12615 -0.958209 0.256752 0.12615 -0.958209 0.2567522 0.1261502 -0.958209 0.2567522 0.1261502 -0.958209 0.2567522 0.1261502 -0.896809 -0.2403001 0.3714693 -0.896809 -0.2403001 0.3714693 -0.896809 -0.2403001 0.3714693 -0.8968083 -0.2402981 0.3714722 -0.8968083 -0.2402981 0.3714722 -0.8968083 -0.2402981 0.3714722 -0.6565099 -0.6565099 0.3714691 -0.6565099 -0.6565099 0.3714691 -0.6565099 -0.6565099 0.3714691 -0.65651 -0.65651 0.3714691 -0.65651 -0.65651 0.3714691 -0.65651 -0.65651 0.3714691 -0.2402998 -0.896808 0.3714721 -0.2402998 -0.896808 0.3714721 -0.2402998 -0.896808 0.3714721 -0.2402985 -0.8968096 0.3714691 -0.2402985 -0.8968096 0.3714691 -0.2402985 -0.8968096 0.3714691 0.2403001 -0.896809 0.3714693 0.2403001 -0.896809 0.3714693 0.2403001 -0.896809 0.3714693 0.2402981 -0.8968083 0.3714722 0.2402981 -0.8968083 0.3714722 0.2402981 -0.8968083 0.3714722 0.6565099 -0.6565099 0.3714691 0.6565099 -0.6565099 0.3714691 0.6565099 -0.6565099 0.3714691 0.65651 -0.65651 0.3714691 0.65651 -0.65651 0.3714691 0.65651 -0.65651 0.3714691 0.896808 -0.2402998 0.3714721 0.896808 -0.2402998 0.3714721 0.896808 -0.2402998 0.3714721 0.8968096 -0.2402985 0.3714691 0.8968096 -0.2402985 0.3714691 0.8968096 -0.2402985 0.3714691 0.896809 0.2403001 0.3714693 0.896809 0.2403001 0.3714693 0.896809 0.2403001 0.3714693 0.8968083 0.2402981 0.3714722 0.8968083 0.2402981 0.3714722 0.8968083 0.2402981 0.3714722 0.6565099 0.6565099 0.3714691 0.6565099 0.6565099 0.3714691 0.6565099 0.6565099 0.3714691 0.65651 0.65651 0.3714691 0.65651 0.65651 0.3714691 0.65651 0.65651 0.3714691 0.2402998 0.896808 0.3714721 0.2402998 0.896808 0.3714721 0.2402998 0.896808 0.3714721 0.2402985 0.8968096 0.3714691 0.2402985 0.8968096 0.3714691 0.2402985 0.8968096 0.3714691 -0.2403001 0.896809 0.3714693 -0.2403001 0.896809 0.3714693 -0.2403001 0.896809 0.3714693 -0.2402981 0.8968083 0.3714722 -0.2402981 0.8968083 0.3714722 -0.2402981 0.8968083 0.3714722 -0.6565099 0.6565099 0.3714691 -0.6565099 0.6565099 0.3714691 -0.6565099 0.6565099 0.3714691 -0.65651 0.65651 0.3714691 -0.65651 0.65651 0.3714691 -0.65651 0.65651 0.3714691 -0.896808 0.2402998 0.3714721 -0.896808 0.2402998 0.3714721 -0.896808 0.2402998 0.3714721 -0.8968096 0.2402985 0.3714691 -0.8968096 0.2402985 0.3714691 -0.8968096 0.2402985 0.3714691 -0.7760127 -0.2079312 0.5954568 -0.7760127 -0.2079312 0.5954568 -0.7760127 -0.2079312 0.5954568 -0.7760144 -0.2079342 0.5954537 -0.7760144 -0.2079342 0.5954537 -0.7760144 -0.2079342 0.5954537 -0.5680803 -0.5680803 0.5954574 -0.5680803 -0.5680803 0.5954574 -0.5680803 -0.5680803 0.5954574 -0.5680802 -0.5680802 0.5954576 -0.5680802 -0.5680802 0.5954576 -0.5680802 -0.5680802 0.5954576 -0.2079317 -0.7760147 0.595454 -0.2079317 -0.7760147 0.595454 -0.2079317 -0.7760147 0.595454 -0.2079335 -0.7760118 0.5954572 -0.2079335 -0.7760118 0.5954572 -0.2079335 -0.7760118 0.5954572 0.2079312 -0.7760127 0.5954568 0.2079312 -0.7760127 0.5954568 0.2079312 -0.7760127 0.5954568 0.2079342 -0.7760144 0.5954537 0.2079342 -0.7760144 0.5954537 0.2079342 -0.7760144 0.5954537 0.5680803 -0.5680803 0.5954574 0.5680803 -0.5680803 0.5954574 0.5680803 -0.5680803 0.5954574 0.5680802 -0.5680802 0.5954576 0.5680802 -0.5680802 0.5954576 0.5680802 -0.5680802 0.5954576 0.7760147 -0.2079317 0.595454 0.7760147 -0.2079317 0.595454 0.7760147 -0.2079317 0.595454 0.7760118 -0.2079335 0.5954572 0.7760118 -0.2079335 0.5954572 0.7760118 -0.2079335 0.5954572 0.7760127 0.2079312 0.5954568 0.7760127 0.2079312 0.5954568 0.7760127 0.2079312 0.5954568 0.7760144 0.2079342 0.5954537 0.7760144 0.2079342 0.5954537 0.7760144 0.2079342 0.5954537 0.5680803 0.5680803 0.5954574 0.5680803 0.5680803 0.5954574 0.5680803 0.5680803 0.5954574 0.5680802 0.5680802 0.5954576 0.5680802 0.5680802 0.5954576 0.5680802 0.5680802 0.5954576 0.2079317 0.7760147 0.595454 0.2079317 0.7760147 0.595454 0.2079317 0.7760147 0.595454 0.2079335 0.7760118 0.5954572 0.2079335 0.7760118 0.5954572 0.2079335 0.7760118 0.5954572 -0.2079312 0.7760127 0.5954568 -0.2079312 0.7760127 0.5954568 -0.2079312 0.7760127 0.5954568 -0.2079342 0.7760144 0.5954537 -0.2079342 0.7760144 0.5954537 -0.2079342 0.7760144 0.5954537 -0.5680803 0.5680803 0.5954574 -0.5680803 0.5680803 0.5954574 -0.5680803 0.5680803 0.5954574 -0.5680802 0.5680802 0.5954576 -0.5680802 0.5680802 0.5954576 -0.5680802 0.5680802 0.5954576 -0.7760147 0.2079317 0.595454 -0.7760147 0.2079317 0.595454 -0.7760147 0.2079317 0.595454 -0.7760118 0.2079335 0.5954572 -0.7760118 0.2079335 0.5954572 -0.7760118 0.2079335 0.5954572 -0.6008204 -0.1609907 0.7830051 -0.6008204 -0.1609907 0.7830051 -0.6008204 -0.1609907 0.7830051 -0.6008191 -0.1609882 0.7830066 -0.6008191 -0.1609882 0.7830066 -0.6008191 -0.1609882 0.7830066 -0.4398314 -0.4398314 0.7830049 -0.4398314 -0.4398314 0.7830049 -0.4398314 -0.4398314 0.7830049 -0.4398314 -0.4398314 0.7830049 -0.4398314 -0.4398314 0.7830049 -0.4398314 -0.4398314 0.7830049 -0.1609903 -0.6008188 0.7830064 -0.1609903 -0.6008188 0.7830064 -0.1609903 -0.6008188 0.7830064 -0.1609888 -0.6008212 0.7830048 -0.1609888 -0.6008212 0.7830048 -0.1609888 -0.6008212 0.7830048 0.1609907 -0.6008204 0.7830051 0.1609907 -0.6008204 0.7830051 0.1609907 -0.6008204 0.7830051 0.1609882 -0.6008191 0.7830066 0.1609882 -0.6008191 0.7830066 0.1609882 -0.6008191 0.7830066 0.4398314 -0.4398314 0.7830049 0.4398314 -0.4398314 0.7830049 0.4398314 -0.4398314 0.7830049 0.4398314 -0.4398314 0.7830049 0.4398314 -0.4398314 0.7830049 0.4398314 -0.4398314 0.7830049 0.6008188 -0.1609903 0.7830064 0.6008188 -0.1609903 0.7830064 0.6008188 -0.1609903 0.7830064 0.6008212 -0.1609888 0.7830048 0.6008212 -0.1609888 0.7830048 0.6008212 -0.1609888 0.7830048 0.6008204 0.1609907 0.7830051 0.6008204 0.1609907 0.7830051 0.6008204 0.1609907 0.7830051 0.6008191 0.1609882 0.7830066 0.6008191 0.1609882 0.7830066 0.6008191 0.1609882 0.7830066 0.4398314 0.4398314 0.7830049 0.4398314 0.4398314 0.7830049 0.4398314 0.4398314 0.7830049 0.4398314 0.4398314 0.7830049 0.4398314 0.4398314 0.7830049 0.4398314 0.4398314 0.7830049 0.1609903 0.6008188 0.7830064 0.1609903 0.6008188 0.7830064 0.1609903 0.6008188 0.7830064 0.1609888 0.6008212 0.7830048 0.1609888 0.6008212 0.7830048 0.1609888 0.6008212 0.7830048 -0.1609907 0.6008204 0.7830051 -0.1609907 0.6008204 0.7830051 -0.1609907 0.6008204 0.7830051 -0.1609882 0.6008191 0.7830066 -0.1609882 0.6008191 0.7830066 -0.1609882 0.6008191 0.7830066 -0.4398314 0.4398314 0.7830049 -0.4398314 0.4398314 0.7830049 -0.4398314 0.4398314 0.7830049 -0.4398314 0.4398314 0.7830049 -0.4398314 0.4398314 0.7830049 -0.4398314 0.4398314 0.7830049 -0.6008188 0.1609903 0.7830064 -0.6008188 0.1609903 0.7830064 -0.6008188 0.1609903 0.7830064 -0.6008212 0.1609888 0.7830048 -0.6008212 0.1609888 0.7830048 -0.6008212 0.1609888 0.7830048 -0.3806894 -0.1020049 0.9190596 -0.3806894 -0.1020049 0.9190596 -0.3806894 -0.1020049 0.9190596 -0.3806891 -0.1020044 0.9190598 -0.3806891 -0.1020044 0.9190598 -0.3806891 -0.1020044 0.9190598 -0.2786841 -0.2786841 0.9190595 -0.2786841 -0.2786841 0.9190595 -0.2786841 -0.2786841 0.9190595 -0.278684 -0.278684 0.9190595 -0.278684 -0.278684 0.9190595 -0.278684 -0.278684 0.9190595 -0.1020049 -0.3806892 0.9190597 -0.1020049 -0.3806892 0.9190597 -0.1020049 -0.3806892 0.9190597 -0.1020045 -0.3806896 0.9190596 -0.1020045 -0.3806896 0.9190596 -0.1020045 -0.3806896 0.9190596 0.1020049 -0.3806894 0.9190596 0.1020049 -0.3806894 0.9190596 0.1020049 -0.3806894 0.9190596 0.1020044 -0.3806891 0.9190598 0.1020044 -0.3806891 0.9190598 0.1020044 -0.3806891 0.9190598 0.2786841 -0.2786841 0.9190595 0.2786841 -0.2786841 0.9190595 0.2786841 -0.2786841 0.9190595 0.278684 -0.278684 0.9190595 0.278684 -0.278684 0.9190595 0.278684 -0.278684 0.9190595 0.3806892 -0.1020049 0.9190597 0.3806892 -0.1020049 0.9190597 0.3806892 -0.1020049 0.9190597 0.3806896 -0.1020045 0.9190596 0.3806896 -0.1020045 0.9190596 0.3806896 -0.1020045 0.9190596 0.3806894 0.1020049 0.9190596 0.3806894 0.1020049 0.9190596 0.3806894 0.1020049 0.9190596 0.3806891 0.1020044 0.9190598 0.3806891 0.1020044 0.9190598 0.3806891 0.1020044 0.9190598 0.2786841 0.2786841 0.9190595 0.2786841 0.2786841 0.9190595 0.2786841 0.2786841 0.9190595 0.278684 0.278684 0.9190595 0.278684 0.278684 0.9190595 0.278684 0.278684 0.9190595 0.1020049 0.3806892 0.9190597 0.1020049 0.3806892 0.9190597 0.1020049 0.3806892 0.9190597 0.1020045 0.3806896 0.9190596 0.1020045 0.3806896 0.9190596 0.1020045 0.3806896 0.9190596 -0.1020049 0.3806894 0.9190596 -0.1020049 0.3806894 0.9190596 -0.1020049 0.3806894 0.9190596 -0.1020044 0.3806891 0.9190598 -0.1020044 0.3806891 0.9190598 -0.1020044 0.3806891 0.9190598 -0.2786841 0.2786841 0.9190595 -0.2786841 0.2786841 0.9190595 -0.2786841 0.2786841 0.9190595 -0.278684 0.278684 0.9190595 -0.278684 0.278684 0.9190595 -0.278684 0.278684 0.9190595 -0.3806892 0.1020049 0.9190597 -0.3806892 0.1020049 0.9190597 -0.3806892 0.1020049 0.9190597 -0.3806896 0.1020045 0.9190596 -0.3806896 0.1020045 0.9190596 -0.3806896 0.1020045 0.9190596 -0.1304458 -0.0349525 0.9908391 -0.1304458 -0.0349525 0.9908391 -0.1304458 -0.0349525 0.9908391 1.0 0.0 0.0 1.0 0.0 0.0 -0.0954928 -0.0954928 0.9908392 -0.0954928 -0.0954928 0.9908392 -0.0954928 -0.0954928 0.9908392 1.0 0.0 0.0 1.0 0.0 0.0 -0.0349525 -0.1304458 0.9908391 -0.0349525 -0.1304458 0.9908391 -0.0349525 -0.1304458 0.9908391 1.0 0.0 0.0 1.0 0.0 0.0 0.0349525 -0.1304458 0.9908391 0.0349525 -0.1304458 0.9908391 0.0349525 -0.1304458 0.9908391 1.0 0.0 0.0 1.0 0.0 0.0 0.0954928 -0.0954928 0.9908392 0.0954928 -0.0954928 0.9908392 0.0954928 -0.0954928 0.9908392 1.0 0.0 0.0 1.0 0.0 0.0 0.1304458 -0.0349525 0.9908391 0.1304458 -0.0349525 0.9908391 0.1304458 -0.0349525 0.9908391 1.0 0.0 0.0 1.0 0.0 0.0 0.1304458 0.0349525 0.9908391 0.1304458 0.0349525 0.9908391 0.1304458 0.0349525 0.9908391 1.0 0.0 0.0 1.0 0.0 0.0 0.0954928 0.0954928 0.9908392 0.0954928 0.0954928 0.9908392 0.0954928 0.0954928 0.9908392 1.0 0.0 0.0 1.0 0.0 0.0 0.0349525 0.1304458 0.9908391 0.0349525 0.1304458 0.9908391 0.0349525 0.1304458 0.9908391 1.0 0.0 0.0 1.0 0.0 0.0 -0.0349525 0.1304458 0.9908391 -0.0349525 0.1304458 0.9908391 -0.0349525 0.1304458 0.9908391 1.0 0.0 0.0 1.0 0.0 0.0 -0.0954928 0.0954928 0.9908392 -0.0954928 0.0954928 0.9908392 -0.0954928 0.0954928 0.9908392 1.0 0.0 0.0 1.0 0.0 0.0 -0.1304458 0.0349525 0.9908391 -0.1304458 0.0349525 0.9908391 -0.1304458 0.0349525 0.9908391 1.0 0.0 0.0 1.0 0.0 0.0 1.0 0.0 0.0 1.0 0.0 0.0 -0.1304455 -0.0349524 -0.9908392 -0.1304455 -0.0349524 -0.9908392 -0.1304455 -0.0349524 -0.9908392 1.0 0.0 0.0 1.0 0.0 0.0 -0.0954925 -0.0954925 -0.9908392 -0.0954925 -0.0954925 -0.9908392 -0.0954925 -0.0954925 -0.9908392 1.0 0.0 0.0 1.0 0.0 0.0 -0.0349524 -0.1304455 -0.9908392 -0.0349524 -0.1304455 -0.9908392 -0.0349524 -0.1304455 -0.9908392 1.0 0.0 0.0 1.0 0.0 0.0 0.0349524 -0.1304455 -0.9908392 0.0349524 -0.1304455 -0.9908392 0.0349524 -0.1304455 -0.9908392 1.0 0.0 0.0 1.0 0.0 0.0 0.0954925 -0.0954925 -0.9908392 0.0954925 -0.0954925 -0.9908392 0.0954925 -0.0954925 -0.9908392 1.0 0.0 0.0 1.0 0.0 0.0 0.1304455 -0.0349524 -0.9908392 0.1304455 -0.0349524 -0.9908392 0.1304455 -0.0349524 -0.9908392 1.0 0.0 0.0 1.0 0.0 0.0 0.1304455 0.0349524 -0.9908392 0.1304455 0.0349524 -0.9908392 0.1304455 0.0349524 -0.9908392 1.0 0.0 0.0 1.0 0.0 0.0 0.0954925 0.0954925 -0.9908392 0.0954925 0.0954925 -0.9908392 0.0954925 0.0954925 -0.9908392 1.0 0.0 0.0 1.0 0.0 0.0 0.0349524 0.1304455 -0.9908392 0.0349524 0.1304455 -0.9908392 0.0349524 0.1304455 -0.9908392 1.0 0.0 0.0 1.0 0.0 0.0 -0.0349524 0.1304455 -0.9908392 -0.0349524 0.1304455 -0.9908392 -0.0349524 0.1304455 -0.9908392 1.0 0.0 0.0 1.0 0.0 0.0 -0.0954925 0.0954925 -0.9908392 -0.0954925 0.0954925 -0.9908392 -0.0954925 0.0954925 -0.9908392 1.0 0.0 0.0 1.0 0.0 0.0 -0.1304455 0.0349524 -0.9908392 -0.1304455 0.0349524 -0.9908392 -0.1304455 0.0349524 -0.9908392 -0.3806896 -0.1020045 -0.9190596 -0.3806896 -0.1020045 -0.9190596 -0.3806896 -0.1020045 -0.9190596 -0.3806892 -0.1020049 -0.9190598 -0.3806892 -0.1020049 -0.9190598 -0.3806892 -0.1020049 -0.9190598 -0.278684 -0.278684 -0.9190595 -0.278684 -0.278684 -0.9190595 -0.278684 -0.278684 -0.9190595 -0.278684 -0.278684 -0.9190595 -0.278684 -0.278684 -0.9190595 -0.278684 -0.278684 -0.9190595 -0.1020044 -0.3806891 -0.9190598 -0.1020044 -0.3806891 -0.9190598 -0.1020044 -0.3806891 -0.9190598 -0.1020049 -0.3806893 -0.9190596 -0.1020049 -0.3806893 -0.9190596 -0.1020049 -0.3806893 -0.9190596 0.1020045 -0.3806896 -0.9190596 0.1020045 -0.3806896 -0.9190596 0.1020045 -0.3806896 -0.9190596 0.1020049 -0.3806892 -0.9190598 0.1020049 -0.3806892 -0.9190598 0.1020049 -0.3806892 -0.9190598 0.278684 -0.278684 -0.9190595 0.278684 -0.278684 -0.9190595 0.278684 -0.278684 -0.9190595 0.278684 -0.278684 -0.9190595 0.278684 -0.278684 -0.9190595 0.278684 -0.278684 -0.9190595 0.3806891 -0.1020044 -0.9190598 0.3806891 -0.1020044 -0.9190598 0.3806891 -0.1020044 -0.9190598 0.3806893 -0.1020049 -0.9190596 0.3806893 -0.1020049 -0.9190596 0.3806893 -0.1020049 -0.9190596 0.3806896 0.1020045 -0.9190596 0.3806896 0.1020045 -0.9190596 0.3806896 0.1020045 -0.9190596 0.3806892 0.1020049 -0.9190598 0.3806892 0.1020049 -0.9190598 0.3806892 0.1020049 -0.9190598</float_array>
                    <technique_common>
                        <accessor count="840" source="#geometry0-normal-array" stride="3">
                            <param name="X" type="float"/>
                            <param name="Y" type="float"/>
                            <param name="Z" type="float"/>
                        </accessor>
                    </technique_common>
                </source>
                <vertices id="geometry0-vertex">
                    <input semantic="POSITION" source="#geometry0-position"/>
                </vertices>
                <triangles count="288" material="default_ai_0.2_sh_0.2_tr_0.0_dc_r_0.8_g_0.8_b_0.8_sc_r_1.0_g_1.0_b_1.0_ec_r_0.0_g_0.0_b_0_tri">
                    <input offset="0" semantic="VERTEX" source="#geometry0-vertex"/>
                    <input offset="1" semantic="NORMAL" source="#geometry0-normal"/>
                    <p>8 0 9 1 21 2 8 3 21 4 20 5 9 6 10 7 22 8 9 9 22 10 21 11 10 12 11 13 23 14 10 15 23 16 22 17 11 18 12 19 24 20 11 21 24 22 23 23 12 24 2 25 14 26 12 27 14 28 24 29 14 30 13 31 25 32 14 33 25 34 26 35 13 36 15 37 27 38 13 39 27 40 25 41 15 42 16 43 28 44 15 45 28 46 27 47 16 48 17 49 29 50 16 51 29 52 28 53 17 54 18 55 30 56 17 57 30 58 29 59 18 60 19 61 31 62 18 63 31 64 30 65 19 66 20 67 32 68 19 69 32 70 31 71 20 72 21 73 33 74 20 75 33 76 32 77 21 78 22 79 34 80 21 81 34 82 33 83 22 84 23 85 35 86 22 87 35 88 34 89 23 90 24 91 36 92 23 93 36 94 35 95 24 96 14 97 26 98 24 99 26 100 36 101 26 102 25 103 37 104 26 105 37 106 38 107 25 108 27 109 39 110 25 111 39 112 37 113 27 114 28 115 40 116 27 117 40 118 39 119 28 120 29 121 41 122 28 123 41 124 40 125 29 126 30 127 42 128 29 129 42 130 41 131 30 132 31 133 43 134 30 135 43 136 42 137 31 138 32 139 44 140 31 141 44 142 43 143 32 144 33 145 45 146 32 147 45 148 44 149 33 150 34 151 46 152 33 153 46 154 45 155 34 156 35 157 47 158 34 159 47 160 46 161 35 162 36 163 48 164 35 165 48 166 47 167 36 168 26 169 38 170 36 171 38 172 48 173 38 174 37 175 49 176 38 177 49 178 50 179 37 180 39 181 51 182 37 183 51 184 49 185 39 186 40 187 52 188 39 189 52 190 51 191 40 192 41 193 53 194 40 195 53 196 52 197 41 198 42 199 54 200 41 201 54 202 53 203 42 204 43 205 55 206 42 207 55 208 54 209 43 210 44 211 56 212 43 213 56 214 55 215 44 216 45 217 57 218 44 219 57 220 56 221 45 222 46 223 58 224 45 225 58 226 57 227 46 228 47 229 59 230 46 231 59 232 58 233 47 234 48 235 60 236 47 237 60 238 59 239 48 240 38 241 50 242 48 243 50 244 60 245 50 246 49 247 61 248 50 249 61 250 62 251 49 252 51 253 63 254 49 255 63 256 61 257 51 258 52 259 64 260 51 261 64 262 63 263 52 264 53 265 65 266 52 267 65 268 64 269 53 270 54 271 66 272 53 273 66 274 65 275 54 276 55 277 67 278 54 279 67 280 66 281 55 282 56 283 68 284 55 285 68 286 67 287 56 288 57 289 69 290 56 291 69 292 68 293 57 294 58 295 70 296 57 297 70 298 69 299 58 300 59 301 71 302 58 303 71 304 70 305 59 306 60 307 72 308 59 309 72 310 71 311 60 312 50 313 62 314 60 315 62 316 72 317 62 318 61 319 73 320 62 321 73 322 74 323 61 324 63 325 75 326 61 327 75 328 73 329 63 330 64 331 76 332 63 333 76 334 75 335 64 336 65 337 77 338 64 339 77 340 76 341 65 342 66 343 78 344 65 345 78 346 77 347 66 348 67 349 79 350 66 351 79 352 78 353 67 354 68 355 80 356 67 357 80 358 79 359 68 360 69 361 81 362 68 363 81 364 80 365 69 366 70 367 82 368 69 369 82 370 81 371 70 372 71 373 83 374 70 375 83 376 82 377 71 378 72 379 84 380 71 381 84 382 83 383 72 384 62 385 74 386 72 387 74 388 84 389 74 390 73 391 85 392 74 393 85 394 86 395 73 396 75 397 87 398 73 399 87 400 85 401 75 402 76 403 88 404 75 405 88 406 87 407 76 408 77 409 89 410 76 411 89 412 88 413 77 414 78 415 90 416 77 417 90 418 89 419 78 420 79 421 91 422 78 423 91 424 90 425 79 426 80 427 92 428 79 429 92 430 91 431 80 432 81 433 93 434 80 435 93 436 92 437 81 438 82 439 94 440 81 441 94 442 93 443 82 444 83 445 95 446 82 447 95 448 94 449 83 450 84 451 96 452 83 453 96 454 95 455 84 456 74 457 86 458 84 459 86 460 96 461 86 462 85 463 97 464 86 465 97 466 98 467 85 468 87 469 99 470 85 471 99 472 97 473 87 474 88 475 100 476 87 477 100 478 99 479 88 480 89 481 101 482 88 483 101 484 100 485 89 486 90 487 102 488 89 489 102 490 101 491 90 492 91 493 103 494 90 495 103 496 102 497 91 498 92 499 104 500 91 501 104 502 103 503 92 504 93 505 105 506 92 507 105 508 104 509 93 510 94 511 106 512 93 513 106 514 105 515 94 516 95 517 107 518 94 519 107 520 106 521 95 522 96 523 108 524 95 525 108 526 107 527 96 528 86 529 98 530 96 531 98 532 108 533 98 534 97 535 109 536 98 537 109 538 110 539 97 540 99 541 111 542 97 543 111 544 109 545 99 546 100 547 112 548 99 549 112 550 111 551 100 552 101 553 113 554 100 555 113 556 112 557 101 558 102 559 114 560 101 561 114 562 113 563 102 564 103 565 115 566 102 567 115 568 114 569 103 570 104 571 116 572 103 573 116 574 115 575 104 576 105 577 117 578 104 579 117 580 116 581 105 582 106 583 118 584 105 585 118 586 117 587 106 588 107 589 119 590 106 591 119 592 118 593 107 594 108 595 120 596 107 597 120 598 119 599 108 600 98 601 110 602 108 603 110 604 120 605 110 606 109 607 121 608 110 609 121 610 122 611 109 612 111 613 123 614 109 615 123 616 121 617 111 618 112 619 124 620 111 621 124 622 123 623 112 624 113 625 125 626 112 627 125 628 124 629 113 630 114 631 126 632 113 633 126 634 125 635 114 636 115 637 127 638 114 639 127 640 126 641 115 642 116 643 128 644 115 645 128 646 127 647 116 648 117 649 129 650 116 651 129 652 128 653 117 654 118 655 130 656 117 657 130 658 129 659 118 660 119 661 131 662 118 663 131 664 130 665 119 666 120 667 132 668 119 669 132 670 131 671 120 672 110 673 122 674 120 675 122 676 132 677 122 678 121 679 133 680 122 681 133 682 133 682 121 683 123 684 133 685 121 686 133 687 133 687 123 688 124 689 133 690 123 691 133 692 133 692 124 693 125 694 133 695 124 696 133 697 133 697 125 698 126 699 133 700 125 701 133 702 133 702 126 703 127 704 133 705 126 706 133 707 133 707 127 708 128 709 133 710 127 711 133 712 133 712 128 713 129 714 133 715 128 716 133 717 133 717 129 718 130 719 133 720 129 721 133 722 133 722 130 723 131 724 133 725 130 726 133 727 133 727 131 728 132 729 133 730 131 731 133 732 133 732 132 733 122 734 133 735 132 736 133 737 133 737 0 738 0 738 1 739 0 740 1 741 2 742 0 743 0 743 3 744 0 745 3 746 1 747 0 748 0 748 4 749 0 750 4 751 3 752 0 753 0 753 5 754 0 755 5 756 4 757 0 758 0 758 6 759 0 760 6 761 5 762 0 763 0 763 7 764 0 765 7 766 6 767 0 768 0 768 8 769 0 770 8 771 7 772 0 773 0 773 9 774 0 775 9 776 8 777 0 778 0 778 10 779 0 780 10 781 9 782 0 783 0 783 11 784 0 785 11 786 10 787 0 788 0 788 12 789 0 790 12 791 11 792 0 793 0 793 2 794 0 795 2 796 12 797 2 798 1 799 13 800 2 801 13 802 14 803 1 804 3 805 15 806 1 807 15 808 13 809 3 810 4 811 16 812 3 813 16 814 15 815 4 816 5 817 17 818 4 819 17 820 16 821 5 822 6 823 18 824 5 825 18 826 17 827 6 828 7 829 19 830 6 831 19 832 18 833 7 834 8 835 20 836 7 837 20 838 19 839</p>
                </triangles>
            </mesh>
        </geometry>
    </library_geometries>
    <library_visual_scenes>
        <visual_scene id="Building_54_CROWN2">
            <node>
                <instance_geometry url="#geometry0">
                    <bind_material>
                        <technique_common>
                            <instance_material symbol="default_ai_0.2_sh_0.2_tr_0.0_dc_r_0.8_g_0.8_b_0.8_sc_r_1.0_g_1.0_b_1.0_ec_r_0.0_g_0.0_b_0_tri" target="#default_ai_0.2_sh_0.2_tr_0.0_dc_r_0.8_g_0.8_b_0.8_sc_r_1.0_g_1.0_b_1.0_ec_r_0.0_g_0.0_b_0_mat"/>
                        </technique_common>
                    </bind_material>
                </instance_geometry>
            </node>
        </visual_scene>
    </library_visual_scenes>
    <scene>
        <instance_visual_scene url="#Building_54_CROWN2"/>
    </scene>
</COLLADA>
