<?xml version="1.0" encoding="UTF-8" standalone="yes"?>
<COLLADA xmlns="http://www.collada.org/2005/11/COLLADASchema" version="1.4.1">
    <asset>
        <contributor>
            <authoring_tool>3D City Database Importer/Exporter, version 5.5.3; Chair of Geoinformatics, Technical University of Munich</authoring_tool>
        </contributor>
        <created>2026-09-25T14:45:09.785</created>
        <modified>2026-09-25T14:45:09.785</modified>
        <unit meter="1.0" name="meters"/>
        <up_axis>Z_UP</up_axis>
    </asset>
    <library_materials>
        <material id="default_ai_0.2_sh_0.2_tr_0.0_dc_r_0.8_g_0.8_b_0.8_sc_r_1.0_g_1.0_b_1.0_ec_r_0.0_g_0.0_b_0_mat">
            <instance_effect url="#default_ai_0.2_sh_0.2_tr_0.0_dc_r_0.8_g_0.8_b_0.8_sc_r_1.0_g_1.0_b_1.0_ec_r_0.0_g_0.0_b_0_eff"/>
        </material>
    </library_materials>
    <library_effects>
        <effect id="default_ai_0.2_sh_0.2_tr_0.0_dc_r_0.8_g_0.8_b_0.8_sc_r_1.0_g_1.0_b_1.0_ec_r_0.0_g_0.0_b_0_eff">
            <profile_COMMON>
                <technique sid="COMMON">
                    <lambert>
                        <emission>
                            <color>0.0 0.0 0.0 1.0</color>
                        </emission>
                        <diffuse>
                            <color>0.8 0.8 0.8 1.0</color>
                        </diffuse>
                        <reflective>
                            <color>1.0 1.0 1.0 1.0</color>
                        </reflective>
                        <reflectivity>
                            <float>0.2</float>
                        </reflectivity>
                        <transparent opaque="A_ONE">
                            <color>1.0 1.0 1.0 1.0</color>
                        </transparent>
                        <transparency>
                            <float>1.0</float>
                        </transparency>
                    </lambert>
                </technique>
                <extra>
                    <technique profile="GOOGLEEARTH">
                        <double_sided>0</double_sided>
                    </technique>
                </extra>
            </profile_COMMON>
        </effect>
    </library_effects>
    <library_geometries>
        <geometry id="geometry0">
            <mesh>
                <source id="geometry0-position">
                    <float_array id="geometry0-position-array" count="402">0.0 0.0 3.6 0.4034592 0.232938 3.5386668 0.4658742 0.0 3.5386668 0.232938 0.4034592 3.5386668 0.0 0.4658742 3.5386668 -0.232938 0.4034592 3.5386668 -0.4034592 0.232938 3.5386668 -0.4658742 0.0 3.5386668 -0.4034592 -0.232938 3.5386668 -0.232938 -0.4034592 3.5386668 0.0 -0.4658742 3.5386668 0.232938 -0.4034592 3.5386668 0.4034592 -0.232938 3.5386668 0.7794234 0.45 3.358845 0.9 0.0 3.358845 0.45 0.7794234 3.358845 0.0 0.9 3.358845 -0.45 0.7794234 3.358845 -0.7794234 0.45 3.358845 -0.9 0.0 3.358845 -0.7794234 -0.45 3.358845 -0.45 -0.7794234 3.358845 0.0 -0.9 3.358845 0.45 -0.7794234 3.358845 0.7794234 -0.45 3.358845 1.1022696 0.6363954 3.0727926 1.2727926 0.0 3.0727926 0.6363954 1.1022696 3.0727926 0.0 1.2727926 3.0727926 -0.6363954 1.1022696 3.0727926 -1.1022696 0.6363954 3.0727926 -1.2727926 0.0 3.0727926 -1.1022696 -0.6363954 3.0727926 -0.6363954 -1.1022696 3.0727926 0.0 -1.2727926 3.0727926 0.6363954 -1.1022696 3.0727926 1.1022696 -0.6363954 3.0727926 1.35 0.7794234 2.7 1.558845 0.0 2.7 0.7794234 1.35 2.7 0.0 1.558845 2.7 -0.7794234 1.35 2.7 -1.35 0.7794234 2.7 -1.558845 0.0 2.7 -1.35 -0.7794234 2.7 -0.7794234 -1.35 2.7 0.0 -1.558845 2.7 0.7794234 -1.35 2.7 1.35 -0.7794234 2.7 1.5057288 0.8693334 2.2658742 1.7386668 0.0 2.2658742 0.8693334 1.5057288 2.2658742 0.0 1.7386668 2.2658742 -0.8693334 1.5057288 2.2658742 -1.5057288 0.8693334 2.2658742 -1.7386668 0.0 2.2658742 -1.5057288 -0.8693334 2.2658742 -0.8693334 -1.5057288 2.2658742 0.0 -1.7386668 2.2658742 0.8693334 -1.5057288 2.2658742 1.5057288 -0.8693334 2.2658742 1.558845 0.9 1.8 1.8 0.0 1.8 0.9 1.558845 1.8 0.0 1.8 1.8 -0.9 1.558845 1.8 -1.558845 0.9 1.8 -1.8 0.0 1.8 -1.558845 -0.9 1.8 -0.9 -1.558845 1.8 0.0 -1.8 1.8 0.9 -1.558845 1.8 1.558845 -0.9 1.8 1.5057288 0.8693334 1.3341258 1.7386668 0.0 1.3341258 0.8693334 1.5057288 1.3341258 0.0 1.7386668 1.3341258 -0.8693334 1.5057288 1.3341258 -1.5057288 0.8693334 1.3341258 -1.7386668 0.0 1.3341258 -1.5057288 -0.8693334 1.3341258 -0.8693334 -1.5057288 1.3341258 0.0 -1.7386668 1.3341258 0.8693334 -1.5057288 1.3341258 1.5057288 -0.8693334 1.3341258 1.35 0.7794234 0.9 1.558845 0.0 0.9 0.7794234 1.35 0.9 0.0 1.558845 0.9 -0.7794234 1.35 0.9 -1.35 0.7794234 0.9 -1.558845 0.0 0.9 -1.35 -0.7794234 0.9 -0.7794234 -1.35 0.9 0.0 -1.558845 0.9 0.7794234 -1.35 0.9 1.35 -0.7794234 0.9 1.1022696 0.6363954 0.5272074 1.2727926 0.0 0.5272074 0.6363954 1.1022696 0.5272074 0.0 1.2727926 0.5272074 -0.6363954 1.1022696 0.5272074 -1.1022696 0.6363954 0.5272074 -1.2727926 0.0 0.5272074 -1.1022696 -0.6363954 0.5272074 -0.6363954 -1.1022696 0.5272074 0.0 -1.2727926 0.5272074 0.6363954 -1.1022696 0.5272074 1.1022696 -0.6363954 0.5272074 0.7794234 0.45 0.241155 0.9 0.0 0.241155 0.45 0.7794234 0.241155 0.0 0.9 0.241155 -0.45 0.7794234 0.241155 -0.7794234 0.45 0.241155 -0.9 0.0 0.241155 -0.7794234 -0.45 0.241155 -0.45 -0.7794234 0.241155 0.0 -0.9 0.241155 0.45 -0.7794234 0.241155 0.7794234 -0.45 0.241155 0.4034592 0.232938 0.0613332 0.4658742 0.0 0.0613332 0.232938 0.4034592 0.0613332 0.0 0.4658742 0.0613332 -0.232938 0.4034592 0.0613332 -0.4034592 0.232938 0.0613332 -0.4658742 0.0 0.0613332 -0.4034592 -0.232938 0.0613332 -0.232938 -0.4034592 0.0613332 0.0 -0.4658742 0.0613332 0.232938 -0.4034592 0.0613332 0.4034592 -0.232938 0.0613332 0.0 0.0 0.0</float_array>
                    <technique_common>
                        <accessor count="134" source="#geometry0-position-array" stride="3">
                            <param name="X" type="float"/>
                            <param name="Y" type="float"/>
                            <param name="Z" type="float"/>
                        </accessor>
                    </technique_common>
                </source>
                <source id="geometry0-normal">
                    <float_array id="geometry0-normal-array" count="2520">-0.4398313 0.4398313 0.783005 -0.4398313 0.4398313 0.783005 -0.4398313 0.4398313 0.783005 -0.4398313 0.4398313 0.783005 -0.4398313 0.4398313 0.783005 -0.4398313 0.4398313 0.783005 -0.6008189 0.1609901 0.7830063 -0.6008189 0.1609901 0.7830063 -0.6008189 0.1609901 0.7830063 -0.6008211 0.1609888 0.7830049 -0.6008211 0.1609888 0.7830049 -0.6008211 0.1609888 0.7830049 -0.3806893 -0.1020049 0.9190596 -0.3806893 -0.1020049 0.9190596 -0.3806893 -0.1020049 0.9190596 -0.3806891 -0.1020044 0.9190598 -0.3806891 -0.1020044 0.9190598 -0.3806891 -0.1020044 0.9190598 -0.278684 -0.278684 0.9190595 -0.278684 -0.278684 0.9190595 -0.278684 -0.278684 0.9190595 -0.278684 -0.278684 0.9190595 -0.278684 -0.278684 0.9190595 -0.278684 -0.278684 0.9190595 -0.1020049 -0.3806892 0.9190598 -0.1020049 -0.3806892 0.9190598 -0.1020049 -0.3806892 0.9190598 -0.1020046 -0.3806895 0.9190596 -0.1020046 -0.3806895 0.9190596 -0.1020046 -0.3806895 0.9190596 0.1020049 -0.3806893 0.9190596 0.1020049 -0.3806893 0.9190596 0.1020049 -0.3806893 0.9190596 0.1020044 -0.3806891 0.9190598 0.1020044 -0.3806891 0.9190598 0.1020044 -0.3806891 0.9190598 0.278684 -0.278684 0.9190595 0.278684 -0.278684 0.9190595 0.278684 -0.278684 0.9190595 0.278684 -0.278684 0.9190595 0.278684 -0.278684 0.9190595 0.278684 -0.278684 0.9190595 0.3806892 -0.1020049 0.9190598 0.3806892 -0.1020049 0.9190598 0.3806892 -0.1020049 0.9190598 0.3806895 -0.1020046 0.9190596 0.3806895 -0.1020046 0.9190596 0.3806895 -0.1020046 0.9190596 0.3806893 0.1020049 0.9190596 0.3806893 0.1020049 0.9190596 0.3806893 0.1020049 0.9190596 0.3806891 0.1020044 0.9190598 0.3806891 0.1020044 0.9190598 0.3806891 0.1020044 0.9190598 0.278684 0.278684 0.9190595 0.278684 0.278684 0.9190595 0.278684 0.278684 0.9190595 0.278684 0.278684 0.9190595 0.278684 0.278684 0.9190595 0.278684 0.278684 0.9190595 0.1020049 0.3806892 0.9190598 0.1020049 0.3806892 0.9190598 0.1020049 0.3806892 0.9190598 0.1020046 0.3806895 0.9190596 0.1020046 0.3806895 0.9190596 0.1020046 0.3806895 0.9190596 -0.1020049 0.3806893 0.9190596 -0.1020049 0.3806893 0.9190596 -0.1020049 0.3806893 0.9190596 -0.1020044 0.3806891 0.9190598 -0.1020044 0.3806891 0.9190598 -0.1020044 0.3806891 0.9190598 -0.278684 0.278684 0.9190595 -0.278684 0.278684 0.9190595 -0.278684 0.278684 0.9190595 -0.278684 0.278684 0.9190595 -0.278684 0.278684 0.9190595 -0.278684 0.278684 0.9190595 -0.3806892 0.1020049 0.9190598 -0.3806892 0.1020049 0.9190598 -0.3806892 0.1020049 0.9190598 -0.3806895 0.1020046 0.9190596 -0.3806895 0.1020046 0.9190596 -0.3806895 0.1020046 0.9190596 -0.1304458 -0.0349525 0.9908391 -0.1304458 -0.0349525 0.9908391 -0.1304458 -0.0349525 0.9908391 1.0 0.0 0.0 1.0 0.0 0.0 -0.0954928 -0.0954928 0.9908392 -0.0954928 -0.0954928 0.9908392 -0.0954928 -0.0954928 0.9908392 1.0 0.0 0.0 1.0 0.0 0.0 -0.0349525 -0.1304458 0.9908391 -0.0349525 -0.1304458 0.9908391 -0.0349525 -0.1304458 0.9908391 1.0 0.0 0.0 1.0 0.0 0.0 0.0349525 -0.1304458 0.9908391 0.0349525 -0.1304458 0.9908391 0.0349525 -0.1304458 0.9908391 1.0 0.0 0.0 1.0 0.0 0.0 0.0954928 -0.0954928 0.9908392 0.0954928 -0.0954928 0.9908392 0.0954928 -0.0954928 0.9908392 1.0 0.0 0.0 1.0 0.0 0.0 0.1304458 -0.0349525 0.9908391 0.1304458 -0.0349525 0.9908391 0.1304458 -0.0349525 0.9908391 1.0 0.0 0.0 1.0 0.0 0.0 0.1304458 0.0349525 0.9908391 0.1304458 0.0349525 0.9908391 0.1304458 0.0349525 0.9908391 1.0 0.0 0.0 1.0 0.0 0.0 0.0954928 0.0954928 0.9908392 0.0954928 0.0954928 0.9908392 0.0954928 0.0954928 0.9908392 1.0 0.0 0.0 1.0 0.0 0.0 0.0349525 0.1304458 0.9908391 0.0349525 0.1304458 0.9908391 0.0349525 0.1304458 0.9908391 1.0 0.0 0.0 1.0 0.0 0.0 -0.0349525 0.1304458 0.9908391 -0.0349525 0.1304458 0.9908391 -0.0349525 0.1304458 0.9908391 1.0 0.0 0.0 1.0 0.0 0.0 -0.0954928 0.0954928 0.9908392 -0.0954928 0.0954928 0.9908392 -0.0954928 0.0954928 0.9908392 1.0 0.0 0.0 1.0 0.0 0.0 -0.1304458 0.0349525 0.9908391 -0.1304458 0.0349525 0.9908391 -0.1304458 0.0349525 0.9908391 1.0 0.0 0.0 1.0 0.0 0.0 1.0 0.0 0.0 1.0 0.0 0.0 -0.1304458 -0.0349525 -0.9908391 -0.1304458 -0.0349525 -0.9908391 -0.1304458 -0.0349525 -0.9908391 1.0 0.0 0.0 1.0 0.0 0.0 -0.0954927 -0.0954927 -0.9908392 -0.0954927 -0.0954927 -0.9908392 -0.0954927 -0.0954927 -0.9908392 1.0 0.0 0.0 1.0 0.0 0.0 -0.0349525 -0.1304458 -0.9908391 -0.0349525 -0.1304458 -0.9908391 -0.0349525 -0.1304458 -0.9908391 1.0 0.0 0.0 1.0 0.0 0.0 0.0349525 -0.1304458 -0.9908391 0.0349525 -0.1304458 -0.9908391 0.0349525 -0.1304458 -0.9908391 1.0 0.0 0.0 1.0 0.0 0.0 0.0954927 -0.0954927 -0.9908392 0.0954927 -0.0954927 -0.9908392 0.0954927 -0.0954927 -0.9908392 1.0 0.0 0.0 1.0 0.0 0.0 0.1304458 -0.0349525 -0.9908391 0.1304458 -0.0349525 -0.9908391 0.1304458 -0.0349525 -0.9908391 1.0 0.0 0.0 1.0 0.0 0.0 0.1304458 0.0349525 -0.9908391 0.1304458 0.0349525 -0.9908391 0.1304458 0.0349525 -0.9908391 1.0 0.0 0.0 1.0 0.0 0.0 0.0954927 0.0954927 -0.9908392 0.0954927 0.0954927 -0.9908392 0.0954927 0.0954927 -0.9908392 1.0 0.0 0.0 1.0 0.0 0.0 0.0349525 0.1304458 -0.9908391 0.0349525 0.1304458 -0.9908391 0.0349525 0.1304458 -0.9908391 1.0 0.0 0.0 1.0 0.0 0.0 -0.0349525 0.1304458 -0.9908391 -0.0349525 0.1304458 -0.9908391 -0.0349525 0.1304458 -0.9908391 1.0 0.0 0.0 1.0 0.0 0.0 -0.0954927 0.0954927 -0.9908392 -0.0954927 0.0954927 -0.9908392 -0.0954927 0.0954927 -0.9908392 1.0 0.0 0.0 1.0 0.0 0.0 -0.1304458 0.0349525 -0.9908391 -0.1304458 0.0349525 -0.9908391 -0.1304458 0.0349525 -0.9908391 -0.3806894 -0.1020045 -0.9190597 -0.3806894 -0.1020045 -0.9190597 -0.3806894 -0.1020045 -0.9190597 -0.380689 -0.1020048 -0.9190598 -0.380689 -0.1020048 -0.9190598 -0.380689 -0.1020048 -0.9190598 -0.278684 -0.278684 -0.9190596 -0.278684 -0.278684 -0.9190596 -0.278684 -0.278684 -0.9190596 -0.278684 -0.278684 -0.9190596 -0.278684 -0.278684 -0.9190596 -0.278684 -0.278684 -0.9190596 -0.1020044 -0.3806891 -0.9190599 -0.1020044 -0.3806891 -0.9190599 -0.1020044 -0.3806891 -0.9190599 -0.1020049 -0.3806892 -0.9190597 -0.1020049 -0.3806892 -0.9190597 -0.1020049 -0.3806892 -0.9190597 0.1020045 -0.3806894 -0.9190597 0.1020045 -0.3806894 -0.9190597 0.1020045 -0.3806894 -0.9190597 0.1020048 -0.380689 -0.9190598 0.1020048 -0.380689 -0.9190598 0.1020048 -0.380689 -0.9190598 0.278684 -0.278684 -0.9190596 0.278684 -0.278684 -0.9190596 0.278684 -0.278684 -0.9190596 0.278684 -0.278684 -0.9190596 0.278684 -0.278684 -0.9190596 0.278684 -0.278684 -0.9190596 0.3806891 -0.1020044 -0.9190599 0.3806891 -0.1020044 -0.9190599 0.3806891 -0.1020044 -0.9190599 0.3806892 -0.1020049 -0.9190597 0.3806892 -0.1020049 -0.9190597 0.3806892 -0.1020049 -0.9190597 0.3806894 0.1020045 -0.9190597 0.3806894 0.1020045 -0.9190597 0.3806894 0.1020045 -0.9190597 0.380689 0.1020048 -0.9190598 0.380689 0.1020048 -0.9190598 0.380689 0.1020048 -0.9190598 0.278684 0.278684 -0.9190596 0.278684 0.278684 -0.9190596 0.278684 0.278684 -0.9190596 0.278684 0.278684 -0.9190596 0.278684 0.278684 -0.9190596 0.278684 0.278684 -0.9190596 0.1020044 0.3806891 -0.9190599 0.1020044 0.3806891 -0.9190599 0.1020044 0.3806891 -0.9190599 0.1020049 0.3806892 -0.9190597 0.1020049 0.3806892 -0.9190597 0.1020049 0.3806892 -0.9190597 -0.1020045 0.3806894 -0.9190597 -0.1020045 0.3806894 -0.9190597 -0.1020045 0.3806894 -0.9190597 -0.1020048 0.380689 -0.9190598 -0.1020048 0.380689 -0.9190598 -0.1020048 0.380689 -0.9190598 -0.278684 0.278684 -0.9190596 -0.278684 0.278684 -0.9190596 -0.278684 0.278684 -0.9190596 -0.278684 0.278684 -0.9190596 -0.278684 0.278684 -0.9190596 -0.278684 0.278684 -0.9190596 -0.3806891 0.1020044 -0.9190599 -0.3806891 0.1020044 -0.9190599 -0.3806891 0.1020044 -0.9190599 -0.3806892 0.1020049 -0.9190597 -0.3806892 0.1020049 -0.9190597 -0.3806892 0.1020049 -0.9190597 -0.6008213 -0.1609888 -0.7830048 -0.6008213 -0.1609888 -0.7830048 -0.6008213 -0.1609888 -0.7830048 -0.6008189 -0.1609902 -0.7830063 -0.6008189 -0.1609902 -0.7830063 -0.6008189 -0.1609902 -0.7830063 -0.4398314 -0.4398314 -0.7830049 -0.4398314 -0.4398314 -0.7830049 -0.4398314 -0.4398314 -0.7830049 -0.4398314 -0.4398314 -0.7830049 -0.4398314 -0.4398314 -0.7830049 -0.4398314 -0.4398314 -0.7830049 -0.1609882 -0.6008192 -0.7830065 -0.1609882 -0.6008192 -0.7830065 -0.1609882 -0.6008192 -0.7830065 -0.1609906 -0.6008204 -0.7830051 -0.1609906 -0.6008204 -0.7830051 -0.1609906 -0.6008204 -0.7830051 0.1609888 -0.6008213 -0.7830048 0.1609888 -0.6008213 -0.7830048 0.1609888 -0.6008213 -0.7830048 0.1609902 -0.6008189 -0.7830063 0.1609902 -0.6008189 -0.7830063 0.1609902 -0.6008189 -0.7830063 0.4398314 -0.4398314 -0.7830049 0.4398314 -0.4398314 -0.7830049 0.4398314 -0.4398314 -0.7830049 0.4398314 -0.4398314 -0.7830049 0.4398314 -0.4398314 -0.7830049 0.4398314 -0.4398314 -0.7830049 0.6008192 -0.1609882 -0.7830065 0.6008192 -0.1609882 -0.7830065 0.6008192 -0.1609882 -0.7830065 0.6008204 -0.1609906 -0.7830051 0.6008204 -0.1609906 -0.7830051 0.6008204 -0.1609906 -0.7830051 0.6008213 0.1609888 -0.7830048 0.6008213 0.1609888 -0.7830048 0.6008213 0.1609888 -0.7830048 0.6008189 0.1609902 -0.7830063 0.6008189 0.1609902 -0.7830063 0.6008189 0.1609902 -0.7830063 0.4398314 0.4398314 -0.7830049 0.4398314 0.4398314 -0.7830049 0.4398314 0.4398314 -0.7830049 0.4398314 0.4398314 -0.7830049 0.4398314 0.4398314 -0.7830049 0.4398314 0.4398314 -0.7830049 0.1609882 0.6008192 -0.7830065 0.1609882 0.6008192 -0.7830065 0.1609882 0.6008192 -0.7830065 0.1609906 0.6008204 -0.7830051 0.1609906 0.6008204 -0.7830051 0.1609906 0.6008204 -0.7830051 -0.1609888 0.6008213 -0.7830048 -0.1609888 0.6008213 -0.7830048 -0.1609888 0.6008213 -0.7830048 -0.1609902 0.6008189 -0.7830063 -0.1609902 0.6008189 -0.7830063 -0.1609902 0.6008189 -0.7830063 -0.4398314 0.4398314 -0.7830049 -0.4398314 0.4398314 -0.7830049 -0.4398314 0.4398314 -0.7830049 -0.4398314 0.4398314 -0.7830049 -0.4398314 0.4398314 -0.7830049 -0.4398314 0.4398314 -0.7830049 -0.6008192 0.1609882 -0.7830065 -0.6008192 0.1609882 -0.7830065 -0.6008192 0.1609882 -0.7830065 -0.6008204 0.1609906 -0.7830051 -0.6008204 0.1609906 -0.7830051 -0.6008204 0.1609906 -0.7830051 -0.7760118 -0.2079333 -0.5954573 -0.7760118 -0.2079333 -0.5954573 -0.7760118 -0.2079333 -0.5954573 -0.7760146 -0.2079316 -0.5954543 -0.7760146 -0.2079316 -0.5954543 -0.7760146 -0.2079316 -0.5954543 -0.5680802 -0.5680802 -0.5954576 -0.5680802 -0.5680802 -0.5954576 -0.5680802 -0.5680802 -0.5954576 -0.5680802 -0.5680802 -0.5954576 -0.5680802 -0.5680802 -0.5954576 -0.5680802 -0.5680802 -0.5954576 -0.207934 -0.7760142 -0.595454 -0.207934 -0.7760142 -0.595454 -0.207934 -0.7760142 -0.595454 -0.2079311 -0.7760127 -0.5954569 -0.2079311 -0.7760127 -0.5954569 -0.2079311 -0.7760127 -0.5954569 0.2079333 -0.7760118 -0.5954573 0.2079333 -0.7760118 -0.5954573 0.2079333 -0.7760118 -0.5954573 0.2079316 -0.7760146 -0.5954543 0.2079316 -0.7760146 -0.5954543 0.2079316 -0.7760146 -0.5954543 0.5680802 -0.5680802 -0.5954576 0.5680802 -0.5680802 -0.5954576 0.5680802 -0.5680802 -0.5954576 0.5680802 -0.5680802 -0.5954576 0.5680802 -0.5680802 -0.5954576 0.5680802 -0.5680802 -0.5954576 0.7760142 -0.207934 -0.595454 0.7760142 -0.207934 -0.595454 0.7760142 -0.207934 -0.595454 0.7760127 -0.2079311 -0.5954569 0.7760127 -0.2079311 -0.5954569 0.7760127 -0.2079311 -0.5954569 0.7760118 0.2079333 -0.5954573 0.7760118 0.2079333 -0.5954573 0.7760118 0.2079333 -0.5954573 0.7760146 0.2079316 -0.5954543 0.7760146 0.2079316 -0.5954543 0.7760146 0.2079316 -0.5954543 0.5680802 0.5680802 -0.5954576 0.5680802 0.5680802 -0.5954576 0.5680802 0.5680802 -0.5954576 0.5680802 0.5680802 -0.5954576 0.5680802 0.5680802 -0.5954576 0.5680802 0.5680802 -0.5954576 0.207934 0.7760142 -0.595454 0.207934 0.7760142 -0.595454 0.207934 0.7760142 -0.595454 0.2079311 0.7760127 -0.5954569 0.2079311 0.7760127 -0.5954569 0.2079311 0.7760127 -0.5954569 -0.2079333 0.7760118 -0.5954573 -0.2079333 0.7760118 -0.5954573 -0.2079333 0.7760118 -0.5954573 -0.2079316 0.7760146 -0.5954543 -0.2079316 0.7760146 -0.5954543 -0.2079316 0.7760146 -0.5954543 -0.5680802 0.5680802 -0.5954576 -0.5680802 0.5680802 -0.5954576 -0.5680802 0.5680802 -0.5954576 -0.5680802 0.5680802 -0.5954576 -0.5680802 0.5680802 -0.5954576 -0.5680802 0.5680802 -0.5954576 -0.7760142 0.207934 -0.595454 -0.7760142 0.207934 -0.595454 -0.7760142 0.207934 -0.595454 -0.7760127 0.2079311 -0.5954569 -0.7760127 0.2079311 -0.5954569 -0.7760127 0.2079311 -0.5954569 -0.8968096 -0.2402984 -0.371469 -0.8968096 -0.2402984 -0.371469 -0.8968096 -0.2402984 -0.371469 -0.896808 -0.2402998 -0.3714719 -0.896808 -0.2402998 -0.3714719 -0.896808 -0.2402998 -0.3714719 -0.65651 -0.65651 -0.371469 -0.65651 -0.65651 -0.371469 -0.65651 -0.65651 -0.371469 -0.65651 -0.65651 -0.371469 -0.65651 -0.65651 -0.371469 -0.65651 -0.65651 -0.371469 -0.2402981 -0.8968084 -0.3714721 -0.2402981 -0.8968084 -0.3714721 -0.2402981 -0.8968084 -0.3714721 -0.2403001 -0.8968092 -0.3714691 -0.2403001 -0.8968092 -0.3714691 -0.2403001 -0.8968092 -0.3714691 0.2402984 -0.8968096 -0.371469 0.2402984 -0.8968096 -0.371469 0.2402984 -0.8968096 -0.371469 0.2402998 -0.896808 -0.3714719 0.2402998 -0.896808 -0.3714719 0.2402998 -0.896808 -0.3714719 0.65651 -0.65651 -0.371469 0.65651 -0.65651 -0.371469 0.65651 -0.65651 -0.371469 0.65651 -0.65651 -0.371469 0.65651 -0.65651 -0.371469 0.65651 -0.65651 -0.371469 0.8968084 -0.2402981 -0.3714721 0.8968084 -0.2402981 -0.3714721 0.8968084 -0.2402981 -0.3714721 0.8968092 -0.2403001 -0.3714691 0.8968092 -0.2403001 -0.3714691 0.8968092 -0.2403001 -0.3714691 0.8968096 0.2402984 -0.371469 0.8968096 0.2402984 -0.371469 0.8968096 0.2402984 -0.371469 0.896808 0.2402998 -0.3714719 0.896808 0.2402998 -0.3714719 0.896808 0.2402998 -0.3714719 0.65651 0.65651 -0.371469 0.65651 0.65651 -0.371469 0.65651 0.65651 -0.371469 0.65651 0.65651 -0.371469 0.65651 0.65651 -0.371469 0.65651 0.65651 -0.371469 0.2402981 0.8968084 -0.3714721 0.2402981 0.8968084 -0.3714721 0.2402981 0.8968084 -0.3714721 0.2403001 0.8968092 -0.3714691 0.2403001 0.8968092 -0.3714691 0.2403001 0.8968092 -0.3714691 -0.2402984 0.8968096 -0.371469 -0.2402984 0.8968096 -0.371469 -0.2402984 0.8968096 -0.371469 -0.2402998 0.896808 -0.3714719 -0.2402998 0.896808 -0.3714719 -0.2402998 0.896808 -0.3714719 -0.65651 0.65651 -0.371469 -0.65651 0.65651 -0.371469 -0.65651 0.65651 -0.371469 -0.65651 0.65651 -0.371469 -0.65651 0.65651 -0.371469 -0.65651 0.65651 -0.371469 -0.8968084 0.2402981 -0.3714721 -0.8968084 0.2402981 -0.3714721 -0.8968084 0.2402981 -0.3714721 -0.8968092 0.2403001 -0.3714691 -0.8968092 0.2403001 -0.3714691 -0.8968092 0.2403001 -0.3714691 -0.958209 -0.2567521 -0.1261502 -0.958209 -0.2567521 -0.1261502 -0.958209 -0.2567521 -0.1261502 -0.958209 -0.256752 -0.1261499 -0.958209 -0.256752 -0.1261499 -0.958209 -0.256752 -0.1261499 -0.7014578 -0.7014578 -0.1261501 -0.7014578 -0.7014578 -0.1261501 -0.7014578 -0.7014578 -0.1261501 -0.7014578 -0.7014578 -0.1261501 -0.7014578 -0.7014578 -0.1261501 -0.7014578 -0.7014578 -0.1261501 -0.2567522 -0.958209 -0.12615 -0.2567522 -0.958209 -0.12615 -0.2567522 -0.958209 -0.12615 -0.256752 -0.958209 -0.1261502 -0.256752 -0.958209 -0.1261502 -0.256752 -0.958209 -0.1261502 0.2567521 -0.958209 -0.1261502 0.2567521 -0.958209 -0.1261502 0.2567521 -0.958209 -0.1261502 0.256752 -0.958209 -0.1261499 0.256752 -0.958209 -0.1261499 0.256752 -0.958209 -0.1261499 0.7014578 -0.7014578 -0.1261501 0.7014578 -0.7014578 -0.1261501 0.7014578 -0.7014578 -0.1261501 0.7014578 -0.7014578 -0.1261501 0.7014578 -0.7014578 -0.1261501 0.7014578 -0.7014578 -0.1261501 0.958209 -0.2567522 -0.12615 0.958209 -0.2567522 -0.12615 0.958209 -0.2567522 -0.12615 0.958209 -0.256752 -0.1261502 0.958209 -0.256752 -0.1261502 0.958209 -0.256752 -0.1261502 0.958209 0.2567521 -0.1261502 0.958209 0.2567521 -0.1261502 0.958209 0.2567521 -0.1261502 0.958209 0.256752 -0.1261499 0.958209 0.256752 -0.1261499 0.958209 0.256752 -0.1261499 0.7014578 0.7014578 -0.1261501 0.7014578 0.7014578 -0.1261501 0.7014578 0.7014578 -0.1261501 0.7014578 0.7014578 -0.1261501 0.7014578 0.7014578 -0.1261501 0.7014578 0.7014578 -0.1261501 0.2567522 0.958209 -0.12615 0.2567522 0.958209 -0.12615 0.2567522 0.958209 -0.12615 0.256752 0.958209 -0.1261502 0.256752 0.958209 -0.1261502 0.256752 0.958209 -0.1261502 -0.2567521 0.958209 -0.1261502 -0.2567521 0.958209 -0.1261502 -0.2567521 0.958209 -0.1261502 -0.256752 0.958209 -0.1261499 -0.256752 0.958209 -0.1261499 -0.256752 0.958209 -0.1261499 -0.7014578 0.7014578 -0.1261501 -0.7014578 0.7014578 -0.1261501 -0.7014578 0.7014578 -0.1261501 -0.7014578 0.7014578 -0.1261501 -0.7014578 0.7014578 -0.1261501 -0.7014578 0.7014578 -0.1261501 -0.958209 0.2567522 -0.12615 -0.958209 0.2567522 -0.12615 -0.958209 0.2567522 -0.12615 -0.958209 0.256752 -0.1261502 -0.958209 0.256752 -0.1261502 -0.958209 0.256752 -0.1261502 -0.958209 -0.256752 0.1261502 -0.958209 -0.256752 0.1261502 -0.958209 -0.256752 0.1261502 -0.958209 -0.2567522 0.12615 -0.958209 -0.2567522 0.12615 -0.958209 -0.2567522 0.12615 -0.7014578 -0.7014578 0.1261501 -0.7014578 -0.7014578 0.1261501 -0.7014578 -0.7014578 0.1261501 -0.7014578 -0.7014578 0.1261502 -0.7014578 -0.7014578 0.1261502 -0.7014578 -0.7014578 0.1261502 -0.256752 -0.958209 0.12615 -0.256752 -0.958209 0.12615 -0.256752 -0.958209 0.12615 -0.2567521 -0.958209 0.1261502 -0.2567521 -0.958209 0.1261502 -0.2567521 -0.958209 0.1261502 0.256752 -0.958209 0.1261502 0.256752 -0.958209 0.1261502 0.256752 -0.958209 0.1261502 0.2567522 -0.958209 0.12615 0.2567522 -0.958209 0.12615 0.2567522 -0.958209 0.12615 0.7014578 -0.7014578 0.1261501 0.7014578 -0.7014578 0.1261501 0.7014578 -0.7014578 0.1261501 0.7014578 -0.7014578 0.1261502 0.7014578 -0.7014578 0.1261502 0.7014578 -0.7014578 0.1261502 0.958209 -0.256752 0.12615 0.958209 -0.256752 0.12615 0.958209 -0.256752 0.12615 0.958209 -0.2567521 0.1261502 0.958209 -0.2567521 0.1261502 0.958209 -0.2567521 0.1261502 0.958209 0.256752 0.1261502 0.958209 0.256752 0.1261502 0.958209 0.256752 0.1261502 0.958209 0.2567522 0.12615 0.958209 0.2567522 0.12615 0.958209 0.2567522 0.12615 0.7014578 0.7014578 0.1261501 0.7014578 0.7014578 0.1261501 0.7014578 0.7014578 0.1261501 0.7014578 0.7014578 0.1261502 0.7014578 0.7014578 0.1261502 0.7014578 0.7014578 0.1261502 0.256752 0.958209 0.12615 0.256752 0.958209 0.12615 0.256752 0.958209 0.12615 0.2567521 0.958209 0.1261502 0.2567521 0.958209 0.1261502 0.2567521 0.958209 0.1261502 -0.256752 0.958209 0.1261502 -0.256752 0.958209 0.1261502 -0.256752 0.958209 0.1261502 -0.2567522 0.958209 0.12615 -0.2567522 0.958209 0.12615 -0.2567522 0.958209 0.12615 -0.7014578 0.7014578 0.1261501 -0.7014578 0.7014578 0.1261501 -0.7014578 0.7014578 0.1261501 -0.7014578 0.7014578 0.1261502 -0.7014578 0.7014578 0.1261502 -0.7014578 0.7014578 0.1261502 -0.958209 0.256752 0.12615 -0.958209 0.256752 0.12615 -0.958209 0.256752 0.12615 -0.958209 0.2567521 0.1261502 -0.958209 0.2567521 0.1261502 -0.958209 0.2567521 0.1261502 -0.896809 -0.2403 0.3714692 -0.896809 -0.2403 0.3714692 -0.896809 -0.2403 0.3714692 -0.8968084 -0.2402981 0.3714721 -0.8968084 -0.2402981 0.3714721 -0.8968084 -0.2402981 0.3714721 -0.6565099 -0.6565099 0.3714691 -0.6565099 -0.6565099 0.3714691 -0.6565099 -0.6565099 0.3714691 -0.65651 -0.65651 0.3714691 -0.65651 -0.65651 0.3714691 -0.65651 -0.65651 0.3714691 -0.2402998 -0.896808 0.371472 -0.2402998 -0.896808 0.371472 -0.2402998 -0.896808 0.371472 -0.2402984 -0.8968096 0.3714691 -0.2402984 -0.8968096 0.3714691 -0.2402984 -0.8968096 0.3714691 0.2403 -0.896809 0.3714692 0.2403 -0.896809 0.3714692 0.2403 -0.896809 0.3714692 0.2402981 -0.8968084 0.3714721 0.2402981 -0.8968084 0.3714721 0.2402981 -0.8968084 0.3714721 0.6565099 -0.6565099 0.3714691 0.6565099 -0.6565099 0.3714691 0.6565099 -0.6565099 0.3714691 0.65651 -0.65651 0.3714691 0.65651 -0.65651 0.3714691 0.65651 -0.65651 0.3714691 0.896808 -0.2402998 0.371472 0.896808 -0.2402998 0.371472 0.896808 -0.2402998 0.371472 0.8968096 -0.2402984 0.3714691 0.8968096 -0.2402984 0.3714691 0.8968096 -0.2402984 0.3714691 0.896809 0.2403 0.3714692 0.896809 0.2403 0.3714692 0.896809 0.2403 0.3714692 0.8968084 0.2402981 0.3714721 0.8968084 0.2402981 0.3714721 0.8968084 0.2402981 0.3714721 0.6565099 0.6565099 0.3714691 0.6565099 0.6565099 0.3714691 0.6565099 0.6565099 0.3714691 0.65651 0.65651 0.3714691 0.65651 0.65651 0.3714691 0.65651 0.65651 0.3714691 0.2402998 0.896808 0.371472 0.2402998 0.896808 0.371472 0.2402998 0.896808 0.371472 0.2402984 0.8968096 0.3714691 0.2402984 0.8968096 0.3714691 0.2402984 0.8968096 0.3714691 -0.2403 0.896809 0.3714692 -0.2403 0.896809 0.3714692 -0.2403 0.896809 0.3714692 -0.2402981 0.8968084 0.3714721 -0.2402981 0.8968084 0.3714721 -0.2402981 0.8968084 0.3714721 -0.6565099 0.6565099 0.3714691 -0.6565099 0.6565099 0.3714691 -0.6565099 0.6565099 0.3714691 -0.65651 0.65651 0.3714691 -0.65651 0.65651 0.3714691 -0.65651 0.65651 0.3714691 -0.896808 0.2402998 0.371472 -0.896808 0.2402998 0.371472 -0.896808 0.2402998 0.371472 -0.8968096 0.2402984 0.3714691 -0.8968096 0.2402984 0.3714691 -0.8968096 0.2402984 0.3714691 -0.7760128 -0.2079311 0.5954568 -0.7760128 -0.2079311 0.5954568 -0.7760128 -0.2079311 0.5954568 -0.7760143 -0.207934 0.5954539 -0.7760143 -0.207934 0.5954539 -0.7760143 -0.207934 0.5954539 -0.5680803 -0.5680803 0.5954574 -0.5680803 -0.5680803 0.5954574 -0.5680803 -0.5680803 0.5954574 -0.5680803 -0.5680803 0.5954575 -0.5680803 -0.5680803 0.5954575 -0.5680803 -0.5680803 0.5954575 -0.2079317 -0.7760147 0.5954542 -0.2079317 -0.7760147 0.5954542 -0.2079317 -0.7760147 0.5954542 -0.2079334 -0.776012 0.5954572 -0.2079334 -0.776012 0.5954572 -0.2079334 -0.776012 0.5954572 0.2079311 -0.7760128 0.5954568 0.2079311 -0.7760128 0.5954568 0.2079311 -0.7760128 0.5954568 0.207934 -0.7760143 0.5954539 0.207934 -0.7760143 0.5954539 0.207934 -0.7760143 0.5954539 0.5680803 -0.5680803 0.5954574 0.5680803 -0.5680803 0.5954574 0.5680803 -0.5680803 0.5954574 0.5680803 -0.5680803 0.5954575 0.5680803 -0.5680803 0.5954575 0.5680803 -0.5680803 0.5954575 0.7760147 -0.2079317 0.5954542 0.7760147 -0.2079317 0.5954542 0.7760147 -0.2079317 0.5954542 0.776012 -0.2079334 0.5954572 0.776012 -0.2079334 0.5954572 0.776012 -0.2079334 0.5954572 0.7760128 0.2079311 0.5954568 0.7760128 0.2079311 0.5954568 0.7760128 0.2079311 0.5954568 0.7760143 0.207934 0.5954539 0.7760143 0.207934 0.5954539 0.7760143 0.207934 0.5954539 0.5680803 0.5680803 0.5954574 0.5680803 0.5680803 0.5954574 0.5680803 0.5680803 0.5954574 0.5680803 0.5680803 0.5954575 0.5680803 0.5680803 0.5954575 0.5680803 0.5680803 0.5954575 0.2079317 0.7760147 0.5954542 0.2079317 0.7760147 0.5954542 0.2079317 0.7760147 0.5954542 0.2079334 0.776012 0.5954572 0.2079334 0.776012 0.5954572 0.2079334 0.776012 0.5954572 -0.2079311 0.7760128 0.5954568 -0.2079311 0.7760128 0.5954568 -0.2079311 0.7760128 0.5954568 -0.207934 0.7760143 0.5954539 -0.207934 0.7760143 0.5954539 -0.207934 0.7760143 0.5954539 -0.5680803 0.5680803 0.5954574 -0.5680803 0.5680803 0.5954574 -0.5680803 0.5680803 0.5954574 -0.5680803 0.5680803 0.5954575 -0.5680803 0.5680803 0.5954575 -0.5680803 0.5680803 0.5954575 -0.7760147 0.2079317 0.5954542 -0.7760147 0.2079317 0.5954542 -0.7760147 0.2079317 0.5954542 -0.776012 0.2079334 0.5954572 -0.776012 0.2079334 0.5954572 -0.776012 0.2079334 0.5954572 -0.6008203 -0.1609905 0.7830051 -0.6008203 -0.1609905 0.7830051 -0.6008203 -0.1609905 0.7830051 -0.600819 -0.1609882 0.7830065 -0.600819 -0.1609882 0.7830065 -0.600819 -0.1609882 0.7830065 -0.4398313 -0.4398313 0.783005 -0.4398313 -0.4398313 0.783005 -0.4398313 -0.4398313 0.783005 -0.4398313 -0.4398313 0.783005 -0.4398313 -0.4398313 0.783005 -0.4398313 -0.4398313 0.783005 -0.1609901 -0.6008189 0.7830063 -0.1609901 -0.6008189 0.7830063 -0.1609901 -0.6008189 0.7830063 -0.1609888 -0.6008211 0.7830049 -0.1609888 -0.6008211 0.7830049 -0.1609888 -0.6008211 0.7830049 0.1609905 -0.6008203 0.7830051 0.1609905 -0.6008203 0.7830051 0.1609905 -0.6008203 0.7830051 0.1609882 -0.600819 0.7830065 0.1609882 -0.600819 0.7830065 0.1609882 -0.600819 0.7830065 0.4398313 -0.4398313 0.783005 0.4398313 -0.4398313 0.783005 0.4398313 -0.4398313 0.783005 0.4398313 -0.4398313 0.783005 0.4398313 -0.4398313 0.783005 0.4398313 -0.4398313 0.783005 0.6008189 -0.1609901 0.7830063 0.6008189 -0.1609901 0.7830063 0.6008189 -0.1609901 0.7830063 0.6008211 -0.1609888 0.7830049 0.6008211 -0.1609888 0.7830049 0.6008211 -0.1609888 0.7830049 0.6008203 0.1609905 0.7830051 0.6008203 0.1609905 0.7830051 0.6008203 0.1609905 0.7830051 0.600819 0.1609882 0.7830065 0.600819 0.1609882 0.7830065 0.600819 0.1609882 0.7830065 0.4398313 0.4398313 0.783005 0.4398313 0.4398313 0.783005 0.4398313 0.4398313 0.783005 0.4398313 0.4398313 0.783005 0.4398313 0.4398313 0.783005 0.4398313 0.4398313 0.783005 0.1609901 0.6008189 0.7830063 0.1609901 0.6008189 0.7830063 0.1609901 0.6008189 0.7830063 0.1609888 0.6008211 0.7830049 0.1609888 0.6008211 0.7830049 0.1609888 0.6008211 0.7830049 -0.1609905 0.6008203 0.7830051 -0.1609905 0.6008203 0.7830051 -0.1609905 0.6008203 0.7830051 -0.1609882 0.600819 0.7830065 -0.1609882 0.600819 0.7830065 -0.1609882 0.600819 0.7830065</float_array>
                    <technique_common>
                        <accessor count="840" source="#geometry0-normal-array" stride="3">
                            <param name="X" type="float"/>
                            <param name="Y" type="float"/>
                            <param name="Z" type="float"/>
                        </accessor>
                    </technique_common>
                </source>
                <vertices id="geometry0-vertex">
                    <input semantic="POSITION" source="#geometry0-position"/>
                </vertices>
                <triangles count="288" material="default_ai_0.2_sh_0.2_tr_0.0_dc_r_0.8_g_0.8_b_0.8_sc_r_1.0_g_1.0_b_1.0_ec_r_0.0_g_0.0_b_0_tri">
                    <input offset="0" semantic="VERTEX" source="#geometry0-vertex"/>
                    <input offset="1" semantic="NORMAL" source="#geometry0-normal"/>
                    <p>107 0 108 1 120 2 107 3 120 4 119 5 108 6 98 7 110 8 108 9 110 10 120 11 110 12 109 13 121 14 110 15 121 16 122 17 109 18 111 19 123 20 109 21 123 22 121 23 111 24 112 25 124 26 111 27 124 28 123 29 112 30 113 31 125 32 112 33 125 34 124 35 113 36 114 37 126 38 113 39 126 40 125 41 114 42 115 43 127 44 114 45 127 46 126 47 115 48 116 49 128 50 115 51 128 52 127 53 116 54 117 55 129 56 116 57 129 58 128 59 117 60 118 61 130 62 117 63 130 64 129 65 118 66 119 67 131 68 118 69 131 70 130 71 119 72 120 73 132 74 119 75 132 76 131 77 120 78 110 79 122 80 120 81 122 82 132 83 122 84 121 85 133 86 122 87 133 88 133 88 121 89 123 90 133 91 121 92 133 93 133 93 123 94 124 95 133 96 123 97 133 98 133 98 124 99 125 100 133 101 124 102 133 103 133 103 125 104 126 105 133 106 125 107 133 108 133 108 126 109 127 110 133 111 126 112 133 113 133 113 127 114 128 115 133 116 127 117 133 118 133 118 128 119 129 120 133 121 128 122 133 123 133 123 129 124 130 125 133 126 129 127 133 128 133 128 130 129 131 130 133 131 130 132 133 133 133 133 131 134 132 135 133 136 131 137 133 138 133 138 132 139 122 140 133 141 132 142 133 143 133 143 0 144 0 144 1 145 0 146 1 147 2 148 0 149 0 149 3 150 0 151 3 152 1 153 0 154 0 154 4 155 0 156 4 157 3 158 0 159 0 159 5 160 0 161 5 162 4 163 0 164 0 164 6 165 0 166 6 167 5 168 0 169 0 169 7 170 0 171 7 172 6 173 0 174 0 174 8 175 0 176 8 177 7 178 0 179 0 179 9 180 0 181 9 182 8 183 0 184 0 184 10 185 0 186 10 187 9 188 0 189 0 189 11 190 0 191 11 192 10 193 0 194 0 194 12 195 0 196 12 197 11 198 0 199 0 199 2 200 0 201 2 202 12 203 2 204 1 205 13 206 2 207 13 208 14 209 1 210 3 211 15 212 1 213 15 214 13 215 3 216 4 217 16 218 3 219 16 220 15 221 4 222 5 223 17 224 4 225 17 226 16 227 5 228 6 229 18 230 5 231 18 232 17 233 6 234 7 235 19 236 6 237 19 238 18 239 7 240 8 241 20 242 7 243 20 244 19 245 8 246 9 247 21 248 8 249 21 250 20 251 9 252 10 253 22 254 9 255 22 256 21 257 10 258 11 259 23 260 10 261 23 262 22 263 11 264 12 265 24 266 11 267 24 268 23 269 12 270 2 271 14 272 12 273 14 274 24 275 14 276 13 277 25 278 14 279 25 280 26 281 13 282 15 283 27 284 13 285 27 286 25 287 15 288 16 289 28 290 15 291 28 292 27 293 16 294 17 295 29 296 16 297 29 298 28 299 17 300 18 301 30 302 17 303 30 304 29 305 18 306 19 307 31 308 18 309 31 310 30 311 19 312 20 313 32 314 19 315 32 316 31 317 20 318 21 319 33 320 20 321 33 322 32 323 21 324 22 325 34 326 21 327 34 328 33 329 22 330 23 331 35 332 22 333 35 334 34 335 23 336 24 337 36 338 23 339 36 340 35 341 24 342 14 343 26 344 24 345 26 346 36 347 26 348 25 349 37 350 26 351 37 352 38 353 25 354 27 355 39 356 25 357 39 358 37 359 27 360 28 361 40 362 27 363 40 364 39 365 28 366 29 367 41 368 28 369 41 370 40 371 29 372 30 373 42 374 29 375 42 376 41 377 30 378 31 379 43 380 30 381 43 382 42 383 31 384 32 385 44 386 31 387 44 388 43 389 32 390 33 391 45 392 32 393 45 394 44 395 33 396 34 397 46 398 33 399 46 400 45 401 34 402 35 403 47 404 34 405 47 406 46 407 35 408 36 409 48 410 35 411 48 412 47 413 36 414 26 415 38 416 36 417 38 418 48 419 38 420 37 421 49 422 38 423 49 424 50 425 37 426 39 427 51 428 37 429 51 430 49 431 39 432 40 433 52 434 39 435 52 436 51 437 40 438 41 439 53 440 40 441 53 442 52 443 41 444 42 445 54 446 41 447 54 448 53 449 42 450 43 451 55 452 42 453 55 454 54 455 43 456 44 457 56 458 43 459 56 460 55 461 44 462 45 463 57 464 44 465 57 466 56 467 45 468 46 469 58 470 45 471 58 472 57 473 46 474 47 475 59 476 46 477 59 478 58 479 47 480 48 481 60 482 47 483 60 484 59 485 48 486 38 487 50 488 48 489 50 490 60 491 50 492 49 493 61 494 50 495 61 496 62 497 49 498 51 499 63 500 49 501 63 502 61 503 51 504 52 505 64 506 51 507 64 508 63 509 52 510 53 511 65 512 52 513 65 514 64 515 53 516 54 517 66 518 53 519 66 520 65 521 54 522 55 523 67 524 54 525 67 526 66 527 55 528 56 529 68 530 55 531 68 532 67 533 56 534 57 535 69 536 56 537 69 538 68 539 57 540 58 541 70 542 57 543 70 544 69 545 58 546 59 547 71 548 58 549 71 550 70 551 59 552 60 553 72 554 59 555 72 556 71 557 60 558 50 559 62 560 60 561 62 562 72 563 62 564 61 565 73 566 62 567 73 568 74 569 61 570 63 571 75 572 61 573 75 574 73 575 63 576 64 577 76 578 63 579 76 580 75 581 64 582 65 583 77 584 64 585 77 586 76 587 65 588 66 589 78 590 65 591 78 592 77 593 66 594 67 595 79 596 66 597 79 598 78 599 67 600 68 601 80 602 67 603 80 604 79 605 68 606 69 607 81 608 68 609 81 610 80 611 69 612 70 613 82 614 69 615 82 616 81 617 70 618 71 619 83 620 70 621 83 622 82 623 71 624 72 625 84 626 71 627 84 628 83 629 72 630 62 631 74 632 72 633 74 634 84 635 74 636 73 637 85 638 74 639 85 640 86 641 73 642 75 643 87 644 73 645 87 646 85 647 75 648 76 649 88 650 75 651 88 652 87 653 76 654 77 655 89 656 76 657 89 658 88 659 77 660 78 661 90 662 77 663 90 664 89 665 78 666 79 667 91 668 78 669 91 670 90 671 79 672 80 673 92 674 79 675 92 676 91 677 80 678 81 679 93 680 80 681 93 682 92 683 81 684 82 685 94 686 81 687 94 688 93 689 82 690 83 691 95 692 82 693 95 694 94 695 83 696 84 697 96 698 83 699 96 700 95 701 84 702 74 703 86 704 84 705 86 706 96 707 86 708 85 709 97 710 86 711 97 712 98 713 85 714 87 715 99 716 85 717 99 718 97 719 87 720 88 721 100 722 87 723 100 724 99 725 88 726 89 727 101 728 88 729 101 730 100 731 89 732 90 733 102 734 89 735 102 736 101 737 90 738 91 739 103 740 90 741 103 742 102 743 91 744 92 745 104 746 91 747 104 748 103 749 92 750 93 751 105 752 92 753 105 754 104 755 93 756 94 757 106 758 93 759 106 760 105 761 94 762 95 763 107 764 94 765 107 766 106 767 95 768 96 769 108 770 95 771 108 772 107 773 96 774 86 775 98 776 96 777 98 778 108 779 98 780 97 781 109 782 98 783 109 784 110 785 97 786 99 787 111 788 97 789 111 790 109 791 99 792 100 793 112 794 99 795 112 796 111 797 100 798 101 799 113 800 100 801 113 802 112 803 101 804 102 805 114 806 101 807 114 808 113 809 102 810 103 811 115 812 102 813 115 814 114 815 103 816 104 817 116 818 103 819 116 820 115 821 104 822 105 823 117 824 104 825 117 826 116 827 105 828 106 829 118 830 105 831 118 832 117 833 106 834 107 835 119 836 106 837 119 838 118 839</p>
                </triangles>
            </mesh>
        </geometry>
    </library_geometries>
    <library_visual_scenes>
        <visual_scene id="Building_172_CROWN2">
            <node>
                <instance_geometry url="#geometry0">
                    <bind_material>
                        <technique_common>
                            <instance_material symbol="default_ai_0.2_sh_0.2_tr_0.0_dc_r_0.8_g_0.8_b_0.8_sc_r_1.0_g_1.0_b_1.0_ec_r_0.0_g_0.0_b_0_tri" target="#default_ai_0.2_sh_0.2_tr_0.0_dc_r_0.8_g_0.8_b_0.8_sc_r_1.0_g_1.0_b_1.0_ec_r_0.0_g_0.0_b_0_mat"/>
                        </technique_common>
                    </bind_material>
                </instance_geometry>
            </node>
        </visual_scene>
    </library_visual_scenes>
    <scene>
        <instance_visual_scene url="#Building_172_CROWN2"/>
    </scene>
</COLLADA>
