<?xml version="1.0" encoding="UTF-8" standalone="yes"?>
<COLLADA xmlns="http://www.collada.org/2005/11/COLLADASchema" version="1.4.1">
    <asset>
        <contributor>
            <authoring_tool>3D City Database Importer/Exporter, version 5.5.3; Chair of Geoinformatics, Technical University of Munich</authoring_tool>
        </contributor>
        <created>2026-09-25T14:44:44.303</created>
        <modified>2026-09-25T14:44:44.303</modified>
        <unit meter="1.0" name="meters"/>
        <up_axis>Z_UP</up_axis>
    </asset>
    <library_materials>
        <material id="default_ai_0.2_sh_0.2_tr_0.0_dc_r_0.8_g_0.8_b_0.8_sc_r_1.0_g_1.0_b_1.0_ec_r_0.0_g_0.0_b_0_mat">
            <instance_effect url="#default_ai_0.2_sh_0.2_tr_0.0_dc_r_0.8_g_0.8_b_0.8_sc_r_1.0_g_1.0_b_1.0_ec_r_0.0_g_0.0_b_0_eff"/>
        </material>
    </library_materials>
    <library_effects>
        <effect id="default_ai_0.2_sh_0.2_tr_0.0_dc_r_0.8_g_0.8_b_0.8_sc_r_1.0_g_1.0_b_1.0_ec_r_0.0_g_0.0_b_0_eff">
            <profile_COMMON>
                <technique sid="COMMON">
                    <lambert>
                        <emission>
                            <color>0.0 0.0 0.0 1.0</color>
                        </emission>
                        <diffuse>
                            <color>0.8 0.8 0.8 1.0</color>
                        </diffuse>
                        <reflective>
                            <color>1.0 1.0 1.0 1.0</color>
                        </reflective>
                        <reflectivity>
                            <float>0.2</float>
                        </reflectivity>
                        <transparent opaque="A_ONE">
                            <color>1.0 1.0 1.0 1.0</color>
                        </transparent>
                        <transparency>
                            <float>1.0</float>
                        </transparency>
                    </lambert>
                </technique>
                <extra>
                    <technique profile="GOOGLEEARTH">
                        <double_sided>0</double_sided>
                    </technique>
                </extra>
            </profile_COMMON>
        </effect>
    </library_effects>
    <library_geometries>
        <geometry id="geometry0">
            <mesh>
                <source id="geometry0-position">
                    <float_array id="geometry0-position-array" count="402">0.0 0.0 6.2 0.6948464 0.401171 6.0943706 0.8023389 0.0 6.0943706 0.401171 0.6948464 6.0943706 0.0 0.8023389 6.0943706 -0.401171 0.6948464 6.0943706 -0.6948464 0.401171 6.0943706 -0.8023389 0.0 6.0943706 -0.6948464 -0.401171 6.0943706 -0.401171 -0.6948464 6.0943706 0.0 -0.8023389 6.0943706 0.401171 -0.6948464 6.0943706 0.6948464 -0.401171 6.0943706 1.3423403 0.775 5.7846775 1.55 0.0 5.7846775 0.775 1.3423403 5.7846775 0.0 1.55 5.7846775 -0.775 1.3423403 5.7846775 -1.3423403 0.775 5.7846775 -1.55 0.0 5.7846775 -1.3423403 -0.775 5.7846775 -0.775 -1.3423403 5.7846775 0.0 -1.55 5.7846775 0.775 -1.3423403 5.7846775 1.3423403 -0.775 5.7846775 1.8983532 1.0960143 5.2920317 2.1920317 0.0 5.2920317 1.0960143 1.8983532 5.2920317 0.0 2.1920317 5.2920317 -1.0960143 1.8983532 5.2920317 -1.8983532 1.0960143 5.2920317 -2.1920317 0.0 5.2920317 -1.8983532 -1.0960143 5.2920317 -1.0960143 -1.8983532 5.2920317 0.0 -2.1920317 5.2920317 1.0960143 -1.8983532 5.2920317 1.8983532 -1.0960143 5.2920317 2.325 1.3423403 4.65 2.6846775 0.0 4.65 1.3423403 2.325 4.65 0.0 2.6846775 4.65 -1.3423403 2.325 4.65 -2.325 1.3423403 4.65 -2.6846775 0.0 4.65 -2.325 -1.3423403 4.65 -1.3423403 -2.325 4.65 0.0 -2.6846775 4.65 1.3423403 -2.325 4.65 2.325 -1.3423403 4.65 2.5931996 1.4971853 3.9023389 2.9943706 0.0 3.9023389 1.4971853 2.5931996 3.9023389 0.0 2.9943706 3.9023389 -1.4971853 2.5931996 3.9023389 -2.5931996 1.4971853 3.9023389 -2.9943706 0.0 3.9023389 -2.5931996 -1.4971853 3.9023389 -1.4971853 -2.5931996 3.9023389 0.0 -2.9943706 3.9023389 1.4971853 -2.5931996 3.9023389 2.5931996 -1.4971853 3.9023389 2.6846775 1.55 3.1 3.1 0.0 3.1 1.55 2.6846775 3.1 0.0 3.1 3.1 -1.55 2.6846775 3.1 -2.6846775 1.55 3.1 -3.1 0.0 3.1 -2.6846775 -1.55 3.1 -1.55 -2.6846775 3.1 0.0 -3.1 3.1 1.55 -2.6846775 3.1 2.6846775 -1.55 3.1 2.5931996 1.4971853 2.2976611 2.9943706 0.0 2.2976611 1.4971853 2.5931996 2.2976611 0.0 2.9943706 2.2976611 -1.4971853 2.5931996 2.2976611 -2.5931996 1.4971853 2.2976611 -2.9943706 0.0 2.2976611 -2.5931996 -1.4971853 2.2976611 -1.4971853 -2.5931996 2.2976611 0.0 -2.9943706 2.2976611 1.4971853 -2.5931996 2.2976611 2.5931996 -1.4971853 2.2976611 2.325 1.3423403 1.55 2.6846775 0.0 1.55 1.3423403 2.325 1.55 0.0 2.6846775 1.55 -1.3423403 2.325 1.55 -2.325 1.3423403 1.55 -2.6846775 0.0 1.55 -2.325 -1.3423403 1.55 -1.3423403 -2.325 1.55 0.0 -2.6846775 1.55 1.3423403 -2.325 1.55 2.325 -1.3423403 1.55 1.8983532 1.0960143 0.9079683 2.1920317 0.0 0.9079683 1.0960143 1.8983532 0.9079683 0.0 2.1920317 0.9079683 -1.0960143 1.8983532 0.9079683 -1.8983532 1.0960143 0.9079683 -2.1920317 0.0 0.9079683 -1.8983532 -1.0960143 0.9079683 -1.0960143 -1.8983532 0.9079683 0.0 -2.1920317 0.9079683 1.0960143 -1.8983532 0.9079683 1.8983532 -1.0960143 0.9079683 1.3423403 0.775 0.4153225 1.55 0.0 0.4153225 0.775 1.3423403 0.4153225 0.0 1.55 0.4153225 -0.775 1.3423403 0.4153225 -1.3423403 0.775 0.4153225 -1.55 0.0 0.4153225 -1.3423403 -0.775 0.4153225 -0.775 -1.3423403 0.4153225 0.0 -1.55 0.4153225 0.775 -1.3423403 0.4153225 1.3423403 -0.775 0.4153225 0.6948464 0.401171 0.1056294 0.8023389 0.0 0.1056294 0.401171 0.6948464 0.1056294 0.0 0.8023389 0.1056294 -0.401171 0.6948464 0.1056294 -0.6948464 0.401171 0.1056294 -0.8023389 0.0 0.1056294 -0.6948464 -0.401171 0.1056294 -0.401171 -0.6948464 0.1056294 0.0 -0.8023389 0.1056294 0.401171 -0.6948464 0.1056294 0.6948464 -0.401171 0.1056294 0.0 0.0 0.0</float_array>
                    <technique_common>
                        <accessor count="134" source="#geometry0-position-array" stride="3">
                            <param name="X" type="float"/>
                            <param name="Y" type="float"/>
                            <param name="Z" type="float"/>
                        </accessor>
                    </technique_common>
                </source>
                <source id="geometry0-normal">
                    <float_array id="geometry0-normal-array" count="2520">-0.7760127 -0.2079311 0.595457 -0.7760127 -0.2079311 0.595457 -0.7760127 -0.2079311 0.595457 -0.7760143 -0.207934 0.595454 -0.7760143 -0.207934 0.595454 -0.7760143 -0.207934 0.595454 -0.5680802 -0.5680802 0.5954576 -0.5680802 -0.5680802 0.5954576 -0.5680802 -0.5680802 0.5954576 -0.5680802 -0.5680802 0.5954576 -0.5680802 -0.5680802 0.5954576 -0.5680802 -0.5680802 0.5954576 -0.2079317 -0.7760146 0.5954542 -0.2079317 -0.7760146 0.5954542 -0.2079317 -0.7760146 0.5954542 -0.2079333 -0.7760118 0.5954573 -0.2079333 -0.7760118 0.5954573 -0.2079333 -0.7760118 0.5954573 0.2079311 -0.7760127 0.595457 0.2079311 -0.7760127 0.595457 0.2079311 -0.7760127 0.595457 0.207934 -0.7760143 0.595454 0.207934 -0.7760143 0.595454 0.207934 -0.7760143 0.595454 0.5680802 -0.5680802 0.5954576 0.5680802 -0.5680802 0.5954576 0.5680802 -0.5680802 0.5954576 0.5680802 -0.5680802 0.5954576 0.5680802 -0.5680802 0.5954576 0.5680802 -0.5680802 0.5954576 0.7760146 -0.2079317 0.5954542 0.7760146 -0.2079317 0.5954542 0.7760146 -0.2079317 0.5954542 0.7760118 -0.2079333 0.5954573 0.7760118 -0.2079333 0.5954573 0.7760118 -0.2079333 0.5954573 0.7760127 0.2079311 0.595457 0.7760127 0.2079311 0.595457 0.7760127 0.2079311 0.595457 0.7760143 0.207934 0.595454 0.7760143 0.207934 0.595454 0.7760143 0.207934 0.595454 0.5680802 0.5680802 0.5954576 0.5680802 0.5680802 0.5954576 0.5680802 0.5680802 0.5954576 0.5680802 0.5680802 0.5954576 0.5680802 0.5680802 0.5954576 0.5680802 0.5680802 0.5954576 0.2079317 0.7760146 0.5954542 0.2079317 0.7760146 0.5954542 0.2079317 0.7760146 0.5954542 0.2079333 0.7760118 0.5954573 0.2079333 0.7760118 0.5954573 0.2079333 0.7760118 0.5954573 -0.2079311 0.7760127 0.595457 -0.2079311 0.7760127 0.595457 -0.2079311 0.7760127 0.595457 -0.207934 0.7760143 0.595454 -0.207934 0.7760143 0.595454 -0.207934 0.7760143 0.595454 -0.5680802 0.5680802 0.5954576 -0.5680802 0.5680802 0.5954576 -0.5680802 0.5680802 0.5954576 -0.5680802 0.5680802 0.5954576 -0.5680802 0.5680802 0.5954576 -0.5680802 0.5680802 0.5954576 -0.7760146 0.2079317 0.5954542 -0.7760146 0.2079317 0.5954542 -0.7760146 0.2079317 0.5954542 -0.7760118 0.2079333 0.5954573 -0.7760118 0.2079333 0.5954573 -0.7760118 0.2079333 0.5954573 -0.6008204 -0.1609906 0.7830051 -0.6008204 -0.1609906 0.7830051 -0.6008204 -0.1609906 0.7830051 -0.6008191 -0.1609882 0.7830065 -0.6008191 -0.1609882 0.7830065 -0.6008191 -0.1609882 0.7830065 -0.4398314 -0.4398314 0.7830049 -0.4398314 -0.4398314 0.7830049 -0.4398314 -0.4398314 0.7830049 -0.4398314 -0.4398314 0.7830051 -0.4398314 -0.4398314 0.7830051 -0.4398314 -0.4398314 0.7830051 -0.1609902 -0.6008189 0.7830063 -0.1609902 -0.6008189 0.7830063 -0.1609902 -0.6008189 0.7830063 -0.1609888 -0.6008212 0.7830048 -0.1609888 -0.6008212 0.7830048 -0.1609888 -0.6008212 0.7830048 0.1609906 -0.6008204 0.7830051 0.1609906 -0.6008204 0.7830051 0.1609906 -0.6008204 0.7830051 0.1609882 -0.6008191 0.7830065 0.1609882 -0.6008191 0.7830065 0.1609882 -0.6008191 0.7830065 0.4398314 -0.4398314 0.7830049 0.4398314 -0.4398314 0.7830049 0.4398314 -0.4398314 0.7830049 0.4398314 -0.4398314 0.7830051 0.4398314 -0.4398314 0.7830051 0.4398314 -0.4398314 0.7830051 0.6008189 -0.1609902 0.7830063 0.6008189 -0.1609902 0.7830063 0.6008189 -0.1609902 0.7830063 0.6008212 -0.1609888 0.7830048 0.6008212 -0.1609888 0.7830048 0.6008212 -0.1609888 0.7830048 0.6008204 0.1609906 0.7830051 0.6008204 0.1609906 0.7830051 0.6008204 0.1609906 0.7830051 0.6008191 0.1609882 0.7830065 0.6008191 0.1609882 0.7830065 0.6008191 0.1609882 0.7830065 0.4398314 0.4398314 0.7830049 0.4398314 0.4398314 0.7830049 0.4398314 0.4398314 0.7830049 0.4398314 0.4398314 0.7830051 0.4398314 0.4398314 0.7830051 0.4398314 0.4398314 0.7830051 0.1609902 0.6008189 0.7830063 0.1609902 0.6008189 0.7830063 0.1609902 0.6008189 0.7830063 0.1609888 0.6008212 0.7830048 0.1609888 0.6008212 0.7830048 0.1609888 0.6008212 0.7830048 -0.1609906 0.6008204 0.7830051 -0.1609906 0.6008204 0.7830051 -0.1609906 0.6008204 0.7830051 -0.1609882 0.6008191 0.7830065 -0.1609882 0.6008191 0.7830065 -0.1609882 0.6008191 0.7830065 -0.4398314 0.4398314 0.7830049 -0.4398314 0.4398314 0.7830049 -0.4398314 0.4398314 0.7830049 -0.4398314 0.4398314 0.7830051 -0.4398314 0.4398314 0.7830051 -0.4398314 0.4398314 0.7830051 -0.6008189 0.1609902 0.7830063 -0.6008189 0.1609902 0.7830063 -0.6008189 0.1609902 0.7830063 -0.6008212 0.1609888 0.7830048 -0.6008212 0.1609888 0.7830048 -0.6008212 0.1609888 0.7830048 -0.3806893 -0.1020049 0.9190596 -0.3806893 -0.1020049 0.9190596 -0.3806893 -0.1020049 0.9190596 -0.3806892 -0.1020045 0.9190598 -0.3806892 -0.1020045 0.9190598 -0.3806892 -0.1020045 0.9190598 -0.278684 -0.278684 0.9190595 -0.278684 -0.278684 0.9190595 -0.278684 -0.278684 0.9190595 -0.278684 -0.278684 0.9190595 -0.278684 -0.278684 0.9190595 -0.278684 -0.278684 0.9190595 -0.1020048 -0.3806891 0.9190598 -0.1020048 -0.3806891 0.9190598 -0.1020048 -0.3806891 0.9190598 -0.1020046 -0.3806895 0.9190596 -0.1020046 -0.3806895 0.9190596 -0.1020046 -0.3806895 0.9190596 0.1020049 -0.3806893 0.9190596 0.1020049 -0.3806893 0.9190596 0.1020049 -0.3806893 0.9190596 0.1020045 -0.3806892 0.9190598 0.1020045 -0.3806892 0.9190598 0.1020045 -0.3806892 0.9190598 0.278684 -0.278684 0.9190595 0.278684 -0.278684 0.9190595 0.278684 -0.278684 0.9190595 0.278684 -0.278684 0.9190595 0.278684 -0.278684 0.9190595 0.278684 -0.278684 0.9190595 0.3806891 -0.1020048 0.9190598 0.3806891 -0.1020048 0.9190598 0.3806891 -0.1020048 0.9190598 0.3806895 -0.1020046 0.9190596 0.3806895 -0.1020046 0.9190596 0.3806895 -0.1020046 0.9190596 0.3806893 0.1020049 0.9190596 0.3806893 0.1020049 0.9190596 0.3806893 0.1020049 0.9190596 0.3806892 0.1020045 0.9190598 0.3806892 0.1020045 0.9190598 0.3806892 0.1020045 0.9190598 0.278684 0.278684 0.9190595 0.278684 0.278684 0.9190595 0.278684 0.278684 0.9190595 0.278684 0.278684 0.9190595 0.278684 0.278684 0.9190595 0.278684 0.278684 0.9190595 0.1020048 0.3806891 0.9190598 0.1020048 0.3806891 0.9190598 0.1020048 0.3806891 0.9190598 0.1020046 0.3806895 0.9190596 0.1020046 0.3806895 0.9190596 0.1020046 0.3806895 0.9190596 -0.1020049 0.3806893 0.9190596 -0.1020049 0.3806893 0.9190596 -0.1020049 0.3806893 0.9190596 -0.1020045 0.3806892 0.9190598 -0.1020045 0.3806892 0.9190598 -0.1020045 0.3806892 0.9190598 -0.278684 0.278684 0.9190595 -0.278684 0.278684 0.9190595 -0.278684 0.278684 0.9190595 -0.278684 0.278684 0.9190595 -0.278684 0.278684 0.9190595 -0.278684 0.278684 0.9190595 -0.3806891 0.1020048 0.9190598 -0.3806891 0.1020048 0.9190598 -0.3806891 0.1020048 0.9190598 -0.3806895 0.1020046 0.9190596 -0.3806895 0.1020046 0.9190596 -0.3806895 0.1020046 0.9190596 -0.1304458 -0.0349525 0.9908391 -0.1304458 -0.0349525 0.9908391 -0.1304458 -0.0349525 0.9908391 1.0 0.0 0.0 1.0 0.0 0.0 -0.0954928 -0.0954928 0.9908392 -0.0954928 -0.0954928 0.9908392 -0.0954928 -0.0954928 0.9908392 1.0 0.0 0.0 1.0 0.0 0.0 -0.0349525 -0.1304458 0.9908391 -0.0349525 -0.1304458 0.9908391 -0.0349525 -0.1304458 0.9908391 1.0 0.0 0.0 1.0 0.0 0.0 0.0349525 -0.1304458 0.9908391 0.0349525 -0.1304458 0.9908391 0.0349525 -0.1304458 0.9908391 1.0 0.0 0.0 1.0 0.0 0.0 0.0954928 -0.0954928 0.9908392 0.0954928 -0.0954928 0.9908392 0.0954928 -0.0954928 0.9908392 1.0 0.0 0.0 1.0 0.0 0.0 0.1304458 -0.0349525 0.9908391 0.1304458 -0.0349525 0.9908391 0.1304458 -0.0349525 0.9908391 1.0 0.0 0.0 1.0 0.0 0.0 0.1304458 0.0349525 0.9908391 0.1304458 0.0349525 0.9908391 0.1304458 0.0349525 0.9908391 1.0 0.0 0.0 1.0 0.0 0.0 0.0954928 0.0954928 0.9908392 0.0954928 0.0954928 0.9908392 0.0954928 0.0954928 0.9908392 1.0 0.0 0.0 1.0 0.0 0.0 0.0349525 0.1304458 0.9908391 0.0349525 0.1304458 0.9908391 0.0349525 0.1304458 0.9908391 1.0 0.0 0.0 1.0 0.0 0.0 -0.0349525 0.1304458 0.9908391 -0.0349525 0.1304458 0.9908391 -0.0349525 0.1304458 0.9908391 1.0 0.0 0.0 1.0 0.0 0.0 -0.0954928 0.0954928 0.9908392 -0.0954928 0.0954928 0.9908392 -0.0954928 0.0954928 0.9908392 1.0 0.0 0.0 1.0 0.0 0.0 -0.1304458 0.0349525 0.9908391 -0.1304458 0.0349525 0.9908391 -0.1304458 0.0349525 0.9908391 1.0 0.0 0.0 1.0 0.0 0.0 1.0 0.0 0.0 1.0 0.0 0.0 -0.1304459 -0.0349526 -0.9908391 -0.1304459 -0.0349526 -0.9908391 -0.1304459 -0.0349526 -0.9908391 1.0 0.0 0.0 1.0 0.0 0.0 -0.0954928 -0.0954928 -0.9908392 -0.0954928 -0.0954928 -0.9908392 -0.0954928 -0.0954928 -0.9908392 1.0 0.0 0.0 1.0 0.0 0.0 -0.0349526 -0.1304459 -0.9908391 -0.0349526 -0.1304459 -0.9908391 -0.0349526 -0.1304459 -0.9908391 1.0 0.0 0.0 1.0 0.0 0.0 0.0349526 -0.1304459 -0.9908391 0.0349526 -0.1304459 -0.9908391 0.0349526 -0.1304459 -0.9908391 1.0 0.0 0.0 1.0 0.0 0.0 0.0954928 -0.0954928 -0.9908392 0.0954928 -0.0954928 -0.9908392 0.0954928 -0.0954928 -0.9908392 1.0 0.0 0.0 1.0 0.0 0.0 0.1304459 -0.0349526 -0.9908391 0.1304459 -0.0349526 -0.9908391 0.1304459 -0.0349526 -0.9908391 1.0 0.0 0.0 1.0 0.0 0.0 0.1304459 0.0349526 -0.9908391 0.1304459 0.0349526 -0.9908391 0.1304459 0.0349526 -0.9908391 1.0 0.0 0.0 1.0 0.0 0.0 0.0954928 0.0954928 -0.9908392 0.0954928 0.0954928 -0.9908392 0.0954928 0.0954928 -0.9908392 1.0 0.0 0.0 1.0 0.0 0.0 0.0349526 0.1304459 -0.9908391 0.0349526 0.1304459 -0.9908391 0.0349526 0.1304459 -0.9908391 1.0 0.0 0.0 1.0 0.0 0.0 -0.0349526 0.1304459 -0.9908391 -0.0349526 0.1304459 -0.9908391 -0.0349526 0.1304459 -0.9908391 1.0 0.0 0.0 1.0 0.0 0.0 -0.0954928 0.0954928 -0.9908392 -0.0954928 0.0954928 -0.9908392 -0.0954928 0.0954928 -0.9908392 1.0 0.0 0.0 1.0 0.0 0.0 -0.1304459 0.0349526 -0.9908391 -0.1304459 0.0349526 -0.9908391 -0.1304459 0.0349526 -0.9908391 -0.3806893 -0.1020045 -0.9190597 -0.3806893 -0.1020045 -0.9190597 -0.3806893 -0.1020045 -0.9190597 -0.3806889 -0.1020048 -0.9190598 -0.3806889 -0.1020048 -0.9190598 -0.3806889 -0.1020048 -0.9190598 -0.2786838 -0.2786838 -0.9190596 -0.2786838 -0.2786838 -0.9190596 -0.2786838 -0.2786838 -0.9190596 -0.2786838 -0.2786838 -0.9190596 -0.2786838 -0.2786838 -0.9190596 -0.2786838 -0.2786838 -0.9190596 -0.1020044 -0.380689 -0.9190599 -0.1020044 -0.380689 -0.9190599 -0.1020044 -0.380689 -0.9190599 -0.1020048 -0.3806891 -0.9190598 -0.1020048 -0.3806891 -0.9190598 -0.1020048 -0.3806891 -0.9190598 0.1020045 -0.3806893 -0.9190597 0.1020045 -0.3806893 -0.9190597 0.1020045 -0.3806893 -0.9190597 0.1020048 -0.3806889 -0.9190598 0.1020048 -0.3806889 -0.9190598 0.1020048 -0.3806889 -0.9190598 0.2786838 -0.2786838 -0.9190596 0.2786838 -0.2786838 -0.9190596 0.2786838 -0.2786838 -0.9190596 0.2786838 -0.2786838 -0.9190596 0.2786838 -0.2786838 -0.9190596 0.2786838 -0.2786838 -0.9190596 0.380689 -0.1020044 -0.9190599 0.380689 -0.1020044 -0.9190599 0.380689 -0.1020044 -0.9190599 0.3806891 -0.1020048 -0.9190598 0.3806891 -0.1020048 -0.9190598 0.3806891 -0.1020048 -0.9190598 0.3806893 0.1020045 -0.9190597 0.3806893 0.1020045 -0.9190597 0.3806893 0.1020045 -0.9190597 0.3806889 0.1020048 -0.9190598 0.3806889 0.1020048 -0.9190598 0.3806889 0.1020048 -0.9190598 0.2786838 0.2786838 -0.9190596 0.2786838 0.2786838 -0.9190596 0.2786838 0.2786838 -0.9190596 0.2786838 0.2786838 -0.9190596 0.2786838 0.2786838 -0.9190596 0.2786838 0.2786838 -0.9190596 0.1020044 0.380689 -0.9190599 0.1020044 0.380689 -0.9190599 0.1020044 0.380689 -0.9190599 0.1020048 0.3806891 -0.9190598 0.1020048 0.3806891 -0.9190598 0.1020048 0.3806891 -0.9190598 -0.1020045 0.3806893 -0.9190597 -0.1020045 0.3806893 -0.9190597 -0.1020045 0.3806893 -0.9190597 -0.1020048 0.3806889 -0.9190598 -0.1020048 0.3806889 -0.9190598 -0.1020048 0.3806889 -0.9190598 -0.2786838 0.2786838 -0.9190596 -0.2786838 0.2786838 -0.9190596 -0.2786838 0.2786838 -0.9190596 -0.2786838 0.2786838 -0.9190596 -0.2786838 0.2786838 -0.9190596 -0.2786838 0.2786838 -0.9190596 -0.380689 0.1020044 -0.9190599 -0.380689 0.1020044 -0.9190599 -0.380689 0.1020044 -0.9190599 -0.3806891 0.1020048 -0.9190598 -0.3806891 0.1020048 -0.9190598 -0.3806891 0.1020048 -0.9190598 -0.6008212 -0.1609888 -0.7830048 -0.6008212 -0.1609888 -0.7830048 -0.6008212 -0.1609888 -0.7830048 -0.6008188 -0.1609902 -0.7830063 -0.6008188 -0.1609902 -0.7830063 -0.6008188 -0.1609902 -0.7830063 -0.4398314 -0.4398314 -0.7830049 -0.4398314 -0.4398314 -0.7830049 -0.4398314 -0.4398314 -0.7830049 -0.4398313 -0.4398313 -0.7830049 -0.4398313 -0.4398313 -0.7830049 -0.4398313 -0.4398313 -0.7830049 -0.1609882 -0.6008191 -0.7830065 -0.1609882 -0.6008191 -0.7830065 -0.1609882 -0.6008191 -0.7830065 -0.1609906 -0.6008203 -0.7830051 -0.1609906 -0.6008203 -0.7830051 -0.1609906 -0.6008203 -0.7830051 0.1609888 -0.6008212 -0.7830048 0.1609888 -0.6008212 -0.7830048 0.1609888 -0.6008212 -0.7830048 0.1609902 -0.6008188 -0.7830063 0.1609902 -0.6008188 -0.7830063 0.1609902 -0.6008188 -0.7830063 0.4398314 -0.4398314 -0.7830049 0.4398314 -0.4398314 -0.7830049 0.4398314 -0.4398314 -0.7830049 0.4398313 -0.4398313 -0.7830049 0.4398313 -0.4398313 -0.7830049 0.4398313 -0.4398313 -0.7830049 0.6008191 -0.1609882 -0.7830065 0.6008191 -0.1609882 -0.7830065 0.6008191 -0.1609882 -0.7830065 0.6008203 -0.1609906 -0.7830051 0.6008203 -0.1609906 -0.7830051 0.6008203 -0.1609906 -0.7830051 0.6008212 0.1609888 -0.7830048 0.6008212 0.1609888 -0.7830048 0.6008212 0.1609888 -0.7830048 0.6008188 0.1609902 -0.7830063 0.6008188 0.1609902 -0.7830063 0.6008188 0.1609902 -0.7830063 0.4398314 0.4398314 -0.7830049 0.4398314 0.4398314 -0.7830049 0.4398314 0.4398314 -0.7830049 0.4398313 0.4398313 -0.7830049 0.4398313 0.4398313 -0.7830049 0.4398313 0.4398313 -0.7830049 0.1609882 0.6008191 -0.7830065 0.1609882 0.6008191 -0.7830065 0.1609882 0.6008191 -0.7830065 0.1609906 0.6008203 -0.7830051 0.1609906 0.6008203 -0.7830051 0.1609906 0.6008203 -0.7830051 -0.1609888 0.6008212 -0.7830048 -0.1609888 0.6008212 -0.7830048 -0.1609888 0.6008212 -0.7830048 -0.1609902 0.6008188 -0.7830063 -0.1609902 0.6008188 -0.7830063 -0.1609902 0.6008188 -0.7830063 -0.4398314 0.4398314 -0.7830049 -0.4398314 0.4398314 -0.7830049 -0.4398314 0.4398314 -0.7830049 -0.4398313 0.4398313 -0.7830049 -0.4398313 0.4398313 -0.7830049 -0.4398313 0.4398313 -0.7830049 -0.6008191 0.1609882 -0.7830065 -0.6008191 0.1609882 -0.7830065 -0.6008191 0.1609882 -0.7830065 -0.6008203 0.1609906 -0.7830051 -0.6008203 0.1609906 -0.7830051 -0.6008203 0.1609906 -0.7830051 -0.7760118 -0.2079333 -0.5954573 -0.7760118 -0.2079333 -0.5954573 -0.7760118 -0.2079333 -0.5954573 -0.7760146 -0.2079317 -0.5954542 -0.7760146 -0.2079317 -0.5954542 -0.7760146 -0.2079317 -0.5954542 -0.5680802 -0.5680802 -0.5954576 -0.5680802 -0.5680802 -0.5954576 -0.5680802 -0.5680802 -0.5954576 -0.5680802 -0.5680802 -0.5954575 -0.5680802 -0.5680802 -0.5954575 -0.5680802 -0.5680802 -0.5954575 -0.207934 -0.7760143 -0.595454 -0.207934 -0.7760143 -0.595454 -0.207934 -0.7760143 -0.595454 -0.2079312 -0.7760128 -0.595457 -0.2079312 -0.7760128 -0.595457 -0.2079312 -0.7760128 -0.595457 0.2079333 -0.7760118 -0.5954573 0.2079333 -0.7760118 -0.5954573 0.2079333 -0.7760118 -0.5954573 0.2079317 -0.7760146 -0.5954542 0.2079317 -0.7760146 -0.5954542 0.2079317 -0.7760146 -0.5954542 0.5680802 -0.5680802 -0.5954576 0.5680802 -0.5680802 -0.5954576 0.5680802 -0.5680802 -0.5954576 0.5680802 -0.5680802 -0.5954575 0.5680802 -0.5680802 -0.5954575 0.5680802 -0.5680802 -0.5954575 0.7760143 -0.207934 -0.595454 0.7760143 -0.207934 -0.595454 0.7760143 -0.207934 -0.595454 0.7760128 -0.2079312 -0.595457 0.7760128 -0.2079312 -0.595457 0.7760128 -0.2079312 -0.595457 0.7760118 0.2079333 -0.5954573 0.7760118 0.2079333 -0.5954573 0.7760118 0.2079333 -0.5954573 0.7760146 0.2079317 -0.5954542 0.7760146 0.2079317 -0.5954542 0.7760146 0.2079317 -0.5954542 0.5680802 0.5680802 -0.5954576 0.5680802 0.5680802 -0.5954576 0.5680802 0.5680802 -0.5954576 0.5680802 0.5680802 -0.5954575 0.5680802 0.5680802 -0.5954575 0.5680802 0.5680802 -0.5954575 0.207934 0.7760143 -0.595454 0.207934 0.7760143 -0.595454 0.207934 0.7760143 -0.595454 0.2079312 0.7760128 -0.595457 0.2079312 0.7760128 -0.595457 0.2079312 0.7760128 -0.595457 -0.2079333 0.7760118 -0.5954573 -0.2079333 0.7760118 -0.5954573 -0.2079333 0.7760118 -0.5954573 -0.2079317 0.7760146 -0.5954542 -0.2079317 0.7760146 -0.5954542 -0.2079317 0.7760146 -0.5954542 -0.5680802 0.5680802 -0.5954576 -0.5680802 0.5680802 -0.5954576 -0.5680802 0.5680802 -0.5954576 -0.5680802 0.5680802 -0.5954575 -0.5680802 0.5680802 -0.5954575 -0.5680802 0.5680802 -0.5954575 -0.7760143 0.207934 -0.595454 -0.7760143 0.207934 -0.595454 -0.7760143 0.207934 -0.595454 -0.7760128 0.2079312 -0.595457 -0.7760128 0.2079312 -0.595457 -0.7760128 0.2079312 -0.595457 -0.8968096 -0.2402984 -0.3714689 -0.8968096 -0.2402984 -0.3714689 -0.8968096 -0.2402984 -0.3714689 -0.8968079 -0.2402999 -0.3714721 -0.8968079 -0.2402999 -0.3714721 -0.8968079 -0.2402999 -0.3714721 -0.65651 -0.65651 -0.371469 -0.65651 -0.65651 -0.371469 -0.65651 -0.65651 -0.371469 -0.65651 -0.65651 -0.371469 -0.65651 -0.65651 -0.371469 -0.65651 -0.65651 -0.371469 -0.2402981 -0.8968083 -0.3714722 -0.2402981 -0.8968083 -0.3714722 -0.2402981 -0.8968083 -0.3714722 -0.2403002 -0.8968091 -0.371469 -0.2403002 -0.8968091 -0.371469 -0.2403002 -0.8968091 -0.371469 0.2402984 -0.8968096 -0.3714689 0.2402984 -0.8968096 -0.3714689 0.2402984 -0.8968096 -0.3714689 0.2402999 -0.8968079 -0.3714721 0.2402999 -0.8968079 -0.3714721 0.2402999 -0.8968079 -0.3714721 0.65651 -0.65651 -0.371469 0.65651 -0.65651 -0.371469 0.65651 -0.65651 -0.371469 0.65651 -0.65651 -0.371469 0.65651 -0.65651 -0.371469 0.65651 -0.65651 -0.371469 0.8968083 -0.2402981 -0.3714722 0.8968083 -0.2402981 -0.3714722 0.8968083 -0.2402981 -0.3714722 0.8968091 -0.2403002 -0.371469 0.8968091 -0.2403002 -0.371469 0.8968091 -0.2403002 -0.371469 0.8968096 0.2402984 -0.3714689 0.8968096 0.2402984 -0.3714689 0.8968096 0.2402984 -0.3714689 0.8968079 0.2402999 -0.3714721 0.8968079 0.2402999 -0.3714721 0.8968079 0.2402999 -0.3714721 0.65651 0.65651 -0.371469 0.65651 0.65651 -0.371469 0.65651 0.65651 -0.371469 0.65651 0.65651 -0.371469 0.65651 0.65651 -0.371469 0.65651 0.65651 -0.371469 0.2402981 0.8968083 -0.3714722 0.2402981 0.8968083 -0.3714722 0.2402981 0.8968083 -0.3714722 0.2403002 0.8968091 -0.371469 0.2403002 0.8968091 -0.371469 0.2403002 0.8968091 -0.371469 -0.2402984 0.8968096 -0.3714689 -0.2402984 0.8968096 -0.3714689 -0.2402984 0.8968096 -0.3714689 -0.2402999 0.8968079 -0.3714721 -0.2402999 0.8968079 -0.3714721 -0.2402999 0.8968079 -0.3714721 -0.65651 0.65651 -0.371469 -0.65651 0.65651 -0.371469 -0.65651 0.65651 -0.371469 -0.65651 0.65651 -0.371469 -0.65651 0.65651 -0.371469 -0.65651 0.65651 -0.371469 -0.8968083 0.2402981 -0.3714722 -0.8968083 0.2402981 -0.3714722 -0.8968083 0.2402981 -0.3714722 -0.8968091 0.2403002 -0.371469 -0.8968091 0.2403002 -0.371469 -0.8968091 0.2403002 -0.371469 -0.9582089 -0.2567523 -0.1261504 -0.9582089 -0.2567523 -0.1261504 -0.9582089 -0.2567523 -0.1261504 -0.9582091 -0.256752 -0.1261497 -0.9582091 -0.256752 -0.1261497 -0.9582091 -0.256752 -0.1261497 -0.7014578 -0.7014578 -0.1261502 -0.7014578 -0.7014578 -0.1261502 -0.7014578 -0.7014578 -0.1261502 -0.7014578 -0.7014578 -0.1261502 -0.7014578 -0.7014578 -0.1261502 -0.7014578 -0.7014578 -0.1261502 -0.2567523 -0.958209 -0.1261497 -0.2567523 -0.958209 -0.1261497 -0.2567523 -0.958209 -0.1261497 -0.256752 -0.958209 -0.1261504 -0.256752 -0.958209 -0.1261504 -0.256752 -0.958209 -0.1261504 0.2567523 -0.9582089 -0.1261504 0.2567523 -0.9582089 -0.1261504 0.2567523 -0.9582089 -0.1261504 0.256752 -0.9582091 -0.1261497 0.256752 -0.9582091 -0.1261497 0.256752 -0.9582091 -0.1261497 0.7014578 -0.7014578 -0.1261502 0.7014578 -0.7014578 -0.1261502 0.7014578 -0.7014578 -0.1261502 0.7014578 -0.7014578 -0.1261502 0.7014578 -0.7014578 -0.1261502 0.7014578 -0.7014578 -0.1261502 0.958209 -0.2567523 -0.1261497 0.958209 -0.2567523 -0.1261497 0.958209 -0.2567523 -0.1261497 0.958209 -0.256752 -0.1261504 0.958209 -0.256752 -0.1261504 0.958209 -0.256752 -0.1261504 0.9582089 0.2567523 -0.1261504 0.9582089 0.2567523 -0.1261504 0.9582089 0.2567523 -0.1261504 0.9582091 0.256752 -0.1261497 0.9582091 0.256752 -0.1261497 0.9582091 0.256752 -0.1261497 0.7014578 0.7014578 -0.1261502 0.7014578 0.7014578 -0.1261502 0.7014578 0.7014578 -0.1261502 0.7014578 0.7014578 -0.1261502 0.7014578 0.7014578 -0.1261502 0.7014578 0.7014578 -0.1261502 0.2567523 0.958209 -0.1261497 0.2567523 0.958209 -0.1261497 0.2567523 0.958209 -0.1261497 0.256752 0.958209 -0.1261504 0.256752 0.958209 -0.1261504 0.256752 0.958209 -0.1261504 -0.2567523 0.9582089 -0.1261504 -0.2567523 0.9582089 -0.1261504 -0.2567523 0.9582089 -0.1261504 -0.256752 0.9582091 -0.1261497 -0.256752 0.9582091 -0.1261497 -0.256752 0.9582091 -0.1261497 -0.7014578 0.7014578 -0.1261502 -0.7014578 0.7014578 -0.1261502 -0.7014578 0.7014578 -0.1261502 -0.7014578 0.7014578 -0.1261502 -0.7014578 0.7014578 -0.1261502 -0.7014578 0.7014578 -0.1261502 -0.958209 0.2567523 -0.1261497 -0.958209 0.2567523 -0.1261497 -0.958209 0.2567523 -0.1261497 -0.958209 0.256752 -0.1261504 -0.958209 0.256752 -0.1261504 -0.958209 0.256752 -0.1261504 -0.958209 -0.256752 0.1261504 -0.958209 -0.256752 0.1261504 -0.958209 -0.256752 0.1261504 -0.958209 -0.2567524 0.1261498 -0.958209 -0.2567524 0.1261498 -0.958209 -0.2567524 0.1261498 -0.7014578 -0.7014578 0.1261503 -0.7014578 -0.7014578 0.1261503 -0.7014578 -0.7014578 0.1261503 -0.7014578 -0.7014578 0.1261503 -0.7014578 -0.7014578 0.1261503 -0.7014578 -0.7014578 0.1261503 -0.256752 -0.958209 0.1261498 -0.256752 -0.958209 0.1261498 -0.256752 -0.958209 0.1261498 -0.2567523 -0.958209 0.1261505 -0.2567523 -0.958209 0.1261505 -0.2567523 -0.958209 0.1261505 0.256752 -0.958209 0.1261504 0.256752 -0.958209 0.1261504 0.256752 -0.958209 0.1261504 0.2567524 -0.958209 0.1261498 0.2567524 -0.958209 0.1261498 0.2567524 -0.958209 0.1261498 0.7014578 -0.7014578 0.1261503 0.7014578 -0.7014578 0.1261503 0.7014578 -0.7014578 0.1261503 0.7014578 -0.7014578 0.1261503 0.7014578 -0.7014578 0.1261503 0.7014578 -0.7014578 0.1261503 0.958209 -0.256752 0.1261498 0.958209 -0.256752 0.1261498 0.958209 -0.256752 0.1261498 0.958209 -0.2567523 0.1261505 0.958209 -0.2567523 0.1261505 0.958209 -0.2567523 0.1261505 0.958209 0.256752 0.1261504 0.958209 0.256752 0.1261504 0.958209 0.256752 0.1261504 0.958209 0.2567524 0.1261498 0.958209 0.2567524 0.1261498 0.958209 0.2567524 0.1261498 0.7014578 0.7014578 0.1261503 0.7014578 0.7014578 0.1261503 0.7014578 0.7014578 0.1261503 0.7014578 0.7014578 0.1261503 0.7014578 0.7014578 0.1261503 0.7014578 0.7014578 0.1261503 0.256752 0.958209 0.1261498 0.256752 0.958209 0.1261498 0.256752 0.958209 0.1261498 0.2567523 0.958209 0.1261505 0.2567523 0.958209 0.1261505 0.2567523 0.958209 0.1261505 -0.256752 0.958209 0.1261504 -0.256752 0.958209 0.1261504 -0.256752 0.958209 0.1261504 -0.2567524 0.958209 0.1261498 -0.2567524 0.958209 0.1261498 -0.2567524 0.958209 0.1261498 -0.7014578 0.7014578 0.1261503 -0.7014578 0.7014578 0.1261503 -0.7014578 0.7014578 0.1261503 -0.7014578 0.7014578 0.1261503 -0.7014578 0.7014578 0.1261503 -0.7014578 0.7014578 0.1261503 -0.958209 0.256752 0.1261498 -0.958209 0.256752 0.1261498 -0.958209 0.256752 0.1261498 -0.958209 0.2567523 0.1261505 -0.958209 0.2567523 0.1261505 -0.958209 0.2567523 0.1261505 -0.8968091 -0.2403002 0.3714691 -0.8968091 -0.2403002 0.3714691 -0.8968091 -0.2403002 0.3714691 -0.8968083 -0.2402981 0.3714722 -0.8968083 -0.2402981 0.3714722 -0.8968083 -0.2402981 0.3714722 -0.65651 -0.65651 0.371469 -0.65651 -0.65651 0.371469 -0.65651 -0.65651 0.371469 -0.65651 -0.65651 0.371469 -0.65651 -0.65651 0.371469 -0.65651 -0.65651 0.371469 -0.2402999 -0.896808 0.3714721 -0.2402999 -0.896808 0.3714721 -0.2402999 -0.896808 0.3714721 -0.2402984 -0.8968096 0.3714689 -0.2402984 -0.8968096 0.3714689 -0.2402984 -0.8968096 0.3714689 0.2403002 -0.8968091 0.3714691 0.2403002 -0.8968091 0.3714691 0.2403002 -0.8968091 0.3714691 0.2402981 -0.8968083 0.3714722 0.2402981 -0.8968083 0.3714722 0.2402981 -0.8968083 0.3714722 0.65651 -0.65651 0.371469 0.65651 -0.65651 0.371469 0.65651 -0.65651 0.371469 0.65651 -0.65651 0.371469 0.65651 -0.65651 0.371469 0.65651 -0.65651 0.371469 0.896808 -0.2402999 0.3714721 0.896808 -0.2402999 0.3714721 0.896808 -0.2402999 0.3714721 0.8968096 -0.2402984 0.3714689 0.8968096 -0.2402984 0.3714689 0.8968096 -0.2402984 0.3714689 0.8968091 0.2403002 0.3714691 0.8968091 0.2403002 0.3714691 0.8968091 0.2403002 0.3714691 0.8968083 0.2402981 0.3714722 0.8968083 0.2402981 0.3714722 0.8968083 0.2402981 0.3714722 0.65651 0.65651 0.371469 0.65651 0.65651 0.371469 0.65651 0.65651 0.371469 0.65651 0.65651 0.371469 0.65651 0.65651 0.371469 0.65651 0.65651 0.371469 0.2402999 0.896808 0.3714721 0.2402999 0.896808 0.3714721 0.2402999 0.896808 0.3714721 0.2402984 0.8968096 0.3714689 0.2402984 0.8968096 0.3714689 0.2402984 0.8968096 0.3714689 -0.2403002 0.8968091 0.3714691 -0.2403002 0.8968091 0.3714691 -0.2403002 0.8968091 0.3714691 -0.2402981 0.8968083 0.3714722 -0.2402981 0.8968083 0.3714722 -0.2402981 0.8968083 0.3714722 -0.65651 0.65651 0.371469 -0.65651 0.65651 0.371469 -0.65651 0.65651 0.371469 -0.65651 0.65651 0.371469 -0.65651 0.65651 0.371469 -0.65651 0.65651 0.371469 -0.896808 0.2402999 0.3714721 -0.896808 0.2402999 0.3714721 -0.896808 0.2402999 0.3714721 -0.8968096 0.2402984 0.3714689 -0.8968096 0.2402984 0.3714689 -0.8968096 0.2402984 0.3714689</float_array>
                    <technique_common>
                        <accessor count="840" source="#geometry0-normal-array" stride="3">
                            <param name="X" type="float"/>
                            <param name="Y" type="float"/>
                            <param name="Z" type="float"/>
                        </accessor>
                    </technique_common>
                </source>
                <vertices id="geometry0-vertex">
                    <input semantic="POSITION" source="#geometry0-position"/>
                </vertices>
                <triangles count="288" material="default_ai_0.2_sh_0.2_tr_0.0_dc_r_0.8_g_0.8_b_0.8_sc_r_1.0_g_1.0_b_1.0_ec_r_0.0_g_0.0_b_0_tri">
                    <input offset="0" semantic="VERTEX" source="#geometry0-vertex"/>
                    <input offset="1" semantic="NORMAL" source="#geometry0-normal"/>
                    <p>86 0 85 1 97 2 86 3 97 4 98 5 85 6 87 7 99 8 85 9 99 10 97 11 87 12 88 13 100 14 87 15 100 16 99 17 88 18 89 19 101 20 88 21 101 22 100 23 89 24 90 25 102 26 89 27 102 28 101 29 90 30 91 31 103 32 90 33 103 34 102 35 91 36 92 37 104 38 91 39 104 40 103 41 92 42 93 43 105 44 92 45 105 46 104 47 93 48 94 49 106 50 93 51 106 52 105 53 94 54 95 55 107 56 94 57 107 58 106 59 95 60 96 61 108 62 95 63 108 64 107 65 96 66 86 67 98 68 96 69 98 70 108 71 98 72 97 73 109 74 98 75 109 76 110 77 97 78 99 79 111 80 97 81 111 82 109 83 99 84 100 85 112 86 99 87 112 88 111 89 100 90 101 91 113 92 100 93 113 94 112 95 101 96 102 97 114 98 101 99 114 100 113 101 102 102 103 103 115 104 102 105 115 106 114 107 103 108 104 109 116 110 103 111 116 112 115 113 104 114 105 115 117 116 104 117 117 118 116 119 105 120 106 121 118 122 105 123 118 124 117 125 106 126 107 127 119 128 106 129 119 130 118 131 107 132 108 133 120 134 107 135 120 136 119 137 108 138 98 139 110 140 108 141 110 142 120 143 110 144 109 145 121 146 110 147 121 148 122 149 109 150 111 151 123 152 109 153 123 154 121 155 111 156 112 157 124 158 111 159 124 160 123 161 112 162 113 163 125 164 112 165 125 166 124 167 113 168 114 169 126 170 113 171 126 172 125 173 114 174 115 175 127 176 114 177 127 178 126 179 115 180 116 181 128 182 115 183 128 184 127 185 116 186 117 187 129 188 116 189 129 190 128 191 117 192 118 193 130 194 117 195 130 196 129 197 118 198 119 199 131 200 118 201 131 202 130 203 119 204 120 205 132 206 119 207 132 208 131 209 120 210 110 211 122 212 120 213 122 214 132 215 122 216 121 217 133 218 122 219 133 220 133 220 121 221 123 222 133 223 121 224 133 225 133 225 123 226 124 227 133 228 123 229 133 230 133 230 124 231 125 232 133 233 124 234 133 235 133 235 125 236 126 237 133 238 125 239 133 240 133 240 126 241 127 242 133 243 126 244 133 245 133 245 127 246 128 247 133 248 127 249 133 250 133 250 128 251 129 252 133 253 128 254 133 255 133 255 129 256 130 257 133 258 129 259 133 260 133 260 130 261 131 262 133 263 130 264 133 265 133 265 131 266 132 267 133 268 131 269 133 270 133 270 132 271 122 272 133 273 132 274 133 275 133 275 0 276 0 276 1 277 0 278 1 279 2 280 0 281 0 281 3 282 0 283 3 284 1 285 0 286 0 286 4 287 0 288 4 289 3 290 0 291 0 291 5 292 0 293 5 294 4 295 0 296 0 296 6 297 0 298 6 299 5 300 0 301 0 301 7 302 0 303 7 304 6 305 0 306 0 306 8 307 0 308 8 309 7 310 0 311 0 311 9 312 0 313 9 314 8 315 0 316 0 316 10 317 0 318 10 319 9 320 0 321 0 321 11 322 0 323 11 324 10 325 0 326 0 326 12 327 0 328 12 329 11 330 0 331 0 331 2 332 0 333 2 334 12 335 2 336 1 337 13 338 2 339 13 340 14 341 1 342 3 343 15 344 1 345 15 346 13 347 3 348 4 349 16 350 3 351 16 352 15 353 4 354 5 355 17 356 4 357 17 358 16 359 5 360 6 361 18 362 5 363 18 364 17 365 6 366 7 367 19 368 6 369 19 370 18 371 7 372 8 373 20 374 7 375 20 376 19 377 8 378 9 379 21 380 8 381 21 382 20 383 9 384 10 385 22 386 9 387 22 388 21 389 10 390 11 391 23 392 10 393 23 394 22 395 11 396 12 397 24 398 11 399 24 400 23 401 12 402 2 403 14 404 12 405 14 406 24 407 14 408 13 409 25 410 14 411 25 412 26 413 13 414 15 415 27 416 13 417 27 418 25 419 15 420 16 421 28 422 15 423 28 424 27 425 16 426 17 427 29 428 16 429 29 430 28 431 17 432 18 433 30 434 17 435 30 436 29 437 18 438 19 439 31 440 18 441 31 442 30 443 19 444 20 445 32 446 19 447 32 448 31 449 20 450 21 451 33 452 20 453 33 454 32 455 21 456 22 457 34 458 21 459 34 460 33 461 22 462 23 463 35 464 22 465 35 466 34 467 23 468 24 469 36 470 23 471 36 472 35 473 24 474 14 475 26 476 24 477 26 478 36 479 26 480 25 481 37 482 26 483 37 484 38 485 25 486 27 487 39 488 25 489 39 490 37 491 27 492 28 493 40 494 27 495 40 496 39 497 28 498 29 499 41 500 28 501 41 502 40 503 29 504 30 505 42 506 29 507 42 508 41 509 30 510 31 511 43 512 30 513 43 514 42 515 31 516 32 517 44 518 31 519 44 520 43 521 32 522 33 523 45 524 32 525 45 526 44 527 33 528 34 529 46 530 33 531 46 532 45 533 34 534 35 535 47 536 34 537 47 538 46 539 35 540 36 541 48 542 35 543 48 544 47 545 36 546 26 547 38 548 36 549 38 550 48 551 38 552 37 553 49 554 38 555 49 556 50 557 37 558 39 559 51 560 37 561 51 562 49 563 39 564 40 565 52 566 39 567 52 568 51 569 40 570 41 571 53 572 40 573 53 574 52 575 41 576 42 577 54 578 41 579 54 580 53 581 42 582 43 583 55 584 42 585 55 586 54 587 43 588 44 589 56 590 43 591 56 592 55 593 44 594 45 595 57 596 44 597 57 598 56 599 45 600 46 601 58 602 45 603 58 604 57 605 46 606 47 607 59 608 46 609 59 610 58 611 47 612 48 613 60 614 47 615 60 616 59 617 48 618 38 619 50 620 48 621 50 622 60 623 50 624 49 625 61 626 50 627 61 628 62 629 49 630 51 631 63 632 49 633 63 634 61 635 51 636 52 637 64 638 51 639 64 640 63 641 52 642 53 643 65 644 52 645 65 646 64 647 53 648 54 649 66 650 53 651 66 652 65 653 54 654 55 655 67 656 54 657 67 658 66 659 55 660 56 661 68 662 55 663 68 664 67 665 56 666 57 667 69 668 56 669 69 670 68 671 57 672 58 673 70 674 57 675 70 676 69 677 58 678 59 679 71 680 58 681 71 682 70 683 59 684 60 685 72 686 59 687 72 688 71 689 60 690 50 691 62 692 60 693 62 694 72 695 62 696 61 697 73 698 62 699 73 700 74 701 61 702 63 703 75 704 61 705 75 706 73 707 63 708 64 709 76 710 63 711 76 712 75 713 64 714 65 715 77 716 64 717 77 718 76 719 65 720 66 721 78 722 65 723 78 724 77 725 66 726 67 727 79 728 66 729 79 730 78 731 67 732 68 733 80 734 67 735 80 736 79 737 68 738 69 739 81 740 68 741 81 742 80 743 69 744 70 745 82 746 69 747 82 748 81 749 70 750 71 751 83 752 70 753 83 754 82 755 71 756 72 757 84 758 71 759 84 760 83 761 72 762 62 763 74 764 72 765 74 766 84 767 74 768 73 769 85 770 74 771 85 772 86 773 73 774 75 775 87 776 73 777 87 778 85 779 75 780 76 781 88 782 75 783 88 784 87 785 76 786 77 787 89 788 76 789 89 790 88 791 77 792 78 793 90 794 77 795 90 796 89 797 78 798 79 799 91 800 78 801 91 802 90 803 79 804 80 805 92 806 79 807 92 808 91 809 80 810 81 811 93 812 80 813 93 814 92 815 81 816 82 817 94 818 81 819 94 820 93 821 82 822 83 823 95 824 82 825 95 826 94 827 83 828 84 829 96 830 83 831 96 832 95 833 84 834 74 835 86 836 84 837 86 838 96 839</p>
                </triangles>
            </mesh>
        </geometry>
    </library_geometries>
    <library_visual_scenes>
        <visual_scene id="Building_106_CROWN2">
            <node>
                <instance_geometry url="#geometry0">
                    <bind_material>
                        <technique_common>
                            <instance_material symbol="default_ai_0.2_sh_0.2_tr_0.0_dc_r_0.8_g_0.8_b_0.8_sc_r_1.0_g_1.0_b_1.0_ec_r_0.0_g_0.0_b_0_tri" target="#default_ai_0.2_sh_0.2_tr_0.0_dc_r_0.8_g_0.8_b_0.8_sc_r_1.0_g_1.0_b_1.0_ec_r_0.0_g_0.0_b_0_mat"/>
                        </technique_common>
                    </bind_material>
                </instance_geometry>
            </node>
        </visual_scene>
    </library_visual_scenes>
    <scene>
        <instance_visual_scene url="#Building_106_CROWN2"/>
    </scene>
</COLLADA>
