<?xml version="1.0" encoding="UTF-8" standalone="yes"?>
<COLLADA xmlns="http://www.collada.org/2005/11/COLLADASchema" version="1.4.1">
    <asset>
        <contributor>
            <authoring_tool>3D City Database Importer/Exporter, version 5.5.3; Chair of Geoinformatics, Technical University of Munich</authoring_tool>
        </contributor>
        <created>2026-09-25T14:45:15.686</created>
        <modified>2026-09-25T14:45:15.686</modified>
        <unit meter="1.0" name="meters"/>
        <up_axis>Z_UP</up_axis>
    </asset>
    <library_materials>
        <material id="default_ai_0.2_sh_0.2_tr_0.0_dc_r_0.8_g_0.8_b_0.8_sc_r_1.0_g_1.0_b_1.0_ec_r_0.0_g_0.0_b_0_mat">
            <instance_effect url="#default_ai_0.2_sh_0.2_tr_0.0_dc_r_0.8_g_0.8_b_0.8_sc_r_1.0_g_1.0_b_1.0_ec_r_0.0_g_0.0_b_0_eff"/>
        </material>
    </library_materials>
    <library_effects>
        <effect id="default_ai_0.2_sh_0.2_tr_0.0_dc_r_0.8_g_0.8_b_0.8_sc_r_1.0_g_1.0_b_1.0_ec_r_0.0_g_0.0_b_0_eff">
            <profile_COMMON>
                <technique sid="COMMON">
                    <lambert>
                        <emission>
                            <color>0.0 0.0 0.0 1.0</color>
                        </emission>
                        <diffuse>
                            <color>0.8 0.8 0.8 1.0</color>
                        </diffuse>
                        <reflective>
                            <color>1.0 1.0 1.0 1.0</color>
                        </reflective>
                        <reflectivity>
                            <float>0.2</float>
                        </reflectivity>
                        <transparent opaque="A_ONE">
                            <color>1.0 1.0 1.0 1.0</color>
                        </transparent>
                        <transparency>
                            <float>1.0</float>
                        </transparency>
                    </lambert>
                </technique>
                <extra>
                    <technique profile="GOOGLEEARTH">
                        <double_sided>0</double_sided>
                    </technique>
                </extra>
            </profile_COMMON>
        </effect>
    </library_effects>
    <library_geometries>
        <geometry id="geometry0">
            <mesh>
                <source id="geometry0-position">
                    <float_array id="geometry0-position-array" count="402">0.0 0.0 3.3 0.3698376 0.2135265 3.2437779 0.4270514 0.0 3.2437779 0.2135265 0.3698376 3.2437779 0.0 0.4270513 3.2437779 -0.2135265 0.3698376 3.2437779 -0.3698376 0.2135265 3.2437779 -0.4270514 0.0 3.2437779 -0.3698376 -0.2135265 3.2437779 -0.2135265 -0.3698376 3.2437779 0.0 -0.4270513 3.2437779 0.2135265 -0.3698376 3.2437779 0.3698376 -0.2135265 3.2437779 0.7144715 0.4125 3.0789412 0.825 0.0 3.0789412 0.4125 0.7144715 3.0789412 0.0 0.825 3.0789412 -0.4125 0.7144715 3.0789412 -0.7144715 0.4125 3.0789412 -0.825 0.0 3.0789412 -0.7144715 -0.4125 3.0789412 -0.4125 -0.7144715 3.0789412 0.0 -0.825 3.0789412 0.4125 -0.7144715 3.0789412 0.7144715 -0.4125 3.0789412 1.0104138 0.5833624 2.8167265 1.1667265 0.0 2.8167265 0.5833625 1.0104138 2.8167265 0.0 1.1667266 2.8167265 -0.5833625 1.0104138 2.8167265 -1.0104138 0.5833624 2.8167265 -1.1667265 0.0 2.8167265 -1.0104138 -0.5833624 2.8167265 -0.5833625 -1.0104138 2.8167265 0.0 -1.1667266 2.8167265 0.5833625 -1.0104138 2.8167265 1.0104138 -0.5833624 2.8167265 1.2375 0.7144715 2.475 1.4289413 0.0 2.475 0.7144715 1.2375 2.475 0.0 1.4289412 2.475 -0.7144715 1.2375 2.475 -1.2375 0.7144715 2.475 -1.4289413 0.0 2.475 -1.2375 -0.7144715 2.475 -0.7144715 -1.2375 2.475 0.0 -1.4289412 2.475 0.7144715 -1.2375 2.475 1.2375 -0.7144715 2.475 1.3802514 0.796889 2.0770513 1.5937779 0.0 2.0770513 0.7968889 1.3802514 2.0770513 0.0 1.5937779 2.0770513 -0.7968889 1.3802514 2.0770513 -1.3802514 0.796889 2.0770513 -1.5937779 0.0 2.0770513 -1.3802514 -0.796889 2.0770513 -0.7968889 -1.3802514 2.0770513 0.0 -1.5937779 2.0770513 0.7968889 -1.3802514 2.0770513 1.3802514 -0.796889 2.0770513 1.4289413 0.825 1.65 1.65 0.0 1.65 0.825 1.4289412 1.65 0.0 1.65 1.65 -0.825 1.4289412 1.65 -1.4289413 0.825 1.65 -1.65 0.0 1.65 -1.4289413 -0.825 1.65 -0.825 -1.4289412 1.65 0.0 -1.65 1.65 0.825 -1.4289412 1.65 1.4289413 -0.825 1.65 1.3802514 0.796889 1.2229486 1.5937779 0.0 1.2229486 0.7968889 1.3802514 1.2229486 0.0 1.5937779 1.2229486 -0.7968889 1.3802514 1.2229486 -1.3802514 0.796889 1.2229486 -1.5937779 0.0 1.2229486 -1.3802514 -0.796889 1.2229486 -0.7968889 -1.3802514 1.2229486 0.0 -1.5937779 1.2229486 0.7968889 -1.3802514 1.2229486 1.3802514 -0.796889 1.2229486 1.2375 0.7144715 0.825 1.4289413 0.0 0.825 0.7144715 1.2375 0.825 0.0 1.4289412 0.825 -0.7144715 1.2375 0.825 -1.2375 0.7144715 0.825 -1.4289413 0.0 0.825 -1.2375 -0.7144715 0.825 -0.7144715 -1.2375 0.825 0.0 -1.4289412 0.825 0.7144715 -1.2375 0.825 1.2375 -0.7144715 0.825 1.0104138 0.5833624 0.4832734 1.1667265 0.0 0.4832734 0.5833625 1.0104138 0.4832734 0.0 1.1667266 0.4832734 -0.5833625 1.0104138 0.4832734 -1.0104138 0.5833624 0.4832734 -1.1667265 0.0 0.4832734 -1.0104138 -0.5833624 0.4832734 -0.5833625 -1.0104138 0.4832734 0.0 -1.1667266 0.4832734 0.5833625 -1.0104138 0.4832734 1.0104138 -0.5833624 0.4832734 0.7144715 0.4125 0.2210587 0.825 0.0 0.2210587 0.4125 0.7144715 0.2210587 0.0 0.825 0.2210587 -0.4125 0.7144715 0.2210587 -0.7144715 0.4125 0.2210587 -0.825 0.0 0.2210587 -0.7144715 -0.4125 0.2210587 -0.4125 -0.7144715 0.2210587 0.0 -0.825 0.2210587 0.4125 -0.7144715 0.2210587 0.7144715 -0.4125 0.2210587 0.3698376 0.2135265 0.0562221 0.4270514 0.0 0.0562221 0.2135265 0.3698376 0.0562221 0.0 0.4270513 0.0562221 -0.2135265 0.3698376 0.0562221 -0.3698376 0.2135265 0.0562221 -0.4270514 0.0 0.0562221 -0.3698376 -0.2135265 0.0562221 -0.2135265 -0.3698376 0.0562221 0.0 -0.4270513 0.0562221 0.2135265 -0.3698376 0.0562221 0.3698376 -0.2135265 0.0562221 0.0 0.0 0.0</float_array>
                    <technique_common>
                        <accessor count="134" source="#geometry0-position-array" stride="3">
                            <param name="X" type="float"/>
                            <param name="Y" type="float"/>
                            <param name="Z" type="float"/>
                        </accessor>
                    </technique_common>
                </source>
                <source id="geometry0-normal">
                    <float_array id="geometry0-normal-array" count="2520">0.3806896 0.1020045 -0.9190596 0.3806896 0.1020045 -0.9190596 0.3806896 0.1020045 -0.9190596 0.3806892 0.1020049 -0.9190598 0.3806892 0.1020049 -0.9190598 0.3806892 0.1020049 -0.9190598 0.278684 0.278684 -0.9190595 0.278684 0.278684 -0.9190595 0.278684 0.278684 -0.9190595 0.278684 0.278684 -0.9190595 0.278684 0.278684 -0.9190595 0.278684 0.278684 -0.9190595 0.1020044 0.3806891 -0.9190598 0.1020044 0.3806891 -0.9190598 0.1020044 0.3806891 -0.9190598 0.1020049 0.3806893 -0.9190596 0.1020049 0.3806893 -0.9190596 0.1020049 0.3806893 -0.9190596 -0.1020045 0.3806896 -0.9190596 -0.1020045 0.3806896 -0.9190596 -0.1020045 0.3806896 -0.9190596 -0.1020049 0.3806892 -0.9190598 -0.1020049 0.3806892 -0.9190598 -0.1020049 0.3806892 -0.9190598 -0.278684 0.278684 -0.9190595 -0.278684 0.278684 -0.9190595 -0.278684 0.278684 -0.9190595 -0.278684 0.278684 -0.9190595 -0.278684 0.278684 -0.9190595 -0.278684 0.278684 -0.9190595 -0.3806891 0.1020044 -0.9190598 -0.3806891 0.1020044 -0.9190598 -0.3806891 0.1020044 -0.9190598 -0.3806893 0.1020049 -0.9190596 -0.3806893 0.1020049 -0.9190596 -0.3806893 0.1020049 -0.9190596 -0.6008215 -0.1609889 -0.7830045 -0.6008215 -0.1609889 -0.7830045 -0.6008215 -0.1609889 -0.7830045 -0.6008191 -0.1609903 -0.7830061 -0.6008191 -0.1609903 -0.7830061 -0.6008191 -0.1609903 -0.7830061 -0.4398316 -0.4398316 -0.7830047 -0.4398316 -0.4398316 -0.7830047 -0.4398316 -0.4398316 -0.7830047 -0.4398316 -0.4398316 -0.7830046 -0.4398316 -0.4398316 -0.7830046 -0.4398316 -0.4398316 -0.7830046 -0.1609883 -0.6008193 -0.7830064 -0.1609883 -0.6008193 -0.7830064 -0.1609883 -0.6008193 -0.7830064 -0.1609908 -0.6008207 -0.7830048 -0.1609908 -0.6008207 -0.7830048 -0.1609908 -0.6008207 -0.7830048 0.1609889 -0.6008215 -0.7830045 0.1609889 -0.6008215 -0.7830045 0.1609889 -0.6008215 -0.7830045 0.1609903 -0.6008191 -0.7830061 0.1609903 -0.6008191 -0.7830061 0.1609903 -0.6008191 -0.7830061 0.4398316 -0.4398316 -0.7830047 0.4398316 -0.4398316 -0.7830047 0.4398316 -0.4398316 -0.7830047 0.4398316 -0.4398316 -0.7830046 0.4398316 -0.4398316 -0.7830046 0.4398316 -0.4398316 -0.7830046 0.6008193 -0.1609883 -0.7830064 0.6008193 -0.1609883 -0.7830064 0.6008193 -0.1609883 -0.7830064 0.6008207 -0.1609908 -0.7830048 0.6008207 -0.1609908 -0.7830048 0.6008207 -0.1609908 -0.7830048 0.6008215 0.1609889 -0.7830045 0.6008215 0.1609889 -0.7830045 0.6008215 0.1609889 -0.7830045 0.6008191 0.1609903 -0.7830061 0.6008191 0.1609903 -0.7830061 0.6008191 0.1609903 -0.7830061 0.4398316 0.4398316 -0.7830047 0.4398316 0.4398316 -0.7830047 0.4398316 0.4398316 -0.7830047 0.4398316 0.4398316 -0.7830046 0.4398316 0.4398316 -0.7830046 0.4398316 0.4398316 -0.7830046 0.1609883 0.6008193 -0.7830064 0.1609883 0.6008193 -0.7830064 0.1609883 0.6008193 -0.7830064 0.1609908 0.6008207 -0.7830048 0.1609908 0.6008207 -0.7830048 0.1609908 0.6008207 -0.7830048 -0.1609889 0.6008215 -0.7830045 -0.1609889 0.6008215 -0.7830045 -0.1609889 0.6008215 -0.7830045 -0.1609903 0.6008191 -0.7830061 -0.1609903 0.6008191 -0.7830061 -0.1609903 0.6008191 -0.7830061 -0.4398316 0.4398316 -0.7830047 -0.4398316 0.4398316 -0.7830047 -0.4398316 0.4398316 -0.7830047 -0.4398316 0.4398316 -0.7830046 -0.4398316 0.4398316 -0.7830046 -0.4398316 0.4398316 -0.7830046 -0.6008193 0.1609883 -0.7830064 -0.6008193 0.1609883 -0.7830064 -0.6008193 0.1609883 -0.7830064 -0.6008207 0.1609908 -0.7830048 -0.6008207 0.1609908 -0.7830048 -0.6008207 0.1609908 -0.7830048 -0.7760118 -0.2079335 -0.5954572 -0.7760118 -0.2079335 -0.5954572 -0.7760118 -0.2079335 -0.5954572 -0.7760148 -0.2079317 -0.595454 -0.7760148 -0.2079317 -0.595454 -0.7760148 -0.2079317 -0.595454 -0.5680802 -0.5680802 -0.5954575 -0.5680802 -0.5680802 -0.5954575 -0.5680802 -0.5680802 -0.5954575 -0.5680803 -0.5680803 -0.5954574 -0.5680803 -0.5680803 -0.5954574 -0.5680803 -0.5680803 -0.5954574 -0.2079342 -0.7760144 -0.5954537 -0.2079342 -0.7760144 -0.5954537 -0.2079342 -0.7760144 -0.5954537 -0.2079312 -0.7760127 -0.5954568 -0.2079312 -0.7760127 -0.5954568 -0.2079312 -0.7760127 -0.5954568 0.2079335 -0.7760118 -0.5954572 0.2079335 -0.7760118 -0.5954572 0.2079335 -0.7760118 -0.5954572 0.2079317 -0.7760148 -0.595454 0.2079317 -0.7760148 -0.595454 0.2079317 -0.7760148 -0.595454 0.5680802 -0.5680802 -0.5954575 0.5680802 -0.5680802 -0.5954575 0.5680802 -0.5680802 -0.5954575 0.5680803 -0.5680803 -0.5954574 0.5680803 -0.5680803 -0.5954574 0.5680803 -0.5680803 -0.5954574 0.7760144 -0.2079342 -0.5954537 0.7760144 -0.2079342 -0.5954537 0.7760144 -0.2079342 -0.5954537 0.7760127 -0.2079312 -0.5954568 0.7760127 -0.2079312 -0.5954568 0.7760127 -0.2079312 -0.5954568 0.7760118 0.2079335 -0.5954572 0.7760118 0.2079335 -0.5954572 0.7760118 0.2079335 -0.5954572 0.7760148 0.2079317 -0.595454 0.7760148 0.2079317 -0.595454 0.7760148 0.2079317 -0.595454 0.5680802 0.5680802 -0.5954575 0.5680802 0.5680802 -0.5954575 0.5680802 0.5680802 -0.5954575 0.5680803 0.5680803 -0.5954574 0.5680803 0.5680803 -0.5954574 0.5680803 0.5680803 -0.5954574 0.2079342 0.7760144 -0.5954537 0.2079342 0.7760144 -0.5954537 0.2079342 0.7760144 -0.5954537 0.2079312 0.7760127 -0.5954568 0.2079312 0.7760127 -0.5954568 0.2079312 0.7760127 -0.5954568 -0.2079335 0.7760118 -0.5954572 -0.2079335 0.7760118 -0.5954572 -0.2079335 0.7760118 -0.5954572 -0.2079317 0.7760148 -0.595454 -0.2079317 0.7760148 -0.595454 -0.2079317 0.7760148 -0.595454 -0.5680802 0.5680802 -0.5954575 -0.5680802 0.5680802 -0.5954575 -0.5680802 0.5680802 -0.5954575 -0.5680803 0.5680803 -0.5954574 -0.5680803 0.5680803 -0.5954574 -0.5680803 0.5680803 -0.5954574 -0.7760144 0.2079342 -0.5954537 -0.7760144 0.2079342 -0.5954537 -0.7760144 0.2079342 -0.5954537 -0.7760127 0.2079312 -0.5954568 -0.7760127 0.2079312 -0.5954568 -0.7760127 0.2079312 -0.5954568 -0.8968095 -0.2402984 -0.3714693 -0.8968095 -0.2402984 -0.3714693 -0.8968095 -0.2402984 -0.3714693 -0.8968079 -0.2402998 -0.3714722 -0.8968079 -0.2402998 -0.3714722 -0.8968079 -0.2402998 -0.3714722 -0.6565099 -0.6565099 -0.3714693 -0.6565099 -0.6565099 -0.3714693 -0.6565099 -0.6565099 -0.3714693 -0.6565099 -0.6565099 -0.3714693 -0.6565099 -0.6565099 -0.3714693 -0.6565099 -0.6565099 -0.3714693 -0.2402981 -0.8968083 -0.3714724 -0.2402981 -0.8968083 -0.3714724 -0.2402981 -0.8968083 -0.3714724 -0.2403001 -0.896809 -0.3714694 -0.2403001 -0.896809 -0.3714694 -0.2403001 -0.896809 -0.3714694 0.2402984 -0.8968095 -0.3714693 0.2402984 -0.8968095 -0.3714693 0.2402984 -0.8968095 -0.3714693 0.2402998 -0.8968079 -0.3714722 0.2402998 -0.8968079 -0.3714722 0.2402998 -0.8968079 -0.3714722 0.6565099 -0.6565099 -0.3714693 0.6565099 -0.6565099 -0.3714693 0.6565099 -0.6565099 -0.3714693 0.6565099 -0.6565099 -0.3714693 0.6565099 -0.6565099 -0.3714693 0.6565099 -0.6565099 -0.3714693 0.8968083 -0.2402981 -0.3714724 0.8968083 -0.2402981 -0.3714724 0.8968083 -0.2402981 -0.3714724 0.896809 -0.2403001 -0.3714694 0.896809 -0.2403001 -0.3714694 0.896809 -0.2403001 -0.3714694 0.8968095 0.2402984 -0.3714693 0.8968095 0.2402984 -0.3714693 0.8968095 0.2402984 -0.3714693 0.8968079 0.2402998 -0.3714722 0.8968079 0.2402998 -0.3714722 0.8968079 0.2402998 -0.3714722 0.6565099 0.6565099 -0.3714693 0.6565099 0.6565099 -0.3714693 0.6565099 0.6565099 -0.3714693 0.6565099 0.6565099 -0.3714693 0.6565099 0.6565099 -0.3714693 0.6565099 0.6565099 -0.3714693 0.2402981 0.8968083 -0.3714724 0.2402981 0.8968083 -0.3714724 0.2402981 0.8968083 -0.3714724 0.2403001 0.896809 -0.3714694 0.2403001 0.896809 -0.3714694 0.2403001 0.896809 -0.3714694 -0.2402984 0.8968095 -0.3714693 -0.2402984 0.8968095 -0.3714693 -0.2402984 0.8968095 -0.3714693 -0.2402998 0.8968079 -0.3714722 -0.2402998 0.8968079 -0.3714722 -0.2402998 0.8968079 -0.3714722 -0.6565099 0.6565099 -0.3714693 -0.6565099 0.6565099 -0.3714693 -0.6565099 0.6565099 -0.3714693 -0.6565099 0.6565099 -0.3714693 -0.6565099 0.6565099 -0.3714693 -0.6565099 0.6565099 -0.3714693 -0.8968083 0.2402981 -0.3714724 -0.8968083 0.2402981 -0.3714724 -0.8968083 0.2402981 -0.3714724 -0.896809 0.2403001 -0.3714694 -0.896809 0.2403001 -0.3714694 -0.896809 0.2403001 -0.3714694 -0.958209 -0.2567522 -0.1261502 -0.958209 -0.2567522 -0.1261502 -0.958209 -0.2567522 -0.1261502 -0.958209 -0.2567521 -0.1261499 -0.958209 -0.2567521 -0.1261499 -0.958209 -0.2567521 -0.1261499 -0.7014578 -0.7014578 -0.1261501 -0.7014578 -0.7014578 -0.1261501 -0.7014578 -0.7014578 -0.1261501 -0.7014578 -0.7014578 -0.12615 -0.7014578 -0.7014578 -0.12615 -0.7014578 -0.7014578 -0.12615 -0.2567522 -0.958209 -0.1261499 -0.2567522 -0.958209 -0.1261499 -0.2567522 -0.958209 -0.1261499 -0.2567521 -0.9582091 -0.1261502 -0.2567521 -0.9582091 -0.1261502 -0.2567521 -0.9582091 -0.1261502 0.2567522 -0.958209 -0.1261502 0.2567522 -0.958209 -0.1261502 0.2567522 -0.958209 -0.1261502 0.2567521 -0.958209 -0.1261499 0.2567521 -0.958209 -0.1261499 0.2567521 -0.958209 -0.1261499 0.7014578 -0.7014578 -0.1261501 0.7014578 -0.7014578 -0.1261501 0.7014578 -0.7014578 -0.1261501 0.7014578 -0.7014578 -0.12615 0.7014578 -0.7014578 -0.12615 0.7014578 -0.7014578 -0.12615 0.958209 -0.2567522 -0.1261499 0.958209 -0.2567522 -0.1261499 0.958209 -0.2567522 -0.1261499 0.9582091 -0.2567521 -0.1261502 0.9582091 -0.2567521 -0.1261502 0.9582091 -0.2567521 -0.1261502 0.958209 0.2567522 -0.1261502 0.958209 0.2567522 -0.1261502 0.958209 0.2567522 -0.1261502 0.958209 0.2567521 -0.1261499 0.958209 0.2567521 -0.1261499 0.958209 0.2567521 -0.1261499 0.7014578 0.7014578 -0.1261501 0.7014578 0.7014578 -0.1261501 0.7014578 0.7014578 -0.1261501 0.7014578 0.7014578 -0.12615 0.7014578 0.7014578 -0.12615 0.7014578 0.7014578 -0.12615 0.2567522 0.958209 -0.1261499 0.2567522 0.958209 -0.1261499 0.2567522 0.958209 -0.1261499 0.2567521 0.9582091 -0.1261502 0.2567521 0.9582091 -0.1261502 0.2567521 0.9582091 -0.1261502 -0.2567522 0.958209 -0.1261502 -0.2567522 0.958209 -0.1261502 -0.2567522 0.958209 -0.1261502 -0.2567521 0.958209 -0.1261499 -0.2567521 0.958209 -0.1261499 -0.2567521 0.958209 -0.1261499 -0.7014578 0.7014578 -0.1261501 -0.7014578 0.7014578 -0.1261501 -0.7014578 0.7014578 -0.1261501 -0.7014578 0.7014578 -0.12615 -0.7014578 0.7014578 -0.12615 -0.7014578 0.7014578 -0.12615 -0.958209 0.2567522 -0.1261499 -0.958209 0.2567522 -0.1261499 -0.958209 0.2567522 -0.1261499 -0.9582091 0.2567521 -0.1261502 -0.9582091 0.2567521 -0.1261502 -0.9582091 0.2567521 -0.1261502 -0.9582091 -0.2567521 0.1261502 -0.9582091 -0.2567521 0.1261502 -0.9582091 -0.2567521 0.1261502 -0.958209 -0.2567522 0.12615 -0.958209 -0.2567522 0.12615 -0.958209 -0.2567522 0.12615 -0.7014578 -0.7014578 0.1261501 -0.7014578 -0.7014578 0.1261501 -0.7014578 -0.7014578 0.1261501 -0.7014578 -0.7014578 0.1261501 -0.7014578 -0.7014578 0.1261501 -0.7014578 -0.7014578 0.1261501 -0.256752 -0.958209 0.12615 -0.256752 -0.958209 0.12615 -0.256752 -0.958209 0.12615 -0.2567522 -0.958209 0.1261502 -0.2567522 -0.958209 0.1261502 -0.2567522 -0.958209 0.1261502 0.2567521 -0.9582091 0.1261502 0.2567521 -0.9582091 0.1261502 0.2567521 -0.9582091 0.1261502 0.2567522 -0.958209 0.12615 0.2567522 -0.958209 0.12615 0.2567522 -0.958209 0.12615 0.7014578 -0.7014578 0.1261501 0.7014578 -0.7014578 0.1261501 0.7014578 -0.7014578 0.1261501 0.7014578 -0.7014578 0.1261501 0.7014578 -0.7014578 0.1261501 0.7014578 -0.7014578 0.1261501 0.958209 -0.256752 0.12615 0.958209 -0.256752 0.12615 0.958209 -0.256752 0.12615 0.958209 -0.2567522 0.1261502 0.958209 -0.2567522 0.1261502 0.958209 -0.2567522 0.1261502 0.9582091 0.2567521 0.1261502 0.9582091 0.2567521 0.1261502 0.9582091 0.2567521 0.1261502 0.958209 0.2567522 0.12615 0.958209 0.2567522 0.12615 0.958209 0.2567522 0.12615 0.7014578 0.7014578 0.1261501 0.7014578 0.7014578 0.1261501 0.7014578 0.7014578 0.1261501 0.7014578 0.7014578 0.1261501 0.7014578 0.7014578 0.1261501 0.7014578 0.7014578 0.1261501 0.256752 0.958209 0.12615 0.256752 0.958209 0.12615 0.256752 0.958209 0.12615 0.2567522 0.958209 0.1261502 0.2567522 0.958209 0.1261502 0.2567522 0.958209 0.1261502 -0.2567521 0.9582091 0.1261502 -0.2567521 0.9582091 0.1261502 -0.2567521 0.9582091 0.1261502 -0.2567522 0.958209 0.12615 -0.2567522 0.958209 0.12615 -0.2567522 0.958209 0.12615 -0.7014578 0.7014578 0.1261501 -0.7014578 0.7014578 0.1261501 -0.7014578 0.7014578 0.1261501 -0.7014578 0.7014578 0.1261501 -0.7014578 0.7014578 0.1261501 -0.7014578 0.7014578 0.1261501 -0.958209 0.256752 0.12615 -0.958209 0.256752 0.12615 -0.958209 0.256752 0.12615 -0.958209 0.2567522 0.1261502 -0.958209 0.2567522 0.1261502 -0.958209 0.2567522 0.1261502 -0.896809 -0.2403001 0.3714693 -0.896809 -0.2403001 0.3714693 -0.896809 -0.2403001 0.3714693 -0.8968083 -0.2402981 0.3714722 -0.8968083 -0.2402981 0.3714722 -0.8968083 -0.2402981 0.3714722 -0.6565099 -0.6565099 0.3714691 -0.6565099 -0.6565099 0.3714691 -0.6565099 -0.6565099 0.3714691 -0.65651 -0.65651 0.3714691 -0.65651 -0.65651 0.3714691 -0.65651 -0.65651 0.3714691 -0.2402998 -0.896808 0.3714721 -0.2402998 -0.896808 0.3714721 -0.2402998 -0.896808 0.3714721 -0.2402985 -0.8968096 0.3714691 -0.2402985 -0.8968096 0.3714691 -0.2402985 -0.8968096 0.3714691 0.2403001 -0.896809 0.3714693 0.2403001 -0.896809 0.3714693 0.2403001 -0.896809 0.3714693 0.2402981 -0.8968083 0.3714722 0.2402981 -0.8968083 0.3714722 0.2402981 -0.8968083 0.3714722 0.6565099 -0.6565099 0.3714691 0.6565099 -0.6565099 0.3714691 0.6565099 -0.6565099 0.3714691 0.65651 -0.65651 0.3714691 0.65651 -0.65651 0.3714691 0.65651 -0.65651 0.3714691 0.896808 -0.2402998 0.3714721 0.896808 -0.2402998 0.3714721 0.896808 -0.2402998 0.3714721 0.8968096 -0.2402985 0.3714691 0.8968096 -0.2402985 0.3714691 0.8968096 -0.2402985 0.3714691 0.896809 0.2403001 0.3714693 0.896809 0.2403001 0.3714693 0.896809 0.2403001 0.3714693 0.8968083 0.2402981 0.3714722 0.8968083 0.2402981 0.3714722 0.8968083 0.2402981 0.3714722 0.6565099 0.6565099 0.3714691 0.6565099 0.6565099 0.3714691 0.6565099 0.6565099 0.3714691 0.65651 0.65651 0.3714691 0.65651 0.65651 0.3714691 0.65651 0.65651 0.3714691 0.2402998 0.896808 0.3714721 0.2402998 0.896808 0.3714721 0.2402998 0.896808 0.3714721 0.2402985 0.8968096 0.3714691 0.2402985 0.8968096 0.3714691 0.2402985 0.8968096 0.3714691 -0.2403001 0.896809 0.3714693 -0.2403001 0.896809 0.3714693 -0.2403001 0.896809 0.3714693 -0.2402981 0.8968083 0.3714722 -0.2402981 0.8968083 0.3714722 -0.2402981 0.8968083 0.3714722 -0.6565099 0.6565099 0.3714691 -0.6565099 0.6565099 0.3714691 -0.6565099 0.6565099 0.3714691 -0.65651 0.65651 0.3714691 -0.65651 0.65651 0.3714691 -0.65651 0.65651 0.3714691 -0.896808 0.2402998 0.3714721 -0.896808 0.2402998 0.3714721 -0.896808 0.2402998 0.3714721 -0.8968096 0.2402985 0.3714691 -0.8968096 0.2402985 0.3714691 -0.8968096 0.2402985 0.3714691 -0.7760127 -0.2079312 0.5954568 -0.7760127 -0.2079312 0.5954568 -0.7760127 -0.2079312 0.5954568 -0.7760144 -0.2079342 0.5954537 -0.7760144 -0.2079342 0.5954537 -0.7760144 -0.2079342 0.5954537 -0.5680803 -0.5680803 0.5954574 -0.5680803 -0.5680803 0.5954574 -0.5680803 -0.5680803 0.5954574 -0.5680802 -0.5680802 0.5954576 -0.5680802 -0.5680802 0.5954576 -0.5680802 -0.5680802 0.5954576 -0.2079317 -0.7760147 0.595454 -0.2079317 -0.7760147 0.595454 -0.2079317 -0.7760147 0.595454 -0.2079335 -0.7760118 0.5954572 -0.2079335 -0.7760118 0.5954572 -0.2079335 -0.7760118 0.5954572 0.2079312 -0.7760127 0.5954568 0.2079312 -0.7760127 0.5954568 0.2079312 -0.7760127 0.5954568 0.2079342 -0.7760144 0.5954537 0.2079342 -0.7760144 0.5954537 0.2079342 -0.7760144 0.5954537 0.5680803 -0.5680803 0.5954574 0.5680803 -0.5680803 0.5954574 0.5680803 -0.5680803 0.5954574 0.5680802 -0.5680802 0.5954576 0.5680802 -0.5680802 0.5954576 0.5680802 -0.5680802 0.5954576 0.7760147 -0.2079317 0.595454 0.7760147 -0.2079317 0.595454 0.7760147 -0.2079317 0.595454 0.7760118 -0.2079335 0.5954572 0.7760118 -0.2079335 0.5954572 0.7760118 -0.2079335 0.5954572 0.7760127 0.2079312 0.5954568 0.7760127 0.2079312 0.5954568 0.7760127 0.2079312 0.5954568 0.7760144 0.2079342 0.5954537 0.7760144 0.2079342 0.5954537 0.7760144 0.2079342 0.5954537 0.5680803 0.5680803 0.5954574 0.5680803 0.5680803 0.5954574 0.5680803 0.5680803 0.5954574 0.5680802 0.5680802 0.5954576 0.5680802 0.5680802 0.5954576 0.5680802 0.5680802 0.5954576 0.2079317 0.7760147 0.595454 0.2079317 0.7760147 0.595454 0.2079317 0.7760147 0.595454 0.2079335 0.7760118 0.5954572 0.2079335 0.7760118 0.5954572 0.2079335 0.7760118 0.5954572 -0.2079312 0.7760127 0.5954568 -0.2079312 0.7760127 0.5954568 -0.2079312 0.7760127 0.5954568 -0.2079342 0.7760144 0.5954537 -0.2079342 0.7760144 0.5954537 -0.2079342 0.7760144 0.5954537 -0.5680803 0.5680803 0.5954574 -0.5680803 0.5680803 0.5954574 -0.5680803 0.5680803 0.5954574 -0.5680802 0.5680802 0.5954576 -0.5680802 0.5680802 0.5954576 -0.5680802 0.5680802 0.5954576 -0.7760147 0.2079317 0.595454 -0.7760147 0.2079317 0.595454 -0.7760147 0.2079317 0.595454 -0.7760118 0.2079335 0.5954572 -0.7760118 0.2079335 0.5954572 -0.7760118 0.2079335 0.5954572 -0.6008204 -0.1609907 0.7830051 -0.6008204 -0.1609907 0.7830051 -0.6008204 -0.1609907 0.7830051 -0.6008191 -0.1609882 0.7830066 -0.6008191 -0.1609882 0.7830066 -0.6008191 -0.1609882 0.7830066 -0.4398314 -0.4398314 0.7830049 -0.4398314 -0.4398314 0.7830049 -0.4398314 -0.4398314 0.7830049 -0.4398314 -0.4398314 0.7830049 -0.4398314 -0.4398314 0.7830049 -0.4398314 -0.4398314 0.7830049 -0.1609903 -0.6008188 0.7830064 -0.1609903 -0.6008188 0.7830064 -0.1609903 -0.6008188 0.7830064 -0.1609888 -0.6008212 0.7830048 -0.1609888 -0.6008212 0.7830048 -0.1609888 -0.6008212 0.7830048 0.1609907 -0.6008204 0.7830051 0.1609907 -0.6008204 0.7830051 0.1609907 -0.6008204 0.7830051 0.1609882 -0.6008191 0.7830066 0.1609882 -0.6008191 0.7830066 0.1609882 -0.6008191 0.7830066 0.4398314 -0.4398314 0.7830049 0.4398314 -0.4398314 0.7830049 0.4398314 -0.4398314 0.7830049 0.4398314 -0.4398314 0.7830049 0.4398314 -0.4398314 0.7830049 0.4398314 -0.4398314 0.7830049 0.6008188 -0.1609903 0.7830064 0.6008188 -0.1609903 0.7830064 0.6008188 -0.1609903 0.7830064 0.6008212 -0.1609888 0.7830048 0.6008212 -0.1609888 0.7830048 0.6008212 -0.1609888 0.7830048 0.6008204 0.1609907 0.7830051 0.6008204 0.1609907 0.7830051 0.6008204 0.1609907 0.7830051 0.6008191 0.1609882 0.7830066 0.6008191 0.1609882 0.7830066 0.6008191 0.1609882 0.7830066 0.4398314 0.4398314 0.7830049 0.4398314 0.4398314 0.7830049 0.4398314 0.4398314 0.7830049 0.4398314 0.4398314 0.7830049 0.4398314 0.4398314 0.7830049 0.4398314 0.4398314 0.7830049 0.1609903 0.6008188 0.7830064 0.1609903 0.6008188 0.7830064 0.1609903 0.6008188 0.7830064 0.1609888 0.6008212 0.7830048 0.1609888 0.6008212 0.7830048 0.1609888 0.6008212 0.7830048 -0.1609907 0.6008204 0.7830051 -0.1609907 0.6008204 0.7830051 -0.1609907 0.6008204 0.7830051 -0.1609882 0.6008191 0.7830066 -0.1609882 0.6008191 0.7830066 -0.1609882 0.6008191 0.7830066 -0.4398314 0.4398314 0.7830049 -0.4398314 0.4398314 0.7830049 -0.4398314 0.4398314 0.7830049 -0.4398314 0.4398314 0.7830049 -0.4398314 0.4398314 0.7830049 -0.4398314 0.4398314 0.7830049 -0.6008188 0.1609903 0.7830064 -0.6008188 0.1609903 0.7830064 -0.6008188 0.1609903 0.7830064 -0.6008212 0.1609888 0.7830048 -0.6008212 0.1609888 0.7830048 -0.6008212 0.1609888 0.7830048 -0.3806894 -0.1020049 0.9190596 -0.3806894 -0.1020049 0.9190596 -0.3806894 -0.1020049 0.9190596 -0.3806891 -0.1020044 0.9190598 -0.3806891 -0.1020044 0.9190598 -0.3806891 -0.1020044 0.9190598 -0.2786841 -0.2786841 0.9190595 -0.2786841 -0.2786841 0.9190595 -0.2786841 -0.2786841 0.9190595 -0.278684 -0.278684 0.9190595 -0.278684 -0.278684 0.9190595 -0.278684 -0.278684 0.9190595 -0.1020049 -0.3806892 0.9190597 -0.1020049 -0.3806892 0.9190597 -0.1020049 -0.3806892 0.9190597 -0.1020045 -0.3806896 0.9190596 -0.1020045 -0.3806896 0.9190596 -0.1020045 -0.3806896 0.9190596 0.1020049 -0.3806894 0.9190596 0.1020049 -0.3806894 0.9190596 0.1020049 -0.3806894 0.9190596 0.1020044 -0.3806891 0.9190598 0.1020044 -0.3806891 0.9190598 0.1020044 -0.3806891 0.9190598 0.2786841 -0.2786841 0.9190595 0.2786841 -0.2786841 0.9190595 0.2786841 -0.2786841 0.9190595 0.278684 -0.278684 0.9190595 0.278684 -0.278684 0.9190595 0.278684 -0.278684 0.9190595 0.3806892 -0.1020049 0.9190597 0.3806892 -0.1020049 0.9190597 0.3806892 -0.1020049 0.9190597 0.3806896 -0.1020045 0.9190596 0.3806896 -0.1020045 0.9190596 0.3806896 -0.1020045 0.9190596 0.3806894 0.1020049 0.9190596 0.3806894 0.1020049 0.9190596 0.3806894 0.1020049 0.9190596 0.3806891 0.1020044 0.9190598 0.3806891 0.1020044 0.9190598 0.3806891 0.1020044 0.9190598 0.2786841 0.2786841 0.9190595 0.2786841 0.2786841 0.9190595 0.2786841 0.2786841 0.9190595 0.278684 0.278684 0.9190595 0.278684 0.278684 0.9190595 0.278684 0.278684 0.9190595 0.1020049 0.3806892 0.9190597 0.1020049 0.3806892 0.9190597 0.1020049 0.3806892 0.9190597 0.1020045 0.3806896 0.9190596 0.1020045 0.3806896 0.9190596 0.1020045 0.3806896 0.9190596 -0.1020049 0.3806894 0.9190596 -0.1020049 0.3806894 0.9190596 -0.1020049 0.3806894 0.9190596 -0.1020044 0.3806891 0.9190598 -0.1020044 0.3806891 0.9190598 -0.1020044 0.3806891 0.9190598 -0.2786841 0.2786841 0.9190595 -0.2786841 0.2786841 0.9190595 -0.2786841 0.2786841 0.9190595 -0.278684 0.278684 0.9190595 -0.278684 0.278684 0.9190595 -0.278684 0.278684 0.9190595 -0.3806892 0.1020049 0.9190597 -0.3806892 0.1020049 0.9190597 -0.3806892 0.1020049 0.9190597 -0.3806896 0.1020045 0.9190596 -0.3806896 0.1020045 0.9190596 -0.3806896 0.1020045 0.9190596 -0.1304458 -0.0349525 0.9908391 -0.1304458 -0.0349525 0.9908391 -0.1304458 -0.0349525 0.9908391 1.0 0.0 0.0 1.0 0.0 0.0 -0.0954928 -0.0954928 0.9908392 -0.0954928 -0.0954928 0.9908392 -0.0954928 -0.0954928 0.9908392 1.0 0.0 0.0 1.0 0.0 0.0 -0.0349525 -0.1304458 0.9908391 -0.0349525 -0.1304458 0.9908391 -0.0349525 -0.1304458 0.9908391 1.0 0.0 0.0 1.0 0.0 0.0 0.0349525 -0.1304458 0.9908391 0.0349525 -0.1304458 0.9908391 0.0349525 -0.1304458 0.9908391 1.0 0.0 0.0 1.0 0.0 0.0 0.0954928 -0.0954928 0.9908392 0.0954928 -0.0954928 0.9908392 0.0954928 -0.0954928 0.9908392 1.0 0.0 0.0 1.0 0.0 0.0 0.1304458 -0.0349525 0.9908391 0.1304458 -0.0349525 0.9908391 0.1304458 -0.0349525 0.9908391 1.0 0.0 0.0 1.0 0.0 0.0 0.1304458 0.0349525 0.9908391 0.1304458 0.0349525 0.9908391 0.1304458 0.0349525 0.9908391 1.0 0.0 0.0 1.0 0.0 0.0 0.0954928 0.0954928 0.9908392 0.0954928 0.0954928 0.9908392 0.0954928 0.0954928 0.9908392 1.0 0.0 0.0 1.0 0.0 0.0 0.0349525 0.1304458 0.9908391 0.0349525 0.1304458 0.9908391 0.0349525 0.1304458 0.9908391 1.0 0.0 0.0 1.0 0.0 0.0 -0.0349525 0.1304458 0.9908391 -0.0349525 0.1304458 0.9908391 -0.0349525 0.1304458 0.9908391 1.0 0.0 0.0 1.0 0.0 0.0 -0.0954928 0.0954928 0.9908392 -0.0954928 0.0954928 0.9908392 -0.0954928 0.0954928 0.9908392 1.0 0.0 0.0 1.0 0.0 0.0 -0.1304458 0.0349525 0.9908391 -0.1304458 0.0349525 0.9908391 -0.1304458 0.0349525 0.9908391 1.0 0.0 0.0 1.0 0.0 0.0 1.0 0.0 0.0 1.0 0.0 0.0 -0.1304455 -0.0349524 -0.9908392 -0.1304455 -0.0349524 -0.9908392 -0.1304455 -0.0349524 -0.9908392 1.0 0.0 0.0 1.0 0.0 0.0 -0.0954925 -0.0954925 -0.9908392 -0.0954925 -0.0954925 -0.9908392 -0.0954925 -0.0954925 -0.9908392 1.0 0.0 0.0 1.0 0.0 0.0 -0.0349524 -0.1304455 -0.9908392 -0.0349524 -0.1304455 -0.9908392 -0.0349524 -0.1304455 -0.9908392 1.0 0.0 0.0 1.0 0.0 0.0 0.0349524 -0.1304455 -0.9908392 0.0349524 -0.1304455 -0.9908392 0.0349524 -0.1304455 -0.9908392 1.0 0.0 0.0 1.0 0.0 0.0 0.0954925 -0.0954925 -0.9908392 0.0954925 -0.0954925 -0.9908392 0.0954925 -0.0954925 -0.9908392 1.0 0.0 0.0 1.0 0.0 0.0 0.1304455 -0.0349524 -0.9908392 0.1304455 -0.0349524 -0.9908392 0.1304455 -0.0349524 -0.9908392 1.0 0.0 0.0 1.0 0.0 0.0 0.1304455 0.0349524 -0.9908392 0.1304455 0.0349524 -0.9908392 0.1304455 0.0349524 -0.9908392 1.0 0.0 0.0 1.0 0.0 0.0 0.0954925 0.0954925 -0.9908392 0.0954925 0.0954925 -0.9908392 0.0954925 0.0954925 -0.9908392 1.0 0.0 0.0 1.0 0.0 0.0 0.0349524 0.1304455 -0.9908392 0.0349524 0.1304455 -0.9908392 0.0349524 0.1304455 -0.9908392 1.0 0.0 0.0 1.0 0.0 0.0 -0.0349524 0.1304455 -0.9908392 -0.0349524 0.1304455 -0.9908392 -0.0349524 0.1304455 -0.9908392 1.0 0.0 0.0 1.0 0.0 0.0 -0.0954925 0.0954925 -0.9908392 -0.0954925 0.0954925 -0.9908392 -0.0954925 0.0954925 -0.9908392 1.0 0.0 0.0 1.0 0.0 0.0 -0.1304455 0.0349524 -0.9908392 -0.1304455 0.0349524 -0.9908392 -0.1304455 0.0349524 -0.9908392 -0.3806896 -0.1020045 -0.9190596 -0.3806896 -0.1020045 -0.9190596 -0.3806896 -0.1020045 -0.9190596 -0.3806892 -0.1020049 -0.9190598 -0.3806892 -0.1020049 -0.9190598 -0.3806892 -0.1020049 -0.9190598 -0.278684 -0.278684 -0.9190595 -0.278684 -0.278684 -0.9190595 -0.278684 -0.278684 -0.9190595 -0.278684 -0.278684 -0.9190595 -0.278684 -0.278684 -0.9190595 -0.278684 -0.278684 -0.9190595 -0.1020044 -0.3806891 -0.9190598 -0.1020044 -0.3806891 -0.9190598 -0.1020044 -0.3806891 -0.9190598 -0.1020049 -0.3806893 -0.9190596 -0.1020049 -0.3806893 -0.9190596 -0.1020049 -0.3806893 -0.9190596 0.1020045 -0.3806896 -0.9190596 0.1020045 -0.3806896 -0.9190596 0.1020045 -0.3806896 -0.9190596 0.1020049 -0.3806892 -0.9190598 0.1020049 -0.3806892 -0.9190598 0.1020049 -0.3806892 -0.9190598 0.278684 -0.278684 -0.9190595 0.278684 -0.278684 -0.9190595 0.278684 -0.278684 -0.9190595 0.278684 -0.278684 -0.9190595 0.278684 -0.278684 -0.9190595 0.278684 -0.278684 -0.9190595 0.3806891 -0.1020044 -0.9190598 0.3806891 -0.1020044 -0.9190598 0.3806891 -0.1020044 -0.9190598 0.3806893 -0.1020049 -0.9190596 0.3806893 -0.1020049 -0.9190596 0.3806893 -0.1020049 -0.9190596</float_array>
                    <technique_common>
                        <accessor count="840" source="#geometry0-normal-array" stride="3">
                            <param name="X" type="float"/>
                            <param name="Y" type="float"/>
                            <param name="Z" type="float"/>
                        </accessor>
                    </technique_common>
                </source>
                <vertices id="geometry0-vertex">
                    <input semantic="POSITION" source="#geometry0-position"/>
                </vertices>
                <triangles count="288" material="default_ai_0.2_sh_0.2_tr_0.0_dc_r_0.8_g_0.8_b_0.8_sc_r_1.0_g_1.0_b_1.0_ec_r_0.0_g_0.0_b_0_tri">
                    <input offset="0" semantic="VERTEX" source="#geometry0-vertex"/>
                    <input offset="1" semantic="NORMAL" source="#geometry0-normal"/>
                    <p>7 0 8 1 20 2 7 3 20 4 19 5 8 6 9 7 21 8 8 9 21 10 20 11 9 12 10 13 22 14 9 15 22 16 21 17 10 18 11 19 23 20 10 21 23 22 22 23 11 24 12 25 24 26 11 27 24 28 23 29 12 30 2 31 14 32 12 33 14 34 24 35 14 36 13 37 25 38 14 39 25 40 26 41 13 42 15 43 27 44 13 45 27 46 25 47 15 48 16 49 28 50 15 51 28 52 27 53 16 54 17 55 29 56 16 57 29 58 28 59 17 60 18 61 30 62 17 63 30 64 29 65 18 66 19 67 31 68 18 69 31 70 30 71 19 72 20 73 32 74 19 75 32 76 31 77 20 78 21 79 33 80 20 81 33 82 32 83 21 84 22 85 34 86 21 87 34 88 33 89 22 90 23 91 35 92 22 93 35 94 34 95 23 96 24 97 36 98 23 99 36 100 35 101 24 102 14 103 26 104 24 105 26 106 36 107 26 108 25 109 37 110 26 111 37 112 38 113 25 114 27 115 39 116 25 117 39 118 37 119 27 120 28 121 40 122 27 123 40 124 39 125 28 126 29 127 41 128 28 129 41 130 40 131 29 132 30 133 42 134 29 135 42 136 41 137 30 138 31 139 43 140 30 141 43 142 42 143 31 144 32 145 44 146 31 147 44 148 43 149 32 150 33 151 45 152 32 153 45 154 44 155 33 156 34 157 46 158 33 159 46 160 45 161 34 162 35 163 47 164 34 165 47 166 46 167 35 168 36 169 48 170 35 171 48 172 47 173 36 174 26 175 38 176 36 177 38 178 48 179 38 180 37 181 49 182 38 183 49 184 50 185 37 186 39 187 51 188 37 189 51 190 49 191 39 192 40 193 52 194 39 195 52 196 51 197 40 198 41 199 53 200 40 201 53 202 52 203 41 204 42 205 54 206 41 207 54 208 53 209 42 210 43 211 55 212 42 213 55 214 54 215 43 216 44 217 56 218 43 219 56 220 55 221 44 222 45 223 57 224 44 225 57 226 56 227 45 228 46 229 58 230 45 231 58 232 57 233 46 234 47 235 59 236 46 237 59 238 58 239 47 240 48 241 60 242 47 243 60 244 59 245 48 246 38 247 50 248 48 249 50 250 60 251 50 252 49 253 61 254 50 255 61 256 62 257 49 258 51 259 63 260 49 261 63 262 61 263 51 264 52 265 64 266 51 267 64 268 63 269 52 270 53 271 65 272 52 273 65 274 64 275 53 276 54 277 66 278 53 279 66 280 65 281 54 282 55 283 67 284 54 285 67 286 66 287 55 288 56 289 68 290 55 291 68 292 67 293 56 294 57 295 69 296 56 297 69 298 68 299 57 300 58 301 70 302 57 303 70 304 69 305 58 306 59 307 71 308 58 309 71 310 70 311 59 312 60 313 72 314 59 315 72 316 71 317 60 318 50 319 62 320 60 321 62 322 72 323 62 324 61 325 73 326 62 327 73 328 74 329 61 330 63 331 75 332 61 333 75 334 73 335 63 336 64 337 76 338 63 339 76 340 75 341 64 342 65 343 77 344 64 345 77 346 76 347 65 348 66 349 78 350 65 351 78 352 77 353 66 354 67 355 79 356 66 357 79 358 78 359 67 360 68 361 80 362 67 363 80 364 79 365 68 366 69 367 81 368 68 369 81 370 80 371 69 372 70 373 82 374 69 375 82 376 81 377 70 378 71 379 83 380 70 381 83 382 82 383 71 384 72 385 84 386 71 387 84 388 83 389 72 390 62 391 74 392 72 393 74 394 84 395 74 396 73 397 85 398 74 399 85 400 86 401 73 402 75 403 87 404 73 405 87 406 85 407 75 408 76 409 88 410 75 411 88 412 87 413 76 414 77 415 89 416 76 417 89 418 88 419 77 420 78 421 90 422 77 423 90 424 89 425 78 426 79 427 91 428 78 429 91 430 90 431 79 432 80 433 92 434 79 435 92 436 91 437 80 438 81 439 93 440 80 441 93 442 92 443 81 444 82 445 94 446 81 447 94 448 93 449 82 450 83 451 95 452 82 453 95 454 94 455 83 456 84 457 96 458 83 459 96 460 95 461 84 462 74 463 86 464 84 465 86 466 96 467 86 468 85 469 97 470 86 471 97 472 98 473 85 474 87 475 99 476 85 477 99 478 97 479 87 480 88 481 100 482 87 483 100 484 99 485 88 486 89 487 101 488 88 489 101 490 100 491 89 492 90 493 102 494 89 495 102 496 101 497 90 498 91 499 103 500 90 501 103 502 102 503 91 504 92 505 104 506 91 507 104 508 103 509 92 510 93 511 105 512 92 513 105 514 104 515 93 516 94 517 106 518 93 519 106 520 105 521 94 522 95 523 107 524 94 525 107 526 106 527 95 528 96 529 108 530 95 531 108 532 107 533 96 534 86 535 98 536 96 537 98 538 108 539 98 540 97 541 109 542 98 543 109 544 110 545 97 546 99 547 111 548 97 549 111 550 109 551 99 552 100 553 112 554 99 555 112 556 111 557 100 558 101 559 113 560 100 561 113 562 112 563 101 564 102 565 114 566 101 567 114 568 113 569 102 570 103 571 115 572 102 573 115 574 114 575 103 576 104 577 116 578 103 579 116 580 115 581 104 582 105 583 117 584 104 585 117 586 116 587 105 588 106 589 118 590 105 591 118 592 117 593 106 594 107 595 119 596 106 597 119 598 118 599 107 600 108 601 120 602 107 603 120 604 119 605 108 606 98 607 110 608 108 609 110 610 120 611 110 612 109 613 121 614 110 615 121 616 122 617 109 618 111 619 123 620 109 621 123 622 121 623 111 624 112 625 124 626 111 627 124 628 123 629 112 630 113 631 125 632 112 633 125 634 124 635 113 636 114 637 126 638 113 639 126 640 125 641 114 642 115 643 127 644 114 645 127 646 126 647 115 648 116 649 128 650 115 651 128 652 127 653 116 654 117 655 129 656 116 657 129 658 128 659 117 660 118 661 130 662 117 663 130 664 129 665 118 666 119 667 131 668 118 669 131 670 130 671 119 672 120 673 132 674 119 675 132 676 131 677 120 678 110 679 122 680 120 681 122 682 132 683 122 684 121 685 133 686 122 687 133 688 133 688 121 689 123 690 133 691 121 692 133 693 133 693 123 694 124 695 133 696 123 697 133 698 133 698 124 699 125 700 133 701 124 702 133 703 133 703 125 704 126 705 133 706 125 707 133 708 133 708 126 709 127 710 133 711 126 712 133 713 133 713 127 714 128 715 133 716 127 717 133 718 133 718 128 719 129 720 133 721 128 722 133 723 133 723 129 724 130 725 133 726 129 727 133 728 133 728 130 729 131 730 133 731 130 732 133 733 133 733 131 734 132 735 133 736 131 737 133 738 133 738 132 739 122 740 133 741 132 742 133 743 133 743 0 744 0 744 1 745 0 746 1 747 2 748 0 749 0 749 3 750 0 751 3 752 1 753 0 754 0 754 4 755 0 756 4 757 3 758 0 759 0 759 5 760 0 761 5 762 4 763 0 764 0 764 6 765 0 766 6 767 5 768 0 769 0 769 7 770 0 771 7 772 6 773 0 774 0 774 8 775 0 776 8 777 7 778 0 779 0 779 9 780 0 781 9 782 8 783 0 784 0 784 10 785 0 786 10 787 9 788 0 789 0 789 11 790 0 791 11 792 10 793 0 794 0 794 12 795 0 796 12 797 11 798 0 799 0 799 2 800 0 801 2 802 12 803 2 804 1 805 13 806 2 807 13 808 14 809 1 810 3 811 15 812 1 813 15 814 13 815 3 816 4 817 16 818 3 819 16 820 15 821 4 822 5 823 17 824 4 825 17 826 16 827 5 828 6 829 18 830 5 831 18 832 17 833 6 834 7 835 19 836 6 837 19 838 18 839</p>
                </triangles>
            </mesh>
        </geometry>
    </library_geometries>
    <library_visual_scenes>
        <visual_scene id="Building_200_CROWN2">
            <node>
                <instance_geometry url="#geometry0">
                    <bind_material>
                        <technique_common>
                            <instance_material symbol="default_ai_0.2_sh_0.2_tr_0.0_dc_r_0.8_g_0.8_b_0.8_sc_r_1.0_g_1.0_b_1.0_ec_r_0.0_g_0.0_b_0_tri" target="#default_ai_0.2_sh_0.2_tr_0.0_dc_r_0.8_g_0.8_b_0.8_sc_r_1.0_g_1.0_b_1.0_ec_r_0.0_g_0.0_b_0_mat"/>
                        </technique_common>
                    </bind_material>
                </instance_geometry>
            </node>
        </visual_scene>
    </library_visual_scenes>
    <scene>
        <instance_visual_scene url="#Building_200_CROWN2"/>
    </scene>
</COLLADA>
