<?xml version="1.0" encoding="UTF-8" standalone="yes"?>
<COLLADA xmlns="http://www.collada.org/2005/11/COLLADASchema" version="1.4.1">
    <asset>
        <contributor>
            <authoring_tool>3D City Database Importer/Exporter, version 5.5.3; Chair of Geoinformatics, Technical University of Munich</authoring_tool>
        </contributor>
        <created>2026-09-25T14:45:06.309</created>
        <modified>2026-09-25T14:45:06.309</modified>
        <unit meter="1.0" name="meters"/>
        <up_axis>Z_UP</up_axis>
    </asset>
    <library_materials>
        <material id="default_ai_0.2_sh_0.2_tr_0.0_dc_r_0.8_g_0.8_b_0.8_sc_r_1.0_g_1.0_b_1.0_ec_r_0.0_g_0.0_b_0_mat">
            <instance_effect url="#default_ai_0.2_sh_0.2_tr_0.0_dc_r_0.8_g_0.8_b_0.8_sc_r_1.0_g_1.0_b_1.0_ec_r_0.0_g_0.0_b_0_eff"/>
        </material>
    </library_materials>
    <library_effects>
        <effect id="default_ai_0.2_sh_0.2_tr_0.0_dc_r_0.8_g_0.8_b_0.8_sc_r_1.0_g_1.0_b_1.0_ec_r_0.0_g_0.0_b_0_eff">
            <profile_COMMON>
                <technique sid="COMMON">
                    <lambert>
                        <emission>
                            <color>0.0 0.0 0.0 1.0</color>
                        </emission>
                        <diffuse>
                            <color>0.8 0.8 0.8 1.0</color>
                        </diffuse>
                        <reflective>
                            <color>1.0 1.0 1.0 1.0</color>
                        </reflective>
                        <reflectivity>
                            <float>0.2</float>
                        </reflectivity>
                        <transparent opaque="A_ONE">
                            <color>1.0 1.0 1.0 1.0</color>
                        </transparent>
                        <transparency>
                            <float>1.0</float>
                        </transparency>
                    </lambert>
                </technique>
                <extra>
                    <technique profile="GOOGLEEARTH">
                        <double_sided>0</double_sided>
                    </technique>
                </extra>
            </profile_COMMON>
        </effect>
    </library_effects>
    <library_geometries>
        <geometry id="geometry0">
            <mesh>
                <source id="geometry0-position">
                    <float_array id="geometry0-position-array" count="402">0.0 0.0 0.8 0.0896576 0.051764 0.7863704 0.1035276 0.0 0.7863704 0.051764 0.0896576 0.7863704 0.0 0.1035276 0.7863704 -0.051764 0.0896576 0.7863704 -0.0896576 0.051764 0.7863704 -0.1035276 0.0 0.7863704 -0.0896576 -0.051764 0.7863704 -0.051764 -0.0896576 0.7863704 0.0 -0.1035276 0.7863704 0.051764 -0.0896576 0.7863704 0.0896576 -0.051764 0.7863704 0.1732052 0.1 0.74641 0.2 0.0 0.74641 0.1 0.1732052 0.74641 0.0 0.2 0.74641 -0.1 0.1732052 0.74641 -0.1732052 0.1 0.74641 -0.2 0.0 0.74641 -0.1732052 -0.1 0.74641 -0.1 -0.1732052 0.74641 0.0 -0.2 0.74641 0.1 -0.1732052 0.74641 0.1732052 -0.1 0.74641 0.2449488 0.1414212 0.6828428 0.2828428 0.0 0.6828428 0.1414212 0.2449488 0.6828428 0.0 0.2828428 0.6828428 -0.1414212 0.2449488 0.6828428 -0.2449488 0.1414212 0.6828428 -0.2828428 0.0 0.6828428 -0.2449488 -0.1414212 0.6828428 -0.1414212 -0.2449488 0.6828428 0.0 -0.2828428 0.6828428 0.1414212 -0.2449488 0.6828428 0.2449488 -0.1414212 0.6828428 0.3 0.1732052 0.6 0.34641 0.0 0.6 0.1732052 0.3 0.6 0.0 0.34641 0.6 -0.1732052 0.3 0.6 -0.3 0.1732052 0.6 -0.34641 0.0 0.6 -0.3 -0.1732052 0.6 -0.1732052 -0.3 0.6 0.0 -0.34641 0.6 0.1732052 -0.3 0.6 0.3 -0.1732052 0.6 0.3346064 0.1931852 0.5035276 0.3863704 0.0 0.5035276 0.1931852 0.3346064 0.5035276 0.0 0.3863704 0.5035276 -0.1931852 0.3346064 0.5035276 -0.3346064 0.1931852 0.5035276 -0.3863704 0.0 0.5035276 -0.3346064 -0.1931852 0.5035276 -0.1931852 -0.3346064 0.5035276 0.0 -0.3863704 0.5035276 0.1931852 -0.3346064 0.5035276 0.3346064 -0.1931852 0.5035276 0.34641 0.2 0.4 0.4 0.0 0.4 0.2 0.34641 0.4 0.0 0.4 0.4 -0.2 0.34641 0.4 -0.34641 0.2 0.4 -0.4 0.0 0.4 -0.34641 -0.2 0.4 -0.2 -0.34641 0.4 0.0 -0.4 0.4 0.2 -0.34641 0.4 0.34641 -0.2 0.4 0.3346064 0.1931852 0.2964724 0.3863704 0.0 0.2964724 0.1931852 0.3346064 0.2964724 0.0 0.3863704 0.2964724 -0.1931852 0.3346064 0.2964724 -0.3346064 0.1931852 0.2964724 -0.3863704 0.0 0.2964724 -0.3346064 -0.1931852 0.2964724 -0.1931852 -0.3346064 0.2964724 0.0 -0.3863704 0.2964724 0.1931852 -0.3346064 0.2964724 0.3346064 -0.1931852 0.2964724 0.3 0.1732052 0.2 0.34641 0.0 0.2 0.1732052 0.3 0.2 0.0 0.34641 0.2 -0.1732052 0.3 0.2 -0.3 0.1732052 0.2 -0.34641 0.0 0.2 -0.3 -0.1732052 0.2 -0.1732052 -0.3 0.2 0.0 -0.34641 0.2 0.1732052 -0.3 0.2 0.3 -0.1732052 0.2 0.2449488 0.1414212 0.1171572 0.2828428 0.0 0.1171572 0.1414212 0.2449488 0.1171572 0.0 0.2828428 0.1171572 -0.1414212 0.2449488 0.1171572 -0.2449488 0.1414212 0.1171572 -0.2828428 0.0 0.1171572 -0.2449488 -0.1414212 0.1171572 -0.1414212 -0.2449488 0.1171572 0.0 -0.2828428 0.1171572 0.1414212 -0.2449488 0.1171572 0.2449488 -0.1414212 0.1171572 0.1732052 0.1 0.05359 0.2 0.0 0.05359 0.1 0.1732052 0.05359 0.0 0.2 0.05359 -0.1 0.1732052 0.05359 -0.1732052 0.1 0.05359 -0.2 0.0 0.05359 -0.1732052 -0.1 0.05359 -0.1 -0.1732052 0.05359 0.0 -0.2 0.05359 0.1 -0.1732052 0.05359 0.1732052 -0.1 0.05359 0.0896576 0.051764 0.0136296 0.1035276 0.0 0.0136296 0.051764 0.0896576 0.0136296 0.0 0.1035276 0.0136296 -0.051764 0.0896576 0.0136296 -0.0896576 0.051764 0.0136296 -0.1035276 0.0 0.0136296 -0.0896576 -0.051764 0.0136296 -0.051764 -0.0896576 0.0136296 0.0 -0.1035276 0.0136296 0.051764 -0.0896576 0.0136296 0.0896576 -0.051764 0.0136296 0.0 0.0 0.0</float_array>
                    <technique_common>
                        <accessor count="134" source="#geometry0-position-array" stride="3">
                            <param name="X" type="float"/>
                            <param name="Y" type="float"/>
                            <param name="Z" type="float"/>
                        </accessor>
                    </technique_common>
                </source>
                <source id="geometry0-normal">
                    <float_array id="geometry0-normal-array" count="2520">0.0954928 -0.0954928 0.9908392 0.0954928 -0.0954928 0.9908392 0.0954928 -0.0954928 0.9908392 1.0 0.0 0.0 1.0 0.0 0.0 0.1304458 -0.0349525 0.9908391 0.1304458 -0.0349525 0.9908391 0.1304458 -0.0349525 0.9908391 1.0 0.0 0.0 1.0 0.0 0.0 0.1304458 0.0349525 0.9908391 0.1304458 0.0349525 0.9908391 0.1304458 0.0349525 0.9908391 1.0 0.0 0.0 1.0 0.0 0.0 0.0954928 0.0954928 0.9908392 0.0954928 0.0954928 0.9908392 0.0954928 0.0954928 0.9908392 1.0 0.0 0.0 1.0 0.0 0.0 0.0349525 0.1304458 0.9908391 0.0349525 0.1304458 0.9908391 0.0349525 0.1304458 0.9908391 1.0 0.0 0.0 1.0 0.0 0.0 -0.0349525 0.1304458 0.9908391 -0.0349525 0.1304458 0.9908391 -0.0349525 0.1304458 0.9908391 1.0 0.0 0.0 1.0 0.0 0.0 -0.0954928 0.0954928 0.9908392 -0.0954928 0.0954928 0.9908392 -0.0954928 0.0954928 0.9908392 1.0 0.0 0.0 1.0 0.0 0.0 -0.1304458 0.0349525 0.9908391 -0.1304458 0.0349525 0.9908391 -0.1304458 0.0349525 0.9908391 1.0 0.0 0.0 1.0 0.0 0.0 1.0 0.0 0.0 1.0 0.0 0.0 -0.1304459 -0.0349526 -0.9908391 -0.1304459 -0.0349526 -0.9908391 -0.1304459 -0.0349526 -0.9908391 1.0 0.0 0.0 1.0 0.0 0.0 -0.0954929 -0.0954929 -0.9908391 -0.0954929 -0.0954929 -0.9908391 -0.0954929 -0.0954929 -0.9908391 1.0 0.0 0.0 1.0 0.0 0.0 -0.0349526 -0.130446 -0.9908391 -0.0349526 -0.130446 -0.9908391 -0.0349526 -0.130446 -0.9908391 1.0 0.0 0.0 1.0 0.0 0.0 0.0349526 -0.1304459 -0.9908391 0.0349526 -0.1304459 -0.9908391 0.0349526 -0.1304459 -0.9908391 1.0 0.0 0.0 1.0 0.0 0.0 0.0954929 -0.0954929 -0.9908391 0.0954929 -0.0954929 -0.9908391 0.0954929 -0.0954929 -0.9908391 1.0 0.0 0.0 1.0 0.0 0.0 0.130446 -0.0349526 -0.9908391 0.130446 -0.0349526 -0.9908391 0.130446 -0.0349526 -0.9908391 1.0 0.0 0.0 1.0 0.0 0.0 0.1304459 0.0349526 -0.9908391 0.1304459 0.0349526 -0.9908391 0.1304459 0.0349526 -0.9908391 1.0 0.0 0.0 1.0 0.0 0.0 0.0954929 0.0954929 -0.9908391 0.0954929 0.0954929 -0.9908391 0.0954929 0.0954929 -0.9908391 1.0 0.0 0.0 1.0 0.0 0.0 0.0349526 0.130446 -0.9908391 0.0349526 0.130446 -0.9908391 0.0349526 0.130446 -0.9908391 1.0 0.0 0.0 1.0 0.0 0.0 -0.0349526 0.1304459 -0.9908391 -0.0349526 0.1304459 -0.9908391 -0.0349526 0.1304459 -0.9908391 1.0 0.0 0.0 1.0 0.0 0.0 -0.0954929 0.0954929 -0.9908391 -0.0954929 0.0954929 -0.9908391 -0.0954929 0.0954929 -0.9908391 1.0 0.0 0.0 1.0 0.0 0.0 -0.130446 0.0349526 -0.9908391 -0.130446 0.0349526 -0.9908391 -0.130446 0.0349526 -0.9908391 -0.3806894 -0.1020045 -0.9190596 -0.3806894 -0.1020045 -0.9190596 -0.3806894 -0.1020045 -0.9190596 -0.380689 -0.1020049 -0.9190598 -0.380689 -0.1020049 -0.9190598 -0.380689 -0.1020049 -0.9190598 -0.278684 -0.278684 -0.9190596 -0.278684 -0.278684 -0.9190596 -0.278684 -0.278684 -0.9190596 -0.2786839 -0.2786839 -0.9190596 -0.2786839 -0.2786839 -0.9190596 -0.2786839 -0.2786839 -0.9190596 -0.1020044 -0.380689 -0.9190598 -0.1020044 -0.380689 -0.9190598 -0.1020044 -0.380689 -0.9190598 -0.1020049 -0.3806892 -0.9190597 -0.1020049 -0.3806892 -0.9190597 -0.1020049 -0.3806892 -0.9190597 0.1020045 -0.3806894 -0.9190596 0.1020045 -0.3806894 -0.9190596 0.1020045 -0.3806894 -0.9190596 0.1020049 -0.380689 -0.9190598 0.1020049 -0.380689 -0.9190598 0.1020049 -0.380689 -0.9190598 0.278684 -0.278684 -0.9190596 0.278684 -0.278684 -0.9190596 0.278684 -0.278684 -0.9190596 0.2786839 -0.2786839 -0.9190596 0.2786839 -0.2786839 -0.9190596 0.2786839 -0.2786839 -0.9190596 0.380689 -0.1020044 -0.9190598 0.380689 -0.1020044 -0.9190598 0.380689 -0.1020044 -0.9190598 0.3806892 -0.1020049 -0.9190597 0.3806892 -0.1020049 -0.9190597 0.3806892 -0.1020049 -0.9190597 0.3806894 0.1020045 -0.9190596 0.3806894 0.1020045 -0.9190596 0.3806894 0.1020045 -0.9190596 0.380689 0.1020049 -0.9190598 0.380689 0.1020049 -0.9190598 0.380689 0.1020049 -0.9190598 0.278684 0.278684 -0.9190596 0.278684 0.278684 -0.9190596 0.278684 0.278684 -0.9190596 0.2786839 0.2786839 -0.9190596 0.2786839 0.2786839 -0.9190596 0.2786839 0.2786839 -0.9190596 0.1020044 0.380689 -0.9190598 0.1020044 0.380689 -0.9190598 0.1020044 0.380689 -0.9190598 0.1020049 0.3806892 -0.9190597 0.1020049 0.3806892 -0.9190597 0.1020049 0.3806892 -0.9190597 -0.1020045 0.3806894 -0.9190596 -0.1020045 0.3806894 -0.9190596 -0.1020045 0.3806894 -0.9190596 -0.1020049 0.380689 -0.9190598 -0.1020049 0.380689 -0.9190598 -0.1020049 0.380689 -0.9190598 -0.278684 0.278684 -0.9190596 -0.278684 0.278684 -0.9190596 -0.278684 0.278684 -0.9190596 -0.2786839 0.2786839 -0.9190596 -0.2786839 0.2786839 -0.9190596 -0.2786839 0.2786839 -0.9190596 -0.380689 0.1020044 -0.9190598 -0.380689 0.1020044 -0.9190598 -0.380689 0.1020044 -0.9190598 -0.3806892 0.1020049 -0.9190597 -0.3806892 0.1020049 -0.9190597 -0.3806892 0.1020049 -0.9190597 -0.6008213 -0.1609889 -0.7830048 -0.6008213 -0.1609889 -0.7830048 -0.6008213 -0.1609889 -0.7830048 -0.6008189 -0.1609903 -0.7830062 -0.6008189 -0.1609903 -0.7830062 -0.6008189 -0.1609903 -0.7830062 -0.4398315 -0.4398315 -0.7830048 -0.4398315 -0.4398315 -0.7830048 -0.4398315 -0.4398315 -0.7830048 -0.4398315 -0.4398315 -0.7830049 -0.4398315 -0.4398315 -0.7830049 -0.4398315 -0.4398315 -0.7830049 -0.1609883 -0.6008191 -0.7830064 -0.1609883 -0.6008191 -0.7830064 -0.1609883 -0.6008191 -0.7830064 -0.1609907 -0.6008204 -0.783005 -0.1609907 -0.6008204 -0.783005 -0.1609907 -0.6008204 -0.783005 0.1609889 -0.6008213 -0.7830048 0.1609889 -0.6008213 -0.7830048 0.1609889 -0.6008213 -0.7830048 0.1609903 -0.6008189 -0.7830062 0.1609903 -0.6008189 -0.7830062 0.1609903 -0.6008189 -0.7830062 0.4398315 -0.4398315 -0.7830048 0.4398315 -0.4398315 -0.7830048 0.4398315 -0.4398315 -0.7830048 0.4398315 -0.4398315 -0.7830049 0.4398315 -0.4398315 -0.7830049 0.4398315 -0.4398315 -0.7830049 0.6008191 -0.1609883 -0.7830064 0.6008191 -0.1609883 -0.7830064 0.6008191 -0.1609883 -0.7830064 0.6008204 -0.1609907 -0.783005 0.6008204 -0.1609907 -0.783005 0.6008204 -0.1609907 -0.783005 0.6008213 0.1609889 -0.7830048 0.6008213 0.1609889 -0.7830048 0.6008213 0.1609889 -0.7830048 0.6008189 0.1609903 -0.7830062 0.6008189 0.1609903 -0.7830062 0.6008189 0.1609903 -0.7830062 0.4398315 0.4398315 -0.7830048 0.4398315 0.4398315 -0.7830048 0.4398315 0.4398315 -0.7830048 0.4398315 0.4398315 -0.7830049 0.4398315 0.4398315 -0.7830049 0.4398315 0.4398315 -0.7830049 0.1609883 0.6008191 -0.7830064 0.1609883 0.6008191 -0.7830064 0.1609883 0.6008191 -0.7830064 0.1609907 0.6008204 -0.783005 0.1609907 0.6008204 -0.783005 0.1609907 0.6008204 -0.783005 -0.1609889 0.6008213 -0.7830048 -0.1609889 0.6008213 -0.7830048 -0.1609889 0.6008213 -0.7830048 -0.1609903 0.6008189 -0.7830062 -0.1609903 0.6008189 -0.7830062 -0.1609903 0.6008189 -0.7830062 -0.4398315 0.4398315 -0.7830048 -0.4398315 0.4398315 -0.7830048 -0.4398315 0.4398315 -0.7830048 -0.4398315 0.4398315 -0.7830049 -0.4398315 0.4398315 -0.7830049 -0.4398315 0.4398315 -0.7830049 -0.6008191 0.1609883 -0.7830064 -0.6008191 0.1609883 -0.7830064 -0.6008191 0.1609883 -0.7830064 -0.6008204 0.1609907 -0.783005 -0.6008204 0.1609907 -0.783005 -0.6008204 0.1609907 -0.783005 -0.7760118 -0.2079335 -0.5954574 -0.7760118 -0.2079335 -0.5954574 -0.7760118 -0.2079335 -0.5954574 -0.7760146 -0.2079316 -0.5954542 -0.7760146 -0.2079316 -0.5954542 -0.7760146 -0.2079316 -0.5954542 -0.5680802 -0.5680802 -0.5954577 -0.5680802 -0.5680802 -0.5954577 -0.5680802 -0.5680802 -0.5954577 -0.5680802 -0.5680802 -0.5954577 -0.5680802 -0.5680802 -0.5954577 -0.5680802 -0.5680802 -0.5954577 -0.2079341 -0.7760143 -0.5954539 -0.2079341 -0.7760143 -0.5954539 -0.2079341 -0.7760143 -0.5954539 -0.2079311 -0.7760127 -0.5954571 -0.2079311 -0.7760127 -0.5954571 -0.2079311 -0.7760127 -0.5954571 0.2079335 -0.7760118 -0.5954574 0.2079335 -0.7760118 -0.5954574 0.2079335 -0.7760118 -0.5954574 0.2079316 -0.7760146 -0.5954542 0.2079316 -0.7760146 -0.5954542 0.2079316 -0.7760146 -0.5954542 0.5680802 -0.5680802 -0.5954577 0.5680802 -0.5680802 -0.5954577 0.5680802 -0.5680802 -0.5954577 0.5680802 -0.5680802 -0.5954577 0.5680802 -0.5680802 -0.5954577 0.5680802 -0.5680802 -0.5954577 0.7760143 -0.2079341 -0.5954539 0.7760143 -0.2079341 -0.5954539 0.7760143 -0.2079341 -0.5954539 0.7760127 -0.2079311 -0.5954571 0.7760127 -0.2079311 -0.5954571 0.7760127 -0.2079311 -0.5954571 0.7760118 0.2079335 -0.5954574 0.7760118 0.2079335 -0.5954574 0.7760118 0.2079335 -0.5954574 0.7760146 0.2079316 -0.5954542 0.7760146 0.2079316 -0.5954542 0.7760146 0.2079316 -0.5954542 0.5680802 0.5680802 -0.5954577 0.5680802 0.5680802 -0.5954577 0.5680802 0.5680802 -0.5954577 0.5680802 0.5680802 -0.5954577 0.5680802 0.5680802 -0.5954577 0.5680802 0.5680802 -0.5954577 0.2079341 0.7760143 -0.5954539 0.2079341 0.7760143 -0.5954539 0.2079341 0.7760143 -0.5954539 0.2079311 0.7760127 -0.5954571 0.2079311 0.7760127 -0.5954571 0.2079311 0.7760127 -0.5954571 -0.2079335 0.7760118 -0.5954574 -0.2079335 0.7760118 -0.5954574 -0.2079335 0.7760118 -0.5954574 -0.2079316 0.7760146 -0.5954542 -0.2079316 0.7760146 -0.5954542 -0.2079316 0.7760146 -0.5954542 -0.5680802 0.5680802 -0.5954577 -0.5680802 0.5680802 -0.5954577 -0.5680802 0.5680802 -0.5954577 -0.5680802 0.5680802 -0.5954577 -0.5680802 0.5680802 -0.5954577 -0.5680802 0.5680802 -0.5954577 -0.7760143 0.2079341 -0.5954539 -0.7760143 0.2079341 -0.5954539 -0.7760143 0.2079341 -0.5954539 -0.7760127 0.2079311 -0.5954571 -0.7760127 0.2079311 -0.5954571 -0.7760127 0.2079311 -0.5954571 -0.8968096 -0.2402984 -0.3714689 -0.8968096 -0.2402984 -0.3714689 -0.8968096 -0.2402984 -0.3714689 -0.896808 -0.2402997 -0.3714719 -0.896808 -0.2402997 -0.3714719 -0.896808 -0.2402997 -0.3714719 -0.65651 -0.65651 -0.3714689 -0.65651 -0.65651 -0.3714689 -0.65651 -0.65651 -0.3714689 -0.65651 -0.65651 -0.371469 -0.65651 -0.65651 -0.371469 -0.65651 -0.65651 -0.371469 -0.240298 -0.8968084 -0.371472 -0.240298 -0.8968084 -0.371472 -0.240298 -0.8968084 -0.371472 -0.2403001 -0.8968092 -0.3714691 -0.2403001 -0.8968092 -0.3714691 -0.2403001 -0.8968092 -0.3714691 0.2402984 -0.8968096 -0.3714689 0.2402984 -0.8968096 -0.3714689 0.2402984 -0.8968096 -0.3714689 0.2402997 -0.896808 -0.3714719 0.2402997 -0.896808 -0.3714719 0.2402997 -0.896808 -0.3714719 0.65651 -0.65651 -0.3714689 0.65651 -0.65651 -0.3714689 0.65651 -0.65651 -0.3714689 0.65651 -0.65651 -0.371469 0.65651 -0.65651 -0.371469 0.65651 -0.65651 -0.371469 0.8968084 -0.240298 -0.371472 0.8968084 -0.240298 -0.371472 0.8968084 -0.240298 -0.371472 0.8968092 -0.2403001 -0.3714691 0.8968092 -0.2403001 -0.3714691 0.8968092 -0.2403001 -0.3714691 0.8968096 0.2402984 -0.3714689 0.8968096 0.2402984 -0.3714689 0.8968096 0.2402984 -0.3714689 0.896808 0.2402997 -0.3714719 0.896808 0.2402997 -0.3714719 0.896808 0.2402997 -0.3714719 0.65651 0.65651 -0.3714689 0.65651 0.65651 -0.3714689 0.65651 0.65651 -0.3714689 0.65651 0.65651 -0.371469 0.65651 0.65651 -0.371469 0.65651 0.65651 -0.371469 0.240298 0.8968084 -0.371472 0.240298 0.8968084 -0.371472 0.240298 0.8968084 -0.371472 0.2403001 0.8968092 -0.3714691 0.2403001 0.8968092 -0.3714691 0.2403001 0.8968092 -0.3714691 -0.2402984 0.8968096 -0.3714689 -0.2402984 0.8968096 -0.3714689 -0.2402984 0.8968096 -0.3714689 -0.2402997 0.896808 -0.3714719 -0.2402997 0.896808 -0.3714719 -0.2402997 0.896808 -0.3714719 -0.65651 0.65651 -0.3714689 -0.65651 0.65651 -0.3714689 -0.65651 0.65651 -0.3714689 -0.65651 0.65651 -0.371469 -0.65651 0.65651 -0.371469 -0.65651 0.65651 -0.371469 -0.8968084 0.240298 -0.371472 -0.8968084 0.240298 -0.371472 -0.8968084 0.240298 -0.371472 -0.8968092 0.2403001 -0.3714691 -0.8968092 0.2403001 -0.3714691 -0.8968092 0.2403001 -0.3714691 -0.958209 -0.2567521 -0.1261502 -0.958209 -0.2567521 -0.1261502 -0.958209 -0.2567521 -0.1261502 -0.958209 -0.2567521 -0.1261502 -0.958209 -0.2567521 -0.1261502 -0.958209 -0.2567521 -0.1261502 -0.7014578 -0.7014578 -0.1261502 -0.7014578 -0.7014578 -0.1261502 -0.7014578 -0.7014578 -0.1261502 -0.7014578 -0.7014578 -0.1261502 -0.7014578 -0.7014578 -0.1261502 -0.7014578 -0.7014578 -0.1261502 -0.2567521 -0.958209 -0.1261501 -0.2567521 -0.958209 -0.1261501 -0.2567521 -0.958209 -0.1261501 -0.2567521 -0.9582091 -0.1261502 -0.2567521 -0.9582091 -0.1261502 -0.2567521 -0.9582091 -0.1261502 0.2567521 -0.958209 -0.1261502 0.2567521 -0.958209 -0.1261502 0.2567521 -0.958209 -0.1261502 0.2567521 -0.958209 -0.1261502 0.2567521 -0.958209 -0.1261502 0.2567521 -0.958209 -0.1261502 0.7014578 -0.7014578 -0.1261502 0.7014578 -0.7014578 -0.1261502 0.7014578 -0.7014578 -0.1261502 0.7014578 -0.7014578 -0.1261502 0.7014578 -0.7014578 -0.1261502 0.7014578 -0.7014578 -0.1261502 0.958209 -0.2567521 -0.1261501 0.958209 -0.2567521 -0.1261501 0.958209 -0.2567521 -0.1261501 0.9582091 -0.2567521 -0.1261502 0.9582091 -0.2567521 -0.1261502 0.9582091 -0.2567521 -0.1261502 0.958209 0.2567521 -0.1261502 0.958209 0.2567521 -0.1261502 0.958209 0.2567521 -0.1261502 0.958209 0.2567521 -0.1261502 0.958209 0.2567521 -0.1261502 0.958209 0.2567521 -0.1261502 0.7014578 0.7014578 -0.1261502 0.7014578 0.7014578 -0.1261502 0.7014578 0.7014578 -0.1261502 0.7014578 0.7014578 -0.1261502 0.7014578 0.7014578 -0.1261502 0.7014578 0.7014578 -0.1261502 0.2567521 0.958209 -0.1261501 0.2567521 0.958209 -0.1261501 0.2567521 0.958209 -0.1261501 0.2567521 0.9582091 -0.1261502 0.2567521 0.9582091 -0.1261502 0.2567521 0.9582091 -0.1261502 -0.2567521 0.958209 -0.1261502 -0.2567521 0.958209 -0.1261502 -0.2567521 0.958209 -0.1261502 -0.2567521 0.958209 -0.1261502 -0.2567521 0.958209 -0.1261502 -0.2567521 0.958209 -0.1261502 -0.7014578 0.7014578 -0.1261502 -0.7014578 0.7014578 -0.1261502 -0.7014578 0.7014578 -0.1261502 -0.7014578 0.7014578 -0.1261502 -0.7014578 0.7014578 -0.1261502 -0.7014578 0.7014578 -0.1261502 -0.958209 0.2567521 -0.1261501 -0.958209 0.2567521 -0.1261501 -0.958209 0.2567521 -0.1261501 -0.9582091 0.2567521 -0.1261502 -0.9582091 0.2567521 -0.1261502 -0.9582091 0.2567521 -0.1261502 -0.958209 -0.2567521 0.1261502 -0.958209 -0.2567521 0.1261502 -0.958209 -0.2567521 0.1261502 -0.958209 -0.2567521 0.1261501 -0.958209 -0.2567521 0.1261501 -0.958209 -0.2567521 0.1261501 -0.7014578 -0.7014578 0.1261502 -0.7014578 -0.7014578 0.1261502 -0.7014578 -0.7014578 0.1261502 -0.7014578 -0.7014578 0.1261501 -0.7014578 -0.7014578 0.1261501 -0.7014578 -0.7014578 0.1261501 -0.2567521 -0.958209 0.1261501 -0.2567521 -0.958209 0.1261501 -0.2567521 -0.958209 0.1261501 -0.2567521 -0.958209 0.1261502 -0.2567521 -0.958209 0.1261502 -0.2567521 -0.958209 0.1261502 0.2567521 -0.958209 0.1261502 0.2567521 -0.958209 0.1261502 0.2567521 -0.958209 0.1261502 0.2567521 -0.958209 0.1261501 0.2567521 -0.958209 0.1261501 0.2567521 -0.958209 0.1261501 0.7014578 -0.7014578 0.1261502 0.7014578 -0.7014578 0.1261502 0.7014578 -0.7014578 0.1261502 0.7014578 -0.7014578 0.1261501 0.7014578 -0.7014578 0.1261501 0.7014578 -0.7014578 0.1261501 0.958209 -0.2567521 0.1261501 0.958209 -0.2567521 0.1261501 0.958209 -0.2567521 0.1261501 0.958209 -0.2567521 0.1261502 0.958209 -0.2567521 0.1261502 0.958209 -0.2567521 0.1261502 0.958209 0.2567521 0.1261502 0.958209 0.2567521 0.1261502 0.958209 0.2567521 0.1261502 0.958209 0.2567521 0.1261501 0.958209 0.2567521 0.1261501 0.958209 0.2567521 0.1261501 0.7014578 0.7014578 0.1261502 0.7014578 0.7014578 0.1261502 0.7014578 0.7014578 0.1261502 0.7014578 0.7014578 0.1261501 0.7014578 0.7014578 0.1261501 0.7014578 0.7014578 0.1261501 0.2567521 0.958209 0.1261501 0.2567521 0.958209 0.1261501 0.2567521 0.958209 0.1261501 0.2567521 0.958209 0.1261502 0.2567521 0.958209 0.1261502 0.2567521 0.958209 0.1261502 -0.2567521 0.958209 0.1261502 -0.2567521 0.958209 0.1261502 -0.2567521 0.958209 0.1261502 -0.2567521 0.958209 0.1261501 -0.2567521 0.958209 0.1261501 -0.2567521 0.958209 0.1261501 -0.7014578 0.7014578 0.1261502 -0.7014578 0.7014578 0.1261502 -0.7014578 0.7014578 0.1261502 -0.7014578 0.7014578 0.1261501 -0.7014578 0.7014578 0.1261501 -0.7014578 0.7014578 0.1261501 -0.958209 0.2567521 0.1261501 -0.958209 0.2567521 0.1261501 -0.958209 0.2567521 0.1261501 -0.958209 0.2567521 0.1261502 -0.958209 0.2567521 0.1261502 -0.958209 0.2567521 0.1261502 -0.8968092 -0.2403 0.3714692 -0.8968092 -0.2403 0.3714692 -0.8968092 -0.2403 0.3714692 -0.8968084 -0.240298 0.3714721 -0.8968084 -0.240298 0.3714721 -0.8968084 -0.240298 0.3714721 -0.65651 -0.65651 0.3714691 -0.65651 -0.65651 0.3714691 -0.65651 -0.65651 0.3714691 -0.65651 -0.65651 0.3714691 -0.65651 -0.65651 0.3714691 -0.65651 -0.65651 0.3714691 -0.2402997 -0.896808 0.371472 -0.2402997 -0.896808 0.371472 -0.2402997 -0.896808 0.371472 -0.2402984 -0.8968096 0.371469 -0.2402984 -0.8968096 0.371469 -0.2402984 -0.8968096 0.371469 0.2403 -0.8968092 0.3714692 0.2403 -0.8968092 0.3714692 0.2403 -0.8968092 0.3714692 0.240298 -0.8968084 0.3714721 0.240298 -0.8968084 0.3714721 0.240298 -0.8968084 0.3714721 0.65651 -0.65651 0.3714691 0.65651 -0.65651 0.3714691 0.65651 -0.65651 0.3714691 0.65651 -0.65651 0.3714691 0.65651 -0.65651 0.3714691 0.65651 -0.65651 0.3714691 0.896808 -0.2402997 0.371472 0.896808 -0.2402997 0.371472 0.896808 -0.2402997 0.371472 0.8968096 -0.2402984 0.371469 0.8968096 -0.2402984 0.371469 0.8968096 -0.2402984 0.371469 0.8968092 0.2403 0.3714692 0.8968092 0.2403 0.3714692 0.8968092 0.2403 0.3714692 0.8968084 0.240298 0.3714721 0.8968084 0.240298 0.3714721 0.8968084 0.240298 0.3714721 0.65651 0.65651 0.3714691 0.65651 0.65651 0.3714691 0.65651 0.65651 0.3714691 0.65651 0.65651 0.3714691 0.65651 0.65651 0.3714691 0.65651 0.65651 0.3714691 0.2402997 0.896808 0.371472 0.2402997 0.896808 0.371472 0.2402997 0.896808 0.371472 0.2402984 0.8968096 0.371469 0.2402984 0.8968096 0.371469 0.2402984 0.8968096 0.371469 -0.2403 0.8968092 0.3714692 -0.2403 0.8968092 0.3714692 -0.2403 0.8968092 0.3714692 -0.240298 0.8968084 0.3714721 -0.240298 0.8968084 0.3714721 -0.240298 0.8968084 0.3714721 -0.65651 0.65651 0.3714691 -0.65651 0.65651 0.3714691 -0.65651 0.65651 0.3714691 -0.65651 0.65651 0.3714691 -0.65651 0.65651 0.3714691 -0.65651 0.65651 0.3714691 -0.896808 0.2402997 0.371472 -0.896808 0.2402997 0.371472 -0.896808 0.2402997 0.371472 -0.8968096 0.2402984 0.371469 -0.8968096 0.2402984 0.371469 -0.8968096 0.2402984 0.371469 -0.7760127 -0.2079311 0.5954569 -0.7760127 -0.2079311 0.5954569 -0.7760127 -0.2079311 0.5954569 -0.7760144 -0.2079341 0.5954537 -0.7760144 -0.2079341 0.5954537 -0.7760144 -0.2079341 0.5954537 -0.5680803 -0.5680803 0.5954575 -0.5680803 -0.5680803 0.5954575 -0.5680803 -0.5680803 0.5954575 -0.5680802 -0.5680802 0.5954576 -0.5680802 -0.5680802 0.5954576 -0.5680802 -0.5680802 0.5954576 -0.2079316 -0.7760147 0.595454 -0.2079316 -0.7760147 0.595454 -0.2079316 -0.7760147 0.595454 -0.2079335 -0.7760118 0.5954572 -0.2079335 -0.7760118 0.5954572 -0.2079335 -0.7760118 0.5954572 0.2079311 -0.7760127 0.5954569 0.2079311 -0.7760127 0.5954569 0.2079311 -0.7760127 0.5954569 0.2079341 -0.7760144 0.5954537 0.2079341 -0.7760144 0.5954537 0.2079341 -0.7760144 0.5954537 0.5680803 -0.5680803 0.5954575 0.5680803 -0.5680803 0.5954575 0.5680803 -0.5680803 0.5954575 0.5680802 -0.5680802 0.5954576 0.5680802 -0.5680802 0.5954576 0.5680802 -0.5680802 0.5954576 0.7760147 -0.2079316 0.595454 0.7760147 -0.2079316 0.595454 0.7760147 -0.2079316 0.595454 0.7760118 -0.2079335 0.5954572 0.7760118 -0.2079335 0.5954572 0.7760118 -0.2079335 0.5954572 0.7760127 0.2079311 0.5954569 0.7760127 0.2079311 0.5954569 0.7760127 0.2079311 0.5954569 0.7760144 0.2079341 0.5954537 0.7760144 0.2079341 0.5954537 0.7760144 0.2079341 0.5954537 0.5680803 0.5680803 0.5954575 0.5680803 0.5680803 0.5954575 0.5680803 0.5680803 0.5954575 0.5680802 0.5680802 0.5954576 0.5680802 0.5680802 0.5954576 0.5680802 0.5680802 0.5954576 0.2079316 0.7760147 0.595454 0.2079316 0.7760147 0.595454 0.2079316 0.7760147 0.595454 0.2079335 0.7760118 0.5954572 0.2079335 0.7760118 0.5954572 0.2079335 0.7760118 0.5954572 -0.2079311 0.7760127 0.5954569 -0.2079311 0.7760127 0.5954569 -0.2079311 0.7760127 0.5954569 -0.2079341 0.7760144 0.5954537 -0.2079341 0.7760144 0.5954537 -0.2079341 0.7760144 0.5954537 -0.5680803 0.5680803 0.5954575 -0.5680803 0.5680803 0.5954575 -0.5680803 0.5680803 0.5954575 -0.5680802 0.5680802 0.5954576 -0.5680802 0.5680802 0.5954576 -0.5680802 0.5680802 0.5954576 -0.7760147 0.2079316 0.595454 -0.7760147 0.2079316 0.595454 -0.7760147 0.2079316 0.595454 -0.7760118 0.2079335 0.5954572 -0.7760118 0.2079335 0.5954572 -0.7760118 0.2079335 0.5954572 -0.6008203 -0.1609906 0.7830051 -0.6008203 -0.1609906 0.7830051 -0.6008203 -0.1609906 0.7830051 -0.6008189 -0.1609883 0.7830066 -0.6008189 -0.1609883 0.7830066 -0.6008189 -0.1609883 0.7830066 -0.4398314 -0.4398314 0.7830049 -0.4398314 -0.4398314 0.7830049 -0.4398314 -0.4398314 0.7830049 -0.4398313 -0.4398313 0.783005 -0.4398313 -0.4398313 0.783005 -0.4398313 -0.4398313 0.783005 -0.1609902 -0.6008188 0.7830063 -0.1609902 -0.6008188 0.7830063 -0.1609902 -0.6008188 0.7830063 -0.1609889 -0.6008211 0.7830049 -0.1609889 -0.6008211 0.7830049 -0.1609889 -0.6008211 0.7830049 0.1609906 -0.6008203 0.7830051 0.1609906 -0.6008203 0.7830051 0.1609906 -0.6008203 0.7830051 0.1609883 -0.6008189 0.7830066 0.1609883 -0.6008189 0.7830066 0.1609883 -0.6008189 0.7830066 0.4398314 -0.4398314 0.7830049 0.4398314 -0.4398314 0.7830049 0.4398314 -0.4398314 0.7830049 0.4398313 -0.4398313 0.783005 0.4398313 -0.4398313 0.783005 0.4398313 -0.4398313 0.783005 0.6008188 -0.1609902 0.7830063 0.6008188 -0.1609902 0.7830063 0.6008188 -0.1609902 0.7830063 0.6008211 -0.1609889 0.7830049 0.6008211 -0.1609889 0.7830049 0.6008211 -0.1609889 0.7830049 0.6008203 0.1609906 0.7830051 0.6008203 0.1609906 0.7830051 0.6008203 0.1609906 0.7830051 0.6008189 0.1609883 0.7830066 0.6008189 0.1609883 0.7830066 0.6008189 0.1609883 0.7830066 0.4398314 0.4398314 0.7830049 0.4398314 0.4398314 0.7830049 0.4398314 0.4398314 0.7830049 0.4398313 0.4398313 0.783005 0.4398313 0.4398313 0.783005 0.4398313 0.4398313 0.783005 0.1609902 0.6008188 0.7830063 0.1609902 0.6008188 0.7830063 0.1609902 0.6008188 0.7830063 0.1609889 0.6008211 0.7830049 0.1609889 0.6008211 0.7830049 0.1609889 0.6008211 0.7830049 -0.1609906 0.6008203 0.7830051 -0.1609906 0.6008203 0.7830051 -0.1609906 0.6008203 0.7830051 -0.1609883 0.6008189 0.7830066 -0.1609883 0.6008189 0.7830066 -0.1609883 0.6008189 0.7830066 -0.4398314 0.4398314 0.7830049 -0.4398314 0.4398314 0.7830049 -0.4398314 0.4398314 0.7830049 -0.4398313 0.4398313 0.783005 -0.4398313 0.4398313 0.783005 -0.4398313 0.4398313 0.783005 -0.6008188 0.1609902 0.7830063 -0.6008188 0.1609902 0.7830063 -0.6008188 0.1609902 0.7830063 -0.6008211 0.1609889 0.7830049 -0.6008211 0.1609889 0.7830049 -0.6008211 0.1609889 0.7830049 -0.3806893 -0.102005 0.9190596 -0.3806893 -0.102005 0.9190596 -0.3806893 -0.102005 0.9190596 -0.3806892 -0.1020045 0.9190598 -0.3806892 -0.1020045 0.9190598 -0.3806892 -0.1020045 0.9190598 -0.278684 -0.278684 0.9190595 -0.278684 -0.278684 0.9190595 -0.278684 -0.278684 0.9190595 -0.278684 -0.278684 0.9190595 -0.278684 -0.278684 0.9190595 -0.278684 -0.278684 0.9190595 -0.1020049 -0.3806891 0.9190597 -0.1020049 -0.3806891 0.9190597 -0.1020049 -0.3806891 0.9190597 -0.1020046 -0.3806895 0.9190596 -0.1020046 -0.3806895 0.9190596 -0.1020046 -0.3806895 0.9190596 0.102005 -0.3806893 0.9190596 0.102005 -0.3806893 0.9190596 0.102005 -0.3806893 0.9190596 0.1020045 -0.3806892 0.9190598 0.1020045 -0.3806892 0.9190598 0.1020045 -0.3806892 0.9190598 0.278684 -0.278684 0.9190595 0.278684 -0.278684 0.9190595 0.278684 -0.278684 0.9190595 0.278684 -0.278684 0.9190595 0.278684 -0.278684 0.9190595 0.278684 -0.278684 0.9190595 0.3806891 -0.1020049 0.9190597 0.3806891 -0.1020049 0.9190597 0.3806891 -0.1020049 0.9190597 0.3806895 -0.1020046 0.9190596 0.3806895 -0.1020046 0.9190596 0.3806895 -0.1020046 0.9190596 0.3806893 0.102005 0.9190596 0.3806893 0.102005 0.9190596 0.3806893 0.102005 0.9190596 0.3806892 0.1020045 0.9190598 0.3806892 0.1020045 0.9190598 0.3806892 0.1020045 0.9190598 0.278684 0.278684 0.9190595 0.278684 0.278684 0.9190595 0.278684 0.278684 0.9190595 0.278684 0.278684 0.9190595 0.278684 0.278684 0.9190595 0.278684 0.278684 0.9190595 0.1020049 0.3806891 0.9190597 0.1020049 0.3806891 0.9190597 0.1020049 0.3806891 0.9190597 0.1020046 0.3806895 0.9190596 0.1020046 0.3806895 0.9190596 0.1020046 0.3806895 0.9190596 -0.102005 0.3806893 0.9190596 -0.102005 0.3806893 0.9190596 -0.102005 0.3806893 0.9190596 -0.1020045 0.3806892 0.9190598 -0.1020045 0.3806892 0.9190598 -0.1020045 0.3806892 0.9190598 -0.278684 0.278684 0.9190595 -0.278684 0.278684 0.9190595 -0.278684 0.278684 0.9190595 -0.278684 0.278684 0.9190595 -0.278684 0.278684 0.9190595 -0.278684 0.278684 0.9190595 -0.3806891 0.1020049 0.9190597 -0.3806891 0.1020049 0.9190597 -0.3806891 0.1020049 0.9190597 -0.3806895 0.1020046 0.9190596 -0.3806895 0.1020046 0.9190596 -0.3806895 0.1020046 0.9190596 -0.1304458 -0.0349525 0.9908391 -0.1304458 -0.0349525 0.9908391 -0.1304458 -0.0349525 0.9908391 1.0 0.0 0.0 1.0 0.0 0.0 -0.0954928 -0.0954928 0.9908392 -0.0954928 -0.0954928 0.9908392 -0.0954928 -0.0954928 0.9908392 1.0 0.0 0.0 1.0 0.0 0.0 -0.0349525 -0.1304458 0.9908391 -0.0349525 -0.1304458 0.9908391 -0.0349525 -0.1304458 0.9908391 1.0 0.0 0.0 1.0 0.0 0.0 0.0349525 -0.1304458 0.9908391 0.0349525 -0.1304458 0.9908391 0.0349525 -0.1304458 0.9908391 1.0 0.0 0.0 1.0 0.0 0.0</float_array>
                    <technique_common>
                        <accessor count="840" source="#geometry0-normal-array" stride="3">
                            <param name="X" type="float"/>
                            <param name="Y" type="float"/>
                            <param name="Z" type="float"/>
                        </accessor>
                    </technique_common>
                </source>
                <vertices id="geometry0-vertex">
                    <input semantic="POSITION" source="#geometry0-position"/>
                </vertices>
                <triangles count="288" material="default_ai_0.2_sh_0.2_tr_0.0_dc_r_0.8_g_0.8_b_0.8_sc_r_1.0_g_1.0_b_1.0_ec_r_0.0_g_0.0_b_0_tri">
                    <input offset="0" semantic="VERTEX" source="#geometry0-vertex"/>
                    <input offset="1" semantic="NORMAL" source="#geometry0-normal"/>
                    <p>125 0 126 1 133 2 125 3 133 4 133 4 126 5 127 6 133 7 126 8 133 9 133 9 127 10 128 11 133 12 127 13 133 14 133 14 128 15 129 16 133 17 128 18 133 19 133 19 129 20 130 21 133 22 129 23 133 24 133 24 130 25 131 26 133 27 130 28 133 29 133 29 131 30 132 31 133 32 131 33 133 34 133 34 132 35 122 36 133 37 132 38 133 39 133 39 0 40 0 40 1 41 0 42 1 43 2 44 0 45 0 45 3 46 0 47 3 48 1 49 0 50 0 50 4 51 0 52 4 53 3 54 0 55 0 55 5 56 0 57 5 58 4 59 0 60 0 60 6 61 0 62 6 63 5 64 0 65 0 65 7 66 0 67 7 68 6 69 0 70 0 70 8 71 0 72 8 73 7 74 0 75 0 75 9 76 0 77 9 78 8 79 0 80 0 80 10 81 0 82 10 83 9 84 0 85 0 85 11 86 0 87 11 88 10 89 0 90 0 90 12 91 0 92 12 93 11 94 0 95 0 95 2 96 0 97 2 98 12 99 2 100 1 101 13 102 2 103 13 104 14 105 1 106 3 107 15 108 1 109 15 110 13 111 3 112 4 113 16 114 3 115 16 116 15 117 4 118 5 119 17 120 4 121 17 122 16 123 5 124 6 125 18 126 5 127 18 128 17 129 6 130 7 131 19 132 6 133 19 134 18 135 7 136 8 137 20 138 7 139 20 140 19 141 8 142 9 143 21 144 8 145 21 146 20 147 9 148 10 149 22 150 9 151 22 152 21 153 10 154 11 155 23 156 10 157 23 158 22 159 11 160 12 161 24 162 11 163 24 164 23 165 12 166 2 167 14 168 12 169 14 170 24 171 14 172 13 173 25 174 14 175 25 176 26 177 13 178 15 179 27 180 13 181 27 182 25 183 15 184 16 185 28 186 15 187 28 188 27 189 16 190 17 191 29 192 16 193 29 194 28 195 17 196 18 197 30 198 17 199 30 200 29 201 18 202 19 203 31 204 18 205 31 206 30 207 19 208 20 209 32 210 19 211 32 212 31 213 20 214 21 215 33 216 20 217 33 218 32 219 21 220 22 221 34 222 21 223 34 224 33 225 22 226 23 227 35 228 22 229 35 230 34 231 23 232 24 233 36 234 23 235 36 236 35 237 24 238 14 239 26 240 24 241 26 242 36 243 26 244 25 245 37 246 26 247 37 248 38 249 25 250 27 251 39 252 25 253 39 254 37 255 27 256 28 257 40 258 27 259 40 260 39 261 28 262 29 263 41 264 28 265 41 266 40 267 29 268 30 269 42 270 29 271 42 272 41 273 30 274 31 275 43 276 30 277 43 278 42 279 31 280 32 281 44 282 31 283 44 284 43 285 32 286 33 287 45 288 32 289 45 290 44 291 33 292 34 293 46 294 33 295 46 296 45 297 34 298 35 299 47 300 34 301 47 302 46 303 35 304 36 305 48 306 35 307 48 308 47 309 36 310 26 311 38 312 36 313 38 314 48 315 38 316 37 317 49 318 38 319 49 320 50 321 37 322 39 323 51 324 37 325 51 326 49 327 39 328 40 329 52 330 39 331 52 332 51 333 40 334 41 335 53 336 40 337 53 338 52 339 41 340 42 341 54 342 41 343 54 344 53 345 42 346 43 347 55 348 42 349 55 350 54 351 43 352 44 353 56 354 43 355 56 356 55 357 44 358 45 359 57 360 44 361 57 362 56 363 45 364 46 365 58 366 45 367 58 368 57 369 46 370 47 371 59 372 46 373 59 374 58 375 47 376 48 377 60 378 47 379 60 380 59 381 48 382 38 383 50 384 48 385 50 386 60 387 50 388 49 389 61 390 50 391 61 392 62 393 49 394 51 395 63 396 49 397 63 398 61 399 51 400 52 401 64 402 51 403 64 404 63 405 52 406 53 407 65 408 52 409 65 410 64 411 53 412 54 413 66 414 53 415 66 416 65 417 54 418 55 419 67 420 54 421 67 422 66 423 55 424 56 425 68 426 55 427 68 428 67 429 56 430 57 431 69 432 56 433 69 434 68 435 57 436 58 437 70 438 57 439 70 440 69 441 58 442 59 443 71 444 58 445 71 446 70 447 59 448 60 449 72 450 59 451 72 452 71 453 60 454 50 455 62 456 60 457 62 458 72 459 62 460 61 461 73 462 62 463 73 464 74 465 61 466 63 467 75 468 61 469 75 470 73 471 63 472 64 473 76 474 63 475 76 476 75 477 64 478 65 479 77 480 64 481 77 482 76 483 65 484 66 485 78 486 65 487 78 488 77 489 66 490 67 491 79 492 66 493 79 494 78 495 67 496 68 497 80 498 67 499 80 500 79 501 68 502 69 503 81 504 68 505 81 506 80 507 69 508 70 509 82 510 69 511 82 512 81 513 70 514 71 515 83 516 70 517 83 518 82 519 71 520 72 521 84 522 71 523 84 524 83 525 72 526 62 527 74 528 72 529 74 530 84 531 74 532 73 533 85 534 74 535 85 536 86 537 73 538 75 539 87 540 73 541 87 542 85 543 75 544 76 545 88 546 75 547 88 548 87 549 76 550 77 551 89 552 76 553 89 554 88 555 77 556 78 557 90 558 77 559 90 560 89 561 78 562 79 563 91 564 78 565 91 566 90 567 79 568 80 569 92 570 79 571 92 572 91 573 80 574 81 575 93 576 80 577 93 578 92 579 81 580 82 581 94 582 81 583 94 584 93 585 82 586 83 587 95 588 82 589 95 590 94 591 83 592 84 593 96 594 83 595 96 596 95 597 84 598 74 599 86 600 84 601 86 602 96 603 86 604 85 605 97 606 86 607 97 608 98 609 85 610 87 611 99 612 85 613 99 614 97 615 87 616 88 617 100 618 87 619 100 620 99 621 88 622 89 623 101 624 88 625 101 626 100 627 89 628 90 629 102 630 89 631 102 632 101 633 90 634 91 635 103 636 90 637 103 638 102 639 91 640 92 641 104 642 91 643 104 644 103 645 92 646 93 647 105 648 92 649 105 650 104 651 93 652 94 653 106 654 93 655 106 656 105 657 94 658 95 659 107 660 94 661 107 662 106 663 95 664 96 665 108 666 95 667 108 668 107 669 96 670 86 671 98 672 96 673 98 674 108 675 98 676 97 677 109 678 98 679 109 680 110 681 97 682 99 683 111 684 97 685 111 686 109 687 99 688 100 689 112 690 99 691 112 692 111 693 100 694 101 695 113 696 100 697 113 698 112 699 101 700 102 701 114 702 101 703 114 704 113 705 102 706 103 707 115 708 102 709 115 710 114 711 103 712 104 713 116 714 103 715 116 716 115 717 104 718 105 719 117 720 104 721 117 722 116 723 105 724 106 725 118 726 105 727 118 728 117 729 106 730 107 731 119 732 106 733 119 734 118 735 107 736 108 737 120 738 107 739 120 740 119 741 108 742 98 743 110 744 108 745 110 746 120 747 110 748 109 749 121 750 110 751 121 752 122 753 109 754 111 755 123 756 109 757 123 758 121 759 111 760 112 761 124 762 111 763 124 764 123 765 112 766 113 767 125 768 112 769 125 770 124 771 113 772 114 773 126 774 113 775 126 776 125 777 114 778 115 779 127 780 114 781 127 782 126 783 115 784 116 785 128 786 115 787 128 788 127 789 116 790 117 791 129 792 116 793 129 794 128 795 117 796 118 797 130 798 117 799 130 800 129 801 118 802 119 803 131 804 118 805 131 806 130 807 119 808 120 809 132 810 119 811 132 812 131 813 120 814 110 815 122 816 120 817 122 818 132 819 122 820 121 821 133 822 122 823 133 824 133 824 121 825 123 826 133 827 121 828 133 829 133 829 123 830 124 831 133 832 123 833 133 834 133 834 124 835 125 836 133 837 124 838 133 839 133 839</p>
                </triangles>
            </mesh>
        </geometry>
    </library_geometries>
    <library_visual_scenes>
        <visual_scene id="Building_182_CROWN2">
            <node>
                <instance_geometry url="#geometry0">
                    <bind_material>
                        <technique_common>
                            <instance_material symbol="default_ai_0.2_sh_0.2_tr_0.0_dc_r_0.8_g_0.8_b_0.8_sc_r_1.0_g_1.0_b_1.0_ec_r_0.0_g_0.0_b_0_tri" target="#default_ai_0.2_sh_0.2_tr_0.0_dc_r_0.8_g_0.8_b_0.8_sc_r_1.0_g_1.0_b_1.0_ec_r_0.0_g_0.0_b_0_mat"/>
                        </technique_common>
                    </bind_material>
                </instance_geometry>
            </node>
        </visual_scene>
    </library_visual_scenes>
    <scene>
        <instance_visual_scene url="#Building_182_CROWN2"/>
    </scene>
</COLLADA>
