<?xml version="1.0" encoding="UTF-8" standalone="yes"?>
<COLLADA xmlns="http://www.collada.org/2005/11/COLLADASchema" version="1.4.1">
    <asset>
        <contributor>
            <authoring_tool>3D City Database Importer/Exporter, version 5.5.3; Chair of Geoinformatics, Technical University of Munich</authoring_tool>
        </contributor>
        <created>2026-09-25T14:45:20.856</created>
        <modified>2026-09-25T14:45:20.856</modified>
        <unit meter="1.0" name="meters"/>
        <up_axis>Z_UP</up_axis>
    </asset>
    <library_materials>
        <material id="default_ai_0.2_sh_0.2_tr_0.0_dc_r_0.8_g_0.8_b_0.8_sc_r_1.0_g_1.0_b_1.0_ec_r_0.0_g_0.0_b_0_mat">
            <instance_effect url="#default_ai_0.2_sh_0.2_tr_0.0_dc_r_0.8_g_0.8_b_0.8_sc_r_1.0_g_1.0_b_1.0_ec_r_0.0_g_0.0_b_0_eff"/>
        </material>
    </library_materials>
    <library_effects>
        <effect id="default_ai_0.2_sh_0.2_tr_0.0_dc_r_0.8_g_0.8_b_0.8_sc_r_1.0_g_1.0_b_1.0_ec_r_0.0_g_0.0_b_0_eff">
            <profile_COMMON>
                <technique sid="COMMON">
                    <lambert>
                        <emission>
                            <color>0.0 0.0 0.0 1.0</color>
                        </emission>
                        <diffuse>
                            <color>0.8 0.8 0.8 1.0</color>
                        </diffuse>
                        <reflective>
                            <color>1.0 1.0 1.0 1.0</color>
                        </reflective>
                        <reflectivity>
                            <float>0.2</float>
                        </reflectivity>
                        <transparent opaque="A_ONE">
                            <color>1.0 1.0 1.0 1.0</color>
                        </transparent>
                        <transparency>
                            <float>1.0</float>
                        </transparency>
                    </lambert>
                </technique>
                <extra>
                    <technique profile="GOOGLEEARTH">
                        <double_sided>0</double_sided>
                    </technique>
                </extra>
            </profile_COMMON>
        </effect>
    </library_effects>
    <library_geometries>
        <geometry id="geometry0">
            <mesh>
                <source id="geometry0-position">
                    <float_array id="geometry0-position-array" count="402">0.0 0.0 1.3 0.1456936 0.0841165 1.2778519 0.1682324 0.0 1.2778519 0.0841165 0.1456936 1.2778519 0.0 0.1682323 1.2778519 -0.0841165 0.1456936 1.2778519 -0.1456936 0.0841165 1.2778519 -0.1682324 0.0 1.2778519 -0.1456936 -0.0841165 1.2778519 -0.0841165 -0.1456936 1.2778519 0.0 -0.1682323 1.2778519 0.0841165 -0.1456936 1.2778519 0.1456936 -0.0841165 1.2778519 0.2814585 0.1625 1.2129162 0.325 0.0 1.2129162 0.1625 0.2814584 1.2129162 0.0 0.325 1.2129162 -0.1625 0.2814584 1.2129162 -0.2814585 0.1625 1.2129162 -0.325 0.0 1.2129162 -0.2814585 -0.1625 1.2129162 -0.1625 -0.2814584 1.2129162 0.0 -0.325 1.2129162 0.1625 -0.2814584 1.2129162 0.2814585 -0.1625 1.2129162 0.3980418 0.2298094 1.1096196 0.4596195 0.0 1.1096196 0.2298094 0.3980418 1.1096196 0.0 0.4596196 1.1096196 -0.2298094 0.3980418 1.1096196 -0.3980418 0.2298094 1.1096196 -0.4596195 0.0 1.1096196 -0.3980418 -0.2298094 1.1096196 -0.2298094 -0.3980418 1.1096196 0.0 -0.4596196 1.1096196 0.2298094 -0.3980418 1.1096196 0.3980418 -0.2298094 1.1096196 0.4875 0.2814584 0.975 0.5629163 0.0 0.975 0.2814585 0.4875 0.975 0.0 0.5629162 0.975 -0.2814585 0.4875 0.975 -0.4875 0.2814584 0.975 -0.5629163 0.0 0.975 -0.4875 -0.2814584 0.975 -0.2814585 -0.4875 0.975 0.0 -0.5629162 0.975 0.2814585 -0.4875 0.975 0.4875 -0.2814584 0.975 0.5437354 0.3139259 0.8182324 0.6278519 0.0 0.8182324 0.3139259 0.5437354 0.8182324 0.0 0.6278519 0.8182324 -0.3139259 0.5437354 0.8182324 -0.5437354 0.3139259 0.8182324 -0.6278519 0.0 0.8182324 -0.5437354 -0.3139259 0.8182324 -0.3139259 -0.5437354 0.8182324 0.0 -0.6278519 0.8182324 0.3139259 -0.5437354 0.8182324 0.5437354 -0.3139259 0.8182324 0.5629163 0.325 0.65 0.65 0.0 0.65 0.325 0.5629162 0.65 0.0 0.65 0.65 -0.325 0.5629162 0.65 -0.5629163 0.325 0.65 -0.65 0.0 0.65 -0.5629163 -0.325 0.65 -0.325 -0.5629162 0.65 0.0 -0.65 0.65 0.325 -0.5629162 0.65 0.5629163 -0.325 0.65 0.5437354 0.3139259 0.4817676 0.6278519 0.0 0.4817676 0.3139259 0.5437354 0.4817676 0.0 0.6278519 0.4817676 -0.3139259 0.5437354 0.4817676 -0.5437354 0.3139259 0.4817676 -0.6278519 0.0 0.4817676 -0.5437354 -0.3139259 0.4817676 -0.3139259 -0.5437354 0.4817676 0.0 -0.6278519 0.4817676 0.3139259 -0.5437354 0.4817676 0.5437354 -0.3139259 0.4817676 0.4875 0.2814584 0.325 0.5629163 0.0 0.325 0.2814585 0.4875 0.325 0.0 0.5629162 0.325 -0.2814585 0.4875 0.325 -0.4875 0.2814584 0.325 -0.5629163 0.0 0.325 -0.4875 -0.2814584 0.325 -0.2814585 -0.4875 0.325 0.0 -0.5629162 0.325 0.2814585 -0.4875 0.325 0.4875 -0.2814584 0.325 0.3980418 0.2298094 0.1903804 0.4596195 0.0 0.1903804 0.2298094 0.3980418 0.1903804 0.0 0.4596196 0.1903804 -0.2298094 0.3980418 0.1903804 -0.3980418 0.2298094 0.1903804 -0.4596195 0.0 0.1903804 -0.3980418 -0.2298094 0.1903804 -0.2298094 -0.3980418 0.1903804 0.0 -0.4596196 0.1903804 0.2298094 -0.3980418 0.1903804 0.3980418 -0.2298094 0.1903804 0.2814585 0.1625 0.0870838 0.325 0.0 0.0870838 0.1625 0.2814584 0.0870838 0.0 0.325 0.0870838 -0.1625 0.2814584 0.0870838 -0.2814585 0.1625 0.0870838 -0.325 0.0 0.0870838 -0.2814585 -0.1625 0.0870838 -0.1625 -0.2814584 0.0870838 0.0 -0.325 0.0870838 0.1625 -0.2814584 0.0870838 0.2814585 -0.1625 0.0870838 0.1456936 0.0841165 0.0221481 0.1682324 0.0 0.0221481 0.0841165 0.1456936 0.0221481 0.0 0.1682323 0.0221481 -0.0841165 0.1456936 0.0221481 -0.1456936 0.0841165 0.0221481 -0.1682324 0.0 0.0221481 -0.1456936 -0.0841165 0.0221481 -0.0841165 -0.1456936 0.0221481 0.0 -0.1682323 0.0221481 0.0841165 -0.1456936 0.0221481 0.1456936 -0.0841165 0.0221481 0.0 0.0 0.0</float_array>
                    <technique_common>
                        <accessor count="134" source="#geometry0-position-array" stride="3">
                            <param name="X" type="float"/>
                            <param name="Y" type="float"/>
                            <param name="Z" type="float"/>
                        </accessor>
                    </technique_common>
                </source>
                <source id="geometry0-normal">
                    <float_array id="geometry0-normal-array" count="2520">-0.896808 0.2402999 0.3714719 -0.896808 0.2402999 0.3714719 -0.896808 0.2402999 0.3714719 -0.8968096 0.2402985 0.3714689 -0.8968096 0.2402985 0.3714689 -0.8968096 0.2402985 0.3714689 -0.7760128 -0.2079312 0.595457 -0.7760128 -0.2079312 0.595457 -0.7760128 -0.2079312 0.595457 -0.7760143 -0.207934 0.5954539 -0.7760143 -0.207934 0.5954539 -0.7760143 -0.207934 0.5954539 -0.5680802 -0.5680802 0.5954576 -0.5680802 -0.5680802 0.5954576 -0.5680802 -0.5680802 0.5954576 -0.5680802 -0.5680804 0.5954575 -0.5680802 -0.5680804 0.5954575 -0.5680802 -0.5680804 0.5954575 -0.2079317 -0.7760146 0.5954542 -0.2079317 -0.7760146 0.5954542 -0.2079317 -0.7760146 0.5954542 -0.2079334 -0.7760118 0.5954573 -0.2079334 -0.7760118 0.5954573 -0.2079334 -0.7760118 0.5954573 0.2079311 -0.7760126 0.595457 0.2079311 -0.7760126 0.595457 0.2079311 -0.7760126 0.595457 0.2079341 -0.7760142 0.5954539 0.2079341 -0.7760142 0.5954539 0.2079341 -0.7760142 0.5954539 0.5680803 -0.5680803 0.5954575 0.5680803 -0.5680803 0.5954575 0.5680803 -0.5680803 0.5954575 0.5680802 -0.5680803 0.5954576 0.5680802 -0.5680803 0.5954576 0.5680802 -0.5680803 0.5954576 0.7760146 -0.2079317 0.5954542 0.7760146 -0.2079317 0.5954542 0.7760146 -0.2079317 0.5954542 0.7760119 -0.2079334 0.5954572 0.7760119 -0.2079334 0.5954572 0.7760119 -0.2079334 0.5954572 0.7760128 0.2079312 0.595457 0.7760128 0.2079312 0.595457 0.7760128 0.2079312 0.595457 0.7760143 0.207934 0.5954539 0.7760143 0.207934 0.5954539 0.7760143 0.207934 0.5954539 0.5680802 0.5680802 0.5954576 0.5680802 0.5680802 0.5954576 0.5680802 0.5680802 0.5954576 0.5680802 0.5680804 0.5954575 0.5680802 0.5680804 0.5954575 0.5680802 0.5680804 0.5954575 0.2079317 0.7760146 0.5954542 0.2079317 0.7760146 0.5954542 0.2079317 0.7760146 0.5954542 0.2079334 0.7760118 0.5954573 0.2079334 0.7760118 0.5954573 0.2079334 0.7760118 0.5954573 -0.2079311 0.7760126 0.595457 -0.2079311 0.7760126 0.595457 -0.2079311 0.7760126 0.595457 -0.2079341 0.7760142 0.5954539 -0.2079341 0.7760142 0.5954539 -0.2079341 0.7760142 0.5954539 -0.5680803 0.5680803 0.5954575 -0.5680803 0.5680803 0.5954575 -0.5680803 0.5680803 0.5954575 -0.5680802 0.5680803 0.5954576 -0.5680802 0.5680803 0.5954576 -0.5680802 0.5680803 0.5954576 -0.7760146 0.2079317 0.5954542 -0.7760146 0.2079317 0.5954542 -0.7760146 0.2079317 0.5954542 -0.7760119 0.2079334 0.5954572 -0.7760119 0.2079334 0.5954572 -0.7760119 0.2079334 0.5954572 -0.6008203 -0.1609906 0.7830051 -0.6008203 -0.1609906 0.7830051 -0.6008203 -0.1609906 0.7830051 -0.6008191 -0.1609883 0.7830065 -0.6008191 -0.1609883 0.7830065 -0.6008191 -0.1609883 0.7830065 -0.4398313 -0.4398314 0.7830049 -0.4398313 -0.4398314 0.7830049 -0.4398313 -0.4398314 0.7830049 -0.4398313 -0.4398313 0.7830049 -0.4398313 -0.4398313 0.7830049 -0.4398313 -0.4398313 0.7830049 -0.1609903 -0.6008189 0.7830063 -0.1609903 -0.6008189 0.7830063 -0.1609903 -0.6008189 0.7830063 -0.1609888 -0.6008212 0.7830048 -0.1609888 -0.6008212 0.7830048 -0.1609888 -0.6008212 0.7830048 0.1609907 -0.6008204 0.7830051 0.1609907 -0.6008204 0.7830051 0.1609907 -0.6008204 0.7830051 0.1609883 -0.6008191 0.7830065 0.1609883 -0.6008191 0.7830065 0.1609883 -0.6008191 0.7830065 0.4398313 -0.4398314 0.7830049 0.4398313 -0.4398314 0.7830049 0.4398313 -0.4398314 0.7830049 0.4398314 -0.4398314 0.7830049 0.4398314 -0.4398314 0.7830049 0.4398314 -0.4398314 0.7830049 0.6008189 -0.1609902 0.7830063 0.6008189 -0.1609902 0.7830063 0.6008189 -0.1609902 0.7830063 0.6008211 -0.1609888 0.7830048 0.6008211 -0.1609888 0.7830048 0.6008211 -0.1609888 0.7830048 0.6008203 0.1609906 0.7830051 0.6008203 0.1609906 0.7830051 0.6008203 0.1609906 0.7830051 0.6008191 0.1609883 0.7830065 0.6008191 0.1609883 0.7830065 0.6008191 0.1609883 0.7830065 0.4398313 0.4398314 0.7830049 0.4398313 0.4398314 0.7830049 0.4398313 0.4398314 0.7830049 0.4398313 0.4398313 0.7830049 0.4398313 0.4398313 0.7830049 0.4398313 0.4398313 0.7830049 0.1609903 0.6008189 0.7830063 0.1609903 0.6008189 0.7830063 0.1609903 0.6008189 0.7830063 0.1609888 0.6008212 0.7830048 0.1609888 0.6008212 0.7830048 0.1609888 0.6008212 0.7830048 -0.1609907 0.6008204 0.7830051 -0.1609907 0.6008204 0.7830051 -0.1609907 0.6008204 0.7830051 -0.1609883 0.6008191 0.7830065 -0.1609883 0.6008191 0.7830065 -0.1609883 0.6008191 0.7830065 -0.4398313 0.4398314 0.7830049 -0.4398313 0.4398314 0.7830049 -0.4398313 0.4398314 0.7830049 -0.4398314 0.4398314 0.7830049 -0.4398314 0.4398314 0.7830049 -0.4398314 0.4398314 0.7830049 -0.6008189 0.1609902 0.7830063 -0.6008189 0.1609902 0.7830063 -0.6008189 0.1609902 0.7830063 -0.6008211 0.1609888 0.7830048 -0.6008211 0.1609888 0.7830048 -0.6008211 0.1609888 0.7830048 -0.3806894 -0.102005 0.9190596 -0.3806894 -0.102005 0.9190596 -0.3806894 -0.102005 0.9190596 -0.3806891 -0.1020045 0.9190598 -0.3806891 -0.1020045 0.9190598 -0.3806891 -0.1020045 0.9190598 -0.278684 -0.278684 0.9190595 -0.278684 -0.278684 0.9190595 -0.278684 -0.278684 0.9190595 -0.2786841 -0.2786841 0.9190595 -0.2786841 -0.2786841 0.9190595 -0.2786841 -0.2786841 0.9190595 -0.1020049 -0.3806891 0.9190597 -0.1020049 -0.3806891 0.9190597 -0.1020049 -0.3806891 0.9190597 -0.1020046 -0.3806895 0.9190596 -0.1020046 -0.3806895 0.9190596 -0.1020046 -0.3806895 0.9190596 0.102005 -0.3806894 0.9190596 0.102005 -0.3806894 0.9190596 0.102005 -0.3806894 0.9190596 0.1020045 -0.3806891 0.9190598 0.1020045 -0.3806891 0.9190598 0.1020045 -0.3806891 0.9190598 0.278684 -0.278684 0.9190595 0.278684 -0.278684 0.9190595 0.278684 -0.278684 0.9190595 0.2786841 -0.2786841 0.9190595 0.2786841 -0.2786841 0.9190595 0.2786841 -0.2786841 0.9190595 0.3806891 -0.1020049 0.9190597 0.3806891 -0.1020049 0.9190597 0.3806891 -0.1020049 0.9190597 0.3806895 -0.1020046 0.9190596 0.3806895 -0.1020046 0.9190596 0.3806895 -0.1020046 0.9190596 0.3806894 0.102005 0.9190596 0.3806894 0.102005 0.9190596 0.3806894 0.102005 0.9190596 0.3806891 0.1020045 0.9190598 0.3806891 0.1020045 0.9190598 0.3806891 0.1020045 0.9190598 0.278684 0.278684 0.9190595 0.278684 0.278684 0.9190595 0.278684 0.278684 0.9190595 0.2786841 0.2786841 0.9190595 0.2786841 0.2786841 0.9190595 0.2786841 0.2786841 0.9190595 0.1020049 0.3806891 0.9190597 0.1020049 0.3806891 0.9190597 0.1020049 0.3806891 0.9190597 0.1020046 0.3806895 0.9190596 0.1020046 0.3806895 0.9190596 0.1020046 0.3806895 0.9190596 -0.102005 0.3806894 0.9190596 -0.102005 0.3806894 0.9190596 -0.102005 0.3806894 0.9190596 -0.1020045 0.3806891 0.9190598 -0.1020045 0.3806891 0.9190598 -0.1020045 0.3806891 0.9190598 -0.278684 0.278684 0.9190595 -0.278684 0.278684 0.9190595 -0.278684 0.278684 0.9190595 -0.2786841 0.2786841 0.9190595 -0.2786841 0.2786841 0.9190595 -0.2786841 0.2786841 0.9190595 -0.3806891 0.1020049 0.9190597 -0.3806891 0.1020049 0.9190597 -0.3806891 0.1020049 0.9190597 -0.3806895 0.1020046 0.9190596 -0.3806895 0.1020046 0.9190596 -0.3806895 0.1020046 0.9190596 -0.1304458 -0.0349525 0.9908391 -0.1304458 -0.0349525 0.9908391 -0.1304458 -0.0349525 0.9908391 1.0 0.0 0.0 1.0 0.0 0.0 -0.0954928 -0.0954928 0.9908392 -0.0954928 -0.0954928 0.9908392 -0.0954928 -0.0954928 0.9908392 1.0 0.0 0.0 1.0 0.0 0.0 -0.0349525 -0.1304458 0.9908391 -0.0349525 -0.1304458 0.9908391 -0.0349525 -0.1304458 0.9908391 1.0 0.0 0.0 1.0 0.0 0.0 0.0349525 -0.1304458 0.9908391 0.0349525 -0.1304458 0.9908391 0.0349525 -0.1304458 0.9908391 1.0 0.0 0.0 1.0 0.0 0.0 0.0954928 -0.0954928 0.9908392 0.0954928 -0.0954928 0.9908392 0.0954928 -0.0954928 0.9908392 1.0 0.0 0.0 1.0 0.0 0.0 0.1304458 -0.0349525 0.9908391 0.1304458 -0.0349525 0.9908391 0.1304458 -0.0349525 0.9908391 1.0 0.0 0.0 1.0 0.0 0.0 0.1304458 0.0349525 0.9908391 0.1304458 0.0349525 0.9908391 0.1304458 0.0349525 0.9908391 1.0 0.0 0.0 1.0 0.0 0.0 0.0954928 0.0954928 0.9908392 0.0954928 0.0954928 0.9908392 0.0954928 0.0954928 0.9908392 1.0 0.0 0.0 1.0 0.0 0.0 0.0349525 0.1304458 0.9908391 0.0349525 0.1304458 0.9908391 0.0349525 0.1304458 0.9908391 1.0 0.0 0.0 1.0 0.0 0.0 -0.0349525 0.1304458 0.9908391 -0.0349525 0.1304458 0.9908391 -0.0349525 0.1304458 0.9908391 1.0 0.0 0.0 1.0 0.0 0.0 -0.0954928 0.0954928 0.9908392 -0.0954928 0.0954928 0.9908392 -0.0954928 0.0954928 0.9908392 1.0 0.0 0.0 1.0 0.0 0.0 -0.1304458 0.0349525 0.9908391 -0.1304458 0.0349525 0.9908391 -0.1304458 0.0349525 0.9908391 1.0 0.0 0.0 1.0 0.0 0.0 1.0 0.0 0.0 1.0 0.0 0.0 -0.1304453 -0.0349524 -0.9908392 -0.1304453 -0.0349524 -0.9908392 -0.1304453 -0.0349524 -0.9908392 1.0 0.0 0.0 1.0 0.0 0.0 -0.0954924 -0.0954924 -0.9908392 -0.0954924 -0.0954924 -0.9908392 -0.0954924 -0.0954924 -0.9908392 1.0 0.0 0.0 1.0 0.0 0.0 -0.0349524 -0.1304453 -0.9908392 -0.0349524 -0.1304453 -0.9908392 -0.0349524 -0.1304453 -0.9908392 1.0 0.0 0.0 1.0 0.0 0.0 0.0349524 -0.1304453 -0.9908392 0.0349524 -0.1304453 -0.9908392 0.0349524 -0.1304453 -0.9908392 1.0 0.0 0.0 1.0 0.0 0.0 0.0954924 -0.0954924 -0.9908392 0.0954924 -0.0954924 -0.9908392 0.0954924 -0.0954924 -0.9908392 1.0 0.0 0.0 1.0 0.0 0.0 0.1304453 -0.0349524 -0.9908392 0.1304453 -0.0349524 -0.9908392 0.1304453 -0.0349524 -0.9908392 1.0 0.0 0.0 1.0 0.0 0.0 0.1304453 0.0349524 -0.9908392 0.1304453 0.0349524 -0.9908392 0.1304453 0.0349524 -0.9908392 1.0 0.0 0.0 1.0 0.0 0.0 0.0954924 0.0954924 -0.9908392 0.0954924 0.0954924 -0.9908392 0.0954924 0.0954924 -0.9908392 1.0 0.0 0.0 1.0 0.0 0.0 0.0349524 0.1304453 -0.9908392 0.0349524 0.1304453 -0.9908392 0.0349524 0.1304453 -0.9908392 1.0 0.0 0.0 1.0 0.0 0.0 -0.0349524 0.1304453 -0.9908392 -0.0349524 0.1304453 -0.9908392 -0.0349524 0.1304453 -0.9908392 1.0 0.0 0.0 1.0 0.0 0.0 -0.0954924 0.0954924 -0.9908392 -0.0954924 0.0954924 -0.9908392 -0.0954924 0.0954924 -0.9908392 1.0 0.0 0.0 1.0 0.0 0.0 -0.1304453 0.0349524 -0.9908392 -0.1304453 0.0349524 -0.9908392 -0.1304453 0.0349524 -0.9908392 -0.3806897 -0.1020046 -0.9190595 -0.3806897 -0.1020046 -0.9190595 -0.3806897 -0.1020046 -0.9190595 -0.3806893 -0.1020049 -0.9190596 -0.3806893 -0.1020049 -0.9190596 -0.3806893 -0.1020049 -0.9190596 -0.2786842 -0.2786842 -0.9190594 -0.2786842 -0.2786842 -0.9190594 -0.2786842 -0.2786842 -0.9190594 -0.2786842 -0.2786842 -0.9190595 -0.2786842 -0.2786842 -0.9190595 -0.2786842 -0.2786842 -0.9190595 -0.1020045 -0.3806894 -0.9190597 -0.1020045 -0.3806894 -0.9190597 -0.1020045 -0.3806894 -0.9190597 -0.102005 -0.3806896 -0.9190596 -0.102005 -0.3806896 -0.9190596 -0.102005 -0.3806896 -0.9190596 0.1020046 -0.3806897 -0.9190595 0.1020046 -0.3806897 -0.9190595 0.1020046 -0.3806897 -0.9190595 0.1020049 -0.3806893 -0.9190596 0.1020049 -0.3806893 -0.9190596 0.1020049 -0.3806893 -0.9190596 0.2786842 -0.2786842 -0.9190594 0.2786842 -0.2786842 -0.9190594 0.2786842 -0.2786842 -0.9190594 0.2786842 -0.2786842 -0.9190595 0.2786842 -0.2786842 -0.9190595 0.2786842 -0.2786842 -0.9190595 0.3806894 -0.1020045 -0.9190597 0.3806894 -0.1020045 -0.9190597 0.3806894 -0.1020045 -0.9190597 0.3806896 -0.102005 -0.9190596 0.3806896 -0.102005 -0.9190596 0.3806896 -0.102005 -0.9190596 0.3806897 0.1020046 -0.9190595 0.3806897 0.1020046 -0.9190595 0.3806897 0.1020046 -0.9190595 0.3806893 0.1020049 -0.9190596 0.3806893 0.1020049 -0.9190596 0.3806893 0.1020049 -0.9190596 0.2786842 0.2786842 -0.9190594 0.2786842 0.2786842 -0.9190594 0.2786842 0.2786842 -0.9190594 0.2786842 0.2786842 -0.9190595 0.2786842 0.2786842 -0.9190595 0.2786842 0.2786842 -0.9190595 0.1020045 0.3806894 -0.9190597 0.1020045 0.3806894 -0.9190597 0.1020045 0.3806894 -0.9190597 0.102005 0.3806896 -0.9190596 0.102005 0.3806896 -0.9190596 0.102005 0.3806896 -0.9190596 -0.1020046 0.3806897 -0.9190595 -0.1020046 0.3806897 -0.9190595 -0.1020046 0.3806897 -0.9190595 -0.1020049 0.3806893 -0.9190596 -0.1020049 0.3806893 -0.9190596 -0.1020049 0.3806893 -0.9190596 -0.2786842 0.2786842 -0.9190594 -0.2786842 0.2786842 -0.9190594 -0.2786842 0.2786842 -0.9190594 -0.2786842 0.2786842 -0.9190595 -0.2786842 0.2786842 -0.9190595 -0.2786842 0.2786842 -0.9190595 -0.3806894 0.1020045 -0.9190597 -0.3806894 0.1020045 -0.9190597 -0.3806894 0.1020045 -0.9190597 -0.3806896 0.102005 -0.9190596 -0.3806896 0.102005 -0.9190596 -0.3806896 0.102005 -0.9190596 -0.6008213 -0.1609889 -0.7830047 -0.6008213 -0.1609889 -0.7830047 -0.6008213 -0.1609889 -0.7830047 -0.6008191 -0.1609902 -0.7830062 -0.6008191 -0.1609902 -0.7830062 -0.6008191 -0.1609902 -0.7830062 -0.4398316 -0.4398316 -0.7830048 -0.4398316 -0.4398316 -0.7830048 -0.4398316 -0.4398316 -0.7830048 -0.4398315 -0.4398315 -0.7830048 -0.4398315 -0.4398315 -0.7830048 -0.4398315 -0.4398315 -0.7830048 -0.1609883 -0.6008192 -0.7830064 -0.1609883 -0.6008192 -0.7830064 -0.1609883 -0.6008192 -0.7830064 -0.1609907 -0.6008205 -0.7830049 -0.1609907 -0.6008205 -0.7830049 -0.1609907 -0.6008205 -0.7830049 0.1609889 -0.6008214 -0.7830047 0.1609889 -0.6008214 -0.7830047 0.1609889 -0.6008214 -0.7830047 0.1609903 -0.6008191 -0.7830061 0.1609903 -0.6008191 -0.7830061 0.1609903 -0.6008191 -0.7830061 0.4398315 -0.4398315 -0.7830048 0.4398315 -0.4398315 -0.7830048 0.4398315 -0.4398315 -0.7830048 0.4398315 -0.4398316 -0.7830048 0.4398315 -0.4398316 -0.7830048 0.4398315 -0.4398316 -0.7830048 0.6008192 -0.1609883 -0.7830064 0.6008192 -0.1609883 -0.7830064 0.6008192 -0.1609883 -0.7830064 0.6008205 -0.1609906 -0.7830049 0.6008205 -0.1609906 -0.7830049 0.6008205 -0.1609906 -0.7830049 0.6008213 0.1609889 -0.7830047 0.6008213 0.1609889 -0.7830047 0.6008213 0.1609889 -0.7830047 0.6008191 0.1609902 -0.7830062 0.6008191 0.1609902 -0.7830062 0.6008191 0.1609902 -0.7830062 0.4398316 0.4398316 -0.7830048 0.4398316 0.4398316 -0.7830048 0.4398316 0.4398316 -0.7830048 0.4398315 0.4398315 -0.7830048 0.4398315 0.4398315 -0.7830048 0.4398315 0.4398315 -0.7830048 0.1609883 0.6008192 -0.7830064 0.1609883 0.6008192 -0.7830064 0.1609883 0.6008192 -0.7830064 0.1609907 0.6008205 -0.7830049 0.1609907 0.6008205 -0.7830049 0.1609907 0.6008205 -0.7830049 -0.1609889 0.6008214 -0.7830047 -0.1609889 0.6008214 -0.7830047 -0.1609889 0.6008214 -0.7830047 -0.1609903 0.6008191 -0.7830061 -0.1609903 0.6008191 -0.7830061 -0.1609903 0.6008191 -0.7830061 -0.4398315 0.4398315 -0.7830048 -0.4398315 0.4398315 -0.7830048 -0.4398315 0.4398315 -0.7830048 -0.4398315 0.4398316 -0.7830048 -0.4398315 0.4398316 -0.7830048 -0.4398315 0.4398316 -0.7830048 -0.6008192 0.1609883 -0.7830064 -0.6008192 0.1609883 -0.7830064 -0.6008192 0.1609883 -0.7830064 -0.6008205 0.1609906 -0.7830049 -0.6008205 0.1609906 -0.7830049 -0.6008205 0.1609906 -0.7830049 -0.7760118 -0.2079334 -0.5954574 -0.7760118 -0.2079334 -0.5954574 -0.7760118 -0.2079334 -0.5954574 -0.7760144 -0.2079317 -0.5954543 -0.7760144 -0.2079317 -0.5954543 -0.7760144 -0.2079317 -0.5954543 -0.5680801 -0.5680802 -0.5954577 -0.5680801 -0.5680802 -0.5954577 -0.5680801 -0.5680802 -0.5954577 -0.5680802 -0.5680802 -0.5954576 -0.5680802 -0.5680802 -0.5954576 -0.5680802 -0.5680802 -0.5954576 -0.2079341 -0.7760141 -0.595454 -0.2079341 -0.7760141 -0.595454 -0.2079341 -0.7760141 -0.595454 -0.2079311 -0.7760124 -0.5954572 -0.2079311 -0.7760124 -0.5954572 -0.2079311 -0.7760124 -0.5954572 0.2079334 -0.7760116 -0.5954575 0.2079334 -0.7760116 -0.5954575 0.2079334 -0.7760116 -0.5954575 0.2079317 -0.7760144 -0.5954543 0.2079317 -0.7760144 -0.5954543 0.2079317 -0.7760144 -0.5954543 0.5680801 -0.5680802 -0.5954577 0.5680801 -0.5680802 -0.5954577 0.5680801 -0.5680802 -0.5954577 0.5680801 -0.5680801 -0.5954577 0.5680801 -0.5680801 -0.5954577 0.5680801 -0.5680801 -0.5954577 0.7760141 -0.207934 -0.595454 0.7760141 -0.207934 -0.595454 0.7760141 -0.207934 -0.595454 0.7760126 -0.2079311 -0.5954571 0.7760126 -0.2079311 -0.5954571 0.7760126 -0.2079311 -0.5954571 0.7760118 0.2079334 -0.5954574 0.7760118 0.2079334 -0.5954574 0.7760118 0.2079334 -0.5954574 0.7760144 0.2079317 -0.5954543 0.7760144 0.2079317 -0.5954543 0.7760144 0.2079317 -0.5954543 0.5680801 0.5680802 -0.5954577 0.5680801 0.5680802 -0.5954577 0.5680801 0.5680802 -0.5954577 0.5680802 0.5680802 -0.5954576 0.5680802 0.5680802 -0.5954576 0.5680802 0.5680802 -0.5954576 0.2079341 0.7760141 -0.595454 0.2079341 0.7760141 -0.595454 0.2079341 0.7760141 -0.595454 0.2079311 0.7760124 -0.5954572 0.2079311 0.7760124 -0.5954572 0.2079311 0.7760124 -0.5954572 -0.2079334 0.7760116 -0.5954575 -0.2079334 0.7760116 -0.5954575 -0.2079334 0.7760116 -0.5954575 -0.2079317 0.7760144 -0.5954543 -0.2079317 0.7760144 -0.5954543 -0.2079317 0.7760144 -0.5954543 -0.5680801 0.5680802 -0.5954577 -0.5680801 0.5680802 -0.5954577 -0.5680801 0.5680802 -0.5954577 -0.5680801 0.5680801 -0.5954577 -0.5680801 0.5680801 -0.5954577 -0.5680801 0.5680801 -0.5954577 -0.7760141 0.207934 -0.595454 -0.7760141 0.207934 -0.595454 -0.7760141 0.207934 -0.595454 -0.7760126 0.2079311 -0.5954571 -0.7760126 0.2079311 -0.5954571 -0.7760126 0.2079311 -0.5954571 -0.8968096 -0.2402984 -0.3714689 -0.8968096 -0.2402984 -0.3714689 -0.8968096 -0.2402984 -0.3714689 -0.896808 -0.2402999 -0.3714719 -0.896808 -0.2402999 -0.3714719 -0.896808 -0.2402999 -0.3714719 -0.65651 -0.65651 -0.371469 -0.65651 -0.65651 -0.371469 -0.65651 -0.65651 -0.371469 -0.65651 -0.65651 -0.3714691 -0.65651 -0.65651 -0.3714691 -0.65651 -0.65651 -0.3714691 -0.2402981 -0.8968084 -0.3714721 -0.2402981 -0.8968084 -0.3714721 -0.2402981 -0.8968084 -0.3714721 -0.2403002 -0.8968092 -0.3714691 -0.2403002 -0.8968092 -0.3714691 -0.2403002 -0.8968092 -0.3714691 0.2402984 -0.8968096 -0.3714689 0.2402984 -0.8968096 -0.3714689 0.2402984 -0.8968096 -0.3714689 0.2402999 -0.896808 -0.3714719 0.2402999 -0.896808 -0.3714719 0.2402999 -0.896808 -0.3714719 0.65651 -0.65651 -0.371469 0.65651 -0.65651 -0.371469 0.65651 -0.65651 -0.371469 0.65651 -0.65651 -0.3714691 0.65651 -0.65651 -0.3714691 0.65651 -0.65651 -0.3714691 0.8968084 -0.2402981 -0.3714721 0.8968084 -0.2402981 -0.3714721 0.8968084 -0.2402981 -0.3714721 0.8968092 -0.2403002 -0.3714691 0.8968092 -0.2403002 -0.3714691 0.8968092 -0.2403002 -0.3714691 0.8968096 0.2402984 -0.3714689 0.8968096 0.2402984 -0.3714689 0.8968096 0.2402984 -0.3714689 0.896808 0.2402999 -0.3714719 0.896808 0.2402999 -0.3714719 0.896808 0.2402999 -0.3714719 0.65651 0.65651 -0.371469 0.65651 0.65651 -0.371469 0.65651 0.65651 -0.371469 0.65651 0.65651 -0.3714691 0.65651 0.65651 -0.3714691 0.65651 0.65651 -0.3714691 0.2402981 0.8968084 -0.3714721 0.2402981 0.8968084 -0.3714721 0.2402981 0.8968084 -0.3714721 0.2403002 0.8968092 -0.3714691 0.2403002 0.8968092 -0.3714691 0.2403002 0.8968092 -0.3714691 -0.2402984 0.8968096 -0.3714689 -0.2402984 0.8968096 -0.3714689 -0.2402984 0.8968096 -0.3714689 -0.2402999 0.896808 -0.3714719 -0.2402999 0.896808 -0.3714719 -0.2402999 0.896808 -0.3714719 -0.65651 0.65651 -0.371469 -0.65651 0.65651 -0.371469 -0.65651 0.65651 -0.371469 -0.65651 0.65651 -0.3714691 -0.65651 0.65651 -0.3714691 -0.65651 0.65651 -0.3714691 -0.8968084 0.2402981 -0.3714721 -0.8968084 0.2402981 -0.3714721 -0.8968084 0.2402981 -0.3714721 -0.8968092 0.2403002 -0.3714691 -0.8968092 0.2403002 -0.3714691 -0.8968092 0.2403002 -0.3714691 -0.958209 -0.2567523 -0.1261504 -0.958209 -0.2567523 -0.1261504 -0.958209 -0.2567523 -0.1261504 -0.9582092 -0.256752 -0.1261498 -0.9582092 -0.256752 -0.1261498 -0.9582092 -0.256752 -0.1261498 -0.7014578 -0.7014578 -0.1261503 -0.7014578 -0.7014578 -0.1261503 -0.7014578 -0.7014578 -0.1261503 -0.7014578 -0.7014578 -0.1261503 -0.7014578 -0.7014578 -0.1261503 -0.7014578 -0.7014578 -0.1261503 -0.2567523 -0.958209 -0.1261498 -0.2567523 -0.958209 -0.1261498 -0.2567523 -0.958209 -0.1261498 -0.256752 -0.958209 -0.1261504 -0.256752 -0.958209 -0.1261504 -0.256752 -0.958209 -0.1261504 0.2567523 -0.958209 -0.1261504 0.2567523 -0.958209 -0.1261504 0.2567523 -0.958209 -0.1261504 0.256752 -0.9582092 -0.1261498 0.256752 -0.9582092 -0.1261498 0.256752 -0.9582092 -0.1261498 0.7014578 -0.7014578 -0.1261503 0.7014578 -0.7014578 -0.1261503 0.7014578 -0.7014578 -0.1261503 0.7014578 -0.7014578 -0.1261503 0.7014578 -0.7014578 -0.1261503 0.7014578 -0.7014578 -0.1261503 0.958209 -0.2567523 -0.1261498 0.958209 -0.2567523 -0.1261498 0.958209 -0.2567523 -0.1261498 0.958209 -0.256752 -0.1261504 0.958209 -0.256752 -0.1261504 0.958209 -0.256752 -0.1261504 0.958209 0.2567523 -0.1261504 0.958209 0.2567523 -0.1261504 0.958209 0.2567523 -0.1261504 0.9582092 0.256752 -0.1261498 0.9582092 0.256752 -0.1261498 0.9582092 0.256752 -0.1261498 0.7014578 0.7014578 -0.1261503 0.7014578 0.7014578 -0.1261503 0.7014578 0.7014578 -0.1261503 0.7014578 0.7014578 -0.1261503 0.7014578 0.7014578 -0.1261503 0.7014578 0.7014578 -0.1261503 0.2567523 0.958209 -0.1261498 0.2567523 0.958209 -0.1261498 0.2567523 0.958209 -0.1261498 0.256752 0.958209 -0.1261504 0.256752 0.958209 -0.1261504 0.256752 0.958209 -0.1261504 -0.2567523 0.958209 -0.1261504 -0.2567523 0.958209 -0.1261504 -0.2567523 0.958209 -0.1261504 -0.256752 0.9582092 -0.1261498 -0.256752 0.9582092 -0.1261498 -0.256752 0.9582092 -0.1261498 -0.7014578 0.7014578 -0.1261503 -0.7014578 0.7014578 -0.1261503 -0.7014578 0.7014578 -0.1261503 -0.7014578 0.7014578 -0.1261503 -0.7014578 0.7014578 -0.1261503 -0.7014578 0.7014578 -0.1261503 -0.958209 0.2567523 -0.1261498 -0.958209 0.2567523 -0.1261498 -0.958209 0.2567523 -0.1261498 -0.958209 0.256752 -0.1261504 -0.958209 0.256752 -0.1261504 -0.958209 0.256752 -0.1261504 -0.958209 -0.256752 0.1261505 -0.958209 -0.256752 0.1261505 -0.958209 -0.256752 0.1261505 -0.958209 -0.2567523 0.1261499 -0.958209 -0.2567523 0.1261499 -0.958209 -0.2567523 0.1261499 -0.7014578 -0.7014578 0.1261503 -0.7014578 -0.7014578 0.1261503 -0.7014578 -0.7014578 0.1261503 -0.7014578 -0.7014578 0.1261503 -0.7014578 -0.7014578 0.1261503 -0.7014578 -0.7014578 0.1261503 -0.256752 -0.958209 0.1261498 -0.256752 -0.958209 0.1261498 -0.256752 -0.958209 0.1261498 -0.2567523 -0.9582089 0.1261505 -0.2567523 -0.9582089 0.1261505 -0.2567523 -0.9582089 0.1261505 0.256752 -0.958209 0.1261505 0.256752 -0.958209 0.1261505 0.256752 -0.958209 0.1261505 0.2567523 -0.958209 0.1261499 0.2567523 -0.958209 0.1261499 0.2567523 -0.958209 0.1261499 0.7014578 -0.7014578 0.1261503 0.7014578 -0.7014578 0.1261503 0.7014578 -0.7014578 0.1261503 0.7014578 -0.7014578 0.1261503 0.7014578 -0.7014578 0.1261503 0.7014578 -0.7014578 0.1261503 0.958209 -0.256752 0.1261498 0.958209 -0.256752 0.1261498 0.958209 -0.256752 0.1261498 0.9582089 -0.2567523 0.1261505 0.9582089 -0.2567523 0.1261505 0.9582089 -0.2567523 0.1261505 0.958209 0.256752 0.1261505 0.958209 0.256752 0.1261505 0.958209 0.256752 0.1261505 0.958209 0.2567523 0.1261499 0.958209 0.2567523 0.1261499 0.958209 0.2567523 0.1261499 0.7014578 0.7014578 0.1261503 0.7014578 0.7014578 0.1261503 0.7014578 0.7014578 0.1261503 0.7014578 0.7014578 0.1261503 0.7014578 0.7014578 0.1261503 0.7014578 0.7014578 0.1261503 0.256752 0.958209 0.1261498 0.256752 0.958209 0.1261498 0.256752 0.958209 0.1261498 0.2567523 0.9582089 0.1261505 0.2567523 0.9582089 0.1261505 0.2567523 0.9582089 0.1261505 -0.256752 0.958209 0.1261505 -0.256752 0.958209 0.1261505 -0.256752 0.958209 0.1261505 -0.2567523 0.958209 0.1261499 -0.2567523 0.958209 0.1261499 -0.2567523 0.958209 0.1261499 -0.7014578 0.7014578 0.1261503 -0.7014578 0.7014578 0.1261503 -0.7014578 0.7014578 0.1261503 -0.7014578 0.7014578 0.1261503 -0.7014578 0.7014578 0.1261503 -0.7014578 0.7014578 0.1261503 -0.958209 0.256752 0.1261498 -0.958209 0.256752 0.1261498 -0.958209 0.256752 0.1261498 -0.9582089 0.2567523 0.1261505 -0.9582089 0.2567523 0.1261505 -0.9582089 0.2567523 0.1261505 -0.8968092 -0.2403002 0.3714691 -0.8968092 -0.2403002 0.3714691 -0.8968092 -0.2403002 0.3714691 -0.8968084 -0.2402981 0.3714721 -0.8968084 -0.2402981 0.3714721 -0.8968084 -0.2402981 0.3714721 -0.65651 -0.65651 0.371469 -0.65651 -0.65651 0.371469 -0.65651 -0.65651 0.371469 -0.65651 -0.65651 0.371469 -0.65651 -0.65651 0.371469 -0.65651 -0.65651 0.371469 -0.2402999 -0.896808 0.3714719 -0.2402999 -0.896808 0.3714719 -0.2402999 -0.896808 0.3714719 -0.2402985 -0.8968096 0.3714689 -0.2402985 -0.8968096 0.3714689 -0.2402985 -0.8968096 0.3714689 0.2403002 -0.8968092 0.3714691 0.2403002 -0.8968092 0.3714691 0.2403002 -0.8968092 0.3714691 0.2402981 -0.8968084 0.3714721 0.2402981 -0.8968084 0.3714721 0.2402981 -0.8968084 0.3714721 0.65651 -0.65651 0.371469 0.65651 -0.65651 0.371469 0.65651 -0.65651 0.371469 0.65651 -0.65651 0.371469 0.65651 -0.65651 0.371469 0.65651 -0.65651 0.371469 0.896808 -0.2402999 0.3714719 0.896808 -0.2402999 0.3714719 0.896808 -0.2402999 0.3714719 0.8968096 -0.2402985 0.3714689 0.8968096 -0.2402985 0.3714689 0.8968096 -0.2402985 0.3714689 0.8968092 0.2403002 0.3714691 0.8968092 0.2403002 0.3714691 0.8968092 0.2403002 0.3714691 0.8968084 0.2402981 0.3714721 0.8968084 0.2402981 0.3714721 0.8968084 0.2402981 0.3714721 0.65651 0.65651 0.371469 0.65651 0.65651 0.371469 0.65651 0.65651 0.371469 0.65651 0.65651 0.371469 0.65651 0.65651 0.371469 0.65651 0.65651 0.371469 0.2402999 0.896808 0.3714719 0.2402999 0.896808 0.3714719 0.2402999 0.896808 0.3714719 0.2402985 0.8968096 0.3714689 0.2402985 0.8968096 0.3714689 0.2402985 0.8968096 0.3714689 -0.2403002 0.8968092 0.3714691 -0.2403002 0.8968092 0.3714691 -0.2403002 0.8968092 0.3714691 -0.2402981 0.8968084 0.3714721 -0.2402981 0.8968084 0.3714721 -0.2402981 0.8968084 0.3714721 -0.65651 0.65651 0.371469 -0.65651 0.65651 0.371469 -0.65651 0.65651 0.371469 -0.65651 0.65651 0.371469 -0.65651 0.65651 0.371469 -0.65651 0.65651 0.371469</float_array>
                    <technique_common>
                        <accessor count="840" source="#geometry0-normal-array" stride="3">
                            <param name="X" type="float"/>
                            <param name="Y" type="float"/>
                            <param name="Z" type="float"/>
                        </accessor>
                    </technique_common>
                </source>
                <vertices id="geometry0-vertex">
                    <input semantic="POSITION" source="#geometry0-position"/>
                </vertices>
                <triangles count="288" material="default_ai_0.2_sh_0.2_tr_0.0_dc_r_0.8_g_0.8_b_0.8_sc_r_1.0_g_1.0_b_1.0_ec_r_0.0_g_0.0_b_0_tri">
                    <input offset="0" semantic="VERTEX" source="#geometry0-vertex"/>
                    <input offset="1" semantic="NORMAL" source="#geometry0-normal"/>
                    <p>84 0 74 1 86 2 84 3 86 4 96 5 86 6 85 7 97 8 86 9 97 10 98 11 85 12 87 13 99 14 85 15 99 16 97 17 87 18 88 19 100 20 87 21 100 22 99 23 88 24 89 25 101 26 88 27 101 28 100 29 89 30 90 31 102 32 89 33 102 34 101 35 90 36 91 37 103 38 90 39 103 40 102 41 91 42 92 43 104 44 91 45 104 46 103 47 92 48 93 49 105 50 92 51 105 52 104 53 93 54 94 55 106 56 93 57 106 58 105 59 94 60 95 61 107 62 94 63 107 64 106 65 95 66 96 67 108 68 95 69 108 70 107 71 96 72 86 73 98 74 96 75 98 76 108 77 98 78 97 79 109 80 98 81 109 82 110 83 97 84 99 85 111 86 97 87 111 88 109 89 99 90 100 91 112 92 99 93 112 94 111 95 100 96 101 97 113 98 100 99 113 100 112 101 101 102 102 103 114 104 101 105 114 106 113 107 102 108 103 109 115 110 102 111 115 112 114 113 103 114 104 115 116 116 103 117 116 118 115 119 104 120 105 121 117 122 104 123 117 124 116 125 105 126 106 127 118 128 105 129 118 130 117 131 106 132 107 133 119 134 106 135 119 136 118 137 107 138 108 139 120 140 107 141 120 142 119 143 108 144 98 145 110 146 108 147 110 148 120 149 110 150 109 151 121 152 110 153 121 154 122 155 109 156 111 157 123 158 109 159 123 160 121 161 111 162 112 163 124 164 111 165 124 166 123 167 112 168 113 169 125 170 112 171 125 172 124 173 113 174 114 175 126 176 113 177 126 178 125 179 114 180 115 181 127 182 114 183 127 184 126 185 115 186 116 187 128 188 115 189 128 190 127 191 116 192 117 193 129 194 116 195 129 196 128 197 117 198 118 199 130 200 117 201 130 202 129 203 118 204 119 205 131 206 118 207 131 208 130 209 119 210 120 211 132 212 119 213 132 214 131 215 120 216 110 217 122 218 120 219 122 220 132 221 122 222 121 223 133 224 122 225 133 226 133 226 121 227 123 228 133 229 121 230 133 231 133 231 123 232 124 233 133 234 123 235 133 236 133 236 124 237 125 238 133 239 124 240 133 241 133 241 125 242 126 243 133 244 125 245 133 246 133 246 126 247 127 248 133 249 126 250 133 251 133 251 127 252 128 253 133 254 127 255 133 256 133 256 128 257 129 258 133 259 128 260 133 261 133 261 129 262 130 263 133 264 129 265 133 266 133 266 130 267 131 268 133 269 130 270 133 271 133 271 131 272 132 273 133 274 131 275 133 276 133 276 132 277 122 278 133 279 132 280 133 281 133 281 0 282 0 282 1 283 0 284 1 285 2 286 0 287 0 287 3 288 0 289 3 290 1 291 0 292 0 292 4 293 0 294 4 295 3 296 0 297 0 297 5 298 0 299 5 300 4 301 0 302 0 302 6 303 0 304 6 305 5 306 0 307 0 307 7 308 0 309 7 310 6 311 0 312 0 312 8 313 0 314 8 315 7 316 0 317 0 317 9 318 0 319 9 320 8 321 0 322 0 322 10 323 0 324 10 325 9 326 0 327 0 327 11 328 0 329 11 330 10 331 0 332 0 332 12 333 0 334 12 335 11 336 0 337 0 337 2 338 0 339 2 340 12 341 2 342 1 343 13 344 2 345 13 346 14 347 1 348 3 349 15 350 1 351 15 352 13 353 3 354 4 355 16 356 3 357 16 358 15 359 4 360 5 361 17 362 4 363 17 364 16 365 5 366 6 367 18 368 5 369 18 370 17 371 6 372 7 373 19 374 6 375 19 376 18 377 7 378 8 379 20 380 7 381 20 382 19 383 8 384 9 385 21 386 8 387 21 388 20 389 9 390 10 391 22 392 9 393 22 394 21 395 10 396 11 397 23 398 10 399 23 400 22 401 11 402 12 403 24 404 11 405 24 406 23 407 12 408 2 409 14 410 12 411 14 412 24 413 14 414 13 415 25 416 14 417 25 418 26 419 13 420 15 421 27 422 13 423 27 424 25 425 15 426 16 427 28 428 15 429 28 430 27 431 16 432 17 433 29 434 16 435 29 436 28 437 17 438 18 439 30 440 17 441 30 442 29 443 18 444 19 445 31 446 18 447 31 448 30 449 19 450 20 451 32 452 19 453 32 454 31 455 20 456 21 457 33 458 20 459 33 460 32 461 21 462 22 463 34 464 21 465 34 466 33 467 22 468 23 469 35 470 22 471 35 472 34 473 23 474 24 475 36 476 23 477 36 478 35 479 24 480 14 481 26 482 24 483 26 484 36 485 26 486 25 487 37 488 26 489 37 490 38 491 25 492 27 493 39 494 25 495 39 496 37 497 27 498 28 499 40 500 27 501 40 502 39 503 28 504 29 505 41 506 28 507 41 508 40 509 29 510 30 511 42 512 29 513 42 514 41 515 30 516 31 517 43 518 30 519 43 520 42 521 31 522 32 523 44 524 31 525 44 526 43 527 32 528 33 529 45 530 32 531 45 532 44 533 33 534 34 535 46 536 33 537 46 538 45 539 34 540 35 541 47 542 34 543 47 544 46 545 35 546 36 547 48 548 35 549 48 550 47 551 36 552 26 553 38 554 36 555 38 556 48 557 38 558 37 559 49 560 38 561 49 562 50 563 37 564 39 565 51 566 37 567 51 568 49 569 39 570 40 571 52 572 39 573 52 574 51 575 40 576 41 577 53 578 40 579 53 580 52 581 41 582 42 583 54 584 41 585 54 586 53 587 42 588 43 589 55 590 42 591 55 592 54 593 43 594 44 595 56 596 43 597 56 598 55 599 44 600 45 601 57 602 44 603 57 604 56 605 45 606 46 607 58 608 45 609 58 610 57 611 46 612 47 613 59 614 46 615 59 616 58 617 47 618 48 619 60 620 47 621 60 622 59 623 48 624 38 625 50 626 48 627 50 628 60 629 50 630 49 631 61 632 50 633 61 634 62 635 49 636 51 637 63 638 49 639 63 640 61 641 51 642 52 643 64 644 51 645 64 646 63 647 52 648 53 649 65 650 52 651 65 652 64 653 53 654 54 655 66 656 53 657 66 658 65 659 54 660 55 661 67 662 54 663 67 664 66 665 55 666 56 667 68 668 55 669 68 670 67 671 56 672 57 673 69 674 56 675 69 676 68 677 57 678 58 679 70 680 57 681 70 682 69 683 58 684 59 685 71 686 58 687 71 688 70 689 59 690 60 691 72 692 59 693 72 694 71 695 60 696 50 697 62 698 60 699 62 700 72 701 62 702 61 703 73 704 62 705 73 706 74 707 61 708 63 709 75 710 61 711 75 712 73 713 63 714 64 715 76 716 63 717 76 718 75 719 64 720 65 721 77 722 64 723 77 724 76 725 65 726 66 727 78 728 65 729 78 730 77 731 66 732 67 733 79 734 66 735 79 736 78 737 67 738 68 739 80 740 67 741 80 742 79 743 68 744 69 745 81 746 68 747 81 748 80 749 69 750 70 751 82 752 69 753 82 754 81 755 70 756 71 757 83 758 70 759 83 760 82 761 71 762 72 763 84 764 71 765 84 766 83 767 72 768 62 769 74 770 72 771 74 772 84 773 74 774 73 775 85 776 74 777 85 778 86 779 73 780 75 781 87 782 73 783 87 784 85 785 75 786 76 787 88 788 75 789 88 790 87 791 76 792 77 793 89 794 76 795 89 796 88 797 77 798 78 799 90 800 77 801 90 802 89 803 78 804 79 805 91 806 78 807 91 808 90 809 79 810 80 811 92 812 79 813 92 814 91 815 80 816 81 817 93 818 80 819 93 820 92 821 81 822 82 823 94 824 81 825 94 826 93 827 82 828 83 829 95 830 82 831 95 832 94 833 83 834 84 835 96 836 83 837 96 838 95 839</p>
                </triangles>
            </mesh>
        </geometry>
    </library_geometries>
    <library_visual_scenes>
        <visual_scene id="Building_284_CROWN2">
            <node>
                <instance_geometry url="#geometry0">
                    <bind_material>
                        <technique_common>
                            <instance_material symbol="default_ai_0.2_sh_0.2_tr_0.0_dc_r_0.8_g_0.8_b_0.8_sc_r_1.0_g_1.0_b_1.0_ec_r_0.0_g_0.0_b_0_tri" target="#default_ai_0.2_sh_0.2_tr_0.0_dc_r_0.8_g_0.8_b_0.8_sc_r_1.0_g_1.0_b_1.0_ec_r_0.0_g_0.0_b_0_mat"/>
                        </technique_common>
                    </bind_material>
                </instance_geometry>
            </node>
        </visual_scene>
    </library_visual_scenes>
    <scene>
        <instance_visual_scene url="#Building_284_CROWN2"/>
    </scene>
</COLLADA>
