<?xml version="1.0" encoding="UTF-8" standalone="yes"?>
<COLLADA xmlns="http://www.collada.org/2005/11/COLLADASchema" version="1.4.1">
    <asset>
        <contributor>
            <authoring_tool>3D City Database Importer/Exporter, version 5.5.3; Chair of Geoinformatics, Technical University of Munich</authoring_tool>
        </contributor>
        <created>2026-09-25T14:45:35.832</created>
        <modified>2026-09-25T14:45:35.832</modified>
        <unit meter="1.0" name="meters"/>
        <up_axis>Z_UP</up_axis>
    </asset>
    <library_materials>
        <material id="default_ai_0.2_sh_0.2_tr_0.0_dc_r_0.8_g_0.8_b_0.8_sc_r_1.0_g_1.0_b_1.0_ec_r_0.0_g_0.0_b_0_mat">
            <instance_effect url="#default_ai_0.2_sh_0.2_tr_0.0_dc_r_0.8_g_0.8_b_0.8_sc_r_1.0_g_1.0_b_1.0_ec_r_0.0_g_0.0_b_0_eff"/>
        </material>
    </library_materials>
    <library_effects>
        <effect id="default_ai_0.2_sh_0.2_tr_0.0_dc_r_0.8_g_0.8_b_0.8_sc_r_1.0_g_1.0_b_1.0_ec_r_0.0_g_0.0_b_0_eff">
            <profile_COMMON>
                <technique sid="COMMON">
                    <lambert>
                        <emission>
                            <color>0.0 0.0 0.0 1.0</color>
                        </emission>
                        <diffuse>
                            <color>0.8 0.8 0.8 1.0</color>
                        </diffuse>
                        <reflective>
                            <color>1.0 1.0 1.0 1.0</color>
                        </reflective>
                        <reflectivity>
                            <float>0.2</float>
                        </reflectivity>
                        <transparent opaque="A_ONE">
                            <color>1.0 1.0 1.0 1.0</color>
                        </transparent>
                        <transparency>
                            <float>1.0</float>
                        </transparency>
                    </lambert>
                </technique>
                <extra>
                    <technique profile="GOOGLEEARTH">
                        <double_sided>0</double_sided>
                    </technique>
                </extra>
            </profile_COMMON>
        </effect>
    </library_effects>
    <library_geometries>
        <geometry id="geometry0">
            <mesh>
                <source id="geometry0-position">
                    <float_array id="geometry0-position-array" count="402">0.0 0.0 1.6 0.1793152 0.103528 1.5727408 0.2070552 0.0 1.5727408 0.103528 0.1793152 1.5727408 0.0 0.2070552 1.5727408 -0.103528 0.1793152 1.5727408 -0.1793152 0.103528 1.5727408 -0.2070552 0.0 1.5727408 -0.1793152 -0.103528 1.5727408 -0.103528 -0.1793152 1.5727408 0.0 -0.2070552 1.5727408 0.103528 -0.1793152 1.5727408 0.1793152 -0.103528 1.5727408 0.3464104 0.2 1.49282 0.4 0.0 1.49282 0.2 0.3464104 1.49282 0.0 0.4 1.49282 -0.2 0.3464104 1.49282 -0.3464104 0.2 1.49282 -0.4 0.0 1.49282 -0.3464104 -0.2 1.49282 -0.2 -0.3464104 1.49282 0.0 -0.4 1.49282 0.2 -0.3464104 1.49282 0.3464104 -0.2 1.49282 0.4898976 0.2828424 1.3656856 0.5656856 0.0 1.3656856 0.2828424 0.4898976 1.3656856 0.0 0.5656856 1.3656856 -0.2828424 0.4898976 1.3656856 -0.4898976 0.2828424 1.3656856 -0.5656856 0.0 1.3656856 -0.4898976 -0.2828424 1.3656856 -0.2828424 -0.4898976 1.3656856 0.0 -0.5656856 1.3656856 0.2828424 -0.4898976 1.3656856 0.4898976 -0.2828424 1.3656856 0.6 0.3464104 1.2 0.69282 0.0 1.2 0.3464104 0.6 1.2 0.0 0.69282 1.2 -0.3464104 0.6 1.2 -0.6 0.3464104 1.2 -0.69282 0.0 1.2 -0.6 -0.3464104 1.2 -0.3464104 -0.6 1.2 0.0 -0.69282 1.2 0.3464104 -0.6 1.2 0.6 -0.3464104 1.2 0.6692128 0.3863704 1.0070552 0.7727408 0.0 1.0070552 0.3863704 0.6692128 1.0070552 0.0 0.7727408 1.0070552 -0.3863704 0.6692128 1.0070552 -0.6692128 0.3863704 1.0070552 -0.7727408 0.0 1.0070552 -0.6692128 -0.3863704 1.0070552 -0.3863704 -0.6692128 1.0070552 0.0 -0.7727408 1.0070552 0.3863704 -0.6692128 1.0070552 0.6692128 -0.3863704 1.0070552 0.69282 0.4 0.8 0.8 0.0 0.8 0.4 0.69282 0.8 0.0 0.8 0.8 -0.4 0.69282 0.8 -0.69282 0.4 0.8 -0.8 0.0 0.8 -0.69282 -0.4 0.8 -0.4 -0.69282 0.8 0.0 -0.8 0.8 0.4 -0.69282 0.8 0.69282 -0.4 0.8 0.6692128 0.3863704 0.5929448 0.7727408 0.0 0.5929448 0.3863704 0.6692128 0.5929448 0.0 0.7727408 0.5929448 -0.3863704 0.6692128 0.5929448 -0.6692128 0.3863704 0.5929448 -0.7727408 0.0 0.5929448 -0.6692128 -0.3863704 0.5929448 -0.3863704 -0.6692128 0.5929448 0.0 -0.7727408 0.5929448 0.3863704 -0.6692128 0.5929448 0.6692128 -0.3863704 0.5929448 0.6 0.3464104 0.4 0.69282 0.0 0.4 0.3464104 0.6 0.4 0.0 0.69282 0.4 -0.3464104 0.6 0.4 -0.6 0.3464104 0.4 -0.69282 0.0 0.4 -0.6 -0.3464104 0.4 -0.3464104 -0.6 0.4 0.0 -0.69282 0.4 0.3464104 -0.6 0.4 0.6 -0.3464104 0.4 0.4898976 0.2828424 0.2343144 0.5656856 0.0 0.2343144 0.2828424 0.4898976 0.2343144 0.0 0.5656856 0.2343144 -0.2828424 0.4898976 0.2343144 -0.4898976 0.2828424 0.2343144 -0.5656856 0.0 0.2343144 -0.4898976 -0.2828424 0.2343144 -0.2828424 -0.4898976 0.2343144 0.0 -0.5656856 0.2343144 0.2828424 -0.4898976 0.2343144 0.4898976 -0.2828424 0.2343144 0.3464104 0.2 0.10718 0.4 0.0 0.10718 0.2 0.3464104 0.10718 0.0 0.4 0.10718 -0.2 0.3464104 0.10718 -0.3464104 0.2 0.10718 -0.4 0.0 0.10718 -0.3464104 -0.2 0.10718 -0.2 -0.3464104 0.10718 0.0 -0.4 0.10718 0.2 -0.3464104 0.10718 0.3464104 -0.2 0.10718 0.1793152 0.103528 0.0272592 0.2070552 0.0 0.0272592 0.103528 0.1793152 0.0272592 0.0 0.2070552 0.0272592 -0.103528 0.1793152 0.0272592 -0.1793152 0.103528 0.0272592 -0.2070552 0.0 0.0272592 -0.1793152 -0.103528 0.0272592 -0.103528 -0.1793152 0.0272592 0.0 -0.2070552 0.0272592 0.103528 -0.1793152 0.0272592 0.1793152 -0.103528 0.0272592 0.0 0.0 0.0</float_array>
                    <technique_common>
                        <accessor count="134" source="#geometry0-position-array" stride="3">
                            <param name="X" type="float"/>
                            <param name="Y" type="float"/>
                            <param name="Z" type="float"/>
                        </accessor>
                    </technique_common>
                </source>
                <source id="geometry0-normal">
                    <float_array id="geometry0-normal-array" count="2520">0.278684 -0.278684 0.9190595 0.278684 -0.278684 0.9190595 0.278684 -0.278684 0.9190595 0.278684 -0.278684 0.9190595 0.278684 -0.278684 0.9190595 0.278684 -0.278684 0.9190595 0.3806891 -0.1020049 0.9190597 0.3806891 -0.1020049 0.9190597 0.3806891 -0.1020049 0.9190597 0.3806895 -0.1020046 0.9190596 0.3806895 -0.1020046 0.9190596 0.3806895 -0.1020046 0.9190596 0.3806893 0.102005 0.9190596 0.3806893 0.102005 0.9190596 0.3806893 0.102005 0.9190596 0.3806892 0.1020045 0.9190598 0.3806892 0.1020045 0.9190598 0.3806892 0.1020045 0.9190598 0.278684 0.278684 0.9190595 0.278684 0.278684 0.9190595 0.278684 0.278684 0.9190595 0.278684 0.278684 0.9190595 0.278684 0.278684 0.9190595 0.278684 0.278684 0.9190595 0.1020049 0.3806891 0.9190597 0.1020049 0.3806891 0.9190597 0.1020049 0.3806891 0.9190597 0.1020046 0.3806895 0.9190596 0.1020046 0.3806895 0.9190596 0.1020046 0.3806895 0.9190596 -0.102005 0.3806893 0.9190596 -0.102005 0.3806893 0.9190596 -0.102005 0.3806893 0.9190596 -0.1020045 0.3806892 0.9190598 -0.1020045 0.3806892 0.9190598 -0.1020045 0.3806892 0.9190598 -0.278684 0.278684 0.9190595 -0.278684 0.278684 0.9190595 -0.278684 0.278684 0.9190595 -0.278684 0.278684 0.9190595 -0.278684 0.278684 0.9190595 -0.278684 0.278684 0.9190595 -0.3806891 0.1020049 0.9190597 -0.3806891 0.1020049 0.9190597 -0.3806891 0.1020049 0.9190597 -0.3806895 0.1020046 0.9190596 -0.3806895 0.1020046 0.9190596 -0.3806895 0.1020046 0.9190596 -0.1304458 -0.0349525 0.9908391 -0.1304458 -0.0349525 0.9908391 -0.1304458 -0.0349525 0.9908391 1.0 0.0 0.0 1.0 0.0 0.0 -0.0954928 -0.0954928 0.9908392 -0.0954928 -0.0954928 0.9908392 -0.0954928 -0.0954928 0.9908392 1.0 0.0 0.0 1.0 0.0 0.0 -0.0349525 -0.1304458 0.9908391 -0.0349525 -0.1304458 0.9908391 -0.0349525 -0.1304458 0.9908391 1.0 0.0 0.0 1.0 0.0 0.0 0.0349525 -0.1304458 0.9908391 0.0349525 -0.1304458 0.9908391 0.0349525 -0.1304458 0.9908391 1.0 0.0 0.0 1.0 0.0 0.0 0.0954928 -0.0954928 0.9908392 0.0954928 -0.0954928 0.9908392 0.0954928 -0.0954928 0.9908392 1.0 0.0 0.0 1.0 0.0 0.0 0.1304458 -0.0349525 0.9908391 0.1304458 -0.0349525 0.9908391 0.1304458 -0.0349525 0.9908391 1.0 0.0 0.0 1.0 0.0 0.0 0.1304458 0.0349525 0.9908391 0.1304458 0.0349525 0.9908391 0.1304458 0.0349525 0.9908391 1.0 0.0 0.0 1.0 0.0 0.0 0.0954928 0.0954928 0.9908392 0.0954928 0.0954928 0.9908392 0.0954928 0.0954928 0.9908392 1.0 0.0 0.0 1.0 0.0 0.0 0.0349525 0.1304458 0.9908391 0.0349525 0.1304458 0.9908391 0.0349525 0.1304458 0.9908391 1.0 0.0 0.0 1.0 0.0 0.0 -0.0349525 0.1304458 0.9908391 -0.0349525 0.1304458 0.9908391 -0.0349525 0.1304458 0.9908391 1.0 0.0 0.0 1.0 0.0 0.0 -0.0954928 0.0954928 0.9908392 -0.0954928 0.0954928 0.9908392 -0.0954928 0.0954928 0.9908392 1.0 0.0 0.0 1.0 0.0 0.0 -0.1304458 0.0349525 0.9908391 -0.1304458 0.0349525 0.9908391 -0.1304458 0.0349525 0.9908391 1.0 0.0 0.0 1.0 0.0 0.0 1.0 0.0 0.0 1.0 0.0 0.0 -0.1304459 -0.0349526 -0.9908391 -0.1304459 -0.0349526 -0.9908391 -0.1304459 -0.0349526 -0.9908391 1.0 0.0 0.0 1.0 0.0 0.0 -0.0954929 -0.0954929 -0.9908391 -0.0954929 -0.0954929 -0.9908391 -0.0954929 -0.0954929 -0.9908391 1.0 0.0 0.0 1.0 0.0 0.0 -0.0349526 -0.130446 -0.9908391 -0.0349526 -0.130446 -0.9908391 -0.0349526 -0.130446 -0.9908391 1.0 0.0 0.0 1.0 0.0 0.0 0.0349526 -0.1304459 -0.9908391 0.0349526 -0.1304459 -0.9908391 0.0349526 -0.1304459 -0.9908391 1.0 0.0 0.0 1.0 0.0 0.0 0.0954929 -0.0954929 -0.9908391 0.0954929 -0.0954929 -0.9908391 0.0954929 -0.0954929 -0.9908391 1.0 0.0 0.0 1.0 0.0 0.0 0.130446 -0.0349526 -0.9908391 0.130446 -0.0349526 -0.9908391 0.130446 -0.0349526 -0.9908391 1.0 0.0 0.0 1.0 0.0 0.0 0.1304459 0.0349526 -0.9908391 0.1304459 0.0349526 -0.9908391 0.1304459 0.0349526 -0.9908391 1.0 0.0 0.0 1.0 0.0 0.0 0.0954929 0.0954929 -0.9908391 0.0954929 0.0954929 -0.9908391 0.0954929 0.0954929 -0.9908391 1.0 0.0 0.0 1.0 0.0 0.0 0.0349526 0.130446 -0.9908391 0.0349526 0.130446 -0.9908391 0.0349526 0.130446 -0.9908391 1.0 0.0 0.0 1.0 0.0 0.0 -0.0349526 0.1304459 -0.9908391 -0.0349526 0.1304459 -0.9908391 -0.0349526 0.1304459 -0.9908391 1.0 0.0 0.0 1.0 0.0 0.0 -0.0954929 0.0954929 -0.9908391 -0.0954929 0.0954929 -0.9908391 -0.0954929 0.0954929 -0.9908391 1.0 0.0 0.0 1.0 0.0 0.0 -0.130446 0.0349526 -0.9908391 -0.130446 0.0349526 -0.9908391 -0.130446 0.0349526 -0.9908391 -0.3806894 -0.1020045 -0.9190596 -0.3806894 -0.1020045 -0.9190596 -0.3806894 -0.1020045 -0.9190596 -0.380689 -0.1020049 -0.9190598 -0.380689 -0.1020049 -0.9190598 -0.380689 -0.1020049 -0.9190598 -0.278684 -0.278684 -0.9190596 -0.278684 -0.278684 -0.9190596 -0.278684 -0.278684 -0.9190596 -0.2786839 -0.2786839 -0.9190596 -0.2786839 -0.2786839 -0.9190596 -0.2786839 -0.2786839 -0.9190596 -0.1020044 -0.380689 -0.9190598 -0.1020044 -0.380689 -0.9190598 -0.1020044 -0.380689 -0.9190598 -0.1020049 -0.3806892 -0.9190597 -0.1020049 -0.3806892 -0.9190597 -0.1020049 -0.3806892 -0.9190597 0.1020045 -0.3806894 -0.9190596 0.1020045 -0.3806894 -0.9190596 0.1020045 -0.3806894 -0.9190596 0.1020049 -0.380689 -0.9190598 0.1020049 -0.380689 -0.9190598 0.1020049 -0.380689 -0.9190598 0.278684 -0.278684 -0.9190596 0.278684 -0.278684 -0.9190596 0.278684 -0.278684 -0.9190596 0.2786839 -0.2786839 -0.9190596 0.2786839 -0.2786839 -0.9190596 0.2786839 -0.2786839 -0.9190596 0.380689 -0.1020044 -0.9190598 0.380689 -0.1020044 -0.9190598 0.380689 -0.1020044 -0.9190598 0.3806892 -0.1020049 -0.9190597 0.3806892 -0.1020049 -0.9190597 0.3806892 -0.1020049 -0.9190597 0.3806894 0.1020045 -0.9190596 0.3806894 0.1020045 -0.9190596 0.3806894 0.1020045 -0.9190596 0.380689 0.1020049 -0.9190598 0.380689 0.1020049 -0.9190598 0.380689 0.1020049 -0.9190598 0.278684 0.278684 -0.9190596 0.278684 0.278684 -0.9190596 0.278684 0.278684 -0.9190596 0.2786839 0.2786839 -0.9190596 0.2786839 0.2786839 -0.9190596 0.2786839 0.2786839 -0.9190596 0.1020044 0.380689 -0.9190598 0.1020044 0.380689 -0.9190598 0.1020044 0.380689 -0.9190598 0.1020049 0.3806892 -0.9190597 0.1020049 0.3806892 -0.9190597 0.1020049 0.3806892 -0.9190597 -0.1020045 0.3806894 -0.9190596 -0.1020045 0.3806894 -0.9190596 -0.1020045 0.3806894 -0.9190596 -0.1020049 0.380689 -0.9190598 -0.1020049 0.380689 -0.9190598 -0.1020049 0.380689 -0.9190598 -0.278684 0.278684 -0.9190596 -0.278684 0.278684 -0.9190596 -0.278684 0.278684 -0.9190596 -0.2786839 0.2786839 -0.9190596 -0.2786839 0.2786839 -0.9190596 -0.2786839 0.2786839 -0.9190596 -0.380689 0.1020044 -0.9190598 -0.380689 0.1020044 -0.9190598 -0.380689 0.1020044 -0.9190598 -0.3806892 0.1020049 -0.9190597 -0.3806892 0.1020049 -0.9190597 -0.3806892 0.1020049 -0.9190597 -0.6008213 -0.1609889 -0.7830048 -0.6008213 -0.1609889 -0.7830048 -0.6008213 -0.1609889 -0.7830048 -0.6008191 -0.1609902 -0.7830062 -0.6008191 -0.1609902 -0.7830062 -0.6008191 -0.1609902 -0.7830062 -0.4398315 -0.4398315 -0.7830048 -0.4398315 -0.4398315 -0.7830048 -0.4398315 -0.4398315 -0.7830048 -0.4398315 -0.4398315 -0.7830049 -0.4398315 -0.4398315 -0.7830049 -0.4398315 -0.4398315 -0.7830049 -0.1609883 -0.6008191 -0.7830064 -0.1609883 -0.6008191 -0.7830064 -0.1609883 -0.6008191 -0.7830064 -0.1609907 -0.6008204 -0.783005 -0.1609907 -0.6008204 -0.783005 -0.1609907 -0.6008204 -0.783005 0.1609889 -0.6008213 -0.7830048 0.1609889 -0.6008213 -0.7830048 0.1609889 -0.6008213 -0.7830048 0.1609903 -0.6008189 -0.7830062 0.1609903 -0.6008189 -0.7830062 0.1609903 -0.6008189 -0.7830062 0.4398315 -0.4398315 -0.7830048 0.4398315 -0.4398315 -0.7830048 0.4398315 -0.4398315 -0.7830048 0.4398315 -0.4398315 -0.7830049 0.4398315 -0.4398315 -0.7830049 0.4398315 -0.4398315 -0.7830049 0.6008193 -0.1609884 -0.7830064 0.6008193 -0.1609884 -0.7830064 0.6008193 -0.1609884 -0.7830064 0.6008204 -0.1609906 -0.783005 0.6008204 -0.1609906 -0.783005 0.6008204 -0.1609906 -0.783005 0.6008213 0.1609889 -0.7830048 0.6008213 0.1609889 -0.7830048 0.6008213 0.1609889 -0.7830048 0.6008191 0.1609902 -0.7830062 0.6008191 0.1609902 -0.7830062 0.6008191 0.1609902 -0.7830062 0.4398315 0.4398315 -0.7830048 0.4398315 0.4398315 -0.7830048 0.4398315 0.4398315 -0.7830048 0.4398315 0.4398315 -0.7830049 0.4398315 0.4398315 -0.7830049 0.4398315 0.4398315 -0.7830049 0.1609883 0.6008191 -0.7830064 0.1609883 0.6008191 -0.7830064 0.1609883 0.6008191 -0.7830064 0.1609907 0.6008204 -0.783005 0.1609907 0.6008204 -0.783005 0.1609907 0.6008204 -0.783005 -0.1609889 0.6008213 -0.7830048 -0.1609889 0.6008213 -0.7830048 -0.1609889 0.6008213 -0.7830048 -0.1609903 0.6008189 -0.7830062 -0.1609903 0.6008189 -0.7830062 -0.1609903 0.6008189 -0.7830062 -0.4398315 0.4398315 -0.7830048 -0.4398315 0.4398315 -0.7830048 -0.4398315 0.4398315 -0.7830048 -0.4398315 0.4398315 -0.7830049 -0.4398315 0.4398315 -0.7830049 -0.4398315 0.4398315 -0.7830049 -0.6008193 0.1609884 -0.7830064 -0.6008193 0.1609884 -0.7830064 -0.6008193 0.1609884 -0.7830064 -0.6008204 0.1609906 -0.783005 -0.6008204 0.1609906 -0.783005 -0.6008204 0.1609906 -0.783005 -0.7760118 -0.2079333 -0.5954574 -0.7760118 -0.2079333 -0.5954574 -0.7760118 -0.2079333 -0.5954574 -0.7760145 -0.2079316 -0.5954543 -0.7760145 -0.2079316 -0.5954543 -0.7760145 -0.2079316 -0.5954543 -0.5680802 -0.5680802 -0.5954577 -0.5680802 -0.5680802 -0.5954577 -0.5680802 -0.5680802 -0.5954577 -0.5680802 -0.5680802 -0.5954577 -0.5680802 -0.5680802 -0.5954577 -0.5680802 -0.5680802 -0.5954577 -0.2079341 -0.7760143 -0.5954539 -0.2079341 -0.7760143 -0.5954539 -0.2079341 -0.7760143 -0.5954539 -0.2079311 -0.7760127 -0.5954571 -0.2079311 -0.7760127 -0.5954571 -0.2079311 -0.7760127 -0.5954571 0.2079335 -0.7760118 -0.5954574 0.2079335 -0.7760118 -0.5954574 0.2079335 -0.7760118 -0.5954574 0.2079316 -0.7760146 -0.5954542 0.2079316 -0.7760146 -0.5954542 0.2079316 -0.7760146 -0.5954542 0.5680802 -0.5680802 -0.5954577 0.5680802 -0.5680802 -0.5954577 0.5680802 -0.5680802 -0.5954577 0.5680802 -0.5680802 -0.5954577 0.5680802 -0.5680802 -0.5954577 0.5680802 -0.5680802 -0.5954577 0.7760142 -0.2079339 -0.5954541 0.7760142 -0.2079339 -0.5954541 0.7760142 -0.2079339 -0.5954541 0.7760127 -0.2079311 -0.5954571 0.7760127 -0.2079311 -0.5954571 0.7760127 -0.2079311 -0.5954571 0.7760118 0.2079333 -0.5954574 0.7760118 0.2079333 -0.5954574 0.7760118 0.2079333 -0.5954574 0.7760145 0.2079316 -0.5954543 0.7760145 0.2079316 -0.5954543 0.7760145 0.2079316 -0.5954543 0.5680802 0.5680802 -0.5954577 0.5680802 0.5680802 -0.5954577 0.5680802 0.5680802 -0.5954577 0.5680802 0.5680802 -0.5954577 0.5680802 0.5680802 -0.5954577 0.5680802 0.5680802 -0.5954577 0.2079341 0.7760143 -0.5954539 0.2079341 0.7760143 -0.5954539 0.2079341 0.7760143 -0.5954539 0.2079311 0.7760127 -0.5954571 0.2079311 0.7760127 -0.5954571 0.2079311 0.7760127 -0.5954571 -0.2079335 0.7760118 -0.5954574 -0.2079335 0.7760118 -0.5954574 -0.2079335 0.7760118 -0.5954574 -0.2079316 0.7760146 -0.5954542 -0.2079316 0.7760146 -0.5954542 -0.2079316 0.7760146 -0.5954542 -0.5680802 0.5680802 -0.5954577 -0.5680802 0.5680802 -0.5954577 -0.5680802 0.5680802 -0.5954577 -0.5680802 0.5680802 -0.5954577 -0.5680802 0.5680802 -0.5954577 -0.5680802 0.5680802 -0.5954577 -0.7760142 0.2079339 -0.5954541 -0.7760142 0.2079339 -0.5954541 -0.7760142 0.2079339 -0.5954541 -0.7760127 0.2079311 -0.5954571 -0.7760127 0.2079311 -0.5954571 -0.7760127 0.2079311 -0.5954571 -0.8968096 -0.2402984 -0.3714689 -0.8968096 -0.2402984 -0.3714689 -0.8968096 -0.2402984 -0.3714689 -0.896808 -0.2402997 -0.3714719 -0.896808 -0.2402997 -0.3714719 -0.896808 -0.2402997 -0.3714719 -0.65651 -0.65651 -0.3714689 -0.65651 -0.65651 -0.3714689 -0.65651 -0.65651 -0.3714689 -0.65651 -0.65651 -0.371469 -0.65651 -0.65651 -0.371469 -0.65651 -0.65651 -0.371469 -0.240298 -0.8968084 -0.371472 -0.240298 -0.8968084 -0.371472 -0.240298 -0.8968084 -0.371472 -0.2403001 -0.8968092 -0.3714691 -0.2403001 -0.8968092 -0.3714691 -0.2403001 -0.8968092 -0.3714691 0.2402984 -0.8968096 -0.3714689 0.2402984 -0.8968096 -0.3714689 0.2402984 -0.8968096 -0.3714689 0.2402997 -0.896808 -0.3714719 0.2402997 -0.896808 -0.3714719 0.2402997 -0.896808 -0.3714719 0.65651 -0.65651 -0.3714689 0.65651 -0.65651 -0.3714689 0.65651 -0.65651 -0.3714689 0.65651 -0.65651 -0.371469 0.65651 -0.65651 -0.371469 0.65651 -0.65651 -0.371469 0.8968084 -0.240298 -0.371472 0.8968084 -0.240298 -0.371472 0.8968084 -0.240298 -0.371472 0.8968092 -0.2403001 -0.3714691 0.8968092 -0.2403001 -0.3714691 0.8968092 -0.2403001 -0.3714691 0.8968096 0.2402984 -0.3714689 0.8968096 0.2402984 -0.3714689 0.8968096 0.2402984 -0.3714689 0.896808 0.2402997 -0.3714719 0.896808 0.2402997 -0.3714719 0.896808 0.2402997 -0.3714719 0.65651 0.65651 -0.3714689 0.65651 0.65651 -0.3714689 0.65651 0.65651 -0.3714689 0.65651 0.65651 -0.371469 0.65651 0.65651 -0.371469 0.65651 0.65651 -0.371469 0.240298 0.8968084 -0.371472 0.240298 0.8968084 -0.371472 0.240298 0.8968084 -0.371472 0.2403001 0.8968092 -0.3714691 0.2403001 0.8968092 -0.3714691 0.2403001 0.8968092 -0.3714691 -0.2402984 0.8968096 -0.3714689 -0.2402984 0.8968096 -0.3714689 -0.2402984 0.8968096 -0.3714689 -0.2402997 0.896808 -0.3714719 -0.2402997 0.896808 -0.3714719 -0.2402997 0.896808 -0.3714719 -0.65651 0.65651 -0.3714689 -0.65651 0.65651 -0.3714689 -0.65651 0.65651 -0.3714689 -0.65651 0.65651 -0.371469 -0.65651 0.65651 -0.371469 -0.65651 0.65651 -0.371469 -0.8968084 0.240298 -0.371472 -0.8968084 0.240298 -0.371472 -0.8968084 0.240298 -0.371472 -0.8968092 0.2403001 -0.3714691 -0.8968092 0.2403001 -0.3714691 -0.8968092 0.2403001 -0.3714691 -0.958209 -0.2567521 -0.1261502 -0.958209 -0.2567521 -0.1261502 -0.958209 -0.2567521 -0.1261502 -0.958209 -0.2567521 -0.1261502 -0.958209 -0.2567521 -0.1261502 -0.958209 -0.2567521 -0.1261502 -0.7014578 -0.7014578 -0.1261502 -0.7014578 -0.7014578 -0.1261502 -0.7014578 -0.7014578 -0.1261502 -0.7014578 -0.7014578 -0.1261502 -0.7014578 -0.7014578 -0.1261502 -0.7014578 -0.7014578 -0.1261502 -0.2567521 -0.958209 -0.1261501 -0.2567521 -0.958209 -0.1261501 -0.2567521 -0.958209 -0.1261501 -0.2567521 -0.9582091 -0.1261502 -0.2567521 -0.9582091 -0.1261502 -0.2567521 -0.9582091 -0.1261502 0.2567521 -0.958209 -0.1261502 0.2567521 -0.958209 -0.1261502 0.2567521 -0.958209 -0.1261502 0.2567521 -0.958209 -0.1261502 0.2567521 -0.958209 -0.1261502 0.2567521 -0.958209 -0.1261502 0.7014578 -0.7014578 -0.1261502 0.7014578 -0.7014578 -0.1261502 0.7014578 -0.7014578 -0.1261502 0.7014578 -0.7014578 -0.1261502 0.7014578 -0.7014578 -0.1261502 0.7014578 -0.7014578 -0.1261502 0.958209 -0.2567521 -0.1261501 0.958209 -0.2567521 -0.1261501 0.958209 -0.2567521 -0.1261501 0.9582091 -0.2567521 -0.1261502 0.9582091 -0.2567521 -0.1261502 0.9582091 -0.2567521 -0.1261502 0.958209 0.2567521 -0.1261502 0.958209 0.2567521 -0.1261502 0.958209 0.2567521 -0.1261502 0.958209 0.2567521 -0.1261502 0.958209 0.2567521 -0.1261502 0.958209 0.2567521 -0.1261502 0.7014578 0.7014578 -0.1261502 0.7014578 0.7014578 -0.1261502 0.7014578 0.7014578 -0.1261502 0.7014578 0.7014578 -0.1261502 0.7014578 0.7014578 -0.1261502 0.7014578 0.7014578 -0.1261502 0.2567521 0.958209 -0.1261501 0.2567521 0.958209 -0.1261501 0.2567521 0.958209 -0.1261501 0.2567521 0.9582091 -0.1261502 0.2567521 0.9582091 -0.1261502 0.2567521 0.9582091 -0.1261502 -0.2567521 0.958209 -0.1261502 -0.2567521 0.958209 -0.1261502 -0.2567521 0.958209 -0.1261502 -0.2567521 0.958209 -0.1261502 -0.2567521 0.958209 -0.1261502 -0.2567521 0.958209 -0.1261502 -0.7014578 0.7014578 -0.1261502 -0.7014578 0.7014578 -0.1261502 -0.7014578 0.7014578 -0.1261502 -0.7014578 0.7014578 -0.1261502 -0.7014578 0.7014578 -0.1261502 -0.7014578 0.7014578 -0.1261502 -0.958209 0.2567521 -0.1261501 -0.958209 0.2567521 -0.1261501 -0.958209 0.2567521 -0.1261501 -0.9582091 0.2567521 -0.1261502 -0.9582091 0.2567521 -0.1261502 -0.9582091 0.2567521 -0.1261502 -0.958209 -0.2567521 0.1261502 -0.958209 -0.2567521 0.1261502 -0.958209 -0.2567521 0.1261502 -0.958209 -0.2567521 0.1261501 -0.958209 -0.2567521 0.1261501 -0.958209 -0.2567521 0.1261501 -0.7014578 -0.7014578 0.1261502 -0.7014578 -0.7014578 0.1261502 -0.7014578 -0.7014578 0.1261502 -0.7014578 -0.7014578 0.1261501 -0.7014578 -0.7014578 0.1261501 -0.7014578 -0.7014578 0.1261501 -0.2567521 -0.958209 0.1261501 -0.2567521 -0.958209 0.1261501 -0.2567521 -0.958209 0.1261501 -0.2567521 -0.958209 0.1261502 -0.2567521 -0.958209 0.1261502 -0.2567521 -0.958209 0.1261502 0.2567521 -0.958209 0.1261502 0.2567521 -0.958209 0.1261502 0.2567521 -0.958209 0.1261502 0.2567521 -0.958209 0.1261501 0.2567521 -0.958209 0.1261501 0.2567521 -0.958209 0.1261501 0.7014578 -0.7014578 0.1261502 0.7014578 -0.7014578 0.1261502 0.7014578 -0.7014578 0.1261502 0.7014578 -0.7014578 0.1261501 0.7014578 -0.7014578 0.1261501 0.7014578 -0.7014578 0.1261501 0.958209 -0.2567521 0.1261501 0.958209 -0.2567521 0.1261501 0.958209 -0.2567521 0.1261501 0.958209 -0.2567521 0.1261502 0.958209 -0.2567521 0.1261502 0.958209 -0.2567521 0.1261502 0.958209 0.2567521 0.1261502 0.958209 0.2567521 0.1261502 0.958209 0.2567521 0.1261502 0.958209 0.2567521 0.1261501 0.958209 0.2567521 0.1261501 0.958209 0.2567521 0.1261501 0.7014578 0.7014578 0.1261502 0.7014578 0.7014578 0.1261502 0.7014578 0.7014578 0.1261502 0.7014578 0.7014578 0.1261501 0.7014578 0.7014578 0.1261501 0.7014578 0.7014578 0.1261501 0.2567521 0.958209 0.1261501 0.2567521 0.958209 0.1261501 0.2567521 0.958209 0.1261501 0.2567521 0.958209 0.1261502 0.2567521 0.958209 0.1261502 0.2567521 0.958209 0.1261502 -0.2567521 0.958209 0.1261502 -0.2567521 0.958209 0.1261502 -0.2567521 0.958209 0.1261502 -0.2567521 0.958209 0.1261501 -0.2567521 0.958209 0.1261501 -0.2567521 0.958209 0.1261501 -0.7014578 0.7014578 0.1261502 -0.7014578 0.7014578 0.1261502 -0.7014578 0.7014578 0.1261502 -0.7014578 0.7014578 0.1261501 -0.7014578 0.7014578 0.1261501 -0.7014578 0.7014578 0.1261501 -0.958209 0.2567521 0.1261501 -0.958209 0.2567521 0.1261501 -0.958209 0.2567521 0.1261501 -0.958209 0.2567521 0.1261502 -0.958209 0.2567521 0.1261502 -0.958209 0.2567521 0.1261502 -0.8968092 -0.2403 0.3714692 -0.8968092 -0.2403 0.3714692 -0.8968092 -0.2403 0.3714692 -0.8968084 -0.240298 0.3714721 -0.8968084 -0.240298 0.3714721 -0.8968084 -0.240298 0.3714721 -0.65651 -0.65651 0.3714691 -0.65651 -0.65651 0.3714691 -0.65651 -0.65651 0.3714691 -0.65651 -0.65651 0.3714691 -0.65651 -0.65651 0.3714691 -0.65651 -0.65651 0.3714691 -0.2402997 -0.896808 0.371472 -0.2402997 -0.896808 0.371472 -0.2402997 -0.896808 0.371472 -0.2402984 -0.8968096 0.371469 -0.2402984 -0.8968096 0.371469 -0.2402984 -0.8968096 0.371469 0.2403 -0.8968092 0.3714692 0.2403 -0.8968092 0.3714692 0.2403 -0.8968092 0.3714692 0.240298 -0.8968084 0.3714721 0.240298 -0.8968084 0.3714721 0.240298 -0.8968084 0.3714721 0.65651 -0.65651 0.3714691 0.65651 -0.65651 0.3714691 0.65651 -0.65651 0.3714691 0.65651 -0.65651 0.3714691 0.65651 -0.65651 0.3714691 0.65651 -0.65651 0.3714691 0.896808 -0.2402997 0.371472 0.896808 -0.2402997 0.371472 0.896808 -0.2402997 0.371472 0.8968096 -0.2402984 0.371469 0.8968096 -0.2402984 0.371469 0.8968096 -0.2402984 0.371469 0.8968092 0.2403 0.3714692 0.8968092 0.2403 0.3714692 0.8968092 0.2403 0.3714692 0.8968084 0.240298 0.3714721 0.8968084 0.240298 0.3714721 0.8968084 0.240298 0.3714721 0.65651 0.65651 0.3714691 0.65651 0.65651 0.3714691 0.65651 0.65651 0.3714691 0.65651 0.65651 0.3714691 0.65651 0.65651 0.3714691 0.65651 0.65651 0.3714691 0.2402997 0.896808 0.371472 0.2402997 0.896808 0.371472 0.2402997 0.896808 0.371472 0.2402984 0.8968096 0.371469 0.2402984 0.8968096 0.371469 0.2402984 0.8968096 0.371469 -0.2403 0.8968092 0.3714692 -0.2403 0.8968092 0.3714692 -0.2403 0.8968092 0.3714692 -0.240298 0.8968084 0.3714721 -0.240298 0.8968084 0.3714721 -0.240298 0.8968084 0.3714721 -0.65651 0.65651 0.3714691 -0.65651 0.65651 0.3714691 -0.65651 0.65651 0.3714691 -0.65651 0.65651 0.3714691 -0.65651 0.65651 0.3714691 -0.65651 0.65651 0.3714691 -0.896808 0.2402997 0.371472 -0.896808 0.2402997 0.371472 -0.896808 0.2402997 0.371472 -0.8968096 0.2402984 0.371469 -0.8968096 0.2402984 0.371469 -0.8968096 0.2402984 0.371469 -0.7760127 -0.2079311 0.5954569 -0.7760127 -0.2079311 0.5954569 -0.7760127 -0.2079311 0.5954569 -0.7760143 -0.207934 0.5954539 -0.7760143 -0.207934 0.5954539 -0.7760143 -0.207934 0.5954539 -0.5680803 -0.5680803 0.5954575 -0.5680803 -0.5680803 0.5954575 -0.5680803 -0.5680803 0.5954575 -0.5680802 -0.5680802 0.5954576 -0.5680802 -0.5680802 0.5954576 -0.5680802 -0.5680802 0.5954576 -0.2079316 -0.7760147 0.595454 -0.2079316 -0.7760147 0.595454 -0.2079316 -0.7760147 0.595454 -0.2079335 -0.7760118 0.5954572 -0.2079335 -0.7760118 0.5954572 -0.2079335 -0.7760118 0.5954572 0.2079311 -0.7760127 0.5954569 0.2079311 -0.7760127 0.5954569 0.2079311 -0.7760127 0.5954569 0.2079341 -0.7760144 0.5954537 0.2079341 -0.7760144 0.5954537 0.2079341 -0.7760144 0.5954537 0.5680803 -0.5680803 0.5954575 0.5680803 -0.5680803 0.5954575 0.5680803 -0.5680803 0.5954575 0.5680802 -0.5680802 0.5954576 0.5680802 -0.5680802 0.5954576 0.5680802 -0.5680802 0.5954576 0.7760147 -0.2079316 0.5954542 0.7760147 -0.2079316 0.5954542 0.7760147 -0.2079316 0.5954542 0.776012 -0.2079334 0.5954572 0.776012 -0.2079334 0.5954572 0.776012 -0.2079334 0.5954572 0.7760127 0.2079311 0.5954569 0.7760127 0.2079311 0.5954569 0.7760127 0.2079311 0.5954569 0.7760143 0.207934 0.5954539 0.7760143 0.207934 0.5954539 0.7760143 0.207934 0.5954539 0.5680803 0.5680803 0.5954575 0.5680803 0.5680803 0.5954575 0.5680803 0.5680803 0.5954575 0.5680802 0.5680802 0.5954576 0.5680802 0.5680802 0.5954576 0.5680802 0.5680802 0.5954576 0.2079316 0.7760147 0.595454 0.2079316 0.7760147 0.595454 0.2079316 0.7760147 0.595454 0.2079335 0.7760118 0.5954572 0.2079335 0.7760118 0.5954572 0.2079335 0.7760118 0.5954572 -0.2079311 0.7760127 0.5954569 -0.2079311 0.7760127 0.5954569 -0.2079311 0.7760127 0.5954569 -0.2079341 0.7760144 0.5954537 -0.2079341 0.7760144 0.5954537 -0.2079341 0.7760144 0.5954537 -0.5680803 0.5680803 0.5954575 -0.5680803 0.5680803 0.5954575 -0.5680803 0.5680803 0.5954575 -0.5680802 0.5680802 0.5954576 -0.5680802 0.5680802 0.5954576 -0.5680802 0.5680802 0.5954576 -0.7760147 0.2079316 0.5954542 -0.7760147 0.2079316 0.5954542 -0.7760147 0.2079316 0.5954542 -0.776012 0.2079334 0.5954572 -0.776012 0.2079334 0.5954572 -0.776012 0.2079334 0.5954572 -0.6008204 -0.1609905 0.7830051 -0.6008204 -0.1609905 0.7830051 -0.6008204 -0.1609905 0.7830051 -0.6008192 -0.1609883 0.7830065 -0.6008192 -0.1609883 0.7830065 -0.6008192 -0.1609883 0.7830065 -0.4398314 -0.4398314 0.7830049 -0.4398314 -0.4398314 0.7830049 -0.4398314 -0.4398314 0.7830049 -0.4398313 -0.4398313 0.783005 -0.4398313 -0.4398313 0.783005 -0.4398313 -0.4398313 0.783005 -0.1609902 -0.6008188 0.7830063 -0.1609902 -0.6008188 0.7830063 -0.1609902 -0.6008188 0.7830063 -0.1609889 -0.6008211 0.7830049 -0.1609889 -0.6008211 0.7830049 -0.1609889 -0.6008211 0.7830049 0.1609906 -0.6008203 0.7830051 0.1609906 -0.6008203 0.7830051 0.1609906 -0.6008203 0.7830051 0.1609883 -0.6008189 0.7830066 0.1609883 -0.6008189 0.7830066 0.1609883 -0.6008189 0.7830066 0.4398314 -0.4398314 0.7830049 0.4398314 -0.4398314 0.7830049 0.4398314 -0.4398314 0.7830049 0.4398313 -0.4398313 0.783005 0.4398313 -0.4398313 0.783005 0.4398313 -0.4398313 0.783005 0.6008189 -0.1609901 0.7830063 0.6008189 -0.1609901 0.7830063 0.6008189 -0.1609901 0.7830063 0.6008211 -0.1609889 0.7830049 0.6008211 -0.1609889 0.7830049 0.6008211 -0.1609889 0.7830049 0.6008204 0.1609905 0.7830051 0.6008204 0.1609905 0.7830051 0.6008204 0.1609905 0.7830051 0.6008192 0.1609883 0.7830065 0.6008192 0.1609883 0.7830065 0.6008192 0.1609883 0.7830065 0.4398314 0.4398314 0.7830049 0.4398314 0.4398314 0.7830049 0.4398314 0.4398314 0.7830049 0.4398313 0.4398313 0.783005 0.4398313 0.4398313 0.783005 0.4398313 0.4398313 0.783005 0.1609902 0.6008188 0.7830063 0.1609902 0.6008188 0.7830063 0.1609902 0.6008188 0.7830063 0.1609889 0.6008211 0.7830049 0.1609889 0.6008211 0.7830049 0.1609889 0.6008211 0.7830049 -0.1609906 0.6008203 0.7830051 -0.1609906 0.6008203 0.7830051 -0.1609906 0.6008203 0.7830051 -0.1609883 0.6008189 0.7830066 -0.1609883 0.6008189 0.7830066 -0.1609883 0.6008189 0.7830066 -0.4398314 0.4398314 0.7830049 -0.4398314 0.4398314 0.7830049 -0.4398314 0.4398314 0.7830049 -0.4398313 0.4398313 0.783005 -0.4398313 0.4398313 0.783005 -0.4398313 0.4398313 0.783005 -0.6008189 0.1609901 0.7830063 -0.6008189 0.1609901 0.7830063 -0.6008189 0.1609901 0.7830063 -0.6008211 0.1609889 0.7830049 -0.6008211 0.1609889 0.7830049 -0.6008211 0.1609889 0.7830049 -0.3806893 -0.102005 0.9190596 -0.3806893 -0.102005 0.9190596 -0.3806893 -0.102005 0.9190596 -0.3806892 -0.1020045 0.9190598 -0.3806892 -0.1020045 0.9190598 -0.3806892 -0.1020045 0.9190598 -0.278684 -0.278684 0.9190595 -0.278684 -0.278684 0.9190595 -0.278684 -0.278684 0.9190595 -0.278684 -0.278684 0.9190595 -0.278684 -0.278684 0.9190595 -0.278684 -0.278684 0.9190595 -0.1020049 -0.3806891 0.9190597 -0.1020049 -0.3806891 0.9190597 -0.1020049 -0.3806891 0.9190597 -0.1020046 -0.3806895 0.9190596 -0.1020046 -0.3806895 0.9190596 -0.1020046 -0.3806895 0.9190596 0.102005 -0.3806893 0.9190596 0.102005 -0.3806893 0.9190596 0.102005 -0.3806893 0.9190596 0.1020045 -0.3806892 0.9190598 0.1020045 -0.3806892 0.9190598 0.1020045 -0.3806892 0.9190598</float_array>
                    <technique_common>
                        <accessor count="840" source="#geometry0-normal-array" stride="3">
                            <param name="X" type="float"/>
                            <param name="Y" type="float"/>
                            <param name="Z" type="float"/>
                        </accessor>
                    </technique_common>
                </source>
                <vertices id="geometry0-vertex">
                    <input semantic="POSITION" source="#geometry0-position"/>
                </vertices>
                <triangles count="288" material="default_ai_0.2_sh_0.2_tr_0.0_dc_r_0.8_g_0.8_b_0.8_sc_r_1.0_g_1.0_b_1.0_ec_r_0.0_g_0.0_b_0_tri">
                    <input offset="0" semantic="VERTEX" source="#geometry0-vertex"/>
                    <input offset="1" semantic="NORMAL" source="#geometry0-normal"/>
                    <p>113 0 114 1 126 2 113 3 126 4 125 5 114 6 115 7 127 8 114 9 127 10 126 11 115 12 116 13 128 14 115 15 128 16 127 17 116 18 117 19 129 20 116 21 129 22 128 23 117 24 118 25 130 26 117 27 130 28 129 29 118 30 119 31 131 32 118 33 131 34 130 35 119 36 120 37 132 38 119 39 132 40 131 41 120 42 110 43 122 44 120 45 122 46 132 47 122 48 121 49 133 50 122 51 133 52 133 52 121 53 123 54 133 55 121 56 133 57 133 57 123 58 124 59 133 60 123 61 133 62 133 62 124 63 125 64 133 65 124 66 133 67 133 67 125 68 126 69 133 70 125 71 133 72 133 72 126 73 127 74 133 75 126 76 133 77 133 77 127 78 128 79 133 80 127 81 133 82 133 82 128 83 129 84 133 85 128 86 133 87 133 87 129 88 130 89 133 90 129 91 133 92 133 92 130 93 131 94 133 95 130 96 133 97 133 97 131 98 132 99 133 100 131 101 133 102 133 102 132 103 122 104 133 105 132 106 133 107 133 107 0 108 0 108 1 109 0 110 1 111 2 112 0 113 0 113 3 114 0 115 3 116 1 117 0 118 0 118 4 119 0 120 4 121 3 122 0 123 0 123 5 124 0 125 5 126 4 127 0 128 0 128 6 129 0 130 6 131 5 132 0 133 0 133 7 134 0 135 7 136 6 137 0 138 0 138 8 139 0 140 8 141 7 142 0 143 0 143 9 144 0 145 9 146 8 147 0 148 0 148 10 149 0 150 10 151 9 152 0 153 0 153 11 154 0 155 11 156 10 157 0 158 0 158 12 159 0 160 12 161 11 162 0 163 0 163 2 164 0 165 2 166 12 167 2 168 1 169 13 170 2 171 13 172 14 173 1 174 3 175 15 176 1 177 15 178 13 179 3 180 4 181 16 182 3 183 16 184 15 185 4 186 5 187 17 188 4 189 17 190 16 191 5 192 6 193 18 194 5 195 18 196 17 197 6 198 7 199 19 200 6 201 19 202 18 203 7 204 8 205 20 206 7 207 20 208 19 209 8 210 9 211 21 212 8 213 21 214 20 215 9 216 10 217 22 218 9 219 22 220 21 221 10 222 11 223 23 224 10 225 23 226 22 227 11 228 12 229 24 230 11 231 24 232 23 233 12 234 2 235 14 236 12 237 14 238 24 239 14 240 13 241 25 242 14 243 25 244 26 245 13 246 15 247 27 248 13 249 27 250 25 251 15 252 16 253 28 254 15 255 28 256 27 257 16 258 17 259 29 260 16 261 29 262 28 263 17 264 18 265 30 266 17 267 30 268 29 269 18 270 19 271 31 272 18 273 31 274 30 275 19 276 20 277 32 278 19 279 32 280 31 281 20 282 21 283 33 284 20 285 33 286 32 287 21 288 22 289 34 290 21 291 34 292 33 293 22 294 23 295 35 296 22 297 35 298 34 299 23 300 24 301 36 302 23 303 36 304 35 305 24 306 14 307 26 308 24 309 26 310 36 311 26 312 25 313 37 314 26 315 37 316 38 317 25 318 27 319 39 320 25 321 39 322 37 323 27 324 28 325 40 326 27 327 40 328 39 329 28 330 29 331 41 332 28 333 41 334 40 335 29 336 30 337 42 338 29 339 42 340 41 341 30 342 31 343 43 344 30 345 43 346 42 347 31 348 32 349 44 350 31 351 44 352 43 353 32 354 33 355 45 356 32 357 45 358 44 359 33 360 34 361 46 362 33 363 46 364 45 365 34 366 35 367 47 368 34 369 47 370 46 371 35 372 36 373 48 374 35 375 48 376 47 377 36 378 26 379 38 380 36 381 38 382 48 383 38 384 37 385 49 386 38 387 49 388 50 389 37 390 39 391 51 392 37 393 51 394 49 395 39 396 40 397 52 398 39 399 52 400 51 401 40 402 41 403 53 404 40 405 53 406 52 407 41 408 42 409 54 410 41 411 54 412 53 413 42 414 43 415 55 416 42 417 55 418 54 419 43 420 44 421 56 422 43 423 56 424 55 425 44 426 45 427 57 428 44 429 57 430 56 431 45 432 46 433 58 434 45 435 58 436 57 437 46 438 47 439 59 440 46 441 59 442 58 443 47 444 48 445 60 446 47 447 60 448 59 449 48 450 38 451 50 452 48 453 50 454 60 455 50 456 49 457 61 458 50 459 61 460 62 461 49 462 51 463 63 464 49 465 63 466 61 467 51 468 52 469 64 470 51 471 64 472 63 473 52 474 53 475 65 476 52 477 65 478 64 479 53 480 54 481 66 482 53 483 66 484 65 485 54 486 55 487 67 488 54 489 67 490 66 491 55 492 56 493 68 494 55 495 68 496 67 497 56 498 57 499 69 500 56 501 69 502 68 503 57 504 58 505 70 506 57 507 70 508 69 509 58 510 59 511 71 512 58 513 71 514 70 515 59 516 60 517 72 518 59 519 72 520 71 521 60 522 50 523 62 524 60 525 62 526 72 527 62 528 61 529 73 530 62 531 73 532 74 533 61 534 63 535 75 536 61 537 75 538 73 539 63 540 64 541 76 542 63 543 76 544 75 545 64 546 65 547 77 548 64 549 77 550 76 551 65 552 66 553 78 554 65 555 78 556 77 557 66 558 67 559 79 560 66 561 79 562 78 563 67 564 68 565 80 566 67 567 80 568 79 569 68 570 69 571 81 572 68 573 81 574 80 575 69 576 70 577 82 578 69 579 82 580 81 581 70 582 71 583 83 584 70 585 83 586 82 587 71 588 72 589 84 590 71 591 84 592 83 593 72 594 62 595 74 596 72 597 74 598 84 599 74 600 73 601 85 602 74 603 85 604 86 605 73 606 75 607 87 608 73 609 87 610 85 611 75 612 76 613 88 614 75 615 88 616 87 617 76 618 77 619 89 620 76 621 89 622 88 623 77 624 78 625 90 626 77 627 90 628 89 629 78 630 79 631 91 632 78 633 91 634 90 635 79 636 80 637 92 638 79 639 92 640 91 641 80 642 81 643 93 644 80 645 93 646 92 647 81 648 82 649 94 650 81 651 94 652 93 653 82 654 83 655 95 656 82 657 95 658 94 659 83 660 84 661 96 662 83 663 96 664 95 665 84 666 74 667 86 668 84 669 86 670 96 671 86 672 85 673 97 674 86 675 97 676 98 677 85 678 87 679 99 680 85 681 99 682 97 683 87 684 88 685 100 686 87 687 100 688 99 689 88 690 89 691 101 692 88 693 101 694 100 695 89 696 90 697 102 698 89 699 102 700 101 701 90 702 91 703 103 704 90 705 103 706 102 707 91 708 92 709 104 710 91 711 104 712 103 713 92 714 93 715 105 716 92 717 105 718 104 719 93 720 94 721 106 722 93 723 106 724 105 725 94 726 95 727 107 728 94 729 107 730 106 731 95 732 96 733 108 734 95 735 108 736 107 737 96 738 86 739 98 740 96 741 98 742 108 743 98 744 97 745 109 746 98 747 109 748 110 749 97 750 99 751 111 752 97 753 111 754 109 755 99 756 100 757 112 758 99 759 112 760 111 761 100 762 101 763 113 764 100 765 113 766 112 767 101 768 102 769 114 770 101 771 114 772 113 773 102 774 103 775 115 776 102 777 115 778 114 779 103 780 104 781 116 782 103 783 116 784 115 785 104 786 105 787 117 788 104 789 117 790 116 791 105 792 106 793 118 794 105 795 118 796 117 797 106 798 107 799 119 800 106 801 119 802 118 803 107 804 108 805 120 806 107 807 120 808 119 809 108 810 98 811 110 812 108 813 110 814 120 815 110 816 109 817 121 818 110 819 121 820 122 821 109 822 111 823 123 824 109 825 123 826 121 827 111 828 112 829 124 830 111 831 124 832 123 833 112 834 113 835 125 836 112 837 125 838 124 839</p>
                </triangles>
            </mesh>
        </geometry>
    </library_geometries>
    <library_visual_scenes>
        <visual_scene id="Building_272_CROWN2">
            <node>
                <instance_geometry url="#geometry0">
                    <bind_material>
                        <technique_common>
                            <instance_material symbol="default_ai_0.2_sh_0.2_tr_0.0_dc_r_0.8_g_0.8_b_0.8_sc_r_1.0_g_1.0_b_1.0_ec_r_0.0_g_0.0_b_0_tri" target="#default_ai_0.2_sh_0.2_tr_0.0_dc_r_0.8_g_0.8_b_0.8_sc_r_1.0_g_1.0_b_1.0_ec_r_0.0_g_0.0_b_0_mat"/>
                        </technique_common>
                    </bind_material>
                </instance_geometry>
            </node>
        </visual_scene>
    </library_visual_scenes>
    <scene>
        <instance_visual_scene url="#Building_272_CROWN2"/>
    </scene>
</COLLADA>
