<?xml version="1.0" encoding="UTF-8" standalone="yes"?>
<COLLADA xmlns="http://www.collada.org/2005/11/COLLADASchema" version="1.4.1">
    <asset>
        <contributor>
            <authoring_tool>3D City Database Importer/Exporter, version 5.5.3; Chair of Geoinformatics, Technical University of Munich</authoring_tool>
        </contributor>
        <created>2026-09-25T14:45:34.578</created>
        <modified>2026-09-25T14:45:34.578</modified>
        <unit meter="1.0" name="meters"/>
        <up_axis>Z_UP</up_axis>
    </asset>
    <library_materials>
        <material id="default_ai_0.2_sh_0.2_tr_0.0_dc_r_0.8_g_0.8_b_0.8_sc_r_1.0_g_1.0_b_1.0_ec_r_0.0_g_0.0_b_0_mat">
            <instance_effect url="#default_ai_0.2_sh_0.2_tr_0.0_dc_r_0.8_g_0.8_b_0.8_sc_r_1.0_g_1.0_b_1.0_ec_r_0.0_g_0.0_b_0_eff"/>
        </material>
    </library_materials>
    <library_effects>
        <effect id="default_ai_0.2_sh_0.2_tr_0.0_dc_r_0.8_g_0.8_b_0.8_sc_r_1.0_g_1.0_b_1.0_ec_r_0.0_g_0.0_b_0_eff">
            <profile_COMMON>
                <technique sid="COMMON">
                    <lambert>
                        <emission>
                            <color>0.0 0.0 0.0 1.0</color>
                        </emission>
                        <diffuse>
                            <color>0.8 0.8 0.8 1.0</color>
                        </diffuse>
                        <reflective>
                            <color>1.0 1.0 1.0 1.0</color>
                        </reflective>
                        <reflectivity>
                            <float>0.2</float>
                        </reflectivity>
                        <transparent opaque="A_ONE">
                            <color>1.0 1.0 1.0 1.0</color>
                        </transparent>
                        <transparency>
                            <float>1.0</float>
                        </transparency>
                    </lambert>
                </technique>
                <extra>
                    <technique profile="GOOGLEEARTH">
                        <double_sided>0</double_sided>
                    </technique>
                </extra>
            </profile_COMMON>
        </effect>
    </library_effects>
    <library_geometries>
        <geometry id="geometry0">
            <mesh>
                <source id="geometry0-position">
                    <float_array id="geometry0-position-array" count="402">0.0 0.0 2.5 0.28018 0.1617625 2.4574075 0.3235238 0.0 2.4574075 0.1617625 0.28018 2.4574075 0.0 0.3235237 2.4574075 -0.1617625 0.28018 2.4574075 -0.28018 0.1617625 2.4574075 -0.3235238 0.0 2.4574075 -0.28018 -0.1617625 2.4574075 -0.1617625 -0.28018 2.4574075 0.0 -0.3235237 2.4574075 0.1617625 -0.28018 2.4574075 0.28018 -0.1617625 2.4574075 0.5412663 0.3125 2.3325312 0.625 0.0 2.3325312 0.3125 0.5412663 2.3325312 0.0 0.625 2.3325312 -0.3125 0.5412663 2.3325312 -0.5412663 0.3125 2.3325312 -0.625 0.0 2.3325312 -0.5412663 -0.3125 2.3325312 -0.3125 -0.5412663 2.3325312 0.0 -0.625 2.3325312 0.3125 -0.5412663 2.3325312 0.5412663 -0.3125 2.3325312 0.765465 0.4419413 2.1338838 0.8838838 0.0 2.1338838 0.4419412 0.765465 2.1338838 0.0 0.8838838 2.1338838 -0.4419412 0.765465 2.1338838 -0.765465 0.4419413 2.1338838 -0.8838838 0.0 2.1338838 -0.765465 -0.4419413 2.1338838 -0.4419412 -0.765465 2.1338838 0.0 -0.8838838 2.1338838 0.4419412 -0.765465 2.1338838 0.765465 -0.4419413 2.1338838 0.9375 0.5412663 1.875 1.0825313 0.0 1.875 0.5412663 0.9375 1.875 0.0 1.0825313 1.875 -0.5412663 0.9375 1.875 -0.9375 0.5412663 1.875 -1.0825313 0.0 1.875 -0.9375 -0.5412663 1.875 -0.5412663 -0.9375 1.875 0.0 -1.0825313 1.875 0.5412663 -0.9375 1.875 0.9375 -0.5412663 1.875 1.045645 0.6037038 1.5735238 1.2074075 0.0 1.5735238 0.6037038 1.045645 1.5735238 0.0 1.2074075 1.5735238 -0.6037038 1.045645 1.5735238 -1.045645 0.6037038 1.5735238 -1.2074075 0.0 1.5735238 -1.045645 -0.6037038 1.5735238 -0.6037038 -1.045645 1.5735238 0.0 -1.2074075 1.5735238 0.6037038 -1.045645 1.5735238 1.045645 -0.6037038 1.5735238 1.0825313 0.625 1.25 1.25 0.0 1.25 0.625 1.0825313 1.25 0.0 1.25 1.25 -0.625 1.0825313 1.25 -1.0825313 0.625 1.25 -1.25 0.0 1.25 -1.0825313 -0.625 1.25 -0.625 -1.0825313 1.25 0.0 -1.25 1.25 0.625 -1.0825313 1.25 1.0825313 -0.625 1.25 1.045645 0.6037038 0.9264762 1.2074075 0.0 0.9264762 0.6037038 1.045645 0.9264762 0.0 1.2074075 0.9264762 -0.6037038 1.045645 0.9264762 -1.045645 0.6037038 0.9264762 -1.2074075 0.0 0.9264762 -1.045645 -0.6037038 0.9264762 -0.6037038 -1.045645 0.9264762 0.0 -1.2074075 0.9264762 0.6037038 -1.045645 0.9264762 1.045645 -0.6037038 0.9264762 0.9375 0.5412663 0.625 1.0825313 0.0 0.625 0.5412663 0.9375 0.625 0.0 1.0825313 0.625 -0.5412663 0.9375 0.625 -0.9375 0.5412663 0.625 -1.0825313 0.0 0.625 -0.9375 -0.5412663 0.625 -0.5412663 -0.9375 0.625 0.0 -1.0825313 0.625 0.5412663 -0.9375 0.625 0.9375 -0.5412663 0.625 0.765465 0.4419413 0.3661162 0.8838838 0.0 0.3661162 0.4419412 0.765465 0.3661162 0.0 0.8838838 0.3661162 -0.4419412 0.765465 0.3661162 -0.765465 0.4419413 0.3661162 -0.8838838 0.0 0.3661162 -0.765465 -0.4419413 0.3661162 -0.4419412 -0.765465 0.3661162 0.0 -0.8838838 0.3661162 0.4419412 -0.765465 0.3661162 0.765465 -0.4419413 0.3661162 0.5412663 0.3125 0.1674688 0.625 0.0 0.1674688 0.3125 0.5412663 0.1674688 0.0 0.625 0.1674688 -0.3125 0.5412663 0.1674688 -0.5412663 0.3125 0.1674688 -0.625 0.0 0.1674688 -0.5412663 -0.3125 0.1674688 -0.3125 -0.5412663 0.1674688 0.0 -0.625 0.1674688 0.3125 -0.5412663 0.1674688 0.5412663 -0.3125 0.1674688 0.28018 0.1617625 0.0425925 0.3235238 0.0 0.0425925 0.1617625 0.28018 0.0425925 0.0 0.3235237 0.0425925 -0.1617625 0.28018 0.0425925 -0.28018 0.1617625 0.0425925 -0.3235238 0.0 0.0425925 -0.28018 -0.1617625 0.0425925 -0.1617625 -0.28018 0.0425925 0.0 -0.3235237 0.0425925 0.1617625 -0.28018 0.0425925 0.28018 -0.1617625 0.0425925 0.0 0.0 0.0</float_array>
                    <technique_common>
                        <accessor count="134" source="#geometry0-position-array" stride="3">
                            <param name="X" type="float"/>
                            <param name="Y" type="float"/>
                            <param name="Z" type="float"/>
                        </accessor>
                    </technique_common>
                </source>
                <source id="geometry0-normal">
                    <float_array id="geometry0-normal-array" count="2520">0.6008191 -0.1609882 -0.7830066 0.6008191 -0.1609882 -0.7830066 0.6008191 -0.1609882 -0.7830066 0.6008204 -0.1609906 -0.7830051 0.6008204 -0.1609906 -0.7830051 0.6008204 -0.1609906 -0.7830051 0.6008211 0.1609888 -0.7830048 0.6008211 0.1609888 -0.7830048 0.6008211 0.1609888 -0.7830048 0.6008189 0.1609902 -0.7830064 0.6008189 0.1609902 -0.7830064 0.6008189 0.1609902 -0.7830064 0.4398314 0.4398314 -0.7830049 0.4398314 0.4398314 -0.7830049 0.4398314 0.4398314 -0.7830049 0.4398313 0.4398313 -0.7830049 0.4398313 0.4398313 -0.7830049 0.4398313 0.4398313 -0.7830049 0.1609882 0.6008191 -0.7830066 0.1609882 0.6008191 -0.7830066 0.1609882 0.6008191 -0.7830066 0.1609906 0.6008204 -0.7830051 0.1609906 0.6008204 -0.7830051 0.1609906 0.6008204 -0.7830051 -0.1609888 0.6008211 -0.7830048 -0.1609888 0.6008211 -0.7830048 -0.1609888 0.6008211 -0.7830048 -0.1609902 0.6008189 -0.7830064 -0.1609902 0.6008189 -0.7830064 -0.1609902 0.6008189 -0.7830064 -0.4398314 0.4398314 -0.7830049 -0.4398314 0.4398314 -0.7830049 -0.4398314 0.4398314 -0.7830049 -0.4398313 0.4398313 -0.7830049 -0.4398313 0.4398313 -0.7830049 -0.4398313 0.4398313 -0.7830049 -0.6008191 0.1609882 -0.7830066 -0.6008191 0.1609882 -0.7830066 -0.6008191 0.1609882 -0.7830066 -0.6008204 0.1609906 -0.7830051 -0.6008204 0.1609906 -0.7830051 -0.6008204 0.1609906 -0.7830051 -0.7760119 -0.2079334 -0.5954571 -0.7760119 -0.2079334 -0.5954571 -0.7760119 -0.2079334 -0.5954571 -0.7760148 -0.2079316 -0.595454 -0.7760148 -0.2079316 -0.595454 -0.7760148 -0.2079316 -0.595454 -0.5680802 -0.5680802 -0.5954575 -0.5680802 -0.5680802 -0.5954575 -0.5680802 -0.5680802 -0.5954575 -0.5680802 -0.5680802 -0.5954575 -0.5680802 -0.5680802 -0.5954575 -0.5680802 -0.5680802 -0.5954575 -0.2079341 -0.7760144 -0.5954537 -0.2079341 -0.7760144 -0.5954537 -0.2079341 -0.7760144 -0.5954537 -0.2079311 -0.7760127 -0.5954569 -0.2079311 -0.7760127 -0.5954569 -0.2079311 -0.7760127 -0.5954569 0.2079334 -0.7760119 -0.5954571 0.2079334 -0.7760119 -0.5954571 0.2079334 -0.7760119 -0.5954571 0.2079316 -0.7760148 -0.595454 0.2079316 -0.7760148 -0.595454 0.2079316 -0.7760148 -0.595454 0.5680802 -0.5680802 -0.5954575 0.5680802 -0.5680802 -0.5954575 0.5680802 -0.5680802 -0.5954575 0.5680802 -0.5680802 -0.5954575 0.5680802 -0.5680802 -0.5954575 0.5680802 -0.5680802 -0.5954575 0.7760144 -0.2079341 -0.5954537 0.7760144 -0.2079341 -0.5954537 0.7760144 -0.2079341 -0.5954537 0.7760127 -0.2079311 -0.5954569 0.7760127 -0.2079311 -0.5954569 0.7760127 -0.2079311 -0.5954569 0.7760119 0.2079334 -0.5954571 0.7760119 0.2079334 -0.5954571 0.7760119 0.2079334 -0.5954571 0.7760148 0.2079316 -0.595454 0.7760148 0.2079316 -0.595454 0.7760148 0.2079316 -0.595454 0.5680802 0.5680802 -0.5954575 0.5680802 0.5680802 -0.5954575 0.5680802 0.5680802 -0.5954575 0.5680802 0.5680802 -0.5954575 0.5680802 0.5680802 -0.5954575 0.5680802 0.5680802 -0.5954575 0.2079341 0.7760144 -0.5954537 0.2079341 0.7760144 -0.5954537 0.2079341 0.7760144 -0.5954537 0.2079311 0.7760127 -0.5954569 0.2079311 0.7760127 -0.5954569 0.2079311 0.7760127 -0.5954569 -0.2079334 0.7760119 -0.5954571 -0.2079334 0.7760119 -0.5954571 -0.2079334 0.7760119 -0.5954571 -0.2079316 0.7760148 -0.595454 -0.2079316 0.7760148 -0.595454 -0.2079316 0.7760148 -0.595454 -0.5680802 0.5680802 -0.5954575 -0.5680802 0.5680802 -0.5954575 -0.5680802 0.5680802 -0.5954575 -0.5680802 0.5680802 -0.5954575 -0.5680802 0.5680802 -0.5954575 -0.5680802 0.5680802 -0.5954575 -0.7760144 0.2079341 -0.5954537 -0.7760144 0.2079341 -0.5954537 -0.7760144 0.2079341 -0.5954537 -0.7760127 0.2079311 -0.5954569 -0.7760127 0.2079311 -0.5954569 -0.7760127 0.2079311 -0.5954569 -0.8968096 -0.2402983 -0.371469 -0.8968096 -0.2402983 -0.371469 -0.8968096 -0.2402983 -0.371469 -0.896808 -0.2402998 -0.3714721 -0.896808 -0.2402998 -0.3714721 -0.896808 -0.2402998 -0.3714721 -0.65651 -0.65651 -0.3714691 -0.65651 -0.65651 -0.3714691 -0.65651 -0.65651 -0.3714691 -0.65651 -0.65651 -0.3714691 -0.65651 -0.65651 -0.3714691 -0.65651 -0.65651 -0.3714691 -0.240298 -0.8968083 -0.3714723 -0.240298 -0.8968083 -0.3714723 -0.240298 -0.8968083 -0.3714723 -0.2403001 -0.896809 -0.3714692 -0.2403001 -0.896809 -0.3714692 -0.2403001 -0.896809 -0.3714692 0.2402983 -0.8968096 -0.371469 0.2402983 -0.8968096 -0.371469 0.2402983 -0.8968096 -0.371469 0.2402998 -0.896808 -0.3714721 0.2402998 -0.896808 -0.3714721 0.2402998 -0.896808 -0.3714721 0.65651 -0.65651 -0.3714691 0.65651 -0.65651 -0.3714691 0.65651 -0.65651 -0.3714691 0.65651 -0.65651 -0.3714691 0.65651 -0.65651 -0.3714691 0.65651 -0.65651 -0.3714691 0.8968083 -0.240298 -0.3714723 0.8968083 -0.240298 -0.3714723 0.8968083 -0.240298 -0.3714723 0.896809 -0.2403001 -0.3714692 0.896809 -0.2403001 -0.3714692 0.896809 -0.2403001 -0.3714692 0.8968096 0.2402983 -0.371469 0.8968096 0.2402983 -0.371469 0.8968096 0.2402983 -0.371469 0.896808 0.2402998 -0.3714721 0.896808 0.2402998 -0.3714721 0.896808 0.2402998 -0.3714721 0.65651 0.65651 -0.3714691 0.65651 0.65651 -0.3714691 0.65651 0.65651 -0.3714691 0.65651 0.65651 -0.3714691 0.65651 0.65651 -0.3714691 0.65651 0.65651 -0.3714691 0.240298 0.8968083 -0.3714723 0.240298 0.8968083 -0.3714723 0.240298 0.8968083 -0.3714723 0.2403001 0.896809 -0.3714692 0.2403001 0.896809 -0.3714692 0.2403001 0.896809 -0.3714692 -0.2402983 0.8968096 -0.371469 -0.2402983 0.8968096 -0.371469 -0.2402983 0.8968096 -0.371469 -0.2402998 0.896808 -0.3714721 -0.2402998 0.896808 -0.3714721 -0.2402998 0.896808 -0.3714721 -0.65651 0.65651 -0.3714691 -0.65651 0.65651 -0.3714691 -0.65651 0.65651 -0.3714691 -0.65651 0.65651 -0.3714691 -0.65651 0.65651 -0.3714691 -0.65651 0.65651 -0.3714691 -0.8968083 0.240298 -0.3714723 -0.8968083 0.240298 -0.3714723 -0.8968083 0.240298 -0.3714723 -0.896809 0.2403001 -0.3714692 -0.896809 0.2403001 -0.3714692 -0.896809 0.2403001 -0.3714692 -0.958209 -0.2567522 -0.1261501 -0.958209 -0.2567522 -0.1261501 -0.958209 -0.2567522 -0.1261501 -0.958209 -0.2567522 -0.1261501 -0.958209 -0.2567522 -0.1261501 -0.958209 -0.2567522 -0.1261501 -0.7014578 -0.7014578 -0.1261501 -0.7014578 -0.7014578 -0.1261501 -0.7014578 -0.7014578 -0.1261501 -0.7014578 -0.7014578 -0.1261501 -0.7014578 -0.7014578 -0.1261501 -0.7014578 -0.7014578 -0.1261501 -0.2567522 -0.958209 -0.1261501 -0.2567522 -0.958209 -0.1261501 -0.2567522 -0.958209 -0.1261501 -0.2567522 -0.958209 -0.1261501 -0.2567522 -0.958209 -0.1261501 -0.2567522 -0.958209 -0.1261501 0.2567522 -0.958209 -0.1261501 0.2567522 -0.958209 -0.1261501 0.2567522 -0.958209 -0.1261501 0.2567522 -0.958209 -0.1261501 0.2567522 -0.958209 -0.1261501 0.2567522 -0.958209 -0.1261501 0.7014578 -0.7014578 -0.1261501 0.7014578 -0.7014578 -0.1261501 0.7014578 -0.7014578 -0.1261501 0.7014578 -0.7014578 -0.1261501 0.7014578 -0.7014578 -0.1261501 0.7014578 -0.7014578 -0.1261501 0.958209 -0.2567522 -0.1261501 0.958209 -0.2567522 -0.1261501 0.958209 -0.2567522 -0.1261501 0.958209 -0.2567522 -0.1261501 0.958209 -0.2567522 -0.1261501 0.958209 -0.2567522 -0.1261501 0.958209 0.2567522 -0.1261501 0.958209 0.2567522 -0.1261501 0.958209 0.2567522 -0.1261501 0.958209 0.2567522 -0.1261501 0.958209 0.2567522 -0.1261501 0.958209 0.2567522 -0.1261501 0.7014578 0.7014578 -0.1261501 0.7014578 0.7014578 -0.1261501 0.7014578 0.7014578 -0.1261501 0.7014578 0.7014578 -0.1261501 0.7014578 0.7014578 -0.1261501 0.7014578 0.7014578 -0.1261501 0.2567522 0.958209 -0.1261501 0.2567522 0.958209 -0.1261501 0.2567522 0.958209 -0.1261501 0.2567522 0.958209 -0.1261501 0.2567522 0.958209 -0.1261501 0.2567522 0.958209 -0.1261501 -0.2567522 0.958209 -0.1261501 -0.2567522 0.958209 -0.1261501 -0.2567522 0.958209 -0.1261501 -0.2567522 0.958209 -0.1261501 -0.2567522 0.958209 -0.1261501 -0.2567522 0.958209 -0.1261501 -0.7014578 0.7014578 -0.1261501 -0.7014578 0.7014578 -0.1261501 -0.7014578 0.7014578 -0.1261501 -0.7014578 0.7014578 -0.1261501 -0.7014578 0.7014578 -0.1261501 -0.7014578 0.7014578 -0.1261501 -0.958209 0.2567522 -0.1261501 -0.958209 0.2567522 -0.1261501 -0.958209 0.2567522 -0.1261501 -0.958209 0.2567522 -0.1261501 -0.958209 0.2567522 -0.1261501 -0.958209 0.2567522 -0.1261501 -0.958209 -0.2567522 0.1261501 -0.958209 -0.2567522 0.1261501 -0.958209 -0.2567522 0.1261501 -0.958209 -0.2567522 0.1261501 -0.958209 -0.2567522 0.1261501 -0.958209 -0.2567522 0.1261501 -0.7014578 -0.7014578 0.1261501 -0.7014578 -0.7014578 0.1261501 -0.7014578 -0.7014578 0.1261501 -0.7014578 -0.7014578 0.1261501 -0.7014578 -0.7014578 0.1261501 -0.7014578 -0.7014578 0.1261501 -0.2567522 -0.958209 0.1261501 -0.2567522 -0.958209 0.1261501 -0.2567522 -0.958209 0.1261501 -0.2567522 -0.958209 0.1261501 -0.2567522 -0.958209 0.1261501 -0.2567522 -0.958209 0.1261501 0.2567522 -0.958209 0.1261501 0.2567522 -0.958209 0.1261501 0.2567522 -0.958209 0.1261501 0.2567522 -0.958209 0.1261501 0.2567522 -0.958209 0.1261501 0.2567522 -0.958209 0.1261501 0.7014578 -0.7014578 0.1261501 0.7014578 -0.7014578 0.1261501 0.7014578 -0.7014578 0.1261501 0.7014578 -0.7014578 0.1261501 0.7014578 -0.7014578 0.1261501 0.7014578 -0.7014578 0.1261501 0.958209 -0.2567522 0.1261501 0.958209 -0.2567522 0.1261501 0.958209 -0.2567522 0.1261501 0.958209 -0.2567522 0.1261501 0.958209 -0.2567522 0.1261501 0.958209 -0.2567522 0.1261501 0.958209 0.2567522 0.1261501 0.958209 0.2567522 0.1261501 0.958209 0.2567522 0.1261501 0.958209 0.2567522 0.1261501 0.958209 0.2567522 0.1261501 0.958209 0.2567522 0.1261501 0.7014578 0.7014578 0.1261501 0.7014578 0.7014578 0.1261501 0.7014578 0.7014578 0.1261501 0.7014578 0.7014578 0.1261501 0.7014578 0.7014578 0.1261501 0.7014578 0.7014578 0.1261501 0.2567522 0.958209 0.1261501 0.2567522 0.958209 0.1261501 0.2567522 0.958209 0.1261501 0.2567522 0.958209 0.1261501 0.2567522 0.958209 0.1261501 0.2567522 0.958209 0.1261501 -0.2567522 0.958209 0.1261501 -0.2567522 0.958209 0.1261501 -0.2567522 0.958209 0.1261501 -0.2567522 0.958209 0.1261501 -0.2567522 0.958209 0.1261501 -0.2567522 0.958209 0.1261501 -0.7014578 0.7014578 0.1261501 -0.7014578 0.7014578 0.1261501 -0.7014578 0.7014578 0.1261501 -0.7014578 0.7014578 0.1261501 -0.7014578 0.7014578 0.1261501 -0.7014578 0.7014578 0.1261501 -0.958209 0.2567522 0.1261501 -0.958209 0.2567522 0.1261501 -0.958209 0.2567522 0.1261501 -0.958209 0.2567522 0.1261501 -0.958209 0.2567522 0.1261501 -0.958209 0.2567522 0.1261501 -0.896809 -0.2403001 0.3714692 -0.896809 -0.2403001 0.3714692 -0.896809 -0.2403001 0.3714692 -0.8968084 -0.240298 0.3714723 -0.8968084 -0.240298 0.3714723 -0.8968084 -0.240298 0.3714723 -0.65651 -0.65651 0.3714691 -0.65651 -0.65651 0.3714691 -0.65651 -0.65651 0.3714691 -0.65651 -0.65651 0.3714691 -0.65651 -0.65651 0.3714691 -0.65651 -0.65651 0.3714691 -0.2402998 -0.8968079 0.3714721 -0.2402998 -0.8968079 0.3714721 -0.2402998 -0.8968079 0.3714721 -0.2402983 -0.8968096 0.371469 -0.2402983 -0.8968096 0.371469 -0.2402983 -0.8968096 0.371469 0.2403001 -0.896809 0.3714692 0.2403001 -0.896809 0.3714692 0.2403001 -0.896809 0.3714692 0.240298 -0.8968084 0.3714723 0.240298 -0.8968084 0.3714723 0.240298 -0.8968084 0.3714723 0.65651 -0.65651 0.3714691 0.65651 -0.65651 0.3714691 0.65651 -0.65651 0.3714691 0.65651 -0.65651 0.3714691 0.65651 -0.65651 0.3714691 0.65651 -0.65651 0.3714691 0.8968079 -0.2402998 0.3714721 0.8968079 -0.2402998 0.3714721 0.8968079 -0.2402998 0.3714721 0.8968096 -0.2402983 0.371469 0.8968096 -0.2402983 0.371469 0.8968096 -0.2402983 0.371469 0.896809 0.2403001 0.3714692 0.896809 0.2403001 0.3714692 0.896809 0.2403001 0.3714692 0.8968084 0.240298 0.3714723 0.8968084 0.240298 0.3714723 0.8968084 0.240298 0.3714723 0.65651 0.65651 0.3714691 0.65651 0.65651 0.3714691 0.65651 0.65651 0.3714691 0.65651 0.65651 0.3714691 0.65651 0.65651 0.3714691 0.65651 0.65651 0.3714691 0.2402998 0.8968079 0.3714721 0.2402998 0.8968079 0.3714721 0.2402998 0.8968079 0.3714721 0.2402983 0.8968096 0.371469 0.2402983 0.8968096 0.371469 0.2402983 0.8968096 0.371469 -0.2403001 0.896809 0.3714692 -0.2403001 0.896809 0.3714692 -0.2403001 0.896809 0.3714692 -0.240298 0.8968084 0.3714723 -0.240298 0.8968084 0.3714723 -0.240298 0.8968084 0.3714723 -0.65651 0.65651 0.3714691 -0.65651 0.65651 0.3714691 -0.65651 0.65651 0.3714691 -0.65651 0.65651 0.3714691 -0.65651 0.65651 0.3714691 -0.65651 0.65651 0.3714691 -0.8968079 0.2402998 0.3714721 -0.8968079 0.2402998 0.3714721 -0.8968079 0.2402998 0.3714721 -0.8968096 0.2402983 0.371469 -0.8968096 0.2402983 0.371469 -0.8968096 0.2402983 0.371469 -0.7760127 -0.2079311 0.5954568 -0.7760127 -0.2079311 0.5954568 -0.7760127 -0.2079311 0.5954568 -0.7760144 -0.2079341 0.5954537 -0.7760144 -0.2079341 0.5954537 -0.7760144 -0.2079341 0.5954537 -0.5680803 -0.5680803 0.5954574 -0.5680803 -0.5680803 0.5954574 -0.5680803 -0.5680803 0.5954574 -0.5680803 -0.5680803 0.5954575 -0.5680803 -0.5680803 0.5954575 -0.5680803 -0.5680803 0.5954575 -0.2079316 -0.7760148 0.595454 -0.2079316 -0.7760148 0.595454 -0.2079316 -0.7760148 0.595454 -0.2079334 -0.7760119 0.5954572 -0.2079334 -0.7760119 0.5954572 -0.2079334 -0.7760119 0.5954572 0.2079311 -0.7760127 0.5954568 0.2079311 -0.7760127 0.5954568 0.2079311 -0.7760127 0.5954568 0.2079341 -0.7760144 0.5954537 0.2079341 -0.7760144 0.5954537 0.2079341 -0.7760144 0.5954537 0.5680803 -0.5680803 0.5954574 0.5680803 -0.5680803 0.5954574 0.5680803 -0.5680803 0.5954574 0.5680803 -0.5680803 0.5954575 0.5680803 -0.5680803 0.5954575 0.5680803 -0.5680803 0.5954575 0.7760148 -0.2079316 0.595454 0.7760148 -0.2079316 0.595454 0.7760148 -0.2079316 0.595454 0.7760119 -0.2079334 0.5954572 0.7760119 -0.2079334 0.5954572 0.7760119 -0.2079334 0.5954572 0.7760127 0.2079311 0.5954568 0.7760127 0.2079311 0.5954568 0.7760127 0.2079311 0.5954568 0.7760144 0.2079341 0.5954537 0.7760144 0.2079341 0.5954537 0.7760144 0.2079341 0.5954537 0.5680803 0.5680803 0.5954574 0.5680803 0.5680803 0.5954574 0.5680803 0.5680803 0.5954574 0.5680803 0.5680803 0.5954575 0.5680803 0.5680803 0.5954575 0.5680803 0.5680803 0.5954575 0.2079316 0.7760148 0.595454 0.2079316 0.7760148 0.595454 0.2079316 0.7760148 0.595454 0.2079334 0.7760119 0.5954572 0.2079334 0.7760119 0.5954572 0.2079334 0.7760119 0.5954572 -0.2079311 0.7760127 0.5954568 -0.2079311 0.7760127 0.5954568 -0.2079311 0.7760127 0.5954568 -0.2079341 0.7760144 0.5954537 -0.2079341 0.7760144 0.5954537 -0.2079341 0.7760144 0.5954537 -0.5680803 0.5680803 0.5954574 -0.5680803 0.5680803 0.5954574 -0.5680803 0.5680803 0.5954574 -0.5680803 0.5680803 0.5954575 -0.5680803 0.5680803 0.5954575 -0.5680803 0.5680803 0.5954575 -0.7760148 0.2079316 0.595454 -0.7760148 0.2079316 0.595454 -0.7760148 0.2079316 0.595454 -0.7760119 0.2079334 0.5954572 -0.7760119 0.2079334 0.5954572 -0.7760119 0.2079334 0.5954572 -0.6008204 -0.1609906 0.7830051 -0.6008204 -0.1609906 0.7830051 -0.6008204 -0.1609906 0.7830051 -0.6008191 -0.1609882 0.7830066 -0.6008191 -0.1609882 0.7830066 -0.6008191 -0.1609882 0.7830066 -0.4398314 -0.4398314 0.7830049 -0.4398314 -0.4398314 0.7830049 -0.4398314 -0.4398314 0.7830049 -0.4398314 -0.4398314 0.7830049 -0.4398314 -0.4398314 0.7830049 -0.4398314 -0.4398314 0.7830049 -0.1609902 -0.6008189 0.7830064 -0.1609902 -0.6008189 0.7830064 -0.1609902 -0.6008189 0.7830064 -0.1609888 -0.6008211 0.7830048 -0.1609888 -0.6008211 0.7830048 -0.1609888 -0.6008211 0.7830048 0.1609906 -0.6008204 0.7830051 0.1609906 -0.6008204 0.7830051 0.1609906 -0.6008204 0.7830051 0.1609882 -0.6008191 0.7830066 0.1609882 -0.6008191 0.7830066 0.1609882 -0.6008191 0.7830066 0.4398314 -0.4398314 0.7830049 0.4398314 -0.4398314 0.7830049 0.4398314 -0.4398314 0.7830049 0.4398314 -0.4398314 0.7830049 0.4398314 -0.4398314 0.7830049 0.4398314 -0.4398314 0.7830049 0.6008189 -0.1609902 0.7830064 0.6008189 -0.1609902 0.7830064 0.6008189 -0.1609902 0.7830064 0.6008211 -0.1609888 0.7830048 0.6008211 -0.1609888 0.7830048 0.6008211 -0.1609888 0.7830048 0.6008204 0.1609906 0.7830051 0.6008204 0.1609906 0.7830051 0.6008204 0.1609906 0.7830051 0.6008191 0.1609882 0.7830066 0.6008191 0.1609882 0.7830066 0.6008191 0.1609882 0.7830066 0.4398314 0.4398314 0.7830049 0.4398314 0.4398314 0.7830049 0.4398314 0.4398314 0.7830049 0.4398314 0.4398314 0.7830049 0.4398314 0.4398314 0.7830049 0.4398314 0.4398314 0.7830049 0.1609902 0.6008189 0.7830064 0.1609902 0.6008189 0.7830064 0.1609902 0.6008189 0.7830064 0.1609888 0.6008211 0.7830048 0.1609888 0.6008211 0.7830048 0.1609888 0.6008211 0.7830048 -0.1609906 0.6008204 0.7830051 -0.1609906 0.6008204 0.7830051 -0.1609906 0.6008204 0.7830051 -0.1609882 0.6008191 0.7830066 -0.1609882 0.6008191 0.7830066 -0.1609882 0.6008191 0.7830066 -0.4398314 0.4398314 0.7830049 -0.4398314 0.4398314 0.7830049 -0.4398314 0.4398314 0.7830049 -0.4398314 0.4398314 0.7830049 -0.4398314 0.4398314 0.7830049 -0.4398314 0.4398314 0.7830049 -0.6008189 0.1609902 0.7830064 -0.6008189 0.1609902 0.7830064 -0.6008189 0.1609902 0.7830064 -0.6008211 0.1609888 0.7830048 -0.6008211 0.1609888 0.7830048 -0.6008211 0.1609888 0.7830048 -0.3806894 -0.1020049 0.9190596 -0.3806894 -0.1020049 0.9190596 -0.3806894 -0.1020049 0.9190596 -0.3806892 -0.1020045 0.9190598 -0.3806892 -0.1020045 0.9190598 -0.3806892 -0.1020045 0.9190598 -0.2786841 -0.2786841 0.9190596 -0.2786841 -0.2786841 0.9190596 -0.2786841 -0.2786841 0.9190596 -0.278684 -0.278684 0.9190595 -0.278684 -0.278684 0.9190595 -0.278684 -0.278684 0.9190595 -0.1020049 -0.3806892 0.9190597 -0.1020049 -0.3806892 0.9190597 -0.1020049 -0.3806892 0.9190597 -0.1020046 -0.3806896 0.9190596 -0.1020046 -0.3806896 0.9190596 -0.1020046 -0.3806896 0.9190596 0.1020049 -0.3806894 0.9190596 0.1020049 -0.3806894 0.9190596 0.1020049 -0.3806894 0.9190596 0.1020045 -0.3806892 0.9190598 0.1020045 -0.3806892 0.9190598 0.1020045 -0.3806892 0.9190598 0.2786841 -0.2786841 0.9190596 0.2786841 -0.2786841 0.9190596 0.2786841 -0.2786841 0.9190596 0.278684 -0.278684 0.9190595 0.278684 -0.278684 0.9190595 0.278684 -0.278684 0.9190595 0.3806892 -0.1020049 0.9190597 0.3806892 -0.1020049 0.9190597 0.3806892 -0.1020049 0.9190597 0.3806896 -0.1020046 0.9190596 0.3806896 -0.1020046 0.9190596 0.3806896 -0.1020046 0.9190596 0.3806894 0.1020049 0.9190596 0.3806894 0.1020049 0.9190596 0.3806894 0.1020049 0.9190596 0.3806892 0.1020045 0.9190598 0.3806892 0.1020045 0.9190598 0.3806892 0.1020045 0.9190598 0.2786841 0.2786841 0.9190596 0.2786841 0.2786841 0.9190596 0.2786841 0.2786841 0.9190596 0.278684 0.278684 0.9190595 0.278684 0.278684 0.9190595 0.278684 0.278684 0.9190595 0.1020049 0.3806892 0.9190597 0.1020049 0.3806892 0.9190597 0.1020049 0.3806892 0.9190597 0.1020046 0.3806896 0.9190596 0.1020046 0.3806896 0.9190596 0.1020046 0.3806896 0.9190596 -0.1020049 0.3806894 0.9190596 -0.1020049 0.3806894 0.9190596 -0.1020049 0.3806894 0.9190596 -0.1020045 0.3806892 0.9190598 -0.1020045 0.3806892 0.9190598 -0.1020045 0.3806892 0.9190598 -0.2786841 0.2786841 0.9190596 -0.2786841 0.2786841 0.9190596 -0.2786841 0.2786841 0.9190596 -0.278684 0.278684 0.9190595 -0.278684 0.278684 0.9190595 -0.278684 0.278684 0.9190595 -0.3806892 0.1020049 0.9190597 -0.3806892 0.1020049 0.9190597 -0.3806892 0.1020049 0.9190597 -0.3806896 0.1020046 0.9190596 -0.3806896 0.1020046 0.9190596 -0.3806896 0.1020046 0.9190596 -0.1304458 -0.0349525 0.9908391 -0.1304458 -0.0349525 0.9908391 -0.1304458 -0.0349525 0.9908391 1.0 0.0 0.0 1.0 0.0 0.0 -0.0954928 -0.0954928 0.9908392 -0.0954928 -0.0954928 0.9908392 -0.0954928 -0.0954928 0.9908392 1.0 0.0 0.0 1.0 0.0 0.0 -0.0349525 -0.1304458 0.9908391 -0.0349525 -0.1304458 0.9908391 -0.0349525 -0.1304458 0.9908391 1.0 0.0 0.0 1.0 0.0 0.0 0.0349525 -0.1304458 0.9908391 0.0349525 -0.1304458 0.9908391 0.0349525 -0.1304458 0.9908391 1.0 0.0 0.0 1.0 0.0 0.0 0.0954928 -0.0954928 0.9908392 0.0954928 -0.0954928 0.9908392 0.0954928 -0.0954928 0.9908392 1.0 0.0 0.0 1.0 0.0 0.0 0.1304458 -0.0349525 0.9908391 0.1304458 -0.0349525 0.9908391 0.1304458 -0.0349525 0.9908391 1.0 0.0 0.0 1.0 0.0 0.0 0.1304458 0.0349525 0.9908391 0.1304458 0.0349525 0.9908391 0.1304458 0.0349525 0.9908391 1.0 0.0 0.0 1.0 0.0 0.0 0.0954928 0.0954928 0.9908392 0.0954928 0.0954928 0.9908392 0.0954928 0.0954928 0.9908392 1.0 0.0 0.0 1.0 0.0 0.0 0.0349525 0.1304458 0.9908391 0.0349525 0.1304458 0.9908391 0.0349525 0.1304458 0.9908391 1.0 0.0 0.0 1.0 0.0 0.0 -0.0349525 0.1304458 0.9908391 -0.0349525 0.1304458 0.9908391 -0.0349525 0.1304458 0.9908391 1.0 0.0 0.0 1.0 0.0 0.0 -0.0954928 0.0954928 0.9908392 -0.0954928 0.0954928 0.9908392 -0.0954928 0.0954928 0.9908392 1.0 0.0 0.0 1.0 0.0 0.0 -0.1304458 0.0349525 0.9908391 -0.1304458 0.0349525 0.9908391 -0.1304458 0.0349525 0.9908391 1.0 0.0 0.0 1.0 0.0 0.0 1.0 0.0 0.0 1.0 0.0 0.0 -0.1304459 -0.0349526 -0.9908391 -0.1304459 -0.0349526 -0.9908391 -0.1304459 -0.0349526 -0.9908391 1.0 0.0 0.0 1.0 0.0 0.0 -0.0954928 -0.0954928 -0.9908392 -0.0954928 -0.0954928 -0.9908392 -0.0954928 -0.0954928 -0.9908392 1.0 0.0 0.0 1.0 0.0 0.0 -0.0349526 -0.1304459 -0.9908391 -0.0349526 -0.1304459 -0.9908391 -0.0349526 -0.1304459 -0.9908391 1.0 0.0 0.0 1.0 0.0 0.0 0.0349526 -0.1304459 -0.9908391 0.0349526 -0.1304459 -0.9908391 0.0349526 -0.1304459 -0.9908391 1.0 0.0 0.0 1.0 0.0 0.0 0.0954928 -0.0954928 -0.9908392 0.0954928 -0.0954928 -0.9908392 0.0954928 -0.0954928 -0.9908392 1.0 0.0 0.0 1.0 0.0 0.0 0.1304459 -0.0349526 -0.9908391 0.1304459 -0.0349526 -0.9908391 0.1304459 -0.0349526 -0.9908391 1.0 0.0 0.0 1.0 0.0 0.0 0.1304459 0.0349526 -0.9908391 0.1304459 0.0349526 -0.9908391 0.1304459 0.0349526 -0.9908391 1.0 0.0 0.0 1.0 0.0 0.0 0.0954928 0.0954928 -0.9908392 0.0954928 0.0954928 -0.9908392 0.0954928 0.0954928 -0.9908392 1.0 0.0 0.0 1.0 0.0 0.0 0.0349526 0.1304459 -0.9908391 0.0349526 0.1304459 -0.9908391 0.0349526 0.1304459 -0.9908391 1.0 0.0 0.0 1.0 0.0 0.0 -0.0349526 0.1304459 -0.9908391 -0.0349526 0.1304459 -0.9908391 -0.0349526 0.1304459 -0.9908391 1.0 0.0 0.0 1.0 0.0 0.0 -0.0954928 0.0954928 -0.9908392 -0.0954928 0.0954928 -0.9908392 -0.0954928 0.0954928 -0.9908392 1.0 0.0 0.0 1.0 0.0 0.0 -0.1304459 0.0349526 -0.9908391 -0.1304459 0.0349526 -0.9908391 -0.1304459 0.0349526 -0.9908391 -0.3806896 -0.1020046 -0.9190596 -0.3806896 -0.1020046 -0.9190596 -0.3806896 -0.1020046 -0.9190596 -0.3806892 -0.1020049 -0.9190597 -0.3806892 -0.1020049 -0.9190597 -0.3806892 -0.1020049 -0.9190597 -0.278684 -0.278684 -0.9190595 -0.278684 -0.278684 -0.9190595 -0.278684 -0.278684 -0.9190595 -0.2786841 -0.2786841 -0.9190596 -0.2786841 -0.2786841 -0.9190596 -0.2786841 -0.2786841 -0.9190596 -0.1020045 -0.3806892 -0.9190598 -0.1020045 -0.3806892 -0.9190598 -0.1020045 -0.3806892 -0.9190598 -0.1020049 -0.3806894 -0.9190596 -0.1020049 -0.3806894 -0.9190596 -0.1020049 -0.3806894 -0.9190596 0.1020046 -0.3806896 -0.9190596 0.1020046 -0.3806896 -0.9190596 0.1020046 -0.3806896 -0.9190596 0.1020049 -0.3806892 -0.9190597 0.1020049 -0.3806892 -0.9190597 0.1020049 -0.3806892 -0.9190597 0.278684 -0.278684 -0.9190595 0.278684 -0.278684 -0.9190595 0.278684 -0.278684 -0.9190595 0.2786841 -0.2786841 -0.9190596 0.2786841 -0.2786841 -0.9190596 0.2786841 -0.2786841 -0.9190596 0.3806892 -0.1020045 -0.9190598 0.3806892 -0.1020045 -0.9190598 0.3806892 -0.1020045 -0.9190598 0.3806894 -0.1020049 -0.9190596 0.3806894 -0.1020049 -0.9190596 0.3806894 -0.1020049 -0.9190596 0.3806896 0.1020046 -0.9190596 0.3806896 0.1020046 -0.9190596 0.3806896 0.1020046 -0.9190596 0.3806892 0.1020049 -0.9190597 0.3806892 0.1020049 -0.9190597 0.3806892 0.1020049 -0.9190597 0.278684 0.278684 -0.9190595 0.278684 0.278684 -0.9190595 0.278684 0.278684 -0.9190595 0.2786841 0.2786841 -0.9190596 0.2786841 0.2786841 -0.9190596 0.2786841 0.2786841 -0.9190596 0.1020045 0.3806892 -0.9190598 0.1020045 0.3806892 -0.9190598 0.1020045 0.3806892 -0.9190598 0.1020049 0.3806894 -0.9190596 0.1020049 0.3806894 -0.9190596 0.1020049 0.3806894 -0.9190596 -0.1020046 0.3806896 -0.9190596 -0.1020046 0.3806896 -0.9190596 -0.1020046 0.3806896 -0.9190596 -0.1020049 0.3806892 -0.9190597 -0.1020049 0.3806892 -0.9190597 -0.1020049 0.3806892 -0.9190597 -0.278684 0.278684 -0.9190595 -0.278684 0.278684 -0.9190595 -0.278684 0.278684 -0.9190595 -0.2786841 0.2786841 -0.9190596 -0.2786841 0.2786841 -0.9190596 -0.2786841 0.2786841 -0.9190596 -0.3806892 0.1020045 -0.9190598 -0.3806892 0.1020045 -0.9190598 -0.3806892 0.1020045 -0.9190598 -0.3806894 0.1020049 -0.9190596 -0.3806894 0.1020049 -0.9190596 -0.3806894 0.1020049 -0.9190596 -0.6008211 -0.1609888 -0.7830048 -0.6008211 -0.1609888 -0.7830048 -0.6008211 -0.1609888 -0.7830048 -0.6008189 -0.1609902 -0.7830064 -0.6008189 -0.1609902 -0.7830064 -0.6008189 -0.1609902 -0.7830064 -0.4398314 -0.4398314 -0.7830049 -0.4398314 -0.4398314 -0.7830049 -0.4398314 -0.4398314 -0.7830049 -0.4398313 -0.4398313 -0.7830049 -0.4398313 -0.4398313 -0.7830049 -0.4398313 -0.4398313 -0.7830049 -0.1609882 -0.6008191 -0.7830066 -0.1609882 -0.6008191 -0.7830066 -0.1609882 -0.6008191 -0.7830066 -0.1609906 -0.6008204 -0.7830051 -0.1609906 -0.6008204 -0.7830051 -0.1609906 -0.6008204 -0.7830051 0.1609888 -0.6008211 -0.7830048 0.1609888 -0.6008211 -0.7830048 0.1609888 -0.6008211 -0.7830048 0.1609902 -0.6008189 -0.7830064 0.1609902 -0.6008189 -0.7830064 0.1609902 -0.6008189 -0.7830064 0.4398314 -0.4398314 -0.7830049 0.4398314 -0.4398314 -0.7830049 0.4398314 -0.4398314 -0.7830049 0.4398313 -0.4398313 -0.7830049 0.4398313 -0.4398313 -0.7830049 0.4398313 -0.4398313 -0.7830049</float_array>
                    <technique_common>
                        <accessor count="840" source="#geometry0-normal-array" stride="3">
                            <param name="X" type="float"/>
                            <param name="Y" type="float"/>
                            <param name="Z" type="float"/>
                        </accessor>
                    </technique_common>
                </source>
                <vertices id="geometry0-vertex">
                    <input semantic="POSITION" source="#geometry0-position"/>
                </vertices>
                <triangles count="288" material="default_ai_0.2_sh_0.2_tr_0.0_dc_r_0.8_g_0.8_b_0.8_sc_r_1.0_g_1.0_b_1.0_ec_r_0.0_g_0.0_b_0_tri">
                    <input offset="0" semantic="VERTEX" source="#geometry0-vertex"/>
                    <input offset="1" semantic="NORMAL" source="#geometry0-normal"/>
                    <p>18 0 19 1 31 2 18 3 31 4 30 5 19 6 20 7 32 8 19 9 32 10 31 11 20 12 21 13 33 14 20 15 33 16 32 17 21 18 22 19 34 20 21 21 34 22 33 23 22 24 23 25 35 26 22 27 35 28 34 29 23 30 24 31 36 32 23 33 36 34 35 35 24 36 14 37 26 38 24 39 26 40 36 41 26 42 25 43 37 44 26 45 37 46 38 47 25 48 27 49 39 50 25 51 39 52 37 53 27 54 28 55 40 56 27 57 40 58 39 59 28 60 29 61 41 62 28 63 41 64 40 65 29 66 30 67 42 68 29 69 42 70 41 71 30 72 31 73 43 74 30 75 43 76 42 77 31 78 32 79 44 80 31 81 44 82 43 83 32 84 33 85 45 86 32 87 45 88 44 89 33 90 34 91 46 92 33 93 46 94 45 95 34 96 35 97 47 98 34 99 47 100 46 101 35 102 36 103 48 104 35 105 48 106 47 107 36 108 26 109 38 110 36 111 38 112 48 113 38 114 37 115 49 116 38 117 49 118 50 119 37 120 39 121 51 122 37 123 51 124 49 125 39 126 40 127 52 128 39 129 52 130 51 131 40 132 41 133 53 134 40 135 53 136 52 137 41 138 42 139 54 140 41 141 54 142 53 143 42 144 43 145 55 146 42 147 55 148 54 149 43 150 44 151 56 152 43 153 56 154 55 155 44 156 45 157 57 158 44 159 57 160 56 161 45 162 46 163 58 164 45 165 58 166 57 167 46 168 47 169 59 170 46 171 59 172 58 173 47 174 48 175 60 176 47 177 60 178 59 179 48 180 38 181 50 182 48 183 50 184 60 185 50 186 49 187 61 188 50 189 61 190 62 191 49 192 51 193 63 194 49 195 63 196 61 197 51 198 52 199 64 200 51 201 64 202 63 203 52 204 53 205 65 206 52 207 65 208 64 209 53 210 54 211 66 212 53 213 66 214 65 215 54 216 55 217 67 218 54 219 67 220 66 221 55 222 56 223 68 224 55 225 68 226 67 227 56 228 57 229 69 230 56 231 69 232 68 233 57 234 58 235 70 236 57 237 70 238 69 239 58 240 59 241 71 242 58 243 71 244 70 245 59 246 60 247 72 248 59 249 72 250 71 251 60 252 50 253 62 254 60 255 62 256 72 257 62 258 61 259 73 260 62 261 73 262 74 263 61 264 63 265 75 266 61 267 75 268 73 269 63 270 64 271 76 272 63 273 76 274 75 275 64 276 65 277 77 278 64 279 77 280 76 281 65 282 66 283 78 284 65 285 78 286 77 287 66 288 67 289 79 290 66 291 79 292 78 293 67 294 68 295 80 296 67 297 80 298 79 299 68 300 69 301 81 302 68 303 81 304 80 305 69 306 70 307 82 308 69 309 82 310 81 311 70 312 71 313 83 314 70 315 83 316 82 317 71 318 72 319 84 320 71 321 84 322 83 323 72 324 62 325 74 326 72 327 74 328 84 329 74 330 73 331 85 332 74 333 85 334 86 335 73 336 75 337 87 338 73 339 87 340 85 341 75 342 76 343 88 344 75 345 88 346 87 347 76 348 77 349 89 350 76 351 89 352 88 353 77 354 78 355 90 356 77 357 90 358 89 359 78 360 79 361 91 362 78 363 91 364 90 365 79 366 80 367 92 368 79 369 92 370 91 371 80 372 81 373 93 374 80 375 93 376 92 377 81 378 82 379 94 380 81 381 94 382 93 383 82 384 83 385 95 386 82 387 95 388 94 389 83 390 84 391 96 392 83 393 96 394 95 395 84 396 74 397 86 398 84 399 86 400 96 401 86 402 85 403 97 404 86 405 97 406 98 407 85 408 87 409 99 410 85 411 99 412 97 413 87 414 88 415 100 416 87 417 100 418 99 419 88 420 89 421 101 422 88 423 101 424 100 425 89 426 90 427 102 428 89 429 102 430 101 431 90 432 91 433 103 434 90 435 103 436 102 437 91 438 92 439 104 440 91 441 104 442 103 443 92 444 93 445 105 446 92 447 105 448 104 449 93 450 94 451 106 452 93 453 106 454 105 455 94 456 95 457 107 458 94 459 107 460 106 461 95 462 96 463 108 464 95 465 108 466 107 467 96 468 86 469 98 470 96 471 98 472 108 473 98 474 97 475 109 476 98 477 109 478 110 479 97 480 99 481 111 482 97 483 111 484 109 485 99 486 100 487 112 488 99 489 112 490 111 491 100 492 101 493 113 494 100 495 113 496 112 497 101 498 102 499 114 500 101 501 114 502 113 503 102 504 103 505 115 506 102 507 115 508 114 509 103 510 104 511 116 512 103 513 116 514 115 515 104 516 105 517 117 518 104 519 117 520 116 521 105 522 106 523 118 524 105 525 118 526 117 527 106 528 107 529 119 530 106 531 119 532 118 533 107 534 108 535 120 536 107 537 120 538 119 539 108 540 98 541 110 542 108 543 110 544 120 545 110 546 109 547 121 548 110 549 121 550 122 551 109 552 111 553 123 554 109 555 123 556 121 557 111 558 112 559 124 560 111 561 124 562 123 563 112 564 113 565 125 566 112 567 125 568 124 569 113 570 114 571 126 572 113 573 126 574 125 575 114 576 115 577 127 578 114 579 127 580 126 581 115 582 116 583 128 584 115 585 128 586 127 587 116 588 117 589 129 590 116 591 129 592 128 593 117 594 118 595 130 596 117 597 130 598 129 599 118 600 119 601 131 602 118 603 131 604 130 605 119 606 120 607 132 608 119 609 132 610 131 611 120 612 110 613 122 614 120 615 122 616 132 617 122 618 121 619 133 620 122 621 133 622 133 622 121 623 123 624 133 625 121 626 133 627 133 627 123 628 124 629 133 630 123 631 133 632 133 632 124 633 125 634 133 635 124 636 133 637 133 637 125 638 126 639 133 640 125 641 133 642 133 642 126 643 127 644 133 645 126 646 133 647 133 647 127 648 128 649 133 650 127 651 133 652 133 652 128 653 129 654 133 655 128 656 133 657 133 657 129 658 130 659 133 660 129 661 133 662 133 662 130 663 131 664 133 665 130 666 133 667 133 667 131 668 132 669 133 670 131 671 133 672 133 672 132 673 122 674 133 675 132 676 133 677 133 677 0 678 0 678 1 679 0 680 1 681 2 682 0 683 0 683 3 684 0 685 3 686 1 687 0 688 0 688 4 689 0 690 4 691 3 692 0 693 0 693 5 694 0 695 5 696 4 697 0 698 0 698 6 699 0 700 6 701 5 702 0 703 0 703 7 704 0 705 7 706 6 707 0 708 0 708 8 709 0 710 8 711 7 712 0 713 0 713 9 714 0 715 9 716 8 717 0 718 0 718 10 719 0 720 10 721 9 722 0 723 0 723 11 724 0 725 11 726 10 727 0 728 0 728 12 729 0 730 12 731 11 732 0 733 0 733 2 734 0 735 2 736 12 737 2 738 1 739 13 740 2 741 13 742 14 743 1 744 3 745 15 746 1 747 15 748 13 749 3 750 4 751 16 752 3 753 16 754 15 755 4 756 5 757 17 758 4 759 17 760 16 761 5 762 6 763 18 764 5 765 18 766 17 767 6 768 7 769 19 770 6 771 19 772 18 773 7 774 8 775 20 776 7 777 20 778 19 779 8 780 9 781 21 782 8 783 21 784 20 785 9 786 10 787 22 788 9 789 22 790 21 791 10 792 11 793 23 794 10 795 23 796 22 797 11 798 12 799 24 800 11 801 24 802 23 803 12 804 2 805 14 806 12 807 14 808 24 809 14 810 13 811 25 812 14 813 25 814 26 815 13 816 15 817 27 818 13 819 27 820 25 821 15 822 16 823 28 824 15 825 28 826 27 827 16 828 17 829 29 830 16 831 29 832 28 833 17 834 18 835 30 836 17 837 30 838 29 839</p>
                </triangles>
            </mesh>
        </geometry>
    </library_geometries>
    <library_visual_scenes>
        <visual_scene id="Building_282_CROWN2">
            <node>
                <instance_geometry url="#geometry0">
                    <bind_material>
                        <technique_common>
                            <instance_material symbol="default_ai_0.2_sh_0.2_tr_0.0_dc_r_0.8_g_0.8_b_0.8_sc_r_1.0_g_1.0_b_1.0_ec_r_0.0_g_0.0_b_0_tri" target="#default_ai_0.2_sh_0.2_tr_0.0_dc_r_0.8_g_0.8_b_0.8_sc_r_1.0_g_1.0_b_1.0_ec_r_0.0_g_0.0_b_0_mat"/>
                        </technique_common>
                    </bind_material>
                </instance_geometry>
            </node>
        </visual_scene>
    </library_visual_scenes>
    <scene>
        <instance_visual_scene url="#Building_282_CROWN2"/>
    </scene>
</COLLADA>
