<?xml version="1.0" encoding="UTF-8" standalone="yes"?>
<COLLADA xmlns="http://www.collada.org/2005/11/COLLADASchema" version="1.4.1">
    <asset>
        <contributor>
            <authoring_tool>3D City Database Importer/Exporter, version 5.5.3; Chair of Geoinformatics, Technical University of Munich</authoring_tool>
        </contributor>
        <created>2026-09-25T14:45:29.973</created>
        <modified>2026-09-25T14:45:29.973</modified>
        <unit meter="1.0" name="meters"/>
        <up_axis>Z_UP</up_axis>
    </asset>
    <library_materials>
        <material id="default_ai_0.2_sh_0.2_tr_0.0_dc_r_0.8_g_0.8_b_0.8_sc_r_1.0_g_1.0_b_1.0_ec_r_0.0_g_0.0_b_0_mat">
            <instance_effect url="#default_ai_0.2_sh_0.2_tr_0.0_dc_r_0.8_g_0.8_b_0.8_sc_r_1.0_g_1.0_b_1.0_ec_r_0.0_g_0.0_b_0_eff"/>
        </material>
    </library_materials>
    <library_effects>
        <effect id="default_ai_0.2_sh_0.2_tr_0.0_dc_r_0.8_g_0.8_b_0.8_sc_r_1.0_g_1.0_b_1.0_ec_r_0.0_g_0.0_b_0_eff">
            <profile_COMMON>
                <technique sid="COMMON">
                    <lambert>
                        <emission>
                            <color>0.0 0.0 0.0 1.0</color>
                        </emission>
                        <diffuse>
                            <color>0.8 0.8 0.8 1.0</color>
                        </diffuse>
                        <reflective>
                            <color>1.0 1.0 1.0 1.0</color>
                        </reflective>
                        <reflectivity>
                            <float>0.2</float>
                        </reflectivity>
                        <transparent opaque="A_ONE">
                            <color>1.0 1.0 1.0 1.0</color>
                        </transparent>
                        <transparency>
                            <float>1.0</float>
                        </transparency>
                    </lambert>
                </technique>
                <extra>
                    <technique profile="GOOGLEEARTH">
                        <double_sided>0</double_sided>
                    </technique>
                </extra>
            </profile_COMMON>
        </effect>
    </library_effects>
    <library_geometries>
        <geometry id="geometry0">
            <mesh>
                <source id="geometry0-position">
                    <float_array id="geometry0-position-array" count="78">0.0 0.0 0.0 -0.0033495 0.0125 0.0 -0.0033495 0.0125 0.8333335 0.0 0.0 0.8333335 -0.0125 0.0216505 0.0 -0.0125 0.0216505 0.8333335 -0.025 0.025 0.0 -0.025 0.025 0.8333335 -0.0375 0.0216505 0.0 -0.0375 0.0216505 0.8333335 -0.0466505 0.0125 0.0 -0.0466505 0.0125 0.8333335 -0.05 0.0 0.0 -0.05 0.0 0.8333335 -0.0466505 -0.0125 0.0 -0.0466505 -0.0125 0.8333335 -0.0375 -0.0216505 0.0 -0.0375 -0.0216505 0.8333335 -0.025 -0.025 0.0 -0.025 -0.025 0.8333335 -0.0125 -0.0216505 0.0 -0.0125 -0.0216505 0.8333335 -0.0033495 -0.0125 0.0 -0.0033495 -0.0125 0.8333335 -0.025 0.0 0.0 -0.025 0.0 0.8333335</float_array>
                    <technique_common>
                        <accessor count="26" source="#geometry0-position-array" stride="3">
                            <param name="X" type="float"/>
                            <param name="Y" type="float"/>
                            <param name="Z" type="float"/>
                        </accessor>
                    </technique_common>
                </source>
                <source id="geometry0-normal">
                    <float_array id="geometry0-normal-array" count="432">-0.2588288 -0.9659233 0.0 -0.2588288 -0.9659233 0.0 -0.2588288 -0.9659233 0.0 -0.2588288 -0.9659233 0.0 -0.2588288 -0.9659233 0.0 -0.2588288 -0.9659233 0.0 0.2588288 -0.9659232 0.0 0.2588288 -0.9659232 0.0 0.2588288 -0.9659232 0.0 0.2588288 -0.9659232 0.0 0.2588288 -0.9659232 0.0 0.2588288 -0.9659232 0.0 0.7071068 -0.7071068 0.0 0.7071068 -0.7071068 0.0 0.7071068 -0.7071068 0.0 0.7071068 -0.7071068 0.0 0.7071068 -0.7071068 0.0 0.7071068 -0.7071068 0.0 0.9659232 -0.2588288 0.0 0.9659232 -0.2588288 0.0 0.9659232 -0.2588288 0.0 0.9659232 -0.2588288 0.0 0.9659232 -0.2588288 0.0 0.9659232 -0.2588288 0.0 0.0 0.0 -1.0 0.0 0.0 -1.0 0.0 0.0 -1.0 0.0 0.0 -1.0 0.0 0.0 -1.0 0.0 0.0 -1.0 0.0 0.0 -1.0 0.0 0.0 -1.0 0.0 0.0 -1.0 0.0 0.0 -1.0 0.0 0.0 -1.0 0.0 0.0 -1.0 0.0 0.0 -1.0 0.0 0.0 -1.0 0.0 0.0 -1.0 0.0 0.0 -1.0 0.0 0.0 -1.0 0.0 0.0 -1.0 0.0 0.0 -1.0 0.0 0.0 -1.0 0.0 0.0 -1.0 0.0 0.0 -1.0 0.0 0.0 -1.0 0.0 0.0 -1.0 0.0 0.0 -1.0 0.0 0.0 -1.0 0.0 0.0 -1.0 0.0 0.0 -1.0 0.0 0.0 -1.0 0.0 0.0 -1.0 0.0 0.0 -1.0 0.0 0.0 -1.0 0.0 0.0 -1.0 0.0 0.0 -1.0 0.0 0.0 -1.0 0.0 0.0 -1.0 0.0 0.0 1.0 0.0 0.0 1.0 0.0 0.0 1.0 0.0 0.0 1.0 0.0 0.0 1.0 0.0 0.0 1.0 0.0 0.0 1.0 0.0 0.0 1.0 0.0 0.0 1.0 0.0 0.0 1.0 0.0 0.0 1.0 0.0 0.0 1.0 0.0 0.0 1.0 0.0 0.0 1.0 0.0 0.0 1.0 0.0 0.0 1.0 0.0 0.0 1.0 0.0 0.0 1.0 0.0 0.0 1.0 0.0 0.0 1.0 0.0 0.0 1.0 0.0 0.0 1.0 0.0 0.0 1.0 0.0 0.0 1.0 0.0 0.0 1.0 0.0 0.0 1.0 0.0 0.0 1.0 0.0 0.0 1.0 0.0 0.0 1.0 0.0 0.0 1.0 0.0 0.0 1.0 0.0 0.0 1.0 0.0 0.0 1.0 0.0 0.0 1.0 0.0 0.0 1.0 0.0 0.0 1.0 0.9659232 0.2588288 0.0 0.9659232 0.2588288 0.0 0.9659232 0.2588288 0.0 0.9659232 0.2588288 0.0 0.9659232 0.2588288 0.0 0.9659232 0.2588288 0.0 0.7071068 0.7071068 0.0 0.7071068 0.7071068 0.0 0.7071068 0.7071068 0.0 0.7071068 0.7071068 0.0 0.7071068 0.7071068 0.0 0.7071068 0.7071068 0.0 0.2588288 0.9659232 0.0 0.2588288 0.9659232 0.0 0.2588288 0.9659232 0.0 0.2588288 0.9659232 0.0 0.2588288 0.9659232 0.0 0.2588288 0.9659232 0.0 -0.2588288 0.9659233 0.0 -0.2588288 0.9659233 0.0 -0.2588288 0.9659233 0.0 -0.2588288 0.9659233 0.0 -0.2588288 0.9659233 0.0 -0.2588288 0.9659233 0.0 -0.7071069 0.7071066 0.0 -0.7071069 0.7071066 0.0 -0.7071069 0.7071066 0.0 -0.7071069 0.7071066 0.0 -0.7071069 0.7071066 0.0 -0.7071069 0.7071066 0.0 -0.9659232 0.2588289 0.0 -0.9659232 0.2588289 0.0 -0.9659232 0.2588289 0.0 -0.9659232 0.2588289 0.0 -0.9659232 0.2588289 0.0 -0.9659232 0.2588289 0.0 -0.9659232 -0.2588289 0.0 -0.9659232 -0.2588289 0.0 -0.9659232 -0.2588289 0.0 -0.9659232 -0.2588289 0.0 -0.9659232 -0.2588289 0.0 -0.9659232 -0.2588289 0.0 -0.7071069 -0.7071066 0.0 -0.7071069 -0.7071066 0.0 -0.7071069 -0.7071066 0.0 -0.7071069 -0.7071066 0.0 -0.7071069 -0.7071066 0.0 -0.7071069 -0.7071066 0.0</float_array>
                    <technique_common>
                        <accessor count="144" source="#geometry0-normal-array" stride="3">
                            <param name="X" type="float"/>
                            <param name="Y" type="float"/>
                            <param name="Z" type="float"/>
                        </accessor>
                    </technique_common>
                </source>
                <vertices id="geometry0-vertex">
                    <input semantic="POSITION" source="#geometry0-position"/>
                </vertices>
                <triangles count="48" material="default_ai_0.2_sh_0.2_tr_0.0_dc_r_0.8_g_0.8_b_0.8_sc_r_1.0_g_1.0_b_1.0_ec_r_0.0_g_0.0_b_0_tri">
                    <input offset="0" semantic="VERTEX" source="#geometry0-vertex"/>
                    <input offset="1" semantic="NORMAL" source="#geometry0-normal"/>
                    <p>16 0 18 1 19 2 16 3 19 4 17 5 18 6 20 7 21 8 18 9 21 10 19 11 20 12 22 13 23 14 20 15 23 16 21 17 22 18 0 19 3 20 22 21 3 22 23 23 24 24 1 25 0 26 24 27 4 28 1 29 24 30 6 31 4 32 24 33 8 34 6 35 24 36 10 37 8 38 24 39 12 40 10 41 24 42 14 43 12 44 24 45 16 46 14 47 24 48 18 49 16 50 24 51 20 52 18 53 24 54 22 55 20 56 24 57 0 58 22 59 25 60 3 61 2 62 25 63 2 64 5 65 25 66 5 67 7 68 25 69 7 70 9 71 25 72 9 73 11 74 25 75 11 76 13 77 25 78 13 79 15 80 25 81 15 82 17 83 25 84 17 85 19 86 25 87 19 88 21 89 25 90 21 91 23 92 25 93 23 94 3 95 0 96 1 97 2 98 0 99 2 100 3 101 1 102 4 103 5 104 1 105 5 106 2 107 4 108 6 109 7 110 4 111 7 112 5 113 6 114 8 115 9 116 6 117 9 118 7 119 8 120 10 121 11 122 8 123 11 124 9 125 10 126 12 127 13 128 10 129 13 130 11 131 12 132 14 133 15 134 12 135 15 136 13 137 14 138 16 139 17 140 14 141 17 142 15 143</p>
                </triangles>
            </mesh>
        </geometry>
    </library_geometries>
    <library_visual_scenes>
        <visual_scene id="Building_257_TRUNK1">
            <node>
                <instance_geometry url="#geometry0">
                    <bind_material>
                        <technique_common>
                            <instance_material symbol="default_ai_0.2_sh_0.2_tr_0.0_dc_r_0.8_g_0.8_b_0.8_sc_r_1.0_g_1.0_b_1.0_ec_r_0.0_g_0.0_b_0_tri" target="#default_ai_0.2_sh_0.2_tr_0.0_dc_r_0.8_g_0.8_b_0.8_sc_r_1.0_g_1.0_b_1.0_ec_r_0.0_g_0.0_b_0_mat"/>
                        </technique_common>
                    </bind_material>
                </instance_geometry>
            </node>
        </visual_scene>
    </library_visual_scenes>
    <scene>
        <instance_visual_scene url="#Building_257_TRUNK1"/>
    </scene>
</COLLADA>
