<?xml version="1.0" encoding="UTF-8" standalone="yes"?>
<COLLADA xmlns="http://www.collada.org/2005/11/COLLADASchema" version="1.4.1">
    <asset>
        <contributor>
            <authoring_tool>3D City Database Importer/Exporter, version 5.5.3; Chair of Geoinformatics, Technical University of Munich</authoring_tool>
        </contributor>
        <created>2026-09-25T14:45:32.078</created>
        <modified>2026-09-25T14:45:32.078</modified>
        <unit meter="1.0" name="meters"/>
        <up_axis>Z_UP</up_axis>
    </asset>
    <library_materials>
        <material id="default_ai_0.2_sh_0.2_tr_0.0_dc_r_0.8_g_0.8_b_0.8_sc_r_1.0_g_1.0_b_1.0_ec_r_0.0_g_0.0_b_0_mat">
            <instance_effect url="#default_ai_0.2_sh_0.2_tr_0.0_dc_r_0.8_g_0.8_b_0.8_sc_r_1.0_g_1.0_b_1.0_ec_r_0.0_g_0.0_b_0_eff"/>
        </material>
    </library_materials>
    <library_effects>
        <effect id="default_ai_0.2_sh_0.2_tr_0.0_dc_r_0.8_g_0.8_b_0.8_sc_r_1.0_g_1.0_b_1.0_ec_r_0.0_g_0.0_b_0_eff">
            <profile_COMMON>
                <technique sid="COMMON">
                    <lambert>
                        <emission>
                            <color>0.0 0.0 0.0 1.0</color>
                        </emission>
                        <diffuse>
                            <color>0.8 0.8 0.8 1.0</color>
                        </diffuse>
                        <reflective>
                            <color>1.0 1.0 1.0 1.0</color>
                        </reflective>
                        <reflectivity>
                            <float>0.2</float>
                        </reflectivity>
                        <transparent opaque="A_ONE">
                            <color>1.0 1.0 1.0 1.0</color>
                        </transparent>
                        <transparency>
                            <float>1.0</float>
                        </transparency>
                    </lambert>
                </technique>
                <extra>
                    <technique profile="GOOGLEEARTH">
                        <double_sided>0</double_sided>
                    </technique>
                </extra>
            </profile_COMMON>
        </effect>
    </library_effects>
    <library_geometries>
        <geometry id="geometry0">
            <mesh>
                <source id="geometry0-position">
                    <float_array id="geometry0-position-array" count="78">0.0 0.0 0.0 -0.0104496 0.039 0.0 -0.0104496 0.039 0.96 0.0 0.0 0.96 -0.039 0.0675504 0.0 -0.039 0.0675504 0.96 -0.078 0.078 0.0 -0.078 0.078 0.96 -0.117 0.0675504 0.0 -0.117 0.0675504 0.96 -0.1455504 0.039 0.0 -0.1455504 0.039 0.96 -0.156 0.0 0.0 -0.156 0.0 0.96 -0.1455504 -0.039 0.0 -0.1455504 -0.039 0.96 -0.117 -0.0675504 0.0 -0.117 -0.0675504 0.96 -0.078 -0.078 0.0 -0.078 -0.078 0.96 -0.039 -0.0675504 0.0 -0.039 -0.0675504 0.96 -0.0104496 -0.039 0.0 -0.0104496 -0.039 0.96 -0.078 0.0 0.0 -0.078 0.0 0.96</float_array>
                    <technique_common>
                        <accessor count="26" source="#geometry0-position-array" stride="3">
                            <param name="X" type="float"/>
                            <param name="Y" type="float"/>
                            <param name="Z" type="float"/>
                        </accessor>
                    </technique_common>
                </source>
                <source id="geometry0-normal">
                    <float_array id="geometry0-normal-array" count="432">-0.7071068 -0.7071068 0.0 -0.7071068 -0.7071068 0.0 -0.7071068 -0.7071068 0.0 -0.7071068 -0.7071068 0.0 -0.7071068 -0.7071068 0.0 -0.7071068 -0.7071068 0.0 -0.2588094 -0.9659284 0.0 -0.2588094 -0.9659284 0.0 -0.2588094 -0.9659284 0.0 -0.2588094 -0.9659284 0.0 -0.2588094 -0.9659284 0.0 -0.2588094 -0.9659284 0.0 0.2588094 -0.9659284 0.0 0.2588094 -0.9659284 0.0 0.2588094 -0.9659284 0.0 0.2588094 -0.9659284 0.0 0.2588094 -0.9659284 0.0 0.2588094 -0.9659284 0.0 0.7071068 -0.7071068 0.0 0.7071068 -0.7071068 0.0 0.7071068 -0.7071068 0.0 0.7071068 -0.7071068 0.0 0.7071068 -0.7071068 0.0 0.7071068 -0.7071068 0.0 0.9659285 -0.2588094 0.0 0.9659285 -0.2588094 0.0 0.9659285 -0.2588094 0.0 0.9659285 -0.2588094 0.0 0.9659285 -0.2588094 0.0 0.9659285 -0.2588094 0.0 0.0 0.0 -1.0 0.0 0.0 -1.0 0.0 0.0 -1.0 0.0 0.0 -1.0 0.0 0.0 -1.0 0.0 0.0 -1.0 0.0 0.0 -1.0 0.0 0.0 -1.0 0.0 0.0 -1.0 0.0 0.0 -1.0 0.0 0.0 -1.0 0.0 0.0 -1.0 0.0 0.0 -1.0 0.0 0.0 -1.0 0.0 0.0 -1.0 0.0 0.0 -1.0 0.0 0.0 -1.0 0.0 0.0 -1.0 0.0 0.0 -1.0 0.0 0.0 -1.0 0.0 0.0 -1.0 0.0 0.0 -1.0 0.0 0.0 -1.0 0.0 0.0 -1.0 0.0 0.0 -1.0 0.0 0.0 -1.0 0.0 0.0 -1.0 0.0 0.0 -1.0 0.0 0.0 -1.0 0.0 0.0 -1.0 0.0 0.0 -1.0 0.0 0.0 -1.0 0.0 0.0 -1.0 0.0 0.0 -1.0 0.0 0.0 -1.0 0.0 0.0 -1.0 0.0 0.0 1.0 0.0 0.0 1.0 0.0 0.0 1.0 0.0 0.0 1.0 0.0 0.0 1.0 0.0 0.0 1.0 0.0 0.0 1.0 0.0 0.0 1.0 0.0 0.0 1.0 0.0 0.0 1.0 0.0 0.0 1.0 0.0 0.0 1.0 0.0 0.0 1.0 0.0 0.0 1.0 0.0 0.0 1.0 0.0 0.0 1.0 0.0 0.0 1.0 0.0 0.0 1.0 0.0 0.0 1.0 0.0 0.0 1.0 0.0 0.0 1.0 0.0 0.0 1.0 0.0 0.0 1.0 0.0 0.0 1.0 0.0 0.0 1.0 0.0 0.0 1.0 0.0 0.0 1.0 0.0 0.0 1.0 0.0 0.0 1.0 0.0 0.0 1.0 0.0 0.0 1.0 0.0 0.0 1.0 0.0 0.0 1.0 0.0 0.0 1.0 0.0 0.0 1.0 0.0 0.0 1.0 0.9659285 0.2588094 0.0 0.9659285 0.2588094 0.0 0.9659285 0.2588094 0.0 0.9659285 0.2588094 0.0 0.9659285 0.2588094 0.0 0.9659285 0.2588094 0.0 0.7071068 0.7071068 0.0 0.7071068 0.7071068 0.0 0.7071068 0.7071068 0.0 0.7071068 0.7071068 0.0 0.7071068 0.7071068 0.0 0.7071068 0.7071068 0.0 0.2588094 0.9659284 0.0 0.2588094 0.9659284 0.0 0.2588094 0.9659284 0.0 0.2588094 0.9659284 0.0 0.2588094 0.9659284 0.0 0.2588094 0.9659284 0.0 -0.2588094 0.9659284 0.0 -0.2588094 0.9659284 0.0 -0.2588094 0.9659284 0.0 -0.2588094 0.9659284 0.0 -0.2588094 0.9659284 0.0 -0.2588094 0.9659284 0.0 -0.7071068 0.7071068 0.0 -0.7071068 0.7071068 0.0 -0.7071068 0.7071068 0.0 -0.7071068 0.7071068 0.0 -0.7071068 0.7071068 0.0 -0.7071068 0.7071068 0.0 -0.9659284 0.2588094 0.0 -0.9659284 0.2588094 0.0 -0.9659284 0.2588094 0.0 -0.9659284 0.2588094 0.0 -0.9659284 0.2588094 0.0 -0.9659284 0.2588094 0.0 -0.9659284 -0.2588094 0.0 -0.9659284 -0.2588094 0.0 -0.9659284 -0.2588094 0.0 -0.9659284 -0.2588094 0.0 -0.9659284 -0.2588094 0.0 -0.9659284 -0.2588094 0.0</float_array>
                    <technique_common>
                        <accessor count="144" source="#geometry0-normal-array" stride="3">
                            <param name="X" type="float"/>
                            <param name="Y" type="float"/>
                            <param name="Z" type="float"/>
                        </accessor>
                    </technique_common>
                </source>
                <vertices id="geometry0-vertex">
                    <input semantic="POSITION" source="#geometry0-position"/>
                </vertices>
                <triangles count="48" material="default_ai_0.2_sh_0.2_tr_0.0_dc_r_0.8_g_0.8_b_0.8_sc_r_1.0_g_1.0_b_1.0_ec_r_0.0_g_0.0_b_0_tri">
                    <input offset="0" semantic="VERTEX" source="#geometry0-vertex"/>
                    <input offset="1" semantic="NORMAL" source="#geometry0-normal"/>
                    <p>14 0 16 1 17 2 14 3 17 4 15 5 16 6 18 7 19 8 16 9 19 10 17 11 18 12 20 13 21 14 18 15 21 16 19 17 20 18 22 19 23 20 20 21 23 22 21 23 22 24 0 25 3 26 22 27 3 28 23 29 24 30 1 31 0 32 24 33 4 34 1 35 24 36 6 37 4 38 24 39 8 40 6 41 24 42 10 43 8 44 24 45 12 46 10 47 24 48 14 49 12 50 24 51 16 52 14 53 24 54 18 55 16 56 24 57 20 58 18 59 24 60 22 61 20 62 24 63 0 64 22 65 25 66 3 67 2 68 25 69 2 70 5 71 25 72 5 73 7 74 25 75 7 76 9 77 25 78 9 79 11 80 25 81 11 82 13 83 25 84 13 85 15 86 25 87 15 88 17 89 25 90 17 91 19 92 25 93 19 94 21 95 25 96 21 97 23 98 25 99 23 100 3 101 0 102 1 103 2 104 0 105 2 106 3 107 1 108 4 109 5 110 1 111 5 112 2 113 4 114 6 115 7 116 4 117 7 118 5 119 6 120 8 121 9 122 6 123 9 124 7 125 8 126 10 127 11 128 8 129 11 130 9 131 10 132 12 133 13 134 10 135 13 136 11 137 12 138 14 139 15 140 12 141 15 142 13 143</p>
                </triangles>
            </mesh>
        </geometry>
    </library_geometries>
    <library_visual_scenes>
        <visual_scene id="Building_246_TRUNK2">
            <node>
                <instance_geometry url="#geometry0">
                    <bind_material>
                        <technique_common>
                            <instance_material symbol="default_ai_0.2_sh_0.2_tr_0.0_dc_r_0.8_g_0.8_b_0.8_sc_r_1.0_g_1.0_b_1.0_ec_r_0.0_g_0.0_b_0_tri" target="#default_ai_0.2_sh_0.2_tr_0.0_dc_r_0.8_g_0.8_b_0.8_sc_r_1.0_g_1.0_b_1.0_ec_r_0.0_g_0.0_b_0_mat"/>
                        </technique_common>
                    </bind_material>
                </instance_geometry>
            </node>
        </visual_scene>
    </library_visual_scenes>
    <scene>
        <instance_visual_scene url="#Building_246_TRUNK2"/>
    </scene>
</COLLADA>
