<?xml version="1.0" encoding="UTF-8" standalone="yes"?>
<COLLADA xmlns="http://www.collada.org/2005/11/COLLADASchema" version="1.4.1">
    <asset>
        <contributor>
            <authoring_tool>3D City Database Importer/Exporter, version 5.5.3; Chair of Geoinformatics, Technical University of Munich</authoring_tool>
        </contributor>
        <created>2026-09-25T14:44:49.270</created>
        <modified>2026-09-25T14:44:49.270</modified>
        <unit meter="1.0" name="meters"/>
        <up_axis>Z_UP</up_axis>
    </asset>
    <library_materials>
        <material id="default_ai_0.2_sh_0.2_tr_0.0_dc_r_0.8_g_0.8_b_0.8_sc_r_1.0_g_1.0_b_1.0_ec_r_0.0_g_0.0_b_0_mat">
            <instance_effect url="#default_ai_0.2_sh_0.2_tr_0.0_dc_r_0.8_g_0.8_b_0.8_sc_r_1.0_g_1.0_b_1.0_ec_r_0.0_g_0.0_b_0_eff"/>
        </material>
    </library_materials>
    <library_effects>
        <effect id="default_ai_0.2_sh_0.2_tr_0.0_dc_r_0.8_g_0.8_b_0.8_sc_r_1.0_g_1.0_b_1.0_ec_r_0.0_g_0.0_b_0_eff">
            <profile_COMMON>
                <technique sid="COMMON">
                    <lambert>
                        <emission>
                            <color>0.0 0.0 0.0 1.0</color>
                        </emission>
                        <diffuse>
                            <color>0.8 0.8 0.8 1.0</color>
                        </diffuse>
                        <reflective>
                            <color>1.0 1.0 1.0 1.0</color>
                        </reflective>
                        <reflectivity>
                            <float>0.2</float>
                        </reflectivity>
                        <transparent opaque="A_ONE">
                            <color>1.0 1.0 1.0 1.0</color>
                        </transparent>
                        <transparency>
                            <float>1.0</float>
                        </transparency>
                    </lambert>
                </technique>
                <extra>
                    <technique profile="GOOGLEEARTH">
                        <double_sided>0</double_sided>
                    </technique>
                </extra>
            </profile_COMMON>
        </effect>
    </library_effects>
    <library_geometries>
        <geometry id="geometry0">
            <mesh>
                <source id="geometry0-position">
                    <float_array id="geometry0-position-array" count="78">0.0 0.0 0.0 -0.0040194 0.015 0.0 -0.0040194 0.015 1.0000002 0.0 0.0 1.0000002 -0.015 0.0259806 0.0 -0.015 0.0259806 1.0000002 -0.03 0.03 0.0 -0.03 0.03 1.0000002 -0.045 0.0259806 0.0 -0.045 0.0259806 1.0000002 -0.0559806 0.015 0.0 -0.0559806 0.015 1.0000002 -0.06 0.0 0.0 -0.06 0.0 1.0000002 -0.0559806 -0.015 0.0 -0.0559806 -0.015 1.0000002 -0.045 -0.0259806 0.0 -0.045 -0.0259806 1.0000002 -0.03 -0.03 0.0 -0.03 -0.03 1.0000002 -0.015 -0.0259806 0.0 -0.015 -0.0259806 1.0000002 -0.0040194 -0.015 0.0 -0.0040194 -0.015 1.0000002 -0.03 0.0 0.0 -0.03 0.0 1.0000002</float_array>
                    <technique_common>
                        <accessor count="26" source="#geometry0-position-array" stride="3">
                            <param name="X" type="float"/>
                            <param name="Y" type="float"/>
                            <param name="Z" type="float"/>
                        </accessor>
                    </technique_common>
                </source>
                <source id="geometry0-normal">
                    <float_array id="geometry0-normal-array" count="432">0.0 0.0 -1.0 0.0 0.0 -1.0 0.0 0.0 -1.0 0.0 0.0 -1.0 0.0 0.0 -1.0 0.0 0.0 -1.0 0.0 0.0 -1.0 0.0 0.0 -1.0 0.0 0.0 -1.0 0.0 0.0 -1.0 0.0 0.0 -1.0 0.0 0.0 -1.0 0.0 0.0 -1.0 0.0 0.0 -1.0 0.0 0.0 -1.0 0.0 0.0 -1.0 0.0 0.0 -1.0 0.0 0.0 -1.0 0.0 0.0 -1.0 0.0 0.0 -1.0 0.0 0.0 -1.0 0.0 0.0 -1.0 0.0 0.0 -1.0 0.0 0.0 -1.0 0.0 0.0 -1.0 0.0 0.0 -1.0 0.0 0.0 -1.0 0.0 0.0 -1.0 0.0 0.0 -1.0 0.0 0.0 -1.0 0.0 0.0 1.0 0.0 0.0 1.0 0.0 0.0 1.0 0.0 0.0 1.0 0.0 0.0 1.0 0.0 0.0 1.0 0.0 0.0 1.0 0.0 0.0 1.0 0.0 0.0 1.0 0.0 0.0 1.0 0.0 0.0 1.0 0.0 0.0 1.0 0.0 0.0 1.0 0.0 0.0 1.0 0.0 0.0 1.0 0.0 0.0 1.0 0.0 0.0 1.0 0.0 0.0 1.0 0.0 0.0 1.0 0.0 0.0 1.0 0.0 0.0 1.0 0.0 0.0 1.0 0.0 0.0 1.0 0.0 0.0 1.0 0.0 0.0 1.0 0.0 0.0 1.0 0.0 0.0 1.0 0.0 0.0 1.0 0.0 0.0 1.0 0.0 0.0 1.0 0.0 0.0 1.0 0.0 0.0 1.0 0.0 0.0 1.0 0.0 0.0 1.0 0.0 0.0 1.0 0.0 0.0 1.0 0.9659232 0.2588288 0.0 0.9659232 0.2588288 0.0 0.9659232 0.2588288 0.0 0.9659232 0.2588288 0.0 0.9659232 0.2588288 0.0 0.9659232 0.2588288 0.0 0.7071068 0.7071068 0.0 0.7071068 0.7071068 0.0 0.7071068 0.7071068 0.0 0.7071068 0.7071068 0.0 0.7071068 0.7071068 0.0 0.7071068 0.7071068 0.0 0.2588289 0.9659232 0.0 0.2588289 0.9659232 0.0 0.2588289 0.9659232 0.0 0.2588289 0.9659232 0.0 0.2588289 0.9659232 0.0 0.2588289 0.9659232 0.0 -0.2588288 0.9659232 0.0 -0.2588288 0.9659232 0.0 -0.2588288 0.9659232 0.0 -0.2588288 0.9659232 0.0 -0.2588288 0.9659232 0.0 -0.2588288 0.9659232 0.0 -0.7071068 0.7071068 0.0 -0.7071068 0.7071068 0.0 -0.7071068 0.7071068 0.0 -0.7071068 0.7071068 0.0 -0.7071068 0.7071068 0.0 -0.7071068 0.7071068 0.0 -0.9659232 0.2588287 0.0 -0.9659232 0.2588287 0.0 -0.9659232 0.2588287 0.0 -0.9659232 0.2588287 0.0 -0.9659232 0.2588287 0.0 -0.9659232 0.2588287 0.0 -0.9659232 -0.2588287 0.0 -0.9659232 -0.2588287 0.0 -0.9659232 -0.2588287 0.0 -0.9659232 -0.2588287 0.0 -0.9659232 -0.2588287 0.0 -0.9659232 -0.2588287 0.0 -0.7071068 -0.7071068 0.0 -0.7071068 -0.7071068 0.0 -0.7071068 -0.7071068 0.0 -0.7071068 -0.7071068 0.0 -0.7071068 -0.7071068 0.0 -0.7071068 -0.7071068 0.0 -0.2588288 -0.9659232 0.0 -0.2588288 -0.9659232 0.0 -0.2588288 -0.9659232 0.0 -0.2588288 -0.9659232 0.0 -0.2588288 -0.9659232 0.0 -0.2588288 -0.9659232 0.0 0.2588289 -0.9659232 0.0 0.2588289 -0.9659232 0.0 0.2588289 -0.9659232 0.0 0.2588289 -0.9659232 0.0 0.2588289 -0.9659232 0.0 0.2588289 -0.9659232 0.0 0.7071068 -0.7071068 0.0 0.7071068 -0.7071068 0.0 0.7071068 -0.7071068 0.0 0.7071068 -0.7071068 0.0 0.7071068 -0.7071068 0.0 0.7071068 -0.7071068 0.0 0.9659232 -0.2588288 0.0 0.9659232 -0.2588288 0.0 0.9659232 -0.2588288 0.0 0.9659232 -0.2588288 0.0 0.9659232 -0.2588288 0.0 0.9659232 -0.2588288 0.0 0.0 0.0 -1.0 0.0 0.0 -1.0 0.0 0.0 -1.0 0.0 0.0 -1.0 0.0 0.0 -1.0 0.0 0.0 -1.0</float_array>
                    <technique_common>
                        <accessor count="144" source="#geometry0-normal-array" stride="3">
                            <param name="X" type="float"/>
                            <param name="Y" type="float"/>
                            <param name="Z" type="float"/>
                        </accessor>
                    </technique_common>
                </source>
                <vertices id="geometry0-vertex">
                    <input semantic="POSITION" source="#geometry0-position"/>
                </vertices>
                <triangles count="48" material="default_ai_0.2_sh_0.2_tr_0.0_dc_r_0.8_g_0.8_b_0.8_sc_r_1.0_g_1.0_b_1.0_ec_r_0.0_g_0.0_b_0_tri">
                    <input offset="0" semantic="VERTEX" source="#geometry0-vertex"/>
                    <input offset="1" semantic="NORMAL" source="#geometry0-normal"/>
                    <p>24 0 6 1 4 2 24 3 8 4 6 5 24 6 10 7 8 8 24 9 12 10 10 11 24 12 14 13 12 14 24 15 16 16 14 17 24 18 18 19 16 20 24 21 20 22 18 23 24 24 22 25 20 26 24 27 0 28 22 29 25 30 3 31 2 32 25 33 2 34 5 35 25 36 5 37 7 38 25 39 7 40 9 41 25 42 9 43 11 44 25 45 11 46 13 47 25 48 13 49 15 50 25 51 15 52 17 53 25 54 17 55 19 56 25 57 19 58 21 59 25 60 21 61 23 62 25 63 23 64 3 65 0 66 1 67 2 68 0 69 2 70 3 71 1 72 4 73 5 74 1 75 5 76 2 77 4 78 6 79 7 80 4 81 7 82 5 83 6 84 8 85 9 86 6 87 9 88 7 89 8 90 10 91 11 92 8 93 11 94 9 95 10 96 12 97 13 98 10 99 13 100 11 101 12 102 14 103 15 104 12 105 15 106 13 107 14 108 16 109 17 110 14 111 17 112 15 113 16 114 18 115 19 116 16 117 19 118 17 119 18 120 20 121 21 122 18 123 21 124 19 125 20 126 22 127 23 128 20 129 23 130 21 131 22 132 0 133 3 134 22 135 3 136 23 137 24 138 1 139 0 140 24 141 4 142 1 143</p>
                </triangles>
            </mesh>
        </geometry>
    </library_geometries>
    <library_visual_scenes>
        <visual_scene id="Building_35_TRUNK1">
            <node>
                <instance_geometry url="#geometry0">
                    <bind_material>
                        <technique_common>
                            <instance_material symbol="default_ai_0.2_sh_0.2_tr_0.0_dc_r_0.8_g_0.8_b_0.8_sc_r_1.0_g_1.0_b_1.0_ec_r_0.0_g_0.0_b_0_tri" target="#default_ai_0.2_sh_0.2_tr_0.0_dc_r_0.8_g_0.8_b_0.8_sc_r_1.0_g_1.0_b_1.0_ec_r_0.0_g_0.0_b_0_mat"/>
                        </technique_common>
                    </bind_material>
                </instance_geometry>
            </node>
        </visual_scene>
    </library_visual_scenes>
    <scene>
        <instance_visual_scene url="#Building_35_TRUNK1"/>
    </scene>
</COLLADA>
