<?xml version="1.0" encoding="UTF-8" standalone="yes"?>
<COLLADA xmlns="http://www.collada.org/2005/11/COLLADASchema" version="1.4.1">
    <asset>
        <contributor>
            <authoring_tool>3D City Database Importer/Exporter, version 5.5.3; Chair of Geoinformatics, Technical University of Munich</authoring_tool>
        </contributor>
        <created>2026-09-25T14:44:59.664</created>
        <modified>2026-09-25T14:44:59.664</modified>
        <unit meter="1.0" name="meters"/>
        <up_axis>Z_UP</up_axis>
    </asset>
    <library_materials>
        <material id="default_ai_0.2_sh_0.2_tr_0.0_dc_r_0.8_g_0.8_b_0.8_sc_r_1.0_g_1.0_b_1.0_ec_r_0.0_g_0.0_b_0_mat">
            <instance_effect url="#default_ai_0.2_sh_0.2_tr_0.0_dc_r_0.8_g_0.8_b_0.8_sc_r_1.0_g_1.0_b_1.0_ec_r_0.0_g_0.0_b_0_eff"/>
        </material>
    </library_materials>
    <library_effects>
        <effect id="default_ai_0.2_sh_0.2_tr_0.0_dc_r_0.8_g_0.8_b_0.8_sc_r_1.0_g_1.0_b_1.0_ec_r_0.0_g_0.0_b_0_eff">
            <profile_COMMON>
                <technique sid="COMMON">
                    <lambert>
                        <emission>
                            <color>0.0 0.0 0.0 1.0</color>
                        </emission>
                        <diffuse>
                            <color>0.8 0.8 0.8 1.0</color>
                        </diffuse>
                        <reflective>
                            <color>1.0 1.0 1.0 1.0</color>
                        </reflective>
                        <reflectivity>
                            <float>0.2</float>
                        </reflectivity>
                        <transparent opaque="A_ONE">
                            <color>1.0 1.0 1.0 1.0</color>
                        </transparent>
                        <transparency>
                            <float>1.0</float>
                        </transparency>
                    </lambert>
                </technique>
                <extra>
                    <technique profile="GOOGLEEARTH">
                        <double_sided>0</double_sided>
                    </technique>
                </extra>
            </profile_COMMON>
        </effect>
    </library_effects>
    <library_geometries>
        <geometry id="geometry0">
            <mesh>
                <source id="geometry0-position">
                    <float_array id="geometry0-position-array" count="402">0.0 0.0 1.6 0.1793152 0.103528 1.5727408 0.2070552 0.0 1.5727408 0.103528 0.1793152 1.5727408 0.0 0.2070552 1.5727408 -0.103528 0.1793152 1.5727408 -0.1793152 0.103528 1.5727408 -0.2070552 0.0 1.5727408 -0.1793152 -0.103528 1.5727408 -0.103528 -0.1793152 1.5727408 0.0 -0.2070552 1.5727408 0.103528 -0.1793152 1.5727408 0.1793152 -0.103528 1.5727408 0.3464104 0.2 1.49282 0.4 0.0 1.49282 0.2 0.3464104 1.49282 0.0 0.4 1.49282 -0.2 0.3464104 1.49282 -0.3464104 0.2 1.49282 -0.4 0.0 1.49282 -0.3464104 -0.2 1.49282 -0.2 -0.3464104 1.49282 0.0 -0.4 1.49282 0.2 -0.3464104 1.49282 0.3464104 -0.2 1.49282 0.4898976 0.2828424 1.3656856 0.5656856 0.0 1.3656856 0.2828424 0.4898976 1.3656856 0.0 0.5656856 1.3656856 -0.2828424 0.4898976 1.3656856 -0.4898976 0.2828424 1.3656856 -0.5656856 0.0 1.3656856 -0.4898976 -0.2828424 1.3656856 -0.2828424 -0.4898976 1.3656856 0.0 -0.5656856 1.3656856 0.2828424 -0.4898976 1.3656856 0.4898976 -0.2828424 1.3656856 0.6 0.3464104 1.2 0.69282 0.0 1.2 0.3464104 0.6 1.2 0.0 0.69282 1.2 -0.3464104 0.6 1.2 -0.6 0.3464104 1.2 -0.69282 0.0 1.2 -0.6 -0.3464104 1.2 -0.3464104 -0.6 1.2 0.0 -0.69282 1.2 0.3464104 -0.6 1.2 0.6 -0.3464104 1.2 0.6692128 0.3863704 1.0070552 0.7727408 0.0 1.0070552 0.3863704 0.6692128 1.0070552 0.0 0.7727408 1.0070552 -0.3863704 0.6692128 1.0070552 -0.6692128 0.3863704 1.0070552 -0.7727408 0.0 1.0070552 -0.6692128 -0.3863704 1.0070552 -0.3863704 -0.6692128 1.0070552 0.0 -0.7727408 1.0070552 0.3863704 -0.6692128 1.0070552 0.6692128 -0.3863704 1.0070552 0.69282 0.4 0.8 0.8 0.0 0.8 0.4 0.69282 0.8 0.0 0.8 0.8 -0.4 0.69282 0.8 -0.69282 0.4 0.8 -0.8 0.0 0.8 -0.69282 -0.4 0.8 -0.4 -0.69282 0.8 0.0 -0.8 0.8 0.4 -0.69282 0.8 0.69282 -0.4 0.8 0.6692128 0.3863704 0.5929448 0.7727408 0.0 0.5929448 0.3863704 0.6692128 0.5929448 0.0 0.7727408 0.5929448 -0.3863704 0.6692128 0.5929448 -0.6692128 0.3863704 0.5929448 -0.7727408 0.0 0.5929448 -0.6692128 -0.3863704 0.5929448 -0.3863704 -0.6692128 0.5929448 0.0 -0.7727408 0.5929448 0.3863704 -0.6692128 0.5929448 0.6692128 -0.3863704 0.5929448 0.6 0.3464104 0.4 0.69282 0.0 0.4 0.3464104 0.6 0.4 0.0 0.69282 0.4 -0.3464104 0.6 0.4 -0.6 0.3464104 0.4 -0.69282 0.0 0.4 -0.6 -0.3464104 0.4 -0.3464104 -0.6 0.4 0.0 -0.69282 0.4 0.3464104 -0.6 0.4 0.6 -0.3464104 0.4 0.4898976 0.2828424 0.2343144 0.5656856 0.0 0.2343144 0.2828424 0.4898976 0.2343144 0.0 0.5656856 0.2343144 -0.2828424 0.4898976 0.2343144 -0.4898976 0.2828424 0.2343144 -0.5656856 0.0 0.2343144 -0.4898976 -0.2828424 0.2343144 -0.2828424 -0.4898976 0.2343144 0.0 -0.5656856 0.2343144 0.2828424 -0.4898976 0.2343144 0.4898976 -0.2828424 0.2343144 0.3464104 0.2 0.10718 0.4 0.0 0.10718 0.2 0.3464104 0.10718 0.0 0.4 0.10718 -0.2 0.3464104 0.10718 -0.3464104 0.2 0.10718 -0.4 0.0 0.10718 -0.3464104 -0.2 0.10718 -0.2 -0.3464104 0.10718 0.0 -0.4 0.10718 0.2 -0.3464104 0.10718 0.3464104 -0.2 0.10718 0.1793152 0.103528 0.0272592 0.2070552 0.0 0.0272592 0.103528 0.1793152 0.0272592 0.0 0.2070552 0.0272592 -0.103528 0.1793152 0.0272592 -0.1793152 0.103528 0.0272592 -0.2070552 0.0 0.0272592 -0.1793152 -0.103528 0.0272592 -0.103528 -0.1793152 0.0272592 0.0 -0.2070552 0.0272592 0.103528 -0.1793152 0.0272592 0.1793152 -0.103528 0.0272592 0.0 0.0 0.0</float_array>
                    <technique_common>
                        <accessor count="134" source="#geometry0-position-array" stride="3">
                            <param name="X" type="float"/>
                            <param name="Y" type="float"/>
                            <param name="Z" type="float"/>
                        </accessor>
                    </technique_common>
                </source>
                <source id="geometry0-normal">
                    <float_array id="geometry0-normal-array" count="2520">-0.3806894 -0.1020045 -0.9190596 -0.3806894 -0.1020045 -0.9190596 -0.3806894 -0.1020045 -0.9190596 -0.380689 -0.1020049 -0.9190598 -0.380689 -0.1020049 -0.9190598 -0.380689 -0.1020049 -0.9190598 -0.278684 -0.278684 -0.9190596 -0.278684 -0.278684 -0.9190596 -0.278684 -0.278684 -0.9190596 -0.2786839 -0.2786839 -0.9190596 -0.2786839 -0.2786839 -0.9190596 -0.2786839 -0.2786839 -0.9190596 -0.1020044 -0.380689 -0.9190598 -0.1020044 -0.380689 -0.9190598 -0.1020044 -0.380689 -0.9190598 -0.1020049 -0.3806892 -0.9190597 -0.1020049 -0.3806892 -0.9190597 -0.1020049 -0.3806892 -0.9190597 0.1020045 -0.3806894 -0.9190596 0.1020045 -0.3806894 -0.9190596 0.1020045 -0.3806894 -0.9190596 0.1020049 -0.380689 -0.9190598 0.1020049 -0.380689 -0.9190598 0.1020049 -0.380689 -0.9190598 0.278684 -0.278684 -0.9190596 0.278684 -0.278684 -0.9190596 0.278684 -0.278684 -0.9190596 0.2786839 -0.2786839 -0.9190596 0.2786839 -0.2786839 -0.9190596 0.2786839 -0.2786839 -0.9190596 0.380689 -0.1020044 -0.9190598 0.380689 -0.1020044 -0.9190598 0.380689 -0.1020044 -0.9190598 0.3806892 -0.1020049 -0.9190597 0.3806892 -0.1020049 -0.9190597 0.3806892 -0.1020049 -0.9190597 0.3806894 0.1020045 -0.9190596 0.3806894 0.1020045 -0.9190596 0.3806894 0.1020045 -0.9190596 0.380689 0.1020049 -0.9190598 0.380689 0.1020049 -0.9190598 0.380689 0.1020049 -0.9190598 0.278684 0.278684 -0.9190596 0.278684 0.278684 -0.9190596 0.278684 0.278684 -0.9190596 0.2786839 0.2786839 -0.9190596 0.2786839 0.2786839 -0.9190596 0.2786839 0.2786839 -0.9190596 0.1020044 0.380689 -0.9190598 0.1020044 0.380689 -0.9190598 0.1020044 0.380689 -0.9190598 0.1020049 0.3806892 -0.9190597 0.1020049 0.3806892 -0.9190597 0.1020049 0.3806892 -0.9190597 -0.1020045 0.3806894 -0.9190596 -0.1020045 0.3806894 -0.9190596 -0.1020045 0.3806894 -0.9190596 -0.1020049 0.380689 -0.9190598 -0.1020049 0.380689 -0.9190598 -0.1020049 0.380689 -0.9190598 -0.278684 0.278684 -0.9190596 -0.278684 0.278684 -0.9190596 -0.278684 0.278684 -0.9190596 -0.2786839 0.2786839 -0.9190596 -0.2786839 0.2786839 -0.9190596 -0.2786839 0.2786839 -0.9190596 -0.380689 0.1020044 -0.9190598 -0.380689 0.1020044 -0.9190598 -0.380689 0.1020044 -0.9190598 -0.3806892 0.1020049 -0.9190597 -0.3806892 0.1020049 -0.9190597 -0.3806892 0.1020049 -0.9190597 -0.6008213 -0.1609889 -0.7830048 -0.6008213 -0.1609889 -0.7830048 -0.6008213 -0.1609889 -0.7830048 -0.6008191 -0.1609902 -0.7830062 -0.6008191 -0.1609902 -0.7830062 -0.6008191 -0.1609902 -0.7830062 -0.4398315 -0.4398315 -0.7830048 -0.4398315 -0.4398315 -0.7830048 -0.4398315 -0.4398315 -0.7830048 -0.4398315 -0.4398315 -0.7830049 -0.4398315 -0.4398315 -0.7830049 -0.4398315 -0.4398315 -0.7830049 -0.1609883 -0.6008191 -0.7830064 -0.1609883 -0.6008191 -0.7830064 -0.1609883 -0.6008191 -0.7830064 -0.1609907 -0.6008204 -0.783005 -0.1609907 -0.6008204 -0.783005 -0.1609907 -0.6008204 -0.783005 0.1609889 -0.6008213 -0.7830048 0.1609889 -0.6008213 -0.7830048 0.1609889 -0.6008213 -0.7830048 0.1609903 -0.6008189 -0.7830062 0.1609903 -0.6008189 -0.7830062 0.1609903 -0.6008189 -0.7830062 0.4398315 -0.4398315 -0.7830048 0.4398315 -0.4398315 -0.7830048 0.4398315 -0.4398315 -0.7830048 0.4398315 -0.4398315 -0.7830049 0.4398315 -0.4398315 -0.7830049 0.4398315 -0.4398315 -0.7830049 0.6008193 -0.1609884 -0.7830064 0.6008193 -0.1609884 -0.7830064 0.6008193 -0.1609884 -0.7830064 0.6008204 -0.1609906 -0.783005 0.6008204 -0.1609906 -0.783005 0.6008204 -0.1609906 -0.783005 0.6008213 0.1609889 -0.7830048 0.6008213 0.1609889 -0.7830048 0.6008213 0.1609889 -0.7830048 0.6008191 0.1609902 -0.7830062 0.6008191 0.1609902 -0.7830062 0.6008191 0.1609902 -0.7830062 0.4398315 0.4398315 -0.7830048 0.4398315 0.4398315 -0.7830048 0.4398315 0.4398315 -0.7830048 0.4398315 0.4398315 -0.7830049 0.4398315 0.4398315 -0.7830049 0.4398315 0.4398315 -0.7830049 0.1609883 0.6008191 -0.7830064 0.1609883 0.6008191 -0.7830064 0.1609883 0.6008191 -0.7830064 0.1609907 0.6008204 -0.783005 0.1609907 0.6008204 -0.783005 0.1609907 0.6008204 -0.783005 -0.1609889 0.6008213 -0.7830048 -0.1609889 0.6008213 -0.7830048 -0.1609889 0.6008213 -0.7830048 -0.1609903 0.6008189 -0.7830062 -0.1609903 0.6008189 -0.7830062 -0.1609903 0.6008189 -0.7830062 -0.4398315 0.4398315 -0.7830048 -0.4398315 0.4398315 -0.7830048 -0.4398315 0.4398315 -0.7830048 -0.4398315 0.4398315 -0.7830049 -0.4398315 0.4398315 -0.7830049 -0.4398315 0.4398315 -0.7830049 -0.6008193 0.1609884 -0.7830064 -0.6008193 0.1609884 -0.7830064 -0.6008193 0.1609884 -0.7830064 -0.6008204 0.1609906 -0.783005 -0.6008204 0.1609906 -0.783005 -0.6008204 0.1609906 -0.783005 -0.7760118 -0.2079333 -0.5954574 -0.7760118 -0.2079333 -0.5954574 -0.7760118 -0.2079333 -0.5954574 -0.7760145 -0.2079316 -0.5954543 -0.7760145 -0.2079316 -0.5954543 -0.7760145 -0.2079316 -0.5954543 -0.5680802 -0.5680802 -0.5954577 -0.5680802 -0.5680802 -0.5954577 -0.5680802 -0.5680802 -0.5954577 -0.5680802 -0.5680802 -0.5954577 -0.5680802 -0.5680802 -0.5954577 -0.5680802 -0.5680802 -0.5954577 -0.2079341 -0.7760143 -0.5954539 -0.2079341 -0.7760143 -0.5954539 -0.2079341 -0.7760143 -0.5954539 -0.2079311 -0.7760127 -0.5954571 -0.2079311 -0.7760127 -0.5954571 -0.2079311 -0.7760127 -0.5954571 0.2079335 -0.7760118 -0.5954574 0.2079335 -0.7760118 -0.5954574 0.2079335 -0.7760118 -0.5954574 0.2079316 -0.7760146 -0.5954542 0.2079316 -0.7760146 -0.5954542 0.2079316 -0.7760146 -0.5954542 0.5680802 -0.5680802 -0.5954577 0.5680802 -0.5680802 -0.5954577 0.5680802 -0.5680802 -0.5954577 0.5680802 -0.5680802 -0.5954577 0.5680802 -0.5680802 -0.5954577 0.5680802 -0.5680802 -0.5954577 0.7760142 -0.2079339 -0.5954541 0.7760142 -0.2079339 -0.5954541 0.7760142 -0.2079339 -0.5954541 0.7760127 -0.2079311 -0.5954571 0.7760127 -0.2079311 -0.5954571 0.7760127 -0.2079311 -0.5954571 0.7760118 0.2079333 -0.5954574 0.7760118 0.2079333 -0.5954574 0.7760118 0.2079333 -0.5954574 0.7760145 0.2079316 -0.5954543 0.7760145 0.2079316 -0.5954543 0.7760145 0.2079316 -0.5954543 0.5680802 0.5680802 -0.5954577 0.5680802 0.5680802 -0.5954577 0.5680802 0.5680802 -0.5954577 0.5680802 0.5680802 -0.5954577 0.5680802 0.5680802 -0.5954577 0.5680802 0.5680802 -0.5954577 0.2079341 0.7760143 -0.5954539 0.2079341 0.7760143 -0.5954539 0.2079341 0.7760143 -0.5954539 0.2079311 0.7760127 -0.5954571 0.2079311 0.7760127 -0.5954571 0.2079311 0.7760127 -0.5954571 -0.2079335 0.7760118 -0.5954574 -0.2079335 0.7760118 -0.5954574 -0.2079335 0.7760118 -0.5954574 -0.2079316 0.7760146 -0.5954542 -0.2079316 0.7760146 -0.5954542 -0.2079316 0.7760146 -0.5954542 -0.5680802 0.5680802 -0.5954577 -0.5680802 0.5680802 -0.5954577 -0.5680802 0.5680802 -0.5954577 -0.5680802 0.5680802 -0.5954577 -0.5680802 0.5680802 -0.5954577 -0.5680802 0.5680802 -0.5954577 -0.7760142 0.2079339 -0.5954541 -0.7760142 0.2079339 -0.5954541 -0.7760142 0.2079339 -0.5954541 -0.7760127 0.2079311 -0.5954571 -0.7760127 0.2079311 -0.5954571 -0.7760127 0.2079311 -0.5954571 -0.8968096 -0.2402984 -0.3714689 -0.8968096 -0.2402984 -0.3714689 -0.8968096 -0.2402984 -0.3714689 -0.896808 -0.2402997 -0.3714719 -0.896808 -0.2402997 -0.3714719 -0.896808 -0.2402997 -0.3714719 -0.65651 -0.65651 -0.3714689 -0.65651 -0.65651 -0.3714689 -0.65651 -0.65651 -0.3714689 -0.65651 -0.65651 -0.371469 -0.65651 -0.65651 -0.371469 -0.65651 -0.65651 -0.371469 -0.240298 -0.8968084 -0.371472 -0.240298 -0.8968084 -0.371472 -0.240298 -0.8968084 -0.371472 -0.2403001 -0.8968092 -0.3714691 -0.2403001 -0.8968092 -0.3714691 -0.2403001 -0.8968092 -0.3714691 0.2402984 -0.8968096 -0.3714689 0.2402984 -0.8968096 -0.3714689 0.2402984 -0.8968096 -0.3714689 0.2402997 -0.896808 -0.3714719 0.2402997 -0.896808 -0.3714719 0.2402997 -0.896808 -0.3714719 0.65651 -0.65651 -0.3714689 0.65651 -0.65651 -0.3714689 0.65651 -0.65651 -0.3714689 0.65651 -0.65651 -0.371469 0.65651 -0.65651 -0.371469 0.65651 -0.65651 -0.371469 0.8968084 -0.240298 -0.371472 0.8968084 -0.240298 -0.371472 0.8968084 -0.240298 -0.371472 0.8968092 -0.2403001 -0.3714691 0.8968092 -0.2403001 -0.3714691 0.8968092 -0.2403001 -0.3714691 0.8968096 0.2402984 -0.3714689 0.8968096 0.2402984 -0.3714689 0.8968096 0.2402984 -0.3714689 0.896808 0.2402997 -0.3714719 0.896808 0.2402997 -0.3714719 0.896808 0.2402997 -0.3714719 0.65651 0.65651 -0.3714689 0.65651 0.65651 -0.3714689 0.65651 0.65651 -0.3714689 0.65651 0.65651 -0.371469 0.65651 0.65651 -0.371469 0.65651 0.65651 -0.371469 0.240298 0.8968084 -0.371472 0.240298 0.8968084 -0.371472 0.240298 0.8968084 -0.371472 0.2403001 0.8968092 -0.3714691 0.2403001 0.8968092 -0.3714691 0.2403001 0.8968092 -0.3714691 -0.2402984 0.8968096 -0.3714689 -0.2402984 0.8968096 -0.3714689 -0.2402984 0.8968096 -0.3714689 -0.2402997 0.896808 -0.3714719 -0.2402997 0.896808 -0.3714719 -0.2402997 0.896808 -0.3714719 -0.65651 0.65651 -0.3714689 -0.65651 0.65651 -0.3714689 -0.65651 0.65651 -0.3714689 -0.65651 0.65651 -0.371469 -0.65651 0.65651 -0.371469 -0.65651 0.65651 -0.371469 -0.8968084 0.240298 -0.371472 -0.8968084 0.240298 -0.371472 -0.8968084 0.240298 -0.371472 -0.8968092 0.2403001 -0.3714691 -0.8968092 0.2403001 -0.3714691 -0.8968092 0.2403001 -0.3714691 -0.958209 -0.2567521 -0.1261502 -0.958209 -0.2567521 -0.1261502 -0.958209 -0.2567521 -0.1261502 -0.958209 -0.2567521 -0.1261502 -0.958209 -0.2567521 -0.1261502 -0.958209 -0.2567521 -0.1261502 -0.7014578 -0.7014578 -0.1261502 -0.7014578 -0.7014578 -0.1261502 -0.7014578 -0.7014578 -0.1261502 -0.7014578 -0.7014578 -0.1261502 -0.7014578 -0.7014578 -0.1261502 -0.7014578 -0.7014578 -0.1261502 -0.2567521 -0.958209 -0.1261501 -0.2567521 -0.958209 -0.1261501 -0.2567521 -0.958209 -0.1261501 -0.2567521 -0.9582091 -0.1261502 -0.2567521 -0.9582091 -0.1261502 -0.2567521 -0.9582091 -0.1261502 0.2567521 -0.958209 -0.1261502 0.2567521 -0.958209 -0.1261502 0.2567521 -0.958209 -0.1261502 0.2567521 -0.958209 -0.1261502 0.2567521 -0.958209 -0.1261502 0.2567521 -0.958209 -0.1261502 0.7014578 -0.7014578 -0.1261502 0.7014578 -0.7014578 -0.1261502 0.7014578 -0.7014578 -0.1261502 0.7014578 -0.7014578 -0.1261502 0.7014578 -0.7014578 -0.1261502 0.7014578 -0.7014578 -0.1261502 0.958209 -0.2567521 -0.1261501 0.958209 -0.2567521 -0.1261501 0.958209 -0.2567521 -0.1261501 0.9582091 -0.2567521 -0.1261502 0.9582091 -0.2567521 -0.1261502 0.9582091 -0.2567521 -0.1261502 0.958209 0.2567521 -0.1261502 0.958209 0.2567521 -0.1261502 0.958209 0.2567521 -0.1261502 0.958209 0.2567521 -0.1261502 0.958209 0.2567521 -0.1261502 0.958209 0.2567521 -0.1261502 0.7014578 0.7014578 -0.1261502 0.7014578 0.7014578 -0.1261502 0.7014578 0.7014578 -0.1261502 0.7014578 0.7014578 -0.1261502 0.7014578 0.7014578 -0.1261502 0.7014578 0.7014578 -0.1261502 0.2567521 0.958209 -0.1261501 0.2567521 0.958209 -0.1261501 0.2567521 0.958209 -0.1261501 0.2567521 0.9582091 -0.1261502 0.2567521 0.9582091 -0.1261502 0.2567521 0.9582091 -0.1261502 -0.2567521 0.958209 -0.1261502 -0.2567521 0.958209 -0.1261502 -0.2567521 0.958209 -0.1261502 -0.2567521 0.958209 -0.1261502 -0.2567521 0.958209 -0.1261502 -0.2567521 0.958209 -0.1261502 -0.7014578 0.7014578 -0.1261502 -0.7014578 0.7014578 -0.1261502 -0.7014578 0.7014578 -0.1261502 -0.7014578 0.7014578 -0.1261502 -0.7014578 0.7014578 -0.1261502 -0.7014578 0.7014578 -0.1261502 -0.958209 0.2567521 -0.1261501 -0.958209 0.2567521 -0.1261501 -0.958209 0.2567521 -0.1261501 -0.9582091 0.2567521 -0.1261502 -0.9582091 0.2567521 -0.1261502 -0.9582091 0.2567521 -0.1261502 -0.958209 -0.2567521 0.1261502 -0.958209 -0.2567521 0.1261502 -0.958209 -0.2567521 0.1261502 -0.958209 -0.2567521 0.1261501 -0.958209 -0.2567521 0.1261501 -0.958209 -0.2567521 0.1261501 -0.7014578 -0.7014578 0.1261502 -0.7014578 -0.7014578 0.1261502 -0.7014578 -0.7014578 0.1261502 -0.7014578 -0.7014578 0.1261501 -0.7014578 -0.7014578 0.1261501 -0.7014578 -0.7014578 0.1261501 -0.2567521 -0.958209 0.1261501 -0.2567521 -0.958209 0.1261501 -0.2567521 -0.958209 0.1261501 -0.2567521 -0.958209 0.1261502 -0.2567521 -0.958209 0.1261502 -0.2567521 -0.958209 0.1261502 0.2567521 -0.958209 0.1261502 0.2567521 -0.958209 0.1261502 0.2567521 -0.958209 0.1261502 0.2567521 -0.958209 0.1261501 0.2567521 -0.958209 0.1261501 0.2567521 -0.958209 0.1261501 0.7014578 -0.7014578 0.1261502 0.7014578 -0.7014578 0.1261502 0.7014578 -0.7014578 0.1261502 0.7014578 -0.7014578 0.1261501 0.7014578 -0.7014578 0.1261501 0.7014578 -0.7014578 0.1261501 0.958209 -0.2567521 0.1261501 0.958209 -0.2567521 0.1261501 0.958209 -0.2567521 0.1261501 0.958209 -0.2567521 0.1261502 0.958209 -0.2567521 0.1261502 0.958209 -0.2567521 0.1261502 0.958209 0.2567521 0.1261502 0.958209 0.2567521 0.1261502 0.958209 0.2567521 0.1261502 0.958209 0.2567521 0.1261501 0.958209 0.2567521 0.1261501 0.958209 0.2567521 0.1261501 0.7014578 0.7014578 0.1261502 0.7014578 0.7014578 0.1261502 0.7014578 0.7014578 0.1261502 0.7014578 0.7014578 0.1261501 0.7014578 0.7014578 0.1261501 0.7014578 0.7014578 0.1261501 0.2567521 0.958209 0.1261501 0.2567521 0.958209 0.1261501 0.2567521 0.958209 0.1261501 0.2567521 0.958209 0.1261502 0.2567521 0.958209 0.1261502 0.2567521 0.958209 0.1261502 -0.2567521 0.958209 0.1261502 -0.2567521 0.958209 0.1261502 -0.2567521 0.958209 0.1261502 -0.2567521 0.958209 0.1261501 -0.2567521 0.958209 0.1261501 -0.2567521 0.958209 0.1261501 -0.7014578 0.7014578 0.1261502 -0.7014578 0.7014578 0.1261502 -0.7014578 0.7014578 0.1261502 -0.7014578 0.7014578 0.1261501 -0.7014578 0.7014578 0.1261501 -0.7014578 0.7014578 0.1261501 -0.958209 0.2567521 0.1261501 -0.958209 0.2567521 0.1261501 -0.958209 0.2567521 0.1261501 -0.958209 0.2567521 0.1261502 -0.958209 0.2567521 0.1261502 -0.958209 0.2567521 0.1261502 -0.8968092 -0.2403 0.3714692 -0.8968092 -0.2403 0.3714692 -0.8968092 -0.2403 0.3714692 -0.8968084 -0.240298 0.3714721 -0.8968084 -0.240298 0.3714721 -0.8968084 -0.240298 0.3714721 -0.65651 -0.65651 0.3714691 -0.65651 -0.65651 0.3714691 -0.65651 -0.65651 0.3714691 -0.65651 -0.65651 0.3714691 -0.65651 -0.65651 0.3714691 -0.65651 -0.65651 0.3714691 -0.2402997 -0.896808 0.371472 -0.2402997 -0.896808 0.371472 -0.2402997 -0.896808 0.371472 -0.2402984 -0.8968096 0.371469 -0.2402984 -0.8968096 0.371469 -0.2402984 -0.8968096 0.371469 0.2403 -0.8968092 0.3714692 0.2403 -0.8968092 0.3714692 0.2403 -0.8968092 0.3714692 0.240298 -0.8968084 0.3714721 0.240298 -0.8968084 0.3714721 0.240298 -0.8968084 0.3714721 0.65651 -0.65651 0.3714691 0.65651 -0.65651 0.3714691 0.65651 -0.65651 0.3714691 0.65651 -0.65651 0.3714691 0.65651 -0.65651 0.3714691 0.65651 -0.65651 0.3714691 0.896808 -0.2402997 0.371472 0.896808 -0.2402997 0.371472 0.896808 -0.2402997 0.371472 0.8968096 -0.2402984 0.371469 0.8968096 -0.2402984 0.371469 0.8968096 -0.2402984 0.371469 0.8968092 0.2403 0.3714692 0.8968092 0.2403 0.3714692 0.8968092 0.2403 0.3714692 0.8968084 0.240298 0.3714721 0.8968084 0.240298 0.3714721 0.8968084 0.240298 0.3714721 0.65651 0.65651 0.3714691 0.65651 0.65651 0.3714691 0.65651 0.65651 0.3714691 0.65651 0.65651 0.3714691 0.65651 0.65651 0.3714691 0.65651 0.65651 0.3714691 0.2402997 0.896808 0.371472 0.2402997 0.896808 0.371472 0.2402997 0.896808 0.371472 0.2402984 0.8968096 0.371469 0.2402984 0.8968096 0.371469 0.2402984 0.8968096 0.371469 -0.2403 0.8968092 0.3714692 -0.2403 0.8968092 0.3714692 -0.2403 0.8968092 0.3714692 -0.240298 0.8968084 0.3714721 -0.240298 0.8968084 0.3714721 -0.240298 0.8968084 0.3714721 -0.65651 0.65651 0.3714691 -0.65651 0.65651 0.3714691 -0.65651 0.65651 0.3714691 -0.65651 0.65651 0.3714691 -0.65651 0.65651 0.3714691 -0.65651 0.65651 0.3714691 -0.896808 0.2402997 0.371472 -0.896808 0.2402997 0.371472 -0.896808 0.2402997 0.371472 -0.8968096 0.2402984 0.371469 -0.8968096 0.2402984 0.371469 -0.8968096 0.2402984 0.371469 -0.7760127 -0.2079311 0.5954569 -0.7760127 -0.2079311 0.5954569 -0.7760127 -0.2079311 0.5954569 -0.7760143 -0.207934 0.5954539 -0.7760143 -0.207934 0.5954539 -0.7760143 -0.207934 0.5954539 -0.5680803 -0.5680803 0.5954575 -0.5680803 -0.5680803 0.5954575 -0.5680803 -0.5680803 0.5954575 -0.5680802 -0.5680802 0.5954576 -0.5680802 -0.5680802 0.5954576 -0.5680802 -0.5680802 0.5954576 -0.2079316 -0.7760147 0.595454 -0.2079316 -0.7760147 0.595454 -0.2079316 -0.7760147 0.595454 -0.2079335 -0.7760118 0.5954572 -0.2079335 -0.7760118 0.5954572 -0.2079335 -0.7760118 0.5954572 0.2079311 -0.7760127 0.5954569 0.2079311 -0.7760127 0.5954569 0.2079311 -0.7760127 0.5954569 0.2079341 -0.7760144 0.5954537 0.2079341 -0.7760144 0.5954537 0.2079341 -0.7760144 0.5954537 0.5680803 -0.5680803 0.5954575 0.5680803 -0.5680803 0.5954575 0.5680803 -0.5680803 0.5954575 0.5680802 -0.5680802 0.5954576 0.5680802 -0.5680802 0.5954576 0.5680802 -0.5680802 0.5954576 0.7760147 -0.2079316 0.5954542 0.7760147 -0.2079316 0.5954542 0.7760147 -0.2079316 0.5954542 0.776012 -0.2079334 0.5954572 0.776012 -0.2079334 0.5954572 0.776012 -0.2079334 0.5954572 0.7760127 0.2079311 0.5954569 0.7760127 0.2079311 0.5954569 0.7760127 0.2079311 0.5954569 0.7760143 0.207934 0.5954539 0.7760143 0.207934 0.5954539 0.7760143 0.207934 0.5954539 0.5680803 0.5680803 0.5954575 0.5680803 0.5680803 0.5954575 0.5680803 0.5680803 0.5954575 0.5680802 0.5680802 0.5954576 0.5680802 0.5680802 0.5954576 0.5680802 0.5680802 0.5954576 0.2079316 0.7760147 0.595454 0.2079316 0.7760147 0.595454 0.2079316 0.7760147 0.595454 0.2079335 0.7760118 0.5954572 0.2079335 0.7760118 0.5954572 0.2079335 0.7760118 0.5954572 -0.2079311 0.7760127 0.5954569 -0.2079311 0.7760127 0.5954569 -0.2079311 0.7760127 0.5954569 -0.2079341 0.7760144 0.5954537 -0.2079341 0.7760144 0.5954537 -0.2079341 0.7760144 0.5954537 -0.5680803 0.5680803 0.5954575 -0.5680803 0.5680803 0.5954575 -0.5680803 0.5680803 0.5954575 -0.5680802 0.5680802 0.5954576 -0.5680802 0.5680802 0.5954576 -0.5680802 0.5680802 0.5954576 -0.7760147 0.2079316 0.5954542 -0.7760147 0.2079316 0.5954542 -0.7760147 0.2079316 0.5954542 -0.776012 0.2079334 0.5954572 -0.776012 0.2079334 0.5954572 -0.776012 0.2079334 0.5954572 -0.6008204 -0.1609905 0.7830051 -0.6008204 -0.1609905 0.7830051 -0.6008204 -0.1609905 0.7830051 -0.6008192 -0.1609883 0.7830065 -0.6008192 -0.1609883 0.7830065 -0.6008192 -0.1609883 0.7830065 -0.4398314 -0.4398314 0.7830049 -0.4398314 -0.4398314 0.7830049 -0.4398314 -0.4398314 0.7830049 -0.4398313 -0.4398313 0.783005 -0.4398313 -0.4398313 0.783005 -0.4398313 -0.4398313 0.783005 -0.1609902 -0.6008188 0.7830063 -0.1609902 -0.6008188 0.7830063 -0.1609902 -0.6008188 0.7830063 -0.1609889 -0.6008211 0.7830049 -0.1609889 -0.6008211 0.7830049 -0.1609889 -0.6008211 0.7830049 0.1609906 -0.6008203 0.7830051 0.1609906 -0.6008203 0.7830051 0.1609906 -0.6008203 0.7830051 0.1609883 -0.6008189 0.7830066 0.1609883 -0.6008189 0.7830066 0.1609883 -0.6008189 0.7830066 0.4398314 -0.4398314 0.7830049 0.4398314 -0.4398314 0.7830049 0.4398314 -0.4398314 0.7830049 0.4398313 -0.4398313 0.783005 0.4398313 -0.4398313 0.783005 0.4398313 -0.4398313 0.783005 0.6008189 -0.1609901 0.7830063 0.6008189 -0.1609901 0.7830063 0.6008189 -0.1609901 0.7830063 0.6008211 -0.1609889 0.7830049 0.6008211 -0.1609889 0.7830049 0.6008211 -0.1609889 0.7830049 0.6008204 0.1609905 0.7830051 0.6008204 0.1609905 0.7830051 0.6008204 0.1609905 0.7830051 0.6008192 0.1609883 0.7830065 0.6008192 0.1609883 0.7830065 0.6008192 0.1609883 0.7830065 0.4398314 0.4398314 0.7830049 0.4398314 0.4398314 0.7830049 0.4398314 0.4398314 0.7830049 0.4398313 0.4398313 0.783005 0.4398313 0.4398313 0.783005 0.4398313 0.4398313 0.783005 0.1609902 0.6008188 0.7830063 0.1609902 0.6008188 0.7830063 0.1609902 0.6008188 0.7830063 0.1609889 0.6008211 0.7830049 0.1609889 0.6008211 0.7830049 0.1609889 0.6008211 0.7830049 -0.1609906 0.6008203 0.7830051 -0.1609906 0.6008203 0.7830051 -0.1609906 0.6008203 0.7830051 -0.1609883 0.6008189 0.7830066 -0.1609883 0.6008189 0.7830066 -0.1609883 0.6008189 0.7830066 -0.4398314 0.4398314 0.7830049 -0.4398314 0.4398314 0.7830049 -0.4398314 0.4398314 0.7830049 -0.4398313 0.4398313 0.783005 -0.4398313 0.4398313 0.783005 -0.4398313 0.4398313 0.783005 -0.6008189 0.1609901 0.7830063 -0.6008189 0.1609901 0.7830063 -0.6008189 0.1609901 0.7830063 -0.6008211 0.1609889 0.7830049 -0.6008211 0.1609889 0.7830049 -0.6008211 0.1609889 0.7830049 -0.3806893 -0.102005 0.9190596 -0.3806893 -0.102005 0.9190596 -0.3806893 -0.102005 0.9190596 -0.3806892 -0.1020045 0.9190598 -0.3806892 -0.1020045 0.9190598 -0.3806892 -0.1020045 0.9190598 -0.278684 -0.278684 0.9190595 -0.278684 -0.278684 0.9190595 -0.278684 -0.278684 0.9190595 -0.278684 -0.278684 0.9190595 -0.278684 -0.278684 0.9190595 -0.278684 -0.278684 0.9190595 -0.1020049 -0.3806891 0.9190597 -0.1020049 -0.3806891 0.9190597 -0.1020049 -0.3806891 0.9190597 -0.1020046 -0.3806895 0.9190596 -0.1020046 -0.3806895 0.9190596 -0.1020046 -0.3806895 0.9190596 0.102005 -0.3806893 0.9190596 0.102005 -0.3806893 0.9190596 0.102005 -0.3806893 0.9190596 0.1020045 -0.3806892 0.9190598 0.1020045 -0.3806892 0.9190598 0.1020045 -0.3806892 0.9190598 0.278684 -0.278684 0.9190595 0.278684 -0.278684 0.9190595 0.278684 -0.278684 0.9190595 0.278684 -0.278684 0.9190595 0.278684 -0.278684 0.9190595 0.278684 -0.278684 0.9190595 0.3806891 -0.1020049 0.9190597 0.3806891 -0.1020049 0.9190597 0.3806891 -0.1020049 0.9190597 0.3806895 -0.1020046 0.9190596 0.3806895 -0.1020046 0.9190596 0.3806895 -0.1020046 0.9190596 0.3806893 0.102005 0.9190596 0.3806893 0.102005 0.9190596 0.3806893 0.102005 0.9190596 0.3806892 0.1020045 0.9190598 0.3806892 0.1020045 0.9190598 0.3806892 0.1020045 0.9190598 0.278684 0.278684 0.9190595 0.278684 0.278684 0.9190595 0.278684 0.278684 0.9190595 0.278684 0.278684 0.9190595 0.278684 0.278684 0.9190595 0.278684 0.278684 0.9190595 0.1020049 0.3806891 0.9190597 0.1020049 0.3806891 0.9190597 0.1020049 0.3806891 0.9190597 0.1020046 0.3806895 0.9190596 0.1020046 0.3806895 0.9190596 0.1020046 0.3806895 0.9190596 -0.102005 0.3806893 0.9190596 -0.102005 0.3806893 0.9190596 -0.102005 0.3806893 0.9190596 -0.1020045 0.3806892 0.9190598 -0.1020045 0.3806892 0.9190598 -0.1020045 0.3806892 0.9190598 -0.278684 0.278684 0.9190595 -0.278684 0.278684 0.9190595 -0.278684 0.278684 0.9190595 -0.278684 0.278684 0.9190595 -0.278684 0.278684 0.9190595 -0.278684 0.278684 0.9190595 -0.3806891 0.1020049 0.9190597 -0.3806891 0.1020049 0.9190597 -0.3806891 0.1020049 0.9190597 -0.3806895 0.1020046 0.9190596 -0.3806895 0.1020046 0.9190596 -0.3806895 0.1020046 0.9190596 -0.1304458 -0.0349525 0.9908391 -0.1304458 -0.0349525 0.9908391 -0.1304458 -0.0349525 0.9908391 1.0 0.0 0.0 1.0 0.0 0.0 -0.0954928 -0.0954928 0.9908392 -0.0954928 -0.0954928 0.9908392 -0.0954928 -0.0954928 0.9908392 1.0 0.0 0.0 1.0 0.0 0.0 -0.0349525 -0.1304458 0.9908391 -0.0349525 -0.1304458 0.9908391 -0.0349525 -0.1304458 0.9908391 1.0 0.0 0.0 1.0 0.0 0.0 0.0349525 -0.1304458 0.9908391 0.0349525 -0.1304458 0.9908391 0.0349525 -0.1304458 0.9908391 1.0 0.0 0.0 1.0 0.0 0.0 0.0954928 -0.0954928 0.9908392 0.0954928 -0.0954928 0.9908392 0.0954928 -0.0954928 0.9908392 1.0 0.0 0.0 1.0 0.0 0.0 0.1304458 -0.0349525 0.9908391 0.1304458 -0.0349525 0.9908391 0.1304458 -0.0349525 0.9908391 1.0 0.0 0.0 1.0 0.0 0.0 0.1304458 0.0349525 0.9908391 0.1304458 0.0349525 0.9908391 0.1304458 0.0349525 0.9908391 1.0 0.0 0.0 1.0 0.0 0.0 0.0954928 0.0954928 0.9908392 0.0954928 0.0954928 0.9908392 0.0954928 0.0954928 0.9908392 1.0 0.0 0.0 1.0 0.0 0.0 0.0349525 0.1304458 0.9908391 0.0349525 0.1304458 0.9908391 0.0349525 0.1304458 0.9908391 1.0 0.0 0.0 1.0 0.0 0.0 -0.0349525 0.1304458 0.9908391 -0.0349525 0.1304458 0.9908391 -0.0349525 0.1304458 0.9908391 1.0 0.0 0.0 1.0 0.0 0.0 -0.0954928 0.0954928 0.9908392 -0.0954928 0.0954928 0.9908392 -0.0954928 0.0954928 0.9908392 1.0 0.0 0.0 1.0 0.0 0.0 -0.1304458 0.0349525 0.9908391 -0.1304458 0.0349525 0.9908391 -0.1304458 0.0349525 0.9908391 1.0 0.0 0.0 1.0 0.0 0.0 1.0 0.0 0.0 1.0 0.0 0.0 -0.1304459 -0.0349526 -0.9908391 -0.1304459 -0.0349526 -0.9908391 -0.1304459 -0.0349526 -0.9908391 1.0 0.0 0.0 1.0 0.0 0.0 -0.0954929 -0.0954929 -0.9908391 -0.0954929 -0.0954929 -0.9908391 -0.0954929 -0.0954929 -0.9908391 1.0 0.0 0.0 1.0 0.0 0.0 -0.0349526 -0.130446 -0.9908391 -0.0349526 -0.130446 -0.9908391 -0.0349526 -0.130446 -0.9908391 1.0 0.0 0.0 1.0 0.0 0.0 0.0349526 -0.1304459 -0.9908391 0.0349526 -0.1304459 -0.9908391 0.0349526 -0.1304459 -0.9908391 1.0 0.0 0.0 1.0 0.0 0.0 0.0954929 -0.0954929 -0.9908391 0.0954929 -0.0954929 -0.9908391 0.0954929 -0.0954929 -0.9908391 1.0 0.0 0.0 1.0 0.0 0.0 0.130446 -0.0349526 -0.9908391 0.130446 -0.0349526 -0.9908391 0.130446 -0.0349526 -0.9908391 1.0 0.0 0.0 1.0 0.0 0.0 0.1304459 0.0349526 -0.9908391 0.1304459 0.0349526 -0.9908391 0.1304459 0.0349526 -0.9908391 1.0 0.0 0.0 1.0 0.0 0.0 0.0954929 0.0954929 -0.9908391 0.0954929 0.0954929 -0.9908391 0.0954929 0.0954929 -0.9908391 1.0 0.0 0.0 1.0 0.0 0.0 0.0349526 0.130446 -0.9908391 0.0349526 0.130446 -0.9908391 0.0349526 0.130446 -0.9908391 1.0 0.0 0.0 1.0 0.0 0.0 -0.0349526 0.1304459 -0.9908391 -0.0349526 0.1304459 -0.9908391 -0.0349526 0.1304459 -0.9908391 1.0 0.0 0.0 1.0 0.0 0.0 -0.0954929 0.0954929 -0.9908391 -0.0954929 0.0954929 -0.9908391 -0.0954929 0.0954929 -0.9908391 1.0 0.0 0.0 1.0 0.0 0.0 -0.130446 0.0349526 -0.9908391 -0.130446 0.0349526 -0.9908391 -0.130446 0.0349526 -0.9908391</float_array>
                    <technique_common>
                        <accessor count="840" source="#geometry0-normal-array" stride="3">
                            <param name="X" type="float"/>
                            <param name="Y" type="float"/>
                            <param name="Z" type="float"/>
                        </accessor>
                    </technique_common>
                </source>
                <vertices id="geometry0-vertex">
                    <input semantic="POSITION" source="#geometry0-position"/>
                </vertices>
                <triangles count="288" material="default_ai_0.2_sh_0.2_tr_0.0_dc_r_0.8_g_0.8_b_0.8_sc_r_1.0_g_1.0_b_1.0_ec_r_0.0_g_0.0_b_0_tri">
                    <input offset="0" semantic="VERTEX" source="#geometry0-vertex"/>
                    <input offset="1" semantic="NORMAL" source="#geometry0-normal"/>
                    <p>2 0 1 1 13 2 2 3 13 4 14 5 1 6 3 7 15 8 1 9 15 10 13 11 3 12 4 13 16 14 3 15 16 16 15 17 4 18 5 19 17 20 4 21 17 22 16 23 5 24 6 25 18 26 5 27 18 28 17 29 6 30 7 31 19 32 6 33 19 34 18 35 7 36 8 37 20 38 7 39 20 40 19 41 8 42 9 43 21 44 8 45 21 46 20 47 9 48 10 49 22 50 9 51 22 52 21 53 10 54 11 55 23 56 10 57 23 58 22 59 11 60 12 61 24 62 11 63 24 64 23 65 12 66 2 67 14 68 12 69 14 70 24 71 14 72 13 73 25 74 14 75 25 76 26 77 13 78 15 79 27 80 13 81 27 82 25 83 15 84 16 85 28 86 15 87 28 88 27 89 16 90 17 91 29 92 16 93 29 94 28 95 17 96 18 97 30 98 17 99 30 100 29 101 18 102 19 103 31 104 18 105 31 106 30 107 19 108 20 109 32 110 19 111 32 112 31 113 20 114 21 115 33 116 20 117 33 118 32 119 21 120 22 121 34 122 21 123 34 124 33 125 22 126 23 127 35 128 22 129 35 130 34 131 23 132 24 133 36 134 23 135 36 136 35 137 24 138 14 139 26 140 24 141 26 142 36 143 26 144 25 145 37 146 26 147 37 148 38 149 25 150 27 151 39 152 25 153 39 154 37 155 27 156 28 157 40 158 27 159 40 160 39 161 28 162 29 163 41 164 28 165 41 166 40 167 29 168 30 169 42 170 29 171 42 172 41 173 30 174 31 175 43 176 30 177 43 178 42 179 31 180 32 181 44 182 31 183 44 184 43 185 32 186 33 187 45 188 32 189 45 190 44 191 33 192 34 193 46 194 33 195 46 196 45 197 34 198 35 199 47 200 34 201 47 202 46 203 35 204 36 205 48 206 35 207 48 208 47 209 36 210 26 211 38 212 36 213 38 214 48 215 38 216 37 217 49 218 38 219 49 220 50 221 37 222 39 223 51 224 37 225 51 226 49 227 39 228 40 229 52 230 39 231 52 232 51 233 40 234 41 235 53 236 40 237 53 238 52 239 41 240 42 241 54 242 41 243 54 244 53 245 42 246 43 247 55 248 42 249 55 250 54 251 43 252 44 253 56 254 43 255 56 256 55 257 44 258 45 259 57 260 44 261 57 262 56 263 45 264 46 265 58 266 45 267 58 268 57 269 46 270 47 271 59 272 46 273 59 274 58 275 47 276 48 277 60 278 47 279 60 280 59 281 48 282 38 283 50 284 48 285 50 286 60 287 50 288 49 289 61 290 50 291 61 292 62 293 49 294 51 295 63 296 49 297 63 298 61 299 51 300 52 301 64 302 51 303 64 304 63 305 52 306 53 307 65 308 52 309 65 310 64 311 53 312 54 313 66 314 53 315 66 316 65 317 54 318 55 319 67 320 54 321 67 322 66 323 55 324 56 325 68 326 55 327 68 328 67 329 56 330 57 331 69 332 56 333 69 334 68 335 57 336 58 337 70 338 57 339 70 340 69 341 58 342 59 343 71 344 58 345 71 346 70 347 59 348 60 349 72 350 59 351 72 352 71 353 60 354 50 355 62 356 60 357 62 358 72 359 62 360 61 361 73 362 62 363 73 364 74 365 61 366 63 367 75 368 61 369 75 370 73 371 63 372 64 373 76 374 63 375 76 376 75 377 64 378 65 379 77 380 64 381 77 382 76 383 65 384 66 385 78 386 65 387 78 388 77 389 66 390 67 391 79 392 66 393 79 394 78 395 67 396 68 397 80 398 67 399 80 400 79 401 68 402 69 403 81 404 68 405 81 406 80 407 69 408 70 409 82 410 69 411 82 412 81 413 70 414 71 415 83 416 70 417 83 418 82 419 71 420 72 421 84 422 71 423 84 424 83 425 72 426 62 427 74 428 72 429 74 430 84 431 74 432 73 433 85 434 74 435 85 436 86 437 73 438 75 439 87 440 73 441 87 442 85 443 75 444 76 445 88 446 75 447 88 448 87 449 76 450 77 451 89 452 76 453 89 454 88 455 77 456 78 457 90 458 77 459 90 460 89 461 78 462 79 463 91 464 78 465 91 466 90 467 79 468 80 469 92 470 79 471 92 472 91 473 80 474 81 475 93 476 80 477 93 478 92 479 81 480 82 481 94 482 81 483 94 484 93 485 82 486 83 487 95 488 82 489 95 490 94 491 83 492 84 493 96 494 83 495 96 496 95 497 84 498 74 499 86 500 84 501 86 502 96 503 86 504 85 505 97 506 86 507 97 508 98 509 85 510 87 511 99 512 85 513 99 514 97 515 87 516 88 517 100 518 87 519 100 520 99 521 88 522 89 523 101 524 88 525 101 526 100 527 89 528 90 529 102 530 89 531 102 532 101 533 90 534 91 535 103 536 90 537 103 538 102 539 91 540 92 541 104 542 91 543 104 544 103 545 92 546 93 547 105 548 92 549 105 550 104 551 93 552 94 553 106 554 93 555 106 556 105 557 94 558 95 559 107 560 94 561 107 562 106 563 95 564 96 565 108 566 95 567 108 568 107 569 96 570 86 571 98 572 96 573 98 574 108 575 98 576 97 577 109 578 98 579 109 580 110 581 97 582 99 583 111 584 97 585 111 586 109 587 99 588 100 589 112 590 99 591 112 592 111 593 100 594 101 595 113 596 100 597 113 598 112 599 101 600 102 601 114 602 101 603 114 604 113 605 102 606 103 607 115 608 102 609 115 610 114 611 103 612 104 613 116 614 103 615 116 616 115 617 104 618 105 619 117 620 104 621 117 622 116 623 105 624 106 625 118 626 105 627 118 628 117 629 106 630 107 631 119 632 106 633 119 634 118 635 107 636 108 637 120 638 107 639 120 640 119 641 108 642 98 643 110 644 108 645 110 646 120 647 110 648 109 649 121 650 110 651 121 652 122 653 109 654 111 655 123 656 109 657 123 658 121 659 111 660 112 661 124 662 111 663 124 664 123 665 112 666 113 667 125 668 112 669 125 670 124 671 113 672 114 673 126 674 113 675 126 676 125 677 114 678 115 679 127 680 114 681 127 682 126 683 115 684 116 685 128 686 115 687 128 688 127 689 116 690 117 691 129 692 116 693 129 694 128 695 117 696 118 697 130 698 117 699 130 700 129 701 118 702 119 703 131 704 118 705 131 706 130 707 119 708 120 709 132 710 119 711 132 712 131 713 120 714 110 715 122 716 120 717 122 718 132 719 122 720 121 721 133 722 122 723 133 724 133 724 121 725 123 726 133 727 121 728 133 729 133 729 123 730 124 731 133 732 123 733 133 734 133 734 124 735 125 736 133 737 124 738 133 739 133 739 125 740 126 741 133 742 125 743 133 744 133 744 126 745 127 746 133 747 126 748 133 749 133 749 127 750 128 751 133 752 127 753 133 754 133 754 128 755 129 756 133 757 128 758 133 759 133 759 129 760 130 761 133 762 129 763 133 764 133 764 130 765 131 766 133 767 130 768 133 769 133 769 131 770 132 771 133 772 131 773 133 774 133 774 132 775 122 776 133 777 132 778 133 779 133 779 0 780 0 780 1 781 0 782 1 783 2 784 0 785 0 785 3 786 0 787 3 788 1 789 0 790 0 790 4 791 0 792 4 793 3 794 0 795 0 795 5 796 0 797 5 798 4 799 0 800 0 800 6 801 0 802 6 803 5 804 0 805 0 805 7 806 0 807 7 808 6 809 0 810 0 810 8 811 0 812 8 813 7 814 0 815 0 815 9 816 0 817 9 818 8 819 0 820 0 820 10 821 0 822 10 823 9 824 0 825 0 825 11 826 0 827 11 828 10 829 0 830 0 830 12 831 0 832 12 833 11 834 0 835 0 835 2 836 0 837 2 838 12 839</p>
                </triangles>
            </mesh>
        </geometry>
    </library_geometries>
    <library_visual_scenes>
        <visual_scene id="Building_218_CROWN2">
            <node>
                <instance_geometry url="#geometry0">
                    <bind_material>
                        <technique_common>
                            <instance_material symbol="default_ai_0.2_sh_0.2_tr_0.0_dc_r_0.8_g_0.8_b_0.8_sc_r_1.0_g_1.0_b_1.0_ec_r_0.0_g_0.0_b_0_tri" target="#default_ai_0.2_sh_0.2_tr_0.0_dc_r_0.8_g_0.8_b_0.8_sc_r_1.0_g_1.0_b_1.0_ec_r_0.0_g_0.0_b_0_mat"/>
                        </technique_common>
                    </bind_material>
                </instance_geometry>
            </node>
        </visual_scene>
    </library_visual_scenes>
    <scene>
        <instance_visual_scene url="#Building_218_CROWN2"/>
    </scene>
</COLLADA>
