<?xml version="1.0" encoding="UTF-8" standalone="yes"?>
<COLLADA xmlns="http://www.collada.org/2005/11/COLLADASchema" version="1.4.1">
    <asset>
        <contributor>
            <authoring_tool>3D City Database Importer/Exporter, version 5.5.3; Chair of Geoinformatics, Technical University of Munich</authoring_tool>
        </contributor>
        <created>2026-09-25T14:45:39.941</created>
        <modified>2026-09-25T14:45:39.941</modified>
        <unit meter="1.0" name="meters"/>
        <up_axis>Z_UP</up_axis>
    </asset>
    <library_materials>
        <material id="default_ai_0.2_sh_0.2_tr_0.0_dc_r_0.8_g_0.8_b_0.8_sc_r_1.0_g_1.0_b_1.0_ec_r_0.0_g_0.0_b_0_mat">
            <instance_effect url="#default_ai_0.2_sh_0.2_tr_0.0_dc_r_0.8_g_0.8_b_0.8_sc_r_1.0_g_1.0_b_1.0_ec_r_0.0_g_0.0_b_0_eff"/>
        </material>
    </library_materials>
    <library_effects>
        <effect id="default_ai_0.2_sh_0.2_tr_0.0_dc_r_0.8_g_0.8_b_0.8_sc_r_1.0_g_1.0_b_1.0_ec_r_0.0_g_0.0_b_0_eff">
            <profile_COMMON>
                <technique sid="COMMON">
                    <lambert>
                        <emission>
                            <color>0.0 0.0 0.0 1.0</color>
                        </emission>
                        <diffuse>
                            <color>0.8 0.8 0.8 1.0</color>
                        </diffuse>
                        <reflective>
                            <color>1.0 1.0 1.0 1.0</color>
                        </reflective>
                        <reflectivity>
                            <float>0.2</float>
                        </reflectivity>
                        <transparent opaque="A_ONE">
                            <color>1.0 1.0 1.0 1.0</color>
                        </transparent>
                        <transparency>
                            <float>1.0</float>
                        </transparency>
                    </lambert>
                </technique>
                <extra>
                    <technique profile="GOOGLEEARTH">
                        <double_sided>0</double_sided>
                    </technique>
                </extra>
            </profile_COMMON>
        </effect>
    </library_effects>
    <library_geometries>
        <geometry id="geometry0">
            <mesh>
                <source id="geometry0-position">
                    <float_array id="geometry0-position-array" count="402">0.0 0.0 1.4 0.1569008 0.090587 1.3761482 0.1811733 0.0 1.3761482 0.090587 0.1569008 1.3761482 0.0 0.1811733 1.3761482 -0.090587 0.1569008 1.3761482 -0.1569008 0.090587 1.3761482 -0.1811733 0.0 1.3761482 -0.1569008 -0.090587 1.3761482 -0.090587 -0.1569008 1.3761482 0.0 -0.1811733 1.3761482 0.090587 -0.1569008 1.3761482 0.1569008 -0.090587 1.3761482 0.3031091 0.175 1.3062175 0.35 0.0 1.3062175 0.175 0.3031091 1.3062175 0.0 0.35 1.3062175 -0.175 0.3031091 1.3062175 -0.3031091 0.175 1.3062175 -0.35 0.0 1.3062175 -0.3031091 -0.175 1.3062175 -0.175 -0.3031091 1.3062175 0.0 -0.35 1.3062175 0.175 -0.3031091 1.3062175 0.3031091 -0.175 1.3062175 0.4286604 0.2474871 1.1949742 0.4949749 0.0 1.1949742 0.2474871 0.4286604 1.1949742 0.0 0.4949749 1.1949742 -0.2474871 0.4286604 1.1949742 -0.4286604 0.2474871 1.1949742 -0.4949749 0.0 1.1949742 -0.4286604 -0.2474871 1.1949742 -0.2474871 -0.4286604 1.1949742 0.0 -0.4949749 1.1949742 0.2474871 -0.4286604 1.1949742 0.4286604 -0.2474871 1.1949742 0.525 0.3031091 1.05 0.6062175 0.0 1.05 0.3031091 0.525 1.05 0.0 0.6062175 1.05 -0.3031091 0.525 1.05 -0.525 0.3031091 1.05 -0.6062175 0.0 1.05 -0.525 -0.3031091 1.05 -0.3031091 -0.525 1.05 0.0 -0.6062175 1.05 0.3031091 -0.525 1.05 0.525 -0.3031091 1.05 0.5855612 0.3380741 0.8811733 0.6761482 0.0 0.8811733 0.3380741 0.5855612 0.8811733 0.0 0.6761482 0.8811733 -0.3380741 0.5855612 0.8811733 -0.5855612 0.3380741 0.8811733 -0.6761482 0.0 0.8811733 -0.5855612 -0.3380741 0.8811733 -0.3380741 -0.5855612 0.8811733 0.0 -0.6761482 0.8811733 0.3380741 -0.5855612 0.8811733 0.5855612 -0.3380741 0.8811733 0.6062175 0.35 0.7 0.7 0.0 0.7 0.35 0.6062175 0.7 0.0 0.7 0.7 -0.35 0.6062175 0.7 -0.6062175 0.35 0.7 -0.7 0.0 0.7 -0.6062175 -0.35 0.7 -0.35 -0.6062175 0.7 0.0 -0.7 0.7 0.35 -0.6062175 0.7 0.6062175 -0.35 0.7 0.5855612 0.3380741 0.5188267 0.6761482 0.0 0.5188267 0.3380741 0.5855612 0.5188267 0.0 0.6761482 0.5188267 -0.3380741 0.5855612 0.5188267 -0.5855612 0.3380741 0.5188267 -0.6761482 0.0 0.5188267 -0.5855612 -0.3380741 0.5188267 -0.3380741 -0.5855612 0.5188267 0.0 -0.6761482 0.5188267 0.3380741 -0.5855612 0.5188267 0.5855612 -0.3380741 0.5188267 0.525 0.3031091 0.35 0.6062175 0.0 0.35 0.3031091 0.525 0.35 0.0 0.6062175 0.35 -0.3031091 0.525 0.35 -0.525 0.3031091 0.35 -0.6062175 0.0 0.35 -0.525 -0.3031091 0.35 -0.3031091 -0.525 0.35 0.0 -0.6062175 0.35 0.3031091 -0.525 0.35 0.525 -0.3031091 0.35 0.4286604 0.2474871 0.2050251 0.4949749 0.0 0.2050251 0.2474871 0.4286604 0.2050251 0.0 0.4949749 0.2050251 -0.2474871 0.4286604 0.2050251 -0.4286604 0.2474871 0.2050251 -0.4949749 0.0 0.2050251 -0.4286604 -0.2474871 0.2050251 -0.2474871 -0.4286604 0.2050251 0.0 -0.4949749 0.2050251 0.2474871 -0.4286604 0.2050251 0.4286604 -0.2474871 0.2050251 0.3031091 0.175 0.0937818 0.35 0.0 0.0937818 0.175 0.3031091 0.0937818 0.0 0.35 0.0937818 -0.175 0.3031091 0.0937818 -0.3031091 0.175 0.0937818 -0.35 0.0 0.0937818 -0.3031091 -0.175 0.0937818 -0.175 -0.3031091 0.0937818 0.0 -0.35 0.0937818 0.175 -0.3031091 0.0937818 0.3031091 -0.175 0.0937818 0.1569008 0.090587 0.0238518 0.1811733 0.0 0.0238518 0.090587 0.1569008 0.0238518 0.0 0.1811733 0.0238518 -0.090587 0.1569008 0.0238518 -0.1569008 0.090587 0.0238518 -0.1811733 0.0 0.0238518 -0.1569008 -0.090587 0.0238518 -0.090587 -0.1569008 0.0238518 0.0 -0.1811733 0.0238518 0.090587 -0.1569008 0.0238518 0.1569008 -0.090587 0.0238518 0.0 0.0 0.0</float_array>
                    <technique_common>
                        <accessor count="134" source="#geometry0-position-array" stride="3">
                            <param name="X" type="float"/>
                            <param name="Y" type="float"/>
                            <param name="Z" type="float"/>
                        </accessor>
                    </technique_common>
                </source>
                <source id="geometry0-normal">
                    <float_array id="geometry0-normal-array" count="2520">0.2403 -0.8968091 0.3714693 0.2403 -0.8968091 0.3714693 0.2403 -0.8968091 0.3714693 0.2402982 -0.8968084 0.3714721 0.2402982 -0.8968084 0.3714721 0.2402982 -0.8968084 0.3714721 0.65651 -0.65651 0.3714691 0.65651 -0.65651 0.3714691 0.65651 -0.65651 0.3714691 0.6565099 -0.6565099 0.3714692 0.6565099 -0.6565099 0.3714692 0.6565099 -0.6565099 0.3714692 0.896808 -0.2402997 0.3714719 0.896808 -0.2402997 0.3714719 0.896808 -0.2402997 0.3714719 0.8968095 -0.2402984 0.3714692 0.8968095 -0.2402984 0.3714692 0.8968095 -0.2402984 0.3714692 0.8968091 0.2403 0.3714693 0.8968091 0.2403 0.3714693 0.8968091 0.2403 0.3714693 0.8968084 0.2402982 0.3714721 0.8968084 0.2402982 0.3714721 0.8968084 0.2402982 0.3714721 0.65651 0.65651 0.3714691 0.65651 0.65651 0.3714691 0.65651 0.65651 0.3714691 0.6565099 0.6565099 0.3714692 0.6565099 0.6565099 0.3714692 0.6565099 0.6565099 0.3714692 0.2402997 0.896808 0.3714719 0.2402997 0.896808 0.3714719 0.2402997 0.896808 0.3714719 0.2402984 0.8968095 0.3714692 0.2402984 0.8968095 0.3714692 0.2402984 0.8968095 0.3714692 -0.2403 0.8968091 0.3714693 -0.2403 0.8968091 0.3714693 -0.2403 0.8968091 0.3714693 -0.2402982 0.8968084 0.3714721 -0.2402982 0.8968084 0.3714721 -0.2402982 0.8968084 0.3714721 -0.65651 0.65651 0.3714691 -0.65651 0.65651 0.3714691 -0.65651 0.65651 0.3714691 -0.6565099 0.6565099 0.3714692 -0.6565099 0.6565099 0.3714692 -0.6565099 0.6565099 0.3714692 -0.896808 0.2402997 0.3714719 -0.896808 0.2402997 0.3714719 -0.896808 0.2402997 0.3714719 -0.8968095 0.2402984 0.3714692 -0.8968095 0.2402984 0.3714692 -0.8968095 0.2402984 0.3714692 -0.7760127 -0.2079312 0.5954569 -0.7760127 -0.2079312 0.5954569 -0.7760127 -0.2079312 0.5954569 -0.7760144 -0.2079342 0.5954537 -0.7760144 -0.2079342 0.5954537 -0.7760144 -0.2079342 0.5954537 -0.5680802 -0.5680802 0.5954575 -0.5680802 -0.5680802 0.5954575 -0.5680802 -0.5680802 0.5954575 -0.5680802 -0.5680802 0.5954575 -0.5680802 -0.5680802 0.5954575 -0.5680802 -0.5680802 0.5954575 -0.2079317 -0.7760147 0.595454 -0.2079317 -0.7760147 0.595454 -0.2079317 -0.7760147 0.595454 -0.2079335 -0.7760119 0.5954572 -0.2079335 -0.7760119 0.5954572 -0.2079335 -0.7760119 0.5954572 0.2079312 -0.7760127 0.5954569 0.2079312 -0.7760127 0.5954569 0.2079312 -0.7760127 0.5954569 0.2079342 -0.7760144 0.5954537 0.2079342 -0.7760144 0.5954537 0.2079342 -0.7760144 0.5954537 0.5680802 -0.5680802 0.5954575 0.5680802 -0.5680802 0.5954575 0.5680802 -0.5680802 0.5954575 0.5680802 -0.5680802 0.5954575 0.5680802 -0.5680802 0.5954575 0.5680802 -0.5680802 0.5954575 0.7760147 -0.2079317 0.595454 0.7760147 -0.2079317 0.595454 0.7760147 -0.2079317 0.595454 0.7760119 -0.2079335 0.5954572 0.7760119 -0.2079335 0.5954572 0.7760119 -0.2079335 0.5954572 0.7760127 0.2079312 0.5954569 0.7760127 0.2079312 0.5954569 0.7760127 0.2079312 0.5954569 0.7760144 0.2079342 0.5954537 0.7760144 0.2079342 0.5954537 0.7760144 0.2079342 0.5954537 0.5680802 0.5680802 0.5954575 0.5680802 0.5680802 0.5954575 0.5680802 0.5680802 0.5954575 0.5680802 0.5680802 0.5954575 0.5680802 0.5680802 0.5954575 0.5680802 0.5680802 0.5954575 0.2079317 0.7760147 0.595454 0.2079317 0.7760147 0.595454 0.2079317 0.7760147 0.595454 0.2079335 0.7760119 0.5954572 0.2079335 0.7760119 0.5954572 0.2079335 0.7760119 0.5954572 -0.2079312 0.7760127 0.5954569 -0.2079312 0.7760127 0.5954569 -0.2079312 0.7760127 0.5954569 -0.2079342 0.7760144 0.5954537 -0.2079342 0.7760144 0.5954537 -0.2079342 0.7760144 0.5954537 -0.5680802 0.5680802 0.5954575 -0.5680802 0.5680802 0.5954575 -0.5680802 0.5680802 0.5954575 -0.5680802 0.5680802 0.5954575 -0.5680802 0.5680802 0.5954575 -0.5680802 0.5680802 0.5954575 -0.7760147 0.2079317 0.595454 -0.7760147 0.2079317 0.595454 -0.7760147 0.2079317 0.595454 -0.7760119 0.2079335 0.5954572 -0.7760119 0.2079335 0.5954572 -0.7760119 0.2079335 0.5954572 -0.6008227 -0.1609913 0.7830031 -0.6008227 -0.1609913 0.7830031 -0.6008227 -0.1609913 0.7830031 -0.6008214 -0.1609889 0.7830047 -0.6008214 -0.1609889 0.7830047 -0.6008214 -0.1609889 0.7830047 -0.4398332 -0.4398332 0.783003 -0.4398332 -0.4398332 0.783003 -0.4398332 -0.4398332 0.783003 -0.4398331 -0.4398331 0.7830029 -0.4398331 -0.4398331 0.7830029 -0.4398331 -0.4398331 0.7830029 -0.1609909 -0.6008211 0.7830043 -0.1609909 -0.6008211 0.7830043 -0.1609909 -0.6008211 0.7830043 -0.1609894 -0.6008236 0.7830029 -0.1609894 -0.6008236 0.7830029 -0.1609894 -0.6008236 0.7830029 0.1609913 -0.6008227 0.7830031 0.1609913 -0.6008227 0.7830031 0.1609913 -0.6008227 0.7830031 0.1609889 -0.6008214 0.7830047 0.1609889 -0.6008214 0.7830047 0.1609889 -0.6008214 0.7830047 0.4398332 -0.4398332 0.783003 0.4398332 -0.4398332 0.783003 0.4398332 -0.4398332 0.783003 0.4398331 -0.4398331 0.7830029 0.4398331 -0.4398331 0.7830029 0.4398331 -0.4398331 0.7830029 0.6008211 -0.1609909 0.7830043 0.6008211 -0.1609909 0.7830043 0.6008211 -0.1609909 0.7830043 0.6008236 -0.1609894 0.7830029 0.6008236 -0.1609894 0.7830029 0.6008236 -0.1609894 0.7830029 0.6008227 0.1609913 0.7830031 0.6008227 0.1609913 0.7830031 0.6008227 0.1609913 0.7830031 0.6008214 0.1609889 0.7830047 0.6008214 0.1609889 0.7830047 0.6008214 0.1609889 0.7830047 0.4398332 0.4398332 0.783003 0.4398332 0.4398332 0.783003 0.4398332 0.4398332 0.783003 0.4398331 0.4398331 0.7830029 0.4398331 0.4398331 0.7830029 0.4398331 0.4398331 0.7830029 0.1609909 0.6008211 0.7830043 0.1609909 0.6008211 0.7830043 0.1609909 0.6008211 0.7830043 0.1609894 0.6008236 0.7830029 0.1609894 0.6008236 0.7830029 0.1609894 0.6008236 0.7830029 -0.1609913 0.6008227 0.7830031 -0.1609913 0.6008227 0.7830031 -0.1609913 0.6008227 0.7830031 -0.1609889 0.6008214 0.7830047 -0.1609889 0.6008214 0.7830047 -0.1609889 0.6008214 0.7830047 -0.4398332 0.4398332 0.783003 -0.4398332 0.4398332 0.783003 -0.4398332 0.4398332 0.783003 -0.4398331 0.4398331 0.7830029 -0.4398331 0.4398331 0.7830029 -0.4398331 0.4398331 0.7830029 -0.6008211 0.1609909 0.7830043 -0.6008211 0.1609909 0.7830043 -0.6008211 0.1609909 0.7830043 -0.6008236 0.1609894 0.7830029 -0.6008236 0.1609894 0.7830029 -0.6008236 0.1609894 0.7830029 -0.3806861 -0.102004 0.9190611 -0.3806861 -0.102004 0.9190611 -0.3806861 -0.102004 0.9190611 -0.3806859 -0.1020036 0.9190612 -0.3806859 -0.1020036 0.9190612 -0.3806859 -0.1020036 0.9190612 -0.2786817 -0.2786817 0.9190609 -0.2786817 -0.2786817 0.9190609 -0.2786817 -0.2786817 0.9190609 -0.2786817 -0.2786817 0.9190609 -0.2786817 -0.2786817 0.9190609 -0.2786817 -0.2786817 0.9190609 -0.102004 -0.3806859 0.9190612 -0.102004 -0.3806859 0.9190612 -0.102004 -0.3806859 0.9190612 -0.1020037 -0.3806863 0.919061 -0.1020037 -0.3806863 0.919061 -0.1020037 -0.3806863 0.919061 0.102004 -0.3806861 0.9190611 0.102004 -0.3806861 0.9190611 0.102004 -0.3806861 0.9190611 0.1020036 -0.3806859 0.9190612 0.1020036 -0.3806859 0.9190612 0.1020036 -0.3806859 0.9190612 0.2786817 -0.2786817 0.9190609 0.2786817 -0.2786817 0.9190609 0.2786817 -0.2786817 0.9190609 0.2786817 -0.2786817 0.9190609 0.2786817 -0.2786817 0.9190609 0.2786817 -0.2786817 0.9190609 0.3806859 -0.102004 0.9190612 0.3806859 -0.102004 0.9190612 0.3806859 -0.102004 0.9190612 0.3806863 -0.1020037 0.919061 0.3806863 -0.1020037 0.919061 0.3806863 -0.1020037 0.919061 0.3806861 0.102004 0.9190611 0.3806861 0.102004 0.9190611 0.3806861 0.102004 0.9190611 0.3806859 0.1020036 0.9190612 0.3806859 0.1020036 0.9190612 0.3806859 0.1020036 0.9190612 0.2786817 0.2786817 0.9190609 0.2786817 0.2786817 0.9190609 0.2786817 0.2786817 0.9190609 0.2786817 0.2786817 0.9190609 0.2786817 0.2786817 0.9190609 0.2786817 0.2786817 0.9190609 0.102004 0.3806859 0.9190612 0.102004 0.3806859 0.9190612 0.102004 0.3806859 0.9190612 0.1020037 0.3806863 0.919061 0.1020037 0.3806863 0.919061 0.1020037 0.3806863 0.919061 -0.102004 0.3806861 0.9190611 -0.102004 0.3806861 0.9190611 -0.102004 0.3806861 0.9190611 -0.1020036 0.3806859 0.9190612 -0.1020036 0.3806859 0.9190612 -0.1020036 0.3806859 0.9190612 -0.2786817 0.2786817 0.9190609 -0.2786817 0.2786817 0.9190609 -0.2786817 0.2786817 0.9190609 -0.2786817 0.2786817 0.9190609 -0.2786817 0.2786817 0.9190609 -0.2786817 0.2786817 0.9190609 -0.3806859 0.102004 0.9190612 -0.3806859 0.102004 0.9190612 -0.3806859 0.102004 0.9190612 -0.3806863 0.1020037 0.919061 -0.3806863 0.1020037 0.919061 -0.3806863 0.1020037 0.919061 -0.1304458 -0.0349525 0.9908391 -0.1304458 -0.0349525 0.9908391 -0.1304458 -0.0349525 0.9908391 1.0 0.0 0.0 1.0 0.0 0.0 -0.0954928 -0.0954928 0.9908392 -0.0954928 -0.0954928 0.9908392 -0.0954928 -0.0954928 0.9908392 1.0 0.0 0.0 1.0 0.0 0.0 -0.0349525 -0.1304458 0.9908391 -0.0349525 -0.1304458 0.9908391 -0.0349525 -0.1304458 0.9908391 1.0 0.0 0.0 1.0 0.0 0.0 0.0349525 -0.1304458 0.9908391 0.0349525 -0.1304458 0.9908391 0.0349525 -0.1304458 0.9908391 1.0 0.0 0.0 1.0 0.0 0.0 0.0954928 -0.0954928 0.9908392 0.0954928 -0.0954928 0.9908392 0.0954928 -0.0954928 0.9908392 1.0 0.0 0.0 1.0 0.0 0.0 0.1304458 -0.0349525 0.9908391 0.1304458 -0.0349525 0.9908391 0.1304458 -0.0349525 0.9908391 1.0 0.0 0.0 1.0 0.0 0.0 0.1304458 0.0349525 0.9908391 0.1304458 0.0349525 0.9908391 0.1304458 0.0349525 0.9908391 1.0 0.0 0.0 1.0 0.0 0.0 0.0954928 0.0954928 0.9908392 0.0954928 0.0954928 0.9908392 0.0954928 0.0954928 0.9908392 1.0 0.0 0.0 1.0 0.0 0.0 0.0349525 0.1304458 0.9908391 0.0349525 0.1304458 0.9908391 0.0349525 0.1304458 0.9908391 1.0 0.0 0.0 1.0 0.0 0.0 -0.0349525 0.1304458 0.9908391 -0.0349525 0.1304458 0.9908391 -0.0349525 0.1304458 0.9908391 1.0 0.0 0.0 1.0 0.0 0.0 -0.0954928 0.0954928 0.9908392 -0.0954928 0.0954928 0.9908392 -0.0954928 0.0954928 0.9908392 1.0 0.0 0.0 1.0 0.0 0.0 -0.1304458 0.0349525 0.9908391 -0.1304458 0.0349525 0.9908391 -0.1304458 0.0349525 0.9908391 1.0 0.0 0.0 1.0 0.0 0.0 1.0 0.0 0.0 1.0 0.0 0.0 -0.1304456 -0.0349525 -0.9908392 -0.1304456 -0.0349525 -0.9908392 -0.1304456 -0.0349525 -0.9908392 1.0 0.0 0.0 1.0 0.0 0.0 -0.0954926 -0.0954926 -0.9908392 -0.0954926 -0.0954926 -0.9908392 -0.0954926 -0.0954926 -0.9908392 1.0 0.0 0.0 1.0 0.0 0.0 -0.0349525 -0.1304456 -0.9908392 -0.0349525 -0.1304456 -0.9908392 -0.0349525 -0.1304456 -0.9908392 1.0 0.0 0.0 1.0 0.0 0.0 0.0349525 -0.1304456 -0.9908392 0.0349525 -0.1304456 -0.9908392 0.0349525 -0.1304456 -0.9908392 1.0 0.0 0.0 1.0 0.0 0.0 0.0954926 -0.0954926 -0.9908392 0.0954926 -0.0954926 -0.9908392 0.0954926 -0.0954926 -0.9908392 1.0 0.0 0.0 1.0 0.0 0.0 0.1304456 -0.0349525 -0.9908392 0.1304456 -0.0349525 -0.9908392 0.1304456 -0.0349525 -0.9908392 1.0 0.0 0.0 1.0 0.0 0.0 0.1304456 0.0349525 -0.9908392 0.1304456 0.0349525 -0.9908392 0.1304456 0.0349525 -0.9908392 1.0 0.0 0.0 1.0 0.0 0.0 0.0954926 0.0954926 -0.9908392 0.0954926 0.0954926 -0.9908392 0.0954926 0.0954926 -0.9908392 1.0 0.0 0.0 1.0 0.0 0.0 0.0349525 0.1304456 -0.9908392 0.0349525 0.1304456 -0.9908392 0.0349525 0.1304456 -0.9908392 1.0 0.0 0.0 1.0 0.0 0.0 -0.0349525 0.1304456 -0.9908392 -0.0349525 0.1304456 -0.9908392 -0.0349525 0.1304456 -0.9908392 1.0 0.0 0.0 1.0 0.0 0.0 -0.0954926 0.0954926 -0.9908392 -0.0954926 0.0954926 -0.9908392 -0.0954926 0.0954926 -0.9908392 1.0 0.0 0.0 1.0 0.0 0.0 -0.1304456 0.0349525 -0.9908392 -0.1304456 0.0349525 -0.9908392 -0.1304456 0.0349525 -0.9908392 -0.3806894 -0.1020045 -0.9190596 -0.3806894 -0.1020045 -0.9190596 -0.3806894 -0.1020045 -0.9190596 -0.380689 -0.1020048 -0.9190598 -0.380689 -0.1020048 -0.9190598 -0.380689 -0.1020048 -0.9190598 -0.2786839 -0.2786839 -0.9190596 -0.2786839 -0.2786839 -0.9190596 -0.2786839 -0.2786839 -0.9190596 -0.2786839 -0.2786839 -0.9190596 -0.2786839 -0.2786839 -0.9190596 -0.2786839 -0.2786839 -0.9190596 -0.1020044 -0.380689 -0.9190598 -0.1020044 -0.380689 -0.9190598 -0.1020044 -0.380689 -0.9190598 -0.1020049 -0.3806892 -0.9190597 -0.1020049 -0.3806892 -0.9190597 -0.1020049 -0.3806892 -0.9190597 0.1020045 -0.3806894 -0.9190596 0.1020045 -0.3806894 -0.9190596 0.1020045 -0.3806894 -0.9190596 0.1020048 -0.380689 -0.9190598 0.1020048 -0.380689 -0.9190598 0.1020048 -0.380689 -0.9190598 0.2786839 -0.2786839 -0.9190596 0.2786839 -0.2786839 -0.9190596 0.2786839 -0.2786839 -0.9190596 0.2786839 -0.2786839 -0.9190596 0.2786839 -0.2786839 -0.9190596 0.2786839 -0.2786839 -0.9190596 0.380689 -0.1020044 -0.9190598 0.380689 -0.1020044 -0.9190598 0.380689 -0.1020044 -0.9190598 0.3806892 -0.1020049 -0.9190597 0.3806892 -0.1020049 -0.9190597 0.3806892 -0.1020049 -0.9190597 0.3806894 0.1020045 -0.9190596 0.3806894 0.1020045 -0.9190596 0.3806894 0.1020045 -0.9190596 0.380689 0.1020048 -0.9190598 0.380689 0.1020048 -0.9190598 0.380689 0.1020048 -0.9190598 0.2786839 0.2786839 -0.9190596 0.2786839 0.2786839 -0.9190596 0.2786839 0.2786839 -0.9190596 0.2786839 0.2786839 -0.9190596 0.2786839 0.2786839 -0.9190596 0.2786839 0.2786839 -0.9190596 0.1020044 0.380689 -0.9190598 0.1020044 0.380689 -0.9190598 0.1020044 0.380689 -0.9190598 0.1020049 0.3806892 -0.9190597 0.1020049 0.3806892 -0.9190597 0.1020049 0.3806892 -0.9190597 -0.1020045 0.3806894 -0.9190596 -0.1020045 0.3806894 -0.9190596 -0.1020045 0.3806894 -0.9190596 -0.1020048 0.380689 -0.9190598 -0.1020048 0.380689 -0.9190598 -0.1020048 0.380689 -0.9190598 -0.2786839 0.2786839 -0.9190596 -0.2786839 0.2786839 -0.9190596 -0.2786839 0.2786839 -0.9190596 -0.2786839 0.2786839 -0.9190596 -0.2786839 0.2786839 -0.9190596 -0.2786839 0.2786839 -0.9190596 -0.380689 0.1020044 -0.9190598 -0.380689 0.1020044 -0.9190598 -0.380689 0.1020044 -0.9190598 -0.3806892 0.1020049 -0.9190597 -0.3806892 0.1020049 -0.9190597 -0.3806892 0.1020049 -0.9190597 -0.6008238 -0.1609895 -0.7830027 -0.6008238 -0.1609895 -0.7830027 -0.6008238 -0.1609895 -0.7830027 -0.6008213 -0.1609909 -0.7830042 -0.6008213 -0.1609909 -0.7830042 -0.6008213 -0.1609909 -0.7830042 -0.4398333 -0.4398333 -0.7830028 -0.4398333 -0.4398333 -0.7830028 -0.4398333 -0.4398333 -0.7830028 -0.4398333 -0.4398333 -0.7830028 -0.4398333 -0.4398333 -0.7830028 -0.4398333 -0.4398333 -0.7830028 -0.1609889 -0.6008216 -0.7830045 -0.1609889 -0.6008216 -0.7830045 -0.1609889 -0.6008216 -0.7830045 -0.1609913 -0.6008229 -0.783003 -0.1609913 -0.6008229 -0.783003 -0.1609913 -0.6008229 -0.783003 0.1609895 -0.6008238 -0.7830027 0.1609895 -0.6008238 -0.7830027 0.1609895 -0.6008238 -0.7830027 0.1609909 -0.6008213 -0.7830042 0.1609909 -0.6008213 -0.7830042 0.1609909 -0.6008213 -0.7830042 0.4398333 -0.4398333 -0.7830028 0.4398333 -0.4398333 -0.7830028 0.4398333 -0.4398333 -0.7830028 0.4398333 -0.4398333 -0.7830028 0.4398333 -0.4398333 -0.7830028 0.4398333 -0.4398333 -0.7830028 0.6008216 -0.1609889 -0.7830045 0.6008216 -0.1609889 -0.7830045 0.6008216 -0.1609889 -0.7830045 0.6008229 -0.1609913 -0.783003 0.6008229 -0.1609913 -0.783003 0.6008229 -0.1609913 -0.783003 0.6008238 0.1609895 -0.7830027 0.6008238 0.1609895 -0.7830027 0.6008238 0.1609895 -0.7830027 0.6008213 0.1609909 -0.7830042 0.6008213 0.1609909 -0.7830042 0.6008213 0.1609909 -0.7830042 0.4398333 0.4398333 -0.7830028 0.4398333 0.4398333 -0.7830028 0.4398333 0.4398333 -0.7830028 0.4398333 0.4398333 -0.7830028 0.4398333 0.4398333 -0.7830028 0.4398333 0.4398333 -0.7830028 0.1609889 0.6008216 -0.7830045 0.1609889 0.6008216 -0.7830045 0.1609889 0.6008216 -0.7830045 0.1609913 0.6008229 -0.783003 0.1609913 0.6008229 -0.783003 0.1609913 0.6008229 -0.783003 -0.1609895 0.6008238 -0.7830027 -0.1609895 0.6008238 -0.7830027 -0.1609895 0.6008238 -0.7830027 -0.1609909 0.6008213 -0.7830042 -0.1609909 0.6008213 -0.7830042 -0.1609909 0.6008213 -0.7830042 -0.4398333 0.4398333 -0.7830028 -0.4398333 0.4398333 -0.7830028 -0.4398333 0.4398333 -0.7830028 -0.4398333 0.4398333 -0.7830028 -0.4398333 0.4398333 -0.7830028 -0.4398333 0.4398333 -0.7830028 -0.6008216 0.1609889 -0.7830045 -0.6008216 0.1609889 -0.7830045 -0.6008216 0.1609889 -0.7830045 -0.6008229 0.1609913 -0.783003 -0.6008229 0.1609913 -0.783003 -0.6008229 0.1609913 -0.783003 -0.7760106 -0.2079331 -0.5954589 -0.7760106 -0.2079331 -0.5954589 -0.7760106 -0.2079331 -0.5954589 -0.7760134 -0.2079314 -0.5954558 -0.7760134 -0.2079314 -0.5954558 -0.7760134 -0.2079314 -0.5954558 -0.5680794 -0.5680794 -0.5954593 -0.5680794 -0.5680794 -0.5954593 -0.5680794 -0.5680794 -0.5954593 -0.5680794 -0.5680794 -0.5954592 -0.5680794 -0.5680794 -0.5954592 -0.5680794 -0.5680794 -0.5954592 -0.2079338 -0.7760131 -0.5954555 -0.2079338 -0.7760131 -0.5954555 -0.2079338 -0.7760131 -0.5954555 -0.2079308 -0.7760114 -0.5954586 -0.2079308 -0.7760114 -0.5954586 -0.2079308 -0.7760114 -0.5954586 0.2079331 -0.7760106 -0.5954589 0.2079331 -0.7760106 -0.5954589 0.2079331 -0.7760106 -0.5954589 0.2079314 -0.7760134 -0.5954558 0.2079314 -0.7760134 -0.5954558 0.2079314 -0.7760134 -0.5954558 0.5680794 -0.5680794 -0.5954593 0.5680794 -0.5680794 -0.5954593 0.5680794 -0.5680794 -0.5954593 0.5680794 -0.5680794 -0.5954592 0.5680794 -0.5680794 -0.5954592 0.5680794 -0.5680794 -0.5954592 0.7760131 -0.2079338 -0.5954555 0.7760131 -0.2079338 -0.5954555 0.7760131 -0.2079338 -0.5954555 0.7760114 -0.2079308 -0.5954586 0.7760114 -0.2079308 -0.5954586 0.7760114 -0.2079308 -0.5954586 0.7760106 0.2079331 -0.5954589 0.7760106 0.2079331 -0.5954589 0.7760106 0.2079331 -0.5954589 0.7760134 0.2079314 -0.5954558 0.7760134 0.2079314 -0.5954558 0.7760134 0.2079314 -0.5954558 0.5680794 0.5680794 -0.5954593 0.5680794 0.5680794 -0.5954593 0.5680794 0.5680794 -0.5954593 0.5680794 0.5680794 -0.5954592 0.5680794 0.5680794 -0.5954592 0.5680794 0.5680794 -0.5954592 0.2079338 0.7760131 -0.5954555 0.2079338 0.7760131 -0.5954555 0.2079338 0.7760131 -0.5954555 0.2079308 0.7760114 -0.5954586 0.2079308 0.7760114 -0.5954586 0.2079308 0.7760114 -0.5954586 -0.2079331 0.7760106 -0.5954589 -0.2079331 0.7760106 -0.5954589 -0.2079331 0.7760106 -0.5954589 -0.2079314 0.7760134 -0.5954558 -0.2079314 0.7760134 -0.5954558 -0.2079314 0.7760134 -0.5954558 -0.5680794 0.5680794 -0.5954593 -0.5680794 0.5680794 -0.5954593 -0.5680794 0.5680794 -0.5954593 -0.5680794 0.5680794 -0.5954592 -0.5680794 0.5680794 -0.5954592 -0.5680794 0.5680794 -0.5954592 -0.7760131 0.2079338 -0.5954555 -0.7760131 0.2079338 -0.5954555 -0.7760131 0.2079338 -0.5954555 -0.7760114 0.2079308 -0.5954586 -0.7760114 0.2079308 -0.5954586 -0.7760114 0.2079308 -0.5954586 -0.8968095 -0.2402985 -0.3714693 -0.8968095 -0.2402985 -0.3714693 -0.8968095 -0.2402985 -0.3714693 -0.896808 -0.2402997 -0.3714721 -0.896808 -0.2402997 -0.3714721 -0.896808 -0.2402997 -0.3714721 -0.6565099 -0.6565099 -0.3714693 -0.6565099 -0.6565099 -0.3714693 -0.6565099 -0.6565099 -0.3714693 -0.6565099 -0.6565099 -0.3714693 -0.6565099 -0.6565099 -0.3714693 -0.6565099 -0.6565099 -0.3714693 -0.2402982 -0.8968083 -0.3714722 -0.2402982 -0.8968083 -0.3714722 -0.2402982 -0.8968083 -0.3714722 -0.2403 -0.896809 -0.3714695 -0.2403 -0.896809 -0.3714695 -0.2403 -0.896809 -0.3714695 0.2402985 -0.8968095 -0.3714693 0.2402985 -0.8968095 -0.3714693 0.2402985 -0.8968095 -0.3714693 0.2402997 -0.896808 -0.3714721 0.2402997 -0.896808 -0.3714721 0.2402997 -0.896808 -0.3714721 0.6565099 -0.6565099 -0.3714693 0.6565099 -0.6565099 -0.3714693 0.6565099 -0.6565099 -0.3714693 0.6565099 -0.6565099 -0.3714693 0.6565099 -0.6565099 -0.3714693 0.6565099 -0.6565099 -0.3714693 0.8968083 -0.2402982 -0.3714722 0.8968083 -0.2402982 -0.3714722 0.8968083 -0.2402982 -0.3714722 0.896809 -0.2403 -0.3714695 0.896809 -0.2403 -0.3714695 0.896809 -0.2403 -0.3714695 0.8968095 0.2402985 -0.3714693 0.8968095 0.2402985 -0.3714693 0.8968095 0.2402985 -0.3714693 0.896808 0.2402997 -0.3714721 0.896808 0.2402997 -0.3714721 0.896808 0.2402997 -0.3714721 0.6565099 0.6565099 -0.3714693 0.6565099 0.6565099 -0.3714693 0.6565099 0.6565099 -0.3714693 0.6565099 0.6565099 -0.3714693 0.6565099 0.6565099 -0.3714693 0.6565099 0.6565099 -0.3714693 0.2402982 0.8968083 -0.3714722 0.2402982 0.8968083 -0.3714722 0.2402982 0.8968083 -0.3714722 0.2403 0.896809 -0.3714695 0.2403 0.896809 -0.3714695 0.2403 0.896809 -0.3714695 -0.2402985 0.8968095 -0.3714693 -0.2402985 0.8968095 -0.3714693 -0.2402985 0.8968095 -0.3714693 -0.2402997 0.896808 -0.3714721 -0.2402997 0.896808 -0.3714721 -0.2402997 0.896808 -0.3714721 -0.6565099 0.6565099 -0.3714693 -0.6565099 0.6565099 -0.3714693 -0.6565099 0.6565099 -0.3714693 -0.6565099 0.6565099 -0.3714693 -0.6565099 0.6565099 -0.3714693 -0.6565099 0.6565099 -0.3714693 -0.8968083 0.2402982 -0.3714722 -0.8968083 0.2402982 -0.3714722 -0.8968083 0.2402982 -0.3714722 -0.896809 0.2403 -0.3714695 -0.896809 0.2403 -0.3714695 -0.896809 0.2403 -0.3714695 -0.958209 -0.2567521 -0.1261501 -0.958209 -0.2567521 -0.1261501 -0.958209 -0.2567521 -0.1261501 -0.958209 -0.2567521 -0.12615 -0.958209 -0.2567521 -0.12615 -0.958209 -0.2567521 -0.12615 -0.7014578 -0.7014578 -0.1261501 -0.7014578 -0.7014578 -0.1261501 -0.7014578 -0.7014578 -0.1261501 -0.7014578 -0.7014578 -0.1261501 -0.7014578 -0.7014578 -0.1261501 -0.7014578 -0.7014578 -0.1261501 -0.2567521 -0.958209 -0.12615 -0.2567521 -0.958209 -0.12615 -0.2567521 -0.958209 -0.12615 -0.2567521 -0.958209 -0.1261501 -0.2567521 -0.958209 -0.1261501 -0.2567521 -0.958209 -0.1261501 0.2567521 -0.958209 -0.1261501 0.2567521 -0.958209 -0.1261501 0.2567521 -0.958209 -0.1261501 0.2567521 -0.958209 -0.12615 0.2567521 -0.958209 -0.12615 0.2567521 -0.958209 -0.12615 0.7014578 -0.7014578 -0.1261501 0.7014578 -0.7014578 -0.1261501 0.7014578 -0.7014578 -0.1261501 0.7014578 -0.7014578 -0.1261501 0.7014578 -0.7014578 -0.1261501 0.7014578 -0.7014578 -0.1261501 0.958209 -0.2567521 -0.12615 0.958209 -0.2567521 -0.12615 0.958209 -0.2567521 -0.12615 0.958209 -0.2567521 -0.1261501 0.958209 -0.2567521 -0.1261501 0.958209 -0.2567521 -0.1261501 0.958209 0.2567521 -0.1261501 0.958209 0.2567521 -0.1261501 0.958209 0.2567521 -0.1261501 0.958209 0.2567521 -0.12615 0.958209 0.2567521 -0.12615 0.958209 0.2567521 -0.12615 0.7014578 0.7014578 -0.1261501 0.7014578 0.7014578 -0.1261501 0.7014578 0.7014578 -0.1261501 0.7014578 0.7014578 -0.1261501 0.7014578 0.7014578 -0.1261501 0.7014578 0.7014578 -0.1261501 0.2567521 0.958209 -0.12615 0.2567521 0.958209 -0.12615 0.2567521 0.958209 -0.12615 0.2567521 0.958209 -0.1261501 0.2567521 0.958209 -0.1261501 0.2567521 0.958209 -0.1261501 -0.2567521 0.958209 -0.1261501 -0.2567521 0.958209 -0.1261501 -0.2567521 0.958209 -0.1261501 -0.2567521 0.958209 -0.12615 -0.2567521 0.958209 -0.12615 -0.2567521 0.958209 -0.12615 -0.7014578 0.7014578 -0.1261501 -0.7014578 0.7014578 -0.1261501 -0.7014578 0.7014578 -0.1261501 -0.7014578 0.7014578 -0.1261501 -0.7014578 0.7014578 -0.1261501 -0.7014578 0.7014578 -0.1261501 -0.958209 0.2567521 -0.12615 -0.958209 0.2567521 -0.12615 -0.958209 0.2567521 -0.12615 -0.958209 0.2567521 -0.1261501 -0.958209 0.2567521 -0.1261501 -0.958209 0.2567521 -0.1261501 -0.9582091 -0.2567521 0.1261502 -0.9582091 -0.2567521 0.1261502 -0.9582091 -0.2567521 0.1261502 -0.958209 -0.2567521 0.12615 -0.958209 -0.2567521 0.12615 -0.958209 -0.2567521 0.12615 -0.7014578 -0.7014578 0.1261501 -0.7014578 -0.7014578 0.1261501 -0.7014578 -0.7014578 0.1261501 -0.7014578 -0.7014578 0.1261502 -0.7014578 -0.7014578 0.1261502 -0.7014578 -0.7014578 0.1261502 -0.2567521 -0.9582091 0.1261501 -0.2567521 -0.9582091 0.1261501 -0.2567521 -0.9582091 0.1261501 -0.2567521 -0.958209 0.1261502 -0.2567521 -0.958209 0.1261502 -0.2567521 -0.958209 0.1261502 0.2567521 -0.9582091 0.1261502 0.2567521 -0.9582091 0.1261502 0.2567521 -0.9582091 0.1261502 0.2567521 -0.958209 0.12615 0.2567521 -0.958209 0.12615 0.2567521 -0.958209 0.12615 0.7014578 -0.7014578 0.1261501 0.7014578 -0.7014578 0.1261501 0.7014578 -0.7014578 0.1261501 0.7014578 -0.7014578 0.1261502 0.7014578 -0.7014578 0.1261502 0.7014578 -0.7014578 0.1261502 0.9582091 -0.2567521 0.1261501 0.9582091 -0.2567521 0.1261501 0.9582091 -0.2567521 0.1261501 0.958209 -0.2567521 0.1261502 0.958209 -0.2567521 0.1261502 0.958209 -0.2567521 0.1261502 0.9582091 0.2567521 0.1261502 0.9582091 0.2567521 0.1261502 0.9582091 0.2567521 0.1261502 0.958209 0.2567521 0.12615 0.958209 0.2567521 0.12615 0.958209 0.2567521 0.12615 0.7014578 0.7014578 0.1261501 0.7014578 0.7014578 0.1261501 0.7014578 0.7014578 0.1261501 0.7014578 0.7014578 0.1261502 0.7014578 0.7014578 0.1261502 0.7014578 0.7014578 0.1261502 0.2567521 0.9582091 0.1261501 0.2567521 0.9582091 0.1261501 0.2567521 0.9582091 0.1261501 0.2567521 0.958209 0.1261502 0.2567521 0.958209 0.1261502 0.2567521 0.958209 0.1261502 -0.2567521 0.9582091 0.1261502 -0.2567521 0.9582091 0.1261502 -0.2567521 0.9582091 0.1261502 -0.2567521 0.958209 0.12615 -0.2567521 0.958209 0.12615 -0.2567521 0.958209 0.12615 -0.7014578 0.7014578 0.1261501 -0.7014578 0.7014578 0.1261501 -0.7014578 0.7014578 0.1261501 -0.7014578 0.7014578 0.1261502 -0.7014578 0.7014578 0.1261502 -0.7014578 0.7014578 0.1261502 -0.9582091 0.2567521 0.1261501 -0.9582091 0.2567521 0.1261501 -0.9582091 0.2567521 0.1261501 -0.958209 0.2567521 0.1261502 -0.958209 0.2567521 0.1261502 -0.958209 0.2567521 0.1261502 -0.8968091 -0.2403 0.3714693 -0.8968091 -0.2403 0.3714693 -0.8968091 -0.2403 0.3714693 -0.8968084 -0.2402982 0.3714721 -0.8968084 -0.2402982 0.3714721 -0.8968084 -0.2402982 0.3714721 -0.65651 -0.65651 0.3714691 -0.65651 -0.65651 0.3714691 -0.65651 -0.65651 0.3714691 -0.6565099 -0.6565099 0.3714692 -0.6565099 -0.6565099 0.3714692 -0.6565099 -0.6565099 0.3714692 -0.2402997 -0.896808 0.3714719 -0.2402997 -0.896808 0.3714719 -0.2402997 -0.896808 0.3714719 -0.2402984 -0.8968095 0.3714692 -0.2402984 -0.8968095 0.3714692 -0.2402984 -0.8968095 0.3714692</float_array>
                    <technique_common>
                        <accessor count="840" source="#geometry0-normal-array" stride="3">
                            <param name="X" type="float"/>
                            <param name="Y" type="float"/>
                            <param name="Z" type="float"/>
                        </accessor>
                    </technique_common>
                </source>
                <vertices id="geometry0-vertex">
                    <input semantic="POSITION" source="#geometry0-position"/>
                </vertices>
                <triangles count="288" material="default_ai_0.2_sh_0.2_tr_0.0_dc_r_0.8_g_0.8_b_0.8_sc_r_1.0_g_1.0_b_1.0_ec_r_0.0_g_0.0_b_0_tri">
                    <input offset="0" semantic="VERTEX" source="#geometry0-vertex"/>
                    <input offset="1" semantic="NORMAL" source="#geometry0-normal"/>
                    <p>76 0 77 1 89 2 76 3 89 4 88 5 77 6 78 7 90 8 77 9 90 10 89 11 78 12 79 13 91 14 78 15 91 16 90 17 79 18 80 19 92 20 79 21 92 22 91 23 80 24 81 25 93 26 80 27 93 28 92 29 81 30 82 31 94 32 81 33 94 34 93 35 82 36 83 37 95 38 82 39 95 40 94 41 83 42 84 43 96 44 83 45 96 46 95 47 84 48 74 49 86 50 84 51 86 52 96 53 86 54 85 55 97 56 86 57 97 58 98 59 85 60 87 61 99 62 85 63 99 64 97 65 87 66 88 67 100 68 87 69 100 70 99 71 88 72 89 73 101 74 88 75 101 76 100 77 89 78 90 79 102 80 89 81 102 82 101 83 90 84 91 85 103 86 90 87 103 88 102 89 91 90 92 91 104 92 91 93 104 94 103 95 92 96 93 97 105 98 92 99 105 100 104 101 93 102 94 103 106 104 93 105 106 106 105 107 94 108 95 109 107 110 94 111 107 112 106 113 95 114 96 115 108 116 95 117 108 118 107 119 96 120 86 121 98 122 96 123 98 124 108 125 98 126 97 127 109 128 98 129 109 130 110 131 97 132 99 133 111 134 97 135 111 136 109 137 99 138 100 139 112 140 99 141 112 142 111 143 100 144 101 145 113 146 100 147 113 148 112 149 101 150 102 151 114 152 101 153 114 154 113 155 102 156 103 157 115 158 102 159 115 160 114 161 103 162 104 163 116 164 103 165 116 166 115 167 104 168 105 169 117 170 104 171 117 172 116 173 105 174 106 175 118 176 105 177 118 178 117 179 106 180 107 181 119 182 106 183 119 184 118 185 107 186 108 187 120 188 107 189 120 190 119 191 108 192 98 193 110 194 108 195 110 196 120 197 110 198 109 199 121 200 110 201 121 202 122 203 109 204 111 205 123 206 109 207 123 208 121 209 111 210 112 211 124 212 111 213 124 214 123 215 112 216 113 217 125 218 112 219 125 220 124 221 113 222 114 223 126 224 113 225 126 226 125 227 114 228 115 229 127 230 114 231 127 232 126 233 115 234 116 235 128 236 115 237 128 238 127 239 116 240 117 241 129 242 116 243 129 244 128 245 117 246 118 247 130 248 117 249 130 250 129 251 118 252 119 253 131 254 118 255 131 256 130 257 119 258 120 259 132 260 119 261 132 262 131 263 120 264 110 265 122 266 120 267 122 268 132 269 122 270 121 271 133 272 122 273 133 274 133 274 121 275 123 276 133 277 121 278 133 279 133 279 123 280 124 281 133 282 123 283 133 284 133 284 124 285 125 286 133 287 124 288 133 289 133 289 125 290 126 291 133 292 125 293 133 294 133 294 126 295 127 296 133 297 126 298 133 299 133 299 127 300 128 301 133 302 127 303 133 304 133 304 128 305 129 306 133 307 128 308 133 309 133 309 129 310 130 311 133 312 129 313 133 314 133 314 130 315 131 316 133 317 130 318 133 319 133 319 131 320 132 321 133 322 131 323 133 324 133 324 132 325 122 326 133 327 132 328 133 329 133 329 0 330 0 330 1 331 0 332 1 333 2 334 0 335 0 335 3 336 0 337 3 338 1 339 0 340 0 340 4 341 0 342 4 343 3 344 0 345 0 345 5 346 0 347 5 348 4 349 0 350 0 350 6 351 0 352 6 353 5 354 0 355 0 355 7 356 0 357 7 358 6 359 0 360 0 360 8 361 0 362 8 363 7 364 0 365 0 365 9 366 0 367 9 368 8 369 0 370 0 370 10 371 0 372 10 373 9 374 0 375 0 375 11 376 0 377 11 378 10 379 0 380 0 380 12 381 0 382 12 383 11 384 0 385 0 385 2 386 0 387 2 388 12 389 2 390 1 391 13 392 2 393 13 394 14 395 1 396 3 397 15 398 1 399 15 400 13 401 3 402 4 403 16 404 3 405 16 406 15 407 4 408 5 409 17 410 4 411 17 412 16 413 5 414 6 415 18 416 5 417 18 418 17 419 6 420 7 421 19 422 6 423 19 424 18 425 7 426 8 427 20 428 7 429 20 430 19 431 8 432 9 433 21 434 8 435 21 436 20 437 9 438 10 439 22 440 9 441 22 442 21 443 10 444 11 445 23 446 10 447 23 448 22 449 11 450 12 451 24 452 11 453 24 454 23 455 12 456 2 457 14 458 12 459 14 460 24 461 14 462 13 463 25 464 14 465 25 466 26 467 13 468 15 469 27 470 13 471 27 472 25 473 15 474 16 475 28 476 15 477 28 478 27 479 16 480 17 481 29 482 16 483 29 484 28 485 17 486 18 487 30 488 17 489 30 490 29 491 18 492 19 493 31 494 18 495 31 496 30 497 19 498 20 499 32 500 19 501 32 502 31 503 20 504 21 505 33 506 20 507 33 508 32 509 21 510 22 511 34 512 21 513 34 514 33 515 22 516 23 517 35 518 22 519 35 520 34 521 23 522 24 523 36 524 23 525 36 526 35 527 24 528 14 529 26 530 24 531 26 532 36 533 26 534 25 535 37 536 26 537 37 538 38 539 25 540 27 541 39 542 25 543 39 544 37 545 27 546 28 547 40 548 27 549 40 550 39 551 28 552 29 553 41 554 28 555 41 556 40 557 29 558 30 559 42 560 29 561 42 562 41 563 30 564 31 565 43 566 30 567 43 568 42 569 31 570 32 571 44 572 31 573 44 574 43 575 32 576 33 577 45 578 32 579 45 580 44 581 33 582 34 583 46 584 33 585 46 586 45 587 34 588 35 589 47 590 34 591 47 592 46 593 35 594 36 595 48 596 35 597 48 598 47 599 36 600 26 601 38 602 36 603 38 604 48 605 38 606 37 607 49 608 38 609 49 610 50 611 37 612 39 613 51 614 37 615 51 616 49 617 39 618 40 619 52 620 39 621 52 622 51 623 40 624 41 625 53 626 40 627 53 628 52 629 41 630 42 631 54 632 41 633 54 634 53 635 42 636 43 637 55 638 42 639 55 640 54 641 43 642 44 643 56 644 43 645 56 646 55 647 44 648 45 649 57 650 44 651 57 652 56 653 45 654 46 655 58 656 45 657 58 658 57 659 46 660 47 661 59 662 46 663 59 664 58 665 47 666 48 667 60 668 47 669 60 670 59 671 48 672 38 673 50 674 48 675 50 676 60 677 50 678 49 679 61 680 50 681 61 682 62 683 49 684 51 685 63 686 49 687 63 688 61 689 51 690 52 691 64 692 51 693 64 694 63 695 52 696 53 697 65 698 52 699 65 700 64 701 53 702 54 703 66 704 53 705 66 706 65 707 54 708 55 709 67 710 54 711 67 712 66 713 55 714 56 715 68 716 55 717 68 718 67 719 56 720 57 721 69 722 56 723 69 724 68 725 57 726 58 727 70 728 57 729 70 730 69 731 58 732 59 733 71 734 58 735 71 736 70 737 59 738 60 739 72 740 59 741 72 742 71 743 60 744 50 745 62 746 60 747 62 748 72 749 62 750 61 751 73 752 62 753 73 754 74 755 61 756 63 757 75 758 61 759 75 760 73 761 63 762 64 763 76 764 63 765 76 766 75 767 64 768 65 769 77 770 64 771 77 772 76 773 65 774 66 775 78 776 65 777 78 778 77 779 66 780 67 781 79 782 66 783 79 784 78 785 67 786 68 787 80 788 67 789 80 790 79 791 68 792 69 793 81 794 68 795 81 796 80 797 69 798 70 799 82 800 69 801 82 802 81 803 70 804 71 805 83 806 70 807 83 808 82 809 71 810 72 811 84 812 71 813 84 814 83 815 72 816 62 817 74 818 72 819 74 820 84 821 74 822 73 823 85 824 74 825 85 826 86 827 73 828 75 829 87 830 73 831 87 832 85 833 75 834 76 835 88 836 75 837 88 838 87 839</p>
                </triangles>
            </mesh>
        </geometry>
    </library_geometries>
    <library_visual_scenes>
        <visual_scene id="Building_327_CROWN1">
            <node>
                <instance_geometry url="#geometry0">
                    <bind_material>
                        <technique_common>
                            <instance_material symbol="default_ai_0.2_sh_0.2_tr_0.0_dc_r_0.8_g_0.8_b_0.8_sc_r_1.0_g_1.0_b_1.0_ec_r_0.0_g_0.0_b_0_tri" target="#default_ai_0.2_sh_0.2_tr_0.0_dc_r_0.8_g_0.8_b_0.8_sc_r_1.0_g_1.0_b_1.0_ec_r_0.0_g_0.0_b_0_mat"/>
                        </technique_common>
                    </bind_material>
                </instance_geometry>
            </node>
        </visual_scene>
    </library_visual_scenes>
    <scene>
        <instance_visual_scene url="#Building_327_CROWN1"/>
    </scene>
</COLLADA>
