<?xml version="1.0" encoding="UTF-8" standalone="yes"?>
<COLLADA xmlns="http://www.collada.org/2005/11/COLLADASchema" version="1.4.1">
    <asset>
        <contributor>
            <authoring_tool>3D City Database Importer/Exporter, version 5.5.3; Chair of Geoinformatics, Technical University of Munich</authoring_tool>
        </contributor>
        <created>2026-09-25T14:45:33.717</created>
        <modified>2026-09-25T14:45:33.717</modified>
        <unit meter="1.0" name="meters"/>
        <up_axis>Z_UP</up_axis>
    </asset>
    <library_materials>
        <material id="default_ai_0.2_sh_0.2_tr_0.0_dc_r_0.8_g_0.8_b_0.8_sc_r_1.0_g_1.0_b_1.0_ec_r_0.0_g_0.0_b_0_mat">
            <instance_effect url="#default_ai_0.2_sh_0.2_tr_0.0_dc_r_0.8_g_0.8_b_0.8_sc_r_1.0_g_1.0_b_1.0_ec_r_0.0_g_0.0_b_0_eff"/>
        </material>
    </library_materials>
    <library_effects>
        <effect id="default_ai_0.2_sh_0.2_tr_0.0_dc_r_0.8_g_0.8_b_0.8_sc_r_1.0_g_1.0_b_1.0_ec_r_0.0_g_0.0_b_0_eff">
            <profile_COMMON>
                <technique sid="COMMON">
                    <lambert>
                        <emission>
                            <color>0.0 0.0 0.0 1.0</color>
                        </emission>
                        <diffuse>
                            <color>0.8 0.8 0.8 1.0</color>
                        </diffuse>
                        <reflective>
                            <color>1.0 1.0 1.0 1.0</color>
                        </reflective>
                        <reflectivity>
                            <float>0.2</float>
                        </reflectivity>
                        <transparent opaque="A_ONE">
                            <color>1.0 1.0 1.0 1.0</color>
                        </transparent>
                        <transparency>
                            <float>1.0</float>
                        </transparency>
                    </lambert>
                </technique>
                <extra>
                    <technique profile="GOOGLEEARTH">
                        <double_sided>0</double_sided>
                    </technique>
                </extra>
            </profile_COMMON>
        </effect>
    </library_effects>
    <library_geometries>
        <geometry id="geometry0">
            <mesh>
                <source id="geometry0-position">
                    <float_array id="geometry0-position-array" count="78">0.0 0.0 0.0 -0.0043543 0.01625 0.0 -0.0043543 0.01625 1.0833335 0.0 0.0 1.0833335 -0.01625 0.0281457 0.0 -0.01625 0.0281457 1.0833335 -0.0325 0.0325 0.0 -0.0325 0.0325 1.0833335 -0.04875 0.0281457 0.0 -0.04875 0.0281457 1.0833335 -0.0606456 0.01625 0.0 -0.0606456 0.01625 1.0833335 -0.065 0.0 0.0 -0.065 0.0 1.0833335 -0.0606456 -0.01625 0.0 -0.0606456 -0.01625 1.0833335 -0.04875 -0.0281457 0.0 -0.04875 -0.0281457 1.0833335 -0.0325 -0.0325 0.0 -0.0325 -0.0325 1.0833335 -0.01625 -0.0281457 0.0 -0.01625 -0.0281457 1.0833335 -0.0043543 -0.01625 0.0 -0.0043543 -0.01625 1.0833335 -0.0325 0.0 0.0 -0.0325 0.0 1.0833335</float_array>
                    <technique_common>
                        <accessor count="26" source="#geometry0-position-array" stride="3">
                            <param name="X" type="float"/>
                            <param name="Y" type="float"/>
                            <param name="Z" type="float"/>
                        </accessor>
                    </technique_common>
                </source>
                <source id="geometry0-normal">
                    <float_array id="geometry0-normal-array" count="432">0.0 0.0 1.0 0.0 0.0 1.0 0.0 0.0 1.0 0.0 0.0 1.0 0.0 0.0 1.0 0.0 0.0 1.0 0.0 0.0 1.0 0.0 0.0 1.0 0.0 0.0 1.0 0.0 0.0 1.0 0.0 0.0 1.0 0.0 0.0 1.0 0.9659232 0.2588288 0.0 0.9659232 0.2588288 0.0 0.9659232 0.2588288 0.0 0.9659232 0.2588288 0.0 0.9659232 0.2588288 0.0 0.9659232 0.2588288 0.0 0.7071068 0.7071067 0.0 0.7071068 0.7071067 0.0 0.7071068 0.7071067 0.0 0.7071068 0.7071067 0.0 0.7071068 0.7071067 0.0 0.7071068 0.7071067 0.0 0.2588287 0.9659232 0.0 0.2588287 0.9659232 0.0 0.2588287 0.9659232 0.0 0.2588287 0.9659232 0.0 0.2588287 0.9659232 0.0 0.2588287 0.9659232 0.0 -0.2588287 0.9659232 0.0 -0.2588287 0.9659232 0.0 -0.2588287 0.9659232 0.0 -0.2588287 0.9659232 0.0 -0.2588287 0.9659232 0.0 -0.2588287 0.9659232 0.0 -0.7071068 0.7071068 0.0 -0.7071068 0.7071068 0.0 -0.7071068 0.7071068 0.0 -0.7071068 0.7071068 0.0 -0.7071068 0.7071068 0.0 -0.7071068 0.7071068 0.0 -0.9659232 0.2588286 0.0 -0.9659232 0.2588286 0.0 -0.9659232 0.2588286 0.0 -0.9659232 0.2588286 0.0 -0.9659232 0.2588286 0.0 -0.9659232 0.2588286 0.0 -0.9659232 -0.2588286 0.0 -0.9659232 -0.2588286 0.0 -0.9659232 -0.2588286 0.0 -0.9659232 -0.2588286 0.0 -0.9659232 -0.2588286 0.0 -0.9659232 -0.2588286 0.0 -0.7071068 -0.7071068 0.0 -0.7071068 -0.7071068 0.0 -0.7071068 -0.7071068 0.0 -0.7071068 -0.7071068 0.0 -0.7071068 -0.7071068 0.0 -0.7071068 -0.7071068 0.0 -0.2588287 -0.9659232 0.0 -0.2588287 -0.9659232 0.0 -0.2588287 -0.9659232 0.0 -0.2588287 -0.9659232 0.0 -0.2588287 -0.9659232 0.0 -0.2588287 -0.9659232 0.0 0.2588287 -0.9659232 0.0 0.2588287 -0.9659232 0.0 0.2588287 -0.9659232 0.0 0.2588287 -0.9659232 0.0 0.2588287 -0.9659232 0.0 0.2588287 -0.9659232 0.0 0.7071068 -0.7071067 0.0 0.7071068 -0.7071067 0.0 0.7071068 -0.7071067 0.0 0.7071068 -0.7071067 0.0 0.7071068 -0.7071067 0.0 0.7071068 -0.7071067 0.0 0.9659232 -0.2588288 0.0 0.9659232 -0.2588288 0.0 0.9659232 -0.2588288 0.0 0.9659232 -0.2588288 0.0 0.9659232 -0.2588288 0.0 0.9659232 -0.2588288 0.0 0.0 0.0 -1.0 0.0 0.0 -1.0 0.0 0.0 -1.0 0.0 0.0 -1.0 0.0 0.0 -1.0 0.0 0.0 -1.0 0.0 0.0 -1.0 0.0 0.0 -1.0 0.0 0.0 -1.0 0.0 0.0 -1.0 0.0 0.0 -1.0 0.0 0.0 -1.0 0.0 0.0 -1.0 0.0 0.0 -1.0 0.0 0.0 -1.0 0.0 0.0 -1.0 0.0 0.0 -1.0 0.0 0.0 -1.0 0.0 0.0 -1.0 0.0 0.0 -1.0 0.0 0.0 -1.0 0.0 0.0 -1.0 0.0 0.0 -1.0 0.0 0.0 -1.0 0.0 0.0 -1.0 0.0 0.0 -1.0 0.0 0.0 -1.0 0.0 0.0 -1.0 0.0 0.0 -1.0 0.0 0.0 -1.0 0.0 0.0 -1.0 0.0 0.0 -1.0 0.0 0.0 -1.0 0.0 0.0 -1.0 0.0 0.0 -1.0 0.0 0.0 -1.0 0.0 0.0 1.0 0.0 0.0 1.0 0.0 0.0 1.0 0.0 0.0 1.0 0.0 0.0 1.0 0.0 0.0 1.0 0.0 0.0 1.0 0.0 0.0 1.0 0.0 0.0 1.0 0.0 0.0 1.0 0.0 0.0 1.0 0.0 0.0 1.0 0.0 0.0 1.0 0.0 0.0 1.0 0.0 0.0 1.0 0.0 0.0 1.0 0.0 0.0 1.0 0.0 0.0 1.0 0.0 0.0 1.0 0.0 0.0 1.0 0.0 0.0 1.0 0.0 0.0 1.0 0.0 0.0 1.0 0.0 0.0 1.0</float_array>
                    <technique_common>
                        <accessor count="144" source="#geometry0-normal-array" stride="3">
                            <param name="X" type="float"/>
                            <param name="Y" type="float"/>
                            <param name="Z" type="float"/>
                        </accessor>
                    </technique_common>
                </source>
                <vertices id="geometry0-vertex">
                    <input semantic="POSITION" source="#geometry0-position"/>
                </vertices>
                <triangles count="48" material="default_ai_0.2_sh_0.2_tr_0.0_dc_r_0.8_g_0.8_b_0.8_sc_r_1.0_g_1.0_b_1.0_ec_r_0.0_g_0.0_b_0_tri">
                    <input offset="0" semantic="VERTEX" source="#geometry0-vertex"/>
                    <input offset="1" semantic="NORMAL" source="#geometry0-normal"/>
                    <p>25 0 17 1 19 2 25 3 19 4 21 5 25 6 21 7 23 8 25 9 23 10 3 11 0 12 1 13 2 14 0 15 2 16 3 17 1 18 4 19 5 20 1 21 5 22 2 23 4 24 6 25 7 26 4 27 7 28 5 29 6 30 8 31 9 32 6 33 9 34 7 35 8 36 10 37 11 38 8 39 11 40 9 41 10 42 12 43 13 44 10 45 13 46 11 47 12 48 14 49 15 50 12 51 15 52 13 53 14 54 16 55 17 56 14 57 17 58 15 59 16 60 18 61 19 62 16 63 19 64 17 65 18 66 20 67 21 68 18 69 21 70 19 71 20 72 22 73 23 74 20 75 23 76 21 77 22 78 0 79 3 80 22 81 3 82 23 83 24 84 1 85 0 86 24 87 4 88 1 89 24 90 6 91 4 92 24 93 8 94 6 95 24 96 10 97 8 98 24 99 12 100 10 101 24 102 14 103 12 104 24 105 16 106 14 107 24 108 18 109 16 110 24 111 20 112 18 113 24 114 22 115 20 116 24 117 0 118 22 119 25 120 3 121 2 122 25 123 2 124 5 125 25 126 5 127 7 128 25 129 7 130 9 131 25 132 9 133 11 134 25 135 11 136 13 137 25 138 13 139 15 140 25 141 15 142 17 143</p>
                </triangles>
            </mesh>
        </geometry>
    </library_geometries>
    <library_visual_scenes>
        <visual_scene id="Building_339_TRUNK1">
            <node>
                <instance_geometry url="#geometry0">
                    <bind_material>
                        <technique_common>
                            <instance_material symbol="default_ai_0.2_sh_0.2_tr_0.0_dc_r_0.8_g_0.8_b_0.8_sc_r_1.0_g_1.0_b_1.0_ec_r_0.0_g_0.0_b_0_tri" target="#default_ai_0.2_sh_0.2_tr_0.0_dc_r_0.8_g_0.8_b_0.8_sc_r_1.0_g_1.0_b_1.0_ec_r_0.0_g_0.0_b_0_mat"/>
                        </technique_common>
                    </bind_material>
                </instance_geometry>
            </node>
        </visual_scene>
    </library_visual_scenes>
    <scene>
        <instance_visual_scene url="#Building_339_TRUNK1"/>
    </scene>
</COLLADA>
