<?xml version="1.0" encoding="UTF-8" standalone="yes"?>
<COLLADA xmlns="http://www.collada.org/2005/11/COLLADASchema" version="1.4.1">
    <asset>
        <contributor>
            <authoring_tool>3D City Database Importer/Exporter, version 5.5.3; Chair of Geoinformatics, Technical University of Munich</authoring_tool>
        </contributor>
        <created>2026-09-25T14:45:36.964</created>
        <modified>2026-09-25T14:45:36.964</modified>
        <unit meter="1.0" name="meters"/>
        <up_axis>Z_UP</up_axis>
    </asset>
    <library_materials>
        <material id="default_ai_0.2_sh_0.2_tr_0.0_dc_r_0.8_g_0.8_b_0.8_sc_r_1.0_g_1.0_b_1.0_ec_r_0.0_g_0.0_b_0_mat">
            <instance_effect url="#default_ai_0.2_sh_0.2_tr_0.0_dc_r_0.8_g_0.8_b_0.8_sc_r_1.0_g_1.0_b_1.0_ec_r_0.0_g_0.0_b_0_eff"/>
        </material>
    </library_materials>
    <library_effects>
        <effect id="default_ai_0.2_sh_0.2_tr_0.0_dc_r_0.8_g_0.8_b_0.8_sc_r_1.0_g_1.0_b_1.0_ec_r_0.0_g_0.0_b_0_eff">
            <profile_COMMON>
                <technique sid="COMMON">
                    <lambert>
                        <emission>
                            <color>0.0 0.0 0.0 1.0</color>
                        </emission>
                        <diffuse>
                            <color>0.8 0.8 0.8 1.0</color>
                        </diffuse>
                        <reflective>
                            <color>1.0 1.0 1.0 1.0</color>
                        </reflective>
                        <reflectivity>
                            <float>0.2</float>
                        </reflectivity>
                        <transparent opaque="A_ONE">
                            <color>1.0 1.0 1.0 1.0</color>
                        </transparent>
                        <transparency>
                            <float>1.0</float>
                        </transparency>
                    </lambert>
                </technique>
                <extra>
                    <technique profile="GOOGLEEARTH">
                        <double_sided>0</double_sided>
                    </technique>
                </extra>
            </profile_COMMON>
        </effect>
    </library_effects>
    <library_geometries>
        <geometry id="geometry0">
            <mesh>
                <source id="geometry0-position">
                    <float_array id="geometry0-position-array" count="402">0.0 0.0 1.5 0.168108 0.0970575 1.4744445 0.1941143 0.0 1.4744445 0.0970575 0.168108 1.4744445 0.0 0.1941143 1.4744445 -0.0970575 0.168108 1.4744445 -0.168108 0.0970575 1.4744445 -0.1941143 0.0 1.4744445 -0.168108 -0.0970575 1.4744445 -0.0970575 -0.168108 1.4744445 0.0 -0.1941143 1.4744445 0.0970575 -0.168108 1.4744445 0.168108 -0.0970575 1.4744445 0.3247597 0.1875 1.3995188 0.375 0.0 1.3995188 0.1875 0.3247597 1.3995188 0.0 0.375 1.3995188 -0.1875 0.3247597 1.3995188 -0.3247597 0.1875 1.3995188 -0.375 0.0 1.3995188 -0.3247597 -0.1875 1.3995188 -0.1875 -0.3247597 1.3995188 0.0 -0.375 1.3995188 0.1875 -0.3247597 1.3995188 0.3247597 -0.1875 1.3995188 0.459279 0.2651647 1.2803302 0.5303302 0.0 1.2803302 0.2651647 0.459279 1.2803302 0.0 0.5303303 1.2803302 -0.2651647 0.459279 1.2803302 -0.459279 0.2651647 1.2803302 -0.5303302 0.0 1.2803302 -0.459279 -0.2651647 1.2803302 -0.2651647 -0.459279 1.2803302 0.0 -0.5303303 1.2803302 0.2651647 -0.459279 1.2803302 0.459279 -0.2651647 1.2803302 0.5625 0.3247597 1.125 0.6495188 0.0 1.125 0.3247597 0.5625 1.125 0.0 0.6495187 1.125 -0.3247597 0.5625 1.125 -0.5625 0.3247597 1.125 -0.6495188 0.0 1.125 -0.5625 -0.3247597 1.125 -0.3247597 -0.5625 1.125 0.0 -0.6495187 1.125 0.3247597 -0.5625 1.125 0.5625 -0.3247597 1.125 0.627387 0.3622222 0.9441143 0.7244445 0.0 0.9441143 0.3622223 0.627387 0.9441143 0.0 0.7244445 0.9441143 -0.3622223 0.627387 0.9441143 -0.627387 0.3622222 0.9441143 -0.7244445 0.0 0.9441143 -0.627387 -0.3622222 0.9441143 -0.3622223 -0.627387 0.9441143 0.0 -0.7244445 0.9441143 0.3622223 -0.627387 0.9441143 0.627387 -0.3622222 0.9441143 0.6495188 0.375 0.75 0.75 0.0 0.75 0.375 0.6495187 0.75 0.0 0.75 0.75 -0.375 0.6495187 0.75 -0.6495188 0.375 0.75 -0.75 0.0 0.75 -0.6495188 -0.375 0.75 -0.375 -0.6495187 0.75 0.0 -0.75 0.75 0.375 -0.6495187 0.75 0.6495188 -0.375 0.75 0.627387 0.3622222 0.5558857 0.7244445 0.0 0.5558857 0.3622223 0.627387 0.5558857 0.0 0.7244445 0.5558857 -0.3622223 0.627387 0.5558857 -0.627387 0.3622222 0.5558857 -0.7244445 0.0 0.5558857 -0.627387 -0.3622222 0.5558857 -0.3622223 -0.627387 0.5558857 0.0 -0.7244445 0.5558857 0.3622223 -0.627387 0.5558857 0.627387 -0.3622222 0.5558857 0.5625 0.3247597 0.375 0.6495188 0.0 0.375 0.3247597 0.5625 0.375 0.0 0.6495187 0.375 -0.3247597 0.5625 0.375 -0.5625 0.3247597 0.375 -0.6495188 0.0 0.375 -0.5625 -0.3247597 0.375 -0.3247597 -0.5625 0.375 0.0 -0.6495187 0.375 0.3247597 -0.5625 0.375 0.5625 -0.3247597 0.375 0.459279 0.2651647 0.2196697 0.5303302 0.0 0.2196697 0.2651647 0.459279 0.2196697 0.0 0.5303303 0.2196697 -0.2651647 0.459279 0.2196697 -0.459279 0.2651647 0.2196697 -0.5303302 0.0 0.2196697 -0.459279 -0.2651647 0.2196697 -0.2651647 -0.459279 0.2196697 0.0 -0.5303303 0.2196697 0.2651647 -0.459279 0.2196697 0.459279 -0.2651647 0.2196697 0.3247597 0.1875 0.1004812 0.375 0.0 0.1004812 0.1875 0.3247597 0.1004812 0.0 0.375 0.1004812 -0.1875 0.3247597 0.1004812 -0.3247597 0.1875 0.1004812 -0.375 0.0 0.1004812 -0.3247597 -0.1875 0.1004812 -0.1875 -0.3247597 0.1004812 0.0 -0.375 0.1004812 0.1875 -0.3247597 0.1004812 0.3247597 -0.1875 0.1004812 0.168108 0.0970575 0.0255555 0.1941143 0.0 0.0255555 0.0970575 0.168108 0.0255555 0.0 0.1941143 0.0255555 -0.0970575 0.168108 0.0255555 -0.168108 0.0970575 0.0255555 -0.1941143 0.0 0.0255555 -0.168108 -0.0970575 0.0255555 -0.0970575 -0.168108 0.0255555 0.0 -0.1941143 0.0255555 0.0970575 -0.168108 0.0255555 0.168108 -0.0970575 0.0255555 0.0 0.0 0.0</float_array>
                    <technique_common>
                        <accessor count="134" source="#geometry0-position-array" stride="3">
                            <param name="X" type="float"/>
                            <param name="Y" type="float"/>
                            <param name="Z" type="float"/>
                        </accessor>
                    </technique_common>
                </source>
                <source id="geometry0-normal">
                    <float_array id="geometry0-normal-array" count="2520">0.896809 0.2403001 0.3714692 0.896809 0.2403001 0.3714692 0.896809 0.2403001 0.3714692 0.8968083 0.240298 0.3714724 0.8968083 0.240298 0.3714724 0.8968083 0.240298 0.3714724 0.65651 0.65651 0.3714691 0.65651 0.65651 0.3714691 0.65651 0.65651 0.3714691 0.65651 0.65651 0.3714691 0.65651 0.65651 0.3714691 0.65651 0.65651 0.3714691 0.2402998 0.8968078 0.3714722 0.2402998 0.8968078 0.3714722 0.2402998 0.8968078 0.3714722 0.2402984 0.8968096 0.3714691 0.2402984 0.8968096 0.3714691 0.2402984 0.8968096 0.3714691 -0.2403001 0.896809 0.3714692 -0.2403001 0.896809 0.3714692 -0.2403001 0.896809 0.3714692 -0.240298 0.8968083 0.3714724 -0.240298 0.8968083 0.3714724 -0.240298 0.8968083 0.3714724 -0.65651 0.65651 0.3714691 -0.65651 0.65651 0.3714691 -0.65651 0.65651 0.3714691 -0.65651 0.65651 0.3714691 -0.65651 0.65651 0.3714691 -0.65651 0.65651 0.3714691 -0.8968078 0.2402998 0.3714722 -0.8968078 0.2402998 0.3714722 -0.8968078 0.2402998 0.3714722 -0.8968096 0.2402984 0.3714691 -0.8968096 0.2402984 0.3714691 -0.8968096 0.2402984 0.3714691 -0.7760128 -0.2079311 0.5954568 -0.7760128 -0.2079311 0.5954568 -0.7760128 -0.2079311 0.5954568 -0.7760143 -0.207934 0.5954537 -0.7760143 -0.207934 0.5954537 -0.7760143 -0.207934 0.5954537 -0.5680803 -0.5680803 0.5954574 -0.5680803 -0.5680803 0.5954574 -0.5680803 -0.5680803 0.5954574 -0.5680803 -0.5680803 0.5954574 -0.5680803 -0.5680803 0.5954574 -0.5680803 -0.5680803 0.5954574 -0.2079316 -0.7760147 0.595454 -0.2079316 -0.7760147 0.595454 -0.2079316 -0.7760147 0.595454 -0.2079334 -0.7760119 0.5954571 -0.2079334 -0.7760119 0.5954571 -0.2079334 -0.7760119 0.5954571 0.2079311 -0.7760128 0.5954568 0.2079311 -0.7760128 0.5954568 0.2079311 -0.7760128 0.5954568 0.207934 -0.7760143 0.5954537 0.207934 -0.7760143 0.5954537 0.207934 -0.7760143 0.5954537 0.5680803 -0.5680803 0.5954574 0.5680803 -0.5680803 0.5954574 0.5680803 -0.5680803 0.5954574 0.5680803 -0.5680803 0.5954574 0.5680803 -0.5680803 0.5954574 0.5680803 -0.5680803 0.5954574 0.7760147 -0.2079316 0.595454 0.7760147 -0.2079316 0.595454 0.7760147 -0.2079316 0.595454 0.7760119 -0.2079334 0.5954571 0.7760119 -0.2079334 0.5954571 0.7760119 -0.2079334 0.5954571 0.7760128 0.2079311 0.5954568 0.7760128 0.2079311 0.5954568 0.7760128 0.2079311 0.5954568 0.7760143 0.207934 0.5954537 0.7760143 0.207934 0.5954537 0.7760143 0.207934 0.5954537 0.5680803 0.5680803 0.5954574 0.5680803 0.5680803 0.5954574 0.5680803 0.5680803 0.5954574 0.5680803 0.5680803 0.5954574 0.5680803 0.5680803 0.5954574 0.5680803 0.5680803 0.5954574 0.2079316 0.7760147 0.595454 0.2079316 0.7760147 0.595454 0.2079316 0.7760147 0.595454 0.2079334 0.7760119 0.5954571 0.2079334 0.7760119 0.5954571 0.2079334 0.7760119 0.5954571 -0.2079311 0.7760128 0.5954568 -0.2079311 0.7760128 0.5954568 -0.2079311 0.7760128 0.5954568 -0.207934 0.7760143 0.5954537 -0.207934 0.7760143 0.5954537 -0.207934 0.7760143 0.5954537 -0.5680803 0.5680803 0.5954574 -0.5680803 0.5680803 0.5954574 -0.5680803 0.5680803 0.5954574 -0.5680803 0.5680803 0.5954574 -0.5680803 0.5680803 0.5954574 -0.5680803 0.5680803 0.5954574 -0.7760147 0.2079316 0.595454 -0.7760147 0.2079316 0.595454 -0.7760147 0.2079316 0.595454 -0.7760119 0.2079334 0.5954571 -0.7760119 0.2079334 0.5954571 -0.7760119 0.2079334 0.5954571 -0.6008203 -0.1609906 0.7830051 -0.6008203 -0.1609906 0.7830051 -0.6008203 -0.1609906 0.7830051 -0.6008191 -0.1609882 0.7830065 -0.6008191 -0.1609882 0.7830065 -0.6008191 -0.1609882 0.7830065 -0.4398313 -0.4398313 0.7830049 -0.4398313 -0.4398313 0.7830049 -0.4398313 -0.4398313 0.7830049 -0.4398313 -0.4398313 0.783005 -0.4398313 -0.4398313 0.783005 -0.4398313 -0.4398313 0.783005 -0.1609902 -0.6008189 0.7830064 -0.1609902 -0.6008189 0.7830064 -0.1609902 -0.6008189 0.7830064 -0.1609888 -0.6008211 0.7830048 -0.1609888 -0.6008211 0.7830048 -0.1609888 -0.6008211 0.7830048 0.1609906 -0.6008203 0.7830051 0.1609906 -0.6008203 0.7830051 0.1609906 -0.6008203 0.7830051 0.1609882 -0.6008191 0.7830065 0.1609882 -0.6008191 0.7830065 0.1609882 -0.6008191 0.7830065 0.4398313 -0.4398313 0.7830049 0.4398313 -0.4398313 0.7830049 0.4398313 -0.4398313 0.7830049 0.4398313 -0.4398313 0.783005 0.4398313 -0.4398313 0.783005 0.4398313 -0.4398313 0.783005 0.6008189 -0.1609902 0.7830064 0.6008189 -0.1609902 0.7830064 0.6008189 -0.1609902 0.7830064 0.6008211 -0.1609888 0.7830048 0.6008211 -0.1609888 0.7830048 0.6008211 -0.1609888 0.7830048 0.6008203 0.1609906 0.7830051 0.6008203 0.1609906 0.7830051 0.6008203 0.1609906 0.7830051 0.6008191 0.1609882 0.7830065 0.6008191 0.1609882 0.7830065 0.6008191 0.1609882 0.7830065 0.4398313 0.4398313 0.7830049 0.4398313 0.4398313 0.7830049 0.4398313 0.4398313 0.7830049 0.4398313 0.4398313 0.783005 0.4398313 0.4398313 0.783005 0.4398313 0.4398313 0.783005 0.1609902 0.6008189 0.7830064 0.1609902 0.6008189 0.7830064 0.1609902 0.6008189 0.7830064 0.1609888 0.6008211 0.7830048 0.1609888 0.6008211 0.7830048 0.1609888 0.6008211 0.7830048 -0.1609906 0.6008203 0.7830051 -0.1609906 0.6008203 0.7830051 -0.1609906 0.6008203 0.7830051 -0.1609882 0.6008191 0.7830065 -0.1609882 0.6008191 0.7830065 -0.1609882 0.6008191 0.7830065 -0.4398313 0.4398313 0.7830049 -0.4398313 0.4398313 0.7830049 -0.4398313 0.4398313 0.7830049 -0.4398313 0.4398313 0.783005 -0.4398313 0.4398313 0.783005 -0.4398313 0.4398313 0.783005 -0.6008189 0.1609902 0.7830064 -0.6008189 0.1609902 0.7830064 -0.6008189 0.1609902 0.7830064 -0.6008211 0.1609888 0.7830048 -0.6008211 0.1609888 0.7830048 -0.6008211 0.1609888 0.7830048 -0.3806894 -0.102005 0.9190597 -0.3806894 -0.102005 0.9190597 -0.3806894 -0.102005 0.9190597 -0.3806892 -0.1020045 0.9190598 -0.3806892 -0.1020045 0.9190598 -0.3806892 -0.1020045 0.9190598 -0.278684 -0.278684 0.9190595 -0.278684 -0.278684 0.9190595 -0.278684 -0.278684 0.9190595 -0.278684 -0.278684 0.9190595 -0.278684 -0.278684 0.9190595 -0.278684 -0.278684 0.9190595 -0.1020049 -0.3806892 0.9190598 -0.1020049 -0.3806892 0.9190598 -0.1020049 -0.3806892 0.9190598 -0.1020046 -0.3806895 0.9190596 -0.1020046 -0.3806895 0.9190596 -0.1020046 -0.3806895 0.9190596 0.102005 -0.3806894 0.9190597 0.102005 -0.3806894 0.9190597 0.102005 -0.3806894 0.9190597 0.1020045 -0.3806892 0.9190598 0.1020045 -0.3806892 0.9190598 0.1020045 -0.3806892 0.9190598 0.278684 -0.278684 0.9190595 0.278684 -0.278684 0.9190595 0.278684 -0.278684 0.9190595 0.278684 -0.278684 0.9190595 0.278684 -0.278684 0.9190595 0.278684 -0.278684 0.9190595 0.3806892 -0.1020049 0.9190598 0.3806892 -0.1020049 0.9190598 0.3806892 -0.1020049 0.9190598 0.3806895 -0.1020046 0.9190596 0.3806895 -0.1020046 0.9190596 0.3806895 -0.1020046 0.9190596 0.3806894 0.102005 0.9190597 0.3806894 0.102005 0.9190597 0.3806894 0.102005 0.9190597 0.3806892 0.1020045 0.9190598 0.3806892 0.1020045 0.9190598 0.3806892 0.1020045 0.9190598 0.278684 0.278684 0.9190595 0.278684 0.278684 0.9190595 0.278684 0.278684 0.9190595 0.278684 0.278684 0.9190595 0.278684 0.278684 0.9190595 0.278684 0.278684 0.9190595 0.1020049 0.3806892 0.9190598 0.1020049 0.3806892 0.9190598 0.1020049 0.3806892 0.9190598 0.1020046 0.3806895 0.9190596 0.1020046 0.3806895 0.9190596 0.1020046 0.3806895 0.9190596 -0.102005 0.3806894 0.9190597 -0.102005 0.3806894 0.9190597 -0.102005 0.3806894 0.9190597 -0.1020045 0.3806892 0.9190598 -0.1020045 0.3806892 0.9190598 -0.1020045 0.3806892 0.9190598 -0.278684 0.278684 0.9190595 -0.278684 0.278684 0.9190595 -0.278684 0.278684 0.9190595 -0.278684 0.278684 0.9190595 -0.278684 0.278684 0.9190595 -0.278684 0.278684 0.9190595 -0.3806892 0.1020049 0.9190598 -0.3806892 0.1020049 0.9190598 -0.3806892 0.1020049 0.9190598 -0.3806895 0.1020046 0.9190596 -0.3806895 0.1020046 0.9190596 -0.3806895 0.1020046 0.9190596 -0.1304458 -0.0349525 0.9908391 -0.1304458 -0.0349525 0.9908391 -0.1304458 -0.0349525 0.9908391 1.0 0.0 0.0 1.0 0.0 0.0 -0.0954928 -0.0954928 0.9908392 -0.0954928 -0.0954928 0.9908392 -0.0954928 -0.0954928 0.9908392 1.0 0.0 0.0 1.0 0.0 0.0 -0.0349525 -0.1304458 0.9908391 -0.0349525 -0.1304458 0.9908391 -0.0349525 -0.1304458 0.9908391 1.0 0.0 0.0 1.0 0.0 0.0 0.0349525 -0.1304458 0.9908391 0.0349525 -0.1304458 0.9908391 0.0349525 -0.1304458 0.9908391 1.0 0.0 0.0 1.0 0.0 0.0 0.0954928 -0.0954928 0.9908392 0.0954928 -0.0954928 0.9908392 0.0954928 -0.0954928 0.9908392 1.0 0.0 0.0 1.0 0.0 0.0 0.1304458 -0.0349525 0.9908391 0.1304458 -0.0349525 0.9908391 0.1304458 -0.0349525 0.9908391 1.0 0.0 0.0 1.0 0.0 0.0 0.1304458 0.0349525 0.9908391 0.1304458 0.0349525 0.9908391 0.1304458 0.0349525 0.9908391 1.0 0.0 0.0 1.0 0.0 0.0 0.0954928 0.0954928 0.9908392 0.0954928 0.0954928 0.9908392 0.0954928 0.0954928 0.9908392 1.0 0.0 0.0 1.0 0.0 0.0 0.0349525 0.1304458 0.9908391 0.0349525 0.1304458 0.9908391 0.0349525 0.1304458 0.9908391 1.0 0.0 0.0 1.0 0.0 0.0 -0.0349525 0.1304458 0.9908391 -0.0349525 0.1304458 0.9908391 -0.0349525 0.1304458 0.9908391 1.0 0.0 0.0 1.0 0.0 0.0 -0.0954928 0.0954928 0.9908392 -0.0954928 0.0954928 0.9908392 -0.0954928 0.0954928 0.9908392 1.0 0.0 0.0 1.0 0.0 0.0 -0.1304458 0.0349525 0.9908391 -0.1304458 0.0349525 0.9908391 -0.1304458 0.0349525 0.9908391 1.0 0.0 0.0 1.0 0.0 0.0 1.0 0.0 0.0 1.0 0.0 0.0 -0.1304457 -0.0349525 -0.9908391 -0.1304457 -0.0349525 -0.9908391 -0.1304457 -0.0349525 -0.9908391 1.0 0.0 0.0 1.0 0.0 0.0 -0.0954928 -0.0954928 -0.9908392 -0.0954928 -0.0954928 -0.9908392 -0.0954928 -0.0954928 -0.9908392 1.0 0.0 0.0 1.0 0.0 0.0 -0.0349525 -0.1304457 -0.9908391 -0.0349525 -0.1304457 -0.9908391 -0.0349525 -0.1304457 -0.9908391 1.0 0.0 0.0 1.0 0.0 0.0 0.0349525 -0.1304457 -0.9908391 0.0349525 -0.1304457 -0.9908391 0.0349525 -0.1304457 -0.9908391 1.0 0.0 0.0 1.0 0.0 0.0 0.0954928 -0.0954928 -0.9908392 0.0954928 -0.0954928 -0.9908392 0.0954928 -0.0954928 -0.9908392 1.0 0.0 0.0 1.0 0.0 0.0 0.1304457 -0.0349525 -0.9908391 0.1304457 -0.0349525 -0.9908391 0.1304457 -0.0349525 -0.9908391 1.0 0.0 0.0 1.0 0.0 0.0 0.1304457 0.0349525 -0.9908391 0.1304457 0.0349525 -0.9908391 0.1304457 0.0349525 -0.9908391 1.0 0.0 0.0 1.0 0.0 0.0 0.0954928 0.0954928 -0.9908392 0.0954928 0.0954928 -0.9908392 0.0954928 0.0954928 -0.9908392 1.0 0.0 0.0 1.0 0.0 0.0 0.0349525 0.1304457 -0.9908391 0.0349525 0.1304457 -0.9908391 0.0349525 0.1304457 -0.9908391 1.0 0.0 0.0 1.0 0.0 0.0 -0.0349525 0.1304457 -0.9908391 -0.0349525 0.1304457 -0.9908391 -0.0349525 0.1304457 -0.9908391 1.0 0.0 0.0 1.0 0.0 0.0 -0.0954928 0.0954928 -0.9908392 -0.0954928 0.0954928 -0.9908392 -0.0954928 0.0954928 -0.9908392 1.0 0.0 0.0 1.0 0.0 0.0 -0.1304457 0.0349525 -0.9908391 -0.1304457 0.0349525 -0.9908391 -0.1304457 0.0349525 -0.9908391 -0.3806897 -0.1020046 -0.9190595 -0.3806897 -0.1020046 -0.9190595 -0.3806897 -0.1020046 -0.9190595 -0.3806893 -0.1020049 -0.9190597 -0.3806893 -0.1020049 -0.9190597 -0.3806893 -0.1020049 -0.9190597 -0.2786841 -0.2786841 -0.9190595 -0.2786841 -0.2786841 -0.9190595 -0.2786841 -0.2786841 -0.9190595 -0.2786841 -0.2786841 -0.9190595 -0.2786841 -0.2786841 -0.9190595 -0.2786841 -0.2786841 -0.9190595 -0.1020045 -0.3806893 -0.9190597 -0.1020045 -0.3806893 -0.9190597 -0.1020045 -0.3806893 -0.9190597 -0.102005 -0.3806895 -0.9190596 -0.102005 -0.3806895 -0.9190596 -0.102005 -0.3806895 -0.9190596 0.1020046 -0.3806897 -0.9190595 0.1020046 -0.3806897 -0.9190595 0.1020046 -0.3806897 -0.9190595 0.1020049 -0.3806893 -0.9190597 0.1020049 -0.3806893 -0.9190597 0.1020049 -0.3806893 -0.9190597 0.2786841 -0.2786841 -0.9190595 0.2786841 -0.2786841 -0.9190595 0.2786841 -0.2786841 -0.9190595 0.2786841 -0.2786841 -0.9190595 0.2786841 -0.2786841 -0.9190595 0.2786841 -0.2786841 -0.9190595 0.3806893 -0.1020045 -0.9190597 0.3806893 -0.1020045 -0.9190597 0.3806893 -0.1020045 -0.9190597 0.3806895 -0.102005 -0.9190596 0.3806895 -0.102005 -0.9190596 0.3806895 -0.102005 -0.9190596 0.3806897 0.1020046 -0.9190595 0.3806897 0.1020046 -0.9190595 0.3806897 0.1020046 -0.9190595 0.3806893 0.1020049 -0.9190597 0.3806893 0.1020049 -0.9190597 0.3806893 0.1020049 -0.9190597 0.2786841 0.2786841 -0.9190595 0.2786841 0.2786841 -0.9190595 0.2786841 0.2786841 -0.9190595 0.2786841 0.2786841 -0.9190595 0.2786841 0.2786841 -0.9190595 0.2786841 0.2786841 -0.9190595 0.1020045 0.3806893 -0.9190597 0.1020045 0.3806893 -0.9190597 0.1020045 0.3806893 -0.9190597 0.102005 0.3806895 -0.9190596 0.102005 0.3806895 -0.9190596 0.102005 0.3806895 -0.9190596 -0.1020046 0.3806897 -0.9190595 -0.1020046 0.3806897 -0.9190595 -0.1020046 0.3806897 -0.9190595 -0.1020049 0.3806893 -0.9190597 -0.1020049 0.3806893 -0.9190597 -0.1020049 0.3806893 -0.9190597 -0.2786841 0.2786841 -0.9190595 -0.2786841 0.2786841 -0.9190595 -0.2786841 0.2786841 -0.9190595 -0.2786841 0.2786841 -0.9190595 -0.2786841 0.2786841 -0.9190595 -0.2786841 0.2786841 -0.9190595 -0.3806893 0.1020045 -0.9190597 -0.3806893 0.1020045 -0.9190597 -0.3806893 0.1020045 -0.9190597 -0.3806895 0.102005 -0.9190596 -0.3806895 0.102005 -0.9190596 -0.3806895 0.102005 -0.9190596 -0.600821 -0.1609888 -0.783005 -0.600821 -0.1609888 -0.783005 -0.600821 -0.1609888 -0.783005 -0.6008186 -0.1609901 -0.7830064 -0.6008186 -0.1609901 -0.7830064 -0.6008186 -0.1609901 -0.7830064 -0.4398312 -0.4398312 -0.7830051 -0.4398312 -0.4398312 -0.7830051 -0.4398312 -0.4398312 -0.7830051 -0.4398312 -0.4398312 -0.7830051 -0.4398312 -0.4398312 -0.7830051 -0.4398312 -0.4398312 -0.7830051 -0.1609882 -0.6008189 -0.7830067 -0.1609882 -0.6008189 -0.7830067 -0.1609882 -0.6008189 -0.7830067 -0.1609905 -0.6008201 -0.7830052 -0.1609905 -0.6008201 -0.7830052 -0.1609905 -0.6008201 -0.7830052 0.1609888 -0.600821 -0.783005 0.1609888 -0.600821 -0.783005 0.1609888 -0.600821 -0.783005 0.1609901 -0.6008186 -0.7830064 0.1609901 -0.6008186 -0.7830064 0.1609901 -0.6008186 -0.7830064 0.4398312 -0.4398312 -0.7830051 0.4398312 -0.4398312 -0.7830051 0.4398312 -0.4398312 -0.7830051 0.4398312 -0.4398312 -0.7830051 0.4398312 -0.4398312 -0.7830051 0.4398312 -0.4398312 -0.7830051 0.6008189 -0.1609882 -0.7830067 0.6008189 -0.1609882 -0.7830067 0.6008189 -0.1609882 -0.7830067 0.6008201 -0.1609905 -0.7830052 0.6008201 -0.1609905 -0.7830052 0.6008201 -0.1609905 -0.7830052 0.600821 0.1609888 -0.783005 0.600821 0.1609888 -0.783005 0.600821 0.1609888 -0.783005 0.6008186 0.1609901 -0.7830064 0.6008186 0.1609901 -0.7830064 0.6008186 0.1609901 -0.7830064 0.4398312 0.4398312 -0.7830051 0.4398312 0.4398312 -0.7830051 0.4398312 0.4398312 -0.7830051 0.4398312 0.4398312 -0.7830051 0.4398312 0.4398312 -0.7830051 0.4398312 0.4398312 -0.7830051 0.1609882 0.6008189 -0.7830067 0.1609882 0.6008189 -0.7830067 0.1609882 0.6008189 -0.7830067 0.1609905 0.6008201 -0.7830052 0.1609905 0.6008201 -0.7830052 0.1609905 0.6008201 -0.7830052 -0.1609888 0.600821 -0.783005 -0.1609888 0.600821 -0.783005 -0.1609888 0.600821 -0.783005 -0.1609901 0.6008186 -0.7830064 -0.1609901 0.6008186 -0.7830064 -0.1609901 0.6008186 -0.7830064 -0.4398312 0.4398312 -0.7830051 -0.4398312 0.4398312 -0.7830051 -0.4398312 0.4398312 -0.7830051 -0.4398312 0.4398312 -0.7830051 -0.4398312 0.4398312 -0.7830051 -0.4398312 0.4398312 -0.7830051 -0.6008189 0.1609882 -0.7830067 -0.6008189 0.1609882 -0.7830067 -0.6008189 0.1609882 -0.7830067 -0.6008201 0.1609905 -0.7830052 -0.6008201 0.1609905 -0.7830052 -0.6008201 0.1609905 -0.7830052 -0.7760119 -0.2079334 -0.5954571 -0.7760119 -0.2079334 -0.5954571 -0.7760119 -0.2079334 -0.5954571 -0.7760149 -0.2079316 -0.5954539 -0.7760149 -0.2079316 -0.5954539 -0.7760149 -0.2079316 -0.5954539 -0.5680804 -0.5680804 -0.5954573 -0.5680804 -0.5680804 -0.5954573 -0.5680804 -0.5680804 -0.5954573 -0.5680804 -0.5680804 -0.5954573 -0.5680804 -0.5680804 -0.5954573 -0.5680804 -0.5680804 -0.5954573 -0.2079341 -0.7760144 -0.5954537 -0.2079341 -0.7760144 -0.5954537 -0.2079341 -0.7760144 -0.5954537 -0.2079311 -0.7760128 -0.5954567 -0.2079311 -0.7760128 -0.5954567 -0.2079311 -0.7760128 -0.5954567 0.2079334 -0.7760119 -0.5954571 0.2079334 -0.7760119 -0.5954571 0.2079334 -0.7760119 -0.5954571 0.2079316 -0.7760149 -0.5954539 0.2079316 -0.7760149 -0.5954539 0.2079316 -0.7760149 -0.5954539 0.5680804 -0.5680804 -0.5954573 0.5680804 -0.5680804 -0.5954573 0.5680804 -0.5680804 -0.5954573 0.5680804 -0.5680804 -0.5954573 0.5680804 -0.5680804 -0.5954573 0.5680804 -0.5680804 -0.5954573 0.7760144 -0.2079341 -0.5954537 0.7760144 -0.2079341 -0.5954537 0.7760144 -0.2079341 -0.5954537 0.7760128 -0.2079311 -0.5954567 0.7760128 -0.2079311 -0.5954567 0.7760128 -0.2079311 -0.5954567 0.7760119 0.2079334 -0.5954571 0.7760119 0.2079334 -0.5954571 0.7760119 0.2079334 -0.5954571 0.7760149 0.2079316 -0.5954539 0.7760149 0.2079316 -0.5954539 0.7760149 0.2079316 -0.5954539 0.5680804 0.5680804 -0.5954573 0.5680804 0.5680804 -0.5954573 0.5680804 0.5680804 -0.5954573 0.5680804 0.5680804 -0.5954573 0.5680804 0.5680804 -0.5954573 0.5680804 0.5680804 -0.5954573 0.2079341 0.7760144 -0.5954537 0.2079341 0.7760144 -0.5954537 0.2079341 0.7760144 -0.5954537 0.2079311 0.7760128 -0.5954567 0.2079311 0.7760128 -0.5954567 0.2079311 0.7760128 -0.5954567 -0.2079334 0.7760119 -0.5954571 -0.2079334 0.7760119 -0.5954571 -0.2079334 0.7760119 -0.5954571 -0.2079316 0.7760149 -0.5954539 -0.2079316 0.7760149 -0.5954539 -0.2079316 0.7760149 -0.5954539 -0.5680804 0.5680804 -0.5954573 -0.5680804 0.5680804 -0.5954573 -0.5680804 0.5680804 -0.5954573 -0.5680804 0.5680804 -0.5954573 -0.5680804 0.5680804 -0.5954573 -0.5680804 0.5680804 -0.5954573 -0.7760144 0.2079341 -0.5954537 -0.7760144 0.2079341 -0.5954537 -0.7760144 0.2079341 -0.5954537 -0.7760128 0.2079311 -0.5954567 -0.7760128 0.2079311 -0.5954567 -0.7760128 0.2079311 -0.5954567 -0.8968096 -0.2402984 -0.3714691 -0.8968096 -0.2402984 -0.3714691 -0.8968096 -0.2402984 -0.3714691 -0.8968078 -0.2402998 -0.3714723 -0.8968078 -0.2402998 -0.3714723 -0.8968078 -0.2402998 -0.3714723 -0.6565099 -0.6565099 -0.3714691 -0.6565099 -0.6565099 -0.3714691 -0.6565099 -0.6565099 -0.3714691 -0.65651 -0.65651 -0.3714691 -0.65651 -0.65651 -0.3714691 -0.65651 -0.65651 -0.3714691 -0.240298 -0.8968083 -0.3714724 -0.240298 -0.8968083 -0.3714724 -0.240298 -0.8968083 -0.3714724 -0.2403001 -0.896809 -0.3714692 -0.2403001 -0.896809 -0.3714692 -0.2403001 -0.896809 -0.3714692 0.2402984 -0.8968096 -0.3714691 0.2402984 -0.8968096 -0.3714691 0.2402984 -0.8968096 -0.3714691 0.2402998 -0.8968078 -0.3714723 0.2402998 -0.8968078 -0.3714723 0.2402998 -0.8968078 -0.3714723 0.6565099 -0.6565099 -0.3714691 0.6565099 -0.6565099 -0.3714691 0.6565099 -0.6565099 -0.3714691 0.65651 -0.65651 -0.3714691 0.65651 -0.65651 -0.3714691 0.65651 -0.65651 -0.3714691 0.8968083 -0.240298 -0.3714724 0.8968083 -0.240298 -0.3714724 0.8968083 -0.240298 -0.3714724 0.896809 -0.2403001 -0.3714692 0.896809 -0.2403001 -0.3714692 0.896809 -0.2403001 -0.3714692 0.8968096 0.2402984 -0.3714691 0.8968096 0.2402984 -0.3714691 0.8968096 0.2402984 -0.3714691 0.8968078 0.2402998 -0.3714723 0.8968078 0.2402998 -0.3714723 0.8968078 0.2402998 -0.3714723 0.6565099 0.6565099 -0.3714691 0.6565099 0.6565099 -0.3714691 0.6565099 0.6565099 -0.3714691 0.65651 0.65651 -0.3714691 0.65651 0.65651 -0.3714691 0.65651 0.65651 -0.3714691 0.240298 0.8968083 -0.3714724 0.240298 0.8968083 -0.3714724 0.240298 0.8968083 -0.3714724 0.2403001 0.896809 -0.3714692 0.2403001 0.896809 -0.3714692 0.2403001 0.896809 -0.3714692 -0.2402984 0.8968096 -0.3714691 -0.2402984 0.8968096 -0.3714691 -0.2402984 0.8968096 -0.3714691 -0.2402998 0.8968078 -0.3714723 -0.2402998 0.8968078 -0.3714723 -0.2402998 0.8968078 -0.3714723 -0.6565099 0.6565099 -0.3714691 -0.6565099 0.6565099 -0.3714691 -0.6565099 0.6565099 -0.3714691 -0.65651 0.65651 -0.3714691 -0.65651 0.65651 -0.3714691 -0.65651 0.65651 -0.3714691 -0.8968083 0.240298 -0.3714724 -0.8968083 0.240298 -0.3714724 -0.8968083 0.240298 -0.3714724 -0.896809 0.2403001 -0.3714692 -0.896809 0.2403001 -0.3714692 -0.896809 0.2403001 -0.3714692 -0.958209 -0.2567523 -0.1261502 -0.958209 -0.2567523 -0.1261502 -0.958209 -0.2567523 -0.1261502 -0.958209 -0.2567522 -0.1261499 -0.958209 -0.2567522 -0.1261499 -0.958209 -0.2567522 -0.1261499 -0.7014578 -0.7014578 -0.1261501 -0.7014578 -0.7014578 -0.1261501 -0.7014578 -0.7014578 -0.1261501 -0.7014578 -0.7014578 -0.1261501 -0.7014578 -0.7014578 -0.1261501 -0.7014578 -0.7014578 -0.1261501 -0.2567523 -0.958209 -0.1261499 -0.2567523 -0.958209 -0.1261499 -0.2567523 -0.958209 -0.1261499 -0.2567521 -0.958209 -0.1261502 -0.2567521 -0.958209 -0.1261502 -0.2567521 -0.958209 -0.1261502 0.2567523 -0.958209 -0.1261502 0.2567523 -0.958209 -0.1261502 0.2567523 -0.958209 -0.1261502 0.2567522 -0.958209 -0.1261499 0.2567522 -0.958209 -0.1261499 0.2567522 -0.958209 -0.1261499 0.7014578 -0.7014578 -0.1261501 0.7014578 -0.7014578 -0.1261501 0.7014578 -0.7014578 -0.1261501 0.7014578 -0.7014578 -0.1261501 0.7014578 -0.7014578 -0.1261501 0.7014578 -0.7014578 -0.1261501 0.958209 -0.2567523 -0.1261499 0.958209 -0.2567523 -0.1261499 0.958209 -0.2567523 -0.1261499 0.958209 -0.2567521 -0.1261502 0.958209 -0.2567521 -0.1261502 0.958209 -0.2567521 -0.1261502 0.958209 0.2567523 -0.1261502 0.958209 0.2567523 -0.1261502 0.958209 0.2567523 -0.1261502 0.958209 0.2567522 -0.1261499 0.958209 0.2567522 -0.1261499 0.958209 0.2567522 -0.1261499 0.7014578 0.7014578 -0.1261501 0.7014578 0.7014578 -0.1261501 0.7014578 0.7014578 -0.1261501 0.7014578 0.7014578 -0.1261501 0.7014578 0.7014578 -0.1261501 0.7014578 0.7014578 -0.1261501 0.2567523 0.958209 -0.1261499 0.2567523 0.958209 -0.1261499 0.2567523 0.958209 -0.1261499 0.2567521 0.958209 -0.1261502 0.2567521 0.958209 -0.1261502 0.2567521 0.958209 -0.1261502 -0.2567523 0.958209 -0.1261502 -0.2567523 0.958209 -0.1261502 -0.2567523 0.958209 -0.1261502 -0.2567522 0.958209 -0.1261499 -0.2567522 0.958209 -0.1261499 -0.2567522 0.958209 -0.1261499 -0.7014578 0.7014578 -0.1261501 -0.7014578 0.7014578 -0.1261501 -0.7014578 0.7014578 -0.1261501 -0.7014578 0.7014578 -0.1261501 -0.7014578 0.7014578 -0.1261501 -0.7014578 0.7014578 -0.1261501 -0.958209 0.2567523 -0.1261499 -0.958209 0.2567523 -0.1261499 -0.958209 0.2567523 -0.1261499 -0.958209 0.2567521 -0.1261502 -0.958209 0.2567521 -0.1261502 -0.958209 0.2567521 -0.1261502 -0.958209 -0.2567521 0.1261502 -0.958209 -0.2567521 0.1261502 -0.958209 -0.2567521 0.1261502 -0.958209 -0.2567523 0.1261499 -0.958209 -0.2567523 0.1261499 -0.958209 -0.2567523 0.1261499 -0.7014578 -0.7014578 0.1261501 -0.7014578 -0.7014578 0.1261501 -0.7014578 -0.7014578 0.1261501 -0.7014578 -0.7014578 0.1261501 -0.7014578 -0.7014578 0.1261501 -0.7014578 -0.7014578 0.1261501 -0.2567522 -0.958209 0.1261499 -0.2567522 -0.958209 0.1261499 -0.2567522 -0.958209 0.1261499 -0.2567523 -0.958209 0.1261502 -0.2567523 -0.958209 0.1261502 -0.2567523 -0.958209 0.1261502 0.2567521 -0.958209 0.1261502 0.2567521 -0.958209 0.1261502 0.2567521 -0.958209 0.1261502 0.2567523 -0.958209 0.1261499 0.2567523 -0.958209 0.1261499 0.2567523 -0.958209 0.1261499 0.7014578 -0.7014578 0.1261501 0.7014578 -0.7014578 0.1261501 0.7014578 -0.7014578 0.1261501 0.7014578 -0.7014578 0.1261501 0.7014578 -0.7014578 0.1261501 0.7014578 -0.7014578 0.1261501 0.958209 -0.2567522 0.1261499 0.958209 -0.2567522 0.1261499 0.958209 -0.2567522 0.1261499 0.958209 -0.2567523 0.1261502 0.958209 -0.2567523 0.1261502 0.958209 -0.2567523 0.1261502 0.958209 0.2567521 0.1261502 0.958209 0.2567521 0.1261502 0.958209 0.2567521 0.1261502 0.958209 0.2567523 0.1261499 0.958209 0.2567523 0.1261499 0.958209 0.2567523 0.1261499 0.7014578 0.7014578 0.1261501 0.7014578 0.7014578 0.1261501 0.7014578 0.7014578 0.1261501 0.7014578 0.7014578 0.1261501 0.7014578 0.7014578 0.1261501 0.7014578 0.7014578 0.1261501 0.2567522 0.958209 0.1261499 0.2567522 0.958209 0.1261499 0.2567522 0.958209 0.1261499 0.2567523 0.958209 0.1261502 0.2567523 0.958209 0.1261502 0.2567523 0.958209 0.1261502 -0.2567521 0.958209 0.1261502 -0.2567521 0.958209 0.1261502 -0.2567521 0.958209 0.1261502 -0.2567523 0.958209 0.1261499 -0.2567523 0.958209 0.1261499 -0.2567523 0.958209 0.1261499 -0.7014578 0.7014578 0.1261501 -0.7014578 0.7014578 0.1261501 -0.7014578 0.7014578 0.1261501 -0.7014578 0.7014578 0.1261501 -0.7014578 0.7014578 0.1261501 -0.7014578 0.7014578 0.1261501 -0.958209 0.2567522 0.1261499 -0.958209 0.2567522 0.1261499 -0.958209 0.2567522 0.1261499 -0.958209 0.2567523 0.1261502 -0.958209 0.2567523 0.1261502 -0.958209 0.2567523 0.1261502 -0.896809 -0.2403001 0.3714692 -0.896809 -0.2403001 0.3714692 -0.896809 -0.2403001 0.3714692 -0.8968083 -0.240298 0.3714724 -0.8968083 -0.240298 0.3714724 -0.8968083 -0.240298 0.3714724 -0.65651 -0.65651 0.3714691 -0.65651 -0.65651 0.3714691 -0.65651 -0.65651 0.3714691 -0.65651 -0.65651 0.3714691 -0.65651 -0.65651 0.3714691 -0.65651 -0.65651 0.3714691 -0.2402998 -0.8968078 0.3714722 -0.2402998 -0.8968078 0.3714722 -0.2402998 -0.8968078 0.3714722 -0.2402984 -0.8968096 0.3714691 -0.2402984 -0.8968096 0.3714691 -0.2402984 -0.8968096 0.3714691 0.2403001 -0.896809 0.3714692 0.2403001 -0.896809 0.3714692 0.2403001 -0.896809 0.3714692 0.240298 -0.8968083 0.3714724 0.240298 -0.8968083 0.3714724 0.240298 -0.8968083 0.3714724 0.65651 -0.65651 0.3714691 0.65651 -0.65651 0.3714691 0.65651 -0.65651 0.3714691 0.65651 -0.65651 0.3714691 0.65651 -0.65651 0.3714691 0.65651 -0.65651 0.3714691 0.8968078 -0.2402998 0.3714722 0.8968078 -0.2402998 0.3714722 0.8968078 -0.2402998 0.3714722 0.8968096 -0.2402984 0.3714691 0.8968096 -0.2402984 0.3714691 0.8968096 -0.2402984 0.3714691</float_array>
                    <technique_common>
                        <accessor count="840" source="#geometry0-normal-array" stride="3">
                            <param name="X" type="float"/>
                            <param name="Y" type="float"/>
                            <param name="Z" type="float"/>
                        </accessor>
                    </technique_common>
                </source>
                <vertices id="geometry0-vertex">
                    <input semantic="POSITION" source="#geometry0-position"/>
                </vertices>
                <triangles count="288" material="default_ai_0.2_sh_0.2_tr_0.0_dc_r_0.8_g_0.8_b_0.8_sc_r_1.0_g_1.0_b_1.0_ec_r_0.0_g_0.0_b_0_tri">
                    <input offset="0" semantic="VERTEX" source="#geometry0-vertex"/>
                    <input offset="1" semantic="NORMAL" source="#geometry0-normal"/>
                    <p>79 0 80 1 92 2 79 3 92 4 91 5 80 6 81 7 93 8 80 9 93 10 92 11 81 12 82 13 94 14 81 15 94 16 93 17 82 18 83 19 95 20 82 21 95 22 94 23 83 24 84 25 96 26 83 27 96 28 95 29 84 30 74 31 86 32 84 33 86 34 96 35 86 36 85 37 97 38 86 39 97 40 98 41 85 42 87 43 99 44 85 45 99 46 97 47 87 48 88 49 100 50 87 51 100 52 99 53 88 54 89 55 101 56 88 57 101 58 100 59 89 60 90 61 102 62 89 63 102 64 101 65 90 66 91 67 103 68 90 69 103 70 102 71 91 72 92 73 104 74 91 75 104 76 103 77 92 78 93 79 105 80 92 81 105 82 104 83 93 84 94 85 106 86 93 87 106 88 105 89 94 90 95 91 107 92 94 93 107 94 106 95 95 96 96 97 108 98 95 99 108 100 107 101 96 102 86 103 98 104 96 105 98 106 108 107 98 108 97 109 109 110 98 111 109 112 110 113 97 114 99 115 111 116 97 117 111 118 109 119 99 120 100 121 112 122 99 123 112 124 111 125 100 126 101 127 113 128 100 129 113 130 112 131 101 132 102 133 114 134 101 135 114 136 113 137 102 138 103 139 115 140 102 141 115 142 114 143 103 144 104 145 116 146 103 147 116 148 115 149 104 150 105 151 117 152 104 153 117 154 116 155 105 156 106 157 118 158 105 159 118 160 117 161 106 162 107 163 119 164 106 165 119 166 118 167 107 168 108 169 120 170 107 171 120 172 119 173 108 174 98 175 110 176 108 177 110 178 120 179 110 180 109 181 121 182 110 183 121 184 122 185 109 186 111 187 123 188 109 189 123 190 121 191 111 192 112 193 124 194 111 195 124 196 123 197 112 198 113 199 125 200 112 201 125 202 124 203 113 204 114 205 126 206 113 207 126 208 125 209 114 210 115 211 127 212 114 213 127 214 126 215 115 216 116 217 128 218 115 219 128 220 127 221 116 222 117 223 129 224 116 225 129 226 128 227 117 228 118 229 130 230 117 231 130 232 129 233 118 234 119 235 131 236 118 237 131 238 130 239 119 240 120 241 132 242 119 243 132 244 131 245 120 246 110 247 122 248 120 249 122 250 132 251 122 252 121 253 133 254 122 255 133 256 133 256 121 257 123 258 133 259 121 260 133 261 133 261 123 262 124 263 133 264 123 265 133 266 133 266 124 267 125 268 133 269 124 270 133 271 133 271 125 272 126 273 133 274 125 275 133 276 133 276 126 277 127 278 133 279 126 280 133 281 133 281 127 282 128 283 133 284 127 285 133 286 133 286 128 287 129 288 133 289 128 290 133 291 133 291 129 292 130 293 133 294 129 295 133 296 133 296 130 297 131 298 133 299 130 300 133 301 133 301 131 302 132 303 133 304 131 305 133 306 133 306 132 307 122 308 133 309 132 310 133 311 133 311 0 312 0 312 1 313 0 314 1 315 2 316 0 317 0 317 3 318 0 319 3 320 1 321 0 322 0 322 4 323 0 324 4 325 3 326 0 327 0 327 5 328 0 329 5 330 4 331 0 332 0 332 6 333 0 334 6 335 5 336 0 337 0 337 7 338 0 339 7 340 6 341 0 342 0 342 8 343 0 344 8 345 7 346 0 347 0 347 9 348 0 349 9 350 8 351 0 352 0 352 10 353 0 354 10 355 9 356 0 357 0 357 11 358 0 359 11 360 10 361 0 362 0 362 12 363 0 364 12 365 11 366 0 367 0 367 2 368 0 369 2 370 12 371 2 372 1 373 13 374 2 375 13 376 14 377 1 378 3 379 15 380 1 381 15 382 13 383 3 384 4 385 16 386 3 387 16 388 15 389 4 390 5 391 17 392 4 393 17 394 16 395 5 396 6 397 18 398 5 399 18 400 17 401 6 402 7 403 19 404 6 405 19 406 18 407 7 408 8 409 20 410 7 411 20 412 19 413 8 414 9 415 21 416 8 417 21 418 20 419 9 420 10 421 22 422 9 423 22 424 21 425 10 426 11 427 23 428 10 429 23 430 22 431 11 432 12 433 24 434 11 435 24 436 23 437 12 438 2 439 14 440 12 441 14 442 24 443 14 444 13 445 25 446 14 447 25 448 26 449 13 450 15 451 27 452 13 453 27 454 25 455 15 456 16 457 28 458 15 459 28 460 27 461 16 462 17 463 29 464 16 465 29 466 28 467 17 468 18 469 30 470 17 471 30 472 29 473 18 474 19 475 31 476 18 477 31 478 30 479 19 480 20 481 32 482 19 483 32 484 31 485 20 486 21 487 33 488 20 489 33 490 32 491 21 492 22 493 34 494 21 495 34 496 33 497 22 498 23 499 35 500 22 501 35 502 34 503 23 504 24 505 36 506 23 507 36 508 35 509 24 510 14 511 26 512 24 513 26 514 36 515 26 516 25 517 37 518 26 519 37 520 38 521 25 522 27 523 39 524 25 525 39 526 37 527 27 528 28 529 40 530 27 531 40 532 39 533 28 534 29 535 41 536 28 537 41 538 40 539 29 540 30 541 42 542 29 543 42 544 41 545 30 546 31 547 43 548 30 549 43 550 42 551 31 552 32 553 44 554 31 555 44 556 43 557 32 558 33 559 45 560 32 561 45 562 44 563 33 564 34 565 46 566 33 567 46 568 45 569 34 570 35 571 47 572 34 573 47 574 46 575 35 576 36 577 48 578 35 579 48 580 47 581 36 582 26 583 38 584 36 585 38 586 48 587 38 588 37 589 49 590 38 591 49 592 50 593 37 594 39 595 51 596 37 597 51 598 49 599 39 600 40 601 52 602 39 603 52 604 51 605 40 606 41 607 53 608 40 609 53 610 52 611 41 612 42 613 54 614 41 615 54 616 53 617 42 618 43 619 55 620 42 621 55 622 54 623 43 624 44 625 56 626 43 627 56 628 55 629 44 630 45 631 57 632 44 633 57 634 56 635 45 636 46 637 58 638 45 639 58 640 57 641 46 642 47 643 59 644 46 645 59 646 58 647 47 648 48 649 60 650 47 651 60 652 59 653 48 654 38 655 50 656 48 657 50 658 60 659 50 660 49 661 61 662 50 663 61 664 62 665 49 666 51 667 63 668 49 669 63 670 61 671 51 672 52 673 64 674 51 675 64 676 63 677 52 678 53 679 65 680 52 681 65 682 64 683 53 684 54 685 66 686 53 687 66 688 65 689 54 690 55 691 67 692 54 693 67 694 66 695 55 696 56 697 68 698 55 699 68 700 67 701 56 702 57 703 69 704 56 705 69 706 68 707 57 708 58 709 70 710 57 711 70 712 69 713 58 714 59 715 71 716 58 717 71 718 70 719 59 720 60 721 72 722 59 723 72 724 71 725 60 726 50 727 62 728 60 729 62 730 72 731 62 732 61 733 73 734 62 735 73 736 74 737 61 738 63 739 75 740 61 741 75 742 73 743 63 744 64 745 76 746 63 747 76 748 75 749 64 750 65 751 77 752 64 753 77 754 76 755 65 756 66 757 78 758 65 759 78 760 77 761 66 762 67 763 79 764 66 765 79 766 78 767 67 768 68 769 80 770 67 771 80 772 79 773 68 774 69 775 81 776 68 777 81 778 80 779 69 780 70 781 82 782 69 783 82 784 81 785 70 786 71 787 83 788 70 789 83 790 82 791 71 792 72 793 84 794 71 795 84 796 83 797 72 798 62 799 74 800 72 801 74 802 84 803 74 804 73 805 85 806 74 807 85 808 86 809 73 810 75 811 87 812 73 813 87 814 85 815 75 816 76 817 88 818 75 819 88 820 87 821 76 822 77 823 89 824 76 825 89 826 88 827 77 828 78 829 90 830 77 831 90 832 89 833 78 834 79 835 91 836 78 837 91 838 90 839</p>
                </triangles>
            </mesh>
        </geometry>
    </library_geometries>
    <library_visual_scenes>
        <visual_scene id="Building_320_CROWN2">
            <node>
                <instance_geometry url="#geometry0">
                    <bind_material>
                        <technique_common>
                            <instance_material symbol="default_ai_0.2_sh_0.2_tr_0.0_dc_r_0.8_g_0.8_b_0.8_sc_r_1.0_g_1.0_b_1.0_ec_r_0.0_g_0.0_b_0_tri" target="#default_ai_0.2_sh_0.2_tr_0.0_dc_r_0.8_g_0.8_b_0.8_sc_r_1.0_g_1.0_b_1.0_ec_r_0.0_g_0.0_b_0_mat"/>
                        </technique_common>
                    </bind_material>
                </instance_geometry>
            </node>
        </visual_scene>
    </library_visual_scenes>
    <scene>
        <instance_visual_scene url="#Building_320_CROWN2"/>
    </scene>
</COLLADA>
