<?xml version="1.0" encoding="UTF-8" standalone="yes"?>
<COLLADA xmlns="http://www.collada.org/2005/11/COLLADASchema" version="1.4.1">
    <asset>
        <contributor>
            <authoring_tool>3D City Database Importer/Exporter, version 5.5.3; Chair of Geoinformatics, Technical University of Munich</authoring_tool>
        </contributor>
        <created>2026-09-25T14:45:23.513</created>
        <modified>2026-09-25T14:45:23.513</modified>
        <unit meter="1.0" name="meters"/>
        <up_axis>Z_UP</up_axis>
    </asset>
    <library_materials>
        <material id="default_ai_0.2_sh_0.2_tr_0.0_dc_r_0.8_g_0.8_b_0.8_sc_r_1.0_g_1.0_b_1.0_ec_r_0.0_g_0.0_b_0_mat">
            <instance_effect url="#default_ai_0.2_sh_0.2_tr_0.0_dc_r_0.8_g_0.8_b_0.8_sc_r_1.0_g_1.0_b_1.0_ec_r_0.0_g_0.0_b_0_eff"/>
        </material>
    </library_materials>
    <library_effects>
        <effect id="default_ai_0.2_sh_0.2_tr_0.0_dc_r_0.8_g_0.8_b_0.8_sc_r_1.0_g_1.0_b_1.0_ec_r_0.0_g_0.0_b_0_eff">
            <profile_COMMON>
                <technique sid="COMMON">
                    <lambert>
                        <emission>
                            <color>0.0 0.0 0.0 1.0</color>
                        </emission>
                        <diffuse>
                            <color>0.8 0.8 0.8 1.0</color>
                        </diffuse>
                        <reflective>
                            <color>1.0 1.0 1.0 1.0</color>
                        </reflective>
                        <reflectivity>
                            <float>0.2</float>
                        </reflectivity>
                        <transparent opaque="A_ONE">
                            <color>1.0 1.0 1.0 1.0</color>
                        </transparent>
                        <transparency>
                            <float>1.0</float>
                        </transparency>
                    </lambert>
                </technique>
                <extra>
                    <technique profile="GOOGLEEARTH">
                        <double_sided>0</double_sided>
                    </technique>
                </extra>
            </profile_COMMON>
        </effect>
    </library_effects>
    <library_geometries>
        <geometry id="geometry0">
            <mesh>
                <source id="geometry0-position">
                    <float_array id="geometry0-position-array" count="402">0.0 0.0 3.4 0.3810448 0.219997 3.3420742 0.4399923 0.0 3.3420742 0.219997 0.3810448 3.3420742 0.0 0.4399923 3.3420742 -0.219997 0.3810448 3.3420742 -0.3810448 0.219997 3.3420742 -0.4399923 0.0 3.3420742 -0.3810448 -0.219997 3.3420742 -0.219997 -0.3810448 3.3420742 0.0 -0.4399923 3.3420742 0.219997 -0.3810448 3.3420742 0.3810448 -0.219997 3.3420742 0.7361221 0.425 3.1722425 0.85 0.0 3.1722425 0.425 0.7361221 3.1722425 0.0 0.85 3.1722425 -0.425 0.7361221 3.1722425 -0.7361221 0.425 3.1722425 -0.85 0.0 3.1722425 -0.7361221 -0.425 3.1722425 -0.425 -0.7361221 3.1722425 0.0 -0.85 3.1722425 0.425 -0.7361221 3.1722425 0.7361221 -0.425 3.1722425 1.0410324 0.6010401 2.9020802 1.2020819 0.0 2.9020802 0.6010401 1.0410324 2.9020802 0.0 1.2020819 2.9020802 -0.6010401 1.0410324 2.9020802 -1.0410324 0.6010401 2.9020802 -1.2020819 0.0 2.9020802 -1.0410324 -0.6010401 2.9020802 -0.6010401 -1.0410324 2.9020802 0.0 -1.2020819 2.9020802 0.6010401 -1.0410324 2.9020802 1.0410324 -0.6010401 2.9020802 1.275 0.7361221 2.55 1.4722425 0.0 2.55 0.7361221 1.275 2.55 0.0 1.4722425 2.55 -0.7361221 1.275 2.55 -1.275 0.7361221 2.55 -1.4722425 0.0 2.55 -1.275 -0.7361221 2.55 -0.7361221 -1.275 2.55 0.0 -1.4722425 2.55 0.7361221 -1.275 2.55 1.275 -0.7361221 2.55 1.4220772 0.8210371 2.1399923 1.6420742 0.0 2.1399923 0.8210371 1.4220772 2.1399923 0.0 1.6420742 2.1399923 -0.8210371 1.4220772 2.1399923 -1.4220772 0.8210371 2.1399923 -1.6420742 0.0 2.1399923 -1.4220772 -0.8210371 2.1399923 -0.8210371 -1.4220772 2.1399923 0.0 -1.6420742 2.1399923 0.8210371 -1.4220772 2.1399923 1.4220772 -0.8210371 2.1399923 1.4722425 0.85 1.7 1.7 0.0 1.7 0.85 1.4722425 1.7 0.0 1.7 1.7 -0.85 1.4722425 1.7 -1.4722425 0.85 1.7 -1.7 0.0 1.7 -1.4722425 -0.85 1.7 -0.85 -1.4722425 1.7 0.0 -1.7 1.7 0.85 -1.4722425 1.7 1.4722425 -0.85 1.7 1.4220772 0.8210371 1.2600077 1.6420742 0.0 1.2600077 0.8210371 1.4220772 1.2600077 0.0 1.6420742 1.2600077 -0.8210371 1.4220772 1.2600077 -1.4220772 0.8210371 1.2600077 -1.6420742 0.0 1.2600077 -1.4220772 -0.8210371 1.2600077 -0.8210371 -1.4220772 1.2600077 0.0 -1.6420742 1.2600077 0.8210371 -1.4220772 1.2600077 1.4220772 -0.8210371 1.2600077 1.275 0.7361221 0.85 1.4722425 0.0 0.85 0.7361221 1.275 0.85 0.0 1.4722425 0.85 -0.7361221 1.275 0.85 -1.275 0.7361221 0.85 -1.4722425 0.0 0.85 -1.275 -0.7361221 0.85 -0.7361221 -1.275 0.85 0.0 -1.4722425 0.85 0.7361221 -1.275 0.85 1.275 -0.7361221 0.85 1.0410324 0.6010401 0.4979181 1.2020819 0.0 0.4979181 0.6010401 1.0410324 0.4979181 0.0 1.2020819 0.4979181 -0.6010401 1.0410324 0.4979181 -1.0410324 0.6010401 0.4979181 -1.2020819 0.0 0.4979181 -1.0410324 -0.6010401 0.4979181 -0.6010401 -1.0410324 0.4979181 0.0 -1.2020819 0.4979181 0.6010401 -1.0410324 0.4979181 1.0410324 -0.6010401 0.4979181 0.7361221 0.425 0.2277558 0.85 0.0 0.2277558 0.425 0.7361221 0.2277558 0.0 0.85 0.2277558 -0.425 0.7361221 0.2277558 -0.7361221 0.425 0.2277558 -0.85 0.0 0.2277558 -0.7361221 -0.425 0.2277558 -0.425 -0.7361221 0.2277558 0.0 -0.85 0.2277558 0.425 -0.7361221 0.2277558 0.7361221 -0.425 0.2277558 0.3810448 0.219997 0.0579258 0.4399923 0.0 0.0579258 0.219997 0.3810448 0.0579258 0.0 0.4399923 0.0579258 -0.219997 0.3810448 0.0579258 -0.3810448 0.219997 0.0579258 -0.4399923 0.0 0.0579258 -0.3810448 -0.219997 0.0579258 -0.219997 -0.3810448 0.0579258 0.0 -0.4399923 0.0579258 0.219997 -0.3810448 0.0579258 0.3810448 -0.219997 0.0579258 0.0 0.0 0.0</float_array>
                    <technique_common>
                        <accessor count="134" source="#geometry0-position-array" stride="3">
                            <param name="X" type="float"/>
                            <param name="Y" type="float"/>
                            <param name="Z" type="float"/>
                        </accessor>
                    </technique_common>
                </source>
                <source id="geometry0-normal">
                    <float_array id="geometry0-normal-array" count="2520">-0.2079331 0.7760107 -0.5954587 -0.2079331 0.7760107 -0.5954587 -0.2079331 0.7760107 -0.5954587 -0.2079314 0.7760136 -0.5954557 -0.2079314 0.7760136 -0.5954557 -0.2079314 0.7760136 -0.5954557 -0.5680795 0.5680795 -0.595459 -0.5680795 0.5680795 -0.595459 -0.5680795 0.5680795 -0.595459 -0.5680795 0.5680795 -0.595459 -0.5680795 0.5680795 -0.595459 -0.5680795 0.5680795 -0.595459 -0.7760132 0.2079337 -0.5954554 -0.7760132 0.2079337 -0.5954554 -0.7760132 0.2079337 -0.5954554 -0.7760116 0.2079308 -0.5954584 -0.7760116 0.2079308 -0.5954584 -0.7760116 0.2079308 -0.5954584 -0.8968096 -0.2402984 -0.3714691 -0.8968096 -0.2402984 -0.3714691 -0.8968096 -0.2402984 -0.3714691 -0.896808 -0.2402999 -0.3714722 -0.896808 -0.2402999 -0.3714722 -0.896808 -0.2402999 -0.3714722 -0.6565099 -0.6565099 -0.3714692 -0.6565099 -0.6565099 -0.3714692 -0.6565099 -0.6565099 -0.3714692 -0.6565099 -0.6565099 -0.3714691 -0.6565099 -0.6565099 -0.3714691 -0.6565099 -0.6565099 -0.3714691 -0.2402981 -0.8968083 -0.3714723 -0.2402981 -0.8968083 -0.3714723 -0.2402981 -0.8968083 -0.3714723 -0.2403002 -0.896809 -0.3714693 -0.2403002 -0.896809 -0.3714693 -0.2403002 -0.896809 -0.3714693 0.2402984 -0.8968096 -0.3714691 0.2402984 -0.8968096 -0.3714691 0.2402984 -0.8968096 -0.3714691 0.2402999 -0.896808 -0.3714722 0.2402999 -0.896808 -0.3714722 0.2402999 -0.896808 -0.3714722 0.6565099 -0.6565099 -0.3714692 0.6565099 -0.6565099 -0.3714692 0.6565099 -0.6565099 -0.3714692 0.6565099 -0.6565099 -0.3714691 0.6565099 -0.6565099 -0.3714691 0.6565099 -0.6565099 -0.3714691 0.8968083 -0.2402981 -0.3714723 0.8968083 -0.2402981 -0.3714723 0.8968083 -0.2402981 -0.3714723 0.896809 -0.2403002 -0.3714693 0.896809 -0.2403002 -0.3714693 0.896809 -0.2403002 -0.3714693 0.8968096 0.2402984 -0.3714691 0.8968096 0.2402984 -0.3714691 0.8968096 0.2402984 -0.3714691 0.896808 0.2402999 -0.3714722 0.896808 0.2402999 -0.3714722 0.896808 0.2402999 -0.3714722 0.6565099 0.6565099 -0.3714692 0.6565099 0.6565099 -0.3714692 0.6565099 0.6565099 -0.3714692 0.6565099 0.6565099 -0.3714691 0.6565099 0.6565099 -0.3714691 0.6565099 0.6565099 -0.3714691 0.2402981 0.8968083 -0.3714723 0.2402981 0.8968083 -0.3714723 0.2402981 0.8968083 -0.3714723 0.2403002 0.896809 -0.3714693 0.2403002 0.896809 -0.3714693 0.2403002 0.896809 -0.3714693 -0.2402984 0.8968096 -0.3714691 -0.2402984 0.8968096 -0.3714691 -0.2402984 0.8968096 -0.3714691 -0.2402999 0.896808 -0.3714722 -0.2402999 0.896808 -0.3714722 -0.2402999 0.896808 -0.3714722 -0.6565099 0.6565099 -0.3714692 -0.6565099 0.6565099 -0.3714692 -0.6565099 0.6565099 -0.3714692 -0.6565099 0.6565099 -0.3714691 -0.6565099 0.6565099 -0.3714691 -0.6565099 0.6565099 -0.3714691 -0.8968083 0.2402981 -0.3714723 -0.8968083 0.2402981 -0.3714723 -0.8968083 0.2402981 -0.3714723 -0.896809 0.2403002 -0.3714693 -0.896809 0.2403002 -0.3714693 -0.896809 0.2403002 -0.3714693 -0.9582089 -0.2567523 -0.1261503 -0.9582089 -0.2567523 -0.1261503 -0.9582089 -0.2567523 -0.1261503 -0.958209 -0.2567522 -0.1261501 -0.958209 -0.2567522 -0.1261501 -0.958209 -0.2567522 -0.1261501 -0.7014578 -0.7014578 -0.1261502 -0.7014578 -0.7014578 -0.1261502 -0.7014578 -0.7014578 -0.1261502 -0.7014578 -0.7014578 -0.1261503 -0.7014578 -0.7014578 -0.1261503 -0.7014578 -0.7014578 -0.1261503 -0.2567523 -0.958209 -0.1261501 -0.2567523 -0.958209 -0.1261501 -0.2567523 -0.958209 -0.1261501 -0.2567522 -0.958209 -0.1261503 -0.2567522 -0.958209 -0.1261503 -0.2567522 -0.958209 -0.1261503 0.2567523 -0.9582089 -0.1261503 0.2567523 -0.9582089 -0.1261503 0.2567523 -0.9582089 -0.1261503 0.2567522 -0.958209 -0.1261501 0.2567522 -0.958209 -0.1261501 0.2567522 -0.958209 -0.1261501 0.7014578 -0.7014578 -0.1261502 0.7014578 -0.7014578 -0.1261502 0.7014578 -0.7014578 -0.1261502 0.7014578 -0.7014578 -0.1261503 0.7014578 -0.7014578 -0.1261503 0.7014578 -0.7014578 -0.1261503 0.958209 -0.2567523 -0.1261501 0.958209 -0.2567523 -0.1261501 0.958209 -0.2567523 -0.1261501 0.958209 -0.2567522 -0.1261503 0.958209 -0.2567522 -0.1261503 0.958209 -0.2567522 -0.1261503 0.9582089 0.2567523 -0.1261503 0.9582089 0.2567523 -0.1261503 0.9582089 0.2567523 -0.1261503 0.958209 0.2567522 -0.1261501 0.958209 0.2567522 -0.1261501 0.958209 0.2567522 -0.1261501 0.7014578 0.7014578 -0.1261502 0.7014578 0.7014578 -0.1261502 0.7014578 0.7014578 -0.1261502 0.7014578 0.7014578 -0.1261503 0.7014578 0.7014578 -0.1261503 0.7014578 0.7014578 -0.1261503 0.2567523 0.958209 -0.1261501 0.2567523 0.958209 -0.1261501 0.2567523 0.958209 -0.1261501 0.2567522 0.958209 -0.1261503 0.2567522 0.958209 -0.1261503 0.2567522 0.958209 -0.1261503 -0.2567523 0.9582089 -0.1261503 -0.2567523 0.9582089 -0.1261503 -0.2567523 0.9582089 -0.1261503 -0.2567522 0.958209 -0.1261501 -0.2567522 0.958209 -0.1261501 -0.2567522 0.958209 -0.1261501 -0.7014578 0.7014578 -0.1261502 -0.7014578 0.7014578 -0.1261502 -0.7014578 0.7014578 -0.1261502 -0.7014578 0.7014578 -0.1261503 -0.7014578 0.7014578 -0.1261503 -0.7014578 0.7014578 -0.1261503 -0.958209 0.2567523 -0.1261501 -0.958209 0.2567523 -0.1261501 -0.958209 0.2567523 -0.1261501 -0.958209 0.2567522 -0.1261503 -0.958209 0.2567522 -0.1261503 -0.958209 0.2567522 -0.1261503 -0.958209 -0.2567522 0.1261502 -0.958209 -0.2567522 0.1261502 -0.958209 -0.2567522 0.1261502 -0.958209 -0.2567523 0.12615 -0.958209 -0.2567523 0.12615 -0.958209 -0.2567523 0.12615 -0.7014578 -0.7014578 0.1261502 -0.7014578 -0.7014578 0.1261502 -0.7014578 -0.7014578 0.1261502 -0.7014578 -0.7014578 0.1261502 -0.7014578 -0.7014578 0.1261502 -0.7014578 -0.7014578 0.1261502 -0.2567522 -0.958209 0.12615 -0.2567522 -0.958209 0.12615 -0.2567522 -0.958209 0.12615 -0.2567523 -0.958209 0.1261503 -0.2567523 -0.958209 0.1261503 -0.2567523 -0.958209 0.1261503 0.2567522 -0.958209 0.1261502 0.2567522 -0.958209 0.1261502 0.2567522 -0.958209 0.1261502 0.2567523 -0.958209 0.12615 0.2567523 -0.958209 0.12615 0.2567523 -0.958209 0.12615 0.7014578 -0.7014578 0.1261502 0.7014578 -0.7014578 0.1261502 0.7014578 -0.7014578 0.1261502 0.7014578 -0.7014578 0.1261502 0.7014578 -0.7014578 0.1261502 0.7014578 -0.7014578 0.1261502 0.958209 -0.2567522 0.12615 0.958209 -0.2567522 0.12615 0.958209 -0.2567522 0.12615 0.958209 -0.2567523 0.1261503 0.958209 -0.2567523 0.1261503 0.958209 -0.2567523 0.1261503 0.958209 0.2567522 0.1261502 0.958209 0.2567522 0.1261502 0.958209 0.2567522 0.1261502 0.958209 0.2567523 0.12615 0.958209 0.2567523 0.12615 0.958209 0.2567523 0.12615 0.7014578 0.7014578 0.1261502 0.7014578 0.7014578 0.1261502 0.7014578 0.7014578 0.1261502 0.7014578 0.7014578 0.1261502 0.7014578 0.7014578 0.1261502 0.7014578 0.7014578 0.1261502 0.2567522 0.958209 0.12615 0.2567522 0.958209 0.12615 0.2567522 0.958209 0.12615 0.2567523 0.958209 0.1261503 0.2567523 0.958209 0.1261503 0.2567523 0.958209 0.1261503 -0.2567522 0.958209 0.1261502 -0.2567522 0.958209 0.1261502 -0.2567522 0.958209 0.1261502 -0.2567523 0.958209 0.12615 -0.2567523 0.958209 0.12615 -0.2567523 0.958209 0.12615 -0.7014578 0.7014578 0.1261502 -0.7014578 0.7014578 0.1261502 -0.7014578 0.7014578 0.1261502 -0.7014578 0.7014578 0.1261502 -0.7014578 0.7014578 0.1261502 -0.7014578 0.7014578 0.1261502 -0.958209 0.2567522 0.12615 -0.958209 0.2567522 0.12615 -0.958209 0.2567522 0.12615 -0.958209 0.2567523 0.1261503 -0.958209 0.2567523 0.1261503 -0.958209 0.2567523 0.1261503 -0.896809 -0.2403002 0.3714693 -0.896809 -0.2403002 0.3714693 -0.896809 -0.2403002 0.3714693 -0.8968083 -0.2402981 0.3714723 -0.8968083 -0.2402981 0.3714723 -0.8968083 -0.2402981 0.3714723 -0.6565099 -0.6565099 0.3714691 -0.6565099 -0.6565099 0.3714691 -0.6565099 -0.6565099 0.3714691 -0.6565099 -0.6565099 0.3714691 -0.6565099 -0.6565099 0.3714691 -0.6565099 -0.6565099 0.3714691 -0.2402999 -0.896808 0.3714722 -0.2402999 -0.896808 0.3714722 -0.2402999 -0.896808 0.3714722 -0.2402984 -0.8968096 0.3714691 -0.2402984 -0.8968096 0.3714691 -0.2402984 -0.8968096 0.3714691 0.2403002 -0.896809 0.3714693 0.2403002 -0.896809 0.3714693 0.2403002 -0.896809 0.3714693 0.2402981 -0.8968083 0.3714723 0.2402981 -0.8968083 0.3714723 0.2402981 -0.8968083 0.3714723 0.6565099 -0.6565099 0.3714691 0.6565099 -0.6565099 0.3714691 0.6565099 -0.6565099 0.3714691 0.6565099 -0.6565099 0.3714691 0.6565099 -0.6565099 0.3714691 0.6565099 -0.6565099 0.3714691 0.896808 -0.2402999 0.3714722 0.896808 -0.2402999 0.3714722 0.896808 -0.2402999 0.3714722 0.8968096 -0.2402984 0.3714691 0.8968096 -0.2402984 0.3714691 0.8968096 -0.2402984 0.3714691 0.896809 0.2403002 0.3714693 0.896809 0.2403002 0.3714693 0.896809 0.2403002 0.3714693 0.8968083 0.2402981 0.3714723 0.8968083 0.2402981 0.3714723 0.8968083 0.2402981 0.3714723 0.6565099 0.6565099 0.3714691 0.6565099 0.6565099 0.3714691 0.6565099 0.6565099 0.3714691 0.6565099 0.6565099 0.3714691 0.6565099 0.6565099 0.3714691 0.6565099 0.6565099 0.3714691 0.2402999 0.896808 0.3714722 0.2402999 0.896808 0.3714722 0.2402999 0.896808 0.3714722 0.2402984 0.8968096 0.3714691 0.2402984 0.8968096 0.3714691 0.2402984 0.8968096 0.3714691 -0.2403002 0.896809 0.3714693 -0.2403002 0.896809 0.3714693 -0.2403002 0.896809 0.3714693 -0.2402981 0.8968083 0.3714723 -0.2402981 0.8968083 0.3714723 -0.2402981 0.8968083 0.3714723 -0.6565099 0.6565099 0.3714691 -0.6565099 0.6565099 0.3714691 -0.6565099 0.6565099 0.3714691 -0.6565099 0.6565099 0.3714691 -0.6565099 0.6565099 0.3714691 -0.6565099 0.6565099 0.3714691 -0.896808 0.2402999 0.3714722 -0.896808 0.2402999 0.3714722 -0.896808 0.2402999 0.3714722 -0.8968096 0.2402984 0.3714691 -0.8968096 0.2402984 0.3714691 -0.8968096 0.2402984 0.3714691 -0.7760128 -0.2079312 0.5954568 -0.7760128 -0.2079312 0.5954568 -0.7760128 -0.2079312 0.5954568 -0.7760144 -0.2079341 0.5954537 -0.7760144 -0.2079341 0.5954537 -0.7760144 -0.2079341 0.5954537 -0.5680803 -0.5680803 0.5954573 -0.5680803 -0.5680803 0.5954573 -0.5680803 -0.5680803 0.5954573 -0.5680803 -0.5680803 0.5954574 -0.5680803 -0.5680803 0.5954574 -0.5680803 -0.5680803 0.5954574 -0.2079317 -0.7760148 0.595454 -0.2079317 -0.7760148 0.595454 -0.2079317 -0.7760148 0.595454 -0.2079334 -0.776012 0.595457 -0.2079334 -0.776012 0.595457 -0.2079334 -0.776012 0.595457 0.2079312 -0.7760128 0.5954568 0.2079312 -0.7760128 0.5954568 0.2079312 -0.7760128 0.5954568 0.2079341 -0.7760144 0.5954537 0.2079341 -0.7760144 0.5954537 0.2079341 -0.7760144 0.5954537 0.5680803 -0.5680803 0.5954573 0.5680803 -0.5680803 0.5954573 0.5680803 -0.5680803 0.5954573 0.5680803 -0.5680803 0.5954574 0.5680803 -0.5680803 0.5954574 0.5680803 -0.5680803 0.5954574 0.7760148 -0.2079317 0.595454 0.7760148 -0.2079317 0.595454 0.7760148 -0.2079317 0.595454 0.776012 -0.2079334 0.595457 0.776012 -0.2079334 0.595457 0.776012 -0.2079334 0.595457 0.7760128 0.2079312 0.5954568 0.7760128 0.2079312 0.5954568 0.7760128 0.2079312 0.5954568 0.7760144 0.2079341 0.5954537 0.7760144 0.2079341 0.5954537 0.7760144 0.2079341 0.5954537 0.5680803 0.5680803 0.5954573 0.5680803 0.5680803 0.5954573 0.5680803 0.5680803 0.5954573 0.5680803 0.5680803 0.5954574 0.5680803 0.5680803 0.5954574 0.5680803 0.5680803 0.5954574 0.2079317 0.7760148 0.595454 0.2079317 0.7760148 0.595454 0.2079317 0.7760148 0.595454 0.2079334 0.776012 0.595457 0.2079334 0.776012 0.595457 0.2079334 0.776012 0.595457 -0.2079312 0.7760128 0.5954568 -0.2079312 0.7760128 0.5954568 -0.2079312 0.7760128 0.5954568 -0.2079341 0.7760144 0.5954537 -0.2079341 0.7760144 0.5954537 -0.2079341 0.7760144 0.5954537 -0.5680803 0.5680803 0.5954573 -0.5680803 0.5680803 0.5954573 -0.5680803 0.5680803 0.5954573 -0.5680803 0.5680803 0.5954574 -0.5680803 0.5680803 0.5954574 -0.5680803 0.5680803 0.5954574 -0.7760148 0.2079317 0.595454 -0.7760148 0.2079317 0.595454 -0.7760148 0.2079317 0.595454 -0.776012 0.2079334 0.595457 -0.776012 0.2079334 0.595457 -0.776012 0.2079334 0.595457 -0.6008226 -0.1609912 0.7830033 -0.6008226 -0.1609912 0.7830033 -0.6008226 -0.1609912 0.7830033 -0.6008214 -0.160989 0.7830047 -0.6008214 -0.160989 0.7830047 -0.6008214 -0.160989 0.7830047 -0.439833 -0.439833 0.7830031 -0.439833 -0.439833 0.7830031 -0.439833 -0.439833 0.7830031 -0.439833 -0.439833 0.7830031 -0.439833 -0.439833 0.7830031 -0.439833 -0.439833 0.7830031 -0.1609908 -0.6008212 0.7830045 -0.1609908 -0.6008212 0.7830045 -0.1609908 -0.6008212 0.7830045 -0.1609895 -0.6008233 0.783003 -0.1609895 -0.6008233 0.783003 -0.1609895 -0.6008233 0.783003 0.1609912 -0.6008226 0.7830033 0.1609912 -0.6008226 0.7830033 0.1609912 -0.6008226 0.7830033 0.160989 -0.6008214 0.7830047 0.160989 -0.6008214 0.7830047 0.160989 -0.6008214 0.7830047 0.439833 -0.439833 0.7830031 0.439833 -0.439833 0.7830031 0.439833 -0.439833 0.7830031 0.439833 -0.439833 0.7830031 0.439833 -0.439833 0.7830031 0.439833 -0.439833 0.7830031 0.6008212 -0.1609908 0.7830045 0.6008212 -0.1609908 0.7830045 0.6008212 -0.1609908 0.7830045 0.6008233 -0.1609895 0.783003 0.6008233 -0.1609895 0.783003 0.6008233 -0.1609895 0.783003 0.6008226 0.1609912 0.7830033 0.6008226 0.1609912 0.7830033 0.6008226 0.1609912 0.7830033 0.6008214 0.160989 0.7830047 0.6008214 0.160989 0.7830047 0.6008214 0.160989 0.7830047 0.439833 0.439833 0.7830031 0.439833 0.439833 0.7830031 0.439833 0.439833 0.7830031 0.439833 0.439833 0.7830031 0.439833 0.439833 0.7830031 0.439833 0.439833 0.7830031 0.1609908 0.6008212 0.7830045 0.1609908 0.6008212 0.7830045 0.1609908 0.6008212 0.7830045 0.1609895 0.6008233 0.783003 0.1609895 0.6008233 0.783003 0.1609895 0.6008233 0.783003 -0.1609912 0.6008226 0.7830033 -0.1609912 0.6008226 0.7830033 -0.1609912 0.6008226 0.7830033 -0.160989 0.6008214 0.7830047 -0.160989 0.6008214 0.7830047 -0.160989 0.6008214 0.7830047 -0.439833 0.439833 0.7830031 -0.439833 0.439833 0.7830031 -0.439833 0.439833 0.7830031 -0.439833 0.439833 0.7830031 -0.439833 0.439833 0.7830031 -0.439833 0.439833 0.7830031 -0.6008212 0.1609908 0.7830045 -0.6008212 0.1609908 0.7830045 -0.6008212 0.1609908 0.7830045 -0.6008233 0.1609895 0.783003 -0.6008233 0.1609895 0.783003 -0.6008233 0.1609895 0.783003 -0.3806861 -0.1020041 0.9190611 -0.3806861 -0.1020041 0.9190611 -0.3806861 -0.1020041 0.9190611 -0.3806859 -0.1020036 0.9190612 -0.3806859 -0.1020036 0.9190612 -0.3806859 -0.1020036 0.9190612 -0.2786817 -0.2786817 0.9190609 -0.2786817 -0.2786817 0.9190609 -0.2786817 -0.2786817 0.9190609 -0.2786817 -0.2786817 0.9190609 -0.2786817 -0.2786817 0.9190609 -0.2786817 -0.2786817 0.9190609 -0.1020041 -0.380686 0.9190612 -0.1020041 -0.380686 0.9190612 -0.1020041 -0.380686 0.9190612 -0.1020037 -0.3806863 0.919061 -0.1020037 -0.3806863 0.919061 -0.1020037 -0.3806863 0.919061 0.1020041 -0.3806861 0.9190611 0.1020041 -0.3806861 0.9190611 0.1020041 -0.3806861 0.9190611 0.1020036 -0.3806859 0.9190612 0.1020036 -0.3806859 0.9190612 0.1020036 -0.3806859 0.9190612 0.2786817 -0.2786817 0.9190609 0.2786817 -0.2786817 0.9190609 0.2786817 -0.2786817 0.9190609 0.2786817 -0.2786817 0.9190609 0.2786817 -0.2786817 0.9190609 0.2786817 -0.2786817 0.9190609 0.380686 -0.1020041 0.9190612 0.380686 -0.1020041 0.9190612 0.380686 -0.1020041 0.9190612 0.3806863 -0.1020037 0.919061 0.3806863 -0.1020037 0.919061 0.3806863 -0.1020037 0.919061 0.3806861 0.1020041 0.9190611 0.3806861 0.1020041 0.9190611 0.3806861 0.1020041 0.9190611 0.3806859 0.1020036 0.9190612 0.3806859 0.1020036 0.9190612 0.3806859 0.1020036 0.9190612 0.2786817 0.2786817 0.9190609 0.2786817 0.2786817 0.9190609 0.2786817 0.2786817 0.9190609 0.2786817 0.2786817 0.9190609 0.2786817 0.2786817 0.9190609 0.2786817 0.2786817 0.9190609 0.1020041 0.380686 0.9190612 0.1020041 0.380686 0.9190612 0.1020041 0.380686 0.9190612 0.1020037 0.3806863 0.919061 0.1020037 0.3806863 0.919061 0.1020037 0.3806863 0.919061 -0.1020041 0.3806861 0.9190611 -0.1020041 0.3806861 0.9190611 -0.1020041 0.3806861 0.9190611 -0.1020036 0.3806859 0.9190612 -0.1020036 0.3806859 0.9190612 -0.1020036 0.3806859 0.9190612 -0.2786817 0.2786817 0.9190609 -0.2786817 0.2786817 0.9190609 -0.2786817 0.2786817 0.9190609 -0.2786817 0.2786817 0.9190609 -0.2786817 0.2786817 0.9190609 -0.2786817 0.2786817 0.9190609 -0.380686 0.1020041 0.9190612 -0.380686 0.1020041 0.9190612 -0.380686 0.1020041 0.9190612 -0.3806863 0.1020037 0.919061 -0.3806863 0.1020037 0.919061 -0.3806863 0.1020037 0.919061 -0.1304458 -0.0349525 0.9908391 -0.1304458 -0.0349525 0.9908391 -0.1304458 -0.0349525 0.9908391 1.0 0.0 0.0 1.0 0.0 0.0 -0.0954928 -0.0954928 0.9908392 -0.0954928 -0.0954928 0.9908392 -0.0954928 -0.0954928 0.9908392 1.0 0.0 0.0 1.0 0.0 0.0 -0.0349525 -0.1304458 0.9908391 -0.0349525 -0.1304458 0.9908391 -0.0349525 -0.1304458 0.9908391 1.0 0.0 0.0 1.0 0.0 0.0 0.0349525 -0.1304458 0.9908391 0.0349525 -0.1304458 0.9908391 0.0349525 -0.1304458 0.9908391 1.0 0.0 0.0 1.0 0.0 0.0 0.0954928 -0.0954928 0.9908392 0.0954928 -0.0954928 0.9908392 0.0954928 -0.0954928 0.9908392 1.0 0.0 0.0 1.0 0.0 0.0 0.1304458 -0.0349525 0.9908391 0.1304458 -0.0349525 0.9908391 0.1304458 -0.0349525 0.9908391 1.0 0.0 0.0 1.0 0.0 0.0 0.1304458 0.0349525 0.9908391 0.1304458 0.0349525 0.9908391 0.1304458 0.0349525 0.9908391 1.0 0.0 0.0 1.0 0.0 0.0 0.0954928 0.0954928 0.9908392 0.0954928 0.0954928 0.9908392 0.0954928 0.0954928 0.9908392 1.0 0.0 0.0 1.0 0.0 0.0 0.0349525 0.1304458 0.9908391 0.0349525 0.1304458 0.9908391 0.0349525 0.1304458 0.9908391 1.0 0.0 0.0 1.0 0.0 0.0 -0.0349525 0.1304458 0.9908391 -0.0349525 0.1304458 0.9908391 -0.0349525 0.1304458 0.9908391 1.0 0.0 0.0 1.0 0.0 0.0 -0.0954928 0.0954928 0.9908392 -0.0954928 0.0954928 0.9908392 -0.0954928 0.0954928 0.9908392 1.0 0.0 0.0 1.0 0.0 0.0 -0.1304458 0.0349525 0.9908391 -0.1304458 0.0349525 0.9908391 -0.1304458 0.0349525 0.9908391 1.0 0.0 0.0 1.0 0.0 0.0 1.0 0.0 0.0 1.0 0.0 0.0 -0.1304461 -0.0349526 -0.9908391 -0.1304461 -0.0349526 -0.9908391 -0.1304461 -0.0349526 -0.9908391 1.0 0.0 0.0 1.0 0.0 0.0 -0.095493 -0.095493 -0.9908391 -0.095493 -0.095493 -0.9908391 -0.095493 -0.095493 -0.9908391 1.0 0.0 0.0 1.0 0.0 0.0 -0.0349526 -0.1304461 -0.9908391 -0.0349526 -0.1304461 -0.9908391 -0.0349526 -0.1304461 -0.9908391 1.0 0.0 0.0 1.0 0.0 0.0 0.0349526 -0.1304461 -0.9908391 0.0349526 -0.1304461 -0.9908391 0.0349526 -0.1304461 -0.9908391 1.0 0.0 0.0 1.0 0.0 0.0 0.095493 -0.095493 -0.9908391 0.095493 -0.095493 -0.9908391 0.095493 -0.095493 -0.9908391 1.0 0.0 0.0 1.0 0.0 0.0 0.1304461 -0.0349526 -0.9908391 0.1304461 -0.0349526 -0.9908391 0.1304461 -0.0349526 -0.9908391 1.0 0.0 0.0 1.0 0.0 0.0 0.1304461 0.0349526 -0.9908391 0.1304461 0.0349526 -0.9908391 0.1304461 0.0349526 -0.9908391 1.0 0.0 0.0 1.0 0.0 0.0 0.095493 0.095493 -0.9908391 0.095493 0.095493 -0.9908391 0.095493 0.095493 -0.9908391 1.0 0.0 0.0 1.0 0.0 0.0 0.0349526 0.1304461 -0.9908391 0.0349526 0.1304461 -0.9908391 0.0349526 0.1304461 -0.9908391 1.0 0.0 0.0 1.0 0.0 0.0 -0.0349526 0.1304461 -0.9908391 -0.0349526 0.1304461 -0.9908391 -0.0349526 0.1304461 -0.9908391 1.0 0.0 0.0 1.0 0.0 0.0 -0.095493 0.095493 -0.9908391 -0.095493 0.095493 -0.9908391 -0.095493 0.095493 -0.9908391 1.0 0.0 0.0 1.0 0.0 0.0 -0.1304461 0.0349526 -0.9908391 -0.1304461 0.0349526 -0.9908391 -0.1304461 0.0349526 -0.9908391 -0.3806897 -0.1020046 -0.9190596 -0.3806897 -0.1020046 -0.9190596 -0.3806897 -0.1020046 -0.9190596 -0.3806892 -0.102005 -0.9190597 -0.3806892 -0.102005 -0.9190597 -0.3806892 -0.102005 -0.9190597 -0.2786841 -0.2786841 -0.9190595 -0.2786841 -0.2786841 -0.9190595 -0.2786841 -0.2786841 -0.9190595 -0.2786841 -0.2786841 -0.9190595 -0.2786841 -0.2786841 -0.9190595 -0.2786841 -0.2786841 -0.9190595 -0.1020045 -0.3806892 -0.9190598 -0.1020045 -0.3806892 -0.9190598 -0.1020045 -0.3806892 -0.9190598 -0.102005 -0.3806894 -0.9190596 -0.102005 -0.3806894 -0.9190596 -0.102005 -0.3806894 -0.9190596 0.1020046 -0.3806897 -0.9190596 0.1020046 -0.3806897 -0.9190596 0.1020046 -0.3806897 -0.9190596 0.102005 -0.3806892 -0.9190597 0.102005 -0.3806892 -0.9190597 0.102005 -0.3806892 -0.9190597 0.2786841 -0.2786841 -0.9190595 0.2786841 -0.2786841 -0.9190595 0.2786841 -0.2786841 -0.9190595 0.2786841 -0.2786841 -0.9190595 0.2786841 -0.2786841 -0.9190595 0.2786841 -0.2786841 -0.9190595 0.3806892 -0.1020045 -0.9190598 0.3806892 -0.1020045 -0.9190598 0.3806892 -0.1020045 -0.9190598 0.3806894 -0.102005 -0.9190596 0.3806894 -0.102005 -0.9190596 0.3806894 -0.102005 -0.9190596 0.3806897 0.1020046 -0.9190596 0.3806897 0.1020046 -0.9190596 0.3806897 0.1020046 -0.9190596 0.3806892 0.102005 -0.9190597 0.3806892 0.102005 -0.9190597 0.3806892 0.102005 -0.9190597 0.2786841 0.2786841 -0.9190595 0.2786841 0.2786841 -0.9190595 0.2786841 0.2786841 -0.9190595 0.2786841 0.2786841 -0.9190595 0.2786841 0.2786841 -0.9190595 0.2786841 0.2786841 -0.9190595 0.1020045 0.3806892 -0.9190598 0.1020045 0.3806892 -0.9190598 0.1020045 0.3806892 -0.9190598 0.102005 0.3806894 -0.9190596 0.102005 0.3806894 -0.9190596 0.102005 0.3806894 -0.9190596 -0.1020046 0.3806897 -0.9190596 -0.1020046 0.3806897 -0.9190596 -0.1020046 0.3806897 -0.9190596 -0.102005 0.3806892 -0.9190597 -0.102005 0.3806892 -0.9190597 -0.102005 0.3806892 -0.9190597 -0.2786841 0.2786841 -0.9190595 -0.2786841 0.2786841 -0.9190595 -0.2786841 0.2786841 -0.9190595 -0.2786841 0.2786841 -0.9190595 -0.2786841 0.2786841 -0.9190595 -0.2786841 0.2786841 -0.9190595 -0.3806892 0.1020045 -0.9190598 -0.3806892 0.1020045 -0.9190598 -0.3806892 0.1020045 -0.9190598 -0.3806894 0.102005 -0.9190596 -0.3806894 0.102005 -0.9190596 -0.3806894 0.102005 -0.9190596 -0.6008232 -0.1609894 -0.7830032 -0.6008232 -0.1609894 -0.7830032 -0.6008232 -0.1609894 -0.7830032 -0.6008209 -0.1609907 -0.7830046 -0.6008209 -0.1609907 -0.7830046 -0.6008209 -0.1609907 -0.7830046 -0.4398328 -0.4398328 -0.7830033 -0.4398328 -0.4398328 -0.7830033 -0.4398328 -0.4398328 -0.7830033 -0.4398328 -0.4398328 -0.7830033 -0.4398328 -0.4398328 -0.7830033 -0.4398328 -0.4398328 -0.7830033 -0.1609889 -0.6008211 -0.7830048 -0.1609889 -0.6008211 -0.7830048 -0.1609889 -0.6008211 -0.7830048 -0.1609911 -0.6008223 -0.7830034 -0.1609911 -0.6008223 -0.7830034 -0.1609911 -0.6008223 -0.7830034 0.1609894 -0.6008232 -0.7830032 0.1609894 -0.6008232 -0.7830032 0.1609894 -0.6008232 -0.7830032 0.1609907 -0.6008209 -0.7830046 0.1609907 -0.6008209 -0.7830046 0.1609907 -0.6008209 -0.7830046 0.4398328 -0.4398328 -0.7830033 0.4398328 -0.4398328 -0.7830033 0.4398328 -0.4398328 -0.7830033 0.4398328 -0.4398328 -0.7830033 0.4398328 -0.4398328 -0.7830033 0.4398328 -0.4398328 -0.7830033 0.6008211 -0.1609889 -0.7830048 0.6008211 -0.1609889 -0.7830048 0.6008211 -0.1609889 -0.7830048 0.6008223 -0.1609911 -0.7830034 0.6008223 -0.1609911 -0.7830034 0.6008223 -0.1609911 -0.7830034 0.6008232 0.1609894 -0.7830032 0.6008232 0.1609894 -0.7830032 0.6008232 0.1609894 -0.7830032 0.6008209 0.1609907 -0.7830046 0.6008209 0.1609907 -0.7830046 0.6008209 0.1609907 -0.7830046 0.4398328 0.4398328 -0.7830033 0.4398328 0.4398328 -0.7830033 0.4398328 0.4398328 -0.7830033 0.4398328 0.4398328 -0.7830033 0.4398328 0.4398328 -0.7830033 0.4398328 0.4398328 -0.7830033 0.1609889 0.6008211 -0.7830048 0.1609889 0.6008211 -0.7830048 0.1609889 0.6008211 -0.7830048 0.1609911 0.6008223 -0.7830034 0.1609911 0.6008223 -0.7830034 0.1609911 0.6008223 -0.7830034 -0.1609894 0.6008232 -0.7830032 -0.1609894 0.6008232 -0.7830032 -0.1609894 0.6008232 -0.7830032 -0.1609907 0.6008209 -0.7830046 -0.1609907 0.6008209 -0.7830046 -0.1609907 0.6008209 -0.7830046 -0.4398328 0.4398328 -0.7830033 -0.4398328 0.4398328 -0.7830033 -0.4398328 0.4398328 -0.7830033 -0.4398328 0.4398328 -0.7830033 -0.4398328 0.4398328 -0.7830033 -0.4398328 0.4398328 -0.7830033 -0.6008211 0.1609889 -0.7830048 -0.6008211 0.1609889 -0.7830048 -0.6008211 0.1609889 -0.7830048 -0.6008223 0.1609911 -0.7830034 -0.6008223 0.1609911 -0.7830034 -0.6008223 0.1609911 -0.7830034 -0.7760107 -0.2079331 -0.5954587 -0.7760107 -0.2079331 -0.5954587 -0.7760107 -0.2079331 -0.5954587 -0.7760136 -0.2079314 -0.5954557 -0.7760136 -0.2079314 -0.5954557 -0.7760136 -0.2079314 -0.5954557 -0.5680795 -0.5680795 -0.595459 -0.5680795 -0.5680795 -0.595459 -0.5680795 -0.5680795 -0.595459 -0.5680795 -0.5680795 -0.595459 -0.5680795 -0.5680795 -0.595459 -0.5680795 -0.5680795 -0.595459 -0.2079337 -0.7760132 -0.5954554 -0.2079337 -0.7760132 -0.5954554 -0.2079337 -0.7760132 -0.5954554 -0.2079308 -0.7760116 -0.5954584 -0.2079308 -0.7760116 -0.5954584 -0.2079308 -0.7760116 -0.5954584 0.2079331 -0.7760107 -0.5954587 0.2079331 -0.7760107 -0.5954587 0.2079331 -0.7760107 -0.5954587 0.2079314 -0.7760136 -0.5954557 0.2079314 -0.7760136 -0.5954557 0.2079314 -0.7760136 -0.5954557 0.5680795 -0.5680795 -0.595459 0.5680795 -0.5680795 -0.595459 0.5680795 -0.5680795 -0.595459 0.5680795 -0.5680795 -0.595459 0.5680795 -0.5680795 -0.595459 0.5680795 -0.5680795 -0.595459 0.7760132 -0.2079337 -0.5954554 0.7760132 -0.2079337 -0.5954554 0.7760132 -0.2079337 -0.5954554 0.7760116 -0.2079308 -0.5954584 0.7760116 -0.2079308 -0.5954584 0.7760116 -0.2079308 -0.5954584 0.7760107 0.2079331 -0.5954587 0.7760107 0.2079331 -0.5954587 0.7760107 0.2079331 -0.5954587 0.7760136 0.2079314 -0.5954557 0.7760136 0.2079314 -0.5954557 0.7760136 0.2079314 -0.5954557 0.5680795 0.5680795 -0.595459 0.5680795 0.5680795 -0.595459 0.5680795 0.5680795 -0.595459 0.5680795 0.5680795 -0.595459 0.5680795 0.5680795 -0.595459 0.5680795 0.5680795 -0.595459 0.2079337 0.7760132 -0.5954554 0.2079337 0.7760132 -0.5954554 0.2079337 0.7760132 -0.5954554 0.2079308 0.7760116 -0.5954584 0.2079308 0.7760116 -0.5954584 0.2079308 0.7760116 -0.5954584</float_array>
                    <technique_common>
                        <accessor count="840" source="#geometry0-normal-array" stride="3">
                            <param name="X" type="float"/>
                            <param name="Y" type="float"/>
                            <param name="Z" type="float"/>
                        </accessor>
                    </technique_common>
                </source>
                <vertices id="geometry0-vertex">
                    <input semantic="POSITION" source="#geometry0-position"/>
                </vertices>
                <triangles count="288" material="default_ai_0.2_sh_0.2_tr_0.0_dc_r_0.8_g_0.8_b_0.8_sc_r_1.0_g_1.0_b_1.0_ec_r_0.0_g_0.0_b_0_tri">
                    <input offset="0" semantic="VERTEX" source="#geometry0-vertex"/>
                    <input offset="1" semantic="NORMAL" source="#geometry0-normal"/>
                    <p>34 0 35 1 47 2 34 3 47 4 46 5 35 6 36 7 48 8 35 9 48 10 47 11 36 12 26 13 38 14 36 15 38 16 48 17 38 18 37 19 49 20 38 21 49 22 50 23 37 24 39 25 51 26 37 27 51 28 49 29 39 30 40 31 52 32 39 33 52 34 51 35 40 36 41 37 53 38 40 39 53 40 52 41 41 42 42 43 54 44 41 45 54 46 53 47 42 48 43 49 55 50 42 51 55 52 54 53 43 54 44 55 56 56 43 57 56 58 55 59 44 60 45 61 57 62 44 63 57 64 56 65 45 66 46 67 58 68 45 69 58 70 57 71 46 72 47 73 59 74 46 75 59 76 58 77 47 78 48 79 60 80 47 81 60 82 59 83 48 84 38 85 50 86 48 87 50 88 60 89 50 90 49 91 61 92 50 93 61 94 62 95 49 96 51 97 63 98 49 99 63 100 61 101 51 102 52 103 64 104 51 105 64 106 63 107 52 108 53 109 65 110 52 111 65 112 64 113 53 114 54 115 66 116 53 117 66 118 65 119 54 120 55 121 67 122 54 123 67 124 66 125 55 126 56 127 68 128 55 129 68 130 67 131 56 132 57 133 69 134 56 135 69 136 68 137 57 138 58 139 70 140 57 141 70 142 69 143 58 144 59 145 71 146 58 147 71 148 70 149 59 150 60 151 72 152 59 153 72 154 71 155 60 156 50 157 62 158 60 159 62 160 72 161 62 162 61 163 73 164 62 165 73 166 74 167 61 168 63 169 75 170 61 171 75 172 73 173 63 174 64 175 76 176 63 177 76 178 75 179 64 180 65 181 77 182 64 183 77 184 76 185 65 186 66 187 78 188 65 189 78 190 77 191 66 192 67 193 79 194 66 195 79 196 78 197 67 198 68 199 80 200 67 201 80 202 79 203 68 204 69 205 81 206 68 207 81 208 80 209 69 210 70 211 82 212 69 213 82 214 81 215 70 216 71 217 83 218 70 219 83 220 82 221 71 222 72 223 84 224 71 225 84 226 83 227 72 228 62 229 74 230 72 231 74 232 84 233 74 234 73 235 85 236 74 237 85 238 86 239 73 240 75 241 87 242 73 243 87 244 85 245 75 246 76 247 88 248 75 249 88 250 87 251 76 252 77 253 89 254 76 255 89 256 88 257 77 258 78 259 90 260 77 261 90 262 89 263 78 264 79 265 91 266 78 267 91 268 90 269 79 270 80 271 92 272 79 273 92 274 91 275 80 276 81 277 93 278 80 279 93 280 92 281 81 282 82 283 94 284 81 285 94 286 93 287 82 288 83 289 95 290 82 291 95 292 94 293 83 294 84 295 96 296 83 297 96 298 95 299 84 300 74 301 86 302 84 303 86 304 96 305 86 306 85 307 97 308 86 309 97 310 98 311 85 312 87 313 99 314 85 315 99 316 97 317 87 318 88 319 100 320 87 321 100 322 99 323 88 324 89 325 101 326 88 327 101 328 100 329 89 330 90 331 102 332 89 333 102 334 101 335 90 336 91 337 103 338 90 339 103 340 102 341 91 342 92 343 104 344 91 345 104 346 103 347 92 348 93 349 105 350 92 351 105 352 104 353 93 354 94 355 106 356 93 357 106 358 105 359 94 360 95 361 107 362 94 363 107 364 106 365 95 366 96 367 108 368 95 369 108 370 107 371 96 372 86 373 98 374 96 375 98 376 108 377 98 378 97 379 109 380 98 381 109 382 110 383 97 384 99 385 111 386 97 387 111 388 109 389 99 390 100 391 112 392 99 393 112 394 111 395 100 396 101 397 113 398 100 399 113 400 112 401 101 402 102 403 114 404 101 405 114 406 113 407 102 408 103 409 115 410 102 411 115 412 114 413 103 414 104 415 116 416 103 417 116 418 115 419 104 420 105 421 117 422 104 423 117 424 116 425 105 426 106 427 118 428 105 429 118 430 117 431 106 432 107 433 119 434 106 435 119 436 118 437 107 438 108 439 120 440 107 441 120 442 119 443 108 444 98 445 110 446 108 447 110 448 120 449 110 450 109 451 121 452 110 453 121 454 122 455 109 456 111 457 123 458 109 459 123 460 121 461 111 462 112 463 124 464 111 465 124 466 123 467 112 468 113 469 125 470 112 471 125 472 124 473 113 474 114 475 126 476 113 477 126 478 125 479 114 480 115 481 127 482 114 483 127 484 126 485 115 486 116 487 128 488 115 489 128 490 127 491 116 492 117 493 129 494 116 495 129 496 128 497 117 498 118 499 130 500 117 501 130 502 129 503 118 504 119 505 131 506 118 507 131 508 130 509 119 510 120 511 132 512 119 513 132 514 131 515 120 516 110 517 122 518 120 519 122 520 132 521 122 522 121 523 133 524 122 525 133 526 133 526 121 527 123 528 133 529 121 530 133 531 133 531 123 532 124 533 133 534 123 535 133 536 133 536 124 537 125 538 133 539 124 540 133 541 133 541 125 542 126 543 133 544 125 545 133 546 133 546 126 547 127 548 133 549 126 550 133 551 133 551 127 552 128 553 133 554 127 555 133 556 133 556 128 557 129 558 133 559 128 560 133 561 133 561 129 562 130 563 133 564 129 565 133 566 133 566 130 567 131 568 133 569 130 570 133 571 133 571 131 572 132 573 133 574 131 575 133 576 133 576 132 577 122 578 133 579 132 580 133 581 133 581 0 582 0 582 1 583 0 584 1 585 2 586 0 587 0 587 3 588 0 589 3 590 1 591 0 592 0 592 4 593 0 594 4 595 3 596 0 597 0 597 5 598 0 599 5 600 4 601 0 602 0 602 6 603 0 604 6 605 5 606 0 607 0 607 7 608 0 609 7 610 6 611 0 612 0 612 8 613 0 614 8 615 7 616 0 617 0 617 9 618 0 619 9 620 8 621 0 622 0 622 10 623 0 624 10 625 9 626 0 627 0 627 11 628 0 629 11 630 10 631 0 632 0 632 12 633 0 634 12 635 11 636 0 637 0 637 2 638 0 639 2 640 12 641 2 642 1 643 13 644 2 645 13 646 14 647 1 648 3 649 15 650 1 651 15 652 13 653 3 654 4 655 16 656 3 657 16 658 15 659 4 660 5 661 17 662 4 663 17 664 16 665 5 666 6 667 18 668 5 669 18 670 17 671 6 672 7 673 19 674 6 675 19 676 18 677 7 678 8 679 20 680 7 681 20 682 19 683 8 684 9 685 21 686 8 687 21 688 20 689 9 690 10 691 22 692 9 693 22 694 21 695 10 696 11 697 23 698 10 699 23 700 22 701 11 702 12 703 24 704 11 705 24 706 23 707 12 708 2 709 14 710 12 711 14 712 24 713 14 714 13 715 25 716 14 717 25 718 26 719 13 720 15 721 27 722 13 723 27 724 25 725 15 726 16 727 28 728 15 729 28 730 27 731 16 732 17 733 29 734 16 735 29 736 28 737 17 738 18 739 30 740 17 741 30 742 29 743 18 744 19 745 31 746 18 747 31 748 30 749 19 750 20 751 32 752 19 753 32 754 31 755 20 756 21 757 33 758 20 759 33 760 32 761 21 762 22 763 34 764 21 765 34 766 33 767 22 768 23 769 35 770 22 771 35 772 34 773 23 774 24 775 36 776 23 777 36 778 35 779 24 780 14 781 26 782 24 783 26 784 36 785 26 786 25 787 37 788 26 789 37 790 38 791 25 792 27 793 39 794 25 795 39 796 37 797 27 798 28 799 40 800 27 801 40 802 39 803 28 804 29 805 41 806 28 807 41 808 40 809 29 810 30 811 42 812 29 813 42 814 41 815 30 816 31 817 43 818 30 819 43 820 42 821 31 822 32 823 44 824 31 825 44 826 43 827 32 828 33 829 45 830 32 831 45 832 44 833 33 834 34 835 46 836 33 837 46 838 45 839</p>
                </triangles>
            </mesh>
        </geometry>
    </library_geometries>
    <library_visual_scenes>
        <visual_scene id="Building_135_CROWN1">
            <node>
                <instance_geometry url="#geometry0">
                    <bind_material>
                        <technique_common>
                            <instance_material symbol="default_ai_0.2_sh_0.2_tr_0.0_dc_r_0.8_g_0.8_b_0.8_sc_r_1.0_g_1.0_b_1.0_ec_r_0.0_g_0.0_b_0_tri" target="#default_ai_0.2_sh_0.2_tr_0.0_dc_r_0.8_g_0.8_b_0.8_sc_r_1.0_g_1.0_b_1.0_ec_r_0.0_g_0.0_b_0_mat"/>
                        </technique_common>
                    </bind_material>
                </instance_geometry>
            </node>
        </visual_scene>
    </library_visual_scenes>
    <scene>
        <instance_visual_scene url="#Building_135_CROWN1"/>
    </scene>
</COLLADA>
