<?xml version="1.0" encoding="UTF-8" standalone="yes"?>
<COLLADA xmlns="http://www.collada.org/2005/11/COLLADASchema" version="1.4.1">
    <asset>
        <contributor>
            <authoring_tool>3D City Database Importer/Exporter, version 5.5.3; Chair of Geoinformatics, Technical University of Munich</authoring_tool>
        </contributor>
        <created>2026-09-25T14:44:57.362</created>
        <modified>2026-09-25T14:44:57.362</modified>
        <unit meter="1.0" name="meters"/>
        <up_axis>Z_UP</up_axis>
    </asset>
    <library_materials>
        <material id="default_ai_0.2_sh_0.2_tr_0.0_dc_r_0.8_g_0.8_b_0.8_sc_r_1.0_g_1.0_b_1.0_ec_r_0.0_g_0.0_b_0_mat">
            <instance_effect url="#default_ai_0.2_sh_0.2_tr_0.0_dc_r_0.8_g_0.8_b_0.8_sc_r_1.0_g_1.0_b_1.0_ec_r_0.0_g_0.0_b_0_eff"/>
        </material>
    </library_materials>
    <library_effects>
        <effect id="default_ai_0.2_sh_0.2_tr_0.0_dc_r_0.8_g_0.8_b_0.8_sc_r_1.0_g_1.0_b_1.0_ec_r_0.0_g_0.0_b_0_eff">
            <profile_COMMON>
                <technique sid="COMMON">
                    <lambert>
                        <emission>
                            <color>0.0 0.0 0.0 1.0</color>
                        </emission>
                        <diffuse>
                            <color>0.8 0.8 0.8 1.0</color>
                        </diffuse>
                        <reflective>
                            <color>1.0 1.0 1.0 1.0</color>
                        </reflective>
                        <reflectivity>
                            <float>0.2</float>
                        </reflectivity>
                        <transparent opaque="A_ONE">
                            <color>1.0 1.0 1.0 1.0</color>
                        </transparent>
                        <transparency>
                            <float>1.0</float>
                        </transparency>
                    </lambert>
                </technique>
                <extra>
                    <technique profile="GOOGLEEARTH">
                        <double_sided>0</double_sided>
                    </technique>
                </extra>
            </profile_COMMON>
        </effect>
    </library_effects>
    <library_geometries>
        <geometry id="geometry0">
            <mesh>
                <source id="geometry0-position">
                    <float_array id="geometry0-position-array" count="402">0.0 0.0 4.0 0.448288 0.25882 3.931852 0.517638 0.0 3.931852 0.25882 0.448288 3.931852 0.0 0.517638 3.931852 -0.25882 0.448288 3.931852 -0.448288 0.25882 3.931852 -0.517638 0.0 3.931852 -0.448288 -0.25882 3.931852 -0.25882 -0.448288 3.931852 0.0 -0.517638 3.931852 0.25882 -0.448288 3.931852 0.448288 -0.25882 3.931852 0.866026 0.5 3.73205 1.0 0.0 3.73205 0.5 0.866026 3.73205 0.0 1.0 3.73205 -0.5 0.866026 3.73205 -0.866026 0.5 3.73205 -1.0 0.0 3.73205 -0.866026 -0.5 3.73205 -0.5 -0.866026 3.73205 0.0 -1.0 3.73205 0.5 -0.866026 3.73205 0.866026 -0.5 3.73205 1.224744 0.707106 3.414212 1.414214 0.0 3.414212 0.707106 1.224744 3.414212 0.0 1.414214 3.414212 -0.707106 1.224744 3.414212 -1.224744 0.707106 3.414212 -1.414214 0.0 3.414212 -1.224744 -0.707106 3.414212 -0.707106 -1.224744 3.414212 0.0 -1.414214 3.414212 0.707106 -1.224744 3.414212 1.224744 -0.707106 3.414212 1.5 0.866026 3.0 1.73205 0.0 3.0 0.866026 1.5 3.0 0.0 1.73205 3.0 -0.866026 1.5 3.0 -1.5 0.866026 3.0 -1.73205 0.0 3.0 -1.5 -0.866026 3.0 -0.866026 -1.5 3.0 0.0 -1.73205 3.0 0.866026 -1.5 3.0 1.5 -0.866026 3.0 1.673032 0.965926 2.517638 1.931852 0.0 2.517638 0.965926 1.673032 2.517638 0.0 1.931852 2.517638 -0.965926 1.673032 2.517638 -1.673032 0.965926 2.517638 -1.931852 0.0 2.517638 -1.673032 -0.965926 2.517638 -0.965926 -1.673032 2.517638 0.0 -1.931852 2.517638 0.965926 -1.673032 2.517638 1.673032 -0.965926 2.517638 1.73205 1.0 2.0 2.0 0.0 2.0 1.0 1.73205 2.0 0.0 2.0 2.0 -1.0 1.73205 2.0 -1.73205 1.0 2.0 -2.0 0.0 2.0 -1.73205 -1.0 2.0 -1.0 -1.73205 2.0 0.0 -2.0 2.0 1.0 -1.73205 2.0 1.73205 -1.0 2.0 1.673032 0.965926 1.482362 1.931852 0.0 1.482362 0.965926 1.673032 1.482362 0.0 1.931852 1.482362 -0.965926 1.673032 1.482362 -1.673032 0.965926 1.482362 -1.931852 0.0 1.482362 -1.673032 -0.965926 1.482362 -0.965926 -1.673032 1.482362 0.0 -1.931852 1.482362 0.965926 -1.673032 1.482362 1.673032 -0.965926 1.482362 1.5 0.866026 1.0 1.73205 0.0 1.0 0.866026 1.5 1.0 0.0 1.73205 1.0 -0.866026 1.5 1.0 -1.5 0.866026 1.0 -1.73205 0.0 1.0 -1.5 -0.866026 1.0 -0.866026 -1.5 1.0 0.0 -1.73205 1.0 0.866026 -1.5 1.0 1.5 -0.866026 1.0 1.224744 0.707106 0.585786 1.414214 0.0 0.585786 0.707106 1.224744 0.585786 0.0 1.414214 0.585786 -0.707106 1.224744 0.585786 -1.224744 0.707106 0.585786 -1.414214 0.0 0.585786 -1.224744 -0.707106 0.585786 -0.707106 -1.224744 0.585786 0.0 -1.414214 0.585786 0.707106 -1.224744 0.585786 1.224744 -0.707106 0.585786 0.866026 0.5 0.267948 1.0 0.0 0.267948 0.5 0.866026 0.267948 0.0 1.0 0.267948 -0.5 0.866026 0.267948 -0.866026 0.5 0.267948 -1.0 0.0 0.267948 -0.866026 -0.5 0.267948 -0.5 -0.866026 0.267948 0.0 -1.0 0.267948 0.5 -0.866026 0.267948 0.866026 -0.5 0.267948 0.448288 0.25882 0.068148 0.517638 0.0 0.068148 0.25882 0.448288 0.068148 0.0 0.517638 0.068148 -0.25882 0.448288 0.068148 -0.448288 0.25882 0.068148 -0.517638 0.0 0.068148 -0.448288 -0.25882 0.068148 -0.25882 -0.448288 0.068148 0.0 -0.517638 0.068148 0.25882 -0.448288 0.068148 0.448288 -0.25882 0.068148 0.0 0.0 0.0</float_array>
                    <technique_common>
                        <accessor count="134" source="#geometry0-position-array" stride="3">
                            <param name="X" type="float"/>
                            <param name="Y" type="float"/>
                            <param name="Z" type="float"/>
                        </accessor>
                    </technique_common>
                </source>
                <source id="geometry0-normal">
                    <float_array id="geometry0-normal-array" count="2520">-0.0349526 -0.1304458 0.9908391 -0.0349526 -0.1304458 0.9908391 -0.0349526 -0.1304458 0.9908391 1.0 0.0 0.0 1.0 0.0 0.0 0.0349526 -0.1304458 0.9908391 0.0349526 -0.1304458 0.9908391 0.0349526 -0.1304458 0.9908391 1.0 0.0 0.0 1.0 0.0 0.0 0.0954928 -0.0954928 0.9908392 0.0954928 -0.0954928 0.9908392 0.0954928 -0.0954928 0.9908392 1.0 0.0 0.0 1.0 0.0 0.0 0.1304458 -0.0349526 0.9908391 0.1304458 -0.0349526 0.9908391 0.1304458 -0.0349526 0.9908391 1.0 0.0 0.0 1.0 0.0 0.0 0.1304458 0.0349526 0.9908391 0.1304458 0.0349526 0.9908391 0.1304458 0.0349526 0.9908391 1.0 0.0 0.0 1.0 0.0 0.0 0.0954928 0.0954928 0.9908392 0.0954928 0.0954928 0.9908392 0.0954928 0.0954928 0.9908392 1.0 0.0 0.0 1.0 0.0 0.0 0.0349526 0.1304458 0.9908391 0.0349526 0.1304458 0.9908391 0.0349526 0.1304458 0.9908391 1.0 0.0 0.0 1.0 0.0 0.0 -0.0349526 0.1304458 0.9908391 -0.0349526 0.1304458 0.9908391 -0.0349526 0.1304458 0.9908391 1.0 0.0 0.0 1.0 0.0 0.0 -0.0954928 0.0954928 0.9908392 -0.0954928 0.0954928 0.9908392 -0.0954928 0.0954928 0.9908392 1.0 0.0 0.0 1.0 0.0 0.0 -0.1304458 0.0349526 0.9908391 -0.1304458 0.0349526 0.9908391 -0.1304458 0.0349526 0.9908391 1.0 0.0 0.0 1.0 0.0 0.0 1.0 0.0 0.0 1.0 0.0 0.0 -0.1304456 -0.0349525 -0.9908392 -0.1304456 -0.0349525 -0.9908392 -0.1304456 -0.0349525 -0.9908392 1.0 0.0 0.0 1.0 0.0 0.0 -0.0954926 -0.0954926 -0.9908392 -0.0954926 -0.0954926 -0.9908392 -0.0954926 -0.0954926 -0.9908392 1.0 0.0 0.0 1.0 0.0 0.0 -0.0349525 -0.1304456 -0.9908392 -0.0349525 -0.1304456 -0.9908392 -0.0349525 -0.1304456 -0.9908392 1.0 0.0 0.0 1.0 0.0 0.0 0.0349525 -0.1304456 -0.9908392 0.0349525 -0.1304456 -0.9908392 0.0349525 -0.1304456 -0.9908392 1.0 0.0 0.0 1.0 0.0 0.0 0.0954926 -0.0954926 -0.9908392 0.0954926 -0.0954926 -0.9908392 0.0954926 -0.0954926 -0.9908392 1.0 0.0 0.0 1.0 0.0 0.0 0.1304456 -0.0349525 -0.9908392 0.1304456 -0.0349525 -0.9908392 0.1304456 -0.0349525 -0.9908392 1.0 0.0 0.0 1.0 0.0 0.0 0.1304456 0.0349525 -0.9908392 0.1304456 0.0349525 -0.9908392 0.1304456 0.0349525 -0.9908392 1.0 0.0 0.0 1.0 0.0 0.0 0.0954926 0.0954926 -0.9908392 0.0954926 0.0954926 -0.9908392 0.0954926 0.0954926 -0.9908392 1.0 0.0 0.0 1.0 0.0 0.0 0.0349525 0.1304456 -0.9908392 0.0349525 0.1304456 -0.9908392 0.0349525 0.1304456 -0.9908392 1.0 0.0 0.0 1.0 0.0 0.0 -0.0349525 0.1304456 -0.9908392 -0.0349525 0.1304456 -0.9908392 -0.0349525 0.1304456 -0.9908392 1.0 0.0 0.0 1.0 0.0 0.0 -0.0954926 0.0954926 -0.9908392 -0.0954926 0.0954926 -0.9908392 -0.0954926 0.0954926 -0.9908392 1.0 0.0 0.0 1.0 0.0 0.0 -0.1304456 0.0349525 -0.9908392 -0.1304456 0.0349525 -0.9908392 -0.1304456 0.0349525 -0.9908392 -0.3806898 -0.1020047 -0.9190595 -0.3806898 -0.1020047 -0.9190595 -0.3806898 -0.1020047 -0.9190595 -0.3806894 -0.102005 -0.9190597 -0.3806894 -0.102005 -0.9190597 -0.3806894 -0.102005 -0.9190597 -0.2786842 -0.2786842 -0.9190594 -0.2786842 -0.2786842 -0.9190594 -0.2786842 -0.2786842 -0.9190594 -0.2786842 -0.2786842 -0.9190594 -0.2786842 -0.2786842 -0.9190594 -0.2786842 -0.2786842 -0.9190594 -0.1020046 -0.3806894 -0.9190596 -0.1020046 -0.3806894 -0.9190596 -0.1020046 -0.3806894 -0.9190596 -0.102005 -0.3806896 -0.9190595 -0.102005 -0.3806896 -0.9190595 -0.102005 -0.3806896 -0.9190595 0.1020047 -0.3806898 -0.9190595 0.1020047 -0.3806898 -0.9190595 0.1020047 -0.3806898 -0.9190595 0.102005 -0.3806894 -0.9190597 0.102005 -0.3806894 -0.9190597 0.102005 -0.3806894 -0.9190597 0.2786842 -0.2786842 -0.9190594 0.2786842 -0.2786842 -0.9190594 0.2786842 -0.2786842 -0.9190594 0.2786842 -0.2786842 -0.9190594 0.2786842 -0.2786842 -0.9190594 0.2786842 -0.2786842 -0.9190594 0.3806894 -0.1020046 -0.9190596 0.3806894 -0.1020046 -0.9190596 0.3806894 -0.1020046 -0.9190596 0.3806896 -0.102005 -0.9190595 0.3806896 -0.102005 -0.9190595 0.3806896 -0.102005 -0.9190595 0.3806898 0.1020047 -0.9190595 0.3806898 0.1020047 -0.9190595 0.3806898 0.1020047 -0.9190595 0.3806894 0.102005 -0.9190597 0.3806894 0.102005 -0.9190597 0.3806894 0.102005 -0.9190597 0.2786842 0.2786842 -0.9190594 0.2786842 0.2786842 -0.9190594 0.2786842 0.2786842 -0.9190594 0.2786842 0.2786842 -0.9190594 0.2786842 0.2786842 -0.9190594 0.2786842 0.2786842 -0.9190594 0.1020046 0.3806894 -0.9190596 0.1020046 0.3806894 -0.9190596 0.1020046 0.3806894 -0.9190596 0.102005 0.3806896 -0.9190595 0.102005 0.3806896 -0.9190595 0.102005 0.3806896 -0.9190595 -0.1020047 0.3806898 -0.9190595 -0.1020047 0.3806898 -0.9190595 -0.1020047 0.3806898 -0.9190595 -0.102005 0.3806894 -0.9190597 -0.102005 0.3806894 -0.9190597 -0.102005 0.3806894 -0.9190597 -0.2786842 0.2786842 -0.9190594 -0.2786842 0.2786842 -0.9190594 -0.2786842 0.2786842 -0.9190594 -0.2786842 0.2786842 -0.9190594 -0.2786842 0.2786842 -0.9190594 -0.2786842 0.2786842 -0.9190594 -0.3806894 0.1020046 -0.9190596 -0.3806894 0.1020046 -0.9190596 -0.3806894 0.1020046 -0.9190596 -0.3806896 0.102005 -0.9190595 -0.3806896 0.102005 -0.9190595 -0.3806896 0.102005 -0.9190595 -0.6008234 -0.1609894 -0.7830029 -0.6008234 -0.1609894 -0.7830029 -0.6008234 -0.1609894 -0.7830029 -0.6008211 -0.1609909 -0.7830045 -0.6008211 -0.1609909 -0.7830045 -0.6008211 -0.1609909 -0.7830045 -0.439833 -0.439833 -0.7830031 -0.439833 -0.439833 -0.7830031 -0.439833 -0.439833 -0.7830031 -0.439833 -0.439833 -0.7830031 -0.439833 -0.439833 -0.7830031 -0.439833 -0.439833 -0.7830031 -0.1609889 -0.6008213 -0.7830046 -0.1609889 -0.6008213 -0.7830046 -0.1609889 -0.6008213 -0.7830046 -0.1609913 -0.6008226 -0.7830032 -0.1609913 -0.6008226 -0.7830032 -0.1609913 -0.6008226 -0.7830032 0.1609894 -0.6008234 -0.7830029 0.1609894 -0.6008234 -0.7830029 0.1609894 -0.6008234 -0.7830029 0.1609909 -0.6008211 -0.7830045 0.1609909 -0.6008211 -0.7830045 0.1609909 -0.6008211 -0.7830045 0.439833 -0.439833 -0.7830031 0.439833 -0.439833 -0.7830031 0.439833 -0.439833 -0.7830031 0.439833 -0.439833 -0.7830031 0.439833 -0.439833 -0.7830031 0.439833 -0.439833 -0.7830031 0.6008213 -0.1609889 -0.7830046 0.6008213 -0.1609889 -0.7830046 0.6008213 -0.1609889 -0.7830046 0.6008226 -0.1609913 -0.7830032 0.6008226 -0.1609913 -0.7830032 0.6008226 -0.1609913 -0.7830032 0.6008234 0.1609894 -0.7830029 0.6008234 0.1609894 -0.7830029 0.6008234 0.1609894 -0.7830029 0.6008211 0.1609909 -0.7830045 0.6008211 0.1609909 -0.7830045 0.6008211 0.1609909 -0.7830045 0.439833 0.439833 -0.7830031 0.439833 0.439833 -0.7830031 0.439833 0.439833 -0.7830031 0.439833 0.439833 -0.7830031 0.439833 0.439833 -0.7830031 0.439833 0.439833 -0.7830031 0.1609889 0.6008213 -0.7830046 0.1609889 0.6008213 -0.7830046 0.1609889 0.6008213 -0.7830046 0.1609913 0.6008226 -0.7830032 0.1609913 0.6008226 -0.7830032 0.1609913 0.6008226 -0.7830032 -0.1609894 0.6008234 -0.7830029 -0.1609894 0.6008234 -0.7830029 -0.1609894 0.6008234 -0.7830029 -0.1609909 0.6008211 -0.7830045 -0.1609909 0.6008211 -0.7830045 -0.1609909 0.6008211 -0.7830045 -0.439833 0.439833 -0.7830031 -0.439833 0.439833 -0.7830031 -0.439833 0.439833 -0.7830031 -0.439833 0.439833 -0.7830031 -0.439833 0.439833 -0.7830031 -0.439833 0.439833 -0.7830031 -0.6008213 0.1609889 -0.7830046 -0.6008213 0.1609889 -0.7830046 -0.6008213 0.1609889 -0.7830046 -0.6008226 0.1609913 -0.7830032 -0.6008226 0.1609913 -0.7830032 -0.6008226 0.1609913 -0.7830032 -0.7760105 -0.2079331 -0.5954591 -0.7760105 -0.2079331 -0.5954591 -0.7760105 -0.2079331 -0.5954591 -0.7760135 -0.2079313 -0.5954559 -0.7760135 -0.2079313 -0.5954559 -0.7760135 -0.2079313 -0.5954559 -0.5680793 -0.5680793 -0.5954593 -0.5680793 -0.5680793 -0.5954593 -0.5680793 -0.5680793 -0.5954593 -0.5680792 -0.5680792 -0.5954593 -0.5680792 -0.5680792 -0.5954593 -0.5680792 -0.5680792 -0.5954593 -0.2079338 -0.776013 -0.5954555 -0.2079338 -0.776013 -0.5954555 -0.2079338 -0.776013 -0.5954555 -0.2079307 -0.7760113 -0.5954588 -0.2079307 -0.7760113 -0.5954588 -0.2079307 -0.7760113 -0.5954588 0.2079331 -0.7760105 -0.5954591 0.2079331 -0.7760105 -0.5954591 0.2079331 -0.7760105 -0.5954591 0.2079313 -0.7760135 -0.5954559 0.2079313 -0.7760135 -0.5954559 0.2079313 -0.7760135 -0.5954559 0.5680793 -0.5680793 -0.5954593 0.5680793 -0.5680793 -0.5954593 0.5680793 -0.5680793 -0.5954593 0.5680792 -0.5680792 -0.5954593 0.5680792 -0.5680792 -0.5954593 0.5680792 -0.5680792 -0.5954593 0.776013 -0.2079338 -0.5954555 0.776013 -0.2079338 -0.5954555 0.776013 -0.2079338 -0.5954555 0.7760113 -0.2079307 -0.5954588 0.7760113 -0.2079307 -0.5954588 0.7760113 -0.2079307 -0.5954588 0.7760105 0.2079331 -0.5954591 0.7760105 0.2079331 -0.5954591 0.7760105 0.2079331 -0.5954591 0.7760135 0.2079313 -0.5954559 0.7760135 0.2079313 -0.5954559 0.7760135 0.2079313 -0.5954559 0.5680793 0.5680793 -0.5954593 0.5680793 0.5680793 -0.5954593 0.5680793 0.5680793 -0.5954593 0.5680792 0.5680792 -0.5954593 0.5680792 0.5680792 -0.5954593 0.5680792 0.5680792 -0.5954593 0.2079338 0.776013 -0.5954555 0.2079338 0.776013 -0.5954555 0.2079338 0.776013 -0.5954555 0.2079307 0.7760113 -0.5954588 0.2079307 0.7760113 -0.5954588 0.2079307 0.7760113 -0.5954588 -0.2079331 0.7760105 -0.5954591 -0.2079331 0.7760105 -0.5954591 -0.2079331 0.7760105 -0.5954591 -0.2079313 0.7760135 -0.5954559 -0.2079313 0.7760135 -0.5954559 -0.2079313 0.7760135 -0.5954559 -0.5680793 0.5680793 -0.5954593 -0.5680793 0.5680793 -0.5954593 -0.5680793 0.5680793 -0.5954593 -0.5680792 0.5680792 -0.5954593 -0.5680792 0.5680792 -0.5954593 -0.5680792 0.5680792 -0.5954593 -0.776013 0.2079338 -0.5954555 -0.776013 0.2079338 -0.5954555 -0.776013 0.2079338 -0.5954555 -0.7760113 0.2079307 -0.5954588 -0.7760113 0.2079307 -0.5954588 -0.7760113 0.2079307 -0.5954588 -0.8968096 -0.2402984 -0.3714691 -0.8968096 -0.2402984 -0.3714691 -0.8968096 -0.2402984 -0.3714691 -0.8968079 -0.2402997 -0.3714721 -0.8968079 -0.2402997 -0.3714721 -0.8968079 -0.2402997 -0.3714721 -0.6565099 -0.6565099 -0.3714691 -0.6565099 -0.6565099 -0.3714691 -0.6565099 -0.6565099 -0.3714691 -0.6565099 -0.6565099 -0.3714692 -0.6565099 -0.6565099 -0.3714692 -0.6565099 -0.6565099 -0.3714692 -0.240298 -0.8968083 -0.3714723 -0.240298 -0.8968083 -0.3714723 -0.240298 -0.8968083 -0.3714723 -0.2403 -0.896809 -0.3714693 -0.2403 -0.896809 -0.3714693 -0.2403 -0.896809 -0.3714693 0.2402984 -0.8968096 -0.3714691 0.2402984 -0.8968096 -0.3714691 0.2402984 -0.8968096 -0.3714691 0.2402997 -0.8968079 -0.3714721 0.2402997 -0.8968079 -0.3714721 0.2402997 -0.8968079 -0.3714721 0.6565099 -0.6565099 -0.3714691 0.6565099 -0.6565099 -0.3714691 0.6565099 -0.6565099 -0.3714691 0.6565099 -0.6565099 -0.3714692 0.6565099 -0.6565099 -0.3714692 0.6565099 -0.6565099 -0.3714692 0.8968083 -0.240298 -0.3714723 0.8968083 -0.240298 -0.3714723 0.8968083 -0.240298 -0.3714723 0.896809 -0.2403 -0.3714693 0.896809 -0.2403 -0.3714693 0.896809 -0.2403 -0.3714693 0.8968096 0.2402984 -0.3714691 0.8968096 0.2402984 -0.3714691 0.8968096 0.2402984 -0.3714691 0.8968079 0.2402997 -0.3714721 0.8968079 0.2402997 -0.3714721 0.8968079 0.2402997 -0.3714721 0.6565099 0.6565099 -0.3714691 0.6565099 0.6565099 -0.3714691 0.6565099 0.6565099 -0.3714691 0.6565099 0.6565099 -0.3714692 0.6565099 0.6565099 -0.3714692 0.6565099 0.6565099 -0.3714692 0.240298 0.8968083 -0.3714723 0.240298 0.8968083 -0.3714723 0.240298 0.8968083 -0.3714723 0.2403 0.896809 -0.3714693 0.2403 0.896809 -0.3714693 0.2403 0.896809 -0.3714693 -0.2402984 0.8968096 -0.3714691 -0.2402984 0.8968096 -0.3714691 -0.2402984 0.8968096 -0.3714691 -0.2402997 0.8968079 -0.3714721 -0.2402997 0.8968079 -0.3714721 -0.2402997 0.8968079 -0.3714721 -0.6565099 0.6565099 -0.3714691 -0.6565099 0.6565099 -0.3714691 -0.6565099 0.6565099 -0.3714691 -0.6565099 0.6565099 -0.3714692 -0.6565099 0.6565099 -0.3714692 -0.6565099 0.6565099 -0.3714692 -0.8968083 0.240298 -0.3714723 -0.8968083 0.240298 -0.3714723 -0.8968083 0.240298 -0.3714723 -0.896809 0.2403 -0.3714693 -0.896809 0.2403 -0.3714693 -0.896809 0.2403 -0.3714693 -0.958209 -0.2567522 -0.12615 -0.958209 -0.2567522 -0.12615 -0.958209 -0.2567522 -0.12615 -0.958209 -0.2567522 -0.12615 -0.958209 -0.2567522 -0.12615 -0.958209 -0.2567522 -0.12615 -0.7014578 -0.7014578 -0.12615 -0.7014578 -0.7014578 -0.12615 -0.7014578 -0.7014578 -0.12615 -0.7014578 -0.7014578 -0.12615 -0.7014578 -0.7014578 -0.12615 -0.7014578 -0.7014578 -0.12615 -0.2567522 -0.958209 -0.12615 -0.2567522 -0.958209 -0.12615 -0.2567522 -0.958209 -0.12615 -0.2567522 -0.958209 -0.12615 -0.2567522 -0.958209 -0.12615 -0.2567522 -0.958209 -0.12615 0.2567522 -0.958209 -0.12615 0.2567522 -0.958209 -0.12615 0.2567522 -0.958209 -0.12615 0.2567522 -0.958209 -0.12615 0.2567522 -0.958209 -0.12615 0.2567522 -0.958209 -0.12615 0.7014578 -0.7014578 -0.12615 0.7014578 -0.7014578 -0.12615 0.7014578 -0.7014578 -0.12615 0.7014578 -0.7014578 -0.12615 0.7014578 -0.7014578 -0.12615 0.7014578 -0.7014578 -0.12615 0.958209 -0.2567522 -0.12615 0.958209 -0.2567522 -0.12615 0.958209 -0.2567522 -0.12615 0.958209 -0.2567522 -0.12615 0.958209 -0.2567522 -0.12615 0.958209 -0.2567522 -0.12615 0.958209 0.2567522 -0.12615 0.958209 0.2567522 -0.12615 0.958209 0.2567522 -0.12615 0.958209 0.2567522 -0.12615 0.958209 0.2567522 -0.12615 0.958209 0.2567522 -0.12615 0.7014578 0.7014578 -0.12615 0.7014578 0.7014578 -0.12615 0.7014578 0.7014578 -0.12615 0.7014578 0.7014578 -0.12615 0.7014578 0.7014578 -0.12615 0.7014578 0.7014578 -0.12615 0.2567522 0.958209 -0.12615 0.2567522 0.958209 -0.12615 0.2567522 0.958209 -0.12615 0.2567522 0.958209 -0.12615 0.2567522 0.958209 -0.12615 0.2567522 0.958209 -0.12615 -0.2567522 0.958209 -0.12615 -0.2567522 0.958209 -0.12615 -0.2567522 0.958209 -0.12615 -0.2567522 0.958209 -0.12615 -0.2567522 0.958209 -0.12615 -0.2567522 0.958209 -0.12615 -0.7014578 0.7014578 -0.12615 -0.7014578 0.7014578 -0.12615 -0.7014578 0.7014578 -0.12615 -0.7014578 0.7014578 -0.12615 -0.7014578 0.7014578 -0.12615 -0.7014578 0.7014578 -0.12615 -0.958209 0.2567522 -0.12615 -0.958209 0.2567522 -0.12615 -0.958209 0.2567522 -0.12615 -0.958209 0.2567522 -0.12615 -0.958209 0.2567522 -0.12615 -0.958209 0.2567522 -0.12615 -0.958209 -0.2567522 0.1261501 -0.958209 -0.2567522 0.1261501 -0.958209 -0.2567522 0.1261501 -0.958209 -0.2567522 0.12615 -0.958209 -0.2567522 0.12615 -0.958209 -0.2567522 0.12615 -0.7014578 -0.7014578 0.12615 -0.7014578 -0.7014578 0.12615 -0.7014578 -0.7014578 0.12615 -0.7014578 -0.7014578 0.12615 -0.7014578 -0.7014578 0.12615 -0.7014578 -0.7014578 0.12615 -0.2567522 -0.958209 0.12615 -0.2567522 -0.958209 0.12615 -0.2567522 -0.958209 0.12615 -0.2567522 -0.958209 0.12615 -0.2567522 -0.958209 0.12615 -0.2567522 -0.958209 0.12615 0.2567522 -0.958209 0.1261501 0.2567522 -0.958209 0.1261501 0.2567522 -0.958209 0.1261501 0.2567522 -0.958209 0.12615 0.2567522 -0.958209 0.12615 0.2567522 -0.958209 0.12615 0.7014578 -0.7014578 0.12615 0.7014578 -0.7014578 0.12615 0.7014578 -0.7014578 0.12615 0.7014578 -0.7014578 0.12615 0.7014578 -0.7014578 0.12615 0.7014578 -0.7014578 0.12615 0.958209 -0.2567522 0.12615 0.958209 -0.2567522 0.12615 0.958209 -0.2567522 0.12615 0.958209 -0.2567522 0.12615 0.958209 -0.2567522 0.12615 0.958209 -0.2567522 0.12615 0.958209 0.2567522 0.1261501 0.958209 0.2567522 0.1261501 0.958209 0.2567522 0.1261501 0.958209 0.2567522 0.12615 0.958209 0.2567522 0.12615 0.958209 0.2567522 0.12615 0.7014578 0.7014578 0.12615 0.7014578 0.7014578 0.12615 0.7014578 0.7014578 0.12615 0.7014578 0.7014578 0.12615 0.7014578 0.7014578 0.12615 0.7014578 0.7014578 0.12615 0.2567522 0.958209 0.12615 0.2567522 0.958209 0.12615 0.2567522 0.958209 0.12615 0.2567522 0.958209 0.12615 0.2567522 0.958209 0.12615 0.2567522 0.958209 0.12615 -0.2567522 0.958209 0.1261501 -0.2567522 0.958209 0.1261501 -0.2567522 0.958209 0.1261501 -0.2567522 0.958209 0.12615 -0.2567522 0.958209 0.12615 -0.2567522 0.958209 0.12615 -0.7014578 0.7014578 0.12615 -0.7014578 0.7014578 0.12615 -0.7014578 0.7014578 0.12615 -0.7014578 0.7014578 0.12615 -0.7014578 0.7014578 0.12615 -0.7014578 0.7014578 0.12615 -0.958209 0.2567522 0.12615 -0.958209 0.2567522 0.12615 -0.958209 0.2567522 0.12615 -0.958209 0.2567522 0.12615 -0.958209 0.2567522 0.12615 -0.958209 0.2567522 0.12615 -0.896809 -0.2403 0.3714693 -0.896809 -0.2403 0.3714693 -0.896809 -0.2403 0.3714693 -0.8968083 -0.240298 0.3714723 -0.8968083 -0.240298 0.3714723 -0.8968083 -0.240298 0.3714723 -0.6565099 -0.6565099 0.3714691 -0.6565099 -0.6565099 0.3714691 -0.6565099 -0.6565099 0.3714691 -0.6565099 -0.6565099 0.3714691 -0.6565099 -0.6565099 0.3714691 -0.6565099 -0.6565099 0.3714691 -0.2402997 -0.8968079 0.3714722 -0.2402997 -0.8968079 0.3714722 -0.2402997 -0.8968079 0.3714722 -0.2402984 -0.8968096 0.3714691 -0.2402984 -0.8968096 0.3714691 -0.2402984 -0.8968096 0.3714691 0.2403 -0.896809 0.3714693 0.2403 -0.896809 0.3714693 0.2403 -0.896809 0.3714693 0.240298 -0.8968083 0.3714723 0.240298 -0.8968083 0.3714723 0.240298 -0.8968083 0.3714723 0.6565099 -0.6565099 0.3714691 0.6565099 -0.6565099 0.3714691 0.6565099 -0.6565099 0.3714691 0.6565099 -0.6565099 0.3714691 0.6565099 -0.6565099 0.3714691 0.6565099 -0.6565099 0.3714691 0.8968079 -0.2402997 0.3714722 0.8968079 -0.2402997 0.3714722 0.8968079 -0.2402997 0.3714722 0.8968096 -0.2402984 0.3714691 0.8968096 -0.2402984 0.3714691 0.8968096 -0.2402984 0.3714691 0.896809 0.2403 0.3714693 0.896809 0.2403 0.3714693 0.896809 0.2403 0.3714693 0.8968083 0.240298 0.3714723 0.8968083 0.240298 0.3714723 0.8968083 0.240298 0.3714723 0.6565099 0.6565099 0.3714691 0.6565099 0.6565099 0.3714691 0.6565099 0.6565099 0.3714691 0.6565099 0.6565099 0.3714691 0.6565099 0.6565099 0.3714691 0.6565099 0.6565099 0.3714691 0.2402997 0.8968079 0.3714722 0.2402997 0.8968079 0.3714722 0.2402997 0.8968079 0.3714722 0.2402984 0.8968096 0.3714691 0.2402984 0.8968096 0.3714691 0.2402984 0.8968096 0.3714691 -0.2403 0.896809 0.3714693 -0.2403 0.896809 0.3714693 -0.2403 0.896809 0.3714693 -0.240298 0.8968083 0.3714723 -0.240298 0.8968083 0.3714723 -0.240298 0.8968083 0.3714723 -0.6565099 0.6565099 0.3714691 -0.6565099 0.6565099 0.3714691 -0.6565099 0.6565099 0.3714691 -0.6565099 0.6565099 0.3714691 -0.6565099 0.6565099 0.3714691 -0.6565099 0.6565099 0.3714691 -0.8968079 0.2402997 0.3714722 -0.8968079 0.2402997 0.3714722 -0.8968079 0.2402997 0.3714722 -0.8968096 0.2402984 0.3714691 -0.8968096 0.2402984 0.3714691 -0.8968096 0.2402984 0.3714691 -0.7760128 -0.2079311 0.5954569 -0.7760128 -0.2079311 0.5954569 -0.7760128 -0.2079311 0.5954569 -0.7760144 -0.2079342 0.5954537 -0.7760144 -0.2079342 0.5954537 -0.7760144 -0.2079342 0.5954537 -0.5680802 -0.5680802 0.5954575 -0.5680802 -0.5680802 0.5954575 -0.5680802 -0.5680802 0.5954575 -0.5680803 -0.5680803 0.5954575 -0.5680803 -0.5680803 0.5954575 -0.5680803 -0.5680803 0.5954575 -0.2079316 -0.7760148 0.595454 -0.2079316 -0.7760148 0.595454 -0.2079316 -0.7760148 0.595454 -0.2079335 -0.7760118 0.5954573 -0.2079335 -0.7760118 0.5954573 -0.2079335 -0.7760118 0.5954573 0.2079311 -0.7760128 0.5954569 0.2079311 -0.7760128 0.5954569 0.2079311 -0.7760128 0.5954569 0.2079342 -0.7760144 0.5954537 0.2079342 -0.7760144 0.5954537 0.2079342 -0.7760144 0.5954537 0.5680802 -0.5680802 0.5954575 0.5680802 -0.5680802 0.5954575 0.5680802 -0.5680802 0.5954575 0.5680803 -0.5680803 0.5954575 0.5680803 -0.5680803 0.5954575 0.5680803 -0.5680803 0.5954575 0.7760148 -0.2079316 0.595454 0.7760148 -0.2079316 0.595454 0.7760148 -0.2079316 0.595454 0.7760118 -0.2079335 0.5954573 0.7760118 -0.2079335 0.5954573 0.7760118 -0.2079335 0.5954573 0.7760128 0.2079311 0.5954569 0.7760128 0.2079311 0.5954569 0.7760128 0.2079311 0.5954569 0.7760144 0.2079342 0.5954537 0.7760144 0.2079342 0.5954537 0.7760144 0.2079342 0.5954537 0.5680802 0.5680802 0.5954575 0.5680802 0.5680802 0.5954575 0.5680802 0.5680802 0.5954575 0.5680803 0.5680803 0.5954575 0.5680803 0.5680803 0.5954575 0.5680803 0.5680803 0.5954575 0.2079316 0.7760148 0.595454 0.2079316 0.7760148 0.595454 0.2079316 0.7760148 0.595454 0.2079335 0.7760118 0.5954573 0.2079335 0.7760118 0.5954573 0.2079335 0.7760118 0.5954573 -0.2079311 0.7760128 0.5954569 -0.2079311 0.7760128 0.5954569 -0.2079311 0.7760128 0.5954569 -0.2079342 0.7760144 0.5954537 -0.2079342 0.7760144 0.5954537 -0.2079342 0.7760144 0.5954537 -0.5680802 0.5680802 0.5954575 -0.5680802 0.5680802 0.5954575 -0.5680802 0.5680802 0.5954575 -0.5680803 0.5680803 0.5954575 -0.5680803 0.5680803 0.5954575 -0.5680803 0.5680803 0.5954575 -0.7760148 0.2079316 0.595454 -0.7760148 0.2079316 0.595454 -0.7760148 0.2079316 0.595454 -0.7760118 0.2079335 0.5954573 -0.7760118 0.2079335 0.5954573 -0.7760118 0.2079335 0.5954573 -0.6008226 -0.1609913 0.7830032 -0.6008226 -0.1609913 0.7830032 -0.6008226 -0.1609913 0.7830032 -0.6008214 -0.1609889 0.7830046 -0.6008214 -0.1609889 0.7830046 -0.6008214 -0.1609889 0.7830046 -0.439833 -0.439833 0.783003 -0.439833 -0.439833 0.783003 -0.439833 -0.439833 0.783003 -0.4398331 -0.4398331 0.783003 -0.4398331 -0.4398331 0.783003 -0.4398331 -0.4398331 0.783003 -0.1609909 -0.6008211 0.7830043 -0.1609909 -0.6008211 0.7830043 -0.1609909 -0.6008211 0.7830043 -0.1609895 -0.6008235 0.7830029 -0.1609895 -0.6008235 0.7830029 -0.1609895 -0.6008235 0.7830029 0.1609913 -0.6008226 0.7830032 0.1609913 -0.6008226 0.7830032 0.1609913 -0.6008226 0.7830032 0.1609889 -0.6008214 0.7830046 0.1609889 -0.6008214 0.7830046 0.1609889 -0.6008214 0.7830046 0.439833 -0.439833 0.783003 0.439833 -0.439833 0.783003 0.439833 -0.439833 0.783003 0.4398331 -0.4398331 0.783003 0.4398331 -0.4398331 0.783003 0.4398331 -0.4398331 0.783003 0.6008211 -0.1609909 0.7830043 0.6008211 -0.1609909 0.7830043 0.6008211 -0.1609909 0.7830043 0.6008235 -0.1609895 0.7830029 0.6008235 -0.1609895 0.7830029 0.6008235 -0.1609895 0.7830029 0.6008226 0.1609913 0.7830032 0.6008226 0.1609913 0.7830032 0.6008226 0.1609913 0.7830032 0.6008214 0.1609889 0.7830046 0.6008214 0.1609889 0.7830046 0.6008214 0.1609889 0.7830046 0.439833 0.439833 0.783003 0.439833 0.439833 0.783003 0.439833 0.439833 0.783003 0.4398331 0.4398331 0.783003 0.4398331 0.4398331 0.783003 0.4398331 0.4398331 0.783003 0.1609909 0.6008211 0.7830043 0.1609909 0.6008211 0.7830043 0.1609909 0.6008211 0.7830043 0.1609895 0.6008235 0.7830029 0.1609895 0.6008235 0.7830029 0.1609895 0.6008235 0.7830029 -0.1609913 0.6008226 0.7830032 -0.1609913 0.6008226 0.7830032 -0.1609913 0.6008226 0.7830032 -0.1609889 0.6008214 0.7830046 -0.1609889 0.6008214 0.7830046 -0.1609889 0.6008214 0.7830046 -0.439833 0.439833 0.783003 -0.439833 0.439833 0.783003 -0.439833 0.439833 0.783003 -0.4398331 0.4398331 0.783003 -0.4398331 0.4398331 0.783003 -0.4398331 0.4398331 0.783003 -0.6008211 0.1609909 0.7830043 -0.6008211 0.1609909 0.7830043 -0.6008211 0.1609909 0.7830043 -0.6008235 0.1609895 0.7830029 -0.6008235 0.1609895 0.7830029 -0.6008235 0.1609895 0.7830029 -0.3806861 -0.1020041 0.9190611 -0.3806861 -0.1020041 0.9190611 -0.3806861 -0.1020041 0.9190611 -0.3806859 -0.1020036 0.9190612 -0.3806859 -0.1020036 0.9190612 -0.3806859 -0.1020036 0.9190612 -0.2786817 -0.2786817 0.9190609 -0.2786817 -0.2786817 0.9190609 -0.2786817 -0.2786817 0.9190609 -0.2786817 -0.2786817 0.9190609 -0.2786817 -0.2786817 0.9190609 -0.2786817 -0.2786817 0.9190609 -0.102004 -0.3806859 0.9190611 -0.102004 -0.3806859 0.9190611 -0.102004 -0.3806859 0.9190611 -0.1020037 -0.3806863 0.919061 -0.1020037 -0.3806863 0.919061 -0.1020037 -0.3806863 0.919061 0.1020041 -0.3806861 0.9190611 0.1020041 -0.3806861 0.9190611 0.1020041 -0.3806861 0.9190611 0.1020036 -0.3806859 0.9190612 0.1020036 -0.3806859 0.9190612 0.1020036 -0.3806859 0.9190612 0.2786817 -0.2786817 0.9190609 0.2786817 -0.2786817 0.9190609 0.2786817 -0.2786817 0.9190609 0.2786817 -0.2786817 0.9190609 0.2786817 -0.2786817 0.9190609 0.2786817 -0.2786817 0.9190609 0.3806859 -0.102004 0.9190611 0.3806859 -0.102004 0.9190611 0.3806859 -0.102004 0.9190611 0.3806863 -0.1020037 0.919061 0.3806863 -0.1020037 0.919061 0.3806863 -0.1020037 0.919061 0.3806861 0.1020041 0.9190611 0.3806861 0.1020041 0.9190611 0.3806861 0.1020041 0.9190611 0.3806859 0.1020036 0.9190612 0.3806859 0.1020036 0.9190612 0.3806859 0.1020036 0.9190612 0.2786817 0.2786817 0.9190609 0.2786817 0.2786817 0.9190609 0.2786817 0.2786817 0.9190609 0.2786817 0.2786817 0.9190609 0.2786817 0.2786817 0.9190609 0.2786817 0.2786817 0.9190609 0.102004 0.3806859 0.9190611 0.102004 0.3806859 0.9190611 0.102004 0.3806859 0.9190611 0.1020037 0.3806863 0.919061 0.1020037 0.3806863 0.919061 0.1020037 0.3806863 0.919061 -0.1020041 0.3806861 0.9190611 -0.1020041 0.3806861 0.9190611 -0.1020041 0.3806861 0.9190611 -0.1020036 0.3806859 0.9190612 -0.1020036 0.3806859 0.9190612 -0.1020036 0.3806859 0.9190612 -0.2786817 0.2786817 0.9190609 -0.2786817 0.2786817 0.9190609 -0.2786817 0.2786817 0.9190609 -0.2786817 0.2786817 0.9190609 -0.2786817 0.2786817 0.9190609 -0.2786817 0.2786817 0.9190609 -0.3806859 0.102004 0.9190611 -0.3806859 0.102004 0.9190611 -0.3806859 0.102004 0.9190611 -0.3806863 0.1020037 0.919061 -0.3806863 0.1020037 0.919061 -0.3806863 0.1020037 0.919061 -0.1304458 -0.0349526 0.9908391 -0.1304458 -0.0349526 0.9908391 -0.1304458 -0.0349526 0.9908391 1.0 0.0 0.0 1.0 0.0 0.0 -0.0954928 -0.0954928 0.9908392 -0.0954928 -0.0954928 0.9908392 -0.0954928 -0.0954928 0.9908392 1.0 0.0 0.0 1.0 0.0 0.0</float_array>
                    <technique_common>
                        <accessor count="840" source="#geometry0-normal-array" stride="3">
                            <param name="X" type="float"/>
                            <param name="Y" type="float"/>
                            <param name="Z" type="float"/>
                        </accessor>
                    </technique_common>
                </source>
                <vertices id="geometry0-vertex">
                    <input semantic="POSITION" source="#geometry0-position"/>
                </vertices>
                <triangles count="288" material="default_ai_0.2_sh_0.2_tr_0.0_dc_r_0.8_g_0.8_b_0.8_sc_r_1.0_g_1.0_b_1.0_ec_r_0.0_g_0.0_b_0_tri">
                    <input offset="0" semantic="VERTEX" source="#geometry0-vertex"/>
                    <input offset="1" semantic="NORMAL" source="#geometry0-normal"/>
                    <p>123 0 124 1 133 2 123 3 133 4 133 4 124 5 125 6 133 7 124 8 133 9 133 9 125 10 126 11 133 12 125 13 133 14 133 14 126 15 127 16 133 17 126 18 133 19 133 19 127 20 128 21 133 22 127 23 133 24 133 24 128 25 129 26 133 27 128 28 133 29 133 29 129 30 130 31 133 32 129 33 133 34 133 34 130 35 131 36 133 37 130 38 133 39 133 39 131 40 132 41 133 42 131 43 133 44 133 44 132 45 122 46 133 47 132 48 133 49 133 49 0 50 0 50 1 51 0 52 1 53 2 54 0 55 0 55 3 56 0 57 3 58 1 59 0 60 0 60 4 61 0 62 4 63 3 64 0 65 0 65 5 66 0 67 5 68 4 69 0 70 0 70 6 71 0 72 6 73 5 74 0 75 0 75 7 76 0 77 7 78 6 79 0 80 0 80 8 81 0 82 8 83 7 84 0 85 0 85 9 86 0 87 9 88 8 89 0 90 0 90 10 91 0 92 10 93 9 94 0 95 0 95 11 96 0 97 11 98 10 99 0 100 0 100 12 101 0 102 12 103 11 104 0 105 0 105 2 106 0 107 2 108 12 109 2 110 1 111 13 112 2 113 13 114 14 115 1 116 3 117 15 118 1 119 15 120 13 121 3 122 4 123 16 124 3 125 16 126 15 127 4 128 5 129 17 130 4 131 17 132 16 133 5 134 6 135 18 136 5 137 18 138 17 139 6 140 7 141 19 142 6 143 19 144 18 145 7 146 8 147 20 148 7 149 20 150 19 151 8 152 9 153 21 154 8 155 21 156 20 157 9 158 10 159 22 160 9 161 22 162 21 163 10 164 11 165 23 166 10 167 23 168 22 169 11 170 12 171 24 172 11 173 24 174 23 175 12 176 2 177 14 178 12 179 14 180 24 181 14 182 13 183 25 184 14 185 25 186 26 187 13 188 15 189 27 190 13 191 27 192 25 193 15 194 16 195 28 196 15 197 28 198 27 199 16 200 17 201 29 202 16 203 29 204 28 205 17 206 18 207 30 208 17 209 30 210 29 211 18 212 19 213 31 214 18 215 31 216 30 217 19 218 20 219 32 220 19 221 32 222 31 223 20 224 21 225 33 226 20 227 33 228 32 229 21 230 22 231 34 232 21 233 34 234 33 235 22 236 23 237 35 238 22 239 35 240 34 241 23 242 24 243 36 244 23 245 36 246 35 247 24 248 14 249 26 250 24 251 26 252 36 253 26 254 25 255 37 256 26 257 37 258 38 259 25 260 27 261 39 262 25 263 39 264 37 265 27 266 28 267 40 268 27 269 40 270 39 271 28 272 29 273 41 274 28 275 41 276 40 277 29 278 30 279 42 280 29 281 42 282 41 283 30 284 31 285 43 286 30 287 43 288 42 289 31 290 32 291 44 292 31 293 44 294 43 295 32 296 33 297 45 298 32 299 45 300 44 301 33 302 34 303 46 304 33 305 46 306 45 307 34 308 35 309 47 310 34 311 47 312 46 313 35 314 36 315 48 316 35 317 48 318 47 319 36 320 26 321 38 322 36 323 38 324 48 325 38 326 37 327 49 328 38 329 49 330 50 331 37 332 39 333 51 334 37 335 51 336 49 337 39 338 40 339 52 340 39 341 52 342 51 343 40 344 41 345 53 346 40 347 53 348 52 349 41 350 42 351 54 352 41 353 54 354 53 355 42 356 43 357 55 358 42 359 55 360 54 361 43 362 44 363 56 364 43 365 56 366 55 367 44 368 45 369 57 370 44 371 57 372 56 373 45 374 46 375 58 376 45 377 58 378 57 379 46 380 47 381 59 382 46 383 59 384 58 385 47 386 48 387 60 388 47 389 60 390 59 391 48 392 38 393 50 394 48 395 50 396 60 397 50 398 49 399 61 400 50 401 61 402 62 403 49 404 51 405 63 406 49 407 63 408 61 409 51 410 52 411 64 412 51 413 64 414 63 415 52 416 53 417 65 418 52 419 65 420 64 421 53 422 54 423 66 424 53 425 66 426 65 427 54 428 55 429 67 430 54 431 67 432 66 433 55 434 56 435 68 436 55 437 68 438 67 439 56 440 57 441 69 442 56 443 69 444 68 445 57 446 58 447 70 448 57 449 70 450 69 451 58 452 59 453 71 454 58 455 71 456 70 457 59 458 60 459 72 460 59 461 72 462 71 463 60 464 50 465 62 466 60 467 62 468 72 469 62 470 61 471 73 472 62 473 73 474 74 475 61 476 63 477 75 478 61 479 75 480 73 481 63 482 64 483 76 484 63 485 76 486 75 487 64 488 65 489 77 490 64 491 77 492 76 493 65 494 66 495 78 496 65 497 78 498 77 499 66 500 67 501 79 502 66 503 79 504 78 505 67 506 68 507 80 508 67 509 80 510 79 511 68 512 69 513 81 514 68 515 81 516 80 517 69 518 70 519 82 520 69 521 82 522 81 523 70 524 71 525 83 526 70 527 83 528 82 529 71 530 72 531 84 532 71 533 84 534 83 535 72 536 62 537 74 538 72 539 74 540 84 541 74 542 73 543 85 544 74 545 85 546 86 547 73 548 75 549 87 550 73 551 87 552 85 553 75 554 76 555 88 556 75 557 88 558 87 559 76 560 77 561 89 562 76 563 89 564 88 565 77 566 78 567 90 568 77 569 90 570 89 571 78 572 79 573 91 574 78 575 91 576 90 577 79 578 80 579 92 580 79 581 92 582 91 583 80 584 81 585 93 586 80 587 93 588 92 589 81 590 82 591 94 592 81 593 94 594 93 595 82 596 83 597 95 598 82 599 95 600 94 601 83 602 84 603 96 604 83 605 96 606 95 607 84 608 74 609 86 610 84 611 86 612 96 613 86 614 85 615 97 616 86 617 97 618 98 619 85 620 87 621 99 622 85 623 99 624 97 625 87 626 88 627 100 628 87 629 100 630 99 631 88 632 89 633 101 634 88 635 101 636 100 637 89 638 90 639 102 640 89 641 102 642 101 643 90 644 91 645 103 646 90 647 103 648 102 649 91 650 92 651 104 652 91 653 104 654 103 655 92 656 93 657 105 658 92 659 105 660 104 661 93 662 94 663 106 664 93 665 106 666 105 667 94 668 95 669 107 670 94 671 107 672 106 673 95 674 96 675 108 676 95 677 108 678 107 679 96 680 86 681 98 682 96 683 98 684 108 685 98 686 97 687 109 688 98 689 109 690 110 691 97 692 99 693 111 694 97 695 111 696 109 697 99 698 100 699 112 700 99 701 112 702 111 703 100 704 101 705 113 706 100 707 113 708 112 709 101 710 102 711 114 712 101 713 114 714 113 715 102 716 103 717 115 718 102 719 115 720 114 721 103 722 104 723 116 724 103 725 116 726 115 727 104 728 105 729 117 730 104 731 117 732 116 733 105 734 106 735 118 736 105 737 118 738 117 739 106 740 107 741 119 742 106 743 119 744 118 745 107 746 108 747 120 748 107 749 120 750 119 751 108 752 98 753 110 754 108 755 110 756 120 757 110 758 109 759 121 760 110 761 121 762 122 763 109 764 111 765 123 766 109 767 123 768 121 769 111 770 112 771 124 772 111 773 124 774 123 775 112 776 113 777 125 778 112 779 125 780 124 781 113 782 114 783 126 784 113 785 126 786 125 787 114 788 115 789 127 790 114 791 127 792 126 793 115 794 116 795 128 796 115 797 128 798 127 799 116 800 117 801 129 802 116 803 129 804 128 805 117 806 118 807 130 808 117 809 130 810 129 811 118 812 119 813 131 814 118 815 131 816 130 817 119 818 120 819 132 820 119 821 132 822 131 823 120 824 110 825 122 826 120 827 122 828 132 829 122 830 121 831 133 832 122 833 133 834 133 834 121 835 123 836 133 837 121 838 133 839 133 839</p>
                </triangles>
            </mesh>
        </geometry>
    </library_geometries>
    <library_visual_scenes>
        <visual_scene id="Building_121_CROWN1">
            <node>
                <instance_geometry url="#geometry0">
                    <bind_material>
                        <technique_common>
                            <instance_material symbol="default_ai_0.2_sh_0.2_tr_0.0_dc_r_0.8_g_0.8_b_0.8_sc_r_1.0_g_1.0_b_1.0_ec_r_0.0_g_0.0_b_0_tri" target="#default_ai_0.2_sh_0.2_tr_0.0_dc_r_0.8_g_0.8_b_0.8_sc_r_1.0_g_1.0_b_1.0_ec_r_0.0_g_0.0_b_0_mat"/>
                        </technique_common>
                    </bind_material>
                </instance_geometry>
            </node>
        </visual_scene>
    </library_visual_scenes>
    <scene>
        <instance_visual_scene url="#Building_121_CROWN1"/>
    </scene>
</COLLADA>
