<?xml version="1.0" encoding="UTF-8" standalone="yes"?>
<COLLADA xmlns="http://www.collada.org/2005/11/COLLADASchema" version="1.4.1">
    <asset>
        <contributor>
            <authoring_tool>3D City Database Importer/Exporter, version 5.5.3; Chair of Geoinformatics, Technical University of Munich</authoring_tool>
        </contributor>
        <created>2026-09-25T14:44:50.129</created>
        <modified>2026-09-25T14:44:50.129</modified>
        <unit meter="1.0" name="meters"/>
        <up_axis>Z_UP</up_axis>
    </asset>
    <library_materials>
        <material id="default_ai_0.2_sh_0.2_tr_0.0_dc_r_0.8_g_0.8_b_0.8_sc_r_1.0_g_1.0_b_1.0_ec_r_0.0_g_0.0_b_0_mat">
            <instance_effect url="#default_ai_0.2_sh_0.2_tr_0.0_dc_r_0.8_g_0.8_b_0.8_sc_r_1.0_g_1.0_b_1.0_ec_r_0.0_g_0.0_b_0_eff"/>
        </material>
    </library_materials>
    <library_effects>
        <effect id="default_ai_0.2_sh_0.2_tr_0.0_dc_r_0.8_g_0.8_b_0.8_sc_r_1.0_g_1.0_b_1.0_ec_r_0.0_g_0.0_b_0_eff">
            <profile_COMMON>
                <technique sid="COMMON">
                    <lambert>
                        <emission>
                            <color>0.0 0.0 0.0 1.0</color>
                        </emission>
                        <diffuse>
                            <color>0.8 0.8 0.8 1.0</color>
                        </diffuse>
                        <reflective>
                            <color>1.0 1.0 1.0 1.0</color>
                        </reflective>
                        <reflectivity>
                            <float>0.2</float>
                        </reflectivity>
                        <transparent opaque="A_ONE">
                            <color>1.0 1.0 1.0 1.0</color>
                        </transparent>
                        <transparency>
                            <float>1.0</float>
                        </transparency>
                    </lambert>
                </technique>
                <extra>
                    <technique profile="GOOGLEEARTH">
                        <double_sided>0</double_sided>
                    </technique>
                </extra>
            </profile_COMMON>
        </effect>
    </library_effects>
    <library_geometries>
        <geometry id="geometry0">
            <mesh>
                <source id="geometry0-position">
                    <float_array id="geometry0-position-array" count="78">0.0 0.0 0.0 -0.0200284 0.07475 0.0 -0.0200284 0.07475 1.84 0.0 0.0 1.84 -0.07475 0.1294716 0.0 -0.07475 0.1294716 1.84 -0.1495 0.1495 0.0 -0.1495 0.1495 1.84 -0.22425 0.1294716 0.0 -0.22425 0.1294716 1.84 -0.2789716 0.07475 0.0 -0.2789716 0.07475 1.84 -0.299 0.0 0.0 -0.299 0.0 1.84 -0.2789716 -0.07475 0.0 -0.2789716 -0.07475 1.84 -0.22425 -0.1294716 0.0 -0.22425 -0.1294716 1.84 -0.1495 -0.1495 0.0 -0.1495 -0.1495 1.84 -0.07475 -0.1294716 0.0 -0.07475 -0.1294716 1.84 -0.0200284 -0.07475 0.0 -0.0200284 -0.07475 1.84 -0.1495 0.0 0.0 -0.1495 0.0 1.84</float_array>
                    <technique_common>
                        <accessor count="26" source="#geometry0-position-array" stride="3">
                            <param name="X" type="float"/>
                            <param name="Y" type="float"/>
                            <param name="Z" type="float"/>
                        </accessor>
                    </technique_common>
                </source>
                <source id="geometry0-normal">
                    <float_array id="geometry0-normal-array" count="432">0.0 0.0 -1.0 0.0 0.0 -1.0 0.0 0.0 -1.0 0.0 0.0 -1.0 0.0 0.0 -1.0 0.0 0.0 -1.0 0.0 0.0 -1.0 0.0 0.0 -1.0 0.0 0.0 -1.0 0.0 0.0 -1.0 0.0 0.0 -1.0 0.0 0.0 -1.0 0.0 0.0 -1.0 0.0 0.0 -1.0 0.0 0.0 -1.0 0.0 0.0 -1.0 0.0 0.0 -1.0 0.0 0.0 -1.0 0.0 0.0 -1.0 0.0 0.0 -1.0 0.0 0.0 -1.0 0.0 0.0 -1.0 0.0 0.0 -1.0 0.0 0.0 -1.0 0.0 0.0 -1.0 0.0 0.0 -1.0 0.0 0.0 -1.0 0.0 0.0 -1.0 0.0 0.0 -1.0 0.0 0.0 -1.0 0.0 0.0 -1.0 0.0 0.0 -1.0 0.0 0.0 -1.0 0.0 0.0 -1.0 0.0 0.0 -1.0 0.0 0.0 -1.0 0.0 0.0 1.0 0.0 0.0 1.0 0.0 0.0 1.0 0.0 0.0 1.0 0.0 0.0 1.0 0.0 0.0 1.0 0.0 0.0 1.0 0.0 0.0 1.0 0.0 0.0 1.0 0.0 0.0 1.0 0.0 0.0 1.0 0.0 0.0 1.0 0.0 0.0 1.0 0.0 0.0 1.0 0.0 0.0 1.0 0.0 0.0 1.0 0.0 0.0 1.0 0.0 0.0 1.0 0.0 0.0 1.0 0.0 0.0 1.0 0.0 0.0 1.0 0.0 0.0 1.0 0.0 0.0 1.0 0.0 0.0 1.0 0.0 0.0 1.0 0.0 0.0 1.0 0.0 0.0 1.0 0.0 0.0 1.0 0.0 0.0 1.0 0.0 0.0 1.0 0.0 0.0 1.0 0.0 0.0 1.0 0.0 0.0 1.0 0.0 0.0 1.0 0.0 0.0 1.0 0.0 0.0 1.0 0.9659284 0.2588094 0.0 0.9659284 0.2588094 0.0 0.9659284 0.2588094 0.0 0.9659284 0.2588094 0.0 0.9659284 0.2588094 0.0 0.9659284 0.2588094 0.0 0.7071068 0.7071068 0.0 0.7071068 0.7071068 0.0 0.7071068 0.7071068 0.0 0.7071068 0.7071068 0.0 0.7071068 0.7071068 0.0 0.7071068 0.7071068 0.0 0.2588094 0.9659284 0.0 0.2588094 0.9659284 0.0 0.2588094 0.9659284 0.0 0.2588094 0.9659284 0.0 0.2588094 0.9659284 0.0 0.2588094 0.9659284 0.0 -0.2588093 0.9659284 0.0 -0.2588093 0.9659284 0.0 -0.2588093 0.9659284 0.0 -0.2588093 0.9659284 0.0 -0.2588093 0.9659284 0.0 -0.2588093 0.9659284 0.0 -0.7071067 0.7071068 0.0 -0.7071067 0.7071068 0.0 -0.7071067 0.7071068 0.0 -0.7071067 0.7071068 0.0 -0.7071067 0.7071068 0.0 -0.7071067 0.7071068 0.0 -0.9659285 0.2588092 0.0 -0.9659285 0.2588092 0.0 -0.9659285 0.2588092 0.0 -0.9659285 0.2588092 0.0 -0.9659285 0.2588092 0.0 -0.9659285 0.2588092 0.0 -0.9659285 -0.2588092 0.0 -0.9659285 -0.2588092 0.0 -0.9659285 -0.2588092 0.0 -0.9659285 -0.2588092 0.0 -0.9659285 -0.2588092 0.0 -0.9659285 -0.2588092 0.0 -0.7071067 -0.7071068 0.0 -0.7071067 -0.7071068 0.0 -0.7071067 -0.7071068 0.0 -0.7071067 -0.7071068 0.0 -0.7071067 -0.7071068 0.0 -0.7071067 -0.7071068 0.0 -0.2588093 -0.9659284 0.0 -0.2588093 -0.9659284 0.0 -0.2588093 -0.9659284 0.0 -0.2588093 -0.9659284 0.0 -0.2588093 -0.9659284 0.0 -0.2588093 -0.9659284 0.0 0.2588094 -0.9659284 0.0 0.2588094 -0.9659284 0.0 0.2588094 -0.9659284 0.0 0.2588094 -0.9659284 0.0 0.2588094 -0.9659284 0.0 0.2588094 -0.9659284 0.0 0.7071068 -0.7071068 0.0 0.7071068 -0.7071068 0.0 0.7071068 -0.7071068 0.0 0.7071068 -0.7071068 0.0 0.7071068 -0.7071068 0.0 0.7071068 -0.7071068 0.0 0.9659284 -0.2588094 0.0 0.9659284 -0.2588094 0.0 0.9659284 -0.2588094 0.0 0.9659284 -0.2588094 0.0 0.9659284 -0.2588094 0.0 0.9659284 -0.2588094 0.0</float_array>
                    <technique_common>
                        <accessor count="144" source="#geometry0-normal-array" stride="3">
                            <param name="X" type="float"/>
                            <param name="Y" type="float"/>
                            <param name="Z" type="float"/>
                        </accessor>
                    </technique_common>
                </source>
                <vertices id="geometry0-vertex">
                    <input semantic="POSITION" source="#geometry0-position"/>
                </vertices>
                <triangles count="48" material="default_ai_0.2_sh_0.2_tr_0.0_dc_r_0.8_g_0.8_b_0.8_sc_r_1.0_g_1.0_b_1.0_ec_r_0.0_g_0.0_b_0_tri">
                    <input offset="0" semantic="VERTEX" source="#geometry0-vertex"/>
                    <input offset="1" semantic="NORMAL" source="#geometry0-normal"/>
                    <p>24 0 1 1 0 2 24 3 4 4 1 5 24 6 6 7 4 8 24 9 8 10 6 11 24 12 10 13 8 14 24 15 12 16 10 17 24 18 14 19 12 20 24 21 16 22 14 23 24 24 18 25 16 26 24 27 20 28 18 29 24 30 22 31 20 32 24 33 0 34 22 35 25 36 3 37 2 38 25 39 2 40 5 41 25 42 5 43 7 44 25 45 7 46 9 47 25 48 9 49 11 50 25 51 11 52 13 53 25 54 13 55 15 56 25 57 15 58 17 59 25 60 17 61 19 62 25 63 19 64 21 65 25 66 21 67 23 68 25 69 23 70 3 71 0 72 1 73 2 74 0 75 2 76 3 77 1 78 4 79 5 80 1 81 5 82 2 83 4 84 6 85 7 86 4 87 7 88 5 89 6 90 8 91 9 92 6 93 9 94 7 95 8 96 10 97 11 98 8 99 11 100 9 101 10 102 12 103 13 104 10 105 13 106 11 107 12 108 14 109 15 110 12 111 15 112 13 113 14 114 16 115 17 116 14 117 17 118 15 119 16 120 18 121 19 122 16 123 19 124 17 125 18 126 20 127 21 128 18 129 21 130 19 131 20 132 22 133 23 134 20 135 23 136 21 137 22 138 0 139 3 140 22 141 3 142 23 143</p>
                </triangles>
            </mesh>
        </geometry>
    </library_geometries>
    <library_visual_scenes>
        <visual_scene id="Building_26_TRUNK2">
            <node>
                <instance_geometry url="#geometry0">
                    <bind_material>
                        <technique_common>
                            <instance_material symbol="default_ai_0.2_sh_0.2_tr_0.0_dc_r_0.8_g_0.8_b_0.8_sc_r_1.0_g_1.0_b_1.0_ec_r_0.0_g_0.0_b_0_tri" target="#default_ai_0.2_sh_0.2_tr_0.0_dc_r_0.8_g_0.8_b_0.8_sc_r_1.0_g_1.0_b_1.0_ec_r_0.0_g_0.0_b_0_mat"/>
                        </technique_common>
                    </bind_material>
                </instance_geometry>
            </node>
        </visual_scene>
    </library_visual_scenes>
    <scene>
        <instance_visual_scene url="#Building_26_TRUNK2"/>
    </scene>
</COLLADA>
