<?xml version="1.0" encoding="UTF-8" standalone="yes"?>
<COLLADA xmlns="http://www.collada.org/2005/11/COLLADASchema" version="1.4.1">
    <asset>
        <contributor>
            <authoring_tool>3D City Database Importer/Exporter, version 5.5.3; Chair of Geoinformatics, Technical University of Munich</authoring_tool>
        </contributor>
        <created>2026-09-25T14:44:53.467</created>
        <modified>2026-09-25T14:44:53.467</modified>
        <unit meter="1.0" name="meters"/>
        <up_axis>Z_UP</up_axis>
    </asset>
    <library_materials>
        <material id="default_ai_0.2_sh_0.2_tr_0.0_dc_r_0.8_g_0.8_b_0.8_sc_r_1.0_g_1.0_b_1.0_ec_r_0.0_g_0.0_b_0_mat">
            <instance_effect url="#default_ai_0.2_sh_0.2_tr_0.0_dc_r_0.8_g_0.8_b_0.8_sc_r_1.0_g_1.0_b_1.0_ec_r_0.0_g_0.0_b_0_eff"/>
        </material>
    </library_materials>
    <library_effects>
        <effect id="default_ai_0.2_sh_0.2_tr_0.0_dc_r_0.8_g_0.8_b_0.8_sc_r_1.0_g_1.0_b_1.0_ec_r_0.0_g_0.0_b_0_eff">
            <profile_COMMON>
                <technique sid="COMMON">
                    <lambert>
                        <emission>
                            <color>0.0 0.0 0.0 1.0</color>
                        </emission>
                        <diffuse>
                            <color>0.8 0.8 0.8 1.0</color>
                        </diffuse>
                        <reflective>
                            <color>1.0 1.0 1.0 1.0</color>
                        </reflective>
                        <reflectivity>
                            <float>0.2</float>
                        </reflectivity>
                        <transparent opaque="A_ONE">
                            <color>1.0 1.0 1.0 1.0</color>
                        </transparent>
                        <transparency>
                            <float>1.0</float>
                        </transparency>
                    </lambert>
                </technique>
                <extra>
                    <technique profile="GOOGLEEARTH">
                        <double_sided>0</double_sided>
                    </technique>
                </extra>
            </profile_COMMON>
        </effect>
    </library_effects>
    <library_geometries>
        <geometry id="geometry0">
            <mesh>
                <source id="geometry0-position">
                    <float_array id="geometry0-position-array" count="402">0.0 0.0 3.3 0.3698376 0.2135265 3.2437779 0.4270514 0.0 3.2437779 0.2135265 0.3698376 3.2437779 0.0 0.4270513 3.2437779 -0.2135265 0.3698376 3.2437779 -0.3698376 0.2135265 3.2437779 -0.4270514 0.0 3.2437779 -0.3698376 -0.2135265 3.2437779 -0.2135265 -0.3698376 3.2437779 0.0 -0.4270513 3.2437779 0.2135265 -0.3698376 3.2437779 0.3698376 -0.2135265 3.2437779 0.7144715 0.4125 3.0789412 0.825 0.0 3.0789412 0.4125 0.7144715 3.0789412 0.0 0.825 3.0789412 -0.4125 0.7144715 3.0789412 -0.7144715 0.4125 3.0789412 -0.825 0.0 3.0789412 -0.7144715 -0.4125 3.0789412 -0.4125 -0.7144715 3.0789412 0.0 -0.825 3.0789412 0.4125 -0.7144715 3.0789412 0.7144715 -0.4125 3.0789412 1.0104138 0.5833624 2.8167265 1.1667265 0.0 2.8167265 0.5833625 1.0104138 2.8167265 0.0 1.1667266 2.8167265 -0.5833625 1.0104138 2.8167265 -1.0104138 0.5833624 2.8167265 -1.1667265 0.0 2.8167265 -1.0104138 -0.5833624 2.8167265 -0.5833625 -1.0104138 2.8167265 0.0 -1.1667266 2.8167265 0.5833625 -1.0104138 2.8167265 1.0104138 -0.5833624 2.8167265 1.2375 0.7144715 2.475 1.4289413 0.0 2.475 0.7144715 1.2375 2.475 0.0 1.4289412 2.475 -0.7144715 1.2375 2.475 -1.2375 0.7144715 2.475 -1.4289413 0.0 2.475 -1.2375 -0.7144715 2.475 -0.7144715 -1.2375 2.475 0.0 -1.4289412 2.475 0.7144715 -1.2375 2.475 1.2375 -0.7144715 2.475 1.3802514 0.796889 2.0770513 1.5937779 0.0 2.0770513 0.7968889 1.3802514 2.0770513 0.0 1.5937779 2.0770513 -0.7968889 1.3802514 2.0770513 -1.3802514 0.796889 2.0770513 -1.5937779 0.0 2.0770513 -1.3802514 -0.796889 2.0770513 -0.7968889 -1.3802514 2.0770513 0.0 -1.5937779 2.0770513 0.7968889 -1.3802514 2.0770513 1.3802514 -0.796889 2.0770513 1.4289413 0.825 1.65 1.65 0.0 1.65 0.825 1.4289412 1.65 0.0 1.65 1.65 -0.825 1.4289412 1.65 -1.4289413 0.825 1.65 -1.65 0.0 1.65 -1.4289413 -0.825 1.65 -0.825 -1.4289412 1.65 0.0 -1.65 1.65 0.825 -1.4289412 1.65 1.4289413 -0.825 1.65 1.3802514 0.796889 1.2229486 1.5937779 0.0 1.2229486 0.7968889 1.3802514 1.2229486 0.0 1.5937779 1.2229486 -0.7968889 1.3802514 1.2229486 -1.3802514 0.796889 1.2229486 -1.5937779 0.0 1.2229486 -1.3802514 -0.796889 1.2229486 -0.7968889 -1.3802514 1.2229486 0.0 -1.5937779 1.2229486 0.7968889 -1.3802514 1.2229486 1.3802514 -0.796889 1.2229486 1.2375 0.7144715 0.825 1.4289413 0.0 0.825 0.7144715 1.2375 0.825 0.0 1.4289412 0.825 -0.7144715 1.2375 0.825 -1.2375 0.7144715 0.825 -1.4289413 0.0 0.825 -1.2375 -0.7144715 0.825 -0.7144715 -1.2375 0.825 0.0 -1.4289412 0.825 0.7144715 -1.2375 0.825 1.2375 -0.7144715 0.825 1.0104138 0.5833624 0.4832734 1.1667265 0.0 0.4832734 0.5833625 1.0104138 0.4832734 0.0 1.1667266 0.4832734 -0.5833625 1.0104138 0.4832734 -1.0104138 0.5833624 0.4832734 -1.1667265 0.0 0.4832734 -1.0104138 -0.5833624 0.4832734 -0.5833625 -1.0104138 0.4832734 0.0 -1.1667266 0.4832734 0.5833625 -1.0104138 0.4832734 1.0104138 -0.5833624 0.4832734 0.7144715 0.4125 0.2210587 0.825 0.0 0.2210587 0.4125 0.7144715 0.2210587 0.0 0.825 0.2210587 -0.4125 0.7144715 0.2210587 -0.7144715 0.4125 0.2210587 -0.825 0.0 0.2210587 -0.7144715 -0.4125 0.2210587 -0.4125 -0.7144715 0.2210587 0.0 -0.825 0.2210587 0.4125 -0.7144715 0.2210587 0.7144715 -0.4125 0.2210587 0.3698376 0.2135265 0.0562221 0.4270514 0.0 0.0562221 0.2135265 0.3698376 0.0562221 0.0 0.4270513 0.0562221 -0.2135265 0.3698376 0.0562221 -0.3698376 0.2135265 0.0562221 -0.4270514 0.0 0.0562221 -0.3698376 -0.2135265 0.0562221 -0.2135265 -0.3698376 0.0562221 0.0 -0.4270513 0.0562221 0.2135265 -0.3698376 0.0562221 0.3698376 -0.2135265 0.0562221 0.0 0.0 0.0</float_array>
                    <technique_common>
                        <accessor count="134" source="#geometry0-position-array" stride="3">
                            <param name="X" type="float"/>
                            <param name="Y" type="float"/>
                            <param name="Z" type="float"/>
                        </accessor>
                    </technique_common>
                </source>
                <source id="geometry0-normal">
                    <float_array id="geometry0-normal-array" count="2520">-0.2079312 0.7760127 0.5954568 -0.2079312 0.7760127 0.5954568 -0.2079312 0.7760127 0.5954568 -0.2079342 0.7760144 0.5954537 -0.2079342 0.7760144 0.5954537 -0.2079342 0.7760144 0.5954537 -0.5680803 0.5680803 0.5954574 -0.5680803 0.5680803 0.5954574 -0.5680803 0.5680803 0.5954574 -0.5680802 0.5680802 0.5954576 -0.5680802 0.5680802 0.5954576 -0.5680802 0.5680802 0.5954576 -0.7760147 0.2079317 0.595454 -0.7760147 0.2079317 0.595454 -0.7760147 0.2079317 0.595454 -0.7760118 0.2079335 0.5954572 -0.7760118 0.2079335 0.5954572 -0.7760118 0.2079335 0.5954572 -0.6008204 -0.1609907 0.7830051 -0.6008204 -0.1609907 0.7830051 -0.6008204 -0.1609907 0.7830051 -0.6008191 -0.1609882 0.7830066 -0.6008191 -0.1609882 0.7830066 -0.6008191 -0.1609882 0.7830066 -0.4398314 -0.4398314 0.7830049 -0.4398314 -0.4398314 0.7830049 -0.4398314 -0.4398314 0.7830049 -0.4398314 -0.4398314 0.7830049 -0.4398314 -0.4398314 0.7830049 -0.4398314 -0.4398314 0.7830049 -0.1609903 -0.6008188 0.7830064 -0.1609903 -0.6008188 0.7830064 -0.1609903 -0.6008188 0.7830064 -0.1609888 -0.6008212 0.7830048 -0.1609888 -0.6008212 0.7830048 -0.1609888 -0.6008212 0.7830048 0.1609907 -0.6008204 0.7830051 0.1609907 -0.6008204 0.7830051 0.1609907 -0.6008204 0.7830051 0.1609882 -0.6008191 0.7830066 0.1609882 -0.6008191 0.7830066 0.1609882 -0.6008191 0.7830066 0.4398314 -0.4398314 0.7830049 0.4398314 -0.4398314 0.7830049 0.4398314 -0.4398314 0.7830049 0.4398314 -0.4398314 0.7830049 0.4398314 -0.4398314 0.7830049 0.4398314 -0.4398314 0.7830049 0.6008188 -0.1609903 0.7830064 0.6008188 -0.1609903 0.7830064 0.6008188 -0.1609903 0.7830064 0.6008212 -0.1609888 0.7830048 0.6008212 -0.1609888 0.7830048 0.6008212 -0.1609888 0.7830048 0.6008204 0.1609907 0.7830051 0.6008204 0.1609907 0.7830051 0.6008204 0.1609907 0.7830051 0.6008191 0.1609882 0.7830066 0.6008191 0.1609882 0.7830066 0.6008191 0.1609882 0.7830066 0.4398314 0.4398314 0.7830049 0.4398314 0.4398314 0.7830049 0.4398314 0.4398314 0.7830049 0.4398314 0.4398314 0.7830049 0.4398314 0.4398314 0.7830049 0.4398314 0.4398314 0.7830049 0.1609903 0.6008188 0.7830064 0.1609903 0.6008188 0.7830064 0.1609903 0.6008188 0.7830064 0.1609888 0.6008212 0.7830048 0.1609888 0.6008212 0.7830048 0.1609888 0.6008212 0.7830048 -0.1609907 0.6008204 0.7830051 -0.1609907 0.6008204 0.7830051 -0.1609907 0.6008204 0.7830051 -0.1609882 0.6008191 0.7830066 -0.1609882 0.6008191 0.7830066 -0.1609882 0.6008191 0.7830066 -0.4398314 0.4398314 0.7830049 -0.4398314 0.4398314 0.7830049 -0.4398314 0.4398314 0.7830049 -0.4398314 0.4398314 0.7830049 -0.4398314 0.4398314 0.7830049 -0.4398314 0.4398314 0.7830049 -0.6008188 0.1609903 0.7830064 -0.6008188 0.1609903 0.7830064 -0.6008188 0.1609903 0.7830064 -0.6008212 0.1609888 0.7830048 -0.6008212 0.1609888 0.7830048 -0.6008212 0.1609888 0.7830048 -0.3806894 -0.1020049 0.9190596 -0.3806894 -0.1020049 0.9190596 -0.3806894 -0.1020049 0.9190596 -0.3806891 -0.1020044 0.9190598 -0.3806891 -0.1020044 0.9190598 -0.3806891 -0.1020044 0.9190598 -0.2786841 -0.2786841 0.9190595 -0.2786841 -0.2786841 0.9190595 -0.2786841 -0.2786841 0.9190595 -0.278684 -0.278684 0.9190595 -0.278684 -0.278684 0.9190595 -0.278684 -0.278684 0.9190595 -0.1020049 -0.3806892 0.9190597 -0.1020049 -0.3806892 0.9190597 -0.1020049 -0.3806892 0.9190597 -0.1020045 -0.3806896 0.9190596 -0.1020045 -0.3806896 0.9190596 -0.1020045 -0.3806896 0.9190596 0.1020049 -0.3806894 0.9190596 0.1020049 -0.3806894 0.9190596 0.1020049 -0.3806894 0.9190596 0.1020044 -0.3806891 0.9190598 0.1020044 -0.3806891 0.9190598 0.1020044 -0.3806891 0.9190598 0.2786841 -0.2786841 0.9190595 0.2786841 -0.2786841 0.9190595 0.2786841 -0.2786841 0.9190595 0.278684 -0.278684 0.9190595 0.278684 -0.278684 0.9190595 0.278684 -0.278684 0.9190595 0.3806892 -0.1020049 0.9190597 0.3806892 -0.1020049 0.9190597 0.3806892 -0.1020049 0.9190597 0.3806896 -0.1020045 0.9190596 0.3806896 -0.1020045 0.9190596 0.3806896 -0.1020045 0.9190596 0.3806894 0.1020049 0.9190596 0.3806894 0.1020049 0.9190596 0.3806894 0.1020049 0.9190596 0.3806891 0.1020044 0.9190598 0.3806891 0.1020044 0.9190598 0.3806891 0.1020044 0.9190598 0.2786841 0.2786841 0.9190595 0.2786841 0.2786841 0.9190595 0.2786841 0.2786841 0.9190595 0.278684 0.278684 0.9190595 0.278684 0.278684 0.9190595 0.278684 0.278684 0.9190595 0.1020049 0.3806892 0.9190597 0.1020049 0.3806892 0.9190597 0.1020049 0.3806892 0.9190597 0.1020045 0.3806896 0.9190596 0.1020045 0.3806896 0.9190596 0.1020045 0.3806896 0.9190596 -0.1020049 0.3806894 0.9190596 -0.1020049 0.3806894 0.9190596 -0.1020049 0.3806894 0.9190596 -0.1020044 0.3806891 0.9190598 -0.1020044 0.3806891 0.9190598 -0.1020044 0.3806891 0.9190598 -0.2786841 0.2786841 0.9190595 -0.2786841 0.2786841 0.9190595 -0.2786841 0.2786841 0.9190595 -0.278684 0.278684 0.9190595 -0.278684 0.278684 0.9190595 -0.278684 0.278684 0.9190595 -0.3806892 0.1020049 0.9190597 -0.3806892 0.1020049 0.9190597 -0.3806892 0.1020049 0.9190597 -0.3806896 0.1020045 0.9190596 -0.3806896 0.1020045 0.9190596 -0.3806896 0.1020045 0.9190596 -0.1304458 -0.0349525 0.9908391 -0.1304458 -0.0349525 0.9908391 -0.1304458 -0.0349525 0.9908391 1.0 0.0 0.0 1.0 0.0 0.0 -0.0954928 -0.0954928 0.9908392 -0.0954928 -0.0954928 0.9908392 -0.0954928 -0.0954928 0.9908392 1.0 0.0 0.0 1.0 0.0 0.0 -0.0349525 -0.1304458 0.9908391 -0.0349525 -0.1304458 0.9908391 -0.0349525 -0.1304458 0.9908391 1.0 0.0 0.0 1.0 0.0 0.0 0.0349525 -0.1304458 0.9908391 0.0349525 -0.1304458 0.9908391 0.0349525 -0.1304458 0.9908391 1.0 0.0 0.0 1.0 0.0 0.0 0.0954928 -0.0954928 0.9908392 0.0954928 -0.0954928 0.9908392 0.0954928 -0.0954928 0.9908392 1.0 0.0 0.0 1.0 0.0 0.0 0.1304458 -0.0349525 0.9908391 0.1304458 -0.0349525 0.9908391 0.1304458 -0.0349525 0.9908391 1.0 0.0 0.0 1.0 0.0 0.0 0.1304458 0.0349525 0.9908391 0.1304458 0.0349525 0.9908391 0.1304458 0.0349525 0.9908391 1.0 0.0 0.0 1.0 0.0 0.0 0.0954928 0.0954928 0.9908392 0.0954928 0.0954928 0.9908392 0.0954928 0.0954928 0.9908392 1.0 0.0 0.0 1.0 0.0 0.0 0.0349525 0.1304458 0.9908391 0.0349525 0.1304458 0.9908391 0.0349525 0.1304458 0.9908391 1.0 0.0 0.0 1.0 0.0 0.0 -0.0349525 0.1304458 0.9908391 -0.0349525 0.1304458 0.9908391 -0.0349525 0.1304458 0.9908391 1.0 0.0 0.0 1.0 0.0 0.0 -0.0954928 0.0954928 0.9908392 -0.0954928 0.0954928 0.9908392 -0.0954928 0.0954928 0.9908392 1.0 0.0 0.0 1.0 0.0 0.0 -0.1304458 0.0349525 0.9908391 -0.1304458 0.0349525 0.9908391 -0.1304458 0.0349525 0.9908391 1.0 0.0 0.0 1.0 0.0 0.0 1.0 0.0 0.0 1.0 0.0 0.0 -0.1304455 -0.0349524 -0.9908392 -0.1304455 -0.0349524 -0.9908392 -0.1304455 -0.0349524 -0.9908392 1.0 0.0 0.0 1.0 0.0 0.0 -0.0954925 -0.0954925 -0.9908392 -0.0954925 -0.0954925 -0.9908392 -0.0954925 -0.0954925 -0.9908392 1.0 0.0 0.0 1.0 0.0 0.0 -0.0349524 -0.1304455 -0.9908392 -0.0349524 -0.1304455 -0.9908392 -0.0349524 -0.1304455 -0.9908392 1.0 0.0 0.0 1.0 0.0 0.0 0.0349524 -0.1304455 -0.9908392 0.0349524 -0.1304455 -0.9908392 0.0349524 -0.1304455 -0.9908392 1.0 0.0 0.0 1.0 0.0 0.0 0.0954925 -0.0954925 -0.9908392 0.0954925 -0.0954925 -0.9908392 0.0954925 -0.0954925 -0.9908392 1.0 0.0 0.0 1.0 0.0 0.0 0.1304455 -0.0349524 -0.9908392 0.1304455 -0.0349524 -0.9908392 0.1304455 -0.0349524 -0.9908392 1.0 0.0 0.0 1.0 0.0 0.0 0.1304455 0.0349524 -0.9908392 0.1304455 0.0349524 -0.9908392 0.1304455 0.0349524 -0.9908392 1.0 0.0 0.0 1.0 0.0 0.0 0.0954925 0.0954925 -0.9908392 0.0954925 0.0954925 -0.9908392 0.0954925 0.0954925 -0.9908392 1.0 0.0 0.0 1.0 0.0 0.0 0.0349524 0.1304455 -0.9908392 0.0349524 0.1304455 -0.9908392 0.0349524 0.1304455 -0.9908392 1.0 0.0 0.0 1.0 0.0 0.0 -0.0349524 0.1304455 -0.9908392 -0.0349524 0.1304455 -0.9908392 -0.0349524 0.1304455 -0.9908392 1.0 0.0 0.0 1.0 0.0 0.0 -0.0954925 0.0954925 -0.9908392 -0.0954925 0.0954925 -0.9908392 -0.0954925 0.0954925 -0.9908392 1.0 0.0 0.0 1.0 0.0 0.0 -0.1304455 0.0349524 -0.9908392 -0.1304455 0.0349524 -0.9908392 -0.1304455 0.0349524 -0.9908392 -0.3806896 -0.1020045 -0.9190596 -0.3806896 -0.1020045 -0.9190596 -0.3806896 -0.1020045 -0.9190596 -0.3806892 -0.1020049 -0.9190598 -0.3806892 -0.1020049 -0.9190598 -0.3806892 -0.1020049 -0.9190598 -0.278684 -0.278684 -0.9190595 -0.278684 -0.278684 -0.9190595 -0.278684 -0.278684 -0.9190595 -0.278684 -0.278684 -0.9190595 -0.278684 -0.278684 -0.9190595 -0.278684 -0.278684 -0.9190595 -0.1020044 -0.3806891 -0.9190598 -0.1020044 -0.3806891 -0.9190598 -0.1020044 -0.3806891 -0.9190598 -0.1020049 -0.3806893 -0.9190596 -0.1020049 -0.3806893 -0.9190596 -0.1020049 -0.3806893 -0.9190596 0.1020045 -0.3806896 -0.9190596 0.1020045 -0.3806896 -0.9190596 0.1020045 -0.3806896 -0.9190596 0.1020049 -0.3806892 -0.9190598 0.1020049 -0.3806892 -0.9190598 0.1020049 -0.3806892 -0.9190598 0.278684 -0.278684 -0.9190595 0.278684 -0.278684 -0.9190595 0.278684 -0.278684 -0.9190595 0.278684 -0.278684 -0.9190595 0.278684 -0.278684 -0.9190595 0.278684 -0.278684 -0.9190595 0.3806891 -0.1020044 -0.9190598 0.3806891 -0.1020044 -0.9190598 0.3806891 -0.1020044 -0.9190598 0.3806893 -0.1020049 -0.9190596 0.3806893 -0.1020049 -0.9190596 0.3806893 -0.1020049 -0.9190596 0.3806896 0.1020045 -0.9190596 0.3806896 0.1020045 -0.9190596 0.3806896 0.1020045 -0.9190596 0.3806892 0.1020049 -0.9190598 0.3806892 0.1020049 -0.9190598 0.3806892 0.1020049 -0.9190598 0.278684 0.278684 -0.9190595 0.278684 0.278684 -0.9190595 0.278684 0.278684 -0.9190595 0.278684 0.278684 -0.9190595 0.278684 0.278684 -0.9190595 0.278684 0.278684 -0.9190595 0.1020044 0.3806891 -0.9190598 0.1020044 0.3806891 -0.9190598 0.1020044 0.3806891 -0.9190598 0.1020049 0.3806893 -0.9190596 0.1020049 0.3806893 -0.9190596 0.1020049 0.3806893 -0.9190596 -0.1020045 0.3806896 -0.9190596 -0.1020045 0.3806896 -0.9190596 -0.1020045 0.3806896 -0.9190596 -0.1020049 0.3806892 -0.9190598 -0.1020049 0.3806892 -0.9190598 -0.1020049 0.3806892 -0.9190598 -0.278684 0.278684 -0.9190595 -0.278684 0.278684 -0.9190595 -0.278684 0.278684 -0.9190595 -0.278684 0.278684 -0.9190595 -0.278684 0.278684 -0.9190595 -0.278684 0.278684 -0.9190595 -0.3806891 0.1020044 -0.9190598 -0.3806891 0.1020044 -0.9190598 -0.3806891 0.1020044 -0.9190598 -0.3806893 0.1020049 -0.9190596 -0.3806893 0.1020049 -0.9190596 -0.3806893 0.1020049 -0.9190596 -0.6008215 -0.1609889 -0.7830045 -0.6008215 -0.1609889 -0.7830045 -0.6008215 -0.1609889 -0.7830045 -0.6008191 -0.1609903 -0.7830061 -0.6008191 -0.1609903 -0.7830061 -0.6008191 -0.1609903 -0.7830061 -0.4398316 -0.4398316 -0.7830047 -0.4398316 -0.4398316 -0.7830047 -0.4398316 -0.4398316 -0.7830047 -0.4398316 -0.4398316 -0.7830046 -0.4398316 -0.4398316 -0.7830046 -0.4398316 -0.4398316 -0.7830046 -0.1609883 -0.6008193 -0.7830064 -0.1609883 -0.6008193 -0.7830064 -0.1609883 -0.6008193 -0.7830064 -0.1609908 -0.6008207 -0.7830048 -0.1609908 -0.6008207 -0.7830048 -0.1609908 -0.6008207 -0.7830048 0.1609889 -0.6008215 -0.7830045 0.1609889 -0.6008215 -0.7830045 0.1609889 -0.6008215 -0.7830045 0.1609903 -0.6008191 -0.7830061 0.1609903 -0.6008191 -0.7830061 0.1609903 -0.6008191 -0.7830061 0.4398316 -0.4398316 -0.7830047 0.4398316 -0.4398316 -0.7830047 0.4398316 -0.4398316 -0.7830047 0.4398316 -0.4398316 -0.7830046 0.4398316 -0.4398316 -0.7830046 0.4398316 -0.4398316 -0.7830046 0.6008193 -0.1609883 -0.7830064 0.6008193 -0.1609883 -0.7830064 0.6008193 -0.1609883 -0.7830064 0.6008207 -0.1609908 -0.7830048 0.6008207 -0.1609908 -0.7830048 0.6008207 -0.1609908 -0.7830048 0.6008215 0.1609889 -0.7830045 0.6008215 0.1609889 -0.7830045 0.6008215 0.1609889 -0.7830045 0.6008191 0.1609903 -0.7830061 0.6008191 0.1609903 -0.7830061 0.6008191 0.1609903 -0.7830061 0.4398316 0.4398316 -0.7830047 0.4398316 0.4398316 -0.7830047 0.4398316 0.4398316 -0.7830047 0.4398316 0.4398316 -0.7830046 0.4398316 0.4398316 -0.7830046 0.4398316 0.4398316 -0.7830046 0.1609883 0.6008193 -0.7830064 0.1609883 0.6008193 -0.7830064 0.1609883 0.6008193 -0.7830064 0.1609908 0.6008207 -0.7830048 0.1609908 0.6008207 -0.7830048 0.1609908 0.6008207 -0.7830048 -0.1609889 0.6008215 -0.7830045 -0.1609889 0.6008215 -0.7830045 -0.1609889 0.6008215 -0.7830045 -0.1609903 0.6008191 -0.7830061 -0.1609903 0.6008191 -0.7830061 -0.1609903 0.6008191 -0.7830061 -0.4398316 0.4398316 -0.7830047 -0.4398316 0.4398316 -0.7830047 -0.4398316 0.4398316 -0.7830047 -0.4398316 0.4398316 -0.7830046 -0.4398316 0.4398316 -0.7830046 -0.4398316 0.4398316 -0.7830046 -0.6008193 0.1609883 -0.7830064 -0.6008193 0.1609883 -0.7830064 -0.6008193 0.1609883 -0.7830064 -0.6008207 0.1609908 -0.7830048 -0.6008207 0.1609908 -0.7830048 -0.6008207 0.1609908 -0.7830048 -0.7760118 -0.2079335 -0.5954572 -0.7760118 -0.2079335 -0.5954572 -0.7760118 -0.2079335 -0.5954572 -0.7760148 -0.2079317 -0.595454 -0.7760148 -0.2079317 -0.595454 -0.7760148 -0.2079317 -0.595454 -0.5680802 -0.5680802 -0.5954575 -0.5680802 -0.5680802 -0.5954575 -0.5680802 -0.5680802 -0.5954575 -0.5680803 -0.5680803 -0.5954574 -0.5680803 -0.5680803 -0.5954574 -0.5680803 -0.5680803 -0.5954574 -0.2079342 -0.7760144 -0.5954537 -0.2079342 -0.7760144 -0.5954537 -0.2079342 -0.7760144 -0.5954537 -0.2079312 -0.7760127 -0.5954568 -0.2079312 -0.7760127 -0.5954568 -0.2079312 -0.7760127 -0.5954568 0.2079335 -0.7760118 -0.5954572 0.2079335 -0.7760118 -0.5954572 0.2079335 -0.7760118 -0.5954572 0.2079317 -0.7760148 -0.595454 0.2079317 -0.7760148 -0.595454 0.2079317 -0.7760148 -0.595454 0.5680802 -0.5680802 -0.5954575 0.5680802 -0.5680802 -0.5954575 0.5680802 -0.5680802 -0.5954575 0.5680803 -0.5680803 -0.5954574 0.5680803 -0.5680803 -0.5954574 0.5680803 -0.5680803 -0.5954574 0.7760144 -0.2079342 -0.5954537 0.7760144 -0.2079342 -0.5954537 0.7760144 -0.2079342 -0.5954537 0.7760127 -0.2079312 -0.5954568 0.7760127 -0.2079312 -0.5954568 0.7760127 -0.2079312 -0.5954568 0.7760118 0.2079335 -0.5954572 0.7760118 0.2079335 -0.5954572 0.7760118 0.2079335 -0.5954572 0.7760148 0.2079317 -0.595454 0.7760148 0.2079317 -0.595454 0.7760148 0.2079317 -0.595454 0.5680802 0.5680802 -0.5954575 0.5680802 0.5680802 -0.5954575 0.5680802 0.5680802 -0.5954575 0.5680803 0.5680803 -0.5954574 0.5680803 0.5680803 -0.5954574 0.5680803 0.5680803 -0.5954574 0.2079342 0.7760144 -0.5954537 0.2079342 0.7760144 -0.5954537 0.2079342 0.7760144 -0.5954537 0.2079312 0.7760127 -0.5954568 0.2079312 0.7760127 -0.5954568 0.2079312 0.7760127 -0.5954568 -0.2079335 0.7760118 -0.5954572 -0.2079335 0.7760118 -0.5954572 -0.2079335 0.7760118 -0.5954572 -0.2079317 0.7760148 -0.595454 -0.2079317 0.7760148 -0.595454 -0.2079317 0.7760148 -0.595454 -0.5680802 0.5680802 -0.5954575 -0.5680802 0.5680802 -0.5954575 -0.5680802 0.5680802 -0.5954575 -0.5680803 0.5680803 -0.5954574 -0.5680803 0.5680803 -0.5954574 -0.5680803 0.5680803 -0.5954574 -0.7760144 0.2079342 -0.5954537 -0.7760144 0.2079342 -0.5954537 -0.7760144 0.2079342 -0.5954537 -0.7760127 0.2079312 -0.5954568 -0.7760127 0.2079312 -0.5954568 -0.7760127 0.2079312 -0.5954568 -0.8968095 -0.2402984 -0.3714693 -0.8968095 -0.2402984 -0.3714693 -0.8968095 -0.2402984 -0.3714693 -0.8968079 -0.2402998 -0.3714722 -0.8968079 -0.2402998 -0.3714722 -0.8968079 -0.2402998 -0.3714722 -0.6565099 -0.6565099 -0.3714693 -0.6565099 -0.6565099 -0.3714693 -0.6565099 -0.6565099 -0.3714693 -0.6565099 -0.6565099 -0.3714693 -0.6565099 -0.6565099 -0.3714693 -0.6565099 -0.6565099 -0.3714693 -0.2402981 -0.8968083 -0.3714724 -0.2402981 -0.8968083 -0.3714724 -0.2402981 -0.8968083 -0.3714724 -0.2403001 -0.896809 -0.3714694 -0.2403001 -0.896809 -0.3714694 -0.2403001 -0.896809 -0.3714694 0.2402984 -0.8968095 -0.3714693 0.2402984 -0.8968095 -0.3714693 0.2402984 -0.8968095 -0.3714693 0.2402998 -0.8968079 -0.3714722 0.2402998 -0.8968079 -0.3714722 0.2402998 -0.8968079 -0.3714722 0.6565099 -0.6565099 -0.3714693 0.6565099 -0.6565099 -0.3714693 0.6565099 -0.6565099 -0.3714693 0.6565099 -0.6565099 -0.3714693 0.6565099 -0.6565099 -0.3714693 0.6565099 -0.6565099 -0.3714693 0.8968083 -0.2402981 -0.3714724 0.8968083 -0.2402981 -0.3714724 0.8968083 -0.2402981 -0.3714724 0.896809 -0.2403001 -0.3714694 0.896809 -0.2403001 -0.3714694 0.896809 -0.2403001 -0.3714694 0.8968095 0.2402984 -0.3714693 0.8968095 0.2402984 -0.3714693 0.8968095 0.2402984 -0.3714693 0.8968079 0.2402998 -0.3714722 0.8968079 0.2402998 -0.3714722 0.8968079 0.2402998 -0.3714722 0.6565099 0.6565099 -0.3714693 0.6565099 0.6565099 -0.3714693 0.6565099 0.6565099 -0.3714693 0.6565099 0.6565099 -0.3714693 0.6565099 0.6565099 -0.3714693 0.6565099 0.6565099 -0.3714693 0.2402981 0.8968083 -0.3714724 0.2402981 0.8968083 -0.3714724 0.2402981 0.8968083 -0.3714724 0.2403001 0.896809 -0.3714694 0.2403001 0.896809 -0.3714694 0.2403001 0.896809 -0.3714694 -0.2402984 0.8968095 -0.3714693 -0.2402984 0.8968095 -0.3714693 -0.2402984 0.8968095 -0.3714693 -0.2402998 0.8968079 -0.3714722 -0.2402998 0.8968079 -0.3714722 -0.2402998 0.8968079 -0.3714722 -0.6565099 0.6565099 -0.3714693 -0.6565099 0.6565099 -0.3714693 -0.6565099 0.6565099 -0.3714693 -0.6565099 0.6565099 -0.3714693 -0.6565099 0.6565099 -0.3714693 -0.6565099 0.6565099 -0.3714693 -0.8968083 0.2402981 -0.3714724 -0.8968083 0.2402981 -0.3714724 -0.8968083 0.2402981 -0.3714724 -0.896809 0.2403001 -0.3714694 -0.896809 0.2403001 -0.3714694 -0.896809 0.2403001 -0.3714694 -0.958209 -0.2567522 -0.1261502 -0.958209 -0.2567522 -0.1261502 -0.958209 -0.2567522 -0.1261502 -0.958209 -0.2567521 -0.1261499 -0.958209 -0.2567521 -0.1261499 -0.958209 -0.2567521 -0.1261499 -0.7014578 -0.7014578 -0.1261501 -0.7014578 -0.7014578 -0.1261501 -0.7014578 -0.7014578 -0.1261501 -0.7014578 -0.7014578 -0.12615 -0.7014578 -0.7014578 -0.12615 -0.7014578 -0.7014578 -0.12615 -0.2567522 -0.958209 -0.1261499 -0.2567522 -0.958209 -0.1261499 -0.2567522 -0.958209 -0.1261499 -0.2567521 -0.9582091 -0.1261502 -0.2567521 -0.9582091 -0.1261502 -0.2567521 -0.9582091 -0.1261502 0.2567522 -0.958209 -0.1261502 0.2567522 -0.958209 -0.1261502 0.2567522 -0.958209 -0.1261502 0.2567521 -0.958209 -0.1261499 0.2567521 -0.958209 -0.1261499 0.2567521 -0.958209 -0.1261499 0.7014578 -0.7014578 -0.1261501 0.7014578 -0.7014578 -0.1261501 0.7014578 -0.7014578 -0.1261501 0.7014578 -0.7014578 -0.12615 0.7014578 -0.7014578 -0.12615 0.7014578 -0.7014578 -0.12615 0.958209 -0.2567522 -0.1261499 0.958209 -0.2567522 -0.1261499 0.958209 -0.2567522 -0.1261499 0.9582091 -0.2567521 -0.1261502 0.9582091 -0.2567521 -0.1261502 0.9582091 -0.2567521 -0.1261502 0.958209 0.2567522 -0.1261502 0.958209 0.2567522 -0.1261502 0.958209 0.2567522 -0.1261502 0.958209 0.2567521 -0.1261499 0.958209 0.2567521 -0.1261499 0.958209 0.2567521 -0.1261499 0.7014578 0.7014578 -0.1261501 0.7014578 0.7014578 -0.1261501 0.7014578 0.7014578 -0.1261501 0.7014578 0.7014578 -0.12615 0.7014578 0.7014578 -0.12615 0.7014578 0.7014578 -0.12615 0.2567522 0.958209 -0.1261499 0.2567522 0.958209 -0.1261499 0.2567522 0.958209 -0.1261499 0.2567521 0.9582091 -0.1261502 0.2567521 0.9582091 -0.1261502 0.2567521 0.9582091 -0.1261502 -0.2567522 0.958209 -0.1261502 -0.2567522 0.958209 -0.1261502 -0.2567522 0.958209 -0.1261502 -0.2567521 0.958209 -0.1261499 -0.2567521 0.958209 -0.1261499 -0.2567521 0.958209 -0.1261499 -0.7014578 0.7014578 -0.1261501 -0.7014578 0.7014578 -0.1261501 -0.7014578 0.7014578 -0.1261501 -0.7014578 0.7014578 -0.12615 -0.7014578 0.7014578 -0.12615 -0.7014578 0.7014578 -0.12615 -0.958209 0.2567522 -0.1261499 -0.958209 0.2567522 -0.1261499 -0.958209 0.2567522 -0.1261499 -0.9582091 0.2567521 -0.1261502 -0.9582091 0.2567521 -0.1261502 -0.9582091 0.2567521 -0.1261502 -0.9582091 -0.2567521 0.1261502 -0.9582091 -0.2567521 0.1261502 -0.9582091 -0.2567521 0.1261502 -0.958209 -0.2567522 0.12615 -0.958209 -0.2567522 0.12615 -0.958209 -0.2567522 0.12615 -0.7014578 -0.7014578 0.1261501 -0.7014578 -0.7014578 0.1261501 -0.7014578 -0.7014578 0.1261501 -0.7014578 -0.7014578 0.1261501 -0.7014578 -0.7014578 0.1261501 -0.7014578 -0.7014578 0.1261501 -0.256752 -0.958209 0.12615 -0.256752 -0.958209 0.12615 -0.256752 -0.958209 0.12615 -0.2567522 -0.958209 0.1261502 -0.2567522 -0.958209 0.1261502 -0.2567522 -0.958209 0.1261502 0.2567521 -0.9582091 0.1261502 0.2567521 -0.9582091 0.1261502 0.2567521 -0.9582091 0.1261502 0.2567522 -0.958209 0.12615 0.2567522 -0.958209 0.12615 0.2567522 -0.958209 0.12615 0.7014578 -0.7014578 0.1261501 0.7014578 -0.7014578 0.1261501 0.7014578 -0.7014578 0.1261501 0.7014578 -0.7014578 0.1261501 0.7014578 -0.7014578 0.1261501 0.7014578 -0.7014578 0.1261501 0.958209 -0.256752 0.12615 0.958209 -0.256752 0.12615 0.958209 -0.256752 0.12615 0.958209 -0.2567522 0.1261502 0.958209 -0.2567522 0.1261502 0.958209 -0.2567522 0.1261502 0.9582091 0.2567521 0.1261502 0.9582091 0.2567521 0.1261502 0.9582091 0.2567521 0.1261502 0.958209 0.2567522 0.12615 0.958209 0.2567522 0.12615 0.958209 0.2567522 0.12615 0.7014578 0.7014578 0.1261501 0.7014578 0.7014578 0.1261501 0.7014578 0.7014578 0.1261501 0.7014578 0.7014578 0.1261501 0.7014578 0.7014578 0.1261501 0.7014578 0.7014578 0.1261501 0.256752 0.958209 0.12615 0.256752 0.958209 0.12615 0.256752 0.958209 0.12615 0.2567522 0.958209 0.1261502 0.2567522 0.958209 0.1261502 0.2567522 0.958209 0.1261502 -0.2567521 0.9582091 0.1261502 -0.2567521 0.9582091 0.1261502 -0.2567521 0.9582091 0.1261502 -0.2567522 0.958209 0.12615 -0.2567522 0.958209 0.12615 -0.2567522 0.958209 0.12615 -0.7014578 0.7014578 0.1261501 -0.7014578 0.7014578 0.1261501 -0.7014578 0.7014578 0.1261501 -0.7014578 0.7014578 0.1261501 -0.7014578 0.7014578 0.1261501 -0.7014578 0.7014578 0.1261501 -0.958209 0.256752 0.12615 -0.958209 0.256752 0.12615 -0.958209 0.256752 0.12615 -0.958209 0.2567522 0.1261502 -0.958209 0.2567522 0.1261502 -0.958209 0.2567522 0.1261502 -0.896809 -0.2403001 0.3714693 -0.896809 -0.2403001 0.3714693 -0.896809 -0.2403001 0.3714693 -0.8968083 -0.2402981 0.3714722 -0.8968083 -0.2402981 0.3714722 -0.8968083 -0.2402981 0.3714722 -0.6565099 -0.6565099 0.3714691 -0.6565099 -0.6565099 0.3714691 -0.6565099 -0.6565099 0.3714691 -0.65651 -0.65651 0.3714691 -0.65651 -0.65651 0.3714691 -0.65651 -0.65651 0.3714691 -0.2402998 -0.896808 0.3714721 -0.2402998 -0.896808 0.3714721 -0.2402998 -0.896808 0.3714721 -0.2402985 -0.8968096 0.3714691 -0.2402985 -0.8968096 0.3714691 -0.2402985 -0.8968096 0.3714691 0.2403001 -0.896809 0.3714693 0.2403001 -0.896809 0.3714693 0.2403001 -0.896809 0.3714693 0.2402981 -0.8968083 0.3714722 0.2402981 -0.8968083 0.3714722 0.2402981 -0.8968083 0.3714722 0.6565099 -0.6565099 0.3714691 0.6565099 -0.6565099 0.3714691 0.6565099 -0.6565099 0.3714691 0.65651 -0.65651 0.3714691 0.65651 -0.65651 0.3714691 0.65651 -0.65651 0.3714691 0.896808 -0.2402998 0.3714721 0.896808 -0.2402998 0.3714721 0.896808 -0.2402998 0.3714721 0.8968096 -0.2402985 0.3714691 0.8968096 -0.2402985 0.3714691 0.8968096 -0.2402985 0.3714691 0.896809 0.2403001 0.3714693 0.896809 0.2403001 0.3714693 0.896809 0.2403001 0.3714693 0.8968083 0.2402981 0.3714722 0.8968083 0.2402981 0.3714722 0.8968083 0.2402981 0.3714722 0.6565099 0.6565099 0.3714691 0.6565099 0.6565099 0.3714691 0.6565099 0.6565099 0.3714691 0.65651 0.65651 0.3714691 0.65651 0.65651 0.3714691 0.65651 0.65651 0.3714691 0.2402998 0.896808 0.3714721 0.2402998 0.896808 0.3714721 0.2402998 0.896808 0.3714721 0.2402985 0.8968096 0.3714691 0.2402985 0.8968096 0.3714691 0.2402985 0.8968096 0.3714691 -0.2403001 0.896809 0.3714693 -0.2403001 0.896809 0.3714693 -0.2403001 0.896809 0.3714693 -0.2402981 0.8968083 0.3714722 -0.2402981 0.8968083 0.3714722 -0.2402981 0.8968083 0.3714722 -0.6565099 0.6565099 0.3714691 -0.6565099 0.6565099 0.3714691 -0.6565099 0.6565099 0.3714691 -0.65651 0.65651 0.3714691 -0.65651 0.65651 0.3714691 -0.65651 0.65651 0.3714691 -0.896808 0.2402998 0.3714721 -0.896808 0.2402998 0.3714721 -0.896808 0.2402998 0.3714721 -0.8968096 0.2402985 0.3714691 -0.8968096 0.2402985 0.3714691 -0.8968096 0.2402985 0.3714691 -0.7760127 -0.2079312 0.5954568 -0.7760127 -0.2079312 0.5954568 -0.7760127 -0.2079312 0.5954568 -0.7760144 -0.2079342 0.5954537 -0.7760144 -0.2079342 0.5954537 -0.7760144 -0.2079342 0.5954537 -0.5680803 -0.5680803 0.5954574 -0.5680803 -0.5680803 0.5954574 -0.5680803 -0.5680803 0.5954574 -0.5680802 -0.5680802 0.5954576 -0.5680802 -0.5680802 0.5954576 -0.5680802 -0.5680802 0.5954576 -0.2079317 -0.7760147 0.595454 -0.2079317 -0.7760147 0.595454 -0.2079317 -0.7760147 0.595454 -0.2079335 -0.7760118 0.5954572 -0.2079335 -0.7760118 0.5954572 -0.2079335 -0.7760118 0.5954572 0.2079312 -0.7760127 0.5954568 0.2079312 -0.7760127 0.5954568 0.2079312 -0.7760127 0.5954568 0.2079342 -0.7760144 0.5954537 0.2079342 -0.7760144 0.5954537 0.2079342 -0.7760144 0.5954537 0.5680803 -0.5680803 0.5954574 0.5680803 -0.5680803 0.5954574 0.5680803 -0.5680803 0.5954574 0.5680802 -0.5680802 0.5954576 0.5680802 -0.5680802 0.5954576 0.5680802 -0.5680802 0.5954576 0.7760147 -0.2079317 0.595454 0.7760147 -0.2079317 0.595454 0.7760147 -0.2079317 0.595454 0.7760118 -0.2079335 0.5954572 0.7760118 -0.2079335 0.5954572 0.7760118 -0.2079335 0.5954572 0.7760127 0.2079312 0.5954568 0.7760127 0.2079312 0.5954568 0.7760127 0.2079312 0.5954568 0.7760144 0.2079342 0.5954537 0.7760144 0.2079342 0.5954537 0.7760144 0.2079342 0.5954537 0.5680803 0.5680803 0.5954574 0.5680803 0.5680803 0.5954574 0.5680803 0.5680803 0.5954574 0.5680802 0.5680802 0.5954576 0.5680802 0.5680802 0.5954576 0.5680802 0.5680802 0.5954576 0.2079317 0.7760147 0.595454 0.2079317 0.7760147 0.595454 0.2079317 0.7760147 0.595454 0.2079335 0.7760118 0.5954572 0.2079335 0.7760118 0.5954572 0.2079335 0.7760118 0.5954572</float_array>
                    <technique_common>
                        <accessor count="840" source="#geometry0-normal-array" stride="3">
                            <param name="X" type="float"/>
                            <param name="Y" type="float"/>
                            <param name="Z" type="float"/>
                        </accessor>
                    </technique_common>
                </source>
                <vertices id="geometry0-vertex">
                    <input semantic="POSITION" source="#geometry0-position"/>
                </vertices>
                <triangles count="288" material="default_ai_0.2_sh_0.2_tr_0.0_dc_r_0.8_g_0.8_b_0.8_sc_r_1.0_g_1.0_b_1.0_ec_r_0.0_g_0.0_b_0_tri">
                    <input offset="0" semantic="VERTEX" source="#geometry0-vertex"/>
                    <input offset="1" semantic="NORMAL" source="#geometry0-normal"/>
                    <p>94 0 95 1 107 2 94 3 107 4 106 5 95 6 96 7 108 8 95 9 108 10 107 11 96 12 86 13 98 14 96 15 98 16 108 17 98 18 97 19 109 20 98 21 109 22 110 23 97 24 99 25 111 26 97 27 111 28 109 29 99 30 100 31 112 32 99 33 112 34 111 35 100 36 101 37 113 38 100 39 113 40 112 41 101 42 102 43 114 44 101 45 114 46 113 47 102 48 103 49 115 50 102 51 115 52 114 53 103 54 104 55 116 56 103 57 116 58 115 59 104 60 105 61 117 62 104 63 117 64 116 65 105 66 106 67 118 68 105 69 118 70 117 71 106 72 107 73 119 74 106 75 119 76 118 77 107 78 108 79 120 80 107 81 120 82 119 83 108 84 98 85 110 86 108 87 110 88 120 89 110 90 109 91 121 92 110 93 121 94 122 95 109 96 111 97 123 98 109 99 123 100 121 101 111 102 112 103 124 104 111 105 124 106 123 107 112 108 113 109 125 110 112 111 125 112 124 113 113 114 114 115 126 116 113 117 126 118 125 119 114 120 115 121 127 122 114 123 127 124 126 125 115 126 116 127 128 128 115 129 128 130 127 131 116 132 117 133 129 134 116 135 129 136 128 137 117 138 118 139 130 140 117 141 130 142 129 143 118 144 119 145 131 146 118 147 131 148 130 149 119 150 120 151 132 152 119 153 132 154 131 155 120 156 110 157 122 158 120 159 122 160 132 161 122 162 121 163 133 164 122 165 133 166 133 166 121 167 123 168 133 169 121 170 133 171 133 171 123 172 124 173 133 174 123 175 133 176 133 176 124 177 125 178 133 179 124 180 133 181 133 181 125 182 126 183 133 184 125 185 133 186 133 186 126 187 127 188 133 189 126 190 133 191 133 191 127 192 128 193 133 194 127 195 133 196 133 196 128 197 129 198 133 199 128 200 133 201 133 201 129 202 130 203 133 204 129 205 133 206 133 206 130 207 131 208 133 209 130 210 133 211 133 211 131 212 132 213 133 214 131 215 133 216 133 216 132 217 122 218 133 219 132 220 133 221 133 221 0 222 0 222 1 223 0 224 1 225 2 226 0 227 0 227 3 228 0 229 3 230 1 231 0 232 0 232 4 233 0 234 4 235 3 236 0 237 0 237 5 238 0 239 5 240 4 241 0 242 0 242 6 243 0 244 6 245 5 246 0 247 0 247 7 248 0 249 7 250 6 251 0 252 0 252 8 253 0 254 8 255 7 256 0 257 0 257 9 258 0 259 9 260 8 261 0 262 0 262 10 263 0 264 10 265 9 266 0 267 0 267 11 268 0 269 11 270 10 271 0 272 0 272 12 273 0 274 12 275 11 276 0 277 0 277 2 278 0 279 2 280 12 281 2 282 1 283 13 284 2 285 13 286 14 287 1 288 3 289 15 290 1 291 15 292 13 293 3 294 4 295 16 296 3 297 16 298 15 299 4 300 5 301 17 302 4 303 17 304 16 305 5 306 6 307 18 308 5 309 18 310 17 311 6 312 7 313 19 314 6 315 19 316 18 317 7 318 8 319 20 320 7 321 20 322 19 323 8 324 9 325 21 326 8 327 21 328 20 329 9 330 10 331 22 332 9 333 22 334 21 335 10 336 11 337 23 338 10 339 23 340 22 341 11 342 12 343 24 344 11 345 24 346 23 347 12 348 2 349 14 350 12 351 14 352 24 353 14 354 13 355 25 356 14 357 25 358 26 359 13 360 15 361 27 362 13 363 27 364 25 365 15 366 16 367 28 368 15 369 28 370 27 371 16 372 17 373 29 374 16 375 29 376 28 377 17 378 18 379 30 380 17 381 30 382 29 383 18 384 19 385 31 386 18 387 31 388 30 389 19 390 20 391 32 392 19 393 32 394 31 395 20 396 21 397 33 398 20 399 33 400 32 401 21 402 22 403 34 404 21 405 34 406 33 407 22 408 23 409 35 410 22 411 35 412 34 413 23 414 24 415 36 416 23 417 36 418 35 419 24 420 14 421 26 422 24 423 26 424 36 425 26 426 25 427 37 428 26 429 37 430 38 431 25 432 27 433 39 434 25 435 39 436 37 437 27 438 28 439 40 440 27 441 40 442 39 443 28 444 29 445 41 446 28 447 41 448 40 449 29 450 30 451 42 452 29 453 42 454 41 455 30 456 31 457 43 458 30 459 43 460 42 461 31 462 32 463 44 464 31 465 44 466 43 467 32 468 33 469 45 470 32 471 45 472 44 473 33 474 34 475 46 476 33 477 46 478 45 479 34 480 35 481 47 482 34 483 47 484 46 485 35 486 36 487 48 488 35 489 48 490 47 491 36 492 26 493 38 494 36 495 38 496 48 497 38 498 37 499 49 500 38 501 49 502 50 503 37 504 39 505 51 506 37 507 51 508 49 509 39 510 40 511 52 512 39 513 52 514 51 515 40 516 41 517 53 518 40 519 53 520 52 521 41 522 42 523 54 524 41 525 54 526 53 527 42 528 43 529 55 530 42 531 55 532 54 533 43 534 44 535 56 536 43 537 56 538 55 539 44 540 45 541 57 542 44 543 57 544 56 545 45 546 46 547 58 548 45 549 58 550 57 551 46 552 47 553 59 554 46 555 59 556 58 557 47 558 48 559 60 560 47 561 60 562 59 563 48 564 38 565 50 566 48 567 50 568 60 569 50 570 49 571 61 572 50 573 61 574 62 575 49 576 51 577 63 578 49 579 63 580 61 581 51 582 52 583 64 584 51 585 64 586 63 587 52 588 53 589 65 590 52 591 65 592 64 593 53 594 54 595 66 596 53 597 66 598 65 599 54 600 55 601 67 602 54 603 67 604 66 605 55 606 56 607 68 608 55 609 68 610 67 611 56 612 57 613 69 614 56 615 69 616 68 617 57 618 58 619 70 620 57 621 70 622 69 623 58 624 59 625 71 626 58 627 71 628 70 629 59 630 60 631 72 632 59 633 72 634 71 635 60 636 50 637 62 638 60 639 62 640 72 641 62 642 61 643 73 644 62 645 73 646 74 647 61 648 63 649 75 650 61 651 75 652 73 653 63 654 64 655 76 656 63 657 76 658 75 659 64 660 65 661 77 662 64 663 77 664 76 665 65 666 66 667 78 668 65 669 78 670 77 671 66 672 67 673 79 674 66 675 79 676 78 677 67 678 68 679 80 680 67 681 80 682 79 683 68 684 69 685 81 686 68 687 81 688 80 689 69 690 70 691 82 692 69 693 82 694 81 695 70 696 71 697 83 698 70 699 83 700 82 701 71 702 72 703 84 704 71 705 84 706 83 707 72 708 62 709 74 710 72 711 74 712 84 713 74 714 73 715 85 716 74 717 85 718 86 719 73 720 75 721 87 722 73 723 87 724 85 725 75 726 76 727 88 728 75 729 88 730 87 731 76 732 77 733 89 734 76 735 89 736 88 737 77 738 78 739 90 740 77 741 90 742 89 743 78 744 79 745 91 746 78 747 91 748 90 749 79 750 80 751 92 752 79 753 92 754 91 755 80 756 81 757 93 758 80 759 93 760 92 761 81 762 82 763 94 764 81 765 94 766 93 767 82 768 83 769 95 770 82 771 95 772 94 773 83 774 84 775 96 776 83 777 96 778 95 779 84 780 74 781 86 782 84 783 86 784 96 785 86 786 85 787 97 788 86 789 97 790 98 791 85 792 87 793 99 794 85 795 99 796 97 797 87 798 88 799 100 800 87 801 100 802 99 803 88 804 89 805 101 806 88 807 101 808 100 809 89 810 90 811 102 812 89 813 102 814 101 815 90 816 91 817 103 818 90 819 103 820 102 821 91 822 92 823 104 824 91 825 104 826 103 827 92 828 93 829 105 830 92 831 105 832 104 833 93 834 94 835 106 836 93 837 106 838 105 839</p>
                </triangles>
            </mesh>
        </geometry>
    </library_geometries>
    <library_visual_scenes>
        <visual_scene id="Building_64_CROWN2">
            <node>
                <instance_geometry url="#geometry0">
                    <bind_material>
                        <technique_common>
                            <instance_material symbol="default_ai_0.2_sh_0.2_tr_0.0_dc_r_0.8_g_0.8_b_0.8_sc_r_1.0_g_1.0_b_1.0_ec_r_0.0_g_0.0_b_0_tri" target="#default_ai_0.2_sh_0.2_tr_0.0_dc_r_0.8_g_0.8_b_0.8_sc_r_1.0_g_1.0_b_1.0_ec_r_0.0_g_0.0_b_0_mat"/>
                        </technique_common>
                    </bind_material>
                </instance_geometry>
            </node>
        </visual_scene>
    </library_visual_scenes>
    <scene>
        <instance_visual_scene url="#Building_64_CROWN2"/>
    </scene>
</COLLADA>
