<?xml version="1.0" encoding="UTF-8" standalone="yes"?>
<COLLADA xmlns="http://www.collada.org/2005/11/COLLADASchema" version="1.4.1">
    <asset>
        <contributor>
            <authoring_tool>3D City Database Importer/Exporter, version 5.5.3; Chair of Geoinformatics, Technical University of Munich</authoring_tool>
        </contributor>
        <created>2026-09-25T14:45:27.532</created>
        <modified>2026-09-25T14:45:27.532</modified>
        <unit meter="1.0" name="meters"/>
        <up_axis>Z_UP</up_axis>
    </asset>
    <library_materials>
        <material id="default_ai_0.2_sh_0.2_tr_0.0_dc_r_0.8_g_0.8_b_0.8_sc_r_1.0_g_1.0_b_1.0_ec_r_0.0_g_0.0_b_0_mat">
            <instance_effect url="#default_ai_0.2_sh_0.2_tr_0.0_dc_r_0.8_g_0.8_b_0.8_sc_r_1.0_g_1.0_b_1.0_ec_r_0.0_g_0.0_b_0_eff"/>
        </material>
    </library_materials>
    <library_effects>
        <effect id="default_ai_0.2_sh_0.2_tr_0.0_dc_r_0.8_g_0.8_b_0.8_sc_r_1.0_g_1.0_b_1.0_ec_r_0.0_g_0.0_b_0_eff">
            <profile_COMMON>
                <technique sid="COMMON">
                    <lambert>
                        <emission>
                            <color>0.0 0.0 0.0 1.0</color>
                        </emission>
                        <diffuse>
                            <color>0.8 0.8 0.8 1.0</color>
                        </diffuse>
                        <reflective>
                            <color>1.0 1.0 1.0 1.0</color>
                        </reflective>
                        <reflectivity>
                            <float>0.2</float>
                        </reflectivity>
                        <transparent opaque="A_ONE">
                            <color>1.0 1.0 1.0 1.0</color>
                        </transparent>
                        <transparency>
                            <float>1.0</float>
                        </transparency>
                    </lambert>
                </technique>
                <extra>
                    <technique profile="GOOGLEEARTH">
                        <double_sided>0</double_sided>
                    </technique>
                </extra>
            </profile_COMMON>
        </effect>
    </library_effects>
    <library_geometries>
        <geometry id="geometry0">
            <mesh>
                <source id="geometry0-position">
                    <float_array id="geometry0-position-array" count="402">0.0 0.0 2.4 0.2689728 0.155292 2.3591112 0.3105828 0.0 2.3591112 0.155292 0.2689728 2.3591112 0.0 0.3105828 2.3591112 -0.155292 0.2689728 2.3591112 -0.2689728 0.155292 2.3591112 -0.3105828 0.0 2.3591112 -0.2689728 -0.155292 2.3591112 -0.155292 -0.2689728 2.3591112 0.0 -0.3105828 2.3591112 0.155292 -0.2689728 2.3591112 0.2689728 -0.155292 2.3591112 0.5196156 0.3 2.23923 0.6 0.0 2.23923 0.3 0.5196156 2.23923 0.0 0.6 2.23923 -0.3 0.5196156 2.23923 -0.5196156 0.3 2.23923 -0.6 0.0 2.23923 -0.5196156 -0.3 2.23923 -0.3 -0.5196156 2.23923 0.0 -0.6 2.23923 0.3 -0.5196156 2.23923 0.5196156 -0.3 2.23923 0.7348464 0.4242636 2.0485272 0.8485284 0.0 2.0485272 0.4242636 0.7348464 2.0485272 0.0 0.8485284 2.0485272 -0.4242636 0.7348464 2.0485272 -0.7348464 0.4242636 2.0485272 -0.8485284 0.0 2.0485272 -0.7348464 -0.4242636 2.0485272 -0.4242636 -0.7348464 2.0485272 0.0 -0.8485284 2.0485272 0.4242636 -0.7348464 2.0485272 0.7348464 -0.4242636 2.0485272 0.9 0.5196156 1.8 1.03923 0.0 1.8 0.5196156 0.9 1.8 0.0 1.03923 1.8 -0.5196156 0.9 1.8 -0.9 0.5196156 1.8 -1.03923 0.0 1.8 -0.9 -0.5196156 1.8 -0.5196156 -0.9 1.8 0.0 -1.03923 1.8 0.5196156 -0.9 1.8 0.9 -0.5196156 1.8 1.0038192 0.5795556 1.5105828 1.1591112 0.0 1.5105828 0.5795556 1.0038192 1.5105828 0.0 1.1591112 1.5105828 -0.5795556 1.0038192 1.5105828 -1.0038192 0.5795556 1.5105828 -1.1591112 0.0 1.5105828 -1.0038192 -0.5795556 1.5105828 -0.5795556 -1.0038192 1.5105828 0.0 -1.1591112 1.5105828 0.5795556 -1.0038192 1.5105828 1.0038192 -0.5795556 1.5105828 1.03923 0.6 1.2 1.2 0.0 1.2 0.6 1.03923 1.2 0.0 1.2 1.2 -0.6 1.03923 1.2 -1.03923 0.6 1.2 -1.2 0.0 1.2 -1.03923 -0.6 1.2 -0.6 -1.03923 1.2 0.0 -1.2 1.2 0.6 -1.03923 1.2 1.03923 -0.6 1.2 1.0038192 0.5795556 0.8894172 1.1591112 0.0 0.8894172 0.5795556 1.0038192 0.8894172 0.0 1.1591112 0.8894172 -0.5795556 1.0038192 0.8894172 -1.0038192 0.5795556 0.8894172 -1.1591112 0.0 0.8894172 -1.0038192 -0.5795556 0.8894172 -0.5795556 -1.0038192 0.8894172 0.0 -1.1591112 0.8894172 0.5795556 -1.0038192 0.8894172 1.0038192 -0.5795556 0.8894172 0.9 0.5196156 0.6 1.03923 0.0 0.6 0.5196156 0.9 0.6 0.0 1.03923 0.6 -0.5196156 0.9 0.6 -0.9 0.5196156 0.6 -1.03923 0.0 0.6 -0.9 -0.5196156 0.6 -0.5196156 -0.9 0.6 0.0 -1.03923 0.6 0.5196156 -0.9 0.6 0.9 -0.5196156 0.6 0.7348464 0.4242636 0.3514716 0.8485284 0.0 0.3514716 0.4242636 0.7348464 0.3514716 0.0 0.8485284 0.3514716 -0.4242636 0.7348464 0.3514716 -0.7348464 0.4242636 0.3514716 -0.8485284 0.0 0.3514716 -0.7348464 -0.4242636 0.3514716 -0.4242636 -0.7348464 0.3514716 0.0 -0.8485284 0.3514716 0.4242636 -0.7348464 0.3514716 0.7348464 -0.4242636 0.3514716 0.5196156 0.3 0.1607688 0.6 0.0 0.1607688 0.3 0.5196156 0.1607688 0.0 0.6 0.1607688 -0.3 0.5196156 0.1607688 -0.5196156 0.3 0.1607688 -0.6 0.0 0.1607688 -0.5196156 -0.3 0.1607688 -0.3 -0.5196156 0.1607688 0.0 -0.6 0.1607688 0.3 -0.5196156 0.1607688 0.5196156 -0.3 0.1607688 0.2689728 0.155292 0.0408888 0.3105828 0.0 0.0408888 0.155292 0.2689728 0.0408888 0.0 0.3105828 0.0408888 -0.155292 0.2689728 0.0408888 -0.2689728 0.155292 0.0408888 -0.3105828 0.0 0.0408888 -0.2689728 -0.155292 0.0408888 -0.155292 -0.2689728 0.0408888 0.0 -0.3105828 0.0408888 0.155292 -0.2689728 0.0408888 0.2689728 -0.155292 0.0408888 0.0 0.0 0.0</float_array>
                    <technique_common>
                        <accessor count="134" source="#geometry0-position-array" stride="3">
                            <param name="X" type="float"/>
                            <param name="Y" type="float"/>
                            <param name="Z" type="float"/>
                        </accessor>
                    </technique_common>
                </source>
                <source id="geometry0-normal">
                    <float_array id="geometry0-normal-array" count="2520">-0.4398329 0.4398329 -0.7830032 -0.4398329 0.4398329 -0.7830032 -0.4398329 0.4398329 -0.7830032 -0.4398329 0.4398329 -0.7830032 -0.4398329 0.4398329 -0.7830032 -0.4398329 0.4398329 -0.7830032 -0.6008213 0.1609889 -0.7830048 -0.6008213 0.1609889 -0.7830048 -0.6008213 0.1609889 -0.7830048 -0.6008224 0.1609911 -0.7830033 -0.6008224 0.1609911 -0.7830033 -0.6008224 0.1609911 -0.7830033 -0.7760108 -0.2079331 -0.5954589 -0.7760108 -0.2079331 -0.5954589 -0.7760108 -0.2079331 -0.5954589 -0.7760136 -0.2079314 -0.5954558 -0.7760136 -0.2079314 -0.5954558 -0.7760136 -0.2079314 -0.5954558 -0.5680794 -0.5680794 -0.5954592 -0.5680794 -0.5680794 -0.5954592 -0.5680794 -0.5680794 -0.5954592 -0.5680794 -0.5680794 -0.5954591 -0.5680794 -0.5680794 -0.5954591 -0.5680794 -0.5680794 -0.5954591 -0.2079337 -0.7760131 -0.5954555 -0.2079337 -0.7760131 -0.5954555 -0.2079337 -0.7760131 -0.5954555 -0.2079308 -0.7760116 -0.5954585 -0.2079308 -0.7760116 -0.5954585 -0.2079308 -0.7760116 -0.5954585 0.2079331 -0.7760108 -0.5954589 0.2079331 -0.7760108 -0.5954589 0.2079331 -0.7760108 -0.5954589 0.2079314 -0.7760136 -0.5954558 0.2079314 -0.7760136 -0.5954558 0.2079314 -0.7760136 -0.5954558 0.5680794 -0.5680794 -0.5954592 0.5680794 -0.5680794 -0.5954592 0.5680794 -0.5680794 -0.5954592 0.5680794 -0.5680794 -0.5954591 0.5680794 -0.5680794 -0.5954591 0.5680794 -0.5680794 -0.5954591 0.7760131 -0.2079337 -0.5954555 0.7760131 -0.2079337 -0.5954555 0.7760131 -0.2079337 -0.5954555 0.7760116 -0.2079308 -0.5954585 0.7760116 -0.2079308 -0.5954585 0.7760116 -0.2079308 -0.5954585 0.7760108 0.2079331 -0.5954589 0.7760108 0.2079331 -0.5954589 0.7760108 0.2079331 -0.5954589 0.7760136 0.2079314 -0.5954558 0.7760136 0.2079314 -0.5954558 0.7760136 0.2079314 -0.5954558 0.5680794 0.5680794 -0.5954592 0.5680794 0.5680794 -0.5954592 0.5680794 0.5680794 -0.5954592 0.5680794 0.5680794 -0.5954591 0.5680794 0.5680794 -0.5954591 0.5680794 0.5680794 -0.5954591 0.2079337 0.7760131 -0.5954555 0.2079337 0.7760131 -0.5954555 0.2079337 0.7760131 -0.5954555 0.2079308 0.7760116 -0.5954585 0.2079308 0.7760116 -0.5954585 0.2079308 0.7760116 -0.5954585 -0.2079331 0.7760108 -0.5954589 -0.2079331 0.7760108 -0.5954589 -0.2079331 0.7760108 -0.5954589 -0.2079314 0.7760136 -0.5954558 -0.2079314 0.7760136 -0.5954558 -0.2079314 0.7760136 -0.5954558 -0.5680794 0.5680794 -0.5954592 -0.5680794 0.5680794 -0.5954592 -0.5680794 0.5680794 -0.5954592 -0.5680794 0.5680794 -0.5954591 -0.5680794 0.5680794 -0.5954591 -0.5680794 0.5680794 -0.5954591 -0.7760131 0.2079337 -0.5954555 -0.7760131 0.2079337 -0.5954555 -0.7760131 0.2079337 -0.5954555 -0.7760116 0.2079308 -0.5954585 -0.7760116 0.2079308 -0.5954585 -0.7760116 0.2079308 -0.5954585 -0.8968095 -0.2402984 -0.3714692 -0.8968095 -0.2402984 -0.3714692 -0.8968095 -0.2402984 -0.3714692 -0.896808 -0.2402997 -0.371472 -0.896808 -0.2402997 -0.371472 -0.896808 -0.2402997 -0.371472 -0.6565099 -0.6565099 -0.3714692 -0.6565099 -0.6565099 -0.3714692 -0.6565099 -0.6565099 -0.3714692 -0.6565099 -0.6565099 -0.3714692 -0.6565099 -0.6565099 -0.3714692 -0.6565099 -0.6565099 -0.3714692 -0.2402981 -0.8968083 -0.3714722 -0.2402981 -0.8968083 -0.3714722 -0.2402981 -0.8968083 -0.3714722 -0.2403 -0.896809 -0.3714694 -0.2403 -0.896809 -0.3714694 -0.2403 -0.896809 -0.3714694 0.2402984 -0.8968095 -0.3714692 0.2402984 -0.8968095 -0.3714692 0.2402984 -0.8968095 -0.3714692 0.2402997 -0.896808 -0.371472 0.2402997 -0.896808 -0.371472 0.2402997 -0.896808 -0.371472 0.6565099 -0.6565099 -0.3714692 0.6565099 -0.6565099 -0.3714692 0.6565099 -0.6565099 -0.3714692 0.6565099 -0.6565099 -0.3714692 0.6565099 -0.6565099 -0.3714692 0.6565099 -0.6565099 -0.3714692 0.8968083 -0.2402981 -0.3714722 0.8968083 -0.2402981 -0.3714722 0.8968083 -0.2402981 -0.3714722 0.896809 -0.2403 -0.3714694 0.896809 -0.2403 -0.3714694 0.896809 -0.2403 -0.3714694 0.8968095 0.2402984 -0.3714692 0.8968095 0.2402984 -0.3714692 0.8968095 0.2402984 -0.3714692 0.896808 0.2402997 -0.371472 0.896808 0.2402997 -0.371472 0.896808 0.2402997 -0.371472 0.6565099 0.6565099 -0.3714692 0.6565099 0.6565099 -0.3714692 0.6565099 0.6565099 -0.3714692 0.6565099 0.6565099 -0.3714692 0.6565099 0.6565099 -0.3714692 0.6565099 0.6565099 -0.3714692 0.2402981 0.8968083 -0.3714722 0.2402981 0.8968083 -0.3714722 0.2402981 0.8968083 -0.3714722 0.2403 0.896809 -0.3714694 0.2403 0.896809 -0.3714694 0.2403 0.896809 -0.3714694 -0.2402984 0.8968095 -0.3714692 -0.2402984 0.8968095 -0.3714692 -0.2402984 0.8968095 -0.3714692 -0.2402997 0.896808 -0.371472 -0.2402997 0.896808 -0.371472 -0.2402997 0.896808 -0.371472 -0.6565099 0.6565099 -0.3714692 -0.6565099 0.6565099 -0.3714692 -0.6565099 0.6565099 -0.3714692 -0.6565099 0.6565099 -0.3714692 -0.6565099 0.6565099 -0.3714692 -0.6565099 0.6565099 -0.3714692 -0.8968083 0.2402981 -0.3714722 -0.8968083 0.2402981 -0.3714722 -0.8968083 0.2402981 -0.3714722 -0.896809 0.2403 -0.3714694 -0.896809 0.2403 -0.3714694 -0.896809 0.2403 -0.3714694 -0.958209 -0.2567521 -0.1261502 -0.958209 -0.2567521 -0.1261502 -0.958209 -0.2567521 -0.1261502 -0.958209 -0.2567522 -0.1261503 -0.958209 -0.2567522 -0.1261503 -0.958209 -0.2567522 -0.1261503 -0.7014578 -0.7014578 -0.1261502 -0.7014578 -0.7014578 -0.1261502 -0.7014578 -0.7014578 -0.1261502 -0.7014578 -0.7014578 -0.1261502 -0.7014578 -0.7014578 -0.1261502 -0.7014578 -0.7014578 -0.1261502 -0.2567521 -0.958209 -0.1261503 -0.2567521 -0.958209 -0.1261503 -0.2567521 -0.958209 -0.1261503 -0.2567522 -0.958209 -0.1261502 -0.2567522 -0.958209 -0.1261502 -0.2567522 -0.958209 -0.1261502 0.2567521 -0.958209 -0.1261502 0.2567521 -0.958209 -0.1261502 0.2567521 -0.958209 -0.1261502 0.2567522 -0.958209 -0.1261503 0.2567522 -0.958209 -0.1261503 0.2567522 -0.958209 -0.1261503 0.7014578 -0.7014578 -0.1261502 0.7014578 -0.7014578 -0.1261502 0.7014578 -0.7014578 -0.1261502 0.7014578 -0.7014578 -0.1261502 0.7014578 -0.7014578 -0.1261502 0.7014578 -0.7014578 -0.1261502 0.958209 -0.2567521 -0.1261503 0.958209 -0.2567521 -0.1261503 0.958209 -0.2567521 -0.1261503 0.958209 -0.2567522 -0.1261502 0.958209 -0.2567522 -0.1261502 0.958209 -0.2567522 -0.1261502 0.958209 0.2567521 -0.1261502 0.958209 0.2567521 -0.1261502 0.958209 0.2567521 -0.1261502 0.958209 0.2567522 -0.1261503 0.958209 0.2567522 -0.1261503 0.958209 0.2567522 -0.1261503 0.7014578 0.7014578 -0.1261502 0.7014578 0.7014578 -0.1261502 0.7014578 0.7014578 -0.1261502 0.7014578 0.7014578 -0.1261502 0.7014578 0.7014578 -0.1261502 0.7014578 0.7014578 -0.1261502 0.2567521 0.958209 -0.1261503 0.2567521 0.958209 -0.1261503 0.2567521 0.958209 -0.1261503 0.2567522 0.958209 -0.1261502 0.2567522 0.958209 -0.1261502 0.2567522 0.958209 -0.1261502 -0.2567521 0.958209 -0.1261502 -0.2567521 0.958209 -0.1261502 -0.2567521 0.958209 -0.1261502 -0.2567522 0.958209 -0.1261503 -0.2567522 0.958209 -0.1261503 -0.2567522 0.958209 -0.1261503 -0.7014578 0.7014578 -0.1261502 -0.7014578 0.7014578 -0.1261502 -0.7014578 0.7014578 -0.1261502 -0.7014578 0.7014578 -0.1261502 -0.7014578 0.7014578 -0.1261502 -0.7014578 0.7014578 -0.1261502 -0.958209 0.2567521 -0.1261503 -0.958209 0.2567521 -0.1261503 -0.958209 0.2567521 -0.1261503 -0.958209 0.2567522 -0.1261502 -0.958209 0.2567522 -0.1261502 -0.958209 0.2567522 -0.1261502 -0.958209 -0.2567522 0.1261501 -0.958209 -0.2567522 0.1261501 -0.958209 -0.2567522 0.1261501 -0.958209 -0.2567521 0.1261503 -0.958209 -0.2567521 0.1261503 -0.958209 -0.2567521 0.1261503 -0.7014578 -0.7014578 0.1261501 -0.7014578 -0.7014578 0.1261501 -0.7014578 -0.7014578 0.1261501 -0.7014578 -0.7014578 0.1261501 -0.7014578 -0.7014578 0.1261501 -0.7014578 -0.7014578 0.1261501 -0.2567522 -0.958209 0.1261503 -0.2567522 -0.958209 0.1261503 -0.2567522 -0.958209 0.1261503 -0.2567521 -0.958209 0.1261501 -0.2567521 -0.958209 0.1261501 -0.2567521 -0.958209 0.1261501 0.2567522 -0.958209 0.1261501 0.2567522 -0.958209 0.1261501 0.2567522 -0.958209 0.1261501 0.2567521 -0.958209 0.1261503 0.2567521 -0.958209 0.1261503 0.2567521 -0.958209 0.1261503 0.7014578 -0.7014578 0.1261501 0.7014578 -0.7014578 0.1261501 0.7014578 -0.7014578 0.1261501 0.7014578 -0.7014578 0.1261501 0.7014578 -0.7014578 0.1261501 0.7014578 -0.7014578 0.1261501 0.958209 -0.2567522 0.1261503 0.958209 -0.2567522 0.1261503 0.958209 -0.2567522 0.1261503 0.958209 -0.2567521 0.1261501 0.958209 -0.2567521 0.1261501 0.958209 -0.2567521 0.1261501 0.958209 0.2567522 0.1261501 0.958209 0.2567522 0.1261501 0.958209 0.2567522 0.1261501 0.958209 0.2567521 0.1261503 0.958209 0.2567521 0.1261503 0.958209 0.2567521 0.1261503 0.7014578 0.7014578 0.1261501 0.7014578 0.7014578 0.1261501 0.7014578 0.7014578 0.1261501 0.7014578 0.7014578 0.1261501 0.7014578 0.7014578 0.1261501 0.7014578 0.7014578 0.1261501 0.2567522 0.958209 0.1261503 0.2567522 0.958209 0.1261503 0.2567522 0.958209 0.1261503 0.2567521 0.958209 0.1261501 0.2567521 0.958209 0.1261501 0.2567521 0.958209 0.1261501 -0.2567522 0.958209 0.1261501 -0.2567522 0.958209 0.1261501 -0.2567522 0.958209 0.1261501 -0.2567521 0.958209 0.1261503 -0.2567521 0.958209 0.1261503 -0.2567521 0.958209 0.1261503 -0.7014578 0.7014578 0.1261501 -0.7014578 0.7014578 0.1261501 -0.7014578 0.7014578 0.1261501 -0.7014578 0.7014578 0.1261501 -0.7014578 0.7014578 0.1261501 -0.7014578 0.7014578 0.1261501 -0.958209 0.2567522 0.1261503 -0.958209 0.2567522 0.1261503 -0.958209 0.2567522 0.1261503 -0.958209 0.2567521 0.1261501 -0.958209 0.2567521 0.1261501 -0.958209 0.2567521 0.1261501 -0.896809 -0.2403 0.3714694 -0.896809 -0.2403 0.3714694 -0.896809 -0.2403 0.3714694 -0.8968083 -0.2402981 0.3714722 -0.8968083 -0.2402981 0.3714722 -0.8968083 -0.2402981 0.3714722 -0.6565099 -0.6565099 0.3714692 -0.6565099 -0.6565099 0.3714692 -0.6565099 -0.6565099 0.3714692 -0.6565099 -0.6565099 0.3714692 -0.6565099 -0.6565099 0.3714692 -0.6565099 -0.6565099 0.3714692 -0.2402997 -0.896808 0.371472 -0.2402997 -0.896808 0.371472 -0.2402997 -0.896808 0.371472 -0.2402984 -0.8968095 0.3714693 -0.2402984 -0.8968095 0.3714693 -0.2402984 -0.8968095 0.3714693 0.2403 -0.896809 0.3714694 0.2403 -0.896809 0.3714694 0.2403 -0.896809 0.3714694 0.2402981 -0.8968083 0.3714722 0.2402981 -0.8968083 0.3714722 0.2402981 -0.8968083 0.3714722 0.6565099 -0.6565099 0.3714692 0.6565099 -0.6565099 0.3714692 0.6565099 -0.6565099 0.3714692 0.6565099 -0.6565099 0.3714692 0.6565099 -0.6565099 0.3714692 0.6565099 -0.6565099 0.3714692 0.896808 -0.2402997 0.371472 0.896808 -0.2402997 0.371472 0.896808 -0.2402997 0.371472 0.8968095 -0.2402984 0.3714693 0.8968095 -0.2402984 0.3714693 0.8968095 -0.2402984 0.3714693 0.896809 0.2403 0.3714694 0.896809 0.2403 0.3714694 0.896809 0.2403 0.3714694 0.8968083 0.2402981 0.3714722 0.8968083 0.2402981 0.3714722 0.8968083 0.2402981 0.3714722 0.6565099 0.6565099 0.3714692 0.6565099 0.6565099 0.3714692 0.6565099 0.6565099 0.3714692 0.6565099 0.6565099 0.3714692 0.6565099 0.6565099 0.3714692 0.6565099 0.6565099 0.3714692 0.2402997 0.896808 0.371472 0.2402997 0.896808 0.371472 0.2402997 0.896808 0.371472 0.2402984 0.8968095 0.3714693 0.2402984 0.8968095 0.3714693 0.2402984 0.8968095 0.3714693 -0.2403 0.896809 0.3714694 -0.2403 0.896809 0.3714694 -0.2403 0.896809 0.3714694 -0.2402981 0.8968083 0.3714722 -0.2402981 0.8968083 0.3714722 -0.2402981 0.8968083 0.3714722 -0.6565099 0.6565099 0.3714692 -0.6565099 0.6565099 0.3714692 -0.6565099 0.6565099 0.3714692 -0.6565099 0.6565099 0.3714692 -0.6565099 0.6565099 0.3714692 -0.6565099 0.6565099 0.3714692 -0.896808 0.2402997 0.371472 -0.896808 0.2402997 0.371472 -0.896808 0.2402997 0.371472 -0.8968095 0.2402984 0.3714693 -0.8968095 0.2402984 0.3714693 -0.8968095 0.2402984 0.3714693 -0.7760128 -0.2079312 0.5954568 -0.7760128 -0.2079312 0.5954568 -0.7760128 -0.2079312 0.5954568 -0.7760144 -0.207934 0.5954537 -0.7760144 -0.207934 0.5954537 -0.7760144 -0.207934 0.5954537 -0.5680803 -0.5680803 0.5954573 -0.5680803 -0.5680803 0.5954573 -0.5680803 -0.5680803 0.5954573 -0.5680803 -0.5680803 0.5954574 -0.5680803 -0.5680803 0.5954574 -0.5680803 -0.5680803 0.5954574 -0.2079317 -0.7760147 0.595454 -0.2079317 -0.7760147 0.595454 -0.2079317 -0.7760147 0.595454 -0.2079334 -0.7760119 0.5954571 -0.2079334 -0.7760119 0.5954571 -0.2079334 -0.7760119 0.5954571 0.2079312 -0.7760128 0.5954568 0.2079312 -0.7760128 0.5954568 0.2079312 -0.7760128 0.5954568 0.207934 -0.7760144 0.5954537 0.207934 -0.7760144 0.5954537 0.207934 -0.7760144 0.5954537 0.5680803 -0.5680803 0.5954573 0.5680803 -0.5680803 0.5954573 0.5680803 -0.5680803 0.5954573 0.5680803 -0.5680803 0.5954574 0.5680803 -0.5680803 0.5954574 0.5680803 -0.5680803 0.5954574 0.7760147 -0.2079317 0.595454 0.7760147 -0.2079317 0.595454 0.7760147 -0.2079317 0.595454 0.7760119 -0.2079334 0.5954571 0.7760119 -0.2079334 0.5954571 0.7760119 -0.2079334 0.5954571 0.7760128 0.2079312 0.5954568 0.7760128 0.2079312 0.5954568 0.7760128 0.2079312 0.5954568 0.7760144 0.207934 0.5954537 0.7760144 0.207934 0.5954537 0.7760144 0.207934 0.5954537 0.5680803 0.5680803 0.5954573 0.5680803 0.5680803 0.5954573 0.5680803 0.5680803 0.5954573 0.5680803 0.5680803 0.5954574 0.5680803 0.5680803 0.5954574 0.5680803 0.5680803 0.5954574 0.2079317 0.7760147 0.595454 0.2079317 0.7760147 0.595454 0.2079317 0.7760147 0.595454 0.2079334 0.7760119 0.5954571 0.2079334 0.7760119 0.5954571 0.2079334 0.7760119 0.5954571 -0.2079312 0.7760128 0.5954568 -0.2079312 0.7760128 0.5954568 -0.2079312 0.7760128 0.5954568 -0.207934 0.7760144 0.5954537 -0.207934 0.7760144 0.5954537 -0.207934 0.7760144 0.5954537 -0.5680803 0.5680803 0.5954573 -0.5680803 0.5680803 0.5954573 -0.5680803 0.5680803 0.5954573 -0.5680803 0.5680803 0.5954574 -0.5680803 0.5680803 0.5954574 -0.5680803 0.5680803 0.5954574 -0.7760147 0.2079317 0.595454 -0.7760147 0.2079317 0.595454 -0.7760147 0.2079317 0.595454 -0.7760119 0.2079334 0.5954571 -0.7760119 0.2079334 0.5954571 -0.7760119 0.2079334 0.5954571 -0.6008226 -0.1609912 0.7830032 -0.6008226 -0.1609912 0.7830032 -0.6008226 -0.1609912 0.7830032 -0.6008214 -0.160989 0.7830046 -0.6008214 -0.160989 0.7830046 -0.6008214 -0.160989 0.7830046 -0.4398331 -0.4398331 0.783003 -0.4398331 -0.4398331 0.783003 -0.4398331 -0.4398331 0.783003 -0.439833 -0.439833 0.7830031 -0.439833 -0.439833 0.7830031 -0.439833 -0.439833 0.7830031 -0.1609908 -0.6008213 0.7830043 -0.1609908 -0.6008213 0.7830043 -0.1609908 -0.6008213 0.7830043 -0.1609895 -0.6008234 0.7830029 -0.1609895 -0.6008234 0.7830029 -0.1609895 -0.6008234 0.7830029 0.1609912 -0.6008226 0.7830032 0.1609912 -0.6008226 0.7830032 0.1609912 -0.6008226 0.7830032 0.160989 -0.6008214 0.7830046 0.160989 -0.6008214 0.7830046 0.160989 -0.6008214 0.7830046 0.4398331 -0.4398331 0.783003 0.4398331 -0.4398331 0.783003 0.4398331 -0.4398331 0.783003 0.439833 -0.439833 0.7830031 0.439833 -0.439833 0.7830031 0.439833 -0.439833 0.7830031 0.6008213 -0.1609908 0.7830043 0.6008213 -0.1609908 0.7830043 0.6008213 -0.1609908 0.7830043 0.6008234 -0.1609895 0.7830029 0.6008234 -0.1609895 0.7830029 0.6008234 -0.1609895 0.7830029 0.6008226 0.1609912 0.7830032 0.6008226 0.1609912 0.7830032 0.6008226 0.1609912 0.7830032 0.6008214 0.160989 0.7830046 0.6008214 0.160989 0.7830046 0.6008214 0.160989 0.7830046 0.4398331 0.4398331 0.783003 0.4398331 0.4398331 0.783003 0.4398331 0.4398331 0.783003 0.439833 0.439833 0.7830031 0.439833 0.439833 0.7830031 0.439833 0.439833 0.7830031 0.1609908 0.6008213 0.7830043 0.1609908 0.6008213 0.7830043 0.1609908 0.6008213 0.7830043 0.1609895 0.6008234 0.7830029 0.1609895 0.6008234 0.7830029 0.1609895 0.6008234 0.7830029 -0.1609912 0.6008226 0.7830032 -0.1609912 0.6008226 0.7830032 -0.1609912 0.6008226 0.7830032 -0.160989 0.6008214 0.7830046 -0.160989 0.6008214 0.7830046 -0.160989 0.6008214 0.7830046 -0.4398331 0.4398331 0.783003 -0.4398331 0.4398331 0.783003 -0.4398331 0.4398331 0.783003 -0.439833 0.439833 0.7830031 -0.439833 0.439833 0.7830031 -0.439833 0.439833 0.7830031 -0.6008213 0.1609908 0.7830043 -0.6008213 0.1609908 0.7830043 -0.6008213 0.1609908 0.7830043 -0.6008234 0.1609895 0.7830029 -0.6008234 0.1609895 0.7830029 -0.6008234 0.1609895 0.7830029 -0.3806861 -0.1020041 0.919061 -0.3806861 -0.1020041 0.919061 -0.3806861 -0.1020041 0.919061 -0.3806859 -0.1020035 0.9190612 -0.3806859 -0.1020035 0.9190612 -0.3806859 -0.1020035 0.9190612 -0.2786817 -0.2786817 0.9190609 -0.2786817 -0.2786817 0.9190609 -0.2786817 -0.2786817 0.9190609 -0.2786817 -0.2786817 0.9190609 -0.2786817 -0.2786817 0.9190609 -0.2786817 -0.2786817 0.9190609 -0.1020041 -0.380686 0.9190612 -0.1020041 -0.380686 0.9190612 -0.1020041 -0.380686 0.9190612 -0.1020036 -0.3806864 0.919061 -0.1020036 -0.3806864 0.919061 -0.1020036 -0.3806864 0.919061 0.1020041 -0.3806861 0.919061 0.1020041 -0.3806861 0.919061 0.1020041 -0.3806861 0.919061 0.1020035 -0.3806859 0.9190612 0.1020035 -0.3806859 0.9190612 0.1020035 -0.3806859 0.9190612 0.2786817 -0.2786817 0.9190609 0.2786817 -0.2786817 0.9190609 0.2786817 -0.2786817 0.9190609 0.2786817 -0.2786817 0.9190609 0.2786817 -0.2786817 0.9190609 0.2786817 -0.2786817 0.9190609 0.380686 -0.1020041 0.9190612 0.380686 -0.1020041 0.9190612 0.380686 -0.1020041 0.9190612 0.3806864 -0.1020036 0.919061 0.3806864 -0.1020036 0.919061 0.3806864 -0.1020036 0.919061 0.3806861 0.1020041 0.919061 0.3806861 0.1020041 0.919061 0.3806861 0.1020041 0.919061 0.3806859 0.1020035 0.9190612 0.3806859 0.1020035 0.9190612 0.3806859 0.1020035 0.9190612 0.2786817 0.2786817 0.9190609 0.2786817 0.2786817 0.9190609 0.2786817 0.2786817 0.9190609 0.2786817 0.2786817 0.9190609 0.2786817 0.2786817 0.9190609 0.2786817 0.2786817 0.9190609 0.1020041 0.380686 0.9190612 0.1020041 0.380686 0.9190612 0.1020041 0.380686 0.9190612 0.1020036 0.3806864 0.919061 0.1020036 0.3806864 0.919061 0.1020036 0.3806864 0.919061 -0.1020041 0.3806861 0.919061 -0.1020041 0.3806861 0.919061 -0.1020041 0.3806861 0.919061 -0.1020035 0.3806859 0.9190612 -0.1020035 0.3806859 0.9190612 -0.1020035 0.3806859 0.9190612 -0.2786817 0.2786817 0.9190609 -0.2786817 0.2786817 0.9190609 -0.2786817 0.2786817 0.9190609 -0.2786817 0.2786817 0.9190609 -0.2786817 0.2786817 0.9190609 -0.2786817 0.2786817 0.9190609 -0.380686 0.1020041 0.9190612 -0.380686 0.1020041 0.9190612 -0.380686 0.1020041 0.9190612 -0.3806864 0.1020036 0.919061 -0.3806864 0.1020036 0.919061 -0.3806864 0.1020036 0.919061 -0.1304458 -0.0349525 0.9908391 -0.1304458 -0.0349525 0.9908391 -0.1304458 -0.0349525 0.9908391 1.0 0.0 0.0 1.0 0.0 0.0 -0.0954928 -0.0954928 0.9908392 -0.0954928 -0.0954928 0.9908392 -0.0954928 -0.0954928 0.9908392 1.0 0.0 0.0 1.0 0.0 0.0 -0.0349525 -0.1304458 0.9908391 -0.0349525 -0.1304458 0.9908391 -0.0349525 -0.1304458 0.9908391 1.0 0.0 0.0 1.0 0.0 0.0 0.0349525 -0.1304458 0.9908391 0.0349525 -0.1304458 0.9908391 0.0349525 -0.1304458 0.9908391 1.0 0.0 0.0 1.0 0.0 0.0 0.0954928 -0.0954928 0.9908392 0.0954928 -0.0954928 0.9908392 0.0954928 -0.0954928 0.9908392 1.0 0.0 0.0 1.0 0.0 0.0 0.1304458 -0.0349525 0.9908391 0.1304458 -0.0349525 0.9908391 0.1304458 -0.0349525 0.9908391 1.0 0.0 0.0 1.0 0.0 0.0 0.1304458 0.0349525 0.9908391 0.1304458 0.0349525 0.9908391 0.1304458 0.0349525 0.9908391 1.0 0.0 0.0 1.0 0.0 0.0 0.0954928 0.0954928 0.9908392 0.0954928 0.0954928 0.9908392 0.0954928 0.0954928 0.9908392 1.0 0.0 0.0 1.0 0.0 0.0 0.0349525 0.1304458 0.9908391 0.0349525 0.1304458 0.9908391 0.0349525 0.1304458 0.9908391 1.0 0.0 0.0 1.0 0.0 0.0 -0.0349525 0.1304458 0.9908391 -0.0349525 0.1304458 0.9908391 -0.0349525 0.1304458 0.9908391 1.0 0.0 0.0 1.0 0.0 0.0 -0.0954928 0.0954928 0.9908392 -0.0954928 0.0954928 0.9908392 -0.0954928 0.0954928 0.9908392 1.0 0.0 0.0 1.0 0.0 0.0 -0.1304458 0.0349525 0.9908391 -0.1304458 0.0349525 0.9908391 -0.1304458 0.0349525 0.9908391 1.0 0.0 0.0 1.0 0.0 0.0 1.0 0.0 0.0 1.0 0.0 0.0 -0.1304458 -0.0349525 -0.9908391 -0.1304458 -0.0349525 -0.9908391 -0.1304458 -0.0349525 -0.9908391 1.0 0.0 0.0 1.0 0.0 0.0 -0.0954928 -0.0954928 -0.9908392 -0.0954928 -0.0954928 -0.9908392 -0.0954928 -0.0954928 -0.9908392 1.0 0.0 0.0 1.0 0.0 0.0 -0.0349525 -0.1304458 -0.9908391 -0.0349525 -0.1304458 -0.9908391 -0.0349525 -0.1304458 -0.9908391 1.0 0.0 0.0 1.0 0.0 0.0 0.0349525 -0.1304458 -0.9908391 0.0349525 -0.1304458 -0.9908391 0.0349525 -0.1304458 -0.9908391 1.0 0.0 0.0 1.0 0.0 0.0 0.0954928 -0.0954928 -0.9908392 0.0954928 -0.0954928 -0.9908392 0.0954928 -0.0954928 -0.9908392 1.0 0.0 0.0 1.0 0.0 0.0 0.1304458 -0.0349525 -0.9908391 0.1304458 -0.0349525 -0.9908391 0.1304458 -0.0349525 -0.9908391 1.0 0.0 0.0 1.0 0.0 0.0 0.1304458 0.0349525 -0.9908391 0.1304458 0.0349525 -0.9908391 0.1304458 0.0349525 -0.9908391 1.0 0.0 0.0 1.0 0.0 0.0 0.0954928 0.0954928 -0.9908392 0.0954928 0.0954928 -0.9908392 0.0954928 0.0954928 -0.9908392 1.0 0.0 0.0 1.0 0.0 0.0 0.0349525 0.1304458 -0.9908391 0.0349525 0.1304458 -0.9908391 0.0349525 0.1304458 -0.9908391 1.0 0.0 0.0 1.0 0.0 0.0 -0.0349525 0.1304458 -0.9908391 -0.0349525 0.1304458 -0.9908391 -0.0349525 0.1304458 -0.9908391 1.0 0.0 0.0 1.0 0.0 0.0 -0.0954928 0.0954928 -0.9908392 -0.0954928 0.0954928 -0.9908392 -0.0954928 0.0954928 -0.9908392 1.0 0.0 0.0 1.0 0.0 0.0 -0.1304458 0.0349525 -0.9908391 -0.1304458 0.0349525 -0.9908391 -0.1304458 0.0349525 -0.9908391 -0.3806901 -0.1020046 -0.9190593 -0.3806901 -0.1020046 -0.9190593 -0.3806901 -0.1020046 -0.9190593 -0.3806896 -0.102005 -0.9190595 -0.3806896 -0.102005 -0.9190595 -0.3806896 -0.102005 -0.9190595 -0.2786844 -0.2786844 -0.9190593 -0.2786844 -0.2786844 -0.9190593 -0.2786844 -0.2786844 -0.9190593 -0.2786844 -0.2786844 -0.9190593 -0.2786844 -0.2786844 -0.9190593 -0.2786844 -0.2786844 -0.9190593 -0.1020045 -0.3806896 -0.9190596 -0.1020045 -0.3806896 -0.9190596 -0.1020045 -0.3806896 -0.9190596 -0.1020051 -0.3806899 -0.9190595 -0.1020051 -0.3806899 -0.9190595 -0.1020051 -0.3806899 -0.9190595 0.1020046 -0.3806901 -0.9190593 0.1020046 -0.3806901 -0.9190593 0.1020046 -0.3806901 -0.9190593 0.102005 -0.3806896 -0.9190595 0.102005 -0.3806896 -0.9190595 0.102005 -0.3806896 -0.9190595 0.2786844 -0.2786844 -0.9190593 0.2786844 -0.2786844 -0.9190593 0.2786844 -0.2786844 -0.9190593 0.2786844 -0.2786844 -0.9190593 0.2786844 -0.2786844 -0.9190593 0.2786844 -0.2786844 -0.9190593 0.3806896 -0.1020045 -0.9190596 0.3806896 -0.1020045 -0.9190596 0.3806896 -0.1020045 -0.9190596 0.3806899 -0.1020051 -0.9190595 0.3806899 -0.1020051 -0.9190595 0.3806899 -0.1020051 -0.9190595 0.3806901 0.1020046 -0.9190593 0.3806901 0.1020046 -0.9190593 0.3806901 0.1020046 -0.9190593 0.3806896 0.102005 -0.9190595 0.3806896 0.102005 -0.9190595 0.3806896 0.102005 -0.9190595 0.2786844 0.2786844 -0.9190593 0.2786844 0.2786844 -0.9190593 0.2786844 0.2786844 -0.9190593 0.2786844 0.2786844 -0.9190593 0.2786844 0.2786844 -0.9190593 0.2786844 0.2786844 -0.9190593 0.1020045 0.3806896 -0.9190596 0.1020045 0.3806896 -0.9190596 0.1020045 0.3806896 -0.9190596 0.1020051 0.3806899 -0.9190595 0.1020051 0.3806899 -0.9190595 0.1020051 0.3806899 -0.9190595 -0.1020046 0.3806901 -0.9190593 -0.1020046 0.3806901 -0.9190593 -0.1020046 0.3806901 -0.9190593 -0.102005 0.3806896 -0.9190595 -0.102005 0.3806896 -0.9190595 -0.102005 0.3806896 -0.9190595 -0.2786844 0.2786844 -0.9190593 -0.2786844 0.2786844 -0.9190593 -0.2786844 0.2786844 -0.9190593 -0.2786844 0.2786844 -0.9190593 -0.2786844 0.2786844 -0.9190593 -0.2786844 0.2786844 -0.9190593 -0.3806896 0.1020045 -0.9190596 -0.3806896 0.1020045 -0.9190596 -0.3806896 0.1020045 -0.9190596 -0.3806899 0.1020051 -0.9190595 -0.3806899 0.1020051 -0.9190595 -0.3806899 0.1020051 -0.9190595 -0.6008232 -0.1609894 -0.7830032 -0.6008232 -0.1609894 -0.7830032 -0.6008232 -0.1609894 -0.7830032 -0.600821 -0.1609907 -0.7830045 -0.600821 -0.1609907 -0.7830045 -0.600821 -0.1609907 -0.7830045 -0.4398329 -0.4398329 -0.7830032 -0.4398329 -0.4398329 -0.7830032 -0.4398329 -0.4398329 -0.7830032 -0.4398329 -0.4398329 -0.7830032 -0.4398329 -0.4398329 -0.7830032 -0.4398329 -0.4398329 -0.7830032 -0.1609889 -0.6008213 -0.7830048 -0.1609889 -0.6008213 -0.7830048 -0.1609889 -0.6008213 -0.7830048 -0.1609911 -0.6008224 -0.7830033 -0.1609911 -0.6008224 -0.7830033 -0.1609911 -0.6008224 -0.7830033 0.1609894 -0.6008232 -0.7830032 0.1609894 -0.6008232 -0.7830032 0.1609894 -0.6008232 -0.7830032 0.1609907 -0.600821 -0.7830045 0.1609907 -0.600821 -0.7830045 0.1609907 -0.600821 -0.7830045 0.4398329 -0.4398329 -0.7830032 0.4398329 -0.4398329 -0.7830032 0.4398329 -0.4398329 -0.7830032 0.4398329 -0.4398329 -0.7830032 0.4398329 -0.4398329 -0.7830032 0.4398329 -0.4398329 -0.7830032 0.6008213 -0.1609889 -0.7830048 0.6008213 -0.1609889 -0.7830048 0.6008213 -0.1609889 -0.7830048 0.6008224 -0.1609911 -0.7830033 0.6008224 -0.1609911 -0.7830033 0.6008224 -0.1609911 -0.7830033 0.6008232 0.1609894 -0.7830032 0.6008232 0.1609894 -0.7830032 0.6008232 0.1609894 -0.7830032 0.600821 0.1609907 -0.7830045 0.600821 0.1609907 -0.7830045 0.600821 0.1609907 -0.7830045 0.4398329 0.4398329 -0.7830032 0.4398329 0.4398329 -0.7830032 0.4398329 0.4398329 -0.7830032 0.4398329 0.4398329 -0.7830032 0.4398329 0.4398329 -0.7830032 0.4398329 0.4398329 -0.7830032 0.1609889 0.6008213 -0.7830048 0.1609889 0.6008213 -0.7830048 0.1609889 0.6008213 -0.7830048 0.1609911 0.6008224 -0.7830033 0.1609911 0.6008224 -0.7830033 0.1609911 0.6008224 -0.7830033 -0.1609894 0.6008232 -0.7830032 -0.1609894 0.6008232 -0.7830032 -0.1609894 0.6008232 -0.7830032 -0.1609907 0.600821 -0.7830045 -0.1609907 0.600821 -0.7830045 -0.1609907 0.600821 -0.7830045</float_array>
                    <technique_common>
                        <accessor count="840" source="#geometry0-normal-array" stride="3">
                            <param name="X" type="float"/>
                            <param name="Y" type="float"/>
                            <param name="Z" type="float"/>
                        </accessor>
                    </technique_common>
                </source>
                <vertices id="geometry0-vertex">
                    <input semantic="POSITION" source="#geometry0-position"/>
                </vertices>
                <triangles count="288" material="default_ai_0.2_sh_0.2_tr_0.0_dc_r_0.8_g_0.8_b_0.8_sc_r_1.0_g_1.0_b_1.0_ec_r_0.0_g_0.0_b_0_tri">
                    <input offset="0" semantic="VERTEX" source="#geometry0-vertex"/>
                    <input offset="1" semantic="NORMAL" source="#geometry0-normal"/>
                    <p>23 0 24 1 36 2 23 3 36 4 35 5 24 6 14 7 26 8 24 9 26 10 36 11 26 12 25 13 37 14 26 15 37 16 38 17 25 18 27 19 39 20 25 21 39 22 37 23 27 24 28 25 40 26 27 27 40 28 39 29 28 30 29 31 41 32 28 33 41 34 40 35 29 36 30 37 42 38 29 39 42 40 41 41 30 42 31 43 43 44 30 45 43 46 42 47 31 48 32 49 44 50 31 51 44 52 43 53 32 54 33 55 45 56 32 57 45 58 44 59 33 60 34 61 46 62 33 63 46 64 45 65 34 66 35 67 47 68 34 69 47 70 46 71 35 72 36 73 48 74 35 75 48 76 47 77 36 78 26 79 38 80 36 81 38 82 48 83 38 84 37 85 49 86 38 87 49 88 50 89 37 90 39 91 51 92 37 93 51 94 49 95 39 96 40 97 52 98 39 99 52 100 51 101 40 102 41 103 53 104 40 105 53 106 52 107 41 108 42 109 54 110 41 111 54 112 53 113 42 114 43 115 55 116 42 117 55 118 54 119 43 120 44 121 56 122 43 123 56 124 55 125 44 126 45 127 57 128 44 129 57 130 56 131 45 132 46 133 58 134 45 135 58 136 57 137 46 138 47 139 59 140 46 141 59 142 58 143 47 144 48 145 60 146 47 147 60 148 59 149 48 150 38 151 50 152 48 153 50 154 60 155 50 156 49 157 61 158 50 159 61 160 62 161 49 162 51 163 63 164 49 165 63 166 61 167 51 168 52 169 64 170 51 171 64 172 63 173 52 174 53 175 65 176 52 177 65 178 64 179 53 180 54 181 66 182 53 183 66 184 65 185 54 186 55 187 67 188 54 189 67 190 66 191 55 192 56 193 68 194 55 195 68 196 67 197 56 198 57 199 69 200 56 201 69 202 68 203 57 204 58 205 70 206 57 207 70 208 69 209 58 210 59 211 71 212 58 213 71 214 70 215 59 216 60 217 72 218 59 219 72 220 71 221 60 222 50 223 62 224 60 225 62 226 72 227 62 228 61 229 73 230 62 231 73 232 74 233 61 234 63 235 75 236 61 237 75 238 73 239 63 240 64 241 76 242 63 243 76 244 75 245 64 246 65 247 77 248 64 249 77 250 76 251 65 252 66 253 78 254 65 255 78 256 77 257 66 258 67 259 79 260 66 261 79 262 78 263 67 264 68 265 80 266 67 267 80 268 79 269 68 270 69 271 81 272 68 273 81 274 80 275 69 276 70 277 82 278 69 279 82 280 81 281 70 282 71 283 83 284 70 285 83 286 82 287 71 288 72 289 84 290 71 291 84 292 83 293 72 294 62 295 74 296 72 297 74 298 84 299 74 300 73 301 85 302 74 303 85 304 86 305 73 306 75 307 87 308 73 309 87 310 85 311 75 312 76 313 88 314 75 315 88 316 87 317 76 318 77 319 89 320 76 321 89 322 88 323 77 324 78 325 90 326 77 327 90 328 89 329 78 330 79 331 91 332 78 333 91 334 90 335 79 336 80 337 92 338 79 339 92 340 91 341 80 342 81 343 93 344 80 345 93 346 92 347 81 348 82 349 94 350 81 351 94 352 93 353 82 354 83 355 95 356 82 357 95 358 94 359 83 360 84 361 96 362 83 363 96 364 95 365 84 366 74 367 86 368 84 369 86 370 96 371 86 372 85 373 97 374 86 375 97 376 98 377 85 378 87 379 99 380 85 381 99 382 97 383 87 384 88 385 100 386 87 387 100 388 99 389 88 390 89 391 101 392 88 393 101 394 100 395 89 396 90 397 102 398 89 399 102 400 101 401 90 402 91 403 103 404 90 405 103 406 102 407 91 408 92 409 104 410 91 411 104 412 103 413 92 414 93 415 105 416 92 417 105 418 104 419 93 420 94 421 106 422 93 423 106 424 105 425 94 426 95 427 107 428 94 429 107 430 106 431 95 432 96 433 108 434 95 435 108 436 107 437 96 438 86 439 98 440 96 441 98 442 108 443 98 444 97 445 109 446 98 447 109 448 110 449 97 450 99 451 111 452 97 453 111 454 109 455 99 456 100 457 112 458 99 459 112 460 111 461 100 462 101 463 113 464 100 465 113 466 112 467 101 468 102 469 114 470 101 471 114 472 113 473 102 474 103 475 115 476 102 477 115 478 114 479 103 480 104 481 116 482 103 483 116 484 115 485 104 486 105 487 117 488 104 489 117 490 116 491 105 492 106 493 118 494 105 495 118 496 117 497 106 498 107 499 119 500 106 501 119 502 118 503 107 504 108 505 120 506 107 507 120 508 119 509 108 510 98 511 110 512 108 513 110 514 120 515 110 516 109 517 121 518 110 519 121 520 122 521 109 522 111 523 123 524 109 525 123 526 121 527 111 528 112 529 124 530 111 531 124 532 123 533 112 534 113 535 125 536 112 537 125 538 124 539 113 540 114 541 126 542 113 543 126 544 125 545 114 546 115 547 127 548 114 549 127 550 126 551 115 552 116 553 128 554 115 555 128 556 127 557 116 558 117 559 129 560 116 561 129 562 128 563 117 564 118 565 130 566 117 567 130 568 129 569 118 570 119 571 131 572 118 573 131 574 130 575 119 576 120 577 132 578 119 579 132 580 131 581 120 582 110 583 122 584 120 585 122 586 132 587 122 588 121 589 133 590 122 591 133 592 133 592 121 593 123 594 133 595 121 596 133 597 133 597 123 598 124 599 133 600 123 601 133 602 133 602 124 603 125 604 133 605 124 606 133 607 133 607 125 608 126 609 133 610 125 611 133 612 133 612 126 613 127 614 133 615 126 616 133 617 133 617 127 618 128 619 133 620 127 621 133 622 133 622 128 623 129 624 133 625 128 626 133 627 133 627 129 628 130 629 133 630 129 631 133 632 133 632 130 633 131 634 133 635 130 636 133 637 133 637 131 638 132 639 133 640 131 641 133 642 133 642 132 643 122 644 133 645 132 646 133 647 133 647 0 648 0 648 1 649 0 650 1 651 2 652 0 653 0 653 3 654 0 655 3 656 1 657 0 658 0 658 4 659 0 660 4 661 3 662 0 663 0 663 5 664 0 665 5 666 4 667 0 668 0 668 6 669 0 670 6 671 5 672 0 673 0 673 7 674 0 675 7 676 6 677 0 678 0 678 8 679 0 680 8 681 7 682 0 683 0 683 9 684 0 685 9 686 8 687 0 688 0 688 10 689 0 690 10 691 9 692 0 693 0 693 11 694 0 695 11 696 10 697 0 698 0 698 12 699 0 700 12 701 11 702 0 703 0 703 2 704 0 705 2 706 12 707 2 708 1 709 13 710 2 711 13 712 14 713 1 714 3 715 15 716 1 717 15 718 13 719 3 720 4 721 16 722 3 723 16 724 15 725 4 726 5 727 17 728 4 729 17 730 16 731 5 732 6 733 18 734 5 735 18 736 17 737 6 738 7 739 19 740 6 741 19 742 18 743 7 744 8 745 20 746 7 747 20 748 19 749 8 750 9 751 21 752 8 753 21 754 20 755 9 756 10 757 22 758 9 759 22 760 21 761 10 762 11 763 23 764 10 765 23 766 22 767 11 768 12 769 24 770 11 771 24 772 23 773 12 774 2 775 14 776 12 777 14 778 24 779 14 780 13 781 25 782 14 783 25 784 26 785 13 786 15 787 27 788 13 789 27 790 25 791 15 792 16 793 28 794 15 795 28 796 27 797 16 798 17 799 29 800 16 801 29 802 28 803 17 804 18 805 30 806 17 807 30 808 29 809 18 810 19 811 31 812 18 813 31 814 30 815 19 816 20 817 32 818 19 819 32 820 31 821 20 822 21 823 33 824 20 825 33 826 32 827 21 828 22 829 34 830 21 831 34 832 33 833 22 834 23 835 35 836 22 837 35 838 34 839</p>
                </triangles>
            </mesh>
        </geometry>
    </library_geometries>
    <library_visual_scenes>
        <visual_scene id="Building_333_CROWN1">
            <node>
                <instance_geometry url="#geometry0">
                    <bind_material>
                        <technique_common>
                            <instance_material symbol="default_ai_0.2_sh_0.2_tr_0.0_dc_r_0.8_g_0.8_b_0.8_sc_r_1.0_g_1.0_b_1.0_ec_r_0.0_g_0.0_b_0_tri" target="#default_ai_0.2_sh_0.2_tr_0.0_dc_r_0.8_g_0.8_b_0.8_sc_r_1.0_g_1.0_b_1.0_ec_r_0.0_g_0.0_b_0_mat"/>
                        </technique_common>
                    </bind_material>
                </instance_geometry>
            </node>
        </visual_scene>
    </library_visual_scenes>
    <scene>
        <instance_visual_scene url="#Building_333_CROWN1"/>
    </scene>
</COLLADA>
