<?xml version="1.0" encoding="UTF-8" standalone="yes"?>
<COLLADA xmlns="http://www.collada.org/2005/11/COLLADASchema" version="1.4.1">
    <asset>
        <contributor>
            <authoring_tool>3D City Database Importer/Exporter, version 5.5.3; Chair of Geoinformatics, Technical University of Munich</authoring_tool>
        </contributor>
        <created>2026-09-25T14:44:43.476</created>
        <modified>2026-09-25T14:44:43.476</modified>
        <unit meter="1.0" name="meters"/>
        <up_axis>Z_UP</up_axis>
    </asset>
    <library_materials>
        <material id="default_ai_0.2_sh_0.2_tr_0.0_dc_r_0.8_g_0.8_b_0.8_sc_r_1.0_g_1.0_b_1.0_ec_r_0.0_g_0.0_b_0_mat">
            <instance_effect url="#default_ai_0.2_sh_0.2_tr_0.0_dc_r_0.8_g_0.8_b_0.8_sc_r_1.0_g_1.0_b_1.0_ec_r_0.0_g_0.0_b_0_eff"/>
        </material>
    </library_materials>
    <library_effects>
        <effect id="default_ai_0.2_sh_0.2_tr_0.0_dc_r_0.8_g_0.8_b_0.8_sc_r_1.0_g_1.0_b_1.0_ec_r_0.0_g_0.0_b_0_eff">
            <profile_COMMON>
                <technique sid="COMMON">
                    <lambert>
                        <emission>
                            <color>0.0 0.0 0.0 1.0</color>
                        </emission>
                        <diffuse>
                            <color>0.8 0.8 0.8 1.0</color>
                        </diffuse>
                        <reflective>
                            <color>1.0 1.0 1.0 1.0</color>
                        </reflective>
                        <reflectivity>
                            <float>0.2</float>
                        </reflectivity>
                        <transparent opaque="A_ONE">
                            <color>1.0 1.0 1.0 1.0</color>
                        </transparent>
                        <transparency>
                            <float>1.0</float>
                        </transparency>
                    </lambert>
                </technique>
                <extra>
                    <technique profile="GOOGLEEARTH">
                        <double_sided>0</double_sided>
                    </technique>
                </extra>
            </profile_COMMON>
        </effect>
    </library_effects>
    <library_geometries>
        <geometry id="geometry0">
            <mesh>
                <source id="geometry0-position">
                    <float_array id="geometry0-position-array" count="402">0.0 0.0 3.0 0.336216 0.194115 2.948889 0.3882285 0.0 2.948889 0.194115 0.336216 2.948889 0.0 0.3882285 2.948889 -0.194115 0.336216 2.948889 -0.336216 0.194115 2.948889 -0.3882285 0.0 2.948889 -0.336216 -0.194115 2.948889 -0.194115 -0.336216 2.948889 0.0 -0.3882285 2.948889 0.194115 -0.336216 2.948889 0.336216 -0.194115 2.948889 0.6495195 0.375 2.7990375 0.75 0.0 2.7990375 0.375 0.6495195 2.7990375 0.0 0.75 2.7990375 -0.375 0.6495195 2.7990375 -0.6495195 0.375 2.7990375 -0.75 0.0 2.7990375 -0.6495195 -0.375 2.7990375 -0.375 -0.6495195 2.7990375 0.0 -0.75 2.7990375 0.375 -0.6495195 2.7990375 0.6495195 -0.375 2.7990375 0.918558 0.5303295 2.560659 1.0606605 0.0 2.560659 0.5303295 0.918558 2.560659 0.0 1.0606605 2.560659 -0.5303295 0.918558 2.560659 -0.918558 0.5303295 2.560659 -1.0606605 0.0 2.560659 -0.918558 -0.5303295 2.560659 -0.5303295 -0.918558 2.560659 0.0 -1.0606605 2.560659 0.5303295 -0.918558 2.560659 0.918558 -0.5303295 2.560659 1.125 0.6495195 2.25 1.2990375 0.0 2.25 0.6495195 1.125 2.25 0.0 1.2990375 2.25 -0.6495195 1.125 2.25 -1.125 0.6495195 2.25 -1.2990375 0.0 2.25 -1.125 -0.6495195 2.25 -0.6495195 -1.125 2.25 0.0 -1.2990375 2.25 0.6495195 -1.125 2.25 1.125 -0.6495195 2.25 1.254774 0.7244445 1.8882285 1.448889 0.0 1.8882285 0.7244445 1.254774 1.8882285 0.0 1.448889 1.8882285 -0.7244445 1.254774 1.8882285 -1.254774 0.7244445 1.8882285 -1.448889 0.0 1.8882285 -1.254774 -0.7244445 1.8882285 -0.7244445 -1.254774 1.8882285 0.0 -1.448889 1.8882285 0.7244445 -1.254774 1.8882285 1.254774 -0.7244445 1.8882285 1.2990375 0.75 1.5 1.5 0.0 1.5 0.75 1.2990375 1.5 0.0 1.5 1.5 -0.75 1.2990375 1.5 -1.2990375 0.75 1.5 -1.5 0.0 1.5 -1.2990375 -0.75 1.5 -0.75 -1.2990375 1.5 0.0 -1.5 1.5 0.75 -1.2990375 1.5 1.2990375 -0.75 1.5 1.254774 0.7244445 1.1117715 1.448889 0.0 1.1117715 0.7244445 1.254774 1.1117715 0.0 1.448889 1.1117715 -0.7244445 1.254774 1.1117715 -1.254774 0.7244445 1.1117715 -1.448889 0.0 1.1117715 -1.254774 -0.7244445 1.1117715 -0.7244445 -1.254774 1.1117715 0.0 -1.448889 1.1117715 0.7244445 -1.254774 1.1117715 1.254774 -0.7244445 1.1117715 1.125 0.6495195 0.75 1.2990375 0.0 0.75 0.6495195 1.125 0.75 0.0 1.2990375 0.75 -0.6495195 1.125 0.75 -1.125 0.6495195 0.75 -1.2990375 0.0 0.75 -1.125 -0.6495195 0.75 -0.6495195 -1.125 0.75 0.0 -1.2990375 0.75 0.6495195 -1.125 0.75 1.125 -0.6495195 0.75 0.918558 0.5303295 0.4393395 1.0606605 0.0 0.4393395 0.5303295 0.918558 0.4393395 0.0 1.0606605 0.4393395 -0.5303295 0.918558 0.4393395 -0.918558 0.5303295 0.4393395 -1.0606605 0.0 0.4393395 -0.918558 -0.5303295 0.4393395 -0.5303295 -0.918558 0.4393395 0.0 -1.0606605 0.4393395 0.5303295 -0.918558 0.4393395 0.918558 -0.5303295 0.4393395 0.6495195 0.375 0.200961 0.75 0.0 0.200961 0.375 0.6495195 0.200961 0.0 0.75 0.200961 -0.375 0.6495195 0.200961 -0.6495195 0.375 0.200961 -0.75 0.0 0.200961 -0.6495195 -0.375 0.200961 -0.375 -0.6495195 0.200961 0.0 -0.75 0.200961 0.375 -0.6495195 0.200961 0.6495195 -0.375 0.200961 0.336216 0.194115 0.051111 0.3882285 0.0 0.051111 0.194115 0.336216 0.051111 0.0 0.3882285 0.051111 -0.194115 0.336216 0.051111 -0.336216 0.194115 0.051111 -0.3882285 0.0 0.051111 -0.336216 -0.194115 0.051111 -0.194115 -0.336216 0.051111 0.0 -0.3882285 0.051111 0.194115 -0.336216 0.051111 0.336216 -0.194115 0.051111 0.0 0.0 0.0</float_array>
                    <technique_common>
                        <accessor count="134" source="#geometry0-position-array" stride="3">
                            <param name="X" type="float"/>
                            <param name="Y" type="float"/>
                            <param name="Z" type="float"/>
                        </accessor>
                    </technique_common>
                </source>
                <source id="geometry0-normal">
                    <float_array id="geometry0-normal-array" count="2520">1.0 0.0 0.0 1.0 0.0 0.0 -0.0954928 -0.0954928 -0.9908392 -0.0954928 -0.0954928 -0.9908392 -0.0954928 -0.0954928 -0.9908392 1.0 0.0 0.0 1.0 0.0 0.0 -0.0349525 -0.1304457 -0.9908391 -0.0349525 -0.1304457 -0.9908391 -0.0349525 -0.1304457 -0.9908391 1.0 0.0 0.0 1.0 0.0 0.0 0.0349525 -0.1304457 -0.9908391 0.0349525 -0.1304457 -0.9908391 0.0349525 -0.1304457 -0.9908391 1.0 0.0 0.0 1.0 0.0 0.0 0.0954928 -0.0954928 -0.9908392 0.0954928 -0.0954928 -0.9908392 0.0954928 -0.0954928 -0.9908392 1.0 0.0 0.0 1.0 0.0 0.0 0.1304457 -0.0349525 -0.9908391 0.1304457 -0.0349525 -0.9908391 0.1304457 -0.0349525 -0.9908391 1.0 0.0 0.0 1.0 0.0 0.0 0.1304457 0.0349525 -0.9908391 0.1304457 0.0349525 -0.9908391 0.1304457 0.0349525 -0.9908391 1.0 0.0 0.0 1.0 0.0 0.0 0.0954928 0.0954928 -0.9908392 0.0954928 0.0954928 -0.9908392 0.0954928 0.0954928 -0.9908392 1.0 0.0 0.0 1.0 0.0 0.0 0.0349525 0.1304457 -0.9908391 0.0349525 0.1304457 -0.9908391 0.0349525 0.1304457 -0.9908391 1.0 0.0 0.0 1.0 0.0 0.0 -0.0349525 0.1304457 -0.9908391 -0.0349525 0.1304457 -0.9908391 -0.0349525 0.1304457 -0.9908391 1.0 0.0 0.0 1.0 0.0 0.0 -0.0954928 0.0954928 -0.9908392 -0.0954928 0.0954928 -0.9908392 -0.0954928 0.0954928 -0.9908392 1.0 0.0 0.0 1.0 0.0 0.0 -0.1304457 0.0349525 -0.9908391 -0.1304457 0.0349525 -0.9908391 -0.1304457 0.0349525 -0.9908391 -0.3806897 -0.1020046 -0.9190595 -0.3806897 -0.1020046 -0.9190595 -0.3806897 -0.1020046 -0.9190595 -0.3806893 -0.1020049 -0.9190597 -0.3806893 -0.1020049 -0.9190597 -0.3806893 -0.1020049 -0.9190597 -0.2786841 -0.2786841 -0.9190595 -0.2786841 -0.2786841 -0.9190595 -0.2786841 -0.2786841 -0.9190595 -0.2786841 -0.2786841 -0.9190595 -0.2786841 -0.2786841 -0.9190595 -0.2786841 -0.2786841 -0.9190595 -0.1020045 -0.3806893 -0.9190597 -0.1020045 -0.3806893 -0.9190597 -0.1020045 -0.3806893 -0.9190597 -0.102005 -0.3806895 -0.9190596 -0.102005 -0.3806895 -0.9190596 -0.102005 -0.3806895 -0.9190596 0.1020046 -0.3806897 -0.9190595 0.1020046 -0.3806897 -0.9190595 0.1020046 -0.3806897 -0.9190595 0.1020049 -0.3806893 -0.9190597 0.1020049 -0.3806893 -0.9190597 0.1020049 -0.3806893 -0.9190597 0.2786841 -0.2786841 -0.9190595 0.2786841 -0.2786841 -0.9190595 0.2786841 -0.2786841 -0.9190595 0.2786841 -0.2786841 -0.9190595 0.2786841 -0.2786841 -0.9190595 0.2786841 -0.2786841 -0.9190595 0.3806893 -0.1020045 -0.9190597 0.3806893 -0.1020045 -0.9190597 0.3806893 -0.1020045 -0.9190597 0.3806895 -0.102005 -0.9190596 0.3806895 -0.102005 -0.9190596 0.3806895 -0.102005 -0.9190596 0.3806897 0.1020046 -0.9190595 0.3806897 0.1020046 -0.9190595 0.3806897 0.1020046 -0.9190595 0.3806893 0.1020049 -0.9190597 0.3806893 0.1020049 -0.9190597 0.3806893 0.1020049 -0.9190597 0.2786841 0.2786841 -0.9190595 0.2786841 0.2786841 -0.9190595 0.2786841 0.2786841 -0.9190595 0.2786841 0.2786841 -0.9190595 0.2786841 0.2786841 -0.9190595 0.2786841 0.2786841 -0.9190595 0.1020045 0.3806893 -0.9190597 0.1020045 0.3806893 -0.9190597 0.1020045 0.3806893 -0.9190597 0.102005 0.3806895 -0.9190596 0.102005 0.3806895 -0.9190596 0.102005 0.3806895 -0.9190596 -0.1020046 0.3806897 -0.9190595 -0.1020046 0.3806897 -0.9190595 -0.1020046 0.3806897 -0.9190595 -0.1020049 0.3806893 -0.9190597 -0.1020049 0.3806893 -0.9190597 -0.1020049 0.3806893 -0.9190597 -0.2786841 0.2786841 -0.9190595 -0.2786841 0.2786841 -0.9190595 -0.2786841 0.2786841 -0.9190595 -0.2786841 0.2786841 -0.9190595 -0.2786841 0.2786841 -0.9190595 -0.2786841 0.2786841 -0.9190595 -0.3806893 0.1020045 -0.9190597 -0.3806893 0.1020045 -0.9190597 -0.3806893 0.1020045 -0.9190597 -0.3806895 0.102005 -0.9190596 -0.3806895 0.102005 -0.9190596 -0.3806895 0.102005 -0.9190596 -0.6008235 -0.1609894 -0.7830029 -0.6008235 -0.1609894 -0.7830029 -0.6008235 -0.1609894 -0.7830029 -0.6008213 -0.1609908 -0.7830043 -0.6008213 -0.1609908 -0.7830043 -0.6008213 -0.1609908 -0.7830043 -0.4398331 -0.4398331 -0.783003 -0.4398331 -0.4398331 -0.783003 -0.4398331 -0.4398331 -0.783003 -0.4398331 -0.4398331 -0.783003 -0.4398331 -0.4398331 -0.783003 -0.4398331 -0.4398331 -0.783003 -0.1609889 -0.6008214 -0.7830046 -0.1609889 -0.6008214 -0.7830046 -0.1609889 -0.6008214 -0.7830046 -0.1609912 -0.6008227 -0.7830032 -0.1609912 -0.6008227 -0.7830032 -0.1609912 -0.6008227 -0.7830032 0.1609894 -0.6008235 -0.7830029 0.1609894 -0.6008235 -0.7830029 0.1609894 -0.6008235 -0.7830029 0.1609908 -0.6008213 -0.7830043 0.1609908 -0.6008213 -0.7830043 0.1609908 -0.6008213 -0.7830043 0.4398331 -0.4398331 -0.783003 0.4398331 -0.4398331 -0.783003 0.4398331 -0.4398331 -0.783003 0.4398331 -0.4398331 -0.783003 0.4398331 -0.4398331 -0.783003 0.4398331 -0.4398331 -0.783003 0.6008214 -0.1609889 -0.7830046 0.6008214 -0.1609889 -0.7830046 0.6008214 -0.1609889 -0.7830046 0.6008227 -0.1609912 -0.7830032 0.6008227 -0.1609912 -0.7830032 0.6008227 -0.1609912 -0.7830032 0.6008235 0.1609894 -0.7830029 0.6008235 0.1609894 -0.7830029 0.6008235 0.1609894 -0.7830029 0.6008213 0.1609908 -0.7830043 0.6008213 0.1609908 -0.7830043 0.6008213 0.1609908 -0.7830043 0.4398331 0.4398331 -0.783003 0.4398331 0.4398331 -0.783003 0.4398331 0.4398331 -0.783003 0.4398331 0.4398331 -0.783003 0.4398331 0.4398331 -0.783003 0.4398331 0.4398331 -0.783003 0.1609889 0.6008214 -0.7830046 0.1609889 0.6008214 -0.7830046 0.1609889 0.6008214 -0.7830046 0.1609912 0.6008227 -0.7830032 0.1609912 0.6008227 -0.7830032 0.1609912 0.6008227 -0.7830032 -0.1609894 0.6008235 -0.7830029 -0.1609894 0.6008235 -0.7830029 -0.1609894 0.6008235 -0.7830029 -0.1609908 0.6008213 -0.7830043 -0.1609908 0.6008213 -0.7830043 -0.1609908 0.6008213 -0.7830043 -0.4398331 0.4398331 -0.783003 -0.4398331 0.4398331 -0.783003 -0.4398331 0.4398331 -0.783003 -0.4398331 0.4398331 -0.783003 -0.4398331 0.4398331 -0.783003 -0.4398331 0.4398331 -0.783003 -0.6008214 0.1609889 -0.7830046 -0.6008214 0.1609889 -0.7830046 -0.6008214 0.1609889 -0.7830046 -0.6008227 0.1609912 -0.7830032 -0.6008227 0.1609912 -0.7830032 -0.6008227 0.1609912 -0.7830032 -0.7760105 -0.207933 -0.5954591 -0.7760105 -0.207933 -0.5954591 -0.7760105 -0.207933 -0.5954591 -0.7760134 -0.2079312 -0.595456 -0.7760134 -0.2079312 -0.595456 -0.7760134 -0.2079312 -0.595456 -0.5680793 -0.5680793 -0.5954593 -0.5680793 -0.5680793 -0.5954593 -0.5680793 -0.5680793 -0.5954593 -0.5680793 -0.5680793 -0.5954593 -0.5680793 -0.5680793 -0.5954593 -0.5680793 -0.5680793 -0.5954593 -0.2079337 -0.776013 -0.5954557 -0.2079337 -0.776013 -0.5954557 -0.2079337 -0.776013 -0.5954557 -0.2079307 -0.7760114 -0.5954587 -0.2079307 -0.7760114 -0.5954587 -0.2079307 -0.7760114 -0.5954587 0.207933 -0.7760105 -0.5954591 0.207933 -0.7760105 -0.5954591 0.207933 -0.7760105 -0.5954591 0.2079312 -0.7760134 -0.595456 0.2079312 -0.7760134 -0.595456 0.2079312 -0.7760134 -0.595456 0.5680793 -0.5680793 -0.5954593 0.5680793 -0.5680793 -0.5954593 0.5680793 -0.5680793 -0.5954593 0.5680793 -0.5680793 -0.5954593 0.5680793 -0.5680793 -0.5954593 0.5680793 -0.5680793 -0.5954593 0.776013 -0.2079337 -0.5954557 0.776013 -0.2079337 -0.5954557 0.776013 -0.2079337 -0.5954557 0.7760114 -0.2079307 -0.5954587 0.7760114 -0.2079307 -0.5954587 0.7760114 -0.2079307 -0.5954587 0.7760105 0.207933 -0.5954591 0.7760105 0.207933 -0.5954591 0.7760105 0.207933 -0.5954591 0.7760134 0.2079312 -0.595456 0.7760134 0.2079312 -0.595456 0.7760134 0.2079312 -0.595456 0.5680793 0.5680793 -0.5954593 0.5680793 0.5680793 -0.5954593 0.5680793 0.5680793 -0.5954593 0.5680793 0.5680793 -0.5954593 0.5680793 0.5680793 -0.5954593 0.5680793 0.5680793 -0.5954593 0.2079337 0.776013 -0.5954557 0.2079337 0.776013 -0.5954557 0.2079337 0.776013 -0.5954557 0.2079307 0.7760114 -0.5954587 0.2079307 0.7760114 -0.5954587 0.2079307 0.7760114 -0.5954587 -0.207933 0.7760105 -0.5954591 -0.207933 0.7760105 -0.5954591 -0.207933 0.7760105 -0.5954591 -0.2079312 0.7760134 -0.595456 -0.2079312 0.7760134 -0.595456 -0.2079312 0.7760134 -0.595456 -0.5680793 0.5680793 -0.5954593 -0.5680793 0.5680793 -0.5954593 -0.5680793 0.5680793 -0.5954593 -0.5680793 0.5680793 -0.5954593 -0.5680793 0.5680793 -0.5954593 -0.5680793 0.5680793 -0.5954593 -0.776013 0.2079337 -0.5954557 -0.776013 0.2079337 -0.5954557 -0.776013 0.2079337 -0.5954557 -0.7760114 0.2079307 -0.5954587 -0.7760114 0.2079307 -0.5954587 -0.7760114 0.2079307 -0.5954587 -0.8968096 -0.2402984 -0.3714691 -0.8968096 -0.2402984 -0.3714691 -0.8968096 -0.2402984 -0.3714691 -0.8968078 -0.2402998 -0.3714723 -0.8968078 -0.2402998 -0.3714723 -0.8968078 -0.2402998 -0.3714723 -0.6565099 -0.6565099 -0.3714691 -0.6565099 -0.6565099 -0.3714691 -0.6565099 -0.6565099 -0.3714691 -0.65651 -0.65651 -0.3714691 -0.65651 -0.65651 -0.3714691 -0.65651 -0.65651 -0.3714691 -0.240298 -0.8968083 -0.3714724 -0.240298 -0.8968083 -0.3714724 -0.240298 -0.8968083 -0.3714724 -0.2403001 -0.896809 -0.3714692 -0.2403001 -0.896809 -0.3714692 -0.2403001 -0.896809 -0.3714692 0.2402984 -0.8968096 -0.3714691 0.2402984 -0.8968096 -0.3714691 0.2402984 -0.8968096 -0.3714691 0.2402998 -0.8968078 -0.3714723 0.2402998 -0.8968078 -0.3714723 0.2402998 -0.8968078 -0.3714723 0.6565099 -0.6565099 -0.3714691 0.6565099 -0.6565099 -0.3714691 0.6565099 -0.6565099 -0.3714691 0.65651 -0.65651 -0.3714691 0.65651 -0.65651 -0.3714691 0.65651 -0.65651 -0.3714691 0.8968083 -0.240298 -0.3714724 0.8968083 -0.240298 -0.3714724 0.8968083 -0.240298 -0.3714724 0.896809 -0.2403001 -0.3714692 0.896809 -0.2403001 -0.3714692 0.896809 -0.2403001 -0.3714692 0.8968096 0.2402984 -0.3714691 0.8968096 0.2402984 -0.3714691 0.8968096 0.2402984 -0.3714691 0.8968078 0.2402998 -0.3714723 0.8968078 0.2402998 -0.3714723 0.8968078 0.2402998 -0.3714723 0.6565099 0.6565099 -0.3714691 0.6565099 0.6565099 -0.3714691 0.6565099 0.6565099 -0.3714691 0.65651 0.65651 -0.3714691 0.65651 0.65651 -0.3714691 0.65651 0.65651 -0.3714691 0.240298 0.8968083 -0.3714724 0.240298 0.8968083 -0.3714724 0.240298 0.8968083 -0.3714724 0.2403001 0.896809 -0.3714692 0.2403001 0.896809 -0.3714692 0.2403001 0.896809 -0.3714692 -0.2402984 0.8968096 -0.3714691 -0.2402984 0.8968096 -0.3714691 -0.2402984 0.8968096 -0.3714691 -0.2402998 0.8968078 -0.3714723 -0.2402998 0.8968078 -0.3714723 -0.2402998 0.8968078 -0.3714723 -0.6565099 0.6565099 -0.3714691 -0.6565099 0.6565099 -0.3714691 -0.6565099 0.6565099 -0.3714691 -0.65651 0.65651 -0.3714691 -0.65651 0.65651 -0.3714691 -0.65651 0.65651 -0.3714691 -0.8968083 0.240298 -0.3714724 -0.8968083 0.240298 -0.3714724 -0.8968083 0.240298 -0.3714724 -0.896809 0.2403001 -0.3714692 -0.896809 0.2403001 -0.3714692 -0.896809 0.2403001 -0.3714692 -0.958209 -0.2567523 -0.1261502 -0.958209 -0.2567523 -0.1261502 -0.958209 -0.2567523 -0.1261502 -0.958209 -0.2567522 -0.1261499 -0.958209 -0.2567522 -0.1261499 -0.958209 -0.2567522 -0.1261499 -0.7014578 -0.7014578 -0.1261501 -0.7014578 -0.7014578 -0.1261501 -0.7014578 -0.7014578 -0.1261501 -0.7014578 -0.7014578 -0.1261501 -0.7014578 -0.7014578 -0.1261501 -0.7014578 -0.7014578 -0.1261501 -0.2567523 -0.958209 -0.1261499 -0.2567523 -0.958209 -0.1261499 -0.2567523 -0.958209 -0.1261499 -0.2567521 -0.958209 -0.1261502 -0.2567521 -0.958209 -0.1261502 -0.2567521 -0.958209 -0.1261502 0.2567523 -0.958209 -0.1261502 0.2567523 -0.958209 -0.1261502 0.2567523 -0.958209 -0.1261502 0.2567522 -0.958209 -0.1261499 0.2567522 -0.958209 -0.1261499 0.2567522 -0.958209 -0.1261499 0.7014578 -0.7014578 -0.1261501 0.7014578 -0.7014578 -0.1261501 0.7014578 -0.7014578 -0.1261501 0.7014578 -0.7014578 -0.1261501 0.7014578 -0.7014578 -0.1261501 0.7014578 -0.7014578 -0.1261501 0.958209 -0.2567523 -0.1261499 0.958209 -0.2567523 -0.1261499 0.958209 -0.2567523 -0.1261499 0.958209 -0.2567521 -0.1261502 0.958209 -0.2567521 -0.1261502 0.958209 -0.2567521 -0.1261502 0.958209 0.2567523 -0.1261502 0.958209 0.2567523 -0.1261502 0.958209 0.2567523 -0.1261502 0.958209 0.2567522 -0.1261499 0.958209 0.2567522 -0.1261499 0.958209 0.2567522 -0.1261499 0.7014578 0.7014578 -0.1261501 0.7014578 0.7014578 -0.1261501 0.7014578 0.7014578 -0.1261501 0.7014578 0.7014578 -0.1261501 0.7014578 0.7014578 -0.1261501 0.7014578 0.7014578 -0.1261501 0.2567523 0.958209 -0.1261499 0.2567523 0.958209 -0.1261499 0.2567523 0.958209 -0.1261499 0.2567521 0.958209 -0.1261502 0.2567521 0.958209 -0.1261502 0.2567521 0.958209 -0.1261502 -0.2567523 0.958209 -0.1261502 -0.2567523 0.958209 -0.1261502 -0.2567523 0.958209 -0.1261502 -0.2567522 0.958209 -0.1261499 -0.2567522 0.958209 -0.1261499 -0.2567522 0.958209 -0.1261499 -0.7014578 0.7014578 -0.1261501 -0.7014578 0.7014578 -0.1261501 -0.7014578 0.7014578 -0.1261501 -0.7014578 0.7014578 -0.1261501 -0.7014578 0.7014578 -0.1261501 -0.7014578 0.7014578 -0.1261501 -0.958209 0.2567523 -0.1261499 -0.958209 0.2567523 -0.1261499 -0.958209 0.2567523 -0.1261499 -0.958209 0.2567521 -0.1261502 -0.958209 0.2567521 -0.1261502 -0.958209 0.2567521 -0.1261502 -0.958209 -0.2567521 0.1261502 -0.958209 -0.2567521 0.1261502 -0.958209 -0.2567521 0.1261502 -0.958209 -0.2567523 0.1261499 -0.958209 -0.2567523 0.1261499 -0.958209 -0.2567523 0.1261499 -0.7014578 -0.7014578 0.1261501 -0.7014578 -0.7014578 0.1261501 -0.7014578 -0.7014578 0.1261501 -0.7014578 -0.7014578 0.1261501 -0.7014578 -0.7014578 0.1261501 -0.7014578 -0.7014578 0.1261501 -0.2567522 -0.958209 0.1261499 -0.2567522 -0.958209 0.1261499 -0.2567522 -0.958209 0.1261499 -0.2567523 -0.958209 0.1261502 -0.2567523 -0.958209 0.1261502 -0.2567523 -0.958209 0.1261502 0.2567521 -0.958209 0.1261502 0.2567521 -0.958209 0.1261502 0.2567521 -0.958209 0.1261502 0.2567523 -0.958209 0.1261499 0.2567523 -0.958209 0.1261499 0.2567523 -0.958209 0.1261499 0.7014578 -0.7014578 0.1261501 0.7014578 -0.7014578 0.1261501 0.7014578 -0.7014578 0.1261501 0.7014578 -0.7014578 0.1261501 0.7014578 -0.7014578 0.1261501 0.7014578 -0.7014578 0.1261501 0.958209 -0.2567522 0.1261499 0.958209 -0.2567522 0.1261499 0.958209 -0.2567522 0.1261499 0.958209 -0.2567523 0.1261502 0.958209 -0.2567523 0.1261502 0.958209 -0.2567523 0.1261502 0.958209 0.2567521 0.1261502 0.958209 0.2567521 0.1261502 0.958209 0.2567521 0.1261502 0.958209 0.2567523 0.1261499 0.958209 0.2567523 0.1261499 0.958209 0.2567523 0.1261499 0.7014578 0.7014578 0.1261501 0.7014578 0.7014578 0.1261501 0.7014578 0.7014578 0.1261501 0.7014578 0.7014578 0.1261501 0.7014578 0.7014578 0.1261501 0.7014578 0.7014578 0.1261501 0.2567522 0.958209 0.1261499 0.2567522 0.958209 0.1261499 0.2567522 0.958209 0.1261499 0.2567523 0.958209 0.1261502 0.2567523 0.958209 0.1261502 0.2567523 0.958209 0.1261502 -0.2567521 0.958209 0.1261502 -0.2567521 0.958209 0.1261502 -0.2567521 0.958209 0.1261502 -0.2567523 0.958209 0.1261499 -0.2567523 0.958209 0.1261499 -0.2567523 0.958209 0.1261499 -0.7014578 0.7014578 0.1261501 -0.7014578 0.7014578 0.1261501 -0.7014578 0.7014578 0.1261501 -0.7014578 0.7014578 0.1261501 -0.7014578 0.7014578 0.1261501 -0.7014578 0.7014578 0.1261501 -0.958209 0.2567522 0.1261499 -0.958209 0.2567522 0.1261499 -0.958209 0.2567522 0.1261499 -0.958209 0.2567523 0.1261502 -0.958209 0.2567523 0.1261502 -0.958209 0.2567523 0.1261502 -0.896809 -0.2403001 0.3714692 -0.896809 -0.2403001 0.3714692 -0.896809 -0.2403001 0.3714692 -0.8968083 -0.240298 0.3714724 -0.8968083 -0.240298 0.3714724 -0.8968083 -0.240298 0.3714724 -0.65651 -0.65651 0.3714691 -0.65651 -0.65651 0.3714691 -0.65651 -0.65651 0.3714691 -0.65651 -0.65651 0.3714691 -0.65651 -0.65651 0.3714691 -0.65651 -0.65651 0.3714691 -0.2402998 -0.8968078 0.3714722 -0.2402998 -0.8968078 0.3714722 -0.2402998 -0.8968078 0.3714722 -0.2402984 -0.8968096 0.3714691 -0.2402984 -0.8968096 0.3714691 -0.2402984 -0.8968096 0.3714691 0.2403001 -0.896809 0.3714692 0.2403001 -0.896809 0.3714692 0.2403001 -0.896809 0.3714692 0.240298 -0.8968083 0.3714724 0.240298 -0.8968083 0.3714724 0.240298 -0.8968083 0.3714724 0.65651 -0.65651 0.3714691 0.65651 -0.65651 0.3714691 0.65651 -0.65651 0.3714691 0.65651 -0.65651 0.3714691 0.65651 -0.65651 0.3714691 0.65651 -0.65651 0.3714691 0.8968078 -0.2402998 0.3714722 0.8968078 -0.2402998 0.3714722 0.8968078 -0.2402998 0.3714722 0.8968096 -0.2402984 0.3714691 0.8968096 -0.2402984 0.3714691 0.8968096 -0.2402984 0.3714691 0.896809 0.2403001 0.3714692 0.896809 0.2403001 0.3714692 0.896809 0.2403001 0.3714692 0.8968083 0.240298 0.3714724 0.8968083 0.240298 0.3714724 0.8968083 0.240298 0.3714724 0.65651 0.65651 0.3714691 0.65651 0.65651 0.3714691 0.65651 0.65651 0.3714691 0.65651 0.65651 0.3714691 0.65651 0.65651 0.3714691 0.65651 0.65651 0.3714691 0.2402998 0.8968078 0.3714722 0.2402998 0.8968078 0.3714722 0.2402998 0.8968078 0.3714722 0.2402984 0.8968096 0.3714691 0.2402984 0.8968096 0.3714691 0.2402984 0.8968096 0.3714691 -0.2403001 0.896809 0.3714692 -0.2403001 0.896809 0.3714692 -0.2403001 0.896809 0.3714692 -0.240298 0.8968083 0.3714724 -0.240298 0.8968083 0.3714724 -0.240298 0.8968083 0.3714724 -0.65651 0.65651 0.3714691 -0.65651 0.65651 0.3714691 -0.65651 0.65651 0.3714691 -0.65651 0.65651 0.3714691 -0.65651 0.65651 0.3714691 -0.65651 0.65651 0.3714691 -0.8968078 0.2402998 0.3714722 -0.8968078 0.2402998 0.3714722 -0.8968078 0.2402998 0.3714722 -0.8968096 0.2402984 0.3714691 -0.8968096 0.2402984 0.3714691 -0.8968096 0.2402984 0.3714691 -0.7760128 -0.2079311 0.5954568 -0.7760128 -0.2079311 0.5954568 -0.7760128 -0.2079311 0.5954568 -0.7760143 -0.207934 0.5954537 -0.7760143 -0.207934 0.5954537 -0.7760143 -0.207934 0.5954537 -0.5680803 -0.5680803 0.5954574 -0.5680803 -0.5680803 0.5954574 -0.5680803 -0.5680803 0.5954574 -0.5680803 -0.5680803 0.5954574 -0.5680803 -0.5680803 0.5954574 -0.5680803 -0.5680803 0.5954574 -0.2079316 -0.7760147 0.595454 -0.2079316 -0.7760147 0.595454 -0.2079316 -0.7760147 0.595454 -0.2079334 -0.7760119 0.5954571 -0.2079334 -0.7760119 0.5954571 -0.2079334 -0.7760119 0.5954571 0.2079311 -0.7760128 0.5954568 0.2079311 -0.7760128 0.5954568 0.2079311 -0.7760128 0.5954568 0.207934 -0.7760143 0.5954537 0.207934 -0.7760143 0.5954537 0.207934 -0.7760143 0.5954537 0.5680803 -0.5680803 0.5954574 0.5680803 -0.5680803 0.5954574 0.5680803 -0.5680803 0.5954574 0.5680803 -0.5680803 0.5954574 0.5680803 -0.5680803 0.5954574 0.5680803 -0.5680803 0.5954574 0.7760147 -0.2079316 0.595454 0.7760147 -0.2079316 0.595454 0.7760147 -0.2079316 0.595454 0.7760119 -0.2079334 0.5954571 0.7760119 -0.2079334 0.5954571 0.7760119 -0.2079334 0.5954571 0.7760128 0.2079311 0.5954568 0.7760128 0.2079311 0.5954568 0.7760128 0.2079311 0.5954568 0.7760143 0.207934 0.5954537 0.7760143 0.207934 0.5954537 0.7760143 0.207934 0.5954537 0.5680803 0.5680803 0.5954574 0.5680803 0.5680803 0.5954574 0.5680803 0.5680803 0.5954574 0.5680803 0.5680803 0.5954574 0.5680803 0.5680803 0.5954574 0.5680803 0.5680803 0.5954574 0.2079316 0.7760147 0.595454 0.2079316 0.7760147 0.595454 0.2079316 0.7760147 0.595454 0.2079334 0.7760119 0.5954571 0.2079334 0.7760119 0.5954571 0.2079334 0.7760119 0.5954571 -0.2079311 0.7760128 0.5954568 -0.2079311 0.7760128 0.5954568 -0.2079311 0.7760128 0.5954568 -0.207934 0.7760143 0.5954537 -0.207934 0.7760143 0.5954537 -0.207934 0.7760143 0.5954537 -0.5680803 0.5680803 0.5954574 -0.5680803 0.5680803 0.5954574 -0.5680803 0.5680803 0.5954574 -0.5680803 0.5680803 0.5954574 -0.5680803 0.5680803 0.5954574 -0.5680803 0.5680803 0.5954574 -0.7760147 0.2079316 0.595454 -0.7760147 0.2079316 0.595454 -0.7760147 0.2079316 0.595454 -0.7760119 0.2079334 0.5954571 -0.7760119 0.2079334 0.5954571 -0.7760119 0.2079334 0.5954571 -0.6008227 -0.1609912 0.7830032 -0.6008227 -0.1609912 0.7830032 -0.6008227 -0.1609912 0.7830032 -0.6008214 -0.1609889 0.7830046 -0.6008214 -0.1609889 0.7830046 -0.6008214 -0.1609889 0.7830046 -0.4398331 -0.4398331 0.7830031 -0.4398331 -0.4398331 0.7830031 -0.4398331 -0.4398331 0.7830031 -0.439833 -0.439833 0.7830031 -0.439833 -0.439833 0.7830031 -0.439833 -0.439833 0.7830031 -0.1609908 -0.6008212 0.7830043 -0.1609908 -0.6008212 0.7830043 -0.1609908 -0.6008212 0.7830043 -0.1609894 -0.6008235 0.7830029 -0.1609894 -0.6008235 0.7830029 -0.1609894 -0.6008235 0.7830029 0.1609912 -0.6008227 0.7830032 0.1609912 -0.6008227 0.7830032 0.1609912 -0.6008227 0.7830032 0.1609889 -0.6008214 0.7830046 0.1609889 -0.6008214 0.7830046 0.1609889 -0.6008214 0.7830046 0.4398331 -0.4398331 0.7830031 0.4398331 -0.4398331 0.7830031 0.4398331 -0.4398331 0.7830031 0.439833 -0.439833 0.7830031 0.439833 -0.439833 0.7830031 0.439833 -0.439833 0.7830031 0.6008212 -0.1609908 0.7830043 0.6008212 -0.1609908 0.7830043 0.6008212 -0.1609908 0.7830043 0.6008235 -0.1609894 0.7830029 0.6008235 -0.1609894 0.7830029 0.6008235 -0.1609894 0.7830029 0.6008227 0.1609912 0.7830032 0.6008227 0.1609912 0.7830032 0.6008227 0.1609912 0.7830032 0.6008214 0.1609889 0.7830046 0.6008214 0.1609889 0.7830046 0.6008214 0.1609889 0.7830046 0.4398331 0.4398331 0.7830031 0.4398331 0.4398331 0.7830031 0.4398331 0.4398331 0.7830031 0.439833 0.439833 0.7830031 0.439833 0.439833 0.7830031 0.439833 0.439833 0.7830031 0.1609908 0.6008212 0.7830043 0.1609908 0.6008212 0.7830043 0.1609908 0.6008212 0.7830043 0.1609894 0.6008235 0.7830029 0.1609894 0.6008235 0.7830029 0.1609894 0.6008235 0.7830029 -0.1609912 0.6008227 0.7830032 -0.1609912 0.6008227 0.7830032 -0.1609912 0.6008227 0.7830032 -0.1609889 0.6008214 0.7830046 -0.1609889 0.6008214 0.7830046 -0.1609889 0.6008214 0.7830046 -0.4398331 0.4398331 0.7830031 -0.4398331 0.4398331 0.7830031 -0.4398331 0.4398331 0.7830031 -0.439833 0.439833 0.7830031 -0.439833 0.439833 0.7830031 -0.439833 0.439833 0.7830031 -0.6008212 0.1609908 0.7830043 -0.6008212 0.1609908 0.7830043 -0.6008212 0.1609908 0.7830043 -0.6008235 0.1609894 0.7830029 -0.6008235 0.1609894 0.7830029 -0.6008235 0.1609894 0.7830029 -0.3806861 -0.1020041 0.9190611 -0.3806861 -0.1020041 0.9190611 -0.3806861 -0.1020041 0.9190611 -0.380686 -0.1020036 0.9190612 -0.380686 -0.1020036 0.9190612 -0.380686 -0.1020036 0.9190612 -0.2786817 -0.2786817 0.9190609 -0.2786817 -0.2786817 0.9190609 -0.2786817 -0.2786817 0.9190609 -0.2786817 -0.2786817 0.9190609 -0.2786817 -0.2786817 0.9190609 -0.2786817 -0.2786817 0.9190609 -0.102004 -0.3806859 0.9190612 -0.102004 -0.3806859 0.9190612 -0.102004 -0.3806859 0.9190612 -0.1020037 -0.3806863 0.919061 -0.1020037 -0.3806863 0.919061 -0.1020037 -0.3806863 0.919061 0.1020041 -0.3806861 0.9190611 0.1020041 -0.3806861 0.9190611 0.1020041 -0.3806861 0.9190611 0.1020036 -0.380686 0.9190612 0.1020036 -0.380686 0.9190612 0.1020036 -0.380686 0.9190612 0.2786817 -0.2786817 0.9190609 0.2786817 -0.2786817 0.9190609 0.2786817 -0.2786817 0.9190609 0.2786817 -0.2786817 0.9190609 0.2786817 -0.2786817 0.9190609 0.2786817 -0.2786817 0.9190609 0.3806859 -0.102004 0.9190612 0.3806859 -0.102004 0.9190612 0.3806859 -0.102004 0.9190612 0.3806863 -0.1020037 0.919061 0.3806863 -0.1020037 0.919061 0.3806863 -0.1020037 0.919061 0.3806861 0.1020041 0.9190611 0.3806861 0.1020041 0.9190611 0.3806861 0.1020041 0.9190611 0.380686 0.1020036 0.9190612 0.380686 0.1020036 0.9190612 0.380686 0.1020036 0.9190612 0.2786817 0.2786817 0.9190609 0.2786817 0.2786817 0.9190609 0.2786817 0.2786817 0.9190609 0.2786817 0.2786817 0.9190609 0.2786817 0.2786817 0.9190609 0.2786817 0.2786817 0.9190609 0.102004 0.3806859 0.9190612 0.102004 0.3806859 0.9190612 0.102004 0.3806859 0.9190612 0.1020037 0.3806863 0.919061 0.1020037 0.3806863 0.919061 0.1020037 0.3806863 0.919061 -0.1020041 0.3806861 0.9190611 -0.1020041 0.3806861 0.9190611 -0.1020041 0.3806861 0.9190611 -0.1020036 0.380686 0.9190612 -0.1020036 0.380686 0.9190612 -0.1020036 0.380686 0.9190612 -0.2786817 0.2786817 0.9190609 -0.2786817 0.2786817 0.9190609 -0.2786817 0.2786817 0.9190609 -0.2786817 0.2786817 0.9190609 -0.2786817 0.2786817 0.9190609 -0.2786817 0.2786817 0.9190609 -0.3806859 0.102004 0.9190612 -0.3806859 0.102004 0.9190612 -0.3806859 0.102004 0.9190612 -0.3806863 0.1020037 0.919061 -0.3806863 0.1020037 0.919061 -0.3806863 0.1020037 0.919061 -0.1304458 -0.0349525 0.9908391 -0.1304458 -0.0349525 0.9908391 -0.1304458 -0.0349525 0.9908391 1.0 0.0 0.0 1.0 0.0 0.0 -0.0954928 -0.0954928 0.9908392 -0.0954928 -0.0954928 0.9908392 -0.0954928 -0.0954928 0.9908392 1.0 0.0 0.0 1.0 0.0 0.0 -0.0349525 -0.1304458 0.9908391 -0.0349525 -0.1304458 0.9908391 -0.0349525 -0.1304458 0.9908391 1.0 0.0 0.0 1.0 0.0 0.0 0.0349525 -0.1304458 0.9908391 0.0349525 -0.1304458 0.9908391 0.0349525 -0.1304458 0.9908391 1.0 0.0 0.0 1.0 0.0 0.0 0.0954928 -0.0954928 0.9908392 0.0954928 -0.0954928 0.9908392 0.0954928 -0.0954928 0.9908392 1.0 0.0 0.0 1.0 0.0 0.0 0.1304458 -0.0349525 0.9908391 0.1304458 -0.0349525 0.9908391 0.1304458 -0.0349525 0.9908391 1.0 0.0 0.0 1.0 0.0 0.0 0.1304458 0.0349525 0.9908391 0.1304458 0.0349525 0.9908391 0.1304458 0.0349525 0.9908391 1.0 0.0 0.0 1.0 0.0 0.0 0.0954928 0.0954928 0.9908392 0.0954928 0.0954928 0.9908392 0.0954928 0.0954928 0.9908392 1.0 0.0 0.0 1.0 0.0 0.0 0.0349525 0.1304458 0.9908391 0.0349525 0.1304458 0.9908391 0.0349525 0.1304458 0.9908391 1.0 0.0 0.0 1.0 0.0 0.0 -0.0349525 0.1304458 0.9908391 -0.0349525 0.1304458 0.9908391 -0.0349525 0.1304458 0.9908391 1.0 0.0 0.0 1.0 0.0 0.0 -0.0954928 0.0954928 0.9908392 -0.0954928 0.0954928 0.9908392 -0.0954928 0.0954928 0.9908392 1.0 0.0 0.0 1.0 0.0 0.0 -0.1304458 0.0349525 0.9908391 -0.1304458 0.0349525 0.9908391 -0.1304458 0.0349525 0.9908391 1.0 0.0 0.0 1.0 0.0 0.0 1.0 0.0 0.0 1.0 0.0 0.0 -0.1304457 -0.0349525 -0.9908391 -0.1304457 -0.0349525 -0.9908391 -0.1304457 -0.0349525 -0.9908391</float_array>
                    <technique_common>
                        <accessor count="840" source="#geometry0-normal-array" stride="3">
                            <param name="X" type="float"/>
                            <param name="Y" type="float"/>
                            <param name="Z" type="float"/>
                        </accessor>
                    </technique_common>
                </source>
                <vertices id="geometry0-vertex">
                    <input semantic="POSITION" source="#geometry0-position"/>
                </vertices>
                <triangles count="288" material="default_ai_0.2_sh_0.2_tr_0.0_dc_r_0.8_g_0.8_b_0.8_sc_r_1.0_g_1.0_b_1.0_ec_r_0.0_g_0.0_b_0_tri">
                    <input offset="0" semantic="VERTEX" source="#geometry0-vertex"/>
                    <input offset="1" semantic="NORMAL" source="#geometry0-normal"/>
                    <p>0 0 0 0 3 1 0 2 3 3 1 4 0 5 0 5 4 6 0 7 4 8 3 9 0 10 0 10 5 11 0 12 5 13 4 14 0 15 0 15 6 16 0 17 6 18 5 19 0 20 0 20 7 21 0 22 7 23 6 24 0 25 0 25 8 26 0 27 8 28 7 29 0 30 0 30 9 31 0 32 9 33 8 34 0 35 0 35 10 36 0 37 10 38 9 39 0 40 0 40 11 41 0 42 11 43 10 44 0 45 0 45 12 46 0 47 12 48 11 49 0 50 0 50 2 51 0 52 2 53 12 54 2 55 1 56 13 57 2 58 13 59 14 60 1 61 3 62 15 63 1 64 15 65 13 66 3 67 4 68 16 69 3 70 16 71 15 72 4 73 5 74 17 75 4 76 17 77 16 78 5 79 6 80 18 81 5 82 18 83 17 84 6 85 7 86 19 87 6 88 19 89 18 90 7 91 8 92 20 93 7 94 20 95 19 96 8 97 9 98 21 99 8 100 21 101 20 102 9 103 10 104 22 105 9 106 22 107 21 108 10 109 11 110 23 111 10 112 23 113 22 114 11 115 12 116 24 117 11 118 24 119 23 120 12 121 2 122 14 123 12 124 14 125 24 126 14 127 13 128 25 129 14 130 25 131 26 132 13 133 15 134 27 135 13 136 27 137 25 138 15 139 16 140 28 141 15 142 28 143 27 144 16 145 17 146 29 147 16 148 29 149 28 150 17 151 18 152 30 153 17 154 30 155 29 156 18 157 19 158 31 159 18 160 31 161 30 162 19 163 20 164 32 165 19 166 32 167 31 168 20 169 21 170 33 171 20 172 33 173 32 174 21 175 22 176 34 177 21 178 34 179 33 180 22 181 23 182 35 183 22 184 35 185 34 186 23 187 24 188 36 189 23 190 36 191 35 192 24 193 14 194 26 195 24 196 26 197 36 198 26 199 25 200 37 201 26 202 37 203 38 204 25 205 27 206 39 207 25 208 39 209 37 210 27 211 28 212 40 213 27 214 40 215 39 216 28 217 29 218 41 219 28 220 41 221 40 222 29 223 30 224 42 225 29 226 42 227 41 228 30 229 31 230 43 231 30 232 43 233 42 234 31 235 32 236 44 237 31 238 44 239 43 240 32 241 33 242 45 243 32 244 45 245 44 246 33 247 34 248 46 249 33 250 46 251 45 252 34 253 35 254 47 255 34 256 47 257 46 258 35 259 36 260 48 261 35 262 48 263 47 264 36 265 26 266 38 267 36 268 38 269 48 270 38 271 37 272 49 273 38 274 49 275 50 276 37 277 39 278 51 279 37 280 51 281 49 282 39 283 40 284 52 285 39 286 52 287 51 288 40 289 41 290 53 291 40 292 53 293 52 294 41 295 42 296 54 297 41 298 54 299 53 300 42 301 43 302 55 303 42 304 55 305 54 306 43 307 44 308 56 309 43 310 56 311 55 312 44 313 45 314 57 315 44 316 57 317 56 318 45 319 46 320 58 321 45 322 58 323 57 324 46 325 47 326 59 327 46 328 59 329 58 330 47 331 48 332 60 333 47 334 60 335 59 336 48 337 38 338 50 339 48 340 50 341 60 342 50 343 49 344 61 345 50 346 61 347 62 348 49 349 51 350 63 351 49 352 63 353 61 354 51 355 52 356 64 357 51 358 64 359 63 360 52 361 53 362 65 363 52 364 65 365 64 366 53 367 54 368 66 369 53 370 66 371 65 372 54 373 55 374 67 375 54 376 67 377 66 378 55 379 56 380 68 381 55 382 68 383 67 384 56 385 57 386 69 387 56 388 69 389 68 390 57 391 58 392 70 393 57 394 70 395 69 396 58 397 59 398 71 399 58 400 71 401 70 402 59 403 60 404 72 405 59 406 72 407 71 408 60 409 50 410 62 411 60 412 62 413 72 414 62 415 61 416 73 417 62 418 73 419 74 420 61 421 63 422 75 423 61 424 75 425 73 426 63 427 64 428 76 429 63 430 76 431 75 432 64 433 65 434 77 435 64 436 77 437 76 438 65 439 66 440 78 441 65 442 78 443 77 444 66 445 67 446 79 447 66 448 79 449 78 450 67 451 68 452 80 453 67 454 80 455 79 456 68 457 69 458 81 459 68 460 81 461 80 462 69 463 70 464 82 465 69 466 82 467 81 468 70 469 71 470 83 471 70 472 83 473 82 474 71 475 72 476 84 477 71 478 84 479 83 480 72 481 62 482 74 483 72 484 74 485 84 486 74 487 73 488 85 489 74 490 85 491 86 492 73 493 75 494 87 495 73 496 87 497 85 498 75 499 76 500 88 501 75 502 88 503 87 504 76 505 77 506 89 507 76 508 89 509 88 510 77 511 78 512 90 513 77 514 90 515 89 516 78 517 79 518 91 519 78 520 91 521 90 522 79 523 80 524 92 525 79 526 92 527 91 528 80 529 81 530 93 531 80 532 93 533 92 534 81 535 82 536 94 537 81 538 94 539 93 540 82 541 83 542 95 543 82 544 95 545 94 546 83 547 84 548 96 549 83 550 96 551 95 552 84 553 74 554 86 555 84 556 86 557 96 558 86 559 85 560 97 561 86 562 97 563 98 564 85 565 87 566 99 567 85 568 99 569 97 570 87 571 88 572 100 573 87 574 100 575 99 576 88 577 89 578 101 579 88 580 101 581 100 582 89 583 90 584 102 585 89 586 102 587 101 588 90 589 91 590 103 591 90 592 103 593 102 594 91 595 92 596 104 597 91 598 104 599 103 600 92 601 93 602 105 603 92 604 105 605 104 606 93 607 94 608 106 609 93 610 106 611 105 612 94 613 95 614 107 615 94 616 107 617 106 618 95 619 96 620 108 621 95 622 108 623 107 624 96 625 86 626 98 627 96 628 98 629 108 630 98 631 97 632 109 633 98 634 109 635 110 636 97 637 99 638 111 639 97 640 111 641 109 642 99 643 100 644 112 645 99 646 112 647 111 648 100 649 101 650 113 651 100 652 113 653 112 654 101 655 102 656 114 657 101 658 114 659 113 660 102 661 103 662 115 663 102 664 115 665 114 666 103 667 104 668 116 669 103 670 116 671 115 672 104 673 105 674 117 675 104 676 117 677 116 678 105 679 106 680 118 681 105 682 118 683 117 684 106 685 107 686 119 687 106 688 119 689 118 690 107 691 108 692 120 693 107 694 120 695 119 696 108 697 98 698 110 699 108 700 110 701 120 702 110 703 109 704 121 705 110 706 121 707 122 708 109 709 111 710 123 711 109 712 123 713 121 714 111 715 112 716 124 717 111 718 124 719 123 720 112 721 113 722 125 723 112 724 125 725 124 726 113 727 114 728 126 729 113 730 126 731 125 732 114 733 115 734 127 735 114 736 127 737 126 738 115 739 116 740 128 741 115 742 128 743 127 744 116 745 117 746 129 747 116 748 129 749 128 750 117 751 118 752 130 753 117 754 130 755 129 756 118 757 119 758 131 759 118 760 131 761 130 762 119 763 120 764 132 765 119 766 132 767 131 768 120 769 110 770 122 771 120 772 122 773 132 774 122 775 121 776 133 777 122 778 133 779 133 779 121 780 123 781 133 782 121 783 133 784 133 784 123 785 124 786 133 787 123 788 133 789 133 789 124 790 125 791 133 792 124 793 133 794 133 794 125 795 126 796 133 797 125 798 133 799 133 799 126 800 127 801 133 802 126 803 133 804 133 804 127 805 128 806 133 807 127 808 133 809 133 809 128 810 129 811 133 812 128 813 133 814 133 814 129 815 130 816 133 817 129 818 133 819 133 819 130 820 131 821 133 822 130 823 133 824 133 824 131 825 132 826 133 827 131 828 133 829 133 829 132 830 122 831 133 832 132 833 133 834 133 834 0 835 0 835 1 836 0 837 1 838 2 839</p>
                </triangles>
            </mesh>
        </geometry>
    </library_geometries>
    <library_visual_scenes>
        <visual_scene id="Building_71_CROWN1">
            <node>
                <instance_geometry url="#geometry0">
                    <bind_material>
                        <technique_common>
                            <instance_material symbol="default_ai_0.2_sh_0.2_tr_0.0_dc_r_0.8_g_0.8_b_0.8_sc_r_1.0_g_1.0_b_1.0_ec_r_0.0_g_0.0_b_0_tri" target="#default_ai_0.2_sh_0.2_tr_0.0_dc_r_0.8_g_0.8_b_0.8_sc_r_1.0_g_1.0_b_1.0_ec_r_0.0_g_0.0_b_0_mat"/>
                        </technique_common>
                    </bind_material>
                </instance_geometry>
            </node>
        </visual_scene>
    </library_visual_scenes>
    <scene>
        <instance_visual_scene url="#Building_71_CROWN1"/>
    </scene>
</COLLADA>
