<?xml version="1.0" encoding="UTF-8" standalone="yes"?>
<COLLADA xmlns="http://www.collada.org/2005/11/COLLADASchema" version="1.4.1">
    <asset>
        <contributor>
            <authoring_tool>3D City Database Importer/Exporter, version 5.5.3; Chair of Geoinformatics, Technical University of Munich</authoring_tool>
        </contributor>
        <created>2026-09-25T14:45:37.344</created>
        <modified>2026-09-25T14:45:37.344</modified>
        <unit meter="1.0" name="meters"/>
        <up_axis>Z_UP</up_axis>
    </asset>
    <library_materials>
        <material id="default_ai_0.2_sh_0.2_tr_0.0_dc_r_0.8_g_0.8_b_0.8_sc_r_1.0_g_1.0_b_1.0_ec_r_0.0_g_0.0_b_0_mat">
            <instance_effect url="#default_ai_0.2_sh_0.2_tr_0.0_dc_r_0.8_g_0.8_b_0.8_sc_r_1.0_g_1.0_b_1.0_ec_r_0.0_g_0.0_b_0_eff"/>
        </material>
    </library_materials>
    <library_effects>
        <effect id="default_ai_0.2_sh_0.2_tr_0.0_dc_r_0.8_g_0.8_b_0.8_sc_r_1.0_g_1.0_b_1.0_ec_r_0.0_g_0.0_b_0_eff">
            <profile_COMMON>
                <technique sid="COMMON">
                    <lambert>
                        <emission>
                            <color>0.0 0.0 0.0 1.0</color>
                        </emission>
                        <diffuse>
                            <color>0.8 0.8 0.8 1.0</color>
                        </diffuse>
                        <reflective>
                            <color>1.0 1.0 1.0 1.0</color>
                        </reflective>
                        <reflectivity>
                            <float>0.2</float>
                        </reflectivity>
                        <transparent opaque="A_ONE">
                            <color>1.0 1.0 1.0 1.0</color>
                        </transparent>
                        <transparency>
                            <float>1.0</float>
                        </transparency>
                    </lambert>
                </technique>
                <extra>
                    <technique profile="GOOGLEEARTH">
                        <double_sided>0</double_sided>
                    </technique>
                </extra>
            </profile_COMMON>
        </effect>
    </library_effects>
    <library_geometries>
        <geometry id="geometry0">
            <mesh>
                <source id="geometry0-position">
                    <float_array id="geometry0-position-array" count="402">0.0 0.0 2.0 0.224144 0.12941 1.965926 0.258819 0.0 1.965926 0.12941 0.224144 1.965926 0.0 0.258819 1.965926 -0.12941 0.224144 1.965926 -0.224144 0.12941 1.965926 -0.258819 0.0 1.965926 -0.224144 -0.12941 1.965926 -0.12941 -0.224144 1.965926 0.0 -0.258819 1.965926 0.12941 -0.224144 1.965926 0.224144 -0.12941 1.965926 0.433013 0.25 1.866025 0.5 0.0 1.866025 0.25 0.433013 1.866025 0.0 0.5 1.866025 -0.25 0.433013 1.866025 -0.433013 0.25 1.866025 -0.5 0.0 1.866025 -0.433013 -0.25 1.866025 -0.25 -0.433013 1.866025 0.0 -0.5 1.866025 0.25 -0.433013 1.866025 0.433013 -0.25 1.866025 0.612372 0.353553 1.707107 0.707107 0.0 1.707107 0.353553 0.612372 1.707107 0.0 0.707107 1.707107 -0.353553 0.612372 1.707107 -0.612372 0.353553 1.707107 -0.707107 0.0 1.707107 -0.612372 -0.353553 1.707107 -0.353553 -0.612372 1.707107 0.0 -0.707107 1.707107 0.353553 -0.612372 1.707107 0.612372 -0.353553 1.707107 0.75 0.433013 1.5 0.866025 0.0 1.5 0.433013 0.75 1.5 0.0 0.866025 1.5 -0.433013 0.75 1.5 -0.75 0.433013 1.5 -0.866025 0.0 1.5 -0.75 -0.433013 1.5 -0.433013 -0.75 1.5 0.0 -0.866025 1.5 0.433013 -0.75 1.5 0.75 -0.433013 1.5 0.836516 0.482963 1.258819 0.965926 0.0 1.258819 0.482963 0.836516 1.258819 0.0 0.965926 1.258819 -0.482963 0.836516 1.258819 -0.836516 0.482963 1.258819 -0.965926 0.0 1.258819 -0.836516 -0.482963 1.258819 -0.482963 -0.836516 1.258819 0.0 -0.965926 1.258819 0.482963 -0.836516 1.258819 0.836516 -0.482963 1.258819 0.866025 0.5 1.0 1.0 0.0 1.0 0.5 0.866025 1.0 0.0 1.0 1.0 -0.5 0.866025 1.0 -0.866025 0.5 1.0 -1.0 0.0 1.0 -0.866025 -0.5 1.0 -0.5 -0.866025 1.0 0.0 -1.0 1.0 0.5 -0.866025 1.0 0.866025 -0.5 1.0 0.836516 0.482963 0.741181 0.965926 0.0 0.741181 0.482963 0.836516 0.741181 0.0 0.965926 0.741181 -0.482963 0.836516 0.741181 -0.836516 0.482963 0.741181 -0.965926 0.0 0.741181 -0.836516 -0.482963 0.741181 -0.482963 -0.836516 0.741181 0.0 -0.965926 0.741181 0.482963 -0.836516 0.741181 0.836516 -0.482963 0.741181 0.75 0.433013 0.5 0.866025 0.0 0.5 0.433013 0.75 0.5 0.0 0.866025 0.5 -0.433013 0.75 0.5 -0.75 0.433013 0.5 -0.866025 0.0 0.5 -0.75 -0.433013 0.5 -0.433013 -0.75 0.5 0.0 -0.866025 0.5 0.433013 -0.75 0.5 0.75 -0.433013 0.5 0.612372 0.353553 0.292893 0.707107 0.0 0.292893 0.353553 0.612372 0.292893 0.0 0.707107 0.292893 -0.353553 0.612372 0.292893 -0.612372 0.353553 0.292893 -0.707107 0.0 0.292893 -0.612372 -0.353553 0.292893 -0.353553 -0.612372 0.292893 0.0 -0.707107 0.292893 0.353553 -0.612372 0.292893 0.612372 -0.353553 0.292893 0.433013 0.25 0.133975 0.5 0.0 0.133975 0.25 0.433013 0.133975 0.0 0.5 0.133975 -0.25 0.433013 0.133975 -0.433013 0.25 0.133975 -0.5 0.0 0.133975 -0.433013 -0.25 0.133975 -0.25 -0.433013 0.133975 0.0 -0.5 0.133975 0.25 -0.433013 0.133975 0.433013 -0.25 0.133975 0.224144 0.12941 0.034074 0.258819 0.0 0.034074 0.12941 0.224144 0.034074 0.0 0.258819 0.034074 -0.12941 0.224144 0.034074 -0.224144 0.12941 0.034074 -0.258819 0.0 0.034074 -0.224144 -0.12941 0.034074 -0.12941 -0.224144 0.034074 0.0 -0.258819 0.034074 0.12941 -0.224144 0.034074 0.224144 -0.12941 0.034074 0.0 0.0 0.0</float_array>
                    <technique_common>
                        <accessor count="134" source="#geometry0-position-array" stride="3">
                            <param name="X" type="float"/>
                            <param name="Y" type="float"/>
                            <param name="Z" type="float"/>
                        </accessor>
                    </technique_common>
                </source>
                <source id="geometry0-normal">
                    <float_array id="geometry0-normal-array" count="2520">1.0 0.0 0.0 1.0 0.0 0.0 -0.0349525 -0.1304456 -0.9908392 -0.0349525 -0.1304456 -0.9908392 -0.0349525 -0.1304456 -0.9908392 1.0 0.0 0.0 1.0 0.0 0.0 0.0349525 -0.1304456 -0.9908392 0.0349525 -0.1304456 -0.9908392 0.0349525 -0.1304456 -0.9908392 1.0 0.0 0.0 1.0 0.0 0.0 0.0954926 -0.0954926 -0.9908392 0.0954926 -0.0954926 -0.9908392 0.0954926 -0.0954926 -0.9908392 1.0 0.0 0.0 1.0 0.0 0.0 0.1304456 -0.0349525 -0.9908392 0.1304456 -0.0349525 -0.9908392 0.1304456 -0.0349525 -0.9908392 1.0 0.0 0.0 1.0 0.0 0.0 0.1304456 0.0349525 -0.9908392 0.1304456 0.0349525 -0.9908392 0.1304456 0.0349525 -0.9908392 1.0 0.0 0.0 1.0 0.0 0.0 0.0954926 0.0954926 -0.9908392 0.0954926 0.0954926 -0.9908392 0.0954926 0.0954926 -0.9908392 1.0 0.0 0.0 1.0 0.0 0.0 0.0349525 0.1304456 -0.9908392 0.0349525 0.1304456 -0.9908392 0.0349525 0.1304456 -0.9908392 1.0 0.0 0.0 1.0 0.0 0.0 -0.0349525 0.1304456 -0.9908392 -0.0349525 0.1304456 -0.9908392 -0.0349525 0.1304456 -0.9908392 1.0 0.0 0.0 1.0 0.0 0.0 -0.0954926 0.0954926 -0.9908392 -0.0954926 0.0954926 -0.9908392 -0.0954926 0.0954926 -0.9908392 1.0 0.0 0.0 1.0 0.0 0.0 -0.1304456 0.0349525 -0.9908392 -0.1304456 0.0349525 -0.9908392 -0.1304456 0.0349525 -0.9908392 -0.3806898 -0.1020047 -0.9190595 -0.3806898 -0.1020047 -0.9190595 -0.3806898 -0.1020047 -0.9190595 -0.3806894 -0.102005 -0.9190597 -0.3806894 -0.102005 -0.9190597 -0.3806894 -0.102005 -0.9190597 -0.2786842 -0.2786842 -0.9190594 -0.2786842 -0.2786842 -0.9190594 -0.2786842 -0.2786842 -0.9190594 -0.2786842 -0.2786842 -0.9190594 -0.2786842 -0.2786842 -0.9190594 -0.2786842 -0.2786842 -0.9190594 -0.1020046 -0.3806894 -0.9190596 -0.1020046 -0.3806894 -0.9190596 -0.1020046 -0.3806894 -0.9190596 -0.102005 -0.3806896 -0.9190595 -0.102005 -0.3806896 -0.9190595 -0.102005 -0.3806896 -0.9190595 0.1020047 -0.3806898 -0.9190595 0.1020047 -0.3806898 -0.9190595 0.1020047 -0.3806898 -0.9190595 0.102005 -0.3806894 -0.9190597 0.102005 -0.3806894 -0.9190597 0.102005 -0.3806894 -0.9190597 0.2786842 -0.2786842 -0.9190594 0.2786842 -0.2786842 -0.9190594 0.2786842 -0.2786842 -0.9190594 0.2786842 -0.2786842 -0.9190594 0.2786842 -0.2786842 -0.9190594 0.2786842 -0.2786842 -0.9190594 0.3806894 -0.1020046 -0.9190596 0.3806894 -0.1020046 -0.9190596 0.3806894 -0.1020046 -0.9190596 0.3806896 -0.102005 -0.9190595 0.3806896 -0.102005 -0.9190595 0.3806896 -0.102005 -0.9190595 0.3806898 0.1020047 -0.9190595 0.3806898 0.1020047 -0.9190595 0.3806898 0.1020047 -0.9190595 0.3806894 0.102005 -0.9190597 0.3806894 0.102005 -0.9190597 0.3806894 0.102005 -0.9190597 0.2786842 0.2786842 -0.9190594 0.2786842 0.2786842 -0.9190594 0.2786842 0.2786842 -0.9190594 0.2786842 0.2786842 -0.9190594 0.2786842 0.2786842 -0.9190594 0.2786842 0.2786842 -0.9190594 0.1020046 0.3806894 -0.9190596 0.1020046 0.3806894 -0.9190596 0.1020046 0.3806894 -0.9190596 0.102005 0.3806896 -0.9190595 0.102005 0.3806896 -0.9190595 0.102005 0.3806896 -0.9190595 -0.1020047 0.3806898 -0.9190595 -0.1020047 0.3806898 -0.9190595 -0.1020047 0.3806898 -0.9190595 -0.102005 0.3806894 -0.9190597 -0.102005 0.3806894 -0.9190597 -0.102005 0.3806894 -0.9190597 -0.2786842 0.2786842 -0.9190594 -0.2786842 0.2786842 -0.9190594 -0.2786842 0.2786842 -0.9190594 -0.2786842 0.2786842 -0.9190594 -0.2786842 0.2786842 -0.9190594 -0.2786842 0.2786842 -0.9190594 -0.3806894 0.1020046 -0.9190596 -0.3806894 0.1020046 -0.9190596 -0.3806894 0.1020046 -0.9190596 -0.3806896 0.102005 -0.9190595 -0.3806896 0.102005 -0.9190595 -0.3806896 0.102005 -0.9190595 -0.6008212 -0.1609889 -0.7830048 -0.6008212 -0.1609889 -0.7830048 -0.6008212 -0.1609889 -0.7830048 -0.6008189 -0.1609903 -0.7830063 -0.6008189 -0.1609903 -0.7830063 -0.6008189 -0.1609903 -0.7830063 -0.4398314 -0.4398314 -0.7830049 -0.4398314 -0.4398314 -0.7830049 -0.4398314 -0.4398314 -0.7830049 -0.4398314 -0.4398314 -0.7830049 -0.4398314 -0.4398314 -0.7830049 -0.4398314 -0.4398314 -0.7830049 -0.1609883 -0.6008191 -0.7830065 -0.1609883 -0.6008191 -0.7830065 -0.1609883 -0.6008191 -0.7830065 -0.1609907 -0.6008204 -0.783005 -0.1609907 -0.6008204 -0.783005 -0.1609907 -0.6008204 -0.783005 0.1609889 -0.6008212 -0.7830048 0.1609889 -0.6008212 -0.7830048 0.1609889 -0.6008212 -0.7830048 0.1609903 -0.6008189 -0.7830063 0.1609903 -0.6008189 -0.7830063 0.1609903 -0.6008189 -0.7830063 0.4398314 -0.4398314 -0.7830049 0.4398314 -0.4398314 -0.7830049 0.4398314 -0.4398314 -0.7830049 0.4398314 -0.4398314 -0.7830049 0.4398314 -0.4398314 -0.7830049 0.4398314 -0.4398314 -0.7830049 0.6008191 -0.1609883 -0.7830065 0.6008191 -0.1609883 -0.7830065 0.6008191 -0.1609883 -0.7830065 0.6008204 -0.1609907 -0.783005 0.6008204 -0.1609907 -0.783005 0.6008204 -0.1609907 -0.783005 0.6008212 0.1609889 -0.7830048 0.6008212 0.1609889 -0.7830048 0.6008212 0.1609889 -0.7830048 0.6008189 0.1609903 -0.7830063 0.6008189 0.1609903 -0.7830063 0.6008189 0.1609903 -0.7830063 0.4398314 0.4398314 -0.7830049 0.4398314 0.4398314 -0.7830049 0.4398314 0.4398314 -0.7830049 0.4398314 0.4398314 -0.7830049 0.4398314 0.4398314 -0.7830049 0.4398314 0.4398314 -0.7830049 0.1609883 0.6008191 -0.7830065 0.1609883 0.6008191 -0.7830065 0.1609883 0.6008191 -0.7830065 0.1609907 0.6008204 -0.783005 0.1609907 0.6008204 -0.783005 0.1609907 0.6008204 -0.783005 -0.1609889 0.6008212 -0.7830048 -0.1609889 0.6008212 -0.7830048 -0.1609889 0.6008212 -0.7830048 -0.1609903 0.6008189 -0.7830063 -0.1609903 0.6008189 -0.7830063 -0.1609903 0.6008189 -0.7830063 -0.4398314 0.4398314 -0.7830049 -0.4398314 0.4398314 -0.7830049 -0.4398314 0.4398314 -0.7830049 -0.4398314 0.4398314 -0.7830049 -0.4398314 0.4398314 -0.7830049 -0.4398314 0.4398314 -0.7830049 -0.6008191 0.1609883 -0.7830065 -0.6008191 0.1609883 -0.7830065 -0.6008191 0.1609883 -0.7830065 -0.6008204 0.1609907 -0.783005 -0.6008204 0.1609907 -0.783005 -0.6008204 0.1609907 -0.783005 -0.7760118 -0.2079334 -0.5954573 -0.7760118 -0.2079334 -0.5954573 -0.7760118 -0.2079334 -0.5954573 -0.7760147 -0.2079316 -0.595454 -0.7760147 -0.2079316 -0.595454 -0.7760147 -0.2079316 -0.595454 -0.5680802 -0.5680802 -0.5954576 -0.5680802 -0.5680802 -0.5954576 -0.5680802 -0.5680802 -0.5954576 -0.5680802 -0.5680802 -0.5954577 -0.5680802 -0.5680802 -0.5954577 -0.5680802 -0.5680802 -0.5954577 -0.2079341 -0.7760144 -0.5954538 -0.2079341 -0.7760144 -0.5954538 -0.2079341 -0.7760144 -0.5954538 -0.2079311 -0.7760127 -0.5954571 -0.2079311 -0.7760127 -0.5954571 -0.2079311 -0.7760127 -0.5954571 0.2079334 -0.7760118 -0.5954573 0.2079334 -0.7760118 -0.5954573 0.2079334 -0.7760118 -0.5954573 0.2079316 -0.7760147 -0.595454 0.2079316 -0.7760147 -0.595454 0.2079316 -0.7760147 -0.595454 0.5680802 -0.5680802 -0.5954576 0.5680802 -0.5680802 -0.5954576 0.5680802 -0.5680802 -0.5954576 0.5680802 -0.5680802 -0.5954577 0.5680802 -0.5680802 -0.5954577 0.5680802 -0.5680802 -0.5954577 0.7760144 -0.2079341 -0.5954538 0.7760144 -0.2079341 -0.5954538 0.7760144 -0.2079341 -0.5954538 0.7760127 -0.2079311 -0.5954571 0.7760127 -0.2079311 -0.5954571 0.7760127 -0.2079311 -0.5954571 0.7760118 0.2079334 -0.5954573 0.7760118 0.2079334 -0.5954573 0.7760118 0.2079334 -0.5954573 0.7760147 0.2079316 -0.595454 0.7760147 0.2079316 -0.595454 0.7760147 0.2079316 -0.595454 0.5680802 0.5680802 -0.5954576 0.5680802 0.5680802 -0.5954576 0.5680802 0.5680802 -0.5954576 0.5680802 0.5680802 -0.5954577 0.5680802 0.5680802 -0.5954577 0.5680802 0.5680802 -0.5954577 0.2079341 0.7760144 -0.5954538 0.2079341 0.7760144 -0.5954538 0.2079341 0.7760144 -0.5954538 0.2079311 0.7760127 -0.5954571 0.2079311 0.7760127 -0.5954571 0.2079311 0.7760127 -0.5954571 -0.2079334 0.7760118 -0.5954573 -0.2079334 0.7760118 -0.5954573 -0.2079334 0.7760118 -0.5954573 -0.2079316 0.7760147 -0.595454 -0.2079316 0.7760147 -0.595454 -0.2079316 0.7760147 -0.595454 -0.5680802 0.5680802 -0.5954576 -0.5680802 0.5680802 -0.5954576 -0.5680802 0.5680802 -0.5954576 -0.5680802 0.5680802 -0.5954577 -0.5680802 0.5680802 -0.5954577 -0.5680802 0.5680802 -0.5954577 -0.7760144 0.2079341 -0.5954538 -0.7760144 0.2079341 -0.5954538 -0.7760144 0.2079341 -0.5954538 -0.7760127 0.2079311 -0.5954571 -0.7760127 0.2079311 -0.5954571 -0.7760127 0.2079311 -0.5954571 -0.8968096 -0.2402984 -0.3714691 -0.8968096 -0.2402984 -0.3714691 -0.8968096 -0.2402984 -0.3714691 -0.8968079 -0.2402997 -0.3714721 -0.8968079 -0.2402997 -0.3714721 -0.8968079 -0.2402997 -0.3714721 -0.6565099 -0.6565099 -0.3714691 -0.6565099 -0.6565099 -0.3714691 -0.6565099 -0.6565099 -0.3714691 -0.6565099 -0.6565099 -0.3714692 -0.6565099 -0.6565099 -0.3714692 -0.6565099 -0.6565099 -0.3714692 -0.240298 -0.8968083 -0.3714723 -0.240298 -0.8968083 -0.3714723 -0.240298 -0.8968083 -0.3714723 -0.2403 -0.896809 -0.3714693 -0.2403 -0.896809 -0.3714693 -0.2403 -0.896809 -0.3714693 0.2402984 -0.8968096 -0.3714691 0.2402984 -0.8968096 -0.3714691 0.2402984 -0.8968096 -0.3714691 0.2402997 -0.8968079 -0.3714721 0.2402997 -0.8968079 -0.3714721 0.2402997 -0.8968079 -0.3714721 0.6565099 -0.6565099 -0.3714691 0.6565099 -0.6565099 -0.3714691 0.6565099 -0.6565099 -0.3714691 0.6565099 -0.6565099 -0.3714692 0.6565099 -0.6565099 -0.3714692 0.6565099 -0.6565099 -0.3714692 0.8968083 -0.240298 -0.3714723 0.8968083 -0.240298 -0.3714723 0.8968083 -0.240298 -0.3714723 0.896809 -0.2403 -0.3714693 0.896809 -0.2403 -0.3714693 0.896809 -0.2403 -0.3714693 0.8968096 0.2402984 -0.3714691 0.8968096 0.2402984 -0.3714691 0.8968096 0.2402984 -0.3714691 0.8968079 0.2402997 -0.3714721 0.8968079 0.2402997 -0.3714721 0.8968079 0.2402997 -0.3714721 0.6565099 0.6565099 -0.3714691 0.6565099 0.6565099 -0.3714691 0.6565099 0.6565099 -0.3714691 0.6565099 0.6565099 -0.3714692 0.6565099 0.6565099 -0.3714692 0.6565099 0.6565099 -0.3714692 0.240298 0.8968083 -0.3714723 0.240298 0.8968083 -0.3714723 0.240298 0.8968083 -0.3714723 0.2403 0.896809 -0.3714693 0.2403 0.896809 -0.3714693 0.2403 0.896809 -0.3714693 -0.2402984 0.8968096 -0.3714691 -0.2402984 0.8968096 -0.3714691 -0.2402984 0.8968096 -0.3714691 -0.2402997 0.8968079 -0.3714721 -0.2402997 0.8968079 -0.3714721 -0.2402997 0.8968079 -0.3714721 -0.6565099 0.6565099 -0.3714691 -0.6565099 0.6565099 -0.3714691 -0.6565099 0.6565099 -0.3714691 -0.6565099 0.6565099 -0.3714692 -0.6565099 0.6565099 -0.3714692 -0.6565099 0.6565099 -0.3714692 -0.8968083 0.240298 -0.3714723 -0.8968083 0.240298 -0.3714723 -0.8968083 0.240298 -0.3714723 -0.896809 0.2403 -0.3714693 -0.896809 0.2403 -0.3714693 -0.896809 0.2403 -0.3714693 -0.958209 -0.2567522 -0.12615 -0.958209 -0.2567522 -0.12615 -0.958209 -0.2567522 -0.12615 -0.958209 -0.2567522 -0.12615 -0.958209 -0.2567522 -0.12615 -0.958209 -0.2567522 -0.12615 -0.7014578 -0.7014578 -0.12615 -0.7014578 -0.7014578 -0.12615 -0.7014578 -0.7014578 -0.12615 -0.7014578 -0.7014578 -0.12615 -0.7014578 -0.7014578 -0.12615 -0.7014578 -0.7014578 -0.12615 -0.2567522 -0.958209 -0.12615 -0.2567522 -0.958209 -0.12615 -0.2567522 -0.958209 -0.12615 -0.2567522 -0.958209 -0.12615 -0.2567522 -0.958209 -0.12615 -0.2567522 -0.958209 -0.12615 0.2567522 -0.958209 -0.12615 0.2567522 -0.958209 -0.12615 0.2567522 -0.958209 -0.12615 0.2567522 -0.958209 -0.12615 0.2567522 -0.958209 -0.12615 0.2567522 -0.958209 -0.12615 0.7014578 -0.7014578 -0.12615 0.7014578 -0.7014578 -0.12615 0.7014578 -0.7014578 -0.12615 0.7014578 -0.7014578 -0.12615 0.7014578 -0.7014578 -0.12615 0.7014578 -0.7014578 -0.12615 0.958209 -0.2567522 -0.12615 0.958209 -0.2567522 -0.12615 0.958209 -0.2567522 -0.12615 0.958209 -0.2567522 -0.12615 0.958209 -0.2567522 -0.12615 0.958209 -0.2567522 -0.12615 0.958209 0.2567522 -0.12615 0.958209 0.2567522 -0.12615 0.958209 0.2567522 -0.12615 0.958209 0.2567522 -0.12615 0.958209 0.2567522 -0.12615 0.958209 0.2567522 -0.12615 0.7014578 0.7014578 -0.12615 0.7014578 0.7014578 -0.12615 0.7014578 0.7014578 -0.12615 0.7014578 0.7014578 -0.12615 0.7014578 0.7014578 -0.12615 0.7014578 0.7014578 -0.12615 0.2567522 0.958209 -0.12615 0.2567522 0.958209 -0.12615 0.2567522 0.958209 -0.12615 0.2567522 0.958209 -0.12615 0.2567522 0.958209 -0.12615 0.2567522 0.958209 -0.12615 -0.2567522 0.958209 -0.12615 -0.2567522 0.958209 -0.12615 -0.2567522 0.958209 -0.12615 -0.2567522 0.958209 -0.12615 -0.2567522 0.958209 -0.12615 -0.2567522 0.958209 -0.12615 -0.7014578 0.7014578 -0.12615 -0.7014578 0.7014578 -0.12615 -0.7014578 0.7014578 -0.12615 -0.7014578 0.7014578 -0.12615 -0.7014578 0.7014578 -0.12615 -0.7014578 0.7014578 -0.12615 -0.958209 0.2567522 -0.12615 -0.958209 0.2567522 -0.12615 -0.958209 0.2567522 -0.12615 -0.958209 0.2567522 -0.12615 -0.958209 0.2567522 -0.12615 -0.958209 0.2567522 -0.12615 -0.958209 -0.2567522 0.1261501 -0.958209 -0.2567522 0.1261501 -0.958209 -0.2567522 0.1261501 -0.958209 -0.2567522 0.12615 -0.958209 -0.2567522 0.12615 -0.958209 -0.2567522 0.12615 -0.7014578 -0.7014578 0.12615 -0.7014578 -0.7014578 0.12615 -0.7014578 -0.7014578 0.12615 -0.7014578 -0.7014578 0.12615 -0.7014578 -0.7014578 0.12615 -0.7014578 -0.7014578 0.12615 -0.2567522 -0.958209 0.12615 -0.2567522 -0.958209 0.12615 -0.2567522 -0.958209 0.12615 -0.2567522 -0.958209 0.12615 -0.2567522 -0.958209 0.12615 -0.2567522 -0.958209 0.12615 0.2567522 -0.958209 0.1261501 0.2567522 -0.958209 0.1261501 0.2567522 -0.958209 0.1261501 0.2567522 -0.958209 0.12615 0.2567522 -0.958209 0.12615 0.2567522 -0.958209 0.12615 0.7014578 -0.7014578 0.12615 0.7014578 -0.7014578 0.12615 0.7014578 -0.7014578 0.12615 0.7014578 -0.7014578 0.12615 0.7014578 -0.7014578 0.12615 0.7014578 -0.7014578 0.12615 0.958209 -0.2567522 0.12615 0.958209 -0.2567522 0.12615 0.958209 -0.2567522 0.12615 0.958209 -0.2567522 0.12615 0.958209 -0.2567522 0.12615 0.958209 -0.2567522 0.12615 0.958209 0.2567522 0.1261501 0.958209 0.2567522 0.1261501 0.958209 0.2567522 0.1261501 0.958209 0.2567522 0.12615 0.958209 0.2567522 0.12615 0.958209 0.2567522 0.12615 0.7014578 0.7014578 0.12615 0.7014578 0.7014578 0.12615 0.7014578 0.7014578 0.12615 0.7014578 0.7014578 0.12615 0.7014578 0.7014578 0.12615 0.7014578 0.7014578 0.12615 0.2567522 0.958209 0.12615 0.2567522 0.958209 0.12615 0.2567522 0.958209 0.12615 0.2567522 0.958209 0.12615 0.2567522 0.958209 0.12615 0.2567522 0.958209 0.12615 -0.2567522 0.958209 0.1261501 -0.2567522 0.958209 0.1261501 -0.2567522 0.958209 0.1261501 -0.2567522 0.958209 0.12615 -0.2567522 0.958209 0.12615 -0.2567522 0.958209 0.12615 -0.7014578 0.7014578 0.12615 -0.7014578 0.7014578 0.12615 -0.7014578 0.7014578 0.12615 -0.7014578 0.7014578 0.12615 -0.7014578 0.7014578 0.12615 -0.7014578 0.7014578 0.12615 -0.958209 0.2567522 0.12615 -0.958209 0.2567522 0.12615 -0.958209 0.2567522 0.12615 -0.958209 0.2567522 0.12615 -0.958209 0.2567522 0.12615 -0.958209 0.2567522 0.12615 -0.896809 -0.2403 0.3714693 -0.896809 -0.2403 0.3714693 -0.896809 -0.2403 0.3714693 -0.8968083 -0.240298 0.3714723 -0.8968083 -0.240298 0.3714723 -0.8968083 -0.240298 0.3714723 -0.6565099 -0.6565099 0.3714691 -0.6565099 -0.6565099 0.3714691 -0.6565099 -0.6565099 0.3714691 -0.6565099 -0.6565099 0.3714691 -0.6565099 -0.6565099 0.3714691 -0.6565099 -0.6565099 0.3714691 -0.2402997 -0.8968079 0.3714722 -0.2402997 -0.8968079 0.3714722 -0.2402997 -0.8968079 0.3714722 -0.2402984 -0.8968096 0.3714691 -0.2402984 -0.8968096 0.3714691 -0.2402984 -0.8968096 0.3714691 0.2403 -0.896809 0.3714693 0.2403 -0.896809 0.3714693 0.2403 -0.896809 0.3714693 0.240298 -0.8968083 0.3714723 0.240298 -0.8968083 0.3714723 0.240298 -0.8968083 0.3714723 0.6565099 -0.6565099 0.3714691 0.6565099 -0.6565099 0.3714691 0.6565099 -0.6565099 0.3714691 0.6565099 -0.6565099 0.3714691 0.6565099 -0.6565099 0.3714691 0.6565099 -0.6565099 0.3714691 0.8968079 -0.2402997 0.3714722 0.8968079 -0.2402997 0.3714722 0.8968079 -0.2402997 0.3714722 0.8968096 -0.2402984 0.3714691 0.8968096 -0.2402984 0.3714691 0.8968096 -0.2402984 0.3714691 0.896809 0.2403 0.3714693 0.896809 0.2403 0.3714693 0.896809 0.2403 0.3714693 0.8968083 0.240298 0.3714723 0.8968083 0.240298 0.3714723 0.8968083 0.240298 0.3714723 0.6565099 0.6565099 0.3714691 0.6565099 0.6565099 0.3714691 0.6565099 0.6565099 0.3714691 0.6565099 0.6565099 0.3714691 0.6565099 0.6565099 0.3714691 0.6565099 0.6565099 0.3714691 0.2402997 0.8968079 0.3714722 0.2402997 0.8968079 0.3714722 0.2402997 0.8968079 0.3714722 0.2402984 0.8968096 0.3714691 0.2402984 0.8968096 0.3714691 0.2402984 0.8968096 0.3714691 -0.2403 0.896809 0.3714693 -0.2403 0.896809 0.3714693 -0.2403 0.896809 0.3714693 -0.240298 0.8968083 0.3714723 -0.240298 0.8968083 0.3714723 -0.240298 0.8968083 0.3714723 -0.6565099 0.6565099 0.3714691 -0.6565099 0.6565099 0.3714691 -0.6565099 0.6565099 0.3714691 -0.6565099 0.6565099 0.3714691 -0.6565099 0.6565099 0.3714691 -0.6565099 0.6565099 0.3714691 -0.8968079 0.2402997 0.3714722 -0.8968079 0.2402997 0.3714722 -0.8968079 0.2402997 0.3714722 -0.8968096 0.2402984 0.3714691 -0.8968096 0.2402984 0.3714691 -0.8968096 0.2402984 0.3714691 -0.7760128 -0.2079311 0.5954569 -0.7760128 -0.2079311 0.5954569 -0.7760128 -0.2079311 0.5954569 -0.7760144 -0.2079342 0.5954537 -0.7760144 -0.2079342 0.5954537 -0.7760144 -0.2079342 0.5954537 -0.5680802 -0.5680802 0.5954575 -0.5680802 -0.5680802 0.5954575 -0.5680802 -0.5680802 0.5954575 -0.5680803 -0.5680803 0.5954575 -0.5680803 -0.5680803 0.5954575 -0.5680803 -0.5680803 0.5954575 -0.2079316 -0.7760148 0.595454 -0.2079316 -0.7760148 0.595454 -0.2079316 -0.7760148 0.595454 -0.2079335 -0.7760118 0.5954573 -0.2079335 -0.7760118 0.5954573 -0.2079335 -0.7760118 0.5954573 0.2079311 -0.7760128 0.5954569 0.2079311 -0.7760128 0.5954569 0.2079311 -0.7760128 0.5954569 0.2079342 -0.7760144 0.5954537 0.2079342 -0.7760144 0.5954537 0.2079342 -0.7760144 0.5954537 0.5680802 -0.5680802 0.5954575 0.5680802 -0.5680802 0.5954575 0.5680802 -0.5680802 0.5954575 0.5680803 -0.5680803 0.5954575 0.5680803 -0.5680803 0.5954575 0.5680803 -0.5680803 0.5954575 0.7760148 -0.2079316 0.595454 0.7760148 -0.2079316 0.595454 0.7760148 -0.2079316 0.595454 0.7760118 -0.2079335 0.5954573 0.7760118 -0.2079335 0.5954573 0.7760118 -0.2079335 0.5954573 0.7760128 0.2079311 0.5954569 0.7760128 0.2079311 0.5954569 0.7760128 0.2079311 0.5954569 0.7760144 0.2079342 0.5954537 0.7760144 0.2079342 0.5954537 0.7760144 0.2079342 0.5954537 0.5680802 0.5680802 0.5954575 0.5680802 0.5680802 0.5954575 0.5680802 0.5680802 0.5954575 0.5680803 0.5680803 0.5954575 0.5680803 0.5680803 0.5954575 0.5680803 0.5680803 0.5954575 0.2079316 0.7760148 0.595454 0.2079316 0.7760148 0.595454 0.2079316 0.7760148 0.595454 0.2079335 0.7760118 0.5954573 0.2079335 0.7760118 0.5954573 0.2079335 0.7760118 0.5954573 -0.2079311 0.7760128 0.5954569 -0.2079311 0.7760128 0.5954569 -0.2079311 0.7760128 0.5954569 -0.2079342 0.7760144 0.5954537 -0.2079342 0.7760144 0.5954537 -0.2079342 0.7760144 0.5954537 -0.5680802 0.5680802 0.5954575 -0.5680802 0.5680802 0.5954575 -0.5680802 0.5680802 0.5954575 -0.5680803 0.5680803 0.5954575 -0.5680803 0.5680803 0.5954575 -0.5680803 0.5680803 0.5954575 -0.7760148 0.2079316 0.595454 -0.7760148 0.2079316 0.595454 -0.7760148 0.2079316 0.595454 -0.7760118 0.2079335 0.5954573 -0.7760118 0.2079335 0.5954573 -0.7760118 0.2079335 0.5954573 -0.6008203 -0.1609907 0.7830051 -0.6008203 -0.1609907 0.7830051 -0.6008203 -0.1609907 0.7830051 -0.600819 -0.1609883 0.7830065 -0.600819 -0.1609883 0.7830065 -0.600819 -0.1609883 0.7830065 -0.4398314 -0.4398314 0.783005 -0.4398314 -0.4398314 0.783005 -0.4398314 -0.4398314 0.783005 -0.4398314 -0.4398314 0.7830049 -0.4398314 -0.4398314 0.7830049 -0.4398314 -0.4398314 0.7830049 -0.1609903 -0.6008189 0.7830064 -0.1609903 -0.6008189 0.7830064 -0.1609903 -0.6008189 0.7830064 -0.1609888 -0.6008211 0.7830048 -0.1609888 -0.6008211 0.7830048 -0.1609888 -0.6008211 0.7830048 0.1609907 -0.6008203 0.7830051 0.1609907 -0.6008203 0.7830051 0.1609907 -0.6008203 0.7830051 0.1609883 -0.600819 0.7830065 0.1609883 -0.600819 0.7830065 0.1609883 -0.600819 0.7830065 0.4398314 -0.4398314 0.783005 0.4398314 -0.4398314 0.783005 0.4398314 -0.4398314 0.783005 0.4398314 -0.4398314 0.7830049 0.4398314 -0.4398314 0.7830049 0.4398314 -0.4398314 0.7830049 0.6008189 -0.1609903 0.7830064 0.6008189 -0.1609903 0.7830064 0.6008189 -0.1609903 0.7830064 0.6008211 -0.1609888 0.7830048 0.6008211 -0.1609888 0.7830048 0.6008211 -0.1609888 0.7830048 0.6008203 0.1609907 0.7830051 0.6008203 0.1609907 0.7830051 0.6008203 0.1609907 0.7830051 0.600819 0.1609883 0.7830065 0.600819 0.1609883 0.7830065 0.600819 0.1609883 0.7830065 0.4398314 0.4398314 0.783005 0.4398314 0.4398314 0.783005 0.4398314 0.4398314 0.783005 0.4398314 0.4398314 0.7830049 0.4398314 0.4398314 0.7830049 0.4398314 0.4398314 0.7830049 0.1609903 0.6008189 0.7830064 0.1609903 0.6008189 0.7830064 0.1609903 0.6008189 0.7830064 0.1609888 0.6008211 0.7830048 0.1609888 0.6008211 0.7830048 0.1609888 0.6008211 0.7830048 -0.1609907 0.6008203 0.7830051 -0.1609907 0.6008203 0.7830051 -0.1609907 0.6008203 0.7830051 -0.1609883 0.600819 0.7830065 -0.1609883 0.600819 0.7830065 -0.1609883 0.600819 0.7830065 -0.4398314 0.4398314 0.783005 -0.4398314 0.4398314 0.783005 -0.4398314 0.4398314 0.783005 -0.4398314 0.4398314 0.7830049 -0.4398314 0.4398314 0.7830049 -0.4398314 0.4398314 0.7830049 -0.6008189 0.1609903 0.7830064 -0.6008189 0.1609903 0.7830064 -0.6008189 0.1609903 0.7830064 -0.6008211 0.1609888 0.7830048 -0.6008211 0.1609888 0.7830048 -0.6008211 0.1609888 0.7830048 -0.3806893 -0.102005 0.9190596 -0.3806893 -0.102005 0.9190596 -0.3806893 -0.102005 0.9190596 -0.3806891 -0.1020045 0.9190598 -0.3806891 -0.1020045 0.9190598 -0.3806891 -0.1020045 0.9190598 -0.278684 -0.278684 0.9190595 -0.278684 -0.278684 0.9190595 -0.278684 -0.278684 0.9190595 -0.278684 -0.278684 0.9190595 -0.278684 -0.278684 0.9190595 -0.278684 -0.278684 0.9190595 -0.1020049 -0.3806891 0.9190598 -0.1020049 -0.3806891 0.9190598 -0.1020049 -0.3806891 0.9190598 -0.1020046 -0.3806896 0.9190597 -0.1020046 -0.3806896 0.9190597 -0.1020046 -0.3806896 0.9190597 0.102005 -0.3806893 0.9190596 0.102005 -0.3806893 0.9190596 0.102005 -0.3806893 0.9190596 0.1020045 -0.3806891 0.9190598 0.1020045 -0.3806891 0.9190598 0.1020045 -0.3806891 0.9190598 0.278684 -0.278684 0.9190595 0.278684 -0.278684 0.9190595 0.278684 -0.278684 0.9190595 0.278684 -0.278684 0.9190595 0.278684 -0.278684 0.9190595 0.278684 -0.278684 0.9190595 0.3806891 -0.1020049 0.9190598 0.3806891 -0.1020049 0.9190598 0.3806891 -0.1020049 0.9190598 0.3806896 -0.1020046 0.9190597 0.3806896 -0.1020046 0.9190597 0.3806896 -0.1020046 0.9190597 0.3806893 0.102005 0.9190596 0.3806893 0.102005 0.9190596 0.3806893 0.102005 0.9190596 0.3806891 0.1020045 0.9190598 0.3806891 0.1020045 0.9190598 0.3806891 0.1020045 0.9190598 0.278684 0.278684 0.9190595 0.278684 0.278684 0.9190595 0.278684 0.278684 0.9190595 0.278684 0.278684 0.9190595 0.278684 0.278684 0.9190595 0.278684 0.278684 0.9190595 0.1020049 0.3806891 0.9190598 0.1020049 0.3806891 0.9190598 0.1020049 0.3806891 0.9190598 0.1020046 0.3806896 0.9190597 0.1020046 0.3806896 0.9190597 0.1020046 0.3806896 0.9190597 -0.102005 0.3806893 0.9190596 -0.102005 0.3806893 0.9190596 -0.102005 0.3806893 0.9190596 -0.1020045 0.3806891 0.9190598 -0.1020045 0.3806891 0.9190598 -0.1020045 0.3806891 0.9190598 -0.278684 0.278684 0.9190595 -0.278684 0.278684 0.9190595 -0.278684 0.278684 0.9190595 -0.278684 0.278684 0.9190595 -0.278684 0.278684 0.9190595 -0.278684 0.278684 0.9190595 -0.3806891 0.1020049 0.9190598 -0.3806891 0.1020049 0.9190598 -0.3806891 0.1020049 0.9190598 -0.3806896 0.1020046 0.9190597 -0.3806896 0.1020046 0.9190597 -0.3806896 0.1020046 0.9190597 -0.1304458 -0.0349526 0.9908391 -0.1304458 -0.0349526 0.9908391 -0.1304458 -0.0349526 0.9908391 1.0 0.0 0.0 1.0 0.0 0.0 -0.0954928 -0.0954928 0.9908392 -0.0954928 -0.0954928 0.9908392 -0.0954928 -0.0954928 0.9908392 1.0 0.0 0.0 1.0 0.0 0.0 -0.0349526 -0.1304458 0.9908391 -0.0349526 -0.1304458 0.9908391 -0.0349526 -0.1304458 0.9908391 1.0 0.0 0.0 1.0 0.0 0.0 0.0349526 -0.1304458 0.9908391 0.0349526 -0.1304458 0.9908391 0.0349526 -0.1304458 0.9908391 1.0 0.0 0.0 1.0 0.0 0.0 0.0954928 -0.0954928 0.9908392 0.0954928 -0.0954928 0.9908392 0.0954928 -0.0954928 0.9908392 1.0 0.0 0.0 1.0 0.0 0.0 0.1304458 -0.0349526 0.9908391 0.1304458 -0.0349526 0.9908391 0.1304458 -0.0349526 0.9908391 1.0 0.0 0.0 1.0 0.0 0.0 0.1304458 0.0349526 0.9908391 0.1304458 0.0349526 0.9908391 0.1304458 0.0349526 0.9908391 1.0 0.0 0.0 1.0 0.0 0.0 0.0954928 0.0954928 0.9908392 0.0954928 0.0954928 0.9908392 0.0954928 0.0954928 0.9908392 1.0 0.0 0.0 1.0 0.0 0.0 0.0349526 0.1304458 0.9908391 0.0349526 0.1304458 0.9908391 0.0349526 0.1304458 0.9908391 1.0 0.0 0.0 1.0 0.0 0.0 -0.0349526 0.1304458 0.9908391 -0.0349526 0.1304458 0.9908391 -0.0349526 0.1304458 0.9908391 1.0 0.0 0.0 1.0 0.0 0.0 -0.0954928 0.0954928 0.9908392 -0.0954928 0.0954928 0.9908392 -0.0954928 0.0954928 0.9908392 1.0 0.0 0.0 1.0 0.0 0.0 -0.1304458 0.0349526 0.9908391 -0.1304458 0.0349526 0.9908391 -0.1304458 0.0349526 0.9908391 1.0 0.0 0.0 1.0 0.0 0.0 1.0 0.0 0.0 1.0 0.0 0.0 -0.1304456 -0.0349525 -0.9908392 -0.1304456 -0.0349525 -0.9908392 -0.1304456 -0.0349525 -0.9908392 1.0 0.0 0.0 1.0 0.0 0.0 -0.0954926 -0.0954926 -0.9908392 -0.0954926 -0.0954926 -0.9908392 -0.0954926 -0.0954926 -0.9908392</float_array>
                    <technique_common>
                        <accessor count="840" source="#geometry0-normal-array" stride="3">
                            <param name="X" type="float"/>
                            <param name="Y" type="float"/>
                            <param name="Z" type="float"/>
                        </accessor>
                    </technique_common>
                </source>
                <vertices id="geometry0-vertex">
                    <input semantic="POSITION" source="#geometry0-position"/>
                </vertices>
                <triangles count="288" material="default_ai_0.2_sh_0.2_tr_0.0_dc_r_0.8_g_0.8_b_0.8_sc_r_1.0_g_1.0_b_1.0_ec_r_0.0_g_0.0_b_0_tri">
                    <input offset="0" semantic="VERTEX" source="#geometry0-vertex"/>
                    <input offset="1" semantic="NORMAL" source="#geometry0-normal"/>
                    <p>0 0 0 0 4 1 0 2 4 3 3 4 0 5 0 5 5 6 0 7 5 8 4 9 0 10 0 10 6 11 0 12 6 13 5 14 0 15 0 15 7 16 0 17 7 18 6 19 0 20 0 20 8 21 0 22 8 23 7 24 0 25 0 25 9 26 0 27 9 28 8 29 0 30 0 30 10 31 0 32 10 33 9 34 0 35 0 35 11 36 0 37 11 38 10 39 0 40 0 40 12 41 0 42 12 43 11 44 0 45 0 45 2 46 0 47 2 48 12 49 2 50 1 51 13 52 2 53 13 54 14 55 1 56 3 57 15 58 1 59 15 60 13 61 3 62 4 63 16 64 3 65 16 66 15 67 4 68 5 69 17 70 4 71 17 72 16 73 5 74 6 75 18 76 5 77 18 78 17 79 6 80 7 81 19 82 6 83 19 84 18 85 7 86 8 87 20 88 7 89 20 90 19 91 8 92 9 93 21 94 8 95 21 96 20 97 9 98 10 99 22 100 9 101 22 102 21 103 10 104 11 105 23 106 10 107 23 108 22 109 11 110 12 111 24 112 11 113 24 114 23 115 12 116 2 117 14 118 12 119 14 120 24 121 14 122 13 123 25 124 14 125 25 126 26 127 13 128 15 129 27 130 13 131 27 132 25 133 15 134 16 135 28 136 15 137 28 138 27 139 16 140 17 141 29 142 16 143 29 144 28 145 17 146 18 147 30 148 17 149 30 150 29 151 18 152 19 153 31 154 18 155 31 156 30 157 19 158 20 159 32 160 19 161 32 162 31 163 20 164 21 165 33 166 20 167 33 168 32 169 21 170 22 171 34 172 21 173 34 174 33 175 22 176 23 177 35 178 22 179 35 180 34 181 23 182 24 183 36 184 23 185 36 186 35 187 24 188 14 189 26 190 24 191 26 192 36 193 26 194 25 195 37 196 26 197 37 198 38 199 25 200 27 201 39 202 25 203 39 204 37 205 27 206 28 207 40 208 27 209 40 210 39 211 28 212 29 213 41 214 28 215 41 216 40 217 29 218 30 219 42 220 29 221 42 222 41 223 30 224 31 225 43 226 30 227 43 228 42 229 31 230 32 231 44 232 31 233 44 234 43 235 32 236 33 237 45 238 32 239 45 240 44 241 33 242 34 243 46 244 33 245 46 246 45 247 34 248 35 249 47 250 34 251 47 252 46 253 35 254 36 255 48 256 35 257 48 258 47 259 36 260 26 261 38 262 36 263 38 264 48 265 38 266 37 267 49 268 38 269 49 270 50 271 37 272 39 273 51 274 37 275 51 276 49 277 39 278 40 279 52 280 39 281 52 282 51 283 40 284 41 285 53 286 40 287 53 288 52 289 41 290 42 291 54 292 41 293 54 294 53 295 42 296 43 297 55 298 42 299 55 300 54 301 43 302 44 303 56 304 43 305 56 306 55 307 44 308 45 309 57 310 44 311 57 312 56 313 45 314 46 315 58 316 45 317 58 318 57 319 46 320 47 321 59 322 46 323 59 324 58 325 47 326 48 327 60 328 47 329 60 330 59 331 48 332 38 333 50 334 48 335 50 336 60 337 50 338 49 339 61 340 50 341 61 342 62 343 49 344 51 345 63 346 49 347 63 348 61 349 51 350 52 351 64 352 51 353 64 354 63 355 52 356 53 357 65 358 52 359 65 360 64 361 53 362 54 363 66 364 53 365 66 366 65 367 54 368 55 369 67 370 54 371 67 372 66 373 55 374 56 375 68 376 55 377 68 378 67 379 56 380 57 381 69 382 56 383 69 384 68 385 57 386 58 387 70 388 57 389 70 390 69 391 58 392 59 393 71 394 58 395 71 396 70 397 59 398 60 399 72 400 59 401 72 402 71 403 60 404 50 405 62 406 60 407 62 408 72 409 62 410 61 411 73 412 62 413 73 414 74 415 61 416 63 417 75 418 61 419 75 420 73 421 63 422 64 423 76 424 63 425 76 426 75 427 64 428 65 429 77 430 64 431 77 432 76 433 65 434 66 435 78 436 65 437 78 438 77 439 66 440 67 441 79 442 66 443 79 444 78 445 67 446 68 447 80 448 67 449 80 450 79 451 68 452 69 453 81 454 68 455 81 456 80 457 69 458 70 459 82 460 69 461 82 462 81 463 70 464 71 465 83 466 70 467 83 468 82 469 71 470 72 471 84 472 71 473 84 474 83 475 72 476 62 477 74 478 72 479 74 480 84 481 74 482 73 483 85 484 74 485 85 486 86 487 73 488 75 489 87 490 73 491 87 492 85 493 75 494 76 495 88 496 75 497 88 498 87 499 76 500 77 501 89 502 76 503 89 504 88 505 77 506 78 507 90 508 77 509 90 510 89 511 78 512 79 513 91 514 78 515 91 516 90 517 79 518 80 519 92 520 79 521 92 522 91 523 80 524 81 525 93 526 80 527 93 528 92 529 81 530 82 531 94 532 81 533 94 534 93 535 82 536 83 537 95 538 82 539 95 540 94 541 83 542 84 543 96 544 83 545 96 546 95 547 84 548 74 549 86 550 84 551 86 552 96 553 86 554 85 555 97 556 86 557 97 558 98 559 85 560 87 561 99 562 85 563 99 564 97 565 87 566 88 567 100 568 87 569 100 570 99 571 88 572 89 573 101 574 88 575 101 576 100 577 89 578 90 579 102 580 89 581 102 582 101 583 90 584 91 585 103 586 90 587 103 588 102 589 91 590 92 591 104 592 91 593 104 594 103 595 92 596 93 597 105 598 92 599 105 600 104 601 93 602 94 603 106 604 93 605 106 606 105 607 94 608 95 609 107 610 94 611 107 612 106 613 95 614 96 615 108 616 95 617 108 618 107 619 96 620 86 621 98 622 96 623 98 624 108 625 98 626 97 627 109 628 98 629 109 630 110 631 97 632 99 633 111 634 97 635 111 636 109 637 99 638 100 639 112 640 99 641 112 642 111 643 100 644 101 645 113 646 100 647 113 648 112 649 101 650 102 651 114 652 101 653 114 654 113 655 102 656 103 657 115 658 102 659 115 660 114 661 103 662 104 663 116 664 103 665 116 666 115 667 104 668 105 669 117 670 104 671 117 672 116 673 105 674 106 675 118 676 105 677 118 678 117 679 106 680 107 681 119 682 106 683 119 684 118 685 107 686 108 687 120 688 107 689 120 690 119 691 108 692 98 693 110 694 108 695 110 696 120 697 110 698 109 699 121 700 110 701 121 702 122 703 109 704 111 705 123 706 109 707 123 708 121 709 111 710 112 711 124 712 111 713 124 714 123 715 112 716 113 717 125 718 112 719 125 720 124 721 113 722 114 723 126 724 113 725 126 726 125 727 114 728 115 729 127 730 114 731 127 732 126 733 115 734 116 735 128 736 115 737 128 738 127 739 116 740 117 741 129 742 116 743 129 744 128 745 117 746 118 747 130 748 117 749 130 750 129 751 118 752 119 753 131 754 118 755 131 756 130 757 119 758 120 759 132 760 119 761 132 762 131 763 120 764 110 765 122 766 120 767 122 768 132 769 122 770 121 771 133 772 122 773 133 774 133 774 121 775 123 776 133 777 121 778 133 779 133 779 123 780 124 781 133 782 123 783 133 784 133 784 124 785 125 786 133 787 124 788 133 789 133 789 125 790 126 791 133 792 125 793 133 794 133 794 126 795 127 796 133 797 126 798 133 799 133 799 127 800 128 801 133 802 127 803 133 804 133 804 128 805 129 806 133 807 128 808 133 809 133 809 129 810 130 811 133 812 129 813 133 814 133 814 130 815 131 816 133 817 130 818 133 819 133 819 131 820 132 821 133 822 131 823 133 824 133 824 132 825 122 826 133 827 132 828 133 829 133 829 0 830 0 830 1 831 0 832 1 833 2 834 0 835 0 835 3 836 0 837 3 838 1 839</p>
                </triangles>
            </mesh>
        </geometry>
    </library_geometries>
    <library_visual_scenes>
        <visual_scene id="Building_334_CROWN2">
            <node>
                <instance_geometry url="#geometry0">
                    <bind_material>
                        <technique_common>
                            <instance_material symbol="default_ai_0.2_sh_0.2_tr_0.0_dc_r_0.8_g_0.8_b_0.8_sc_r_1.0_g_1.0_b_1.0_ec_r_0.0_g_0.0_b_0_tri" target="#default_ai_0.2_sh_0.2_tr_0.0_dc_r_0.8_g_0.8_b_0.8_sc_r_1.0_g_1.0_b_1.0_ec_r_0.0_g_0.0_b_0_mat"/>
                        </technique_common>
                    </bind_material>
                </instance_geometry>
            </node>
        </visual_scene>
    </library_visual_scenes>
    <scene>
        <instance_visual_scene url="#Building_334_CROWN2"/>
    </scene>
</COLLADA>
