<?xml version="1.0" encoding="UTF-8" standalone="yes"?>
<COLLADA xmlns="http://www.collada.org/2005/11/COLLADASchema" version="1.4.1">
    <asset>
        <contributor>
            <authoring_tool>3D City Database Importer/Exporter, version 5.5.3; Chair of Geoinformatics, Technical University of Munich</authoring_tool>
        </contributor>
        <created>2026-09-25T14:45:04.519</created>
        <modified>2026-09-25T14:45:04.519</modified>
        <unit meter="1.0" name="meters"/>
        <up_axis>Z_UP</up_axis>
    </asset>
    <library_materials>
        <material id="default_ai_0.2_sh_0.2_tr_0.0_dc_r_0.8_g_0.8_b_0.8_sc_r_1.0_g_1.0_b_1.0_ec_r_0.0_g_0.0_b_0_mat">
            <instance_effect url="#default_ai_0.2_sh_0.2_tr_0.0_dc_r_0.8_g_0.8_b_0.8_sc_r_1.0_g_1.0_b_1.0_ec_r_0.0_g_0.0_b_0_eff"/>
        </material>
    </library_materials>
    <library_effects>
        <effect id="default_ai_0.2_sh_0.2_tr_0.0_dc_r_0.8_g_0.8_b_0.8_sc_r_1.0_g_1.0_b_1.0_ec_r_0.0_g_0.0_b_0_eff">
            <profile_COMMON>
                <technique sid="COMMON">
                    <lambert>
                        <emission>
                            <color>0.0 0.0 0.0 1.0</color>
                        </emission>
                        <diffuse>
                            <color>0.8 0.8 0.8 1.0</color>
                        </diffuse>
                        <reflective>
                            <color>1.0 1.0 1.0 1.0</color>
                        </reflective>
                        <reflectivity>
                            <float>0.2</float>
                        </reflectivity>
                        <transparent opaque="A_ONE">
                            <color>1.0 1.0 1.0 1.0</color>
                        </transparent>
                        <transparency>
                            <float>1.0</float>
                        </transparency>
                    </lambert>
                </technique>
                <extra>
                    <technique profile="GOOGLEEARTH">
                        <double_sided>0</double_sided>
                    </technique>
                </extra>
            </profile_COMMON>
        </effect>
    </library_effects>
    <library_geometries>
        <geometry id="geometry0">
            <mesh>
                <source id="geometry0-position">
                    <float_array id="geometry0-position-array" count="402">0.0 0.0 2.5 0.28018 0.1617625 2.4574075 0.3235238 0.0 2.4574075 0.1617625 0.28018 2.4574075 0.0 0.3235237 2.4574075 -0.1617625 0.28018 2.4574075 -0.28018 0.1617625 2.4574075 -0.3235238 0.0 2.4574075 -0.28018 -0.1617625 2.4574075 -0.1617625 -0.28018 2.4574075 0.0 -0.3235237 2.4574075 0.1617625 -0.28018 2.4574075 0.28018 -0.1617625 2.4574075 0.5412663 0.3125 2.3325312 0.625 0.0 2.3325312 0.3125 0.5412663 2.3325312 0.0 0.625 2.3325312 -0.3125 0.5412663 2.3325312 -0.5412663 0.3125 2.3325312 -0.625 0.0 2.3325312 -0.5412663 -0.3125 2.3325312 -0.3125 -0.5412663 2.3325312 0.0 -0.625 2.3325312 0.3125 -0.5412663 2.3325312 0.5412663 -0.3125 2.3325312 0.765465 0.4419413 2.1338838 0.8838838 0.0 2.1338838 0.4419412 0.765465 2.1338838 0.0 0.8838838 2.1338838 -0.4419412 0.765465 2.1338838 -0.765465 0.4419413 2.1338838 -0.8838838 0.0 2.1338838 -0.765465 -0.4419413 2.1338838 -0.4419412 -0.765465 2.1338838 0.0 -0.8838838 2.1338838 0.4419412 -0.765465 2.1338838 0.765465 -0.4419413 2.1338838 0.9375 0.5412663 1.875 1.0825313 0.0 1.875 0.5412663 0.9375 1.875 0.0 1.0825313 1.875 -0.5412663 0.9375 1.875 -0.9375 0.5412663 1.875 -1.0825313 0.0 1.875 -0.9375 -0.5412663 1.875 -0.5412663 -0.9375 1.875 0.0 -1.0825313 1.875 0.5412663 -0.9375 1.875 0.9375 -0.5412663 1.875 1.045645 0.6037038 1.5735238 1.2074075 0.0 1.5735238 0.6037038 1.045645 1.5735238 0.0 1.2074075 1.5735238 -0.6037038 1.045645 1.5735238 -1.045645 0.6037038 1.5735238 -1.2074075 0.0 1.5735238 -1.045645 -0.6037038 1.5735238 -0.6037038 -1.045645 1.5735238 0.0 -1.2074075 1.5735238 0.6037038 -1.045645 1.5735238 1.045645 -0.6037038 1.5735238 1.0825313 0.625 1.25 1.25 0.0 1.25 0.625 1.0825313 1.25 0.0 1.25 1.25 -0.625 1.0825313 1.25 -1.0825313 0.625 1.25 -1.25 0.0 1.25 -1.0825313 -0.625 1.25 -0.625 -1.0825313 1.25 0.0 -1.25 1.25 0.625 -1.0825313 1.25 1.0825313 -0.625 1.25 1.045645 0.6037038 0.9264762 1.2074075 0.0 0.9264762 0.6037038 1.045645 0.9264762 0.0 1.2074075 0.9264762 -0.6037038 1.045645 0.9264762 -1.045645 0.6037038 0.9264762 -1.2074075 0.0 0.9264762 -1.045645 -0.6037038 0.9264762 -0.6037038 -1.045645 0.9264762 0.0 -1.2074075 0.9264762 0.6037038 -1.045645 0.9264762 1.045645 -0.6037038 0.9264762 0.9375 0.5412663 0.625 1.0825313 0.0 0.625 0.5412663 0.9375 0.625 0.0 1.0825313 0.625 -0.5412663 0.9375 0.625 -0.9375 0.5412663 0.625 -1.0825313 0.0 0.625 -0.9375 -0.5412663 0.625 -0.5412663 -0.9375 0.625 0.0 -1.0825313 0.625 0.5412663 -0.9375 0.625 0.9375 -0.5412663 0.625 0.765465 0.4419413 0.3661162 0.8838838 0.0 0.3661162 0.4419412 0.765465 0.3661162 0.0 0.8838838 0.3661162 -0.4419412 0.765465 0.3661162 -0.765465 0.4419413 0.3661162 -0.8838838 0.0 0.3661162 -0.765465 -0.4419413 0.3661162 -0.4419412 -0.765465 0.3661162 0.0 -0.8838838 0.3661162 0.4419412 -0.765465 0.3661162 0.765465 -0.4419413 0.3661162 0.5412663 0.3125 0.1674688 0.625 0.0 0.1674688 0.3125 0.5412663 0.1674688 0.0 0.625 0.1674688 -0.3125 0.5412663 0.1674688 -0.5412663 0.3125 0.1674688 -0.625 0.0 0.1674688 -0.5412663 -0.3125 0.1674688 -0.3125 -0.5412663 0.1674688 0.0 -0.625 0.1674688 0.3125 -0.5412663 0.1674688 0.5412663 -0.3125 0.1674688 0.28018 0.1617625 0.0425925 0.3235238 0.0 0.0425925 0.1617625 0.28018 0.0425925 0.0 0.3235237 0.0425925 -0.1617625 0.28018 0.0425925 -0.28018 0.1617625 0.0425925 -0.3235238 0.0 0.0425925 -0.28018 -0.1617625 0.0425925 -0.1617625 -0.28018 0.0425925 0.0 -0.3235237 0.0425925 0.1617625 -0.28018 0.0425925 0.28018 -0.1617625 0.0425925 0.0 0.0 0.0</float_array>
                    <technique_common>
                        <accessor count="134" source="#geometry0-position-array" stride="3">
                            <param name="X" type="float"/>
                            <param name="Y" type="float"/>
                            <param name="Z" type="float"/>
                        </accessor>
                    </technique_common>
                </source>
                <source id="geometry0-normal">
                    <float_array id="geometry0-normal-array" count="2520">-0.4398314 -0.4398314 -0.7830049 -0.4398314 -0.4398314 -0.7830049 -0.4398314 -0.4398314 -0.7830049 -0.4398313 -0.4398313 -0.7830049 -0.4398313 -0.4398313 -0.7830049 -0.4398313 -0.4398313 -0.7830049 -0.1609882 -0.6008191 -0.7830066 -0.1609882 -0.6008191 -0.7830066 -0.1609882 -0.6008191 -0.7830066 -0.1609906 -0.6008204 -0.7830051 -0.1609906 -0.6008204 -0.7830051 -0.1609906 -0.6008204 -0.7830051 0.1609888 -0.6008211 -0.7830048 0.1609888 -0.6008211 -0.7830048 0.1609888 -0.6008211 -0.7830048 0.1609902 -0.6008189 -0.7830064 0.1609902 -0.6008189 -0.7830064 0.1609902 -0.6008189 -0.7830064 0.4398314 -0.4398314 -0.7830049 0.4398314 -0.4398314 -0.7830049 0.4398314 -0.4398314 -0.7830049 0.4398313 -0.4398313 -0.7830049 0.4398313 -0.4398313 -0.7830049 0.4398313 -0.4398313 -0.7830049 0.6008191 -0.1609882 -0.7830066 0.6008191 -0.1609882 -0.7830066 0.6008191 -0.1609882 -0.7830066 0.6008204 -0.1609906 -0.7830051 0.6008204 -0.1609906 -0.7830051 0.6008204 -0.1609906 -0.7830051 0.6008211 0.1609888 -0.7830048 0.6008211 0.1609888 -0.7830048 0.6008211 0.1609888 -0.7830048 0.6008189 0.1609902 -0.7830064 0.6008189 0.1609902 -0.7830064 0.6008189 0.1609902 -0.7830064 0.4398314 0.4398314 -0.7830049 0.4398314 0.4398314 -0.7830049 0.4398314 0.4398314 -0.7830049 0.4398313 0.4398313 -0.7830049 0.4398313 0.4398313 -0.7830049 0.4398313 0.4398313 -0.7830049 0.1609882 0.6008191 -0.7830066 0.1609882 0.6008191 -0.7830066 0.1609882 0.6008191 -0.7830066 0.1609906 0.6008204 -0.7830051 0.1609906 0.6008204 -0.7830051 0.1609906 0.6008204 -0.7830051 -0.1609888 0.6008211 -0.7830048 -0.1609888 0.6008211 -0.7830048 -0.1609888 0.6008211 -0.7830048 -0.1609902 0.6008189 -0.7830064 -0.1609902 0.6008189 -0.7830064 -0.1609902 0.6008189 -0.7830064 -0.4398314 0.4398314 -0.7830049 -0.4398314 0.4398314 -0.7830049 -0.4398314 0.4398314 -0.7830049 -0.4398313 0.4398313 -0.7830049 -0.4398313 0.4398313 -0.7830049 -0.4398313 0.4398313 -0.7830049 -0.6008191 0.1609882 -0.7830066 -0.6008191 0.1609882 -0.7830066 -0.6008191 0.1609882 -0.7830066 -0.6008204 0.1609906 -0.7830051 -0.6008204 0.1609906 -0.7830051 -0.6008204 0.1609906 -0.7830051 -0.7760119 -0.2079334 -0.5954571 -0.7760119 -0.2079334 -0.5954571 -0.7760119 -0.2079334 -0.5954571 -0.7760148 -0.2079316 -0.595454 -0.7760148 -0.2079316 -0.595454 -0.7760148 -0.2079316 -0.595454 -0.5680802 -0.5680802 -0.5954575 -0.5680802 -0.5680802 -0.5954575 -0.5680802 -0.5680802 -0.5954575 -0.5680802 -0.5680802 -0.5954575 -0.5680802 -0.5680802 -0.5954575 -0.5680802 -0.5680802 -0.5954575 -0.2079341 -0.7760144 -0.5954537 -0.2079341 -0.7760144 -0.5954537 -0.2079341 -0.7760144 -0.5954537 -0.2079311 -0.7760127 -0.5954569 -0.2079311 -0.7760127 -0.5954569 -0.2079311 -0.7760127 -0.5954569 0.2079334 -0.7760119 -0.5954571 0.2079334 -0.7760119 -0.5954571 0.2079334 -0.7760119 -0.5954571 0.2079316 -0.7760148 -0.595454 0.2079316 -0.7760148 -0.595454 0.2079316 -0.7760148 -0.595454 0.5680802 -0.5680802 -0.5954575 0.5680802 -0.5680802 -0.5954575 0.5680802 -0.5680802 -0.5954575 0.5680802 -0.5680802 -0.5954575 0.5680802 -0.5680802 -0.5954575 0.5680802 -0.5680802 -0.5954575 0.7760144 -0.2079341 -0.5954537 0.7760144 -0.2079341 -0.5954537 0.7760144 -0.2079341 -0.5954537 0.7760127 -0.2079311 -0.5954569 0.7760127 -0.2079311 -0.5954569 0.7760127 -0.2079311 -0.5954569 0.7760119 0.2079334 -0.5954571 0.7760119 0.2079334 -0.5954571 0.7760119 0.2079334 -0.5954571 0.7760148 0.2079316 -0.595454 0.7760148 0.2079316 -0.595454 0.7760148 0.2079316 -0.595454 0.5680802 0.5680802 -0.5954575 0.5680802 0.5680802 -0.5954575 0.5680802 0.5680802 -0.5954575 0.5680802 0.5680802 -0.5954575 0.5680802 0.5680802 -0.5954575 0.5680802 0.5680802 -0.5954575 0.2079341 0.7760144 -0.5954537 0.2079341 0.7760144 -0.5954537 0.2079341 0.7760144 -0.5954537 0.2079311 0.7760127 -0.5954569 0.2079311 0.7760127 -0.5954569 0.2079311 0.7760127 -0.5954569 -0.2079334 0.7760119 -0.5954571 -0.2079334 0.7760119 -0.5954571 -0.2079334 0.7760119 -0.5954571 -0.2079316 0.7760148 -0.595454 -0.2079316 0.7760148 -0.595454 -0.2079316 0.7760148 -0.595454 -0.5680802 0.5680802 -0.5954575 -0.5680802 0.5680802 -0.5954575 -0.5680802 0.5680802 -0.5954575 -0.5680802 0.5680802 -0.5954575 -0.5680802 0.5680802 -0.5954575 -0.5680802 0.5680802 -0.5954575 -0.7760144 0.2079341 -0.5954537 -0.7760144 0.2079341 -0.5954537 -0.7760144 0.2079341 -0.5954537 -0.7760127 0.2079311 -0.5954569 -0.7760127 0.2079311 -0.5954569 -0.7760127 0.2079311 -0.5954569 -0.8968096 -0.2402983 -0.371469 -0.8968096 -0.2402983 -0.371469 -0.8968096 -0.2402983 -0.371469 -0.896808 -0.2402998 -0.3714721 -0.896808 -0.2402998 -0.3714721 -0.896808 -0.2402998 -0.3714721 -0.65651 -0.65651 -0.3714691 -0.65651 -0.65651 -0.3714691 -0.65651 -0.65651 -0.3714691 -0.65651 -0.65651 -0.3714691 -0.65651 -0.65651 -0.3714691 -0.65651 -0.65651 -0.3714691 -0.240298 -0.8968083 -0.3714723 -0.240298 -0.8968083 -0.3714723 -0.240298 -0.8968083 -0.3714723 -0.2403001 -0.896809 -0.3714692 -0.2403001 -0.896809 -0.3714692 -0.2403001 -0.896809 -0.3714692 0.2402983 -0.8968096 -0.371469 0.2402983 -0.8968096 -0.371469 0.2402983 -0.8968096 -0.371469 0.2402998 -0.896808 -0.3714721 0.2402998 -0.896808 -0.3714721 0.2402998 -0.896808 -0.3714721 0.65651 -0.65651 -0.3714691 0.65651 -0.65651 -0.3714691 0.65651 -0.65651 -0.3714691 0.65651 -0.65651 -0.3714691 0.65651 -0.65651 -0.3714691 0.65651 -0.65651 -0.3714691 0.8968083 -0.240298 -0.3714723 0.8968083 -0.240298 -0.3714723 0.8968083 -0.240298 -0.3714723 0.896809 -0.2403001 -0.3714692 0.896809 -0.2403001 -0.3714692 0.896809 -0.2403001 -0.3714692 0.8968096 0.2402983 -0.371469 0.8968096 0.2402983 -0.371469 0.8968096 0.2402983 -0.371469 0.896808 0.2402998 -0.3714721 0.896808 0.2402998 -0.3714721 0.896808 0.2402998 -0.3714721 0.65651 0.65651 -0.3714691 0.65651 0.65651 -0.3714691 0.65651 0.65651 -0.3714691 0.65651 0.65651 -0.3714691 0.65651 0.65651 -0.3714691 0.65651 0.65651 -0.3714691 0.240298 0.8968083 -0.3714723 0.240298 0.8968083 -0.3714723 0.240298 0.8968083 -0.3714723 0.2403001 0.896809 -0.3714692 0.2403001 0.896809 -0.3714692 0.2403001 0.896809 -0.3714692 -0.2402983 0.8968096 -0.371469 -0.2402983 0.8968096 -0.371469 -0.2402983 0.8968096 -0.371469 -0.2402998 0.896808 -0.3714721 -0.2402998 0.896808 -0.3714721 -0.2402998 0.896808 -0.3714721 -0.65651 0.65651 -0.3714691 -0.65651 0.65651 -0.3714691 -0.65651 0.65651 -0.3714691 -0.65651 0.65651 -0.3714691 -0.65651 0.65651 -0.3714691 -0.65651 0.65651 -0.3714691 -0.8968083 0.240298 -0.3714723 -0.8968083 0.240298 -0.3714723 -0.8968083 0.240298 -0.3714723 -0.896809 0.2403001 -0.3714692 -0.896809 0.2403001 -0.3714692 -0.896809 0.2403001 -0.3714692 -0.958209 -0.2567522 -0.1261501 -0.958209 -0.2567522 -0.1261501 -0.958209 -0.2567522 -0.1261501 -0.958209 -0.2567522 -0.1261501 -0.958209 -0.2567522 -0.1261501 -0.958209 -0.2567522 -0.1261501 -0.7014578 -0.7014578 -0.1261501 -0.7014578 -0.7014578 -0.1261501 -0.7014578 -0.7014578 -0.1261501 -0.7014578 -0.7014578 -0.1261501 -0.7014578 -0.7014578 -0.1261501 -0.7014578 -0.7014578 -0.1261501 -0.2567522 -0.958209 -0.1261501 -0.2567522 -0.958209 -0.1261501 -0.2567522 -0.958209 -0.1261501 -0.2567522 -0.958209 -0.1261501 -0.2567522 -0.958209 -0.1261501 -0.2567522 -0.958209 -0.1261501 0.2567522 -0.958209 -0.1261501 0.2567522 -0.958209 -0.1261501 0.2567522 -0.958209 -0.1261501 0.2567522 -0.958209 -0.1261501 0.2567522 -0.958209 -0.1261501 0.2567522 -0.958209 -0.1261501 0.7014578 -0.7014578 -0.1261501 0.7014578 -0.7014578 -0.1261501 0.7014578 -0.7014578 -0.1261501 0.7014578 -0.7014578 -0.1261501 0.7014578 -0.7014578 -0.1261501 0.7014578 -0.7014578 -0.1261501 0.958209 -0.2567522 -0.1261501 0.958209 -0.2567522 -0.1261501 0.958209 -0.2567522 -0.1261501 0.958209 -0.2567522 -0.1261501 0.958209 -0.2567522 -0.1261501 0.958209 -0.2567522 -0.1261501 0.958209 0.2567522 -0.1261501 0.958209 0.2567522 -0.1261501 0.958209 0.2567522 -0.1261501 0.958209 0.2567522 -0.1261501 0.958209 0.2567522 -0.1261501 0.958209 0.2567522 -0.1261501 0.7014578 0.7014578 -0.1261501 0.7014578 0.7014578 -0.1261501 0.7014578 0.7014578 -0.1261501 0.7014578 0.7014578 -0.1261501 0.7014578 0.7014578 -0.1261501 0.7014578 0.7014578 -0.1261501 0.2567522 0.958209 -0.1261501 0.2567522 0.958209 -0.1261501 0.2567522 0.958209 -0.1261501 0.2567522 0.958209 -0.1261501 0.2567522 0.958209 -0.1261501 0.2567522 0.958209 -0.1261501 -0.2567522 0.958209 -0.1261501 -0.2567522 0.958209 -0.1261501 -0.2567522 0.958209 -0.1261501 -0.2567522 0.958209 -0.1261501 -0.2567522 0.958209 -0.1261501 -0.2567522 0.958209 -0.1261501 -0.7014578 0.7014578 -0.1261501 -0.7014578 0.7014578 -0.1261501 -0.7014578 0.7014578 -0.1261501 -0.7014578 0.7014578 -0.1261501 -0.7014578 0.7014578 -0.1261501 -0.7014578 0.7014578 -0.1261501 -0.958209 0.2567522 -0.1261501 -0.958209 0.2567522 -0.1261501 -0.958209 0.2567522 -0.1261501 -0.958209 0.2567522 -0.1261501 -0.958209 0.2567522 -0.1261501 -0.958209 0.2567522 -0.1261501 -0.958209 -0.2567522 0.1261501 -0.958209 -0.2567522 0.1261501 -0.958209 -0.2567522 0.1261501 -0.958209 -0.2567522 0.1261501 -0.958209 -0.2567522 0.1261501 -0.958209 -0.2567522 0.1261501 -0.7014578 -0.7014578 0.1261501 -0.7014578 -0.7014578 0.1261501 -0.7014578 -0.7014578 0.1261501 -0.7014578 -0.7014578 0.1261501 -0.7014578 -0.7014578 0.1261501 -0.7014578 -0.7014578 0.1261501 -0.2567522 -0.958209 0.1261501 -0.2567522 -0.958209 0.1261501 -0.2567522 -0.958209 0.1261501 -0.2567522 -0.958209 0.1261501 -0.2567522 -0.958209 0.1261501 -0.2567522 -0.958209 0.1261501 0.2567522 -0.958209 0.1261501 0.2567522 -0.958209 0.1261501 0.2567522 -0.958209 0.1261501 0.2567522 -0.958209 0.1261501 0.2567522 -0.958209 0.1261501 0.2567522 -0.958209 0.1261501 0.7014578 -0.7014578 0.1261501 0.7014578 -0.7014578 0.1261501 0.7014578 -0.7014578 0.1261501 0.7014578 -0.7014578 0.1261501 0.7014578 -0.7014578 0.1261501 0.7014578 -0.7014578 0.1261501 0.958209 -0.2567522 0.1261501 0.958209 -0.2567522 0.1261501 0.958209 -0.2567522 0.1261501 0.958209 -0.2567522 0.1261501 0.958209 -0.2567522 0.1261501 0.958209 -0.2567522 0.1261501 0.958209 0.2567522 0.1261501 0.958209 0.2567522 0.1261501 0.958209 0.2567522 0.1261501 0.958209 0.2567522 0.1261501 0.958209 0.2567522 0.1261501 0.958209 0.2567522 0.1261501 0.7014578 0.7014578 0.1261501 0.7014578 0.7014578 0.1261501 0.7014578 0.7014578 0.1261501 0.7014578 0.7014578 0.1261501 0.7014578 0.7014578 0.1261501 0.7014578 0.7014578 0.1261501 0.2567522 0.958209 0.1261501 0.2567522 0.958209 0.1261501 0.2567522 0.958209 0.1261501 0.2567522 0.958209 0.1261501 0.2567522 0.958209 0.1261501 0.2567522 0.958209 0.1261501 -0.2567522 0.958209 0.1261501 -0.2567522 0.958209 0.1261501 -0.2567522 0.958209 0.1261501 -0.2567522 0.958209 0.1261501 -0.2567522 0.958209 0.1261501 -0.2567522 0.958209 0.1261501 -0.7014578 0.7014578 0.1261501 -0.7014578 0.7014578 0.1261501 -0.7014578 0.7014578 0.1261501 -0.7014578 0.7014578 0.1261501 -0.7014578 0.7014578 0.1261501 -0.7014578 0.7014578 0.1261501 -0.958209 0.2567522 0.1261501 -0.958209 0.2567522 0.1261501 -0.958209 0.2567522 0.1261501 -0.958209 0.2567522 0.1261501 -0.958209 0.2567522 0.1261501 -0.958209 0.2567522 0.1261501 -0.896809 -0.2403001 0.3714692 -0.896809 -0.2403001 0.3714692 -0.896809 -0.2403001 0.3714692 -0.8968084 -0.240298 0.3714723 -0.8968084 -0.240298 0.3714723 -0.8968084 -0.240298 0.3714723 -0.65651 -0.65651 0.3714691 -0.65651 -0.65651 0.3714691 -0.65651 -0.65651 0.3714691 -0.65651 -0.65651 0.3714691 -0.65651 -0.65651 0.3714691 -0.65651 -0.65651 0.3714691 -0.2402998 -0.8968079 0.3714721 -0.2402998 -0.8968079 0.3714721 -0.2402998 -0.8968079 0.3714721 -0.2402983 -0.8968096 0.371469 -0.2402983 -0.8968096 0.371469 -0.2402983 -0.8968096 0.371469 0.2403001 -0.896809 0.3714692 0.2403001 -0.896809 0.3714692 0.2403001 -0.896809 0.3714692 0.240298 -0.8968084 0.3714723 0.240298 -0.8968084 0.3714723 0.240298 -0.8968084 0.3714723 0.65651 -0.65651 0.3714691 0.65651 -0.65651 0.3714691 0.65651 -0.65651 0.3714691 0.65651 -0.65651 0.3714691 0.65651 -0.65651 0.3714691 0.65651 -0.65651 0.3714691 0.8968079 -0.2402998 0.3714721 0.8968079 -0.2402998 0.3714721 0.8968079 -0.2402998 0.3714721 0.8968096 -0.2402983 0.371469 0.8968096 -0.2402983 0.371469 0.8968096 -0.2402983 0.371469 0.896809 0.2403001 0.3714692 0.896809 0.2403001 0.3714692 0.896809 0.2403001 0.3714692 0.8968084 0.240298 0.3714723 0.8968084 0.240298 0.3714723 0.8968084 0.240298 0.3714723 0.65651 0.65651 0.3714691 0.65651 0.65651 0.3714691 0.65651 0.65651 0.3714691 0.65651 0.65651 0.3714691 0.65651 0.65651 0.3714691 0.65651 0.65651 0.3714691 0.2402998 0.8968079 0.3714721 0.2402998 0.8968079 0.3714721 0.2402998 0.8968079 0.3714721 0.2402983 0.8968096 0.371469 0.2402983 0.8968096 0.371469 0.2402983 0.8968096 0.371469 -0.2403001 0.896809 0.3714692 -0.2403001 0.896809 0.3714692 -0.2403001 0.896809 0.3714692 -0.240298 0.8968084 0.3714723 -0.240298 0.8968084 0.3714723 -0.240298 0.8968084 0.3714723 -0.65651 0.65651 0.3714691 -0.65651 0.65651 0.3714691 -0.65651 0.65651 0.3714691 -0.65651 0.65651 0.3714691 -0.65651 0.65651 0.3714691 -0.65651 0.65651 0.3714691 -0.8968079 0.2402998 0.3714721 -0.8968079 0.2402998 0.3714721 -0.8968079 0.2402998 0.3714721 -0.8968096 0.2402983 0.371469 -0.8968096 0.2402983 0.371469 -0.8968096 0.2402983 0.371469 -0.7760127 -0.2079311 0.5954568 -0.7760127 -0.2079311 0.5954568 -0.7760127 -0.2079311 0.5954568 -0.7760144 -0.2079341 0.5954537 -0.7760144 -0.2079341 0.5954537 -0.7760144 -0.2079341 0.5954537 -0.5680803 -0.5680803 0.5954574 -0.5680803 -0.5680803 0.5954574 -0.5680803 -0.5680803 0.5954574 -0.5680803 -0.5680803 0.5954575 -0.5680803 -0.5680803 0.5954575 -0.5680803 -0.5680803 0.5954575 -0.2079316 -0.7760148 0.595454 -0.2079316 -0.7760148 0.595454 -0.2079316 -0.7760148 0.595454 -0.2079334 -0.7760119 0.5954572 -0.2079334 -0.7760119 0.5954572 -0.2079334 -0.7760119 0.5954572 0.2079311 -0.7760127 0.5954568 0.2079311 -0.7760127 0.5954568 0.2079311 -0.7760127 0.5954568 0.2079341 -0.7760144 0.5954537 0.2079341 -0.7760144 0.5954537 0.2079341 -0.7760144 0.5954537 0.5680803 -0.5680803 0.5954574 0.5680803 -0.5680803 0.5954574 0.5680803 -0.5680803 0.5954574 0.5680803 -0.5680803 0.5954575 0.5680803 -0.5680803 0.5954575 0.5680803 -0.5680803 0.5954575 0.7760148 -0.2079316 0.595454 0.7760148 -0.2079316 0.595454 0.7760148 -0.2079316 0.595454 0.7760119 -0.2079334 0.5954572 0.7760119 -0.2079334 0.5954572 0.7760119 -0.2079334 0.5954572 0.7760127 0.2079311 0.5954568 0.7760127 0.2079311 0.5954568 0.7760127 0.2079311 0.5954568 0.7760144 0.2079341 0.5954537 0.7760144 0.2079341 0.5954537 0.7760144 0.2079341 0.5954537 0.5680803 0.5680803 0.5954574 0.5680803 0.5680803 0.5954574 0.5680803 0.5680803 0.5954574 0.5680803 0.5680803 0.5954575 0.5680803 0.5680803 0.5954575 0.5680803 0.5680803 0.5954575 0.2079316 0.7760148 0.595454 0.2079316 0.7760148 0.595454 0.2079316 0.7760148 0.595454 0.2079334 0.7760119 0.5954572 0.2079334 0.7760119 0.5954572 0.2079334 0.7760119 0.5954572 -0.2079311 0.7760127 0.5954568 -0.2079311 0.7760127 0.5954568 -0.2079311 0.7760127 0.5954568 -0.2079341 0.7760144 0.5954537 -0.2079341 0.7760144 0.5954537 -0.2079341 0.7760144 0.5954537 -0.5680803 0.5680803 0.5954574 -0.5680803 0.5680803 0.5954574 -0.5680803 0.5680803 0.5954574 -0.5680803 0.5680803 0.5954575 -0.5680803 0.5680803 0.5954575 -0.5680803 0.5680803 0.5954575 -0.7760148 0.2079316 0.595454 -0.7760148 0.2079316 0.595454 -0.7760148 0.2079316 0.595454 -0.7760119 0.2079334 0.5954572 -0.7760119 0.2079334 0.5954572 -0.7760119 0.2079334 0.5954572 -0.6008204 -0.1609906 0.7830051 -0.6008204 -0.1609906 0.7830051 -0.6008204 -0.1609906 0.7830051 -0.6008191 -0.1609882 0.7830066 -0.6008191 -0.1609882 0.7830066 -0.6008191 -0.1609882 0.7830066 -0.4398314 -0.4398314 0.7830049 -0.4398314 -0.4398314 0.7830049 -0.4398314 -0.4398314 0.7830049 -0.4398314 -0.4398314 0.7830049 -0.4398314 -0.4398314 0.7830049 -0.4398314 -0.4398314 0.7830049 -0.1609902 -0.6008189 0.7830064 -0.1609902 -0.6008189 0.7830064 -0.1609902 -0.6008189 0.7830064 -0.1609888 -0.6008211 0.7830048 -0.1609888 -0.6008211 0.7830048 -0.1609888 -0.6008211 0.7830048 0.1609906 -0.6008204 0.7830051 0.1609906 -0.6008204 0.7830051 0.1609906 -0.6008204 0.7830051 0.1609882 -0.6008191 0.7830066 0.1609882 -0.6008191 0.7830066 0.1609882 -0.6008191 0.7830066 0.4398314 -0.4398314 0.7830049 0.4398314 -0.4398314 0.7830049 0.4398314 -0.4398314 0.7830049 0.4398314 -0.4398314 0.7830049 0.4398314 -0.4398314 0.7830049 0.4398314 -0.4398314 0.7830049 0.6008189 -0.1609902 0.7830064 0.6008189 -0.1609902 0.7830064 0.6008189 -0.1609902 0.7830064 0.6008211 -0.1609888 0.7830048 0.6008211 -0.1609888 0.7830048 0.6008211 -0.1609888 0.7830048 0.6008204 0.1609906 0.7830051 0.6008204 0.1609906 0.7830051 0.6008204 0.1609906 0.7830051 0.6008191 0.1609882 0.7830066 0.6008191 0.1609882 0.7830066 0.6008191 0.1609882 0.7830066 0.4398314 0.4398314 0.7830049 0.4398314 0.4398314 0.7830049 0.4398314 0.4398314 0.7830049 0.4398314 0.4398314 0.7830049 0.4398314 0.4398314 0.7830049 0.4398314 0.4398314 0.7830049 0.1609902 0.6008189 0.7830064 0.1609902 0.6008189 0.7830064 0.1609902 0.6008189 0.7830064 0.1609888 0.6008211 0.7830048 0.1609888 0.6008211 0.7830048 0.1609888 0.6008211 0.7830048 -0.1609906 0.6008204 0.7830051 -0.1609906 0.6008204 0.7830051 -0.1609906 0.6008204 0.7830051 -0.1609882 0.6008191 0.7830066 -0.1609882 0.6008191 0.7830066 -0.1609882 0.6008191 0.7830066 -0.4398314 0.4398314 0.7830049 -0.4398314 0.4398314 0.7830049 -0.4398314 0.4398314 0.7830049 -0.4398314 0.4398314 0.7830049 -0.4398314 0.4398314 0.7830049 -0.4398314 0.4398314 0.7830049 -0.6008189 0.1609902 0.7830064 -0.6008189 0.1609902 0.7830064 -0.6008189 0.1609902 0.7830064 -0.6008211 0.1609888 0.7830048 -0.6008211 0.1609888 0.7830048 -0.6008211 0.1609888 0.7830048 -0.3806894 -0.1020049 0.9190596 -0.3806894 -0.1020049 0.9190596 -0.3806894 -0.1020049 0.9190596 -0.3806892 -0.1020045 0.9190598 -0.3806892 -0.1020045 0.9190598 -0.3806892 -0.1020045 0.9190598 -0.2786841 -0.2786841 0.9190596 -0.2786841 -0.2786841 0.9190596 -0.2786841 -0.2786841 0.9190596 -0.278684 -0.278684 0.9190595 -0.278684 -0.278684 0.9190595 -0.278684 -0.278684 0.9190595 -0.1020049 -0.3806892 0.9190597 -0.1020049 -0.3806892 0.9190597 -0.1020049 -0.3806892 0.9190597 -0.1020046 -0.3806896 0.9190596 -0.1020046 -0.3806896 0.9190596 -0.1020046 -0.3806896 0.9190596 0.1020049 -0.3806894 0.9190596 0.1020049 -0.3806894 0.9190596 0.1020049 -0.3806894 0.9190596 0.1020045 -0.3806892 0.9190598 0.1020045 -0.3806892 0.9190598 0.1020045 -0.3806892 0.9190598 0.2786841 -0.2786841 0.9190596 0.2786841 -0.2786841 0.9190596 0.2786841 -0.2786841 0.9190596 0.278684 -0.278684 0.9190595 0.278684 -0.278684 0.9190595 0.278684 -0.278684 0.9190595 0.3806892 -0.1020049 0.9190597 0.3806892 -0.1020049 0.9190597 0.3806892 -0.1020049 0.9190597 0.3806896 -0.1020046 0.9190596 0.3806896 -0.1020046 0.9190596 0.3806896 -0.1020046 0.9190596 0.3806894 0.1020049 0.9190596 0.3806894 0.1020049 0.9190596 0.3806894 0.1020049 0.9190596 0.3806892 0.1020045 0.9190598 0.3806892 0.1020045 0.9190598 0.3806892 0.1020045 0.9190598 0.2786841 0.2786841 0.9190596 0.2786841 0.2786841 0.9190596 0.2786841 0.2786841 0.9190596 0.278684 0.278684 0.9190595 0.278684 0.278684 0.9190595 0.278684 0.278684 0.9190595 0.1020049 0.3806892 0.9190597 0.1020049 0.3806892 0.9190597 0.1020049 0.3806892 0.9190597 0.1020046 0.3806896 0.9190596 0.1020046 0.3806896 0.9190596 0.1020046 0.3806896 0.9190596 -0.1020049 0.3806894 0.9190596 -0.1020049 0.3806894 0.9190596 -0.1020049 0.3806894 0.9190596 -0.1020045 0.3806892 0.9190598 -0.1020045 0.3806892 0.9190598 -0.1020045 0.3806892 0.9190598 -0.2786841 0.2786841 0.9190596 -0.2786841 0.2786841 0.9190596 -0.2786841 0.2786841 0.9190596 -0.278684 0.278684 0.9190595 -0.278684 0.278684 0.9190595 -0.278684 0.278684 0.9190595 -0.3806892 0.1020049 0.9190597 -0.3806892 0.1020049 0.9190597 -0.3806892 0.1020049 0.9190597 -0.3806896 0.1020046 0.9190596 -0.3806896 0.1020046 0.9190596 -0.3806896 0.1020046 0.9190596 -0.1304458 -0.0349525 0.9908391 -0.1304458 -0.0349525 0.9908391 -0.1304458 -0.0349525 0.9908391 1.0 0.0 0.0 1.0 0.0 0.0 -0.0954928 -0.0954928 0.9908392 -0.0954928 -0.0954928 0.9908392 -0.0954928 -0.0954928 0.9908392 1.0 0.0 0.0 1.0 0.0 0.0 -0.0349525 -0.1304458 0.9908391 -0.0349525 -0.1304458 0.9908391 -0.0349525 -0.1304458 0.9908391 1.0 0.0 0.0 1.0 0.0 0.0 0.0349525 -0.1304458 0.9908391 0.0349525 -0.1304458 0.9908391 0.0349525 -0.1304458 0.9908391 1.0 0.0 0.0 1.0 0.0 0.0 0.0954928 -0.0954928 0.9908392 0.0954928 -0.0954928 0.9908392 0.0954928 -0.0954928 0.9908392 1.0 0.0 0.0 1.0 0.0 0.0 0.1304458 -0.0349525 0.9908391 0.1304458 -0.0349525 0.9908391 0.1304458 -0.0349525 0.9908391 1.0 0.0 0.0 1.0 0.0 0.0 0.1304458 0.0349525 0.9908391 0.1304458 0.0349525 0.9908391 0.1304458 0.0349525 0.9908391 1.0 0.0 0.0 1.0 0.0 0.0 0.0954928 0.0954928 0.9908392 0.0954928 0.0954928 0.9908392 0.0954928 0.0954928 0.9908392 1.0 0.0 0.0 1.0 0.0 0.0 0.0349525 0.1304458 0.9908391 0.0349525 0.1304458 0.9908391 0.0349525 0.1304458 0.9908391 1.0 0.0 0.0 1.0 0.0 0.0 -0.0349525 0.1304458 0.9908391 -0.0349525 0.1304458 0.9908391 -0.0349525 0.1304458 0.9908391 1.0 0.0 0.0 1.0 0.0 0.0 -0.0954928 0.0954928 0.9908392 -0.0954928 0.0954928 0.9908392 -0.0954928 0.0954928 0.9908392 1.0 0.0 0.0 1.0 0.0 0.0 -0.1304458 0.0349525 0.9908391 -0.1304458 0.0349525 0.9908391 -0.1304458 0.0349525 0.9908391 1.0 0.0 0.0 1.0 0.0 0.0 1.0 0.0 0.0 1.0 0.0 0.0 -0.1304459 -0.0349526 -0.9908391 -0.1304459 -0.0349526 -0.9908391 -0.1304459 -0.0349526 -0.9908391 1.0 0.0 0.0 1.0 0.0 0.0 -0.0954928 -0.0954928 -0.9908392 -0.0954928 -0.0954928 -0.9908392 -0.0954928 -0.0954928 -0.9908392 1.0 0.0 0.0 1.0 0.0 0.0 -0.0349526 -0.1304459 -0.9908391 -0.0349526 -0.1304459 -0.9908391 -0.0349526 -0.1304459 -0.9908391 1.0 0.0 0.0 1.0 0.0 0.0 0.0349526 -0.1304459 -0.9908391 0.0349526 -0.1304459 -0.9908391 0.0349526 -0.1304459 -0.9908391 1.0 0.0 0.0 1.0 0.0 0.0 0.0954928 -0.0954928 -0.9908392 0.0954928 -0.0954928 -0.9908392 0.0954928 -0.0954928 -0.9908392 1.0 0.0 0.0 1.0 0.0 0.0 0.1304459 -0.0349526 -0.9908391 0.1304459 -0.0349526 -0.9908391 0.1304459 -0.0349526 -0.9908391 1.0 0.0 0.0 1.0 0.0 0.0 0.1304459 0.0349526 -0.9908391 0.1304459 0.0349526 -0.9908391 0.1304459 0.0349526 -0.9908391 1.0 0.0 0.0 1.0 0.0 0.0 0.0954928 0.0954928 -0.9908392 0.0954928 0.0954928 -0.9908392 0.0954928 0.0954928 -0.9908392 1.0 0.0 0.0 1.0 0.0 0.0 0.0349526 0.1304459 -0.9908391 0.0349526 0.1304459 -0.9908391 0.0349526 0.1304459 -0.9908391 1.0 0.0 0.0 1.0 0.0 0.0 -0.0349526 0.1304459 -0.9908391 -0.0349526 0.1304459 -0.9908391 -0.0349526 0.1304459 -0.9908391 1.0 0.0 0.0 1.0 0.0 0.0 -0.0954928 0.0954928 -0.9908392 -0.0954928 0.0954928 -0.9908392 -0.0954928 0.0954928 -0.9908392 1.0 0.0 0.0 1.0 0.0 0.0 -0.1304459 0.0349526 -0.9908391 -0.1304459 0.0349526 -0.9908391 -0.1304459 0.0349526 -0.9908391 -0.3806896 -0.1020046 -0.9190596 -0.3806896 -0.1020046 -0.9190596 -0.3806896 -0.1020046 -0.9190596 -0.3806892 -0.1020049 -0.9190597 -0.3806892 -0.1020049 -0.9190597 -0.3806892 -0.1020049 -0.9190597 -0.278684 -0.278684 -0.9190595 -0.278684 -0.278684 -0.9190595 -0.278684 -0.278684 -0.9190595 -0.2786841 -0.2786841 -0.9190596 -0.2786841 -0.2786841 -0.9190596 -0.2786841 -0.2786841 -0.9190596 -0.1020045 -0.3806892 -0.9190598 -0.1020045 -0.3806892 -0.9190598 -0.1020045 -0.3806892 -0.9190598 -0.1020049 -0.3806894 -0.9190596 -0.1020049 -0.3806894 -0.9190596 -0.1020049 -0.3806894 -0.9190596 0.1020046 -0.3806896 -0.9190596 0.1020046 -0.3806896 -0.9190596 0.1020046 -0.3806896 -0.9190596 0.1020049 -0.3806892 -0.9190597 0.1020049 -0.3806892 -0.9190597 0.1020049 -0.3806892 -0.9190597 0.278684 -0.278684 -0.9190595 0.278684 -0.278684 -0.9190595 0.278684 -0.278684 -0.9190595 0.2786841 -0.2786841 -0.9190596 0.2786841 -0.2786841 -0.9190596 0.2786841 -0.2786841 -0.9190596 0.3806892 -0.1020045 -0.9190598 0.3806892 -0.1020045 -0.9190598 0.3806892 -0.1020045 -0.9190598 0.3806894 -0.1020049 -0.9190596 0.3806894 -0.1020049 -0.9190596 0.3806894 -0.1020049 -0.9190596 0.3806896 0.1020046 -0.9190596 0.3806896 0.1020046 -0.9190596 0.3806896 0.1020046 -0.9190596 0.3806892 0.1020049 -0.9190597 0.3806892 0.1020049 -0.9190597 0.3806892 0.1020049 -0.9190597 0.278684 0.278684 -0.9190595 0.278684 0.278684 -0.9190595 0.278684 0.278684 -0.9190595 0.2786841 0.2786841 -0.9190596 0.2786841 0.2786841 -0.9190596 0.2786841 0.2786841 -0.9190596 0.1020045 0.3806892 -0.9190598 0.1020045 0.3806892 -0.9190598 0.1020045 0.3806892 -0.9190598 0.1020049 0.3806894 -0.9190596 0.1020049 0.3806894 -0.9190596 0.1020049 0.3806894 -0.9190596 -0.1020046 0.3806896 -0.9190596 -0.1020046 0.3806896 -0.9190596 -0.1020046 0.3806896 -0.9190596 -0.1020049 0.3806892 -0.9190597 -0.1020049 0.3806892 -0.9190597 -0.1020049 0.3806892 -0.9190597 -0.278684 0.278684 -0.9190595 -0.278684 0.278684 -0.9190595 -0.278684 0.278684 -0.9190595 -0.2786841 0.2786841 -0.9190596 -0.2786841 0.2786841 -0.9190596 -0.2786841 0.2786841 -0.9190596 -0.3806892 0.1020045 -0.9190598 -0.3806892 0.1020045 -0.9190598 -0.3806892 0.1020045 -0.9190598 -0.3806894 0.1020049 -0.9190596 -0.3806894 0.1020049 -0.9190596 -0.3806894 0.1020049 -0.9190596 -0.6008211 -0.1609888 -0.7830048 -0.6008211 -0.1609888 -0.7830048 -0.6008211 -0.1609888 -0.7830048 -0.6008189 -0.1609902 -0.7830064 -0.6008189 -0.1609902 -0.7830064 -0.6008189 -0.1609902 -0.7830064</float_array>
                    <technique_common>
                        <accessor count="840" source="#geometry0-normal-array" stride="3">
                            <param name="X" type="float"/>
                            <param name="Y" type="float"/>
                            <param name="Z" type="float"/>
                        </accessor>
                    </technique_common>
                </source>
                <vertices id="geometry0-vertex">
                    <input semantic="POSITION" source="#geometry0-position"/>
                </vertices>
                <triangles count="288" material="default_ai_0.2_sh_0.2_tr_0.0_dc_r_0.8_g_0.8_b_0.8_sc_r_1.0_g_1.0_b_1.0_ec_r_0.0_g_0.0_b_0_tri">
                    <input offset="0" semantic="VERTEX" source="#geometry0-vertex"/>
                    <input offset="1" semantic="NORMAL" source="#geometry0-normal"/>
                    <p>13 0 15 1 27 2 13 3 27 4 25 5 15 6 16 7 28 8 15 9 28 10 27 11 16 12 17 13 29 14 16 15 29 16 28 17 17 18 18 19 30 20 17 21 30 22 29 23 18 24 19 25 31 26 18 27 31 28 30 29 19 30 20 31 32 32 19 33 32 34 31 35 20 36 21 37 33 38 20 39 33 40 32 41 21 42 22 43 34 44 21 45 34 46 33 47 22 48 23 49 35 50 22 51 35 52 34 53 23 54 24 55 36 56 23 57 36 58 35 59 24 60 14 61 26 62 24 63 26 64 36 65 26 66 25 67 37 68 26 69 37 70 38 71 25 72 27 73 39 74 25 75 39 76 37 77 27 78 28 79 40 80 27 81 40 82 39 83 28 84 29 85 41 86 28 87 41 88 40 89 29 90 30 91 42 92 29 93 42 94 41 95 30 96 31 97 43 98 30 99 43 100 42 101 31 102 32 103 44 104 31 105 44 106 43 107 32 108 33 109 45 110 32 111 45 112 44 113 33 114 34 115 46 116 33 117 46 118 45 119 34 120 35 121 47 122 34 123 47 124 46 125 35 126 36 127 48 128 35 129 48 130 47 131 36 132 26 133 38 134 36 135 38 136 48 137 38 138 37 139 49 140 38 141 49 142 50 143 37 144 39 145 51 146 37 147 51 148 49 149 39 150 40 151 52 152 39 153 52 154 51 155 40 156 41 157 53 158 40 159 53 160 52 161 41 162 42 163 54 164 41 165 54 166 53 167 42 168 43 169 55 170 42 171 55 172 54 173 43 174 44 175 56 176 43 177 56 178 55 179 44 180 45 181 57 182 44 183 57 184 56 185 45 186 46 187 58 188 45 189 58 190 57 191 46 192 47 193 59 194 46 195 59 196 58 197 47 198 48 199 60 200 47 201 60 202 59 203 48 204 38 205 50 206 48 207 50 208 60 209 50 210 49 211 61 212 50 213 61 214 62 215 49 216 51 217 63 218 49 219 63 220 61 221 51 222 52 223 64 224 51 225 64 226 63 227 52 228 53 229 65 230 52 231 65 232 64 233 53 234 54 235 66 236 53 237 66 238 65 239 54 240 55 241 67 242 54 243 67 244 66 245 55 246 56 247 68 248 55 249 68 250 67 251 56 252 57 253 69 254 56 255 69 256 68 257 57 258 58 259 70 260 57 261 70 262 69 263 58 264 59 265 71 266 58 267 71 268 70 269 59 270 60 271 72 272 59 273 72 274 71 275 60 276 50 277 62 278 60 279 62 280 72 281 62 282 61 283 73 284 62 285 73 286 74 287 61 288 63 289 75 290 61 291 75 292 73 293 63 294 64 295 76 296 63 297 76 298 75 299 64 300 65 301 77 302 64 303 77 304 76 305 65 306 66 307 78 308 65 309 78 310 77 311 66 312 67 313 79 314 66 315 79 316 78 317 67 318 68 319 80 320 67 321 80 322 79 323 68 324 69 325 81 326 68 327 81 328 80 329 69 330 70 331 82 332 69 333 82 334 81 335 70 336 71 337 83 338 70 339 83 340 82 341 71 342 72 343 84 344 71 345 84 346 83 347 72 348 62 349 74 350 72 351 74 352 84 353 74 354 73 355 85 356 74 357 85 358 86 359 73 360 75 361 87 362 73 363 87 364 85 365 75 366 76 367 88 368 75 369 88 370 87 371 76 372 77 373 89 374 76 375 89 376 88 377 77 378 78 379 90 380 77 381 90 382 89 383 78 384 79 385 91 386 78 387 91 388 90 389 79 390 80 391 92 392 79 393 92 394 91 395 80 396 81 397 93 398 80 399 93 400 92 401 81 402 82 403 94 404 81 405 94 406 93 407 82 408 83 409 95 410 82 411 95 412 94 413 83 414 84 415 96 416 83 417 96 418 95 419 84 420 74 421 86 422 84 423 86 424 96 425 86 426 85 427 97 428 86 429 97 430 98 431 85 432 87 433 99 434 85 435 99 436 97 437 87 438 88 439 100 440 87 441 100 442 99 443 88 444 89 445 101 446 88 447 101 448 100 449 89 450 90 451 102 452 89 453 102 454 101 455 90 456 91 457 103 458 90 459 103 460 102 461 91 462 92 463 104 464 91 465 104 466 103 467 92 468 93 469 105 470 92 471 105 472 104 473 93 474 94 475 106 476 93 477 106 478 105 479 94 480 95 481 107 482 94 483 107 484 106 485 95 486 96 487 108 488 95 489 108 490 107 491 96 492 86 493 98 494 96 495 98 496 108 497 98 498 97 499 109 500 98 501 109 502 110 503 97 504 99 505 111 506 97 507 111 508 109 509 99 510 100 511 112 512 99 513 112 514 111 515 100 516 101 517 113 518 100 519 113 520 112 521 101 522 102 523 114 524 101 525 114 526 113 527 102 528 103 529 115 530 102 531 115 532 114 533 103 534 104 535 116 536 103 537 116 538 115 539 104 540 105 541 117 542 104 543 117 544 116 545 105 546 106 547 118 548 105 549 118 550 117 551 106 552 107 553 119 554 106 555 119 556 118 557 107 558 108 559 120 560 107 561 120 562 119 563 108 564 98 565 110 566 108 567 110 568 120 569 110 570 109 571 121 572 110 573 121 574 122 575 109 576 111 577 123 578 109 579 123 580 121 581 111 582 112 583 124 584 111 585 124 586 123 587 112 588 113 589 125 590 112 591 125 592 124 593 113 594 114 595 126 596 113 597 126 598 125 599 114 600 115 601 127 602 114 603 127 604 126 605 115 606 116 607 128 608 115 609 128 610 127 611 116 612 117 613 129 614 116 615 129 616 128 617 117 618 118 619 130 620 117 621 130 622 129 623 118 624 119 625 131 626 118 627 131 628 130 629 119 630 120 631 132 632 119 633 132 634 131 635 120 636 110 637 122 638 120 639 122 640 132 641 122 642 121 643 133 644 122 645 133 646 133 646 121 647 123 648 133 649 121 650 133 651 133 651 123 652 124 653 133 654 123 655 133 656 133 656 124 657 125 658 133 659 124 660 133 661 133 661 125 662 126 663 133 664 125 665 133 666 133 666 126 667 127 668 133 669 126 670 133 671 133 671 127 672 128 673 133 674 127 675 133 676 133 676 128 677 129 678 133 679 128 680 133 681 133 681 129 682 130 683 133 684 129 685 133 686 133 686 130 687 131 688 133 689 130 690 133 691 133 691 131 692 132 693 133 694 131 695 133 696 133 696 132 697 122 698 133 699 132 700 133 701 133 701 0 702 0 702 1 703 0 704 1 705 2 706 0 707 0 707 3 708 0 709 3 710 1 711 0 712 0 712 4 713 0 714 4 715 3 716 0 717 0 717 5 718 0 719 5 720 4 721 0 722 0 722 6 723 0 724 6 725 5 726 0 727 0 727 7 728 0 729 7 730 6 731 0 732 0 732 8 733 0 734 8 735 7 736 0 737 0 737 9 738 0 739 9 740 8 741 0 742 0 742 10 743 0 744 10 745 9 746 0 747 0 747 11 748 0 749 11 750 10 751 0 752 0 752 12 753 0 754 12 755 11 756 0 757 0 757 2 758 0 759 2 760 12 761 2 762 1 763 13 764 2 765 13 766 14 767 1 768 3 769 15 770 1 771 15 772 13 773 3 774 4 775 16 776 3 777 16 778 15 779 4 780 5 781 17 782 4 783 17 784 16 785 5 786 6 787 18 788 5 789 18 790 17 791 6 792 7 793 19 794 6 795 19 796 18 797 7 798 8 799 20 800 7 801 20 802 19 803 8 804 9 805 21 806 8 807 21 808 20 809 9 810 10 811 22 812 9 813 22 814 21 815 10 816 11 817 23 818 10 819 23 820 22 821 11 822 12 823 24 824 11 825 24 826 23 827 12 828 2 829 14 830 12 831 14 832 24 833 14 834 13 835 25 836 14 837 25 838 26 839</p>
                </triangles>
            </mesh>
        </geometry>
    </library_geometries>
    <library_visual_scenes>
        <visual_scene id="Building_154_CROWN2">
            <node>
                <instance_geometry url="#geometry0">
                    <bind_material>
                        <technique_common>
                            <instance_material symbol="default_ai_0.2_sh_0.2_tr_0.0_dc_r_0.8_g_0.8_b_0.8_sc_r_1.0_g_1.0_b_1.0_ec_r_0.0_g_0.0_b_0_tri" target="#default_ai_0.2_sh_0.2_tr_0.0_dc_r_0.8_g_0.8_b_0.8_sc_r_1.0_g_1.0_b_1.0_ec_r_0.0_g_0.0_b_0_mat"/>
                        </technique_common>
                    </bind_material>
                </instance_geometry>
            </node>
        </visual_scene>
    </library_visual_scenes>
    <scene>
        <instance_visual_scene url="#Building_154_CROWN2"/>
    </scene>
</COLLADA>
