<?xml version="1.0" encoding="UTF-8" standalone="yes"?>
<COLLADA xmlns="http://www.collada.org/2005/11/COLLADASchema" version="1.4.1">
    <asset>
        <contributor>
            <authoring_tool>3D City Database Importer/Exporter, version 5.5.3; Chair of Geoinformatics, Technical University of Munich</authoring_tool>
        </contributor>
        <created>2026-09-25T14:44:57.116</created>
        <modified>2026-09-25T14:44:57.116</modified>
        <unit meter="1.0" name="meters"/>
        <up_axis>Z_UP</up_axis>
    </asset>
    <library_materials>
        <material id="default_ai_0.2_sh_0.2_tr_0.0_dc_r_0.8_g_0.8_b_0.8_sc_r_1.0_g_1.0_b_1.0_ec_r_0.0_g_0.0_b_0_mat">
            <instance_effect url="#default_ai_0.2_sh_0.2_tr_0.0_dc_r_0.8_g_0.8_b_0.8_sc_r_1.0_g_1.0_b_1.0_ec_r_0.0_g_0.0_b_0_eff"/>
        </material>
    </library_materials>
    <library_effects>
        <effect id="default_ai_0.2_sh_0.2_tr_0.0_dc_r_0.8_g_0.8_b_0.8_sc_r_1.0_g_1.0_b_1.0_ec_r_0.0_g_0.0_b_0_eff">
            <profile_COMMON>
                <technique sid="COMMON">
                    <lambert>
                        <emission>
                            <color>0.0 0.0 0.0 1.0</color>
                        </emission>
                        <diffuse>
                            <color>0.8 0.8 0.8 1.0</color>
                        </diffuse>
                        <reflective>
                            <color>1.0 1.0 1.0 1.0</color>
                        </reflective>
                        <reflectivity>
                            <float>0.2</float>
                        </reflectivity>
                        <transparent opaque="A_ONE">
                            <color>1.0 1.0 1.0 1.0</color>
                        </transparent>
                        <transparency>
                            <float>1.0</float>
                        </transparency>
                    </lambert>
                </technique>
                <extra>
                    <technique profile="GOOGLEEARTH">
                        <double_sided>0</double_sided>
                    </technique>
                </extra>
            </profile_COMMON>
        </effect>
    </library_effects>
    <library_geometries>
        <geometry id="geometry0">
            <mesh>
                <source id="geometry0-position">
                    <float_array id="geometry0-position-array" count="402">0.0 0.0 0.8 0.0896576 0.051764 0.7863704 0.1035276 0.0 0.7863704 0.051764 0.0896576 0.7863704 0.0 0.1035276 0.7863704 -0.051764 0.0896576 0.7863704 -0.0896576 0.051764 0.7863704 -0.1035276 0.0 0.7863704 -0.0896576 -0.051764 0.7863704 -0.051764 -0.0896576 0.7863704 0.0 -0.1035276 0.7863704 0.051764 -0.0896576 0.7863704 0.0896576 -0.051764 0.7863704 0.1732052 0.1 0.74641 0.2 0.0 0.74641 0.1 0.1732052 0.74641 0.0 0.2 0.74641 -0.1 0.1732052 0.74641 -0.1732052 0.1 0.74641 -0.2 0.0 0.74641 -0.1732052 -0.1 0.74641 -0.1 -0.1732052 0.74641 0.0 -0.2 0.74641 0.1 -0.1732052 0.74641 0.1732052 -0.1 0.74641 0.2449488 0.1414212 0.6828428 0.2828428 0.0 0.6828428 0.1414212 0.2449488 0.6828428 0.0 0.2828428 0.6828428 -0.1414212 0.2449488 0.6828428 -0.2449488 0.1414212 0.6828428 -0.2828428 0.0 0.6828428 -0.2449488 -0.1414212 0.6828428 -0.1414212 -0.2449488 0.6828428 0.0 -0.2828428 0.6828428 0.1414212 -0.2449488 0.6828428 0.2449488 -0.1414212 0.6828428 0.3 0.1732052 0.6 0.34641 0.0 0.6 0.1732052 0.3 0.6 0.0 0.34641 0.6 -0.1732052 0.3 0.6 -0.3 0.1732052 0.6 -0.34641 0.0 0.6 -0.3 -0.1732052 0.6 -0.1732052 -0.3 0.6 0.0 -0.34641 0.6 0.1732052 -0.3 0.6 0.3 -0.1732052 0.6 0.3346064 0.1931852 0.5035276 0.3863704 0.0 0.5035276 0.1931852 0.3346064 0.5035276 0.0 0.3863704 0.5035276 -0.1931852 0.3346064 0.5035276 -0.3346064 0.1931852 0.5035276 -0.3863704 0.0 0.5035276 -0.3346064 -0.1931852 0.5035276 -0.1931852 -0.3346064 0.5035276 0.0 -0.3863704 0.5035276 0.1931852 -0.3346064 0.5035276 0.3346064 -0.1931852 0.5035276 0.34641 0.2 0.4 0.4 0.0 0.4 0.2 0.34641 0.4 0.0 0.4 0.4 -0.2 0.34641 0.4 -0.34641 0.2 0.4 -0.4 0.0 0.4 -0.34641 -0.2 0.4 -0.2 -0.34641 0.4 0.0 -0.4 0.4 0.2 -0.34641 0.4 0.34641 -0.2 0.4 0.3346064 0.1931852 0.2964724 0.3863704 0.0 0.2964724 0.1931852 0.3346064 0.2964724 0.0 0.3863704 0.2964724 -0.1931852 0.3346064 0.2964724 -0.3346064 0.1931852 0.2964724 -0.3863704 0.0 0.2964724 -0.3346064 -0.1931852 0.2964724 -0.1931852 -0.3346064 0.2964724 0.0 -0.3863704 0.2964724 0.1931852 -0.3346064 0.2964724 0.3346064 -0.1931852 0.2964724 0.3 0.1732052 0.2 0.34641 0.0 0.2 0.1732052 0.3 0.2 0.0 0.34641 0.2 -0.1732052 0.3 0.2 -0.3 0.1732052 0.2 -0.34641 0.0 0.2 -0.3 -0.1732052 0.2 -0.1732052 -0.3 0.2 0.0 -0.34641 0.2 0.1732052 -0.3 0.2 0.3 -0.1732052 0.2 0.2449488 0.1414212 0.1171572 0.2828428 0.0 0.1171572 0.1414212 0.2449488 0.1171572 0.0 0.2828428 0.1171572 -0.1414212 0.2449488 0.1171572 -0.2449488 0.1414212 0.1171572 -0.2828428 0.0 0.1171572 -0.2449488 -0.1414212 0.1171572 -0.1414212 -0.2449488 0.1171572 0.0 -0.2828428 0.1171572 0.1414212 -0.2449488 0.1171572 0.2449488 -0.1414212 0.1171572 0.1732052 0.1 0.05359 0.2 0.0 0.05359 0.1 0.1732052 0.05359 0.0 0.2 0.05359 -0.1 0.1732052 0.05359 -0.1732052 0.1 0.05359 -0.2 0.0 0.05359 -0.1732052 -0.1 0.05359 -0.1 -0.1732052 0.05359 0.0 -0.2 0.05359 0.1 -0.1732052 0.05359 0.1732052 -0.1 0.05359 0.0896576 0.051764 0.0136296 0.1035276 0.0 0.0136296 0.051764 0.0896576 0.0136296 0.0 0.1035276 0.0136296 -0.051764 0.0896576 0.0136296 -0.0896576 0.051764 0.0136296 -0.1035276 0.0 0.0136296 -0.0896576 -0.051764 0.0136296 -0.051764 -0.0896576 0.0136296 0.0 -0.1035276 0.0136296 0.051764 -0.0896576 0.0136296 0.0896576 -0.051764 0.0136296 0.0 0.0 0.0</float_array>
                    <technique_common>
                        <accessor count="134" source="#geometry0-position-array" stride="3">
                            <param name="X" type="float"/>
                            <param name="Y" type="float"/>
                            <param name="Z" type="float"/>
                        </accessor>
                    </technique_common>
                </source>
                <source id="geometry0-normal">
                    <float_array id="geometry0-normal-array" count="2520">-0.5680802 0.5680802 -0.5954577 -0.5680802 0.5680802 -0.5954577 -0.5680802 0.5680802 -0.5954577 -0.5680802 0.5680802 -0.5954577 -0.5680802 0.5680802 -0.5954577 -0.5680802 0.5680802 -0.5954577 -0.7760143 0.2079341 -0.5954539 -0.7760143 0.2079341 -0.5954539 -0.7760143 0.2079341 -0.5954539 -0.7760127 0.2079311 -0.5954571 -0.7760127 0.2079311 -0.5954571 -0.7760127 0.2079311 -0.5954571 -0.8968096 -0.2402984 -0.3714689 -0.8968096 -0.2402984 -0.3714689 -0.8968096 -0.2402984 -0.3714689 -0.896808 -0.2402997 -0.3714719 -0.896808 -0.2402997 -0.3714719 -0.896808 -0.2402997 -0.3714719 -0.65651 -0.65651 -0.3714689 -0.65651 -0.65651 -0.3714689 -0.65651 -0.65651 -0.3714689 -0.65651 -0.65651 -0.371469 -0.65651 -0.65651 -0.371469 -0.65651 -0.65651 -0.371469 -0.240298 -0.8968084 -0.371472 -0.240298 -0.8968084 -0.371472 -0.240298 -0.8968084 -0.371472 -0.2403001 -0.8968092 -0.3714691 -0.2403001 -0.8968092 -0.3714691 -0.2403001 -0.8968092 -0.3714691 0.2402984 -0.8968096 -0.3714689 0.2402984 -0.8968096 -0.3714689 0.2402984 -0.8968096 -0.3714689 0.2402997 -0.896808 -0.3714719 0.2402997 -0.896808 -0.3714719 0.2402997 -0.896808 -0.3714719 0.65651 -0.65651 -0.3714689 0.65651 -0.65651 -0.3714689 0.65651 -0.65651 -0.3714689 0.65651 -0.65651 -0.371469 0.65651 -0.65651 -0.371469 0.65651 -0.65651 -0.371469 0.8968084 -0.240298 -0.371472 0.8968084 -0.240298 -0.371472 0.8968084 -0.240298 -0.371472 0.8968092 -0.2403001 -0.3714691 0.8968092 -0.2403001 -0.3714691 0.8968092 -0.2403001 -0.3714691 0.8968096 0.2402984 -0.3714689 0.8968096 0.2402984 -0.3714689 0.8968096 0.2402984 -0.3714689 0.896808 0.2402997 -0.3714719 0.896808 0.2402997 -0.3714719 0.896808 0.2402997 -0.3714719 0.65651 0.65651 -0.3714689 0.65651 0.65651 -0.3714689 0.65651 0.65651 -0.3714689 0.65651 0.65651 -0.371469 0.65651 0.65651 -0.371469 0.65651 0.65651 -0.371469 0.240298 0.8968084 -0.371472 0.240298 0.8968084 -0.371472 0.240298 0.8968084 -0.371472 0.2403001 0.8968092 -0.3714691 0.2403001 0.8968092 -0.3714691 0.2403001 0.8968092 -0.3714691 -0.2402984 0.8968096 -0.3714689 -0.2402984 0.8968096 -0.3714689 -0.2402984 0.8968096 -0.3714689 -0.2402997 0.896808 -0.3714719 -0.2402997 0.896808 -0.3714719 -0.2402997 0.896808 -0.3714719 -0.65651 0.65651 -0.3714689 -0.65651 0.65651 -0.3714689 -0.65651 0.65651 -0.3714689 -0.65651 0.65651 -0.371469 -0.65651 0.65651 -0.371469 -0.65651 0.65651 -0.371469 -0.8968084 0.240298 -0.371472 -0.8968084 0.240298 -0.371472 -0.8968084 0.240298 -0.371472 -0.8968092 0.2403001 -0.3714691 -0.8968092 0.2403001 -0.3714691 -0.8968092 0.2403001 -0.3714691 -0.958209 -0.2567521 -0.1261502 -0.958209 -0.2567521 -0.1261502 -0.958209 -0.2567521 -0.1261502 -0.958209 -0.2567521 -0.1261502 -0.958209 -0.2567521 -0.1261502 -0.958209 -0.2567521 -0.1261502 -0.7014578 -0.7014578 -0.1261502 -0.7014578 -0.7014578 -0.1261502 -0.7014578 -0.7014578 -0.1261502 -0.7014578 -0.7014578 -0.1261502 -0.7014578 -0.7014578 -0.1261502 -0.7014578 -0.7014578 -0.1261502 -0.2567521 -0.958209 -0.1261501 -0.2567521 -0.958209 -0.1261501 -0.2567521 -0.958209 -0.1261501 -0.2567521 -0.9582091 -0.1261502 -0.2567521 -0.9582091 -0.1261502 -0.2567521 -0.9582091 -0.1261502 0.2567521 -0.958209 -0.1261502 0.2567521 -0.958209 -0.1261502 0.2567521 -0.958209 -0.1261502 0.2567521 -0.958209 -0.1261502 0.2567521 -0.958209 -0.1261502 0.2567521 -0.958209 -0.1261502 0.7014578 -0.7014578 -0.1261502 0.7014578 -0.7014578 -0.1261502 0.7014578 -0.7014578 -0.1261502 0.7014578 -0.7014578 -0.1261502 0.7014578 -0.7014578 -0.1261502 0.7014578 -0.7014578 -0.1261502 0.958209 -0.2567521 -0.1261501 0.958209 -0.2567521 -0.1261501 0.958209 -0.2567521 -0.1261501 0.9582091 -0.2567521 -0.1261502 0.9582091 -0.2567521 -0.1261502 0.9582091 -0.2567521 -0.1261502 0.958209 0.2567521 -0.1261502 0.958209 0.2567521 -0.1261502 0.958209 0.2567521 -0.1261502 0.958209 0.2567521 -0.1261502 0.958209 0.2567521 -0.1261502 0.958209 0.2567521 -0.1261502 0.7014578 0.7014578 -0.1261502 0.7014578 0.7014578 -0.1261502 0.7014578 0.7014578 -0.1261502 0.7014578 0.7014578 -0.1261502 0.7014578 0.7014578 -0.1261502 0.7014578 0.7014578 -0.1261502 0.2567521 0.958209 -0.1261501 0.2567521 0.958209 -0.1261501 0.2567521 0.958209 -0.1261501 0.2567521 0.9582091 -0.1261502 0.2567521 0.9582091 -0.1261502 0.2567521 0.9582091 -0.1261502 -0.2567521 0.958209 -0.1261502 -0.2567521 0.958209 -0.1261502 -0.2567521 0.958209 -0.1261502 -0.2567521 0.958209 -0.1261502 -0.2567521 0.958209 -0.1261502 -0.2567521 0.958209 -0.1261502 -0.7014578 0.7014578 -0.1261502 -0.7014578 0.7014578 -0.1261502 -0.7014578 0.7014578 -0.1261502 -0.7014578 0.7014578 -0.1261502 -0.7014578 0.7014578 -0.1261502 -0.7014578 0.7014578 -0.1261502 -0.958209 0.2567521 -0.1261501 -0.958209 0.2567521 -0.1261501 -0.958209 0.2567521 -0.1261501 -0.9582091 0.2567521 -0.1261502 -0.9582091 0.2567521 -0.1261502 -0.9582091 0.2567521 -0.1261502 -0.958209 -0.2567521 0.1261502 -0.958209 -0.2567521 0.1261502 -0.958209 -0.2567521 0.1261502 -0.958209 -0.2567521 0.1261501 -0.958209 -0.2567521 0.1261501 -0.958209 -0.2567521 0.1261501 -0.7014578 -0.7014578 0.1261502 -0.7014578 -0.7014578 0.1261502 -0.7014578 -0.7014578 0.1261502 -0.7014578 -0.7014578 0.1261501 -0.7014578 -0.7014578 0.1261501 -0.7014578 -0.7014578 0.1261501 -0.2567521 -0.958209 0.1261501 -0.2567521 -0.958209 0.1261501 -0.2567521 -0.958209 0.1261501 -0.2567521 -0.958209 0.1261502 -0.2567521 -0.958209 0.1261502 -0.2567521 -0.958209 0.1261502 0.2567521 -0.958209 0.1261502 0.2567521 -0.958209 0.1261502 0.2567521 -0.958209 0.1261502 0.2567521 -0.958209 0.1261501 0.2567521 -0.958209 0.1261501 0.2567521 -0.958209 0.1261501 0.7014578 -0.7014578 0.1261502 0.7014578 -0.7014578 0.1261502 0.7014578 -0.7014578 0.1261502 0.7014578 -0.7014578 0.1261501 0.7014578 -0.7014578 0.1261501 0.7014578 -0.7014578 0.1261501 0.958209 -0.2567521 0.1261501 0.958209 -0.2567521 0.1261501 0.958209 -0.2567521 0.1261501 0.958209 -0.2567521 0.1261502 0.958209 -0.2567521 0.1261502 0.958209 -0.2567521 0.1261502 0.958209 0.2567521 0.1261502 0.958209 0.2567521 0.1261502 0.958209 0.2567521 0.1261502 0.958209 0.2567521 0.1261501 0.958209 0.2567521 0.1261501 0.958209 0.2567521 0.1261501 0.7014578 0.7014578 0.1261502 0.7014578 0.7014578 0.1261502 0.7014578 0.7014578 0.1261502 0.7014578 0.7014578 0.1261501 0.7014578 0.7014578 0.1261501 0.7014578 0.7014578 0.1261501 0.2567521 0.958209 0.1261501 0.2567521 0.958209 0.1261501 0.2567521 0.958209 0.1261501 0.2567521 0.958209 0.1261502 0.2567521 0.958209 0.1261502 0.2567521 0.958209 0.1261502 -0.2567521 0.958209 0.1261502 -0.2567521 0.958209 0.1261502 -0.2567521 0.958209 0.1261502 -0.2567521 0.958209 0.1261501 -0.2567521 0.958209 0.1261501 -0.2567521 0.958209 0.1261501 -0.7014578 0.7014578 0.1261502 -0.7014578 0.7014578 0.1261502 -0.7014578 0.7014578 0.1261502 -0.7014578 0.7014578 0.1261501 -0.7014578 0.7014578 0.1261501 -0.7014578 0.7014578 0.1261501 -0.958209 0.2567521 0.1261501 -0.958209 0.2567521 0.1261501 -0.958209 0.2567521 0.1261501 -0.958209 0.2567521 0.1261502 -0.958209 0.2567521 0.1261502 -0.958209 0.2567521 0.1261502 -0.8968092 -0.2403 0.3714692 -0.8968092 -0.2403 0.3714692 -0.8968092 -0.2403 0.3714692 -0.8968084 -0.240298 0.3714721 -0.8968084 -0.240298 0.3714721 -0.8968084 -0.240298 0.3714721 -0.65651 -0.65651 0.3714691 -0.65651 -0.65651 0.3714691 -0.65651 -0.65651 0.3714691 -0.65651 -0.65651 0.3714691 -0.65651 -0.65651 0.3714691 -0.65651 -0.65651 0.3714691 -0.2402997 -0.896808 0.371472 -0.2402997 -0.896808 0.371472 -0.2402997 -0.896808 0.371472 -0.2402984 -0.8968096 0.371469 -0.2402984 -0.8968096 0.371469 -0.2402984 -0.8968096 0.371469 0.2403 -0.8968092 0.3714692 0.2403 -0.8968092 0.3714692 0.2403 -0.8968092 0.3714692 0.240298 -0.8968084 0.3714721 0.240298 -0.8968084 0.3714721 0.240298 -0.8968084 0.3714721 0.65651 -0.65651 0.3714691 0.65651 -0.65651 0.3714691 0.65651 -0.65651 0.3714691 0.65651 -0.65651 0.3714691 0.65651 -0.65651 0.3714691 0.65651 -0.65651 0.3714691 0.896808 -0.2402997 0.371472 0.896808 -0.2402997 0.371472 0.896808 -0.2402997 0.371472 0.8968096 -0.2402984 0.371469 0.8968096 -0.2402984 0.371469 0.8968096 -0.2402984 0.371469 0.8968092 0.2403 0.3714692 0.8968092 0.2403 0.3714692 0.8968092 0.2403 0.3714692 0.8968084 0.240298 0.3714721 0.8968084 0.240298 0.3714721 0.8968084 0.240298 0.3714721 0.65651 0.65651 0.3714691 0.65651 0.65651 0.3714691 0.65651 0.65651 0.3714691 0.65651 0.65651 0.3714691 0.65651 0.65651 0.3714691 0.65651 0.65651 0.3714691 0.2402997 0.896808 0.371472 0.2402997 0.896808 0.371472 0.2402997 0.896808 0.371472 0.2402984 0.8968096 0.371469 0.2402984 0.8968096 0.371469 0.2402984 0.8968096 0.371469 -0.2403 0.8968092 0.3714692 -0.2403 0.8968092 0.3714692 -0.2403 0.8968092 0.3714692 -0.240298 0.8968084 0.3714721 -0.240298 0.8968084 0.3714721 -0.240298 0.8968084 0.3714721 -0.65651 0.65651 0.3714691 -0.65651 0.65651 0.3714691 -0.65651 0.65651 0.3714691 -0.65651 0.65651 0.3714691 -0.65651 0.65651 0.3714691 -0.65651 0.65651 0.3714691 -0.896808 0.2402997 0.371472 -0.896808 0.2402997 0.371472 -0.896808 0.2402997 0.371472 -0.8968096 0.2402984 0.371469 -0.8968096 0.2402984 0.371469 -0.8968096 0.2402984 0.371469 -0.7760127 -0.2079311 0.5954569 -0.7760127 -0.2079311 0.5954569 -0.7760127 -0.2079311 0.5954569 -0.7760144 -0.2079341 0.5954537 -0.7760144 -0.2079341 0.5954537 -0.7760144 -0.2079341 0.5954537 -0.5680803 -0.5680803 0.5954575 -0.5680803 -0.5680803 0.5954575 -0.5680803 -0.5680803 0.5954575 -0.5680802 -0.5680802 0.5954576 -0.5680802 -0.5680802 0.5954576 -0.5680802 -0.5680802 0.5954576 -0.2079316 -0.7760147 0.595454 -0.2079316 -0.7760147 0.595454 -0.2079316 -0.7760147 0.595454 -0.2079335 -0.7760118 0.5954572 -0.2079335 -0.7760118 0.5954572 -0.2079335 -0.7760118 0.5954572 0.2079311 -0.7760127 0.5954569 0.2079311 -0.7760127 0.5954569 0.2079311 -0.7760127 0.5954569 0.2079341 -0.7760144 0.5954537 0.2079341 -0.7760144 0.5954537 0.2079341 -0.7760144 0.5954537 0.5680803 -0.5680803 0.5954575 0.5680803 -0.5680803 0.5954575 0.5680803 -0.5680803 0.5954575 0.5680802 -0.5680802 0.5954576 0.5680802 -0.5680802 0.5954576 0.5680802 -0.5680802 0.5954576 0.7760147 -0.2079316 0.595454 0.7760147 -0.2079316 0.595454 0.7760147 -0.2079316 0.595454 0.7760118 -0.2079335 0.5954572 0.7760118 -0.2079335 0.5954572 0.7760118 -0.2079335 0.5954572 0.7760127 0.2079311 0.5954569 0.7760127 0.2079311 0.5954569 0.7760127 0.2079311 0.5954569 0.7760144 0.2079341 0.5954537 0.7760144 0.2079341 0.5954537 0.7760144 0.2079341 0.5954537 0.5680803 0.5680803 0.5954575 0.5680803 0.5680803 0.5954575 0.5680803 0.5680803 0.5954575 0.5680802 0.5680802 0.5954576 0.5680802 0.5680802 0.5954576 0.5680802 0.5680802 0.5954576 0.2079316 0.7760147 0.595454 0.2079316 0.7760147 0.595454 0.2079316 0.7760147 0.595454 0.2079335 0.7760118 0.5954572 0.2079335 0.7760118 0.5954572 0.2079335 0.7760118 0.5954572 -0.2079311 0.7760127 0.5954569 -0.2079311 0.7760127 0.5954569 -0.2079311 0.7760127 0.5954569 -0.2079341 0.7760144 0.5954537 -0.2079341 0.7760144 0.5954537 -0.2079341 0.7760144 0.5954537 -0.5680803 0.5680803 0.5954575 -0.5680803 0.5680803 0.5954575 -0.5680803 0.5680803 0.5954575 -0.5680802 0.5680802 0.5954576 -0.5680802 0.5680802 0.5954576 -0.5680802 0.5680802 0.5954576 -0.7760147 0.2079316 0.595454 -0.7760147 0.2079316 0.595454 -0.7760147 0.2079316 0.595454 -0.7760118 0.2079335 0.5954572 -0.7760118 0.2079335 0.5954572 -0.7760118 0.2079335 0.5954572 -0.6008203 -0.1609906 0.7830051 -0.6008203 -0.1609906 0.7830051 -0.6008203 -0.1609906 0.7830051 -0.6008189 -0.1609883 0.7830066 -0.6008189 -0.1609883 0.7830066 -0.6008189 -0.1609883 0.7830066 -0.4398314 -0.4398314 0.7830049 -0.4398314 -0.4398314 0.7830049 -0.4398314 -0.4398314 0.7830049 -0.4398313 -0.4398313 0.783005 -0.4398313 -0.4398313 0.783005 -0.4398313 -0.4398313 0.783005 -0.1609902 -0.6008188 0.7830063 -0.1609902 -0.6008188 0.7830063 -0.1609902 -0.6008188 0.7830063 -0.1609889 -0.6008211 0.7830049 -0.1609889 -0.6008211 0.7830049 -0.1609889 -0.6008211 0.7830049 0.1609906 -0.6008203 0.7830051 0.1609906 -0.6008203 0.7830051 0.1609906 -0.6008203 0.7830051 0.1609883 -0.6008189 0.7830066 0.1609883 -0.6008189 0.7830066 0.1609883 -0.6008189 0.7830066 0.4398314 -0.4398314 0.7830049 0.4398314 -0.4398314 0.7830049 0.4398314 -0.4398314 0.7830049 0.4398313 -0.4398313 0.783005 0.4398313 -0.4398313 0.783005 0.4398313 -0.4398313 0.783005 0.6008188 -0.1609902 0.7830063 0.6008188 -0.1609902 0.7830063 0.6008188 -0.1609902 0.7830063 0.6008211 -0.1609889 0.7830049 0.6008211 -0.1609889 0.7830049 0.6008211 -0.1609889 0.7830049 0.6008203 0.1609906 0.7830051 0.6008203 0.1609906 0.7830051 0.6008203 0.1609906 0.7830051 0.6008189 0.1609883 0.7830066 0.6008189 0.1609883 0.7830066 0.6008189 0.1609883 0.7830066 0.4398314 0.4398314 0.7830049 0.4398314 0.4398314 0.7830049 0.4398314 0.4398314 0.7830049 0.4398313 0.4398313 0.783005 0.4398313 0.4398313 0.783005 0.4398313 0.4398313 0.783005 0.1609902 0.6008188 0.7830063 0.1609902 0.6008188 0.7830063 0.1609902 0.6008188 0.7830063 0.1609889 0.6008211 0.7830049 0.1609889 0.6008211 0.7830049 0.1609889 0.6008211 0.7830049 -0.1609906 0.6008203 0.7830051 -0.1609906 0.6008203 0.7830051 -0.1609906 0.6008203 0.7830051 -0.1609883 0.6008189 0.7830066 -0.1609883 0.6008189 0.7830066 -0.1609883 0.6008189 0.7830066 -0.4398314 0.4398314 0.7830049 -0.4398314 0.4398314 0.7830049 -0.4398314 0.4398314 0.7830049 -0.4398313 0.4398313 0.783005 -0.4398313 0.4398313 0.783005 -0.4398313 0.4398313 0.783005 -0.6008188 0.1609902 0.7830063 -0.6008188 0.1609902 0.7830063 -0.6008188 0.1609902 0.7830063 -0.6008211 0.1609889 0.7830049 -0.6008211 0.1609889 0.7830049 -0.6008211 0.1609889 0.7830049 -0.3806893 -0.102005 0.9190596 -0.3806893 -0.102005 0.9190596 -0.3806893 -0.102005 0.9190596 -0.3806892 -0.1020045 0.9190598 -0.3806892 -0.1020045 0.9190598 -0.3806892 -0.1020045 0.9190598 -0.278684 -0.278684 0.9190595 -0.278684 -0.278684 0.9190595 -0.278684 -0.278684 0.9190595 -0.278684 -0.278684 0.9190595 -0.278684 -0.278684 0.9190595 -0.278684 -0.278684 0.9190595 -0.1020049 -0.3806891 0.9190597 -0.1020049 -0.3806891 0.9190597 -0.1020049 -0.3806891 0.9190597 -0.1020046 -0.3806895 0.9190596 -0.1020046 -0.3806895 0.9190596 -0.1020046 -0.3806895 0.9190596 0.102005 -0.3806893 0.9190596 0.102005 -0.3806893 0.9190596 0.102005 -0.3806893 0.9190596 0.1020045 -0.3806892 0.9190598 0.1020045 -0.3806892 0.9190598 0.1020045 -0.3806892 0.9190598 0.278684 -0.278684 0.9190595 0.278684 -0.278684 0.9190595 0.278684 -0.278684 0.9190595 0.278684 -0.278684 0.9190595 0.278684 -0.278684 0.9190595 0.278684 -0.278684 0.9190595 0.3806891 -0.1020049 0.9190597 0.3806891 -0.1020049 0.9190597 0.3806891 -0.1020049 0.9190597 0.3806895 -0.1020046 0.9190596 0.3806895 -0.1020046 0.9190596 0.3806895 -0.1020046 0.9190596 0.3806893 0.102005 0.9190596 0.3806893 0.102005 0.9190596 0.3806893 0.102005 0.9190596 0.3806892 0.1020045 0.9190598 0.3806892 0.1020045 0.9190598 0.3806892 0.1020045 0.9190598 0.278684 0.278684 0.9190595 0.278684 0.278684 0.9190595 0.278684 0.278684 0.9190595 0.278684 0.278684 0.9190595 0.278684 0.278684 0.9190595 0.278684 0.278684 0.9190595 0.1020049 0.3806891 0.9190597 0.1020049 0.3806891 0.9190597 0.1020049 0.3806891 0.9190597 0.1020046 0.3806895 0.9190596 0.1020046 0.3806895 0.9190596 0.1020046 0.3806895 0.9190596 -0.102005 0.3806893 0.9190596 -0.102005 0.3806893 0.9190596 -0.102005 0.3806893 0.9190596 -0.1020045 0.3806892 0.9190598 -0.1020045 0.3806892 0.9190598 -0.1020045 0.3806892 0.9190598 -0.278684 0.278684 0.9190595 -0.278684 0.278684 0.9190595 -0.278684 0.278684 0.9190595 -0.278684 0.278684 0.9190595 -0.278684 0.278684 0.9190595 -0.278684 0.278684 0.9190595 -0.3806891 0.1020049 0.9190597 -0.3806891 0.1020049 0.9190597 -0.3806891 0.1020049 0.9190597 -0.3806895 0.1020046 0.9190596 -0.3806895 0.1020046 0.9190596 -0.3806895 0.1020046 0.9190596 -0.1304458 -0.0349525 0.9908391 -0.1304458 -0.0349525 0.9908391 -0.1304458 -0.0349525 0.9908391 1.0 0.0 0.0 1.0 0.0 0.0 -0.0954928 -0.0954928 0.9908392 -0.0954928 -0.0954928 0.9908392 -0.0954928 -0.0954928 0.9908392 1.0 0.0 0.0 1.0 0.0 0.0 -0.0349525 -0.1304458 0.9908391 -0.0349525 -0.1304458 0.9908391 -0.0349525 -0.1304458 0.9908391 1.0 0.0 0.0 1.0 0.0 0.0 0.0349525 -0.1304458 0.9908391 0.0349525 -0.1304458 0.9908391 0.0349525 -0.1304458 0.9908391 1.0 0.0 0.0 1.0 0.0 0.0 0.0954928 -0.0954928 0.9908392 0.0954928 -0.0954928 0.9908392 0.0954928 -0.0954928 0.9908392 1.0 0.0 0.0 1.0 0.0 0.0 0.1304458 -0.0349525 0.9908391 0.1304458 -0.0349525 0.9908391 0.1304458 -0.0349525 0.9908391 1.0 0.0 0.0 1.0 0.0 0.0 0.1304458 0.0349525 0.9908391 0.1304458 0.0349525 0.9908391 0.1304458 0.0349525 0.9908391 1.0 0.0 0.0 1.0 0.0 0.0 0.0954928 0.0954928 0.9908392 0.0954928 0.0954928 0.9908392 0.0954928 0.0954928 0.9908392 1.0 0.0 0.0 1.0 0.0 0.0 0.0349525 0.1304458 0.9908391 0.0349525 0.1304458 0.9908391 0.0349525 0.1304458 0.9908391 1.0 0.0 0.0 1.0 0.0 0.0 -0.0349525 0.1304458 0.9908391 -0.0349525 0.1304458 0.9908391 -0.0349525 0.1304458 0.9908391 1.0 0.0 0.0 1.0 0.0 0.0 -0.0954928 0.0954928 0.9908392 -0.0954928 0.0954928 0.9908392 -0.0954928 0.0954928 0.9908392 1.0 0.0 0.0 1.0 0.0 0.0 -0.1304458 0.0349525 0.9908391 -0.1304458 0.0349525 0.9908391 -0.1304458 0.0349525 0.9908391 1.0 0.0 0.0 1.0 0.0 0.0 1.0 0.0 0.0 1.0 0.0 0.0 -0.1304459 -0.0349526 -0.9908391 -0.1304459 -0.0349526 -0.9908391 -0.1304459 -0.0349526 -0.9908391 1.0 0.0 0.0 1.0 0.0 0.0 -0.0954929 -0.0954929 -0.9908391 -0.0954929 -0.0954929 -0.9908391 -0.0954929 -0.0954929 -0.9908391 1.0 0.0 0.0 1.0 0.0 0.0 -0.0349526 -0.130446 -0.9908391 -0.0349526 -0.130446 -0.9908391 -0.0349526 -0.130446 -0.9908391 1.0 0.0 0.0 1.0 0.0 0.0 0.0349526 -0.1304459 -0.9908391 0.0349526 -0.1304459 -0.9908391 0.0349526 -0.1304459 -0.9908391 1.0 0.0 0.0 1.0 0.0 0.0 0.0954929 -0.0954929 -0.9908391 0.0954929 -0.0954929 -0.9908391 0.0954929 -0.0954929 -0.9908391 1.0 0.0 0.0 1.0 0.0 0.0 0.130446 -0.0349526 -0.9908391 0.130446 -0.0349526 -0.9908391 0.130446 -0.0349526 -0.9908391 1.0 0.0 0.0 1.0 0.0 0.0 0.1304459 0.0349526 -0.9908391 0.1304459 0.0349526 -0.9908391 0.1304459 0.0349526 -0.9908391 1.0 0.0 0.0 1.0 0.0 0.0 0.0954929 0.0954929 -0.9908391 0.0954929 0.0954929 -0.9908391 0.0954929 0.0954929 -0.9908391 1.0 0.0 0.0 1.0 0.0 0.0 0.0349526 0.130446 -0.9908391 0.0349526 0.130446 -0.9908391 0.0349526 0.130446 -0.9908391 1.0 0.0 0.0 1.0 0.0 0.0 -0.0349526 0.1304459 -0.9908391 -0.0349526 0.1304459 -0.9908391 -0.0349526 0.1304459 -0.9908391 1.0 0.0 0.0 1.0 0.0 0.0 -0.0954929 0.0954929 -0.9908391 -0.0954929 0.0954929 -0.9908391 -0.0954929 0.0954929 -0.9908391 1.0 0.0 0.0 1.0 0.0 0.0 -0.130446 0.0349526 -0.9908391 -0.130446 0.0349526 -0.9908391 -0.130446 0.0349526 -0.9908391 -0.3806894 -0.1020045 -0.9190596 -0.3806894 -0.1020045 -0.9190596 -0.3806894 -0.1020045 -0.9190596 -0.380689 -0.1020049 -0.9190598 -0.380689 -0.1020049 -0.9190598 -0.380689 -0.1020049 -0.9190598 -0.278684 -0.278684 -0.9190596 -0.278684 -0.278684 -0.9190596 -0.278684 -0.278684 -0.9190596 -0.2786839 -0.2786839 -0.9190596 -0.2786839 -0.2786839 -0.9190596 -0.2786839 -0.2786839 -0.9190596 -0.1020044 -0.380689 -0.9190598 -0.1020044 -0.380689 -0.9190598 -0.1020044 -0.380689 -0.9190598 -0.1020049 -0.3806892 -0.9190597 -0.1020049 -0.3806892 -0.9190597 -0.1020049 -0.3806892 -0.9190597 0.1020045 -0.3806894 -0.9190596 0.1020045 -0.3806894 -0.9190596 0.1020045 -0.3806894 -0.9190596 0.1020049 -0.380689 -0.9190598 0.1020049 -0.380689 -0.9190598 0.1020049 -0.380689 -0.9190598 0.278684 -0.278684 -0.9190596 0.278684 -0.278684 -0.9190596 0.278684 -0.278684 -0.9190596 0.2786839 -0.2786839 -0.9190596 0.2786839 -0.2786839 -0.9190596 0.2786839 -0.2786839 -0.9190596 0.380689 -0.1020044 -0.9190598 0.380689 -0.1020044 -0.9190598 0.380689 -0.1020044 -0.9190598 0.3806892 -0.1020049 -0.9190597 0.3806892 -0.1020049 -0.9190597 0.3806892 -0.1020049 -0.9190597 0.3806894 0.1020045 -0.9190596 0.3806894 0.1020045 -0.9190596 0.3806894 0.1020045 -0.9190596 0.380689 0.1020049 -0.9190598 0.380689 0.1020049 -0.9190598 0.380689 0.1020049 -0.9190598 0.278684 0.278684 -0.9190596 0.278684 0.278684 -0.9190596 0.278684 0.278684 -0.9190596 0.2786839 0.2786839 -0.9190596 0.2786839 0.2786839 -0.9190596 0.2786839 0.2786839 -0.9190596 0.1020044 0.380689 -0.9190598 0.1020044 0.380689 -0.9190598 0.1020044 0.380689 -0.9190598 0.1020049 0.3806892 -0.9190597 0.1020049 0.3806892 -0.9190597 0.1020049 0.3806892 -0.9190597 -0.1020045 0.3806894 -0.9190596 -0.1020045 0.3806894 -0.9190596 -0.1020045 0.3806894 -0.9190596 -0.1020049 0.380689 -0.9190598 -0.1020049 0.380689 -0.9190598 -0.1020049 0.380689 -0.9190598 -0.278684 0.278684 -0.9190596 -0.278684 0.278684 -0.9190596 -0.278684 0.278684 -0.9190596 -0.2786839 0.2786839 -0.9190596 -0.2786839 0.2786839 -0.9190596 -0.2786839 0.2786839 -0.9190596 -0.380689 0.1020044 -0.9190598 -0.380689 0.1020044 -0.9190598 -0.380689 0.1020044 -0.9190598 -0.3806892 0.1020049 -0.9190597 -0.3806892 0.1020049 -0.9190597 -0.3806892 0.1020049 -0.9190597 -0.6008213 -0.1609889 -0.7830048 -0.6008213 -0.1609889 -0.7830048 -0.6008213 -0.1609889 -0.7830048 -0.6008189 -0.1609903 -0.7830062 -0.6008189 -0.1609903 -0.7830062 -0.6008189 -0.1609903 -0.7830062 -0.4398315 -0.4398315 -0.7830048 -0.4398315 -0.4398315 -0.7830048 -0.4398315 -0.4398315 -0.7830048 -0.4398315 -0.4398315 -0.7830049 -0.4398315 -0.4398315 -0.7830049 -0.4398315 -0.4398315 -0.7830049 -0.1609883 -0.6008191 -0.7830064 -0.1609883 -0.6008191 -0.7830064 -0.1609883 -0.6008191 -0.7830064 -0.1609907 -0.6008204 -0.783005 -0.1609907 -0.6008204 -0.783005 -0.1609907 -0.6008204 -0.783005 0.1609889 -0.6008213 -0.7830048 0.1609889 -0.6008213 -0.7830048 0.1609889 -0.6008213 -0.7830048 0.1609903 -0.6008189 -0.7830062 0.1609903 -0.6008189 -0.7830062 0.1609903 -0.6008189 -0.7830062 0.4398315 -0.4398315 -0.7830048 0.4398315 -0.4398315 -0.7830048 0.4398315 -0.4398315 -0.7830048 0.4398315 -0.4398315 -0.7830049 0.4398315 -0.4398315 -0.7830049 0.4398315 -0.4398315 -0.7830049 0.6008191 -0.1609883 -0.7830064 0.6008191 -0.1609883 -0.7830064 0.6008191 -0.1609883 -0.7830064 0.6008204 -0.1609907 -0.783005 0.6008204 -0.1609907 -0.783005 0.6008204 -0.1609907 -0.783005 0.6008213 0.1609889 -0.7830048 0.6008213 0.1609889 -0.7830048 0.6008213 0.1609889 -0.7830048 0.6008189 0.1609903 -0.7830062 0.6008189 0.1609903 -0.7830062 0.6008189 0.1609903 -0.7830062 0.4398315 0.4398315 -0.7830048 0.4398315 0.4398315 -0.7830048 0.4398315 0.4398315 -0.7830048 0.4398315 0.4398315 -0.7830049 0.4398315 0.4398315 -0.7830049 0.4398315 0.4398315 -0.7830049 0.1609883 0.6008191 -0.7830064 0.1609883 0.6008191 -0.7830064 0.1609883 0.6008191 -0.7830064 0.1609907 0.6008204 -0.783005 0.1609907 0.6008204 -0.783005 0.1609907 0.6008204 -0.783005 -0.1609889 0.6008213 -0.7830048 -0.1609889 0.6008213 -0.7830048 -0.1609889 0.6008213 -0.7830048 -0.1609903 0.6008189 -0.7830062 -0.1609903 0.6008189 -0.7830062 -0.1609903 0.6008189 -0.7830062 -0.4398315 0.4398315 -0.7830048 -0.4398315 0.4398315 -0.7830048 -0.4398315 0.4398315 -0.7830048 -0.4398315 0.4398315 -0.7830049 -0.4398315 0.4398315 -0.7830049 -0.4398315 0.4398315 -0.7830049 -0.6008191 0.1609883 -0.7830064 -0.6008191 0.1609883 -0.7830064 -0.6008191 0.1609883 -0.7830064 -0.6008204 0.1609907 -0.783005 -0.6008204 0.1609907 -0.783005 -0.6008204 0.1609907 -0.783005 -0.7760118 -0.2079335 -0.5954574 -0.7760118 -0.2079335 -0.5954574 -0.7760118 -0.2079335 -0.5954574 -0.7760146 -0.2079316 -0.5954542 -0.7760146 -0.2079316 -0.5954542 -0.7760146 -0.2079316 -0.5954542 -0.5680802 -0.5680802 -0.5954577 -0.5680802 -0.5680802 -0.5954577 -0.5680802 -0.5680802 -0.5954577 -0.5680802 -0.5680802 -0.5954577 -0.5680802 -0.5680802 -0.5954577 -0.5680802 -0.5680802 -0.5954577 -0.2079341 -0.7760143 -0.5954539 -0.2079341 -0.7760143 -0.5954539 -0.2079341 -0.7760143 -0.5954539 -0.2079311 -0.7760127 -0.5954571 -0.2079311 -0.7760127 -0.5954571 -0.2079311 -0.7760127 -0.5954571 0.2079335 -0.7760118 -0.5954574 0.2079335 -0.7760118 -0.5954574 0.2079335 -0.7760118 -0.5954574 0.2079316 -0.7760146 -0.5954542 0.2079316 -0.7760146 -0.5954542 0.2079316 -0.7760146 -0.5954542 0.5680802 -0.5680802 -0.5954577 0.5680802 -0.5680802 -0.5954577 0.5680802 -0.5680802 -0.5954577 0.5680802 -0.5680802 -0.5954577 0.5680802 -0.5680802 -0.5954577 0.5680802 -0.5680802 -0.5954577 0.7760143 -0.2079341 -0.5954539 0.7760143 -0.2079341 -0.5954539 0.7760143 -0.2079341 -0.5954539 0.7760127 -0.2079311 -0.5954571 0.7760127 -0.2079311 -0.5954571 0.7760127 -0.2079311 -0.5954571 0.7760118 0.2079335 -0.5954574 0.7760118 0.2079335 -0.5954574 0.7760118 0.2079335 -0.5954574 0.7760146 0.2079316 -0.5954542 0.7760146 0.2079316 -0.5954542 0.7760146 0.2079316 -0.5954542 0.5680802 0.5680802 -0.5954577 0.5680802 0.5680802 -0.5954577 0.5680802 0.5680802 -0.5954577 0.5680802 0.5680802 -0.5954577 0.5680802 0.5680802 -0.5954577 0.5680802 0.5680802 -0.5954577 0.2079341 0.7760143 -0.5954539 0.2079341 0.7760143 -0.5954539 0.2079341 0.7760143 -0.5954539 0.2079311 0.7760127 -0.5954571 0.2079311 0.7760127 -0.5954571 0.2079311 0.7760127 -0.5954571 -0.2079335 0.7760118 -0.5954574 -0.2079335 0.7760118 -0.5954574 -0.2079335 0.7760118 -0.5954574 -0.2079316 0.7760146 -0.5954542 -0.2079316 0.7760146 -0.5954542 -0.2079316 0.7760146 -0.5954542</float_array>
                    <technique_common>
                        <accessor count="840" source="#geometry0-normal-array" stride="3">
                            <param name="X" type="float"/>
                            <param name="Y" type="float"/>
                            <param name="Z" type="float"/>
                        </accessor>
                    </technique_common>
                </source>
                <vertices id="geometry0-vertex">
                    <input semantic="POSITION" source="#geometry0-position"/>
                </vertices>
                <triangles count="288" material="default_ai_0.2_sh_0.2_tr_0.0_dc_r_0.8_g_0.8_b_0.8_sc_r_1.0_g_1.0_b_1.0_ec_r_0.0_g_0.0_b_0_tri">
                    <input offset="0" semantic="VERTEX" source="#geometry0-vertex"/>
                    <input offset="1" semantic="NORMAL" source="#geometry0-normal"/>
                    <p>35 0 36 1 48 2 35 3 48 4 47 5 36 6 26 7 38 8 36 9 38 10 48 11 38 12 37 13 49 14 38 15 49 16 50 17 37 18 39 19 51 20 37 21 51 22 49 23 39 24 40 25 52 26 39 27 52 28 51 29 40 30 41 31 53 32 40 33 53 34 52 35 41 36 42 37 54 38 41 39 54 40 53 41 42 42 43 43 55 44 42 45 55 46 54 47 43 48 44 49 56 50 43 51 56 52 55 53 44 54 45 55 57 56 44 57 57 58 56 59 45 60 46 61 58 62 45 63 58 64 57 65 46 66 47 67 59 68 46 69 59 70 58 71 47 72 48 73 60 74 47 75 60 76 59 77 48 78 38 79 50 80 48 81 50 82 60 83 50 84 49 85 61 86 50 87 61 88 62 89 49 90 51 91 63 92 49 93 63 94 61 95 51 96 52 97 64 98 51 99 64 100 63 101 52 102 53 103 65 104 52 105 65 106 64 107 53 108 54 109 66 110 53 111 66 112 65 113 54 114 55 115 67 116 54 117 67 118 66 119 55 120 56 121 68 122 55 123 68 124 67 125 56 126 57 127 69 128 56 129 69 130 68 131 57 132 58 133 70 134 57 135 70 136 69 137 58 138 59 139 71 140 58 141 71 142 70 143 59 144 60 145 72 146 59 147 72 148 71 149 60 150 50 151 62 152 60 153 62 154 72 155 62 156 61 157 73 158 62 159 73 160 74 161 61 162 63 163 75 164 61 165 75 166 73 167 63 168 64 169 76 170 63 171 76 172 75 173 64 174 65 175 77 176 64 177 77 178 76 179 65 180 66 181 78 182 65 183 78 184 77 185 66 186 67 187 79 188 66 189 79 190 78 191 67 192 68 193 80 194 67 195 80 196 79 197 68 198 69 199 81 200 68 201 81 202 80 203 69 204 70 205 82 206 69 207 82 208 81 209 70 210 71 211 83 212 70 213 83 214 82 215 71 216 72 217 84 218 71 219 84 220 83 221 72 222 62 223 74 224 72 225 74 226 84 227 74 228 73 229 85 230 74 231 85 232 86 233 73 234 75 235 87 236 73 237 87 238 85 239 75 240 76 241 88 242 75 243 88 244 87 245 76 246 77 247 89 248 76 249 89 250 88 251 77 252 78 253 90 254 77 255 90 256 89 257 78 258 79 259 91 260 78 261 91 262 90 263 79 264 80 265 92 266 79 267 92 268 91 269 80 270 81 271 93 272 80 273 93 274 92 275 81 276 82 277 94 278 81 279 94 280 93 281 82 282 83 283 95 284 82 285 95 286 94 287 83 288 84 289 96 290 83 291 96 292 95 293 84 294 74 295 86 296 84 297 86 298 96 299 86 300 85 301 97 302 86 303 97 304 98 305 85 306 87 307 99 308 85 309 99 310 97 311 87 312 88 313 100 314 87 315 100 316 99 317 88 318 89 319 101 320 88 321 101 322 100 323 89 324 90 325 102 326 89 327 102 328 101 329 90 330 91 331 103 332 90 333 103 334 102 335 91 336 92 337 104 338 91 339 104 340 103 341 92 342 93 343 105 344 92 345 105 346 104 347 93 348 94 349 106 350 93 351 106 352 105 353 94 354 95 355 107 356 94 357 107 358 106 359 95 360 96 361 108 362 95 363 108 364 107 365 96 366 86 367 98 368 96 369 98 370 108 371 98 372 97 373 109 374 98 375 109 376 110 377 97 378 99 379 111 380 97 381 111 382 109 383 99 384 100 385 112 386 99 387 112 388 111 389 100 390 101 391 113 392 100 393 113 394 112 395 101 396 102 397 114 398 101 399 114 400 113 401 102 402 103 403 115 404 102 405 115 406 114 407 103 408 104 409 116 410 103 411 116 412 115 413 104 414 105 415 117 416 104 417 117 418 116 419 105 420 106 421 118 422 105 423 118 424 117 425 106 426 107 427 119 428 106 429 119 430 118 431 107 432 108 433 120 434 107 435 120 436 119 437 108 438 98 439 110 440 108 441 110 442 120 443 110 444 109 445 121 446 110 447 121 448 122 449 109 450 111 451 123 452 109 453 123 454 121 455 111 456 112 457 124 458 111 459 124 460 123 461 112 462 113 463 125 464 112 465 125 466 124 467 113 468 114 469 126 470 113 471 126 472 125 473 114 474 115 475 127 476 114 477 127 478 126 479 115 480 116 481 128 482 115 483 128 484 127 485 116 486 117 487 129 488 116 489 129 490 128 491 117 492 118 493 130 494 117 495 130 496 129 497 118 498 119 499 131 500 118 501 131 502 130 503 119 504 120 505 132 506 119 507 132 508 131 509 120 510 110 511 122 512 120 513 122 514 132 515 122 516 121 517 133 518 122 519 133 520 133 520 121 521 123 522 133 523 121 524 133 525 133 525 123 526 124 527 133 528 123 529 133 530 133 530 124 531 125 532 133 533 124 534 133 535 133 535 125 536 126 537 133 538 125 539 133 540 133 540 126 541 127 542 133 543 126 544 133 545 133 545 127 546 128 547 133 548 127 549 133 550 133 550 128 551 129 552 133 553 128 554 133 555 133 555 129 556 130 557 133 558 129 559 133 560 133 560 130 561 131 562 133 563 130 564 133 565 133 565 131 566 132 567 133 568 131 569 133 570 133 570 132 571 122 572 133 573 132 574 133 575 133 575 0 576 0 576 1 577 0 578 1 579 2 580 0 581 0 581 3 582 0 583 3 584 1 585 0 586 0 586 4 587 0 588 4 589 3 590 0 591 0 591 5 592 0 593 5 594 4 595 0 596 0 596 6 597 0 598 6 599 5 600 0 601 0 601 7 602 0 603 7 604 6 605 0 606 0 606 8 607 0 608 8 609 7 610 0 611 0 611 9 612 0 613 9 614 8 615 0 616 0 616 10 617 0 618 10 619 9 620 0 621 0 621 11 622 0 623 11 624 10 625 0 626 0 626 12 627 0 628 12 629 11 630 0 631 0 631 2 632 0 633 2 634 12 635 2 636 1 637 13 638 2 639 13 640 14 641 1 642 3 643 15 644 1 645 15 646 13 647 3 648 4 649 16 650 3 651 16 652 15 653 4 654 5 655 17 656 4 657 17 658 16 659 5 660 6 661 18 662 5 663 18 664 17 665 6 666 7 667 19 668 6 669 19 670 18 671 7 672 8 673 20 674 7 675 20 676 19 677 8 678 9 679 21 680 8 681 21 682 20 683 9 684 10 685 22 686 9 687 22 688 21 689 10 690 11 691 23 692 10 693 23 694 22 695 11 696 12 697 24 698 11 699 24 700 23 701 12 702 2 703 14 704 12 705 14 706 24 707 14 708 13 709 25 710 14 711 25 712 26 713 13 714 15 715 27 716 13 717 27 718 25 719 15 720 16 721 28 722 15 723 28 724 27 725 16 726 17 727 29 728 16 729 29 730 28 731 17 732 18 733 30 734 17 735 30 736 29 737 18 738 19 739 31 740 18 741 31 742 30 743 19 744 20 745 32 746 19 747 32 748 31 749 20 750 21 751 33 752 20 753 33 754 32 755 21 756 22 757 34 758 21 759 34 760 33 761 22 762 23 763 35 764 22 765 35 766 34 767 23 768 24 769 36 770 23 771 36 772 35 773 24 774 14 775 26 776 24 777 26 778 36 779 26 780 25 781 37 782 26 783 37 784 38 785 25 786 27 787 39 788 25 789 39 790 37 791 27 792 28 793 40 794 27 795 40 796 39 797 28 798 29 799 41 800 28 801 41 802 40 803 29 804 30 805 42 806 29 807 42 808 41 809 30 810 31 811 43 812 30 813 43 814 42 815 31 816 32 817 44 818 31 819 44 820 43 821 32 822 33 823 45 824 32 825 45 826 44 827 33 828 34 829 46 830 33 831 46 832 45 833 34 834 35 835 47 836 34 837 47 838 46 839</p>
                </triangles>
            </mesh>
        </geometry>
    </library_geometries>
    <library_visual_scenes>
        <visual_scene id="Building_128_CROWN2">
            <node>
                <instance_geometry url="#geometry0">
                    <bind_material>
                        <technique_common>
                            <instance_material symbol="default_ai_0.2_sh_0.2_tr_0.0_dc_r_0.8_g_0.8_b_0.8_sc_r_1.0_g_1.0_b_1.0_ec_r_0.0_g_0.0_b_0_tri" target="#default_ai_0.2_sh_0.2_tr_0.0_dc_r_0.8_g_0.8_b_0.8_sc_r_1.0_g_1.0_b_1.0_ec_r_0.0_g_0.0_b_0_mat"/>
                        </technique_common>
                    </bind_material>
                </instance_geometry>
            </node>
        </visual_scene>
    </library_visual_scenes>
    <scene>
        <instance_visual_scene url="#Building_128_CROWN2"/>
    </scene>
</COLLADA>
