<?xml version="1.0" encoding="UTF-8" standalone="yes"?>
<COLLADA xmlns="http://www.collada.org/2005/11/COLLADASchema" version="1.4.1">
    <asset>
        <contributor>
            <authoring_tool>3D City Database Importer/Exporter, version 5.5.3; Chair of Geoinformatics, Technical University of Munich</authoring_tool>
        </contributor>
        <created>2026-09-25T14:45:19.384</created>
        <modified>2026-09-25T14:45:19.384</modified>
        <unit meter="1.0" name="meters"/>
        <up_axis>Z_UP</up_axis>
    </asset>
    <library_materials>
        <material id="default_ai_0.2_sh_0.2_tr_0.0_dc_r_0.8_g_0.8_b_0.8_sc_r_1.0_g_1.0_b_1.0_ec_r_0.0_g_0.0_b_0_mat">
            <instance_effect url="#default_ai_0.2_sh_0.2_tr_0.0_dc_r_0.8_g_0.8_b_0.8_sc_r_1.0_g_1.0_b_1.0_ec_r_0.0_g_0.0_b_0_eff"/>
        </material>
    </library_materials>
    <library_effects>
        <effect id="default_ai_0.2_sh_0.2_tr_0.0_dc_r_0.8_g_0.8_b_0.8_sc_r_1.0_g_1.0_b_1.0_ec_r_0.0_g_0.0_b_0_eff">
            <profile_COMMON>
                <technique sid="COMMON">
                    <lambert>
                        <emission>
                            <color>0.0 0.0 0.0 1.0</color>
                        </emission>
                        <diffuse>
                            <color>0.8 0.8 0.8 1.0</color>
                        </diffuse>
                        <reflective>
                            <color>1.0 1.0 1.0 1.0</color>
                        </reflective>
                        <reflectivity>
                            <float>0.2</float>
                        </reflectivity>
                        <transparent opaque="A_ONE">
                            <color>1.0 1.0 1.0 1.0</color>
                        </transparent>
                        <transparency>
                            <float>1.0</float>
                        </transparency>
                    </lambert>
                </technique>
                <extra>
                    <technique profile="GOOGLEEARTH">
                        <double_sided>0</double_sided>
                    </technique>
                </extra>
            </profile_COMMON>
        </effect>
    </library_effects>
    <library_geometries>
        <geometry id="geometry0">
            <mesh>
                <source id="geometry0-position">
                    <float_array id="geometry0-position-array" count="402">0.0 0.0 1.4 0.1569008 0.090587 1.3761482 0.1811733 0.0 1.3761482 0.090587 0.1569008 1.3761482 0.0 0.1811733 1.3761482 -0.090587 0.1569008 1.3761482 -0.1569008 0.090587 1.3761482 -0.1811733 0.0 1.3761482 -0.1569008 -0.090587 1.3761482 -0.090587 -0.1569008 1.3761482 0.0 -0.1811733 1.3761482 0.090587 -0.1569008 1.3761482 0.1569008 -0.090587 1.3761482 0.3031091 0.175 1.3062175 0.35 0.0 1.3062175 0.175 0.3031091 1.3062175 0.0 0.35 1.3062175 -0.175 0.3031091 1.3062175 -0.3031091 0.175 1.3062175 -0.35 0.0 1.3062175 -0.3031091 -0.175 1.3062175 -0.175 -0.3031091 1.3062175 0.0 -0.35 1.3062175 0.175 -0.3031091 1.3062175 0.3031091 -0.175 1.3062175 0.4286604 0.2474871 1.1949749 0.4949749 0.0 1.1949749 0.2474871 0.4286604 1.1949749 0.0 0.4949749 1.1949749 -0.2474871 0.4286604 1.1949749 -0.4286604 0.2474871 1.1949749 -0.4949749 0.0 1.1949749 -0.4286604 -0.2474871 1.1949749 -0.2474871 -0.4286604 1.1949749 0.0 -0.4949749 1.1949749 0.2474871 -0.4286604 1.1949749 0.4286604 -0.2474871 1.1949749 0.525 0.3031091 1.05 0.6062175 0.0 1.05 0.3031091 0.525 1.05 0.0 0.6062175 1.05 -0.3031091 0.525 1.05 -0.525 0.3031091 1.05 -0.6062175 0.0 1.05 -0.525 -0.3031091 1.05 -0.3031091 -0.525 1.05 0.0 -0.6062175 1.05 0.3031091 -0.525 1.05 0.525 -0.3031091 1.05 0.5855612 0.3380741 0.8811733 0.6761482 0.0 0.8811733 0.3380741 0.5855612 0.8811733 0.0 0.6761482 0.8811733 -0.3380741 0.5855612 0.8811733 -0.5855612 0.3380741 0.8811733 -0.6761482 0.0 0.8811733 -0.5855612 -0.3380741 0.8811733 -0.3380741 -0.5855612 0.8811733 0.0 -0.6761482 0.8811733 0.3380741 -0.5855612 0.8811733 0.5855612 -0.3380741 0.8811733 0.6062175 0.35 0.7 0.7 0.0 0.7 0.35 0.6062175 0.7 0.0 0.7 0.7 -0.35 0.6062175 0.7 -0.6062175 0.35 0.7 -0.7 0.0 0.7 -0.6062175 -0.35 0.7 -0.35 -0.6062175 0.7 0.0 -0.7 0.7 0.35 -0.6062175 0.7 0.6062175 -0.35 0.7 0.5855612 0.3380741 0.5188267 0.6761482 0.0 0.5188267 0.3380741 0.5855612 0.5188267 0.0 0.6761482 0.5188267 -0.3380741 0.5855612 0.5188267 -0.5855612 0.3380741 0.5188267 -0.6761482 0.0 0.5188267 -0.5855612 -0.3380741 0.5188267 -0.3380741 -0.5855612 0.5188267 0.0 -0.6761482 0.5188267 0.3380741 -0.5855612 0.5188267 0.5855612 -0.3380741 0.5188267 0.525 0.3031091 0.35 0.6062175 0.0 0.35 0.3031091 0.525 0.35 0.0 0.6062175 0.35 -0.3031091 0.525 0.35 -0.525 0.3031091 0.35 -0.6062175 0.0 0.35 -0.525 -0.3031091 0.35 -0.3031091 -0.525 0.35 0.0 -0.6062175 0.35 0.3031091 -0.525 0.35 0.525 -0.3031091 0.35 0.4286604 0.2474871 0.2050251 0.4949749 0.0 0.2050251 0.2474871 0.4286604 0.2050251 0.0 0.4949749 0.2050251 -0.2474871 0.4286604 0.2050251 -0.4286604 0.2474871 0.2050251 -0.4949749 0.0 0.2050251 -0.4286604 -0.2474871 0.2050251 -0.2474871 -0.4286604 0.2050251 0.0 -0.4949749 0.2050251 0.2474871 -0.4286604 0.2050251 0.4286604 -0.2474871 0.2050251 0.3031091 0.175 0.0937825 0.35 0.0 0.0937825 0.175 0.3031091 0.0937825 0.0 0.35 0.0937825 -0.175 0.3031091 0.0937825 -0.3031091 0.175 0.0937825 -0.35 0.0 0.0937825 -0.3031091 -0.175 0.0937825 -0.175 -0.3031091 0.0937825 0.0 -0.35 0.0937825 0.175 -0.3031091 0.0937825 0.3031091 -0.175 0.0937825 0.1569008 0.090587 0.0238518 0.1811733 0.0 0.0238518 0.090587 0.1569008 0.0238518 0.0 0.1811733 0.0238518 -0.090587 0.1569008 0.0238518 -0.1569008 0.090587 0.0238518 -0.1811733 0.0 0.0238518 -0.1569008 -0.090587 0.0238518 -0.090587 -0.1569008 0.0238518 0.0 -0.1811733 0.0238518 0.090587 -0.1569008 0.0238518 0.1569008 -0.090587 0.0238518 0.0 0.0 0.0</float_array>
                    <technique_common>
                        <accessor count="134" source="#geometry0-position-array" stride="3">
                            <param name="X" type="float"/>
                            <param name="Y" type="float"/>
                            <param name="Z" type="float"/>
                        </accessor>
                    </technique_common>
                </source>
                <source id="geometry0-normal">
                    <float_array id="geometry0-normal-array" count="2520">0.2079317 0.7760147 0.595454 0.2079317 0.7760147 0.595454 0.2079317 0.7760147 0.595454 0.2079335 0.7760119 0.5954572 0.2079335 0.7760119 0.5954572 0.2079335 0.7760119 0.5954572 -0.2079312 0.7760127 0.5954569 -0.2079312 0.7760127 0.5954569 -0.2079312 0.7760127 0.5954569 -0.2079342 0.7760144 0.5954537 -0.2079342 0.7760144 0.5954537 -0.2079342 0.7760144 0.5954537 -0.5680802 0.5680802 0.5954575 -0.5680802 0.5680802 0.5954575 -0.5680802 0.5680802 0.5954575 -0.5680802 0.5680802 0.5954575 -0.5680802 0.5680802 0.5954575 -0.5680802 0.5680802 0.5954575 -0.7760147 0.2079317 0.595454 -0.7760147 0.2079317 0.595454 -0.7760147 0.2079317 0.595454 -0.7760119 0.2079335 0.5954572 -0.7760119 0.2079335 0.5954572 -0.7760119 0.2079335 0.5954572 -0.6008204 -0.1609907 0.783005 -0.6008204 -0.1609907 0.783005 -0.6008204 -0.1609907 0.783005 -0.6008191 -0.1609882 0.7830065 -0.6008191 -0.1609882 0.7830065 -0.6008191 -0.1609882 0.7830065 -0.4398315 -0.4398315 0.7830049 -0.4398315 -0.4398315 0.7830049 -0.4398315 -0.4398315 0.7830049 -0.4398314 -0.4398314 0.7830048 -0.4398314 -0.4398314 0.7830048 -0.4398314 -0.4398314 0.7830048 -0.1609903 -0.6008189 0.7830064 -0.1609903 -0.6008189 0.7830064 -0.1609903 -0.6008189 0.7830064 -0.1609888 -0.6008212 0.7830048 -0.1609888 -0.6008212 0.7830048 -0.1609888 -0.6008212 0.7830048 0.1609907 -0.6008204 0.783005 0.1609907 -0.6008204 0.783005 0.1609907 -0.6008204 0.783005 0.1609882 -0.6008191 0.7830065 0.1609882 -0.6008191 0.7830065 0.1609882 -0.6008191 0.7830065 0.4398315 -0.4398315 0.7830049 0.4398315 -0.4398315 0.7830049 0.4398315 -0.4398315 0.7830049 0.4398314 -0.4398314 0.7830048 0.4398314 -0.4398314 0.7830048 0.4398314 -0.4398314 0.7830048 0.6008189 -0.1609903 0.7830064 0.6008189 -0.1609903 0.7830064 0.6008189 -0.1609903 0.7830064 0.6008212 -0.1609888 0.7830048 0.6008212 -0.1609888 0.7830048 0.6008212 -0.1609888 0.7830048 0.6008204 0.1609907 0.783005 0.6008204 0.1609907 0.783005 0.6008204 0.1609907 0.783005 0.6008191 0.1609882 0.7830065 0.6008191 0.1609882 0.7830065 0.6008191 0.1609882 0.7830065 0.4398315 0.4398315 0.7830049 0.4398315 0.4398315 0.7830049 0.4398315 0.4398315 0.7830049 0.4398314 0.4398314 0.7830048 0.4398314 0.4398314 0.7830048 0.4398314 0.4398314 0.7830048 0.1609903 0.6008189 0.7830064 0.1609903 0.6008189 0.7830064 0.1609903 0.6008189 0.7830064 0.1609888 0.6008212 0.7830048 0.1609888 0.6008212 0.7830048 0.1609888 0.6008212 0.7830048 -0.1609907 0.6008204 0.783005 -0.1609907 0.6008204 0.783005 -0.1609907 0.6008204 0.783005 -0.1609882 0.6008191 0.7830065 -0.1609882 0.6008191 0.7830065 -0.1609882 0.6008191 0.7830065 -0.4398315 0.4398315 0.7830049 -0.4398315 0.4398315 0.7830049 -0.4398315 0.4398315 0.7830049 -0.4398314 0.4398314 0.7830048 -0.4398314 0.4398314 0.7830048 -0.4398314 0.4398314 0.7830048 -0.6008189 0.1609903 0.7830064 -0.6008189 0.1609903 0.7830064 -0.6008189 0.1609903 0.7830064 -0.6008212 0.1609888 0.7830048 -0.6008212 0.1609888 0.7830048 -0.6008212 0.1609888 0.7830048 -0.3806893 -0.1020049 0.9190596 -0.3806893 -0.1020049 0.9190596 -0.3806893 -0.1020049 0.9190596 -0.3806891 -0.1020045 0.9190598 -0.3806891 -0.1020045 0.9190598 -0.3806891 -0.1020045 0.9190598 -0.278684 -0.278684 0.9190595 -0.278684 -0.278684 0.9190595 -0.278684 -0.278684 0.9190595 -0.278684 -0.278684 0.9190596 -0.278684 -0.278684 0.9190596 -0.278684 -0.278684 0.9190596 -0.1020049 -0.3806891 0.9190597 -0.1020049 -0.3806891 0.9190597 -0.1020049 -0.3806891 0.9190597 -0.1020046 -0.3806896 0.9190597 -0.1020046 -0.3806896 0.9190597 -0.1020046 -0.3806896 0.9190597 0.1020049 -0.3806893 0.9190596 0.1020049 -0.3806893 0.9190596 0.1020049 -0.3806893 0.9190596 0.1020045 -0.3806891 0.9190598 0.1020045 -0.3806891 0.9190598 0.1020045 -0.3806891 0.9190598 0.278684 -0.278684 0.9190595 0.278684 -0.278684 0.9190595 0.278684 -0.278684 0.9190595 0.278684 -0.278684 0.9190596 0.278684 -0.278684 0.9190596 0.278684 -0.278684 0.9190596 0.3806891 -0.1020049 0.9190597 0.3806891 -0.1020049 0.9190597 0.3806891 -0.1020049 0.9190597 0.3806896 -0.1020046 0.9190597 0.3806896 -0.1020046 0.9190597 0.3806896 -0.1020046 0.9190597 0.3806893 0.1020049 0.9190596 0.3806893 0.1020049 0.9190596 0.3806893 0.1020049 0.9190596 0.3806891 0.1020045 0.9190598 0.3806891 0.1020045 0.9190598 0.3806891 0.1020045 0.9190598 0.278684 0.278684 0.9190595 0.278684 0.278684 0.9190595 0.278684 0.278684 0.9190595 0.278684 0.278684 0.9190596 0.278684 0.278684 0.9190596 0.278684 0.278684 0.9190596 0.1020049 0.3806891 0.9190597 0.1020049 0.3806891 0.9190597 0.1020049 0.3806891 0.9190597 0.1020046 0.3806896 0.9190597 0.1020046 0.3806896 0.9190597 0.1020046 0.3806896 0.9190597 -0.1020049 0.3806893 0.9190596 -0.1020049 0.3806893 0.9190596 -0.1020049 0.3806893 0.9190596 -0.1020045 0.3806891 0.9190598 -0.1020045 0.3806891 0.9190598 -0.1020045 0.3806891 0.9190598 -0.278684 0.278684 0.9190595 -0.278684 0.278684 0.9190595 -0.278684 0.278684 0.9190595 -0.278684 0.278684 0.9190596 -0.278684 0.278684 0.9190596 -0.278684 0.278684 0.9190596 -0.3806891 0.1020049 0.9190597 -0.3806891 0.1020049 0.9190597 -0.3806891 0.1020049 0.9190597 -0.3806896 0.1020046 0.9190597 -0.3806896 0.1020046 0.9190597 -0.3806896 0.1020046 0.9190597 -0.1304458 -0.0349525 0.9908391 -0.1304458 -0.0349525 0.9908391 -0.1304458 -0.0349525 0.9908391 1.0 0.0 0.0 1.0 0.0 0.0 -0.0954928 -0.0954928 0.9908392 -0.0954928 -0.0954928 0.9908392 -0.0954928 -0.0954928 0.9908392 1.0 0.0 0.0 1.0 0.0 0.0 -0.0349525 -0.1304458 0.9908391 -0.0349525 -0.1304458 0.9908391 -0.0349525 -0.1304458 0.9908391 1.0 0.0 0.0 1.0 0.0 0.0 0.0349525 -0.1304458 0.9908391 0.0349525 -0.1304458 0.9908391 0.0349525 -0.1304458 0.9908391 1.0 0.0 0.0 1.0 0.0 0.0 0.0954928 -0.0954928 0.9908392 0.0954928 -0.0954928 0.9908392 0.0954928 -0.0954928 0.9908392 1.0 0.0 0.0 1.0 0.0 0.0 0.1304458 -0.0349525 0.9908391 0.1304458 -0.0349525 0.9908391 0.1304458 -0.0349525 0.9908391 1.0 0.0 0.0 1.0 0.0 0.0 0.1304458 0.0349525 0.9908391 0.1304458 0.0349525 0.9908391 0.1304458 0.0349525 0.9908391 1.0 0.0 0.0 1.0 0.0 0.0 0.0954928 0.0954928 0.9908392 0.0954928 0.0954928 0.9908392 0.0954928 0.0954928 0.9908392 1.0 0.0 0.0 1.0 0.0 0.0 0.0349525 0.1304458 0.9908391 0.0349525 0.1304458 0.9908391 0.0349525 0.1304458 0.9908391 1.0 0.0 0.0 1.0 0.0 0.0 -0.0349525 0.1304458 0.9908391 -0.0349525 0.1304458 0.9908391 -0.0349525 0.1304458 0.9908391 1.0 0.0 0.0 1.0 0.0 0.0 -0.0954928 0.0954928 0.9908392 -0.0954928 0.0954928 0.9908392 -0.0954928 0.0954928 0.9908392 1.0 0.0 0.0 1.0 0.0 0.0 -0.1304458 0.0349525 0.9908391 -0.1304458 0.0349525 0.9908391 -0.1304458 0.0349525 0.9908391 1.0 0.0 0.0 1.0 0.0 0.0 1.0 0.0 0.0 1.0 0.0 0.0 -0.1304456 -0.0349525 -0.9908392 -0.1304456 -0.0349525 -0.9908392 -0.1304456 -0.0349525 -0.9908392 1.0 0.0 0.0 1.0 0.0 0.0 -0.0954926 -0.0954926 -0.9908392 -0.0954926 -0.0954926 -0.9908392 -0.0954926 -0.0954926 -0.9908392 1.0 0.0 0.0 1.0 0.0 0.0 -0.0349525 -0.1304456 -0.9908392 -0.0349525 -0.1304456 -0.9908392 -0.0349525 -0.1304456 -0.9908392 1.0 0.0 0.0 1.0 0.0 0.0 0.0349525 -0.1304456 -0.9908392 0.0349525 -0.1304456 -0.9908392 0.0349525 -0.1304456 -0.9908392 1.0 0.0 0.0 1.0 0.0 0.0 0.0954926 -0.0954926 -0.9908392 0.0954926 -0.0954926 -0.9908392 0.0954926 -0.0954926 -0.9908392 1.0 0.0 0.0 1.0 0.0 0.0 0.1304456 -0.0349525 -0.9908392 0.1304456 -0.0349525 -0.9908392 0.1304456 -0.0349525 -0.9908392 1.0 0.0 0.0 1.0 0.0 0.0 0.1304456 0.0349525 -0.9908392 0.1304456 0.0349525 -0.9908392 0.1304456 0.0349525 -0.9908392 1.0 0.0 0.0 1.0 0.0 0.0 0.0954926 0.0954926 -0.9908392 0.0954926 0.0954926 -0.9908392 0.0954926 0.0954926 -0.9908392 1.0 0.0 0.0 1.0 0.0 0.0 0.0349525 0.1304456 -0.9908392 0.0349525 0.1304456 -0.9908392 0.0349525 0.1304456 -0.9908392 1.0 0.0 0.0 1.0 0.0 0.0 -0.0349525 0.1304456 -0.9908392 -0.0349525 0.1304456 -0.9908392 -0.0349525 0.1304456 -0.9908392 1.0 0.0 0.0 1.0 0.0 0.0 -0.0954926 0.0954926 -0.9908392 -0.0954926 0.0954926 -0.9908392 -0.0954926 0.0954926 -0.9908392 1.0 0.0 0.0 1.0 0.0 0.0 -0.1304456 0.0349525 -0.9908392 -0.1304456 0.0349525 -0.9908392 -0.1304456 0.0349525 -0.9908392 -0.3806894 -0.1020045 -0.9190596 -0.3806894 -0.1020045 -0.9190596 -0.3806894 -0.1020045 -0.9190596 -0.380689 -0.1020048 -0.9190598 -0.380689 -0.1020048 -0.9190598 -0.380689 -0.1020048 -0.9190598 -0.2786839 -0.2786839 -0.9190596 -0.2786839 -0.2786839 -0.9190596 -0.2786839 -0.2786839 -0.9190596 -0.2786839 -0.2786839 -0.9190596 -0.2786839 -0.2786839 -0.9190596 -0.2786839 -0.2786839 -0.9190596 -0.1020044 -0.380689 -0.9190598 -0.1020044 -0.380689 -0.9190598 -0.1020044 -0.380689 -0.9190598 -0.1020049 -0.3806892 -0.9190597 -0.1020049 -0.3806892 -0.9190597 -0.1020049 -0.3806892 -0.9190597 0.1020045 -0.3806894 -0.9190596 0.1020045 -0.3806894 -0.9190596 0.1020045 -0.3806894 -0.9190596 0.1020048 -0.380689 -0.9190598 0.1020048 -0.380689 -0.9190598 0.1020048 -0.380689 -0.9190598 0.2786839 -0.2786839 -0.9190596 0.2786839 -0.2786839 -0.9190596 0.2786839 -0.2786839 -0.9190596 0.2786839 -0.2786839 -0.9190596 0.2786839 -0.2786839 -0.9190596 0.2786839 -0.2786839 -0.9190596 0.380689 -0.1020044 -0.9190598 0.380689 -0.1020044 -0.9190598 0.380689 -0.1020044 -0.9190598 0.3806892 -0.1020049 -0.9190597 0.3806892 -0.1020049 -0.9190597 0.3806892 -0.1020049 -0.9190597 0.3806894 0.1020045 -0.9190596 0.3806894 0.1020045 -0.9190596 0.3806894 0.1020045 -0.9190596 0.380689 0.1020048 -0.9190598 0.380689 0.1020048 -0.9190598 0.380689 0.1020048 -0.9190598 0.2786839 0.2786839 -0.9190596 0.2786839 0.2786839 -0.9190596 0.2786839 0.2786839 -0.9190596 0.2786839 0.2786839 -0.9190596 0.2786839 0.2786839 -0.9190596 0.2786839 0.2786839 -0.9190596 0.1020044 0.380689 -0.9190598 0.1020044 0.380689 -0.9190598 0.1020044 0.380689 -0.9190598 0.1020049 0.3806892 -0.9190597 0.1020049 0.3806892 -0.9190597 0.1020049 0.3806892 -0.9190597 -0.1020045 0.3806894 -0.9190596 -0.1020045 0.3806894 -0.9190596 -0.1020045 0.3806894 -0.9190596 -0.1020048 0.380689 -0.9190598 -0.1020048 0.380689 -0.9190598 -0.1020048 0.380689 -0.9190598 -0.2786839 0.2786839 -0.9190596 -0.2786839 0.2786839 -0.9190596 -0.2786839 0.2786839 -0.9190596 -0.2786839 0.2786839 -0.9190596 -0.2786839 0.2786839 -0.9190596 -0.2786839 0.2786839 -0.9190596 -0.380689 0.1020044 -0.9190598 -0.380689 0.1020044 -0.9190598 -0.380689 0.1020044 -0.9190598 -0.3806892 0.1020049 -0.9190597 -0.3806892 0.1020049 -0.9190597 -0.3806892 0.1020049 -0.9190597 -0.6008214 -0.1609889 -0.7830047 -0.6008214 -0.1609889 -0.7830047 -0.6008214 -0.1609889 -0.7830047 -0.600819 -0.1609903 -0.7830062 -0.600819 -0.1609903 -0.7830062 -0.600819 -0.1609903 -0.7830062 -0.4398316 -0.4398316 -0.7830048 -0.4398316 -0.4398316 -0.7830048 -0.4398316 -0.4398316 -0.7830048 -0.4398316 -0.4398316 -0.7830048 -0.4398316 -0.4398316 -0.7830048 -0.4398316 -0.4398316 -0.7830048 -0.1609883 -0.6008192 -0.7830064 -0.1609883 -0.6008192 -0.7830064 -0.1609883 -0.6008192 -0.7830064 -0.1609907 -0.6008205 -0.7830049 -0.1609907 -0.6008205 -0.7830049 -0.1609907 -0.6008205 -0.7830049 0.1609889 -0.6008214 -0.7830047 0.1609889 -0.6008214 -0.7830047 0.1609889 -0.6008214 -0.7830047 0.1609903 -0.600819 -0.7830062 0.1609903 -0.600819 -0.7830062 0.1609903 -0.600819 -0.7830062 0.4398316 -0.4398316 -0.7830048 0.4398316 -0.4398316 -0.7830048 0.4398316 -0.4398316 -0.7830048 0.4398316 -0.4398316 -0.7830048 0.4398316 -0.4398316 -0.7830048 0.4398316 -0.4398316 -0.7830048 0.6008192 -0.1609883 -0.7830064 0.6008192 -0.1609883 -0.7830064 0.6008192 -0.1609883 -0.7830064 0.6008205 -0.1609907 -0.7830049 0.6008205 -0.1609907 -0.7830049 0.6008205 -0.1609907 -0.7830049 0.6008214 0.1609889 -0.7830047 0.6008214 0.1609889 -0.7830047 0.6008214 0.1609889 -0.7830047 0.600819 0.1609903 -0.7830062 0.600819 0.1609903 -0.7830062 0.600819 0.1609903 -0.7830062 0.4398316 0.4398316 -0.7830048 0.4398316 0.4398316 -0.7830048 0.4398316 0.4398316 -0.7830048 0.4398316 0.4398316 -0.7830048 0.4398316 0.4398316 -0.7830048 0.4398316 0.4398316 -0.7830048 0.1609883 0.6008192 -0.7830064 0.1609883 0.6008192 -0.7830064 0.1609883 0.6008192 -0.7830064 0.1609907 0.6008205 -0.7830049 0.1609907 0.6008205 -0.7830049 0.1609907 0.6008205 -0.7830049 -0.1609889 0.6008214 -0.7830047 -0.1609889 0.6008214 -0.7830047 -0.1609889 0.6008214 -0.7830047 -0.1609903 0.600819 -0.7830062 -0.1609903 0.600819 -0.7830062 -0.1609903 0.600819 -0.7830062 -0.4398316 0.4398316 -0.7830048 -0.4398316 0.4398316 -0.7830048 -0.4398316 0.4398316 -0.7830048 -0.4398316 0.4398316 -0.7830048 -0.4398316 0.4398316 -0.7830048 -0.4398316 0.4398316 -0.7830048 -0.6008192 0.1609883 -0.7830064 -0.6008192 0.1609883 -0.7830064 -0.6008192 0.1609883 -0.7830064 -0.6008205 0.1609907 -0.7830049 -0.6008205 0.1609907 -0.7830049 -0.6008205 0.1609907 -0.7830049 -0.7760119 -0.2079335 -0.595457 -0.7760119 -0.2079335 -0.595457 -0.7760119 -0.2079335 -0.595457 -0.7760148 -0.2079317 -0.595454 -0.7760148 -0.2079317 -0.595454 -0.7760148 -0.2079317 -0.595454 -0.5680804 -0.5680804 -0.5954573 -0.5680804 -0.5680804 -0.5954573 -0.5680804 -0.5680804 -0.5954573 -0.5680803 -0.5680803 -0.5954574 -0.5680803 -0.5680803 -0.5954574 -0.5680803 -0.5680803 -0.5954574 -0.2079342 -0.7760145 -0.5954536 -0.2079342 -0.7760145 -0.5954536 -0.2079342 -0.7760145 -0.5954536 -0.2079312 -0.7760128 -0.5954568 -0.2079312 -0.7760128 -0.5954568 -0.2079312 -0.7760128 -0.5954568 0.2079335 -0.7760119 -0.595457 0.2079335 -0.7760119 -0.595457 0.2079335 -0.7760119 -0.595457 0.2079317 -0.7760148 -0.595454 0.2079317 -0.7760148 -0.595454 0.2079317 -0.7760148 -0.595454 0.5680804 -0.5680804 -0.5954573 0.5680804 -0.5680804 -0.5954573 0.5680804 -0.5680804 -0.5954573 0.5680803 -0.5680803 -0.5954574 0.5680803 -0.5680803 -0.5954574 0.5680803 -0.5680803 -0.5954574 0.7760145 -0.2079342 -0.5954536 0.7760145 -0.2079342 -0.5954536 0.7760145 -0.2079342 -0.5954536 0.7760128 -0.2079312 -0.5954568 0.7760128 -0.2079312 -0.5954568 0.7760128 -0.2079312 -0.5954568 0.7760119 0.2079335 -0.595457 0.7760119 0.2079335 -0.595457 0.7760119 0.2079335 -0.595457 0.7760148 0.2079317 -0.595454 0.7760148 0.2079317 -0.595454 0.7760148 0.2079317 -0.595454 0.5680804 0.5680804 -0.5954573 0.5680804 0.5680804 -0.5954573 0.5680804 0.5680804 -0.5954573 0.5680803 0.5680803 -0.5954574 0.5680803 0.5680803 -0.5954574 0.5680803 0.5680803 -0.5954574 0.2079342 0.7760145 -0.5954536 0.2079342 0.7760145 -0.5954536 0.2079342 0.7760145 -0.5954536 0.2079312 0.7760128 -0.5954568 0.2079312 0.7760128 -0.5954568 0.2079312 0.7760128 -0.5954568 -0.2079335 0.7760119 -0.595457 -0.2079335 0.7760119 -0.595457 -0.2079335 0.7760119 -0.595457 -0.2079317 0.7760148 -0.595454 -0.2079317 0.7760148 -0.595454 -0.2079317 0.7760148 -0.595454 -0.5680804 0.5680804 -0.5954573 -0.5680804 0.5680804 -0.5954573 -0.5680804 0.5680804 -0.5954573 -0.5680803 0.5680803 -0.5954574 -0.5680803 0.5680803 -0.5954574 -0.5680803 0.5680803 -0.5954574 -0.7760145 0.2079342 -0.5954536 -0.7760145 0.2079342 -0.5954536 -0.7760145 0.2079342 -0.5954536 -0.7760128 0.2079312 -0.5954568 -0.7760128 0.2079312 -0.5954568 -0.7760128 0.2079312 -0.5954568 -0.8968095 -0.2402985 -0.3714693 -0.8968095 -0.2402985 -0.3714693 -0.8968095 -0.2402985 -0.3714693 -0.896808 -0.2402997 -0.3714721 -0.896808 -0.2402997 -0.3714721 -0.896808 -0.2402997 -0.3714721 -0.6565099 -0.6565099 -0.3714693 -0.6565099 -0.6565099 -0.3714693 -0.6565099 -0.6565099 -0.3714693 -0.6565099 -0.6565099 -0.3714693 -0.6565099 -0.6565099 -0.3714693 -0.6565099 -0.6565099 -0.3714693 -0.2402982 -0.8968083 -0.3714722 -0.2402982 -0.8968083 -0.3714722 -0.2402982 -0.8968083 -0.3714722 -0.2403 -0.896809 -0.3714695 -0.2403 -0.896809 -0.3714695 -0.2403 -0.896809 -0.3714695 0.2402985 -0.8968095 -0.3714693 0.2402985 -0.8968095 -0.3714693 0.2402985 -0.8968095 -0.3714693 0.2402997 -0.896808 -0.3714721 0.2402997 -0.896808 -0.3714721 0.2402997 -0.896808 -0.3714721 0.6565099 -0.6565099 -0.3714693 0.6565099 -0.6565099 -0.3714693 0.6565099 -0.6565099 -0.3714693 0.6565099 -0.6565099 -0.3714693 0.6565099 -0.6565099 -0.3714693 0.6565099 -0.6565099 -0.3714693 0.8968083 -0.2402982 -0.3714722 0.8968083 -0.2402982 -0.3714722 0.8968083 -0.2402982 -0.3714722 0.896809 -0.2403 -0.3714695 0.896809 -0.2403 -0.3714695 0.896809 -0.2403 -0.3714695 0.8968095 0.2402985 -0.3714693 0.8968095 0.2402985 -0.3714693 0.8968095 0.2402985 -0.3714693 0.896808 0.2402997 -0.3714721 0.896808 0.2402997 -0.3714721 0.896808 0.2402997 -0.3714721 0.6565099 0.6565099 -0.3714693 0.6565099 0.6565099 -0.3714693 0.6565099 0.6565099 -0.3714693 0.6565099 0.6565099 -0.3714693 0.6565099 0.6565099 -0.3714693 0.6565099 0.6565099 -0.3714693 0.2402982 0.8968083 -0.3714722 0.2402982 0.8968083 -0.3714722 0.2402982 0.8968083 -0.3714722 0.2403 0.896809 -0.3714695 0.2403 0.896809 -0.3714695 0.2403 0.896809 -0.3714695 -0.2402985 0.8968095 -0.3714693 -0.2402985 0.8968095 -0.3714693 -0.2402985 0.8968095 -0.3714693 -0.2402997 0.896808 -0.3714721 -0.2402997 0.896808 -0.3714721 -0.2402997 0.896808 -0.3714721 -0.6565099 0.6565099 -0.3714693 -0.6565099 0.6565099 -0.3714693 -0.6565099 0.6565099 -0.3714693 -0.6565099 0.6565099 -0.3714693 -0.6565099 0.6565099 -0.3714693 -0.6565099 0.6565099 -0.3714693 -0.8968083 0.2402982 -0.3714722 -0.8968083 0.2402982 -0.3714722 -0.8968083 0.2402982 -0.3714722 -0.896809 0.2403 -0.3714695 -0.896809 0.2403 -0.3714695 -0.896809 0.2403 -0.3714695 -0.958209 -0.2567521 -0.1261501 -0.958209 -0.2567521 -0.1261501 -0.958209 -0.2567521 -0.1261501 -0.958209 -0.2567521 -0.12615 -0.958209 -0.2567521 -0.12615 -0.958209 -0.2567521 -0.12615 -0.7014578 -0.7014578 -0.1261501 -0.7014578 -0.7014578 -0.1261501 -0.7014578 -0.7014578 -0.1261501 -0.7014578 -0.7014578 -0.1261501 -0.7014578 -0.7014578 -0.1261501 -0.7014578 -0.7014578 -0.1261501 -0.2567521 -0.958209 -0.12615 -0.2567521 -0.958209 -0.12615 -0.2567521 -0.958209 -0.12615 -0.2567521 -0.958209 -0.1261501 -0.2567521 -0.958209 -0.1261501 -0.2567521 -0.958209 -0.1261501 0.2567521 -0.958209 -0.1261501 0.2567521 -0.958209 -0.1261501 0.2567521 -0.958209 -0.1261501 0.2567521 -0.958209 -0.12615 0.2567521 -0.958209 -0.12615 0.2567521 -0.958209 -0.12615 0.7014578 -0.7014578 -0.1261501 0.7014578 -0.7014578 -0.1261501 0.7014578 -0.7014578 -0.1261501 0.7014578 -0.7014578 -0.1261501 0.7014578 -0.7014578 -0.1261501 0.7014578 -0.7014578 -0.1261501 0.958209 -0.2567521 -0.12615 0.958209 -0.2567521 -0.12615 0.958209 -0.2567521 -0.12615 0.958209 -0.2567521 -0.1261501 0.958209 -0.2567521 -0.1261501 0.958209 -0.2567521 -0.1261501 0.958209 0.2567521 -0.1261501 0.958209 0.2567521 -0.1261501 0.958209 0.2567521 -0.1261501 0.958209 0.2567521 -0.12615 0.958209 0.2567521 -0.12615 0.958209 0.2567521 -0.12615 0.7014578 0.7014578 -0.1261501 0.7014578 0.7014578 -0.1261501 0.7014578 0.7014578 -0.1261501 0.7014578 0.7014578 -0.1261501 0.7014578 0.7014578 -0.1261501 0.7014578 0.7014578 -0.1261501 0.2567521 0.958209 -0.12615 0.2567521 0.958209 -0.12615 0.2567521 0.958209 -0.12615 0.2567521 0.958209 -0.1261501 0.2567521 0.958209 -0.1261501 0.2567521 0.958209 -0.1261501 -0.2567521 0.958209 -0.1261501 -0.2567521 0.958209 -0.1261501 -0.2567521 0.958209 -0.1261501 -0.2567521 0.958209 -0.12615 -0.2567521 0.958209 -0.12615 -0.2567521 0.958209 -0.12615 -0.7014578 0.7014578 -0.1261501 -0.7014578 0.7014578 -0.1261501 -0.7014578 0.7014578 -0.1261501 -0.7014578 0.7014578 -0.1261501 -0.7014578 0.7014578 -0.1261501 -0.7014578 0.7014578 -0.1261501 -0.958209 0.2567521 -0.12615 -0.958209 0.2567521 -0.12615 -0.958209 0.2567521 -0.12615 -0.958209 0.2567521 -0.1261501 -0.958209 0.2567521 -0.1261501 -0.958209 0.2567521 -0.1261501 -0.9582091 -0.2567521 0.1261502 -0.9582091 -0.2567521 0.1261502 -0.9582091 -0.2567521 0.1261502 -0.958209 -0.2567521 0.12615 -0.958209 -0.2567521 0.12615 -0.958209 -0.2567521 0.12615 -0.7014578 -0.7014578 0.1261501 -0.7014578 -0.7014578 0.1261501 -0.7014578 -0.7014578 0.1261501 -0.7014578 -0.7014578 0.1261502 -0.7014578 -0.7014578 0.1261502 -0.7014578 -0.7014578 0.1261502 -0.2567521 -0.9582091 0.1261501 -0.2567521 -0.9582091 0.1261501 -0.2567521 -0.9582091 0.1261501 -0.2567521 -0.958209 0.1261502 -0.2567521 -0.958209 0.1261502 -0.2567521 -0.958209 0.1261502 0.2567521 -0.9582091 0.1261502 0.2567521 -0.9582091 0.1261502 0.2567521 -0.9582091 0.1261502 0.2567521 -0.958209 0.12615 0.2567521 -0.958209 0.12615 0.2567521 -0.958209 0.12615 0.7014578 -0.7014578 0.1261501 0.7014578 -0.7014578 0.1261501 0.7014578 -0.7014578 0.1261501 0.7014578 -0.7014578 0.1261502 0.7014578 -0.7014578 0.1261502 0.7014578 -0.7014578 0.1261502 0.9582091 -0.2567521 0.1261501 0.9582091 -0.2567521 0.1261501 0.9582091 -0.2567521 0.1261501 0.958209 -0.2567521 0.1261502 0.958209 -0.2567521 0.1261502 0.958209 -0.2567521 0.1261502 0.9582091 0.2567521 0.1261502 0.9582091 0.2567521 0.1261502 0.9582091 0.2567521 0.1261502 0.958209 0.2567521 0.12615 0.958209 0.2567521 0.12615 0.958209 0.2567521 0.12615 0.7014578 0.7014578 0.1261501 0.7014578 0.7014578 0.1261501 0.7014578 0.7014578 0.1261501 0.7014578 0.7014578 0.1261502 0.7014578 0.7014578 0.1261502 0.7014578 0.7014578 0.1261502 0.2567521 0.9582091 0.1261501 0.2567521 0.9582091 0.1261501 0.2567521 0.9582091 0.1261501 0.2567521 0.958209 0.1261502 0.2567521 0.958209 0.1261502 0.2567521 0.958209 0.1261502 -0.2567521 0.9582091 0.1261502 -0.2567521 0.9582091 0.1261502 -0.2567521 0.9582091 0.1261502 -0.2567521 0.958209 0.12615 -0.2567521 0.958209 0.12615 -0.2567521 0.958209 0.12615 -0.7014578 0.7014578 0.1261501 -0.7014578 0.7014578 0.1261501 -0.7014578 0.7014578 0.1261501 -0.7014578 0.7014578 0.1261502 -0.7014578 0.7014578 0.1261502 -0.7014578 0.7014578 0.1261502 -0.9582091 0.2567521 0.1261501 -0.9582091 0.2567521 0.1261501 -0.9582091 0.2567521 0.1261501 -0.958209 0.2567521 0.1261502 -0.958209 0.2567521 0.1261502 -0.958209 0.2567521 0.1261502 -0.8968091 -0.2403 0.3714693 -0.8968091 -0.2403 0.3714693 -0.8968091 -0.2403 0.3714693 -0.8968084 -0.2402982 0.3714721 -0.8968084 -0.2402982 0.3714721 -0.8968084 -0.2402982 0.3714721 -0.65651 -0.65651 0.3714691 -0.65651 -0.65651 0.3714691 -0.65651 -0.65651 0.3714691 -0.6565099 -0.6565099 0.3714692 -0.6565099 -0.6565099 0.3714692 -0.6565099 -0.6565099 0.3714692 -0.2402997 -0.896808 0.3714719 -0.2402997 -0.896808 0.3714719 -0.2402997 -0.896808 0.3714719 -0.2402984 -0.8968095 0.3714692 -0.2402984 -0.8968095 0.3714692 -0.2402984 -0.8968095 0.3714692 0.2403 -0.8968091 0.3714693 0.2403 -0.8968091 0.3714693 0.2403 -0.8968091 0.3714693 0.2402982 -0.8968084 0.3714721 0.2402982 -0.8968084 0.3714721 0.2402982 -0.8968084 0.3714721 0.65651 -0.65651 0.3714691 0.65651 -0.65651 0.3714691 0.65651 -0.65651 0.3714691 0.6565099 -0.6565099 0.3714692 0.6565099 -0.6565099 0.3714692 0.6565099 -0.6565099 0.3714692 0.896808 -0.2402997 0.3714719 0.896808 -0.2402997 0.3714719 0.896808 -0.2402997 0.3714719 0.8968095 -0.2402984 0.3714692 0.8968095 -0.2402984 0.3714692 0.8968095 -0.2402984 0.3714692 0.8968091 0.2403 0.3714693 0.8968091 0.2403 0.3714693 0.8968091 0.2403 0.3714693 0.8968084 0.2402982 0.3714721 0.8968084 0.2402982 0.3714721 0.8968084 0.2402982 0.3714721 0.65651 0.65651 0.3714691 0.65651 0.65651 0.3714691 0.65651 0.65651 0.3714691 0.6565099 0.6565099 0.3714692 0.6565099 0.6565099 0.3714692 0.6565099 0.6565099 0.3714692 0.2402997 0.896808 0.3714719 0.2402997 0.896808 0.3714719 0.2402997 0.896808 0.3714719 0.2402984 0.8968095 0.3714692 0.2402984 0.8968095 0.3714692 0.2402984 0.8968095 0.3714692 -0.2403 0.8968091 0.3714693 -0.2403 0.8968091 0.3714693 -0.2403 0.8968091 0.3714693 -0.2402982 0.8968084 0.3714721 -0.2402982 0.8968084 0.3714721 -0.2402982 0.8968084 0.3714721 -0.65651 0.65651 0.3714691 -0.65651 0.65651 0.3714691 -0.65651 0.65651 0.3714691 -0.6565099 0.6565099 0.3714692 -0.6565099 0.6565099 0.3714692 -0.6565099 0.6565099 0.3714692 -0.896808 0.2402997 0.3714719 -0.896808 0.2402997 0.3714719 -0.896808 0.2402997 0.3714719 -0.8968095 0.2402984 0.3714692 -0.8968095 0.2402984 0.3714692 -0.8968095 0.2402984 0.3714692 -0.7760127 -0.2079312 0.5954569 -0.7760127 -0.2079312 0.5954569 -0.7760127 -0.2079312 0.5954569 -0.7760144 -0.2079342 0.5954537 -0.7760144 -0.2079342 0.5954537 -0.7760144 -0.2079342 0.5954537 -0.5680802 -0.5680802 0.5954575 -0.5680802 -0.5680802 0.5954575 -0.5680802 -0.5680802 0.5954575 -0.5680802 -0.5680802 0.5954575 -0.5680802 -0.5680802 0.5954575 -0.5680802 -0.5680802 0.5954575 -0.2079317 -0.7760147 0.595454 -0.2079317 -0.7760147 0.595454 -0.2079317 -0.7760147 0.595454 -0.2079335 -0.7760119 0.5954572 -0.2079335 -0.7760119 0.5954572 -0.2079335 -0.7760119 0.5954572 0.2079312 -0.7760127 0.5954569 0.2079312 -0.7760127 0.5954569 0.2079312 -0.7760127 0.5954569 0.2079342 -0.7760144 0.5954537 0.2079342 -0.7760144 0.5954537 0.2079342 -0.7760144 0.5954537 0.5680802 -0.5680802 0.5954575 0.5680802 -0.5680802 0.5954575 0.5680802 -0.5680802 0.5954575 0.5680802 -0.5680802 0.5954575 0.5680802 -0.5680802 0.5954575 0.5680802 -0.5680802 0.5954575 0.7760147 -0.2079317 0.595454 0.7760147 -0.2079317 0.595454 0.7760147 -0.2079317 0.595454 0.7760119 -0.2079335 0.5954572 0.7760119 -0.2079335 0.5954572 0.7760119 -0.2079335 0.5954572 0.7760127 0.2079312 0.5954569 0.7760127 0.2079312 0.5954569 0.7760127 0.2079312 0.5954569 0.7760144 0.2079342 0.5954537 0.7760144 0.2079342 0.5954537 0.7760144 0.2079342 0.5954537 0.5680802 0.5680802 0.5954575 0.5680802 0.5680802 0.5954575 0.5680802 0.5680802 0.5954575 0.5680802 0.5680802 0.5954575 0.5680802 0.5680802 0.5954575 0.5680802 0.5680802 0.5954575</float_array>
                    <technique_common>
                        <accessor count="840" source="#geometry0-normal-array" stride="3">
                            <param name="X" type="float"/>
                            <param name="Y" type="float"/>
                            <param name="Z" type="float"/>
                        </accessor>
                    </technique_common>
                </source>
                <vertices id="geometry0-vertex">
                    <input semantic="POSITION" source="#geometry0-position"/>
                </vertices>
                <triangles count="288" material="default_ai_0.2_sh_0.2_tr_0.0_dc_r_0.8_g_0.8_b_0.8_sc_r_1.0_g_1.0_b_1.0_ec_r_0.0_g_0.0_b_0_tri">
                    <input offset="0" semantic="VERTEX" source="#geometry0-vertex"/>
                    <input offset="1" semantic="NORMAL" source="#geometry0-normal"/>
                    <p>93 0 94 1 106 2 93 3 106 4 105 5 94 6 95 7 107 8 94 9 107 10 106 11 95 12 96 13 108 14 95 15 108 16 107 17 96 18 86 19 98 20 96 21 98 22 108 23 98 24 97 25 109 26 98 27 109 28 110 29 97 30 99 31 111 32 97 33 111 34 109 35 99 36 100 37 112 38 99 39 112 40 111 41 100 42 101 43 113 44 100 45 113 46 112 47 101 48 102 49 114 50 101 51 114 52 113 53 102 54 103 55 115 56 102 57 115 58 114 59 103 60 104 61 116 62 103 63 116 64 115 65 104 66 105 67 117 68 104 69 117 70 116 71 105 72 106 73 118 74 105 75 118 76 117 77 106 78 107 79 119 80 106 81 119 82 118 83 107 84 108 85 120 86 107 87 120 88 119 89 108 90 98 91 110 92 108 93 110 94 120 95 110 96 109 97 121 98 110 99 121 100 122 101 109 102 111 103 123 104 109 105 123 106 121 107 111 108 112 109 124 110 111 111 124 112 123 113 112 114 113 115 125 116 112 117 125 118 124 119 113 120 114 121 126 122 113 123 126 124 125 125 114 126 115 127 127 128 114 129 127 130 126 131 115 132 116 133 128 134 115 135 128 136 127 137 116 138 117 139 129 140 116 141 129 142 128 143 117 144 118 145 130 146 117 147 130 148 129 149 118 150 119 151 131 152 118 153 131 154 130 155 119 156 120 157 132 158 119 159 132 160 131 161 120 162 110 163 122 164 120 165 122 166 132 167 122 168 121 169 133 170 122 171 133 172 133 172 121 173 123 174 133 175 121 176 133 177 133 177 123 178 124 179 133 180 123 181 133 182 133 182 124 183 125 184 133 185 124 186 133 187 133 187 125 188 126 189 133 190 125 191 133 192 133 192 126 193 127 194 133 195 126 196 133 197 133 197 127 198 128 199 133 200 127 201 133 202 133 202 128 203 129 204 133 205 128 206 133 207 133 207 129 208 130 209 133 210 129 211 133 212 133 212 130 213 131 214 133 215 130 216 133 217 133 217 131 218 132 219 133 220 131 221 133 222 133 222 132 223 122 224 133 225 132 226 133 227 133 227 0 228 0 228 1 229 0 230 1 231 2 232 0 233 0 233 3 234 0 235 3 236 1 237 0 238 0 238 4 239 0 240 4 241 3 242 0 243 0 243 5 244 0 245 5 246 4 247 0 248 0 248 6 249 0 250 6 251 5 252 0 253 0 253 7 254 0 255 7 256 6 257 0 258 0 258 8 259 0 260 8 261 7 262 0 263 0 263 9 264 0 265 9 266 8 267 0 268 0 268 10 269 0 270 10 271 9 272 0 273 0 273 11 274 0 275 11 276 10 277 0 278 0 278 12 279 0 280 12 281 11 282 0 283 0 283 2 284 0 285 2 286 12 287 2 288 1 289 13 290 2 291 13 292 14 293 1 294 3 295 15 296 1 297 15 298 13 299 3 300 4 301 16 302 3 303 16 304 15 305 4 306 5 307 17 308 4 309 17 310 16 311 5 312 6 313 18 314 5 315 18 316 17 317 6 318 7 319 19 320 6 321 19 322 18 323 7 324 8 325 20 326 7 327 20 328 19 329 8 330 9 331 21 332 8 333 21 334 20 335 9 336 10 337 22 338 9 339 22 340 21 341 10 342 11 343 23 344 10 345 23 346 22 347 11 348 12 349 24 350 11 351 24 352 23 353 12 354 2 355 14 356 12 357 14 358 24 359 14 360 13 361 25 362 14 363 25 364 26 365 13 366 15 367 27 368 13 369 27 370 25 371 15 372 16 373 28 374 15 375 28 376 27 377 16 378 17 379 29 380 16 381 29 382 28 383 17 384 18 385 30 386 17 387 30 388 29 389 18 390 19 391 31 392 18 393 31 394 30 395 19 396 20 397 32 398 19 399 32 400 31 401 20 402 21 403 33 404 20 405 33 406 32 407 21 408 22 409 34 410 21 411 34 412 33 413 22 414 23 415 35 416 22 417 35 418 34 419 23 420 24 421 36 422 23 423 36 424 35 425 24 426 14 427 26 428 24 429 26 430 36 431 26 432 25 433 37 434 26 435 37 436 38 437 25 438 27 439 39 440 25 441 39 442 37 443 27 444 28 445 40 446 27 447 40 448 39 449 28 450 29 451 41 452 28 453 41 454 40 455 29 456 30 457 42 458 29 459 42 460 41 461 30 462 31 463 43 464 30 465 43 466 42 467 31 468 32 469 44 470 31 471 44 472 43 473 32 474 33 475 45 476 32 477 45 478 44 479 33 480 34 481 46 482 33 483 46 484 45 485 34 486 35 487 47 488 34 489 47 490 46 491 35 492 36 493 48 494 35 495 48 496 47 497 36 498 26 499 38 500 36 501 38 502 48 503 38 504 37 505 49 506 38 507 49 508 50 509 37 510 39 511 51 512 37 513 51 514 49 515 39 516 40 517 52 518 39 519 52 520 51 521 40 522 41 523 53 524 40 525 53 526 52 527 41 528 42 529 54 530 41 531 54 532 53 533 42 534 43 535 55 536 42 537 55 538 54 539 43 540 44 541 56 542 43 543 56 544 55 545 44 546 45 547 57 548 44 549 57 550 56 551 45 552 46 553 58 554 45 555 58 556 57 557 46 558 47 559 59 560 46 561 59 562 58 563 47 564 48 565 60 566 47 567 60 568 59 569 48 570 38 571 50 572 48 573 50 574 60 575 50 576 49 577 61 578 50 579 61 580 62 581 49 582 51 583 63 584 49 585 63 586 61 587 51 588 52 589 64 590 51 591 64 592 63 593 52 594 53 595 65 596 52 597 65 598 64 599 53 600 54 601 66 602 53 603 66 604 65 605 54 606 55 607 67 608 54 609 67 610 66 611 55 612 56 613 68 614 55 615 68 616 67 617 56 618 57 619 69 620 56 621 69 622 68 623 57 624 58 625 70 626 57 627 70 628 69 629 58 630 59 631 71 632 58 633 71 634 70 635 59 636 60 637 72 638 59 639 72 640 71 641 60 642 50 643 62 644 60 645 62 646 72 647 62 648 61 649 73 650 62 651 73 652 74 653 61 654 63 655 75 656 61 657 75 658 73 659 63 660 64 661 76 662 63 663 76 664 75 665 64 666 65 667 77 668 64 669 77 670 76 671 65 672 66 673 78 674 65 675 78 676 77 677 66 678 67 679 79 680 66 681 79 682 78 683 67 684 68 685 80 686 67 687 80 688 79 689 68 690 69 691 81 692 68 693 81 694 80 695 69 696 70 697 82 698 69 699 82 700 81 701 70 702 71 703 83 704 70 705 83 706 82 707 71 708 72 709 84 710 71 711 84 712 83 713 72 714 62 715 74 716 72 717 74 718 84 719 74 720 73 721 85 722 74 723 85 724 86 725 73 726 75 727 87 728 73 729 87 730 85 731 75 732 76 733 88 734 75 735 88 736 87 737 76 738 77 739 89 740 76 741 89 742 88 743 77 744 78 745 90 746 77 747 90 748 89 749 78 750 79 751 91 752 78 753 91 754 90 755 79 756 80 757 92 758 79 759 92 760 91 761 80 762 81 763 93 764 80 765 93 766 92 767 81 768 82 769 94 770 81 771 94 772 93 773 82 774 83 775 95 776 82 777 95 778 94 779 83 780 84 781 96 782 83 783 96 784 95 785 84 786 74 787 86 788 84 789 86 790 96 791 86 792 85 793 97 794 86 795 97 796 98 797 85 798 87 799 99 800 85 801 99 802 97 803 87 804 88 805 100 806 87 807 100 808 99 809 88 810 89 811 101 812 88 813 101 814 100 815 89 816 90 817 102 818 89 819 102 820 101 821 90 822 91 823 103 824 90 825 103 826 102 827 91 828 92 829 104 830 91 831 104 832 103 833 92 834 93 835 105 836 92 837 105 838 104 839</p>
                </triangles>
            </mesh>
        </geometry>
    </library_geometries>
    <library_visual_scenes>
        <visual_scene id="Building_216_CROWN2">
            <node>
                <instance_geometry url="#geometry0">
                    <bind_material>
                        <technique_common>
                            <instance_material symbol="default_ai_0.2_sh_0.2_tr_0.0_dc_r_0.8_g_0.8_b_0.8_sc_r_1.0_g_1.0_b_1.0_ec_r_0.0_g_0.0_b_0_tri" target="#default_ai_0.2_sh_0.2_tr_0.0_dc_r_0.8_g_0.8_b_0.8_sc_r_1.0_g_1.0_b_1.0_ec_r_0.0_g_0.0_b_0_mat"/>
                        </technique_common>
                    </bind_material>
                </instance_geometry>
            </node>
        </visual_scene>
    </library_visual_scenes>
    <scene>
        <instance_visual_scene url="#Building_216_CROWN2"/>
    </scene>
</COLLADA>
