<?xml version="1.0" encoding="UTF-8" standalone="yes"?>
<COLLADA xmlns="http://www.collada.org/2005/11/COLLADASchema" version="1.4.1">
    <asset>
        <contributor>
            <authoring_tool>3D City Database Importer/Exporter, version 5.5.3; Chair of Geoinformatics, Technical University of Munich</authoring_tool>
        </contributor>
        <created>2026-09-25T14:44:50.380</created>
        <modified>2026-09-25T14:44:50.380</modified>
        <unit meter="1.0" name="meters"/>
        <up_axis>Z_UP</up_axis>
    </asset>
    <library_materials>
        <material id="default_ai_0.2_sh_0.2_tr_0.0_dc_r_0.8_g_0.8_b_0.8_sc_r_1.0_g_1.0_b_1.0_ec_r_0.0_g_0.0_b_0_mat">
            <instance_effect url="#default_ai_0.2_sh_0.2_tr_0.0_dc_r_0.8_g_0.8_b_0.8_sc_r_1.0_g_1.0_b_1.0_ec_r_0.0_g_0.0_b_0_eff"/>
        </material>
    </library_materials>
    <library_effects>
        <effect id="default_ai_0.2_sh_0.2_tr_0.0_dc_r_0.8_g_0.8_b_0.8_sc_r_1.0_g_1.0_b_1.0_ec_r_0.0_g_0.0_b_0_eff">
            <profile_COMMON>
                <technique sid="COMMON">
                    <lambert>
                        <emission>
                            <color>0.0 0.0 0.0 1.0</color>
                        </emission>
                        <diffuse>
                            <color>0.8 0.8 0.8 1.0</color>
                        </diffuse>
                        <reflective>
                            <color>1.0 1.0 1.0 1.0</color>
                        </reflective>
                        <reflectivity>
                            <float>0.2</float>
                        </reflectivity>
                        <transparent opaque="A_ONE">
                            <color>1.0 1.0 1.0 1.0</color>
                        </transparent>
                        <transparency>
                            <float>1.0</float>
                        </transparency>
                    </lambert>
                </technique>
                <extra>
                    <technique profile="GOOGLEEARTH">
                        <double_sided>0</double_sided>
                    </technique>
                </extra>
            </profile_COMMON>
        </effect>
    </library_effects>
    <library_geometries>
        <geometry id="geometry0">
            <mesh>
                <source id="geometry0-position">
                    <float_array id="geometry0-position-array" count="78">0.0 0.0 0.0 -0.0121912 0.0455 0.0 -0.0121912 0.0455 1.12 0.0 0.0 1.12 -0.0455 0.0788088 0.0 -0.0455 0.0788088 1.12 -0.091 0.091 0.0 -0.091 0.091 1.12 -0.1365 0.0788088 0.0 -0.1365 0.0788088 1.12 -0.1698088 0.0455 0.0 -0.1698088 0.0455 1.12 -0.182 0.0 0.0 -0.182 0.0 1.12 -0.1698088 -0.0455 0.0 -0.1698088 -0.0455 1.12 -0.1365 -0.0788088 0.0 -0.1365 -0.0788088 1.12 -0.091 -0.091 0.0 -0.091 -0.091 1.12 -0.0455 -0.0788088 0.0 -0.0455 -0.0788088 1.12 -0.0121912 -0.0455 0.0 -0.0121912 -0.0455 1.12 -0.091 0.0 0.0 -0.091 0.0 1.12</float_array>
                    <technique_common>
                        <accessor count="26" source="#geometry0-position-array" stride="3">
                            <param name="X" type="float"/>
                            <param name="Y" type="float"/>
                            <param name="Z" type="float"/>
                        </accessor>
                    </technique_common>
                </source>
                <source id="geometry0-normal">
                    <float_array id="geometry0-normal-array" count="432">0.0 0.0 1.0 0.0 0.0 1.0 0.0 0.0 1.0 0.0 0.0 1.0 0.0 0.0 1.0 0.0 0.0 1.0 0.0 0.0 1.0 0.0 0.0 1.0 0.0 0.0 1.0 0.0 0.0 1.0 0.0 0.0 1.0 0.0 0.0 1.0 0.0 0.0 1.0 0.0 0.0 1.0 0.0 0.0 1.0 0.0 0.0 1.0 0.0 0.0 1.0 0.0 0.0 1.0 0.0 0.0 1.0 0.0 0.0 1.0 0.0 0.0 1.0 0.0 0.0 1.0 0.0 0.0 1.0 0.0 0.0 1.0 0.9659284 0.2588094 0.0 0.9659284 0.2588094 0.0 0.9659284 0.2588094 0.0 0.9659284 0.2588094 0.0 0.9659284 0.2588094 0.0 0.9659284 0.2588094 0.0 0.7071068 0.7071068 0.0 0.7071068 0.7071068 0.0 0.7071068 0.7071068 0.0 0.7071068 0.7071068 0.0 0.7071068 0.7071068 0.0 0.7071068 0.7071068 0.0 0.2588094 0.9659284 0.0 0.2588094 0.9659284 0.0 0.2588094 0.9659284 0.0 0.2588094 0.9659284 0.0 0.2588094 0.9659284 0.0 0.2588094 0.9659284 0.0 -0.2588093 0.9659284 0.0 -0.2588093 0.9659284 0.0 -0.2588093 0.9659284 0.0 -0.2588093 0.9659284 0.0 -0.2588093 0.9659284 0.0 -0.2588093 0.9659284 0.0 -0.7071068 0.7071068 0.0 -0.7071068 0.7071068 0.0 -0.7071068 0.7071068 0.0 -0.7071068 0.7071068 0.0 -0.7071068 0.7071068 0.0 -0.7071068 0.7071068 0.0 -0.9659284 0.2588092 0.0 -0.9659284 0.2588092 0.0 -0.9659284 0.2588092 0.0 -0.9659284 0.2588092 0.0 -0.9659284 0.2588092 0.0 -0.9659284 0.2588092 0.0 -0.9659284 -0.2588092 0.0 -0.9659284 -0.2588092 0.0 -0.9659284 -0.2588092 0.0 -0.9659284 -0.2588092 0.0 -0.9659284 -0.2588092 0.0 -0.9659284 -0.2588092 0.0 -0.7071068 -0.7071068 0.0 -0.7071068 -0.7071068 0.0 -0.7071068 -0.7071068 0.0 -0.7071068 -0.7071068 0.0 -0.7071068 -0.7071068 0.0 -0.7071068 -0.7071068 0.0 -0.2588093 -0.9659284 0.0 -0.2588093 -0.9659284 0.0 -0.2588093 -0.9659284 0.0 -0.2588093 -0.9659284 0.0 -0.2588093 -0.9659284 0.0 -0.2588093 -0.9659284 0.0 0.2588094 -0.9659284 0.0 0.2588094 -0.9659284 0.0 0.2588094 -0.9659284 0.0 0.2588094 -0.9659284 0.0 0.2588094 -0.9659284 0.0 0.2588094 -0.9659284 0.0 0.7071068 -0.7071068 0.0 0.7071068 -0.7071068 0.0 0.7071068 -0.7071068 0.0 0.7071068 -0.7071068 0.0 0.7071068 -0.7071068 0.0 0.7071068 -0.7071068 0.0 0.9659284 -0.2588094 0.0 0.9659284 -0.2588094 0.0 0.9659284 -0.2588094 0.0 0.9659284 -0.2588094 0.0 0.9659284 -0.2588094 0.0 0.9659284 -0.2588094 0.0 0.0 0.0 -1.0 0.0 0.0 -1.0 0.0 0.0 -1.0 0.0 0.0 -1.0 0.0 0.0 -1.0 0.0 0.0 -1.0 0.0 0.0 -1.0 0.0 0.0 -1.0 0.0 0.0 -1.0 0.0 0.0 -1.0 0.0 0.0 -1.0 0.0 0.0 -1.0 0.0 0.0 -1.0 0.0 0.0 -1.0 0.0 0.0 -1.0 0.0 0.0 -1.0 0.0 0.0 -1.0 0.0 0.0 -1.0 0.0 0.0 -1.0 0.0 0.0 -1.0 0.0 0.0 -1.0 0.0 0.0 -1.0 0.0 0.0 -1.0 0.0 0.0 -1.0 0.0 0.0 -1.0 0.0 0.0 -1.0 0.0 0.0 -1.0 0.0 0.0 -1.0 0.0 0.0 -1.0 0.0 0.0 -1.0 0.0 0.0 -1.0 0.0 0.0 -1.0 0.0 0.0 -1.0 0.0 0.0 -1.0 0.0 0.0 -1.0 0.0 0.0 -1.0 0.0 0.0 1.0 0.0 0.0 1.0 0.0 0.0 1.0 0.0 0.0 1.0 0.0 0.0 1.0 0.0 0.0 1.0 0.0 0.0 1.0 0.0 0.0 1.0 0.0 0.0 1.0 0.0 0.0 1.0 0.0 0.0 1.0 0.0 0.0 1.0</float_array>
                    <technique_common>
                        <accessor count="144" source="#geometry0-normal-array" stride="3">
                            <param name="X" type="float"/>
                            <param name="Y" type="float"/>
                            <param name="Z" type="float"/>
                        </accessor>
                    </technique_common>
                </source>
                <vertices id="geometry0-vertex">
                    <input semantic="POSITION" source="#geometry0-position"/>
                </vertices>
                <triangles count="48" material="default_ai_0.2_sh_0.2_tr_0.0_dc_r_0.8_g_0.8_b_0.8_sc_r_1.0_g_1.0_b_1.0_ec_r_0.0_g_0.0_b_0_tri">
                    <input offset="0" semantic="VERTEX" source="#geometry0-vertex"/>
                    <input offset="1" semantic="NORMAL" source="#geometry0-normal"/>
                    <p>25 0 9 1 11 2 25 3 11 4 13 5 25 6 13 7 15 8 25 9 15 10 17 11 25 12 17 13 19 14 25 15 19 16 21 17 25 18 21 19 23 20 25 21 23 22 3 23 0 24 1 25 2 26 0 27 2 28 3 29 1 30 4 31 5 32 1 33 5 34 2 35 4 36 6 37 7 38 4 39 7 40 5 41 6 42 8 43 9 44 6 45 9 46 7 47 8 48 10 49 11 50 8 51 11 52 9 53 10 54 12 55 13 56 10 57 13 58 11 59 12 60 14 61 15 62 12 63 15 64 13 65 14 66 16 67 17 68 14 69 17 70 15 71 16 72 18 73 19 74 16 75 19 76 17 77 18 78 20 79 21 80 18 81 21 82 19 83 20 84 22 85 23 86 20 87 23 88 21 89 22 90 0 91 3 92 22 93 3 94 23 95 24 96 1 97 0 98 24 99 4 100 1 101 24 102 6 103 4 104 24 105 8 106 6 107 24 108 10 109 8 110 24 111 12 112 10 113 24 114 14 115 12 116 24 117 16 118 14 119 24 120 18 121 16 122 24 123 20 124 18 125 24 126 22 127 20 128 24 129 0 130 22 131 25 132 3 133 2 134 25 135 2 136 5 137 25 138 5 139 7 140 25 141 7 142 9 143</p>
                </triangles>
            </mesh>
        </geometry>
    </library_geometries>
    <library_visual_scenes>
        <visual_scene id="Building_32_TRUNK2">
            <node>
                <instance_geometry url="#geometry0">
                    <bind_material>
                        <technique_common>
                            <instance_material symbol="default_ai_0.2_sh_0.2_tr_0.0_dc_r_0.8_g_0.8_b_0.8_sc_r_1.0_g_1.0_b_1.0_ec_r_0.0_g_0.0_b_0_tri" target="#default_ai_0.2_sh_0.2_tr_0.0_dc_r_0.8_g_0.8_b_0.8_sc_r_1.0_g_1.0_b_1.0_ec_r_0.0_g_0.0_b_0_mat"/>
                        </technique_common>
                    </bind_material>
                </instance_geometry>
            </node>
        </visual_scene>
    </library_visual_scenes>
    <scene>
        <instance_visual_scene url="#Building_32_TRUNK2"/>
    </scene>
</COLLADA>
